M48
; DRILL file {KiCad 7.0.8-7.0.8~ubuntu22.04.1} date Чт 02 ноя 2023 09:44:41
; FORMAT={-:-/ absolute / inch / decimal}
; #@! TF.CreationDate,2023-11-02T09:44:41+03:00
; #@! TF.GenerationSoftware,Kicad,Pcbnew,7.0.8-7.0.8~ubuntu22.04.1
; #@! TF.FileFunction,Plated,1,4,PTH
FMAT,2
INCH
; #@! TA.AperFunction,Plated,PTH,ComponentDrill
T1C0.0079
; #@! TA.AperFunction,Plated,PTH,ViaDrill
T2C0.0157
; #@! TA.AperFunction,Plated,PTH,ComponentDrill
T3C0.0236
; #@! TA.AperFunction,Plated,PTH,ComponentDrill
T4C0.0300
; #@! TA.AperFunction,Plated,PTH,ComponentDrill
T5C0.0315
; #@! TA.AperFunction,Plated,PTH,ComponentDrill
T6C0.0354
; #@! TA.AperFunction,Plated,PTH,ComponentDrill
T7C0.0374
; #@! TA.AperFunction,Plated,PTH,ComponentDrill
T8C0.0394
; #@! TA.AperFunction,Plated,PTH,ComponentDrill
T9C0.0787
%
G90
G05
T1
X4.6634Y-2.6594
X4.6634Y-2.7008
X4.6634Y-2.7421
X4.7047Y-2.6594
X4.7047Y-2.7008
X4.7047Y-2.7421
X4.7461Y-2.6594
X4.7461Y-2.7008
X4.7461Y-2.7421
T2
X2.4134Y-1.6496
X2.4921Y-2.3583
X2.5472Y-1.8696
X2.6063Y-2.8583
X2.7087Y-1.6063
X2.8031Y-1.5906
X2.8721Y-2.5586
X2.8748Y-2.4902
X2.876Y-2.7042
X2.9094Y-2.0315
X3.1024Y-1.937
X3.1732Y-1.685
X3.1929Y-2.6299
X3.2441Y-1.9843
X3.2598Y-1.685
X3.2638Y-1.8543
X3.2833Y-1.811
X3.315Y-1.9016
X3.4575Y-1.9457
X3.4961Y-2.6299
X3.5079Y-1.9528
X3.5433Y-1.8898
X3.5827Y-2.1614
X3.6956Y-2.6454
X4.0551Y-2.5118
X4.0827Y-3.1024
X4.2244Y-2.6969
X4.2362Y-2.7835
X4.3819Y-3.2323
X4.3898Y-3.0787
X4.4134Y-2.2795
X4.4528Y-2.7205
X4.4528Y-3.1339
X4.4598Y-2.6818
X4.5315Y-2.8465
X4.5512Y-2.1693
X4.5512Y-2.5118
X4.6412Y-3.0787
X4.6457Y-2.9213
X4.6929Y-2.8465
X4.7087Y-2.378
X4.7165Y-2.0748
X4.748Y-2.378
X4.7913Y-2.9291
X4.8031Y-2.6024
X4.8622Y-2.6378
X4.8622Y-2.7953
X4.9419Y-2.7913
X5.0197Y-2.437
X5.0827Y-2.437
X5.1654Y-2.5
X5.315Y-2.7067
X5.3346Y-2.3524
X5.3543Y-2.7067
T3
X4.4331Y-1.6378
X4.6299Y-1.7205
T4
X2.5457Y-3.0709
X2.6457Y-3.0709
X2.7457Y-3.0709
T5
X3.2677Y-3.0584
X3.2677Y-3.1568
X3.5402Y-2.3268
X3.5439Y-3.0584
X3.5439Y-3.1568
X3.7323Y-2.3268
T6
X2.5079Y-2.5217
X2.5079Y-2.6217
X2.5079Y-2.7217
T7
X5.2156Y-1.7047
X5.2156Y-1.8031
X5.2156Y-1.9016
T8
X2.7307Y-2.0984
X2.7307Y-2.2953
X2.7315Y-1.811
X2.7315Y-2.0079
X2.9276Y-2.1969
X2.9283Y-1.9094
X3.0404Y-3.0768
X3.0404Y-3.1768
X3.9187Y-1.6778
X3.9187Y-1.7778
X3.9187Y-1.8778
X3.9187Y-1.9778
X3.9187Y-2.0778
X4.0187Y-1.6778
X4.0187Y-1.7778
X4.0187Y-1.8778
X4.0187Y-1.9778
X4.0187Y-2.0778
T9
X4.248Y-1.6575
T0
M30
