%TF.GenerationSoftware,KiCad,Pcbnew,7.0.8-7.0.8~ubuntu22.04.1*%
%TF.CreationDate,2023-11-02T09:44:39+03:00*%
%TF.ProjectId,outdoor-module,6f757464-6f6f-4722-9d6d-6f64756c652e,rev?*%
%TF.SameCoordinates,Original*%
%TF.FileFunction,Paste,Top*%
%TF.FilePolarity,Positive*%
%FSLAX46Y46*%
G04 Gerber Fmt 4.6, Leading zero omitted, Abs format (unit mm)*
G04 Created by KiCad (PCBNEW 7.0.8-7.0.8~ubuntu22.04.1) date 2023-11-02 09:44:39*
%MOMM*%
%LPD*%
G01*
G04 APERTURE LIST*
G04 Aperture macros list*
%AMRoundRect*
0 Rectangle with rounded corners*
0 $1 Rounding radius*
0 $2 $3 $4 $5 $6 $7 $8 $9 X,Y pos of 4 corners*
0 Add a 4 corners polygon primitive as box body*
4,1,4,$2,$3,$4,$5,$6,$7,$8,$9,$2,$3,0*
0 Add four circle primitives for the rounded corners*
1,1,$1+$1,$2,$3*
1,1,$1+$1,$4,$5*
1,1,$1+$1,$6,$7*
1,1,$1+$1,$8,$9*
0 Add four rect primitives between the rounded corners*
20,1,$1+$1,$2,$3,$4,$5,0*
20,1,$1+$1,$4,$5,$6,$7,0*
20,1,$1+$1,$6,$7,$8,$9,0*
20,1,$1+$1,$8,$9,$2,$3,0*%
G04 Aperture macros list end*
%ADD10RoundRect,0.250000X-1.000000X-0.900000X1.000000X-0.900000X1.000000X0.900000X-1.000000X0.900000X0*%
%ADD11RoundRect,0.250000X-0.450000X0.262500X-0.450000X-0.262500X0.450000X-0.262500X0.450000X0.262500X0*%
%ADD12RoundRect,0.952500X-1.167500X-0.952500X1.167500X-0.952500X1.167500X0.952500X-1.167500X0.952500X0*%
%ADD13RoundRect,0.250000X0.450000X-0.262500X0.450000X0.262500X-0.450000X0.262500X-0.450000X-0.262500X0*%
%ADD14RoundRect,0.225000X-0.225000X-0.250000X0.225000X-0.250000X0.225000X0.250000X-0.225000X0.250000X0*%
%ADD15RoundRect,0.250000X-0.325000X-1.100000X0.325000X-1.100000X0.325000X1.100000X-0.325000X1.100000X0*%
%ADD16RoundRect,0.150000X-0.150000X0.587500X-0.150000X-0.587500X0.150000X-0.587500X0.150000X0.587500X0*%
%ADD17RoundRect,0.225000X0.225000X0.250000X-0.225000X0.250000X-0.225000X-0.250000X0.225000X-0.250000X0*%
%ADD18RoundRect,0.150000X0.587500X0.150000X-0.587500X0.150000X-0.587500X-0.150000X0.587500X-0.150000X0*%
%ADD19RoundRect,0.235000X-1.465000X0.940000X-1.465000X-0.940000X1.465000X-0.940000X1.465000X0.940000X0*%
%ADD20RoundRect,0.225000X0.250000X-0.225000X0.250000X0.225000X-0.250000X0.225000X-0.250000X-0.225000X0*%
%ADD21RoundRect,0.952500X1.167500X0.952500X-1.167500X0.952500X-1.167500X-0.952500X1.167500X-0.952500X0*%
%ADD22RoundRect,0.225000X-0.250000X0.225000X-0.250000X-0.225000X0.250000X-0.225000X0.250000X0.225000X0*%
%ADD23RoundRect,0.250000X-0.312500X-0.625000X0.312500X-0.625000X0.312500X0.625000X-0.312500X0.625000X0*%
%ADD24R,0.350000X0.500000*%
%ADD25RoundRect,0.250000X1.000000X0.650000X-1.000000X0.650000X-1.000000X-0.650000X1.000000X-0.650000X0*%
%ADD26RoundRect,0.250000X0.262500X0.450000X-0.262500X0.450000X-0.262500X-0.450000X0.262500X-0.450000X0*%
%ADD27C,0.700000*%
%ADD28R,0.550000X1.600000*%
%ADD29R,1.600000X0.550000*%
%ADD30RoundRect,0.150000X-0.587500X-0.150000X0.587500X-0.150000X0.587500X0.150000X-0.587500X0.150000X0*%
%ADD31RoundRect,0.250000X-0.262500X-0.450000X0.262500X-0.450000X0.262500X0.450000X-0.262500X0.450000X0*%
%ADD32RoundRect,0.100000X-0.712500X-0.100000X0.712500X-0.100000X0.712500X0.100000X-0.712500X0.100000X0*%
%ADD33RoundRect,0.250000X1.100000X-0.325000X1.100000X0.325000X-1.100000X0.325000X-1.100000X-0.325000X0*%
%ADD34RoundRect,0.250000X0.650000X-1.000000X0.650000X1.000000X-0.650000X1.000000X-0.650000X-1.000000X0*%
%ADD35RoundRect,0.282500X-0.282500X0.282500X-0.282500X-0.282500X0.282500X-0.282500X0.282500X0.282500X0*%
%ADD36RoundRect,0.050000X-0.050000X0.387500X-0.050000X-0.387500X0.050000X-0.387500X0.050000X0.387500X0*%
%ADD37RoundRect,0.050000X-0.387500X0.050000X-0.387500X-0.050000X0.387500X-0.050000X0.387500X0.050000X0*%
%ADD38RoundRect,0.150000X0.150000X-0.587500X0.150000X0.587500X-0.150000X0.587500X-0.150000X-0.587500X0*%
%ADD39RoundRect,0.250000X0.625000X-0.312500X0.625000X0.312500X-0.625000X0.312500X-0.625000X-0.312500X0*%
G04 APERTURE END LIST*
D10*
%TO.C,D7*%
X123550000Y-47500000D03*
X127850000Y-47500000D03*
%TD*%
D11*
%TO.C,R3*%
X82800000Y-40987500D03*
X82800000Y-42812500D03*
%TD*%
D12*
%TO.C,F1*%
X96875000Y-79800000D03*
X103285000Y-79800000D03*
%TD*%
D13*
%TO.C,R30*%
X121700000Y-78312500D03*
X121700000Y-76487500D03*
%TD*%
D10*
%TO.C,D6*%
X123550000Y-42600000D03*
X127850000Y-42600000D03*
%TD*%
D14*
%TO.C,C19*%
X61120000Y-51662500D03*
X62670000Y-51662500D03*
%TD*%
D15*
%TO.C,C34*%
X132525000Y-58000000D03*
X135475000Y-58000000D03*
%TD*%
D16*
%TO.C,U3*%
X86418750Y-69656250D03*
X84518750Y-69656250D03*
X85468750Y-71531250D03*
%TD*%
D15*
%TO.C,C35*%
X132525000Y-61500000D03*
X135475000Y-61500000D03*
%TD*%
D17*
%TO.C,C32*%
X127075000Y-70900000D03*
X125525000Y-70900000D03*
%TD*%
D13*
%TO.C,R2*%
X73000000Y-66812500D03*
X73000000Y-64987500D03*
%TD*%
D11*
%TO.C,R6*%
X82280000Y-48587500D03*
X82280000Y-50412500D03*
%TD*%
%TO.C,R10*%
X63512500Y-41937500D03*
X63512500Y-43762500D03*
%TD*%
D17*
%TO.C,C1*%
X90975000Y-54900000D03*
X89425000Y-54900000D03*
%TD*%
D18*
%TO.C,Q1*%
X70700000Y-70550000D03*
X70700000Y-68650000D03*
X68825000Y-69600000D03*
%TD*%
D13*
%TO.C,R25*%
X64700000Y-49312500D03*
X64700000Y-47487500D03*
%TD*%
D15*
%TO.C,C20*%
X83993750Y-66793750D03*
X86943750Y-66793750D03*
%TD*%
D14*
%TO.C,C37*%
X61345000Y-47500000D03*
X62895000Y-47500000D03*
%TD*%
D11*
%TO.C,R8*%
X104500000Y-57187500D03*
X104500000Y-59012500D03*
%TD*%
D19*
%TO.C,L3*%
X130700000Y-72575000D03*
X130700000Y-78625000D03*
%TD*%
D20*
%TO.C,C33*%
X45400000Y-48975000D03*
X45400000Y-47425000D03*
%TD*%
D14*
%TO.C,C40*%
X65045000Y-50900000D03*
X66595000Y-50900000D03*
%TD*%
D21*
%TO.C,F2*%
X118725000Y-48600000D03*
X112315000Y-48600000D03*
%TD*%
D22*
%TO.C,C23*%
X72200000Y-41025000D03*
X72200000Y-42575000D03*
%TD*%
D20*
%TO.C,C39*%
X111500000Y-79775000D03*
X111500000Y-78225000D03*
%TD*%
D11*
%TO.C,R26*%
X66800000Y-47487500D03*
X66800000Y-49312500D03*
%TD*%
D17*
%TO.C,C2*%
X91275000Y-41200000D03*
X89725000Y-41200000D03*
%TD*%
D14*
%TO.C,C15*%
X61445000Y-57862500D03*
X62995000Y-57862500D03*
%TD*%
D23*
%TO.C,R16*%
X126837500Y-59700000D03*
X129762500Y-59700000D03*
%TD*%
D24*
%TO.C,U7*%
X42025000Y-40775000D03*
X42675000Y-40775000D03*
X43325000Y-40775000D03*
X43975000Y-40775000D03*
X43975000Y-42825000D03*
X43325000Y-42825000D03*
X42675000Y-42825000D03*
X42025000Y-42825000D03*
%TD*%
D25*
%TO.C,D3*%
X107500000Y-70700000D03*
X103500000Y-70700000D03*
%TD*%
D18*
%TO.C,Q2*%
X70688060Y-66900000D03*
X70688060Y-65000000D03*
X68813060Y-65950000D03*
%TD*%
D14*
%TO.C,C25*%
X127525000Y-61900000D03*
X129075000Y-61900000D03*
%TD*%
D26*
%TO.C,R20*%
X116912500Y-72300000D03*
X115087500Y-72300000D03*
%TD*%
D11*
%TO.C,R9*%
X104500000Y-60887500D03*
X104500000Y-62712500D03*
%TD*%
D16*
%TO.C,U5*%
X62870000Y-53787500D03*
X60970000Y-53787500D03*
X61920000Y-55662500D03*
%TD*%
D11*
%TO.C,R11*%
X61312500Y-41950000D03*
X61312500Y-43775000D03*
%TD*%
D27*
%TO.C,MK1*%
X47230000Y-48630000D03*
X47230000Y-45970000D03*
X48370000Y-45970000D03*
X48370000Y-48630000D03*
%TD*%
D26*
%TO.C,R24*%
X114912500Y-79500000D03*
X113087500Y-79500000D03*
%TD*%
D28*
%TO.C,U1*%
X87600000Y-52150000D03*
X88400000Y-52150000D03*
X89200000Y-52150000D03*
X90000000Y-52150000D03*
X90800000Y-52150000D03*
X91600000Y-52150000D03*
X92400000Y-52150000D03*
X93200000Y-52150000D03*
D29*
X94650000Y-50700000D03*
X94650000Y-49900000D03*
X94650000Y-49100000D03*
X94650000Y-48300000D03*
X94650000Y-47500000D03*
X94650000Y-46700000D03*
X94650000Y-45900000D03*
X94650000Y-45100000D03*
D28*
X93200000Y-43650000D03*
X92400000Y-43650000D03*
X91600000Y-43650000D03*
X90800000Y-43650000D03*
X90000000Y-43650000D03*
X89200000Y-43650000D03*
X88400000Y-43650000D03*
X87600000Y-43650000D03*
D29*
X86150000Y-45100000D03*
X86150000Y-45900000D03*
X86150000Y-46700000D03*
X86150000Y-47500000D03*
X86150000Y-48300000D03*
X86150000Y-49100000D03*
X86150000Y-49900000D03*
X86150000Y-50700000D03*
%TD*%
D13*
%TO.C,R1*%
X73000000Y-70512500D03*
X73000000Y-68687500D03*
%TD*%
D30*
%TO.C,Q4*%
X116262500Y-56150000D03*
X116262500Y-58050000D03*
X118137500Y-57100000D03*
%TD*%
D31*
%TO.C,R29*%
X117887500Y-78200000D03*
X119712500Y-78200000D03*
%TD*%
D32*
%TO.C,U6*%
X65900000Y-41975000D03*
X65900000Y-42625000D03*
X65900000Y-43275000D03*
X65900000Y-43925000D03*
X70125000Y-43925000D03*
X70125000Y-43275000D03*
X70125000Y-42625000D03*
X70125000Y-41975000D03*
%TD*%
D14*
%TO.C,C17*%
X42100000Y-44900000D03*
X43650000Y-44900000D03*
%TD*%
%TO.C,C16*%
X42100000Y-46500000D03*
X43650000Y-46500000D03*
%TD*%
D33*
%TO.C,C14*%
X89968750Y-71668750D03*
X89968750Y-68718750D03*
%TD*%
D22*
%TO.C,C4*%
X80330000Y-48525000D03*
X80330000Y-50075000D03*
%TD*%
D11*
%TO.C,R5*%
X80600000Y-40987500D03*
X80600000Y-42812500D03*
%TD*%
D34*
%TO.C,D2*%
X93868750Y-71193750D03*
X93868750Y-67193750D03*
%TD*%
D26*
%TO.C,R19*%
X117412500Y-63900000D03*
X115587500Y-63900000D03*
%TD*%
D35*
%TO.C,U8*%
X120150000Y-67950000D03*
X118850000Y-67950000D03*
X120150000Y-69250000D03*
X118850000Y-69250000D03*
D36*
X120700000Y-66662500D03*
X120300000Y-66662500D03*
X119900000Y-66662500D03*
X119500000Y-66662500D03*
X119100000Y-66662500D03*
X118700000Y-66662500D03*
X118300000Y-66662500D03*
D37*
X117562500Y-67400000D03*
X117562500Y-67800000D03*
X117562500Y-68200000D03*
X117562500Y-68600000D03*
X117562500Y-69000000D03*
X117562500Y-69400000D03*
X117562500Y-69800000D03*
D36*
X118300000Y-70537500D03*
X118700000Y-70537500D03*
X119100000Y-70537500D03*
X119500000Y-70537500D03*
X119900000Y-70537500D03*
X120300000Y-70537500D03*
X120700000Y-70537500D03*
D37*
X121437500Y-69800000D03*
X121437500Y-69400000D03*
X121437500Y-69000000D03*
X121437500Y-68600000D03*
X121437500Y-68200000D03*
X121437500Y-67800000D03*
X121437500Y-67400000D03*
%TD*%
D30*
%TO.C,Q6*%
X123962500Y-73050000D03*
X123962500Y-74950000D03*
X125837500Y-74000000D03*
%TD*%
D31*
%TO.C,R28*%
X113087500Y-77400000D03*
X114912500Y-77400000D03*
%TD*%
D11*
%TO.C,R15*%
X74200000Y-40887500D03*
X74200000Y-42712500D03*
%TD*%
D31*
%TO.C,R4*%
X63187500Y-71600000D03*
X65012500Y-71600000D03*
%TD*%
D14*
%TO.C,C21*%
X114025000Y-53900000D03*
X115575000Y-53900000D03*
%TD*%
D38*
%TO.C,Q5*%
X128950000Y-68437500D03*
X130850000Y-68437500D03*
X129900000Y-66562500D03*
%TD*%
%TO.C,Q3*%
X112100000Y-57937500D03*
X114000000Y-57937500D03*
X113050000Y-56062500D03*
%TD*%
D25*
%TO.C,D5*%
X107500000Y-74600000D03*
X103500000Y-74600000D03*
%TD*%
D26*
%TO.C,R22*%
X127012500Y-69100000D03*
X125187500Y-69100000D03*
%TD*%
D39*
%TO.C,R27*%
X109500000Y-81062500D03*
X109500000Y-78137500D03*
%TD*%
D22*
%TO.C,C26*%
X123500000Y-69425000D03*
X123500000Y-70975000D03*
%TD*%
M02*
