%TF.GenerationSoftware,KiCad,Pcbnew,7.0.8-7.0.8~ubuntu22.04.1*%
%TF.CreationDate,2023-11-02T09:44:39+03:00*%
%TF.ProjectId,outdoor-module,6f757464-6f6f-4722-9d6d-6f64756c652e,rev?*%
%TF.SameCoordinates,Original*%
%TF.FileFunction,Copper,L4,Bot*%
%TF.FilePolarity,Positive*%
%FSLAX46Y46*%
G04 Gerber Fmt 4.6, Leading zero omitted, Abs format (unit mm)*
G04 Created by KiCad (PCBNEW 7.0.8-7.0.8~ubuntu22.04.1) date 2023-11-02 09:44:39*
%MOMM*%
%LPD*%
G01*
G04 APERTURE LIST*
G04 Aperture macros list*
%AMRoundRect*
0 Rectangle with rounded corners*
0 $1 Rounding radius*
0 $2 $3 $4 $5 $6 $7 $8 $9 X,Y pos of 4 corners*
0 Add a 4 corners polygon primitive as box body*
4,1,4,$2,$3,$4,$5,$6,$7,$8,$9,$2,$3,0*
0 Add four circle primitives for the rounded corners*
1,1,$1+$1,$2,$3*
1,1,$1+$1,$4,$5*
1,1,$1+$1,$6,$7*
1,1,$1+$1,$8,$9*
0 Add four rect primitives between the rounded corners*
20,1,$1+$1,$2,$3,$4,$5,0*
20,1,$1+$1,$4,$5,$6,$7,0*
20,1,$1+$1,$6,$7,$8,$9,0*
20,1,$1+$1,$8,$9,$2,$3,0*%
G04 Aperture macros list end*
%TA.AperFunction,ComponentPad*%
%ADD10C,1.500000*%
%TD*%
%TA.AperFunction,ComponentPad*%
%ADD11C,3.000000*%
%TD*%
%TA.AperFunction,ComponentPad*%
%ADD12R,1.800000X1.800000*%
%TD*%
%TA.AperFunction,ComponentPad*%
%ADD13C,1.800000*%
%TD*%
%TA.AperFunction,ComponentPad*%
%ADD14R,1.700000X1.700000*%
%TD*%
%TA.AperFunction,ComponentPad*%
%ADD15O,1.700000X1.700000*%
%TD*%
%TA.AperFunction,ComponentPad*%
%ADD16R,1.600000X1.600000*%
%TD*%
%TA.AperFunction,ComponentPad*%
%ADD17C,1.600000*%
%TD*%
%TA.AperFunction,ComponentPad*%
%ADD18R,1.560000X1.560000*%
%TD*%
%TA.AperFunction,ComponentPad*%
%ADD19C,1.560000*%
%TD*%
%TA.AperFunction,ComponentPad*%
%ADD20C,1.524000*%
%TD*%
%TA.AperFunction,ComponentPad*%
%ADD21C,0.500000*%
%TD*%
%TA.AperFunction,SMDPad,CuDef*%
%ADD22R,2.600000X2.600000*%
%TD*%
%TA.AperFunction,ComponentPad*%
%ADD23RoundRect,0.250000X0.725000X-0.600000X0.725000X0.600000X-0.725000X0.600000X-0.725000X-0.600000X0*%
%TD*%
%TA.AperFunction,ComponentPad*%
%ADD24O,1.950000X1.700000*%
%TD*%
%TA.AperFunction,SMDPad,CuDef*%
%ADD25RoundRect,0.250000X-0.450000X0.262500X-0.450000X-0.262500X0.450000X-0.262500X0.450000X0.262500X0*%
%TD*%
%TA.AperFunction,SMDPad,CuDef*%
%ADD26RoundRect,0.225000X-0.250000X0.225000X-0.250000X-0.225000X0.250000X-0.225000X0.250000X0.225000X0*%
%TD*%
%TA.AperFunction,SMDPad,CuDef*%
%ADD27RoundRect,0.250000X0.450000X-0.262500X0.450000X0.262500X-0.450000X0.262500X-0.450000X-0.262500X0*%
%TD*%
%TA.AperFunction,SMDPad,CuDef*%
%ADD28RoundRect,0.250000X-1.100000X0.325000X-1.100000X-0.325000X1.100000X-0.325000X1.100000X0.325000X0*%
%TD*%
%TA.AperFunction,SMDPad,CuDef*%
%ADD29RoundRect,0.225000X0.225000X0.250000X-0.225000X0.250000X-0.225000X-0.250000X0.225000X-0.250000X0*%
%TD*%
%TA.AperFunction,SMDPad,CuDef*%
%ADD30RoundRect,0.150000X0.150000X-0.587500X0.150000X0.587500X-0.150000X0.587500X-0.150000X-0.587500X0*%
%TD*%
%TA.AperFunction,SMDPad,CuDef*%
%ADD31RoundRect,0.225000X-0.225000X-0.250000X0.225000X-0.250000X0.225000X0.250000X-0.225000X0.250000X0*%
%TD*%
%TA.AperFunction,SMDPad,CuDef*%
%ADD32RoundRect,0.225000X0.250000X-0.225000X0.250000X0.225000X-0.250000X0.225000X-0.250000X-0.225000X0*%
%TD*%
%TA.AperFunction,SMDPad,CuDef*%
%ADD33RoundRect,0.150000X-0.512500X-0.150000X0.512500X-0.150000X0.512500X0.150000X-0.512500X0.150000X0*%
%TD*%
%TA.AperFunction,SMDPad,CuDef*%
%ADD34RoundRect,0.250000X1.100000X-0.325000X1.100000X0.325000X-1.100000X0.325000X-1.100000X-0.325000X0*%
%TD*%
%TA.AperFunction,SMDPad,CuDef*%
%ADD35RoundRect,0.150000X0.587500X0.150000X-0.587500X0.150000X-0.587500X-0.150000X0.587500X-0.150000X0*%
%TD*%
%TA.AperFunction,SMDPad,CuDef*%
%ADD36RoundRect,0.250000X-0.262500X-0.450000X0.262500X-0.450000X0.262500X0.450000X-0.262500X0.450000X0*%
%TD*%
%TA.AperFunction,SMDPad,CuDef*%
%ADD37C,1.000000*%
%TD*%
%TA.AperFunction,SMDPad,CuDef*%
%ADD38RoundRect,0.125000X0.125000X0.125000X-0.125000X0.125000X-0.125000X-0.125000X0.125000X-0.125000X0*%
%TD*%
%TA.AperFunction,ViaPad*%
%ADD39C,0.800000*%
%TD*%
%TA.AperFunction,Conductor*%
%ADD40C,0.500000*%
%TD*%
%TA.AperFunction,Conductor*%
%ADD41C,0.200000*%
%TD*%
%TA.AperFunction,Conductor*%
%ADD42C,0.300000*%
%TD*%
%TA.AperFunction,Conductor*%
%ADD43C,1.000000*%
%TD*%
%TA.AperFunction,Conductor*%
%ADD44C,2.000000*%
%TD*%
G04 APERTURE END LIST*
D10*
%TO.P,X1,1,1*%
%TO.N,Net-(U1-XTAL2{slash}PB7)*%
X94800000Y-59100000D03*
%TO.P,X1,2,2*%
%TO.N,Net-(U1-XTAL1{slash}PB6)*%
X89920000Y-59100000D03*
%TD*%
D11*
%TO.P,TP2,1,1*%
%TO.N,GNDA*%
X107900000Y-42100000D03*
%TD*%
D12*
%TO.P,D1,1,A1*%
%TO.N,Net-(D1-A1)*%
X63700000Y-64050000D03*
D13*
%TO.P,D1,2,K*%
%TO.N,Net-(D1-K)*%
X63700000Y-66590000D03*
%TO.P,D1,3,A2*%
%TO.N,Net-(D1-A2)*%
X63700000Y-69130000D03*
%TD*%
D14*
%TO.P,J2,1,Pin_1*%
%TO.N,/MOSI*%
X102075000Y-52775000D03*
D15*
%TO.P,J2,2,Pin_2*%
%TO.N,+5V*%
X99535000Y-52775000D03*
%TO.P,J2,3,Pin_3*%
%TO.N,unconnected-(J2-Pin_3-Pad3)*%
X102075000Y-50235000D03*
%TO.P,J2,4,Pin_4*%
%TO.N,/RXD*%
X99535000Y-50235000D03*
%TO.P,J2,5,Pin_5*%
%TO.N,/RESET#*%
X102075000Y-47695000D03*
%TO.P,J2,6,Pin_6*%
%TO.N,/TXD*%
X99535000Y-47695000D03*
%TO.P,J2,7,Pin_7*%
%TO.N,/SCK*%
X102075000Y-45155000D03*
%TO.P,J2,8,Pin_8*%
%TO.N,GNDA*%
X99535000Y-45155000D03*
%TO.P,J2,9,Pin_9*%
%TO.N,/MISO*%
X102075000Y-42615000D03*
%TO.P,J2,10,Pin_10*%
%TO.N,GNDA*%
X99535000Y-42615000D03*
%TD*%
D16*
%TO.P,C7,1*%
%TO.N,/VBAT_BEFORE_FUSE*%
X90015000Y-80182380D03*
D17*
%TO.P,C7,2*%
%TO.N,GNDA*%
X90015000Y-77682380D03*
%TD*%
%TO.P,RV2,1*%
%TO.N,/CHARGER_SUPPLY*%
X112600000Y-41600000D03*
%TO.P,RV2,2*%
%TO.N,GNDPWR*%
X117600000Y-43700000D03*
%TD*%
D18*
%TO.P,RV3,1,1*%
%TO.N,/NOISE*%
X69380000Y-51000000D03*
D19*
%TO.P,RV3,2,2*%
%TO.N,Net-(U10-Vin-)*%
X74380000Y-48500000D03*
%TO.P,RV3,3,3*%
%TO.N,GNDA*%
X69380000Y-46000000D03*
%TD*%
D16*
%TO.P,C3,1*%
%TO.N,/VBAT_BEFORE_FUSE*%
X83000000Y-80182380D03*
D17*
%TO.P,C3,2*%
%TO.N,GNDPWR*%
X83000000Y-77682380D03*
%TD*%
D20*
%TO.P,U2,2,DATA*%
%TO.N,/FM_OUT*%
X69740000Y-78000000D03*
%TO.P,U2,3,VCC*%
%TO.N,+5V*%
X67200000Y-78000000D03*
%TO.P,U2,4,GND*%
%TO.N,GNDA*%
X64660000Y-78000000D03*
%TD*%
D18*
%TO.P,RV1,1,1*%
%TO.N,+5V*%
X69360000Y-58300000D03*
D19*
%TO.P,RV1,2,2*%
%TO.N,Net-(U9-Vin-)*%
X74360000Y-55800000D03*
%TO.P,RV1,3,3*%
%TO.N,GNDA*%
X69360000Y-53300000D03*
%TD*%
D21*
%TO.P,U8,29,PGND*%
%TO.N,GNDPWR*%
X120550000Y-67550000D03*
X119500000Y-67550000D03*
X118450000Y-67550000D03*
X120550000Y-68600000D03*
X119500000Y-68600000D03*
D22*
X119500000Y-68600000D03*
D21*
X118450000Y-68600000D03*
X120550000Y-69650000D03*
X119500000Y-69650000D03*
X118450000Y-69650000D03*
%TD*%
D14*
%TO.P,J1,1,Pin_1*%
%TO.N,GNDPWR*%
X77225000Y-78150000D03*
D15*
%TO.P,J1,2,Pin_2*%
%TO.N,/VBAT_BEFORE_FUSE*%
X77225000Y-80690000D03*
%TD*%
D23*
%TO.P,J4,1,Pin_1*%
%TO.N,Net-(D7-A)*%
X132475000Y-48300000D03*
D24*
%TO.P,J4,2,Pin_2*%
%TO.N,GNDPWR*%
X132475000Y-45800000D03*
%TO.P,J4,3,Pin_3*%
%TO.N,Net-(D6-A)*%
X132475000Y-43300000D03*
%TD*%
D25*
%TO.P,R21,1*%
%TO.N,Net-(U8-VCC)*%
X109900000Y-67787500D03*
%TO.P,R21,2*%
%TO.N,Net-(D3-K)*%
X109900000Y-69612500D03*
%TD*%
D26*
%TO.P,C11,1*%
%TO.N,GNDA*%
X94025000Y-78025001D03*
%TO.P,C11,2*%
%TO.N,/VBAT_BEFORE_FUSE*%
X94025000Y-79575001D03*
%TD*%
D27*
%TO.P,R23,1*%
%TO.N,/NOISE_ALARM*%
X73020000Y-63412500D03*
%TO.P,R23,2*%
%TO.N,GNDA*%
X73020000Y-61587500D03*
%TD*%
D28*
%TO.P,C13,1*%
%TO.N,+5V*%
X68800000Y-40825000D03*
%TO.P,C13,2*%
%TO.N,GNDA*%
X68800000Y-43775000D03*
%TD*%
D29*
%TO.P,C18,1*%
%TO.N,GNDA*%
X65475000Y-46100000D03*
%TO.P,C18,2*%
%TO.N,+3V3*%
X63925000Y-46100000D03*
%TD*%
D25*
%TO.P,R14,1*%
%TO.N,Net-(Q3-S)*%
X124300000Y-54087500D03*
%TO.P,R14,2*%
%TO.N,Net-(U8-CMSRC)*%
X124300000Y-55912500D03*
%TD*%
D29*
%TO.P,C24,1*%
%TO.N,Net-(Q4-D)*%
X123675000Y-61500000D03*
%TO.P,C24,2*%
%TO.N,GNDA*%
X122125000Y-61500000D03*
%TD*%
D27*
%TO.P,R7,1*%
%TO.N,Net-(C12-Pad2)*%
X115320000Y-47812500D03*
%TO.P,R7,2*%
%TO.N,GNDPWR*%
X115320000Y-45987500D03*
%TD*%
D25*
%TO.P,R13,1*%
%TO.N,Net-(Q4-G)*%
X122100000Y-54087500D03*
%TO.P,R13,2*%
%TO.N,Net-(U8-ACDRV)*%
X122100000Y-55912500D03*
%TD*%
D26*
%TO.P,C36,1*%
%TO.N,Net-(D6-A)*%
X135000000Y-44925000D03*
%TO.P,C36,2*%
%TO.N,Net-(D7-A)*%
X135000000Y-46475000D03*
%TD*%
D30*
%TO.P,U4,1,GND*%
%TO.N,GNDA*%
X65650000Y-43237500D03*
%TO.P,U4,2,VO*%
%TO.N,+3V3*%
X63750000Y-43237500D03*
%TO.P,U4,3,VI*%
%TO.N,+5V*%
X64700000Y-41362500D03*
%TD*%
D28*
%TO.P,C44,1*%
%TO.N,/VBAT*%
X103700000Y-78725000D03*
%TO.P,C44,2*%
%TO.N,GNDPWR*%
X103700000Y-81675000D03*
%TD*%
D31*
%TO.P,C5,1*%
%TO.N,Net-(U1-XTAL1{slash}PB6)*%
X90175000Y-57100000D03*
%TO.P,C5,2*%
%TO.N,GNDA*%
X91725000Y-57100000D03*
%TD*%
%TO.P,C42,1*%
%TO.N,+5V*%
X73925000Y-51600000D03*
%TO.P,C42,2*%
%TO.N,GNDA*%
X75475000Y-51600000D03*
%TD*%
D29*
%TO.P,C30,1*%
%TO.N,Net-(U8-VCC)*%
X109875000Y-66100000D03*
%TO.P,C30,2*%
%TO.N,GNDA*%
X108325000Y-66100000D03*
%TD*%
D32*
%TO.P,C41,1*%
%TO.N,/VBAT*%
X111500000Y-78175000D03*
%TO.P,C41,2*%
%TO.N,GNDA*%
X111500000Y-76625000D03*
%TD*%
D33*
%TO.P,U10,1,OUT*%
%TO.N,/NOISE*%
X64662500Y-50350000D03*
%TO.P,U10,2,GND*%
%TO.N,GNDA*%
X64662500Y-49400000D03*
%TO.P,U10,3,Vin+*%
%TO.N,Net-(U10-Vin+)*%
X64662500Y-48450000D03*
%TO.P,U10,4,Vin-*%
%TO.N,Net-(U10-Vin-)*%
X66937500Y-48450000D03*
%TO.P,U10,5,V+*%
%TO.N,+5V*%
X66937500Y-50350000D03*
%TD*%
D29*
%TO.P,C9,1*%
%TO.N,+5V*%
X66975000Y-76000000D03*
%TO.P,C9,2*%
%TO.N,GNDA*%
X65425000Y-76000000D03*
%TD*%
D26*
%TO.P,C28,1*%
%TO.N,+5V*%
X66900000Y-59325000D03*
%TO.P,C28,2*%
%TO.N,GNDA*%
X66900000Y-60875000D03*
%TD*%
%TO.P,C29,1*%
%TO.N,Net-(U9-Vin-)*%
X72100000Y-55825000D03*
%TO.P,C29,2*%
%TO.N,GNDA*%
X72100000Y-57375000D03*
%TD*%
D27*
%TO.P,R12,1*%
%TO.N,Net-(Q3-G)*%
X117200000Y-57912500D03*
%TO.P,R12,2*%
%TO.N,Net-(Q4-G)*%
X117200000Y-56087500D03*
%TD*%
D32*
%TO.P,C10,1*%
%TO.N,/VBAT_BEFORE_FUSE*%
X92200000Y-79575000D03*
%TO.P,C10,2*%
%TO.N,GNDA*%
X92200000Y-78025000D03*
%TD*%
D34*
%TO.P,C8,1*%
%TO.N,/VBAT_BEFORE_FUSE*%
X96600000Y-79675000D03*
%TO.P,C8,2*%
%TO.N,GNDA*%
X96600000Y-76725000D03*
%TD*%
D35*
%TO.P,Q7,1,G*%
%TO.N,/CHARGER_BATDRV*%
X100037500Y-71050000D03*
%TO.P,Q7,2,S*%
%TO.N,/CHARGER_BATSRC*%
X100037500Y-72950000D03*
%TO.P,Q7,3,D*%
%TO.N,/VSYS*%
X98162500Y-72000000D03*
%TD*%
D31*
%TO.P,C43,1*%
%TO.N,/CHARGER_SUPPLY*%
X114825000Y-41950000D03*
%TO.P,C43,2*%
%TO.N,GNDPWR*%
X116375000Y-41950000D03*
%TD*%
D32*
%TO.P,C38,1*%
%TO.N,/CHARGER_BATSRC*%
X113300000Y-78175000D03*
%TO.P,C38,2*%
%TO.N,GNDA*%
X113300000Y-76625000D03*
%TD*%
D33*
%TO.P,U9,1,OUT*%
%TO.N,Net-(D4-A)*%
X64662500Y-57750000D03*
%TO.P,U9,2,GND*%
%TO.N,GNDA*%
X64662500Y-56800000D03*
%TO.P,U9,3,Vin+*%
%TO.N,/NOISE*%
X64662500Y-55850000D03*
%TO.P,U9,4,Vin-*%
%TO.N,Net-(U9-Vin-)*%
X66937500Y-55850000D03*
%TO.P,U9,5,V+*%
%TO.N,+5V*%
X66937500Y-57750000D03*
%TD*%
D29*
%TO.P,C6,1*%
%TO.N,Net-(U1-XTAL2{slash}PB7)*%
X94825000Y-57100000D03*
%TO.P,C6,2*%
%TO.N,GNDA*%
X93275000Y-57100000D03*
%TD*%
D26*
%TO.P,C12,1*%
%TO.N,/CHARGER_SUPPLY*%
X113470000Y-46125000D03*
%TO.P,C12,2*%
%TO.N,Net-(C12-Pad2)*%
X113470000Y-47675000D03*
%TD*%
D36*
%TO.P,R17,1*%
%TO.N,/CHARGER_BATDRV*%
X102087500Y-68600000D03*
%TO.P,R17,2*%
%TO.N,Net-(U8-BATDRV)*%
X103912500Y-68600000D03*
%TD*%
%TO.P,R18,1*%
%TO.N,/CHARGER_BATSRC*%
X102087500Y-70600000D03*
%TO.P,R18,2*%
%TO.N,Net-(U8-BATSRC)*%
X103912500Y-70600000D03*
%TD*%
D32*
%TO.P,C31,1*%
%TO.N,/NOISE_ALARM*%
X75500000Y-63375000D03*
%TO.P,C31,2*%
%TO.N,GNDA*%
X75500000Y-61825000D03*
%TD*%
D29*
%TO.P,C27,1*%
%TO.N,/VSYS*%
X123675000Y-63600000D03*
%TO.P,C27,2*%
%TO.N,GNDA*%
X122125000Y-63600000D03*
%TD*%
D37*
%TO.P,TP5,1,1*%
%TO.N,+3V3*%
X61800000Y-48000000D03*
%TD*%
D29*
%TO.P,C22,1*%
%TO.N,Net-(Q3-S)*%
X119175000Y-54000000D03*
%TO.P,C22,2*%
%TO.N,Net-(Q4-G)*%
X117625000Y-54000000D03*
%TD*%
D38*
%TO.P,D4,1,K*%
%TO.N,/NOISE_ALARM*%
X70300000Y-63300000D03*
%TO.P,D4,2,A*%
%TO.N,Net-(D4-A)*%
X68100000Y-63300000D03*
%TD*%
D39*
%TO.N,GNDA*%
X103000000Y-63800000D03*
X88800000Y-66800000D03*
X66200000Y-72600000D03*
X71200000Y-40400000D03*
X78800000Y-49200000D03*
X90000000Y-48000000D03*
%TO.N,+5V*%
X117887500Y-78200000D03*
X63300000Y-59900000D03*
X115100000Y-72300000D03*
X68800000Y-40800000D03*
X72950560Y-64987500D03*
X91000000Y-54900000D03*
X81100000Y-66800000D03*
X82400000Y-50400000D03*
X115600000Y-63800000D03*
X73900000Y-51600000D03*
X73050560Y-68687500D03*
%TO.N,GNDA*%
X107300000Y-68500000D03*
X121700000Y-74400000D03*
%TO.N,GNDPWR*%
X135500000Y-59750000D03*
X123500000Y-71000000D03*
X135000000Y-68750000D03*
X136000000Y-68750000D03*
%TO.N,/RESET#*%
X84200000Y-48300000D03*
%TO.N,+3V3*%
X61300000Y-41900000D03*
%TO.N,Net-(Q4-G)*%
X115600000Y-55100000D03*
%TO.N,Net-(Q3-S)*%
X119800000Y-52700000D03*
%TO.N,Net-(Q4-D)*%
X127500000Y-61900000D03*
%TO.N,/VSYS*%
X131200000Y-63500000D03*
X129100000Y-61900000D03*
X93868750Y-67193750D03*
%TO.N,/NOISE_ALARM*%
X73020000Y-63250500D03*
%TO.N,/CHARGER_PHASE*%
X123500000Y-67000000D03*
X125525000Y-70900000D03*
%TO.N,/CHARGER_BATSRC*%
X113100000Y-79600000D03*
X111300000Y-82100000D03*
%TO.N,/VBAT*%
X111500000Y-78200000D03*
X103700000Y-78800000D03*
%TO.N,Net-(D3-K)*%
X107600000Y-70700000D03*
%TO.N,/RXD*%
X89100000Y-49600000D03*
%TO.N,/TXD*%
X87819622Y-49419622D03*
%TO.N,Net-(Q3-G)*%
X112100000Y-57900000D03*
%TO.N,/SDA*%
X113278063Y-68116487D03*
X83395892Y-46000000D03*
X82800000Y-42800000D03*
%TO.N,/SCL*%
X80600000Y-42800000D03*
X113100000Y-69100000D03*
X82900000Y-47100000D03*
%TO.N,Net-(U8-VCC)*%
X122000000Y-66100000D03*
%TO.N,Net-(U10-Vin+)*%
X64700000Y-47487500D03*
%TO.N,Net-(U8-ACDRV)*%
X119600000Y-60400000D03*
%TO.N,Net-(U8-CMSRC)*%
X120599503Y-60400000D03*
%TO.N,Net-(U8-BATDRV)*%
X119200500Y-72300000D03*
%TO.N,Net-(U8-BATSRC)*%
X118000000Y-74200000D03*
%TD*%
D40*
%TO.N,+5V*%
X67837500Y-49450000D02*
X71737584Y-49450000D01*
X73187584Y-50900000D02*
X73200000Y-50900000D01*
X68262500Y-41362500D02*
X68800000Y-40825000D01*
X73200000Y-50900000D02*
X74025000Y-51725000D01*
X64700000Y-41362500D02*
X68262500Y-41362500D01*
X66975000Y-76000000D02*
X66975000Y-77775000D01*
X68810000Y-57750000D02*
X69360000Y-58300000D01*
X66937500Y-50350000D02*
X67837500Y-49450000D01*
X66937500Y-57750000D02*
X68810000Y-57750000D01*
X71737584Y-49450000D02*
X73187584Y-50900000D01*
X66937500Y-57750000D02*
X66937500Y-59287500D01*
%TO.N,GNDA*%
X111500000Y-76625000D02*
X113300000Y-76625000D01*
D41*
X122125000Y-61500000D02*
X122125000Y-62500000D01*
D40*
X113197918Y-60000000D02*
X108000000Y-60000000D01*
D41*
X122125000Y-62500000D02*
X122125000Y-63600000D01*
D40*
X64662500Y-56800000D02*
X62700000Y-56800000D01*
X115697918Y-62500000D02*
X113197918Y-60000000D01*
X113300000Y-76625000D02*
X119475000Y-76625000D01*
X122125000Y-62500000D02*
X115697918Y-62500000D01*
X64662500Y-49400000D02*
X63000000Y-49400000D01*
X119475000Y-76625000D02*
X121700000Y-74400000D01*
D42*
X64700000Y-49212500D02*
X64662500Y-49250000D01*
D40*
%TO.N,/VBAT_BEFORE_FUSE*%
X91515000Y-79575001D02*
X94025000Y-79575001D01*
X90015000Y-80082380D02*
X91007621Y-80082380D01*
X91007621Y-80082380D02*
X91515000Y-79575001D01*
X94025000Y-79575001D02*
X96315001Y-79575001D01*
%TO.N,GNDPWR*%
X115320000Y-45980000D02*
X117600000Y-43700000D01*
D43*
X88363990Y-82000000D02*
X84346370Y-77982380D01*
D44*
X133200000Y-74600000D02*
X135500000Y-72300000D01*
D43*
X84346370Y-77982380D02*
X83215000Y-77982380D01*
D44*
X135500000Y-72300000D02*
X135500000Y-59750000D01*
X119500000Y-69800000D02*
X122000000Y-72300000D01*
D43*
X103700000Y-81675000D02*
X103375000Y-82000000D01*
D44*
X124300000Y-74600000D02*
X133200000Y-74600000D01*
X128750000Y-52000000D02*
X135500000Y-58750000D01*
D40*
X116375000Y-42475000D02*
X117600000Y-43700000D01*
D44*
X132475000Y-45800000D02*
X128750000Y-45800000D01*
D40*
X116375000Y-41950000D02*
X116375000Y-42475000D01*
D44*
X119500000Y-68600000D02*
X119500000Y-69800000D01*
D40*
X122200000Y-72300000D02*
X122000000Y-72300000D01*
D44*
X135500000Y-58750000D02*
X135500000Y-59750000D01*
X128750000Y-45800000D02*
X119700000Y-45800000D01*
X122000000Y-72300000D02*
X124300000Y-74600000D01*
D43*
X103375000Y-82000000D02*
X88363990Y-82000000D01*
D40*
X123500000Y-71000000D02*
X122200000Y-72300000D01*
D44*
X128750000Y-45800000D02*
X128750000Y-52000000D01*
X119700000Y-45800000D02*
X117600000Y-43700000D01*
D42*
%TO.N,Net-(U1-XTAL2{slash}PB7)*%
X94825000Y-57100000D02*
X94825000Y-59075000D01*
D40*
%TO.N,/CHARGER_SUPPLY*%
X113470000Y-46125000D02*
X113470000Y-42470000D01*
X113470000Y-42470000D02*
X112600000Y-41600000D01*
X114825000Y-41950000D02*
X112950000Y-41950000D01*
%TO.N,Net-(C12-Pad2)*%
X115320000Y-47812500D02*
X113607500Y-47812500D01*
%TO.N,+3V3*%
X63750000Y-43237500D02*
X63800000Y-43287500D01*
X63800000Y-43287500D02*
X63800000Y-45975000D01*
X61300000Y-44700000D02*
X61300000Y-42000000D01*
X63925000Y-46100000D02*
X62700000Y-46100000D01*
X62700000Y-46100000D02*
X61300000Y-44700000D01*
X62025000Y-48000000D02*
X63925000Y-46100000D01*
D42*
%TO.N,Net-(Q4-G)*%
X117187500Y-55100000D02*
X117187500Y-54700000D01*
X117187500Y-54700000D02*
X115900000Y-54700000D01*
X117187500Y-54437500D02*
X117625000Y-54000000D01*
X117187500Y-56200000D02*
X117187500Y-55100000D01*
X121087500Y-55100000D02*
X117187500Y-55100000D01*
X122100000Y-54087500D02*
X121087500Y-55100000D01*
X117187500Y-54700000D02*
X117187500Y-54437500D01*
X115900000Y-54700000D02*
X115500000Y-55100000D01*
D41*
%TO.N,Net-(Q3-S)*%
X119175000Y-53325000D02*
X119800000Y-52700000D01*
X124300000Y-53300000D02*
X124300000Y-54087500D01*
X119175000Y-54000000D02*
X119175000Y-53325000D01*
X119800000Y-52700000D02*
X123700000Y-52700000D01*
X123700000Y-52700000D02*
X124300000Y-53300000D01*
%TO.N,Net-(Q4-D)*%
X127100000Y-61500000D02*
X127500000Y-61900000D01*
X123675000Y-61500000D02*
X127100000Y-61500000D01*
D43*
%TO.N,/VSYS*%
X98162500Y-71487500D02*
X93868750Y-67193750D01*
D41*
X127400000Y-63600000D02*
X129100000Y-61900000D01*
X123675000Y-63600000D02*
X127400000Y-63600000D01*
D43*
X98162500Y-72000000D02*
X98162500Y-71487500D01*
D40*
%TO.N,/NOISE_ALARM*%
X70300000Y-63300000D02*
X72907500Y-63300000D01*
X73020000Y-63412500D02*
X75462500Y-63412500D01*
D41*
%TO.N,/CHARGER_PHASE*%
X125525000Y-69025000D02*
X123500000Y-67000000D01*
X125525000Y-70900000D02*
X125525000Y-69025000D01*
D43*
%TO.N,Net-(D6-A)*%
X132475000Y-43300000D02*
X133375000Y-43300000D01*
X133375000Y-43300000D02*
X135000000Y-44925000D01*
%TO.N,Net-(D7-A)*%
X132475000Y-48300000D02*
X133175000Y-48300000D01*
X133175000Y-48300000D02*
X135000000Y-46475000D01*
%TO.N,/CHARGER_BATSRC*%
X111300000Y-81000000D02*
X111300000Y-82100000D01*
D42*
X102087500Y-70600000D02*
X102087500Y-72862500D01*
D43*
X100037500Y-72950000D02*
X102000000Y-72950000D01*
X103250000Y-72950000D02*
X111300000Y-81000000D01*
D42*
X102087500Y-72862500D02*
X102000000Y-72950000D01*
D43*
X102000000Y-72950000D02*
X103250000Y-72950000D01*
D41*
X113300000Y-79400000D02*
X113100000Y-79600000D01*
X113300000Y-78175000D02*
X113300000Y-79400000D01*
D42*
%TO.N,Net-(D3-K)*%
X108687500Y-69612500D02*
X107600000Y-70700000D01*
X109900000Y-69612500D02*
X108687500Y-69612500D01*
D40*
%TO.N,Net-(D4-A)*%
X66300000Y-63300000D02*
X64662500Y-61662500D01*
X64662500Y-61662500D02*
X64662500Y-57750000D01*
X68100000Y-63300000D02*
X66300000Y-63300000D01*
D42*
%TO.N,Net-(Q3-G)*%
X112112500Y-57912500D02*
X112100000Y-57900000D01*
X117200000Y-57912500D02*
X112112500Y-57912500D01*
%TO.N,/CHARGER_BATDRV*%
X100600000Y-68600000D02*
X100037500Y-69162500D01*
X100037500Y-69162500D02*
X100037500Y-71050000D01*
X102087500Y-68600000D02*
X100600000Y-68600000D01*
D40*
%TO.N,/NOISE*%
X65500000Y-51400000D02*
X68980000Y-51400000D01*
X64662500Y-55850000D02*
X64662500Y-50350000D01*
X64662500Y-50562500D02*
X65500000Y-51400000D01*
X64662500Y-50350000D02*
X64662500Y-50562500D01*
%TO.N,Net-(U9-Vin-)*%
X66937500Y-55850000D02*
X66987500Y-55800000D01*
X66987500Y-55800000D02*
X74360000Y-55800000D01*
D42*
%TO.N,Net-(U8-VCC)*%
X109875000Y-66100000D02*
X109875000Y-67762500D01*
D41*
X121400000Y-65600000D02*
X121900000Y-66100000D01*
X121900000Y-66100000D02*
X122000000Y-66100000D01*
X109875000Y-66100000D02*
X110375000Y-65600000D01*
X110375000Y-65600000D02*
X121400000Y-65600000D01*
D42*
%TO.N,Net-(U10-Vin+)*%
X64700000Y-47487500D02*
X64700000Y-48412500D01*
D41*
%TO.N,Net-(U8-ACDRV)*%
X119600000Y-60400000D02*
X119600000Y-58412500D01*
X119600000Y-58412500D02*
X122100000Y-55912500D01*
%TO.N,Net-(U8-CMSRC)*%
X122000000Y-57200000D02*
X123012500Y-57200000D01*
X120600000Y-60399503D02*
X120600000Y-58600000D01*
X120599503Y-60400000D02*
X120600000Y-60399503D01*
X120600000Y-58600000D02*
X122000000Y-57200000D01*
X123012500Y-57200000D02*
X124300000Y-55912500D01*
%TO.N,Net-(U8-BATDRV)*%
X119200500Y-72300000D02*
X118200500Y-73300000D01*
X118200500Y-73300000D02*
X108500000Y-73300000D01*
X108500000Y-73300000D02*
X103912500Y-68712500D01*
%TO.N,Net-(U8-BATSRC)*%
X107400000Y-74200000D02*
X103912500Y-70712500D01*
X118000000Y-74200000D02*
X107400000Y-74200000D01*
D40*
%TO.N,Net-(U10-Vin-)*%
X74280000Y-48400000D02*
X66987500Y-48400000D01*
D42*
%TO.N,Net-(U1-XTAL1{slash}PB6)*%
X90175000Y-57100000D02*
X90175000Y-58845000D01*
%TD*%
%TA.AperFunction,Conductor*%
%TO.N,GNDA*%
G36*
X99785000Y-44719498D02*
G01*
X99677315Y-44670320D01*
X99570763Y-44655000D01*
X99499237Y-44655000D01*
X99392685Y-44670320D01*
X99285000Y-44719498D01*
X99285000Y-43050501D01*
X99392685Y-43099680D01*
X99499237Y-43115000D01*
X99570763Y-43115000D01*
X99677315Y-43099680D01*
X99785000Y-43050501D01*
X99785000Y-44719498D01*
G37*
%TD.AperFunction*%
%TA.AperFunction,Conductor*%
G36*
X64195487Y-40020185D02*
G01*
X64241242Y-40072989D01*
X64251186Y-40142147D01*
X64222161Y-40205703D01*
X64191569Y-40231232D01*
X64148138Y-40256916D01*
X64148129Y-40256923D01*
X64031923Y-40373129D01*
X64031917Y-40373137D01*
X63948255Y-40514603D01*
X63948254Y-40514606D01*
X63902402Y-40672426D01*
X63902401Y-40672432D01*
X63899500Y-40709304D01*
X63899500Y-41875500D01*
X63879815Y-41942539D01*
X63827011Y-41988294D01*
X63775500Y-41999500D01*
X63534304Y-41999500D01*
X63497432Y-42002401D01*
X63497426Y-42002402D01*
X63339606Y-42048254D01*
X63339603Y-42048255D01*
X63198137Y-42131917D01*
X63198129Y-42131923D01*
X63081923Y-42248129D01*
X63081917Y-42248137D01*
X62998255Y-42389603D01*
X62998254Y-42389606D01*
X62952402Y-42547426D01*
X62952401Y-42547432D01*
X62949500Y-42584304D01*
X62949500Y-43890696D01*
X62952401Y-43927567D01*
X62952402Y-43927573D01*
X63000432Y-44092890D01*
X62999954Y-44093028D01*
X63004164Y-44106790D01*
X63006058Y-44116894D01*
X63040021Y-44298076D01*
X63047377Y-44337314D01*
X63049500Y-44360161D01*
X63049500Y-45088770D01*
X63029815Y-45155809D01*
X62977011Y-45201564D01*
X62907853Y-45211508D01*
X62844297Y-45182483D01*
X62837819Y-45176451D01*
X62086819Y-44425451D01*
X62053334Y-44364128D01*
X62050500Y-44337770D01*
X62050500Y-42785173D01*
X62052624Y-42762322D01*
X62064309Y-42700000D01*
X62169183Y-42140667D01*
X62171152Y-42132946D01*
X62185674Y-42088256D01*
X62193913Y-42009855D01*
X62194630Y-42004947D01*
X62196384Y-41995598D01*
X62199604Y-41972669D01*
X62200888Y-41959016D01*
X62200825Y-41947673D01*
X62201162Y-41940877D01*
X62205460Y-41900000D01*
X62185674Y-41711744D01*
X62127179Y-41531716D01*
X62032533Y-41367784D01*
X61905871Y-41227112D01*
X61897657Y-41221144D01*
X61752734Y-41115851D01*
X61752729Y-41115848D01*
X61579807Y-41038857D01*
X61579802Y-41038855D01*
X61434001Y-41007865D01*
X61394646Y-40999500D01*
X61205354Y-40999500D01*
X61172897Y-41006398D01*
X61020197Y-41038855D01*
X61020192Y-41038857D01*
X60847270Y-41115848D01*
X60847265Y-41115851D01*
X60694129Y-41227111D01*
X60567466Y-41367785D01*
X60472821Y-41531715D01*
X60472818Y-41531722D01*
X60414327Y-41711740D01*
X60414326Y-41711744D01*
X60401391Y-41834814D01*
X60394540Y-41900000D01*
X60405526Y-42004537D01*
X60405629Y-42005931D01*
X60406170Y-42010665D01*
X60414325Y-42088250D01*
X60414327Y-42088260D01*
X60428842Y-42132933D01*
X60430816Y-42140673D01*
X60535690Y-42700000D01*
X60547376Y-42762322D01*
X60549500Y-42785174D01*
X60549500Y-44636294D01*
X60548191Y-44654263D01*
X60544710Y-44678025D01*
X60545961Y-44692315D01*
X60549262Y-44730048D01*
X60549264Y-44730064D01*
X60549500Y-44735470D01*
X60549500Y-44743709D01*
X60553306Y-44776274D01*
X60560000Y-44852791D01*
X60561461Y-44859867D01*
X60561403Y-44859878D01*
X60563034Y-44867237D01*
X60563092Y-44867224D01*
X60564757Y-44874250D01*
X60591025Y-44946424D01*
X60615185Y-45019331D01*
X60618236Y-45025874D01*
X60618182Y-45025898D01*
X60621470Y-45032688D01*
X60621521Y-45032663D01*
X60624761Y-45039113D01*
X60624762Y-45039114D01*
X60624763Y-45039117D01*
X60627725Y-45043620D01*
X60666965Y-45103283D01*
X60707287Y-45168655D01*
X60711766Y-45174319D01*
X60711719Y-45174356D01*
X60716482Y-45180202D01*
X60716528Y-45180164D01*
X60721173Y-45185700D01*
X60777017Y-45238385D01*
X62124270Y-46585638D01*
X62136051Y-46599270D01*
X62150389Y-46618529D01*
X62155346Y-46623783D01*
X62152909Y-46626081D01*
X62183482Y-46671697D01*
X62184828Y-46741554D01*
X62148192Y-46801049D01*
X62106540Y-46825823D01*
X61617641Y-46998708D01*
X61445426Y-47059607D01*
X61442041Y-47060905D01*
X61438656Y-47062203D01*
X61430571Y-47065932D01*
X61422596Y-47068964D01*
X61415275Y-47071184D01*
X61415268Y-47071187D01*
X61392277Y-47083475D01*
X61389028Y-47085091D01*
X61378260Y-47090058D01*
X61372695Y-47093368D01*
X61372641Y-47093278D01*
X61365740Y-47097661D01*
X61241458Y-47164092D01*
X61089116Y-47289116D01*
X60964090Y-47441460D01*
X60964086Y-47441467D01*
X60871188Y-47615266D01*
X60813975Y-47803870D01*
X60794659Y-48000000D01*
X60813975Y-48196129D01*
X60814370Y-48197431D01*
X60870007Y-48380842D01*
X60871188Y-48384733D01*
X60964086Y-48558532D01*
X60964090Y-48558539D01*
X61089116Y-48710883D01*
X61241460Y-48835909D01*
X61241467Y-48835913D01*
X61415266Y-48928811D01*
X61415269Y-48928811D01*
X61415273Y-48928814D01*
X61603868Y-48986024D01*
X61800000Y-49005341D01*
X61996132Y-48986024D01*
X62184727Y-48928814D01*
X62187912Y-48927112D01*
X62275780Y-48880145D01*
X62358538Y-48835910D01*
X62510883Y-48710883D01*
X62531862Y-48685317D01*
X62544454Y-48672094D01*
X62551017Y-48666149D01*
X62939289Y-48197431D01*
X63156493Y-47935226D01*
X63162095Y-47928030D01*
X63172974Y-47914061D01*
X63178040Y-47908326D01*
X63592104Y-47494262D01*
X63653425Y-47460779D01*
X63723117Y-47465763D01*
X63779050Y-47507635D01*
X63803103Y-47568982D01*
X63812636Y-47659682D01*
X63800068Y-47728410D01*
X63752444Y-47779370D01*
X63748134Y-47781918D01*
X63748132Y-47781921D01*
X63631923Y-47898129D01*
X63631917Y-47898137D01*
X63548255Y-48039603D01*
X63548254Y-48039606D01*
X63502402Y-48197426D01*
X63502401Y-48197432D01*
X63499500Y-48234304D01*
X63499500Y-48665696D01*
X63502401Y-48702567D01*
X63502402Y-48702573D01*
X63548254Y-48860393D01*
X63548256Y-48860399D01*
X63549426Y-48862377D01*
X63549869Y-48864126D01*
X63551353Y-48867554D01*
X63550799Y-48867793D01*
X63566603Y-48930102D01*
X63551249Y-48982395D01*
X63551817Y-48982641D01*
X63549827Y-48987239D01*
X63549428Y-48988599D01*
X63548722Y-48989791D01*
X63548716Y-48989806D01*
X63502900Y-49147505D01*
X63502899Y-49147511D01*
X63502704Y-49149998D01*
X63502705Y-49150000D01*
X63768185Y-49150000D01*
X63831306Y-49167268D01*
X63889602Y-49201744D01*
X63931224Y-49213836D01*
X64047426Y-49247597D01*
X64047429Y-49247597D01*
X64047431Y-49247598D01*
X64059722Y-49248565D01*
X64084304Y-49250500D01*
X64084306Y-49250500D01*
X65240696Y-49250500D01*
X65259131Y-49249049D01*
X65277569Y-49247598D01*
X65277571Y-49247597D01*
X65277573Y-49247597D01*
X65333453Y-49231362D01*
X65435398Y-49201744D01*
X65493694Y-49167268D01*
X65556815Y-49150000D01*
X65822294Y-49150000D01*
X65846557Y-49123752D01*
X65906518Y-49087885D01*
X65976352Y-49090129D01*
X66016012Y-49114530D01*
X66016969Y-49113298D01*
X66023132Y-49118078D01*
X66023135Y-49118081D01*
X66164602Y-49201744D01*
X66206224Y-49213836D01*
X66322426Y-49247597D01*
X66322429Y-49247597D01*
X66322431Y-49247598D01*
X66334722Y-49248565D01*
X66359304Y-49250500D01*
X66359306Y-49250500D01*
X66637008Y-49250500D01*
X66704047Y-49270185D01*
X66749802Y-49322989D01*
X66759746Y-49392147D01*
X66730721Y-49455703D01*
X66717105Y-49469160D01*
X66656832Y-49520160D01*
X66592939Y-49548437D01*
X66576735Y-49549500D01*
X66359304Y-49549500D01*
X66322432Y-49552401D01*
X66322426Y-49552402D01*
X66164606Y-49598254D01*
X66164603Y-49598255D01*
X66023137Y-49681917D01*
X66016969Y-49686702D01*
X66015664Y-49685019D01*
X65963954Y-49713246D01*
X65894263Y-49708251D01*
X65846558Y-49676247D01*
X65822296Y-49650000D01*
X65556815Y-49650000D01*
X65493694Y-49632732D01*
X65465146Y-49615849D01*
X65435398Y-49598256D01*
X65435397Y-49598255D01*
X65435396Y-49598255D01*
X65435393Y-49598254D01*
X65277573Y-49552402D01*
X65277567Y-49552401D01*
X65240696Y-49549500D01*
X65240694Y-49549500D01*
X64084306Y-49549500D01*
X64084304Y-49549500D01*
X64047432Y-49552401D01*
X64047426Y-49552402D01*
X63889606Y-49598254D01*
X63889603Y-49598255D01*
X63831306Y-49632732D01*
X63768185Y-49650000D01*
X63502705Y-49650000D01*
X63502704Y-49650001D01*
X63502899Y-49652488D01*
X63502900Y-49652494D01*
X63548716Y-49810193D01*
X63548720Y-49810203D01*
X63549427Y-49811398D01*
X63549695Y-49812454D01*
X63551816Y-49817356D01*
X63551024Y-49817698D01*
X63566603Y-49879123D01*
X63550993Y-49932284D01*
X63551355Y-49932441D01*
X63550087Y-49935369D01*
X63549427Y-49937620D01*
X63548259Y-49939594D01*
X63548254Y-49939607D01*
X63502402Y-50097426D01*
X63502401Y-50097432D01*
X63499500Y-50134304D01*
X63499500Y-50565696D01*
X63502401Y-50602567D01*
X63502402Y-50602573D01*
X63548254Y-50760393D01*
X63548255Y-50760396D01*
X63548256Y-50760398D01*
X63563787Y-50786660D01*
X63631917Y-50901862D01*
X63631923Y-50901870D01*
X63748129Y-51018076D01*
X63748133Y-51018079D01*
X63748135Y-51018081D01*
X63748138Y-51018082D01*
X63748141Y-51018085D01*
X63851120Y-51078986D01*
X63898804Y-51130054D01*
X63912000Y-51185718D01*
X63912000Y-55014281D01*
X63892315Y-55081320D01*
X63851121Y-55121013D01*
X63748138Y-55181916D01*
X63748129Y-55181923D01*
X63631923Y-55298129D01*
X63631917Y-55298137D01*
X63548255Y-55439603D01*
X63548254Y-55439606D01*
X63502402Y-55597426D01*
X63502401Y-55597432D01*
X63499500Y-55634304D01*
X63499500Y-56065696D01*
X63502401Y-56102567D01*
X63502402Y-56102573D01*
X63548254Y-56260393D01*
X63548256Y-56260399D01*
X63549426Y-56262377D01*
X63549869Y-56264126D01*
X63551353Y-56267554D01*
X63550799Y-56267793D01*
X63566603Y-56330102D01*
X63551249Y-56382395D01*
X63551817Y-56382641D01*
X63549827Y-56387239D01*
X63549428Y-56388599D01*
X63548722Y-56389791D01*
X63548716Y-56389806D01*
X63502900Y-56547505D01*
X63502899Y-56547511D01*
X63502704Y-56549998D01*
X63502705Y-56550000D01*
X63768185Y-56550000D01*
X63831306Y-56567268D01*
X63889602Y-56601744D01*
X63931224Y-56613836D01*
X64047426Y-56647597D01*
X64047429Y-56647597D01*
X64047431Y-56647598D01*
X64059722Y-56648565D01*
X64084304Y-56650500D01*
X64084306Y-56650500D01*
X65240696Y-56650500D01*
X65259131Y-56649049D01*
X65277569Y-56647598D01*
X65277571Y-56647597D01*
X65277573Y-56647597D01*
X65319191Y-56635505D01*
X65435398Y-56601744D01*
X65493694Y-56567268D01*
X65556815Y-56550000D01*
X65822294Y-56550000D01*
X65846557Y-56523752D01*
X65906518Y-56487885D01*
X65976352Y-56490129D01*
X66016012Y-56514530D01*
X66016969Y-56513298D01*
X66023132Y-56518078D01*
X66023135Y-56518081D01*
X66164602Y-56601744D01*
X66206224Y-56613836D01*
X66322426Y-56647597D01*
X66322429Y-56647597D01*
X66322431Y-56647598D01*
X66334722Y-56648565D01*
X66359304Y-56650500D01*
X66359306Y-56650500D01*
X67515696Y-56650500D01*
X67534131Y-56649049D01*
X67552569Y-56647598D01*
X67710398Y-56601744D01*
X67710402Y-56601741D01*
X67717983Y-56599539D01*
X67723659Y-56598176D01*
X67962464Y-56552690D01*
X67985666Y-56550500D01*
X71145779Y-56550500D01*
X71212818Y-56570185D01*
X71258573Y-56622989D01*
X71268517Y-56692147D01*
X71251318Y-56739597D01*
X71188454Y-56841513D01*
X71188452Y-56841518D01*
X71135144Y-57002393D01*
X71125000Y-57101677D01*
X71125000Y-57125000D01*
X73074999Y-57125000D01*
X73074999Y-57101692D01*
X73074998Y-57101677D01*
X73064855Y-57002392D01*
X73027503Y-56889669D01*
X73025101Y-56819840D01*
X73060833Y-56759799D01*
X73123353Y-56728606D01*
X73188548Y-56734485D01*
X73874250Y-56990298D01*
X73892457Y-56996186D01*
X73898115Y-56998016D01*
X73905244Y-57000819D01*
X73920363Y-57007869D01*
X73920364Y-57007869D01*
X73920370Y-57007872D01*
X74136794Y-57065863D01*
X74296226Y-57079811D01*
X74359998Y-57085391D01*
X74360000Y-57085391D01*
X74360002Y-57085391D01*
X74415801Y-57080509D01*
X74583206Y-57065863D01*
X74799630Y-57007872D01*
X75002696Y-56913181D01*
X75186233Y-56784667D01*
X75344667Y-56626233D01*
X75473181Y-56442696D01*
X75567872Y-56239630D01*
X75625863Y-56023206D01*
X75645391Y-55800000D01*
X75625863Y-55576794D01*
X75567872Y-55360370D01*
X75473181Y-55157305D01*
X75359397Y-54994804D01*
X75344668Y-54973768D01*
X75270900Y-54900000D01*
X90094540Y-54900000D01*
X90114326Y-55088256D01*
X90114327Y-55088259D01*
X90172818Y-55268277D01*
X90172821Y-55268284D01*
X90267467Y-55432216D01*
X90394129Y-55572888D01*
X90547265Y-55684148D01*
X90547270Y-55684151D01*
X90720192Y-55761142D01*
X90720197Y-55761144D01*
X90905354Y-55800500D01*
X90905355Y-55800500D01*
X91094644Y-55800500D01*
X91094646Y-55800500D01*
X91279803Y-55761144D01*
X91452730Y-55684151D01*
X91605871Y-55572888D01*
X91732533Y-55432216D01*
X91827179Y-55268284D01*
X91885674Y-55088256D01*
X91905460Y-54900000D01*
X91885674Y-54711744D01*
X91827179Y-54531716D01*
X91732533Y-54367784D01*
X91605871Y-54227112D01*
X91605870Y-54227111D01*
X91452734Y-54115851D01*
X91452729Y-54115848D01*
X91279807Y-54038857D01*
X91279802Y-54038855D01*
X91134001Y-54007865D01*
X91094646Y-53999500D01*
X90905354Y-53999500D01*
X90872897Y-54006398D01*
X90720197Y-54038855D01*
X90720192Y-54038857D01*
X90547270Y-54115848D01*
X90547265Y-54115851D01*
X90394129Y-54227111D01*
X90267466Y-54367785D01*
X90172821Y-54531715D01*
X90172818Y-54531722D01*
X90122424Y-54686821D01*
X90114326Y-54711744D01*
X90094540Y-54900000D01*
X75270900Y-54900000D01*
X75186233Y-54815333D01*
X75186229Y-54815330D01*
X75186228Y-54815329D01*
X75002700Y-54686821D01*
X75002696Y-54686819D01*
X74799630Y-54592128D01*
X74799627Y-54592127D01*
X74799625Y-54592126D01*
X74583208Y-54534137D01*
X74583200Y-54534136D01*
X74360002Y-54514609D01*
X74359998Y-54514609D01*
X74136799Y-54534136D01*
X74136791Y-54534137D01*
X73920368Y-54592128D01*
X73902592Y-54600417D01*
X73876574Y-54609194D01*
X73874257Y-54609698D01*
X72841982Y-54994804D01*
X72772291Y-54999793D01*
X72733545Y-54984164D01*
X72686680Y-54955257D01*
X72658701Y-54937999D01*
X72658698Y-54937997D01*
X72658697Y-54937997D01*
X72544029Y-54900000D01*
X72497709Y-54884651D01*
X72398346Y-54874500D01*
X71801662Y-54874500D01*
X71801644Y-54874501D01*
X71702292Y-54884650D01*
X71702289Y-54884651D01*
X71541305Y-54937996D01*
X71541294Y-54938001D01*
X71390809Y-55030823D01*
X71389131Y-55028103D01*
X71337534Y-55048909D01*
X71325440Y-55049500D01*
X67931945Y-55049500D01*
X67914299Y-55048238D01*
X67888301Y-55044500D01*
X67888300Y-55044500D01*
X66937390Y-55044500D01*
X66937387Y-55044500D01*
X66933744Y-55044548D01*
X66933747Y-55044548D01*
X66868372Y-55049334D01*
X66863843Y-55049500D01*
X66359304Y-55049500D01*
X66322432Y-55052401D01*
X66322426Y-55052402D01*
X66164606Y-55098254D01*
X66164603Y-55098255D01*
X66023137Y-55181917D01*
X66023129Y-55181923D01*
X65906923Y-55298129D01*
X65906914Y-55298140D01*
X65906729Y-55298455D01*
X65906519Y-55298650D01*
X65902139Y-55304298D01*
X65901227Y-55303591D01*
X65855657Y-55346136D01*
X65786915Y-55358637D01*
X65722327Y-55331988D01*
X65698143Y-55304078D01*
X65697861Y-55304298D01*
X65693823Y-55299092D01*
X65693271Y-55298455D01*
X65693085Y-55298140D01*
X65693076Y-55298129D01*
X65576870Y-55181923D01*
X65576861Y-55181916D01*
X65473879Y-55121013D01*
X65426195Y-55069944D01*
X65413000Y-55014281D01*
X65413000Y-52274500D01*
X65432685Y-52207461D01*
X65485489Y-52161706D01*
X65537000Y-52150500D01*
X67737903Y-52150500D01*
X67758288Y-52152187D01*
X68489711Y-52274091D01*
X68521229Y-52279344D01*
X68541887Y-52281919D01*
X68554177Y-52282938D01*
X68554181Y-52282937D01*
X68554182Y-52282938D01*
X68563782Y-52282824D01*
X68642602Y-52281889D01*
X68709869Y-52300777D01*
X68731753Y-52318199D01*
X69227467Y-52813913D01*
X69217685Y-52815320D01*
X69086900Y-52875048D01*
X68978239Y-52969202D01*
X68900507Y-53090156D01*
X68876923Y-53170476D01*
X68295334Y-52588887D01*
X68295333Y-52588888D01*
X68247255Y-52657552D01*
X68152600Y-52860540D01*
X68152596Y-52860549D01*
X68094632Y-53076875D01*
X68094630Y-53076886D01*
X68075111Y-53299997D01*
X68075111Y-53300002D01*
X68094630Y-53523113D01*
X68094632Y-53523124D01*
X68152596Y-53739450D01*
X68152600Y-53739459D01*
X68247253Y-53942444D01*
X68295334Y-54011111D01*
X68876922Y-53429523D01*
X68900507Y-53509844D01*
X68978239Y-53630798D01*
X69086900Y-53724952D01*
X69217685Y-53784680D01*
X69227466Y-53786086D01*
X68648887Y-54364665D01*
X68717548Y-54412742D01*
X68717554Y-54412746D01*
X68920540Y-54507399D01*
X68920549Y-54507403D01*
X69136875Y-54565367D01*
X69136886Y-54565369D01*
X69359998Y-54584889D01*
X69360002Y-54584889D01*
X69583113Y-54565369D01*
X69583124Y-54565367D01*
X69799450Y-54507403D01*
X69799464Y-54507398D01*
X70002440Y-54412749D01*
X70071111Y-54364664D01*
X69492534Y-53786086D01*
X69502315Y-53784680D01*
X69633100Y-53724952D01*
X69741761Y-53630798D01*
X69819493Y-53509844D01*
X69843076Y-53429523D01*
X70424664Y-54011110D01*
X70472749Y-53942440D01*
X70567398Y-53739464D01*
X70567403Y-53739450D01*
X70625367Y-53523124D01*
X70625369Y-53523113D01*
X70644889Y-53300002D01*
X70644889Y-53299997D01*
X70625369Y-53076886D01*
X70625367Y-53076875D01*
X70567403Y-52860549D01*
X70567399Y-52860540D01*
X70527511Y-52775000D01*
X98179341Y-52775000D01*
X98199936Y-53010403D01*
X98199938Y-53010413D01*
X98261094Y-53238655D01*
X98261096Y-53238659D01*
X98261097Y-53238663D01*
X98345499Y-53419663D01*
X98360965Y-53452830D01*
X98360967Y-53452834D01*
X98410185Y-53523124D01*
X98496505Y-53646401D01*
X98663599Y-53813495D01*
X98760384Y-53881265D01*
X98857165Y-53949032D01*
X98857167Y-53949033D01*
X98857170Y-53949035D01*
X99071337Y-54048903D01*
X99299592Y-54110063D01*
X99476034Y-54125500D01*
X99534999Y-54130659D01*
X99535000Y-54130659D01*
X99535001Y-54130659D01*
X99593966Y-54125500D01*
X99770408Y-54110063D01*
X99998663Y-54048903D01*
X100212830Y-53949035D01*
X100406401Y-53813495D01*
X100528329Y-53691566D01*
X100589648Y-53658084D01*
X100659340Y-53663068D01*
X100715274Y-53704939D01*
X100732189Y-53735917D01*
X100781202Y-53867328D01*
X100781206Y-53867335D01*
X100867452Y-53982544D01*
X100867455Y-53982547D01*
X100982664Y-54068793D01*
X100982671Y-54068797D01*
X101117517Y-54119091D01*
X101117516Y-54119091D01*
X101124444Y-54119835D01*
X101177127Y-54125500D01*
X102972872Y-54125499D01*
X103032483Y-54119091D01*
X103167331Y-54068796D01*
X103282546Y-53982546D01*
X103368796Y-53867331D01*
X103419091Y-53732483D01*
X103425500Y-53672873D01*
X103425499Y-51877128D01*
X103419091Y-51817517D01*
X103417810Y-51814083D01*
X103368797Y-51682671D01*
X103368793Y-51682664D01*
X103282547Y-51567455D01*
X103282544Y-51567452D01*
X103167335Y-51481206D01*
X103167328Y-51481202D01*
X103035917Y-51432189D01*
X102979983Y-51390318D01*
X102955566Y-51324853D01*
X102970418Y-51256580D01*
X102991563Y-51228332D01*
X103113495Y-51106401D01*
X103249035Y-50912830D01*
X103348903Y-50698663D01*
X103410063Y-50470408D01*
X103430659Y-50235000D01*
X103410063Y-49999592D01*
X103348903Y-49771337D01*
X103249035Y-49557171D01*
X103243425Y-49549158D01*
X103113494Y-49363597D01*
X102946402Y-49196506D01*
X102946396Y-49196501D01*
X102760842Y-49066575D01*
X102717217Y-49011998D01*
X102710023Y-48942500D01*
X102741546Y-48880145D01*
X102760842Y-48863425D01*
X102822426Y-48820303D01*
X102946401Y-48733495D01*
X103113495Y-48566401D01*
X103249035Y-48372830D01*
X103348903Y-48158663D01*
X103410063Y-47930408D01*
X103430659Y-47695000D01*
X103410063Y-47459592D01*
X103348903Y-47231337D01*
X103249035Y-47017171D01*
X103243425Y-47009158D01*
X103113494Y-46823597D01*
X102946402Y-46656506D01*
X102946396Y-46656501D01*
X102760842Y-46526575D01*
X102717217Y-46471998D01*
X102710023Y-46402500D01*
X102741546Y-46340145D01*
X102760842Y-46323425D01*
X102829660Y-46275238D01*
X102946401Y-46193495D01*
X103113495Y-46026401D01*
X103249035Y-45832830D01*
X103348903Y-45618663D01*
X103410063Y-45390408D01*
X103430659Y-45155000D01*
X103429246Y-45138855D01*
X103418305Y-45013793D01*
X103410063Y-44919592D01*
X103348903Y-44691337D01*
X103249035Y-44477171D01*
X103245485Y-44472100D01*
X103113494Y-44283597D01*
X102946402Y-44116506D01*
X102946396Y-44116501D01*
X102760842Y-43986575D01*
X102717217Y-43931998D01*
X102710023Y-43862500D01*
X102741546Y-43800145D01*
X102760842Y-43783425D01*
X102879271Y-43700500D01*
X102946401Y-43653495D01*
X103113495Y-43486401D01*
X103249035Y-43292830D01*
X103348903Y-43078663D01*
X103410063Y-42850408D01*
X103430659Y-42615000D01*
X103429136Y-42597598D01*
X103414623Y-42431715D01*
X103410063Y-42379592D01*
X103348903Y-42151337D01*
X103249035Y-41937171D01*
X103248953Y-41937053D01*
X103113494Y-41743597D01*
X102946402Y-41576506D01*
X102946395Y-41576501D01*
X102752834Y-41440967D01*
X102752830Y-41440965D01*
X102595895Y-41367785D01*
X102538663Y-41341097D01*
X102538659Y-41341096D01*
X102538655Y-41341094D01*
X102310413Y-41279938D01*
X102310403Y-41279936D01*
X102075001Y-41259341D01*
X102074999Y-41259341D01*
X101839596Y-41279936D01*
X101839586Y-41279938D01*
X101611344Y-41341094D01*
X101611335Y-41341098D01*
X101397171Y-41440964D01*
X101397169Y-41440965D01*
X101203597Y-41576505D01*
X101036508Y-41743594D01*
X100906269Y-41929595D01*
X100851692Y-41973219D01*
X100782193Y-41980412D01*
X100719839Y-41948890D01*
X100703119Y-41929594D01*
X100573113Y-41743926D01*
X100573108Y-41743920D01*
X100406082Y-41576894D01*
X100212578Y-41441399D01*
X99998492Y-41341570D01*
X99998486Y-41341567D01*
X99785000Y-41284364D01*
X99785000Y-42179498D01*
X99677315Y-42130320D01*
X99570763Y-42115000D01*
X99499237Y-42115000D01*
X99392685Y-42130320D01*
X99285000Y-42179498D01*
X99285000Y-41284364D01*
X99284999Y-41284364D01*
X99071513Y-41341567D01*
X99071507Y-41341570D01*
X98857422Y-41441399D01*
X98857420Y-41441400D01*
X98663926Y-41576886D01*
X98663920Y-41576891D01*
X98496891Y-41743920D01*
X98496886Y-41743926D01*
X98361400Y-41937420D01*
X98361399Y-41937422D01*
X98261570Y-42151507D01*
X98261567Y-42151513D01*
X98204364Y-42364999D01*
X98204364Y-42365000D01*
X99101314Y-42365000D01*
X99075507Y-42405156D01*
X99035000Y-42543111D01*
X99035000Y-42686889D01*
X99075507Y-42824844D01*
X99101314Y-42865000D01*
X98204364Y-42865000D01*
X98261567Y-43078486D01*
X98261570Y-43078492D01*
X98361399Y-43292578D01*
X98496894Y-43486082D01*
X98663917Y-43653105D01*
X98850031Y-43783425D01*
X98893656Y-43838003D01*
X98900848Y-43907501D01*
X98869326Y-43969856D01*
X98850031Y-43986575D01*
X98663922Y-44116890D01*
X98663920Y-44116891D01*
X98496891Y-44283920D01*
X98496886Y-44283926D01*
X98361400Y-44477420D01*
X98361399Y-44477422D01*
X98261570Y-44691507D01*
X98261567Y-44691513D01*
X98204364Y-44904999D01*
X98204364Y-44905000D01*
X99101314Y-44905000D01*
X99075507Y-44945156D01*
X99035000Y-45083111D01*
X99035000Y-45226889D01*
X99075507Y-45364844D01*
X99101314Y-45405000D01*
X98204364Y-45405000D01*
X98261567Y-45618486D01*
X98261570Y-45618492D01*
X98361399Y-45832578D01*
X98496894Y-46026082D01*
X98663917Y-46193105D01*
X98849595Y-46323119D01*
X98893219Y-46377696D01*
X98900412Y-46447195D01*
X98868890Y-46509549D01*
X98849595Y-46526269D01*
X98663594Y-46656508D01*
X98496505Y-46823597D01*
X98360965Y-47017169D01*
X98360964Y-47017171D01*
X98261098Y-47231335D01*
X98261094Y-47231344D01*
X98199938Y-47459586D01*
X98199936Y-47459596D01*
X98179341Y-47694999D01*
X98179341Y-47695000D01*
X98199936Y-47930403D01*
X98199938Y-47930413D01*
X98261094Y-48158655D01*
X98261096Y-48158659D01*
X98261097Y-48158663D01*
X98296369Y-48234304D01*
X98360965Y-48372830D01*
X98360967Y-48372834D01*
X98441787Y-48488256D01*
X98496501Y-48566396D01*
X98496506Y-48566402D01*
X98663597Y-48733493D01*
X98663603Y-48733498D01*
X98849158Y-48863425D01*
X98892783Y-48918002D01*
X98899977Y-48987500D01*
X98868454Y-49049855D01*
X98849158Y-49066575D01*
X98663597Y-49196505D01*
X98496505Y-49363597D01*
X98360965Y-49557169D01*
X98360964Y-49557171D01*
X98261098Y-49771335D01*
X98261094Y-49771344D01*
X98199938Y-49999586D01*
X98199936Y-49999596D01*
X98179341Y-50234999D01*
X98179341Y-50235000D01*
X98199936Y-50470403D01*
X98199938Y-50470413D01*
X98261094Y-50698655D01*
X98261096Y-50698659D01*
X98261097Y-50698663D01*
X98315420Y-50815159D01*
X98360965Y-50912830D01*
X98360967Y-50912834D01*
X98434665Y-51018085D01*
X98496501Y-51106396D01*
X98496506Y-51106402D01*
X98663597Y-51273493D01*
X98663603Y-51273498D01*
X98849158Y-51403425D01*
X98892783Y-51458002D01*
X98899977Y-51527500D01*
X98868454Y-51589855D01*
X98849158Y-51606575D01*
X98663597Y-51736505D01*
X98496505Y-51903597D01*
X98360965Y-52097169D01*
X98360964Y-52097171D01*
X98261098Y-52311335D01*
X98261094Y-52311344D01*
X98199938Y-52539586D01*
X98199936Y-52539596D01*
X98179341Y-52774999D01*
X98179341Y-52775000D01*
X70527511Y-52775000D01*
X70472746Y-52657556D01*
X70424664Y-52588887D01*
X69843076Y-53170475D01*
X69819493Y-53090156D01*
X69741761Y-52969202D01*
X69633100Y-52875048D01*
X69502315Y-52815320D01*
X69492532Y-52813913D01*
X69989628Y-52316818D01*
X70050951Y-52283333D01*
X70077309Y-52280499D01*
X70207871Y-52280499D01*
X70207872Y-52280499D01*
X70267483Y-52274091D01*
X70402331Y-52223796D01*
X70517546Y-52137546D01*
X70603796Y-52022331D01*
X70654091Y-51887483D01*
X70660500Y-51827873D01*
X70660499Y-50324499D01*
X70680184Y-50257461D01*
X70732987Y-50211706D01*
X70784499Y-50200500D01*
X71375354Y-50200500D01*
X71442393Y-50220185D01*
X71463035Y-50236819D01*
X72611851Y-51385634D01*
X72623632Y-51399266D01*
X72637974Y-51418531D01*
X72642313Y-51423130D01*
X72656977Y-51442040D01*
X72964671Y-51929594D01*
X72983166Y-51983171D01*
X72984651Y-51997708D01*
X72984651Y-51997710D01*
X73037996Y-52158694D01*
X73038001Y-52158705D01*
X73127029Y-52303040D01*
X73127032Y-52303044D01*
X73246955Y-52422967D01*
X73246959Y-52422970D01*
X73391294Y-52511998D01*
X73391297Y-52511999D01*
X73391303Y-52512003D01*
X73552292Y-52565349D01*
X73651655Y-52575500D01*
X74198344Y-52575499D01*
X74198352Y-52575498D01*
X74198355Y-52575498D01*
X74252760Y-52569940D01*
X74297708Y-52565349D01*
X74458697Y-52512003D01*
X74603044Y-52422968D01*
X74612668Y-52413343D01*
X74673987Y-52379856D01*
X74743679Y-52384835D01*
X74788034Y-52413339D01*
X74797267Y-52422572D01*
X74797271Y-52422575D01*
X74941507Y-52511542D01*
X74941518Y-52511547D01*
X75102393Y-52564855D01*
X75201683Y-52574999D01*
X75225000Y-52574998D01*
X75225000Y-51850000D01*
X75725000Y-51850000D01*
X75725000Y-52574999D01*
X75748308Y-52574999D01*
X75748322Y-52574998D01*
X75847607Y-52564855D01*
X76008481Y-52511547D01*
X76008492Y-52511542D01*
X76152728Y-52422575D01*
X76152732Y-52422572D01*
X76272572Y-52302732D01*
X76272575Y-52302728D01*
X76361542Y-52158492D01*
X76361547Y-52158481D01*
X76414855Y-51997606D01*
X76424999Y-51898322D01*
X76425000Y-51898309D01*
X76425000Y-51850000D01*
X75725000Y-51850000D01*
X75225000Y-51850000D01*
X75225000Y-50625000D01*
X75725000Y-50625000D01*
X75725000Y-51350000D01*
X76424999Y-51350000D01*
X76424999Y-51301692D01*
X76424998Y-51301677D01*
X76414855Y-51202392D01*
X76361547Y-51041518D01*
X76361542Y-51041507D01*
X76272575Y-50897271D01*
X76272572Y-50897267D01*
X76152732Y-50777427D01*
X76152728Y-50777424D01*
X76008492Y-50688457D01*
X76008481Y-50688452D01*
X75847606Y-50635144D01*
X75748322Y-50625000D01*
X75725000Y-50625000D01*
X75225000Y-50625000D01*
X75225000Y-50624999D01*
X75201693Y-50625000D01*
X75201674Y-50625001D01*
X75102392Y-50635144D01*
X74941518Y-50688452D01*
X74941507Y-50688457D01*
X74797271Y-50777424D01*
X74797265Y-50777428D01*
X74788031Y-50786663D01*
X74726707Y-50820146D01*
X74657015Y-50815159D01*
X74612672Y-50786660D01*
X74603044Y-50777032D01*
X74603040Y-50777029D01*
X74458705Y-50688001D01*
X74458698Y-50687998D01*
X74458697Y-50687997D01*
X74458694Y-50687996D01*
X74458692Y-50687995D01*
X74297706Y-50634650D01*
X74297707Y-50634650D01*
X74254871Y-50630274D01*
X74206152Y-50614691D01*
X73828840Y-50400000D01*
X81494540Y-50400000D01*
X81514326Y-50588256D01*
X81514327Y-50588259D01*
X81572818Y-50768277D01*
X81572821Y-50768284D01*
X81667467Y-50932216D01*
X81765883Y-51041518D01*
X81794129Y-51072888D01*
X81947265Y-51184148D01*
X81947270Y-51184151D01*
X82120192Y-51261142D01*
X82120197Y-51261144D01*
X82305354Y-51300500D01*
X82305355Y-51300500D01*
X82494644Y-51300500D01*
X82494646Y-51300500D01*
X82679803Y-51261144D01*
X82852730Y-51184151D01*
X83005871Y-51072888D01*
X83132533Y-50932216D01*
X83227179Y-50768284D01*
X83285674Y-50588256D01*
X83305460Y-50400000D01*
X83285674Y-50211744D01*
X83227179Y-50031716D01*
X83132533Y-49867784D01*
X83005871Y-49727112D01*
X82979391Y-49707873D01*
X82852734Y-49615851D01*
X82852729Y-49615848D01*
X82679807Y-49538857D01*
X82679802Y-49538855D01*
X82534001Y-49507865D01*
X82494646Y-49499500D01*
X82305354Y-49499500D01*
X82272897Y-49506398D01*
X82120197Y-49538855D01*
X82120192Y-49538857D01*
X81947270Y-49615848D01*
X81947265Y-49615851D01*
X81794129Y-49727111D01*
X81667466Y-49867785D01*
X81572821Y-50031715D01*
X81572818Y-50031722D01*
X81514338Y-50211706D01*
X81514326Y-50211744D01*
X81494540Y-50400000D01*
X73828840Y-50400000D01*
X73800981Y-50384148D01*
X73661073Y-50304540D01*
X73642691Y-50291754D01*
X73632412Y-50283128D01*
X73628435Y-50279484D01*
X72802580Y-49453628D01*
X72769095Y-49392305D01*
X72774079Y-49322613D01*
X72815951Y-49266680D01*
X72881415Y-49242263D01*
X72942040Y-49253275D01*
X73627833Y-49568454D01*
X73863729Y-49676868D01*
X73868503Y-49678954D01*
X73868499Y-49678953D01*
X73885153Y-49685019D01*
X73911006Y-49694436D01*
X73915962Y-49696490D01*
X73940370Y-49707872D01*
X74156794Y-49765863D01*
X74316226Y-49779811D01*
X74379998Y-49785391D01*
X74380000Y-49785391D01*
X74380002Y-49785391D01*
X74435801Y-49780509D01*
X74603206Y-49765863D01*
X74819630Y-49707872D01*
X75022696Y-49613181D01*
X75206233Y-49484667D01*
X75271278Y-49419622D01*
X86914162Y-49419622D01*
X86933948Y-49607878D01*
X86933949Y-49607881D01*
X86992440Y-49787899D01*
X86992443Y-49787906D01*
X87087089Y-49951838D01*
X87130905Y-50000500D01*
X87213751Y-50092510D01*
X87366887Y-50203770D01*
X87366892Y-50203773D01*
X87539814Y-50280764D01*
X87539819Y-50280766D01*
X87724976Y-50320122D01*
X87724977Y-50320122D01*
X87914266Y-50320122D01*
X87914268Y-50320122D01*
X88099425Y-50280766D01*
X88272352Y-50203773D01*
X88278470Y-50199327D01*
X88344274Y-50175845D01*
X88412329Y-50191666D01*
X88443509Y-50216669D01*
X88460014Y-50235000D01*
X88494129Y-50272888D01*
X88494135Y-50272893D01*
X88647265Y-50384148D01*
X88647270Y-50384151D01*
X88820192Y-50461142D01*
X88820197Y-50461144D01*
X89005354Y-50500500D01*
X89005355Y-50500500D01*
X89194644Y-50500500D01*
X89194646Y-50500500D01*
X89379803Y-50461144D01*
X89552730Y-50384151D01*
X89705871Y-50272888D01*
X89832533Y-50132216D01*
X89927179Y-49968284D01*
X89985674Y-49788256D01*
X90005460Y-49600000D01*
X89985674Y-49411744D01*
X89927179Y-49231716D01*
X89832533Y-49067784D01*
X89705871Y-48927112D01*
X89705870Y-48927111D01*
X89552734Y-48815851D01*
X89552729Y-48815848D01*
X89379807Y-48738857D01*
X89379802Y-48738855D01*
X89209103Y-48702573D01*
X89194646Y-48699500D01*
X89005354Y-48699500D01*
X88990897Y-48702573D01*
X88820197Y-48738855D01*
X88820192Y-48738857D01*
X88647268Y-48815849D01*
X88641138Y-48820303D01*
X88575329Y-48843777D01*
X88507277Y-48827946D01*
X88476111Y-48802951D01*
X88425492Y-48746733D01*
X88425486Y-48746728D01*
X88272356Y-48635473D01*
X88272351Y-48635470D01*
X88099429Y-48558479D01*
X88099424Y-48558477D01*
X87953623Y-48527487D01*
X87914268Y-48519122D01*
X87724976Y-48519122D01*
X87692519Y-48526020D01*
X87539819Y-48558477D01*
X87539814Y-48558479D01*
X87366892Y-48635470D01*
X87366887Y-48635473D01*
X87213751Y-48746733D01*
X87087088Y-48887407D01*
X86992443Y-49051337D01*
X86992440Y-49051344D01*
X86933949Y-49231362D01*
X86933948Y-49231366D01*
X86914162Y-49419622D01*
X75271278Y-49419622D01*
X75364667Y-49326233D01*
X75493181Y-49142696D01*
X75587872Y-48939630D01*
X75645863Y-48723206D01*
X75665391Y-48500000D01*
X75645863Y-48276794D01*
X75587872Y-48060370D01*
X75493181Y-47857305D01*
X75402928Y-47728410D01*
X75364668Y-47673768D01*
X75306166Y-47615266D01*
X75206233Y-47515333D01*
X75206229Y-47515330D01*
X75206228Y-47515329D01*
X75022700Y-47386821D01*
X75022696Y-47386819D01*
X74819630Y-47292128D01*
X74819627Y-47292127D01*
X74819625Y-47292126D01*
X74603208Y-47234137D01*
X74603200Y-47234136D01*
X74380002Y-47214609D01*
X74379998Y-47214609D01*
X74156799Y-47234136D01*
X74156792Y-47234137D01*
X73940371Y-47292127D01*
X73940359Y-47292132D01*
X73937650Y-47293395D01*
X73920731Y-47299824D01*
X72766660Y-47644319D01*
X72731192Y-47649500D01*
X67931945Y-47649500D01*
X67914299Y-47648238D01*
X67888301Y-47644500D01*
X67888300Y-47644500D01*
X66937390Y-47644500D01*
X66937387Y-47644500D01*
X66933744Y-47644548D01*
X66933747Y-47644548D01*
X66868372Y-47649334D01*
X66863843Y-47649500D01*
X66359304Y-47649500D01*
X66322432Y-47652401D01*
X66322426Y-47652402D01*
X66164606Y-47698254D01*
X66164603Y-47698255D01*
X66023137Y-47781917D01*
X66023129Y-47781923D01*
X65906923Y-47898129D01*
X65906914Y-47898140D01*
X65906729Y-47898455D01*
X65906519Y-47898650D01*
X65902139Y-47904298D01*
X65901227Y-47903591D01*
X65855657Y-47946136D01*
X65786915Y-47958637D01*
X65722327Y-47931988D01*
X65698143Y-47904078D01*
X65697861Y-47904298D01*
X65693823Y-47899092D01*
X65693271Y-47898455D01*
X65693085Y-47898140D01*
X65693079Y-47898133D01*
X65652250Y-47857304D01*
X65611207Y-47816261D01*
X65577724Y-47754941D01*
X65580960Y-47690261D01*
X65585674Y-47675756D01*
X65605460Y-47487500D01*
X65585674Y-47299244D01*
X65565553Y-47237317D01*
X65563558Y-47167475D01*
X65599639Y-47107643D01*
X65662340Y-47076815D01*
X65683484Y-47074999D01*
X65748308Y-47074999D01*
X65748322Y-47074998D01*
X65847607Y-47064855D01*
X66008481Y-47011547D01*
X66008492Y-47011542D01*
X66152728Y-46922575D01*
X66152732Y-46922572D01*
X66272572Y-46802732D01*
X66272575Y-46802728D01*
X66361542Y-46658492D01*
X66361547Y-46658481D01*
X66414855Y-46497606D01*
X66424999Y-46398322D01*
X66425000Y-46398309D01*
X66425000Y-46350000D01*
X65349000Y-46350000D01*
X65281961Y-46330315D01*
X65236206Y-46277511D01*
X65225000Y-46226000D01*
X65225000Y-45125000D01*
X65725000Y-45125000D01*
X65725000Y-45850000D01*
X66424999Y-45850000D01*
X66424999Y-45801692D01*
X66424998Y-45801677D01*
X66414855Y-45702392D01*
X66361547Y-45541518D01*
X66361542Y-45541507D01*
X66272575Y-45397271D01*
X66272572Y-45397267D01*
X66152732Y-45277427D01*
X66152728Y-45277424D01*
X66008492Y-45188457D01*
X66008481Y-45188452D01*
X65847606Y-45135144D01*
X65748322Y-45125000D01*
X65725000Y-45125000D01*
X65225000Y-45125000D01*
X65225000Y-45124999D01*
X65201693Y-45125000D01*
X65201674Y-45125001D01*
X65102392Y-45135144D01*
X64941518Y-45188452D01*
X64941513Y-45188454D01*
X64814798Y-45266614D01*
X64747406Y-45285054D01*
X64680742Y-45264132D01*
X64639264Y-45217463D01*
X64638439Y-45215848D01*
X64617235Y-45174319D01*
X64564063Y-45070181D01*
X64550500Y-45013793D01*
X64550500Y-44306945D01*
X64551762Y-44289299D01*
X64552582Y-44283594D01*
X64555500Y-44263300D01*
X64555500Y-43487500D01*
X64850000Y-43487500D01*
X64850000Y-43890644D01*
X64852899Y-43927489D01*
X64852900Y-43927495D01*
X64898716Y-44085193D01*
X64898717Y-44085196D01*
X64982314Y-44226552D01*
X64982321Y-44226561D01*
X65098438Y-44342678D01*
X65098447Y-44342685D01*
X65239801Y-44426281D01*
X65397514Y-44472100D01*
X65397511Y-44472100D01*
X65399998Y-44472295D01*
X65400000Y-44472295D01*
X65400000Y-43487500D01*
X65900000Y-43487500D01*
X65900000Y-44472295D01*
X65900001Y-44472295D01*
X65902486Y-44472100D01*
X66060198Y-44426281D01*
X66201552Y-44342685D01*
X66201561Y-44342678D01*
X66317678Y-44226561D01*
X66317685Y-44226552D01*
X66401282Y-44085196D01*
X66401283Y-44085193D01*
X66418771Y-44025000D01*
X66950001Y-44025000D01*
X66950001Y-44149986D01*
X66960494Y-44252697D01*
X67015641Y-44419119D01*
X67015643Y-44419124D01*
X67107684Y-44568345D01*
X67231654Y-44692315D01*
X67380875Y-44784356D01*
X67380880Y-44784358D01*
X67547302Y-44839505D01*
X67547309Y-44839506D01*
X67650019Y-44849999D01*
X68541031Y-44849999D01*
X68608070Y-44869683D01*
X68639447Y-44905894D01*
X69247467Y-45513913D01*
X69237685Y-45515320D01*
X69106900Y-45575048D01*
X68998239Y-45669202D01*
X68920507Y-45790156D01*
X68896923Y-45870476D01*
X68315334Y-45288887D01*
X68315333Y-45288888D01*
X68267255Y-45357552D01*
X68172600Y-45560540D01*
X68172596Y-45560549D01*
X68114632Y-45776875D01*
X68114630Y-45776886D01*
X68095111Y-45999997D01*
X68095111Y-46000002D01*
X68114630Y-46223113D01*
X68114632Y-46223124D01*
X68172596Y-46439450D01*
X68172600Y-46439459D01*
X68267253Y-46642444D01*
X68315334Y-46711111D01*
X68896922Y-46129523D01*
X68920507Y-46209844D01*
X68998239Y-46330798D01*
X69106900Y-46424952D01*
X69237685Y-46484680D01*
X69247466Y-46486086D01*
X68668887Y-47064665D01*
X68737548Y-47112742D01*
X68737554Y-47112746D01*
X68940540Y-47207399D01*
X68940549Y-47207403D01*
X69156875Y-47265367D01*
X69156886Y-47265369D01*
X69379998Y-47284889D01*
X69380002Y-47284889D01*
X69603113Y-47265369D01*
X69603124Y-47265367D01*
X69819450Y-47207403D01*
X69819464Y-47207398D01*
X70022440Y-47112749D01*
X70040647Y-47100000D01*
X81994540Y-47100000D01*
X82014326Y-47288256D01*
X82014327Y-47288258D01*
X82014327Y-47288259D01*
X82072818Y-47468277D01*
X82072821Y-47468284D01*
X82167467Y-47632216D01*
X82286673Y-47764607D01*
X82294129Y-47772888D01*
X82447265Y-47884148D01*
X82447270Y-47884151D01*
X82620192Y-47961142D01*
X82620197Y-47961144D01*
X82805354Y-48000500D01*
X82805355Y-48000500D01*
X82994644Y-48000500D01*
X82994646Y-48000500D01*
X83167447Y-47963770D01*
X83237113Y-47969086D01*
X83292847Y-48011223D01*
X83316952Y-48076803D01*
X83314917Y-48105271D01*
X83315006Y-48105281D01*
X83314727Y-48107927D01*
X83314521Y-48110822D01*
X83314328Y-48111729D01*
X83314327Y-48111740D01*
X83314326Y-48111744D01*
X83294540Y-48300000D01*
X83314326Y-48488256D01*
X83314327Y-48488259D01*
X83372818Y-48668277D01*
X83372821Y-48668284D01*
X83467467Y-48832216D01*
X83587027Y-48965000D01*
X83594129Y-48972888D01*
X83747265Y-49084148D01*
X83747270Y-49084151D01*
X83920192Y-49161142D01*
X83920197Y-49161144D01*
X84105354Y-49200500D01*
X84105355Y-49200500D01*
X84294644Y-49200500D01*
X84294646Y-49200500D01*
X84479803Y-49161144D01*
X84652730Y-49084151D01*
X84805871Y-48972888D01*
X84932533Y-48832216D01*
X85027179Y-48668284D01*
X85085674Y-48488256D01*
X85105460Y-48300000D01*
X85085674Y-48111744D01*
X85031112Y-47943823D01*
X85027181Y-47931722D01*
X85027180Y-47931721D01*
X85027179Y-47931716D01*
X84932533Y-47767784D01*
X84805871Y-47627112D01*
X84789576Y-47615273D01*
X84652734Y-47515851D01*
X84652729Y-47515848D01*
X84479807Y-47438857D01*
X84479802Y-47438855D01*
X84304817Y-47401662D01*
X84294646Y-47399500D01*
X84105354Y-47399500D01*
X84105352Y-47399500D01*
X83932552Y-47436229D01*
X83862885Y-47430913D01*
X83807152Y-47388775D01*
X83783047Y-47323195D01*
X83785083Y-47294728D01*
X83784994Y-47294719D01*
X83785276Y-47292034D01*
X83785482Y-47289157D01*
X83785673Y-47288258D01*
X83785674Y-47288256D01*
X83805460Y-47100000D01*
X83785674Y-46911744D01*
X83785672Y-46911738D01*
X83785048Y-46905800D01*
X83797617Y-46837070D01*
X83843445Y-46788081D01*
X83843365Y-46787971D01*
X83843936Y-46787555D01*
X83845349Y-46786046D01*
X83846380Y-46785444D01*
X83848609Y-46784156D01*
X83848622Y-46784151D01*
X84001763Y-46672888D01*
X84128425Y-46532216D01*
X84223071Y-46368284D01*
X84281566Y-46188256D01*
X84301352Y-46000000D01*
X84281566Y-45811744D01*
X84223071Y-45631716D01*
X84128425Y-45467784D01*
X84001763Y-45327112D01*
X83984685Y-45314704D01*
X83848626Y-45215851D01*
X83848621Y-45215848D01*
X83675699Y-45138857D01*
X83675694Y-45138855D01*
X83529893Y-45107865D01*
X83490538Y-45099500D01*
X83301246Y-45099500D01*
X83268789Y-45106398D01*
X83116089Y-45138855D01*
X83116084Y-45138857D01*
X82943162Y-45215848D01*
X82943157Y-45215851D01*
X82790021Y-45327111D01*
X82663358Y-45467785D01*
X82568713Y-45631715D01*
X82568710Y-45631722D01*
X82513489Y-45801677D01*
X82510218Y-45811744D01*
X82497988Y-45928111D01*
X82490432Y-46000000D01*
X82510843Y-46194200D01*
X82498273Y-46262930D01*
X82452445Y-46311917D01*
X82452527Y-46312029D01*
X82451946Y-46312451D01*
X82450541Y-46313953D01*
X82449527Y-46314545D01*
X82447271Y-46315847D01*
X82294129Y-46427111D01*
X82167466Y-46567785D01*
X82072821Y-46731715D01*
X82072818Y-46731722D01*
X82038589Y-46837070D01*
X82014326Y-46911744D01*
X81994540Y-47100000D01*
X70040647Y-47100000D01*
X70091111Y-47064664D01*
X69512534Y-46486086D01*
X69522315Y-46484680D01*
X69653100Y-46424952D01*
X69761761Y-46330798D01*
X69839493Y-46209844D01*
X69863076Y-46129523D01*
X70444664Y-46711110D01*
X70492749Y-46642440D01*
X70587398Y-46439464D01*
X70587403Y-46439450D01*
X70645367Y-46223124D01*
X70645369Y-46223113D01*
X70664889Y-46000002D01*
X70664889Y-45999997D01*
X70645369Y-45776886D01*
X70645367Y-45776875D01*
X70587403Y-45560549D01*
X70587399Y-45560540D01*
X70492746Y-45357556D01*
X70444664Y-45288887D01*
X69863076Y-45870475D01*
X69839493Y-45790156D01*
X69761761Y-45669202D01*
X69653100Y-45575048D01*
X69522315Y-45515320D01*
X69512533Y-45513913D01*
X70091110Y-44935335D01*
X70090426Y-44927509D01*
X70104192Y-44859009D01*
X70152807Y-44808825D01*
X70174952Y-44798994D01*
X70219115Y-44784360D01*
X70219124Y-44784356D01*
X70368345Y-44692315D01*
X70492315Y-44568345D01*
X70584356Y-44419124D01*
X70584358Y-44419119D01*
X70639505Y-44252697D01*
X70639506Y-44252690D01*
X70649999Y-44149986D01*
X70650000Y-44149973D01*
X70650000Y-44025000D01*
X66950001Y-44025000D01*
X66418771Y-44025000D01*
X66447099Y-43927495D01*
X66447100Y-43927489D01*
X66450000Y-43890644D01*
X66450000Y-43525000D01*
X66950000Y-43525000D01*
X68550000Y-43525000D01*
X68550000Y-42700000D01*
X69050000Y-42700000D01*
X69050000Y-43525000D01*
X70649999Y-43525000D01*
X70649999Y-43400028D01*
X70649998Y-43400013D01*
X70639505Y-43297302D01*
X70584358Y-43130880D01*
X70584356Y-43130875D01*
X70492315Y-42981654D01*
X70368345Y-42857684D01*
X70274825Y-42800000D01*
X79694540Y-42800000D01*
X79714326Y-42988256D01*
X79714327Y-42988259D01*
X79772818Y-43168277D01*
X79772821Y-43168284D01*
X79867467Y-43332216D01*
X79994129Y-43472888D01*
X80147265Y-43584148D01*
X80147270Y-43584151D01*
X80320192Y-43661142D01*
X80320197Y-43661144D01*
X80505354Y-43700500D01*
X80505355Y-43700500D01*
X80694644Y-43700500D01*
X80694646Y-43700500D01*
X80879803Y-43661144D01*
X81052730Y-43584151D01*
X81205871Y-43472888D01*
X81332533Y-43332216D01*
X81427179Y-43168284D01*
X81485674Y-42988256D01*
X81505460Y-42800000D01*
X81894540Y-42800000D01*
X81914326Y-42988256D01*
X81914327Y-42988259D01*
X81972818Y-43168277D01*
X81972821Y-43168284D01*
X82067467Y-43332216D01*
X82194129Y-43472888D01*
X82347265Y-43584148D01*
X82347270Y-43584151D01*
X82520192Y-43661142D01*
X82520197Y-43661144D01*
X82705354Y-43700500D01*
X82705355Y-43700500D01*
X82894644Y-43700500D01*
X82894646Y-43700500D01*
X83079803Y-43661144D01*
X83252730Y-43584151D01*
X83405871Y-43472888D01*
X83532533Y-43332216D01*
X83627179Y-43168284D01*
X83685674Y-42988256D01*
X83705460Y-42800000D01*
X83685674Y-42611744D01*
X83627179Y-42431716D01*
X83532533Y-42267784D01*
X83405871Y-42127112D01*
X83393038Y-42117788D01*
X83252734Y-42015851D01*
X83252729Y-42015848D01*
X83079807Y-41938857D01*
X83079802Y-41938855D01*
X82916527Y-41904151D01*
X82894646Y-41899500D01*
X82705354Y-41899500D01*
X82683473Y-41904151D01*
X82520197Y-41938855D01*
X82520192Y-41938857D01*
X82347270Y-42015848D01*
X82347265Y-42015851D01*
X82194129Y-42127111D01*
X82067466Y-42267785D01*
X81972821Y-42431715D01*
X81972818Y-42431722D01*
X81923241Y-42584306D01*
X81914326Y-42611744D01*
X81894540Y-42800000D01*
X81505460Y-42800000D01*
X81485674Y-42611744D01*
X81427179Y-42431716D01*
X81332533Y-42267784D01*
X81205871Y-42127112D01*
X81193038Y-42117788D01*
X81052734Y-42015851D01*
X81052729Y-42015848D01*
X80879807Y-41938857D01*
X80879802Y-41938855D01*
X80716527Y-41904151D01*
X80694646Y-41899500D01*
X80505354Y-41899500D01*
X80483473Y-41904151D01*
X80320197Y-41938855D01*
X80320192Y-41938857D01*
X80147270Y-42015848D01*
X80147265Y-42015851D01*
X79994129Y-42127111D01*
X79867466Y-42267785D01*
X79772821Y-42431715D01*
X79772818Y-42431722D01*
X79723241Y-42584306D01*
X79714326Y-42611744D01*
X79694540Y-42800000D01*
X70274825Y-42800000D01*
X70219124Y-42765643D01*
X70219119Y-42765641D01*
X70052697Y-42710494D01*
X70052690Y-42710493D01*
X69949986Y-42700000D01*
X69050000Y-42700000D01*
X68550000Y-42700000D01*
X67650028Y-42700000D01*
X67650012Y-42700001D01*
X67547302Y-42710494D01*
X67380880Y-42765641D01*
X67380875Y-42765643D01*
X67231654Y-42857684D01*
X67107684Y-42981654D01*
X67015643Y-43130875D01*
X67015641Y-43130880D01*
X66960494Y-43297302D01*
X66960493Y-43297309D01*
X66950000Y-43400013D01*
X66950000Y-43525000D01*
X66450000Y-43525000D01*
X66450000Y-43487500D01*
X65900000Y-43487500D01*
X65400000Y-43487500D01*
X64850000Y-43487500D01*
X64555500Y-43487500D01*
X64555500Y-43238568D01*
X64555468Y-43235589D01*
X64551157Y-43174884D01*
X64551156Y-43174882D01*
X64550656Y-43167833D01*
X64550500Y-43163439D01*
X64550500Y-42724500D01*
X64570185Y-42657461D01*
X64622989Y-42611706D01*
X64674500Y-42600500D01*
X64726000Y-42600500D01*
X64793039Y-42620185D01*
X64838794Y-42672989D01*
X64850000Y-42724500D01*
X64850000Y-42987500D01*
X66450000Y-42987500D01*
X66450000Y-42584356D01*
X66447100Y-42547510D01*
X66447099Y-42547504D01*
X66401283Y-42389806D01*
X66401282Y-42389803D01*
X66348245Y-42300121D01*
X66331062Y-42232397D01*
X66353222Y-42166134D01*
X66407688Y-42122371D01*
X66454977Y-42113000D01*
X68198795Y-42113000D01*
X68216765Y-42114309D01*
X68240523Y-42117789D01*
X68292568Y-42113235D01*
X68297970Y-42113000D01*
X68306204Y-42113000D01*
X68306209Y-42113000D01*
X68317827Y-42111641D01*
X68338776Y-42109193D01*
X68351528Y-42108077D01*
X68415297Y-42102499D01*
X68415305Y-42102496D01*
X68422366Y-42101039D01*
X68422378Y-42101098D01*
X68429743Y-42099465D01*
X68429729Y-42099406D01*
X68436746Y-42097741D01*
X68436755Y-42097741D01*
X68508923Y-42071474D01*
X68581834Y-42047314D01*
X68581843Y-42047307D01*
X68588382Y-42044260D01*
X68588408Y-42044316D01*
X68595190Y-42041032D01*
X68595163Y-42040978D01*
X68601606Y-42037740D01*
X68601617Y-42037737D01*
X68665783Y-41995534D01*
X68731156Y-41955212D01*
X68731162Y-41955205D01*
X68736825Y-41950729D01*
X68736863Y-41950777D01*
X68742700Y-41946022D01*
X68742661Y-41945975D01*
X68748192Y-41941333D01*
X68748192Y-41941332D01*
X68748196Y-41941330D01*
X68750012Y-41939404D01*
X68751590Y-41938482D01*
X68753729Y-41936688D01*
X68754035Y-41937053D01*
X68810336Y-41904151D01*
X68840207Y-41900499D01*
X69950002Y-41900499D01*
X69950008Y-41900499D01*
X70052797Y-41889999D01*
X70219334Y-41834814D01*
X70368656Y-41742712D01*
X70492712Y-41618656D01*
X70584814Y-41469334D01*
X70639999Y-41302797D01*
X70650500Y-41200009D01*
X70650499Y-40449992D01*
X70639999Y-40347203D01*
X70584814Y-40180666D01*
X70584811Y-40180662D01*
X70583059Y-40176903D01*
X70582629Y-40174075D01*
X70582542Y-40173811D01*
X70582587Y-40173796D01*
X70572568Y-40107825D01*
X70601089Y-40044042D01*
X70659567Y-40005803D01*
X70695442Y-40000500D01*
X107118645Y-40000500D01*
X107185684Y-40020185D01*
X107231439Y-40072989D01*
X107241383Y-40142147D01*
X107212358Y-40205703D01*
X107161979Y-40240682D01*
X107067041Y-40276091D01*
X106815961Y-40413191D01*
X106815953Y-40413196D01*
X106673436Y-40519882D01*
X107391874Y-41238321D01*
X107325786Y-41275004D01*
X107171469Y-41407480D01*
X107046979Y-41568308D01*
X107036374Y-41589927D01*
X106319883Y-40873436D01*
X106319882Y-40873437D01*
X106213196Y-41015953D01*
X106213191Y-41015961D01*
X106076091Y-41267041D01*
X105976109Y-41535104D01*
X105915300Y-41814637D01*
X105894891Y-42099998D01*
X105894891Y-42100001D01*
X105915300Y-42385362D01*
X105976109Y-42664895D01*
X106076091Y-42932958D01*
X106213191Y-43184038D01*
X106213196Y-43184046D01*
X106319882Y-43326561D01*
X106319883Y-43326562D01*
X107038348Y-42608096D01*
X107105146Y-42715263D01*
X107245268Y-42862671D01*
X107390084Y-42963466D01*
X106673436Y-43680115D01*
X106815960Y-43786807D01*
X106815961Y-43786808D01*
X107067042Y-43923908D01*
X107067041Y-43923908D01*
X107335104Y-44023890D01*
X107614637Y-44084699D01*
X107899999Y-44105109D01*
X107900001Y-44105109D01*
X108185362Y-44084699D01*
X108464895Y-44023890D01*
X108732958Y-43923908D01*
X108816573Y-43878251D01*
X108884846Y-43863399D01*
X108950310Y-43887816D01*
X108992182Y-43943749D01*
X109000000Y-43987083D01*
X109000000Y-65063627D01*
X108980315Y-65130666D01*
X108927511Y-65176421D01*
X108858353Y-65186365D01*
X108836996Y-65181333D01*
X108697606Y-65135144D01*
X108598322Y-65125000D01*
X108575000Y-65125000D01*
X108575000Y-67074999D01*
X108598308Y-67074999D01*
X108598317Y-67074998D01*
X108625286Y-67072243D01*
X108693979Y-67085012D01*
X108744864Y-67132891D01*
X108761786Y-67200681D01*
X108755596Y-67234604D01*
X108710001Y-67372200D01*
X108710000Y-67372204D01*
X108699500Y-67474983D01*
X108699500Y-68100001D01*
X108699501Y-68100019D01*
X108710000Y-68202796D01*
X108710001Y-68202799D01*
X108765185Y-68369331D01*
X108765187Y-68369336D01*
X108857289Y-68518657D01*
X108927099Y-68588467D01*
X108960584Y-68649790D01*
X108955600Y-68719482D01*
X108913728Y-68775415D01*
X108896198Y-68786384D01*
X108530866Y-68974560D01*
X108525296Y-68977089D01*
X108479275Y-68995310D01*
X108473747Y-68997203D01*
X108427101Y-69010755D01*
X108408832Y-69021560D01*
X108391363Y-69030118D01*
X108371628Y-69037932D01*
X108371626Y-69037933D01*
X108332339Y-69066477D01*
X108327456Y-69069684D01*
X108285632Y-69094419D01*
X108270626Y-69109426D01*
X108255836Y-69122058D01*
X108238667Y-69134532D01*
X108238665Y-69134534D01*
X108207694Y-69171970D01*
X108203762Y-69176291D01*
X107789606Y-69590446D01*
X107756777Y-69613973D01*
X107233121Y-69872258D01*
X107200504Y-69889860D01*
X107198535Y-69891164D01*
X107180550Y-69901030D01*
X107147269Y-69915848D01*
X107147267Y-69915849D01*
X106994129Y-70027111D01*
X106867466Y-70167785D01*
X106772821Y-70331715D01*
X106772819Y-70331719D01*
X106739248Y-70435039D01*
X106699809Y-70492714D01*
X106635451Y-70519912D01*
X106566604Y-70507997D01*
X106533636Y-70484401D01*
X105274809Y-69225574D01*
X105246024Y-69180456D01*
X105231935Y-69141905D01*
X104997072Y-68499240D01*
X104933033Y-68324007D01*
X104925499Y-68281444D01*
X104925499Y-68099998D01*
X104925498Y-68099981D01*
X104914999Y-67997203D01*
X104914998Y-67997200D01*
X104910857Y-67984702D01*
X104859814Y-67830666D01*
X104767712Y-67681344D01*
X104643656Y-67557288D01*
X104494334Y-67465186D01*
X104327797Y-67410001D01*
X104327795Y-67410000D01*
X104225010Y-67399500D01*
X103599998Y-67399500D01*
X103599980Y-67399501D01*
X103497203Y-67410000D01*
X103497200Y-67410001D01*
X103330668Y-67465185D01*
X103330663Y-67465187D01*
X103181342Y-67557289D01*
X103087681Y-67650951D01*
X103026358Y-67684436D01*
X102956666Y-67679452D01*
X102912319Y-67650951D01*
X102818657Y-67557289D01*
X102818656Y-67557288D01*
X102669334Y-67465186D01*
X102502797Y-67410001D01*
X102502795Y-67410000D01*
X102400010Y-67399500D01*
X101774998Y-67399500D01*
X101774980Y-67399501D01*
X101672203Y-67410000D01*
X101672200Y-67410001D01*
X101505668Y-67465185D01*
X101505663Y-67465187D01*
X101356342Y-67557289D01*
X101232287Y-67681344D01*
X101206101Y-67723799D01*
X101171025Y-67760736D01*
X100929487Y-67927535D01*
X100863137Y-67949432D01*
X100859025Y-67949500D01*
X100685504Y-67949500D01*
X100669493Y-67947732D01*
X100669471Y-67947974D01*
X100661704Y-67947240D01*
X100661703Y-67947240D01*
X100589796Y-67949500D01*
X100559075Y-67949500D01*
X100559071Y-67949500D01*
X100559061Y-67949501D01*
X100551793Y-67950419D01*
X100545976Y-67950876D01*
X100497436Y-67952402D01*
X100497425Y-67952404D01*
X100477049Y-67958323D01*
X100458008Y-67962266D01*
X100436953Y-67964926D01*
X100436937Y-67964930D01*
X100391776Y-67982810D01*
X100386250Y-67984702D01*
X100339602Y-67998255D01*
X100321332Y-68009060D01*
X100303863Y-68017618D01*
X100284128Y-68025432D01*
X100284126Y-68025433D01*
X100244839Y-68053977D01*
X100239956Y-68057184D01*
X100198132Y-68081919D01*
X100183126Y-68096926D01*
X100168336Y-68109558D01*
X100151167Y-68122032D01*
X100151165Y-68122034D01*
X100120194Y-68159470D01*
X100116262Y-68163791D01*
X99637983Y-68642069D01*
X99625410Y-68652143D01*
X99625565Y-68652330D01*
X99619559Y-68657298D01*
X99604158Y-68673699D01*
X99570309Y-68709744D01*
X99559449Y-68720604D01*
X99548588Y-68731465D01*
X99548578Y-68731477D01*
X99544087Y-68737265D01*
X99540301Y-68741697D01*
X99507052Y-68777106D01*
X99496822Y-68795713D01*
X99486146Y-68811964D01*
X99473140Y-68828732D01*
X99473136Y-68828738D01*
X99453848Y-68873311D01*
X99451277Y-68878558D01*
X99427872Y-68921130D01*
X99427872Y-68921131D01*
X99422591Y-68941699D01*
X99416291Y-68960101D01*
X99407864Y-68979573D01*
X99400266Y-69027547D01*
X99399081Y-69033270D01*
X99387000Y-69080318D01*
X99387000Y-69101544D01*
X99385473Y-69120944D01*
X99384039Y-69130000D01*
X99382153Y-69141905D01*
X99386725Y-69190267D01*
X99387000Y-69196106D01*
X99387000Y-70147804D01*
X99367315Y-70214843D01*
X99314511Y-70260598D01*
X99297595Y-70266880D01*
X99189606Y-70298253D01*
X99189603Y-70298255D01*
X99048137Y-70381917D01*
X99048129Y-70381923D01*
X98931923Y-70498129D01*
X98931916Y-70498138D01*
X98885507Y-70576613D01*
X98834438Y-70624297D01*
X98765696Y-70636800D01*
X98701107Y-70610155D01*
X98691094Y-70601173D01*
X95089920Y-67000000D01*
X97644341Y-67000000D01*
X97664936Y-67235403D01*
X97664938Y-67235413D01*
X97726094Y-67463655D01*
X97726096Y-67463659D01*
X97726097Y-67463663D01*
X97731380Y-67474992D01*
X97825964Y-67677828D01*
X97825965Y-67677830D01*
X97961505Y-67871402D01*
X98128597Y-68038494D01*
X98322169Y-68174034D01*
X98322171Y-68174035D01*
X98536337Y-68273903D01*
X98764592Y-68335063D01*
X98941034Y-68350500D01*
X99058966Y-68350500D01*
X99235408Y-68335063D01*
X99463663Y-68273903D01*
X99677829Y-68174035D01*
X99871401Y-68038495D01*
X100038495Y-67871401D01*
X100174035Y-67677830D01*
X100273903Y-67463663D01*
X100335063Y-67235408D01*
X100355659Y-67000000D01*
X100335063Y-66764592D01*
X100273903Y-66536337D01*
X100187012Y-66350000D01*
X107375001Y-66350000D01*
X107375001Y-66398322D01*
X107385144Y-66497607D01*
X107438452Y-66658481D01*
X107438457Y-66658492D01*
X107527424Y-66802728D01*
X107527427Y-66802732D01*
X107647267Y-66922572D01*
X107647271Y-66922575D01*
X107791507Y-67011542D01*
X107791518Y-67011547D01*
X107952393Y-67064855D01*
X108051683Y-67074999D01*
X108075000Y-67074998D01*
X108075000Y-66350000D01*
X107375001Y-66350000D01*
X100187012Y-66350000D01*
X100174035Y-66322171D01*
X100174034Y-66322169D01*
X100038494Y-66128597D01*
X99871402Y-65961505D01*
X99712156Y-65850000D01*
X107375000Y-65850000D01*
X108075000Y-65850000D01*
X108075000Y-65124999D01*
X108051693Y-65125000D01*
X108051674Y-65125001D01*
X107952392Y-65135144D01*
X107791518Y-65188452D01*
X107791507Y-65188457D01*
X107647271Y-65277424D01*
X107647267Y-65277427D01*
X107527427Y-65397267D01*
X107527424Y-65397271D01*
X107438457Y-65541507D01*
X107438452Y-65541518D01*
X107385144Y-65702393D01*
X107375000Y-65801677D01*
X107375000Y-65850000D01*
X99712156Y-65850000D01*
X99677830Y-65825965D01*
X99677828Y-65825964D01*
X99561347Y-65771648D01*
X99463663Y-65726097D01*
X99463659Y-65726096D01*
X99463655Y-65726094D01*
X99235413Y-65664938D01*
X99235403Y-65664936D01*
X99058966Y-65649500D01*
X98941034Y-65649500D01*
X98764596Y-65664936D01*
X98764586Y-65664938D01*
X98536344Y-65726094D01*
X98536335Y-65726098D01*
X98322171Y-65825964D01*
X98322169Y-65825965D01*
X98128597Y-65961505D01*
X97961506Y-66128597D01*
X97961501Y-66128604D01*
X97825967Y-66322165D01*
X97825965Y-66322169D01*
X97726098Y-66536335D01*
X97726094Y-66536344D01*
X97664938Y-66764586D01*
X97664936Y-66764596D01*
X97644341Y-66999999D01*
X97644341Y-67000000D01*
X95089920Y-67000000D01*
X94540332Y-66450412D01*
X94517404Y-66431716D01*
X94422157Y-66354052D01*
X94241799Y-66259841D01*
X94046168Y-66203863D01*
X94046167Y-66203862D01*
X94046166Y-66203862D01*
X93843275Y-66188412D01*
X93843272Y-66188412D01*
X93641428Y-66214118D01*
X93641420Y-66214120D01*
X93448879Y-66279933D01*
X93448867Y-66279939D01*
X93273528Y-66383156D01*
X93273521Y-66383161D01*
X93122537Y-66519570D01*
X93122537Y-66519571D01*
X93002103Y-66683578D01*
X93002099Y-66683585D01*
X92917147Y-66868475D01*
X92917143Y-66868487D01*
X92871146Y-67066695D01*
X92865992Y-67270108D01*
X92901890Y-67470398D01*
X92901892Y-67470404D01*
X92903725Y-67474992D01*
X92974011Y-67650951D01*
X92977373Y-67659366D01*
X92977379Y-67659378D01*
X93089346Y-67829267D01*
X93089349Y-67829271D01*
X96893787Y-71633708D01*
X96927272Y-71695031D01*
X96928090Y-71743658D01*
X96927402Y-71747424D01*
X96924500Y-71784304D01*
X96924500Y-72215696D01*
X96927401Y-72252567D01*
X96927402Y-72252573D01*
X96973254Y-72410393D01*
X96973255Y-72410396D01*
X97056917Y-72551862D01*
X97056923Y-72551870D01*
X97173129Y-72668076D01*
X97173133Y-72668079D01*
X97173135Y-72668081D01*
X97314602Y-72751744D01*
X97356224Y-72763836D01*
X97472426Y-72797597D01*
X97472429Y-72797597D01*
X97472431Y-72797598D01*
X97484722Y-72798565D01*
X97509304Y-72800500D01*
X97509306Y-72800500D01*
X97519755Y-72800500D01*
X97586794Y-72820185D01*
X97595653Y-72826442D01*
X97630542Y-72853448D01*
X97813229Y-72943060D01*
X98010215Y-72994063D01*
X98213436Y-73004369D01*
X98414571Y-72973556D01*
X98605387Y-72902886D01*
X98609907Y-72900068D01*
X98677209Y-72881311D01*
X98743971Y-72901918D01*
X98788994Y-72955347D01*
X98799500Y-73005299D01*
X98799500Y-73165696D01*
X98802401Y-73202567D01*
X98802402Y-73202573D01*
X98848254Y-73360393D01*
X98848255Y-73360396D01*
X98931917Y-73501862D01*
X98931923Y-73501870D01*
X99048129Y-73618076D01*
X99048133Y-73618079D01*
X99048135Y-73618081D01*
X99189602Y-73701744D01*
X99231224Y-73713836D01*
X99347426Y-73747597D01*
X99347429Y-73747597D01*
X99347431Y-73747598D01*
X99359722Y-73748565D01*
X99384304Y-73750500D01*
X99384306Y-73750500D01*
X99397338Y-73750500D01*
X99464377Y-73770185D01*
X99468175Y-73772725D01*
X99549449Y-73829294D01*
X99549450Y-73829294D01*
X99549451Y-73829295D01*
X99736442Y-73909540D01*
X99935759Y-73950500D01*
X101898259Y-73950500D01*
X102784217Y-73950500D01*
X102851256Y-73970185D01*
X102871898Y-73986819D01*
X105369958Y-76484879D01*
X105403443Y-76546201D01*
X105398459Y-76615893D01*
X105356587Y-76671826D01*
X105355606Y-76672553D01*
X104056143Y-77625494D01*
X103990441Y-77649265D01*
X103982814Y-77649500D01*
X102549998Y-77649500D01*
X102549981Y-77649501D01*
X102447203Y-77660000D01*
X102447200Y-77660001D01*
X102280668Y-77715185D01*
X102280663Y-77715187D01*
X102131342Y-77807289D01*
X102007289Y-77931342D01*
X101915187Y-78080663D01*
X101915186Y-78080666D01*
X101860001Y-78247203D01*
X101860001Y-78247204D01*
X101860000Y-78247204D01*
X101849500Y-78349983D01*
X101849500Y-79100001D01*
X101849501Y-79100019D01*
X101855942Y-79163067D01*
X101843172Y-79231760D01*
X101805913Y-79275662D01*
X99487962Y-80975494D01*
X99422260Y-80999265D01*
X99414633Y-80999500D01*
X91532673Y-80999500D01*
X91465634Y-80979815D01*
X91419879Y-80927011D01*
X91409935Y-80857853D01*
X91438960Y-80794297D01*
X91439405Y-80793785D01*
X91656617Y-80546693D01*
X91715658Y-80509343D01*
X91785526Y-80509841D01*
X91788692Y-80510842D01*
X91802292Y-80515349D01*
X91901655Y-80525500D01*
X92498344Y-80525499D01*
X92498352Y-80525498D01*
X92498355Y-80525498D01*
X92552760Y-80519940D01*
X92597708Y-80515349D01*
X92758697Y-80462003D01*
X92903044Y-80372968D01*
X92911001Y-80365010D01*
X92972319Y-80331526D01*
X93035453Y-80334268D01*
X93531253Y-80488232D01*
X93562575Y-80494414D01*
X93570067Y-80496387D01*
X93627292Y-80515350D01*
X93726655Y-80525501D01*
X94323344Y-80525500D01*
X94323352Y-80525499D01*
X94323355Y-80525499D01*
X94342718Y-80523520D01*
X94422708Y-80515350D01*
X94481816Y-80495763D01*
X94501271Y-80491021D01*
X94518740Y-80488233D01*
X94518740Y-80488232D01*
X94518745Y-80488232D01*
X94670510Y-80441102D01*
X94740367Y-80440019D01*
X94766620Y-80450644D01*
X95060827Y-80610998D01*
X95063621Y-80612620D01*
X95180666Y-80684814D01*
X95347203Y-80739999D01*
X95449991Y-80750500D01*
X97750008Y-80750499D01*
X97852797Y-80739999D01*
X98019334Y-80684814D01*
X98168656Y-80592712D01*
X98292712Y-80468656D01*
X98384814Y-80319334D01*
X98439999Y-80152797D01*
X98450500Y-80050009D01*
X98450499Y-79299992D01*
X98439999Y-79197203D01*
X98384814Y-79030666D01*
X98292712Y-78881344D01*
X98168656Y-78757288D01*
X98019334Y-78665186D01*
X97852797Y-78610001D01*
X97852795Y-78610000D01*
X97750010Y-78599500D01*
X95449998Y-78599500D01*
X95449981Y-78599501D01*
X95347204Y-78610000D01*
X95295255Y-78627214D01*
X95272639Y-78632420D01*
X95262768Y-78633735D01*
X95100278Y-78679624D01*
X95030412Y-78678900D01*
X94972029Y-78640518D01*
X94943664Y-78576665D01*
X94948872Y-78521286D01*
X94989856Y-78397606D01*
X94999999Y-78298323D01*
X95000000Y-78298310D01*
X95000000Y-78275001D01*
X93061363Y-78275001D01*
X93061360Y-78275000D01*
X92074000Y-78275000D01*
X92006961Y-78255315D01*
X91961206Y-78202511D01*
X91950000Y-78151000D01*
X91950000Y-77075000D01*
X92450000Y-77075000D01*
X92450000Y-77775000D01*
X93163637Y-77775000D01*
X93163640Y-77775001D01*
X93775000Y-77775001D01*
X94275000Y-77775001D01*
X94999997Y-77775001D01*
X95024811Y-77750187D01*
X95086134Y-77716702D01*
X95155826Y-77721686D01*
X95177593Y-77732332D01*
X95180870Y-77734353D01*
X95180880Y-77734358D01*
X95347302Y-77789505D01*
X95347309Y-77789506D01*
X95450019Y-77799999D01*
X96349999Y-77799999D01*
X96350000Y-77799998D01*
X96350000Y-76975000D01*
X96850000Y-76975000D01*
X96850000Y-77799999D01*
X97749972Y-77799999D01*
X97749986Y-77799998D01*
X97852697Y-77789505D01*
X98019119Y-77734358D01*
X98019124Y-77734356D01*
X98168345Y-77642315D01*
X98292315Y-77518345D01*
X98384356Y-77369124D01*
X98384358Y-77369119D01*
X98439505Y-77202697D01*
X98439506Y-77202690D01*
X98449999Y-77099986D01*
X98450000Y-77099973D01*
X98450000Y-76975000D01*
X96850000Y-76975000D01*
X96350000Y-76975000D01*
X94750001Y-76975000D01*
X94750001Y-77021912D01*
X94730316Y-77088951D01*
X94677512Y-77134706D01*
X94608354Y-77144650D01*
X94586997Y-77139618D01*
X94422607Y-77085145D01*
X94323322Y-77075001D01*
X94275000Y-77075001D01*
X94275000Y-77775001D01*
X93775000Y-77775001D01*
X93775000Y-77075001D01*
X93774999Y-77075000D01*
X93726693Y-77075001D01*
X93726675Y-77075002D01*
X93627392Y-77085145D01*
X93466518Y-77138453D01*
X93466507Y-77138458D01*
X93322271Y-77227425D01*
X93200181Y-77349515D01*
X93138858Y-77382999D01*
X93069166Y-77378015D01*
X93024819Y-77349514D01*
X92902732Y-77227427D01*
X92902728Y-77227424D01*
X92758492Y-77138457D01*
X92758481Y-77138452D01*
X92597606Y-77085144D01*
X92498322Y-77075000D01*
X92450000Y-77075000D01*
X91950000Y-77075000D01*
X91949999Y-77074999D01*
X91901693Y-77075000D01*
X91901675Y-77075001D01*
X91802392Y-77085144D01*
X91641518Y-77138452D01*
X91641507Y-77138457D01*
X91497271Y-77227424D01*
X91497267Y-77227427D01*
X91444908Y-77279786D01*
X91383585Y-77313270D01*
X91313893Y-77308285D01*
X91257960Y-77266414D01*
X91244064Y-77240724D01*
X91243555Y-77240962D01*
X91145133Y-77029896D01*
X91145131Y-77029892D01*
X91094026Y-76956906D01*
X91094025Y-76956906D01*
X90412953Y-77637978D01*
X90400165Y-77557232D01*
X90342641Y-77444335D01*
X90253045Y-77354739D01*
X90140148Y-77297215D01*
X90059400Y-77284426D01*
X90740472Y-76603354D01*
X90740471Y-76603353D01*
X90667483Y-76552246D01*
X90667481Y-76552245D01*
X90501827Y-76475000D01*
X94750000Y-76475000D01*
X96350000Y-76475000D01*
X96350000Y-75650000D01*
X96850000Y-75650000D01*
X96850000Y-76475000D01*
X98449999Y-76475000D01*
X98449999Y-76350028D01*
X98449998Y-76350013D01*
X98439505Y-76247302D01*
X98384358Y-76080880D01*
X98384356Y-76080875D01*
X98292315Y-75931654D01*
X98168345Y-75807684D01*
X98019124Y-75715643D01*
X98019119Y-75715641D01*
X97852697Y-75660494D01*
X97852690Y-75660493D01*
X97749986Y-75650000D01*
X96850000Y-75650000D01*
X96350000Y-75650000D01*
X95450028Y-75650000D01*
X95450012Y-75650001D01*
X95347302Y-75660494D01*
X95180880Y-75715641D01*
X95180875Y-75715643D01*
X95031654Y-75807684D01*
X94907684Y-75931654D01*
X94815643Y-76080875D01*
X94815641Y-76080880D01*
X94760494Y-76247302D01*
X94760493Y-76247309D01*
X94750000Y-76350013D01*
X94750000Y-76475000D01*
X90501827Y-76475000D01*
X90461326Y-76456114D01*
X90461317Y-76456110D01*
X90241610Y-76397240D01*
X90241599Y-76397238D01*
X90015002Y-76377414D01*
X90014998Y-76377414D01*
X89788400Y-76397238D01*
X89788389Y-76397240D01*
X89568682Y-76456110D01*
X89568673Y-76456114D01*
X89362513Y-76552248D01*
X89289527Y-76603352D01*
X89289526Y-76603353D01*
X89970600Y-77284426D01*
X89889852Y-77297215D01*
X89776955Y-77354739D01*
X89687359Y-77444335D01*
X89629835Y-77557232D01*
X89617046Y-77637979D01*
X88935973Y-76956906D01*
X88935972Y-76956907D01*
X88884868Y-77029893D01*
X88788734Y-77236053D01*
X88788730Y-77236062D01*
X88729860Y-77455769D01*
X88729858Y-77455780D01*
X88710034Y-77682377D01*
X88710034Y-77682382D01*
X88729858Y-77908979D01*
X88729860Y-77908990D01*
X88788730Y-78128697D01*
X88788734Y-78128706D01*
X88884865Y-78334861D01*
X88884866Y-78334863D01*
X88935973Y-78407851D01*
X88935974Y-78407852D01*
X89617046Y-77726779D01*
X89629835Y-77807528D01*
X89687359Y-77920425D01*
X89776955Y-78010021D01*
X89889852Y-78067545D01*
X89970599Y-78080333D01*
X89284351Y-78766580D01*
X89274505Y-78815574D01*
X89225889Y-78865756D01*
X89170367Y-78880428D01*
X89170423Y-78881479D01*
X89170429Y-78881526D01*
X89170426Y-78881526D01*
X89170436Y-78881704D01*
X89167123Y-78881881D01*
X89107516Y-78888288D01*
X88972671Y-78938582D01*
X88972664Y-78938586D01*
X88857455Y-79024832D01*
X88857452Y-79024835D01*
X88771206Y-79140044D01*
X88771202Y-79140051D01*
X88720908Y-79274897D01*
X88714501Y-79334496D01*
X88714500Y-79334515D01*
X88714500Y-80636228D01*
X88694815Y-80703267D01*
X88642011Y-80749022D01*
X88572853Y-80758966D01*
X88509297Y-80729941D01*
X88502819Y-80723909D01*
X85185799Y-77406889D01*
X85183795Y-77404789D01*
X85178247Y-77398696D01*
X85172863Y-77393838D01*
X85170557Y-77391647D01*
X85062822Y-77283912D01*
X85001431Y-77219329D01*
X85001430Y-77219328D01*
X85001429Y-77219327D01*
X84962910Y-77192517D01*
X84951079Y-77184282D01*
X84947316Y-77181444D01*
X84899783Y-77142685D01*
X84899776Y-77142680D01*
X84869329Y-77126777D01*
X84862621Y-77122714D01*
X84834419Y-77103085D01*
X84834416Y-77103083D01*
X84834415Y-77103083D01*
X84834411Y-77103081D01*
X84778050Y-77078894D01*
X84773794Y-77076873D01*
X84719427Y-77048474D01*
X84719420Y-77048471D01*
X84719419Y-77048471D01*
X84713378Y-77046742D01*
X84686400Y-77039022D01*
X84679000Y-77036388D01*
X84647427Y-77022839D01*
X84647428Y-77022839D01*
X84587336Y-77010489D01*
X84582761Y-77009366D01*
X84523790Y-76992493D01*
X84523795Y-76992493D01*
X84489529Y-76989883D01*
X84481758Y-76988794D01*
X84466149Y-76985586D01*
X84462239Y-76984783D01*
X84428501Y-76972548D01*
X83679588Y-76570091D01*
X83673382Y-76566269D01*
X83652731Y-76551809D01*
X83600172Y-76527301D01*
X83597026Y-76525724D01*
X83551307Y-76501155D01*
X83540139Y-76495505D01*
X83533441Y-76492322D01*
X83533443Y-76492323D01*
X83489485Y-76475514D01*
X83485427Y-76473794D01*
X83446498Y-76455642D01*
X83446488Y-76455638D01*
X83226697Y-76396746D01*
X83226693Y-76396745D01*
X83226692Y-76396745D01*
X83226691Y-76396744D01*
X83226686Y-76396744D01*
X83000002Y-76376912D01*
X82999998Y-76376912D01*
X82773313Y-76396744D01*
X82773302Y-76396746D01*
X82553511Y-76455638D01*
X82553502Y-76455641D01*
X82347267Y-76551811D01*
X82347265Y-76551812D01*
X82160858Y-76682334D01*
X81999954Y-76843238D01*
X81869432Y-77029645D01*
X81869431Y-77029647D01*
X81773261Y-77235882D01*
X81773258Y-77235891D01*
X81714366Y-77455682D01*
X81714364Y-77455693D01*
X81694532Y-77682378D01*
X81694532Y-77682381D01*
X81714364Y-77909066D01*
X81714366Y-77909077D01*
X81773258Y-78128868D01*
X81773261Y-78128877D01*
X81869431Y-78335112D01*
X81869432Y-78335114D01*
X81999954Y-78521521D01*
X82157086Y-78678653D01*
X82190571Y-78739976D01*
X82185587Y-78809668D01*
X82143715Y-78865601D01*
X82097932Y-78887008D01*
X82092522Y-78888286D01*
X81957671Y-78938582D01*
X81957664Y-78938586D01*
X81842455Y-79024832D01*
X81842452Y-79024835D01*
X81756206Y-79140044D01*
X81756202Y-79140051D01*
X81705908Y-79274897D01*
X81699501Y-79334496D01*
X81699500Y-79334515D01*
X81699500Y-81030250D01*
X81699501Y-81030256D01*
X81705908Y-81089863D01*
X81756202Y-81224708D01*
X81756206Y-81224715D01*
X81842452Y-81339924D01*
X81842455Y-81339927D01*
X81957664Y-81426173D01*
X81957671Y-81426177D01*
X82092517Y-81476471D01*
X82092516Y-81476471D01*
X82099444Y-81477215D01*
X82152127Y-81482880D01*
X83847872Y-81482879D01*
X83907483Y-81476471D01*
X84042331Y-81426176D01*
X84157546Y-81339926D01*
X84243796Y-81224711D01*
X84294091Y-81089863D01*
X84300500Y-81030253D01*
X84300499Y-79650791D01*
X84320184Y-79583753D01*
X84372987Y-79537998D01*
X84442146Y-79528054D01*
X84505702Y-79557079D01*
X84512180Y-79563111D01*
X87647556Y-82698487D01*
X87708931Y-82763053D01*
X87724264Y-82773725D01*
X87768043Y-82828179D01*
X87775431Y-82897657D01*
X87744084Y-82960100D01*
X87683954Y-82995684D01*
X87653427Y-82999500D01*
X60224000Y-82999500D01*
X60156961Y-82979815D01*
X60111206Y-82927011D01*
X60100000Y-82875500D01*
X60100000Y-80690000D01*
X75869341Y-80690000D01*
X75889936Y-80925403D01*
X75889938Y-80925413D01*
X75951094Y-81153655D01*
X75951096Y-81153659D01*
X75951097Y-81153663D01*
X76019332Y-81299992D01*
X76050965Y-81367830D01*
X76050967Y-81367834D01*
X76159281Y-81522521D01*
X76186505Y-81561401D01*
X76353599Y-81728495D01*
X76374800Y-81743340D01*
X76547165Y-81864032D01*
X76547167Y-81864033D01*
X76547170Y-81864035D01*
X76761337Y-81963903D01*
X76989592Y-82025063D01*
X77177918Y-82041539D01*
X77224999Y-82045659D01*
X77225000Y-82045659D01*
X77225001Y-82045659D01*
X77264234Y-82042226D01*
X77460408Y-82025063D01*
X77688663Y-81963903D01*
X77902830Y-81864035D01*
X78096401Y-81728495D01*
X78263495Y-81561401D01*
X78399035Y-81367830D01*
X78498903Y-81153663D01*
X78560063Y-80925408D01*
X78580659Y-80690000D01*
X78560063Y-80454592D01*
X78498903Y-80226337D01*
X78399035Y-80012171D01*
X78263495Y-79818599D01*
X78141567Y-79696671D01*
X78108084Y-79635351D01*
X78113068Y-79565659D01*
X78154939Y-79509725D01*
X78185915Y-79492810D01*
X78317331Y-79443796D01*
X78432546Y-79357546D01*
X78518796Y-79242331D01*
X78569091Y-79107483D01*
X78575500Y-79047873D01*
X78575499Y-77252128D01*
X78569091Y-77192517D01*
X78566548Y-77185700D01*
X78518797Y-77057671D01*
X78518793Y-77057664D01*
X78432547Y-76942455D01*
X78432544Y-76942452D01*
X78317335Y-76856206D01*
X78317328Y-76856202D01*
X78182482Y-76805908D01*
X78182483Y-76805908D01*
X78122883Y-76799501D01*
X78122881Y-76799500D01*
X78122873Y-76799500D01*
X78122864Y-76799500D01*
X76327129Y-76799500D01*
X76327123Y-76799501D01*
X76267516Y-76805908D01*
X76132671Y-76856202D01*
X76132664Y-76856206D01*
X76017455Y-76942452D01*
X76017452Y-76942455D01*
X75931206Y-77057664D01*
X75931202Y-77057671D01*
X75880908Y-77192517D01*
X75876228Y-77236053D01*
X75874501Y-77252123D01*
X75874500Y-77252135D01*
X75874500Y-79047870D01*
X75874501Y-79047876D01*
X75880908Y-79107483D01*
X75931202Y-79242328D01*
X75931206Y-79242335D01*
X76017452Y-79357544D01*
X76017455Y-79357547D01*
X76132664Y-79443793D01*
X76132671Y-79443797D01*
X76264081Y-79492810D01*
X76320015Y-79534681D01*
X76344432Y-79600145D01*
X76329580Y-79668418D01*
X76308430Y-79696673D01*
X76186503Y-79818600D01*
X76050965Y-80012169D01*
X76050964Y-80012171D01*
X75951098Y-80226335D01*
X75951094Y-80226344D01*
X75889938Y-80454586D01*
X75889936Y-80454596D01*
X75869341Y-80689999D01*
X75869341Y-80690000D01*
X60100000Y-80690000D01*
X60100000Y-78000000D01*
X63393179Y-78000000D01*
X63412424Y-78219976D01*
X63412426Y-78219986D01*
X63469575Y-78433270D01*
X63469580Y-78433284D01*
X63562899Y-78633407D01*
X63562900Y-78633409D01*
X63608258Y-78698187D01*
X64275096Y-78031349D01*
X64275051Y-78031898D01*
X64306266Y-78155162D01*
X64375813Y-78261612D01*
X64476157Y-78339713D01*
X64596422Y-78381000D01*
X64632553Y-78381000D01*
X63961811Y-79051741D01*
X64026582Y-79097094D01*
X64026592Y-79097100D01*
X64226715Y-79190419D01*
X64226729Y-79190424D01*
X64440013Y-79247573D01*
X64440023Y-79247575D01*
X64659999Y-79266821D01*
X64660001Y-79266821D01*
X64879976Y-79247575D01*
X64879986Y-79247573D01*
X65093270Y-79190424D01*
X65093284Y-79190419D01*
X65293408Y-79097100D01*
X65293420Y-79097093D01*
X65358186Y-79051742D01*
X65358187Y-79051740D01*
X64687448Y-78381000D01*
X64691569Y-78381000D01*
X64785421Y-78365339D01*
X64897251Y-78304820D01*
X64983371Y-78211269D01*
X65034448Y-78094823D01*
X65040105Y-78026552D01*
X65711741Y-78698187D01*
X65711742Y-78698186D01*
X65757093Y-78633420D01*
X65757100Y-78633408D01*
X65817342Y-78504219D01*
X65863514Y-78451779D01*
X65930707Y-78432627D01*
X65997588Y-78452842D01*
X66042106Y-78504219D01*
X66102464Y-78633658D01*
X66102468Y-78633666D01*
X66229170Y-78814615D01*
X66229175Y-78814621D01*
X66385378Y-78970824D01*
X66385384Y-78970829D01*
X66566333Y-79097531D01*
X66566335Y-79097532D01*
X66566338Y-79097534D01*
X66766550Y-79190894D01*
X66979932Y-79248070D01*
X67137123Y-79261822D01*
X67199998Y-79267323D01*
X67200000Y-79267323D01*
X67200002Y-79267323D01*
X67255017Y-79262509D01*
X67420068Y-79248070D01*
X67633450Y-79190894D01*
X67833662Y-79097534D01*
X68014620Y-78970826D01*
X68170826Y-78814620D01*
X68297534Y-78633662D01*
X68357618Y-78504811D01*
X68403790Y-78452371D01*
X68470983Y-78433219D01*
X68537865Y-78453435D01*
X68582382Y-78504811D01*
X68642464Y-78633658D01*
X68642468Y-78633666D01*
X68769170Y-78814615D01*
X68769175Y-78814621D01*
X68925378Y-78970824D01*
X68925384Y-78970829D01*
X69106333Y-79097531D01*
X69106335Y-79097532D01*
X69106338Y-79097534D01*
X69306550Y-79190894D01*
X69519932Y-79248070D01*
X69677123Y-79261822D01*
X69739998Y-79267323D01*
X69740000Y-79267323D01*
X69740002Y-79267323D01*
X69795017Y-79262509D01*
X69960068Y-79248070D01*
X70173450Y-79190894D01*
X70373662Y-79097534D01*
X70554620Y-78970826D01*
X70710826Y-78814620D01*
X70837534Y-78633662D01*
X70930894Y-78433450D01*
X70988070Y-78220068D01*
X71007323Y-78000000D01*
X71004532Y-77968102D01*
X70990463Y-77807288D01*
X70988070Y-77779932D01*
X70930894Y-77566550D01*
X70837534Y-77366339D01*
X70757563Y-77252128D01*
X70710827Y-77185381D01*
X70648152Y-77122706D01*
X70554620Y-77029174D01*
X70554616Y-77029171D01*
X70554615Y-77029170D01*
X70373666Y-76902468D01*
X70373662Y-76902466D01*
X70373660Y-76902465D01*
X70173450Y-76809106D01*
X70173447Y-76809105D01*
X70173445Y-76809104D01*
X69960070Y-76751930D01*
X69960062Y-76751929D01*
X69740002Y-76732677D01*
X69739998Y-76732677D01*
X69519937Y-76751929D01*
X69519929Y-76751930D01*
X69306554Y-76809104D01*
X69306548Y-76809107D01*
X69106340Y-76902465D01*
X69106338Y-76902466D01*
X68925377Y-77029175D01*
X68769175Y-77185377D01*
X68642466Y-77366338D01*
X68642465Y-77366340D01*
X68582381Y-77495190D01*
X68536208Y-77547629D01*
X68469014Y-77566781D01*
X68402133Y-77546565D01*
X68357617Y-77495188D01*
X68345847Y-77469949D01*
X68344384Y-77466547D01*
X68340122Y-77455769D01*
X68336252Y-77445982D01*
X68328956Y-77433221D01*
X68326604Y-77428681D01*
X68297534Y-77366339D01*
X68297531Y-77366335D01*
X68297530Y-77366332D01*
X68262024Y-77315624D01*
X68258985Y-77310833D01*
X68206669Y-77219327D01*
X67881067Y-76649814D01*
X67864884Y-76581847D01*
X67870294Y-76551505D01*
X67888231Y-76493745D01*
X67894413Y-76462425D01*
X67896383Y-76454942D01*
X67915349Y-76397708D01*
X67925500Y-76298345D01*
X67925499Y-75701656D01*
X67920222Y-75650001D01*
X67915349Y-75602292D01*
X67915348Y-75602289D01*
X67862074Y-75441518D01*
X67862003Y-75441303D01*
X67861999Y-75441297D01*
X67861998Y-75441294D01*
X67772970Y-75296959D01*
X67772967Y-75296955D01*
X67653044Y-75177032D01*
X67653040Y-75177029D01*
X67508705Y-75088001D01*
X67508699Y-75087998D01*
X67508697Y-75087997D01*
X67508694Y-75087996D01*
X67347709Y-75034651D01*
X67248346Y-75024500D01*
X66701662Y-75024500D01*
X66701644Y-75024501D01*
X66602292Y-75034650D01*
X66602289Y-75034651D01*
X66441305Y-75087996D01*
X66441294Y-75088001D01*
X66296959Y-75177029D01*
X66296953Y-75177033D01*
X66287324Y-75186663D01*
X66226000Y-75220146D01*
X66156308Y-75215159D01*
X66111965Y-75186660D01*
X66102732Y-75177427D01*
X66102728Y-75177424D01*
X65958492Y-75088457D01*
X65958481Y-75088452D01*
X65797606Y-75035144D01*
X65698322Y-75025000D01*
X65675000Y-75025000D01*
X65675000Y-76126000D01*
X65655315Y-76193039D01*
X65602511Y-76238794D01*
X65551000Y-76250000D01*
X64475001Y-76250000D01*
X64475001Y-76298322D01*
X64485144Y-76397607D01*
X64538452Y-76558481D01*
X64538456Y-76558490D01*
X64541373Y-76563218D01*
X64559815Y-76630610D01*
X64538894Y-76697274D01*
X64485253Y-76742045D01*
X64446649Y-76751845D01*
X64440021Y-76752425D01*
X64440013Y-76752426D01*
X64226729Y-76809575D01*
X64226720Y-76809579D01*
X64026586Y-76902903D01*
X63961812Y-76948257D01*
X63961811Y-76948258D01*
X64632553Y-77619000D01*
X64628431Y-77619000D01*
X64534579Y-77634661D01*
X64422749Y-77695180D01*
X64336629Y-77788731D01*
X64285552Y-77905177D01*
X64279894Y-77973447D01*
X63608258Y-77301811D01*
X63608257Y-77301812D01*
X63562903Y-77366586D01*
X63469579Y-77566720D01*
X63469575Y-77566729D01*
X63412426Y-77780013D01*
X63412424Y-77780023D01*
X63393179Y-77999999D01*
X63393179Y-78000000D01*
X60100000Y-78000000D01*
X60100000Y-75750000D01*
X64475000Y-75750000D01*
X65175000Y-75750000D01*
X65175000Y-75024999D01*
X65151693Y-75025000D01*
X65151674Y-75025001D01*
X65052392Y-75035144D01*
X64891518Y-75088452D01*
X64891507Y-75088457D01*
X64747271Y-75177424D01*
X64747267Y-75177427D01*
X64627427Y-75297267D01*
X64627424Y-75297271D01*
X64538457Y-75441507D01*
X64538452Y-75441518D01*
X64485144Y-75602393D01*
X64475000Y-75701677D01*
X64475000Y-75750000D01*
X60100000Y-75750000D01*
X60100000Y-69130006D01*
X62294700Y-69130006D01*
X62313864Y-69361297D01*
X62313866Y-69361308D01*
X62370842Y-69586300D01*
X62464075Y-69798848D01*
X62591016Y-69993147D01*
X62591019Y-69993151D01*
X62591021Y-69993153D01*
X62748216Y-70163913D01*
X62748219Y-70163915D01*
X62748222Y-70163918D01*
X62931365Y-70306464D01*
X62931371Y-70306468D01*
X62931374Y-70306470D01*
X63135497Y-70416936D01*
X63205608Y-70441005D01*
X63355015Y-70492297D01*
X63355017Y-70492297D01*
X63355019Y-70492298D01*
X63583951Y-70530500D01*
X63583952Y-70530500D01*
X63816048Y-70530500D01*
X63816049Y-70530500D01*
X64044981Y-70492298D01*
X64264503Y-70416936D01*
X64468626Y-70306470D01*
X64469887Y-70305489D01*
X64612699Y-70194334D01*
X64651784Y-70163913D01*
X64808979Y-69993153D01*
X64935924Y-69798849D01*
X65029157Y-69586300D01*
X65086134Y-69361305D01*
X65090215Y-69312055D01*
X65105300Y-69130006D01*
X65105300Y-69129993D01*
X65086135Y-68898702D01*
X65086133Y-68898691D01*
X65032652Y-68687500D01*
X72145100Y-68687500D01*
X72164886Y-68875756D01*
X72164887Y-68875759D01*
X72223378Y-69055777D01*
X72223381Y-69055784D01*
X72318027Y-69219716D01*
X72390308Y-69299992D01*
X72444689Y-69360388D01*
X72597825Y-69471648D01*
X72597830Y-69471651D01*
X72770752Y-69548642D01*
X72770757Y-69548644D01*
X72955914Y-69588000D01*
X72955915Y-69588000D01*
X73145204Y-69588000D01*
X73145206Y-69588000D01*
X73330363Y-69548644D01*
X73503290Y-69471651D01*
X73656431Y-69360388D01*
X73783093Y-69219716D01*
X73877739Y-69055784D01*
X73936234Y-68875756D01*
X73956020Y-68687500D01*
X73936234Y-68499244D01*
X73877739Y-68319216D01*
X73783093Y-68155284D01*
X73656431Y-68014612D01*
X73656430Y-68014611D01*
X73503294Y-67903351D01*
X73503289Y-67903348D01*
X73330367Y-67826357D01*
X73330362Y-67826355D01*
X73184561Y-67795365D01*
X73145206Y-67787000D01*
X72955914Y-67787000D01*
X72923457Y-67793898D01*
X72770757Y-67826355D01*
X72770752Y-67826357D01*
X72597830Y-67903348D01*
X72597825Y-67903351D01*
X72444689Y-68014611D01*
X72318026Y-68155285D01*
X72223381Y-68319215D01*
X72223378Y-68319222D01*
X72177263Y-68461151D01*
X72164886Y-68499244D01*
X72145100Y-68687500D01*
X65032652Y-68687500D01*
X65029157Y-68673699D01*
X64935924Y-68461151D01*
X64808983Y-68266852D01*
X64808980Y-68266849D01*
X64808979Y-68266847D01*
X64651784Y-68096087D01*
X64474180Y-67957853D01*
X64433368Y-67901143D01*
X64429693Y-67831370D01*
X64464324Y-67770687D01*
X64474181Y-67762146D01*
X64475993Y-67760736D01*
X64651784Y-67623913D01*
X64808979Y-67453153D01*
X64935924Y-67258849D01*
X65029157Y-67046300D01*
X65086134Y-66821305D01*
X65087673Y-66802732D01*
X65087899Y-66800000D01*
X80194540Y-66800000D01*
X80214326Y-66988256D01*
X80214327Y-66988259D01*
X80272818Y-67168277D01*
X80272821Y-67168284D01*
X80367467Y-67332216D01*
X80491892Y-67470404D01*
X80494129Y-67472888D01*
X80647265Y-67584148D01*
X80647270Y-67584151D01*
X80820192Y-67661142D01*
X80820197Y-67661144D01*
X81005354Y-67700500D01*
X81005355Y-67700500D01*
X81194644Y-67700500D01*
X81194646Y-67700500D01*
X81379803Y-67661144D01*
X81552730Y-67584151D01*
X81705871Y-67472888D01*
X81832533Y-67332216D01*
X81927179Y-67168284D01*
X81985674Y-66988256D01*
X82005460Y-66800000D01*
X81985674Y-66611744D01*
X81927179Y-66431716D01*
X81832533Y-66267784D01*
X81705871Y-66127112D01*
X81705870Y-66127111D01*
X81552734Y-66015851D01*
X81552729Y-66015848D01*
X81379807Y-65938857D01*
X81379802Y-65938855D01*
X81234001Y-65907865D01*
X81194646Y-65899500D01*
X81005354Y-65899500D01*
X80972897Y-65906398D01*
X80820197Y-65938855D01*
X80820192Y-65938857D01*
X80647270Y-66015848D01*
X80647265Y-66015851D01*
X80494129Y-66127111D01*
X80367466Y-66267785D01*
X80272821Y-66431715D01*
X80272818Y-66431722D01*
X80221393Y-66589993D01*
X80214326Y-66611744D01*
X80194540Y-66800000D01*
X65087899Y-66800000D01*
X65105300Y-66590006D01*
X65105300Y-66589993D01*
X65086135Y-66358702D01*
X65086133Y-66358691D01*
X65029157Y-66133699D01*
X64935924Y-65921151D01*
X64808983Y-65726852D01*
X64808980Y-65726849D01*
X64808979Y-65726847D01*
X64714195Y-65623884D01*
X64683275Y-65561232D01*
X64691135Y-65491806D01*
X64735283Y-65437651D01*
X64762095Y-65423722D01*
X64842326Y-65393798D01*
X64842326Y-65393797D01*
X64842331Y-65393796D01*
X64957546Y-65307546D01*
X65043796Y-65192331D01*
X65094091Y-65057483D01*
X65100500Y-64997873D01*
X65100499Y-63461228D01*
X65120184Y-63394190D01*
X65172987Y-63348435D01*
X65242146Y-63338491D01*
X65305702Y-63367516D01*
X65312180Y-63373548D01*
X65724270Y-63785638D01*
X65736051Y-63799270D01*
X65750388Y-63818528D01*
X65790409Y-63852111D01*
X65794397Y-63855766D01*
X65800216Y-63861585D01*
X65800220Y-63861588D01*
X65800223Y-63861591D01*
X65825959Y-63881940D01*
X65884786Y-63931302D01*
X65884787Y-63931302D01*
X65884789Y-63931304D01*
X65890818Y-63935270D01*
X65890785Y-63935319D01*
X65897147Y-63939372D01*
X65897179Y-63939321D01*
X65903319Y-63943108D01*
X65903323Y-63943111D01*
X65938132Y-63959343D01*
X65972941Y-63975575D01*
X66028778Y-64003617D01*
X66041567Y-64010040D01*
X66041569Y-64010040D01*
X66048357Y-64012511D01*
X66048336Y-64012567D01*
X66055455Y-64015042D01*
X66055474Y-64014986D01*
X66062329Y-64017258D01*
X66137562Y-64032791D01*
X66212279Y-64050500D01*
X66212289Y-64050500D01*
X66219452Y-64051338D01*
X66219444Y-64051397D01*
X66226945Y-64052164D01*
X66226951Y-64052105D01*
X66234140Y-64052734D01*
X66234144Y-64052733D01*
X66234145Y-64052734D01*
X66310918Y-64050500D01*
X67911837Y-64050500D01*
X68143709Y-64050500D01*
X68146733Y-64050500D01*
X68146753Y-64050499D01*
X68288162Y-64050499D01*
X68323627Y-64047709D01*
X68475390Y-64003618D01*
X68611420Y-63923170D01*
X68723170Y-63811420D01*
X68803618Y-63675390D01*
X68847709Y-63523627D01*
X68850500Y-63488163D01*
X68850499Y-63343935D01*
X69545669Y-63343935D01*
X69547617Y-63354986D01*
X69549500Y-63376511D01*
X69549501Y-63488163D01*
X69552291Y-63523627D01*
X69596380Y-63675385D01*
X69596382Y-63675390D01*
X69676827Y-63811416D01*
X69676834Y-63811425D01*
X69788574Y-63923165D01*
X69788578Y-63923168D01*
X69788580Y-63923170D01*
X69924610Y-64003618D01*
X70076373Y-64047709D01*
X70100015Y-64049569D01*
X70111834Y-64050500D01*
X70111836Y-64050499D01*
X70111837Y-64050500D01*
X70197837Y-64050499D01*
X70197844Y-64050500D01*
X70212279Y-64050500D01*
X71643350Y-64050500D01*
X71700787Y-64064605D01*
X72156790Y-64302938D01*
X72207086Y-64351436D01*
X72223178Y-64419428D01*
X72206740Y-64474833D01*
X72123381Y-64619215D01*
X72123378Y-64619222D01*
X72064887Y-64799240D01*
X72064886Y-64799244D01*
X72045100Y-64987500D01*
X72064886Y-65175756D01*
X72064887Y-65175759D01*
X72123378Y-65355777D01*
X72123381Y-65355784D01*
X72218027Y-65519716D01*
X72311823Y-65623887D01*
X72344689Y-65660388D01*
X72497825Y-65771648D01*
X72497830Y-65771651D01*
X72670752Y-65848642D01*
X72670757Y-65848644D01*
X72855914Y-65888000D01*
X72855915Y-65888000D01*
X73045204Y-65888000D01*
X73045206Y-65888000D01*
X73230363Y-65848644D01*
X73403290Y-65771651D01*
X73556431Y-65660388D01*
X73683093Y-65519716D01*
X73777739Y-65355784D01*
X73836234Y-65175756D01*
X73856020Y-64987500D01*
X73836234Y-64799244D01*
X73777739Y-64619216D01*
X73731133Y-64538493D01*
X73714661Y-64470594D01*
X73737514Y-64404567D01*
X73792435Y-64361376D01*
X73795993Y-64360015D01*
X73890525Y-64325500D01*
X74314989Y-64170520D01*
X74357517Y-64163000D01*
X74478197Y-64163000D01*
X74507915Y-64166614D01*
X75035376Y-64296821D01*
X75045269Y-64298322D01*
X75065659Y-64303210D01*
X75102292Y-64315349D01*
X75201655Y-64325500D01*
X75798344Y-64325499D01*
X75798352Y-64325498D01*
X75798355Y-64325498D01*
X75852760Y-64319940D01*
X75897708Y-64315349D01*
X76058697Y-64262003D01*
X76203044Y-64172968D01*
X76322968Y-64053044D01*
X76412003Y-63908697D01*
X76465349Y-63747708D01*
X76475500Y-63648345D01*
X76475499Y-63101656D01*
X76472916Y-63076373D01*
X76465349Y-63002292D01*
X76465348Y-63002289D01*
X76439608Y-62924610D01*
X76412003Y-62841303D01*
X76411999Y-62841297D01*
X76411998Y-62841294D01*
X76322970Y-62696959D01*
X76322967Y-62696955D01*
X76313339Y-62687327D01*
X76279854Y-62626004D01*
X76284838Y-62556312D01*
X76313345Y-62511959D01*
X76322573Y-62502731D01*
X76411542Y-62358492D01*
X76411547Y-62358481D01*
X76464855Y-62197606D01*
X76474999Y-62098322D01*
X76475000Y-62098309D01*
X76475000Y-62075000D01*
X74525001Y-62075000D01*
X74525001Y-62098322D01*
X74535144Y-62197607D01*
X74588452Y-62358481D01*
X74588457Y-62358492D01*
X74639190Y-62440742D01*
X74657631Y-62508134D01*
X74636709Y-62574798D01*
X74583067Y-62619568D01*
X74577111Y-62621974D01*
X74491168Y-62654135D01*
X74447709Y-62662000D01*
X74357523Y-62662000D01*
X74314996Y-62654479D01*
X74155876Y-62596382D01*
X74066297Y-62563675D01*
X74010075Y-62522192D01*
X73985206Y-62456898D01*
X73999585Y-62388524D01*
X74021146Y-62359514D01*
X74062315Y-62318345D01*
X74154356Y-62169124D01*
X74154358Y-62169119D01*
X74209505Y-62002697D01*
X74209506Y-62002690D01*
X74219999Y-61899986D01*
X74220000Y-61899973D01*
X74220000Y-61837500D01*
X71820001Y-61837500D01*
X71820001Y-61899986D01*
X71830494Y-62002697D01*
X71885641Y-62169119D01*
X71885643Y-62169124D01*
X71981475Y-62324491D01*
X71980111Y-62325331D01*
X72003026Y-62382134D01*
X71989984Y-62450775D01*
X71941902Y-62501469D01*
X71903554Y-62515914D01*
X71744683Y-62547168D01*
X71720748Y-62549500D01*
X70256285Y-62549500D01*
X70111837Y-62549501D01*
X70076372Y-62552291D01*
X69924614Y-62596380D01*
X69924609Y-62596382D01*
X69788583Y-62676827D01*
X69788574Y-62676834D01*
X69676834Y-62788574D01*
X69676827Y-62788583D01*
X69596382Y-62924609D01*
X69596380Y-62924614D01*
X69552292Y-63076366D01*
X69552290Y-63076379D01*
X69549500Y-63111835D01*
X69549500Y-63276350D01*
X69549395Y-63279956D01*
X69545669Y-63343932D01*
X69545669Y-63343935D01*
X68850499Y-63343935D01*
X68850499Y-63323649D01*
X68850604Y-63320043D01*
X68853149Y-63276350D01*
X68854331Y-63256065D01*
X68852383Y-63245016D01*
X68850499Y-63223484D01*
X68850499Y-63111838D01*
X68850499Y-63111835D01*
X68847709Y-63076373D01*
X68803618Y-62924610D01*
X68723170Y-62788580D01*
X68723168Y-62788578D01*
X68723165Y-62788574D01*
X68611425Y-62676834D01*
X68611416Y-62676827D01*
X68475390Y-62596382D01*
X68475385Y-62596380D01*
X68323633Y-62552292D01*
X68323620Y-62552290D01*
X68288165Y-62549500D01*
X68288163Y-62549500D01*
X68187722Y-62549500D01*
X68187721Y-62549500D01*
X66662229Y-62549500D01*
X66595190Y-62529815D01*
X66574548Y-62513181D01*
X65449319Y-61387951D01*
X65415834Y-61326628D01*
X65413000Y-61300270D01*
X65413000Y-61125000D01*
X65925001Y-61125000D01*
X65925001Y-61148322D01*
X65935144Y-61247607D01*
X65988452Y-61408481D01*
X65988457Y-61408492D01*
X66077424Y-61552728D01*
X66077427Y-61552732D01*
X66197267Y-61672572D01*
X66197271Y-61672575D01*
X66341507Y-61761542D01*
X66341518Y-61761547D01*
X66502393Y-61814855D01*
X66601683Y-61824999D01*
X66649999Y-61824998D01*
X66650000Y-61824998D01*
X66650000Y-61125000D01*
X67150000Y-61125000D01*
X67150000Y-61824999D01*
X67198308Y-61824999D01*
X67198322Y-61824998D01*
X67297607Y-61814855D01*
X67458481Y-61761547D01*
X67458492Y-61761542D01*
X67602728Y-61672575D01*
X67602732Y-61672572D01*
X67700304Y-61575000D01*
X74525000Y-61575000D01*
X75250000Y-61575000D01*
X75250000Y-60875000D01*
X75750000Y-60875000D01*
X75750000Y-61575000D01*
X76474999Y-61575000D01*
X76474999Y-61551692D01*
X76474998Y-61551677D01*
X76464855Y-61452392D01*
X76411547Y-61291518D01*
X76411542Y-61291507D01*
X76322575Y-61147271D01*
X76322572Y-61147267D01*
X76202732Y-61027427D01*
X76202728Y-61027424D01*
X76158267Y-61000000D01*
X81644341Y-61000000D01*
X81664936Y-61235403D01*
X81664938Y-61235413D01*
X81726094Y-61463655D01*
X81726096Y-61463659D01*
X81726097Y-61463663D01*
X81767139Y-61551677D01*
X81825964Y-61677828D01*
X81825965Y-61677830D01*
X81961505Y-61871402D01*
X82128597Y-62038494D01*
X82322169Y-62174034D01*
X82322171Y-62174035D01*
X82536337Y-62273903D01*
X82764592Y-62335063D01*
X82941034Y-62350500D01*
X83058966Y-62350500D01*
X83235408Y-62335063D01*
X83463663Y-62273903D01*
X83677829Y-62174035D01*
X83871401Y-62038495D01*
X84038495Y-61871401D01*
X84174035Y-61677830D01*
X84273903Y-61463663D01*
X84335063Y-61235408D01*
X84355659Y-61000000D01*
X84335063Y-60764592D01*
X84273903Y-60536337D01*
X84174035Y-60322171D01*
X84174034Y-60322169D01*
X84038494Y-60128597D01*
X83871402Y-59961505D01*
X83677830Y-59825965D01*
X83677828Y-59825964D01*
X83570746Y-59776031D01*
X83463663Y-59726097D01*
X83463659Y-59726096D01*
X83463655Y-59726094D01*
X83235413Y-59664938D01*
X83235403Y-59664936D01*
X83058966Y-59649500D01*
X82941034Y-59649500D01*
X82764596Y-59664936D01*
X82764586Y-59664938D01*
X82536344Y-59726094D01*
X82536335Y-59726098D01*
X82322171Y-59825964D01*
X82322169Y-59825965D01*
X82128597Y-59961505D01*
X81961506Y-60128597D01*
X81961501Y-60128604D01*
X81825967Y-60322165D01*
X81825965Y-60322169D01*
X81726098Y-60536335D01*
X81726094Y-60536344D01*
X81664938Y-60764586D01*
X81664936Y-60764596D01*
X81644341Y-60999999D01*
X81644341Y-61000000D01*
X76158267Y-61000000D01*
X76058492Y-60938457D01*
X76058481Y-60938452D01*
X75897606Y-60885144D01*
X75798322Y-60875000D01*
X75750000Y-60875000D01*
X75250000Y-60875000D01*
X75249999Y-60874999D01*
X75201693Y-60875000D01*
X75201675Y-60875001D01*
X75102392Y-60885144D01*
X74941518Y-60938452D01*
X74941507Y-60938457D01*
X74797271Y-61027424D01*
X74797267Y-61027427D01*
X74677427Y-61147267D01*
X74677424Y-61147271D01*
X74588457Y-61291507D01*
X74588452Y-61291518D01*
X74535144Y-61452393D01*
X74525000Y-61551677D01*
X74525000Y-61575000D01*
X67700304Y-61575000D01*
X67722572Y-61552732D01*
X67722575Y-61552728D01*
X67811542Y-61408492D01*
X67811547Y-61408481D01*
X67835067Y-61337500D01*
X71820000Y-61337500D01*
X72770000Y-61337500D01*
X72770000Y-60575000D01*
X73270000Y-60575000D01*
X73270000Y-61337500D01*
X74219999Y-61337500D01*
X74219999Y-61275028D01*
X74219998Y-61275013D01*
X74209505Y-61172302D01*
X74154358Y-61005880D01*
X74154356Y-61005875D01*
X74062315Y-60856654D01*
X73938345Y-60732684D01*
X73789124Y-60640643D01*
X73789119Y-60640641D01*
X73622697Y-60585494D01*
X73622690Y-60585493D01*
X73519986Y-60575000D01*
X73270000Y-60575000D01*
X72770000Y-60575000D01*
X72520029Y-60575000D01*
X72520012Y-60575001D01*
X72417302Y-60585494D01*
X72250880Y-60640641D01*
X72250875Y-60640643D01*
X72101654Y-60732684D01*
X71977684Y-60856654D01*
X71885643Y-61005875D01*
X71885641Y-61005880D01*
X71830494Y-61172302D01*
X71830493Y-61172309D01*
X71820000Y-61275013D01*
X71820000Y-61337500D01*
X67835067Y-61337500D01*
X67864855Y-61247606D01*
X67874999Y-61148322D01*
X67875000Y-61148309D01*
X67875000Y-61125000D01*
X67150000Y-61125000D01*
X66650000Y-61125000D01*
X65925001Y-61125000D01*
X65413000Y-61125000D01*
X65413000Y-58585718D01*
X65432685Y-58518679D01*
X65473880Y-58478986D01*
X65576858Y-58418085D01*
X65576857Y-58418085D01*
X65576865Y-58418081D01*
X65693081Y-58301865D01*
X65693267Y-58301549D01*
X65693477Y-58301353D01*
X65697861Y-58295702D01*
X65698772Y-58296409D01*
X65744336Y-58253866D01*
X65813077Y-58241362D01*
X65877667Y-58268006D01*
X65901855Y-58295921D01*
X65902139Y-58295702D01*
X65906179Y-58300911D01*
X65906732Y-58301548D01*
X65906919Y-58301865D01*
X65906921Y-58301867D01*
X65906923Y-58301870D01*
X66023129Y-58418076D01*
X66023132Y-58418078D01*
X66023135Y-58418081D01*
X66023139Y-58418083D01*
X66023140Y-58418084D01*
X66030357Y-58422353D01*
X66078039Y-58473423D01*
X66090541Y-58542165D01*
X66082289Y-58575323D01*
X66013453Y-58746603D01*
X66003938Y-58765455D01*
X65987999Y-58791297D01*
X65987993Y-58791309D01*
X65934651Y-58952288D01*
X65924500Y-59051647D01*
X65924500Y-59598337D01*
X65924501Y-59598355D01*
X65934650Y-59697707D01*
X65934651Y-59697710D01*
X65987996Y-59858694D01*
X65988001Y-59858705D01*
X66077029Y-60003040D01*
X66077032Y-60003044D01*
X66086660Y-60012672D01*
X66120145Y-60073995D01*
X66115161Y-60143687D01*
X66086663Y-60188031D01*
X66077428Y-60197265D01*
X66077424Y-60197271D01*
X65988457Y-60341507D01*
X65988452Y-60341518D01*
X65935144Y-60502393D01*
X65925000Y-60601677D01*
X65925000Y-60625000D01*
X67874999Y-60625000D01*
X67874999Y-60601692D01*
X67874998Y-60601677D01*
X67864855Y-60502392D01*
X67811547Y-60341518D01*
X67811542Y-60341507D01*
X67722575Y-60197271D01*
X67722572Y-60197267D01*
X67713339Y-60188034D01*
X67679854Y-60126711D01*
X67684838Y-60057019D01*
X67713343Y-60012668D01*
X67722968Y-60003044D01*
X67812003Y-59858697D01*
X67865349Y-59697708D01*
X67875500Y-59598345D01*
X67875499Y-59310639D01*
X67895183Y-59243602D01*
X67947987Y-59197847D01*
X68017146Y-59187903D01*
X68080701Y-59216928D01*
X68115681Y-59267307D01*
X68136203Y-59322330D01*
X68136206Y-59322335D01*
X68222452Y-59437544D01*
X68222455Y-59437547D01*
X68337664Y-59523793D01*
X68337671Y-59523797D01*
X68472517Y-59574091D01*
X68472516Y-59574091D01*
X68479444Y-59574835D01*
X68532127Y-59580500D01*
X70187872Y-59580499D01*
X70247483Y-59574091D01*
X70382331Y-59523796D01*
X70497546Y-59437546D01*
X70583796Y-59322331D01*
X70634091Y-59187483D01*
X70640500Y-59127873D01*
X70640500Y-59100002D01*
X88664723Y-59100002D01*
X88683793Y-59317975D01*
X88683793Y-59317979D01*
X88740422Y-59529322D01*
X88740424Y-59529326D01*
X88740425Y-59529330D01*
X88772612Y-59598355D01*
X88832897Y-59727638D01*
X88832898Y-59727639D01*
X88958402Y-59906877D01*
X89113123Y-60061598D01*
X89292361Y-60187102D01*
X89490670Y-60279575D01*
X89702023Y-60336207D01*
X89884926Y-60352208D01*
X89919998Y-60355277D01*
X89920000Y-60355277D01*
X89920002Y-60355277D01*
X89948254Y-60352805D01*
X90137977Y-60336207D01*
X90349330Y-60279575D01*
X90547639Y-60187102D01*
X90726877Y-60061598D01*
X90881598Y-59906877D01*
X91007102Y-59727639D01*
X91099575Y-59529330D01*
X91156207Y-59317977D01*
X91173890Y-59115851D01*
X91175277Y-59100002D01*
X91175277Y-59099997D01*
X91169928Y-59038855D01*
X91156207Y-58882023D01*
X91099575Y-58670670D01*
X91099568Y-58670655D01*
X91097133Y-58663965D01*
X91095210Y-58657657D01*
X91092411Y-58646359D01*
X91010293Y-58314855D01*
X90961949Y-58119694D01*
X90964937Y-58049889D01*
X91005190Y-57992780D01*
X91069928Y-57966499D01*
X91138598Y-57979390D01*
X91147408Y-57984341D01*
X91191507Y-58011542D01*
X91191518Y-58011547D01*
X91352393Y-58064855D01*
X91451683Y-58074999D01*
X91475000Y-58074998D01*
X91475000Y-57350000D01*
X91975000Y-57350000D01*
X91975000Y-58074999D01*
X91998308Y-58074999D01*
X91998322Y-58074998D01*
X92097607Y-58064855D01*
X92258481Y-58011547D01*
X92258492Y-58011542D01*
X92402728Y-57922575D01*
X92402732Y-57922572D01*
X92412319Y-57912986D01*
X92473642Y-57879501D01*
X92543334Y-57884485D01*
X92587681Y-57912986D01*
X92597267Y-57922572D01*
X92597271Y-57922575D01*
X92741507Y-58011542D01*
X92741518Y-58011547D01*
X92902393Y-58064855D01*
X93001683Y-58074999D01*
X93525000Y-58074999D01*
X93548308Y-58074999D01*
X93548322Y-58074998D01*
X93647604Y-58064856D01*
X93672783Y-58056512D01*
X93742612Y-58054108D01*
X93802655Y-58089838D01*
X93833849Y-58152357D01*
X93826291Y-58221817D01*
X93824009Y-58226972D01*
X93652183Y-58592470D01*
X93652182Y-58592473D01*
X93649500Y-58598559D01*
X93647902Y-58602925D01*
X93633789Y-58641473D01*
X93631760Y-58646359D01*
X93620427Y-58670665D01*
X93620424Y-58670673D01*
X93563793Y-58882023D01*
X93563793Y-58882024D01*
X93544723Y-59099997D01*
X93544723Y-59100002D01*
X93563793Y-59317975D01*
X93563793Y-59317979D01*
X93620422Y-59529322D01*
X93620424Y-59529326D01*
X93620425Y-59529330D01*
X93652612Y-59598355D01*
X93712897Y-59727638D01*
X93712898Y-59727639D01*
X93838402Y-59906877D01*
X93993123Y-60061598D01*
X94172361Y-60187102D01*
X94370670Y-60279575D01*
X94582023Y-60336207D01*
X94764926Y-60352208D01*
X94799998Y-60355277D01*
X94800000Y-60355277D01*
X94800002Y-60355277D01*
X94828254Y-60352805D01*
X95017977Y-60336207D01*
X95229330Y-60279575D01*
X95427639Y-60187102D01*
X95606877Y-60061598D01*
X95761598Y-59906877D01*
X95887102Y-59727639D01*
X95979575Y-59529330D01*
X96036207Y-59317977D01*
X96053890Y-59115851D01*
X96055277Y-59100002D01*
X96055277Y-59099997D01*
X96049928Y-59038855D01*
X96036207Y-58882023D01*
X95979575Y-58670670D01*
X95964017Y-58637308D01*
X95956640Y-58617052D01*
X95952849Y-58602925D01*
X95647435Y-57890554D01*
X95639112Y-57821184D01*
X95649628Y-57788011D01*
X95709425Y-57663522D01*
X95711650Y-57659454D01*
X95711999Y-57658702D01*
X95712003Y-57658697D01*
X95765349Y-57497708D01*
X95775500Y-57398345D01*
X95775499Y-56801656D01*
X95773763Y-56784665D01*
X95765349Y-56702292D01*
X95765348Y-56702289D01*
X95740146Y-56626234D01*
X95712003Y-56541303D01*
X95711999Y-56541297D01*
X95711998Y-56541294D01*
X95622970Y-56396959D01*
X95622967Y-56396955D01*
X95503044Y-56277032D01*
X95503040Y-56277029D01*
X95358705Y-56188001D01*
X95358699Y-56187998D01*
X95358697Y-56187997D01*
X95335623Y-56180351D01*
X95197709Y-56134651D01*
X95098346Y-56124500D01*
X94551662Y-56124500D01*
X94551644Y-56124501D01*
X94452292Y-56134650D01*
X94452289Y-56134651D01*
X94291305Y-56187996D01*
X94291294Y-56188001D01*
X94146959Y-56277029D01*
X94146953Y-56277033D01*
X94137324Y-56286663D01*
X94076000Y-56320146D01*
X94006308Y-56315159D01*
X93961965Y-56286660D01*
X93952732Y-56277427D01*
X93952728Y-56277424D01*
X93808492Y-56188457D01*
X93808481Y-56188452D01*
X93647606Y-56135144D01*
X93548322Y-56125000D01*
X93525000Y-56125000D01*
X93525000Y-58074999D01*
X93001683Y-58074999D01*
X93025000Y-58074998D01*
X93025000Y-57350000D01*
X91975000Y-57350000D01*
X91475000Y-57350000D01*
X91475000Y-56850000D01*
X91975000Y-56850000D01*
X93025000Y-56850000D01*
X93025000Y-56124999D01*
X93001693Y-56125000D01*
X93001674Y-56125001D01*
X92902392Y-56135144D01*
X92741518Y-56188452D01*
X92741507Y-56188457D01*
X92597271Y-56277424D01*
X92597267Y-56277427D01*
X92587681Y-56287014D01*
X92526358Y-56320499D01*
X92456666Y-56315515D01*
X92412319Y-56287014D01*
X92402732Y-56277427D01*
X92402728Y-56277424D01*
X92258492Y-56188457D01*
X92258481Y-56188452D01*
X92097606Y-56135144D01*
X91998322Y-56125000D01*
X91975000Y-56125000D01*
X91975000Y-56850000D01*
X91475000Y-56850000D01*
X91475000Y-56124999D01*
X91451693Y-56125000D01*
X91451674Y-56125001D01*
X91352392Y-56135144D01*
X91191518Y-56188452D01*
X91191507Y-56188457D01*
X91047271Y-56277424D01*
X91047265Y-56277428D01*
X91038031Y-56286663D01*
X90976707Y-56320146D01*
X90907015Y-56315159D01*
X90862672Y-56286660D01*
X90853044Y-56277032D01*
X90853040Y-56277029D01*
X90708705Y-56188001D01*
X90708699Y-56187998D01*
X90708697Y-56187997D01*
X90685623Y-56180351D01*
X90547709Y-56134651D01*
X90448346Y-56124500D01*
X89901662Y-56124500D01*
X89901644Y-56124501D01*
X89802292Y-56134650D01*
X89802289Y-56134651D01*
X89641305Y-56187996D01*
X89641294Y-56188001D01*
X89496959Y-56277029D01*
X89496955Y-56277032D01*
X89377032Y-56396955D01*
X89377029Y-56396959D01*
X89288001Y-56541294D01*
X89287996Y-56541305D01*
X89234651Y-56702290D01*
X89224500Y-56801647D01*
X89224500Y-57398337D01*
X89224501Y-57398355D01*
X89234650Y-57497707D01*
X89234651Y-57497710D01*
X89287997Y-57658697D01*
X89288363Y-57659482D01*
X89290573Y-57663526D01*
X89304891Y-57693333D01*
X89316175Y-57762285D01*
X89295115Y-57817541D01*
X88990426Y-58258248D01*
X88976114Y-58275408D01*
X88958403Y-58293119D01*
X88832900Y-58472357D01*
X88832898Y-58472361D01*
X88740426Y-58670668D01*
X88740422Y-58670677D01*
X88683793Y-58882020D01*
X88683793Y-58882024D01*
X88664723Y-59099997D01*
X88664723Y-59100002D01*
X70640500Y-59100002D01*
X70640499Y-57625000D01*
X71125001Y-57625000D01*
X71125001Y-57648322D01*
X71135144Y-57747607D01*
X71188452Y-57908481D01*
X71188457Y-57908492D01*
X71277424Y-58052728D01*
X71277427Y-58052732D01*
X71397267Y-58172572D01*
X71397271Y-58172575D01*
X71541507Y-58261542D01*
X71541518Y-58261547D01*
X71702393Y-58314855D01*
X71801683Y-58324999D01*
X71849999Y-58324998D01*
X71850000Y-58324998D01*
X71850000Y-57625000D01*
X72350000Y-57625000D01*
X72350000Y-58324999D01*
X72398308Y-58324999D01*
X72398322Y-58324998D01*
X72497607Y-58314855D01*
X72658481Y-58261547D01*
X72658492Y-58261542D01*
X72802728Y-58172575D01*
X72802732Y-58172572D01*
X72922572Y-58052732D01*
X72922575Y-58052728D01*
X73011542Y-57908492D01*
X73011547Y-57908481D01*
X73064855Y-57747606D01*
X73074999Y-57648322D01*
X73075000Y-57648309D01*
X73075000Y-57625000D01*
X72350000Y-57625000D01*
X71850000Y-57625000D01*
X71125001Y-57625000D01*
X70640499Y-57625000D01*
X70640499Y-57472128D01*
X70634091Y-57412517D01*
X70628805Y-57398345D01*
X70583797Y-57277671D01*
X70583793Y-57277664D01*
X70497547Y-57162455D01*
X70497544Y-57162452D01*
X70382335Y-57076206D01*
X70382328Y-57076202D01*
X70247482Y-57025908D01*
X70247483Y-57025908D01*
X70187883Y-57019501D01*
X70187881Y-57019500D01*
X70187873Y-57019500D01*
X70187865Y-57019500D01*
X69529157Y-57019500D01*
X69510063Y-57018021D01*
X69486654Y-57014373D01*
X69486650Y-57014372D01*
X68946646Y-57007998D01*
X68919516Y-57004665D01*
X68897718Y-56999499D01*
X68890546Y-56998661D01*
X68890552Y-56998601D01*
X68883055Y-56997835D01*
X68883050Y-56997895D01*
X68875860Y-56997265D01*
X68799083Y-56999500D01*
X68226610Y-56999500D01*
X67945932Y-56996186D01*
X67939814Y-56995811D01*
X67560084Y-56953619D01*
X67555798Y-56952991D01*
X67552571Y-56952402D01*
X67540732Y-56951470D01*
X67509669Y-56948019D01*
X67498222Y-56946944D01*
X67492500Y-56946407D01*
X67492499Y-56946407D01*
X67447935Y-56949364D01*
X67443829Y-56949500D01*
X66359304Y-56949500D01*
X66322432Y-56952401D01*
X66322426Y-56952402D01*
X66164606Y-56998254D01*
X66164603Y-56998255D01*
X66023137Y-57081917D01*
X66016969Y-57086702D01*
X66015664Y-57085019D01*
X65963954Y-57113246D01*
X65894263Y-57108251D01*
X65846558Y-57076247D01*
X65822296Y-57050000D01*
X65556815Y-57050000D01*
X65493694Y-57032732D01*
X65451871Y-57007998D01*
X65435398Y-56998256D01*
X65435397Y-56998255D01*
X65435396Y-56998255D01*
X65435393Y-56998254D01*
X65277573Y-56952402D01*
X65277567Y-56952401D01*
X65240696Y-56949500D01*
X65240694Y-56949500D01*
X64084306Y-56949500D01*
X64084304Y-56949500D01*
X64047432Y-56952401D01*
X64047426Y-56952402D01*
X63889606Y-56998254D01*
X63889603Y-56998255D01*
X63831306Y-57032732D01*
X63768185Y-57050000D01*
X63502705Y-57050000D01*
X63502704Y-57050001D01*
X63502899Y-57052488D01*
X63502900Y-57052494D01*
X63548716Y-57210193D01*
X63548720Y-57210203D01*
X63549427Y-57211398D01*
X63549695Y-57212454D01*
X63551816Y-57217356D01*
X63551024Y-57217698D01*
X63566603Y-57279123D01*
X63550993Y-57332284D01*
X63551355Y-57332441D01*
X63550087Y-57335369D01*
X63549427Y-57337620D01*
X63548259Y-57339594D01*
X63548254Y-57339607D01*
X63502402Y-57497426D01*
X63502401Y-57497432D01*
X63499500Y-57534304D01*
X63499500Y-57965696D01*
X63502401Y-58002567D01*
X63502402Y-58002573D01*
X63548254Y-58160393D01*
X63548255Y-58160396D01*
X63548256Y-58160398D01*
X63584579Y-58221817D01*
X63631732Y-58301550D01*
X63631918Y-58301864D01*
X63631923Y-58301870D01*
X63748129Y-58418076D01*
X63748133Y-58418079D01*
X63748135Y-58418081D01*
X63748138Y-58418082D01*
X63748141Y-58418085D01*
X63851120Y-58478986D01*
X63898804Y-58530054D01*
X63912000Y-58585718D01*
X63912000Y-58995817D01*
X63892315Y-59062856D01*
X63839511Y-59108611D01*
X63770353Y-59118555D01*
X63737564Y-59109096D01*
X63579807Y-59038857D01*
X63579802Y-59038855D01*
X63434001Y-59007865D01*
X63394646Y-58999500D01*
X63205354Y-58999500D01*
X63172897Y-59006398D01*
X63020197Y-59038855D01*
X63020192Y-59038857D01*
X62847270Y-59115848D01*
X62847265Y-59115851D01*
X62694129Y-59227111D01*
X62567466Y-59367785D01*
X62472821Y-59531715D01*
X62472818Y-59531722D01*
X62418886Y-59697709D01*
X62414326Y-59711744D01*
X62394540Y-59900000D01*
X62414326Y-60088256D01*
X62414327Y-60088259D01*
X62472818Y-60268277D01*
X62472821Y-60268284D01*
X62567467Y-60432216D01*
X62661218Y-60536337D01*
X62694129Y-60572888D01*
X62847265Y-60684148D01*
X62847270Y-60684151D01*
X63020192Y-60761142D01*
X63020197Y-60761144D01*
X63205354Y-60800500D01*
X63205355Y-60800500D01*
X63394644Y-60800500D01*
X63394646Y-60800500D01*
X63579803Y-60761144D01*
X63737565Y-60690902D01*
X63806813Y-60681618D01*
X63870090Y-60711246D01*
X63907304Y-60770380D01*
X63912000Y-60804182D01*
X63912000Y-61598794D01*
X63910691Y-61616763D01*
X63907210Y-61640525D01*
X63911764Y-61692564D01*
X63912000Y-61697970D01*
X63912000Y-61706209D01*
X63915806Y-61738774D01*
X63922500Y-61815291D01*
X63923961Y-61822367D01*
X63923903Y-61822378D01*
X63925534Y-61829737D01*
X63925592Y-61829724D01*
X63927257Y-61836750D01*
X63953525Y-61908924D01*
X63977685Y-61981831D01*
X63980736Y-61988374D01*
X63980682Y-61988398D01*
X63983970Y-61995188D01*
X63984021Y-61995163D01*
X63987261Y-62001613D01*
X63987262Y-62001614D01*
X63987263Y-62001617D01*
X64011517Y-62038494D01*
X64029465Y-62065783D01*
X64069787Y-62131155D01*
X64074266Y-62136819D01*
X64074219Y-62136856D01*
X64078982Y-62142702D01*
X64079028Y-62142664D01*
X64083673Y-62148200D01*
X64139517Y-62200885D01*
X64376450Y-62437819D01*
X64409935Y-62499142D01*
X64404951Y-62568834D01*
X64363079Y-62624767D01*
X64297615Y-62649184D01*
X64288769Y-62649500D01*
X62752129Y-62649500D01*
X62752123Y-62649501D01*
X62692516Y-62655908D01*
X62557671Y-62706202D01*
X62557664Y-62706206D01*
X62442455Y-62792452D01*
X62442452Y-62792455D01*
X62356206Y-62907664D01*
X62356202Y-62907671D01*
X62305908Y-63042517D01*
X62299501Y-63102116D01*
X62299500Y-63102135D01*
X62299500Y-64997870D01*
X62299501Y-64997876D01*
X62305908Y-65057483D01*
X62356202Y-65192328D01*
X62356206Y-65192335D01*
X62442452Y-65307544D01*
X62442455Y-65307547D01*
X62557664Y-65393793D01*
X62557673Y-65393798D01*
X62637904Y-65423722D01*
X62693838Y-65465593D01*
X62718256Y-65531057D01*
X62703405Y-65599330D01*
X62685802Y-65623886D01*
X62591019Y-65726849D01*
X62464075Y-65921151D01*
X62370842Y-66133699D01*
X62313866Y-66358691D01*
X62313864Y-66358702D01*
X62294700Y-66589993D01*
X62294700Y-66590006D01*
X62313864Y-66821297D01*
X62313866Y-66821308D01*
X62370842Y-67046300D01*
X62464075Y-67258848D01*
X62591016Y-67453147D01*
X62591019Y-67453151D01*
X62591021Y-67453153D01*
X62748216Y-67623913D01*
X62748219Y-67623915D01*
X62748222Y-67623918D01*
X62925818Y-67762147D01*
X62966631Y-67818857D01*
X62970306Y-67888630D01*
X62935674Y-67949313D01*
X62925818Y-67957853D01*
X62748222Y-68096081D01*
X62748219Y-68096084D01*
X62748216Y-68096086D01*
X62748216Y-68096087D01*
X62693722Y-68155284D01*
X62591016Y-68266852D01*
X62464075Y-68461151D01*
X62370842Y-68673699D01*
X62313866Y-68898691D01*
X62313864Y-68898702D01*
X62294700Y-69129993D01*
X62294700Y-69130006D01*
X60100000Y-69130006D01*
X60100000Y-40124500D01*
X60119685Y-40057461D01*
X60172489Y-40011706D01*
X60224000Y-40000500D01*
X64128448Y-40000500D01*
X64195487Y-40020185D01*
G37*
%TD.AperFunction*%
%TA.AperFunction,Conductor*%
G36*
X91094024Y-78407852D02*
G01*
X91136793Y-78404110D01*
X91205293Y-78417876D01*
X91255476Y-78466491D01*
X91265307Y-78488633D01*
X91288453Y-78558483D01*
X91288457Y-78558492D01*
X91359813Y-78674176D01*
X91378254Y-78741568D01*
X91357332Y-78808231D01*
X91303690Y-78853001D01*
X91296686Y-78855795D01*
X91268569Y-78866028D01*
X91195660Y-78890188D01*
X91189123Y-78893237D01*
X91189098Y-78893185D01*
X91182314Y-78896469D01*
X91182340Y-78896521D01*
X91175878Y-78899766D01*
X91170644Y-78903209D01*
X91103815Y-78923597D01*
X91076970Y-78920945D01*
X90927768Y-78889538D01*
X90921327Y-78888015D01*
X90918122Y-78887507D01*
X90912473Y-78886319D01*
X90912457Y-78886316D01*
X90893409Y-78883330D01*
X90886508Y-78882249D01*
X90874700Y-78881021D01*
X90871026Y-78880640D01*
X90865575Y-78880650D01*
X90798502Y-78861081D01*
X90752656Y-78808355D01*
X90745377Y-78766310D01*
X90059401Y-78080333D01*
X90140148Y-78067545D01*
X90253045Y-78010021D01*
X90342641Y-77920425D01*
X90400165Y-77807528D01*
X90412953Y-77726780D01*
X91094024Y-78407852D01*
G37*
%TD.AperFunction*%
%TD*%
%TA.AperFunction,Conductor*%
%TO.N,+5V*%
G36*
X68441375Y-40651441D02*
G01*
X68796500Y-40798141D01*
X68802838Y-40804467D01*
X68802853Y-40804503D01*
X68949311Y-41160411D01*
X68949290Y-41169365D01*
X68944689Y-41174787D01*
X68261730Y-41601322D01*
X68252897Y-41602798D01*
X68245608Y-41597596D01*
X68243832Y-41591398D01*
X68243832Y-41114757D01*
X68244672Y-41110404D01*
X68426049Y-40657900D01*
X68432307Y-40651498D01*
X68441261Y-40651395D01*
X68441375Y-40651441D01*
G37*
%TD.AperFunction*%
%TD*%
%TA.AperFunction,Conductor*%
%TO.N,+5V*%
G36*
X73519104Y-50863021D02*
G01*
X74171237Y-51309216D01*
X74176130Y-51316716D01*
X74174286Y-51325479D01*
X74172924Y-51327124D01*
X73900707Y-51600707D01*
X73627124Y-51872924D01*
X73618843Y-51876330D01*
X73610578Y-51872882D01*
X73609216Y-51871237D01*
X73163021Y-51219104D01*
X73161177Y-51210341D01*
X73164402Y-51204226D01*
X73504225Y-50864403D01*
X73512497Y-50860977D01*
X73519104Y-50863021D01*
G37*
%TD.AperFunction*%
%TD*%
%TA.AperFunction,Conductor*%
%TO.N,+5V*%
G36*
X73387202Y-50730309D02*
G01*
X74072557Y-51120278D01*
X74078053Y-51127348D01*
X74077894Y-51134075D01*
X73927361Y-51595633D01*
X73921538Y-51602436D01*
X73920790Y-51602783D01*
X73484146Y-51787210D01*
X73475192Y-51787272D01*
X73469700Y-51782676D01*
X73030888Y-51087358D01*
X73029371Y-51078534D01*
X73032508Y-51072844D01*
X73373147Y-50732205D01*
X73381419Y-50728779D01*
X73387202Y-50730309D01*
G37*
%TD.AperFunction*%
%TD*%
%TA.AperFunction,Conductor*%
%TO.N,+5V*%
G36*
X65005917Y-41063486D02*
G01*
X65290224Y-41110870D01*
X65297821Y-41115611D01*
X65300000Y-41122411D01*
X65300000Y-41602588D01*
X65296573Y-41610861D01*
X65290223Y-41614129D01*
X65005926Y-41661512D01*
X64997203Y-41659492D01*
X64995744Y-41658258D01*
X64939888Y-41602588D01*
X64707313Y-41370785D01*
X64703873Y-41362519D01*
X64707285Y-41354241D01*
X64995745Y-41066740D01*
X65004022Y-41063328D01*
X65005917Y-41063486D01*
G37*
%TD.AperFunction*%
%TD*%
%TA.AperFunction,Conductor*%
%TO.N,+5V*%
G36*
X67226485Y-76524182D02*
G01*
X67228369Y-76526648D01*
X67897410Y-77696876D01*
X67898541Y-77705759D01*
X67893060Y-77712840D01*
X67891743Y-77713487D01*
X67202163Y-78000100D01*
X67197658Y-78000996D01*
X66452169Y-78000018D01*
X66443900Y-77996580D01*
X66440484Y-77988303D01*
X66440697Y-77986098D01*
X66723162Y-76530226D01*
X66728102Y-76522758D01*
X66734648Y-76520755D01*
X67218212Y-76520755D01*
X67226485Y-76524182D01*
G37*
%TD.AperFunction*%
%TD*%
%TA.AperFunction,Conductor*%
%TO.N,+5V*%
G36*
X66982187Y-76004597D02*
G01*
X67300857Y-76252764D01*
X67401487Y-76331131D01*
X67405909Y-76338918D01*
X67405472Y-76343832D01*
X67227556Y-76916770D01*
X67221829Y-76923654D01*
X67216382Y-76925000D01*
X66733618Y-76925000D01*
X66725345Y-76921573D01*
X66722444Y-76916770D01*
X66544527Y-76343832D01*
X66545347Y-76334915D01*
X66548510Y-76331132D01*
X66967811Y-76004597D01*
X66976444Y-76002218D01*
X66982187Y-76004597D01*
G37*
%TD.AperFunction*%
%TD*%
%TA.AperFunction,Conductor*%
%TO.N,+5V*%
G36*
X67280467Y-49668704D02*
G01*
X67620992Y-50009229D01*
X67624419Y-50017502D01*
X67623612Y-50021773D01*
X67582784Y-50125909D01*
X67576574Y-50132360D01*
X67575669Y-50132711D01*
X66947209Y-50347152D01*
X66938273Y-50346581D01*
X66932610Y-50340527D01*
X66816473Y-50057878D01*
X66816498Y-50048923D01*
X66819737Y-50044499D01*
X66846595Y-50021773D01*
X67264638Y-49668044D01*
X67273166Y-49665317D01*
X67280467Y-49668704D01*
G37*
%TD.AperFunction*%
%TD*%
%TA.AperFunction,Conductor*%
%TO.N,+5V*%
G36*
X69480688Y-57519838D02*
G01*
X69488920Y-57523362D01*
X69492249Y-57531675D01*
X69492083Y-57533509D01*
X69361817Y-58295217D01*
X69357044Y-58302794D01*
X69357036Y-58302800D01*
X68588419Y-58845873D01*
X68579684Y-58847849D01*
X68573038Y-58844219D01*
X67803071Y-58003353D01*
X67800000Y-57995452D01*
X67800000Y-57511838D01*
X67803427Y-57503565D01*
X67811699Y-57500138D01*
X69480688Y-57519838D01*
G37*
%TD.AperFunction*%
%TD*%
%TA.AperFunction,Conductor*%
%TO.N,+5V*%
G36*
X67889593Y-57498843D02*
G01*
X67897436Y-57503162D01*
X67900000Y-57510471D01*
X67900000Y-57989528D01*
X67896573Y-57997801D01*
X67889592Y-58001156D01*
X67453849Y-58049572D01*
X67446655Y-58048046D01*
X67364416Y-58000000D01*
X66953790Y-57760101D01*
X66948376Y-57752970D01*
X66949591Y-57744098D01*
X66953791Y-57739898D01*
X67446658Y-57451952D01*
X67453846Y-57450427D01*
X67889593Y-57498843D01*
G37*
%TD.AperFunction*%
%TD*%
%TA.AperFunction,Conductor*%
%TO.N,+5V*%
G36*
X67186978Y-58428427D02*
G01*
X67189944Y-58433448D01*
X67355516Y-59005751D01*
X67354523Y-59014651D01*
X67350867Y-59018671D01*
X66907103Y-59321157D01*
X66898337Y-59322985D01*
X66893256Y-59320667D01*
X66470820Y-58986644D01*
X66466456Y-58978824D01*
X66467220Y-58973107D01*
X66684551Y-58432336D01*
X66690816Y-58425939D01*
X66695407Y-58425000D01*
X67178705Y-58425000D01*
X67186978Y-58428427D01*
G37*
%TD.AperFunction*%
%TD*%
%TA.AperFunction,Conductor*%
%TO.N,+5V*%
G36*
X66945758Y-57757285D02*
G01*
X67180534Y-57992844D01*
X67233258Y-58045744D01*
X67236671Y-58054022D01*
X67236512Y-58055926D01*
X67189130Y-58340223D01*
X67184390Y-58347821D01*
X67177589Y-58350000D01*
X66697411Y-58350000D01*
X66689138Y-58346573D01*
X66685870Y-58340223D01*
X66638487Y-58055924D01*
X66640507Y-58047203D01*
X66641736Y-58045749D01*
X66929214Y-57757313D01*
X66937481Y-57753873D01*
X66945758Y-57757285D01*
G37*
%TD.AperFunction*%
%TD*%
%TA.AperFunction,Conductor*%
%TO.N,GNDA*%
G36*
X111843832Y-76194527D02*
G01*
X111856665Y-76198512D01*
X112416770Y-76372444D01*
X112423654Y-76378171D01*
X112425000Y-76383618D01*
X112425000Y-76866381D01*
X112421573Y-76874654D01*
X112416770Y-76877555D01*
X111843832Y-77055472D01*
X111834915Y-77054652D01*
X111831131Y-77051487D01*
X111686978Y-76866381D01*
X111504597Y-76632188D01*
X111502218Y-76623556D01*
X111504597Y-76617812D01*
X111831132Y-76198511D01*
X111838918Y-76194090D01*
X111843832Y-76194527D01*
G37*
%TD.AperFunction*%
%TD*%
%TA.AperFunction,Conductor*%
%TO.N,GNDA*%
G36*
X112965084Y-76195347D02*
G01*
X112968868Y-76198512D01*
X113295401Y-76617811D01*
X113297781Y-76626444D01*
X113295401Y-76632189D01*
X112968868Y-77051487D01*
X112961081Y-77055909D01*
X112956167Y-77055472D01*
X112383230Y-76877555D01*
X112376346Y-76871828D01*
X112375000Y-76866381D01*
X112375000Y-76383618D01*
X112378427Y-76375345D01*
X112383228Y-76372444D01*
X112956167Y-76194527D01*
X112965084Y-76195347D01*
G37*
%TD.AperFunction*%
%TD*%
%TA.AperFunction,Conductor*%
%TO.N,GNDA*%
G36*
X122132187Y-61504597D02*
G01*
X122549910Y-61829903D01*
X122554332Y-61837689D01*
X122552906Y-61844890D01*
X122228359Y-62419057D01*
X122221305Y-62424573D01*
X122218174Y-62425000D01*
X122031826Y-62425000D01*
X122023553Y-62421573D01*
X122021641Y-62419057D01*
X121697093Y-61844890D01*
X121696005Y-61836002D01*
X121700086Y-61829905D01*
X122117811Y-61504597D01*
X122126444Y-61502218D01*
X122132187Y-61504597D01*
G37*
%TD.AperFunction*%
%TD*%
%TA.AperFunction,Conductor*%
%TO.N,GNDA*%
G36*
X122226447Y-62678427D02*
G01*
X122228359Y-62680943D01*
X122552906Y-63255109D01*
X122553994Y-63263997D01*
X122549910Y-63270097D01*
X122132189Y-63595401D01*
X122123556Y-63597781D01*
X122117811Y-63595401D01*
X121912832Y-63435772D01*
X121700088Y-63270096D01*
X121695667Y-63262310D01*
X121697092Y-63255111D01*
X122021641Y-62680943D01*
X122028695Y-62675427D01*
X122031826Y-62675000D01*
X122218174Y-62675000D01*
X122226447Y-62678427D01*
G37*
%TD.AperFunction*%
%TD*%
%TA.AperFunction,Conductor*%
%TO.N,GNDA*%
G36*
X113643832Y-76194527D02*
G01*
X113656665Y-76198512D01*
X114216770Y-76372444D01*
X114223654Y-76378171D01*
X114225000Y-76383618D01*
X114225000Y-76866381D01*
X114221573Y-76874654D01*
X114216770Y-76877555D01*
X113643832Y-77055472D01*
X113634915Y-77054652D01*
X113631131Y-77051487D01*
X113486978Y-76866381D01*
X113304597Y-76632188D01*
X113302218Y-76623556D01*
X113304597Y-76617812D01*
X113631132Y-76198511D01*
X113638918Y-76194090D01*
X113643832Y-76194527D01*
G37*
%TD.AperFunction*%
%TD*%
%TA.AperFunction,Conductor*%
%TO.N,GNDA*%
G36*
X121425479Y-74125713D02*
G01*
X121427124Y-74127075D01*
X121700707Y-74399293D01*
X121972924Y-74672875D01*
X121976330Y-74681156D01*
X121972882Y-74689421D01*
X121971237Y-74690783D01*
X121319104Y-75136978D01*
X121310341Y-75138822D01*
X121304224Y-75135595D01*
X120964404Y-74795775D01*
X120960977Y-74787502D01*
X120963021Y-74780895D01*
X121409217Y-74128761D01*
X121416716Y-74123869D01*
X121425479Y-74125713D01*
G37*
%TD.AperFunction*%
%TD*%
%TA.AperFunction,Conductor*%
%TO.N,/VBAT_BEFORE_FUSE*%
G36*
X93690084Y-79145348D02*
G01*
X93693868Y-79148513D01*
X94020401Y-79567812D01*
X94022781Y-79576445D01*
X94020401Y-79582190D01*
X93693868Y-80001488D01*
X93686081Y-80005910D01*
X93681167Y-80005473D01*
X93108230Y-79827556D01*
X93101346Y-79821829D01*
X93100000Y-79816382D01*
X93100000Y-79333619D01*
X93103427Y-79325346D01*
X93108228Y-79322445D01*
X93681167Y-79144528D01*
X93690084Y-79145348D01*
G37*
%TD.AperFunction*%
%TD*%
%TA.AperFunction,Conductor*%
%TO.N,/VBAT_BEFORE_FUSE*%
G36*
X90821197Y-79383684D02*
G01*
X91256923Y-79475405D01*
X91262785Y-79478581D01*
X91606121Y-79821917D01*
X91609548Y-79830190D01*
X91606635Y-79837915D01*
X90821885Y-80730621D01*
X90813849Y-80734572D01*
X90806430Y-80732510D01*
X90025802Y-80191069D01*
X90020957Y-80183538D01*
X90022856Y-80174787D01*
X90024191Y-80173188D01*
X90810519Y-79386860D01*
X90818791Y-79383434D01*
X90821197Y-79383684D01*
G37*
%TD.AperFunction*%
%TD*%
%TA.AperFunction,Conductor*%
%TO.N,/VBAT_BEFORE_FUSE*%
G36*
X94368832Y-79144528D02*
G01*
X94381665Y-79148513D01*
X94941770Y-79322445D01*
X94948654Y-79328172D01*
X94950000Y-79333619D01*
X94950000Y-79816382D01*
X94946573Y-79824655D01*
X94941770Y-79827556D01*
X94368832Y-80005473D01*
X94359915Y-80004653D01*
X94356131Y-80001488D01*
X94211978Y-79816382D01*
X94029597Y-79582189D01*
X94027218Y-79573557D01*
X94029597Y-79567813D01*
X94356132Y-79148512D01*
X94363918Y-79144091D01*
X94368832Y-79144528D01*
G37*
%TD.AperFunction*%
%TD*%
%TA.AperFunction,Conductor*%
%TO.N,/VBAT_BEFORE_FUSE*%
G36*
X95408263Y-79120858D02*
G01*
X96576522Y-79663628D01*
X96582581Y-79670222D01*
X96582203Y-79679169D01*
X96575966Y-79685091D01*
X95340766Y-80183012D01*
X95331812Y-80182926D01*
X95330793Y-80182433D01*
X94681101Y-79828326D01*
X94675476Y-79821358D01*
X94675000Y-79818053D01*
X94675000Y-79333854D01*
X94678427Y-79325581D01*
X94683517Y-79322595D01*
X95400153Y-79120209D01*
X95408263Y-79120858D01*
G37*
%TD.AperFunction*%
%TD*%
%TA.AperFunction,Conductor*%
%TO.N,GNDPWR*%
G36*
X116871364Y-43398174D02*
G01*
X117596212Y-43697437D01*
X117602551Y-43703762D01*
X117602562Y-43703787D01*
X117901824Y-44428634D01*
X117901813Y-44437589D01*
X117895822Y-44443763D01*
X116652775Y-45004820D01*
X116643825Y-45005100D01*
X116639689Y-45002429D01*
X116297570Y-44660310D01*
X116294143Y-44652037D01*
X116295179Y-44647224D01*
X116721005Y-43703787D01*
X116856236Y-43404176D01*
X116862763Y-43398046D01*
X116871364Y-43398174D01*
G37*
%TD.AperFunction*%
%TD*%
%TA.AperFunction,Conductor*%
%TO.N,GNDPWR*%
G36*
X116007911Y-44951378D02*
G01*
X116349224Y-45292691D01*
X116352651Y-45300964D01*
X116351534Y-45305952D01*
X116023270Y-46002398D01*
X116016643Y-46008421D01*
X116012334Y-46009105D01*
X115326849Y-45988434D01*
X115318683Y-45984759D01*
X115316395Y-45981222D01*
X115110292Y-45484375D01*
X115110288Y-45475422D01*
X115115136Y-45469829D01*
X115993676Y-44949583D01*
X116002541Y-44948317D01*
X116007911Y-44951378D01*
G37*
%TD.AperFunction*%
%TD*%
%TA.AperFunction,Conductor*%
%TO.N,GNDPWR*%
G36*
X83316481Y-76948895D02*
G01*
X83317529Y-76949393D01*
X83932893Y-77280081D01*
X84823207Y-77758525D01*
X84828873Y-77765459D01*
X84827975Y-77774368D01*
X84825942Y-77777103D01*
X84133352Y-78469693D01*
X84125175Y-78473120D01*
X83011785Y-78482283D01*
X83003484Y-78478924D01*
X82999989Y-78470680D01*
X82999295Y-77684010D01*
X83000191Y-77679511D01*
X83301188Y-76955207D01*
X83307526Y-76948884D01*
X83316481Y-76948895D01*
G37*
%TD.AperFunction*%
%TD*%
%TA.AperFunction,Conductor*%
%TO.N,GNDPWR*%
G36*
X116652775Y-42395179D02*
G01*
X117895822Y-42956236D01*
X117901953Y-42962763D01*
X117901824Y-42971365D01*
X117602562Y-43696212D01*
X117596237Y-43702551D01*
X117596212Y-43702562D01*
X116871365Y-44001824D01*
X116862410Y-44001813D01*
X116856236Y-43995822D01*
X116295179Y-42752775D01*
X116294899Y-42743825D01*
X116297568Y-42739691D01*
X116639690Y-42397569D01*
X116647962Y-42394143D01*
X116652775Y-42395179D01*
G37*
%TD.AperFunction*%
%TD*%
%TA.AperFunction,Conductor*%
%TO.N,GNDPWR*%
G36*
X116820297Y-41878943D02*
G01*
X116825029Y-41886545D01*
X116825185Y-41888297D01*
X116834551Y-42576127D01*
X116831237Y-42584446D01*
X116831125Y-42584559D01*
X116490317Y-42925367D01*
X116482044Y-42928794D01*
X116473771Y-42925367D01*
X116472910Y-42924405D01*
X116061974Y-42409780D01*
X116059491Y-42401177D01*
X116061533Y-42395770D01*
X116371472Y-41953319D01*
X116379026Y-41948510D01*
X116379144Y-41948490D01*
X116811575Y-41876913D01*
X116820297Y-41878943D01*
G37*
%TD.AperFunction*%
%TD*%
%TA.AperFunction,Conductor*%
%TO.N,GNDPWR*%
G36*
X103693026Y-81672887D02*
G01*
X103700145Y-81678318D01*
X103701688Y-81683220D01*
X103748234Y-82238824D01*
X103745510Y-82247355D01*
X103738045Y-82251408D01*
X101788170Y-82498332D01*
X101779532Y-82495972D01*
X101775093Y-82488195D01*
X101775000Y-82486725D01*
X101775000Y-81508607D01*
X101778427Y-81500334D01*
X101783215Y-81497438D01*
X102352989Y-81319798D01*
X102359464Y-81319659D01*
X103693026Y-81672887D01*
G37*
%TD.AperFunction*%
%TD*%
%TA.AperFunction,Conductor*%
%TO.N,GNDPWR*%
G36*
X123225479Y-70725713D02*
G01*
X123227124Y-70727075D01*
X123500707Y-70999293D01*
X123772924Y-71272875D01*
X123776330Y-71281156D01*
X123772882Y-71289421D01*
X123771237Y-71290783D01*
X123119104Y-71736978D01*
X123110341Y-71738822D01*
X123104224Y-71735595D01*
X122764404Y-71395775D01*
X122760977Y-71387502D01*
X122763021Y-71380895D01*
X123209217Y-70728761D01*
X123216716Y-70723869D01*
X123225479Y-70725713D01*
G37*
%TD.AperFunction*%
%TD*%
%TA.AperFunction,Conductor*%
%TO.N,Net-(U1-XTAL2{slash}PB7)*%
G36*
X94975560Y-57608400D02*
G01*
X94978040Y-57612063D01*
X95488248Y-58802113D01*
X95488359Y-58811067D01*
X95482105Y-58817476D01*
X95481986Y-58817527D01*
X94804491Y-59099133D01*
X94795536Y-59099144D01*
X94795509Y-59099133D01*
X94118396Y-58817686D01*
X94112072Y-58811346D01*
X94112083Y-58802391D01*
X94112276Y-58801953D01*
X94671840Y-57611695D01*
X94678461Y-57605666D01*
X94682428Y-57604973D01*
X94967287Y-57604973D01*
X94975560Y-57608400D01*
G37*
%TD.AperFunction*%
%TD*%
%TA.AperFunction,Conductor*%
%TO.N,Net-(U1-XTAL2{slash}PB7)*%
G36*
X94832187Y-57104597D02*
G01*
X95036003Y-57263320D01*
X95250431Y-57430309D01*
X95254853Y-57438096D01*
X95253788Y-57444606D01*
X94978187Y-58018366D01*
X94971516Y-58024340D01*
X94967641Y-58025000D01*
X94682359Y-58025000D01*
X94674086Y-58021573D01*
X94671813Y-58018366D01*
X94396211Y-57444606D01*
X94395717Y-57435665D01*
X94399568Y-57430309D01*
X94817811Y-57104597D01*
X94826444Y-57102218D01*
X94832187Y-57104597D01*
G37*
%TD.AperFunction*%
%TD*%
%TA.AperFunction,Conductor*%
%TO.N,/CHARGER_SUPPLY*%
G36*
X113719945Y-45228427D02*
G01*
X113722727Y-45232869D01*
X113917145Y-45793877D01*
X113916616Y-45802816D01*
X113912925Y-45807204D01*
X113476835Y-46121080D01*
X113468118Y-46123132D01*
X113463165Y-46121080D01*
X113027074Y-45807204D01*
X113022361Y-45799590D01*
X113022854Y-45793877D01*
X113217273Y-45232869D01*
X113223220Y-45226174D01*
X113228328Y-45225000D01*
X113711672Y-45225000D01*
X113719945Y-45228427D01*
G37*
%TD.AperFunction*%
%TD*%
%TA.AperFunction,Conductor*%
%TO.N,/CHARGER_SUPPLY*%
G36*
X113335488Y-41299054D02*
G01*
X113341813Y-41305393D01*
X113342358Y-41307059D01*
X113716427Y-42825135D01*
X113715079Y-42833987D01*
X113707866Y-42839294D01*
X113705067Y-42839634D01*
X113222960Y-42839634D01*
X113217397Y-42838227D01*
X112303134Y-42344120D01*
X112297485Y-42337172D01*
X112297884Y-42329356D01*
X112598143Y-41603488D01*
X112604472Y-41597154D01*
X112604481Y-41597149D01*
X113326533Y-41299043D01*
X113335488Y-41299054D01*
G37*
%TD.AperFunction*%
%TD*%
%TA.AperFunction,Conductor*%
%TO.N,/CHARGER_SUPPLY*%
G36*
X113173726Y-41039984D02*
G01*
X114104844Y-41696504D01*
X114109631Y-41704072D01*
X114109802Y-41706066D01*
X114109802Y-42189747D01*
X114106375Y-42198020D01*
X114099638Y-42201346D01*
X112613219Y-42398248D01*
X112604568Y-42395937D01*
X112600084Y-42388185D01*
X112599983Y-42386664D01*
X112599751Y-42201346D01*
X112599006Y-41604859D01*
X112602422Y-41596583D01*
X113158721Y-41041265D01*
X113166995Y-41037847D01*
X113173726Y-41039984D01*
G37*
%TD.AperFunction*%
%TD*%
%TA.AperFunction,Conductor*%
%TO.N,/CHARGER_SUPPLY*%
G36*
X114502816Y-41503383D02*
G01*
X114507204Y-41507074D01*
X114821080Y-41943165D01*
X114823132Y-41951882D01*
X114821080Y-41956835D01*
X114507204Y-42392925D01*
X114499590Y-42397638D01*
X114493877Y-42397145D01*
X113932869Y-42202727D01*
X113926174Y-42196780D01*
X113925000Y-42191672D01*
X113925000Y-41708327D01*
X113928427Y-41700054D01*
X113932865Y-41697274D01*
X114493877Y-41502854D01*
X114502816Y-41503383D01*
G37*
%TD.AperFunction*%
%TD*%
%TA.AperFunction,Conductor*%
%TO.N,Net-(C12-Pad2)*%
G36*
X114776654Y-47321828D02*
G01*
X114779560Y-47323752D01*
X115311378Y-47803815D01*
X115315223Y-47811902D01*
X115312223Y-47820340D01*
X115311378Y-47821185D01*
X114779560Y-48301247D01*
X114771122Y-48304247D01*
X114767707Y-48303552D01*
X114115187Y-48065306D01*
X114108591Y-48059250D01*
X114107500Y-48054316D01*
X114107500Y-47570683D01*
X114110927Y-47562410D01*
X114115185Y-47559693D01*
X114767708Y-47321447D01*
X114776654Y-47321828D01*
G37*
%TD.AperFunction*%
%TD*%
%TA.AperFunction,Conductor*%
%TO.N,Net-(C12-Pad2)*%
G36*
X113867673Y-47282214D02*
G01*
X114388792Y-47559200D01*
X114394488Y-47566108D01*
X114395000Y-47569530D01*
X114395000Y-48051833D01*
X114391573Y-48060106D01*
X114384379Y-48063483D01*
X113727585Y-48124297D01*
X113719031Y-48121648D01*
X113716289Y-48118348D01*
X113473273Y-47682660D01*
X113472236Y-47673766D01*
X113475154Y-47668752D01*
X113853851Y-47284333D01*
X113862096Y-47280846D01*
X113867673Y-47282214D01*
G37*
%TD.AperFunction*%
%TD*%
%TA.AperFunction,Conductor*%
%TO.N,+3V3*%
G36*
X64051110Y-45178427D02*
G01*
X64053257Y-45181379D01*
X64323451Y-45710546D01*
X64324161Y-45719473D01*
X64321093Y-45724346D01*
X63931240Y-46095066D01*
X63922884Y-46098283D01*
X63917479Y-46096805D01*
X63481787Y-45853785D01*
X63476231Y-45846762D01*
X63475858Y-45842275D01*
X63488962Y-45724346D01*
X63548844Y-45185408D01*
X63553163Y-45177564D01*
X63560472Y-45175000D01*
X64042837Y-45175000D01*
X64051110Y-45178427D01*
G37*
%TD.AperFunction*%
%TD*%
%TA.AperFunction,Conductor*%
%TO.N,+3V3*%
G36*
X64046372Y-43232796D02*
G01*
X64049997Y-43240985D01*
X64050000Y-43241266D01*
X64050000Y-44263300D01*
X64046573Y-44271573D01*
X64038300Y-44275000D01*
X63559711Y-44275000D01*
X63551438Y-44271573D01*
X63548211Y-44265456D01*
X63482873Y-43916899D01*
X63483493Y-43910440D01*
X63747150Y-43243705D01*
X63753378Y-43237274D01*
X63757745Y-43236313D01*
X64038019Y-43229569D01*
X64046372Y-43232796D01*
G37*
%TD.AperFunction*%
%TD*%
%TA.AperFunction,Conductor*%
%TO.N,+3V3*%
G36*
X61685939Y-41899964D02*
G01*
X61694202Y-41903412D01*
X61697608Y-41911693D01*
X61697408Y-41913820D01*
X61551790Y-42690456D01*
X61546897Y-42697956D01*
X61540290Y-42700000D01*
X61059710Y-42700000D01*
X61051437Y-42696573D01*
X61048210Y-42690456D01*
X60902591Y-41913820D01*
X60904435Y-41905057D01*
X60911935Y-41900164D01*
X60914052Y-41899964D01*
X61300000Y-41899000D01*
X61685939Y-41899964D01*
G37*
%TD.AperFunction*%
%TD*%
%TA.AperFunction,Conductor*%
%TO.N,+3V3*%
G36*
X63602816Y-45653383D02*
G01*
X63607204Y-45657074D01*
X63921080Y-46093165D01*
X63923132Y-46101882D01*
X63921080Y-46106835D01*
X63607204Y-46542925D01*
X63599590Y-46547638D01*
X63593877Y-46547145D01*
X63032869Y-46352727D01*
X63026174Y-46346780D01*
X63025000Y-46341672D01*
X63025000Y-45858327D01*
X63028427Y-45850054D01*
X63032865Y-45847274D01*
X63593877Y-45652854D01*
X63602816Y-45653383D01*
G37*
%TD.AperFunction*%
%TD*%
%TA.AperFunction,Conductor*%
%TO.N,+3V3*%
G36*
X63484252Y-45917416D02*
G01*
X63658045Y-45989017D01*
X63920783Y-46097264D01*
X63927127Y-46103584D01*
X63927411Y-46104338D01*
X64083367Y-46566033D01*
X64082768Y-46574967D01*
X64078258Y-46579835D01*
X63397284Y-46984441D01*
X63388421Y-46985721D01*
X63383035Y-46982656D01*
X63042412Y-46642033D01*
X63038985Y-46633760D01*
X63040688Y-46627682D01*
X63469800Y-45922152D01*
X63477026Y-45916866D01*
X63484252Y-45917416D01*
G37*
%TD.AperFunction*%
%TD*%
%TA.AperFunction,Conductor*%
%TO.N,+3V3*%
G36*
X62422438Y-47253926D02*
G01*
X62425669Y-47256211D01*
X62766473Y-47597015D01*
X62769900Y-47605288D01*
X62767210Y-47612752D01*
X62161733Y-48343677D01*
X62153816Y-48347862D01*
X62145259Y-48345223D01*
X62144474Y-48344510D01*
X61800955Y-48002363D01*
X61798398Y-47998535D01*
X61613348Y-47549442D01*
X61613365Y-47540489D01*
X61619709Y-47534168D01*
X61620246Y-47533962D01*
X62413497Y-47253453D01*
X62422438Y-47253926D01*
G37*
%TD.AperFunction*%
%TD*%
%TA.AperFunction,Conductor*%
%TO.N,Net-(Q4-G)*%
G36*
X117187607Y-53873709D02*
G01*
X117620029Y-53997576D01*
X117627037Y-54003148D01*
X117627293Y-54003635D01*
X117854108Y-54462080D01*
X117854705Y-54471015D01*
X117848809Y-54477755D01*
X117848285Y-54477998D01*
X117339732Y-54699030D01*
X117335068Y-54700000D01*
X117051298Y-54700000D01*
X117043025Y-54696573D01*
X117039598Y-54688300D01*
X117039755Y-54686388D01*
X117172854Y-53883047D01*
X117177587Y-53875446D01*
X117186309Y-53873417D01*
X117187607Y-53873709D01*
G37*
%TD.AperFunction*%
%TD*%
%TA.AperFunction,Conductor*%
%TO.N,Net-(Q4-G)*%
G36*
X117220759Y-54973479D02*
G01*
X117224948Y-54981393D01*
X117225000Y-54982493D01*
X117225000Y-55250000D01*
X117712754Y-55581696D01*
X117717668Y-55589182D01*
X117715850Y-55597950D01*
X117714218Y-55599869D01*
X117207291Y-56079652D01*
X117198926Y-56082850D01*
X117190951Y-56079402D01*
X116714298Y-55599869D01*
X116707035Y-55592562D01*
X116703633Y-55584279D01*
X116706318Y-55576856D01*
X117204286Y-54975033D01*
X117212200Y-54970845D01*
X117220759Y-54973479D01*
G37*
%TD.AperFunction*%
%TD*%
%TA.AperFunction,Conductor*%
%TO.N,Net-(Q4-G)*%
G36*
X122093169Y-54086533D02*
G01*
X122101317Y-54090242D01*
X122103582Y-54093767D01*
X122308041Y-54589710D01*
X122308026Y-54598664D01*
X122302217Y-54604750D01*
X121348987Y-55054575D01*
X121340043Y-55055007D01*
X121335721Y-55052267D01*
X121134586Y-54851132D01*
X121131159Y-54842859D01*
X121131799Y-54839044D01*
X121397178Y-54070883D01*
X121403118Y-54064184D01*
X121408634Y-54063012D01*
X122093169Y-54086533D01*
G37*
%TD.AperFunction*%
%TD*%
%TA.AperFunction,Conductor*%
%TO.N,Net-(Q4-G)*%
G36*
X116185350Y-54554886D02*
G01*
X116190630Y-54562118D01*
X116190960Y-54564876D01*
X116190960Y-54846997D01*
X116189515Y-54852630D01*
X115974594Y-55243893D01*
X115967607Y-55249494D01*
X115959872Y-55249074D01*
X115603499Y-55101858D01*
X115597161Y-55095532D01*
X115452115Y-54743055D01*
X115452136Y-54734102D01*
X115458483Y-54727784D01*
X115460170Y-54727236D01*
X116176503Y-54553506D01*
X116185350Y-54554886D01*
G37*
%TD.AperFunction*%
%TD*%
%TA.AperFunction,Conductor*%
%TO.N,Net-(Q3-S)*%
G36*
X119796195Y-52697436D02*
G01*
X119802542Y-52703754D01*
X119802563Y-52703804D01*
X119948621Y-53058734D01*
X119948600Y-53067688D01*
X119942256Y-53074005D01*
X119312237Y-53333426D01*
X119303282Y-53333407D01*
X119299509Y-53330880D01*
X119169119Y-53200490D01*
X119165692Y-53192217D01*
X119166572Y-53187766D01*
X119425994Y-52557742D01*
X119432313Y-52551398D01*
X119441264Y-52551378D01*
X119796195Y-52697436D01*
G37*
%TD.AperFunction*%
%TD*%
%TA.AperFunction,Conductor*%
%TO.N,Net-(Q3-S)*%
G36*
X124211044Y-53069401D02*
G01*
X124722815Y-53567426D01*
X124726354Y-53575652D01*
X124723624Y-53583324D01*
X124307877Y-54079646D01*
X124299938Y-54083788D01*
X124291821Y-54081443D01*
X124005524Y-53863501D01*
X123709384Y-53638067D01*
X123704877Y-53630329D01*
X123707161Y-53621670D01*
X123707508Y-53621237D01*
X124061200Y-53202952D01*
X124061515Y-53202609D01*
X124194612Y-53069512D01*
X124202884Y-53066086D01*
X124211044Y-53069401D01*
G37*
%TD.AperFunction*%
%TD*%
%TA.AperFunction,Conductor*%
%TO.N,Net-(Q3-S)*%
G36*
X119289339Y-53085792D02*
G01*
X119289566Y-53086013D01*
X119420849Y-53217296D01*
X119423376Y-53221069D01*
X119604433Y-53655641D01*
X119604452Y-53664596D01*
X119600811Y-53669381D01*
X119182913Y-53994010D01*
X119174277Y-53996379D01*
X119167015Y-53992570D01*
X118808608Y-53591893D01*
X118805646Y-53583442D01*
X118808834Y-53576047D01*
X119148658Y-53217296D01*
X119272799Y-53086239D01*
X119280976Y-53082590D01*
X119289339Y-53085792D01*
G37*
%TD.AperFunction*%
%TD*%
%TA.AperFunction,Conductor*%
%TO.N,Net-(Q3-S)*%
G36*
X119963868Y-52334945D02*
G01*
X120592800Y-52597000D01*
X120599119Y-52603345D01*
X120600000Y-52607800D01*
X120600000Y-52792199D01*
X120596573Y-52800472D01*
X120592800Y-52802999D01*
X119963870Y-53065053D01*
X119954915Y-53065072D01*
X119948571Y-53058755D01*
X119800875Y-52704499D01*
X119800855Y-52695550D01*
X119948572Y-52341242D01*
X119954918Y-52334926D01*
X119963868Y-52334945D01*
G37*
%TD.AperFunction*%
%TD*%
%TA.AperFunction,Conductor*%
%TO.N,Net-(Q4-D)*%
G36*
X126879197Y-61402130D02*
G01*
X127490147Y-61498446D01*
X127497785Y-61503119D01*
X127500024Y-61509974D01*
X127500980Y-61892153D01*
X127497574Y-61900434D01*
X127493747Y-61902996D01*
X127139872Y-62049179D01*
X127130917Y-62049170D01*
X127125303Y-62044268D01*
X126867283Y-61602734D01*
X126865685Y-61596831D01*
X126865685Y-61413688D01*
X126869112Y-61405415D01*
X126877385Y-61401988D01*
X126879197Y-61402130D01*
G37*
%TD.AperFunction*%
%TD*%
%TA.AperFunction,Conductor*%
%TO.N,Net-(Q4-D)*%
G36*
X124007132Y-61055606D02*
G01*
X124569368Y-61396584D01*
X124574664Y-61403803D01*
X124575000Y-61406587D01*
X124575000Y-61593412D01*
X124571573Y-61601685D01*
X124569367Y-61603416D01*
X124007133Y-61944392D01*
X123998282Y-61945752D01*
X123991570Y-61941223D01*
X123889041Y-61798773D01*
X123678918Y-61506834D01*
X123676867Y-61498118D01*
X123678919Y-61493165D01*
X123991570Y-61058775D01*
X123999184Y-61054063D01*
X124007132Y-61055606D01*
G37*
%TD.AperFunction*%
%TD*%
%TA.AperFunction,Conductor*%
%TO.N,/VSYS*%
G36*
X129096195Y-61897436D02*
G01*
X129102542Y-61903754D01*
X129102563Y-61903804D01*
X129248621Y-62258734D01*
X129248600Y-62267688D01*
X129242256Y-62274005D01*
X128612237Y-62533426D01*
X128603282Y-62533407D01*
X128599509Y-62530880D01*
X128469119Y-62400490D01*
X128465692Y-62392217D01*
X128466572Y-62387766D01*
X128725994Y-61757742D01*
X128732313Y-61751398D01*
X128741264Y-61751378D01*
X129096195Y-61897436D01*
G37*
%TD.AperFunction*%
%TD*%
%TA.AperFunction,Conductor*%
%TO.N,/VSYS*%
G36*
X124007132Y-63155606D02*
G01*
X124569368Y-63496584D01*
X124574664Y-63503803D01*
X124575000Y-63506587D01*
X124575000Y-63693412D01*
X124571573Y-63701685D01*
X124569367Y-63703416D01*
X124007133Y-64044392D01*
X123998282Y-64045752D01*
X123991570Y-64041223D01*
X123889041Y-63898773D01*
X123678918Y-63606834D01*
X123676867Y-63598118D01*
X123678919Y-63593165D01*
X123991570Y-63158775D01*
X123999184Y-63154063D01*
X124007132Y-63155606D01*
G37*
%TD.AperFunction*%
%TD*%
%TA.AperFunction,Conductor*%
%TO.N,/NOISE_ALARM*%
G36*
X72865932Y-62884758D02*
G01*
X72870856Y-62890374D01*
X73020093Y-63248324D01*
X73020994Y-63252855D01*
X73020033Y-63637251D01*
X73016585Y-63645516D01*
X73008304Y-63648922D01*
X73006857Y-63648828D01*
X72240070Y-63551300D01*
X72232295Y-63546857D01*
X72229846Y-63539694D01*
X72229846Y-63059000D01*
X72233273Y-63050727D01*
X72238542Y-63047692D01*
X72857056Y-62883567D01*
X72865932Y-62884758D01*
G37*
%TD.AperFunction*%
%TD*%
%TA.AperFunction,Conductor*%
%TO.N,/NOISE_ALARM*%
G36*
X72572181Y-62903063D02*
G01*
X72574439Y-62905045D01*
X72805764Y-63167914D01*
X73012737Y-63403111D01*
X73015630Y-63411585D01*
X73011683Y-63419623D01*
X73011082Y-63420118D01*
X72429074Y-63867220D01*
X72420425Y-63869543D01*
X72416527Y-63868311D01*
X71813781Y-63553282D01*
X71808036Y-63546413D01*
X71807500Y-63542913D01*
X71807500Y-63059622D01*
X71810927Y-63051349D01*
X71816940Y-63048142D01*
X72563404Y-62901297D01*
X72572181Y-62903063D01*
G37*
%TD.AperFunction*%
%TD*%
%TA.AperFunction,Conductor*%
%TO.N,/NOISE_ALARM*%
G36*
X73183701Y-62885858D02*
G01*
X73184062Y-62886015D01*
X73776787Y-63159364D01*
X73782864Y-63165941D01*
X73783587Y-63169989D01*
X73783587Y-63650614D01*
X73780160Y-63658887D01*
X73771887Y-63662314D01*
X73771703Y-63662313D01*
X73031487Y-63650680D01*
X73023269Y-63647123D01*
X73019971Y-63639010D01*
X73019005Y-63252850D01*
X73019904Y-63248329D01*
X73168401Y-62892153D01*
X73174747Y-62885837D01*
X73183701Y-62885858D01*
G37*
%TD.AperFunction*%
%TD*%
%TA.AperFunction,Conductor*%
%TO.N,/NOISE_ALARM*%
G36*
X73572289Y-62921446D02*
G01*
X74224813Y-63159693D01*
X74231409Y-63165749D01*
X74232500Y-63170683D01*
X74232500Y-63654316D01*
X74229073Y-63662589D01*
X74224813Y-63665306D01*
X73572292Y-63903552D01*
X73563345Y-63903171D01*
X73560439Y-63901247D01*
X73028621Y-63421185D01*
X73024776Y-63413098D01*
X73027776Y-63404660D01*
X73028621Y-63403815D01*
X73295952Y-63162500D01*
X73560440Y-62923751D01*
X73568877Y-62920752D01*
X73572289Y-62921446D01*
G37*
%TD.AperFunction*%
%TD*%
%TA.AperFunction,Conductor*%
%TO.N,/NOISE_ALARM*%
G36*
X75164795Y-62945449D02*
G01*
X75169177Y-62948908D01*
X75495401Y-63367811D01*
X75497781Y-63376444D01*
X75495401Y-63382189D01*
X75168560Y-63801883D01*
X75160773Y-63806305D01*
X75156525Y-63806053D01*
X74583896Y-63664696D01*
X74576685Y-63659386D01*
X74575000Y-63653337D01*
X74575000Y-63170614D01*
X74578427Y-63162341D01*
X74582597Y-63159656D01*
X75155846Y-62945139D01*
X75164795Y-62945449D01*
G37*
%TD.AperFunction*%
%TD*%
%TA.AperFunction,Conductor*%
%TO.N,/CHARGER_PHASE*%
G36*
X123867688Y-66851399D02*
G01*
X123874005Y-66857743D01*
X124133426Y-67487762D01*
X124133407Y-67496717D01*
X124130880Y-67500490D01*
X124000490Y-67630880D01*
X123992217Y-67634307D01*
X123987762Y-67633426D01*
X123357743Y-67374005D01*
X123351398Y-67367686D01*
X123351378Y-67358735D01*
X123497437Y-67003802D01*
X123503753Y-66997457D01*
X123858735Y-66851378D01*
X123867688Y-66851399D01*
G37*
%TD.AperFunction*%
%TD*%
%TA.AperFunction,Conductor*%
%TO.N,/CHARGER_PHASE*%
G36*
X125625473Y-70103427D02*
G01*
X125628000Y-70107200D01*
X125890053Y-70736129D01*
X125890072Y-70745084D01*
X125883755Y-70751428D01*
X125529502Y-70899123D01*
X125520548Y-70899144D01*
X125520498Y-70899123D01*
X125166244Y-70751428D01*
X125159926Y-70745081D01*
X125159945Y-70736131D01*
X125422000Y-70107199D01*
X125428345Y-70100881D01*
X125432800Y-70100000D01*
X125617200Y-70100000D01*
X125625473Y-70103427D01*
G37*
%TD.AperFunction*%
%TD*%
%TA.AperFunction,Conductor*%
%TO.N,Net-(D6-A)*%
G36*
X133208427Y-42704608D02*
G01*
X133599963Y-43004096D01*
X134381537Y-43601926D01*
X134386027Y-43609674D01*
X134383722Y-43618327D01*
X134382702Y-43619492D01*
X133689091Y-44313103D01*
X133680818Y-44316530D01*
X133679364Y-44316439D01*
X132361849Y-44151483D01*
X132354066Y-44147055D01*
X132351694Y-44138420D01*
X132351719Y-44138230D01*
X132473641Y-43303749D01*
X132477765Y-43296424D01*
X133193871Y-42704881D01*
X133202429Y-42702255D01*
X133208427Y-42704608D01*
G37*
%TD.AperFunction*%
%TD*%
%TA.AperFunction,Conductor*%
%TO.N,Net-(D7-A)*%
G36*
X133699861Y-47073325D02*
G01*
X133702239Y-47075158D01*
X134396315Y-47769234D01*
X134399742Y-47777507D01*
X134396315Y-47785780D01*
X134396309Y-47785786D01*
X133455662Y-48725080D01*
X133447387Y-48728501D01*
X133442676Y-48727507D01*
X132479487Y-48302996D01*
X132473299Y-48296524D01*
X132472879Y-48295218D01*
X132258040Y-47461269D01*
X132259295Y-47452404D01*
X132266390Y-47447038D01*
X133690988Y-47072116D01*
X133699861Y-47073325D01*
G37*
%TD.AperFunction*%
%TD*%
%TA.AperFunction,Conductor*%
%TO.N,/CHARGER_BATSRC*%
G36*
X102095340Y-70607776D02*
G01*
X102096181Y-70608617D01*
X102575549Y-71139665D01*
X102578549Y-71148103D01*
X102577265Y-71152862D01*
X102240767Y-71806157D01*
X102233933Y-71811943D01*
X102230366Y-71812500D01*
X101944634Y-71812500D01*
X101936361Y-71809073D01*
X101934233Y-71806158D01*
X101597733Y-71152861D01*
X101596992Y-71143938D01*
X101599447Y-71139669D01*
X102078815Y-70608620D01*
X102086902Y-70604776D01*
X102095340Y-70607776D01*
G37*
%TD.AperFunction*%
%TD*%
%TA.AperFunction,Conductor*%
%TO.N,/CHARGER_BATSRC*%
G36*
X113398051Y-78865230D02*
G01*
X113401372Y-78871932D01*
X113498206Y-79586762D01*
X113495921Y-79595421D01*
X113488183Y-79599927D01*
X113486641Y-79600033D01*
X113104875Y-79600987D01*
X113096594Y-79597581D01*
X113096558Y-79597546D01*
X113094440Y-79595421D01*
X113045504Y-79546312D01*
X112824718Y-79324744D01*
X112821306Y-79316464D01*
X112824050Y-79308958D01*
X113196493Y-78865973D01*
X113204440Y-78861847D01*
X113205448Y-78861803D01*
X113389778Y-78861803D01*
X113398051Y-78865230D01*
G37*
%TD.AperFunction*%
%TD*%
%TA.AperFunction,Conductor*%
%TO.N,/CHARGER_BATSRC*%
G36*
X113306833Y-78178918D02*
G01*
X113603927Y-78392750D01*
X113741223Y-78491569D01*
X113745936Y-78499183D01*
X113744392Y-78507132D01*
X113403416Y-79069367D01*
X113396196Y-79074664D01*
X113393412Y-79075000D01*
X113206588Y-79075000D01*
X113198315Y-79071573D01*
X113196584Y-79069367D01*
X112855607Y-78507132D01*
X112854247Y-78498281D01*
X112858775Y-78491569D01*
X113293165Y-78178918D01*
X113301882Y-78176867D01*
X113306833Y-78178918D01*
G37*
%TD.AperFunction*%
%TD*%
%TA.AperFunction,Conductor*%
%TO.N,Net-(D3-K)*%
G36*
X108065548Y-70034178D02*
G01*
X108265821Y-70234451D01*
X108269248Y-70242724D01*
X108268041Y-70247900D01*
X107974387Y-70843268D01*
X107967654Y-70849171D01*
X107959442Y-70848912D01*
X107603804Y-70702563D01*
X107597457Y-70696245D01*
X107597436Y-70696195D01*
X107451087Y-70340557D01*
X107451108Y-70331603D01*
X107456730Y-70325612D01*
X108052099Y-70031957D01*
X108061035Y-70031372D01*
X108065548Y-70034178D01*
G37*
%TD.AperFunction*%
%TD*%
%TA.AperFunction,Conductor*%
%TO.N,Net-(D3-K)*%
G36*
X109360332Y-69124448D02*
G01*
X109625785Y-69364069D01*
X109891378Y-69603815D01*
X109895223Y-69611902D01*
X109892223Y-69620340D01*
X109891378Y-69621185D01*
X109360334Y-70100549D01*
X109351896Y-70103549D01*
X109347136Y-70102265D01*
X108693842Y-69765766D01*
X108688057Y-69758932D01*
X108687500Y-69755365D01*
X108687500Y-69469634D01*
X108690927Y-69461361D01*
X108693840Y-69459234D01*
X109347138Y-69122733D01*
X109356061Y-69121992D01*
X109360332Y-69124448D01*
G37*
%TD.AperFunction*%
%TD*%
%TA.AperFunction,Conductor*%
%TO.N,Net-(D4-A)*%
G36*
X64670758Y-57757285D02*
G01*
X64905534Y-57992844D01*
X64958258Y-58045744D01*
X64961671Y-58054022D01*
X64961512Y-58055926D01*
X64914130Y-58340223D01*
X64909390Y-58347821D01*
X64902589Y-58350000D01*
X64422411Y-58350000D01*
X64414138Y-58346573D01*
X64410870Y-58340223D01*
X64363487Y-58055924D01*
X64365507Y-58047203D01*
X64366736Y-58045749D01*
X64654214Y-57757313D01*
X64662481Y-57753873D01*
X64670758Y-57757285D01*
G37*
%TD.AperFunction*%
%TD*%
%TA.AperFunction,Conductor*%
%TO.N,Net-(Q3-G)*%
G36*
X112889778Y-57759714D02*
G01*
X112896401Y-57765741D01*
X112897514Y-57770722D01*
X112897514Y-58053970D01*
X112894087Y-58062243D01*
X112889393Y-58065109D01*
X112263312Y-58266262D01*
X112254387Y-58265530D01*
X112248934Y-58259625D01*
X112100875Y-57904499D01*
X112100855Y-57895550D01*
X112248788Y-57540724D01*
X112255134Y-57534408D01*
X112263548Y-57534220D01*
X112889778Y-57759714D01*
G37*
%TD.AperFunction*%
%TD*%
%TA.AperFunction,Conductor*%
%TO.N,Net-(Q3-G)*%
G36*
X116660332Y-57424448D02*
G01*
X116925785Y-57664069D01*
X117191378Y-57903815D01*
X117195223Y-57911902D01*
X117192223Y-57920340D01*
X117191378Y-57921185D01*
X116660334Y-58400549D01*
X116651896Y-58403549D01*
X116647136Y-58402265D01*
X115993842Y-58065766D01*
X115988057Y-58058932D01*
X115987500Y-58055365D01*
X115987500Y-57769634D01*
X115990927Y-57761361D01*
X115993840Y-57759234D01*
X116647138Y-57422733D01*
X116656061Y-57421992D01*
X116660332Y-57424448D01*
G37*
%TD.AperFunction*%
%TD*%
%TA.AperFunction,Conductor*%
%TO.N,/CHARGER_BATDRV*%
G36*
X100188542Y-70453427D02*
G01*
X100190734Y-70456468D01*
X100333735Y-70742471D01*
X100334370Y-70751403D01*
X100331557Y-70755962D01*
X100045787Y-71042685D01*
X100037519Y-71046126D01*
X100029241Y-71042713D01*
X100029213Y-71042685D01*
X99743442Y-70755962D01*
X99740029Y-70747684D01*
X99741264Y-70742471D01*
X99884266Y-70456468D01*
X99891031Y-70450600D01*
X99894731Y-70450000D01*
X100180269Y-70450000D01*
X100188542Y-70453427D01*
G37*
%TD.AperFunction*%
%TD*%
%TA.AperFunction,Conductor*%
%TO.N,/CHARGER_BATDRV*%
G36*
X101594328Y-68094553D02*
G01*
X102080503Y-68591821D01*
X102083836Y-68600132D01*
X102080503Y-68608179D01*
X101594328Y-69105446D01*
X101586094Y-69108966D01*
X101579314Y-69106894D01*
X101067552Y-68753488D01*
X101062691Y-68745968D01*
X101062500Y-68743861D01*
X101062500Y-68456138D01*
X101065927Y-68447865D01*
X101067552Y-68446511D01*
X101579316Y-68093104D01*
X101588069Y-68091223D01*
X101594328Y-68094553D01*
G37*
%TD.AperFunction*%
%TD*%
%TA.AperFunction,Conductor*%
%TO.N,/NOISE*%
G36*
X68608017Y-50401137D02*
G01*
X69370496Y-50991862D01*
X69374937Y-50999638D01*
X69372579Y-51008277D01*
X69371598Y-51009389D01*
X68604257Y-51775748D01*
X68595982Y-51779170D01*
X68594066Y-51779011D01*
X67829777Y-51651629D01*
X67822179Y-51646888D01*
X67820000Y-51640088D01*
X67820000Y-51154957D01*
X67823427Y-51146684D01*
X67823513Y-51146598D01*
X68592713Y-50401979D01*
X68601041Y-50398688D01*
X68608017Y-50401137D01*
G37*
%TD.AperFunction*%
%TD*%
%TA.AperFunction,Conductor*%
%TO.N,/NOISE*%
G36*
X64670758Y-50357285D02*
G01*
X64905534Y-50592844D01*
X64958258Y-50645744D01*
X64961671Y-50654022D01*
X64961512Y-50655926D01*
X64914130Y-50940223D01*
X64909390Y-50947821D01*
X64902589Y-50950000D01*
X64422411Y-50950000D01*
X64414138Y-50946573D01*
X64410870Y-50940223D01*
X64363487Y-50655924D01*
X64365507Y-50647203D01*
X64366736Y-50645749D01*
X64654214Y-50357313D01*
X64662481Y-50353873D01*
X64670758Y-50357285D01*
G37*
%TD.AperFunction*%
%TD*%
%TA.AperFunction,Conductor*%
%TO.N,/NOISE*%
G36*
X64910862Y-55253427D02*
G01*
X64914130Y-55259777D01*
X64961512Y-55544073D01*
X64959492Y-55552797D01*
X64958258Y-55554255D01*
X64670787Y-55842685D01*
X64662519Y-55846126D01*
X64654241Y-55842713D01*
X64654213Y-55842685D01*
X64366741Y-55554255D01*
X64363328Y-55545977D01*
X64363486Y-55544083D01*
X64410870Y-55259775D01*
X64415611Y-55252179D01*
X64422411Y-55250000D01*
X64902589Y-55250000D01*
X64910862Y-55253427D01*
G37*
%TD.AperFunction*%
%TD*%
%TA.AperFunction,Conductor*%
%TO.N,/NOISE*%
G36*
X64671949Y-50355099D02*
G01*
X65169685Y-50639672D01*
X65175166Y-50646753D01*
X65174035Y-50655636D01*
X65171283Y-50658887D01*
X65138915Y-50685347D01*
X64794839Y-51029423D01*
X64786566Y-51032850D01*
X64778293Y-51029423D01*
X64777252Y-51028230D01*
X64494910Y-50656156D01*
X64492639Y-50647495D01*
X64494069Y-50643286D01*
X64655990Y-50359464D01*
X64663066Y-50353976D01*
X64671949Y-50355099D01*
G37*
%TD.AperFunction*%
%TD*%
%TA.AperFunction,Conductor*%
%TO.N,Net-(U9-Vin-)*%
G36*
X74059890Y-55083634D02*
G01*
X74065834Y-55089787D01*
X74359133Y-55795510D01*
X74359144Y-55804465D01*
X74359133Y-55804490D01*
X74065834Y-56510212D01*
X74059495Y-56516537D01*
X74050940Y-56516683D01*
X72807610Y-56052839D01*
X72801057Y-56046737D01*
X72800000Y-56041877D01*
X72800000Y-55558122D01*
X72803427Y-55549849D01*
X72807606Y-55547162D01*
X74050942Y-55083315D01*
X74059890Y-55083634D01*
G37*
%TD.AperFunction*%
%TD*%
%TA.AperFunction,Conductor*%
%TO.N,Net-(U9-Vin-)*%
G36*
X67896573Y-55553427D02*
G01*
X67900000Y-55561700D01*
X67900000Y-56040318D01*
X67896573Y-56048591D01*
X67890489Y-56051811D01*
X67539912Y-56118588D01*
X67532931Y-56117769D01*
X66943213Y-55853013D01*
X66937069Y-55846498D01*
X66936309Y-55842642D01*
X66929030Y-55562003D01*
X66932241Y-55553644D01*
X66940423Y-55550004D01*
X66940726Y-55550000D01*
X67888300Y-55550000D01*
X67896573Y-55553427D01*
G37*
%TD.AperFunction*%
%TD*%
%TA.AperFunction,Conductor*%
%TO.N,Net-(U8-VCC)*%
G36*
X110027273Y-66765927D02*
G01*
X110028498Y-66767370D01*
X110394603Y-67276974D01*
X110396647Y-67285692D01*
X110393400Y-67292048D01*
X109908064Y-67780385D01*
X109899801Y-67783837D01*
X109891706Y-67780619D01*
X109382317Y-67296642D01*
X109378680Y-67288459D01*
X109380625Y-67281695D01*
X109721529Y-66767732D01*
X109728958Y-66762733D01*
X109731279Y-66762500D01*
X110019000Y-66762500D01*
X110027273Y-66765927D01*
G37*
%TD.AperFunction*%
%TD*%
%TA.AperFunction,Conductor*%
%TO.N,Net-(U8-VCC)*%
G36*
X109882187Y-66104597D02*
G01*
X110086003Y-66263320D01*
X110300431Y-66430309D01*
X110304853Y-66438096D01*
X110303788Y-66444606D01*
X110028187Y-67018366D01*
X110021516Y-67024340D01*
X110017641Y-67025000D01*
X109732359Y-67025000D01*
X109724086Y-67021573D01*
X109721813Y-67018366D01*
X109446211Y-66444606D01*
X109445717Y-66435665D01*
X109449568Y-66430309D01*
X109867811Y-66104597D01*
X109876444Y-66102218D01*
X109882187Y-66104597D01*
G37*
%TD.AperFunction*%
%TD*%
%TA.AperFunction,Conductor*%
%TO.N,Net-(U8-VCC)*%
G36*
X121406969Y-65504567D02*
G01*
X122033073Y-65694118D01*
X122140739Y-65726714D01*
X122147664Y-65732391D01*
X122148547Y-65741302D01*
X122148169Y-65742364D01*
X122002853Y-66095496D01*
X121996535Y-66101843D01*
X121996500Y-66101858D01*
X121641095Y-66248674D01*
X121632140Y-66248665D01*
X121625885Y-66242494D01*
X121392839Y-65702218D01*
X121391882Y-65697584D01*
X121391882Y-65515766D01*
X121395309Y-65507493D01*
X121403582Y-65504066D01*
X121406969Y-65504567D01*
G37*
%TD.AperFunction*%
%TD*%
%TA.AperFunction,Conductor*%
%TO.N,Net-(U8-VCC)*%
G36*
X110670596Y-65504114D02*
G01*
X110675140Y-65511830D01*
X110675254Y-65513457D01*
X110675254Y-65697044D01*
X110673850Y-65702601D01*
X110330610Y-66338598D01*
X110323665Y-66344251D01*
X110314757Y-66343337D01*
X110314659Y-66343284D01*
X109878831Y-66102667D01*
X109873245Y-66095668D01*
X109872987Y-66094585D01*
X109787426Y-65637033D01*
X109789274Y-65628272D01*
X109796776Y-65623382D01*
X109797284Y-65623299D01*
X110661928Y-65501871D01*
X110670596Y-65504114D01*
G37*
%TD.AperFunction*%
%TD*%
%TA.AperFunction,Conductor*%
%TO.N,Net-(U10-Vin+)*%
G36*
X65019439Y-47619680D02*
G01*
X65059461Y-47636366D01*
X65065779Y-47642713D01*
X65066038Y-47650925D01*
X64852695Y-48279560D01*
X64846792Y-48286293D01*
X64841616Y-48287500D01*
X64558384Y-48287500D01*
X64550111Y-48284073D01*
X64547305Y-48279560D01*
X64333961Y-47650925D01*
X64334547Y-47641989D01*
X64340537Y-47636366D01*
X64695500Y-47488375D01*
X64704449Y-47488355D01*
X65019439Y-47619680D01*
G37*
%TD.AperFunction*%
%TD*%
%TA.AperFunction,Conductor*%
%TO.N,Net-(U10-Vin+)*%
G36*
X64850635Y-47853427D02*
G01*
X64853073Y-47856992D01*
X64978542Y-48142441D01*
X64978734Y-48151394D01*
X64975856Y-48155663D01*
X64671042Y-48442948D01*
X64662671Y-48446129D01*
X64654504Y-48442459D01*
X64533290Y-48312988D01*
X64386565Y-48156267D01*
X64383412Y-48147886D01*
X64384916Y-48142523D01*
X64546642Y-47855949D01*
X64553692Y-47850429D01*
X64556831Y-47850000D01*
X64842362Y-47850000D01*
X64850635Y-47853427D01*
G37*
%TD.AperFunction*%
%TD*%
%TA.AperFunction,Conductor*%
%TO.N,Net-(U8-ACDRV)*%
G36*
X119700473Y-59603427D02*
G01*
X119703000Y-59607200D01*
X119965053Y-60236129D01*
X119965072Y-60245084D01*
X119958755Y-60251428D01*
X119604502Y-60399123D01*
X119595548Y-60399144D01*
X119595498Y-60399123D01*
X119241244Y-60251428D01*
X119234926Y-60245081D01*
X119234945Y-60236131D01*
X119497000Y-59607199D01*
X119503345Y-59600881D01*
X119507800Y-59600000D01*
X119692200Y-59600000D01*
X119700473Y-59603427D01*
G37*
%TD.AperFunction*%
%TD*%
%TA.AperFunction,Conductor*%
%TO.N,Net-(U8-ACDRV)*%
G36*
X122093169Y-55911533D02*
G01*
X122101317Y-55915242D01*
X122103582Y-55918767D01*
X122307854Y-56414255D01*
X122307839Y-56423209D01*
X122301569Y-56429501D01*
X121313434Y-56844688D01*
X121304480Y-56844733D01*
X121300629Y-56842174D01*
X121169643Y-56711188D01*
X121166216Y-56702915D01*
X121166670Y-56699688D01*
X121397478Y-55896489D01*
X121403057Y-55889485D01*
X121409122Y-55888028D01*
X122093169Y-55911533D01*
G37*
%TD.AperFunction*%
%TD*%
%TA.AperFunction,Conductor*%
%TO.N,Net-(U8-CMSRC)*%
G36*
X120700467Y-59603526D02*
G01*
X120702997Y-59607305D01*
X120964561Y-60236124D01*
X120964565Y-60236132D01*
X120964578Y-60245087D01*
X120958264Y-60251425D01*
X120604005Y-60399123D01*
X120595051Y-60399144D01*
X120595001Y-60399123D01*
X120240755Y-60251431D01*
X120234437Y-60245084D01*
X120234457Y-60236131D01*
X120496997Y-59607290D01*
X120503347Y-59600977D01*
X120507794Y-59600099D01*
X120692194Y-59600099D01*
X120700467Y-59603526D01*
G37*
%TD.AperFunction*%
%TD*%
%TA.AperFunction,Conductor*%
%TO.N,Net-(U8-CMSRC)*%
G36*
X124293169Y-55911533D02*
G01*
X124301317Y-55915242D01*
X124303582Y-55918767D01*
X124507854Y-56414255D01*
X124507839Y-56423209D01*
X124501569Y-56429501D01*
X123513434Y-56844688D01*
X123504480Y-56844733D01*
X123500629Y-56842174D01*
X123369643Y-56711188D01*
X123366216Y-56702915D01*
X123366670Y-56699688D01*
X123597478Y-55896489D01*
X123603057Y-55889485D01*
X123609122Y-55888028D01*
X124293169Y-55911533D01*
G37*
%TD.AperFunction*%
%TD*%
%TA.AperFunction,Conductor*%
%TO.N,Net-(U8-BATDRV)*%
G36*
X119196695Y-72297436D02*
G01*
X119203042Y-72303754D01*
X119203063Y-72303804D01*
X119349121Y-72658734D01*
X119349100Y-72667688D01*
X119342756Y-72674005D01*
X118712737Y-72933426D01*
X118703782Y-72933407D01*
X118700009Y-72930880D01*
X118569619Y-72800490D01*
X118566192Y-72792217D01*
X118567072Y-72787766D01*
X118826494Y-72157742D01*
X118832813Y-72151398D01*
X118841764Y-72151378D01*
X119196695Y-72297436D01*
G37*
%TD.AperFunction*%
%TD*%
%TA.AperFunction,Conductor*%
%TO.N,Net-(U8-BATDRV)*%
G36*
X104422898Y-68410998D02*
G01*
X104429015Y-68417538D01*
X104429051Y-68417636D01*
X104812357Y-69466488D01*
X104811978Y-69475435D01*
X104809641Y-69478777D01*
X104678855Y-69609563D01*
X104670582Y-69612990D01*
X104666420Y-69612225D01*
X103854390Y-69303165D01*
X103847877Y-69297019D01*
X103846903Y-69291137D01*
X103911109Y-68606577D01*
X103915294Y-68598662D01*
X103918639Y-68596721D01*
X104413949Y-68410699D01*
X104422898Y-68410998D01*
G37*
%TD.AperFunction*%
%TD*%
%TA.AperFunction,Conductor*%
%TO.N,Net-(U8-BATSRC)*%
G36*
X104422898Y-70410998D02*
G01*
X104429015Y-70417538D01*
X104429051Y-70417636D01*
X104812357Y-71466488D01*
X104811978Y-71475435D01*
X104809641Y-71478777D01*
X104678855Y-71609563D01*
X104670582Y-71612990D01*
X104666420Y-71612225D01*
X103854390Y-71303165D01*
X103847877Y-71297019D01*
X103846903Y-71291137D01*
X103911109Y-70606577D01*
X103915294Y-70598662D01*
X103918639Y-70596721D01*
X104413949Y-70410699D01*
X104422898Y-70410998D01*
G37*
%TD.AperFunction*%
%TD*%
%TA.AperFunction,Conductor*%
%TO.N,Net-(U8-BATSRC)*%
G36*
X117851428Y-73841244D02*
G01*
X117999123Y-74195498D01*
X117999144Y-74204452D01*
X117999123Y-74204502D01*
X117851428Y-74558755D01*
X117845081Y-74565073D01*
X117836129Y-74565053D01*
X117207200Y-74302999D01*
X117200881Y-74296654D01*
X117200000Y-74292199D01*
X117200000Y-74107800D01*
X117203427Y-74099527D01*
X117207200Y-74097000D01*
X117836131Y-73834945D01*
X117845084Y-73834927D01*
X117851428Y-73841244D01*
G37*
%TD.AperFunction*%
%TD*%
%TA.AperFunction,Conductor*%
%TO.N,Net-(U10-Vin-)*%
G36*
X74080310Y-47783307D02*
G01*
X74085553Y-47789111D01*
X74379133Y-48495510D01*
X74379144Y-48504465D01*
X74379133Y-48504490D01*
X74086166Y-49209415D01*
X74079827Y-49215740D01*
X74070872Y-49215729D01*
X74070476Y-49215556D01*
X72846705Y-48653131D01*
X72840619Y-48646562D01*
X72839891Y-48642500D01*
X72839891Y-48158717D01*
X72843318Y-48150444D01*
X72848241Y-48147507D01*
X74071402Y-47782390D01*
X74080310Y-47783307D01*
G37*
%TD.AperFunction*%
%TD*%
%TA.AperFunction,Conductor*%
%TO.N,Net-(U10-Vin-)*%
G36*
X67896573Y-48153427D02*
G01*
X67900000Y-48161700D01*
X67900000Y-48640318D01*
X67896573Y-48648591D01*
X67890489Y-48651811D01*
X67539912Y-48718588D01*
X67532931Y-48717769D01*
X66943213Y-48453013D01*
X66937069Y-48446498D01*
X66936309Y-48442642D01*
X66929030Y-48162003D01*
X66932241Y-48153644D01*
X66940423Y-48150004D01*
X66940726Y-48150000D01*
X67888300Y-48150000D01*
X67896573Y-48153427D01*
G37*
%TD.AperFunction*%
%TD*%
%TA.AperFunction,Conductor*%
%TO.N,Net-(U1-XTAL1{slash}PB6)*%
G36*
X90324117Y-57654149D02*
G01*
X90327201Y-57659609D01*
X90610492Y-58803228D01*
X90609155Y-58812082D01*
X90603626Y-58816845D01*
X89927235Y-59097992D01*
X89918280Y-59098003D01*
X89914463Y-59095453D01*
X89396557Y-58576570D01*
X89393138Y-58568294D01*
X89395214Y-58561651D01*
X90021511Y-57655767D01*
X90029035Y-57650912D01*
X90031135Y-57650722D01*
X90315844Y-57650722D01*
X90324117Y-57654149D01*
G37*
%TD.AperFunction*%
%TD*%
%TA.AperFunction,Conductor*%
%TO.N,Net-(U1-XTAL1{slash}PB6)*%
G36*
X90182187Y-57104597D02*
G01*
X90386003Y-57263320D01*
X90600431Y-57430309D01*
X90604853Y-57438096D01*
X90603788Y-57444606D01*
X90328187Y-58018366D01*
X90321516Y-58024340D01*
X90317641Y-58025000D01*
X90032359Y-58025000D01*
X90024086Y-58021573D01*
X90021813Y-58018366D01*
X89746211Y-57444606D01*
X89745717Y-57435665D01*
X89749568Y-57430309D01*
X90167811Y-57104597D01*
X90176444Y-57102218D01*
X90182187Y-57104597D01*
G37*
%TD.AperFunction*%
%TD*%
M02*
