%TF.GenerationSoftware,KiCad,Pcbnew,8.0.2-8.0.2-0~ubuntu22.04.1*%
%TF.CreationDate,2024-05-11T00:12:29+03:00*%
%TF.ProjectId,outdoor-module,6f757464-6f6f-4722-9d6d-6f64756c652e,rev?*%
%TF.SameCoordinates,Original*%
%TF.FileFunction,Copper,L3,Inr*%
%TF.FilePolarity,Positive*%
%FSLAX46Y46*%
G04 Gerber Fmt 4.6, Leading zero omitted, Abs format (unit mm)*
G04 Created by KiCad (PCBNEW 8.0.2-8.0.2-0~ubuntu22.04.1) date 2024-05-11 00:12:29*
%MOMM*%
%LPD*%
G01*
G04 APERTURE LIST*
G04 Aperture macros list*
%AMRoundRect*
0 Rectangle with rounded corners*
0 $1 Rounding radius*
0 $2 $3 $4 $5 $6 $7 $8 $9 X,Y pos of 4 corners*
0 Add a 4 corners polygon primitive as box body*
4,1,4,$2,$3,$4,$5,$6,$7,$8,$9,$2,$3,0*
0 Add four circle primitives for the rounded corners*
1,1,$1+$1,$2,$3*
1,1,$1+$1,$4,$5*
1,1,$1+$1,$6,$7*
1,1,$1+$1,$8,$9*
0 Add four rect primitives between the rounded corners*
20,1,$1+$1,$2,$3,$4,$5,0*
20,1,$1+$1,$4,$5,$6,$7,0*
20,1,$1+$1,$6,$7,$8,$9,0*
20,1,$1+$1,$8,$9,$2,$3,0*%
G04 Aperture macros list end*
%TA.AperFunction,ComponentPad*%
%ADD10C,1.500000*%
%TD*%
%TA.AperFunction,ComponentPad*%
%ADD11C,1.524000*%
%TD*%
%TA.AperFunction,ComponentPad*%
%ADD12R,1.800000X1.800000*%
%TD*%
%TA.AperFunction,ComponentPad*%
%ADD13C,1.800000*%
%TD*%
%TA.AperFunction,ComponentPad*%
%ADD14R,1.700000X1.700000*%
%TD*%
%TA.AperFunction,ComponentPad*%
%ADD15O,1.700000X1.700000*%
%TD*%
%TA.AperFunction,ComponentPad*%
%ADD16R,1.600000X1.600000*%
%TD*%
%TA.AperFunction,ComponentPad*%
%ADD17C,1.600000*%
%TD*%
%TA.AperFunction,ComponentPad*%
%ADD18R,1.560000X1.560000*%
%TD*%
%TA.AperFunction,ComponentPad*%
%ADD19C,1.560000*%
%TD*%
%TA.AperFunction,ComponentPad*%
%ADD20C,2.000000*%
%TD*%
%TA.AperFunction,HeatsinkPad*%
%ADD21C,0.500000*%
%TD*%
%TA.AperFunction,ComponentPad*%
%ADD22RoundRect,0.250000X0.750000X-0.600000X0.750000X0.600000X-0.750000X0.600000X-0.750000X-0.600000X0*%
%TD*%
%TA.AperFunction,ComponentPad*%
%ADD23O,2.000000X1.700000*%
%TD*%
%TA.AperFunction,ViaPad*%
%ADD24C,0.800000*%
%TD*%
%TA.AperFunction,Conductor*%
%ADD25C,0.500000*%
%TD*%
%TA.AperFunction,Conductor*%
%ADD26C,1.000000*%
%TD*%
%TA.AperFunction,Conductor*%
%ADD27C,0.200000*%
%TD*%
%TA.AperFunction,Conductor*%
%ADD28C,0.300000*%
%TD*%
G04 APERTURE END LIST*
D10*
%TO.N,Net-(U1-XTAL2{slash}PB7)*%
%TO.C,X1*%
X94800000Y-59100000D03*
%TO.N,Net-(U1-XTAL1{slash}PB6)*%
X89920000Y-59100000D03*
%TD*%
D11*
%TO.N,GNDA*%
%TO.C,TP2*%
X107900000Y-42100000D03*
%TD*%
D12*
%TO.N,Net-(D1-A1)*%
%TO.C,D1*%
X63700000Y-64050000D03*
D13*
%TO.N,Net-(D1-K)*%
X63700000Y-66590000D03*
%TO.N,Net-(D1-A2)*%
X63700000Y-69130000D03*
%TD*%
D14*
%TO.N,/MOSI*%
%TO.C,J2*%
X102075000Y-52775000D03*
D15*
%TO.N,+5V*%
X99535000Y-52775000D03*
%TO.N,unconnected-(J2-Pin_3-Pad3)*%
X102075000Y-50235000D03*
%TO.N,/RXD*%
X99535000Y-50235000D03*
%TO.N,/RESET#*%
X102075000Y-47695000D03*
%TO.N,/TXD*%
X99535000Y-47695000D03*
%TO.N,/SCK*%
X102075000Y-45155000D03*
%TO.N,GNDA*%
X99535000Y-45155000D03*
%TO.N,/MISO*%
X102075000Y-42615000D03*
%TO.N,GNDA*%
X99535000Y-42615000D03*
%TD*%
D16*
%TO.N,/VBAT*%
%TO.C,C7*%
X107200000Y-78017621D03*
D17*
%TO.N,GNDA*%
X107200000Y-80517621D03*
%TD*%
D18*
%TO.N,/NOISE*%
%TO.C,RV3*%
X69380000Y-51000000D03*
D19*
%TO.N,Net-(U10-Vin-)*%
X74380000Y-48500000D03*
%TO.N,GNDA*%
X69380000Y-46000000D03*
%TD*%
D16*
%TO.N,/VBAT*%
%TO.C,C3*%
X98600000Y-78017621D03*
D17*
%TO.N,GNDPWR*%
X98600000Y-80517621D03*
%TD*%
D20*
%TO.N,/FM_OUT*%
%TO.C,U2*%
X69740000Y-78000000D03*
%TO.N,+5V*%
X67200000Y-78000000D03*
%TO.N,GNDA*%
X64660000Y-78000000D03*
%TD*%
D18*
%TO.N,+5V*%
%TO.C,RV1*%
X69360000Y-58300000D03*
D19*
%TO.N,Net-(U9-Vin-)*%
X74360000Y-55800000D03*
%TO.N,GNDA*%
X69360000Y-53300000D03*
%TD*%
D17*
%TO.N,/CHARGER_SUPPLY*%
%TO.C,RV2*%
X114250000Y-41300000D03*
%TO.N,GNDPWR*%
X112150000Y-46300000D03*
%TD*%
D21*
%TO.N,GNDPWR*%
%TO.C,U8*%
X121850000Y-64100000D03*
X120800000Y-64100000D03*
X119750000Y-64100000D03*
X121850000Y-65150000D03*
X120800000Y-65150000D03*
X119750000Y-65150000D03*
X121850000Y-66200000D03*
X120800000Y-66200000D03*
X119750000Y-66200000D03*
%TD*%
D14*
%TO.N,GNDPWR*%
%TO.C,J1*%
X80975000Y-80450000D03*
D15*
%TO.N,Net-(J1-Pin_2)*%
X80975000Y-77910000D03*
%TD*%
D22*
%TO.N,GNDPWR*%
%TO.C,J3*%
X133075000Y-45650000D03*
D23*
%TO.N,Net-(D6-A1)*%
X133075000Y-43150000D03*
%TD*%
D24*
%TO.N,+5V*%
X63300000Y-59900000D03*
X125400000Y-74400000D03*
X68800000Y-40800000D03*
X72950560Y-64987500D03*
X91000000Y-54900000D03*
X81100000Y-66800000D03*
X82400000Y-50400000D03*
X116900000Y-60350000D03*
X73900000Y-51600000D03*
X73050560Y-68687500D03*
%TO.N,GNDA*%
X123000000Y-67200000D03*
X108200000Y-61112500D03*
X71200000Y-40400000D03*
X66200000Y-72600000D03*
X106500000Y-66700000D03*
X124000000Y-57000000D03*
X90000000Y-48000000D03*
X117000000Y-80200000D03*
X78800000Y-49200000D03*
X88800000Y-66800000D03*
%TO.N,Net-(U8-ILIM)*%
X124800000Y-66000000D03*
X123326256Y-68404425D03*
%TO.N,GNDPWR*%
X135300000Y-53050000D03*
X124800000Y-67550000D03*
X126000000Y-71700000D03*
X126800000Y-71700000D03*
%TO.N,/RESET#*%
X84200000Y-48300000D03*
%TO.N,+3V3*%
X61300000Y-41900000D03*
%TO.N,Net-(Q4-G)*%
X114300415Y-52269392D03*
X118600000Y-57400000D03*
%TO.N,Net-(Q3-S)*%
X118500415Y-49869392D03*
%TO.N,/VSYS*%
X132325000Y-59200000D03*
X89968750Y-71668750D03*
%TO.N,/NOISE_ALARM*%
X73020000Y-63250500D03*
%TO.N,Net-(Q5-S)*%
X124800000Y-63550000D03*
X126825000Y-67450000D03*
%TO.N,/CHARGER_BATSRC*%
X133200000Y-74400000D03*
X133200000Y-73400000D03*
X118200000Y-76800000D03*
%TO.N,/VBAT*%
X114700000Y-76500000D03*
%TO.N,/RXD*%
X89100000Y-49600000D03*
%TO.N,/TXD*%
X87819622Y-49419622D03*
%TO.N,Net-(Q3-G)*%
X110800415Y-55069392D03*
%TO.N,/SDA*%
X114578063Y-64666487D03*
X83395892Y-46000000D03*
X129800000Y-79000000D03*
X82800000Y-42800000D03*
%TO.N,/SCL*%
X80600000Y-42800000D03*
X114400000Y-65650000D03*
X129800000Y-80000000D03*
X82900000Y-47100000D03*
%TO.N,/CHARGER_SRP*%
X116900000Y-74000000D03*
X122000000Y-72600000D03*
%TO.N,Net-(U8-VCC)*%
X122900000Y-60600000D03*
X107800000Y-67600000D03*
%TO.N,Net-(U10-Vin+)*%
X64700000Y-47487500D03*
%TO.N,Net-(U8-ACDRV)*%
X120900000Y-56950000D03*
%TO.N,Net-(U8-CMSRC)*%
X121899503Y-56950000D03*
%TO.N,Net-(U8-BATDRV)*%
X120300000Y-69200000D03*
%TO.N,Net-(U8-BATSRC)*%
X119803860Y-68331754D03*
%TO.N,Net-(U12-VIN_+)*%
X122000000Y-76600000D03*
%TO.N,Net-(U12-VIN_-)*%
X119800000Y-76600000D03*
%TO.N,Net-(D7-K)*%
X124800000Y-43200000D03*
X126000000Y-43200000D03*
X126000000Y-42200000D03*
X124800000Y-42200000D03*
%TD*%
D25*
%TO.N,+5V*%
X116900000Y-61250000D02*
X116900000Y-60350000D01*
X115300000Y-62850000D02*
X116900000Y-61250000D01*
D26*
X105950000Y-62950000D02*
X115300000Y-62950000D01*
D25*
X115300000Y-62950000D02*
X115350000Y-62950000D01*
X125400000Y-73697918D02*
X125400000Y-74400000D01*
X116700000Y-64300000D02*
X116700000Y-67900000D01*
X119450000Y-70650000D02*
X122352082Y-70650000D01*
X115300000Y-62950000D02*
X115300000Y-62850000D01*
X116700000Y-67900000D02*
X119450000Y-70650000D01*
D26*
X99535000Y-52775000D02*
X99535000Y-56535000D01*
D25*
X115350000Y-62950000D02*
X116700000Y-64300000D01*
X122352082Y-70650000D02*
X125400000Y-73697918D01*
D26*
X99535000Y-56535000D02*
X105950000Y-62950000D01*
D25*
%TO.N,GNDA*%
X123900000Y-66122182D02*
X123900000Y-57100000D01*
X123000000Y-67022182D02*
X123900000Y-66122182D01*
X123900000Y-57100000D02*
X124000000Y-57000000D01*
X123000000Y-67200000D02*
X123000000Y-67022182D01*
D27*
%TO.N,Net-(U8-ILIM)*%
X123595575Y-68404425D02*
X124100000Y-67900000D01*
X124100000Y-66700000D02*
X124800000Y-66000000D01*
X123326256Y-68404425D02*
X123595575Y-68404425D01*
X124100000Y-67900000D02*
X124100000Y-66700000D01*
D28*
%TO.N,/SDA*%
X83595892Y-46200000D02*
X89400000Y-46200000D01*
X115600000Y-65600000D02*
X115600000Y-68392894D01*
X106266487Y-64666487D02*
X114578063Y-64666487D01*
X115600000Y-68392894D02*
X126207106Y-79000000D01*
X83395892Y-46000000D02*
X83595892Y-46200000D01*
X83395892Y-46000000D02*
X83395892Y-43395892D01*
X83395892Y-43395892D02*
X82800000Y-42800000D01*
X114578063Y-64666487D02*
X114666487Y-64666487D01*
X91400000Y-49800000D02*
X106266487Y-64666487D01*
X91400000Y-48200000D02*
X91400000Y-49800000D01*
X89400000Y-46200000D02*
X91400000Y-48200000D01*
X114666487Y-64666487D02*
X115600000Y-65600000D01*
X126207106Y-79000000D02*
X129800000Y-79000000D01*
%TO.N,/SCL*%
X81100000Y-42800000D02*
X80600000Y-42800000D01*
X129800000Y-80000000D02*
X126500000Y-80000000D01*
X82900000Y-47100000D02*
X82600000Y-46800000D01*
X106210661Y-65650000D02*
X87660661Y-47100000D01*
X126500000Y-80000000D02*
X114400000Y-67900000D01*
X114400000Y-67900000D02*
X114400000Y-65650000D01*
X87660661Y-47100000D02*
X82900000Y-47100000D01*
X82600000Y-44300000D02*
X81100000Y-42800000D01*
X82600000Y-46800000D02*
X82600000Y-44300000D01*
X106210661Y-65650000D02*
X114400000Y-65650000D01*
%TD*%
%TA.AperFunction,Conductor*%
%TO.N,+5V*%
G36*
X117285939Y-60349964D02*
G01*
X117294202Y-60353412D01*
X117297608Y-60361693D01*
X117297408Y-60363820D01*
X117151790Y-61140456D01*
X117146897Y-61147956D01*
X117140290Y-61150000D01*
X116659710Y-61150000D01*
X116651437Y-61146573D01*
X116648210Y-61140456D01*
X116502591Y-60363820D01*
X116504435Y-60355057D01*
X116511935Y-60350164D01*
X116514052Y-60349964D01*
X116900000Y-60349000D01*
X117285939Y-60349964D01*
G37*
%TD.AperFunction*%
%TD*%
%TA.AperFunction,Conductor*%
%TO.N,+5V*%
G36*
X125510647Y-73465339D02*
G01*
X125513485Y-73469948D01*
X125706285Y-74054958D01*
X125766160Y-74236635D01*
X125765495Y-74245565D01*
X125759550Y-74251096D01*
X125405200Y-74398833D01*
X125396246Y-74398854D01*
X125396210Y-74398839D01*
X125040020Y-74250902D01*
X125033694Y-74244564D01*
X125033241Y-74236945D01*
X125153159Y-73808404D01*
X125156150Y-73803290D01*
X125494102Y-73465338D01*
X125502374Y-73461912D01*
X125510647Y-73465339D01*
G37*
%TD.AperFunction*%
%TD*%
%TA.AperFunction,Conductor*%
%TO.N,+5V*%
G36*
X99539484Y-52775863D02*
G01*
X100311365Y-53096569D01*
X100317690Y-53102908D01*
X100318332Y-53109751D01*
X100036935Y-54465677D01*
X100031898Y-54473082D01*
X100025479Y-54475000D01*
X99044521Y-54475000D01*
X99036248Y-54471573D01*
X99033065Y-54465677D01*
X98751667Y-53109751D01*
X98753341Y-53100955D01*
X98758631Y-53096570D01*
X99530511Y-52775864D01*
X99539466Y-52775856D01*
X99539484Y-52775863D01*
G37*
%TD.AperFunction*%
%TD*%
%TA.AperFunction,Conductor*%
%TO.N,GNDA*%
G36*
X124002171Y-56999905D02*
G01*
X124359363Y-57148825D01*
X124365681Y-57155172D01*
X124365904Y-57163490D01*
X124152743Y-57772275D01*
X124146774Y-57778951D01*
X124141700Y-57780109D01*
X123660974Y-57780109D01*
X123652701Y-57776682D01*
X123649298Y-57769157D01*
X123600795Y-57012414D01*
X123603686Y-57003941D01*
X123611723Y-56999992D01*
X123612413Y-56999968D01*
X123997648Y-56999005D01*
X124002171Y-56999905D01*
G37*
%TD.AperFunction*%
%TD*%
%TA.AperFunction,Conductor*%
%TO.N,GNDA*%
G36*
X123290333Y-66394332D02*
G01*
X123630237Y-66734236D01*
X123633664Y-66742509D01*
X123632696Y-66747170D01*
X123374123Y-67342546D01*
X123367684Y-67348769D01*
X123358939Y-67348705D01*
X123001472Y-67201603D01*
X122997630Y-67199035D01*
X122725650Y-66925692D01*
X122722244Y-66917411D01*
X122725692Y-66909146D01*
X122725900Y-66908944D01*
X123274050Y-66394076D01*
X123282426Y-66390911D01*
X123290333Y-66394332D01*
G37*
%TD.AperFunction*%
%TD*%
%TA.AperFunction,Conductor*%
%TO.N,Net-(U8-ILIM)*%
G36*
X123919740Y-67944996D02*
G01*
X123920657Y-67945822D01*
X124050983Y-68076148D01*
X124054410Y-68084421D01*
X124052099Y-68091402D01*
X123617161Y-68676423D01*
X123609475Y-68681017D01*
X123600791Y-68678831D01*
X123599520Y-68677736D01*
X123329005Y-68408571D01*
X123325557Y-68400307D01*
X123326237Y-68014930D01*
X123329678Y-68006665D01*
X123336703Y-68003318D01*
X123911152Y-67942460D01*
X123919740Y-67944996D01*
G37*
%TD.AperFunction*%
%TD*%
%TA.AperFunction,Conductor*%
%TO.N,Net-(U8-ILIM)*%
G36*
X124796195Y-65997436D02*
G01*
X124802542Y-66003754D01*
X124802563Y-66003804D01*
X124948621Y-66358734D01*
X124948600Y-66367688D01*
X124942256Y-66374005D01*
X124312237Y-66633426D01*
X124303282Y-66633407D01*
X124299509Y-66630880D01*
X124172230Y-66503601D01*
X124168803Y-66495328D01*
X124172230Y-66487055D01*
X124260489Y-66398796D01*
X124319799Y-66296069D01*
X124326286Y-66271855D01*
X124350499Y-66181493D01*
X124350500Y-66181493D01*
X124350500Y-66043400D01*
X124351380Y-66038947D01*
X124425994Y-65857742D01*
X124432313Y-65851398D01*
X124441264Y-65851378D01*
X124796195Y-65997436D01*
G37*
%TD.AperFunction*%
%TD*%
%TA.AperFunction,Conductor*%
%TO.N,/SDA*%
G36*
X83686810Y-45723059D02*
G01*
X84065685Y-46000000D01*
X84129293Y-46046494D01*
X84133950Y-46054143D01*
X84134089Y-46055940D01*
X84134089Y-46339065D01*
X84130662Y-46347338D01*
X84123180Y-46350738D01*
X83408351Y-46399156D01*
X83399865Y-46396296D01*
X83395887Y-46388274D01*
X83395860Y-46387535D01*
X83394904Y-46004874D01*
X83398310Y-45996594D01*
X83671649Y-45724217D01*
X83679928Y-45720806D01*
X83686810Y-45723059D01*
G37*
%TD.AperFunction*%
%TD*%
%TA.AperFunction,Conductor*%
%TO.N,/SDA*%
G36*
X114423573Y-64301034D02*
G01*
X114429196Y-64307025D01*
X114577186Y-64661985D01*
X114577207Y-64670939D01*
X114577186Y-64670989D01*
X114429196Y-65025948D01*
X114422849Y-65032266D01*
X114414637Y-65032525D01*
X113786003Y-64819181D01*
X113779270Y-64813278D01*
X113778063Y-64808102D01*
X113778063Y-64524871D01*
X113781490Y-64516598D01*
X113786001Y-64513792D01*
X114414638Y-64300448D01*
X114423573Y-64301034D01*
G37*
%TD.AperFunction*%
%TD*%
%TA.AperFunction,Conductor*%
%TO.N,/SDA*%
G36*
X83545781Y-45203427D02*
G01*
X83548587Y-45207940D01*
X83761930Y-45836574D01*
X83761344Y-45845510D01*
X83755353Y-45851133D01*
X83400394Y-45999123D01*
X83391440Y-45999144D01*
X83391390Y-45999123D01*
X83036430Y-45851133D01*
X83030112Y-45844786D01*
X83029853Y-45836575D01*
X83243197Y-45207939D01*
X83249100Y-45201207D01*
X83254276Y-45200000D01*
X83537508Y-45200000D01*
X83545781Y-45203427D01*
G37*
%TD.AperFunction*%
%TD*%
%TA.AperFunction,Conductor*%
%TO.N,/SDA*%
G36*
X83168396Y-42651108D02*
G01*
X83174387Y-42656731D01*
X83468041Y-43252099D01*
X83468627Y-43261035D01*
X83465821Y-43265548D01*
X83265548Y-43465821D01*
X83257275Y-43469248D01*
X83252099Y-43468041D01*
X82656731Y-43174387D01*
X82650828Y-43167654D01*
X82651087Y-43159442D01*
X82797437Y-42803802D01*
X82803753Y-42797457D01*
X83159442Y-42651087D01*
X83168396Y-42651108D01*
G37*
%TD.AperFunction*%
%TD*%
%TA.AperFunction,Conductor*%
%TO.N,/SDA*%
G36*
X114947285Y-64517255D02*
G01*
X114952800Y-64522010D01*
X115280319Y-65064956D01*
X115280502Y-65065258D01*
X115281841Y-65074112D01*
X115278757Y-65079574D01*
X115078476Y-65279855D01*
X115070203Y-65283282D01*
X115066004Y-65282503D01*
X114749887Y-65160959D01*
X114746964Y-65159320D01*
X114702846Y-65125468D01*
X114702847Y-65125468D01*
X114702841Y-65125464D01*
X114702837Y-65125462D01*
X114702832Y-65125459D01*
X114556764Y-65064956D01*
X114556763Y-65064955D01*
X114472123Y-65053812D01*
X114469451Y-65053133D01*
X114436168Y-65040336D01*
X114429676Y-65034168D01*
X114429446Y-65025216D01*
X114429517Y-65025036D01*
X114575500Y-64670289D01*
X114581816Y-64663944D01*
X114938332Y-64517234D01*
X114947285Y-64517255D01*
G37*
%TD.AperFunction*%
%TD*%
%TA.AperFunction,Conductor*%
%TO.N,/SDA*%
G36*
X129645510Y-78634547D02*
G01*
X129651133Y-78640538D01*
X129799123Y-78995498D01*
X129799144Y-79004452D01*
X129799123Y-79004502D01*
X129651133Y-79359461D01*
X129644786Y-79365779D01*
X129636574Y-79366038D01*
X129007940Y-79152694D01*
X129001207Y-79146791D01*
X129000000Y-79141615D01*
X129000000Y-78858384D01*
X129003427Y-78850111D01*
X129007938Y-78847305D01*
X129636575Y-78633961D01*
X129645510Y-78634547D01*
G37*
%TD.AperFunction*%
%TD*%
%TA.AperFunction,Conductor*%
%TO.N,/SCL*%
G36*
X80890905Y-42523013D02*
G01*
X80892519Y-42524186D01*
X81407114Y-42898014D01*
X81411793Y-42905649D01*
X81409703Y-42914357D01*
X81408510Y-42915753D01*
X81208859Y-43115404D01*
X81202151Y-43118726D01*
X80613241Y-43198212D01*
X80604584Y-43195922D01*
X80600081Y-43188182D01*
X80599976Y-43186638D01*
X80599301Y-42804166D01*
X80602711Y-42795891D01*
X80875780Y-42524184D01*
X80884058Y-42520780D01*
X80890905Y-42523013D01*
G37*
%TD.AperFunction*%
%TD*%
%TA.AperFunction,Conductor*%
%TO.N,/SCL*%
G36*
X129645510Y-79634547D02*
G01*
X129651133Y-79640538D01*
X129799123Y-79995498D01*
X129799144Y-80004452D01*
X129799123Y-80004502D01*
X129651133Y-80359461D01*
X129644786Y-80365779D01*
X129636574Y-80366038D01*
X129007940Y-80152694D01*
X129001207Y-80146791D01*
X129000000Y-80141615D01*
X129000000Y-79858384D01*
X129003427Y-79850111D01*
X129007938Y-79847305D01*
X129636575Y-79633961D01*
X129645510Y-79634547D01*
G37*
%TD.AperFunction*%
%TD*%
%TA.AperFunction,Conductor*%
%TO.N,/SCL*%
G36*
X82753345Y-46427299D02*
G01*
X82933672Y-46590983D01*
X83173766Y-46808918D01*
X83177588Y-46817016D01*
X83174565Y-46825445D01*
X83174190Y-46825840D01*
X82903441Y-47097546D01*
X82895174Y-47100987D01*
X82895124Y-47100987D01*
X82510839Y-47100027D01*
X82502574Y-47096579D01*
X82499200Y-47089190D01*
X82450930Y-46436826D01*
X82453737Y-46428323D01*
X82461735Y-46424295D01*
X82462598Y-46424263D01*
X82745482Y-46424263D01*
X82753345Y-46427299D01*
G37*
%TD.AperFunction*%
%TD*%
%TA.AperFunction,Conductor*%
%TO.N,/SCL*%
G36*
X114719439Y-65782180D02*
G01*
X114759461Y-65798866D01*
X114765779Y-65805213D01*
X114766038Y-65813425D01*
X114552695Y-66442060D01*
X114546792Y-66448793D01*
X114541616Y-66450000D01*
X114258384Y-66450000D01*
X114250111Y-66446573D01*
X114247305Y-66442060D01*
X114033961Y-65813425D01*
X114034547Y-65804489D01*
X114040537Y-65798866D01*
X114395500Y-65650875D01*
X114404449Y-65650855D01*
X114719439Y-65782180D01*
G37*
%TD.AperFunction*%
%TD*%
%TA.AperFunction,Conductor*%
%TO.N,/SCL*%
G36*
X83692060Y-46947305D02*
G01*
X83698793Y-46953208D01*
X83700000Y-46958384D01*
X83700000Y-47241615D01*
X83696573Y-47249888D01*
X83692060Y-47252694D01*
X83063425Y-47466038D01*
X83054489Y-47465452D01*
X83048866Y-47459461D01*
X83032180Y-47419439D01*
X82900875Y-47104499D01*
X82900855Y-47095550D01*
X83048866Y-46740537D01*
X83055213Y-46734220D01*
X83063424Y-46733961D01*
X83692060Y-46947305D01*
G37*
%TD.AperFunction*%
%TD*%
%TA.AperFunction,Conductor*%
%TO.N,/SCL*%
G36*
X114245510Y-65284547D02*
G01*
X114251133Y-65290538D01*
X114399123Y-65645498D01*
X114399144Y-65654452D01*
X114399123Y-65654502D01*
X114251133Y-66009461D01*
X114244786Y-66015779D01*
X114236574Y-66016038D01*
X113607940Y-65802694D01*
X113601207Y-65796791D01*
X113600000Y-65791615D01*
X113600000Y-65508384D01*
X113603427Y-65500111D01*
X113607938Y-65497305D01*
X114236575Y-65283961D01*
X114245510Y-65284547D01*
G37*
%TD.AperFunction*%
%TD*%
M02*
