%TF.GenerationSoftware,KiCad,Pcbnew,8.0.2-8.0.2-0~ubuntu22.04.1*%
%TF.CreationDate,2024-05-11T00:12:31+03:00*%
%TF.ProjectId,outdoor-module,6f757464-6f6f-4722-9d6d-6f64756c652e,rev?*%
%TF.SameCoordinates,Original*%
%TF.FileFunction,Drillmap*%
%TF.FilePolarity,Positive*%
%FSLAX45Y45*%
G04 Gerber Fmt 4.5, Leading zero omitted, Abs format (unit mm)*
G04 Created by KiCad (PCBNEW 8.0.2-8.0.2-0~ubuntu22.04.1) date 2024-05-11 00:12:31*
%MOMM*%
%LPD*%
G01*
G04 APERTURE LIST*
%ADD10C,0.100000*%
%ADD11C,0.200000*%
G04 APERTURE END LIST*
D10*
X13700000Y-4000000D02*
X6000000Y-4000000D01*
X6000000Y-8300000D02*
X13700000Y-8300000D01*
X4100000Y-4000000D02*
X4100000Y-5000000D01*
X4100000Y-5000000D02*
X6000000Y-5000000D01*
X6000000Y-5000000D02*
X6000000Y-8300000D01*
X6000000Y-4000000D02*
X4100000Y-4000000D01*
X13700000Y-8300000D02*
X13700000Y-4000000D01*
D11*
D10*
X11965000Y-6400000D02*
X11985000Y-6420000D01*
X11985000Y-6400000D02*
X11965000Y-6420000D01*
X11965000Y-6505000D02*
X11985000Y-6525000D01*
X11985000Y-6505000D02*
X11965000Y-6525000D01*
X11965000Y-6610000D02*
X11985000Y-6630000D01*
X11985000Y-6610000D02*
X11965000Y-6630000D01*
X12070000Y-6400000D02*
X12090000Y-6420000D01*
X12090000Y-6400000D02*
X12070000Y-6420000D01*
X12070000Y-6505000D02*
X12090000Y-6525000D01*
X12090000Y-6505000D02*
X12070000Y-6525000D01*
X12070000Y-6610000D02*
X12090000Y-6630000D01*
X12090000Y-6610000D02*
X12070000Y-6630000D01*
X12175000Y-6400000D02*
X12195000Y-6420000D01*
X12195000Y-6400000D02*
X12175000Y-6420000D01*
X12175000Y-6505000D02*
X12195000Y-6525000D01*
X12195000Y-6505000D02*
X12175000Y-6525000D01*
X12175000Y-6610000D02*
X12195000Y-6630000D01*
X12195000Y-6610000D02*
X12175000Y-6630000D01*
X6150000Y-4190000D02*
G75*
G02*
X6110000Y-4190000I-20000J0D01*
G01*
X6110000Y-4190000D02*
G75*
G02*
X6150000Y-4190000I20000J0D01*
G01*
X6350000Y-5990000D02*
G75*
G02*
X6310000Y-5990000I-20000J0D01*
G01*
X6310000Y-5990000D02*
G75*
G02*
X6350000Y-5990000I20000J0D01*
G01*
X6490000Y-4748750D02*
G75*
G02*
X6450000Y-4748750I-20000J0D01*
G01*
X6450000Y-4748750D02*
G75*
G02*
X6490000Y-4748750I20000J0D01*
G01*
X6640000Y-7260000D02*
G75*
G02*
X6600000Y-7260000I-20000J0D01*
G01*
X6600000Y-7260000D02*
G75*
G02*
X6640000Y-7260000I20000J0D01*
G01*
X6900000Y-4080000D02*
G75*
G02*
X6860000Y-4080000I-20000J0D01*
G01*
X6860000Y-4080000D02*
G75*
G02*
X6900000Y-4080000I20000J0D01*
G01*
X7140000Y-4040000D02*
G75*
G02*
X7100000Y-4040000I-20000J0D01*
G01*
X7100000Y-4040000D02*
G75*
G02*
X7140000Y-4040000I20000J0D01*
G01*
X7315056Y-6498750D02*
G75*
G02*
X7275056Y-6498750I-20000J0D01*
G01*
X7275056Y-6498750D02*
G75*
G02*
X7315056Y-6498750I20000J0D01*
G01*
X7322000Y-6325050D02*
G75*
G02*
X7282000Y-6325050I-20000J0D01*
G01*
X7282000Y-6325050D02*
G75*
G02*
X7322000Y-6325050I20000J0D01*
G01*
X7325056Y-6868750D02*
G75*
G02*
X7285056Y-6868750I-20000J0D01*
G01*
X7285056Y-6868750D02*
G75*
G02*
X7325056Y-6868750I20000J0D01*
G01*
X7410000Y-5160000D02*
G75*
G02*
X7370000Y-5160000I-20000J0D01*
G01*
X7370000Y-5160000D02*
G75*
G02*
X7410000Y-5160000I20000J0D01*
G01*
X7900000Y-4920000D02*
G75*
G02*
X7860000Y-4920000I-20000J0D01*
G01*
X7860000Y-4920000D02*
G75*
G02*
X7900000Y-4920000I20000J0D01*
G01*
X8080000Y-4280000D02*
G75*
G02*
X8040000Y-4280000I-20000J0D01*
G01*
X8040000Y-4280000D02*
G75*
G02*
X8080000Y-4280000I20000J0D01*
G01*
X8130000Y-6680000D02*
G75*
G02*
X8090000Y-6680000I-20000J0D01*
G01*
X8090000Y-6680000D02*
G75*
G02*
X8130000Y-6680000I20000J0D01*
G01*
X8260000Y-5040000D02*
G75*
G02*
X8220000Y-5040000I-20000J0D01*
G01*
X8220000Y-5040000D02*
G75*
G02*
X8260000Y-5040000I20000J0D01*
G01*
X8300000Y-4280000D02*
G75*
G02*
X8260000Y-4280000I-20000J0D01*
G01*
X8260000Y-4280000D02*
G75*
G02*
X8300000Y-4280000I20000J0D01*
G01*
X8310000Y-4710000D02*
G75*
G02*
X8270000Y-4710000I-20000J0D01*
G01*
X8270000Y-4710000D02*
G75*
G02*
X8310000Y-4710000I20000J0D01*
G01*
X8359589Y-4600000D02*
G75*
G02*
X8319589Y-4600000I-20000J0D01*
G01*
X8319589Y-4600000D02*
G75*
G02*
X8359589Y-4600000I20000J0D01*
G01*
X8440000Y-4830000D02*
G75*
G02*
X8400000Y-4830000I-20000J0D01*
G01*
X8400000Y-4830000D02*
G75*
G02*
X8440000Y-4830000I20000J0D01*
G01*
X8801962Y-4941962D02*
G75*
G02*
X8761962Y-4941962I-20000J0D01*
G01*
X8761962Y-4941962D02*
G75*
G02*
X8801962Y-4941962I20000J0D01*
G01*
X8900000Y-6680000D02*
G75*
G02*
X8860000Y-6680000I-20000J0D01*
G01*
X8860000Y-6680000D02*
G75*
G02*
X8900000Y-6680000I20000J0D01*
G01*
X8930000Y-4960000D02*
G75*
G02*
X8890000Y-4960000I-20000J0D01*
G01*
X8890000Y-4960000D02*
G75*
G02*
X8930000Y-4960000I20000J0D01*
G01*
X9016875Y-7166875D02*
G75*
G02*
X8976875Y-7166875I-20000J0D01*
G01*
X8976875Y-7166875D02*
G75*
G02*
X9016875Y-7166875I20000J0D01*
G01*
X9020000Y-4800000D02*
G75*
G02*
X8980000Y-4800000I-20000J0D01*
G01*
X8980000Y-4800000D02*
G75*
G02*
X9020000Y-4800000I20000J0D01*
G01*
X9120000Y-5490000D02*
G75*
G02*
X9080000Y-5490000I-20000J0D01*
G01*
X9080000Y-5490000D02*
G75*
G02*
X9120000Y-5490000I20000J0D01*
G01*
X10670000Y-6670000D02*
G75*
G02*
X10630000Y-6670000I-20000J0D01*
G01*
X10630000Y-6670000D02*
G75*
G02*
X10670000Y-6670000I20000J0D01*
G01*
X10800000Y-6760000D02*
G75*
G02*
X10760000Y-6760000I-20000J0D01*
G01*
X10760000Y-6760000D02*
G75*
G02*
X10800000Y-6760000I20000J0D01*
G01*
X10840000Y-6111250D02*
G75*
G02*
X10800000Y-6111250I-20000J0D01*
G01*
X10800000Y-6111250D02*
G75*
G02*
X10840000Y-6111250I20000J0D01*
G01*
X11100042Y-5506939D02*
G75*
G02*
X11060042Y-5506939I-20000J0D01*
G01*
X11060042Y-5506939D02*
G75*
G02*
X11100042Y-5506939I20000J0D01*
G01*
X11450041Y-5226939D02*
G75*
G02*
X11410041Y-5226939I-20000J0D01*
G01*
X11410041Y-5226939D02*
G75*
G02*
X11450041Y-5226939I20000J0D01*
G01*
X11460000Y-6565000D02*
G75*
G02*
X11420000Y-6565000I-20000J0D01*
G01*
X11420000Y-6565000D02*
G75*
G02*
X11460000Y-6565000I20000J0D01*
G01*
X11477806Y-6466649D02*
G75*
G02*
X11437806Y-6466649I-20000J0D01*
G01*
X11437806Y-6466649D02*
G75*
G02*
X11477806Y-6466649I20000J0D01*
G01*
X11490000Y-7650000D02*
G75*
G02*
X11450000Y-7650000I-20000J0D01*
G01*
X11450000Y-7650000D02*
G75*
G02*
X11490000Y-7650000I20000J0D01*
G01*
X11710000Y-6035000D02*
G75*
G02*
X11670000Y-6035000I-20000J0D01*
G01*
X11670000Y-6035000D02*
G75*
G02*
X11710000Y-6035000I20000J0D01*
G01*
X11710000Y-7400000D02*
G75*
G02*
X11670000Y-7400000I-20000J0D01*
G01*
X11670000Y-7400000D02*
G75*
G02*
X11710000Y-7400000I20000J0D01*
G01*
X11720000Y-8020000D02*
G75*
G02*
X11680000Y-8020000I-20000J0D01*
G01*
X11680000Y-8020000D02*
G75*
G02*
X11720000Y-8020000I20000J0D01*
G01*
X11840000Y-7680000D02*
G75*
G02*
X11800000Y-7680000I-20000J0D01*
G01*
X11800000Y-7680000D02*
G75*
G02*
X11840000Y-7680000I20000J0D01*
G01*
X11870041Y-4986939D02*
G75*
G02*
X11830041Y-4986939I-20000J0D01*
G01*
X11830041Y-4986939D02*
G75*
G02*
X11870041Y-4986939I20000J0D01*
G01*
X11880000Y-5740000D02*
G75*
G02*
X11840000Y-5740000I-20000J0D01*
G01*
X11840000Y-5740000D02*
G75*
G02*
X11880000Y-5740000I20000J0D01*
G01*
X12000000Y-7660000D02*
G75*
G02*
X11960000Y-7660000I-20000J0D01*
G01*
X11960000Y-7660000D02*
G75*
G02*
X12000000Y-7660000I20000J0D01*
G01*
X12000386Y-6833175D02*
G75*
G02*
X11960386Y-6833175I-20000J0D01*
G01*
X11960386Y-6833175D02*
G75*
G02*
X12000386Y-6833175I20000J0D01*
G01*
X12050000Y-6920000D02*
G75*
G02*
X12010000Y-6920000I-20000J0D01*
G01*
X12010000Y-6920000D02*
G75*
G02*
X12050000Y-6920000I20000J0D01*
G01*
X12110000Y-5695000D02*
G75*
G02*
X12070000Y-5695000I-20000J0D01*
G01*
X12070000Y-5695000D02*
G75*
G02*
X12110000Y-5695000I20000J0D01*
G01*
X12209950Y-5695000D02*
G75*
G02*
X12169950Y-5695000I-20000J0D01*
G01*
X12169950Y-5695000D02*
G75*
G02*
X12209950Y-5695000I20000J0D01*
G01*
X12220000Y-7260000D02*
G75*
G02*
X12180000Y-7260000I-20000J0D01*
G01*
X12180000Y-7260000D02*
G75*
G02*
X12220000Y-7260000I20000J0D01*
G01*
X12220000Y-7660000D02*
G75*
G02*
X12180000Y-7660000I-20000J0D01*
G01*
X12180000Y-7660000D02*
G75*
G02*
X12220000Y-7660000I20000J0D01*
G01*
X12310000Y-6060000D02*
G75*
G02*
X12270000Y-6060000I-20000J0D01*
G01*
X12270000Y-6060000D02*
G75*
G02*
X12310000Y-6060000I20000J0D01*
G01*
X12320000Y-6720000D02*
G75*
G02*
X12280000Y-6720000I-20000J0D01*
G01*
X12280000Y-6720000D02*
G75*
G02*
X12320000Y-6720000I20000J0D01*
G01*
X12352626Y-6840442D02*
G75*
G02*
X12312626Y-6840442I-20000J0D01*
G01*
X12312626Y-6840442D02*
G75*
G02*
X12352626Y-6840442I20000J0D01*
G01*
X12420000Y-5700000D02*
G75*
G02*
X12380000Y-5700000I-20000J0D01*
G01*
X12380000Y-5700000D02*
G75*
G02*
X12420000Y-5700000I20000J0D01*
G01*
X12500000Y-4220000D02*
G75*
G02*
X12460000Y-4220000I-20000J0D01*
G01*
X12460000Y-4220000D02*
G75*
G02*
X12500000Y-4220000I20000J0D01*
G01*
X12500000Y-4320000D02*
G75*
G02*
X12460000Y-4320000I-20000J0D01*
G01*
X12460000Y-4320000D02*
G75*
G02*
X12500000Y-4320000I20000J0D01*
G01*
X12500000Y-6355000D02*
G75*
G02*
X12460000Y-6355000I-20000J0D01*
G01*
X12460000Y-6355000D02*
G75*
G02*
X12500000Y-6355000I20000J0D01*
G01*
X12500000Y-6600000D02*
G75*
G02*
X12460000Y-6600000I-20000J0D01*
G01*
X12460000Y-6600000D02*
G75*
G02*
X12500000Y-6600000I20000J0D01*
G01*
X12500000Y-6755000D02*
G75*
G02*
X12460000Y-6755000I-20000J0D01*
G01*
X12460000Y-6755000D02*
G75*
G02*
X12500000Y-6755000I20000J0D01*
G01*
X12560000Y-7440000D02*
G75*
G02*
X12520000Y-7440000I-20000J0D01*
G01*
X12520000Y-7440000D02*
G75*
G02*
X12560000Y-7440000I20000J0D01*
G01*
X12620000Y-4220000D02*
G75*
G02*
X12580000Y-4220000I-20000J0D01*
G01*
X12580000Y-4220000D02*
G75*
G02*
X12620000Y-4220000I20000J0D01*
G01*
X12620000Y-4320000D02*
G75*
G02*
X12580000Y-4320000I-20000J0D01*
G01*
X12580000Y-4320000D02*
G75*
G02*
X12620000Y-4320000I20000J0D01*
G01*
X12620000Y-7170000D02*
G75*
G02*
X12580000Y-7170000I-20000J0D01*
G01*
X12580000Y-7170000D02*
G75*
G02*
X12620000Y-7170000I20000J0D01*
G01*
X12700000Y-7170000D02*
G75*
G02*
X12660000Y-7170000I-20000J0D01*
G01*
X12660000Y-7170000D02*
G75*
G02*
X12700000Y-7170000I20000J0D01*
G01*
X12702500Y-6745000D02*
G75*
G02*
X12662500Y-6745000I-20000J0D01*
G01*
X12662500Y-6745000D02*
G75*
G02*
X12702500Y-6745000I20000J0D01*
G01*
X13000000Y-7900000D02*
G75*
G02*
X12960000Y-7900000I-20000J0D01*
G01*
X12960000Y-7900000D02*
G75*
G02*
X13000000Y-7900000I20000J0D01*
G01*
X13000000Y-8000000D02*
G75*
G02*
X12960000Y-8000000I-20000J0D01*
G01*
X12960000Y-8000000D02*
G75*
G02*
X13000000Y-8000000I20000J0D01*
G01*
X13252500Y-5920000D02*
G75*
G02*
X13212500Y-5920000I-20000J0D01*
G01*
X13212500Y-5920000D02*
G75*
G02*
X13252500Y-5920000I20000J0D01*
G01*
X13340000Y-7340000D02*
G75*
G02*
X13300000Y-7340000I-20000J0D01*
G01*
X13300000Y-7340000D02*
G75*
G02*
X13340000Y-7340000I20000J0D01*
G01*
X13340000Y-7440000D02*
G75*
G02*
X13300000Y-7440000I-20000J0D01*
G01*
X13300000Y-7440000D02*
G75*
G02*
X13340000Y-7440000I20000J0D01*
G01*
X13550000Y-5305000D02*
G75*
G02*
X13510000Y-5305000I-20000J0D01*
G01*
X13510000Y-5305000D02*
G75*
G02*
X13550000Y-5305000I20000J0D01*
G01*
X11215000Y-4600000D02*
X11215000Y-4660000D01*
X11185000Y-4630000D02*
X11245000Y-4630000D01*
X11425000Y-4100000D02*
X11425000Y-4160000D01*
X11395000Y-4130000D02*
X11455000Y-4130000D01*
X10816941Y-4236941D02*
X10816941Y-4183059D01*
X10763059Y-4183059D01*
X10763059Y-4236941D01*
X10816941Y-4236941D01*
X8992000Y-5950000D02*
X9032000Y-5910000D01*
X8992000Y-5870000D01*
X8952000Y-5910000D01*
X8992000Y-5950000D01*
X9480000Y-5950000D02*
X9520000Y-5910000D01*
X9480000Y-5870000D01*
X9440000Y-5910000D01*
X9480000Y-5950000D01*
X9860000Y-7841762D02*
X9900000Y-7801762D01*
X9860000Y-7761762D01*
X9820000Y-7801762D01*
X9860000Y-7841762D01*
X9860000Y-8091762D02*
X9900000Y-8051762D01*
X9860000Y-8011762D01*
X9820000Y-8051762D01*
X9860000Y-8091762D01*
X10720000Y-7841762D02*
X10760000Y-7801762D01*
X10720000Y-7761762D01*
X10680000Y-7801762D01*
X10720000Y-7841762D01*
X10720000Y-8091762D02*
X10760000Y-8051762D01*
X10720000Y-8011762D01*
X10680000Y-8051762D01*
X10720000Y-8091762D01*
X6325000Y-6360000D02*
X6415000Y-6450000D01*
X6415000Y-6360000D02*
X6325000Y-6450000D01*
X6415000Y-6405000D02*
G75*
G02*
X6325000Y-6405000I-45000J0D01*
G01*
X6325000Y-6405000D02*
G75*
G02*
X6415000Y-6405000I45000J0D01*
G01*
X6325000Y-6614000D02*
X6415000Y-6704000D01*
X6415000Y-6614000D02*
X6325000Y-6704000D01*
X6415000Y-6659000D02*
G75*
G02*
X6325000Y-6659000I-45000J0D01*
G01*
X6325000Y-6659000D02*
G75*
G02*
X6415000Y-6659000I45000J0D01*
G01*
X6325000Y-6868000D02*
X6415000Y-6958000D01*
X6415000Y-6868000D02*
X6325000Y-6958000D01*
X6415000Y-6913000D02*
G75*
G02*
X6325000Y-6913000I-45000J0D01*
G01*
X6325000Y-6913000D02*
G75*
G02*
X6415000Y-6913000I45000J0D01*
G01*
X6416000Y-7750000D02*
X6516000Y-7850000D01*
X6516000Y-7750000D02*
X6416000Y-7850000D01*
X6466000Y-7750000D02*
X6466000Y-7850000D01*
X6416000Y-7800000D02*
X6516000Y-7800000D01*
X6670000Y-7750000D02*
X6770000Y-7850000D01*
X6770000Y-7750000D02*
X6670000Y-7850000D01*
X6720000Y-7750000D02*
X6720000Y-7850000D01*
X6670000Y-7800000D02*
X6770000Y-7800000D01*
X6886000Y-5280000D02*
X6986000Y-5380000D01*
X6986000Y-5280000D02*
X6886000Y-5380000D01*
X6936000Y-5280000D02*
X6936000Y-5380000D01*
X6886000Y-5330000D02*
X6986000Y-5330000D01*
X6886000Y-5780000D02*
X6986000Y-5880000D01*
X6986000Y-5780000D02*
X6886000Y-5880000D01*
X6936000Y-5780000D02*
X6936000Y-5880000D01*
X6886000Y-5830000D02*
X6986000Y-5830000D01*
X6888000Y-4550000D02*
X6988000Y-4650000D01*
X6988000Y-4550000D02*
X6888000Y-4650000D01*
X6938000Y-4550000D02*
X6938000Y-4650000D01*
X6888000Y-4600000D02*
X6988000Y-4600000D01*
X6888000Y-5050000D02*
X6988000Y-5150000D01*
X6988000Y-5050000D02*
X6888000Y-5150000D01*
X6938000Y-5050000D02*
X6938000Y-5150000D01*
X6888000Y-5100000D02*
X6988000Y-5100000D01*
X6924000Y-7750000D02*
X7024000Y-7850000D01*
X7024000Y-7750000D02*
X6924000Y-7850000D01*
X6974000Y-7750000D02*
X6974000Y-7850000D01*
X6924000Y-7800000D02*
X7024000Y-7800000D01*
X7386000Y-5530000D02*
X7486000Y-5630000D01*
X7486000Y-5530000D02*
X7386000Y-5630000D01*
X7436000Y-5530000D02*
X7436000Y-5630000D01*
X7386000Y-5580000D02*
X7486000Y-5580000D01*
X7388000Y-4800000D02*
X7488000Y-4900000D01*
X7488000Y-4800000D02*
X7388000Y-4900000D01*
X7438000Y-4800000D02*
X7438000Y-4900000D01*
X7388000Y-4850000D02*
X7488000Y-4850000D01*
X8047500Y-7741000D02*
X8147500Y-7841000D01*
X8147500Y-7741000D02*
X8047500Y-7841000D01*
X8097500Y-7741000D02*
X8097500Y-7841000D01*
X8047500Y-7791000D02*
X8147500Y-7791000D01*
X8047500Y-7995000D02*
X8147500Y-8095000D01*
X8147500Y-7995000D02*
X8047500Y-8095000D01*
X8097500Y-7995000D02*
X8097500Y-8095000D01*
X8047500Y-8045000D02*
X8147500Y-8045000D01*
X9903500Y-4211500D02*
X10003500Y-4311500D01*
X10003500Y-4211500D02*
X9903500Y-4311500D01*
X9953500Y-4211500D02*
X9953500Y-4311500D01*
X9903500Y-4261500D02*
X10003500Y-4261500D01*
X9903500Y-4465500D02*
X10003500Y-4565500D01*
X10003500Y-4465500D02*
X9903500Y-4565500D01*
X9953500Y-4465500D02*
X9953500Y-4565500D01*
X9903500Y-4515500D02*
X10003500Y-4515500D01*
X9903500Y-4719500D02*
X10003500Y-4819500D01*
X10003500Y-4719500D02*
X9903500Y-4819500D01*
X9953500Y-4719500D02*
X9953500Y-4819500D01*
X9903500Y-4769500D02*
X10003500Y-4769500D01*
X9903500Y-4973500D02*
X10003500Y-5073500D01*
X10003500Y-4973500D02*
X9903500Y-5073500D01*
X9953500Y-4973500D02*
X9953500Y-5073500D01*
X9903500Y-5023500D02*
X10003500Y-5023500D01*
X9903500Y-5227500D02*
X10003500Y-5327500D01*
X10003500Y-5227500D02*
X9903500Y-5327500D01*
X9953500Y-5227500D02*
X9953500Y-5327500D01*
X9903500Y-5277500D02*
X10003500Y-5277500D01*
X10157500Y-4211500D02*
X10257500Y-4311500D01*
X10257500Y-4211500D02*
X10157500Y-4311500D01*
X10207500Y-4211500D02*
X10207500Y-4311500D01*
X10157500Y-4261500D02*
X10257500Y-4261500D01*
X10157500Y-4465500D02*
X10257500Y-4565500D01*
X10257500Y-4465500D02*
X10157500Y-4565500D01*
X10207500Y-4465500D02*
X10207500Y-4565500D01*
X10157500Y-4515500D02*
X10257500Y-4515500D01*
X10157500Y-4719500D02*
X10257500Y-4819500D01*
X10257500Y-4719500D02*
X10157500Y-4819500D01*
X10207500Y-4719500D02*
X10207500Y-4819500D01*
X10157500Y-4769500D02*
X10257500Y-4769500D01*
X10157500Y-4973500D02*
X10257500Y-5073500D01*
X10257500Y-4973500D02*
X10157500Y-5073500D01*
X10207500Y-4973500D02*
X10207500Y-5073500D01*
X10157500Y-5023500D02*
X10257500Y-5023500D01*
X10157500Y-5227500D02*
X10257500Y-5327500D01*
X10257500Y-5227500D02*
X10157500Y-5327500D01*
X10207500Y-5227500D02*
X10207500Y-5327500D01*
X10157500Y-5277500D02*
X10257500Y-5277500D01*
X13257500Y-4265000D02*
X13357500Y-4365000D01*
X13357500Y-4265000D02*
X13257500Y-4365000D01*
X13307500Y-4265000D02*
X13307500Y-4365000D01*
X13257500Y-4315000D02*
X13357500Y-4315000D01*
X13257500Y-4515000D02*
X13357500Y-4615000D01*
X13357500Y-4515000D02*
X13257500Y-4615000D01*
X13307500Y-4515000D02*
X13307500Y-4615000D01*
X13257500Y-4565000D02*
X13357500Y-4565000D01*
D11*
X4355777Y-8616484D02*
X4355777Y-8416484D01*
X4355777Y-8416484D02*
X4403396Y-8416484D01*
X4403396Y-8416484D02*
X4431967Y-8426008D01*
X4431967Y-8426008D02*
X4451015Y-8445055D01*
X4451015Y-8445055D02*
X4460539Y-8464103D01*
X4460539Y-8464103D02*
X4470063Y-8502198D01*
X4470063Y-8502198D02*
X4470063Y-8530770D01*
X4470063Y-8530770D02*
X4460539Y-8568865D01*
X4460539Y-8568865D02*
X4451015Y-8587912D01*
X4451015Y-8587912D02*
X4431967Y-8606960D01*
X4431967Y-8606960D02*
X4403396Y-8616484D01*
X4403396Y-8616484D02*
X4355777Y-8616484D01*
X4555777Y-8616484D02*
X4555777Y-8483150D01*
X4555777Y-8521246D02*
X4565301Y-8502198D01*
X4565301Y-8502198D02*
X4574824Y-8492674D01*
X4574824Y-8492674D02*
X4593872Y-8483150D01*
X4593872Y-8483150D02*
X4612920Y-8483150D01*
X4679586Y-8616484D02*
X4679586Y-8483150D01*
X4679586Y-8416484D02*
X4670063Y-8426008D01*
X4670063Y-8426008D02*
X4679586Y-8435531D01*
X4679586Y-8435531D02*
X4689110Y-8426008D01*
X4689110Y-8426008D02*
X4679586Y-8416484D01*
X4679586Y-8416484D02*
X4679586Y-8435531D01*
X4803396Y-8616484D02*
X4784348Y-8606960D01*
X4784348Y-8606960D02*
X4774824Y-8587912D01*
X4774824Y-8587912D02*
X4774824Y-8416484D01*
X4908158Y-8616484D02*
X4889110Y-8606960D01*
X4889110Y-8606960D02*
X4879586Y-8587912D01*
X4879586Y-8587912D02*
X4879586Y-8416484D01*
X5136729Y-8616484D02*
X5136729Y-8416484D01*
X5136729Y-8416484D02*
X5203396Y-8559341D01*
X5203396Y-8559341D02*
X5270063Y-8416484D01*
X5270063Y-8416484D02*
X5270063Y-8616484D01*
X5451015Y-8616484D02*
X5451015Y-8511722D01*
X5451015Y-8511722D02*
X5441491Y-8492674D01*
X5441491Y-8492674D02*
X5422444Y-8483150D01*
X5422444Y-8483150D02*
X5384348Y-8483150D01*
X5384348Y-8483150D02*
X5365301Y-8492674D01*
X5451015Y-8606960D02*
X5431967Y-8616484D01*
X5431967Y-8616484D02*
X5384348Y-8616484D01*
X5384348Y-8616484D02*
X5365301Y-8606960D01*
X5365301Y-8606960D02*
X5355777Y-8587912D01*
X5355777Y-8587912D02*
X5355777Y-8568865D01*
X5355777Y-8568865D02*
X5365301Y-8549817D01*
X5365301Y-8549817D02*
X5384348Y-8540293D01*
X5384348Y-8540293D02*
X5431967Y-8540293D01*
X5431967Y-8540293D02*
X5451015Y-8530770D01*
X5546253Y-8483150D02*
X5546253Y-8683150D01*
X5546253Y-8492674D02*
X5565301Y-8483150D01*
X5565301Y-8483150D02*
X5603396Y-8483150D01*
X5603396Y-8483150D02*
X5622443Y-8492674D01*
X5622443Y-8492674D02*
X5631967Y-8502198D01*
X5631967Y-8502198D02*
X5641491Y-8521246D01*
X5641491Y-8521246D02*
X5641491Y-8578389D01*
X5641491Y-8578389D02*
X5631967Y-8597436D01*
X5631967Y-8597436D02*
X5622443Y-8606960D01*
X5622443Y-8606960D02*
X5603396Y-8616484D01*
X5603396Y-8616484D02*
X5565301Y-8616484D01*
X5565301Y-8616484D02*
X5546253Y-8606960D01*
X5727205Y-8597436D02*
X5736729Y-8606960D01*
X5736729Y-8606960D02*
X5727205Y-8616484D01*
X5727205Y-8616484D02*
X5717682Y-8606960D01*
X5717682Y-8606960D02*
X5727205Y-8597436D01*
X5727205Y-8597436D02*
X5727205Y-8616484D01*
X5727205Y-8492674D02*
X5736729Y-8502198D01*
X5736729Y-8502198D02*
X5727205Y-8511722D01*
X5727205Y-8511722D02*
X5717682Y-8502198D01*
X5717682Y-8502198D02*
X5727205Y-8492674D01*
X5727205Y-8492674D02*
X5727205Y-8511722D01*
D10*
X4075000Y-8935000D02*
X4095000Y-8955000D01*
X4095000Y-8935000D02*
X4075000Y-8955000D01*
D11*
X4393872Y-8836484D02*
X4412920Y-8836484D01*
X4412920Y-8836484D02*
X4431967Y-8846008D01*
X4431967Y-8846008D02*
X4441491Y-8855531D01*
X4441491Y-8855531D02*
X4451015Y-8874579D01*
X4451015Y-8874579D02*
X4460539Y-8912674D01*
X4460539Y-8912674D02*
X4460539Y-8960293D01*
X4460539Y-8960293D02*
X4451015Y-8998389D01*
X4451015Y-8998389D02*
X4441491Y-9017436D01*
X4441491Y-9017436D02*
X4431967Y-9026960D01*
X4431967Y-9026960D02*
X4412920Y-9036484D01*
X4412920Y-9036484D02*
X4393872Y-9036484D01*
X4393872Y-9036484D02*
X4374824Y-9026960D01*
X4374824Y-9026960D02*
X4365301Y-9017436D01*
X4365301Y-9017436D02*
X4355777Y-8998389D01*
X4355777Y-8998389D02*
X4346253Y-8960293D01*
X4346253Y-8960293D02*
X4346253Y-8912674D01*
X4346253Y-8912674D02*
X4355777Y-8874579D01*
X4355777Y-8874579D02*
X4365301Y-8855531D01*
X4365301Y-8855531D02*
X4374824Y-8846008D01*
X4374824Y-8846008D02*
X4393872Y-8836484D01*
X4546253Y-9017436D02*
X4555777Y-9026960D01*
X4555777Y-9026960D02*
X4546253Y-9036484D01*
X4546253Y-9036484D02*
X4536729Y-9026960D01*
X4536729Y-9026960D02*
X4546253Y-9017436D01*
X4546253Y-9017436D02*
X4546253Y-9036484D01*
X4631967Y-8855531D02*
X4641491Y-8846008D01*
X4641491Y-8846008D02*
X4660539Y-8836484D01*
X4660539Y-8836484D02*
X4708158Y-8836484D01*
X4708158Y-8836484D02*
X4727205Y-8846008D01*
X4727205Y-8846008D02*
X4736729Y-8855531D01*
X4736729Y-8855531D02*
X4746253Y-8874579D01*
X4746253Y-8874579D02*
X4746253Y-8893627D01*
X4746253Y-8893627D02*
X4736729Y-8922198D01*
X4736729Y-8922198D02*
X4622444Y-9036484D01*
X4622444Y-9036484D02*
X4746253Y-9036484D01*
X4870063Y-8836484D02*
X4889110Y-8836484D01*
X4889110Y-8836484D02*
X4908158Y-8846008D01*
X4908158Y-8846008D02*
X4917682Y-8855531D01*
X4917682Y-8855531D02*
X4927205Y-8874579D01*
X4927205Y-8874579D02*
X4936729Y-8912674D01*
X4936729Y-8912674D02*
X4936729Y-8960293D01*
X4936729Y-8960293D02*
X4927205Y-8998389D01*
X4927205Y-8998389D02*
X4917682Y-9017436D01*
X4917682Y-9017436D02*
X4908158Y-9026960D01*
X4908158Y-9026960D02*
X4889110Y-9036484D01*
X4889110Y-9036484D02*
X4870063Y-9036484D01*
X4870063Y-9036484D02*
X4851015Y-9026960D01*
X4851015Y-9026960D02*
X4841491Y-9017436D01*
X4841491Y-9017436D02*
X4831967Y-8998389D01*
X4831967Y-8998389D02*
X4822444Y-8960293D01*
X4822444Y-8960293D02*
X4822444Y-8912674D01*
X4822444Y-8912674D02*
X4831967Y-8874579D01*
X4831967Y-8874579D02*
X4841491Y-8855531D01*
X4841491Y-8855531D02*
X4851015Y-8846008D01*
X4851015Y-8846008D02*
X4870063Y-8836484D01*
X5060539Y-8836484D02*
X5079586Y-8836484D01*
X5079586Y-8836484D02*
X5098634Y-8846008D01*
X5098634Y-8846008D02*
X5108158Y-8855531D01*
X5108158Y-8855531D02*
X5117682Y-8874579D01*
X5117682Y-8874579D02*
X5127205Y-8912674D01*
X5127205Y-8912674D02*
X5127205Y-8960293D01*
X5127205Y-8960293D02*
X5117682Y-8998389D01*
X5117682Y-8998389D02*
X5108158Y-9017436D01*
X5108158Y-9017436D02*
X5098634Y-9026960D01*
X5098634Y-9026960D02*
X5079586Y-9036484D01*
X5079586Y-9036484D02*
X5060539Y-9036484D01*
X5060539Y-9036484D02*
X5041491Y-9026960D01*
X5041491Y-9026960D02*
X5031967Y-9017436D01*
X5031967Y-9017436D02*
X5022444Y-8998389D01*
X5022444Y-8998389D02*
X5012920Y-8960293D01*
X5012920Y-8960293D02*
X5012920Y-8912674D01*
X5012920Y-8912674D02*
X5022444Y-8874579D01*
X5022444Y-8874579D02*
X5031967Y-8855531D01*
X5031967Y-8855531D02*
X5041491Y-8846008D01*
X5041491Y-8846008D02*
X5060539Y-8836484D01*
X5212920Y-9036484D02*
X5212920Y-8903150D01*
X5212920Y-8922198D02*
X5222444Y-8912674D01*
X5222444Y-8912674D02*
X5241491Y-8903150D01*
X5241491Y-8903150D02*
X5270063Y-8903150D01*
X5270063Y-8903150D02*
X5289110Y-8912674D01*
X5289110Y-8912674D02*
X5298634Y-8931722D01*
X5298634Y-8931722D02*
X5298634Y-9036484D01*
X5298634Y-8931722D02*
X5308158Y-8912674D01*
X5308158Y-8912674D02*
X5327205Y-8903150D01*
X5327205Y-8903150D02*
X5355777Y-8903150D01*
X5355777Y-8903150D02*
X5374825Y-8912674D01*
X5374825Y-8912674D02*
X5384348Y-8931722D01*
X5384348Y-8931722D02*
X5384348Y-9036484D01*
X5479586Y-9036484D02*
X5479586Y-8903150D01*
X5479586Y-8922198D02*
X5489110Y-8912674D01*
X5489110Y-8912674D02*
X5508158Y-8903150D01*
X5508158Y-8903150D02*
X5536729Y-8903150D01*
X5536729Y-8903150D02*
X5555777Y-8912674D01*
X5555777Y-8912674D02*
X5565301Y-8931722D01*
X5565301Y-8931722D02*
X5565301Y-9036484D01*
X5565301Y-8931722D02*
X5574825Y-8912674D01*
X5574825Y-8912674D02*
X5593872Y-8903150D01*
X5593872Y-8903150D02*
X5622443Y-8903150D01*
X5622443Y-8903150D02*
X5641491Y-8912674D01*
X5641491Y-8912674D02*
X5651015Y-8931722D01*
X5651015Y-8931722D02*
X5651015Y-9036484D01*
X6041491Y-8826960D02*
X5870063Y-9084103D01*
X6298634Y-8836484D02*
X6317682Y-8836484D01*
X6317682Y-8836484D02*
X6336729Y-8846008D01*
X6336729Y-8846008D02*
X6346253Y-8855531D01*
X6346253Y-8855531D02*
X6355777Y-8874579D01*
X6355777Y-8874579D02*
X6365301Y-8912674D01*
X6365301Y-8912674D02*
X6365301Y-8960293D01*
X6365301Y-8960293D02*
X6355777Y-8998389D01*
X6355777Y-8998389D02*
X6346253Y-9017436D01*
X6346253Y-9017436D02*
X6336729Y-9026960D01*
X6336729Y-9026960D02*
X6317682Y-9036484D01*
X6317682Y-9036484D02*
X6298634Y-9036484D01*
X6298634Y-9036484D02*
X6279586Y-9026960D01*
X6279586Y-9026960D02*
X6270063Y-9017436D01*
X6270063Y-9017436D02*
X6260539Y-8998389D01*
X6260539Y-8998389D02*
X6251015Y-8960293D01*
X6251015Y-8960293D02*
X6251015Y-8912674D01*
X6251015Y-8912674D02*
X6260539Y-8874579D01*
X6260539Y-8874579D02*
X6270063Y-8855531D01*
X6270063Y-8855531D02*
X6279586Y-8846008D01*
X6279586Y-8846008D02*
X6298634Y-8836484D01*
X6451015Y-9017436D02*
X6460539Y-9026960D01*
X6460539Y-9026960D02*
X6451015Y-9036484D01*
X6451015Y-9036484D02*
X6441491Y-9026960D01*
X6441491Y-9026960D02*
X6451015Y-9017436D01*
X6451015Y-9017436D02*
X6451015Y-9036484D01*
X6584348Y-8836484D02*
X6603396Y-8836484D01*
X6603396Y-8836484D02*
X6622444Y-8846008D01*
X6622444Y-8846008D02*
X6631967Y-8855531D01*
X6631967Y-8855531D02*
X6641491Y-8874579D01*
X6641491Y-8874579D02*
X6651015Y-8912674D01*
X6651015Y-8912674D02*
X6651015Y-8960293D01*
X6651015Y-8960293D02*
X6641491Y-8998389D01*
X6641491Y-8998389D02*
X6631967Y-9017436D01*
X6631967Y-9017436D02*
X6622444Y-9026960D01*
X6622444Y-9026960D02*
X6603396Y-9036484D01*
X6603396Y-9036484D02*
X6584348Y-9036484D01*
X6584348Y-9036484D02*
X6565301Y-9026960D01*
X6565301Y-9026960D02*
X6555777Y-9017436D01*
X6555777Y-9017436D02*
X6546253Y-8998389D01*
X6546253Y-8998389D02*
X6536729Y-8960293D01*
X6536729Y-8960293D02*
X6536729Y-8912674D01*
X6536729Y-8912674D02*
X6546253Y-8874579D01*
X6546253Y-8874579D02*
X6555777Y-8855531D01*
X6555777Y-8855531D02*
X6565301Y-8846008D01*
X6565301Y-8846008D02*
X6584348Y-8836484D01*
X6774825Y-8836484D02*
X6793872Y-8836484D01*
X6793872Y-8836484D02*
X6812920Y-8846008D01*
X6812920Y-8846008D02*
X6822444Y-8855531D01*
X6822444Y-8855531D02*
X6831967Y-8874579D01*
X6831967Y-8874579D02*
X6841491Y-8912674D01*
X6841491Y-8912674D02*
X6841491Y-8960293D01*
X6841491Y-8960293D02*
X6831967Y-8998389D01*
X6831967Y-8998389D02*
X6822444Y-9017436D01*
X6822444Y-9017436D02*
X6812920Y-9026960D01*
X6812920Y-9026960D02*
X6793872Y-9036484D01*
X6793872Y-9036484D02*
X6774825Y-9036484D01*
X6774825Y-9036484D02*
X6755777Y-9026960D01*
X6755777Y-9026960D02*
X6746253Y-9017436D01*
X6746253Y-9017436D02*
X6736729Y-8998389D01*
X6736729Y-8998389D02*
X6727206Y-8960293D01*
X6727206Y-8960293D02*
X6727206Y-8912674D01*
X6727206Y-8912674D02*
X6736729Y-8874579D01*
X6736729Y-8874579D02*
X6746253Y-8855531D01*
X6746253Y-8855531D02*
X6755777Y-8846008D01*
X6755777Y-8846008D02*
X6774825Y-8836484D01*
X6908158Y-8836484D02*
X7041491Y-8836484D01*
X7041491Y-8836484D02*
X6955777Y-9036484D01*
X7127206Y-9036484D02*
X7165301Y-9036484D01*
X7165301Y-9036484D02*
X7184348Y-9026960D01*
X7184348Y-9026960D02*
X7193872Y-9017436D01*
X7193872Y-9017436D02*
X7212920Y-8988865D01*
X7212920Y-8988865D02*
X7222444Y-8950770D01*
X7222444Y-8950770D02*
X7222444Y-8874579D01*
X7222444Y-8874579D02*
X7212920Y-8855531D01*
X7212920Y-8855531D02*
X7203396Y-8846008D01*
X7203396Y-8846008D02*
X7184348Y-8836484D01*
X7184348Y-8836484D02*
X7146253Y-8836484D01*
X7146253Y-8836484D02*
X7127206Y-8846008D01*
X7127206Y-8846008D02*
X7117682Y-8855531D01*
X7117682Y-8855531D02*
X7108158Y-8874579D01*
X7108158Y-8874579D02*
X7108158Y-8922198D01*
X7108158Y-8922198D02*
X7117682Y-8941246D01*
X7117682Y-8941246D02*
X7127206Y-8950770D01*
X7127206Y-8950770D02*
X7146253Y-8960293D01*
X7146253Y-8960293D02*
X7184348Y-8960293D01*
X7184348Y-8960293D02*
X7203396Y-8950770D01*
X7203396Y-8950770D02*
X7212920Y-8941246D01*
X7212920Y-8941246D02*
X7222444Y-8922198D01*
X7298634Y-8836484D02*
X7298634Y-8874579D01*
X7374825Y-8836484D02*
X7374825Y-8874579D01*
X7670063Y-9112674D02*
X7660539Y-9103150D01*
X7660539Y-9103150D02*
X7641491Y-9074579D01*
X7641491Y-9074579D02*
X7631968Y-9055531D01*
X7631968Y-9055531D02*
X7622444Y-9026960D01*
X7622444Y-9026960D02*
X7612920Y-8979341D01*
X7612920Y-8979341D02*
X7612920Y-8941246D01*
X7612920Y-8941246D02*
X7622444Y-8893627D01*
X7622444Y-8893627D02*
X7631968Y-8865055D01*
X7631968Y-8865055D02*
X7641491Y-8846008D01*
X7641491Y-8846008D02*
X7660539Y-8817436D01*
X7660539Y-8817436D02*
X7670063Y-8807912D01*
X7755777Y-9036484D02*
X7793872Y-9036484D01*
X7793872Y-9036484D02*
X7812920Y-9026960D01*
X7812920Y-9026960D02*
X7822444Y-9017436D01*
X7822444Y-9017436D02*
X7841491Y-8988865D01*
X7841491Y-8988865D02*
X7851015Y-8950770D01*
X7851015Y-8950770D02*
X7851015Y-8874579D01*
X7851015Y-8874579D02*
X7841491Y-8855531D01*
X7841491Y-8855531D02*
X7831968Y-8846008D01*
X7831968Y-8846008D02*
X7812920Y-8836484D01*
X7812920Y-8836484D02*
X7774825Y-8836484D01*
X7774825Y-8836484D02*
X7755777Y-8846008D01*
X7755777Y-8846008D02*
X7746253Y-8855531D01*
X7746253Y-8855531D02*
X7736729Y-8874579D01*
X7736729Y-8874579D02*
X7736729Y-8922198D01*
X7736729Y-8922198D02*
X7746253Y-8941246D01*
X7746253Y-8941246D02*
X7755777Y-8950770D01*
X7755777Y-8950770D02*
X7774825Y-8960293D01*
X7774825Y-8960293D02*
X7812920Y-8960293D01*
X7812920Y-8960293D02*
X7831968Y-8950770D01*
X7831968Y-8950770D02*
X7841491Y-8941246D01*
X7841491Y-8941246D02*
X7851015Y-8922198D01*
X8089110Y-9036484D02*
X8089110Y-8836484D01*
X8174825Y-9036484D02*
X8174825Y-8931722D01*
X8174825Y-8931722D02*
X8165301Y-8912674D01*
X8165301Y-8912674D02*
X8146253Y-8903150D01*
X8146253Y-8903150D02*
X8117682Y-8903150D01*
X8117682Y-8903150D02*
X8098634Y-8912674D01*
X8098634Y-8912674D02*
X8089110Y-8922198D01*
X8298634Y-9036484D02*
X8279587Y-9026960D01*
X8279587Y-9026960D02*
X8270063Y-9017436D01*
X8270063Y-9017436D02*
X8260539Y-8998389D01*
X8260539Y-8998389D02*
X8260539Y-8941246D01*
X8260539Y-8941246D02*
X8270063Y-8922198D01*
X8270063Y-8922198D02*
X8279587Y-8912674D01*
X8279587Y-8912674D02*
X8298634Y-8903150D01*
X8298634Y-8903150D02*
X8327206Y-8903150D01*
X8327206Y-8903150D02*
X8346253Y-8912674D01*
X8346253Y-8912674D02*
X8355777Y-8922198D01*
X8355777Y-8922198D02*
X8365301Y-8941246D01*
X8365301Y-8941246D02*
X8365301Y-8998389D01*
X8365301Y-8998389D02*
X8355777Y-9017436D01*
X8355777Y-9017436D02*
X8346253Y-9026960D01*
X8346253Y-9026960D02*
X8327206Y-9036484D01*
X8327206Y-9036484D02*
X8298634Y-9036484D01*
X8479587Y-9036484D02*
X8460539Y-9026960D01*
X8460539Y-9026960D02*
X8451015Y-9007912D01*
X8451015Y-9007912D02*
X8451015Y-8836484D01*
X8631968Y-9026960D02*
X8612920Y-9036484D01*
X8612920Y-9036484D02*
X8574825Y-9036484D01*
X8574825Y-9036484D02*
X8555777Y-9026960D01*
X8555777Y-9026960D02*
X8546253Y-9007912D01*
X8546253Y-9007912D02*
X8546253Y-8931722D01*
X8546253Y-8931722D02*
X8555777Y-8912674D01*
X8555777Y-8912674D02*
X8574825Y-8903150D01*
X8574825Y-8903150D02*
X8612920Y-8903150D01*
X8612920Y-8903150D02*
X8631968Y-8912674D01*
X8631968Y-8912674D02*
X8641492Y-8931722D01*
X8641492Y-8931722D02*
X8641492Y-8950770D01*
X8641492Y-8950770D02*
X8546253Y-8969817D01*
X8717682Y-9026960D02*
X8736730Y-9036484D01*
X8736730Y-9036484D02*
X8774825Y-9036484D01*
X8774825Y-9036484D02*
X8793873Y-9026960D01*
X8793873Y-9026960D02*
X8803396Y-9007912D01*
X8803396Y-9007912D02*
X8803396Y-8998389D01*
X8803396Y-8998389D02*
X8793873Y-8979341D01*
X8793873Y-8979341D02*
X8774825Y-8969817D01*
X8774825Y-8969817D02*
X8746253Y-8969817D01*
X8746253Y-8969817D02*
X8727206Y-8960293D01*
X8727206Y-8960293D02*
X8717682Y-8941246D01*
X8717682Y-8941246D02*
X8717682Y-8931722D01*
X8717682Y-8931722D02*
X8727206Y-8912674D01*
X8727206Y-8912674D02*
X8746253Y-8903150D01*
X8746253Y-8903150D02*
X8774825Y-8903150D01*
X8774825Y-8903150D02*
X8793873Y-8912674D01*
X8870063Y-9112674D02*
X8879587Y-9103150D01*
X8879587Y-9103150D02*
X8898634Y-9074579D01*
X8898634Y-9074579D02*
X8908158Y-9055531D01*
X8908158Y-9055531D02*
X8917682Y-9026960D01*
X8917682Y-9026960D02*
X8927206Y-8979341D01*
X8927206Y-8979341D02*
X8927206Y-8941246D01*
X8927206Y-8941246D02*
X8917682Y-8893627D01*
X8917682Y-8893627D02*
X8908158Y-8865055D01*
X8908158Y-8865055D02*
X8898634Y-8846008D01*
X8898634Y-8846008D02*
X8879587Y-8817436D01*
X8879587Y-8817436D02*
X8870063Y-8807912D01*
D10*
X4095000Y-9209000D02*
G75*
G02*
X4055000Y-9209000I-20000J0D01*
G01*
X4055000Y-9209000D02*
G75*
G02*
X4095000Y-9209000I20000J0D01*
G01*
D11*
X4393872Y-9100484D02*
X4412920Y-9100484D01*
X4412920Y-9100484D02*
X4431967Y-9110008D01*
X4431967Y-9110008D02*
X4441491Y-9119531D01*
X4441491Y-9119531D02*
X4451015Y-9138579D01*
X4451015Y-9138579D02*
X4460539Y-9176674D01*
X4460539Y-9176674D02*
X4460539Y-9224293D01*
X4460539Y-9224293D02*
X4451015Y-9262389D01*
X4451015Y-9262389D02*
X4441491Y-9281436D01*
X4441491Y-9281436D02*
X4431967Y-9290960D01*
X4431967Y-9290960D02*
X4412920Y-9300484D01*
X4412920Y-9300484D02*
X4393872Y-9300484D01*
X4393872Y-9300484D02*
X4374824Y-9290960D01*
X4374824Y-9290960D02*
X4365301Y-9281436D01*
X4365301Y-9281436D02*
X4355777Y-9262389D01*
X4355777Y-9262389D02*
X4346253Y-9224293D01*
X4346253Y-9224293D02*
X4346253Y-9176674D01*
X4346253Y-9176674D02*
X4355777Y-9138579D01*
X4355777Y-9138579D02*
X4365301Y-9119531D01*
X4365301Y-9119531D02*
X4374824Y-9110008D01*
X4374824Y-9110008D02*
X4393872Y-9100484D01*
X4546253Y-9281436D02*
X4555777Y-9290960D01*
X4555777Y-9290960D02*
X4546253Y-9300484D01*
X4546253Y-9300484D02*
X4536729Y-9290960D01*
X4536729Y-9290960D02*
X4546253Y-9281436D01*
X4546253Y-9281436D02*
X4546253Y-9300484D01*
X4727205Y-9167150D02*
X4727205Y-9300484D01*
X4679586Y-9090960D02*
X4631967Y-9233817D01*
X4631967Y-9233817D02*
X4755777Y-9233817D01*
X4870063Y-9100484D02*
X4889110Y-9100484D01*
X4889110Y-9100484D02*
X4908158Y-9110008D01*
X4908158Y-9110008D02*
X4917682Y-9119531D01*
X4917682Y-9119531D02*
X4927205Y-9138579D01*
X4927205Y-9138579D02*
X4936729Y-9176674D01*
X4936729Y-9176674D02*
X4936729Y-9224293D01*
X4936729Y-9224293D02*
X4927205Y-9262389D01*
X4927205Y-9262389D02*
X4917682Y-9281436D01*
X4917682Y-9281436D02*
X4908158Y-9290960D01*
X4908158Y-9290960D02*
X4889110Y-9300484D01*
X4889110Y-9300484D02*
X4870063Y-9300484D01*
X4870063Y-9300484D02*
X4851015Y-9290960D01*
X4851015Y-9290960D02*
X4841491Y-9281436D01*
X4841491Y-9281436D02*
X4831967Y-9262389D01*
X4831967Y-9262389D02*
X4822444Y-9224293D01*
X4822444Y-9224293D02*
X4822444Y-9176674D01*
X4822444Y-9176674D02*
X4831967Y-9138579D01*
X4831967Y-9138579D02*
X4841491Y-9119531D01*
X4841491Y-9119531D02*
X4851015Y-9110008D01*
X4851015Y-9110008D02*
X4870063Y-9100484D01*
X5060539Y-9100484D02*
X5079586Y-9100484D01*
X5079586Y-9100484D02*
X5098634Y-9110008D01*
X5098634Y-9110008D02*
X5108158Y-9119531D01*
X5108158Y-9119531D02*
X5117682Y-9138579D01*
X5117682Y-9138579D02*
X5127205Y-9176674D01*
X5127205Y-9176674D02*
X5127205Y-9224293D01*
X5127205Y-9224293D02*
X5117682Y-9262389D01*
X5117682Y-9262389D02*
X5108158Y-9281436D01*
X5108158Y-9281436D02*
X5098634Y-9290960D01*
X5098634Y-9290960D02*
X5079586Y-9300484D01*
X5079586Y-9300484D02*
X5060539Y-9300484D01*
X5060539Y-9300484D02*
X5041491Y-9290960D01*
X5041491Y-9290960D02*
X5031967Y-9281436D01*
X5031967Y-9281436D02*
X5022444Y-9262389D01*
X5022444Y-9262389D02*
X5012920Y-9224293D01*
X5012920Y-9224293D02*
X5012920Y-9176674D01*
X5012920Y-9176674D02*
X5022444Y-9138579D01*
X5022444Y-9138579D02*
X5031967Y-9119531D01*
X5031967Y-9119531D02*
X5041491Y-9110008D01*
X5041491Y-9110008D02*
X5060539Y-9100484D01*
X5212920Y-9300484D02*
X5212920Y-9167150D01*
X5212920Y-9186198D02*
X5222444Y-9176674D01*
X5222444Y-9176674D02*
X5241491Y-9167150D01*
X5241491Y-9167150D02*
X5270063Y-9167150D01*
X5270063Y-9167150D02*
X5289110Y-9176674D01*
X5289110Y-9176674D02*
X5298634Y-9195722D01*
X5298634Y-9195722D02*
X5298634Y-9300484D01*
X5298634Y-9195722D02*
X5308158Y-9176674D01*
X5308158Y-9176674D02*
X5327205Y-9167150D01*
X5327205Y-9167150D02*
X5355777Y-9167150D01*
X5355777Y-9167150D02*
X5374825Y-9176674D01*
X5374825Y-9176674D02*
X5384348Y-9195722D01*
X5384348Y-9195722D02*
X5384348Y-9300484D01*
X5479586Y-9300484D02*
X5479586Y-9167150D01*
X5479586Y-9186198D02*
X5489110Y-9176674D01*
X5489110Y-9176674D02*
X5508158Y-9167150D01*
X5508158Y-9167150D02*
X5536729Y-9167150D01*
X5536729Y-9167150D02*
X5555777Y-9176674D01*
X5555777Y-9176674D02*
X5565301Y-9195722D01*
X5565301Y-9195722D02*
X5565301Y-9300484D01*
X5565301Y-9195722D02*
X5574825Y-9176674D01*
X5574825Y-9176674D02*
X5593872Y-9167150D01*
X5593872Y-9167150D02*
X5622443Y-9167150D01*
X5622443Y-9167150D02*
X5641491Y-9176674D01*
X5641491Y-9176674D02*
X5651015Y-9195722D01*
X5651015Y-9195722D02*
X5651015Y-9300484D01*
X6041491Y-9090960D02*
X5870063Y-9348103D01*
X6298634Y-9100484D02*
X6317682Y-9100484D01*
X6317682Y-9100484D02*
X6336729Y-9110008D01*
X6336729Y-9110008D02*
X6346253Y-9119531D01*
X6346253Y-9119531D02*
X6355777Y-9138579D01*
X6355777Y-9138579D02*
X6365301Y-9176674D01*
X6365301Y-9176674D02*
X6365301Y-9224293D01*
X6365301Y-9224293D02*
X6355777Y-9262389D01*
X6355777Y-9262389D02*
X6346253Y-9281436D01*
X6346253Y-9281436D02*
X6336729Y-9290960D01*
X6336729Y-9290960D02*
X6317682Y-9300484D01*
X6317682Y-9300484D02*
X6298634Y-9300484D01*
X6298634Y-9300484D02*
X6279586Y-9290960D01*
X6279586Y-9290960D02*
X6270063Y-9281436D01*
X6270063Y-9281436D02*
X6260539Y-9262389D01*
X6260539Y-9262389D02*
X6251015Y-9224293D01*
X6251015Y-9224293D02*
X6251015Y-9176674D01*
X6251015Y-9176674D02*
X6260539Y-9138579D01*
X6260539Y-9138579D02*
X6270063Y-9119531D01*
X6270063Y-9119531D02*
X6279586Y-9110008D01*
X6279586Y-9110008D02*
X6298634Y-9100484D01*
X6451015Y-9281436D02*
X6460539Y-9290960D01*
X6460539Y-9290960D02*
X6451015Y-9300484D01*
X6451015Y-9300484D02*
X6441491Y-9290960D01*
X6441491Y-9290960D02*
X6451015Y-9281436D01*
X6451015Y-9281436D02*
X6451015Y-9300484D01*
X6584348Y-9100484D02*
X6603396Y-9100484D01*
X6603396Y-9100484D02*
X6622444Y-9110008D01*
X6622444Y-9110008D02*
X6631967Y-9119531D01*
X6631967Y-9119531D02*
X6641491Y-9138579D01*
X6641491Y-9138579D02*
X6651015Y-9176674D01*
X6651015Y-9176674D02*
X6651015Y-9224293D01*
X6651015Y-9224293D02*
X6641491Y-9262389D01*
X6641491Y-9262389D02*
X6631967Y-9281436D01*
X6631967Y-9281436D02*
X6622444Y-9290960D01*
X6622444Y-9290960D02*
X6603396Y-9300484D01*
X6603396Y-9300484D02*
X6584348Y-9300484D01*
X6584348Y-9300484D02*
X6565301Y-9290960D01*
X6565301Y-9290960D02*
X6555777Y-9281436D01*
X6555777Y-9281436D02*
X6546253Y-9262389D01*
X6546253Y-9262389D02*
X6536729Y-9224293D01*
X6536729Y-9224293D02*
X6536729Y-9176674D01*
X6536729Y-9176674D02*
X6546253Y-9138579D01*
X6546253Y-9138579D02*
X6555777Y-9119531D01*
X6555777Y-9119531D02*
X6565301Y-9110008D01*
X6565301Y-9110008D02*
X6584348Y-9100484D01*
X6841491Y-9300484D02*
X6727206Y-9300484D01*
X6784348Y-9300484D02*
X6784348Y-9100484D01*
X6784348Y-9100484D02*
X6765301Y-9129055D01*
X6765301Y-9129055D02*
X6746253Y-9148103D01*
X6746253Y-9148103D02*
X6727206Y-9157627D01*
X7022444Y-9100484D02*
X6927206Y-9100484D01*
X6927206Y-9100484D02*
X6917682Y-9195722D01*
X6917682Y-9195722D02*
X6927206Y-9186198D01*
X6927206Y-9186198D02*
X6946253Y-9176674D01*
X6946253Y-9176674D02*
X6993872Y-9176674D01*
X6993872Y-9176674D02*
X7012920Y-9186198D01*
X7012920Y-9186198D02*
X7022444Y-9195722D01*
X7022444Y-9195722D02*
X7031967Y-9214770D01*
X7031967Y-9214770D02*
X7031967Y-9262389D01*
X7031967Y-9262389D02*
X7022444Y-9281436D01*
X7022444Y-9281436D02*
X7012920Y-9290960D01*
X7012920Y-9290960D02*
X6993872Y-9300484D01*
X6993872Y-9300484D02*
X6946253Y-9300484D01*
X6946253Y-9300484D02*
X6927206Y-9290960D01*
X6927206Y-9290960D02*
X6917682Y-9281436D01*
X7098634Y-9100484D02*
X7231967Y-9100484D01*
X7231967Y-9100484D02*
X7146253Y-9300484D01*
X7298634Y-9100484D02*
X7298634Y-9138579D01*
X7374825Y-9100484D02*
X7374825Y-9138579D01*
X7670063Y-9376674D02*
X7660539Y-9367150D01*
X7660539Y-9367150D02*
X7641491Y-9338579D01*
X7641491Y-9338579D02*
X7631968Y-9319531D01*
X7631968Y-9319531D02*
X7622444Y-9290960D01*
X7622444Y-9290960D02*
X7612920Y-9243341D01*
X7612920Y-9243341D02*
X7612920Y-9205246D01*
X7612920Y-9205246D02*
X7622444Y-9157627D01*
X7622444Y-9157627D02*
X7631968Y-9129055D01*
X7631968Y-9129055D02*
X7641491Y-9110008D01*
X7641491Y-9110008D02*
X7660539Y-9081436D01*
X7660539Y-9081436D02*
X7670063Y-9071912D01*
X7831968Y-9100484D02*
X7793872Y-9100484D01*
X7793872Y-9100484D02*
X7774825Y-9110008D01*
X7774825Y-9110008D02*
X7765301Y-9119531D01*
X7765301Y-9119531D02*
X7746253Y-9148103D01*
X7746253Y-9148103D02*
X7736729Y-9186198D01*
X7736729Y-9186198D02*
X7736729Y-9262389D01*
X7736729Y-9262389D02*
X7746253Y-9281436D01*
X7746253Y-9281436D02*
X7755777Y-9290960D01*
X7755777Y-9290960D02*
X7774825Y-9300484D01*
X7774825Y-9300484D02*
X7812920Y-9300484D01*
X7812920Y-9300484D02*
X7831968Y-9290960D01*
X7831968Y-9290960D02*
X7841491Y-9281436D01*
X7841491Y-9281436D02*
X7851015Y-9262389D01*
X7851015Y-9262389D02*
X7851015Y-9214770D01*
X7851015Y-9214770D02*
X7841491Y-9195722D01*
X7841491Y-9195722D02*
X7831968Y-9186198D01*
X7831968Y-9186198D02*
X7812920Y-9176674D01*
X7812920Y-9176674D02*
X7774825Y-9176674D01*
X7774825Y-9176674D02*
X7755777Y-9186198D01*
X7755777Y-9186198D02*
X7746253Y-9195722D01*
X7746253Y-9195722D02*
X7736729Y-9214770D01*
X8022444Y-9100484D02*
X7984348Y-9100484D01*
X7984348Y-9100484D02*
X7965301Y-9110008D01*
X7965301Y-9110008D02*
X7955777Y-9119531D01*
X7955777Y-9119531D02*
X7936729Y-9148103D01*
X7936729Y-9148103D02*
X7927206Y-9186198D01*
X7927206Y-9186198D02*
X7927206Y-9262389D01*
X7927206Y-9262389D02*
X7936729Y-9281436D01*
X7936729Y-9281436D02*
X7946253Y-9290960D01*
X7946253Y-9290960D02*
X7965301Y-9300484D01*
X7965301Y-9300484D02*
X8003396Y-9300484D01*
X8003396Y-9300484D02*
X8022444Y-9290960D01*
X8022444Y-9290960D02*
X8031968Y-9281436D01*
X8031968Y-9281436D02*
X8041491Y-9262389D01*
X8041491Y-9262389D02*
X8041491Y-9214770D01*
X8041491Y-9214770D02*
X8031968Y-9195722D01*
X8031968Y-9195722D02*
X8022444Y-9186198D01*
X8022444Y-9186198D02*
X8003396Y-9176674D01*
X8003396Y-9176674D02*
X7965301Y-9176674D01*
X7965301Y-9176674D02*
X7946253Y-9186198D01*
X7946253Y-9186198D02*
X7936729Y-9195722D01*
X7936729Y-9195722D02*
X7927206Y-9214770D01*
X8279587Y-9300484D02*
X8279587Y-9100484D01*
X8365301Y-9300484D02*
X8365301Y-9195722D01*
X8365301Y-9195722D02*
X8355777Y-9176674D01*
X8355777Y-9176674D02*
X8336730Y-9167150D01*
X8336730Y-9167150D02*
X8308158Y-9167150D01*
X8308158Y-9167150D02*
X8289110Y-9176674D01*
X8289110Y-9176674D02*
X8279587Y-9186198D01*
X8489111Y-9300484D02*
X8470063Y-9290960D01*
X8470063Y-9290960D02*
X8460539Y-9281436D01*
X8460539Y-9281436D02*
X8451015Y-9262389D01*
X8451015Y-9262389D02*
X8451015Y-9205246D01*
X8451015Y-9205246D02*
X8460539Y-9186198D01*
X8460539Y-9186198D02*
X8470063Y-9176674D01*
X8470063Y-9176674D02*
X8489111Y-9167150D01*
X8489111Y-9167150D02*
X8517682Y-9167150D01*
X8517682Y-9167150D02*
X8536730Y-9176674D01*
X8536730Y-9176674D02*
X8546253Y-9186198D01*
X8546253Y-9186198D02*
X8555777Y-9205246D01*
X8555777Y-9205246D02*
X8555777Y-9262389D01*
X8555777Y-9262389D02*
X8546253Y-9281436D01*
X8546253Y-9281436D02*
X8536730Y-9290960D01*
X8536730Y-9290960D02*
X8517682Y-9300484D01*
X8517682Y-9300484D02*
X8489111Y-9300484D01*
X8670063Y-9300484D02*
X8651015Y-9290960D01*
X8651015Y-9290960D02*
X8641492Y-9271912D01*
X8641492Y-9271912D02*
X8641492Y-9100484D01*
X8822444Y-9290960D02*
X8803396Y-9300484D01*
X8803396Y-9300484D02*
X8765301Y-9300484D01*
X8765301Y-9300484D02*
X8746253Y-9290960D01*
X8746253Y-9290960D02*
X8736730Y-9271912D01*
X8736730Y-9271912D02*
X8736730Y-9195722D01*
X8736730Y-9195722D02*
X8746253Y-9176674D01*
X8746253Y-9176674D02*
X8765301Y-9167150D01*
X8765301Y-9167150D02*
X8803396Y-9167150D01*
X8803396Y-9167150D02*
X8822444Y-9176674D01*
X8822444Y-9176674D02*
X8831968Y-9195722D01*
X8831968Y-9195722D02*
X8831968Y-9214770D01*
X8831968Y-9214770D02*
X8736730Y-9233817D01*
X8908158Y-9290960D02*
X8927206Y-9300484D01*
X8927206Y-9300484D02*
X8965301Y-9300484D01*
X8965301Y-9300484D02*
X8984349Y-9290960D01*
X8984349Y-9290960D02*
X8993873Y-9271912D01*
X8993873Y-9271912D02*
X8993873Y-9262389D01*
X8993873Y-9262389D02*
X8984349Y-9243341D01*
X8984349Y-9243341D02*
X8965301Y-9233817D01*
X8965301Y-9233817D02*
X8936730Y-9233817D01*
X8936730Y-9233817D02*
X8917682Y-9224293D01*
X8917682Y-9224293D02*
X8908158Y-9205246D01*
X8908158Y-9205246D02*
X8908158Y-9195722D01*
X8908158Y-9195722D02*
X8917682Y-9176674D01*
X8917682Y-9176674D02*
X8936730Y-9167150D01*
X8936730Y-9167150D02*
X8965301Y-9167150D01*
X8965301Y-9167150D02*
X8984349Y-9176674D01*
X9060539Y-9376674D02*
X9070063Y-9367150D01*
X9070063Y-9367150D02*
X9089111Y-9338579D01*
X9089111Y-9338579D02*
X9098634Y-9319531D01*
X9098634Y-9319531D02*
X9108158Y-9290960D01*
X9108158Y-9290960D02*
X9117682Y-9243341D01*
X9117682Y-9243341D02*
X9117682Y-9205246D01*
X9117682Y-9205246D02*
X9108158Y-9157627D01*
X9108158Y-9157627D02*
X9098634Y-9129055D01*
X9098634Y-9129055D02*
X9089111Y-9110008D01*
X9089111Y-9110008D02*
X9070063Y-9081436D01*
X9070063Y-9081436D02*
X9060539Y-9071912D01*
D10*
X4065000Y-9443000D02*
X4065000Y-9503000D01*
X4035000Y-9473000D02*
X4095000Y-9473000D01*
D11*
X4393872Y-9364484D02*
X4412920Y-9364484D01*
X4412920Y-9364484D02*
X4431967Y-9374008D01*
X4431967Y-9374008D02*
X4441491Y-9383531D01*
X4441491Y-9383531D02*
X4451015Y-9402579D01*
X4451015Y-9402579D02*
X4460539Y-9440674D01*
X4460539Y-9440674D02*
X4460539Y-9488293D01*
X4460539Y-9488293D02*
X4451015Y-9526389D01*
X4451015Y-9526389D02*
X4441491Y-9545436D01*
X4441491Y-9545436D02*
X4431967Y-9554960D01*
X4431967Y-9554960D02*
X4412920Y-9564484D01*
X4412920Y-9564484D02*
X4393872Y-9564484D01*
X4393872Y-9564484D02*
X4374824Y-9554960D01*
X4374824Y-9554960D02*
X4365301Y-9545436D01*
X4365301Y-9545436D02*
X4355777Y-9526389D01*
X4355777Y-9526389D02*
X4346253Y-9488293D01*
X4346253Y-9488293D02*
X4346253Y-9440674D01*
X4346253Y-9440674D02*
X4355777Y-9402579D01*
X4355777Y-9402579D02*
X4365301Y-9383531D01*
X4365301Y-9383531D02*
X4374824Y-9374008D01*
X4374824Y-9374008D02*
X4393872Y-9364484D01*
X4546253Y-9545436D02*
X4555777Y-9554960D01*
X4555777Y-9554960D02*
X4546253Y-9564484D01*
X4546253Y-9564484D02*
X4536729Y-9554960D01*
X4536729Y-9554960D02*
X4546253Y-9545436D01*
X4546253Y-9545436D02*
X4546253Y-9564484D01*
X4727205Y-9364484D02*
X4689110Y-9364484D01*
X4689110Y-9364484D02*
X4670063Y-9374008D01*
X4670063Y-9374008D02*
X4660539Y-9383531D01*
X4660539Y-9383531D02*
X4641491Y-9412103D01*
X4641491Y-9412103D02*
X4631967Y-9450198D01*
X4631967Y-9450198D02*
X4631967Y-9526389D01*
X4631967Y-9526389D02*
X4641491Y-9545436D01*
X4641491Y-9545436D02*
X4651015Y-9554960D01*
X4651015Y-9554960D02*
X4670063Y-9564484D01*
X4670063Y-9564484D02*
X4708158Y-9564484D01*
X4708158Y-9564484D02*
X4727205Y-9554960D01*
X4727205Y-9554960D02*
X4736729Y-9545436D01*
X4736729Y-9545436D02*
X4746253Y-9526389D01*
X4746253Y-9526389D02*
X4746253Y-9478770D01*
X4746253Y-9478770D02*
X4736729Y-9459722D01*
X4736729Y-9459722D02*
X4727205Y-9450198D01*
X4727205Y-9450198D02*
X4708158Y-9440674D01*
X4708158Y-9440674D02*
X4670063Y-9440674D01*
X4670063Y-9440674D02*
X4651015Y-9450198D01*
X4651015Y-9450198D02*
X4641491Y-9459722D01*
X4641491Y-9459722D02*
X4631967Y-9478770D01*
X4870063Y-9364484D02*
X4889110Y-9364484D01*
X4889110Y-9364484D02*
X4908158Y-9374008D01*
X4908158Y-9374008D02*
X4917682Y-9383531D01*
X4917682Y-9383531D02*
X4927205Y-9402579D01*
X4927205Y-9402579D02*
X4936729Y-9440674D01*
X4936729Y-9440674D02*
X4936729Y-9488293D01*
X4936729Y-9488293D02*
X4927205Y-9526389D01*
X4927205Y-9526389D02*
X4917682Y-9545436D01*
X4917682Y-9545436D02*
X4908158Y-9554960D01*
X4908158Y-9554960D02*
X4889110Y-9564484D01*
X4889110Y-9564484D02*
X4870063Y-9564484D01*
X4870063Y-9564484D02*
X4851015Y-9554960D01*
X4851015Y-9554960D02*
X4841491Y-9545436D01*
X4841491Y-9545436D02*
X4831967Y-9526389D01*
X4831967Y-9526389D02*
X4822444Y-9488293D01*
X4822444Y-9488293D02*
X4822444Y-9440674D01*
X4822444Y-9440674D02*
X4831967Y-9402579D01*
X4831967Y-9402579D02*
X4841491Y-9383531D01*
X4841491Y-9383531D02*
X4851015Y-9374008D01*
X4851015Y-9374008D02*
X4870063Y-9364484D01*
X5060539Y-9364484D02*
X5079586Y-9364484D01*
X5079586Y-9364484D02*
X5098634Y-9374008D01*
X5098634Y-9374008D02*
X5108158Y-9383531D01*
X5108158Y-9383531D02*
X5117682Y-9402579D01*
X5117682Y-9402579D02*
X5127205Y-9440674D01*
X5127205Y-9440674D02*
X5127205Y-9488293D01*
X5127205Y-9488293D02*
X5117682Y-9526389D01*
X5117682Y-9526389D02*
X5108158Y-9545436D01*
X5108158Y-9545436D02*
X5098634Y-9554960D01*
X5098634Y-9554960D02*
X5079586Y-9564484D01*
X5079586Y-9564484D02*
X5060539Y-9564484D01*
X5060539Y-9564484D02*
X5041491Y-9554960D01*
X5041491Y-9554960D02*
X5031967Y-9545436D01*
X5031967Y-9545436D02*
X5022444Y-9526389D01*
X5022444Y-9526389D02*
X5012920Y-9488293D01*
X5012920Y-9488293D02*
X5012920Y-9440674D01*
X5012920Y-9440674D02*
X5022444Y-9402579D01*
X5022444Y-9402579D02*
X5031967Y-9383531D01*
X5031967Y-9383531D02*
X5041491Y-9374008D01*
X5041491Y-9374008D02*
X5060539Y-9364484D01*
X5212920Y-9564484D02*
X5212920Y-9431150D01*
X5212920Y-9450198D02*
X5222444Y-9440674D01*
X5222444Y-9440674D02*
X5241491Y-9431150D01*
X5241491Y-9431150D02*
X5270063Y-9431150D01*
X5270063Y-9431150D02*
X5289110Y-9440674D01*
X5289110Y-9440674D02*
X5298634Y-9459722D01*
X5298634Y-9459722D02*
X5298634Y-9564484D01*
X5298634Y-9459722D02*
X5308158Y-9440674D01*
X5308158Y-9440674D02*
X5327205Y-9431150D01*
X5327205Y-9431150D02*
X5355777Y-9431150D01*
X5355777Y-9431150D02*
X5374825Y-9440674D01*
X5374825Y-9440674D02*
X5384348Y-9459722D01*
X5384348Y-9459722D02*
X5384348Y-9564484D01*
X5479586Y-9564484D02*
X5479586Y-9431150D01*
X5479586Y-9450198D02*
X5489110Y-9440674D01*
X5489110Y-9440674D02*
X5508158Y-9431150D01*
X5508158Y-9431150D02*
X5536729Y-9431150D01*
X5536729Y-9431150D02*
X5555777Y-9440674D01*
X5555777Y-9440674D02*
X5565301Y-9459722D01*
X5565301Y-9459722D02*
X5565301Y-9564484D01*
X5565301Y-9459722D02*
X5574825Y-9440674D01*
X5574825Y-9440674D02*
X5593872Y-9431150D01*
X5593872Y-9431150D02*
X5622443Y-9431150D01*
X5622443Y-9431150D02*
X5641491Y-9440674D01*
X5641491Y-9440674D02*
X5651015Y-9459722D01*
X5651015Y-9459722D02*
X5651015Y-9564484D01*
X6041491Y-9354960D02*
X5870063Y-9612103D01*
X6298634Y-9364484D02*
X6317682Y-9364484D01*
X6317682Y-9364484D02*
X6336729Y-9374008D01*
X6336729Y-9374008D02*
X6346253Y-9383531D01*
X6346253Y-9383531D02*
X6355777Y-9402579D01*
X6355777Y-9402579D02*
X6365301Y-9440674D01*
X6365301Y-9440674D02*
X6365301Y-9488293D01*
X6365301Y-9488293D02*
X6355777Y-9526389D01*
X6355777Y-9526389D02*
X6346253Y-9545436D01*
X6346253Y-9545436D02*
X6336729Y-9554960D01*
X6336729Y-9554960D02*
X6317682Y-9564484D01*
X6317682Y-9564484D02*
X6298634Y-9564484D01*
X6298634Y-9564484D02*
X6279586Y-9554960D01*
X6279586Y-9554960D02*
X6270063Y-9545436D01*
X6270063Y-9545436D02*
X6260539Y-9526389D01*
X6260539Y-9526389D02*
X6251015Y-9488293D01*
X6251015Y-9488293D02*
X6251015Y-9440674D01*
X6251015Y-9440674D02*
X6260539Y-9402579D01*
X6260539Y-9402579D02*
X6270063Y-9383531D01*
X6270063Y-9383531D02*
X6279586Y-9374008D01*
X6279586Y-9374008D02*
X6298634Y-9364484D01*
X6451015Y-9545436D02*
X6460539Y-9554960D01*
X6460539Y-9554960D02*
X6451015Y-9564484D01*
X6451015Y-9564484D02*
X6441491Y-9554960D01*
X6441491Y-9554960D02*
X6451015Y-9545436D01*
X6451015Y-9545436D02*
X6451015Y-9564484D01*
X6584348Y-9364484D02*
X6603396Y-9364484D01*
X6603396Y-9364484D02*
X6622444Y-9374008D01*
X6622444Y-9374008D02*
X6631967Y-9383531D01*
X6631967Y-9383531D02*
X6641491Y-9402579D01*
X6641491Y-9402579D02*
X6651015Y-9440674D01*
X6651015Y-9440674D02*
X6651015Y-9488293D01*
X6651015Y-9488293D02*
X6641491Y-9526389D01*
X6641491Y-9526389D02*
X6631967Y-9545436D01*
X6631967Y-9545436D02*
X6622444Y-9554960D01*
X6622444Y-9554960D02*
X6603396Y-9564484D01*
X6603396Y-9564484D02*
X6584348Y-9564484D01*
X6584348Y-9564484D02*
X6565301Y-9554960D01*
X6565301Y-9554960D02*
X6555777Y-9545436D01*
X6555777Y-9545436D02*
X6546253Y-9526389D01*
X6546253Y-9526389D02*
X6536729Y-9488293D01*
X6536729Y-9488293D02*
X6536729Y-9440674D01*
X6536729Y-9440674D02*
X6546253Y-9402579D01*
X6546253Y-9402579D02*
X6555777Y-9383531D01*
X6555777Y-9383531D02*
X6565301Y-9374008D01*
X6565301Y-9374008D02*
X6584348Y-9364484D01*
X6727206Y-9383531D02*
X6736729Y-9374008D01*
X6736729Y-9374008D02*
X6755777Y-9364484D01*
X6755777Y-9364484D02*
X6803396Y-9364484D01*
X6803396Y-9364484D02*
X6822444Y-9374008D01*
X6822444Y-9374008D02*
X6831967Y-9383531D01*
X6831967Y-9383531D02*
X6841491Y-9402579D01*
X6841491Y-9402579D02*
X6841491Y-9421627D01*
X6841491Y-9421627D02*
X6831967Y-9450198D01*
X6831967Y-9450198D02*
X6717682Y-9564484D01*
X6717682Y-9564484D02*
X6841491Y-9564484D01*
X6908158Y-9364484D02*
X7031967Y-9364484D01*
X7031967Y-9364484D02*
X6965301Y-9440674D01*
X6965301Y-9440674D02*
X6993872Y-9440674D01*
X6993872Y-9440674D02*
X7012920Y-9450198D01*
X7012920Y-9450198D02*
X7022444Y-9459722D01*
X7022444Y-9459722D02*
X7031967Y-9478770D01*
X7031967Y-9478770D02*
X7031967Y-9526389D01*
X7031967Y-9526389D02*
X7022444Y-9545436D01*
X7022444Y-9545436D02*
X7012920Y-9554960D01*
X7012920Y-9554960D02*
X6993872Y-9564484D01*
X6993872Y-9564484D02*
X6936729Y-9564484D01*
X6936729Y-9564484D02*
X6917682Y-9554960D01*
X6917682Y-9554960D02*
X6908158Y-9545436D01*
X7203396Y-9364484D02*
X7165301Y-9364484D01*
X7165301Y-9364484D02*
X7146253Y-9374008D01*
X7146253Y-9374008D02*
X7136729Y-9383531D01*
X7136729Y-9383531D02*
X7117682Y-9412103D01*
X7117682Y-9412103D02*
X7108158Y-9450198D01*
X7108158Y-9450198D02*
X7108158Y-9526389D01*
X7108158Y-9526389D02*
X7117682Y-9545436D01*
X7117682Y-9545436D02*
X7127206Y-9554960D01*
X7127206Y-9554960D02*
X7146253Y-9564484D01*
X7146253Y-9564484D02*
X7184348Y-9564484D01*
X7184348Y-9564484D02*
X7203396Y-9554960D01*
X7203396Y-9554960D02*
X7212920Y-9545436D01*
X7212920Y-9545436D02*
X7222444Y-9526389D01*
X7222444Y-9526389D02*
X7222444Y-9478770D01*
X7222444Y-9478770D02*
X7212920Y-9459722D01*
X7212920Y-9459722D02*
X7203396Y-9450198D01*
X7203396Y-9450198D02*
X7184348Y-9440674D01*
X7184348Y-9440674D02*
X7146253Y-9440674D01*
X7146253Y-9440674D02*
X7127206Y-9450198D01*
X7127206Y-9450198D02*
X7117682Y-9459722D01*
X7117682Y-9459722D02*
X7108158Y-9478770D01*
X7298634Y-9364484D02*
X7298634Y-9402579D01*
X7374825Y-9364484D02*
X7374825Y-9402579D01*
X7670063Y-9640674D02*
X7660539Y-9631150D01*
X7660539Y-9631150D02*
X7641491Y-9602579D01*
X7641491Y-9602579D02*
X7631968Y-9583531D01*
X7631968Y-9583531D02*
X7622444Y-9554960D01*
X7622444Y-9554960D02*
X7612920Y-9507341D01*
X7612920Y-9507341D02*
X7612920Y-9469246D01*
X7612920Y-9469246D02*
X7622444Y-9421627D01*
X7622444Y-9421627D02*
X7631968Y-9393055D01*
X7631968Y-9393055D02*
X7641491Y-9374008D01*
X7641491Y-9374008D02*
X7660539Y-9345436D01*
X7660539Y-9345436D02*
X7670063Y-9335912D01*
X7736729Y-9383531D02*
X7746253Y-9374008D01*
X7746253Y-9374008D02*
X7765301Y-9364484D01*
X7765301Y-9364484D02*
X7812920Y-9364484D01*
X7812920Y-9364484D02*
X7831968Y-9374008D01*
X7831968Y-9374008D02*
X7841491Y-9383531D01*
X7841491Y-9383531D02*
X7851015Y-9402579D01*
X7851015Y-9402579D02*
X7851015Y-9421627D01*
X7851015Y-9421627D02*
X7841491Y-9450198D01*
X7841491Y-9450198D02*
X7727206Y-9564484D01*
X7727206Y-9564484D02*
X7851015Y-9564484D01*
X8089110Y-9564484D02*
X8089110Y-9364484D01*
X8174825Y-9564484D02*
X8174825Y-9459722D01*
X8174825Y-9459722D02*
X8165301Y-9440674D01*
X8165301Y-9440674D02*
X8146253Y-9431150D01*
X8146253Y-9431150D02*
X8117682Y-9431150D01*
X8117682Y-9431150D02*
X8098634Y-9440674D01*
X8098634Y-9440674D02*
X8089110Y-9450198D01*
X8298634Y-9564484D02*
X8279587Y-9554960D01*
X8279587Y-9554960D02*
X8270063Y-9545436D01*
X8270063Y-9545436D02*
X8260539Y-9526389D01*
X8260539Y-9526389D02*
X8260539Y-9469246D01*
X8260539Y-9469246D02*
X8270063Y-9450198D01*
X8270063Y-9450198D02*
X8279587Y-9440674D01*
X8279587Y-9440674D02*
X8298634Y-9431150D01*
X8298634Y-9431150D02*
X8327206Y-9431150D01*
X8327206Y-9431150D02*
X8346253Y-9440674D01*
X8346253Y-9440674D02*
X8355777Y-9450198D01*
X8355777Y-9450198D02*
X8365301Y-9469246D01*
X8365301Y-9469246D02*
X8365301Y-9526389D01*
X8365301Y-9526389D02*
X8355777Y-9545436D01*
X8355777Y-9545436D02*
X8346253Y-9554960D01*
X8346253Y-9554960D02*
X8327206Y-9564484D01*
X8327206Y-9564484D02*
X8298634Y-9564484D01*
X8479587Y-9564484D02*
X8460539Y-9554960D01*
X8460539Y-9554960D02*
X8451015Y-9535912D01*
X8451015Y-9535912D02*
X8451015Y-9364484D01*
X8631968Y-9554960D02*
X8612920Y-9564484D01*
X8612920Y-9564484D02*
X8574825Y-9564484D01*
X8574825Y-9564484D02*
X8555777Y-9554960D01*
X8555777Y-9554960D02*
X8546253Y-9535912D01*
X8546253Y-9535912D02*
X8546253Y-9459722D01*
X8546253Y-9459722D02*
X8555777Y-9440674D01*
X8555777Y-9440674D02*
X8574825Y-9431150D01*
X8574825Y-9431150D02*
X8612920Y-9431150D01*
X8612920Y-9431150D02*
X8631968Y-9440674D01*
X8631968Y-9440674D02*
X8641492Y-9459722D01*
X8641492Y-9459722D02*
X8641492Y-9478770D01*
X8641492Y-9478770D02*
X8546253Y-9497817D01*
X8717682Y-9554960D02*
X8736730Y-9564484D01*
X8736730Y-9564484D02*
X8774825Y-9564484D01*
X8774825Y-9564484D02*
X8793873Y-9554960D01*
X8793873Y-9554960D02*
X8803396Y-9535912D01*
X8803396Y-9535912D02*
X8803396Y-9526389D01*
X8803396Y-9526389D02*
X8793873Y-9507341D01*
X8793873Y-9507341D02*
X8774825Y-9497817D01*
X8774825Y-9497817D02*
X8746253Y-9497817D01*
X8746253Y-9497817D02*
X8727206Y-9488293D01*
X8727206Y-9488293D02*
X8717682Y-9469246D01*
X8717682Y-9469246D02*
X8717682Y-9459722D01*
X8717682Y-9459722D02*
X8727206Y-9440674D01*
X8727206Y-9440674D02*
X8746253Y-9431150D01*
X8746253Y-9431150D02*
X8774825Y-9431150D01*
X8774825Y-9431150D02*
X8793873Y-9440674D01*
X8870063Y-9640674D02*
X8879587Y-9631150D01*
X8879587Y-9631150D02*
X8898634Y-9602579D01*
X8898634Y-9602579D02*
X8908158Y-9583531D01*
X8908158Y-9583531D02*
X8917682Y-9554960D01*
X8917682Y-9554960D02*
X8927206Y-9507341D01*
X8927206Y-9507341D02*
X8927206Y-9469246D01*
X8927206Y-9469246D02*
X8917682Y-9421627D01*
X8917682Y-9421627D02*
X8908158Y-9393055D01*
X8908158Y-9393055D02*
X8898634Y-9374008D01*
X8898634Y-9374008D02*
X8879587Y-9345436D01*
X8879587Y-9345436D02*
X8870063Y-9335912D01*
D10*
X4083841Y-9763941D02*
X4083841Y-9710059D01*
X4029959Y-9710059D01*
X4029959Y-9763941D01*
X4083841Y-9763941D01*
D11*
X4393872Y-9628484D02*
X4412920Y-9628484D01*
X4412920Y-9628484D02*
X4431967Y-9638008D01*
X4431967Y-9638008D02*
X4441491Y-9647531D01*
X4441491Y-9647531D02*
X4451015Y-9666579D01*
X4451015Y-9666579D02*
X4460539Y-9704674D01*
X4460539Y-9704674D02*
X4460539Y-9752293D01*
X4460539Y-9752293D02*
X4451015Y-9790389D01*
X4451015Y-9790389D02*
X4441491Y-9809436D01*
X4441491Y-9809436D02*
X4431967Y-9818960D01*
X4431967Y-9818960D02*
X4412920Y-9828484D01*
X4412920Y-9828484D02*
X4393872Y-9828484D01*
X4393872Y-9828484D02*
X4374824Y-9818960D01*
X4374824Y-9818960D02*
X4365301Y-9809436D01*
X4365301Y-9809436D02*
X4355777Y-9790389D01*
X4355777Y-9790389D02*
X4346253Y-9752293D01*
X4346253Y-9752293D02*
X4346253Y-9704674D01*
X4346253Y-9704674D02*
X4355777Y-9666579D01*
X4355777Y-9666579D02*
X4365301Y-9647531D01*
X4365301Y-9647531D02*
X4374824Y-9638008D01*
X4374824Y-9638008D02*
X4393872Y-9628484D01*
X4546253Y-9809436D02*
X4555777Y-9818960D01*
X4555777Y-9818960D02*
X4546253Y-9828484D01*
X4546253Y-9828484D02*
X4536729Y-9818960D01*
X4536729Y-9818960D02*
X4546253Y-9809436D01*
X4546253Y-9809436D02*
X4546253Y-9828484D01*
X4622444Y-9628484D02*
X4755777Y-9628484D01*
X4755777Y-9628484D02*
X4670063Y-9828484D01*
X4917682Y-9628484D02*
X4879586Y-9628484D01*
X4879586Y-9628484D02*
X4860539Y-9638008D01*
X4860539Y-9638008D02*
X4851015Y-9647531D01*
X4851015Y-9647531D02*
X4831967Y-9676103D01*
X4831967Y-9676103D02*
X4822444Y-9714198D01*
X4822444Y-9714198D02*
X4822444Y-9790389D01*
X4822444Y-9790389D02*
X4831967Y-9809436D01*
X4831967Y-9809436D02*
X4841491Y-9818960D01*
X4841491Y-9818960D02*
X4860539Y-9828484D01*
X4860539Y-9828484D02*
X4898634Y-9828484D01*
X4898634Y-9828484D02*
X4917682Y-9818960D01*
X4917682Y-9818960D02*
X4927205Y-9809436D01*
X4927205Y-9809436D02*
X4936729Y-9790389D01*
X4936729Y-9790389D02*
X4936729Y-9742770D01*
X4936729Y-9742770D02*
X4927205Y-9723722D01*
X4927205Y-9723722D02*
X4917682Y-9714198D01*
X4917682Y-9714198D02*
X4898634Y-9704674D01*
X4898634Y-9704674D02*
X4860539Y-9704674D01*
X4860539Y-9704674D02*
X4841491Y-9714198D01*
X4841491Y-9714198D02*
X4831967Y-9723722D01*
X4831967Y-9723722D02*
X4822444Y-9742770D01*
X5012920Y-9647531D02*
X5022444Y-9638008D01*
X5022444Y-9638008D02*
X5041491Y-9628484D01*
X5041491Y-9628484D02*
X5089110Y-9628484D01*
X5089110Y-9628484D02*
X5108158Y-9638008D01*
X5108158Y-9638008D02*
X5117682Y-9647531D01*
X5117682Y-9647531D02*
X5127205Y-9666579D01*
X5127205Y-9666579D02*
X5127205Y-9685627D01*
X5127205Y-9685627D02*
X5117682Y-9714198D01*
X5117682Y-9714198D02*
X5003396Y-9828484D01*
X5003396Y-9828484D02*
X5127205Y-9828484D01*
X5212920Y-9828484D02*
X5212920Y-9695150D01*
X5212920Y-9714198D02*
X5222444Y-9704674D01*
X5222444Y-9704674D02*
X5241491Y-9695150D01*
X5241491Y-9695150D02*
X5270063Y-9695150D01*
X5270063Y-9695150D02*
X5289110Y-9704674D01*
X5289110Y-9704674D02*
X5298634Y-9723722D01*
X5298634Y-9723722D02*
X5298634Y-9828484D01*
X5298634Y-9723722D02*
X5308158Y-9704674D01*
X5308158Y-9704674D02*
X5327205Y-9695150D01*
X5327205Y-9695150D02*
X5355777Y-9695150D01*
X5355777Y-9695150D02*
X5374825Y-9704674D01*
X5374825Y-9704674D02*
X5384348Y-9723722D01*
X5384348Y-9723722D02*
X5384348Y-9828484D01*
X5479586Y-9828484D02*
X5479586Y-9695150D01*
X5479586Y-9714198D02*
X5489110Y-9704674D01*
X5489110Y-9704674D02*
X5508158Y-9695150D01*
X5508158Y-9695150D02*
X5536729Y-9695150D01*
X5536729Y-9695150D02*
X5555777Y-9704674D01*
X5555777Y-9704674D02*
X5565301Y-9723722D01*
X5565301Y-9723722D02*
X5565301Y-9828484D01*
X5565301Y-9723722D02*
X5574825Y-9704674D01*
X5574825Y-9704674D02*
X5593872Y-9695150D01*
X5593872Y-9695150D02*
X5622443Y-9695150D01*
X5622443Y-9695150D02*
X5641491Y-9704674D01*
X5641491Y-9704674D02*
X5651015Y-9723722D01*
X5651015Y-9723722D02*
X5651015Y-9828484D01*
X6041491Y-9618960D02*
X5870063Y-9876103D01*
X6298634Y-9628484D02*
X6317682Y-9628484D01*
X6317682Y-9628484D02*
X6336729Y-9638008D01*
X6336729Y-9638008D02*
X6346253Y-9647531D01*
X6346253Y-9647531D02*
X6355777Y-9666579D01*
X6355777Y-9666579D02*
X6365301Y-9704674D01*
X6365301Y-9704674D02*
X6365301Y-9752293D01*
X6365301Y-9752293D02*
X6355777Y-9790389D01*
X6355777Y-9790389D02*
X6346253Y-9809436D01*
X6346253Y-9809436D02*
X6336729Y-9818960D01*
X6336729Y-9818960D02*
X6317682Y-9828484D01*
X6317682Y-9828484D02*
X6298634Y-9828484D01*
X6298634Y-9828484D02*
X6279586Y-9818960D01*
X6279586Y-9818960D02*
X6270063Y-9809436D01*
X6270063Y-9809436D02*
X6260539Y-9790389D01*
X6260539Y-9790389D02*
X6251015Y-9752293D01*
X6251015Y-9752293D02*
X6251015Y-9704674D01*
X6251015Y-9704674D02*
X6260539Y-9666579D01*
X6260539Y-9666579D02*
X6270063Y-9647531D01*
X6270063Y-9647531D02*
X6279586Y-9638008D01*
X6279586Y-9638008D02*
X6298634Y-9628484D01*
X6451015Y-9809436D02*
X6460539Y-9818960D01*
X6460539Y-9818960D02*
X6451015Y-9828484D01*
X6451015Y-9828484D02*
X6441491Y-9818960D01*
X6441491Y-9818960D02*
X6451015Y-9809436D01*
X6451015Y-9809436D02*
X6451015Y-9828484D01*
X6584348Y-9628484D02*
X6603396Y-9628484D01*
X6603396Y-9628484D02*
X6622444Y-9638008D01*
X6622444Y-9638008D02*
X6631967Y-9647531D01*
X6631967Y-9647531D02*
X6641491Y-9666579D01*
X6641491Y-9666579D02*
X6651015Y-9704674D01*
X6651015Y-9704674D02*
X6651015Y-9752293D01*
X6651015Y-9752293D02*
X6641491Y-9790389D01*
X6641491Y-9790389D02*
X6631967Y-9809436D01*
X6631967Y-9809436D02*
X6622444Y-9818960D01*
X6622444Y-9818960D02*
X6603396Y-9828484D01*
X6603396Y-9828484D02*
X6584348Y-9828484D01*
X6584348Y-9828484D02*
X6565301Y-9818960D01*
X6565301Y-9818960D02*
X6555777Y-9809436D01*
X6555777Y-9809436D02*
X6546253Y-9790389D01*
X6546253Y-9790389D02*
X6536729Y-9752293D01*
X6536729Y-9752293D02*
X6536729Y-9704674D01*
X6536729Y-9704674D02*
X6546253Y-9666579D01*
X6546253Y-9666579D02*
X6555777Y-9647531D01*
X6555777Y-9647531D02*
X6565301Y-9638008D01*
X6565301Y-9638008D02*
X6584348Y-9628484D01*
X6717682Y-9628484D02*
X6841491Y-9628484D01*
X6841491Y-9628484D02*
X6774825Y-9704674D01*
X6774825Y-9704674D02*
X6803396Y-9704674D01*
X6803396Y-9704674D02*
X6822444Y-9714198D01*
X6822444Y-9714198D02*
X6831967Y-9723722D01*
X6831967Y-9723722D02*
X6841491Y-9742770D01*
X6841491Y-9742770D02*
X6841491Y-9790389D01*
X6841491Y-9790389D02*
X6831967Y-9809436D01*
X6831967Y-9809436D02*
X6822444Y-9818960D01*
X6822444Y-9818960D02*
X6803396Y-9828484D01*
X6803396Y-9828484D02*
X6746253Y-9828484D01*
X6746253Y-9828484D02*
X6727206Y-9818960D01*
X6727206Y-9818960D02*
X6717682Y-9809436D01*
X6965301Y-9628484D02*
X6984348Y-9628484D01*
X6984348Y-9628484D02*
X7003396Y-9638008D01*
X7003396Y-9638008D02*
X7012920Y-9647531D01*
X7012920Y-9647531D02*
X7022444Y-9666579D01*
X7022444Y-9666579D02*
X7031967Y-9704674D01*
X7031967Y-9704674D02*
X7031967Y-9752293D01*
X7031967Y-9752293D02*
X7022444Y-9790389D01*
X7022444Y-9790389D02*
X7012920Y-9809436D01*
X7012920Y-9809436D02*
X7003396Y-9818960D01*
X7003396Y-9818960D02*
X6984348Y-9828484D01*
X6984348Y-9828484D02*
X6965301Y-9828484D01*
X6965301Y-9828484D02*
X6946253Y-9818960D01*
X6946253Y-9818960D02*
X6936729Y-9809436D01*
X6936729Y-9809436D02*
X6927206Y-9790389D01*
X6927206Y-9790389D02*
X6917682Y-9752293D01*
X6917682Y-9752293D02*
X6917682Y-9704674D01*
X6917682Y-9704674D02*
X6927206Y-9666579D01*
X6927206Y-9666579D02*
X6936729Y-9647531D01*
X6936729Y-9647531D02*
X6946253Y-9638008D01*
X6946253Y-9638008D02*
X6965301Y-9628484D01*
X7155777Y-9628484D02*
X7174825Y-9628484D01*
X7174825Y-9628484D02*
X7193872Y-9638008D01*
X7193872Y-9638008D02*
X7203396Y-9647531D01*
X7203396Y-9647531D02*
X7212920Y-9666579D01*
X7212920Y-9666579D02*
X7222444Y-9704674D01*
X7222444Y-9704674D02*
X7222444Y-9752293D01*
X7222444Y-9752293D02*
X7212920Y-9790389D01*
X7212920Y-9790389D02*
X7203396Y-9809436D01*
X7203396Y-9809436D02*
X7193872Y-9818960D01*
X7193872Y-9818960D02*
X7174825Y-9828484D01*
X7174825Y-9828484D02*
X7155777Y-9828484D01*
X7155777Y-9828484D02*
X7136729Y-9818960D01*
X7136729Y-9818960D02*
X7127206Y-9809436D01*
X7127206Y-9809436D02*
X7117682Y-9790389D01*
X7117682Y-9790389D02*
X7108158Y-9752293D01*
X7108158Y-9752293D02*
X7108158Y-9704674D01*
X7108158Y-9704674D02*
X7117682Y-9666579D01*
X7117682Y-9666579D02*
X7127206Y-9647531D01*
X7127206Y-9647531D02*
X7136729Y-9638008D01*
X7136729Y-9638008D02*
X7155777Y-9628484D01*
X7298634Y-9628484D02*
X7298634Y-9666579D01*
X7374825Y-9628484D02*
X7374825Y-9666579D01*
X7670063Y-9904674D02*
X7660539Y-9895150D01*
X7660539Y-9895150D02*
X7641491Y-9866579D01*
X7641491Y-9866579D02*
X7631968Y-9847531D01*
X7631968Y-9847531D02*
X7622444Y-9818960D01*
X7622444Y-9818960D02*
X7612920Y-9771341D01*
X7612920Y-9771341D02*
X7612920Y-9733246D01*
X7612920Y-9733246D02*
X7622444Y-9685627D01*
X7622444Y-9685627D02*
X7631968Y-9657055D01*
X7631968Y-9657055D02*
X7641491Y-9638008D01*
X7641491Y-9638008D02*
X7660539Y-9609436D01*
X7660539Y-9609436D02*
X7670063Y-9599912D01*
X7851015Y-9828484D02*
X7736729Y-9828484D01*
X7793872Y-9828484D02*
X7793872Y-9628484D01*
X7793872Y-9628484D02*
X7774825Y-9657055D01*
X7774825Y-9657055D02*
X7755777Y-9676103D01*
X7755777Y-9676103D02*
X7736729Y-9685627D01*
X8089110Y-9828484D02*
X8089110Y-9628484D01*
X8174825Y-9828484D02*
X8174825Y-9723722D01*
X8174825Y-9723722D02*
X8165301Y-9704674D01*
X8165301Y-9704674D02*
X8146253Y-9695150D01*
X8146253Y-9695150D02*
X8117682Y-9695150D01*
X8117682Y-9695150D02*
X8098634Y-9704674D01*
X8098634Y-9704674D02*
X8089110Y-9714198D01*
X8298634Y-9828484D02*
X8279587Y-9818960D01*
X8279587Y-9818960D02*
X8270063Y-9809436D01*
X8270063Y-9809436D02*
X8260539Y-9790389D01*
X8260539Y-9790389D02*
X8260539Y-9733246D01*
X8260539Y-9733246D02*
X8270063Y-9714198D01*
X8270063Y-9714198D02*
X8279587Y-9704674D01*
X8279587Y-9704674D02*
X8298634Y-9695150D01*
X8298634Y-9695150D02*
X8327206Y-9695150D01*
X8327206Y-9695150D02*
X8346253Y-9704674D01*
X8346253Y-9704674D02*
X8355777Y-9714198D01*
X8355777Y-9714198D02*
X8365301Y-9733246D01*
X8365301Y-9733246D02*
X8365301Y-9790389D01*
X8365301Y-9790389D02*
X8355777Y-9809436D01*
X8355777Y-9809436D02*
X8346253Y-9818960D01*
X8346253Y-9818960D02*
X8327206Y-9828484D01*
X8327206Y-9828484D02*
X8298634Y-9828484D01*
X8479587Y-9828484D02*
X8460539Y-9818960D01*
X8460539Y-9818960D02*
X8451015Y-9799912D01*
X8451015Y-9799912D02*
X8451015Y-9628484D01*
X8631968Y-9818960D02*
X8612920Y-9828484D01*
X8612920Y-9828484D02*
X8574825Y-9828484D01*
X8574825Y-9828484D02*
X8555777Y-9818960D01*
X8555777Y-9818960D02*
X8546253Y-9799912D01*
X8546253Y-9799912D02*
X8546253Y-9723722D01*
X8546253Y-9723722D02*
X8555777Y-9704674D01*
X8555777Y-9704674D02*
X8574825Y-9695150D01*
X8574825Y-9695150D02*
X8612920Y-9695150D01*
X8612920Y-9695150D02*
X8631968Y-9704674D01*
X8631968Y-9704674D02*
X8641492Y-9723722D01*
X8641492Y-9723722D02*
X8641492Y-9742770D01*
X8641492Y-9742770D02*
X8546253Y-9761817D01*
X8708158Y-9904674D02*
X8717682Y-9895150D01*
X8717682Y-9895150D02*
X8736730Y-9866579D01*
X8736730Y-9866579D02*
X8746253Y-9847531D01*
X8746253Y-9847531D02*
X8755777Y-9818960D01*
X8755777Y-9818960D02*
X8765301Y-9771341D01*
X8765301Y-9771341D02*
X8765301Y-9733246D01*
X8765301Y-9733246D02*
X8755777Y-9685627D01*
X8755777Y-9685627D02*
X8746253Y-9657055D01*
X8746253Y-9657055D02*
X8736730Y-9638008D01*
X8736730Y-9638008D02*
X8717682Y-9609436D01*
X8717682Y-9609436D02*
X8708158Y-9599912D01*
D10*
X4055000Y-10041000D02*
X4095000Y-10001000D01*
X4055000Y-9961000D01*
X4015000Y-10001000D01*
X4055000Y-10041000D01*
D11*
X4393872Y-9892484D02*
X4412920Y-9892484D01*
X4412920Y-9892484D02*
X4431967Y-9902008D01*
X4431967Y-9902008D02*
X4441491Y-9911531D01*
X4441491Y-9911531D02*
X4451015Y-9930579D01*
X4451015Y-9930579D02*
X4460539Y-9968674D01*
X4460539Y-9968674D02*
X4460539Y-10016293D01*
X4460539Y-10016293D02*
X4451015Y-10054389D01*
X4451015Y-10054389D02*
X4441491Y-10073436D01*
X4441491Y-10073436D02*
X4431967Y-10082960D01*
X4431967Y-10082960D02*
X4412920Y-10092484D01*
X4412920Y-10092484D02*
X4393872Y-10092484D01*
X4393872Y-10092484D02*
X4374824Y-10082960D01*
X4374824Y-10082960D02*
X4365301Y-10073436D01*
X4365301Y-10073436D02*
X4355777Y-10054389D01*
X4355777Y-10054389D02*
X4346253Y-10016293D01*
X4346253Y-10016293D02*
X4346253Y-9968674D01*
X4346253Y-9968674D02*
X4355777Y-9930579D01*
X4355777Y-9930579D02*
X4365301Y-9911531D01*
X4365301Y-9911531D02*
X4374824Y-9902008D01*
X4374824Y-9902008D02*
X4393872Y-9892484D01*
X4546253Y-10073436D02*
X4555777Y-10082960D01*
X4555777Y-10082960D02*
X4546253Y-10092484D01*
X4546253Y-10092484D02*
X4536729Y-10082960D01*
X4536729Y-10082960D02*
X4546253Y-10073436D01*
X4546253Y-10073436D02*
X4546253Y-10092484D01*
X4670063Y-9978198D02*
X4651015Y-9968674D01*
X4651015Y-9968674D02*
X4641491Y-9959150D01*
X4641491Y-9959150D02*
X4631967Y-9940103D01*
X4631967Y-9940103D02*
X4631967Y-9930579D01*
X4631967Y-9930579D02*
X4641491Y-9911531D01*
X4641491Y-9911531D02*
X4651015Y-9902008D01*
X4651015Y-9902008D02*
X4670063Y-9892484D01*
X4670063Y-9892484D02*
X4708158Y-9892484D01*
X4708158Y-9892484D02*
X4727205Y-9902008D01*
X4727205Y-9902008D02*
X4736729Y-9911531D01*
X4736729Y-9911531D02*
X4746253Y-9930579D01*
X4746253Y-9930579D02*
X4746253Y-9940103D01*
X4746253Y-9940103D02*
X4736729Y-9959150D01*
X4736729Y-9959150D02*
X4727205Y-9968674D01*
X4727205Y-9968674D02*
X4708158Y-9978198D01*
X4708158Y-9978198D02*
X4670063Y-9978198D01*
X4670063Y-9978198D02*
X4651015Y-9987722D01*
X4651015Y-9987722D02*
X4641491Y-9997246D01*
X4641491Y-9997246D02*
X4631967Y-10016293D01*
X4631967Y-10016293D02*
X4631967Y-10054389D01*
X4631967Y-10054389D02*
X4641491Y-10073436D01*
X4641491Y-10073436D02*
X4651015Y-10082960D01*
X4651015Y-10082960D02*
X4670063Y-10092484D01*
X4670063Y-10092484D02*
X4708158Y-10092484D01*
X4708158Y-10092484D02*
X4727205Y-10082960D01*
X4727205Y-10082960D02*
X4736729Y-10073436D01*
X4736729Y-10073436D02*
X4746253Y-10054389D01*
X4746253Y-10054389D02*
X4746253Y-10016293D01*
X4746253Y-10016293D02*
X4736729Y-9997246D01*
X4736729Y-9997246D02*
X4727205Y-9987722D01*
X4727205Y-9987722D02*
X4708158Y-9978198D01*
X4870063Y-9892484D02*
X4889110Y-9892484D01*
X4889110Y-9892484D02*
X4908158Y-9902008D01*
X4908158Y-9902008D02*
X4917682Y-9911531D01*
X4917682Y-9911531D02*
X4927205Y-9930579D01*
X4927205Y-9930579D02*
X4936729Y-9968674D01*
X4936729Y-9968674D02*
X4936729Y-10016293D01*
X4936729Y-10016293D02*
X4927205Y-10054389D01*
X4927205Y-10054389D02*
X4917682Y-10073436D01*
X4917682Y-10073436D02*
X4908158Y-10082960D01*
X4908158Y-10082960D02*
X4889110Y-10092484D01*
X4889110Y-10092484D02*
X4870063Y-10092484D01*
X4870063Y-10092484D02*
X4851015Y-10082960D01*
X4851015Y-10082960D02*
X4841491Y-10073436D01*
X4841491Y-10073436D02*
X4831967Y-10054389D01*
X4831967Y-10054389D02*
X4822444Y-10016293D01*
X4822444Y-10016293D02*
X4822444Y-9968674D01*
X4822444Y-9968674D02*
X4831967Y-9930579D01*
X4831967Y-9930579D02*
X4841491Y-9911531D01*
X4841491Y-9911531D02*
X4851015Y-9902008D01*
X4851015Y-9902008D02*
X4870063Y-9892484D01*
X5060539Y-9892484D02*
X5079586Y-9892484D01*
X5079586Y-9892484D02*
X5098634Y-9902008D01*
X5098634Y-9902008D02*
X5108158Y-9911531D01*
X5108158Y-9911531D02*
X5117682Y-9930579D01*
X5117682Y-9930579D02*
X5127205Y-9968674D01*
X5127205Y-9968674D02*
X5127205Y-10016293D01*
X5127205Y-10016293D02*
X5117682Y-10054389D01*
X5117682Y-10054389D02*
X5108158Y-10073436D01*
X5108158Y-10073436D02*
X5098634Y-10082960D01*
X5098634Y-10082960D02*
X5079586Y-10092484D01*
X5079586Y-10092484D02*
X5060539Y-10092484D01*
X5060539Y-10092484D02*
X5041491Y-10082960D01*
X5041491Y-10082960D02*
X5031967Y-10073436D01*
X5031967Y-10073436D02*
X5022444Y-10054389D01*
X5022444Y-10054389D02*
X5012920Y-10016293D01*
X5012920Y-10016293D02*
X5012920Y-9968674D01*
X5012920Y-9968674D02*
X5022444Y-9930579D01*
X5022444Y-9930579D02*
X5031967Y-9911531D01*
X5031967Y-9911531D02*
X5041491Y-9902008D01*
X5041491Y-9902008D02*
X5060539Y-9892484D01*
X5212920Y-10092484D02*
X5212920Y-9959150D01*
X5212920Y-9978198D02*
X5222444Y-9968674D01*
X5222444Y-9968674D02*
X5241491Y-9959150D01*
X5241491Y-9959150D02*
X5270063Y-9959150D01*
X5270063Y-9959150D02*
X5289110Y-9968674D01*
X5289110Y-9968674D02*
X5298634Y-9987722D01*
X5298634Y-9987722D02*
X5298634Y-10092484D01*
X5298634Y-9987722D02*
X5308158Y-9968674D01*
X5308158Y-9968674D02*
X5327205Y-9959150D01*
X5327205Y-9959150D02*
X5355777Y-9959150D01*
X5355777Y-9959150D02*
X5374825Y-9968674D01*
X5374825Y-9968674D02*
X5384348Y-9987722D01*
X5384348Y-9987722D02*
X5384348Y-10092484D01*
X5479586Y-10092484D02*
X5479586Y-9959150D01*
X5479586Y-9978198D02*
X5489110Y-9968674D01*
X5489110Y-9968674D02*
X5508158Y-9959150D01*
X5508158Y-9959150D02*
X5536729Y-9959150D01*
X5536729Y-9959150D02*
X5555777Y-9968674D01*
X5555777Y-9968674D02*
X5565301Y-9987722D01*
X5565301Y-9987722D02*
X5565301Y-10092484D01*
X5565301Y-9987722D02*
X5574825Y-9968674D01*
X5574825Y-9968674D02*
X5593872Y-9959150D01*
X5593872Y-9959150D02*
X5622443Y-9959150D01*
X5622443Y-9959150D02*
X5641491Y-9968674D01*
X5641491Y-9968674D02*
X5651015Y-9987722D01*
X5651015Y-9987722D02*
X5651015Y-10092484D01*
X6041491Y-9882960D02*
X5870063Y-10140103D01*
X6298634Y-9892484D02*
X6317682Y-9892484D01*
X6317682Y-9892484D02*
X6336729Y-9902008D01*
X6336729Y-9902008D02*
X6346253Y-9911531D01*
X6346253Y-9911531D02*
X6355777Y-9930579D01*
X6355777Y-9930579D02*
X6365301Y-9968674D01*
X6365301Y-9968674D02*
X6365301Y-10016293D01*
X6365301Y-10016293D02*
X6355777Y-10054389D01*
X6355777Y-10054389D02*
X6346253Y-10073436D01*
X6346253Y-10073436D02*
X6336729Y-10082960D01*
X6336729Y-10082960D02*
X6317682Y-10092484D01*
X6317682Y-10092484D02*
X6298634Y-10092484D01*
X6298634Y-10092484D02*
X6279586Y-10082960D01*
X6279586Y-10082960D02*
X6270063Y-10073436D01*
X6270063Y-10073436D02*
X6260539Y-10054389D01*
X6260539Y-10054389D02*
X6251015Y-10016293D01*
X6251015Y-10016293D02*
X6251015Y-9968674D01*
X6251015Y-9968674D02*
X6260539Y-9930579D01*
X6260539Y-9930579D02*
X6270063Y-9911531D01*
X6270063Y-9911531D02*
X6279586Y-9902008D01*
X6279586Y-9902008D02*
X6298634Y-9892484D01*
X6451015Y-10073436D02*
X6460539Y-10082960D01*
X6460539Y-10082960D02*
X6451015Y-10092484D01*
X6451015Y-10092484D02*
X6441491Y-10082960D01*
X6441491Y-10082960D02*
X6451015Y-10073436D01*
X6451015Y-10073436D02*
X6451015Y-10092484D01*
X6584348Y-9892484D02*
X6603396Y-9892484D01*
X6603396Y-9892484D02*
X6622444Y-9902008D01*
X6622444Y-9902008D02*
X6631967Y-9911531D01*
X6631967Y-9911531D02*
X6641491Y-9930579D01*
X6641491Y-9930579D02*
X6651015Y-9968674D01*
X6651015Y-9968674D02*
X6651015Y-10016293D01*
X6651015Y-10016293D02*
X6641491Y-10054389D01*
X6641491Y-10054389D02*
X6631967Y-10073436D01*
X6631967Y-10073436D02*
X6622444Y-10082960D01*
X6622444Y-10082960D02*
X6603396Y-10092484D01*
X6603396Y-10092484D02*
X6584348Y-10092484D01*
X6584348Y-10092484D02*
X6565301Y-10082960D01*
X6565301Y-10082960D02*
X6555777Y-10073436D01*
X6555777Y-10073436D02*
X6546253Y-10054389D01*
X6546253Y-10054389D02*
X6536729Y-10016293D01*
X6536729Y-10016293D02*
X6536729Y-9968674D01*
X6536729Y-9968674D02*
X6546253Y-9930579D01*
X6546253Y-9930579D02*
X6555777Y-9911531D01*
X6555777Y-9911531D02*
X6565301Y-9902008D01*
X6565301Y-9902008D02*
X6584348Y-9892484D01*
X6717682Y-9892484D02*
X6841491Y-9892484D01*
X6841491Y-9892484D02*
X6774825Y-9968674D01*
X6774825Y-9968674D02*
X6803396Y-9968674D01*
X6803396Y-9968674D02*
X6822444Y-9978198D01*
X6822444Y-9978198D02*
X6831967Y-9987722D01*
X6831967Y-9987722D02*
X6841491Y-10006770D01*
X6841491Y-10006770D02*
X6841491Y-10054389D01*
X6841491Y-10054389D02*
X6831967Y-10073436D01*
X6831967Y-10073436D02*
X6822444Y-10082960D01*
X6822444Y-10082960D02*
X6803396Y-10092484D01*
X6803396Y-10092484D02*
X6746253Y-10092484D01*
X6746253Y-10092484D02*
X6727206Y-10082960D01*
X6727206Y-10082960D02*
X6717682Y-10073436D01*
X7031967Y-10092484D02*
X6917682Y-10092484D01*
X6974825Y-10092484D02*
X6974825Y-9892484D01*
X6974825Y-9892484D02*
X6955777Y-9921055D01*
X6955777Y-9921055D02*
X6936729Y-9940103D01*
X6936729Y-9940103D02*
X6917682Y-9949627D01*
X7212920Y-9892484D02*
X7117682Y-9892484D01*
X7117682Y-9892484D02*
X7108158Y-9987722D01*
X7108158Y-9987722D02*
X7117682Y-9978198D01*
X7117682Y-9978198D02*
X7136729Y-9968674D01*
X7136729Y-9968674D02*
X7184348Y-9968674D01*
X7184348Y-9968674D02*
X7203396Y-9978198D01*
X7203396Y-9978198D02*
X7212920Y-9987722D01*
X7212920Y-9987722D02*
X7222444Y-10006770D01*
X7222444Y-10006770D02*
X7222444Y-10054389D01*
X7222444Y-10054389D02*
X7212920Y-10073436D01*
X7212920Y-10073436D02*
X7203396Y-10082960D01*
X7203396Y-10082960D02*
X7184348Y-10092484D01*
X7184348Y-10092484D02*
X7136729Y-10092484D01*
X7136729Y-10092484D02*
X7117682Y-10082960D01*
X7117682Y-10082960D02*
X7108158Y-10073436D01*
X7298634Y-9892484D02*
X7298634Y-9930579D01*
X7374825Y-9892484D02*
X7374825Y-9930579D01*
X7670063Y-10168674D02*
X7660539Y-10159150D01*
X7660539Y-10159150D02*
X7641491Y-10130579D01*
X7641491Y-10130579D02*
X7631968Y-10111531D01*
X7631968Y-10111531D02*
X7622444Y-10082960D01*
X7622444Y-10082960D02*
X7612920Y-10035341D01*
X7612920Y-10035341D02*
X7612920Y-9997246D01*
X7612920Y-9997246D02*
X7622444Y-9949627D01*
X7622444Y-9949627D02*
X7631968Y-9921055D01*
X7631968Y-9921055D02*
X7641491Y-9902008D01*
X7641491Y-9902008D02*
X7660539Y-9873436D01*
X7660539Y-9873436D02*
X7670063Y-9863912D01*
X7831968Y-9892484D02*
X7793872Y-9892484D01*
X7793872Y-9892484D02*
X7774825Y-9902008D01*
X7774825Y-9902008D02*
X7765301Y-9911531D01*
X7765301Y-9911531D02*
X7746253Y-9940103D01*
X7746253Y-9940103D02*
X7736729Y-9978198D01*
X7736729Y-9978198D02*
X7736729Y-10054389D01*
X7736729Y-10054389D02*
X7746253Y-10073436D01*
X7746253Y-10073436D02*
X7755777Y-10082960D01*
X7755777Y-10082960D02*
X7774825Y-10092484D01*
X7774825Y-10092484D02*
X7812920Y-10092484D01*
X7812920Y-10092484D02*
X7831968Y-10082960D01*
X7831968Y-10082960D02*
X7841491Y-10073436D01*
X7841491Y-10073436D02*
X7851015Y-10054389D01*
X7851015Y-10054389D02*
X7851015Y-10006770D01*
X7851015Y-10006770D02*
X7841491Y-9987722D01*
X7841491Y-9987722D02*
X7831968Y-9978198D01*
X7831968Y-9978198D02*
X7812920Y-9968674D01*
X7812920Y-9968674D02*
X7774825Y-9968674D01*
X7774825Y-9968674D02*
X7755777Y-9978198D01*
X7755777Y-9978198D02*
X7746253Y-9987722D01*
X7746253Y-9987722D02*
X7736729Y-10006770D01*
X8089110Y-10092484D02*
X8089110Y-9892484D01*
X8174825Y-10092484D02*
X8174825Y-9987722D01*
X8174825Y-9987722D02*
X8165301Y-9968674D01*
X8165301Y-9968674D02*
X8146253Y-9959150D01*
X8146253Y-9959150D02*
X8117682Y-9959150D01*
X8117682Y-9959150D02*
X8098634Y-9968674D01*
X8098634Y-9968674D02*
X8089110Y-9978198D01*
X8298634Y-10092484D02*
X8279587Y-10082960D01*
X8279587Y-10082960D02*
X8270063Y-10073436D01*
X8270063Y-10073436D02*
X8260539Y-10054389D01*
X8260539Y-10054389D02*
X8260539Y-9997246D01*
X8260539Y-9997246D02*
X8270063Y-9978198D01*
X8270063Y-9978198D02*
X8279587Y-9968674D01*
X8279587Y-9968674D02*
X8298634Y-9959150D01*
X8298634Y-9959150D02*
X8327206Y-9959150D01*
X8327206Y-9959150D02*
X8346253Y-9968674D01*
X8346253Y-9968674D02*
X8355777Y-9978198D01*
X8355777Y-9978198D02*
X8365301Y-9997246D01*
X8365301Y-9997246D02*
X8365301Y-10054389D01*
X8365301Y-10054389D02*
X8355777Y-10073436D01*
X8355777Y-10073436D02*
X8346253Y-10082960D01*
X8346253Y-10082960D02*
X8327206Y-10092484D01*
X8327206Y-10092484D02*
X8298634Y-10092484D01*
X8479587Y-10092484D02*
X8460539Y-10082960D01*
X8460539Y-10082960D02*
X8451015Y-10063912D01*
X8451015Y-10063912D02*
X8451015Y-9892484D01*
X8631968Y-10082960D02*
X8612920Y-10092484D01*
X8612920Y-10092484D02*
X8574825Y-10092484D01*
X8574825Y-10092484D02*
X8555777Y-10082960D01*
X8555777Y-10082960D02*
X8546253Y-10063912D01*
X8546253Y-10063912D02*
X8546253Y-9987722D01*
X8546253Y-9987722D02*
X8555777Y-9968674D01*
X8555777Y-9968674D02*
X8574825Y-9959150D01*
X8574825Y-9959150D02*
X8612920Y-9959150D01*
X8612920Y-9959150D02*
X8631968Y-9968674D01*
X8631968Y-9968674D02*
X8641492Y-9987722D01*
X8641492Y-9987722D02*
X8641492Y-10006770D01*
X8641492Y-10006770D02*
X8546253Y-10025817D01*
X8717682Y-10082960D02*
X8736730Y-10092484D01*
X8736730Y-10092484D02*
X8774825Y-10092484D01*
X8774825Y-10092484D02*
X8793873Y-10082960D01*
X8793873Y-10082960D02*
X8803396Y-10063912D01*
X8803396Y-10063912D02*
X8803396Y-10054389D01*
X8803396Y-10054389D02*
X8793873Y-10035341D01*
X8793873Y-10035341D02*
X8774825Y-10025817D01*
X8774825Y-10025817D02*
X8746253Y-10025817D01*
X8746253Y-10025817D02*
X8727206Y-10016293D01*
X8727206Y-10016293D02*
X8717682Y-9997246D01*
X8717682Y-9997246D02*
X8717682Y-9987722D01*
X8717682Y-9987722D02*
X8727206Y-9968674D01*
X8727206Y-9968674D02*
X8746253Y-9959150D01*
X8746253Y-9959150D02*
X8774825Y-9959150D01*
X8774825Y-9959150D02*
X8793873Y-9968674D01*
X8870063Y-10168674D02*
X8879587Y-10159150D01*
X8879587Y-10159150D02*
X8898634Y-10130579D01*
X8898634Y-10130579D02*
X8908158Y-10111531D01*
X8908158Y-10111531D02*
X8917682Y-10082960D01*
X8917682Y-10082960D02*
X8927206Y-10035341D01*
X8927206Y-10035341D02*
X8927206Y-9997246D01*
X8927206Y-9997246D02*
X8917682Y-9949627D01*
X8917682Y-9949627D02*
X8908158Y-9921055D01*
X8908158Y-9921055D02*
X8898634Y-9902008D01*
X8898634Y-9902008D02*
X8879587Y-9873436D01*
X8879587Y-9873436D02*
X8870063Y-9863912D01*
D10*
X4005000Y-10220000D02*
X4095000Y-10310000D01*
X4095000Y-10220000D02*
X4005000Y-10310000D01*
X4095000Y-10265000D02*
G75*
G02*
X4005000Y-10265000I-45000J0D01*
G01*
X4005000Y-10265000D02*
G75*
G02*
X4095000Y-10265000I45000J0D01*
G01*
D11*
X4393872Y-10156484D02*
X4412920Y-10156484D01*
X4412920Y-10156484D02*
X4431967Y-10166008D01*
X4431967Y-10166008D02*
X4441491Y-10175531D01*
X4441491Y-10175531D02*
X4451015Y-10194579D01*
X4451015Y-10194579D02*
X4460539Y-10232674D01*
X4460539Y-10232674D02*
X4460539Y-10280293D01*
X4460539Y-10280293D02*
X4451015Y-10318389D01*
X4451015Y-10318389D02*
X4441491Y-10337436D01*
X4441491Y-10337436D02*
X4431967Y-10346960D01*
X4431967Y-10346960D02*
X4412920Y-10356484D01*
X4412920Y-10356484D02*
X4393872Y-10356484D01*
X4393872Y-10356484D02*
X4374824Y-10346960D01*
X4374824Y-10346960D02*
X4365301Y-10337436D01*
X4365301Y-10337436D02*
X4355777Y-10318389D01*
X4355777Y-10318389D02*
X4346253Y-10280293D01*
X4346253Y-10280293D02*
X4346253Y-10232674D01*
X4346253Y-10232674D02*
X4355777Y-10194579D01*
X4355777Y-10194579D02*
X4365301Y-10175531D01*
X4365301Y-10175531D02*
X4374824Y-10166008D01*
X4374824Y-10166008D02*
X4393872Y-10156484D01*
X4546253Y-10337436D02*
X4555777Y-10346960D01*
X4555777Y-10346960D02*
X4546253Y-10356484D01*
X4546253Y-10356484D02*
X4536729Y-10346960D01*
X4536729Y-10346960D02*
X4546253Y-10337436D01*
X4546253Y-10337436D02*
X4546253Y-10356484D01*
X4651015Y-10356484D02*
X4689110Y-10356484D01*
X4689110Y-10356484D02*
X4708158Y-10346960D01*
X4708158Y-10346960D02*
X4717682Y-10337436D01*
X4717682Y-10337436D02*
X4736729Y-10308865D01*
X4736729Y-10308865D02*
X4746253Y-10270770D01*
X4746253Y-10270770D02*
X4746253Y-10194579D01*
X4746253Y-10194579D02*
X4736729Y-10175531D01*
X4736729Y-10175531D02*
X4727205Y-10166008D01*
X4727205Y-10166008D02*
X4708158Y-10156484D01*
X4708158Y-10156484D02*
X4670063Y-10156484D01*
X4670063Y-10156484D02*
X4651015Y-10166008D01*
X4651015Y-10166008D02*
X4641491Y-10175531D01*
X4641491Y-10175531D02*
X4631967Y-10194579D01*
X4631967Y-10194579D02*
X4631967Y-10242198D01*
X4631967Y-10242198D02*
X4641491Y-10261246D01*
X4641491Y-10261246D02*
X4651015Y-10270770D01*
X4651015Y-10270770D02*
X4670063Y-10280293D01*
X4670063Y-10280293D02*
X4708158Y-10280293D01*
X4708158Y-10280293D02*
X4727205Y-10270770D01*
X4727205Y-10270770D02*
X4736729Y-10261246D01*
X4736729Y-10261246D02*
X4746253Y-10242198D01*
X4870063Y-10156484D02*
X4889110Y-10156484D01*
X4889110Y-10156484D02*
X4908158Y-10166008D01*
X4908158Y-10166008D02*
X4917682Y-10175531D01*
X4917682Y-10175531D02*
X4927205Y-10194579D01*
X4927205Y-10194579D02*
X4936729Y-10232674D01*
X4936729Y-10232674D02*
X4936729Y-10280293D01*
X4936729Y-10280293D02*
X4927205Y-10318389D01*
X4927205Y-10318389D02*
X4917682Y-10337436D01*
X4917682Y-10337436D02*
X4908158Y-10346960D01*
X4908158Y-10346960D02*
X4889110Y-10356484D01*
X4889110Y-10356484D02*
X4870063Y-10356484D01*
X4870063Y-10356484D02*
X4851015Y-10346960D01*
X4851015Y-10346960D02*
X4841491Y-10337436D01*
X4841491Y-10337436D02*
X4831967Y-10318389D01*
X4831967Y-10318389D02*
X4822444Y-10280293D01*
X4822444Y-10280293D02*
X4822444Y-10232674D01*
X4822444Y-10232674D02*
X4831967Y-10194579D01*
X4831967Y-10194579D02*
X4841491Y-10175531D01*
X4841491Y-10175531D02*
X4851015Y-10166008D01*
X4851015Y-10166008D02*
X4870063Y-10156484D01*
X5060539Y-10156484D02*
X5079586Y-10156484D01*
X5079586Y-10156484D02*
X5098634Y-10166008D01*
X5098634Y-10166008D02*
X5108158Y-10175531D01*
X5108158Y-10175531D02*
X5117682Y-10194579D01*
X5117682Y-10194579D02*
X5127205Y-10232674D01*
X5127205Y-10232674D02*
X5127205Y-10280293D01*
X5127205Y-10280293D02*
X5117682Y-10318389D01*
X5117682Y-10318389D02*
X5108158Y-10337436D01*
X5108158Y-10337436D02*
X5098634Y-10346960D01*
X5098634Y-10346960D02*
X5079586Y-10356484D01*
X5079586Y-10356484D02*
X5060539Y-10356484D01*
X5060539Y-10356484D02*
X5041491Y-10346960D01*
X5041491Y-10346960D02*
X5031967Y-10337436D01*
X5031967Y-10337436D02*
X5022444Y-10318389D01*
X5022444Y-10318389D02*
X5012920Y-10280293D01*
X5012920Y-10280293D02*
X5012920Y-10232674D01*
X5012920Y-10232674D02*
X5022444Y-10194579D01*
X5022444Y-10194579D02*
X5031967Y-10175531D01*
X5031967Y-10175531D02*
X5041491Y-10166008D01*
X5041491Y-10166008D02*
X5060539Y-10156484D01*
X5212920Y-10356484D02*
X5212920Y-10223150D01*
X5212920Y-10242198D02*
X5222444Y-10232674D01*
X5222444Y-10232674D02*
X5241491Y-10223150D01*
X5241491Y-10223150D02*
X5270063Y-10223150D01*
X5270063Y-10223150D02*
X5289110Y-10232674D01*
X5289110Y-10232674D02*
X5298634Y-10251722D01*
X5298634Y-10251722D02*
X5298634Y-10356484D01*
X5298634Y-10251722D02*
X5308158Y-10232674D01*
X5308158Y-10232674D02*
X5327205Y-10223150D01*
X5327205Y-10223150D02*
X5355777Y-10223150D01*
X5355777Y-10223150D02*
X5374825Y-10232674D01*
X5374825Y-10232674D02*
X5384348Y-10251722D01*
X5384348Y-10251722D02*
X5384348Y-10356484D01*
X5479586Y-10356484D02*
X5479586Y-10223150D01*
X5479586Y-10242198D02*
X5489110Y-10232674D01*
X5489110Y-10232674D02*
X5508158Y-10223150D01*
X5508158Y-10223150D02*
X5536729Y-10223150D01*
X5536729Y-10223150D02*
X5555777Y-10232674D01*
X5555777Y-10232674D02*
X5565301Y-10251722D01*
X5565301Y-10251722D02*
X5565301Y-10356484D01*
X5565301Y-10251722D02*
X5574825Y-10232674D01*
X5574825Y-10232674D02*
X5593872Y-10223150D01*
X5593872Y-10223150D02*
X5622443Y-10223150D01*
X5622443Y-10223150D02*
X5641491Y-10232674D01*
X5641491Y-10232674D02*
X5651015Y-10251722D01*
X5651015Y-10251722D02*
X5651015Y-10356484D01*
X6041491Y-10146960D02*
X5870063Y-10404103D01*
X6298634Y-10156484D02*
X6317682Y-10156484D01*
X6317682Y-10156484D02*
X6336729Y-10166008D01*
X6336729Y-10166008D02*
X6346253Y-10175531D01*
X6346253Y-10175531D02*
X6355777Y-10194579D01*
X6355777Y-10194579D02*
X6365301Y-10232674D01*
X6365301Y-10232674D02*
X6365301Y-10280293D01*
X6365301Y-10280293D02*
X6355777Y-10318389D01*
X6355777Y-10318389D02*
X6346253Y-10337436D01*
X6346253Y-10337436D02*
X6336729Y-10346960D01*
X6336729Y-10346960D02*
X6317682Y-10356484D01*
X6317682Y-10356484D02*
X6298634Y-10356484D01*
X6298634Y-10356484D02*
X6279586Y-10346960D01*
X6279586Y-10346960D02*
X6270063Y-10337436D01*
X6270063Y-10337436D02*
X6260539Y-10318389D01*
X6260539Y-10318389D02*
X6251015Y-10280293D01*
X6251015Y-10280293D02*
X6251015Y-10232674D01*
X6251015Y-10232674D02*
X6260539Y-10194579D01*
X6260539Y-10194579D02*
X6270063Y-10175531D01*
X6270063Y-10175531D02*
X6279586Y-10166008D01*
X6279586Y-10166008D02*
X6298634Y-10156484D01*
X6451015Y-10337436D02*
X6460539Y-10346960D01*
X6460539Y-10346960D02*
X6451015Y-10356484D01*
X6451015Y-10356484D02*
X6441491Y-10346960D01*
X6441491Y-10346960D02*
X6451015Y-10337436D01*
X6451015Y-10337436D02*
X6451015Y-10356484D01*
X6584348Y-10156484D02*
X6603396Y-10156484D01*
X6603396Y-10156484D02*
X6622444Y-10166008D01*
X6622444Y-10166008D02*
X6631967Y-10175531D01*
X6631967Y-10175531D02*
X6641491Y-10194579D01*
X6641491Y-10194579D02*
X6651015Y-10232674D01*
X6651015Y-10232674D02*
X6651015Y-10280293D01*
X6651015Y-10280293D02*
X6641491Y-10318389D01*
X6641491Y-10318389D02*
X6631967Y-10337436D01*
X6631967Y-10337436D02*
X6622444Y-10346960D01*
X6622444Y-10346960D02*
X6603396Y-10356484D01*
X6603396Y-10356484D02*
X6584348Y-10356484D01*
X6584348Y-10356484D02*
X6565301Y-10346960D01*
X6565301Y-10346960D02*
X6555777Y-10337436D01*
X6555777Y-10337436D02*
X6546253Y-10318389D01*
X6546253Y-10318389D02*
X6536729Y-10280293D01*
X6536729Y-10280293D02*
X6536729Y-10232674D01*
X6536729Y-10232674D02*
X6546253Y-10194579D01*
X6546253Y-10194579D02*
X6555777Y-10175531D01*
X6555777Y-10175531D02*
X6565301Y-10166008D01*
X6565301Y-10166008D02*
X6584348Y-10156484D01*
X6717682Y-10156484D02*
X6841491Y-10156484D01*
X6841491Y-10156484D02*
X6774825Y-10232674D01*
X6774825Y-10232674D02*
X6803396Y-10232674D01*
X6803396Y-10232674D02*
X6822444Y-10242198D01*
X6822444Y-10242198D02*
X6831967Y-10251722D01*
X6831967Y-10251722D02*
X6841491Y-10270770D01*
X6841491Y-10270770D02*
X6841491Y-10318389D01*
X6841491Y-10318389D02*
X6831967Y-10337436D01*
X6831967Y-10337436D02*
X6822444Y-10346960D01*
X6822444Y-10346960D02*
X6803396Y-10356484D01*
X6803396Y-10356484D02*
X6746253Y-10356484D01*
X6746253Y-10356484D02*
X6727206Y-10346960D01*
X6727206Y-10346960D02*
X6717682Y-10337436D01*
X7022444Y-10156484D02*
X6927206Y-10156484D01*
X6927206Y-10156484D02*
X6917682Y-10251722D01*
X6917682Y-10251722D02*
X6927206Y-10242198D01*
X6927206Y-10242198D02*
X6946253Y-10232674D01*
X6946253Y-10232674D02*
X6993872Y-10232674D01*
X6993872Y-10232674D02*
X7012920Y-10242198D01*
X7012920Y-10242198D02*
X7022444Y-10251722D01*
X7022444Y-10251722D02*
X7031967Y-10270770D01*
X7031967Y-10270770D02*
X7031967Y-10318389D01*
X7031967Y-10318389D02*
X7022444Y-10337436D01*
X7022444Y-10337436D02*
X7012920Y-10346960D01*
X7012920Y-10346960D02*
X6993872Y-10356484D01*
X6993872Y-10356484D02*
X6946253Y-10356484D01*
X6946253Y-10356484D02*
X6927206Y-10346960D01*
X6927206Y-10346960D02*
X6917682Y-10337436D01*
X7203396Y-10223150D02*
X7203396Y-10356484D01*
X7155777Y-10146960D02*
X7108158Y-10289817D01*
X7108158Y-10289817D02*
X7231967Y-10289817D01*
X7298634Y-10156484D02*
X7298634Y-10194579D01*
X7374825Y-10156484D02*
X7374825Y-10194579D01*
X7670063Y-10432674D02*
X7660539Y-10423150D01*
X7660539Y-10423150D02*
X7641491Y-10394579D01*
X7641491Y-10394579D02*
X7631968Y-10375531D01*
X7631968Y-10375531D02*
X7622444Y-10346960D01*
X7622444Y-10346960D02*
X7612920Y-10299341D01*
X7612920Y-10299341D02*
X7612920Y-10261246D01*
X7612920Y-10261246D02*
X7622444Y-10213627D01*
X7622444Y-10213627D02*
X7631968Y-10185055D01*
X7631968Y-10185055D02*
X7641491Y-10166008D01*
X7641491Y-10166008D02*
X7660539Y-10137436D01*
X7660539Y-10137436D02*
X7670063Y-10127912D01*
X7727206Y-10156484D02*
X7851015Y-10156484D01*
X7851015Y-10156484D02*
X7784348Y-10232674D01*
X7784348Y-10232674D02*
X7812920Y-10232674D01*
X7812920Y-10232674D02*
X7831968Y-10242198D01*
X7831968Y-10242198D02*
X7841491Y-10251722D01*
X7841491Y-10251722D02*
X7851015Y-10270770D01*
X7851015Y-10270770D02*
X7851015Y-10318389D01*
X7851015Y-10318389D02*
X7841491Y-10337436D01*
X7841491Y-10337436D02*
X7831968Y-10346960D01*
X7831968Y-10346960D02*
X7812920Y-10356484D01*
X7812920Y-10356484D02*
X7755777Y-10356484D01*
X7755777Y-10356484D02*
X7736729Y-10346960D01*
X7736729Y-10346960D02*
X7727206Y-10337436D01*
X8089110Y-10356484D02*
X8089110Y-10156484D01*
X8174825Y-10356484D02*
X8174825Y-10251722D01*
X8174825Y-10251722D02*
X8165301Y-10232674D01*
X8165301Y-10232674D02*
X8146253Y-10223150D01*
X8146253Y-10223150D02*
X8117682Y-10223150D01*
X8117682Y-10223150D02*
X8098634Y-10232674D01*
X8098634Y-10232674D02*
X8089110Y-10242198D01*
X8298634Y-10356484D02*
X8279587Y-10346960D01*
X8279587Y-10346960D02*
X8270063Y-10337436D01*
X8270063Y-10337436D02*
X8260539Y-10318389D01*
X8260539Y-10318389D02*
X8260539Y-10261246D01*
X8260539Y-10261246D02*
X8270063Y-10242198D01*
X8270063Y-10242198D02*
X8279587Y-10232674D01*
X8279587Y-10232674D02*
X8298634Y-10223150D01*
X8298634Y-10223150D02*
X8327206Y-10223150D01*
X8327206Y-10223150D02*
X8346253Y-10232674D01*
X8346253Y-10232674D02*
X8355777Y-10242198D01*
X8355777Y-10242198D02*
X8365301Y-10261246D01*
X8365301Y-10261246D02*
X8365301Y-10318389D01*
X8365301Y-10318389D02*
X8355777Y-10337436D01*
X8355777Y-10337436D02*
X8346253Y-10346960D01*
X8346253Y-10346960D02*
X8327206Y-10356484D01*
X8327206Y-10356484D02*
X8298634Y-10356484D01*
X8479587Y-10356484D02*
X8460539Y-10346960D01*
X8460539Y-10346960D02*
X8451015Y-10327912D01*
X8451015Y-10327912D02*
X8451015Y-10156484D01*
X8631968Y-10346960D02*
X8612920Y-10356484D01*
X8612920Y-10356484D02*
X8574825Y-10356484D01*
X8574825Y-10356484D02*
X8555777Y-10346960D01*
X8555777Y-10346960D02*
X8546253Y-10327912D01*
X8546253Y-10327912D02*
X8546253Y-10251722D01*
X8546253Y-10251722D02*
X8555777Y-10232674D01*
X8555777Y-10232674D02*
X8574825Y-10223150D01*
X8574825Y-10223150D02*
X8612920Y-10223150D01*
X8612920Y-10223150D02*
X8631968Y-10232674D01*
X8631968Y-10232674D02*
X8641492Y-10251722D01*
X8641492Y-10251722D02*
X8641492Y-10270770D01*
X8641492Y-10270770D02*
X8546253Y-10289817D01*
X8717682Y-10346960D02*
X8736730Y-10356484D01*
X8736730Y-10356484D02*
X8774825Y-10356484D01*
X8774825Y-10356484D02*
X8793873Y-10346960D01*
X8793873Y-10346960D02*
X8803396Y-10327912D01*
X8803396Y-10327912D02*
X8803396Y-10318389D01*
X8803396Y-10318389D02*
X8793873Y-10299341D01*
X8793873Y-10299341D02*
X8774825Y-10289817D01*
X8774825Y-10289817D02*
X8746253Y-10289817D01*
X8746253Y-10289817D02*
X8727206Y-10280293D01*
X8727206Y-10280293D02*
X8717682Y-10261246D01*
X8717682Y-10261246D02*
X8717682Y-10251722D01*
X8717682Y-10251722D02*
X8727206Y-10232674D01*
X8727206Y-10232674D02*
X8746253Y-10223150D01*
X8746253Y-10223150D02*
X8774825Y-10223150D01*
X8774825Y-10223150D02*
X8793873Y-10232674D01*
X8870063Y-10432674D02*
X8879587Y-10423150D01*
X8879587Y-10423150D02*
X8898634Y-10394579D01*
X8898634Y-10394579D02*
X8908158Y-10375531D01*
X8908158Y-10375531D02*
X8917682Y-10346960D01*
X8917682Y-10346960D02*
X8927206Y-10299341D01*
X8927206Y-10299341D02*
X8927206Y-10261246D01*
X8927206Y-10261246D02*
X8917682Y-10213627D01*
X8917682Y-10213627D02*
X8908158Y-10185055D01*
X8908158Y-10185055D02*
X8898634Y-10166008D01*
X8898634Y-10166008D02*
X8879587Y-10137436D01*
X8879587Y-10137436D02*
X8870063Y-10127912D01*
D10*
X3995000Y-10479000D02*
X4095000Y-10579000D01*
X4095000Y-10479000D02*
X3995000Y-10579000D01*
X4045000Y-10479000D02*
X4045000Y-10579000D01*
X3995000Y-10529000D02*
X4095000Y-10529000D01*
D11*
X4460539Y-10620484D02*
X4346253Y-10620484D01*
X4403396Y-10620484D02*
X4403396Y-10420484D01*
X4403396Y-10420484D02*
X4384348Y-10449055D01*
X4384348Y-10449055D02*
X4365301Y-10468103D01*
X4365301Y-10468103D02*
X4346253Y-10477627D01*
X4546253Y-10601436D02*
X4555777Y-10610960D01*
X4555777Y-10610960D02*
X4546253Y-10620484D01*
X4546253Y-10620484D02*
X4536729Y-10610960D01*
X4536729Y-10610960D02*
X4546253Y-10601436D01*
X4546253Y-10601436D02*
X4546253Y-10620484D01*
X4679586Y-10420484D02*
X4698634Y-10420484D01*
X4698634Y-10420484D02*
X4717682Y-10430008D01*
X4717682Y-10430008D02*
X4727205Y-10439531D01*
X4727205Y-10439531D02*
X4736729Y-10458579D01*
X4736729Y-10458579D02*
X4746253Y-10496674D01*
X4746253Y-10496674D02*
X4746253Y-10544293D01*
X4746253Y-10544293D02*
X4736729Y-10582389D01*
X4736729Y-10582389D02*
X4727205Y-10601436D01*
X4727205Y-10601436D02*
X4717682Y-10610960D01*
X4717682Y-10610960D02*
X4698634Y-10620484D01*
X4698634Y-10620484D02*
X4679586Y-10620484D01*
X4679586Y-10620484D02*
X4660539Y-10610960D01*
X4660539Y-10610960D02*
X4651015Y-10601436D01*
X4651015Y-10601436D02*
X4641491Y-10582389D01*
X4641491Y-10582389D02*
X4631967Y-10544293D01*
X4631967Y-10544293D02*
X4631967Y-10496674D01*
X4631967Y-10496674D02*
X4641491Y-10458579D01*
X4641491Y-10458579D02*
X4651015Y-10439531D01*
X4651015Y-10439531D02*
X4660539Y-10430008D01*
X4660539Y-10430008D02*
X4679586Y-10420484D01*
X4870063Y-10420484D02*
X4889110Y-10420484D01*
X4889110Y-10420484D02*
X4908158Y-10430008D01*
X4908158Y-10430008D02*
X4917682Y-10439531D01*
X4917682Y-10439531D02*
X4927205Y-10458579D01*
X4927205Y-10458579D02*
X4936729Y-10496674D01*
X4936729Y-10496674D02*
X4936729Y-10544293D01*
X4936729Y-10544293D02*
X4927205Y-10582389D01*
X4927205Y-10582389D02*
X4917682Y-10601436D01*
X4917682Y-10601436D02*
X4908158Y-10610960D01*
X4908158Y-10610960D02*
X4889110Y-10620484D01*
X4889110Y-10620484D02*
X4870063Y-10620484D01*
X4870063Y-10620484D02*
X4851015Y-10610960D01*
X4851015Y-10610960D02*
X4841491Y-10601436D01*
X4841491Y-10601436D02*
X4831967Y-10582389D01*
X4831967Y-10582389D02*
X4822444Y-10544293D01*
X4822444Y-10544293D02*
X4822444Y-10496674D01*
X4822444Y-10496674D02*
X4831967Y-10458579D01*
X4831967Y-10458579D02*
X4841491Y-10439531D01*
X4841491Y-10439531D02*
X4851015Y-10430008D01*
X4851015Y-10430008D02*
X4870063Y-10420484D01*
X5060539Y-10420484D02*
X5079586Y-10420484D01*
X5079586Y-10420484D02*
X5098634Y-10430008D01*
X5098634Y-10430008D02*
X5108158Y-10439531D01*
X5108158Y-10439531D02*
X5117682Y-10458579D01*
X5117682Y-10458579D02*
X5127205Y-10496674D01*
X5127205Y-10496674D02*
X5127205Y-10544293D01*
X5127205Y-10544293D02*
X5117682Y-10582389D01*
X5117682Y-10582389D02*
X5108158Y-10601436D01*
X5108158Y-10601436D02*
X5098634Y-10610960D01*
X5098634Y-10610960D02*
X5079586Y-10620484D01*
X5079586Y-10620484D02*
X5060539Y-10620484D01*
X5060539Y-10620484D02*
X5041491Y-10610960D01*
X5041491Y-10610960D02*
X5031967Y-10601436D01*
X5031967Y-10601436D02*
X5022444Y-10582389D01*
X5022444Y-10582389D02*
X5012920Y-10544293D01*
X5012920Y-10544293D02*
X5012920Y-10496674D01*
X5012920Y-10496674D02*
X5022444Y-10458579D01*
X5022444Y-10458579D02*
X5031967Y-10439531D01*
X5031967Y-10439531D02*
X5041491Y-10430008D01*
X5041491Y-10430008D02*
X5060539Y-10420484D01*
X5212920Y-10620484D02*
X5212920Y-10487150D01*
X5212920Y-10506198D02*
X5222444Y-10496674D01*
X5222444Y-10496674D02*
X5241491Y-10487150D01*
X5241491Y-10487150D02*
X5270063Y-10487150D01*
X5270063Y-10487150D02*
X5289110Y-10496674D01*
X5289110Y-10496674D02*
X5298634Y-10515722D01*
X5298634Y-10515722D02*
X5298634Y-10620484D01*
X5298634Y-10515722D02*
X5308158Y-10496674D01*
X5308158Y-10496674D02*
X5327205Y-10487150D01*
X5327205Y-10487150D02*
X5355777Y-10487150D01*
X5355777Y-10487150D02*
X5374825Y-10496674D01*
X5374825Y-10496674D02*
X5384348Y-10515722D01*
X5384348Y-10515722D02*
X5384348Y-10620484D01*
X5479586Y-10620484D02*
X5479586Y-10487150D01*
X5479586Y-10506198D02*
X5489110Y-10496674D01*
X5489110Y-10496674D02*
X5508158Y-10487150D01*
X5508158Y-10487150D02*
X5536729Y-10487150D01*
X5536729Y-10487150D02*
X5555777Y-10496674D01*
X5555777Y-10496674D02*
X5565301Y-10515722D01*
X5565301Y-10515722D02*
X5565301Y-10620484D01*
X5565301Y-10515722D02*
X5574825Y-10496674D01*
X5574825Y-10496674D02*
X5593872Y-10487150D01*
X5593872Y-10487150D02*
X5622443Y-10487150D01*
X5622443Y-10487150D02*
X5641491Y-10496674D01*
X5641491Y-10496674D02*
X5651015Y-10515722D01*
X5651015Y-10515722D02*
X5651015Y-10620484D01*
X6041491Y-10410960D02*
X5870063Y-10668103D01*
X6298634Y-10420484D02*
X6317682Y-10420484D01*
X6317682Y-10420484D02*
X6336729Y-10430008D01*
X6336729Y-10430008D02*
X6346253Y-10439531D01*
X6346253Y-10439531D02*
X6355777Y-10458579D01*
X6355777Y-10458579D02*
X6365301Y-10496674D01*
X6365301Y-10496674D02*
X6365301Y-10544293D01*
X6365301Y-10544293D02*
X6355777Y-10582389D01*
X6355777Y-10582389D02*
X6346253Y-10601436D01*
X6346253Y-10601436D02*
X6336729Y-10610960D01*
X6336729Y-10610960D02*
X6317682Y-10620484D01*
X6317682Y-10620484D02*
X6298634Y-10620484D01*
X6298634Y-10620484D02*
X6279586Y-10610960D01*
X6279586Y-10610960D02*
X6270063Y-10601436D01*
X6270063Y-10601436D02*
X6260539Y-10582389D01*
X6260539Y-10582389D02*
X6251015Y-10544293D01*
X6251015Y-10544293D02*
X6251015Y-10496674D01*
X6251015Y-10496674D02*
X6260539Y-10458579D01*
X6260539Y-10458579D02*
X6270063Y-10439531D01*
X6270063Y-10439531D02*
X6279586Y-10430008D01*
X6279586Y-10430008D02*
X6298634Y-10420484D01*
X6451015Y-10601436D02*
X6460539Y-10610960D01*
X6460539Y-10610960D02*
X6451015Y-10620484D01*
X6451015Y-10620484D02*
X6441491Y-10610960D01*
X6441491Y-10610960D02*
X6451015Y-10601436D01*
X6451015Y-10601436D02*
X6451015Y-10620484D01*
X6584348Y-10420484D02*
X6603396Y-10420484D01*
X6603396Y-10420484D02*
X6622444Y-10430008D01*
X6622444Y-10430008D02*
X6631967Y-10439531D01*
X6631967Y-10439531D02*
X6641491Y-10458579D01*
X6641491Y-10458579D02*
X6651015Y-10496674D01*
X6651015Y-10496674D02*
X6651015Y-10544293D01*
X6651015Y-10544293D02*
X6641491Y-10582389D01*
X6641491Y-10582389D02*
X6631967Y-10601436D01*
X6631967Y-10601436D02*
X6622444Y-10610960D01*
X6622444Y-10610960D02*
X6603396Y-10620484D01*
X6603396Y-10620484D02*
X6584348Y-10620484D01*
X6584348Y-10620484D02*
X6565301Y-10610960D01*
X6565301Y-10610960D02*
X6555777Y-10601436D01*
X6555777Y-10601436D02*
X6546253Y-10582389D01*
X6546253Y-10582389D02*
X6536729Y-10544293D01*
X6536729Y-10544293D02*
X6536729Y-10496674D01*
X6536729Y-10496674D02*
X6546253Y-10458579D01*
X6546253Y-10458579D02*
X6555777Y-10439531D01*
X6555777Y-10439531D02*
X6565301Y-10430008D01*
X6565301Y-10430008D02*
X6584348Y-10420484D01*
X6717682Y-10420484D02*
X6841491Y-10420484D01*
X6841491Y-10420484D02*
X6774825Y-10496674D01*
X6774825Y-10496674D02*
X6803396Y-10496674D01*
X6803396Y-10496674D02*
X6822444Y-10506198D01*
X6822444Y-10506198D02*
X6831967Y-10515722D01*
X6831967Y-10515722D02*
X6841491Y-10534770D01*
X6841491Y-10534770D02*
X6841491Y-10582389D01*
X6841491Y-10582389D02*
X6831967Y-10601436D01*
X6831967Y-10601436D02*
X6822444Y-10610960D01*
X6822444Y-10610960D02*
X6803396Y-10620484D01*
X6803396Y-10620484D02*
X6746253Y-10620484D01*
X6746253Y-10620484D02*
X6727206Y-10610960D01*
X6727206Y-10610960D02*
X6717682Y-10601436D01*
X6936729Y-10620484D02*
X6974825Y-10620484D01*
X6974825Y-10620484D02*
X6993872Y-10610960D01*
X6993872Y-10610960D02*
X7003396Y-10601436D01*
X7003396Y-10601436D02*
X7022444Y-10572865D01*
X7022444Y-10572865D02*
X7031967Y-10534770D01*
X7031967Y-10534770D02*
X7031967Y-10458579D01*
X7031967Y-10458579D02*
X7022444Y-10439531D01*
X7022444Y-10439531D02*
X7012920Y-10430008D01*
X7012920Y-10430008D02*
X6993872Y-10420484D01*
X6993872Y-10420484D02*
X6955777Y-10420484D01*
X6955777Y-10420484D02*
X6936729Y-10430008D01*
X6936729Y-10430008D02*
X6927206Y-10439531D01*
X6927206Y-10439531D02*
X6917682Y-10458579D01*
X6917682Y-10458579D02*
X6917682Y-10506198D01*
X6917682Y-10506198D02*
X6927206Y-10525246D01*
X6927206Y-10525246D02*
X6936729Y-10534770D01*
X6936729Y-10534770D02*
X6955777Y-10544293D01*
X6955777Y-10544293D02*
X6993872Y-10544293D01*
X6993872Y-10544293D02*
X7012920Y-10534770D01*
X7012920Y-10534770D02*
X7022444Y-10525246D01*
X7022444Y-10525246D02*
X7031967Y-10506198D01*
X7203396Y-10487150D02*
X7203396Y-10620484D01*
X7155777Y-10410960D02*
X7108158Y-10553817D01*
X7108158Y-10553817D02*
X7231967Y-10553817D01*
X7298634Y-10420484D02*
X7298634Y-10458579D01*
X7374825Y-10420484D02*
X7374825Y-10458579D01*
X7670063Y-10696674D02*
X7660539Y-10687150D01*
X7660539Y-10687150D02*
X7641491Y-10658579D01*
X7641491Y-10658579D02*
X7631968Y-10639531D01*
X7631968Y-10639531D02*
X7622444Y-10610960D01*
X7622444Y-10610960D02*
X7612920Y-10563341D01*
X7612920Y-10563341D02*
X7612920Y-10525246D01*
X7612920Y-10525246D02*
X7622444Y-10477627D01*
X7622444Y-10477627D02*
X7631968Y-10449055D01*
X7631968Y-10449055D02*
X7641491Y-10430008D01*
X7641491Y-10430008D02*
X7660539Y-10401436D01*
X7660539Y-10401436D02*
X7670063Y-10391912D01*
X7736729Y-10439531D02*
X7746253Y-10430008D01*
X7746253Y-10430008D02*
X7765301Y-10420484D01*
X7765301Y-10420484D02*
X7812920Y-10420484D01*
X7812920Y-10420484D02*
X7831968Y-10430008D01*
X7831968Y-10430008D02*
X7841491Y-10439531D01*
X7841491Y-10439531D02*
X7851015Y-10458579D01*
X7851015Y-10458579D02*
X7851015Y-10477627D01*
X7851015Y-10477627D02*
X7841491Y-10506198D01*
X7841491Y-10506198D02*
X7727206Y-10620484D01*
X7727206Y-10620484D02*
X7851015Y-10620484D01*
X7917682Y-10420484D02*
X8041491Y-10420484D01*
X8041491Y-10420484D02*
X7974825Y-10496674D01*
X7974825Y-10496674D02*
X8003396Y-10496674D01*
X8003396Y-10496674D02*
X8022444Y-10506198D01*
X8022444Y-10506198D02*
X8031968Y-10515722D01*
X8031968Y-10515722D02*
X8041491Y-10534770D01*
X8041491Y-10534770D02*
X8041491Y-10582389D01*
X8041491Y-10582389D02*
X8031968Y-10601436D01*
X8031968Y-10601436D02*
X8022444Y-10610960D01*
X8022444Y-10610960D02*
X8003396Y-10620484D01*
X8003396Y-10620484D02*
X7946253Y-10620484D01*
X7946253Y-10620484D02*
X7927206Y-10610960D01*
X7927206Y-10610960D02*
X7917682Y-10601436D01*
X8279587Y-10620484D02*
X8279587Y-10420484D01*
X8365301Y-10620484D02*
X8365301Y-10515722D01*
X8365301Y-10515722D02*
X8355777Y-10496674D01*
X8355777Y-10496674D02*
X8336730Y-10487150D01*
X8336730Y-10487150D02*
X8308158Y-10487150D01*
X8308158Y-10487150D02*
X8289110Y-10496674D01*
X8289110Y-10496674D02*
X8279587Y-10506198D01*
X8489111Y-10620484D02*
X8470063Y-10610960D01*
X8470063Y-10610960D02*
X8460539Y-10601436D01*
X8460539Y-10601436D02*
X8451015Y-10582389D01*
X8451015Y-10582389D02*
X8451015Y-10525246D01*
X8451015Y-10525246D02*
X8460539Y-10506198D01*
X8460539Y-10506198D02*
X8470063Y-10496674D01*
X8470063Y-10496674D02*
X8489111Y-10487150D01*
X8489111Y-10487150D02*
X8517682Y-10487150D01*
X8517682Y-10487150D02*
X8536730Y-10496674D01*
X8536730Y-10496674D02*
X8546253Y-10506198D01*
X8546253Y-10506198D02*
X8555777Y-10525246D01*
X8555777Y-10525246D02*
X8555777Y-10582389D01*
X8555777Y-10582389D02*
X8546253Y-10601436D01*
X8546253Y-10601436D02*
X8536730Y-10610960D01*
X8536730Y-10610960D02*
X8517682Y-10620484D01*
X8517682Y-10620484D02*
X8489111Y-10620484D01*
X8670063Y-10620484D02*
X8651015Y-10610960D01*
X8651015Y-10610960D02*
X8641492Y-10591912D01*
X8641492Y-10591912D02*
X8641492Y-10420484D01*
X8822444Y-10610960D02*
X8803396Y-10620484D01*
X8803396Y-10620484D02*
X8765301Y-10620484D01*
X8765301Y-10620484D02*
X8746253Y-10610960D01*
X8746253Y-10610960D02*
X8736730Y-10591912D01*
X8736730Y-10591912D02*
X8736730Y-10515722D01*
X8736730Y-10515722D02*
X8746253Y-10496674D01*
X8746253Y-10496674D02*
X8765301Y-10487150D01*
X8765301Y-10487150D02*
X8803396Y-10487150D01*
X8803396Y-10487150D02*
X8822444Y-10496674D01*
X8822444Y-10496674D02*
X8831968Y-10515722D01*
X8831968Y-10515722D02*
X8831968Y-10534770D01*
X8831968Y-10534770D02*
X8736730Y-10553817D01*
X8908158Y-10610960D02*
X8927206Y-10620484D01*
X8927206Y-10620484D02*
X8965301Y-10620484D01*
X8965301Y-10620484D02*
X8984349Y-10610960D01*
X8984349Y-10610960D02*
X8993873Y-10591912D01*
X8993873Y-10591912D02*
X8993873Y-10582389D01*
X8993873Y-10582389D02*
X8984349Y-10563341D01*
X8984349Y-10563341D02*
X8965301Y-10553817D01*
X8965301Y-10553817D02*
X8936730Y-10553817D01*
X8936730Y-10553817D02*
X8917682Y-10544293D01*
X8917682Y-10544293D02*
X8908158Y-10525246D01*
X8908158Y-10525246D02*
X8908158Y-10515722D01*
X8908158Y-10515722D02*
X8917682Y-10496674D01*
X8917682Y-10496674D02*
X8936730Y-10487150D01*
X8936730Y-10487150D02*
X8965301Y-10487150D01*
X8965301Y-10487150D02*
X8984349Y-10496674D01*
X9060539Y-10696674D02*
X9070063Y-10687150D01*
X9070063Y-10687150D02*
X9089111Y-10658579D01*
X9089111Y-10658579D02*
X9098634Y-10639531D01*
X9098634Y-10639531D02*
X9108158Y-10610960D01*
X9108158Y-10610960D02*
X9117682Y-10563341D01*
X9117682Y-10563341D02*
X9117682Y-10525246D01*
X9117682Y-10525246D02*
X9108158Y-10477627D01*
X9108158Y-10477627D02*
X9098634Y-10449055D01*
X9098634Y-10449055D02*
X9089111Y-10430008D01*
X9089111Y-10430008D02*
X9070063Y-10401436D01*
X9070063Y-10401436D02*
X9060539Y-10391912D01*
M02*
