%TF.GenerationSoftware,KiCad,Pcbnew,8.0.2-8.0.2-0~ubuntu22.04.1*%
%TF.CreationDate,2024-05-11T00:12:29+03:00*%
%TF.ProjectId,outdoor-module,6f757464-6f6f-4722-9d6d-6f64756c652e,rev?*%
%TF.SameCoordinates,Original*%
%TF.FileFunction,Legend,Bot*%
%TF.FilePolarity,Positive*%
%FSLAX46Y46*%
G04 Gerber Fmt 4.6, Leading zero omitted, Abs format (unit mm)*
G04 Created by KiCad (PCBNEW 8.0.2-8.0.2-0~ubuntu22.04.1) date 2024-05-11 00:12:29*
%MOMM*%
%LPD*%
G01*
G04 APERTURE LIST*
%ADD10C,0.150000*%
%ADD11C,0.120000*%
G04 APERTURE END LIST*
D10*
X77210839Y-81084104D02*
X76734649Y-81084104D01*
X77306077Y-81369819D02*
X76972744Y-80369819D01*
X76972744Y-80369819D02*
X76639411Y-81369819D01*
X75734649Y-81274580D02*
X75782268Y-81322200D01*
X75782268Y-81322200D02*
X75925125Y-81369819D01*
X75925125Y-81369819D02*
X76020363Y-81369819D01*
X76020363Y-81369819D02*
X76163220Y-81322200D01*
X76163220Y-81322200D02*
X76258458Y-81226961D01*
X76258458Y-81226961D02*
X76306077Y-81131723D01*
X76306077Y-81131723D02*
X76353696Y-80941247D01*
X76353696Y-80941247D02*
X76353696Y-80798390D01*
X76353696Y-80798390D02*
X76306077Y-80607914D01*
X76306077Y-80607914D02*
X76258458Y-80512676D01*
X76258458Y-80512676D02*
X76163220Y-80417438D01*
X76163220Y-80417438D02*
X76020363Y-80369819D01*
X76020363Y-80369819D02*
X75925125Y-80369819D01*
X75925125Y-80369819D02*
X75782268Y-80417438D01*
X75782268Y-80417438D02*
X75734649Y-80465057D01*
X75401315Y-80369819D02*
X75163220Y-81369819D01*
X75163220Y-81369819D02*
X74972744Y-80655533D01*
X74972744Y-80655533D02*
X74782268Y-81369819D01*
X74782268Y-81369819D02*
X74544173Y-80369819D01*
X74163220Y-80988866D02*
X73401316Y-80988866D01*
X72782268Y-81369819D02*
X72877506Y-81322200D01*
X72877506Y-81322200D02*
X72925125Y-81274580D01*
X72925125Y-81274580D02*
X72972744Y-81179342D01*
X72972744Y-81179342D02*
X72972744Y-80893628D01*
X72972744Y-80893628D02*
X72925125Y-80798390D01*
X72925125Y-80798390D02*
X72877506Y-80750771D01*
X72877506Y-80750771D02*
X72782268Y-80703152D01*
X72782268Y-80703152D02*
X72639411Y-80703152D01*
X72639411Y-80703152D02*
X72544173Y-80750771D01*
X72544173Y-80750771D02*
X72496554Y-80798390D01*
X72496554Y-80798390D02*
X72448935Y-80893628D01*
X72448935Y-80893628D02*
X72448935Y-81179342D01*
X72448935Y-81179342D02*
X72496554Y-81274580D01*
X72496554Y-81274580D02*
X72544173Y-81322200D01*
X72544173Y-81322200D02*
X72639411Y-81369819D01*
X72639411Y-81369819D02*
X72782268Y-81369819D01*
X71591792Y-80703152D02*
X71591792Y-81369819D01*
X72020363Y-80703152D02*
X72020363Y-81226961D01*
X72020363Y-81226961D02*
X71972744Y-81322200D01*
X71972744Y-81322200D02*
X71877506Y-81369819D01*
X71877506Y-81369819D02*
X71734649Y-81369819D01*
X71734649Y-81369819D02*
X71639411Y-81322200D01*
X71639411Y-81322200D02*
X71591792Y-81274580D01*
X71258458Y-80703152D02*
X70877506Y-80703152D01*
X71115601Y-80369819D02*
X71115601Y-81226961D01*
X71115601Y-81226961D02*
X71067982Y-81322200D01*
X71067982Y-81322200D02*
X70972744Y-81369819D01*
X70972744Y-81369819D02*
X70877506Y-81369819D01*
X70115601Y-81369819D02*
X70115601Y-80369819D01*
X70115601Y-81322200D02*
X70210839Y-81369819D01*
X70210839Y-81369819D02*
X70401315Y-81369819D01*
X70401315Y-81369819D02*
X70496553Y-81322200D01*
X70496553Y-81322200D02*
X70544172Y-81274580D01*
X70544172Y-81274580D02*
X70591791Y-81179342D01*
X70591791Y-81179342D02*
X70591791Y-80893628D01*
X70591791Y-80893628D02*
X70544172Y-80798390D01*
X70544172Y-80798390D02*
X70496553Y-80750771D01*
X70496553Y-80750771D02*
X70401315Y-80703152D01*
X70401315Y-80703152D02*
X70210839Y-80703152D01*
X70210839Y-80703152D02*
X70115601Y-80750771D01*
X69496553Y-81369819D02*
X69591791Y-81322200D01*
X69591791Y-81322200D02*
X69639410Y-81274580D01*
X69639410Y-81274580D02*
X69687029Y-81179342D01*
X69687029Y-81179342D02*
X69687029Y-80893628D01*
X69687029Y-80893628D02*
X69639410Y-80798390D01*
X69639410Y-80798390D02*
X69591791Y-80750771D01*
X69591791Y-80750771D02*
X69496553Y-80703152D01*
X69496553Y-80703152D02*
X69353696Y-80703152D01*
X69353696Y-80703152D02*
X69258458Y-80750771D01*
X69258458Y-80750771D02*
X69210839Y-80798390D01*
X69210839Y-80798390D02*
X69163220Y-80893628D01*
X69163220Y-80893628D02*
X69163220Y-81179342D01*
X69163220Y-81179342D02*
X69210839Y-81274580D01*
X69210839Y-81274580D02*
X69258458Y-81322200D01*
X69258458Y-81322200D02*
X69353696Y-81369819D01*
X69353696Y-81369819D02*
X69496553Y-81369819D01*
X68591791Y-81369819D02*
X68687029Y-81322200D01*
X68687029Y-81322200D02*
X68734648Y-81274580D01*
X68734648Y-81274580D02*
X68782267Y-81179342D01*
X68782267Y-81179342D02*
X68782267Y-80893628D01*
X68782267Y-80893628D02*
X68734648Y-80798390D01*
X68734648Y-80798390D02*
X68687029Y-80750771D01*
X68687029Y-80750771D02*
X68591791Y-80703152D01*
X68591791Y-80703152D02*
X68448934Y-80703152D01*
X68448934Y-80703152D02*
X68353696Y-80750771D01*
X68353696Y-80750771D02*
X68306077Y-80798390D01*
X68306077Y-80798390D02*
X68258458Y-80893628D01*
X68258458Y-80893628D02*
X68258458Y-81179342D01*
X68258458Y-81179342D02*
X68306077Y-81274580D01*
X68306077Y-81274580D02*
X68353696Y-81322200D01*
X68353696Y-81322200D02*
X68448934Y-81369819D01*
X68448934Y-81369819D02*
X68591791Y-81369819D01*
X67829886Y-81369819D02*
X67829886Y-80703152D01*
X67829886Y-80893628D02*
X67782267Y-80798390D01*
X67782267Y-80798390D02*
X67734648Y-80750771D01*
X67734648Y-80750771D02*
X67639410Y-80703152D01*
X67639410Y-80703152D02*
X67544172Y-80703152D01*
X67210838Y-80988866D02*
X66448934Y-80988866D01*
X66067981Y-80703152D02*
X65829886Y-81369819D01*
X65829886Y-81369819D02*
X65591791Y-80703152D01*
X64687029Y-81369819D02*
X65258457Y-81369819D01*
X64972743Y-81369819D02*
X64972743Y-80369819D01*
X64972743Y-80369819D02*
X65067981Y-80512676D01*
X65067981Y-80512676D02*
X65163219Y-80607914D01*
X65163219Y-80607914D02*
X65258457Y-80655533D01*
X64258457Y-81274580D02*
X64210838Y-81322200D01*
X64210838Y-81322200D02*
X64258457Y-81369819D01*
X64258457Y-81369819D02*
X64306076Y-81322200D01*
X64306076Y-81322200D02*
X64258457Y-81274580D01*
X64258457Y-81274580D02*
X64258457Y-81369819D01*
X63258458Y-81369819D02*
X63829886Y-81369819D01*
X63544172Y-81369819D02*
X63544172Y-80369819D01*
X63544172Y-80369819D02*
X63639410Y-80512676D01*
X63639410Y-80512676D02*
X63734648Y-80607914D01*
X63734648Y-80607914D02*
X63829886Y-80655533D01*
X62829886Y-81274580D02*
X62782267Y-81322200D01*
X62782267Y-81322200D02*
X62829886Y-81369819D01*
X62829886Y-81369819D02*
X62877505Y-81322200D01*
X62877505Y-81322200D02*
X62829886Y-81274580D01*
X62829886Y-81274580D02*
X62829886Y-81369819D01*
X62163220Y-80369819D02*
X62067982Y-80369819D01*
X62067982Y-80369819D02*
X61972744Y-80417438D01*
X61972744Y-80417438D02*
X61925125Y-80465057D01*
X61925125Y-80465057D02*
X61877506Y-80560295D01*
X61877506Y-80560295D02*
X61829887Y-80750771D01*
X61829887Y-80750771D02*
X61829887Y-80988866D01*
X61829887Y-80988866D02*
X61877506Y-81179342D01*
X61877506Y-81179342D02*
X61925125Y-81274580D01*
X61925125Y-81274580D02*
X61972744Y-81322200D01*
X61972744Y-81322200D02*
X62067982Y-81369819D01*
X62067982Y-81369819D02*
X62163220Y-81369819D01*
X62163220Y-81369819D02*
X62258458Y-81322200D01*
X62258458Y-81322200D02*
X62306077Y-81274580D01*
X62306077Y-81274580D02*
X62353696Y-81179342D01*
X62353696Y-81179342D02*
X62401315Y-80988866D01*
X62401315Y-80988866D02*
X62401315Y-80750771D01*
X62401315Y-80750771D02*
X62353696Y-80560295D01*
X62353696Y-80560295D02*
X62306077Y-80465057D01*
X62306077Y-80465057D02*
X62258458Y-80417438D01*
X62258458Y-80417438D02*
X62163220Y-80369819D01*
X111242857Y-82459580D02*
X111290476Y-82507200D01*
X111290476Y-82507200D02*
X111433333Y-82554819D01*
X111433333Y-82554819D02*
X111528571Y-82554819D01*
X111528571Y-82554819D02*
X111671428Y-82507200D01*
X111671428Y-82507200D02*
X111766666Y-82411961D01*
X111766666Y-82411961D02*
X111814285Y-82316723D01*
X111814285Y-82316723D02*
X111861904Y-82126247D01*
X111861904Y-82126247D02*
X111861904Y-81983390D01*
X111861904Y-81983390D02*
X111814285Y-81792914D01*
X111814285Y-81792914D02*
X111766666Y-81697676D01*
X111766666Y-81697676D02*
X111671428Y-81602438D01*
X111671428Y-81602438D02*
X111528571Y-81554819D01*
X111528571Y-81554819D02*
X111433333Y-81554819D01*
X111433333Y-81554819D02*
X111290476Y-81602438D01*
X111290476Y-81602438D02*
X111242857Y-81650057D01*
X110290476Y-82554819D02*
X110861904Y-82554819D01*
X110576190Y-82554819D02*
X110576190Y-81554819D01*
X110576190Y-81554819D02*
X110671428Y-81697676D01*
X110671428Y-81697676D02*
X110766666Y-81792914D01*
X110766666Y-81792914D02*
X110861904Y-81840533D01*
X109338095Y-82554819D02*
X109909523Y-82554819D01*
X109623809Y-82554819D02*
X109623809Y-81554819D01*
X109623809Y-81554819D02*
X109719047Y-81697676D01*
X109719047Y-81697676D02*
X109814285Y-81792914D01*
X109814285Y-81792914D02*
X109909523Y-81840533D01*
X73642857Y-60654819D02*
X73976190Y-60178628D01*
X74214285Y-60654819D02*
X74214285Y-59654819D01*
X74214285Y-59654819D02*
X73833333Y-59654819D01*
X73833333Y-59654819D02*
X73738095Y-59702438D01*
X73738095Y-59702438D02*
X73690476Y-59750057D01*
X73690476Y-59750057D02*
X73642857Y-59845295D01*
X73642857Y-59845295D02*
X73642857Y-59988152D01*
X73642857Y-59988152D02*
X73690476Y-60083390D01*
X73690476Y-60083390D02*
X73738095Y-60131009D01*
X73738095Y-60131009D02*
X73833333Y-60178628D01*
X73833333Y-60178628D02*
X74214285Y-60178628D01*
X73261904Y-59750057D02*
X73214285Y-59702438D01*
X73214285Y-59702438D02*
X73119047Y-59654819D01*
X73119047Y-59654819D02*
X72880952Y-59654819D01*
X72880952Y-59654819D02*
X72785714Y-59702438D01*
X72785714Y-59702438D02*
X72738095Y-59750057D01*
X72738095Y-59750057D02*
X72690476Y-59845295D01*
X72690476Y-59845295D02*
X72690476Y-59940533D01*
X72690476Y-59940533D02*
X72738095Y-60083390D01*
X72738095Y-60083390D02*
X73309523Y-60654819D01*
X73309523Y-60654819D02*
X72690476Y-60654819D01*
X72357142Y-59654819D02*
X71738095Y-59654819D01*
X71738095Y-59654819D02*
X72071428Y-60035771D01*
X72071428Y-60035771D02*
X71928571Y-60035771D01*
X71928571Y-60035771D02*
X71833333Y-60083390D01*
X71833333Y-60083390D02*
X71785714Y-60131009D01*
X71785714Y-60131009D02*
X71738095Y-60226247D01*
X71738095Y-60226247D02*
X71738095Y-60464342D01*
X71738095Y-60464342D02*
X71785714Y-60559580D01*
X71785714Y-60559580D02*
X71833333Y-60607200D01*
X71833333Y-60607200D02*
X71928571Y-60654819D01*
X71928571Y-60654819D02*
X72214285Y-60654819D01*
X72214285Y-60654819D02*
X72309523Y-60607200D01*
X72309523Y-60607200D02*
X72357142Y-60559580D01*
X72642857Y-41959580D02*
X72690476Y-42007200D01*
X72690476Y-42007200D02*
X72833333Y-42054819D01*
X72833333Y-42054819D02*
X72928571Y-42054819D01*
X72928571Y-42054819D02*
X73071428Y-42007200D01*
X73071428Y-42007200D02*
X73166666Y-41911961D01*
X73166666Y-41911961D02*
X73214285Y-41816723D01*
X73214285Y-41816723D02*
X73261904Y-41626247D01*
X73261904Y-41626247D02*
X73261904Y-41483390D01*
X73261904Y-41483390D02*
X73214285Y-41292914D01*
X73214285Y-41292914D02*
X73166666Y-41197676D01*
X73166666Y-41197676D02*
X73071428Y-41102438D01*
X73071428Y-41102438D02*
X72928571Y-41054819D01*
X72928571Y-41054819D02*
X72833333Y-41054819D01*
X72833333Y-41054819D02*
X72690476Y-41102438D01*
X72690476Y-41102438D02*
X72642857Y-41150057D01*
X71690476Y-42054819D02*
X72261904Y-42054819D01*
X71976190Y-42054819D02*
X71976190Y-41054819D01*
X71976190Y-41054819D02*
X72071428Y-41197676D01*
X72071428Y-41197676D02*
X72166666Y-41292914D01*
X72166666Y-41292914D02*
X72261904Y-41340533D01*
X71357142Y-41054819D02*
X70738095Y-41054819D01*
X70738095Y-41054819D02*
X71071428Y-41435771D01*
X71071428Y-41435771D02*
X70928571Y-41435771D01*
X70928571Y-41435771D02*
X70833333Y-41483390D01*
X70833333Y-41483390D02*
X70785714Y-41531009D01*
X70785714Y-41531009D02*
X70738095Y-41626247D01*
X70738095Y-41626247D02*
X70738095Y-41864342D01*
X70738095Y-41864342D02*
X70785714Y-41959580D01*
X70785714Y-41959580D02*
X70833333Y-42007200D01*
X70833333Y-42007200D02*
X70928571Y-42054819D01*
X70928571Y-42054819D02*
X71214285Y-42054819D01*
X71214285Y-42054819D02*
X71309523Y-42007200D01*
X71309523Y-42007200D02*
X71357142Y-41959580D01*
X62342857Y-46359580D02*
X62390476Y-46407200D01*
X62390476Y-46407200D02*
X62533333Y-46454819D01*
X62533333Y-46454819D02*
X62628571Y-46454819D01*
X62628571Y-46454819D02*
X62771428Y-46407200D01*
X62771428Y-46407200D02*
X62866666Y-46311961D01*
X62866666Y-46311961D02*
X62914285Y-46216723D01*
X62914285Y-46216723D02*
X62961904Y-46026247D01*
X62961904Y-46026247D02*
X62961904Y-45883390D01*
X62961904Y-45883390D02*
X62914285Y-45692914D01*
X62914285Y-45692914D02*
X62866666Y-45597676D01*
X62866666Y-45597676D02*
X62771428Y-45502438D01*
X62771428Y-45502438D02*
X62628571Y-45454819D01*
X62628571Y-45454819D02*
X62533333Y-45454819D01*
X62533333Y-45454819D02*
X62390476Y-45502438D01*
X62390476Y-45502438D02*
X62342857Y-45550057D01*
X61390476Y-46454819D02*
X61961904Y-46454819D01*
X61676190Y-46454819D02*
X61676190Y-45454819D01*
X61676190Y-45454819D02*
X61771428Y-45597676D01*
X61771428Y-45597676D02*
X61866666Y-45692914D01*
X61866666Y-45692914D02*
X61961904Y-45740533D01*
X60819047Y-45883390D02*
X60914285Y-45835771D01*
X60914285Y-45835771D02*
X60961904Y-45788152D01*
X60961904Y-45788152D02*
X61009523Y-45692914D01*
X61009523Y-45692914D02*
X61009523Y-45645295D01*
X61009523Y-45645295D02*
X60961904Y-45550057D01*
X60961904Y-45550057D02*
X60914285Y-45502438D01*
X60914285Y-45502438D02*
X60819047Y-45454819D01*
X60819047Y-45454819D02*
X60628571Y-45454819D01*
X60628571Y-45454819D02*
X60533333Y-45502438D01*
X60533333Y-45502438D02*
X60485714Y-45550057D01*
X60485714Y-45550057D02*
X60438095Y-45645295D01*
X60438095Y-45645295D02*
X60438095Y-45692914D01*
X60438095Y-45692914D02*
X60485714Y-45788152D01*
X60485714Y-45788152D02*
X60533333Y-45835771D01*
X60533333Y-45835771D02*
X60628571Y-45883390D01*
X60628571Y-45883390D02*
X60819047Y-45883390D01*
X60819047Y-45883390D02*
X60914285Y-45931009D01*
X60914285Y-45931009D02*
X60961904Y-45978628D01*
X60961904Y-45978628D02*
X61009523Y-46073866D01*
X61009523Y-46073866D02*
X61009523Y-46264342D01*
X61009523Y-46264342D02*
X60961904Y-46359580D01*
X60961904Y-46359580D02*
X60914285Y-46407200D01*
X60914285Y-46407200D02*
X60819047Y-46454819D01*
X60819047Y-46454819D02*
X60628571Y-46454819D01*
X60628571Y-46454819D02*
X60533333Y-46407200D01*
X60533333Y-46407200D02*
X60485714Y-46359580D01*
X60485714Y-46359580D02*
X60438095Y-46264342D01*
X60438095Y-46264342D02*
X60438095Y-46073866D01*
X60438095Y-46073866D02*
X60485714Y-45978628D01*
X60485714Y-45978628D02*
X60533333Y-45931009D01*
X60533333Y-45931009D02*
X60628571Y-45883390D01*
X124343272Y-55024211D02*
X124676605Y-54548020D01*
X124914700Y-55024211D02*
X124914700Y-54024211D01*
X124914700Y-54024211D02*
X124533748Y-54024211D01*
X124533748Y-54024211D02*
X124438510Y-54071830D01*
X124438510Y-54071830D02*
X124390891Y-54119449D01*
X124390891Y-54119449D02*
X124343272Y-54214687D01*
X124343272Y-54214687D02*
X124343272Y-54357544D01*
X124343272Y-54357544D02*
X124390891Y-54452782D01*
X124390891Y-54452782D02*
X124438510Y-54500401D01*
X124438510Y-54500401D02*
X124533748Y-54548020D01*
X124533748Y-54548020D02*
X124914700Y-54548020D01*
X123390891Y-55024211D02*
X123962319Y-55024211D01*
X123676605Y-55024211D02*
X123676605Y-54024211D01*
X123676605Y-54024211D02*
X123771843Y-54167068D01*
X123771843Y-54167068D02*
X123867081Y-54262306D01*
X123867081Y-54262306D02*
X123962319Y-54309925D01*
X122533748Y-54357544D02*
X122533748Y-55024211D01*
X122771843Y-53976592D02*
X123009938Y-54690877D01*
X123009938Y-54690877D02*
X122390891Y-54690877D01*
X125242857Y-74929580D02*
X125290476Y-74977200D01*
X125290476Y-74977200D02*
X125433333Y-75024819D01*
X125433333Y-75024819D02*
X125528571Y-75024819D01*
X125528571Y-75024819D02*
X125671428Y-74977200D01*
X125671428Y-74977200D02*
X125766666Y-74881961D01*
X125766666Y-74881961D02*
X125814285Y-74786723D01*
X125814285Y-74786723D02*
X125861904Y-74596247D01*
X125861904Y-74596247D02*
X125861904Y-74453390D01*
X125861904Y-74453390D02*
X125814285Y-74262914D01*
X125814285Y-74262914D02*
X125766666Y-74167676D01*
X125766666Y-74167676D02*
X125671428Y-74072438D01*
X125671428Y-74072438D02*
X125528571Y-74024819D01*
X125528571Y-74024819D02*
X125433333Y-74024819D01*
X125433333Y-74024819D02*
X125290476Y-74072438D01*
X125290476Y-74072438D02*
X125242857Y-74120057D01*
X124385714Y-74358152D02*
X124385714Y-75024819D01*
X124623809Y-73977200D02*
X124861904Y-74691485D01*
X124861904Y-74691485D02*
X124242857Y-74691485D01*
X123385714Y-74024819D02*
X123861904Y-74024819D01*
X123861904Y-74024819D02*
X123909523Y-74501009D01*
X123909523Y-74501009D02*
X123861904Y-74453390D01*
X123861904Y-74453390D02*
X123766666Y-74405771D01*
X123766666Y-74405771D02*
X123528571Y-74405771D01*
X123528571Y-74405771D02*
X123433333Y-74453390D01*
X123433333Y-74453390D02*
X123385714Y-74501009D01*
X123385714Y-74501009D02*
X123338095Y-74596247D01*
X123338095Y-74596247D02*
X123338095Y-74834342D01*
X123338095Y-74834342D02*
X123385714Y-74929580D01*
X123385714Y-74929580D02*
X123433333Y-74977200D01*
X123433333Y-74977200D02*
X123528571Y-75024819D01*
X123528571Y-75024819D02*
X123766666Y-75024819D01*
X123766666Y-75024819D02*
X123861904Y-74977200D01*
X123861904Y-74977200D02*
X123909523Y-74929580D01*
X118566666Y-47554819D02*
X118899999Y-47078628D01*
X119138094Y-47554819D02*
X119138094Y-46554819D01*
X119138094Y-46554819D02*
X118757142Y-46554819D01*
X118757142Y-46554819D02*
X118661904Y-46602438D01*
X118661904Y-46602438D02*
X118614285Y-46650057D01*
X118614285Y-46650057D02*
X118566666Y-46745295D01*
X118566666Y-46745295D02*
X118566666Y-46888152D01*
X118566666Y-46888152D02*
X118614285Y-46983390D01*
X118614285Y-46983390D02*
X118661904Y-47031009D01*
X118661904Y-47031009D02*
X118757142Y-47078628D01*
X118757142Y-47078628D02*
X119138094Y-47078628D01*
X118233332Y-46554819D02*
X117566666Y-46554819D01*
X117566666Y-46554819D02*
X117995237Y-47554819D01*
X123838094Y-47454819D02*
X123838094Y-46454819D01*
X123838094Y-46454819D02*
X123599999Y-46454819D01*
X123599999Y-46454819D02*
X123457142Y-46502438D01*
X123457142Y-46502438D02*
X123361904Y-46597676D01*
X123361904Y-46597676D02*
X123314285Y-46692914D01*
X123314285Y-46692914D02*
X123266666Y-46883390D01*
X123266666Y-46883390D02*
X123266666Y-47026247D01*
X123266666Y-47026247D02*
X123314285Y-47216723D01*
X123314285Y-47216723D02*
X123361904Y-47311961D01*
X123361904Y-47311961D02*
X123457142Y-47407200D01*
X123457142Y-47407200D02*
X123599999Y-47454819D01*
X123599999Y-47454819D02*
X123838094Y-47454819D01*
X122409523Y-46454819D02*
X122599999Y-46454819D01*
X122599999Y-46454819D02*
X122695237Y-46502438D01*
X122695237Y-46502438D02*
X122742856Y-46550057D01*
X122742856Y-46550057D02*
X122838094Y-46692914D01*
X122838094Y-46692914D02*
X122885713Y-46883390D01*
X122885713Y-46883390D02*
X122885713Y-47264342D01*
X122885713Y-47264342D02*
X122838094Y-47359580D01*
X122838094Y-47359580D02*
X122790475Y-47407200D01*
X122790475Y-47407200D02*
X122695237Y-47454819D01*
X122695237Y-47454819D02*
X122504761Y-47454819D01*
X122504761Y-47454819D02*
X122409523Y-47407200D01*
X122409523Y-47407200D02*
X122361904Y-47359580D01*
X122361904Y-47359580D02*
X122314285Y-47264342D01*
X122314285Y-47264342D02*
X122314285Y-47026247D01*
X122314285Y-47026247D02*
X122361904Y-46931009D01*
X122361904Y-46931009D02*
X122409523Y-46883390D01*
X122409523Y-46883390D02*
X122504761Y-46835771D01*
X122504761Y-46835771D02*
X122695237Y-46835771D01*
X122695237Y-46835771D02*
X122790475Y-46883390D01*
X122790475Y-46883390D02*
X122838094Y-46931009D01*
X122838094Y-46931009D02*
X122885713Y-47026247D01*
X123038094Y-43154819D02*
X123038094Y-42154819D01*
X123038094Y-42154819D02*
X122799999Y-42154819D01*
X122799999Y-42154819D02*
X122657142Y-42202438D01*
X122657142Y-42202438D02*
X122561904Y-42297676D01*
X122561904Y-42297676D02*
X122514285Y-42392914D01*
X122514285Y-42392914D02*
X122466666Y-42583390D01*
X122466666Y-42583390D02*
X122466666Y-42726247D01*
X122466666Y-42726247D02*
X122514285Y-42916723D01*
X122514285Y-42916723D02*
X122561904Y-43011961D01*
X122561904Y-43011961D02*
X122657142Y-43107200D01*
X122657142Y-43107200D02*
X122799999Y-43154819D01*
X122799999Y-43154819D02*
X123038094Y-43154819D01*
X122133332Y-42154819D02*
X121466666Y-42154819D01*
X121466666Y-42154819D02*
X121895237Y-43154819D01*
X120743272Y-55024211D02*
X121076605Y-54548020D01*
X121314700Y-55024211D02*
X121314700Y-54024211D01*
X121314700Y-54024211D02*
X120933748Y-54024211D01*
X120933748Y-54024211D02*
X120838510Y-54071830D01*
X120838510Y-54071830D02*
X120790891Y-54119449D01*
X120790891Y-54119449D02*
X120743272Y-54214687D01*
X120743272Y-54214687D02*
X120743272Y-54357544D01*
X120743272Y-54357544D02*
X120790891Y-54452782D01*
X120790891Y-54452782D02*
X120838510Y-54500401D01*
X120838510Y-54500401D02*
X120933748Y-54548020D01*
X120933748Y-54548020D02*
X121314700Y-54548020D01*
X119790891Y-55024211D02*
X120362319Y-55024211D01*
X120076605Y-55024211D02*
X120076605Y-54024211D01*
X120076605Y-54024211D02*
X120171843Y-54167068D01*
X120171843Y-54167068D02*
X120267081Y-54262306D01*
X120267081Y-54262306D02*
X120362319Y-54309925D01*
X119457557Y-54024211D02*
X118838510Y-54024211D01*
X118838510Y-54024211D02*
X119171843Y-54405163D01*
X119171843Y-54405163D02*
X119028986Y-54405163D01*
X119028986Y-54405163D02*
X118933748Y-54452782D01*
X118933748Y-54452782D02*
X118886129Y-54500401D01*
X118886129Y-54500401D02*
X118838510Y-54595639D01*
X118838510Y-54595639D02*
X118838510Y-54833734D01*
X118838510Y-54833734D02*
X118886129Y-54928972D01*
X118886129Y-54928972D02*
X118933748Y-54976592D01*
X118933748Y-54976592D02*
X119028986Y-55024211D01*
X119028986Y-55024211D02*
X119314700Y-55024211D01*
X119314700Y-55024211D02*
X119409938Y-54976592D01*
X119409938Y-54976592D02*
X119457557Y-54928972D01*
X131338094Y-81054819D02*
X131338094Y-81864342D01*
X131338094Y-81864342D02*
X131290475Y-81959580D01*
X131290475Y-81959580D02*
X131242856Y-82007200D01*
X131242856Y-82007200D02*
X131147618Y-82054819D01*
X131147618Y-82054819D02*
X130957142Y-82054819D01*
X130957142Y-82054819D02*
X130861904Y-82007200D01*
X130861904Y-82007200D02*
X130814285Y-81959580D01*
X130814285Y-81959580D02*
X130766666Y-81864342D01*
X130766666Y-81864342D02*
X130766666Y-81054819D01*
X129766666Y-82054819D02*
X130338094Y-82054819D01*
X130052380Y-82054819D02*
X130052380Y-81054819D01*
X130052380Y-81054819D02*
X130147618Y-81197676D01*
X130147618Y-81197676D02*
X130242856Y-81292914D01*
X130242856Y-81292914D02*
X130338094Y-81340533D01*
X129385713Y-81150057D02*
X129338094Y-81102438D01*
X129338094Y-81102438D02*
X129242856Y-81054819D01*
X129242856Y-81054819D02*
X129004761Y-81054819D01*
X129004761Y-81054819D02*
X128909523Y-81102438D01*
X128909523Y-81102438D02*
X128861904Y-81150057D01*
X128861904Y-81150057D02*
X128814285Y-81245295D01*
X128814285Y-81245295D02*
X128814285Y-81340533D01*
X128814285Y-81340533D02*
X128861904Y-81483390D01*
X128861904Y-81483390D02*
X129433332Y-82054819D01*
X129433332Y-82054819D02*
X128814285Y-82054819D01*
X62761904Y-42754819D02*
X62761904Y-43564342D01*
X62761904Y-43564342D02*
X62714285Y-43659580D01*
X62714285Y-43659580D02*
X62666666Y-43707200D01*
X62666666Y-43707200D02*
X62571428Y-43754819D01*
X62571428Y-43754819D02*
X62380952Y-43754819D01*
X62380952Y-43754819D02*
X62285714Y-43707200D01*
X62285714Y-43707200D02*
X62238095Y-43659580D01*
X62238095Y-43659580D02*
X62190476Y-43564342D01*
X62190476Y-43564342D02*
X62190476Y-42754819D01*
X61285714Y-43088152D02*
X61285714Y-43754819D01*
X61523809Y-42707200D02*
X61761904Y-43421485D01*
X61761904Y-43421485D02*
X61142857Y-43421485D01*
X93042857Y-80259580D02*
X93090476Y-80307200D01*
X93090476Y-80307200D02*
X93233333Y-80354819D01*
X93233333Y-80354819D02*
X93328571Y-80354819D01*
X93328571Y-80354819D02*
X93471428Y-80307200D01*
X93471428Y-80307200D02*
X93566666Y-80211961D01*
X93566666Y-80211961D02*
X93614285Y-80116723D01*
X93614285Y-80116723D02*
X93661904Y-79926247D01*
X93661904Y-79926247D02*
X93661904Y-79783390D01*
X93661904Y-79783390D02*
X93614285Y-79592914D01*
X93614285Y-79592914D02*
X93566666Y-79497676D01*
X93566666Y-79497676D02*
X93471428Y-79402438D01*
X93471428Y-79402438D02*
X93328571Y-79354819D01*
X93328571Y-79354819D02*
X93233333Y-79354819D01*
X93233333Y-79354819D02*
X93090476Y-79402438D01*
X93090476Y-79402438D02*
X93042857Y-79450057D01*
X92185714Y-79688152D02*
X92185714Y-80354819D01*
X92423809Y-79307200D02*
X92661904Y-80021485D01*
X92661904Y-80021485D02*
X92042857Y-80021485D01*
X91233333Y-79688152D02*
X91233333Y-80354819D01*
X91471428Y-79307200D02*
X91709523Y-80021485D01*
X91709523Y-80021485D02*
X91090476Y-80021485D01*
X88466666Y-57459580D02*
X88514285Y-57507200D01*
X88514285Y-57507200D02*
X88657142Y-57554819D01*
X88657142Y-57554819D02*
X88752380Y-57554819D01*
X88752380Y-57554819D02*
X88895237Y-57507200D01*
X88895237Y-57507200D02*
X88990475Y-57411961D01*
X88990475Y-57411961D02*
X89038094Y-57316723D01*
X89038094Y-57316723D02*
X89085713Y-57126247D01*
X89085713Y-57126247D02*
X89085713Y-56983390D01*
X89085713Y-56983390D02*
X89038094Y-56792914D01*
X89038094Y-56792914D02*
X88990475Y-56697676D01*
X88990475Y-56697676D02*
X88895237Y-56602438D01*
X88895237Y-56602438D02*
X88752380Y-56554819D01*
X88752380Y-56554819D02*
X88657142Y-56554819D01*
X88657142Y-56554819D02*
X88514285Y-56602438D01*
X88514285Y-56602438D02*
X88466666Y-56650057D01*
X87561904Y-56554819D02*
X88038094Y-56554819D01*
X88038094Y-56554819D02*
X88085713Y-57031009D01*
X88085713Y-57031009D02*
X88038094Y-56983390D01*
X88038094Y-56983390D02*
X87942856Y-56935771D01*
X87942856Y-56935771D02*
X87704761Y-56935771D01*
X87704761Y-56935771D02*
X87609523Y-56983390D01*
X87609523Y-56983390D02*
X87561904Y-57031009D01*
X87561904Y-57031009D02*
X87514285Y-57126247D01*
X87514285Y-57126247D02*
X87514285Y-57364342D01*
X87514285Y-57364342D02*
X87561904Y-57459580D01*
X87561904Y-57459580D02*
X87609523Y-57507200D01*
X87609523Y-57507200D02*
X87704761Y-57554819D01*
X87704761Y-57554819D02*
X87942856Y-57554819D01*
X87942856Y-57554819D02*
X88038094Y-57507200D01*
X88038094Y-57507200D02*
X88085713Y-57459580D01*
X75342857Y-50459580D02*
X75390476Y-50507200D01*
X75390476Y-50507200D02*
X75533333Y-50554819D01*
X75533333Y-50554819D02*
X75628571Y-50554819D01*
X75628571Y-50554819D02*
X75771428Y-50507200D01*
X75771428Y-50507200D02*
X75866666Y-50411961D01*
X75866666Y-50411961D02*
X75914285Y-50316723D01*
X75914285Y-50316723D02*
X75961904Y-50126247D01*
X75961904Y-50126247D02*
X75961904Y-49983390D01*
X75961904Y-49983390D02*
X75914285Y-49792914D01*
X75914285Y-49792914D02*
X75866666Y-49697676D01*
X75866666Y-49697676D02*
X75771428Y-49602438D01*
X75771428Y-49602438D02*
X75628571Y-49554819D01*
X75628571Y-49554819D02*
X75533333Y-49554819D01*
X75533333Y-49554819D02*
X75390476Y-49602438D01*
X75390476Y-49602438D02*
X75342857Y-49650057D01*
X74485714Y-49888152D02*
X74485714Y-50554819D01*
X74723809Y-49507200D02*
X74961904Y-50221485D01*
X74961904Y-50221485D02*
X74342857Y-50221485D01*
X74009523Y-49650057D02*
X73961904Y-49602438D01*
X73961904Y-49602438D02*
X73866666Y-49554819D01*
X73866666Y-49554819D02*
X73628571Y-49554819D01*
X73628571Y-49554819D02*
X73533333Y-49602438D01*
X73533333Y-49602438D02*
X73485714Y-49650057D01*
X73485714Y-49650057D02*
X73438095Y-49745295D01*
X73438095Y-49745295D02*
X73438095Y-49840533D01*
X73438095Y-49840533D02*
X73485714Y-49983390D01*
X73485714Y-49983390D02*
X74057142Y-50554819D01*
X74057142Y-50554819D02*
X73438095Y-50554819D01*
X117142857Y-75659580D02*
X117190476Y-75707200D01*
X117190476Y-75707200D02*
X117333333Y-75754819D01*
X117333333Y-75754819D02*
X117428571Y-75754819D01*
X117428571Y-75754819D02*
X117571428Y-75707200D01*
X117571428Y-75707200D02*
X117666666Y-75611961D01*
X117666666Y-75611961D02*
X117714285Y-75516723D01*
X117714285Y-75516723D02*
X117761904Y-75326247D01*
X117761904Y-75326247D02*
X117761904Y-75183390D01*
X117761904Y-75183390D02*
X117714285Y-74992914D01*
X117714285Y-74992914D02*
X117666666Y-74897676D01*
X117666666Y-74897676D02*
X117571428Y-74802438D01*
X117571428Y-74802438D02*
X117428571Y-74754819D01*
X117428571Y-74754819D02*
X117333333Y-74754819D01*
X117333333Y-74754819D02*
X117190476Y-74802438D01*
X117190476Y-74802438D02*
X117142857Y-74850057D01*
X116285714Y-75088152D02*
X116285714Y-75754819D01*
X116523809Y-74707200D02*
X116761904Y-75421485D01*
X116761904Y-75421485D02*
X116142857Y-75421485D01*
X115238095Y-75754819D02*
X115809523Y-75754819D01*
X115523809Y-75754819D02*
X115523809Y-74754819D01*
X115523809Y-74754819D02*
X115619047Y-74897676D01*
X115619047Y-74897676D02*
X115714285Y-74992914D01*
X115714285Y-74992914D02*
X115809523Y-75040533D01*
X70738094Y-48054819D02*
X70738094Y-48864342D01*
X70738094Y-48864342D02*
X70690475Y-48959580D01*
X70690475Y-48959580D02*
X70642856Y-49007200D01*
X70642856Y-49007200D02*
X70547618Y-49054819D01*
X70547618Y-49054819D02*
X70357142Y-49054819D01*
X70357142Y-49054819D02*
X70261904Y-49007200D01*
X70261904Y-49007200D02*
X70214285Y-48959580D01*
X70214285Y-48959580D02*
X70166666Y-48864342D01*
X70166666Y-48864342D02*
X70166666Y-48054819D01*
X69166666Y-49054819D02*
X69738094Y-49054819D01*
X69452380Y-49054819D02*
X69452380Y-48054819D01*
X69452380Y-48054819D02*
X69547618Y-48197676D01*
X69547618Y-48197676D02*
X69642856Y-48292914D01*
X69642856Y-48292914D02*
X69738094Y-48340533D01*
X68547618Y-48054819D02*
X68452380Y-48054819D01*
X68452380Y-48054819D02*
X68357142Y-48102438D01*
X68357142Y-48102438D02*
X68309523Y-48150057D01*
X68309523Y-48150057D02*
X68261904Y-48245295D01*
X68261904Y-48245295D02*
X68214285Y-48435771D01*
X68214285Y-48435771D02*
X68214285Y-48673866D01*
X68214285Y-48673866D02*
X68261904Y-48864342D01*
X68261904Y-48864342D02*
X68309523Y-48959580D01*
X68309523Y-48959580D02*
X68357142Y-49007200D01*
X68357142Y-49007200D02*
X68452380Y-49054819D01*
X68452380Y-49054819D02*
X68547618Y-49054819D01*
X68547618Y-49054819D02*
X68642856Y-49007200D01*
X68642856Y-49007200D02*
X68690475Y-48959580D01*
X68690475Y-48959580D02*
X68738094Y-48864342D01*
X68738094Y-48864342D02*
X68785713Y-48673866D01*
X68785713Y-48673866D02*
X68785713Y-48435771D01*
X68785713Y-48435771D02*
X68738094Y-48245295D01*
X68738094Y-48245295D02*
X68690475Y-48150057D01*
X68690475Y-48150057D02*
X68642856Y-48102438D01*
X68642856Y-48102438D02*
X68547618Y-48054819D01*
X66366666Y-74929580D02*
X66414285Y-74977200D01*
X66414285Y-74977200D02*
X66557142Y-75024819D01*
X66557142Y-75024819D02*
X66652380Y-75024819D01*
X66652380Y-75024819D02*
X66795237Y-74977200D01*
X66795237Y-74977200D02*
X66890475Y-74881961D01*
X66890475Y-74881961D02*
X66938094Y-74786723D01*
X66938094Y-74786723D02*
X66985713Y-74596247D01*
X66985713Y-74596247D02*
X66985713Y-74453390D01*
X66985713Y-74453390D02*
X66938094Y-74262914D01*
X66938094Y-74262914D02*
X66890475Y-74167676D01*
X66890475Y-74167676D02*
X66795237Y-74072438D01*
X66795237Y-74072438D02*
X66652380Y-74024819D01*
X66652380Y-74024819D02*
X66557142Y-74024819D01*
X66557142Y-74024819D02*
X66414285Y-74072438D01*
X66414285Y-74072438D02*
X66366666Y-74120057D01*
X65890475Y-75024819D02*
X65699999Y-75024819D01*
X65699999Y-75024819D02*
X65604761Y-74977200D01*
X65604761Y-74977200D02*
X65557142Y-74929580D01*
X65557142Y-74929580D02*
X65461904Y-74786723D01*
X65461904Y-74786723D02*
X65414285Y-74596247D01*
X65414285Y-74596247D02*
X65414285Y-74215295D01*
X65414285Y-74215295D02*
X65461904Y-74120057D01*
X65461904Y-74120057D02*
X65509523Y-74072438D01*
X65509523Y-74072438D02*
X65604761Y-74024819D01*
X65604761Y-74024819D02*
X65795237Y-74024819D01*
X65795237Y-74024819D02*
X65890475Y-74072438D01*
X65890475Y-74072438D02*
X65938094Y-74120057D01*
X65938094Y-74120057D02*
X65985713Y-74215295D01*
X65985713Y-74215295D02*
X65985713Y-74453390D01*
X65985713Y-74453390D02*
X65938094Y-74548628D01*
X65938094Y-74548628D02*
X65890475Y-74596247D01*
X65890475Y-74596247D02*
X65795237Y-74643866D01*
X65795237Y-74643866D02*
X65604761Y-74643866D01*
X65604761Y-74643866D02*
X65509523Y-74596247D01*
X65509523Y-74596247D02*
X65461904Y-74548628D01*
X65461904Y-74548628D02*
X65414285Y-74453390D01*
X65342857Y-61259580D02*
X65390476Y-61307200D01*
X65390476Y-61307200D02*
X65533333Y-61354819D01*
X65533333Y-61354819D02*
X65628571Y-61354819D01*
X65628571Y-61354819D02*
X65771428Y-61307200D01*
X65771428Y-61307200D02*
X65866666Y-61211961D01*
X65866666Y-61211961D02*
X65914285Y-61116723D01*
X65914285Y-61116723D02*
X65961904Y-60926247D01*
X65961904Y-60926247D02*
X65961904Y-60783390D01*
X65961904Y-60783390D02*
X65914285Y-60592914D01*
X65914285Y-60592914D02*
X65866666Y-60497676D01*
X65866666Y-60497676D02*
X65771428Y-60402438D01*
X65771428Y-60402438D02*
X65628571Y-60354819D01*
X65628571Y-60354819D02*
X65533333Y-60354819D01*
X65533333Y-60354819D02*
X65390476Y-60402438D01*
X65390476Y-60402438D02*
X65342857Y-60450057D01*
X64961904Y-60450057D02*
X64914285Y-60402438D01*
X64914285Y-60402438D02*
X64819047Y-60354819D01*
X64819047Y-60354819D02*
X64580952Y-60354819D01*
X64580952Y-60354819D02*
X64485714Y-60402438D01*
X64485714Y-60402438D02*
X64438095Y-60450057D01*
X64438095Y-60450057D02*
X64390476Y-60545295D01*
X64390476Y-60545295D02*
X64390476Y-60640533D01*
X64390476Y-60640533D02*
X64438095Y-60783390D01*
X64438095Y-60783390D02*
X65009523Y-61354819D01*
X65009523Y-61354819D02*
X64390476Y-61354819D01*
X63819047Y-60783390D02*
X63914285Y-60735771D01*
X63914285Y-60735771D02*
X63961904Y-60688152D01*
X63961904Y-60688152D02*
X64009523Y-60592914D01*
X64009523Y-60592914D02*
X64009523Y-60545295D01*
X64009523Y-60545295D02*
X63961904Y-60450057D01*
X63961904Y-60450057D02*
X63914285Y-60402438D01*
X63914285Y-60402438D02*
X63819047Y-60354819D01*
X63819047Y-60354819D02*
X63628571Y-60354819D01*
X63628571Y-60354819D02*
X63533333Y-60402438D01*
X63533333Y-60402438D02*
X63485714Y-60450057D01*
X63485714Y-60450057D02*
X63438095Y-60545295D01*
X63438095Y-60545295D02*
X63438095Y-60592914D01*
X63438095Y-60592914D02*
X63485714Y-60688152D01*
X63485714Y-60688152D02*
X63533333Y-60735771D01*
X63533333Y-60735771D02*
X63628571Y-60783390D01*
X63628571Y-60783390D02*
X63819047Y-60783390D01*
X63819047Y-60783390D02*
X63914285Y-60831009D01*
X63914285Y-60831009D02*
X63961904Y-60878628D01*
X63961904Y-60878628D02*
X64009523Y-60973866D01*
X64009523Y-60973866D02*
X64009523Y-61164342D01*
X64009523Y-61164342D02*
X63961904Y-61259580D01*
X63961904Y-61259580D02*
X63914285Y-61307200D01*
X63914285Y-61307200D02*
X63819047Y-61354819D01*
X63819047Y-61354819D02*
X63628571Y-61354819D01*
X63628571Y-61354819D02*
X63533333Y-61307200D01*
X63533333Y-61307200D02*
X63485714Y-61259580D01*
X63485714Y-61259580D02*
X63438095Y-61164342D01*
X63438095Y-61164342D02*
X63438095Y-60973866D01*
X63438095Y-60973866D02*
X63485714Y-60878628D01*
X63485714Y-60878628D02*
X63533333Y-60831009D01*
X63533333Y-60831009D02*
X63628571Y-60783390D01*
X73042857Y-59259580D02*
X73090476Y-59307200D01*
X73090476Y-59307200D02*
X73233333Y-59354819D01*
X73233333Y-59354819D02*
X73328571Y-59354819D01*
X73328571Y-59354819D02*
X73471428Y-59307200D01*
X73471428Y-59307200D02*
X73566666Y-59211961D01*
X73566666Y-59211961D02*
X73614285Y-59116723D01*
X73614285Y-59116723D02*
X73661904Y-58926247D01*
X73661904Y-58926247D02*
X73661904Y-58783390D01*
X73661904Y-58783390D02*
X73614285Y-58592914D01*
X73614285Y-58592914D02*
X73566666Y-58497676D01*
X73566666Y-58497676D02*
X73471428Y-58402438D01*
X73471428Y-58402438D02*
X73328571Y-58354819D01*
X73328571Y-58354819D02*
X73233333Y-58354819D01*
X73233333Y-58354819D02*
X73090476Y-58402438D01*
X73090476Y-58402438D02*
X73042857Y-58450057D01*
X72661904Y-58450057D02*
X72614285Y-58402438D01*
X72614285Y-58402438D02*
X72519047Y-58354819D01*
X72519047Y-58354819D02*
X72280952Y-58354819D01*
X72280952Y-58354819D02*
X72185714Y-58402438D01*
X72185714Y-58402438D02*
X72138095Y-58450057D01*
X72138095Y-58450057D02*
X72090476Y-58545295D01*
X72090476Y-58545295D02*
X72090476Y-58640533D01*
X72090476Y-58640533D02*
X72138095Y-58783390D01*
X72138095Y-58783390D02*
X72709523Y-59354819D01*
X72709523Y-59354819D02*
X72090476Y-59354819D01*
X71614285Y-59354819D02*
X71423809Y-59354819D01*
X71423809Y-59354819D02*
X71328571Y-59307200D01*
X71328571Y-59307200D02*
X71280952Y-59259580D01*
X71280952Y-59259580D02*
X71185714Y-59116723D01*
X71185714Y-59116723D02*
X71138095Y-58926247D01*
X71138095Y-58926247D02*
X71138095Y-58545295D01*
X71138095Y-58545295D02*
X71185714Y-58450057D01*
X71185714Y-58450057D02*
X71233333Y-58402438D01*
X71233333Y-58402438D02*
X71328571Y-58354819D01*
X71328571Y-58354819D02*
X71519047Y-58354819D01*
X71519047Y-58354819D02*
X71614285Y-58402438D01*
X71614285Y-58402438D02*
X71661904Y-58450057D01*
X71661904Y-58450057D02*
X71709523Y-58545295D01*
X71709523Y-58545295D02*
X71709523Y-58783390D01*
X71709523Y-58783390D02*
X71661904Y-58878628D01*
X71661904Y-58878628D02*
X71614285Y-58926247D01*
X71614285Y-58926247D02*
X71519047Y-58973866D01*
X71519047Y-58973866D02*
X71328571Y-58973866D01*
X71328571Y-58973866D02*
X71233333Y-58926247D01*
X71233333Y-58926247D02*
X71185714Y-58878628D01*
X71185714Y-58878628D02*
X71138095Y-58783390D01*
X114043272Y-54624211D02*
X114376605Y-54148020D01*
X114614700Y-54624211D02*
X114614700Y-53624211D01*
X114614700Y-53624211D02*
X114233748Y-53624211D01*
X114233748Y-53624211D02*
X114138510Y-53671830D01*
X114138510Y-53671830D02*
X114090891Y-53719449D01*
X114090891Y-53719449D02*
X114043272Y-53814687D01*
X114043272Y-53814687D02*
X114043272Y-53957544D01*
X114043272Y-53957544D02*
X114090891Y-54052782D01*
X114090891Y-54052782D02*
X114138510Y-54100401D01*
X114138510Y-54100401D02*
X114233748Y-54148020D01*
X114233748Y-54148020D02*
X114614700Y-54148020D01*
X113090891Y-54624211D02*
X113662319Y-54624211D01*
X113376605Y-54624211D02*
X113376605Y-53624211D01*
X113376605Y-53624211D02*
X113471843Y-53767068D01*
X113471843Y-53767068D02*
X113567081Y-53862306D01*
X113567081Y-53862306D02*
X113662319Y-53909925D01*
X112709938Y-53719449D02*
X112662319Y-53671830D01*
X112662319Y-53671830D02*
X112567081Y-53624211D01*
X112567081Y-53624211D02*
X112328986Y-53624211D01*
X112328986Y-53624211D02*
X112233748Y-53671830D01*
X112233748Y-53671830D02*
X112186129Y-53719449D01*
X112186129Y-53719449D02*
X112138510Y-53814687D01*
X112138510Y-53814687D02*
X112138510Y-53909925D01*
X112138510Y-53909925D02*
X112186129Y-54052782D01*
X112186129Y-54052782D02*
X112757557Y-54624211D01*
X112757557Y-54624211D02*
X112138510Y-54624211D01*
X110242857Y-77459580D02*
X110290476Y-77507200D01*
X110290476Y-77507200D02*
X110433333Y-77554819D01*
X110433333Y-77554819D02*
X110528571Y-77554819D01*
X110528571Y-77554819D02*
X110671428Y-77507200D01*
X110671428Y-77507200D02*
X110766666Y-77411961D01*
X110766666Y-77411961D02*
X110814285Y-77316723D01*
X110814285Y-77316723D02*
X110861904Y-77126247D01*
X110861904Y-77126247D02*
X110861904Y-76983390D01*
X110861904Y-76983390D02*
X110814285Y-76792914D01*
X110814285Y-76792914D02*
X110766666Y-76697676D01*
X110766666Y-76697676D02*
X110671428Y-76602438D01*
X110671428Y-76602438D02*
X110528571Y-76554819D01*
X110528571Y-76554819D02*
X110433333Y-76554819D01*
X110433333Y-76554819D02*
X110290476Y-76602438D01*
X110290476Y-76602438D02*
X110242857Y-76650057D01*
X109290476Y-77554819D02*
X109861904Y-77554819D01*
X109576190Y-77554819D02*
X109576190Y-76554819D01*
X109576190Y-76554819D02*
X109671428Y-76697676D01*
X109671428Y-76697676D02*
X109766666Y-76792914D01*
X109766666Y-76792914D02*
X109861904Y-76840533D01*
X108671428Y-76554819D02*
X108576190Y-76554819D01*
X108576190Y-76554819D02*
X108480952Y-76602438D01*
X108480952Y-76602438D02*
X108433333Y-76650057D01*
X108433333Y-76650057D02*
X108385714Y-76745295D01*
X108385714Y-76745295D02*
X108338095Y-76935771D01*
X108338095Y-76935771D02*
X108338095Y-77173866D01*
X108338095Y-77173866D02*
X108385714Y-77364342D01*
X108385714Y-77364342D02*
X108433333Y-77459580D01*
X108433333Y-77459580D02*
X108480952Y-77507200D01*
X108480952Y-77507200D02*
X108576190Y-77554819D01*
X108576190Y-77554819D02*
X108671428Y-77554819D01*
X108671428Y-77554819D02*
X108766666Y-77507200D01*
X108766666Y-77507200D02*
X108814285Y-77459580D01*
X108814285Y-77459580D02*
X108861904Y-77364342D01*
X108861904Y-77364342D02*
X108909523Y-77173866D01*
X108909523Y-77173866D02*
X108909523Y-76935771D01*
X108909523Y-76935771D02*
X108861904Y-76745295D01*
X108861904Y-76745295D02*
X108814285Y-76650057D01*
X108814285Y-76650057D02*
X108766666Y-76602438D01*
X108766666Y-76602438D02*
X108671428Y-76554819D01*
X113566666Y-76959580D02*
X113614285Y-77007200D01*
X113614285Y-77007200D02*
X113757142Y-77054819D01*
X113757142Y-77054819D02*
X113852380Y-77054819D01*
X113852380Y-77054819D02*
X113995237Y-77007200D01*
X113995237Y-77007200D02*
X114090475Y-76911961D01*
X114090475Y-76911961D02*
X114138094Y-76816723D01*
X114138094Y-76816723D02*
X114185713Y-76626247D01*
X114185713Y-76626247D02*
X114185713Y-76483390D01*
X114185713Y-76483390D02*
X114138094Y-76292914D01*
X114138094Y-76292914D02*
X114090475Y-76197676D01*
X114090475Y-76197676D02*
X113995237Y-76102438D01*
X113995237Y-76102438D02*
X113852380Y-76054819D01*
X113852380Y-76054819D02*
X113757142Y-76054819D01*
X113757142Y-76054819D02*
X113614285Y-76102438D01*
X113614285Y-76102438D02*
X113566666Y-76150057D01*
X112995237Y-76483390D02*
X113090475Y-76435771D01*
X113090475Y-76435771D02*
X113138094Y-76388152D01*
X113138094Y-76388152D02*
X113185713Y-76292914D01*
X113185713Y-76292914D02*
X113185713Y-76245295D01*
X113185713Y-76245295D02*
X113138094Y-76150057D01*
X113138094Y-76150057D02*
X113090475Y-76102438D01*
X113090475Y-76102438D02*
X112995237Y-76054819D01*
X112995237Y-76054819D02*
X112804761Y-76054819D01*
X112804761Y-76054819D02*
X112709523Y-76102438D01*
X112709523Y-76102438D02*
X112661904Y-76150057D01*
X112661904Y-76150057D02*
X112614285Y-76245295D01*
X112614285Y-76245295D02*
X112614285Y-76292914D01*
X112614285Y-76292914D02*
X112661904Y-76388152D01*
X112661904Y-76388152D02*
X112709523Y-76435771D01*
X112709523Y-76435771D02*
X112804761Y-76483390D01*
X112804761Y-76483390D02*
X112995237Y-76483390D01*
X112995237Y-76483390D02*
X113090475Y-76531009D01*
X113090475Y-76531009D02*
X113138094Y-76578628D01*
X113138094Y-76578628D02*
X113185713Y-76673866D01*
X113185713Y-76673866D02*
X113185713Y-76864342D01*
X113185713Y-76864342D02*
X113138094Y-76959580D01*
X113138094Y-76959580D02*
X113090475Y-77007200D01*
X113090475Y-77007200D02*
X112995237Y-77054819D01*
X112995237Y-77054819D02*
X112804761Y-77054819D01*
X112804761Y-77054819D02*
X112709523Y-77007200D01*
X112709523Y-77007200D02*
X112661904Y-76959580D01*
X112661904Y-76959580D02*
X112614285Y-76864342D01*
X112614285Y-76864342D02*
X112614285Y-76673866D01*
X112614285Y-76673866D02*
X112661904Y-76578628D01*
X112661904Y-76578628D02*
X112709523Y-76531009D01*
X112709523Y-76531009D02*
X112804761Y-76483390D01*
X131095238Y-73750057D02*
X131190476Y-73702438D01*
X131190476Y-73702438D02*
X131285714Y-73607200D01*
X131285714Y-73607200D02*
X131428571Y-73464342D01*
X131428571Y-73464342D02*
X131523809Y-73416723D01*
X131523809Y-73416723D02*
X131619047Y-73416723D01*
X131571428Y-73654819D02*
X131666666Y-73607200D01*
X131666666Y-73607200D02*
X131761904Y-73511961D01*
X131761904Y-73511961D02*
X131809523Y-73321485D01*
X131809523Y-73321485D02*
X131809523Y-72988152D01*
X131809523Y-72988152D02*
X131761904Y-72797676D01*
X131761904Y-72797676D02*
X131666666Y-72702438D01*
X131666666Y-72702438D02*
X131571428Y-72654819D01*
X131571428Y-72654819D02*
X131380952Y-72654819D01*
X131380952Y-72654819D02*
X131285714Y-72702438D01*
X131285714Y-72702438D02*
X131190476Y-72797676D01*
X131190476Y-72797676D02*
X131142857Y-72988152D01*
X131142857Y-72988152D02*
X131142857Y-73321485D01*
X131142857Y-73321485D02*
X131190476Y-73511961D01*
X131190476Y-73511961D02*
X131285714Y-73607200D01*
X131285714Y-73607200D02*
X131380952Y-73654819D01*
X131380952Y-73654819D02*
X131571428Y-73654819D01*
X130809523Y-72654819D02*
X130142857Y-72654819D01*
X130142857Y-72654819D02*
X130571428Y-73654819D01*
X119742857Y-80259580D02*
X119790476Y-80307200D01*
X119790476Y-80307200D02*
X119933333Y-80354819D01*
X119933333Y-80354819D02*
X120028571Y-80354819D01*
X120028571Y-80354819D02*
X120171428Y-80307200D01*
X120171428Y-80307200D02*
X120266666Y-80211961D01*
X120266666Y-80211961D02*
X120314285Y-80116723D01*
X120314285Y-80116723D02*
X120361904Y-79926247D01*
X120361904Y-79926247D02*
X120361904Y-79783390D01*
X120361904Y-79783390D02*
X120314285Y-79592914D01*
X120314285Y-79592914D02*
X120266666Y-79497676D01*
X120266666Y-79497676D02*
X120171428Y-79402438D01*
X120171428Y-79402438D02*
X120028571Y-79354819D01*
X120028571Y-79354819D02*
X119933333Y-79354819D01*
X119933333Y-79354819D02*
X119790476Y-79402438D01*
X119790476Y-79402438D02*
X119742857Y-79450057D01*
X119409523Y-79354819D02*
X118790476Y-79354819D01*
X118790476Y-79354819D02*
X119123809Y-79735771D01*
X119123809Y-79735771D02*
X118980952Y-79735771D01*
X118980952Y-79735771D02*
X118885714Y-79783390D01*
X118885714Y-79783390D02*
X118838095Y-79831009D01*
X118838095Y-79831009D02*
X118790476Y-79926247D01*
X118790476Y-79926247D02*
X118790476Y-80164342D01*
X118790476Y-80164342D02*
X118838095Y-80259580D01*
X118838095Y-80259580D02*
X118885714Y-80307200D01*
X118885714Y-80307200D02*
X118980952Y-80354819D01*
X118980952Y-80354819D02*
X119266666Y-80354819D01*
X119266666Y-80354819D02*
X119361904Y-80307200D01*
X119361904Y-80307200D02*
X119409523Y-80259580D01*
X118219047Y-79783390D02*
X118314285Y-79735771D01*
X118314285Y-79735771D02*
X118361904Y-79688152D01*
X118361904Y-79688152D02*
X118409523Y-79592914D01*
X118409523Y-79592914D02*
X118409523Y-79545295D01*
X118409523Y-79545295D02*
X118361904Y-79450057D01*
X118361904Y-79450057D02*
X118314285Y-79402438D01*
X118314285Y-79402438D02*
X118219047Y-79354819D01*
X118219047Y-79354819D02*
X118028571Y-79354819D01*
X118028571Y-79354819D02*
X117933333Y-79402438D01*
X117933333Y-79402438D02*
X117885714Y-79450057D01*
X117885714Y-79450057D02*
X117838095Y-79545295D01*
X117838095Y-79545295D02*
X117838095Y-79592914D01*
X117838095Y-79592914D02*
X117885714Y-79688152D01*
X117885714Y-79688152D02*
X117933333Y-79735771D01*
X117933333Y-79735771D02*
X118028571Y-79783390D01*
X118028571Y-79783390D02*
X118219047Y-79783390D01*
X118219047Y-79783390D02*
X118314285Y-79831009D01*
X118314285Y-79831009D02*
X118361904Y-79878628D01*
X118361904Y-79878628D02*
X118409523Y-79973866D01*
X118409523Y-79973866D02*
X118409523Y-80164342D01*
X118409523Y-80164342D02*
X118361904Y-80259580D01*
X118361904Y-80259580D02*
X118314285Y-80307200D01*
X118314285Y-80307200D02*
X118219047Y-80354819D01*
X118219047Y-80354819D02*
X118028571Y-80354819D01*
X118028571Y-80354819D02*
X117933333Y-80307200D01*
X117933333Y-80307200D02*
X117885714Y-80259580D01*
X117885714Y-80259580D02*
X117838095Y-80164342D01*
X117838095Y-80164342D02*
X117838095Y-79973866D01*
X117838095Y-79973866D02*
X117885714Y-79878628D01*
X117885714Y-79878628D02*
X117933333Y-79831009D01*
X117933333Y-79831009D02*
X118028571Y-79783390D01*
X66561904Y-53854819D02*
X66561904Y-54664342D01*
X66561904Y-54664342D02*
X66514285Y-54759580D01*
X66514285Y-54759580D02*
X66466666Y-54807200D01*
X66466666Y-54807200D02*
X66371428Y-54854819D01*
X66371428Y-54854819D02*
X66180952Y-54854819D01*
X66180952Y-54854819D02*
X66085714Y-54807200D01*
X66085714Y-54807200D02*
X66038095Y-54759580D01*
X66038095Y-54759580D02*
X65990476Y-54664342D01*
X65990476Y-54664342D02*
X65990476Y-53854819D01*
X65466666Y-54854819D02*
X65276190Y-54854819D01*
X65276190Y-54854819D02*
X65180952Y-54807200D01*
X65180952Y-54807200D02*
X65133333Y-54759580D01*
X65133333Y-54759580D02*
X65038095Y-54616723D01*
X65038095Y-54616723D02*
X64990476Y-54426247D01*
X64990476Y-54426247D02*
X64990476Y-54045295D01*
X64990476Y-54045295D02*
X65038095Y-53950057D01*
X65038095Y-53950057D02*
X65085714Y-53902438D01*
X65085714Y-53902438D02*
X65180952Y-53854819D01*
X65180952Y-53854819D02*
X65371428Y-53854819D01*
X65371428Y-53854819D02*
X65466666Y-53902438D01*
X65466666Y-53902438D02*
X65514285Y-53950057D01*
X65514285Y-53950057D02*
X65561904Y-54045295D01*
X65561904Y-54045295D02*
X65561904Y-54283390D01*
X65561904Y-54283390D02*
X65514285Y-54378628D01*
X65514285Y-54378628D02*
X65466666Y-54426247D01*
X65466666Y-54426247D02*
X65371428Y-54473866D01*
X65371428Y-54473866D02*
X65180952Y-54473866D01*
X65180952Y-54473866D02*
X65085714Y-54426247D01*
X65085714Y-54426247D02*
X65038095Y-54378628D01*
X65038095Y-54378628D02*
X64990476Y-54283390D01*
X96766666Y-57459580D02*
X96814285Y-57507200D01*
X96814285Y-57507200D02*
X96957142Y-57554819D01*
X96957142Y-57554819D02*
X97052380Y-57554819D01*
X97052380Y-57554819D02*
X97195237Y-57507200D01*
X97195237Y-57507200D02*
X97290475Y-57411961D01*
X97290475Y-57411961D02*
X97338094Y-57316723D01*
X97338094Y-57316723D02*
X97385713Y-57126247D01*
X97385713Y-57126247D02*
X97385713Y-56983390D01*
X97385713Y-56983390D02*
X97338094Y-56792914D01*
X97338094Y-56792914D02*
X97290475Y-56697676D01*
X97290475Y-56697676D02*
X97195237Y-56602438D01*
X97195237Y-56602438D02*
X97052380Y-56554819D01*
X97052380Y-56554819D02*
X96957142Y-56554819D01*
X96957142Y-56554819D02*
X96814285Y-56602438D01*
X96814285Y-56602438D02*
X96766666Y-56650057D01*
X95909523Y-56554819D02*
X96099999Y-56554819D01*
X96099999Y-56554819D02*
X96195237Y-56602438D01*
X96195237Y-56602438D02*
X96242856Y-56650057D01*
X96242856Y-56650057D02*
X96338094Y-56792914D01*
X96338094Y-56792914D02*
X96385713Y-56983390D01*
X96385713Y-56983390D02*
X96385713Y-57364342D01*
X96385713Y-57364342D02*
X96338094Y-57459580D01*
X96338094Y-57459580D02*
X96290475Y-57507200D01*
X96290475Y-57507200D02*
X96195237Y-57554819D01*
X96195237Y-57554819D02*
X96004761Y-57554819D01*
X96004761Y-57554819D02*
X95909523Y-57507200D01*
X95909523Y-57507200D02*
X95861904Y-57459580D01*
X95861904Y-57459580D02*
X95814285Y-57364342D01*
X95814285Y-57364342D02*
X95814285Y-57126247D01*
X95814285Y-57126247D02*
X95861904Y-57031009D01*
X95861904Y-57031009D02*
X95909523Y-56983390D01*
X95909523Y-56983390D02*
X96004761Y-56935771D01*
X96004761Y-56935771D02*
X96195237Y-56935771D01*
X96195237Y-56935771D02*
X96290475Y-56983390D01*
X96290475Y-56983390D02*
X96338094Y-57031009D01*
X96338094Y-57031009D02*
X96385713Y-57126247D01*
X119442857Y-41459580D02*
X119490476Y-41507200D01*
X119490476Y-41507200D02*
X119633333Y-41554819D01*
X119633333Y-41554819D02*
X119728571Y-41554819D01*
X119728571Y-41554819D02*
X119871428Y-41507200D01*
X119871428Y-41507200D02*
X119966666Y-41411961D01*
X119966666Y-41411961D02*
X120014285Y-41316723D01*
X120014285Y-41316723D02*
X120061904Y-41126247D01*
X120061904Y-41126247D02*
X120061904Y-40983390D01*
X120061904Y-40983390D02*
X120014285Y-40792914D01*
X120014285Y-40792914D02*
X119966666Y-40697676D01*
X119966666Y-40697676D02*
X119871428Y-40602438D01*
X119871428Y-40602438D02*
X119728571Y-40554819D01*
X119728571Y-40554819D02*
X119633333Y-40554819D01*
X119633333Y-40554819D02*
X119490476Y-40602438D01*
X119490476Y-40602438D02*
X119442857Y-40650057D01*
X118490476Y-41554819D02*
X119061904Y-41554819D01*
X118776190Y-41554819D02*
X118776190Y-40554819D01*
X118776190Y-40554819D02*
X118871428Y-40697676D01*
X118871428Y-40697676D02*
X118966666Y-40792914D01*
X118966666Y-40792914D02*
X119061904Y-40840533D01*
X118109523Y-40650057D02*
X118061904Y-40602438D01*
X118061904Y-40602438D02*
X117966666Y-40554819D01*
X117966666Y-40554819D02*
X117728571Y-40554819D01*
X117728571Y-40554819D02*
X117633333Y-40602438D01*
X117633333Y-40602438D02*
X117585714Y-40650057D01*
X117585714Y-40650057D02*
X117538095Y-40745295D01*
X117538095Y-40745295D02*
X117538095Y-40840533D01*
X117538095Y-40840533D02*
X117585714Y-40983390D01*
X117585714Y-40983390D02*
X118157142Y-41554819D01*
X118157142Y-41554819D02*
X117538095Y-41554819D01*
X135742857Y-80154819D02*
X136076190Y-79678628D01*
X136314285Y-80154819D02*
X136314285Y-79154819D01*
X136314285Y-79154819D02*
X135933333Y-79154819D01*
X135933333Y-79154819D02*
X135838095Y-79202438D01*
X135838095Y-79202438D02*
X135790476Y-79250057D01*
X135790476Y-79250057D02*
X135742857Y-79345295D01*
X135742857Y-79345295D02*
X135742857Y-79488152D01*
X135742857Y-79488152D02*
X135790476Y-79583390D01*
X135790476Y-79583390D02*
X135838095Y-79631009D01*
X135838095Y-79631009D02*
X135933333Y-79678628D01*
X135933333Y-79678628D02*
X136314285Y-79678628D01*
X134790476Y-80154819D02*
X135361904Y-80154819D01*
X135076190Y-80154819D02*
X135076190Y-79154819D01*
X135076190Y-79154819D02*
X135171428Y-79297676D01*
X135171428Y-79297676D02*
X135266666Y-79392914D01*
X135266666Y-79392914D02*
X135361904Y-79440533D01*
X134457142Y-79154819D02*
X133790476Y-79154819D01*
X133790476Y-79154819D02*
X134219047Y-80154819D01*
X131242857Y-77392319D02*
X131576190Y-76916128D01*
X131814285Y-77392319D02*
X131814285Y-76392319D01*
X131814285Y-76392319D02*
X131433333Y-76392319D01*
X131433333Y-76392319D02*
X131338095Y-76439938D01*
X131338095Y-76439938D02*
X131290476Y-76487557D01*
X131290476Y-76487557D02*
X131242857Y-76582795D01*
X131242857Y-76582795D02*
X131242857Y-76725652D01*
X131242857Y-76725652D02*
X131290476Y-76820890D01*
X131290476Y-76820890D02*
X131338095Y-76868509D01*
X131338095Y-76868509D02*
X131433333Y-76916128D01*
X131433333Y-76916128D02*
X131814285Y-76916128D01*
X130290476Y-77392319D02*
X130861904Y-77392319D01*
X130576190Y-77392319D02*
X130576190Y-76392319D01*
X130576190Y-76392319D02*
X130671428Y-76535176D01*
X130671428Y-76535176D02*
X130766666Y-76630414D01*
X130766666Y-76630414D02*
X130861904Y-76678033D01*
X129719047Y-76820890D02*
X129814285Y-76773271D01*
X129814285Y-76773271D02*
X129861904Y-76725652D01*
X129861904Y-76725652D02*
X129909523Y-76630414D01*
X129909523Y-76630414D02*
X129909523Y-76582795D01*
X129909523Y-76582795D02*
X129861904Y-76487557D01*
X129861904Y-76487557D02*
X129814285Y-76439938D01*
X129814285Y-76439938D02*
X129719047Y-76392319D01*
X129719047Y-76392319D02*
X129528571Y-76392319D01*
X129528571Y-76392319D02*
X129433333Y-76439938D01*
X129433333Y-76439938D02*
X129385714Y-76487557D01*
X129385714Y-76487557D02*
X129338095Y-76582795D01*
X129338095Y-76582795D02*
X129338095Y-76630414D01*
X129338095Y-76630414D02*
X129385714Y-76725652D01*
X129385714Y-76725652D02*
X129433333Y-76773271D01*
X129433333Y-76773271D02*
X129528571Y-76820890D01*
X129528571Y-76820890D02*
X129719047Y-76820890D01*
X129719047Y-76820890D02*
X129814285Y-76868509D01*
X129814285Y-76868509D02*
X129861904Y-76916128D01*
X129861904Y-76916128D02*
X129909523Y-77011366D01*
X129909523Y-77011366D02*
X129909523Y-77201842D01*
X129909523Y-77201842D02*
X129861904Y-77297080D01*
X129861904Y-77297080D02*
X129814285Y-77344700D01*
X129814285Y-77344700D02*
X129719047Y-77392319D01*
X129719047Y-77392319D02*
X129528571Y-77392319D01*
X129528571Y-77392319D02*
X129433333Y-77344700D01*
X129433333Y-77344700D02*
X129385714Y-77297080D01*
X129385714Y-77297080D02*
X129338095Y-77201842D01*
X129338095Y-77201842D02*
X129338095Y-77011366D01*
X129338095Y-77011366D02*
X129385714Y-76916128D01*
X129385714Y-76916128D02*
X129433333Y-76868509D01*
X129433333Y-76868509D02*
X129528571Y-76820890D01*
X78322857Y-62959580D02*
X78370476Y-63007200D01*
X78370476Y-63007200D02*
X78513333Y-63054819D01*
X78513333Y-63054819D02*
X78608571Y-63054819D01*
X78608571Y-63054819D02*
X78751428Y-63007200D01*
X78751428Y-63007200D02*
X78846666Y-62911961D01*
X78846666Y-62911961D02*
X78894285Y-62816723D01*
X78894285Y-62816723D02*
X78941904Y-62626247D01*
X78941904Y-62626247D02*
X78941904Y-62483390D01*
X78941904Y-62483390D02*
X78894285Y-62292914D01*
X78894285Y-62292914D02*
X78846666Y-62197676D01*
X78846666Y-62197676D02*
X78751428Y-62102438D01*
X78751428Y-62102438D02*
X78608571Y-62054819D01*
X78608571Y-62054819D02*
X78513333Y-62054819D01*
X78513333Y-62054819D02*
X78370476Y-62102438D01*
X78370476Y-62102438D02*
X78322857Y-62150057D01*
X77989523Y-62054819D02*
X77370476Y-62054819D01*
X77370476Y-62054819D02*
X77703809Y-62435771D01*
X77703809Y-62435771D02*
X77560952Y-62435771D01*
X77560952Y-62435771D02*
X77465714Y-62483390D01*
X77465714Y-62483390D02*
X77418095Y-62531009D01*
X77418095Y-62531009D02*
X77370476Y-62626247D01*
X77370476Y-62626247D02*
X77370476Y-62864342D01*
X77370476Y-62864342D02*
X77418095Y-62959580D01*
X77418095Y-62959580D02*
X77465714Y-63007200D01*
X77465714Y-63007200D02*
X77560952Y-63054819D01*
X77560952Y-63054819D02*
X77846666Y-63054819D01*
X77846666Y-63054819D02*
X77941904Y-63007200D01*
X77941904Y-63007200D02*
X77989523Y-62959580D01*
X76418095Y-63054819D02*
X76989523Y-63054819D01*
X76703809Y-63054819D02*
X76703809Y-62054819D01*
X76703809Y-62054819D02*
X76799047Y-62197676D01*
X76799047Y-62197676D02*
X76894285Y-62292914D01*
X76894285Y-62292914D02*
X76989523Y-62340533D01*
X63061904Y-49554819D02*
X62490476Y-49554819D01*
X62776190Y-50554819D02*
X62776190Y-49554819D01*
X62157142Y-50554819D02*
X62157142Y-49554819D01*
X62157142Y-49554819D02*
X61776190Y-49554819D01*
X61776190Y-49554819D02*
X61680952Y-49602438D01*
X61680952Y-49602438D02*
X61633333Y-49650057D01*
X61633333Y-49650057D02*
X61585714Y-49745295D01*
X61585714Y-49745295D02*
X61585714Y-49888152D01*
X61585714Y-49888152D02*
X61633333Y-49983390D01*
X61633333Y-49983390D02*
X61680952Y-50031009D01*
X61680952Y-50031009D02*
X61776190Y-50078628D01*
X61776190Y-50078628D02*
X62157142Y-50078628D01*
X60680952Y-49554819D02*
X61157142Y-49554819D01*
X61157142Y-49554819D02*
X61204761Y-50031009D01*
X61204761Y-50031009D02*
X61157142Y-49983390D01*
X61157142Y-49983390D02*
X61061904Y-49935771D01*
X61061904Y-49935771D02*
X60823809Y-49935771D01*
X60823809Y-49935771D02*
X60728571Y-49983390D01*
X60728571Y-49983390D02*
X60680952Y-50031009D01*
X60680952Y-50031009D02*
X60633333Y-50126247D01*
X60633333Y-50126247D02*
X60633333Y-50364342D01*
X60633333Y-50364342D02*
X60680952Y-50459580D01*
X60680952Y-50459580D02*
X60728571Y-50507200D01*
X60728571Y-50507200D02*
X60823809Y-50554819D01*
X60823809Y-50554819D02*
X61061904Y-50554819D01*
X61061904Y-50554819D02*
X61157142Y-50507200D01*
X61157142Y-50507200D02*
X61204761Y-50459580D01*
X63038094Y-50954819D02*
X62419047Y-50954819D01*
X62419047Y-50954819D02*
X62752380Y-51335771D01*
X62752380Y-51335771D02*
X62609523Y-51335771D01*
X62609523Y-51335771D02*
X62514285Y-51383390D01*
X62514285Y-51383390D02*
X62466666Y-51431009D01*
X62466666Y-51431009D02*
X62419047Y-51526247D01*
X62419047Y-51526247D02*
X62419047Y-51764342D01*
X62419047Y-51764342D02*
X62466666Y-51859580D01*
X62466666Y-51859580D02*
X62514285Y-51907200D01*
X62514285Y-51907200D02*
X62609523Y-51954819D01*
X62609523Y-51954819D02*
X62895237Y-51954819D01*
X62895237Y-51954819D02*
X62990475Y-51907200D01*
X62990475Y-51907200D02*
X63038094Y-51859580D01*
X62133332Y-50954819D02*
X61799999Y-51954819D01*
X61799999Y-51954819D02*
X61466666Y-50954819D01*
X61228570Y-50954819D02*
X60609523Y-50954819D01*
X60609523Y-50954819D02*
X60942856Y-51335771D01*
X60942856Y-51335771D02*
X60799999Y-51335771D01*
X60799999Y-51335771D02*
X60704761Y-51383390D01*
X60704761Y-51383390D02*
X60657142Y-51431009D01*
X60657142Y-51431009D02*
X60609523Y-51526247D01*
X60609523Y-51526247D02*
X60609523Y-51764342D01*
X60609523Y-51764342D02*
X60657142Y-51859580D01*
X60657142Y-51859580D02*
X60704761Y-51907200D01*
X60704761Y-51907200D02*
X60799999Y-51954819D01*
X60799999Y-51954819D02*
X61085713Y-51954819D01*
X61085713Y-51954819D02*
X61180951Y-51907200D01*
X61180951Y-51907200D02*
X61228570Y-51859580D01*
X135842857Y-47754819D02*
X136176190Y-47278628D01*
X136414285Y-47754819D02*
X136414285Y-46754819D01*
X136414285Y-46754819D02*
X136033333Y-46754819D01*
X136033333Y-46754819D02*
X135938095Y-46802438D01*
X135938095Y-46802438D02*
X135890476Y-46850057D01*
X135890476Y-46850057D02*
X135842857Y-46945295D01*
X135842857Y-46945295D02*
X135842857Y-47088152D01*
X135842857Y-47088152D02*
X135890476Y-47183390D01*
X135890476Y-47183390D02*
X135938095Y-47231009D01*
X135938095Y-47231009D02*
X136033333Y-47278628D01*
X136033333Y-47278628D02*
X136414285Y-47278628D01*
X135461904Y-46850057D02*
X135414285Y-46802438D01*
X135414285Y-46802438D02*
X135319047Y-46754819D01*
X135319047Y-46754819D02*
X135080952Y-46754819D01*
X135080952Y-46754819D02*
X134985714Y-46802438D01*
X134985714Y-46802438D02*
X134938095Y-46850057D01*
X134938095Y-46850057D02*
X134890476Y-46945295D01*
X134890476Y-46945295D02*
X134890476Y-47040533D01*
X134890476Y-47040533D02*
X134938095Y-47183390D01*
X134938095Y-47183390D02*
X135509523Y-47754819D01*
X135509523Y-47754819D02*
X134890476Y-47754819D01*
X134271428Y-46754819D02*
X134176190Y-46754819D01*
X134176190Y-46754819D02*
X134080952Y-46802438D01*
X134080952Y-46802438D02*
X134033333Y-46850057D01*
X134033333Y-46850057D02*
X133985714Y-46945295D01*
X133985714Y-46945295D02*
X133938095Y-47135771D01*
X133938095Y-47135771D02*
X133938095Y-47373866D01*
X133938095Y-47373866D02*
X133985714Y-47564342D01*
X133985714Y-47564342D02*
X134033333Y-47659580D01*
X134033333Y-47659580D02*
X134080952Y-47707200D01*
X134080952Y-47707200D02*
X134176190Y-47754819D01*
X134176190Y-47754819D02*
X134271428Y-47754819D01*
X134271428Y-47754819D02*
X134366666Y-47707200D01*
X134366666Y-47707200D02*
X134414285Y-47659580D01*
X134414285Y-47659580D02*
X134461904Y-47564342D01*
X134461904Y-47564342D02*
X134509523Y-47373866D01*
X134509523Y-47373866D02*
X134509523Y-47135771D01*
X134509523Y-47135771D02*
X134461904Y-46945295D01*
X134461904Y-46945295D02*
X134414285Y-46850057D01*
X134414285Y-46850057D02*
X134366666Y-46802438D01*
X134366666Y-46802438D02*
X134271428Y-46754819D01*
X117743272Y-50098972D02*
X117790891Y-50146592D01*
X117790891Y-50146592D02*
X117933748Y-50194211D01*
X117933748Y-50194211D02*
X118028986Y-50194211D01*
X118028986Y-50194211D02*
X118171843Y-50146592D01*
X118171843Y-50146592D02*
X118267081Y-50051353D01*
X118267081Y-50051353D02*
X118314700Y-49956115D01*
X118314700Y-49956115D02*
X118362319Y-49765639D01*
X118362319Y-49765639D02*
X118362319Y-49622782D01*
X118362319Y-49622782D02*
X118314700Y-49432306D01*
X118314700Y-49432306D02*
X118267081Y-49337068D01*
X118267081Y-49337068D02*
X118171843Y-49241830D01*
X118171843Y-49241830D02*
X118028986Y-49194211D01*
X118028986Y-49194211D02*
X117933748Y-49194211D01*
X117933748Y-49194211D02*
X117790891Y-49241830D01*
X117790891Y-49241830D02*
X117743272Y-49289449D01*
X117362319Y-49289449D02*
X117314700Y-49241830D01*
X117314700Y-49241830D02*
X117219462Y-49194211D01*
X117219462Y-49194211D02*
X116981367Y-49194211D01*
X116981367Y-49194211D02*
X116886129Y-49241830D01*
X116886129Y-49241830D02*
X116838510Y-49289449D01*
X116838510Y-49289449D02*
X116790891Y-49384687D01*
X116790891Y-49384687D02*
X116790891Y-49479925D01*
X116790891Y-49479925D02*
X116838510Y-49622782D01*
X116838510Y-49622782D02*
X117409938Y-50194211D01*
X117409938Y-50194211D02*
X116790891Y-50194211D01*
X116409938Y-49289449D02*
X116362319Y-49241830D01*
X116362319Y-49241830D02*
X116267081Y-49194211D01*
X116267081Y-49194211D02*
X116028986Y-49194211D01*
X116028986Y-49194211D02*
X115933748Y-49241830D01*
X115933748Y-49241830D02*
X115886129Y-49289449D01*
X115886129Y-49289449D02*
X115838510Y-49384687D01*
X115838510Y-49384687D02*
X115838510Y-49479925D01*
X115838510Y-49479925D02*
X115886129Y-49622782D01*
X115886129Y-49622782D02*
X116457557Y-50194211D01*
X116457557Y-50194211D02*
X115838510Y-50194211D01*
X111242857Y-43959580D02*
X111290476Y-44007200D01*
X111290476Y-44007200D02*
X111433333Y-44054819D01*
X111433333Y-44054819D02*
X111528571Y-44054819D01*
X111528571Y-44054819D02*
X111671428Y-44007200D01*
X111671428Y-44007200D02*
X111766666Y-43911961D01*
X111766666Y-43911961D02*
X111814285Y-43816723D01*
X111814285Y-43816723D02*
X111861904Y-43626247D01*
X111861904Y-43626247D02*
X111861904Y-43483390D01*
X111861904Y-43483390D02*
X111814285Y-43292914D01*
X111814285Y-43292914D02*
X111766666Y-43197676D01*
X111766666Y-43197676D02*
X111671428Y-43102438D01*
X111671428Y-43102438D02*
X111528571Y-43054819D01*
X111528571Y-43054819D02*
X111433333Y-43054819D01*
X111433333Y-43054819D02*
X111290476Y-43102438D01*
X111290476Y-43102438D02*
X111242857Y-43150057D01*
X110909523Y-43054819D02*
X110290476Y-43054819D01*
X110290476Y-43054819D02*
X110623809Y-43435771D01*
X110623809Y-43435771D02*
X110480952Y-43435771D01*
X110480952Y-43435771D02*
X110385714Y-43483390D01*
X110385714Y-43483390D02*
X110338095Y-43531009D01*
X110338095Y-43531009D02*
X110290476Y-43626247D01*
X110290476Y-43626247D02*
X110290476Y-43864342D01*
X110290476Y-43864342D02*
X110338095Y-43959580D01*
X110338095Y-43959580D02*
X110385714Y-44007200D01*
X110385714Y-44007200D02*
X110480952Y-44054819D01*
X110480952Y-44054819D02*
X110766666Y-44054819D01*
X110766666Y-44054819D02*
X110861904Y-44007200D01*
X110861904Y-44007200D02*
X110909523Y-43959580D01*
X109433333Y-43054819D02*
X109623809Y-43054819D01*
X109623809Y-43054819D02*
X109719047Y-43102438D01*
X109719047Y-43102438D02*
X109766666Y-43150057D01*
X109766666Y-43150057D02*
X109861904Y-43292914D01*
X109861904Y-43292914D02*
X109909523Y-43483390D01*
X109909523Y-43483390D02*
X109909523Y-43864342D01*
X109909523Y-43864342D02*
X109861904Y-43959580D01*
X109861904Y-43959580D02*
X109814285Y-44007200D01*
X109814285Y-44007200D02*
X109719047Y-44054819D01*
X109719047Y-44054819D02*
X109528571Y-44054819D01*
X109528571Y-44054819D02*
X109433333Y-44007200D01*
X109433333Y-44007200D02*
X109385714Y-43959580D01*
X109385714Y-43959580D02*
X109338095Y-43864342D01*
X109338095Y-43864342D02*
X109338095Y-43626247D01*
X109338095Y-43626247D02*
X109385714Y-43531009D01*
X109385714Y-43531009D02*
X109433333Y-43483390D01*
X109433333Y-43483390D02*
X109528571Y-43435771D01*
X109528571Y-43435771D02*
X109719047Y-43435771D01*
X109719047Y-43435771D02*
X109814285Y-43483390D01*
X109814285Y-43483390D02*
X109861904Y-43531009D01*
X109861904Y-43531009D02*
X109909523Y-43626247D01*
X69938094Y-62054819D02*
X69938094Y-61054819D01*
X69938094Y-61054819D02*
X69699999Y-61054819D01*
X69699999Y-61054819D02*
X69557142Y-61102438D01*
X69557142Y-61102438D02*
X69461904Y-61197676D01*
X69461904Y-61197676D02*
X69414285Y-61292914D01*
X69414285Y-61292914D02*
X69366666Y-61483390D01*
X69366666Y-61483390D02*
X69366666Y-61626247D01*
X69366666Y-61626247D02*
X69414285Y-61816723D01*
X69414285Y-61816723D02*
X69461904Y-61911961D01*
X69461904Y-61911961D02*
X69557142Y-62007200D01*
X69557142Y-62007200D02*
X69699999Y-62054819D01*
X69699999Y-62054819D02*
X69938094Y-62054819D01*
X68509523Y-61388152D02*
X68509523Y-62054819D01*
X68747618Y-61007200D02*
X68985713Y-61721485D01*
X68985713Y-61721485D02*
X68366666Y-61721485D01*
D11*
%TO.C,C11*%
X110515000Y-79459421D02*
X110515000Y-79740581D01*
X111535000Y-79459421D02*
X111535000Y-79740581D01*
%TO.C,R23*%
X72285000Y-62272936D02*
X72285000Y-62727064D01*
X73755000Y-62272936D02*
X73755000Y-62727064D01*
%TO.C,C13*%
X67440000Y-43011252D02*
X67440000Y-41588748D01*
X70160000Y-43011252D02*
X70160000Y-41588748D01*
%TO.C,C18*%
X64559420Y-45590000D02*
X64840580Y-45590000D01*
X64559420Y-46610000D02*
X64840580Y-46610000D01*
%TO.C,R14*%
X122265415Y-52396456D02*
X122265415Y-51942328D01*
X123735415Y-52396456D02*
X123735415Y-51942328D01*
%TO.C,C45*%
X124459420Y-75490000D02*
X124740580Y-75490000D01*
X124459420Y-76510000D02*
X124740580Y-76510000D01*
%TO.C,R7*%
X117665000Y-44627064D02*
X117665000Y-44172936D01*
X119135000Y-44627064D02*
X119135000Y-44172936D01*
%TO.C,D6*%
X124290000Y-45350000D02*
X124290000Y-48650000D01*
X129800000Y-45350000D02*
X124290000Y-45350000D01*
X129800000Y-48650000D02*
X124290000Y-48650000D01*
%TO.C,D7*%
X123940000Y-40650000D02*
X123940000Y-44950000D01*
X129750000Y-40650000D02*
X123940000Y-40650000D01*
X129750000Y-44950000D02*
X123940000Y-44950000D01*
%TO.C,R13*%
X120065415Y-52396456D02*
X120065415Y-51942328D01*
X121535415Y-52396456D02*
X121535415Y-51942328D01*
%TO.C,U12*%
X122850000Y-77040000D02*
X124800000Y-77040000D01*
X122850000Y-82160000D02*
X124800000Y-82160000D01*
X126750000Y-77040000D02*
X124800000Y-77040000D01*
X126750000Y-82160000D02*
X124800000Y-82160000D01*
X127500000Y-77135000D02*
X127260000Y-76805000D01*
X127740000Y-76805000D01*
X127500000Y-77135000D01*
G36*
X127500000Y-77135000D02*
G01*
X127260000Y-76805000D01*
X127740000Y-76805000D01*
X127500000Y-77135000D01*
G37*
%TO.C,U4*%
X63140000Y-41650000D02*
X63140000Y-42300000D01*
X63140000Y-42950000D02*
X63140000Y-42300000D01*
X66260000Y-41650000D02*
X66260000Y-42300000D01*
X66260000Y-42950000D02*
X66260000Y-42300000D01*
X66540000Y-43702500D02*
X66210000Y-43462500D01*
X66540000Y-43222500D01*
X66540000Y-43702500D01*
G36*
X66540000Y-43702500D02*
G01*
X66210000Y-43462500D01*
X66540000Y-43222500D01*
X66540000Y-43702500D01*
G37*
%TO.C,C44*%
X94240000Y-80111252D02*
X94240000Y-78688748D01*
X96960000Y-80111252D02*
X96960000Y-78688748D01*
%TO.C,C5*%
X91090580Y-56590000D02*
X90809420Y-56590000D01*
X91090580Y-57610000D02*
X90809420Y-57610000D01*
%TO.C,C42*%
X74840580Y-51090000D02*
X74559420Y-51090000D01*
X74840580Y-52110000D02*
X74559420Y-52110000D01*
%TO.C,C41*%
X115990000Y-77740580D02*
X115990000Y-77459420D01*
X117010000Y-77740580D02*
X117010000Y-77459420D01*
%TO.C,U10*%
X65000000Y-47840000D02*
X65800000Y-47840000D01*
X65000000Y-50960000D02*
X65800000Y-50960000D01*
X66600000Y-47840000D02*
X65800000Y-47840000D01*
X66600000Y-50960000D02*
X65800000Y-50960000D01*
X64740000Y-51240000D02*
X64260000Y-51240000D01*
X64500000Y-50910000D01*
X64740000Y-51240000D01*
G36*
X64740000Y-51240000D02*
G01*
X64260000Y-51240000D01*
X64500000Y-50910000D01*
X64740000Y-51240000D01*
G37*
%TO.C,C9*%
X66059420Y-75490000D02*
X66340580Y-75490000D01*
X66059420Y-76510000D02*
X66340580Y-76510000D01*
%TO.C,C28*%
X66390000Y-60240580D02*
X66390000Y-59959420D01*
X67410000Y-60240580D02*
X67410000Y-59959420D01*
%TO.C,C29*%
X71590000Y-56740580D02*
X71590000Y-56459420D01*
X72610000Y-56740580D02*
X72610000Y-56459420D01*
%TO.C,R12*%
X115165415Y-53942328D02*
X115165415Y-54396456D01*
X116635415Y-53942328D02*
X116635415Y-54396456D01*
%TO.C,C10*%
X108690000Y-79740580D02*
X108690000Y-79459420D01*
X109710000Y-79740580D02*
X109710000Y-79459420D01*
%TO.C,C8*%
X112240000Y-80311252D02*
X112240000Y-78888748D01*
X114960000Y-80311252D02*
X114960000Y-78888748D01*
%TO.C,Q7*%
X132640000Y-72350000D02*
X132640000Y-73000000D01*
X132640000Y-73650000D02*
X132640000Y-73000000D01*
X135760000Y-72350000D02*
X135760000Y-73000000D01*
X135760000Y-73650000D02*
X135760000Y-73000000D01*
X136040000Y-74402500D02*
X135710000Y-74162500D01*
X136040000Y-73922500D01*
X136040000Y-74402500D01*
G36*
X136040000Y-74402500D02*
G01*
X135710000Y-74162500D01*
X136040000Y-73922500D01*
X136040000Y-74402500D01*
G37*
%TO.C,C38*%
X117690000Y-77740580D02*
X117690000Y-77459420D01*
X118710000Y-77740580D02*
X118710000Y-77459420D01*
%TO.C,U9*%
X65000000Y-55240000D02*
X65800000Y-55240000D01*
X65000000Y-58360000D02*
X65800000Y-58360000D01*
X66600000Y-55240000D02*
X65800000Y-55240000D01*
X66600000Y-58360000D02*
X65800000Y-58360000D01*
X64740000Y-58640000D02*
X64260000Y-58640000D01*
X64500000Y-58310000D01*
X64740000Y-58640000D01*
G36*
X64740000Y-58640000D02*
G01*
X64260000Y-58640000D01*
X64500000Y-58310000D01*
X64740000Y-58640000D01*
G37*
%TO.C,C6*%
X93909420Y-56590000D02*
X94190580Y-56590000D01*
X93909420Y-57610000D02*
X94190580Y-57610000D01*
%TO.C,C12*%
X115690000Y-42340580D02*
X115690000Y-42059420D01*
X116710000Y-42340580D02*
X116710000Y-42059420D01*
%TO.C,R17*%
X134415000Y-77164564D02*
X134415000Y-76710436D01*
X135885000Y-77164564D02*
X135885000Y-76710436D01*
%TO.C,R18*%
X132415000Y-77164564D02*
X132415000Y-76710436D01*
X133885000Y-77164564D02*
X133885000Y-76710436D01*
%TO.C,C31*%
X74990000Y-62459420D02*
X74990000Y-62740580D01*
X76010000Y-62459420D02*
X76010000Y-62740580D01*
%TO.C,TP5*%
X62500000Y-48000000D02*
G75*
G02*
X61100000Y-48000000I-700000J0D01*
G01*
X61100000Y-48000000D02*
G75*
G02*
X62500000Y-48000000I700000J0D01*
G01*
%TO.C,R20*%
X135065000Y-44627064D02*
X135065000Y-44172936D01*
X136535000Y-44627064D02*
X136535000Y-44172936D01*
%TO.C,C22*%
X116959835Y-50659392D02*
X117240995Y-50659392D01*
X116959835Y-51679392D02*
X117240995Y-51679392D01*
%TO.C,C36*%
X112290000Y-43740580D02*
X112290000Y-43459420D01*
X113310000Y-43740580D02*
X113310000Y-43459420D01*
%TO.C,D4*%
X68150000Y-62450000D02*
X70810000Y-62450000D01*
X68150000Y-64150000D02*
X70810000Y-64150000D01*
X70810000Y-64150000D02*
X70810000Y-62450000D01*
%TD*%
M02*
