%TF.GenerationSoftware,KiCad,Pcbnew,8.0.2-8.0.2-0~ubuntu22.04.1*%
%TF.CreationDate,2024-05-11T00:12:29+03:00*%
%TF.ProjectId,outdoor-module,6f757464-6f6f-4722-9d6d-6f64756c652e,rev?*%
%TF.SameCoordinates,Original*%
%TF.FileFunction,Copper,L2,Inr*%
%TF.FilePolarity,Positive*%
%FSLAX46Y46*%
G04 Gerber Fmt 4.6, Leading zero omitted, Abs format (unit mm)*
G04 Created by KiCad (PCBNEW 8.0.2-8.0.2-0~ubuntu22.04.1) date 2024-05-11 00:12:29*
%MOMM*%
%LPD*%
G01*
G04 APERTURE LIST*
G04 Aperture macros list*
%AMRoundRect*
0 Rectangle with rounded corners*
0 $1 Rounding radius*
0 $2 $3 $4 $5 $6 $7 $8 $9 X,Y pos of 4 corners*
0 Add a 4 corners polygon primitive as box body*
4,1,4,$2,$3,$4,$5,$6,$7,$8,$9,$2,$3,0*
0 Add four circle primitives for the rounded corners*
1,1,$1+$1,$2,$3*
1,1,$1+$1,$4,$5*
1,1,$1+$1,$6,$7*
1,1,$1+$1,$8,$9*
0 Add four rect primitives between the rounded corners*
20,1,$1+$1,$2,$3,$4,$5,0*
20,1,$1+$1,$4,$5,$6,$7,0*
20,1,$1+$1,$6,$7,$8,$9,0*
20,1,$1+$1,$8,$9,$2,$3,0*%
G04 Aperture macros list end*
%TA.AperFunction,ComponentPad*%
%ADD10C,1.500000*%
%TD*%
%TA.AperFunction,ComponentPad*%
%ADD11C,1.524000*%
%TD*%
%TA.AperFunction,ComponentPad*%
%ADD12R,1.800000X1.800000*%
%TD*%
%TA.AperFunction,ComponentPad*%
%ADD13C,1.800000*%
%TD*%
%TA.AperFunction,ComponentPad*%
%ADD14R,1.700000X1.700000*%
%TD*%
%TA.AperFunction,ComponentPad*%
%ADD15O,1.700000X1.700000*%
%TD*%
%TA.AperFunction,ComponentPad*%
%ADD16R,1.600000X1.600000*%
%TD*%
%TA.AperFunction,ComponentPad*%
%ADD17C,1.600000*%
%TD*%
%TA.AperFunction,ComponentPad*%
%ADD18R,1.560000X1.560000*%
%TD*%
%TA.AperFunction,ComponentPad*%
%ADD19C,1.560000*%
%TD*%
%TA.AperFunction,ComponentPad*%
%ADD20C,2.000000*%
%TD*%
%TA.AperFunction,HeatsinkPad*%
%ADD21C,0.500000*%
%TD*%
%TA.AperFunction,ComponentPad*%
%ADD22RoundRect,0.250000X0.750000X-0.600000X0.750000X0.600000X-0.750000X0.600000X-0.750000X-0.600000X0*%
%TD*%
%TA.AperFunction,ComponentPad*%
%ADD23O,2.000000X1.700000*%
%TD*%
%TA.AperFunction,ViaPad*%
%ADD24C,0.800000*%
%TD*%
%TA.AperFunction,Conductor*%
%ADD25C,0.500000*%
%TD*%
%TA.AperFunction,Conductor*%
%ADD26C,1.000000*%
%TD*%
%TA.AperFunction,Conductor*%
%ADD27C,2.000000*%
%TD*%
%TA.AperFunction,Conductor*%
%ADD28C,0.300000*%
%TD*%
%TA.AperFunction,Conductor*%
%ADD29C,0.200000*%
%TD*%
G04 APERTURE END LIST*
D10*
%TO.N,Net-(U1-XTAL2{slash}PB7)*%
%TO.C,X1*%
X94800000Y-59100000D03*
%TO.N,Net-(U1-XTAL1{slash}PB6)*%
X89920000Y-59100000D03*
%TD*%
D11*
%TO.N,GNDA*%
%TO.C,TP2*%
X107900000Y-42100000D03*
%TD*%
D12*
%TO.N,Net-(D1-A1)*%
%TO.C,D1*%
X63700000Y-64050000D03*
D13*
%TO.N,Net-(D1-K)*%
X63700000Y-66590000D03*
%TO.N,Net-(D1-A2)*%
X63700000Y-69130000D03*
%TD*%
D14*
%TO.N,/MOSI*%
%TO.C,J2*%
X102075000Y-52775000D03*
D15*
%TO.N,+5V*%
X99535000Y-52775000D03*
%TO.N,unconnected-(J2-Pin_3-Pad3)*%
X102075000Y-50235000D03*
%TO.N,/RXD*%
X99535000Y-50235000D03*
%TO.N,/RESET#*%
X102075000Y-47695000D03*
%TO.N,/TXD*%
X99535000Y-47695000D03*
%TO.N,/SCK*%
X102075000Y-45155000D03*
%TO.N,GNDA*%
X99535000Y-45155000D03*
%TO.N,/MISO*%
X102075000Y-42615000D03*
%TO.N,GNDA*%
X99535000Y-42615000D03*
%TD*%
D16*
%TO.N,/VBAT*%
%TO.C,C7*%
X107200000Y-78017621D03*
D17*
%TO.N,GNDA*%
X107200000Y-80517621D03*
%TD*%
D18*
%TO.N,/NOISE*%
%TO.C,RV3*%
X69380000Y-51000000D03*
D19*
%TO.N,Net-(U10-Vin-)*%
X74380000Y-48500000D03*
%TO.N,GNDA*%
X69380000Y-46000000D03*
%TD*%
D16*
%TO.N,/VBAT*%
%TO.C,C3*%
X98600000Y-78017621D03*
D17*
%TO.N,GNDPWR*%
X98600000Y-80517621D03*
%TD*%
D20*
%TO.N,/FM_OUT*%
%TO.C,U2*%
X69740000Y-78000000D03*
%TO.N,+5V*%
X67200000Y-78000000D03*
%TO.N,GNDA*%
X64660000Y-78000000D03*
%TD*%
D18*
%TO.N,+5V*%
%TO.C,RV1*%
X69360000Y-58300000D03*
D19*
%TO.N,Net-(U9-Vin-)*%
X74360000Y-55800000D03*
%TO.N,GNDA*%
X69360000Y-53300000D03*
%TD*%
D17*
%TO.N,/CHARGER_SUPPLY*%
%TO.C,RV2*%
X114250000Y-41300000D03*
%TO.N,GNDPWR*%
X112150000Y-46300000D03*
%TD*%
D21*
%TO.N,GNDPWR*%
%TO.C,U8*%
X121850000Y-64100000D03*
X120800000Y-64100000D03*
X119750000Y-64100000D03*
X121850000Y-65150000D03*
X120800000Y-65150000D03*
X119750000Y-65150000D03*
X121850000Y-66200000D03*
X120800000Y-66200000D03*
X119750000Y-66200000D03*
%TD*%
D14*
%TO.N,GNDPWR*%
%TO.C,J1*%
X80975000Y-80450000D03*
D15*
%TO.N,Net-(J1-Pin_2)*%
X80975000Y-77910000D03*
%TD*%
D22*
%TO.N,GNDPWR*%
%TO.C,J3*%
X133075000Y-45650000D03*
D23*
%TO.N,Net-(D6-A1)*%
X133075000Y-43150000D03*
%TD*%
D24*
%TO.N,+5V*%
X63300000Y-59900000D03*
X125400000Y-74400000D03*
X68800000Y-40800000D03*
X72950560Y-64987500D03*
X91000000Y-54900000D03*
X81100000Y-66800000D03*
X82400000Y-50400000D03*
X116900000Y-60350000D03*
X73900000Y-51600000D03*
X73050560Y-68687500D03*
%TO.N,GNDA*%
X123000000Y-67200000D03*
X108200000Y-61112500D03*
X71200000Y-40400000D03*
X66200000Y-72600000D03*
X106500000Y-66700000D03*
X124000000Y-57000000D03*
X90000000Y-48000000D03*
X117000000Y-80200000D03*
X78800000Y-49200000D03*
X88800000Y-66800000D03*
%TO.N,Net-(U8-ILIM)*%
X124800000Y-66000000D03*
X123326256Y-68404425D03*
%TO.N,GNDPWR*%
X135300000Y-53050000D03*
X124800000Y-67550000D03*
X126000000Y-71700000D03*
X126800000Y-71700000D03*
%TO.N,/RESET#*%
X84200000Y-48300000D03*
%TO.N,+3V3*%
X61300000Y-41900000D03*
%TO.N,Net-(Q4-G)*%
X114300415Y-52269392D03*
X118600000Y-57400000D03*
%TO.N,Net-(Q3-S)*%
X118500415Y-49869392D03*
%TO.N,/VSYS*%
X132325000Y-59200000D03*
X89968750Y-71668750D03*
%TO.N,/NOISE_ALARM*%
X73020000Y-63250500D03*
%TO.N,Net-(Q5-S)*%
X124800000Y-63550000D03*
X126825000Y-67450000D03*
%TO.N,/CHARGER_BATSRC*%
X133200000Y-74400000D03*
X133200000Y-73400000D03*
X118200000Y-76800000D03*
%TO.N,/VBAT*%
X114700000Y-76500000D03*
%TO.N,/RXD*%
X89100000Y-49600000D03*
%TO.N,/TXD*%
X87819622Y-49419622D03*
%TO.N,Net-(Q3-G)*%
X110800415Y-55069392D03*
%TO.N,/SDA*%
X114578063Y-64666487D03*
X83395892Y-46000000D03*
X129800000Y-79000000D03*
X82800000Y-42800000D03*
%TO.N,/SCL*%
X80600000Y-42800000D03*
X114400000Y-65650000D03*
X129800000Y-80000000D03*
X82900000Y-47100000D03*
%TO.N,/CHARGER_SRP*%
X116900000Y-74000000D03*
X122000000Y-72600000D03*
%TO.N,Net-(U8-VCC)*%
X122900000Y-60600000D03*
X107800000Y-67600000D03*
%TO.N,Net-(U10-Vin+)*%
X64700000Y-47487500D03*
%TO.N,Net-(U8-ACDRV)*%
X120900000Y-56950000D03*
%TO.N,Net-(U8-CMSRC)*%
X121899503Y-56950000D03*
%TO.N,Net-(U8-BATDRV)*%
X120300000Y-69200000D03*
%TO.N,Net-(U8-BATSRC)*%
X119803860Y-68331754D03*
%TO.N,Net-(U12-VIN_+)*%
X122000000Y-76600000D03*
%TO.N,Net-(U12-VIN_-)*%
X119800000Y-76600000D03*
%TO.N,Net-(D7-K)*%
X124800000Y-43200000D03*
X126000000Y-43200000D03*
X126000000Y-42200000D03*
X124800000Y-42200000D03*
%TD*%
D25*
%TO.N,+5V*%
X74487500Y-64987500D02*
X76300000Y-66800000D01*
X76300000Y-54000000D02*
X73900000Y-51600000D01*
D26*
X78400000Y-58800000D02*
X78400000Y-57000000D01*
D25*
X63300000Y-59900000D02*
X67500000Y-64100000D01*
D26*
X90800000Y-52775000D02*
X99535000Y-52775000D01*
D25*
X78400000Y-58800000D02*
X77900000Y-58300000D01*
X77900000Y-54000000D02*
X76300000Y-54000000D01*
X67200000Y-77000000D02*
X67200000Y-78000000D01*
X78400000Y-54500000D02*
X78400000Y-50300000D01*
X67500000Y-64100000D02*
X78400000Y-64100000D01*
X74412500Y-68687500D02*
X76300000Y-66800000D01*
X83885000Y-52775000D02*
X83885000Y-51885000D01*
D26*
X78400000Y-59900000D02*
X78400000Y-58800000D01*
D25*
X76300000Y-66800000D02*
X76300000Y-67900000D01*
X78400000Y-54500000D02*
X77900000Y-54000000D01*
X72950560Y-64987500D02*
X74487500Y-64987500D01*
X76300000Y-67900000D02*
X67200000Y-77000000D01*
X91000000Y-54700000D02*
X90900000Y-54800000D01*
X78400000Y-50300000D02*
X68900000Y-40800000D01*
D26*
X83885000Y-52775000D02*
X90800000Y-52775000D01*
X78400000Y-57000000D02*
X79660000Y-57000000D01*
D25*
X73050560Y-68687500D02*
X74412500Y-68687500D01*
X83885000Y-51885000D02*
X82400000Y-50400000D01*
D26*
X78400000Y-64100000D02*
X78400000Y-59900000D01*
D25*
X90800000Y-52775000D02*
X91000000Y-52975000D01*
D26*
X79660000Y-57000000D02*
X83885000Y-52775000D01*
X81100000Y-66800000D02*
X76300000Y-66800000D01*
X78400000Y-57000000D02*
X78400000Y-54500000D01*
D25*
X77900000Y-58300000D02*
X69360000Y-58300000D01*
X91000000Y-52975000D02*
X91000000Y-54700000D01*
D26*
X78400000Y-64100000D02*
X81100000Y-66800000D01*
D25*
%TO.N,GNDA*%
X122476256Y-70674174D02*
X123050000Y-71247918D01*
X123000000Y-67200000D02*
X122476256Y-67723744D01*
X122476256Y-67723744D02*
X122476256Y-70674174D01*
X123050000Y-76752082D02*
X119602082Y-80200000D01*
X123050000Y-71247918D02*
X123050000Y-76752082D01*
X119602082Y-80200000D02*
X117000000Y-80200000D01*
D27*
%TO.N,GNDPWR*%
X98600000Y-80517621D02*
X100100000Y-80517621D01*
X117850000Y-65150000D02*
X120800000Y-65150000D01*
X113000000Y-70000000D02*
X117850000Y-65150000D01*
X110617621Y-70000000D02*
X113000000Y-70000000D01*
X100100000Y-80517621D02*
X110617621Y-70000000D01*
D28*
%TO.N,/RESET#*%
X100875000Y-46495000D02*
X86005000Y-46495000D01*
X102075000Y-47695000D02*
X100875000Y-46495000D01*
X86005000Y-46495000D02*
X84200000Y-48300000D01*
D26*
%TO.N,/VSYS*%
X89968750Y-71668750D02*
X102437500Y-59200000D01*
X102437500Y-59200000D02*
X132325000Y-59200000D01*
D29*
%TO.N,/RXD*%
X89700000Y-50200000D02*
X99500000Y-50200000D01*
X89100000Y-49600000D02*
X89700000Y-50200000D01*
%TO.N,/TXD*%
X88339244Y-48900000D02*
X98300000Y-48900000D01*
X98300000Y-48900000D02*
X99505000Y-47695000D01*
X87819622Y-49419622D02*
X88339244Y-48900000D01*
D25*
%TO.N,/CHARGER_SRP*%
X118300000Y-72600000D02*
X116900000Y-74000000D01*
X122000000Y-72600000D02*
X118300000Y-72600000D01*
D28*
%TO.N,Net-(U8-VCC)*%
X122900000Y-60600000D02*
X119100000Y-60600000D01*
X116700000Y-63000000D02*
X112400000Y-63000000D01*
X112400000Y-63000000D02*
X107800000Y-67600000D01*
X119100000Y-60600000D02*
X116700000Y-63000000D01*
%TD*%
%TA.AperFunction,Conductor*%
%TO.N,+5V*%
G36*
X74189421Y-51327117D02*
G01*
X74190783Y-51328762D01*
X74636978Y-51980895D01*
X74638822Y-51989658D01*
X74635595Y-51995775D01*
X74295775Y-52335595D01*
X74287502Y-52339022D01*
X74280895Y-52336978D01*
X73628762Y-51890783D01*
X73623869Y-51883283D01*
X73625713Y-51874520D01*
X73627075Y-51872875D01*
X73899251Y-51599335D01*
X73899293Y-51599293D01*
X74172875Y-51327075D01*
X74181156Y-51323669D01*
X74189421Y-51327117D01*
G37*
%TD.AperFunction*%
%TD*%
%TA.AperFunction,Conductor*%
%TO.N,+5V*%
G36*
X63589421Y-59627117D02*
G01*
X63590783Y-59628762D01*
X64036978Y-60280895D01*
X64038822Y-60289658D01*
X64035595Y-60295775D01*
X63695775Y-60635595D01*
X63687502Y-60639022D01*
X63680895Y-60636978D01*
X63028762Y-60190783D01*
X63023869Y-60183283D01*
X63025713Y-60174520D01*
X63027075Y-60172875D01*
X63299251Y-59899335D01*
X63299293Y-59899293D01*
X63572875Y-59627075D01*
X63581156Y-59623669D01*
X63589421Y-59627117D01*
G37*
%TD.AperFunction*%
%TD*%
%TA.AperFunction,Conductor*%
%TO.N,+5V*%
G36*
X99209044Y-51993341D02*
G01*
X99213430Y-51998634D01*
X99534134Y-52770511D01*
X99534143Y-52779466D01*
X99534134Y-52779489D01*
X99213430Y-53551365D01*
X99207091Y-53557690D01*
X99200248Y-53558332D01*
X97844323Y-53276934D01*
X97836918Y-53271897D01*
X97835000Y-53265478D01*
X97835000Y-52284521D01*
X97838427Y-52276248D01*
X97844322Y-52273065D01*
X99200249Y-51991667D01*
X99209044Y-51993341D01*
G37*
%TD.AperFunction*%
%TD*%
%TA.AperFunction,Conductor*%
%TO.N,+5V*%
G36*
X67738397Y-76124184D02*
G01*
X68080818Y-76466605D01*
X68084211Y-76473993D01*
X68199045Y-77987423D01*
X68196254Y-77995931D01*
X68188264Y-77999974D01*
X68187387Y-78000008D01*
X67204150Y-78000703D01*
X67195875Y-77997282D01*
X67195861Y-77997268D01*
X66501359Y-77301376D01*
X66497940Y-77293099D01*
X66501375Y-77284830D01*
X66501506Y-77284701D01*
X67722063Y-76123977D01*
X67730418Y-76120761D01*
X67738397Y-76124184D01*
G37*
%TD.AperFunction*%
%TD*%
%TA.AperFunction,Conductor*%
%TO.N,+5V*%
G36*
X72964377Y-64590090D02*
G01*
X73741017Y-64735710D01*
X73748516Y-64740603D01*
X73750560Y-64747210D01*
X73750560Y-65227789D01*
X73747133Y-65236062D01*
X73741016Y-65239289D01*
X72964380Y-65384908D01*
X72955617Y-65383064D01*
X72950724Y-65375564D01*
X72950524Y-65373446D01*
X72949560Y-64987500D01*
X72950524Y-64601559D01*
X72953972Y-64593297D01*
X72962253Y-64589891D01*
X72964377Y-64590090D01*
G37*
%TD.AperFunction*%
%TD*%
%TA.AperFunction,Conductor*%
%TO.N,+5V*%
G36*
X67738397Y-76124184D02*
G01*
X68080818Y-76466605D01*
X68084211Y-76473993D01*
X68199045Y-77987423D01*
X68196254Y-77995931D01*
X68188264Y-77999974D01*
X68187387Y-78000008D01*
X67204150Y-78000703D01*
X67195875Y-77997282D01*
X67195861Y-77997268D01*
X66501359Y-77301376D01*
X66497940Y-77293099D01*
X66501375Y-77284830D01*
X66501506Y-77284701D01*
X67722063Y-76123977D01*
X67730418Y-76120761D01*
X67738397Y-76124184D01*
G37*
%TD.AperFunction*%
%TD*%
%TA.AperFunction,Conductor*%
%TO.N,+5V*%
G36*
X69090239Y-40526302D02*
G01*
X69091007Y-40527153D01*
X69575824Y-41120769D01*
X69578403Y-41129344D01*
X69575035Y-41136443D01*
X69235114Y-41476364D01*
X69226841Y-41479791D01*
X69221301Y-41478396D01*
X68938044Y-41326087D01*
X68656221Y-41174549D01*
X68650557Y-41167613D01*
X68650941Y-41159795D01*
X68798396Y-40801470D01*
X68800964Y-40797630D01*
X69073695Y-40526259D01*
X69081974Y-40522854D01*
X69090239Y-40526302D01*
G37*
%TD.AperFunction*%
%TD*%
%TA.AperFunction,Conductor*%
%TO.N,+5V*%
G36*
X73064377Y-68290090D02*
G01*
X73841017Y-68435710D01*
X73848516Y-68440603D01*
X73850560Y-68447210D01*
X73850560Y-68927789D01*
X73847133Y-68936062D01*
X73841016Y-68939289D01*
X73064380Y-69084908D01*
X73055617Y-69083064D01*
X73050724Y-69075564D01*
X73050524Y-69073446D01*
X73049560Y-68687500D01*
X73050524Y-68301559D01*
X73053972Y-68293297D01*
X73062253Y-68289891D01*
X73064377Y-68290090D01*
G37*
%TD.AperFunction*%
%TD*%
%TA.AperFunction,Conductor*%
%TO.N,+5V*%
G36*
X82689421Y-50127117D02*
G01*
X82690783Y-50128762D01*
X83136978Y-50780895D01*
X83138822Y-50789658D01*
X83135595Y-50795775D01*
X82795775Y-51135595D01*
X82787502Y-51139022D01*
X82780895Y-51136978D01*
X82128762Y-50690783D01*
X82123869Y-50683283D01*
X82125713Y-50674520D01*
X82127075Y-50672875D01*
X82399251Y-50399335D01*
X82399293Y-50399293D01*
X82672875Y-50127075D01*
X82681156Y-50123669D01*
X82689421Y-50127117D01*
G37*
%TD.AperFunction*%
%TD*%
%TA.AperFunction,Conductor*%
%TO.N,+5V*%
G36*
X70148000Y-57525436D02*
G01*
X70914876Y-58046518D01*
X70919793Y-58054002D01*
X70920000Y-58056195D01*
X70920000Y-58543804D01*
X70916573Y-58552077D01*
X70914876Y-58553481D01*
X70148000Y-59074563D01*
X70139231Y-59076379D01*
X70133156Y-59073164D01*
X69611400Y-58552077D01*
X69367287Y-58308276D01*
X69363856Y-58300008D01*
X69367277Y-58291733D01*
X70133156Y-57526834D01*
X70141431Y-57523413D01*
X70148000Y-57525436D01*
G37*
%TD.AperFunction*%
%TD*%
%TA.AperFunction,Conductor*%
%TO.N,+5V*%
G36*
X91248563Y-54103427D02*
G01*
X91251790Y-54109544D01*
X91397408Y-54886179D01*
X91395564Y-54894942D01*
X91388064Y-54899835D01*
X91385937Y-54900035D01*
X91000029Y-54900999D01*
X90999971Y-54900999D01*
X90614062Y-54900035D01*
X90605797Y-54896587D01*
X90602391Y-54888306D01*
X90602591Y-54886179D01*
X90748210Y-54109544D01*
X90753103Y-54102044D01*
X90759710Y-54100000D01*
X91240290Y-54100000D01*
X91248563Y-54103427D01*
G37*
%TD.AperFunction*%
%TD*%
%TA.AperFunction,Conductor*%
%TO.N,GNDA*%
G36*
X122640119Y-67050906D02*
G01*
X122995496Y-67197146D01*
X123001843Y-67203464D01*
X123001858Y-67203499D01*
X123148916Y-67559491D01*
X123148907Y-67568446D01*
X123143336Y-67574422D01*
X122728727Y-67781823D01*
X122723493Y-67783059D01*
X122246028Y-67783059D01*
X122237755Y-67779632D01*
X122234328Y-67771359D01*
X122235772Y-67765728D01*
X122547966Y-67197146D01*
X122625413Y-67056095D01*
X122632399Y-67050493D01*
X122640119Y-67050906D01*
G37*
%TD.AperFunction*%
%TD*%
%TA.AperFunction,Conductor*%
%TO.N,GNDA*%
G36*
X117013817Y-79802590D02*
G01*
X117790457Y-79948210D01*
X117797956Y-79953103D01*
X117800000Y-79959710D01*
X117800000Y-80440289D01*
X117796573Y-80448562D01*
X117790456Y-80451789D01*
X117013820Y-80597408D01*
X117005057Y-80595564D01*
X117000164Y-80588064D01*
X116999964Y-80585946D01*
X116999000Y-80200000D01*
X116999964Y-79814059D01*
X117003412Y-79805797D01*
X117011693Y-79802391D01*
X117013817Y-79802590D01*
G37*
%TD.AperFunction*%
%TD*%
%TA.AperFunction,Conductor*%
%TO.N,/RESET#*%
G36*
X100887806Y-46350820D02*
G01*
X102388885Y-46905491D01*
X102395457Y-46911572D01*
X102395804Y-46920520D01*
X102395643Y-46920931D01*
X102077853Y-47690511D01*
X102071528Y-47696850D01*
X102071512Y-47696856D01*
X101301621Y-48015349D01*
X101292666Y-48015345D01*
X101286337Y-48009011D01*
X101285957Y-48007950D01*
X100872560Y-46646662D01*
X100872055Y-46643262D01*
X100872055Y-46361796D01*
X100875482Y-46353523D01*
X100883755Y-46350096D01*
X100887806Y-46350820D01*
G37*
%TD.AperFunction*%
%TD*%
%TA.AperFunction,Conductor*%
%TO.N,/RESET#*%
G36*
X84665548Y-47634178D02*
G01*
X84865821Y-47834451D01*
X84869248Y-47842724D01*
X84868041Y-47847900D01*
X84574387Y-48443268D01*
X84567654Y-48449171D01*
X84559442Y-48448912D01*
X84203804Y-48302563D01*
X84197457Y-48296245D01*
X84197436Y-48296195D01*
X84051087Y-47940557D01*
X84051108Y-47931603D01*
X84056730Y-47925612D01*
X84652099Y-47631957D01*
X84661035Y-47631372D01*
X84665548Y-47634178D01*
G37*
%TD.AperFunction*%
%TD*%
%TA.AperFunction,Conductor*%
%TO.N,/RXD*%
G36*
X99214200Y-49460526D02*
G01*
X99214438Y-49461061D01*
X99534134Y-50230511D01*
X99534143Y-50239466D01*
X99534134Y-50239489D01*
X99214636Y-51008463D01*
X99208297Y-51014788D01*
X99199342Y-51014779D01*
X99198379Y-51014326D01*
X97848210Y-50303290D01*
X97842487Y-50296403D01*
X97841962Y-50292938D01*
X97841962Y-50107392D01*
X97845389Y-50099119D01*
X97848634Y-50096827D01*
X99198611Y-49454982D01*
X99207552Y-49454526D01*
X99214200Y-49460526D01*
G37*
%TD.AperFunction*%
%TD*%
%TA.AperFunction,Conductor*%
%TO.N,/RXD*%
G36*
X89467688Y-49451399D02*
G01*
X89474005Y-49457743D01*
X89733426Y-50087762D01*
X89733407Y-50096717D01*
X89730880Y-50100490D01*
X89600490Y-50230880D01*
X89592217Y-50234307D01*
X89587762Y-50233426D01*
X88957743Y-49974005D01*
X88951398Y-49967686D01*
X88951378Y-49958735D01*
X89097437Y-49603802D01*
X89103753Y-49597457D01*
X89458735Y-49451378D01*
X89467688Y-49451399D01*
G37*
%TD.AperFunction*%
%TD*%
%TA.AperFunction,Conductor*%
%TO.N,/TXD*%
G36*
X98761156Y-47374449D02*
G01*
X98919430Y-47439806D01*
X99531215Y-47692438D01*
X99537552Y-47698761D01*
X99537562Y-47698785D01*
X99855432Y-48468556D01*
X99855423Y-48477511D01*
X99849084Y-48483836D01*
X99848181Y-48484166D01*
X98398406Y-48947636D01*
X98389482Y-48946891D01*
X98386570Y-48944765D01*
X98255376Y-48813571D01*
X98251949Y-48805298D01*
X98252594Y-48801466D01*
X98745638Y-47381423D01*
X98751588Y-47374734D01*
X98760528Y-47374210D01*
X98761156Y-47374449D01*
G37*
%TD.AperFunction*%
%TD*%
%TA.AperFunction,Conductor*%
%TO.N,/TXD*%
G36*
X88397868Y-48805828D02*
G01*
X88403769Y-48812563D01*
X88404388Y-48816319D01*
X88404388Y-48997874D01*
X88403640Y-49001990D01*
X88193424Y-49561383D01*
X88187306Y-49567922D01*
X88178356Y-49568219D01*
X88178005Y-49568081D01*
X87823121Y-49421480D01*
X87816783Y-49415154D01*
X87671293Y-49061598D01*
X87671314Y-49052646D01*
X87677661Y-49046328D01*
X87678329Y-49046077D01*
X88388932Y-48805238D01*
X88397868Y-48805828D01*
G37*
%TD.AperFunction*%
%TD*%
%TA.AperFunction,Conductor*%
%TO.N,/CHARGER_SRP*%
G36*
X117295775Y-73264404D02*
G01*
X117635595Y-73604224D01*
X117639022Y-73612497D01*
X117636978Y-73619104D01*
X117190783Y-74271237D01*
X117183283Y-74276130D01*
X117174520Y-74274286D01*
X117172875Y-74272924D01*
X116899293Y-74000707D01*
X116899251Y-74000665D01*
X116627075Y-73727124D01*
X116623669Y-73718843D01*
X116627117Y-73710578D01*
X116628756Y-73709220D01*
X117280895Y-73263020D01*
X117289658Y-73261177D01*
X117295775Y-73264404D01*
G37*
%TD.AperFunction*%
%TD*%
%TA.AperFunction,Conductor*%
%TO.N,/CHARGER_SRP*%
G36*
X121994942Y-72204435D02*
G01*
X121999835Y-72211935D01*
X122000035Y-72214062D01*
X122001000Y-72600000D01*
X122001000Y-72600058D01*
X122000035Y-72985937D01*
X121996587Y-72994202D01*
X121988306Y-72997608D01*
X121986179Y-72997408D01*
X121209544Y-72851789D01*
X121202044Y-72846896D01*
X121200000Y-72840289D01*
X121200000Y-72359710D01*
X121203427Y-72351437D01*
X121209542Y-72348210D01*
X121986180Y-72202591D01*
X121994942Y-72204435D01*
G37*
%TD.AperFunction*%
%TD*%
%TA.AperFunction,Conductor*%
%TO.N,Net-(U8-VCC)*%
G36*
X122745510Y-60234547D02*
G01*
X122751133Y-60240538D01*
X122899123Y-60595498D01*
X122899144Y-60604452D01*
X122899123Y-60604502D01*
X122751133Y-60959461D01*
X122744786Y-60965779D01*
X122736574Y-60966038D01*
X122107940Y-60752694D01*
X122101207Y-60746791D01*
X122100000Y-60741615D01*
X122100000Y-60458384D01*
X122103427Y-60450111D01*
X122107938Y-60447305D01*
X122736575Y-60233961D01*
X122745510Y-60234547D01*
G37*
%TD.AperFunction*%
%TD*%
%TA.AperFunction,Conductor*%
%TO.N,Net-(U8-VCC)*%
G36*
X108265548Y-66934178D02*
G01*
X108465821Y-67134451D01*
X108469248Y-67142724D01*
X108468041Y-67147900D01*
X108174387Y-67743268D01*
X108167654Y-67749171D01*
X108159442Y-67748912D01*
X107803804Y-67602563D01*
X107797457Y-67596245D01*
X107797436Y-67596195D01*
X107651087Y-67240557D01*
X107651108Y-67231603D01*
X107656730Y-67225612D01*
X108252099Y-66931957D01*
X108261035Y-66931372D01*
X108265548Y-66934178D01*
G37*
%TD.AperFunction*%
%TD*%
M02*
