%TF.GenerationSoftware,KiCad,Pcbnew,7.0.8-7.0.8~ubuntu22.04.1*%
%TF.CreationDate,2023-11-02T09:44:40+03:00*%
%TF.ProjectId,outdoor-module,6f757464-6f6f-4722-9d6d-6f64756c652e,rev?*%
%TF.SameCoordinates,Original*%
%TF.FileFunction,Drillmap*%
%TF.FilePolarity,Positive*%
%FSLAX45Y45*%
G04 Gerber Fmt 4.5, Leading zero omitted, Abs format (unit mm)*
G04 Created by KiCad (PCBNEW 7.0.8-7.0.8~ubuntu22.04.1) date 2023-11-02 09:44:40*
%MOMM*%
%LPD*%
G01*
G04 APERTURE LIST*
%ADD10C,0.100000*%
%ADD11C,0.200000*%
%ADD12C,0.020000*%
%ADD13C,0.040000*%
%ADD14C,0.060000*%
%ADD15C,0.076200*%
%ADD16C,0.080000*%
%ADD17C,0.090000*%
%ADD18C,0.095000*%
G04 APERTURE END LIST*
D10*
X13700000Y-4000000D02*
X6000000Y-4000000D01*
X6000000Y-8300000D02*
X13700000Y-8300000D01*
X4100000Y-4000000D02*
X4100000Y-5000000D01*
X4100000Y-5000000D02*
X6000000Y-5000000D01*
X6000000Y-5000000D02*
X6000000Y-8300000D01*
X6000000Y-4000000D02*
X4100000Y-4000000D01*
X13700000Y-8300000D02*
X13700000Y-4000000D01*
D11*
D12*
X11835000Y-6745000D02*
X11855000Y-6765000D01*
X11855000Y-6745000D02*
X11835000Y-6765000D01*
X11835000Y-6850000D02*
X11855000Y-6870000D01*
X11855000Y-6850000D02*
X11835000Y-6870000D01*
X11835000Y-6955000D02*
X11855000Y-6975000D01*
X11855000Y-6955000D02*
X11835000Y-6975000D01*
X11940000Y-6745000D02*
X11960000Y-6765000D01*
X11960000Y-6745000D02*
X11940000Y-6765000D01*
X11940000Y-6850000D02*
X11960000Y-6870000D01*
X11960000Y-6850000D02*
X11940000Y-6870000D01*
X11940000Y-6955000D02*
X11960000Y-6975000D01*
X11960000Y-6955000D02*
X11940000Y-6975000D01*
X12045000Y-6745000D02*
X12065000Y-6765000D01*
X12065000Y-6745000D02*
X12045000Y-6765000D01*
X12045000Y-6850000D02*
X12065000Y-6870000D01*
X12065000Y-6850000D02*
X12045000Y-6870000D01*
X12045000Y-6955000D02*
X12065000Y-6975000D01*
X12065000Y-6955000D02*
X12045000Y-6975000D01*
D13*
X6150000Y-4190000D02*
G75*
G03*
X6150000Y-4190000I-20000J0D01*
G01*
X6350000Y-5990000D02*
G75*
G03*
X6350000Y-5990000I-20000J0D01*
G01*
X6490000Y-4748750D02*
G75*
G03*
X6490000Y-4748750I-20000J0D01*
G01*
X6640000Y-7260000D02*
G75*
G03*
X6640000Y-7260000I-20000J0D01*
G01*
X6900000Y-4080000D02*
G75*
G03*
X6900000Y-4080000I-20000J0D01*
G01*
X7140000Y-4040000D02*
G75*
G03*
X7140000Y-4040000I-20000J0D01*
G01*
X7315056Y-6498750D02*
G75*
G03*
X7315056Y-6498750I-20000J0D01*
G01*
X7322000Y-6325050D02*
G75*
G03*
X7322000Y-6325050I-20000J0D01*
G01*
X7325056Y-6868750D02*
G75*
G03*
X7325056Y-6868750I-20000J0D01*
G01*
X7410000Y-5160000D02*
G75*
G03*
X7410000Y-5160000I-20000J0D01*
G01*
X7900000Y-4920000D02*
G75*
G03*
X7900000Y-4920000I-20000J0D01*
G01*
X8080000Y-4280000D02*
G75*
G03*
X8080000Y-4280000I-20000J0D01*
G01*
X8130000Y-6680000D02*
G75*
G03*
X8130000Y-6680000I-20000J0D01*
G01*
X8260000Y-5040000D02*
G75*
G03*
X8260000Y-5040000I-20000J0D01*
G01*
X8300000Y-4280000D02*
G75*
G03*
X8300000Y-4280000I-20000J0D01*
G01*
X8310000Y-4710000D02*
G75*
G03*
X8310000Y-4710000I-20000J0D01*
G01*
X8359589Y-4600000D02*
G75*
G03*
X8359589Y-4600000I-20000J0D01*
G01*
X8440000Y-4830000D02*
G75*
G03*
X8440000Y-4830000I-20000J0D01*
G01*
X8801962Y-4941962D02*
G75*
G03*
X8801962Y-4941962I-20000J0D01*
G01*
X8900000Y-6680000D02*
G75*
G03*
X8900000Y-6680000I-20000J0D01*
G01*
X8930000Y-4960000D02*
G75*
G03*
X8930000Y-4960000I-20000J0D01*
G01*
X9020000Y-4800000D02*
G75*
G03*
X9020000Y-4800000I-20000J0D01*
G01*
X9120000Y-5490000D02*
G75*
G03*
X9120000Y-5490000I-20000J0D01*
G01*
X9406875Y-6719375D02*
G75*
G03*
X9406875Y-6719375I-20000J0D01*
G01*
X10320000Y-6380000D02*
G75*
G03*
X10320000Y-6380000I-20000J0D01*
G01*
X10390000Y-7880000D02*
G75*
G03*
X10390000Y-7880000I-20000J0D01*
G01*
X10750000Y-6850000D02*
G75*
G03*
X10750000Y-6850000I-20000J0D01*
G01*
X10780000Y-7070000D02*
G75*
G03*
X10780000Y-7070000I-20000J0D01*
G01*
X11150000Y-8210000D02*
G75*
G03*
X11150000Y-8210000I-20000J0D01*
G01*
X11170000Y-7820000D02*
G75*
G03*
X11170000Y-7820000I-20000J0D01*
G01*
X11230000Y-5790000D02*
G75*
G03*
X11230000Y-5790000I-20000J0D01*
G01*
X11330000Y-6910000D02*
G75*
G03*
X11330000Y-6910000I-20000J0D01*
G01*
X11330000Y-7960000D02*
G75*
G03*
X11330000Y-7960000I-20000J0D01*
G01*
X11347806Y-6811649D02*
G75*
G03*
X11347806Y-6811649I-20000J0D01*
G01*
X11530000Y-7230000D02*
G75*
G03*
X11530000Y-7230000I-20000J0D01*
G01*
X11580000Y-5510000D02*
G75*
G03*
X11580000Y-5510000I-20000J0D01*
G01*
X11580000Y-6380000D02*
G75*
G03*
X11580000Y-6380000I-20000J0D01*
G01*
X11808750Y-7820000D02*
G75*
G03*
X11808750Y-7820000I-20000J0D01*
G01*
X11820000Y-7420000D02*
G75*
G03*
X11820000Y-7420000I-20000J0D01*
G01*
X11940050Y-7230000D02*
G75*
G03*
X11940050Y-7230000I-20000J0D01*
G01*
X11980000Y-6040000D02*
G75*
G03*
X11980000Y-6040000I-20000J0D01*
G01*
X12000000Y-5270000D02*
G75*
G03*
X12000000Y-5270000I-20000J0D01*
G01*
X12079950Y-6040000D02*
G75*
G03*
X12079950Y-6040000I-20000J0D01*
G01*
X12190000Y-7440000D02*
G75*
G03*
X12190000Y-7440000I-20000J0D01*
G01*
X12220000Y-6610000D02*
G75*
G03*
X12220000Y-6610000I-20000J0D01*
G01*
X12370000Y-6700000D02*
G75*
G03*
X12370000Y-6700000I-20000J0D01*
G01*
X12370000Y-7100000D02*
G75*
G03*
X12370000Y-7100000I-20000J0D01*
G01*
X12572500Y-7090000D02*
G75*
G03*
X12572500Y-7090000I-20000J0D01*
G01*
X12770000Y-6190000D02*
G75*
G03*
X12770000Y-6190000I-20000J0D01*
G01*
X12930000Y-6190000D02*
G75*
G03*
X12930000Y-6190000I-20000J0D01*
G01*
X13140000Y-6350000D02*
G75*
G03*
X13140000Y-6350000I-20000J0D01*
G01*
X13520000Y-6875000D02*
G75*
G03*
X13520000Y-6875000I-20000J0D01*
G01*
X13570000Y-5975000D02*
G75*
G03*
X13570000Y-5975000I-20000J0D01*
G01*
X13620000Y-6875000D02*
G75*
G03*
X13620000Y-6875000I-20000J0D01*
G01*
D14*
X11260000Y-4130000D02*
X11260000Y-4190000D01*
X11230000Y-4160000D02*
X11290000Y-4160000D01*
X11760000Y-4340000D02*
X11760000Y-4400000D01*
X11730000Y-4370000D02*
X11790000Y-4370000D01*
D15*
X6492941Y-7826941D02*
X6492941Y-7773059D01*
X6439059Y-7773059D01*
X6439059Y-7826941D01*
X6492941Y-7826941D01*
X6746941Y-7826941D02*
X6746941Y-7773059D01*
X6693059Y-7773059D01*
X6693059Y-7826941D01*
X6746941Y-7826941D01*
X7000941Y-7826941D02*
X7000941Y-7773059D01*
X6947059Y-7773059D01*
X6947059Y-7826941D01*
X7000941Y-7826941D01*
D16*
X8300000Y-7808238D02*
X8340000Y-7768238D01*
X8300000Y-7728238D01*
X8260000Y-7768238D01*
X8300000Y-7808238D01*
X8300000Y-8058238D02*
X8340000Y-8018238D01*
X8300000Y-7978238D01*
X8260000Y-8018238D01*
X8300000Y-8058238D01*
X8992000Y-5950000D02*
X9032000Y-5910000D01*
X8992000Y-5870000D01*
X8952000Y-5910000D01*
X8992000Y-5950000D01*
X9001500Y-7808238D02*
X9041500Y-7768238D01*
X9001500Y-7728238D01*
X8961500Y-7768238D01*
X9001500Y-7808238D01*
X9001500Y-8058238D02*
X9041500Y-8018238D01*
X9001500Y-7978238D01*
X8961500Y-8018238D01*
X9001500Y-8058238D01*
X9480000Y-5950000D02*
X9520000Y-5910000D01*
X9480000Y-5870000D01*
X9440000Y-5910000D01*
X9480000Y-5950000D01*
D17*
X6325000Y-6360000D02*
X6415000Y-6450000D01*
X6415000Y-6360000D02*
X6325000Y-6450000D01*
X6415000Y-6405000D02*
G75*
G03*
X6415000Y-6405000I-45000J0D01*
G01*
X6325000Y-6614000D02*
X6415000Y-6704000D01*
X6415000Y-6614000D02*
X6325000Y-6704000D01*
X6415000Y-6659000D02*
G75*
G03*
X6415000Y-6659000I-45000J0D01*
G01*
X6325000Y-6868000D02*
X6415000Y-6958000D01*
X6415000Y-6868000D02*
X6325000Y-6958000D01*
X6415000Y-6913000D02*
G75*
G03*
X6415000Y-6913000I-45000J0D01*
G01*
D18*
X13200000Y-4282500D02*
X13295000Y-4377500D01*
X13295000Y-4282500D02*
X13200000Y-4377500D01*
X13247500Y-4282500D02*
X13247500Y-4377500D01*
X13200000Y-4330000D02*
X13295000Y-4330000D01*
X13200000Y-4532500D02*
X13295000Y-4627500D01*
X13295000Y-4532500D02*
X13200000Y-4627500D01*
X13247500Y-4532500D02*
X13247500Y-4627500D01*
X13200000Y-4580000D02*
X13295000Y-4580000D01*
X13200000Y-4782500D02*
X13295000Y-4877500D01*
X13295000Y-4782500D02*
X13200000Y-4877500D01*
X13247500Y-4782500D02*
X13247500Y-4877500D01*
X13200000Y-4830000D02*
X13295000Y-4830000D01*
D10*
X6886000Y-5280000D02*
X6986000Y-5380000D01*
X6986000Y-5280000D02*
X6886000Y-5380000D01*
X6971356Y-5365356D02*
X6971356Y-5294644D01*
X6900644Y-5294644D01*
X6900644Y-5365356D01*
X6971356Y-5365356D01*
X6886000Y-5780000D02*
X6986000Y-5880000D01*
X6986000Y-5780000D02*
X6886000Y-5880000D01*
X6971356Y-5865356D02*
X6971356Y-5794644D01*
X6900644Y-5794644D01*
X6900644Y-5865356D01*
X6971356Y-5865356D01*
X6888000Y-4550000D02*
X6988000Y-4650000D01*
X6988000Y-4550000D02*
X6888000Y-4650000D01*
X6973356Y-4635356D02*
X6973356Y-4564644D01*
X6902644Y-4564644D01*
X6902644Y-4635356D01*
X6973356Y-4635356D01*
X6888000Y-5050000D02*
X6988000Y-5150000D01*
X6988000Y-5050000D02*
X6888000Y-5150000D01*
X6973356Y-5135356D02*
X6973356Y-5064644D01*
X6902644Y-5064644D01*
X6902644Y-5135356D01*
X6973356Y-5135356D01*
X7386000Y-5530000D02*
X7486000Y-5630000D01*
X7486000Y-5530000D02*
X7386000Y-5630000D01*
X7471356Y-5615356D02*
X7471356Y-5544644D01*
X7400644Y-5544644D01*
X7400644Y-5615356D01*
X7471356Y-5615356D01*
X7388000Y-4800000D02*
X7488000Y-4900000D01*
X7488000Y-4800000D02*
X7388000Y-4900000D01*
X7473356Y-4885356D02*
X7473356Y-4814644D01*
X7402644Y-4814644D01*
X7402644Y-4885356D01*
X7473356Y-4885356D01*
X7672500Y-7765000D02*
X7772500Y-7865000D01*
X7772500Y-7765000D02*
X7672500Y-7865000D01*
X7757856Y-7850356D02*
X7757856Y-7779644D01*
X7687144Y-7779644D01*
X7687144Y-7850356D01*
X7757856Y-7850356D01*
X7672500Y-8019000D02*
X7772500Y-8119000D01*
X7772500Y-8019000D02*
X7672500Y-8119000D01*
X7757856Y-8104356D02*
X7757856Y-8033644D01*
X7687144Y-8033644D01*
X7687144Y-8104356D01*
X7757856Y-8104356D01*
X9903500Y-4211500D02*
X10003500Y-4311500D01*
X10003500Y-4211500D02*
X9903500Y-4311500D01*
X9988856Y-4296856D02*
X9988856Y-4226144D01*
X9918144Y-4226144D01*
X9918144Y-4296856D01*
X9988856Y-4296856D01*
X9903500Y-4465500D02*
X10003500Y-4565500D01*
X10003500Y-4465500D02*
X9903500Y-4565500D01*
X9988856Y-4550856D02*
X9988856Y-4480144D01*
X9918144Y-4480144D01*
X9918144Y-4550856D01*
X9988856Y-4550856D01*
X9903500Y-4719500D02*
X10003500Y-4819500D01*
X10003500Y-4719500D02*
X9903500Y-4819500D01*
X9988856Y-4804856D02*
X9988856Y-4734144D01*
X9918144Y-4734144D01*
X9918144Y-4804856D01*
X9988856Y-4804856D01*
X9903500Y-4973500D02*
X10003500Y-5073500D01*
X10003500Y-4973500D02*
X9903500Y-5073500D01*
X9988856Y-5058856D02*
X9988856Y-4988144D01*
X9918144Y-4988144D01*
X9918144Y-5058856D01*
X9988856Y-5058856D01*
X9903500Y-5227500D02*
X10003500Y-5327500D01*
X10003500Y-5227500D02*
X9903500Y-5327500D01*
X9988856Y-5312856D02*
X9988856Y-5242144D01*
X9918144Y-5242144D01*
X9918144Y-5312856D01*
X9988856Y-5312856D01*
X10157500Y-4211500D02*
X10257500Y-4311500D01*
X10257500Y-4211500D02*
X10157500Y-4311500D01*
X10242856Y-4296856D02*
X10242856Y-4226144D01*
X10172144Y-4226144D01*
X10172144Y-4296856D01*
X10242856Y-4296856D01*
X10157500Y-4465500D02*
X10257500Y-4565500D01*
X10257500Y-4465500D02*
X10157500Y-4565500D01*
X10242856Y-4550856D02*
X10242856Y-4480144D01*
X10172144Y-4480144D01*
X10172144Y-4550856D01*
X10242856Y-4550856D01*
X10157500Y-4719500D02*
X10257500Y-4819500D01*
X10257500Y-4719500D02*
X10157500Y-4819500D01*
X10242856Y-4804856D02*
X10242856Y-4734144D01*
X10172144Y-4734144D01*
X10172144Y-4804856D01*
X10242856Y-4804856D01*
X10157500Y-4973500D02*
X10257500Y-5073500D01*
X10257500Y-4973500D02*
X10157500Y-5073500D01*
X10242856Y-5058856D02*
X10242856Y-4988144D01*
X10172144Y-4988144D01*
X10172144Y-5058856D01*
X10242856Y-5058856D01*
X10157500Y-5227500D02*
X10257500Y-5327500D01*
X10257500Y-5227500D02*
X10157500Y-5327500D01*
X10242856Y-5312856D02*
X10242856Y-5242144D01*
X10172144Y-5242144D01*
X10172144Y-5312856D01*
X10242856Y-5312856D01*
D11*
X10690000Y-4110000D02*
X10890000Y-4310000D01*
X10890000Y-4110000D02*
X10690000Y-4310000D01*
X10790000Y-4310000D02*
X10890000Y-4210000D01*
X10790000Y-4110000D01*
X10690000Y-4210000D01*
X10790000Y-4310000D01*
X4355777Y-8616484D02*
X4355777Y-8416484D01*
X4355777Y-8416484D02*
X4403396Y-8416484D01*
X4403396Y-8416484D02*
X4431967Y-8426008D01*
X4431967Y-8426008D02*
X4451015Y-8445055D01*
X4451015Y-8445055D02*
X4460539Y-8464103D01*
X4460539Y-8464103D02*
X4470063Y-8502198D01*
X4470063Y-8502198D02*
X4470063Y-8530770D01*
X4470063Y-8530770D02*
X4460539Y-8568865D01*
X4460539Y-8568865D02*
X4451015Y-8587912D01*
X4451015Y-8587912D02*
X4431967Y-8606960D01*
X4431967Y-8606960D02*
X4403396Y-8616484D01*
X4403396Y-8616484D02*
X4355777Y-8616484D01*
X4555777Y-8616484D02*
X4555777Y-8483150D01*
X4555777Y-8521246D02*
X4565301Y-8502198D01*
X4565301Y-8502198D02*
X4574824Y-8492674D01*
X4574824Y-8492674D02*
X4593872Y-8483150D01*
X4593872Y-8483150D02*
X4612920Y-8483150D01*
X4679586Y-8616484D02*
X4679586Y-8483150D01*
X4679586Y-8416484D02*
X4670063Y-8426008D01*
X4670063Y-8426008D02*
X4679586Y-8435531D01*
X4679586Y-8435531D02*
X4689110Y-8426008D01*
X4689110Y-8426008D02*
X4679586Y-8416484D01*
X4679586Y-8416484D02*
X4679586Y-8435531D01*
X4803396Y-8616484D02*
X4784348Y-8606960D01*
X4784348Y-8606960D02*
X4774824Y-8587912D01*
X4774824Y-8587912D02*
X4774824Y-8416484D01*
X4908158Y-8616484D02*
X4889110Y-8606960D01*
X4889110Y-8606960D02*
X4879586Y-8587912D01*
X4879586Y-8587912D02*
X4879586Y-8416484D01*
X5136729Y-8616484D02*
X5136729Y-8416484D01*
X5136729Y-8416484D02*
X5203396Y-8559341D01*
X5203396Y-8559341D02*
X5270063Y-8416484D01*
X5270063Y-8416484D02*
X5270063Y-8616484D01*
X5451015Y-8616484D02*
X5451015Y-8511722D01*
X5451015Y-8511722D02*
X5441491Y-8492674D01*
X5441491Y-8492674D02*
X5422444Y-8483150D01*
X5422444Y-8483150D02*
X5384348Y-8483150D01*
X5384348Y-8483150D02*
X5365301Y-8492674D01*
X5451015Y-8606960D02*
X5431967Y-8616484D01*
X5431967Y-8616484D02*
X5384348Y-8616484D01*
X5384348Y-8616484D02*
X5365301Y-8606960D01*
X5365301Y-8606960D02*
X5355777Y-8587912D01*
X5355777Y-8587912D02*
X5355777Y-8568865D01*
X5355777Y-8568865D02*
X5365301Y-8549817D01*
X5365301Y-8549817D02*
X5384348Y-8540293D01*
X5384348Y-8540293D02*
X5431967Y-8540293D01*
X5431967Y-8540293D02*
X5451015Y-8530770D01*
X5546253Y-8483150D02*
X5546253Y-8683150D01*
X5546253Y-8492674D02*
X5565301Y-8483150D01*
X5565301Y-8483150D02*
X5603396Y-8483150D01*
X5603396Y-8483150D02*
X5622443Y-8492674D01*
X5622443Y-8492674D02*
X5631967Y-8502198D01*
X5631967Y-8502198D02*
X5641491Y-8521246D01*
X5641491Y-8521246D02*
X5641491Y-8578389D01*
X5641491Y-8578389D02*
X5631967Y-8597436D01*
X5631967Y-8597436D02*
X5622443Y-8606960D01*
X5622443Y-8606960D02*
X5603396Y-8616484D01*
X5603396Y-8616484D02*
X5565301Y-8616484D01*
X5565301Y-8616484D02*
X5546253Y-8606960D01*
X5727205Y-8597436D02*
X5736729Y-8606960D01*
X5736729Y-8606960D02*
X5727205Y-8616484D01*
X5727205Y-8616484D02*
X5717682Y-8606960D01*
X5717682Y-8606960D02*
X5727205Y-8597436D01*
X5727205Y-8597436D02*
X5727205Y-8616484D01*
X5727205Y-8492674D02*
X5736729Y-8502198D01*
X5736729Y-8502198D02*
X5727205Y-8511722D01*
X5727205Y-8511722D02*
X5717682Y-8502198D01*
X5717682Y-8502198D02*
X5727205Y-8492674D01*
X5727205Y-8492674D02*
X5727205Y-8511722D01*
D12*
X4075000Y-8935000D02*
X4095000Y-8955000D01*
X4095000Y-8935000D02*
X4075000Y-8955000D01*
D11*
X4393872Y-8836484D02*
X4412920Y-8836484D01*
X4412920Y-8836484D02*
X4431967Y-8846008D01*
X4431967Y-8846008D02*
X4441491Y-8855531D01*
X4441491Y-8855531D02*
X4451015Y-8874579D01*
X4451015Y-8874579D02*
X4460539Y-8912674D01*
X4460539Y-8912674D02*
X4460539Y-8960293D01*
X4460539Y-8960293D02*
X4451015Y-8998389D01*
X4451015Y-8998389D02*
X4441491Y-9017436D01*
X4441491Y-9017436D02*
X4431967Y-9026960D01*
X4431967Y-9026960D02*
X4412920Y-9036484D01*
X4412920Y-9036484D02*
X4393872Y-9036484D01*
X4393872Y-9036484D02*
X4374824Y-9026960D01*
X4374824Y-9026960D02*
X4365301Y-9017436D01*
X4365301Y-9017436D02*
X4355777Y-8998389D01*
X4355777Y-8998389D02*
X4346253Y-8960293D01*
X4346253Y-8960293D02*
X4346253Y-8912674D01*
X4346253Y-8912674D02*
X4355777Y-8874579D01*
X4355777Y-8874579D02*
X4365301Y-8855531D01*
X4365301Y-8855531D02*
X4374824Y-8846008D01*
X4374824Y-8846008D02*
X4393872Y-8836484D01*
X4546253Y-9017436D02*
X4555777Y-9026960D01*
X4555777Y-9026960D02*
X4546253Y-9036484D01*
X4546253Y-9036484D02*
X4536729Y-9026960D01*
X4536729Y-9026960D02*
X4546253Y-9017436D01*
X4546253Y-9017436D02*
X4546253Y-9036484D01*
X4631967Y-8855531D02*
X4641491Y-8846008D01*
X4641491Y-8846008D02*
X4660539Y-8836484D01*
X4660539Y-8836484D02*
X4708158Y-8836484D01*
X4708158Y-8836484D02*
X4727205Y-8846008D01*
X4727205Y-8846008D02*
X4736729Y-8855531D01*
X4736729Y-8855531D02*
X4746253Y-8874579D01*
X4746253Y-8874579D02*
X4746253Y-8893627D01*
X4746253Y-8893627D02*
X4736729Y-8922198D01*
X4736729Y-8922198D02*
X4622444Y-9036484D01*
X4622444Y-9036484D02*
X4746253Y-9036484D01*
X4870063Y-8836484D02*
X4889110Y-8836484D01*
X4889110Y-8836484D02*
X4908158Y-8846008D01*
X4908158Y-8846008D02*
X4917682Y-8855531D01*
X4917682Y-8855531D02*
X4927205Y-8874579D01*
X4927205Y-8874579D02*
X4936729Y-8912674D01*
X4936729Y-8912674D02*
X4936729Y-8960293D01*
X4936729Y-8960293D02*
X4927205Y-8998389D01*
X4927205Y-8998389D02*
X4917682Y-9017436D01*
X4917682Y-9017436D02*
X4908158Y-9026960D01*
X4908158Y-9026960D02*
X4889110Y-9036484D01*
X4889110Y-9036484D02*
X4870063Y-9036484D01*
X4870063Y-9036484D02*
X4851015Y-9026960D01*
X4851015Y-9026960D02*
X4841491Y-9017436D01*
X4841491Y-9017436D02*
X4831967Y-8998389D01*
X4831967Y-8998389D02*
X4822444Y-8960293D01*
X4822444Y-8960293D02*
X4822444Y-8912674D01*
X4822444Y-8912674D02*
X4831967Y-8874579D01*
X4831967Y-8874579D02*
X4841491Y-8855531D01*
X4841491Y-8855531D02*
X4851015Y-8846008D01*
X4851015Y-8846008D02*
X4870063Y-8836484D01*
X5060539Y-8836484D02*
X5079586Y-8836484D01*
X5079586Y-8836484D02*
X5098634Y-8846008D01*
X5098634Y-8846008D02*
X5108158Y-8855531D01*
X5108158Y-8855531D02*
X5117682Y-8874579D01*
X5117682Y-8874579D02*
X5127205Y-8912674D01*
X5127205Y-8912674D02*
X5127205Y-8960293D01*
X5127205Y-8960293D02*
X5117682Y-8998389D01*
X5117682Y-8998389D02*
X5108158Y-9017436D01*
X5108158Y-9017436D02*
X5098634Y-9026960D01*
X5098634Y-9026960D02*
X5079586Y-9036484D01*
X5079586Y-9036484D02*
X5060539Y-9036484D01*
X5060539Y-9036484D02*
X5041491Y-9026960D01*
X5041491Y-9026960D02*
X5031967Y-9017436D01*
X5031967Y-9017436D02*
X5022444Y-8998389D01*
X5022444Y-8998389D02*
X5012920Y-8960293D01*
X5012920Y-8960293D02*
X5012920Y-8912674D01*
X5012920Y-8912674D02*
X5022444Y-8874579D01*
X5022444Y-8874579D02*
X5031967Y-8855531D01*
X5031967Y-8855531D02*
X5041491Y-8846008D01*
X5041491Y-8846008D02*
X5060539Y-8836484D01*
X5212920Y-9036484D02*
X5212920Y-8903150D01*
X5212920Y-8922198D02*
X5222444Y-8912674D01*
X5222444Y-8912674D02*
X5241491Y-8903150D01*
X5241491Y-8903150D02*
X5270063Y-8903150D01*
X5270063Y-8903150D02*
X5289110Y-8912674D01*
X5289110Y-8912674D02*
X5298634Y-8931722D01*
X5298634Y-8931722D02*
X5298634Y-9036484D01*
X5298634Y-8931722D02*
X5308158Y-8912674D01*
X5308158Y-8912674D02*
X5327205Y-8903150D01*
X5327205Y-8903150D02*
X5355777Y-8903150D01*
X5355777Y-8903150D02*
X5374825Y-8912674D01*
X5374825Y-8912674D02*
X5384348Y-8931722D01*
X5384348Y-8931722D02*
X5384348Y-9036484D01*
X5479586Y-9036484D02*
X5479586Y-8903150D01*
X5479586Y-8922198D02*
X5489110Y-8912674D01*
X5489110Y-8912674D02*
X5508158Y-8903150D01*
X5508158Y-8903150D02*
X5536729Y-8903150D01*
X5536729Y-8903150D02*
X5555777Y-8912674D01*
X5555777Y-8912674D02*
X5565301Y-8931722D01*
X5565301Y-8931722D02*
X5565301Y-9036484D01*
X5565301Y-8931722D02*
X5574825Y-8912674D01*
X5574825Y-8912674D02*
X5593872Y-8903150D01*
X5593872Y-8903150D02*
X5622443Y-8903150D01*
X5622443Y-8903150D02*
X5641491Y-8912674D01*
X5641491Y-8912674D02*
X5651015Y-8931722D01*
X5651015Y-8931722D02*
X5651015Y-9036484D01*
X6041491Y-8826960D02*
X5870063Y-9084103D01*
X6298634Y-8836484D02*
X6317682Y-8836484D01*
X6317682Y-8836484D02*
X6336729Y-8846008D01*
X6336729Y-8846008D02*
X6346253Y-8855531D01*
X6346253Y-8855531D02*
X6355777Y-8874579D01*
X6355777Y-8874579D02*
X6365301Y-8912674D01*
X6365301Y-8912674D02*
X6365301Y-8960293D01*
X6365301Y-8960293D02*
X6355777Y-8998389D01*
X6355777Y-8998389D02*
X6346253Y-9017436D01*
X6346253Y-9017436D02*
X6336729Y-9026960D01*
X6336729Y-9026960D02*
X6317682Y-9036484D01*
X6317682Y-9036484D02*
X6298634Y-9036484D01*
X6298634Y-9036484D02*
X6279586Y-9026960D01*
X6279586Y-9026960D02*
X6270063Y-9017436D01*
X6270063Y-9017436D02*
X6260539Y-8998389D01*
X6260539Y-8998389D02*
X6251015Y-8960293D01*
X6251015Y-8960293D02*
X6251015Y-8912674D01*
X6251015Y-8912674D02*
X6260539Y-8874579D01*
X6260539Y-8874579D02*
X6270063Y-8855531D01*
X6270063Y-8855531D02*
X6279586Y-8846008D01*
X6279586Y-8846008D02*
X6298634Y-8836484D01*
X6451015Y-9017436D02*
X6460539Y-9026960D01*
X6460539Y-9026960D02*
X6451015Y-9036484D01*
X6451015Y-9036484D02*
X6441491Y-9026960D01*
X6441491Y-9026960D02*
X6451015Y-9017436D01*
X6451015Y-9017436D02*
X6451015Y-9036484D01*
X6584348Y-8836484D02*
X6603396Y-8836484D01*
X6603396Y-8836484D02*
X6622444Y-8846008D01*
X6622444Y-8846008D02*
X6631967Y-8855531D01*
X6631967Y-8855531D02*
X6641491Y-8874579D01*
X6641491Y-8874579D02*
X6651015Y-8912674D01*
X6651015Y-8912674D02*
X6651015Y-8960293D01*
X6651015Y-8960293D02*
X6641491Y-8998389D01*
X6641491Y-8998389D02*
X6631967Y-9017436D01*
X6631967Y-9017436D02*
X6622444Y-9026960D01*
X6622444Y-9026960D02*
X6603396Y-9036484D01*
X6603396Y-9036484D02*
X6584348Y-9036484D01*
X6584348Y-9036484D02*
X6565301Y-9026960D01*
X6565301Y-9026960D02*
X6555777Y-9017436D01*
X6555777Y-9017436D02*
X6546253Y-8998389D01*
X6546253Y-8998389D02*
X6536729Y-8960293D01*
X6536729Y-8960293D02*
X6536729Y-8912674D01*
X6536729Y-8912674D02*
X6546253Y-8874579D01*
X6546253Y-8874579D02*
X6555777Y-8855531D01*
X6555777Y-8855531D02*
X6565301Y-8846008D01*
X6565301Y-8846008D02*
X6584348Y-8836484D01*
X6774825Y-8836484D02*
X6793872Y-8836484D01*
X6793872Y-8836484D02*
X6812920Y-8846008D01*
X6812920Y-8846008D02*
X6822444Y-8855531D01*
X6822444Y-8855531D02*
X6831967Y-8874579D01*
X6831967Y-8874579D02*
X6841491Y-8912674D01*
X6841491Y-8912674D02*
X6841491Y-8960293D01*
X6841491Y-8960293D02*
X6831967Y-8998389D01*
X6831967Y-8998389D02*
X6822444Y-9017436D01*
X6822444Y-9017436D02*
X6812920Y-9026960D01*
X6812920Y-9026960D02*
X6793872Y-9036484D01*
X6793872Y-9036484D02*
X6774825Y-9036484D01*
X6774825Y-9036484D02*
X6755777Y-9026960D01*
X6755777Y-9026960D02*
X6746253Y-9017436D01*
X6746253Y-9017436D02*
X6736729Y-8998389D01*
X6736729Y-8998389D02*
X6727206Y-8960293D01*
X6727206Y-8960293D02*
X6727206Y-8912674D01*
X6727206Y-8912674D02*
X6736729Y-8874579D01*
X6736729Y-8874579D02*
X6746253Y-8855531D01*
X6746253Y-8855531D02*
X6755777Y-8846008D01*
X6755777Y-8846008D02*
X6774825Y-8836484D01*
X6908158Y-8836484D02*
X7041491Y-8836484D01*
X7041491Y-8836484D02*
X6955777Y-9036484D01*
X7127206Y-9036484D02*
X7165301Y-9036484D01*
X7165301Y-9036484D02*
X7184348Y-9026960D01*
X7184348Y-9026960D02*
X7193872Y-9017436D01*
X7193872Y-9017436D02*
X7212920Y-8988865D01*
X7212920Y-8988865D02*
X7222444Y-8950770D01*
X7222444Y-8950770D02*
X7222444Y-8874579D01*
X7222444Y-8874579D02*
X7212920Y-8855531D01*
X7212920Y-8855531D02*
X7203396Y-8846008D01*
X7203396Y-8846008D02*
X7184348Y-8836484D01*
X7184348Y-8836484D02*
X7146253Y-8836484D01*
X7146253Y-8836484D02*
X7127206Y-8846008D01*
X7127206Y-8846008D02*
X7117682Y-8855531D01*
X7117682Y-8855531D02*
X7108158Y-8874579D01*
X7108158Y-8874579D02*
X7108158Y-8922198D01*
X7108158Y-8922198D02*
X7117682Y-8941246D01*
X7117682Y-8941246D02*
X7127206Y-8950770D01*
X7127206Y-8950770D02*
X7146253Y-8960293D01*
X7146253Y-8960293D02*
X7184348Y-8960293D01*
X7184348Y-8960293D02*
X7203396Y-8950770D01*
X7203396Y-8950770D02*
X7212920Y-8941246D01*
X7212920Y-8941246D02*
X7222444Y-8922198D01*
X7298634Y-8836484D02*
X7298634Y-8874579D01*
X7374825Y-8836484D02*
X7374825Y-8874579D01*
X7670063Y-9112674D02*
X7660539Y-9103150D01*
X7660539Y-9103150D02*
X7641491Y-9074579D01*
X7641491Y-9074579D02*
X7631968Y-9055531D01*
X7631968Y-9055531D02*
X7622444Y-9026960D01*
X7622444Y-9026960D02*
X7612920Y-8979341D01*
X7612920Y-8979341D02*
X7612920Y-8941246D01*
X7612920Y-8941246D02*
X7622444Y-8893627D01*
X7622444Y-8893627D02*
X7631968Y-8865055D01*
X7631968Y-8865055D02*
X7641491Y-8846008D01*
X7641491Y-8846008D02*
X7660539Y-8817436D01*
X7660539Y-8817436D02*
X7670063Y-8807912D01*
X7755777Y-9036484D02*
X7793872Y-9036484D01*
X7793872Y-9036484D02*
X7812920Y-9026960D01*
X7812920Y-9026960D02*
X7822444Y-9017436D01*
X7822444Y-9017436D02*
X7841491Y-8988865D01*
X7841491Y-8988865D02*
X7851015Y-8950770D01*
X7851015Y-8950770D02*
X7851015Y-8874579D01*
X7851015Y-8874579D02*
X7841491Y-8855531D01*
X7841491Y-8855531D02*
X7831968Y-8846008D01*
X7831968Y-8846008D02*
X7812920Y-8836484D01*
X7812920Y-8836484D02*
X7774825Y-8836484D01*
X7774825Y-8836484D02*
X7755777Y-8846008D01*
X7755777Y-8846008D02*
X7746253Y-8855531D01*
X7746253Y-8855531D02*
X7736729Y-8874579D01*
X7736729Y-8874579D02*
X7736729Y-8922198D01*
X7736729Y-8922198D02*
X7746253Y-8941246D01*
X7746253Y-8941246D02*
X7755777Y-8950770D01*
X7755777Y-8950770D02*
X7774825Y-8960293D01*
X7774825Y-8960293D02*
X7812920Y-8960293D01*
X7812920Y-8960293D02*
X7831968Y-8950770D01*
X7831968Y-8950770D02*
X7841491Y-8941246D01*
X7841491Y-8941246D02*
X7851015Y-8922198D01*
X8089110Y-9036484D02*
X8089110Y-8836484D01*
X8174825Y-9036484D02*
X8174825Y-8931722D01*
X8174825Y-8931722D02*
X8165301Y-8912674D01*
X8165301Y-8912674D02*
X8146253Y-8903150D01*
X8146253Y-8903150D02*
X8117682Y-8903150D01*
X8117682Y-8903150D02*
X8098634Y-8912674D01*
X8098634Y-8912674D02*
X8089110Y-8922198D01*
X8298634Y-9036484D02*
X8279587Y-9026960D01*
X8279587Y-9026960D02*
X8270063Y-9017436D01*
X8270063Y-9017436D02*
X8260539Y-8998389D01*
X8260539Y-8998389D02*
X8260539Y-8941246D01*
X8260539Y-8941246D02*
X8270063Y-8922198D01*
X8270063Y-8922198D02*
X8279587Y-8912674D01*
X8279587Y-8912674D02*
X8298634Y-8903150D01*
X8298634Y-8903150D02*
X8327206Y-8903150D01*
X8327206Y-8903150D02*
X8346253Y-8912674D01*
X8346253Y-8912674D02*
X8355777Y-8922198D01*
X8355777Y-8922198D02*
X8365301Y-8941246D01*
X8365301Y-8941246D02*
X8365301Y-8998389D01*
X8365301Y-8998389D02*
X8355777Y-9017436D01*
X8355777Y-9017436D02*
X8346253Y-9026960D01*
X8346253Y-9026960D02*
X8327206Y-9036484D01*
X8327206Y-9036484D02*
X8298634Y-9036484D01*
X8479587Y-9036484D02*
X8460539Y-9026960D01*
X8460539Y-9026960D02*
X8451015Y-9007912D01*
X8451015Y-9007912D02*
X8451015Y-8836484D01*
X8631968Y-9026960D02*
X8612920Y-9036484D01*
X8612920Y-9036484D02*
X8574825Y-9036484D01*
X8574825Y-9036484D02*
X8555777Y-9026960D01*
X8555777Y-9026960D02*
X8546253Y-9007912D01*
X8546253Y-9007912D02*
X8546253Y-8931722D01*
X8546253Y-8931722D02*
X8555777Y-8912674D01*
X8555777Y-8912674D02*
X8574825Y-8903150D01*
X8574825Y-8903150D02*
X8612920Y-8903150D01*
X8612920Y-8903150D02*
X8631968Y-8912674D01*
X8631968Y-8912674D02*
X8641492Y-8931722D01*
X8641492Y-8931722D02*
X8641492Y-8950770D01*
X8641492Y-8950770D02*
X8546253Y-8969817D01*
X8717682Y-9026960D02*
X8736730Y-9036484D01*
X8736730Y-9036484D02*
X8774825Y-9036484D01*
X8774825Y-9036484D02*
X8793873Y-9026960D01*
X8793873Y-9026960D02*
X8803396Y-9007912D01*
X8803396Y-9007912D02*
X8803396Y-8998389D01*
X8803396Y-8998389D02*
X8793873Y-8979341D01*
X8793873Y-8979341D02*
X8774825Y-8969817D01*
X8774825Y-8969817D02*
X8746253Y-8969817D01*
X8746253Y-8969817D02*
X8727206Y-8960293D01*
X8727206Y-8960293D02*
X8717682Y-8941246D01*
X8717682Y-8941246D02*
X8717682Y-8931722D01*
X8717682Y-8931722D02*
X8727206Y-8912674D01*
X8727206Y-8912674D02*
X8746253Y-8903150D01*
X8746253Y-8903150D02*
X8774825Y-8903150D01*
X8774825Y-8903150D02*
X8793873Y-8912674D01*
X8870063Y-9112674D02*
X8879587Y-9103150D01*
X8879587Y-9103150D02*
X8898634Y-9074579D01*
X8898634Y-9074579D02*
X8908158Y-9055531D01*
X8908158Y-9055531D02*
X8917682Y-9026960D01*
X8917682Y-9026960D02*
X8927206Y-8979341D01*
X8927206Y-8979341D02*
X8927206Y-8941246D01*
X8927206Y-8941246D02*
X8917682Y-8893627D01*
X8917682Y-8893627D02*
X8908158Y-8865055D01*
X8908158Y-8865055D02*
X8898634Y-8846008D01*
X8898634Y-8846008D02*
X8879587Y-8817436D01*
X8879587Y-8817436D02*
X8870063Y-8807912D01*
D13*
X4095000Y-9209000D02*
G75*
G03*
X4095000Y-9209000I-20000J0D01*
G01*
D11*
X4393872Y-9100484D02*
X4412920Y-9100484D01*
X4412920Y-9100484D02*
X4431967Y-9110008D01*
X4431967Y-9110008D02*
X4441491Y-9119531D01*
X4441491Y-9119531D02*
X4451015Y-9138579D01*
X4451015Y-9138579D02*
X4460539Y-9176674D01*
X4460539Y-9176674D02*
X4460539Y-9224293D01*
X4460539Y-9224293D02*
X4451015Y-9262389D01*
X4451015Y-9262389D02*
X4441491Y-9281436D01*
X4441491Y-9281436D02*
X4431967Y-9290960D01*
X4431967Y-9290960D02*
X4412920Y-9300484D01*
X4412920Y-9300484D02*
X4393872Y-9300484D01*
X4393872Y-9300484D02*
X4374824Y-9290960D01*
X4374824Y-9290960D02*
X4365301Y-9281436D01*
X4365301Y-9281436D02*
X4355777Y-9262389D01*
X4355777Y-9262389D02*
X4346253Y-9224293D01*
X4346253Y-9224293D02*
X4346253Y-9176674D01*
X4346253Y-9176674D02*
X4355777Y-9138579D01*
X4355777Y-9138579D02*
X4365301Y-9119531D01*
X4365301Y-9119531D02*
X4374824Y-9110008D01*
X4374824Y-9110008D02*
X4393872Y-9100484D01*
X4546253Y-9281436D02*
X4555777Y-9290960D01*
X4555777Y-9290960D02*
X4546253Y-9300484D01*
X4546253Y-9300484D02*
X4536729Y-9290960D01*
X4536729Y-9290960D02*
X4546253Y-9281436D01*
X4546253Y-9281436D02*
X4546253Y-9300484D01*
X4727205Y-9167150D02*
X4727205Y-9300484D01*
X4679586Y-9090960D02*
X4631967Y-9233817D01*
X4631967Y-9233817D02*
X4755777Y-9233817D01*
X4870063Y-9100484D02*
X4889110Y-9100484D01*
X4889110Y-9100484D02*
X4908158Y-9110008D01*
X4908158Y-9110008D02*
X4917682Y-9119531D01*
X4917682Y-9119531D02*
X4927205Y-9138579D01*
X4927205Y-9138579D02*
X4936729Y-9176674D01*
X4936729Y-9176674D02*
X4936729Y-9224293D01*
X4936729Y-9224293D02*
X4927205Y-9262389D01*
X4927205Y-9262389D02*
X4917682Y-9281436D01*
X4917682Y-9281436D02*
X4908158Y-9290960D01*
X4908158Y-9290960D02*
X4889110Y-9300484D01*
X4889110Y-9300484D02*
X4870063Y-9300484D01*
X4870063Y-9300484D02*
X4851015Y-9290960D01*
X4851015Y-9290960D02*
X4841491Y-9281436D01*
X4841491Y-9281436D02*
X4831967Y-9262389D01*
X4831967Y-9262389D02*
X4822444Y-9224293D01*
X4822444Y-9224293D02*
X4822444Y-9176674D01*
X4822444Y-9176674D02*
X4831967Y-9138579D01*
X4831967Y-9138579D02*
X4841491Y-9119531D01*
X4841491Y-9119531D02*
X4851015Y-9110008D01*
X4851015Y-9110008D02*
X4870063Y-9100484D01*
X5060539Y-9100484D02*
X5079586Y-9100484D01*
X5079586Y-9100484D02*
X5098634Y-9110008D01*
X5098634Y-9110008D02*
X5108158Y-9119531D01*
X5108158Y-9119531D02*
X5117682Y-9138579D01*
X5117682Y-9138579D02*
X5127205Y-9176674D01*
X5127205Y-9176674D02*
X5127205Y-9224293D01*
X5127205Y-9224293D02*
X5117682Y-9262389D01*
X5117682Y-9262389D02*
X5108158Y-9281436D01*
X5108158Y-9281436D02*
X5098634Y-9290960D01*
X5098634Y-9290960D02*
X5079586Y-9300484D01*
X5079586Y-9300484D02*
X5060539Y-9300484D01*
X5060539Y-9300484D02*
X5041491Y-9290960D01*
X5041491Y-9290960D02*
X5031967Y-9281436D01*
X5031967Y-9281436D02*
X5022444Y-9262389D01*
X5022444Y-9262389D02*
X5012920Y-9224293D01*
X5012920Y-9224293D02*
X5012920Y-9176674D01*
X5012920Y-9176674D02*
X5022444Y-9138579D01*
X5022444Y-9138579D02*
X5031967Y-9119531D01*
X5031967Y-9119531D02*
X5041491Y-9110008D01*
X5041491Y-9110008D02*
X5060539Y-9100484D01*
X5212920Y-9300484D02*
X5212920Y-9167150D01*
X5212920Y-9186198D02*
X5222444Y-9176674D01*
X5222444Y-9176674D02*
X5241491Y-9167150D01*
X5241491Y-9167150D02*
X5270063Y-9167150D01*
X5270063Y-9167150D02*
X5289110Y-9176674D01*
X5289110Y-9176674D02*
X5298634Y-9195722D01*
X5298634Y-9195722D02*
X5298634Y-9300484D01*
X5298634Y-9195722D02*
X5308158Y-9176674D01*
X5308158Y-9176674D02*
X5327205Y-9167150D01*
X5327205Y-9167150D02*
X5355777Y-9167150D01*
X5355777Y-9167150D02*
X5374825Y-9176674D01*
X5374825Y-9176674D02*
X5384348Y-9195722D01*
X5384348Y-9195722D02*
X5384348Y-9300484D01*
X5479586Y-9300484D02*
X5479586Y-9167150D01*
X5479586Y-9186198D02*
X5489110Y-9176674D01*
X5489110Y-9176674D02*
X5508158Y-9167150D01*
X5508158Y-9167150D02*
X5536729Y-9167150D01*
X5536729Y-9167150D02*
X5555777Y-9176674D01*
X5555777Y-9176674D02*
X5565301Y-9195722D01*
X5565301Y-9195722D02*
X5565301Y-9300484D01*
X5565301Y-9195722D02*
X5574825Y-9176674D01*
X5574825Y-9176674D02*
X5593872Y-9167150D01*
X5593872Y-9167150D02*
X5622443Y-9167150D01*
X5622443Y-9167150D02*
X5641491Y-9176674D01*
X5641491Y-9176674D02*
X5651015Y-9195722D01*
X5651015Y-9195722D02*
X5651015Y-9300484D01*
X6041491Y-9090960D02*
X5870063Y-9348103D01*
X6298634Y-9100484D02*
X6317682Y-9100484D01*
X6317682Y-9100484D02*
X6336729Y-9110008D01*
X6336729Y-9110008D02*
X6346253Y-9119531D01*
X6346253Y-9119531D02*
X6355777Y-9138579D01*
X6355777Y-9138579D02*
X6365301Y-9176674D01*
X6365301Y-9176674D02*
X6365301Y-9224293D01*
X6365301Y-9224293D02*
X6355777Y-9262389D01*
X6355777Y-9262389D02*
X6346253Y-9281436D01*
X6346253Y-9281436D02*
X6336729Y-9290960D01*
X6336729Y-9290960D02*
X6317682Y-9300484D01*
X6317682Y-9300484D02*
X6298634Y-9300484D01*
X6298634Y-9300484D02*
X6279586Y-9290960D01*
X6279586Y-9290960D02*
X6270063Y-9281436D01*
X6270063Y-9281436D02*
X6260539Y-9262389D01*
X6260539Y-9262389D02*
X6251015Y-9224293D01*
X6251015Y-9224293D02*
X6251015Y-9176674D01*
X6251015Y-9176674D02*
X6260539Y-9138579D01*
X6260539Y-9138579D02*
X6270063Y-9119531D01*
X6270063Y-9119531D02*
X6279586Y-9110008D01*
X6279586Y-9110008D02*
X6298634Y-9100484D01*
X6451015Y-9281436D02*
X6460539Y-9290960D01*
X6460539Y-9290960D02*
X6451015Y-9300484D01*
X6451015Y-9300484D02*
X6441491Y-9290960D01*
X6441491Y-9290960D02*
X6451015Y-9281436D01*
X6451015Y-9281436D02*
X6451015Y-9300484D01*
X6584348Y-9100484D02*
X6603396Y-9100484D01*
X6603396Y-9100484D02*
X6622444Y-9110008D01*
X6622444Y-9110008D02*
X6631967Y-9119531D01*
X6631967Y-9119531D02*
X6641491Y-9138579D01*
X6641491Y-9138579D02*
X6651015Y-9176674D01*
X6651015Y-9176674D02*
X6651015Y-9224293D01*
X6651015Y-9224293D02*
X6641491Y-9262389D01*
X6641491Y-9262389D02*
X6631967Y-9281436D01*
X6631967Y-9281436D02*
X6622444Y-9290960D01*
X6622444Y-9290960D02*
X6603396Y-9300484D01*
X6603396Y-9300484D02*
X6584348Y-9300484D01*
X6584348Y-9300484D02*
X6565301Y-9290960D01*
X6565301Y-9290960D02*
X6555777Y-9281436D01*
X6555777Y-9281436D02*
X6546253Y-9262389D01*
X6546253Y-9262389D02*
X6536729Y-9224293D01*
X6536729Y-9224293D02*
X6536729Y-9176674D01*
X6536729Y-9176674D02*
X6546253Y-9138579D01*
X6546253Y-9138579D02*
X6555777Y-9119531D01*
X6555777Y-9119531D02*
X6565301Y-9110008D01*
X6565301Y-9110008D02*
X6584348Y-9100484D01*
X6841491Y-9300484D02*
X6727206Y-9300484D01*
X6784348Y-9300484D02*
X6784348Y-9100484D01*
X6784348Y-9100484D02*
X6765301Y-9129055D01*
X6765301Y-9129055D02*
X6746253Y-9148103D01*
X6746253Y-9148103D02*
X6727206Y-9157627D01*
X7022444Y-9100484D02*
X6927206Y-9100484D01*
X6927206Y-9100484D02*
X6917682Y-9195722D01*
X6917682Y-9195722D02*
X6927206Y-9186198D01*
X6927206Y-9186198D02*
X6946253Y-9176674D01*
X6946253Y-9176674D02*
X6993872Y-9176674D01*
X6993872Y-9176674D02*
X7012920Y-9186198D01*
X7012920Y-9186198D02*
X7022444Y-9195722D01*
X7022444Y-9195722D02*
X7031967Y-9214770D01*
X7031967Y-9214770D02*
X7031967Y-9262389D01*
X7031967Y-9262389D02*
X7022444Y-9281436D01*
X7022444Y-9281436D02*
X7012920Y-9290960D01*
X7012920Y-9290960D02*
X6993872Y-9300484D01*
X6993872Y-9300484D02*
X6946253Y-9300484D01*
X6946253Y-9300484D02*
X6927206Y-9290960D01*
X6927206Y-9290960D02*
X6917682Y-9281436D01*
X7098634Y-9100484D02*
X7231967Y-9100484D01*
X7231967Y-9100484D02*
X7146253Y-9300484D01*
X7298634Y-9100484D02*
X7298634Y-9138579D01*
X7374825Y-9100484D02*
X7374825Y-9138579D01*
X7670063Y-9376674D02*
X7660539Y-9367150D01*
X7660539Y-9367150D02*
X7641491Y-9338579D01*
X7641491Y-9338579D02*
X7631968Y-9319531D01*
X7631968Y-9319531D02*
X7622444Y-9290960D01*
X7622444Y-9290960D02*
X7612920Y-9243341D01*
X7612920Y-9243341D02*
X7612920Y-9205246D01*
X7612920Y-9205246D02*
X7622444Y-9157627D01*
X7622444Y-9157627D02*
X7631968Y-9129055D01*
X7631968Y-9129055D02*
X7641491Y-9110008D01*
X7641491Y-9110008D02*
X7660539Y-9081436D01*
X7660539Y-9081436D02*
X7670063Y-9071912D01*
X7841491Y-9100484D02*
X7746253Y-9100484D01*
X7746253Y-9100484D02*
X7736729Y-9195722D01*
X7736729Y-9195722D02*
X7746253Y-9186198D01*
X7746253Y-9186198D02*
X7765301Y-9176674D01*
X7765301Y-9176674D02*
X7812920Y-9176674D01*
X7812920Y-9176674D02*
X7831968Y-9186198D01*
X7831968Y-9186198D02*
X7841491Y-9195722D01*
X7841491Y-9195722D02*
X7851015Y-9214770D01*
X7851015Y-9214770D02*
X7851015Y-9262389D01*
X7851015Y-9262389D02*
X7841491Y-9281436D01*
X7841491Y-9281436D02*
X7831968Y-9290960D01*
X7831968Y-9290960D02*
X7812920Y-9300484D01*
X7812920Y-9300484D02*
X7765301Y-9300484D01*
X7765301Y-9300484D02*
X7746253Y-9290960D01*
X7746253Y-9290960D02*
X7736729Y-9281436D01*
X8022444Y-9167150D02*
X8022444Y-9300484D01*
X7974825Y-9090960D02*
X7927206Y-9233817D01*
X7927206Y-9233817D02*
X8051015Y-9233817D01*
X8279587Y-9300484D02*
X8279587Y-9100484D01*
X8365301Y-9300484D02*
X8365301Y-9195722D01*
X8365301Y-9195722D02*
X8355777Y-9176674D01*
X8355777Y-9176674D02*
X8336730Y-9167150D01*
X8336730Y-9167150D02*
X8308158Y-9167150D01*
X8308158Y-9167150D02*
X8289110Y-9176674D01*
X8289110Y-9176674D02*
X8279587Y-9186198D01*
X8489111Y-9300484D02*
X8470063Y-9290960D01*
X8470063Y-9290960D02*
X8460539Y-9281436D01*
X8460539Y-9281436D02*
X8451015Y-9262389D01*
X8451015Y-9262389D02*
X8451015Y-9205246D01*
X8451015Y-9205246D02*
X8460539Y-9186198D01*
X8460539Y-9186198D02*
X8470063Y-9176674D01*
X8470063Y-9176674D02*
X8489111Y-9167150D01*
X8489111Y-9167150D02*
X8517682Y-9167150D01*
X8517682Y-9167150D02*
X8536730Y-9176674D01*
X8536730Y-9176674D02*
X8546253Y-9186198D01*
X8546253Y-9186198D02*
X8555777Y-9205246D01*
X8555777Y-9205246D02*
X8555777Y-9262389D01*
X8555777Y-9262389D02*
X8546253Y-9281436D01*
X8546253Y-9281436D02*
X8536730Y-9290960D01*
X8536730Y-9290960D02*
X8517682Y-9300484D01*
X8517682Y-9300484D02*
X8489111Y-9300484D01*
X8670063Y-9300484D02*
X8651015Y-9290960D01*
X8651015Y-9290960D02*
X8641492Y-9271912D01*
X8641492Y-9271912D02*
X8641492Y-9100484D01*
X8822444Y-9290960D02*
X8803396Y-9300484D01*
X8803396Y-9300484D02*
X8765301Y-9300484D01*
X8765301Y-9300484D02*
X8746253Y-9290960D01*
X8746253Y-9290960D02*
X8736730Y-9271912D01*
X8736730Y-9271912D02*
X8736730Y-9195722D01*
X8736730Y-9195722D02*
X8746253Y-9176674D01*
X8746253Y-9176674D02*
X8765301Y-9167150D01*
X8765301Y-9167150D02*
X8803396Y-9167150D01*
X8803396Y-9167150D02*
X8822444Y-9176674D01*
X8822444Y-9176674D02*
X8831968Y-9195722D01*
X8831968Y-9195722D02*
X8831968Y-9214770D01*
X8831968Y-9214770D02*
X8736730Y-9233817D01*
X8908158Y-9290960D02*
X8927206Y-9300484D01*
X8927206Y-9300484D02*
X8965301Y-9300484D01*
X8965301Y-9300484D02*
X8984349Y-9290960D01*
X8984349Y-9290960D02*
X8993873Y-9271912D01*
X8993873Y-9271912D02*
X8993873Y-9262389D01*
X8993873Y-9262389D02*
X8984349Y-9243341D01*
X8984349Y-9243341D02*
X8965301Y-9233817D01*
X8965301Y-9233817D02*
X8936730Y-9233817D01*
X8936730Y-9233817D02*
X8917682Y-9224293D01*
X8917682Y-9224293D02*
X8908158Y-9205246D01*
X8908158Y-9205246D02*
X8908158Y-9195722D01*
X8908158Y-9195722D02*
X8917682Y-9176674D01*
X8917682Y-9176674D02*
X8936730Y-9167150D01*
X8936730Y-9167150D02*
X8965301Y-9167150D01*
X8965301Y-9167150D02*
X8984349Y-9176674D01*
X9060539Y-9376674D02*
X9070063Y-9367150D01*
X9070063Y-9367150D02*
X9089111Y-9338579D01*
X9089111Y-9338579D02*
X9098634Y-9319531D01*
X9098634Y-9319531D02*
X9108158Y-9290960D01*
X9108158Y-9290960D02*
X9117682Y-9243341D01*
X9117682Y-9243341D02*
X9117682Y-9205246D01*
X9117682Y-9205246D02*
X9108158Y-9157627D01*
X9108158Y-9157627D02*
X9098634Y-9129055D01*
X9098634Y-9129055D02*
X9089111Y-9110008D01*
X9089111Y-9110008D02*
X9070063Y-9081436D01*
X9070063Y-9081436D02*
X9060539Y-9071912D01*
D14*
X4065000Y-9443000D02*
X4065000Y-9503000D01*
X4035000Y-9473000D02*
X4095000Y-9473000D01*
D11*
X4393872Y-9364484D02*
X4412920Y-9364484D01*
X4412920Y-9364484D02*
X4431967Y-9374008D01*
X4431967Y-9374008D02*
X4441491Y-9383531D01*
X4441491Y-9383531D02*
X4451015Y-9402579D01*
X4451015Y-9402579D02*
X4460539Y-9440674D01*
X4460539Y-9440674D02*
X4460539Y-9488293D01*
X4460539Y-9488293D02*
X4451015Y-9526389D01*
X4451015Y-9526389D02*
X4441491Y-9545436D01*
X4441491Y-9545436D02*
X4431967Y-9554960D01*
X4431967Y-9554960D02*
X4412920Y-9564484D01*
X4412920Y-9564484D02*
X4393872Y-9564484D01*
X4393872Y-9564484D02*
X4374824Y-9554960D01*
X4374824Y-9554960D02*
X4365301Y-9545436D01*
X4365301Y-9545436D02*
X4355777Y-9526389D01*
X4355777Y-9526389D02*
X4346253Y-9488293D01*
X4346253Y-9488293D02*
X4346253Y-9440674D01*
X4346253Y-9440674D02*
X4355777Y-9402579D01*
X4355777Y-9402579D02*
X4365301Y-9383531D01*
X4365301Y-9383531D02*
X4374824Y-9374008D01*
X4374824Y-9374008D02*
X4393872Y-9364484D01*
X4546253Y-9545436D02*
X4555777Y-9554960D01*
X4555777Y-9554960D02*
X4546253Y-9564484D01*
X4546253Y-9564484D02*
X4536729Y-9554960D01*
X4536729Y-9554960D02*
X4546253Y-9545436D01*
X4546253Y-9545436D02*
X4546253Y-9564484D01*
X4727205Y-9364484D02*
X4689110Y-9364484D01*
X4689110Y-9364484D02*
X4670063Y-9374008D01*
X4670063Y-9374008D02*
X4660539Y-9383531D01*
X4660539Y-9383531D02*
X4641491Y-9412103D01*
X4641491Y-9412103D02*
X4631967Y-9450198D01*
X4631967Y-9450198D02*
X4631967Y-9526389D01*
X4631967Y-9526389D02*
X4641491Y-9545436D01*
X4641491Y-9545436D02*
X4651015Y-9554960D01*
X4651015Y-9554960D02*
X4670063Y-9564484D01*
X4670063Y-9564484D02*
X4708158Y-9564484D01*
X4708158Y-9564484D02*
X4727205Y-9554960D01*
X4727205Y-9554960D02*
X4736729Y-9545436D01*
X4736729Y-9545436D02*
X4746253Y-9526389D01*
X4746253Y-9526389D02*
X4746253Y-9478770D01*
X4746253Y-9478770D02*
X4736729Y-9459722D01*
X4736729Y-9459722D02*
X4727205Y-9450198D01*
X4727205Y-9450198D02*
X4708158Y-9440674D01*
X4708158Y-9440674D02*
X4670063Y-9440674D01*
X4670063Y-9440674D02*
X4651015Y-9450198D01*
X4651015Y-9450198D02*
X4641491Y-9459722D01*
X4641491Y-9459722D02*
X4631967Y-9478770D01*
X4870063Y-9364484D02*
X4889110Y-9364484D01*
X4889110Y-9364484D02*
X4908158Y-9374008D01*
X4908158Y-9374008D02*
X4917682Y-9383531D01*
X4917682Y-9383531D02*
X4927205Y-9402579D01*
X4927205Y-9402579D02*
X4936729Y-9440674D01*
X4936729Y-9440674D02*
X4936729Y-9488293D01*
X4936729Y-9488293D02*
X4927205Y-9526389D01*
X4927205Y-9526389D02*
X4917682Y-9545436D01*
X4917682Y-9545436D02*
X4908158Y-9554960D01*
X4908158Y-9554960D02*
X4889110Y-9564484D01*
X4889110Y-9564484D02*
X4870063Y-9564484D01*
X4870063Y-9564484D02*
X4851015Y-9554960D01*
X4851015Y-9554960D02*
X4841491Y-9545436D01*
X4841491Y-9545436D02*
X4831967Y-9526389D01*
X4831967Y-9526389D02*
X4822444Y-9488293D01*
X4822444Y-9488293D02*
X4822444Y-9440674D01*
X4822444Y-9440674D02*
X4831967Y-9402579D01*
X4831967Y-9402579D02*
X4841491Y-9383531D01*
X4841491Y-9383531D02*
X4851015Y-9374008D01*
X4851015Y-9374008D02*
X4870063Y-9364484D01*
X5060539Y-9364484D02*
X5079586Y-9364484D01*
X5079586Y-9364484D02*
X5098634Y-9374008D01*
X5098634Y-9374008D02*
X5108158Y-9383531D01*
X5108158Y-9383531D02*
X5117682Y-9402579D01*
X5117682Y-9402579D02*
X5127205Y-9440674D01*
X5127205Y-9440674D02*
X5127205Y-9488293D01*
X5127205Y-9488293D02*
X5117682Y-9526389D01*
X5117682Y-9526389D02*
X5108158Y-9545436D01*
X5108158Y-9545436D02*
X5098634Y-9554960D01*
X5098634Y-9554960D02*
X5079586Y-9564484D01*
X5079586Y-9564484D02*
X5060539Y-9564484D01*
X5060539Y-9564484D02*
X5041491Y-9554960D01*
X5041491Y-9554960D02*
X5031967Y-9545436D01*
X5031967Y-9545436D02*
X5022444Y-9526389D01*
X5022444Y-9526389D02*
X5012920Y-9488293D01*
X5012920Y-9488293D02*
X5012920Y-9440674D01*
X5012920Y-9440674D02*
X5022444Y-9402579D01*
X5022444Y-9402579D02*
X5031967Y-9383531D01*
X5031967Y-9383531D02*
X5041491Y-9374008D01*
X5041491Y-9374008D02*
X5060539Y-9364484D01*
X5212920Y-9564484D02*
X5212920Y-9431150D01*
X5212920Y-9450198D02*
X5222444Y-9440674D01*
X5222444Y-9440674D02*
X5241491Y-9431150D01*
X5241491Y-9431150D02*
X5270063Y-9431150D01*
X5270063Y-9431150D02*
X5289110Y-9440674D01*
X5289110Y-9440674D02*
X5298634Y-9459722D01*
X5298634Y-9459722D02*
X5298634Y-9564484D01*
X5298634Y-9459722D02*
X5308158Y-9440674D01*
X5308158Y-9440674D02*
X5327205Y-9431150D01*
X5327205Y-9431150D02*
X5355777Y-9431150D01*
X5355777Y-9431150D02*
X5374825Y-9440674D01*
X5374825Y-9440674D02*
X5384348Y-9459722D01*
X5384348Y-9459722D02*
X5384348Y-9564484D01*
X5479586Y-9564484D02*
X5479586Y-9431150D01*
X5479586Y-9450198D02*
X5489110Y-9440674D01*
X5489110Y-9440674D02*
X5508158Y-9431150D01*
X5508158Y-9431150D02*
X5536729Y-9431150D01*
X5536729Y-9431150D02*
X5555777Y-9440674D01*
X5555777Y-9440674D02*
X5565301Y-9459722D01*
X5565301Y-9459722D02*
X5565301Y-9564484D01*
X5565301Y-9459722D02*
X5574825Y-9440674D01*
X5574825Y-9440674D02*
X5593872Y-9431150D01*
X5593872Y-9431150D02*
X5622443Y-9431150D01*
X5622443Y-9431150D02*
X5641491Y-9440674D01*
X5641491Y-9440674D02*
X5651015Y-9459722D01*
X5651015Y-9459722D02*
X5651015Y-9564484D01*
X6041491Y-9354960D02*
X5870063Y-9612103D01*
X6298634Y-9364484D02*
X6317682Y-9364484D01*
X6317682Y-9364484D02*
X6336729Y-9374008D01*
X6336729Y-9374008D02*
X6346253Y-9383531D01*
X6346253Y-9383531D02*
X6355777Y-9402579D01*
X6355777Y-9402579D02*
X6365301Y-9440674D01*
X6365301Y-9440674D02*
X6365301Y-9488293D01*
X6365301Y-9488293D02*
X6355777Y-9526389D01*
X6355777Y-9526389D02*
X6346253Y-9545436D01*
X6346253Y-9545436D02*
X6336729Y-9554960D01*
X6336729Y-9554960D02*
X6317682Y-9564484D01*
X6317682Y-9564484D02*
X6298634Y-9564484D01*
X6298634Y-9564484D02*
X6279586Y-9554960D01*
X6279586Y-9554960D02*
X6270063Y-9545436D01*
X6270063Y-9545436D02*
X6260539Y-9526389D01*
X6260539Y-9526389D02*
X6251015Y-9488293D01*
X6251015Y-9488293D02*
X6251015Y-9440674D01*
X6251015Y-9440674D02*
X6260539Y-9402579D01*
X6260539Y-9402579D02*
X6270063Y-9383531D01*
X6270063Y-9383531D02*
X6279586Y-9374008D01*
X6279586Y-9374008D02*
X6298634Y-9364484D01*
X6451015Y-9545436D02*
X6460539Y-9554960D01*
X6460539Y-9554960D02*
X6451015Y-9564484D01*
X6451015Y-9564484D02*
X6441491Y-9554960D01*
X6441491Y-9554960D02*
X6451015Y-9545436D01*
X6451015Y-9545436D02*
X6451015Y-9564484D01*
X6584348Y-9364484D02*
X6603396Y-9364484D01*
X6603396Y-9364484D02*
X6622444Y-9374008D01*
X6622444Y-9374008D02*
X6631967Y-9383531D01*
X6631967Y-9383531D02*
X6641491Y-9402579D01*
X6641491Y-9402579D02*
X6651015Y-9440674D01*
X6651015Y-9440674D02*
X6651015Y-9488293D01*
X6651015Y-9488293D02*
X6641491Y-9526389D01*
X6641491Y-9526389D02*
X6631967Y-9545436D01*
X6631967Y-9545436D02*
X6622444Y-9554960D01*
X6622444Y-9554960D02*
X6603396Y-9564484D01*
X6603396Y-9564484D02*
X6584348Y-9564484D01*
X6584348Y-9564484D02*
X6565301Y-9554960D01*
X6565301Y-9554960D02*
X6555777Y-9545436D01*
X6555777Y-9545436D02*
X6546253Y-9526389D01*
X6546253Y-9526389D02*
X6536729Y-9488293D01*
X6536729Y-9488293D02*
X6536729Y-9440674D01*
X6536729Y-9440674D02*
X6546253Y-9402579D01*
X6546253Y-9402579D02*
X6555777Y-9383531D01*
X6555777Y-9383531D02*
X6565301Y-9374008D01*
X6565301Y-9374008D02*
X6584348Y-9364484D01*
X6727206Y-9383531D02*
X6736729Y-9374008D01*
X6736729Y-9374008D02*
X6755777Y-9364484D01*
X6755777Y-9364484D02*
X6803396Y-9364484D01*
X6803396Y-9364484D02*
X6822444Y-9374008D01*
X6822444Y-9374008D02*
X6831967Y-9383531D01*
X6831967Y-9383531D02*
X6841491Y-9402579D01*
X6841491Y-9402579D02*
X6841491Y-9421627D01*
X6841491Y-9421627D02*
X6831967Y-9450198D01*
X6831967Y-9450198D02*
X6717682Y-9564484D01*
X6717682Y-9564484D02*
X6841491Y-9564484D01*
X6908158Y-9364484D02*
X7031967Y-9364484D01*
X7031967Y-9364484D02*
X6965301Y-9440674D01*
X6965301Y-9440674D02*
X6993872Y-9440674D01*
X6993872Y-9440674D02*
X7012920Y-9450198D01*
X7012920Y-9450198D02*
X7022444Y-9459722D01*
X7022444Y-9459722D02*
X7031967Y-9478770D01*
X7031967Y-9478770D02*
X7031967Y-9526389D01*
X7031967Y-9526389D02*
X7022444Y-9545436D01*
X7022444Y-9545436D02*
X7012920Y-9554960D01*
X7012920Y-9554960D02*
X6993872Y-9564484D01*
X6993872Y-9564484D02*
X6936729Y-9564484D01*
X6936729Y-9564484D02*
X6917682Y-9554960D01*
X6917682Y-9554960D02*
X6908158Y-9545436D01*
X7203396Y-9364484D02*
X7165301Y-9364484D01*
X7165301Y-9364484D02*
X7146253Y-9374008D01*
X7146253Y-9374008D02*
X7136729Y-9383531D01*
X7136729Y-9383531D02*
X7117682Y-9412103D01*
X7117682Y-9412103D02*
X7108158Y-9450198D01*
X7108158Y-9450198D02*
X7108158Y-9526389D01*
X7108158Y-9526389D02*
X7117682Y-9545436D01*
X7117682Y-9545436D02*
X7127206Y-9554960D01*
X7127206Y-9554960D02*
X7146253Y-9564484D01*
X7146253Y-9564484D02*
X7184348Y-9564484D01*
X7184348Y-9564484D02*
X7203396Y-9554960D01*
X7203396Y-9554960D02*
X7212920Y-9545436D01*
X7212920Y-9545436D02*
X7222444Y-9526389D01*
X7222444Y-9526389D02*
X7222444Y-9478770D01*
X7222444Y-9478770D02*
X7212920Y-9459722D01*
X7212920Y-9459722D02*
X7203396Y-9450198D01*
X7203396Y-9450198D02*
X7184348Y-9440674D01*
X7184348Y-9440674D02*
X7146253Y-9440674D01*
X7146253Y-9440674D02*
X7127206Y-9450198D01*
X7127206Y-9450198D02*
X7117682Y-9459722D01*
X7117682Y-9459722D02*
X7108158Y-9478770D01*
X7298634Y-9364484D02*
X7298634Y-9402579D01*
X7374825Y-9364484D02*
X7374825Y-9402579D01*
X7670063Y-9640674D02*
X7660539Y-9631150D01*
X7660539Y-9631150D02*
X7641491Y-9602579D01*
X7641491Y-9602579D02*
X7631968Y-9583531D01*
X7631968Y-9583531D02*
X7622444Y-9554960D01*
X7622444Y-9554960D02*
X7612920Y-9507341D01*
X7612920Y-9507341D02*
X7612920Y-9469246D01*
X7612920Y-9469246D02*
X7622444Y-9421627D01*
X7622444Y-9421627D02*
X7631968Y-9393055D01*
X7631968Y-9393055D02*
X7641491Y-9374008D01*
X7641491Y-9374008D02*
X7660539Y-9345436D01*
X7660539Y-9345436D02*
X7670063Y-9335912D01*
X7736729Y-9383531D02*
X7746253Y-9374008D01*
X7746253Y-9374008D02*
X7765301Y-9364484D01*
X7765301Y-9364484D02*
X7812920Y-9364484D01*
X7812920Y-9364484D02*
X7831968Y-9374008D01*
X7831968Y-9374008D02*
X7841491Y-9383531D01*
X7841491Y-9383531D02*
X7851015Y-9402579D01*
X7851015Y-9402579D02*
X7851015Y-9421627D01*
X7851015Y-9421627D02*
X7841491Y-9450198D01*
X7841491Y-9450198D02*
X7727206Y-9564484D01*
X7727206Y-9564484D02*
X7851015Y-9564484D01*
X8089110Y-9564484D02*
X8089110Y-9364484D01*
X8174825Y-9564484D02*
X8174825Y-9459722D01*
X8174825Y-9459722D02*
X8165301Y-9440674D01*
X8165301Y-9440674D02*
X8146253Y-9431150D01*
X8146253Y-9431150D02*
X8117682Y-9431150D01*
X8117682Y-9431150D02*
X8098634Y-9440674D01*
X8098634Y-9440674D02*
X8089110Y-9450198D01*
X8298634Y-9564484D02*
X8279587Y-9554960D01*
X8279587Y-9554960D02*
X8270063Y-9545436D01*
X8270063Y-9545436D02*
X8260539Y-9526389D01*
X8260539Y-9526389D02*
X8260539Y-9469246D01*
X8260539Y-9469246D02*
X8270063Y-9450198D01*
X8270063Y-9450198D02*
X8279587Y-9440674D01*
X8279587Y-9440674D02*
X8298634Y-9431150D01*
X8298634Y-9431150D02*
X8327206Y-9431150D01*
X8327206Y-9431150D02*
X8346253Y-9440674D01*
X8346253Y-9440674D02*
X8355777Y-9450198D01*
X8355777Y-9450198D02*
X8365301Y-9469246D01*
X8365301Y-9469246D02*
X8365301Y-9526389D01*
X8365301Y-9526389D02*
X8355777Y-9545436D01*
X8355777Y-9545436D02*
X8346253Y-9554960D01*
X8346253Y-9554960D02*
X8327206Y-9564484D01*
X8327206Y-9564484D02*
X8298634Y-9564484D01*
X8479587Y-9564484D02*
X8460539Y-9554960D01*
X8460539Y-9554960D02*
X8451015Y-9535912D01*
X8451015Y-9535912D02*
X8451015Y-9364484D01*
X8631968Y-9554960D02*
X8612920Y-9564484D01*
X8612920Y-9564484D02*
X8574825Y-9564484D01*
X8574825Y-9564484D02*
X8555777Y-9554960D01*
X8555777Y-9554960D02*
X8546253Y-9535912D01*
X8546253Y-9535912D02*
X8546253Y-9459722D01*
X8546253Y-9459722D02*
X8555777Y-9440674D01*
X8555777Y-9440674D02*
X8574825Y-9431150D01*
X8574825Y-9431150D02*
X8612920Y-9431150D01*
X8612920Y-9431150D02*
X8631968Y-9440674D01*
X8631968Y-9440674D02*
X8641492Y-9459722D01*
X8641492Y-9459722D02*
X8641492Y-9478770D01*
X8641492Y-9478770D02*
X8546253Y-9497817D01*
X8717682Y-9554960D02*
X8736730Y-9564484D01*
X8736730Y-9564484D02*
X8774825Y-9564484D01*
X8774825Y-9564484D02*
X8793873Y-9554960D01*
X8793873Y-9554960D02*
X8803396Y-9535912D01*
X8803396Y-9535912D02*
X8803396Y-9526389D01*
X8803396Y-9526389D02*
X8793873Y-9507341D01*
X8793873Y-9507341D02*
X8774825Y-9497817D01*
X8774825Y-9497817D02*
X8746253Y-9497817D01*
X8746253Y-9497817D02*
X8727206Y-9488293D01*
X8727206Y-9488293D02*
X8717682Y-9469246D01*
X8717682Y-9469246D02*
X8717682Y-9459722D01*
X8717682Y-9459722D02*
X8727206Y-9440674D01*
X8727206Y-9440674D02*
X8746253Y-9431150D01*
X8746253Y-9431150D02*
X8774825Y-9431150D01*
X8774825Y-9431150D02*
X8793873Y-9440674D01*
X8870063Y-9640674D02*
X8879587Y-9631150D01*
X8879587Y-9631150D02*
X8898634Y-9602579D01*
X8898634Y-9602579D02*
X8908158Y-9583531D01*
X8908158Y-9583531D02*
X8917682Y-9554960D01*
X8917682Y-9554960D02*
X8927206Y-9507341D01*
X8927206Y-9507341D02*
X8927206Y-9469246D01*
X8927206Y-9469246D02*
X8917682Y-9421627D01*
X8917682Y-9421627D02*
X8908158Y-9393055D01*
X8908158Y-9393055D02*
X8898634Y-9374008D01*
X8898634Y-9374008D02*
X8879587Y-9345436D01*
X8879587Y-9345436D02*
X8870063Y-9335912D01*
D15*
X4083841Y-9763941D02*
X4083841Y-9710059D01*
X4029959Y-9710059D01*
X4029959Y-9763941D01*
X4083841Y-9763941D01*
D11*
X4393872Y-9628484D02*
X4412920Y-9628484D01*
X4412920Y-9628484D02*
X4431967Y-9638008D01*
X4431967Y-9638008D02*
X4441491Y-9647531D01*
X4441491Y-9647531D02*
X4451015Y-9666579D01*
X4451015Y-9666579D02*
X4460539Y-9704674D01*
X4460539Y-9704674D02*
X4460539Y-9752293D01*
X4460539Y-9752293D02*
X4451015Y-9790389D01*
X4451015Y-9790389D02*
X4441491Y-9809436D01*
X4441491Y-9809436D02*
X4431967Y-9818960D01*
X4431967Y-9818960D02*
X4412920Y-9828484D01*
X4412920Y-9828484D02*
X4393872Y-9828484D01*
X4393872Y-9828484D02*
X4374824Y-9818960D01*
X4374824Y-9818960D02*
X4365301Y-9809436D01*
X4365301Y-9809436D02*
X4355777Y-9790389D01*
X4355777Y-9790389D02*
X4346253Y-9752293D01*
X4346253Y-9752293D02*
X4346253Y-9704674D01*
X4346253Y-9704674D02*
X4355777Y-9666579D01*
X4355777Y-9666579D02*
X4365301Y-9647531D01*
X4365301Y-9647531D02*
X4374824Y-9638008D01*
X4374824Y-9638008D02*
X4393872Y-9628484D01*
X4546253Y-9809436D02*
X4555777Y-9818960D01*
X4555777Y-9818960D02*
X4546253Y-9828484D01*
X4546253Y-9828484D02*
X4536729Y-9818960D01*
X4536729Y-9818960D02*
X4546253Y-9809436D01*
X4546253Y-9809436D02*
X4546253Y-9828484D01*
X4622444Y-9628484D02*
X4755777Y-9628484D01*
X4755777Y-9628484D02*
X4670063Y-9828484D01*
X4917682Y-9628484D02*
X4879586Y-9628484D01*
X4879586Y-9628484D02*
X4860539Y-9638008D01*
X4860539Y-9638008D02*
X4851015Y-9647531D01*
X4851015Y-9647531D02*
X4831967Y-9676103D01*
X4831967Y-9676103D02*
X4822444Y-9714198D01*
X4822444Y-9714198D02*
X4822444Y-9790389D01*
X4822444Y-9790389D02*
X4831967Y-9809436D01*
X4831967Y-9809436D02*
X4841491Y-9818960D01*
X4841491Y-9818960D02*
X4860539Y-9828484D01*
X4860539Y-9828484D02*
X4898634Y-9828484D01*
X4898634Y-9828484D02*
X4917682Y-9818960D01*
X4917682Y-9818960D02*
X4927205Y-9809436D01*
X4927205Y-9809436D02*
X4936729Y-9790389D01*
X4936729Y-9790389D02*
X4936729Y-9742770D01*
X4936729Y-9742770D02*
X4927205Y-9723722D01*
X4927205Y-9723722D02*
X4917682Y-9714198D01*
X4917682Y-9714198D02*
X4898634Y-9704674D01*
X4898634Y-9704674D02*
X4860539Y-9704674D01*
X4860539Y-9704674D02*
X4841491Y-9714198D01*
X4841491Y-9714198D02*
X4831967Y-9723722D01*
X4831967Y-9723722D02*
X4822444Y-9742770D01*
X5012920Y-9647531D02*
X5022444Y-9638008D01*
X5022444Y-9638008D02*
X5041491Y-9628484D01*
X5041491Y-9628484D02*
X5089110Y-9628484D01*
X5089110Y-9628484D02*
X5108158Y-9638008D01*
X5108158Y-9638008D02*
X5117682Y-9647531D01*
X5117682Y-9647531D02*
X5127205Y-9666579D01*
X5127205Y-9666579D02*
X5127205Y-9685627D01*
X5127205Y-9685627D02*
X5117682Y-9714198D01*
X5117682Y-9714198D02*
X5003396Y-9828484D01*
X5003396Y-9828484D02*
X5127205Y-9828484D01*
X5212920Y-9828484D02*
X5212920Y-9695150D01*
X5212920Y-9714198D02*
X5222444Y-9704674D01*
X5222444Y-9704674D02*
X5241491Y-9695150D01*
X5241491Y-9695150D02*
X5270063Y-9695150D01*
X5270063Y-9695150D02*
X5289110Y-9704674D01*
X5289110Y-9704674D02*
X5298634Y-9723722D01*
X5298634Y-9723722D02*
X5298634Y-9828484D01*
X5298634Y-9723722D02*
X5308158Y-9704674D01*
X5308158Y-9704674D02*
X5327205Y-9695150D01*
X5327205Y-9695150D02*
X5355777Y-9695150D01*
X5355777Y-9695150D02*
X5374825Y-9704674D01*
X5374825Y-9704674D02*
X5384348Y-9723722D01*
X5384348Y-9723722D02*
X5384348Y-9828484D01*
X5479586Y-9828484D02*
X5479586Y-9695150D01*
X5479586Y-9714198D02*
X5489110Y-9704674D01*
X5489110Y-9704674D02*
X5508158Y-9695150D01*
X5508158Y-9695150D02*
X5536729Y-9695150D01*
X5536729Y-9695150D02*
X5555777Y-9704674D01*
X5555777Y-9704674D02*
X5565301Y-9723722D01*
X5565301Y-9723722D02*
X5565301Y-9828484D01*
X5565301Y-9723722D02*
X5574825Y-9704674D01*
X5574825Y-9704674D02*
X5593872Y-9695150D01*
X5593872Y-9695150D02*
X5622443Y-9695150D01*
X5622443Y-9695150D02*
X5641491Y-9704674D01*
X5641491Y-9704674D02*
X5651015Y-9723722D01*
X5651015Y-9723722D02*
X5651015Y-9828484D01*
X6041491Y-9618960D02*
X5870063Y-9876103D01*
X6298634Y-9628484D02*
X6317682Y-9628484D01*
X6317682Y-9628484D02*
X6336729Y-9638008D01*
X6336729Y-9638008D02*
X6346253Y-9647531D01*
X6346253Y-9647531D02*
X6355777Y-9666579D01*
X6355777Y-9666579D02*
X6365301Y-9704674D01*
X6365301Y-9704674D02*
X6365301Y-9752293D01*
X6365301Y-9752293D02*
X6355777Y-9790389D01*
X6355777Y-9790389D02*
X6346253Y-9809436D01*
X6346253Y-9809436D02*
X6336729Y-9818960D01*
X6336729Y-9818960D02*
X6317682Y-9828484D01*
X6317682Y-9828484D02*
X6298634Y-9828484D01*
X6298634Y-9828484D02*
X6279586Y-9818960D01*
X6279586Y-9818960D02*
X6270063Y-9809436D01*
X6270063Y-9809436D02*
X6260539Y-9790389D01*
X6260539Y-9790389D02*
X6251015Y-9752293D01*
X6251015Y-9752293D02*
X6251015Y-9704674D01*
X6251015Y-9704674D02*
X6260539Y-9666579D01*
X6260539Y-9666579D02*
X6270063Y-9647531D01*
X6270063Y-9647531D02*
X6279586Y-9638008D01*
X6279586Y-9638008D02*
X6298634Y-9628484D01*
X6451015Y-9809436D02*
X6460539Y-9818960D01*
X6460539Y-9818960D02*
X6451015Y-9828484D01*
X6451015Y-9828484D02*
X6441491Y-9818960D01*
X6441491Y-9818960D02*
X6451015Y-9809436D01*
X6451015Y-9809436D02*
X6451015Y-9828484D01*
X6584348Y-9628484D02*
X6603396Y-9628484D01*
X6603396Y-9628484D02*
X6622444Y-9638008D01*
X6622444Y-9638008D02*
X6631967Y-9647531D01*
X6631967Y-9647531D02*
X6641491Y-9666579D01*
X6641491Y-9666579D02*
X6651015Y-9704674D01*
X6651015Y-9704674D02*
X6651015Y-9752293D01*
X6651015Y-9752293D02*
X6641491Y-9790389D01*
X6641491Y-9790389D02*
X6631967Y-9809436D01*
X6631967Y-9809436D02*
X6622444Y-9818960D01*
X6622444Y-9818960D02*
X6603396Y-9828484D01*
X6603396Y-9828484D02*
X6584348Y-9828484D01*
X6584348Y-9828484D02*
X6565301Y-9818960D01*
X6565301Y-9818960D02*
X6555777Y-9809436D01*
X6555777Y-9809436D02*
X6546253Y-9790389D01*
X6546253Y-9790389D02*
X6536729Y-9752293D01*
X6536729Y-9752293D02*
X6536729Y-9704674D01*
X6536729Y-9704674D02*
X6546253Y-9666579D01*
X6546253Y-9666579D02*
X6555777Y-9647531D01*
X6555777Y-9647531D02*
X6565301Y-9638008D01*
X6565301Y-9638008D02*
X6584348Y-9628484D01*
X6717682Y-9628484D02*
X6841491Y-9628484D01*
X6841491Y-9628484D02*
X6774825Y-9704674D01*
X6774825Y-9704674D02*
X6803396Y-9704674D01*
X6803396Y-9704674D02*
X6822444Y-9714198D01*
X6822444Y-9714198D02*
X6831967Y-9723722D01*
X6831967Y-9723722D02*
X6841491Y-9742770D01*
X6841491Y-9742770D02*
X6841491Y-9790389D01*
X6841491Y-9790389D02*
X6831967Y-9809436D01*
X6831967Y-9809436D02*
X6822444Y-9818960D01*
X6822444Y-9818960D02*
X6803396Y-9828484D01*
X6803396Y-9828484D02*
X6746253Y-9828484D01*
X6746253Y-9828484D02*
X6727206Y-9818960D01*
X6727206Y-9818960D02*
X6717682Y-9809436D01*
X6965301Y-9628484D02*
X6984348Y-9628484D01*
X6984348Y-9628484D02*
X7003396Y-9638008D01*
X7003396Y-9638008D02*
X7012920Y-9647531D01*
X7012920Y-9647531D02*
X7022444Y-9666579D01*
X7022444Y-9666579D02*
X7031967Y-9704674D01*
X7031967Y-9704674D02*
X7031967Y-9752293D01*
X7031967Y-9752293D02*
X7022444Y-9790389D01*
X7022444Y-9790389D02*
X7012920Y-9809436D01*
X7012920Y-9809436D02*
X7003396Y-9818960D01*
X7003396Y-9818960D02*
X6984348Y-9828484D01*
X6984348Y-9828484D02*
X6965301Y-9828484D01*
X6965301Y-9828484D02*
X6946253Y-9818960D01*
X6946253Y-9818960D02*
X6936729Y-9809436D01*
X6936729Y-9809436D02*
X6927206Y-9790389D01*
X6927206Y-9790389D02*
X6917682Y-9752293D01*
X6917682Y-9752293D02*
X6917682Y-9704674D01*
X6917682Y-9704674D02*
X6927206Y-9666579D01*
X6927206Y-9666579D02*
X6936729Y-9647531D01*
X6936729Y-9647531D02*
X6946253Y-9638008D01*
X6946253Y-9638008D02*
X6965301Y-9628484D01*
X7155777Y-9628484D02*
X7174825Y-9628484D01*
X7174825Y-9628484D02*
X7193872Y-9638008D01*
X7193872Y-9638008D02*
X7203396Y-9647531D01*
X7203396Y-9647531D02*
X7212920Y-9666579D01*
X7212920Y-9666579D02*
X7222444Y-9704674D01*
X7222444Y-9704674D02*
X7222444Y-9752293D01*
X7222444Y-9752293D02*
X7212920Y-9790389D01*
X7212920Y-9790389D02*
X7203396Y-9809436D01*
X7203396Y-9809436D02*
X7193872Y-9818960D01*
X7193872Y-9818960D02*
X7174825Y-9828484D01*
X7174825Y-9828484D02*
X7155777Y-9828484D01*
X7155777Y-9828484D02*
X7136729Y-9818960D01*
X7136729Y-9818960D02*
X7127206Y-9809436D01*
X7127206Y-9809436D02*
X7117682Y-9790389D01*
X7117682Y-9790389D02*
X7108158Y-9752293D01*
X7108158Y-9752293D02*
X7108158Y-9704674D01*
X7108158Y-9704674D02*
X7117682Y-9666579D01*
X7117682Y-9666579D02*
X7127206Y-9647531D01*
X7127206Y-9647531D02*
X7136729Y-9638008D01*
X7136729Y-9638008D02*
X7155777Y-9628484D01*
X7298634Y-9628484D02*
X7298634Y-9666579D01*
X7374825Y-9628484D02*
X7374825Y-9666579D01*
X7670063Y-9904674D02*
X7660539Y-9895150D01*
X7660539Y-9895150D02*
X7641491Y-9866579D01*
X7641491Y-9866579D02*
X7631968Y-9847531D01*
X7631968Y-9847531D02*
X7622444Y-9818960D01*
X7622444Y-9818960D02*
X7612920Y-9771341D01*
X7612920Y-9771341D02*
X7612920Y-9733246D01*
X7612920Y-9733246D02*
X7622444Y-9685627D01*
X7622444Y-9685627D02*
X7631968Y-9657055D01*
X7631968Y-9657055D02*
X7641491Y-9638008D01*
X7641491Y-9638008D02*
X7660539Y-9609436D01*
X7660539Y-9609436D02*
X7670063Y-9599912D01*
X7727206Y-9628484D02*
X7851015Y-9628484D01*
X7851015Y-9628484D02*
X7784348Y-9704674D01*
X7784348Y-9704674D02*
X7812920Y-9704674D01*
X7812920Y-9704674D02*
X7831968Y-9714198D01*
X7831968Y-9714198D02*
X7841491Y-9723722D01*
X7841491Y-9723722D02*
X7851015Y-9742770D01*
X7851015Y-9742770D02*
X7851015Y-9790389D01*
X7851015Y-9790389D02*
X7841491Y-9809436D01*
X7841491Y-9809436D02*
X7831968Y-9818960D01*
X7831968Y-9818960D02*
X7812920Y-9828484D01*
X7812920Y-9828484D02*
X7755777Y-9828484D01*
X7755777Y-9828484D02*
X7736729Y-9818960D01*
X7736729Y-9818960D02*
X7727206Y-9809436D01*
X8089110Y-9828484D02*
X8089110Y-9628484D01*
X8174825Y-9828484D02*
X8174825Y-9723722D01*
X8174825Y-9723722D02*
X8165301Y-9704674D01*
X8165301Y-9704674D02*
X8146253Y-9695150D01*
X8146253Y-9695150D02*
X8117682Y-9695150D01*
X8117682Y-9695150D02*
X8098634Y-9704674D01*
X8098634Y-9704674D02*
X8089110Y-9714198D01*
X8298634Y-9828484D02*
X8279587Y-9818960D01*
X8279587Y-9818960D02*
X8270063Y-9809436D01*
X8270063Y-9809436D02*
X8260539Y-9790389D01*
X8260539Y-9790389D02*
X8260539Y-9733246D01*
X8260539Y-9733246D02*
X8270063Y-9714198D01*
X8270063Y-9714198D02*
X8279587Y-9704674D01*
X8279587Y-9704674D02*
X8298634Y-9695150D01*
X8298634Y-9695150D02*
X8327206Y-9695150D01*
X8327206Y-9695150D02*
X8346253Y-9704674D01*
X8346253Y-9704674D02*
X8355777Y-9714198D01*
X8355777Y-9714198D02*
X8365301Y-9733246D01*
X8365301Y-9733246D02*
X8365301Y-9790389D01*
X8365301Y-9790389D02*
X8355777Y-9809436D01*
X8355777Y-9809436D02*
X8346253Y-9818960D01*
X8346253Y-9818960D02*
X8327206Y-9828484D01*
X8327206Y-9828484D02*
X8298634Y-9828484D01*
X8479587Y-9828484D02*
X8460539Y-9818960D01*
X8460539Y-9818960D02*
X8451015Y-9799912D01*
X8451015Y-9799912D02*
X8451015Y-9628484D01*
X8631968Y-9818960D02*
X8612920Y-9828484D01*
X8612920Y-9828484D02*
X8574825Y-9828484D01*
X8574825Y-9828484D02*
X8555777Y-9818960D01*
X8555777Y-9818960D02*
X8546253Y-9799912D01*
X8546253Y-9799912D02*
X8546253Y-9723722D01*
X8546253Y-9723722D02*
X8555777Y-9704674D01*
X8555777Y-9704674D02*
X8574825Y-9695150D01*
X8574825Y-9695150D02*
X8612920Y-9695150D01*
X8612920Y-9695150D02*
X8631968Y-9704674D01*
X8631968Y-9704674D02*
X8641492Y-9723722D01*
X8641492Y-9723722D02*
X8641492Y-9742770D01*
X8641492Y-9742770D02*
X8546253Y-9761817D01*
X8717682Y-9818960D02*
X8736730Y-9828484D01*
X8736730Y-9828484D02*
X8774825Y-9828484D01*
X8774825Y-9828484D02*
X8793873Y-9818960D01*
X8793873Y-9818960D02*
X8803396Y-9799912D01*
X8803396Y-9799912D02*
X8803396Y-9790389D01*
X8803396Y-9790389D02*
X8793873Y-9771341D01*
X8793873Y-9771341D02*
X8774825Y-9761817D01*
X8774825Y-9761817D02*
X8746253Y-9761817D01*
X8746253Y-9761817D02*
X8727206Y-9752293D01*
X8727206Y-9752293D02*
X8717682Y-9733246D01*
X8717682Y-9733246D02*
X8717682Y-9723722D01*
X8717682Y-9723722D02*
X8727206Y-9704674D01*
X8727206Y-9704674D02*
X8746253Y-9695150D01*
X8746253Y-9695150D02*
X8774825Y-9695150D01*
X8774825Y-9695150D02*
X8793873Y-9704674D01*
X8870063Y-9904674D02*
X8879587Y-9895150D01*
X8879587Y-9895150D02*
X8898634Y-9866579D01*
X8898634Y-9866579D02*
X8908158Y-9847531D01*
X8908158Y-9847531D02*
X8917682Y-9818960D01*
X8917682Y-9818960D02*
X8927206Y-9771341D01*
X8927206Y-9771341D02*
X8927206Y-9733246D01*
X8927206Y-9733246D02*
X8917682Y-9685627D01*
X8917682Y-9685627D02*
X8908158Y-9657055D01*
X8908158Y-9657055D02*
X8898634Y-9638008D01*
X8898634Y-9638008D02*
X8879587Y-9609436D01*
X8879587Y-9609436D02*
X8870063Y-9599912D01*
D16*
X4055000Y-10041000D02*
X4095000Y-10001000D01*
X4055000Y-9961000D01*
X4015000Y-10001000D01*
X4055000Y-10041000D01*
D11*
X4393872Y-9892484D02*
X4412920Y-9892484D01*
X4412920Y-9892484D02*
X4431967Y-9902008D01*
X4431967Y-9902008D02*
X4441491Y-9911531D01*
X4441491Y-9911531D02*
X4451015Y-9930579D01*
X4451015Y-9930579D02*
X4460539Y-9968674D01*
X4460539Y-9968674D02*
X4460539Y-10016293D01*
X4460539Y-10016293D02*
X4451015Y-10054389D01*
X4451015Y-10054389D02*
X4441491Y-10073436D01*
X4441491Y-10073436D02*
X4431967Y-10082960D01*
X4431967Y-10082960D02*
X4412920Y-10092484D01*
X4412920Y-10092484D02*
X4393872Y-10092484D01*
X4393872Y-10092484D02*
X4374824Y-10082960D01*
X4374824Y-10082960D02*
X4365301Y-10073436D01*
X4365301Y-10073436D02*
X4355777Y-10054389D01*
X4355777Y-10054389D02*
X4346253Y-10016293D01*
X4346253Y-10016293D02*
X4346253Y-9968674D01*
X4346253Y-9968674D02*
X4355777Y-9930579D01*
X4355777Y-9930579D02*
X4365301Y-9911531D01*
X4365301Y-9911531D02*
X4374824Y-9902008D01*
X4374824Y-9902008D02*
X4393872Y-9892484D01*
X4546253Y-10073436D02*
X4555777Y-10082960D01*
X4555777Y-10082960D02*
X4546253Y-10092484D01*
X4546253Y-10092484D02*
X4536729Y-10082960D01*
X4536729Y-10082960D02*
X4546253Y-10073436D01*
X4546253Y-10073436D02*
X4546253Y-10092484D01*
X4670063Y-9978198D02*
X4651015Y-9968674D01*
X4651015Y-9968674D02*
X4641491Y-9959150D01*
X4641491Y-9959150D02*
X4631967Y-9940103D01*
X4631967Y-9940103D02*
X4631967Y-9930579D01*
X4631967Y-9930579D02*
X4641491Y-9911531D01*
X4641491Y-9911531D02*
X4651015Y-9902008D01*
X4651015Y-9902008D02*
X4670063Y-9892484D01*
X4670063Y-9892484D02*
X4708158Y-9892484D01*
X4708158Y-9892484D02*
X4727205Y-9902008D01*
X4727205Y-9902008D02*
X4736729Y-9911531D01*
X4736729Y-9911531D02*
X4746253Y-9930579D01*
X4746253Y-9930579D02*
X4746253Y-9940103D01*
X4746253Y-9940103D02*
X4736729Y-9959150D01*
X4736729Y-9959150D02*
X4727205Y-9968674D01*
X4727205Y-9968674D02*
X4708158Y-9978198D01*
X4708158Y-9978198D02*
X4670063Y-9978198D01*
X4670063Y-9978198D02*
X4651015Y-9987722D01*
X4651015Y-9987722D02*
X4641491Y-9997246D01*
X4641491Y-9997246D02*
X4631967Y-10016293D01*
X4631967Y-10016293D02*
X4631967Y-10054389D01*
X4631967Y-10054389D02*
X4641491Y-10073436D01*
X4641491Y-10073436D02*
X4651015Y-10082960D01*
X4651015Y-10082960D02*
X4670063Y-10092484D01*
X4670063Y-10092484D02*
X4708158Y-10092484D01*
X4708158Y-10092484D02*
X4727205Y-10082960D01*
X4727205Y-10082960D02*
X4736729Y-10073436D01*
X4736729Y-10073436D02*
X4746253Y-10054389D01*
X4746253Y-10054389D02*
X4746253Y-10016293D01*
X4746253Y-10016293D02*
X4736729Y-9997246D01*
X4736729Y-9997246D02*
X4727205Y-9987722D01*
X4727205Y-9987722D02*
X4708158Y-9978198D01*
X4870063Y-9892484D02*
X4889110Y-9892484D01*
X4889110Y-9892484D02*
X4908158Y-9902008D01*
X4908158Y-9902008D02*
X4917682Y-9911531D01*
X4917682Y-9911531D02*
X4927205Y-9930579D01*
X4927205Y-9930579D02*
X4936729Y-9968674D01*
X4936729Y-9968674D02*
X4936729Y-10016293D01*
X4936729Y-10016293D02*
X4927205Y-10054389D01*
X4927205Y-10054389D02*
X4917682Y-10073436D01*
X4917682Y-10073436D02*
X4908158Y-10082960D01*
X4908158Y-10082960D02*
X4889110Y-10092484D01*
X4889110Y-10092484D02*
X4870063Y-10092484D01*
X4870063Y-10092484D02*
X4851015Y-10082960D01*
X4851015Y-10082960D02*
X4841491Y-10073436D01*
X4841491Y-10073436D02*
X4831967Y-10054389D01*
X4831967Y-10054389D02*
X4822444Y-10016293D01*
X4822444Y-10016293D02*
X4822444Y-9968674D01*
X4822444Y-9968674D02*
X4831967Y-9930579D01*
X4831967Y-9930579D02*
X4841491Y-9911531D01*
X4841491Y-9911531D02*
X4851015Y-9902008D01*
X4851015Y-9902008D02*
X4870063Y-9892484D01*
X5060539Y-9892484D02*
X5079586Y-9892484D01*
X5079586Y-9892484D02*
X5098634Y-9902008D01*
X5098634Y-9902008D02*
X5108158Y-9911531D01*
X5108158Y-9911531D02*
X5117682Y-9930579D01*
X5117682Y-9930579D02*
X5127205Y-9968674D01*
X5127205Y-9968674D02*
X5127205Y-10016293D01*
X5127205Y-10016293D02*
X5117682Y-10054389D01*
X5117682Y-10054389D02*
X5108158Y-10073436D01*
X5108158Y-10073436D02*
X5098634Y-10082960D01*
X5098634Y-10082960D02*
X5079586Y-10092484D01*
X5079586Y-10092484D02*
X5060539Y-10092484D01*
X5060539Y-10092484D02*
X5041491Y-10082960D01*
X5041491Y-10082960D02*
X5031967Y-10073436D01*
X5031967Y-10073436D02*
X5022444Y-10054389D01*
X5022444Y-10054389D02*
X5012920Y-10016293D01*
X5012920Y-10016293D02*
X5012920Y-9968674D01*
X5012920Y-9968674D02*
X5022444Y-9930579D01*
X5022444Y-9930579D02*
X5031967Y-9911531D01*
X5031967Y-9911531D02*
X5041491Y-9902008D01*
X5041491Y-9902008D02*
X5060539Y-9892484D01*
X5212920Y-10092484D02*
X5212920Y-9959150D01*
X5212920Y-9978198D02*
X5222444Y-9968674D01*
X5222444Y-9968674D02*
X5241491Y-9959150D01*
X5241491Y-9959150D02*
X5270063Y-9959150D01*
X5270063Y-9959150D02*
X5289110Y-9968674D01*
X5289110Y-9968674D02*
X5298634Y-9987722D01*
X5298634Y-9987722D02*
X5298634Y-10092484D01*
X5298634Y-9987722D02*
X5308158Y-9968674D01*
X5308158Y-9968674D02*
X5327205Y-9959150D01*
X5327205Y-9959150D02*
X5355777Y-9959150D01*
X5355777Y-9959150D02*
X5374825Y-9968674D01*
X5374825Y-9968674D02*
X5384348Y-9987722D01*
X5384348Y-9987722D02*
X5384348Y-10092484D01*
X5479586Y-10092484D02*
X5479586Y-9959150D01*
X5479586Y-9978198D02*
X5489110Y-9968674D01*
X5489110Y-9968674D02*
X5508158Y-9959150D01*
X5508158Y-9959150D02*
X5536729Y-9959150D01*
X5536729Y-9959150D02*
X5555777Y-9968674D01*
X5555777Y-9968674D02*
X5565301Y-9987722D01*
X5565301Y-9987722D02*
X5565301Y-10092484D01*
X5565301Y-9987722D02*
X5574825Y-9968674D01*
X5574825Y-9968674D02*
X5593872Y-9959150D01*
X5593872Y-9959150D02*
X5622443Y-9959150D01*
X5622443Y-9959150D02*
X5641491Y-9968674D01*
X5641491Y-9968674D02*
X5651015Y-9987722D01*
X5651015Y-9987722D02*
X5651015Y-10092484D01*
X6041491Y-9882960D02*
X5870063Y-10140103D01*
X6298634Y-9892484D02*
X6317682Y-9892484D01*
X6317682Y-9892484D02*
X6336729Y-9902008D01*
X6336729Y-9902008D02*
X6346253Y-9911531D01*
X6346253Y-9911531D02*
X6355777Y-9930579D01*
X6355777Y-9930579D02*
X6365301Y-9968674D01*
X6365301Y-9968674D02*
X6365301Y-10016293D01*
X6365301Y-10016293D02*
X6355777Y-10054389D01*
X6355777Y-10054389D02*
X6346253Y-10073436D01*
X6346253Y-10073436D02*
X6336729Y-10082960D01*
X6336729Y-10082960D02*
X6317682Y-10092484D01*
X6317682Y-10092484D02*
X6298634Y-10092484D01*
X6298634Y-10092484D02*
X6279586Y-10082960D01*
X6279586Y-10082960D02*
X6270063Y-10073436D01*
X6270063Y-10073436D02*
X6260539Y-10054389D01*
X6260539Y-10054389D02*
X6251015Y-10016293D01*
X6251015Y-10016293D02*
X6251015Y-9968674D01*
X6251015Y-9968674D02*
X6260539Y-9930579D01*
X6260539Y-9930579D02*
X6270063Y-9911531D01*
X6270063Y-9911531D02*
X6279586Y-9902008D01*
X6279586Y-9902008D02*
X6298634Y-9892484D01*
X6451015Y-10073436D02*
X6460539Y-10082960D01*
X6460539Y-10082960D02*
X6451015Y-10092484D01*
X6451015Y-10092484D02*
X6441491Y-10082960D01*
X6441491Y-10082960D02*
X6451015Y-10073436D01*
X6451015Y-10073436D02*
X6451015Y-10092484D01*
X6584348Y-9892484D02*
X6603396Y-9892484D01*
X6603396Y-9892484D02*
X6622444Y-9902008D01*
X6622444Y-9902008D02*
X6631967Y-9911531D01*
X6631967Y-9911531D02*
X6641491Y-9930579D01*
X6641491Y-9930579D02*
X6651015Y-9968674D01*
X6651015Y-9968674D02*
X6651015Y-10016293D01*
X6651015Y-10016293D02*
X6641491Y-10054389D01*
X6641491Y-10054389D02*
X6631967Y-10073436D01*
X6631967Y-10073436D02*
X6622444Y-10082960D01*
X6622444Y-10082960D02*
X6603396Y-10092484D01*
X6603396Y-10092484D02*
X6584348Y-10092484D01*
X6584348Y-10092484D02*
X6565301Y-10082960D01*
X6565301Y-10082960D02*
X6555777Y-10073436D01*
X6555777Y-10073436D02*
X6546253Y-10054389D01*
X6546253Y-10054389D02*
X6536729Y-10016293D01*
X6536729Y-10016293D02*
X6536729Y-9968674D01*
X6536729Y-9968674D02*
X6546253Y-9930579D01*
X6546253Y-9930579D02*
X6555777Y-9911531D01*
X6555777Y-9911531D02*
X6565301Y-9902008D01*
X6565301Y-9902008D02*
X6584348Y-9892484D01*
X6717682Y-9892484D02*
X6841491Y-9892484D01*
X6841491Y-9892484D02*
X6774825Y-9968674D01*
X6774825Y-9968674D02*
X6803396Y-9968674D01*
X6803396Y-9968674D02*
X6822444Y-9978198D01*
X6822444Y-9978198D02*
X6831967Y-9987722D01*
X6831967Y-9987722D02*
X6841491Y-10006770D01*
X6841491Y-10006770D02*
X6841491Y-10054389D01*
X6841491Y-10054389D02*
X6831967Y-10073436D01*
X6831967Y-10073436D02*
X6822444Y-10082960D01*
X6822444Y-10082960D02*
X6803396Y-10092484D01*
X6803396Y-10092484D02*
X6746253Y-10092484D01*
X6746253Y-10092484D02*
X6727206Y-10082960D01*
X6727206Y-10082960D02*
X6717682Y-10073436D01*
X7031967Y-10092484D02*
X6917682Y-10092484D01*
X6974825Y-10092484D02*
X6974825Y-9892484D01*
X6974825Y-9892484D02*
X6955777Y-9921055D01*
X6955777Y-9921055D02*
X6936729Y-9940103D01*
X6936729Y-9940103D02*
X6917682Y-9949627D01*
X7212920Y-9892484D02*
X7117682Y-9892484D01*
X7117682Y-9892484D02*
X7108158Y-9987722D01*
X7108158Y-9987722D02*
X7117682Y-9978198D01*
X7117682Y-9978198D02*
X7136729Y-9968674D01*
X7136729Y-9968674D02*
X7184348Y-9968674D01*
X7184348Y-9968674D02*
X7203396Y-9978198D01*
X7203396Y-9978198D02*
X7212920Y-9987722D01*
X7212920Y-9987722D02*
X7222444Y-10006770D01*
X7222444Y-10006770D02*
X7222444Y-10054389D01*
X7222444Y-10054389D02*
X7212920Y-10073436D01*
X7212920Y-10073436D02*
X7203396Y-10082960D01*
X7203396Y-10082960D02*
X7184348Y-10092484D01*
X7184348Y-10092484D02*
X7136729Y-10092484D01*
X7136729Y-10092484D02*
X7117682Y-10082960D01*
X7117682Y-10082960D02*
X7108158Y-10073436D01*
X7298634Y-9892484D02*
X7298634Y-9930579D01*
X7374825Y-9892484D02*
X7374825Y-9930579D01*
X7670063Y-10168674D02*
X7660539Y-10159150D01*
X7660539Y-10159150D02*
X7641491Y-10130579D01*
X7641491Y-10130579D02*
X7631968Y-10111531D01*
X7631968Y-10111531D02*
X7622444Y-10082960D01*
X7622444Y-10082960D02*
X7612920Y-10035341D01*
X7612920Y-10035341D02*
X7612920Y-9997246D01*
X7612920Y-9997246D02*
X7622444Y-9949627D01*
X7622444Y-9949627D02*
X7631968Y-9921055D01*
X7631968Y-9921055D02*
X7641491Y-9902008D01*
X7641491Y-9902008D02*
X7660539Y-9873436D01*
X7660539Y-9873436D02*
X7670063Y-9863912D01*
X7831968Y-9892484D02*
X7793872Y-9892484D01*
X7793872Y-9892484D02*
X7774825Y-9902008D01*
X7774825Y-9902008D02*
X7765301Y-9911531D01*
X7765301Y-9911531D02*
X7746253Y-9940103D01*
X7746253Y-9940103D02*
X7736729Y-9978198D01*
X7736729Y-9978198D02*
X7736729Y-10054389D01*
X7736729Y-10054389D02*
X7746253Y-10073436D01*
X7746253Y-10073436D02*
X7755777Y-10082960D01*
X7755777Y-10082960D02*
X7774825Y-10092484D01*
X7774825Y-10092484D02*
X7812920Y-10092484D01*
X7812920Y-10092484D02*
X7831968Y-10082960D01*
X7831968Y-10082960D02*
X7841491Y-10073436D01*
X7841491Y-10073436D02*
X7851015Y-10054389D01*
X7851015Y-10054389D02*
X7851015Y-10006770D01*
X7851015Y-10006770D02*
X7841491Y-9987722D01*
X7841491Y-9987722D02*
X7831968Y-9978198D01*
X7831968Y-9978198D02*
X7812920Y-9968674D01*
X7812920Y-9968674D02*
X7774825Y-9968674D01*
X7774825Y-9968674D02*
X7755777Y-9978198D01*
X7755777Y-9978198D02*
X7746253Y-9987722D01*
X7746253Y-9987722D02*
X7736729Y-10006770D01*
X8089110Y-10092484D02*
X8089110Y-9892484D01*
X8174825Y-10092484D02*
X8174825Y-9987722D01*
X8174825Y-9987722D02*
X8165301Y-9968674D01*
X8165301Y-9968674D02*
X8146253Y-9959150D01*
X8146253Y-9959150D02*
X8117682Y-9959150D01*
X8117682Y-9959150D02*
X8098634Y-9968674D01*
X8098634Y-9968674D02*
X8089110Y-9978198D01*
X8298634Y-10092484D02*
X8279587Y-10082960D01*
X8279587Y-10082960D02*
X8270063Y-10073436D01*
X8270063Y-10073436D02*
X8260539Y-10054389D01*
X8260539Y-10054389D02*
X8260539Y-9997246D01*
X8260539Y-9997246D02*
X8270063Y-9978198D01*
X8270063Y-9978198D02*
X8279587Y-9968674D01*
X8279587Y-9968674D02*
X8298634Y-9959150D01*
X8298634Y-9959150D02*
X8327206Y-9959150D01*
X8327206Y-9959150D02*
X8346253Y-9968674D01*
X8346253Y-9968674D02*
X8355777Y-9978198D01*
X8355777Y-9978198D02*
X8365301Y-9997246D01*
X8365301Y-9997246D02*
X8365301Y-10054389D01*
X8365301Y-10054389D02*
X8355777Y-10073436D01*
X8355777Y-10073436D02*
X8346253Y-10082960D01*
X8346253Y-10082960D02*
X8327206Y-10092484D01*
X8327206Y-10092484D02*
X8298634Y-10092484D01*
X8479587Y-10092484D02*
X8460539Y-10082960D01*
X8460539Y-10082960D02*
X8451015Y-10063912D01*
X8451015Y-10063912D02*
X8451015Y-9892484D01*
X8631968Y-10082960D02*
X8612920Y-10092484D01*
X8612920Y-10092484D02*
X8574825Y-10092484D01*
X8574825Y-10092484D02*
X8555777Y-10082960D01*
X8555777Y-10082960D02*
X8546253Y-10063912D01*
X8546253Y-10063912D02*
X8546253Y-9987722D01*
X8546253Y-9987722D02*
X8555777Y-9968674D01*
X8555777Y-9968674D02*
X8574825Y-9959150D01*
X8574825Y-9959150D02*
X8612920Y-9959150D01*
X8612920Y-9959150D02*
X8631968Y-9968674D01*
X8631968Y-9968674D02*
X8641492Y-9987722D01*
X8641492Y-9987722D02*
X8641492Y-10006770D01*
X8641492Y-10006770D02*
X8546253Y-10025817D01*
X8717682Y-10082960D02*
X8736730Y-10092484D01*
X8736730Y-10092484D02*
X8774825Y-10092484D01*
X8774825Y-10092484D02*
X8793873Y-10082960D01*
X8793873Y-10082960D02*
X8803396Y-10063912D01*
X8803396Y-10063912D02*
X8803396Y-10054389D01*
X8803396Y-10054389D02*
X8793873Y-10035341D01*
X8793873Y-10035341D02*
X8774825Y-10025817D01*
X8774825Y-10025817D02*
X8746253Y-10025817D01*
X8746253Y-10025817D02*
X8727206Y-10016293D01*
X8727206Y-10016293D02*
X8717682Y-9997246D01*
X8717682Y-9997246D02*
X8717682Y-9987722D01*
X8717682Y-9987722D02*
X8727206Y-9968674D01*
X8727206Y-9968674D02*
X8746253Y-9959150D01*
X8746253Y-9959150D02*
X8774825Y-9959150D01*
X8774825Y-9959150D02*
X8793873Y-9968674D01*
X8870063Y-10168674D02*
X8879587Y-10159150D01*
X8879587Y-10159150D02*
X8898634Y-10130579D01*
X8898634Y-10130579D02*
X8908158Y-10111531D01*
X8908158Y-10111531D02*
X8917682Y-10082960D01*
X8917682Y-10082960D02*
X8927206Y-10035341D01*
X8927206Y-10035341D02*
X8927206Y-9997246D01*
X8927206Y-9997246D02*
X8917682Y-9949627D01*
X8917682Y-9949627D02*
X8908158Y-9921055D01*
X8908158Y-9921055D02*
X8898634Y-9902008D01*
X8898634Y-9902008D02*
X8879587Y-9873436D01*
X8879587Y-9873436D02*
X8870063Y-9863912D01*
D17*
X4005000Y-10220000D02*
X4095000Y-10310000D01*
X4095000Y-10220000D02*
X4005000Y-10310000D01*
X4095000Y-10265000D02*
G75*
G03*
X4095000Y-10265000I-45000J0D01*
G01*
D11*
X4393872Y-10156484D02*
X4412920Y-10156484D01*
X4412920Y-10156484D02*
X4431967Y-10166008D01*
X4431967Y-10166008D02*
X4441491Y-10175531D01*
X4441491Y-10175531D02*
X4451015Y-10194579D01*
X4451015Y-10194579D02*
X4460539Y-10232674D01*
X4460539Y-10232674D02*
X4460539Y-10280293D01*
X4460539Y-10280293D02*
X4451015Y-10318389D01*
X4451015Y-10318389D02*
X4441491Y-10337436D01*
X4441491Y-10337436D02*
X4431967Y-10346960D01*
X4431967Y-10346960D02*
X4412920Y-10356484D01*
X4412920Y-10356484D02*
X4393872Y-10356484D01*
X4393872Y-10356484D02*
X4374824Y-10346960D01*
X4374824Y-10346960D02*
X4365301Y-10337436D01*
X4365301Y-10337436D02*
X4355777Y-10318389D01*
X4355777Y-10318389D02*
X4346253Y-10280293D01*
X4346253Y-10280293D02*
X4346253Y-10232674D01*
X4346253Y-10232674D02*
X4355777Y-10194579D01*
X4355777Y-10194579D02*
X4365301Y-10175531D01*
X4365301Y-10175531D02*
X4374824Y-10166008D01*
X4374824Y-10166008D02*
X4393872Y-10156484D01*
X4546253Y-10337436D02*
X4555777Y-10346960D01*
X4555777Y-10346960D02*
X4546253Y-10356484D01*
X4546253Y-10356484D02*
X4536729Y-10346960D01*
X4536729Y-10346960D02*
X4546253Y-10337436D01*
X4546253Y-10337436D02*
X4546253Y-10356484D01*
X4651015Y-10356484D02*
X4689110Y-10356484D01*
X4689110Y-10356484D02*
X4708158Y-10346960D01*
X4708158Y-10346960D02*
X4717682Y-10337436D01*
X4717682Y-10337436D02*
X4736729Y-10308865D01*
X4736729Y-10308865D02*
X4746253Y-10270770D01*
X4746253Y-10270770D02*
X4746253Y-10194579D01*
X4746253Y-10194579D02*
X4736729Y-10175531D01*
X4736729Y-10175531D02*
X4727205Y-10166008D01*
X4727205Y-10166008D02*
X4708158Y-10156484D01*
X4708158Y-10156484D02*
X4670063Y-10156484D01*
X4670063Y-10156484D02*
X4651015Y-10166008D01*
X4651015Y-10166008D02*
X4641491Y-10175531D01*
X4641491Y-10175531D02*
X4631967Y-10194579D01*
X4631967Y-10194579D02*
X4631967Y-10242198D01*
X4631967Y-10242198D02*
X4641491Y-10261246D01*
X4641491Y-10261246D02*
X4651015Y-10270770D01*
X4651015Y-10270770D02*
X4670063Y-10280293D01*
X4670063Y-10280293D02*
X4708158Y-10280293D01*
X4708158Y-10280293D02*
X4727205Y-10270770D01*
X4727205Y-10270770D02*
X4736729Y-10261246D01*
X4736729Y-10261246D02*
X4746253Y-10242198D01*
X4870063Y-10156484D02*
X4889110Y-10156484D01*
X4889110Y-10156484D02*
X4908158Y-10166008D01*
X4908158Y-10166008D02*
X4917682Y-10175531D01*
X4917682Y-10175531D02*
X4927205Y-10194579D01*
X4927205Y-10194579D02*
X4936729Y-10232674D01*
X4936729Y-10232674D02*
X4936729Y-10280293D01*
X4936729Y-10280293D02*
X4927205Y-10318389D01*
X4927205Y-10318389D02*
X4917682Y-10337436D01*
X4917682Y-10337436D02*
X4908158Y-10346960D01*
X4908158Y-10346960D02*
X4889110Y-10356484D01*
X4889110Y-10356484D02*
X4870063Y-10356484D01*
X4870063Y-10356484D02*
X4851015Y-10346960D01*
X4851015Y-10346960D02*
X4841491Y-10337436D01*
X4841491Y-10337436D02*
X4831967Y-10318389D01*
X4831967Y-10318389D02*
X4822444Y-10280293D01*
X4822444Y-10280293D02*
X4822444Y-10232674D01*
X4822444Y-10232674D02*
X4831967Y-10194579D01*
X4831967Y-10194579D02*
X4841491Y-10175531D01*
X4841491Y-10175531D02*
X4851015Y-10166008D01*
X4851015Y-10166008D02*
X4870063Y-10156484D01*
X5060539Y-10156484D02*
X5079586Y-10156484D01*
X5079586Y-10156484D02*
X5098634Y-10166008D01*
X5098634Y-10166008D02*
X5108158Y-10175531D01*
X5108158Y-10175531D02*
X5117682Y-10194579D01*
X5117682Y-10194579D02*
X5127205Y-10232674D01*
X5127205Y-10232674D02*
X5127205Y-10280293D01*
X5127205Y-10280293D02*
X5117682Y-10318389D01*
X5117682Y-10318389D02*
X5108158Y-10337436D01*
X5108158Y-10337436D02*
X5098634Y-10346960D01*
X5098634Y-10346960D02*
X5079586Y-10356484D01*
X5079586Y-10356484D02*
X5060539Y-10356484D01*
X5060539Y-10356484D02*
X5041491Y-10346960D01*
X5041491Y-10346960D02*
X5031967Y-10337436D01*
X5031967Y-10337436D02*
X5022444Y-10318389D01*
X5022444Y-10318389D02*
X5012920Y-10280293D01*
X5012920Y-10280293D02*
X5012920Y-10232674D01*
X5012920Y-10232674D02*
X5022444Y-10194579D01*
X5022444Y-10194579D02*
X5031967Y-10175531D01*
X5031967Y-10175531D02*
X5041491Y-10166008D01*
X5041491Y-10166008D02*
X5060539Y-10156484D01*
X5212920Y-10356484D02*
X5212920Y-10223150D01*
X5212920Y-10242198D02*
X5222444Y-10232674D01*
X5222444Y-10232674D02*
X5241491Y-10223150D01*
X5241491Y-10223150D02*
X5270063Y-10223150D01*
X5270063Y-10223150D02*
X5289110Y-10232674D01*
X5289110Y-10232674D02*
X5298634Y-10251722D01*
X5298634Y-10251722D02*
X5298634Y-10356484D01*
X5298634Y-10251722D02*
X5308158Y-10232674D01*
X5308158Y-10232674D02*
X5327205Y-10223150D01*
X5327205Y-10223150D02*
X5355777Y-10223150D01*
X5355777Y-10223150D02*
X5374825Y-10232674D01*
X5374825Y-10232674D02*
X5384348Y-10251722D01*
X5384348Y-10251722D02*
X5384348Y-10356484D01*
X5479586Y-10356484D02*
X5479586Y-10223150D01*
X5479586Y-10242198D02*
X5489110Y-10232674D01*
X5489110Y-10232674D02*
X5508158Y-10223150D01*
X5508158Y-10223150D02*
X5536729Y-10223150D01*
X5536729Y-10223150D02*
X5555777Y-10232674D01*
X5555777Y-10232674D02*
X5565301Y-10251722D01*
X5565301Y-10251722D02*
X5565301Y-10356484D01*
X5565301Y-10251722D02*
X5574825Y-10232674D01*
X5574825Y-10232674D02*
X5593872Y-10223150D01*
X5593872Y-10223150D02*
X5622443Y-10223150D01*
X5622443Y-10223150D02*
X5641491Y-10232674D01*
X5641491Y-10232674D02*
X5651015Y-10251722D01*
X5651015Y-10251722D02*
X5651015Y-10356484D01*
X6041491Y-10146960D02*
X5870063Y-10404103D01*
X6298634Y-10156484D02*
X6317682Y-10156484D01*
X6317682Y-10156484D02*
X6336729Y-10166008D01*
X6336729Y-10166008D02*
X6346253Y-10175531D01*
X6346253Y-10175531D02*
X6355777Y-10194579D01*
X6355777Y-10194579D02*
X6365301Y-10232674D01*
X6365301Y-10232674D02*
X6365301Y-10280293D01*
X6365301Y-10280293D02*
X6355777Y-10318389D01*
X6355777Y-10318389D02*
X6346253Y-10337436D01*
X6346253Y-10337436D02*
X6336729Y-10346960D01*
X6336729Y-10346960D02*
X6317682Y-10356484D01*
X6317682Y-10356484D02*
X6298634Y-10356484D01*
X6298634Y-10356484D02*
X6279586Y-10346960D01*
X6279586Y-10346960D02*
X6270063Y-10337436D01*
X6270063Y-10337436D02*
X6260539Y-10318389D01*
X6260539Y-10318389D02*
X6251015Y-10280293D01*
X6251015Y-10280293D02*
X6251015Y-10232674D01*
X6251015Y-10232674D02*
X6260539Y-10194579D01*
X6260539Y-10194579D02*
X6270063Y-10175531D01*
X6270063Y-10175531D02*
X6279586Y-10166008D01*
X6279586Y-10166008D02*
X6298634Y-10156484D01*
X6451015Y-10337436D02*
X6460539Y-10346960D01*
X6460539Y-10346960D02*
X6451015Y-10356484D01*
X6451015Y-10356484D02*
X6441491Y-10346960D01*
X6441491Y-10346960D02*
X6451015Y-10337436D01*
X6451015Y-10337436D02*
X6451015Y-10356484D01*
X6584348Y-10156484D02*
X6603396Y-10156484D01*
X6603396Y-10156484D02*
X6622444Y-10166008D01*
X6622444Y-10166008D02*
X6631967Y-10175531D01*
X6631967Y-10175531D02*
X6641491Y-10194579D01*
X6641491Y-10194579D02*
X6651015Y-10232674D01*
X6651015Y-10232674D02*
X6651015Y-10280293D01*
X6651015Y-10280293D02*
X6641491Y-10318389D01*
X6641491Y-10318389D02*
X6631967Y-10337436D01*
X6631967Y-10337436D02*
X6622444Y-10346960D01*
X6622444Y-10346960D02*
X6603396Y-10356484D01*
X6603396Y-10356484D02*
X6584348Y-10356484D01*
X6584348Y-10356484D02*
X6565301Y-10346960D01*
X6565301Y-10346960D02*
X6555777Y-10337436D01*
X6555777Y-10337436D02*
X6546253Y-10318389D01*
X6546253Y-10318389D02*
X6536729Y-10280293D01*
X6536729Y-10280293D02*
X6536729Y-10232674D01*
X6536729Y-10232674D02*
X6546253Y-10194579D01*
X6546253Y-10194579D02*
X6555777Y-10175531D01*
X6555777Y-10175531D02*
X6565301Y-10166008D01*
X6565301Y-10166008D02*
X6584348Y-10156484D01*
X6717682Y-10156484D02*
X6841491Y-10156484D01*
X6841491Y-10156484D02*
X6774825Y-10232674D01*
X6774825Y-10232674D02*
X6803396Y-10232674D01*
X6803396Y-10232674D02*
X6822444Y-10242198D01*
X6822444Y-10242198D02*
X6831967Y-10251722D01*
X6831967Y-10251722D02*
X6841491Y-10270770D01*
X6841491Y-10270770D02*
X6841491Y-10318389D01*
X6841491Y-10318389D02*
X6831967Y-10337436D01*
X6831967Y-10337436D02*
X6822444Y-10346960D01*
X6822444Y-10346960D02*
X6803396Y-10356484D01*
X6803396Y-10356484D02*
X6746253Y-10356484D01*
X6746253Y-10356484D02*
X6727206Y-10346960D01*
X6727206Y-10346960D02*
X6717682Y-10337436D01*
X7022444Y-10156484D02*
X6927206Y-10156484D01*
X6927206Y-10156484D02*
X6917682Y-10251722D01*
X6917682Y-10251722D02*
X6927206Y-10242198D01*
X6927206Y-10242198D02*
X6946253Y-10232674D01*
X6946253Y-10232674D02*
X6993872Y-10232674D01*
X6993872Y-10232674D02*
X7012920Y-10242198D01*
X7012920Y-10242198D02*
X7022444Y-10251722D01*
X7022444Y-10251722D02*
X7031967Y-10270770D01*
X7031967Y-10270770D02*
X7031967Y-10318389D01*
X7031967Y-10318389D02*
X7022444Y-10337436D01*
X7022444Y-10337436D02*
X7012920Y-10346960D01*
X7012920Y-10346960D02*
X6993872Y-10356484D01*
X6993872Y-10356484D02*
X6946253Y-10356484D01*
X6946253Y-10356484D02*
X6927206Y-10346960D01*
X6927206Y-10346960D02*
X6917682Y-10337436D01*
X7203396Y-10223150D02*
X7203396Y-10356484D01*
X7155777Y-10146960D02*
X7108158Y-10289817D01*
X7108158Y-10289817D02*
X7231967Y-10289817D01*
X7298634Y-10156484D02*
X7298634Y-10194579D01*
X7374825Y-10156484D02*
X7374825Y-10194579D01*
X7670063Y-10432674D02*
X7660539Y-10423150D01*
X7660539Y-10423150D02*
X7641491Y-10394579D01*
X7641491Y-10394579D02*
X7631968Y-10375531D01*
X7631968Y-10375531D02*
X7622444Y-10346960D01*
X7622444Y-10346960D02*
X7612920Y-10299341D01*
X7612920Y-10299341D02*
X7612920Y-10261246D01*
X7612920Y-10261246D02*
X7622444Y-10213627D01*
X7622444Y-10213627D02*
X7631968Y-10185055D01*
X7631968Y-10185055D02*
X7641491Y-10166008D01*
X7641491Y-10166008D02*
X7660539Y-10137436D01*
X7660539Y-10137436D02*
X7670063Y-10127912D01*
X7727206Y-10156484D02*
X7851015Y-10156484D01*
X7851015Y-10156484D02*
X7784348Y-10232674D01*
X7784348Y-10232674D02*
X7812920Y-10232674D01*
X7812920Y-10232674D02*
X7831968Y-10242198D01*
X7831968Y-10242198D02*
X7841491Y-10251722D01*
X7841491Y-10251722D02*
X7851015Y-10270770D01*
X7851015Y-10270770D02*
X7851015Y-10318389D01*
X7851015Y-10318389D02*
X7841491Y-10337436D01*
X7841491Y-10337436D02*
X7831968Y-10346960D01*
X7831968Y-10346960D02*
X7812920Y-10356484D01*
X7812920Y-10356484D02*
X7755777Y-10356484D01*
X7755777Y-10356484D02*
X7736729Y-10346960D01*
X7736729Y-10346960D02*
X7727206Y-10337436D01*
X8089110Y-10356484D02*
X8089110Y-10156484D01*
X8174825Y-10356484D02*
X8174825Y-10251722D01*
X8174825Y-10251722D02*
X8165301Y-10232674D01*
X8165301Y-10232674D02*
X8146253Y-10223150D01*
X8146253Y-10223150D02*
X8117682Y-10223150D01*
X8117682Y-10223150D02*
X8098634Y-10232674D01*
X8098634Y-10232674D02*
X8089110Y-10242198D01*
X8298634Y-10356484D02*
X8279587Y-10346960D01*
X8279587Y-10346960D02*
X8270063Y-10337436D01*
X8270063Y-10337436D02*
X8260539Y-10318389D01*
X8260539Y-10318389D02*
X8260539Y-10261246D01*
X8260539Y-10261246D02*
X8270063Y-10242198D01*
X8270063Y-10242198D02*
X8279587Y-10232674D01*
X8279587Y-10232674D02*
X8298634Y-10223150D01*
X8298634Y-10223150D02*
X8327206Y-10223150D01*
X8327206Y-10223150D02*
X8346253Y-10232674D01*
X8346253Y-10232674D02*
X8355777Y-10242198D01*
X8355777Y-10242198D02*
X8365301Y-10261246D01*
X8365301Y-10261246D02*
X8365301Y-10318389D01*
X8365301Y-10318389D02*
X8355777Y-10337436D01*
X8355777Y-10337436D02*
X8346253Y-10346960D01*
X8346253Y-10346960D02*
X8327206Y-10356484D01*
X8327206Y-10356484D02*
X8298634Y-10356484D01*
X8479587Y-10356484D02*
X8460539Y-10346960D01*
X8460539Y-10346960D02*
X8451015Y-10327912D01*
X8451015Y-10327912D02*
X8451015Y-10156484D01*
X8631968Y-10346960D02*
X8612920Y-10356484D01*
X8612920Y-10356484D02*
X8574825Y-10356484D01*
X8574825Y-10356484D02*
X8555777Y-10346960D01*
X8555777Y-10346960D02*
X8546253Y-10327912D01*
X8546253Y-10327912D02*
X8546253Y-10251722D01*
X8546253Y-10251722D02*
X8555777Y-10232674D01*
X8555777Y-10232674D02*
X8574825Y-10223150D01*
X8574825Y-10223150D02*
X8612920Y-10223150D01*
X8612920Y-10223150D02*
X8631968Y-10232674D01*
X8631968Y-10232674D02*
X8641492Y-10251722D01*
X8641492Y-10251722D02*
X8641492Y-10270770D01*
X8641492Y-10270770D02*
X8546253Y-10289817D01*
X8717682Y-10346960D02*
X8736730Y-10356484D01*
X8736730Y-10356484D02*
X8774825Y-10356484D01*
X8774825Y-10356484D02*
X8793873Y-10346960D01*
X8793873Y-10346960D02*
X8803396Y-10327912D01*
X8803396Y-10327912D02*
X8803396Y-10318389D01*
X8803396Y-10318389D02*
X8793873Y-10299341D01*
X8793873Y-10299341D02*
X8774825Y-10289817D01*
X8774825Y-10289817D02*
X8746253Y-10289817D01*
X8746253Y-10289817D02*
X8727206Y-10280293D01*
X8727206Y-10280293D02*
X8717682Y-10261246D01*
X8717682Y-10261246D02*
X8717682Y-10251722D01*
X8717682Y-10251722D02*
X8727206Y-10232674D01*
X8727206Y-10232674D02*
X8746253Y-10223150D01*
X8746253Y-10223150D02*
X8774825Y-10223150D01*
X8774825Y-10223150D02*
X8793873Y-10232674D01*
X8870063Y-10432674D02*
X8879587Y-10423150D01*
X8879587Y-10423150D02*
X8898634Y-10394579D01*
X8898634Y-10394579D02*
X8908158Y-10375531D01*
X8908158Y-10375531D02*
X8917682Y-10346960D01*
X8917682Y-10346960D02*
X8927206Y-10299341D01*
X8927206Y-10299341D02*
X8927206Y-10261246D01*
X8927206Y-10261246D02*
X8917682Y-10213627D01*
X8917682Y-10213627D02*
X8908158Y-10185055D01*
X8908158Y-10185055D02*
X8898634Y-10166008D01*
X8898634Y-10166008D02*
X8879587Y-10137436D01*
X8879587Y-10137436D02*
X8870063Y-10127912D01*
D18*
X4000000Y-10481500D02*
X4095000Y-10576500D01*
X4095000Y-10481500D02*
X4000000Y-10576500D01*
X4047500Y-10481500D02*
X4047500Y-10576500D01*
X4000000Y-10529000D02*
X4095000Y-10529000D01*
D11*
X4393872Y-10420484D02*
X4412920Y-10420484D01*
X4412920Y-10420484D02*
X4431967Y-10430008D01*
X4431967Y-10430008D02*
X4441491Y-10439531D01*
X4441491Y-10439531D02*
X4451015Y-10458579D01*
X4451015Y-10458579D02*
X4460539Y-10496674D01*
X4460539Y-10496674D02*
X4460539Y-10544293D01*
X4460539Y-10544293D02*
X4451015Y-10582389D01*
X4451015Y-10582389D02*
X4441491Y-10601436D01*
X4441491Y-10601436D02*
X4431967Y-10610960D01*
X4431967Y-10610960D02*
X4412920Y-10620484D01*
X4412920Y-10620484D02*
X4393872Y-10620484D01*
X4393872Y-10620484D02*
X4374824Y-10610960D01*
X4374824Y-10610960D02*
X4365301Y-10601436D01*
X4365301Y-10601436D02*
X4355777Y-10582389D01*
X4355777Y-10582389D02*
X4346253Y-10544293D01*
X4346253Y-10544293D02*
X4346253Y-10496674D01*
X4346253Y-10496674D02*
X4355777Y-10458579D01*
X4355777Y-10458579D02*
X4365301Y-10439531D01*
X4365301Y-10439531D02*
X4374824Y-10430008D01*
X4374824Y-10430008D02*
X4393872Y-10420484D01*
X4546253Y-10601436D02*
X4555777Y-10610960D01*
X4555777Y-10610960D02*
X4546253Y-10620484D01*
X4546253Y-10620484D02*
X4536729Y-10610960D01*
X4536729Y-10610960D02*
X4546253Y-10601436D01*
X4546253Y-10601436D02*
X4546253Y-10620484D01*
X4651015Y-10620484D02*
X4689110Y-10620484D01*
X4689110Y-10620484D02*
X4708158Y-10610960D01*
X4708158Y-10610960D02*
X4717682Y-10601436D01*
X4717682Y-10601436D02*
X4736729Y-10572865D01*
X4736729Y-10572865D02*
X4746253Y-10534770D01*
X4746253Y-10534770D02*
X4746253Y-10458579D01*
X4746253Y-10458579D02*
X4736729Y-10439531D01*
X4736729Y-10439531D02*
X4727205Y-10430008D01*
X4727205Y-10430008D02*
X4708158Y-10420484D01*
X4708158Y-10420484D02*
X4670063Y-10420484D01*
X4670063Y-10420484D02*
X4651015Y-10430008D01*
X4651015Y-10430008D02*
X4641491Y-10439531D01*
X4641491Y-10439531D02*
X4631967Y-10458579D01*
X4631967Y-10458579D02*
X4631967Y-10506198D01*
X4631967Y-10506198D02*
X4641491Y-10525246D01*
X4641491Y-10525246D02*
X4651015Y-10534770D01*
X4651015Y-10534770D02*
X4670063Y-10544293D01*
X4670063Y-10544293D02*
X4708158Y-10544293D01*
X4708158Y-10544293D02*
X4727205Y-10534770D01*
X4727205Y-10534770D02*
X4736729Y-10525246D01*
X4736729Y-10525246D02*
X4746253Y-10506198D01*
X4927205Y-10420484D02*
X4831967Y-10420484D01*
X4831967Y-10420484D02*
X4822444Y-10515722D01*
X4822444Y-10515722D02*
X4831967Y-10506198D01*
X4831967Y-10506198D02*
X4851015Y-10496674D01*
X4851015Y-10496674D02*
X4898634Y-10496674D01*
X4898634Y-10496674D02*
X4917682Y-10506198D01*
X4917682Y-10506198D02*
X4927205Y-10515722D01*
X4927205Y-10515722D02*
X4936729Y-10534770D01*
X4936729Y-10534770D02*
X4936729Y-10582389D01*
X4936729Y-10582389D02*
X4927205Y-10601436D01*
X4927205Y-10601436D02*
X4917682Y-10610960D01*
X4917682Y-10610960D02*
X4898634Y-10620484D01*
X4898634Y-10620484D02*
X4851015Y-10620484D01*
X4851015Y-10620484D02*
X4831967Y-10610960D01*
X4831967Y-10610960D02*
X4822444Y-10601436D01*
X5060539Y-10420484D02*
X5079586Y-10420484D01*
X5079586Y-10420484D02*
X5098634Y-10430008D01*
X5098634Y-10430008D02*
X5108158Y-10439531D01*
X5108158Y-10439531D02*
X5117682Y-10458579D01*
X5117682Y-10458579D02*
X5127205Y-10496674D01*
X5127205Y-10496674D02*
X5127205Y-10544293D01*
X5127205Y-10544293D02*
X5117682Y-10582389D01*
X5117682Y-10582389D02*
X5108158Y-10601436D01*
X5108158Y-10601436D02*
X5098634Y-10610960D01*
X5098634Y-10610960D02*
X5079586Y-10620484D01*
X5079586Y-10620484D02*
X5060539Y-10620484D01*
X5060539Y-10620484D02*
X5041491Y-10610960D01*
X5041491Y-10610960D02*
X5031967Y-10601436D01*
X5031967Y-10601436D02*
X5022444Y-10582389D01*
X5022444Y-10582389D02*
X5012920Y-10544293D01*
X5012920Y-10544293D02*
X5012920Y-10496674D01*
X5012920Y-10496674D02*
X5022444Y-10458579D01*
X5022444Y-10458579D02*
X5031967Y-10439531D01*
X5031967Y-10439531D02*
X5041491Y-10430008D01*
X5041491Y-10430008D02*
X5060539Y-10420484D01*
X5212920Y-10620484D02*
X5212920Y-10487150D01*
X5212920Y-10506198D02*
X5222444Y-10496674D01*
X5222444Y-10496674D02*
X5241491Y-10487150D01*
X5241491Y-10487150D02*
X5270063Y-10487150D01*
X5270063Y-10487150D02*
X5289110Y-10496674D01*
X5289110Y-10496674D02*
X5298634Y-10515722D01*
X5298634Y-10515722D02*
X5298634Y-10620484D01*
X5298634Y-10515722D02*
X5308158Y-10496674D01*
X5308158Y-10496674D02*
X5327205Y-10487150D01*
X5327205Y-10487150D02*
X5355777Y-10487150D01*
X5355777Y-10487150D02*
X5374825Y-10496674D01*
X5374825Y-10496674D02*
X5384348Y-10515722D01*
X5384348Y-10515722D02*
X5384348Y-10620484D01*
X5479586Y-10620484D02*
X5479586Y-10487150D01*
X5479586Y-10506198D02*
X5489110Y-10496674D01*
X5489110Y-10496674D02*
X5508158Y-10487150D01*
X5508158Y-10487150D02*
X5536729Y-10487150D01*
X5536729Y-10487150D02*
X5555777Y-10496674D01*
X5555777Y-10496674D02*
X5565301Y-10515722D01*
X5565301Y-10515722D02*
X5565301Y-10620484D01*
X5565301Y-10515722D02*
X5574825Y-10496674D01*
X5574825Y-10496674D02*
X5593872Y-10487150D01*
X5593872Y-10487150D02*
X5622443Y-10487150D01*
X5622443Y-10487150D02*
X5641491Y-10496674D01*
X5641491Y-10496674D02*
X5651015Y-10515722D01*
X5651015Y-10515722D02*
X5651015Y-10620484D01*
X6041491Y-10410960D02*
X5870063Y-10668103D01*
X6298634Y-10420484D02*
X6317682Y-10420484D01*
X6317682Y-10420484D02*
X6336729Y-10430008D01*
X6336729Y-10430008D02*
X6346253Y-10439531D01*
X6346253Y-10439531D02*
X6355777Y-10458579D01*
X6355777Y-10458579D02*
X6365301Y-10496674D01*
X6365301Y-10496674D02*
X6365301Y-10544293D01*
X6365301Y-10544293D02*
X6355777Y-10582389D01*
X6355777Y-10582389D02*
X6346253Y-10601436D01*
X6346253Y-10601436D02*
X6336729Y-10610960D01*
X6336729Y-10610960D02*
X6317682Y-10620484D01*
X6317682Y-10620484D02*
X6298634Y-10620484D01*
X6298634Y-10620484D02*
X6279586Y-10610960D01*
X6279586Y-10610960D02*
X6270063Y-10601436D01*
X6270063Y-10601436D02*
X6260539Y-10582389D01*
X6260539Y-10582389D02*
X6251015Y-10544293D01*
X6251015Y-10544293D02*
X6251015Y-10496674D01*
X6251015Y-10496674D02*
X6260539Y-10458579D01*
X6260539Y-10458579D02*
X6270063Y-10439531D01*
X6270063Y-10439531D02*
X6279586Y-10430008D01*
X6279586Y-10430008D02*
X6298634Y-10420484D01*
X6451015Y-10601436D02*
X6460539Y-10610960D01*
X6460539Y-10610960D02*
X6451015Y-10620484D01*
X6451015Y-10620484D02*
X6441491Y-10610960D01*
X6441491Y-10610960D02*
X6451015Y-10601436D01*
X6451015Y-10601436D02*
X6451015Y-10620484D01*
X6584348Y-10420484D02*
X6603396Y-10420484D01*
X6603396Y-10420484D02*
X6622444Y-10430008D01*
X6622444Y-10430008D02*
X6631967Y-10439531D01*
X6631967Y-10439531D02*
X6641491Y-10458579D01*
X6641491Y-10458579D02*
X6651015Y-10496674D01*
X6651015Y-10496674D02*
X6651015Y-10544293D01*
X6651015Y-10544293D02*
X6641491Y-10582389D01*
X6641491Y-10582389D02*
X6631967Y-10601436D01*
X6631967Y-10601436D02*
X6622444Y-10610960D01*
X6622444Y-10610960D02*
X6603396Y-10620484D01*
X6603396Y-10620484D02*
X6584348Y-10620484D01*
X6584348Y-10620484D02*
X6565301Y-10610960D01*
X6565301Y-10610960D02*
X6555777Y-10601436D01*
X6555777Y-10601436D02*
X6546253Y-10582389D01*
X6546253Y-10582389D02*
X6536729Y-10544293D01*
X6536729Y-10544293D02*
X6536729Y-10496674D01*
X6536729Y-10496674D02*
X6546253Y-10458579D01*
X6546253Y-10458579D02*
X6555777Y-10439531D01*
X6555777Y-10439531D02*
X6565301Y-10430008D01*
X6565301Y-10430008D02*
X6584348Y-10420484D01*
X6717682Y-10420484D02*
X6841491Y-10420484D01*
X6841491Y-10420484D02*
X6774825Y-10496674D01*
X6774825Y-10496674D02*
X6803396Y-10496674D01*
X6803396Y-10496674D02*
X6822444Y-10506198D01*
X6822444Y-10506198D02*
X6831967Y-10515722D01*
X6831967Y-10515722D02*
X6841491Y-10534770D01*
X6841491Y-10534770D02*
X6841491Y-10582389D01*
X6841491Y-10582389D02*
X6831967Y-10601436D01*
X6831967Y-10601436D02*
X6822444Y-10610960D01*
X6822444Y-10610960D02*
X6803396Y-10620484D01*
X6803396Y-10620484D02*
X6746253Y-10620484D01*
X6746253Y-10620484D02*
X6727206Y-10610960D01*
X6727206Y-10610960D02*
X6717682Y-10601436D01*
X6908158Y-10420484D02*
X7041491Y-10420484D01*
X7041491Y-10420484D02*
X6955777Y-10620484D01*
X7203396Y-10487150D02*
X7203396Y-10620484D01*
X7155777Y-10410960D02*
X7108158Y-10553817D01*
X7108158Y-10553817D02*
X7231967Y-10553817D01*
X7298634Y-10420484D02*
X7298634Y-10458579D01*
X7374825Y-10420484D02*
X7374825Y-10458579D01*
X7670063Y-10696674D02*
X7660539Y-10687150D01*
X7660539Y-10687150D02*
X7641491Y-10658579D01*
X7641491Y-10658579D02*
X7631968Y-10639531D01*
X7631968Y-10639531D02*
X7622444Y-10610960D01*
X7622444Y-10610960D02*
X7612920Y-10563341D01*
X7612920Y-10563341D02*
X7612920Y-10525246D01*
X7612920Y-10525246D02*
X7622444Y-10477627D01*
X7622444Y-10477627D02*
X7631968Y-10449055D01*
X7631968Y-10449055D02*
X7641491Y-10430008D01*
X7641491Y-10430008D02*
X7660539Y-10401436D01*
X7660539Y-10401436D02*
X7670063Y-10391912D01*
X7727206Y-10420484D02*
X7851015Y-10420484D01*
X7851015Y-10420484D02*
X7784348Y-10496674D01*
X7784348Y-10496674D02*
X7812920Y-10496674D01*
X7812920Y-10496674D02*
X7831968Y-10506198D01*
X7831968Y-10506198D02*
X7841491Y-10515722D01*
X7841491Y-10515722D02*
X7851015Y-10534770D01*
X7851015Y-10534770D02*
X7851015Y-10582389D01*
X7851015Y-10582389D02*
X7841491Y-10601436D01*
X7841491Y-10601436D02*
X7831968Y-10610960D01*
X7831968Y-10610960D02*
X7812920Y-10620484D01*
X7812920Y-10620484D02*
X7755777Y-10620484D01*
X7755777Y-10620484D02*
X7736729Y-10610960D01*
X7736729Y-10610960D02*
X7727206Y-10601436D01*
X8089110Y-10620484D02*
X8089110Y-10420484D01*
X8174825Y-10620484D02*
X8174825Y-10515722D01*
X8174825Y-10515722D02*
X8165301Y-10496674D01*
X8165301Y-10496674D02*
X8146253Y-10487150D01*
X8146253Y-10487150D02*
X8117682Y-10487150D01*
X8117682Y-10487150D02*
X8098634Y-10496674D01*
X8098634Y-10496674D02*
X8089110Y-10506198D01*
X8298634Y-10620484D02*
X8279587Y-10610960D01*
X8279587Y-10610960D02*
X8270063Y-10601436D01*
X8270063Y-10601436D02*
X8260539Y-10582389D01*
X8260539Y-10582389D02*
X8260539Y-10525246D01*
X8260539Y-10525246D02*
X8270063Y-10506198D01*
X8270063Y-10506198D02*
X8279587Y-10496674D01*
X8279587Y-10496674D02*
X8298634Y-10487150D01*
X8298634Y-10487150D02*
X8327206Y-10487150D01*
X8327206Y-10487150D02*
X8346253Y-10496674D01*
X8346253Y-10496674D02*
X8355777Y-10506198D01*
X8355777Y-10506198D02*
X8365301Y-10525246D01*
X8365301Y-10525246D02*
X8365301Y-10582389D01*
X8365301Y-10582389D02*
X8355777Y-10601436D01*
X8355777Y-10601436D02*
X8346253Y-10610960D01*
X8346253Y-10610960D02*
X8327206Y-10620484D01*
X8327206Y-10620484D02*
X8298634Y-10620484D01*
X8479587Y-10620484D02*
X8460539Y-10610960D01*
X8460539Y-10610960D02*
X8451015Y-10591912D01*
X8451015Y-10591912D02*
X8451015Y-10420484D01*
X8631968Y-10610960D02*
X8612920Y-10620484D01*
X8612920Y-10620484D02*
X8574825Y-10620484D01*
X8574825Y-10620484D02*
X8555777Y-10610960D01*
X8555777Y-10610960D02*
X8546253Y-10591912D01*
X8546253Y-10591912D02*
X8546253Y-10515722D01*
X8546253Y-10515722D02*
X8555777Y-10496674D01*
X8555777Y-10496674D02*
X8574825Y-10487150D01*
X8574825Y-10487150D02*
X8612920Y-10487150D01*
X8612920Y-10487150D02*
X8631968Y-10496674D01*
X8631968Y-10496674D02*
X8641492Y-10515722D01*
X8641492Y-10515722D02*
X8641492Y-10534770D01*
X8641492Y-10534770D02*
X8546253Y-10553817D01*
X8717682Y-10610960D02*
X8736730Y-10620484D01*
X8736730Y-10620484D02*
X8774825Y-10620484D01*
X8774825Y-10620484D02*
X8793873Y-10610960D01*
X8793873Y-10610960D02*
X8803396Y-10591912D01*
X8803396Y-10591912D02*
X8803396Y-10582389D01*
X8803396Y-10582389D02*
X8793873Y-10563341D01*
X8793873Y-10563341D02*
X8774825Y-10553817D01*
X8774825Y-10553817D02*
X8746253Y-10553817D01*
X8746253Y-10553817D02*
X8727206Y-10544293D01*
X8727206Y-10544293D02*
X8717682Y-10525246D01*
X8717682Y-10525246D02*
X8717682Y-10515722D01*
X8717682Y-10515722D02*
X8727206Y-10496674D01*
X8727206Y-10496674D02*
X8746253Y-10487150D01*
X8746253Y-10487150D02*
X8774825Y-10487150D01*
X8774825Y-10487150D02*
X8793873Y-10496674D01*
X8870063Y-10696674D02*
X8879587Y-10687150D01*
X8879587Y-10687150D02*
X8898634Y-10658579D01*
X8898634Y-10658579D02*
X8908158Y-10639531D01*
X8908158Y-10639531D02*
X8917682Y-10610960D01*
X8917682Y-10610960D02*
X8927206Y-10563341D01*
X8927206Y-10563341D02*
X8927206Y-10525246D01*
X8927206Y-10525246D02*
X8917682Y-10477627D01*
X8917682Y-10477627D02*
X8908158Y-10449055D01*
X8908158Y-10449055D02*
X8898634Y-10430008D01*
X8898634Y-10430008D02*
X8879587Y-10401436D01*
X8879587Y-10401436D02*
X8870063Y-10391912D01*
D10*
X3995000Y-10743000D02*
X4095000Y-10843000D01*
X4095000Y-10743000D02*
X3995000Y-10843000D01*
X4080356Y-10828356D02*
X4080356Y-10757644D01*
X4009644Y-10757644D01*
X4009644Y-10828356D01*
X4080356Y-10828356D01*
D11*
X4460539Y-10884484D02*
X4346253Y-10884484D01*
X4403396Y-10884484D02*
X4403396Y-10684484D01*
X4403396Y-10684484D02*
X4384348Y-10713055D01*
X4384348Y-10713055D02*
X4365301Y-10732103D01*
X4365301Y-10732103D02*
X4346253Y-10741627D01*
X4546253Y-10865436D02*
X4555777Y-10874960D01*
X4555777Y-10874960D02*
X4546253Y-10884484D01*
X4546253Y-10884484D02*
X4536729Y-10874960D01*
X4536729Y-10874960D02*
X4546253Y-10865436D01*
X4546253Y-10865436D02*
X4546253Y-10884484D01*
X4679586Y-10684484D02*
X4698634Y-10684484D01*
X4698634Y-10684484D02*
X4717682Y-10694008D01*
X4717682Y-10694008D02*
X4727205Y-10703531D01*
X4727205Y-10703531D02*
X4736729Y-10722579D01*
X4736729Y-10722579D02*
X4746253Y-10760674D01*
X4746253Y-10760674D02*
X4746253Y-10808293D01*
X4746253Y-10808293D02*
X4736729Y-10846389D01*
X4736729Y-10846389D02*
X4727205Y-10865436D01*
X4727205Y-10865436D02*
X4717682Y-10874960D01*
X4717682Y-10874960D02*
X4698634Y-10884484D01*
X4698634Y-10884484D02*
X4679586Y-10884484D01*
X4679586Y-10884484D02*
X4660539Y-10874960D01*
X4660539Y-10874960D02*
X4651015Y-10865436D01*
X4651015Y-10865436D02*
X4641491Y-10846389D01*
X4641491Y-10846389D02*
X4631967Y-10808293D01*
X4631967Y-10808293D02*
X4631967Y-10760674D01*
X4631967Y-10760674D02*
X4641491Y-10722579D01*
X4641491Y-10722579D02*
X4651015Y-10703531D01*
X4651015Y-10703531D02*
X4660539Y-10694008D01*
X4660539Y-10694008D02*
X4679586Y-10684484D01*
X4870063Y-10684484D02*
X4889110Y-10684484D01*
X4889110Y-10684484D02*
X4908158Y-10694008D01*
X4908158Y-10694008D02*
X4917682Y-10703531D01*
X4917682Y-10703531D02*
X4927205Y-10722579D01*
X4927205Y-10722579D02*
X4936729Y-10760674D01*
X4936729Y-10760674D02*
X4936729Y-10808293D01*
X4936729Y-10808293D02*
X4927205Y-10846389D01*
X4927205Y-10846389D02*
X4917682Y-10865436D01*
X4917682Y-10865436D02*
X4908158Y-10874960D01*
X4908158Y-10874960D02*
X4889110Y-10884484D01*
X4889110Y-10884484D02*
X4870063Y-10884484D01*
X4870063Y-10884484D02*
X4851015Y-10874960D01*
X4851015Y-10874960D02*
X4841491Y-10865436D01*
X4841491Y-10865436D02*
X4831967Y-10846389D01*
X4831967Y-10846389D02*
X4822444Y-10808293D01*
X4822444Y-10808293D02*
X4822444Y-10760674D01*
X4822444Y-10760674D02*
X4831967Y-10722579D01*
X4831967Y-10722579D02*
X4841491Y-10703531D01*
X4841491Y-10703531D02*
X4851015Y-10694008D01*
X4851015Y-10694008D02*
X4870063Y-10684484D01*
X5060539Y-10684484D02*
X5079586Y-10684484D01*
X5079586Y-10684484D02*
X5098634Y-10694008D01*
X5098634Y-10694008D02*
X5108158Y-10703531D01*
X5108158Y-10703531D02*
X5117682Y-10722579D01*
X5117682Y-10722579D02*
X5127205Y-10760674D01*
X5127205Y-10760674D02*
X5127205Y-10808293D01*
X5127205Y-10808293D02*
X5117682Y-10846389D01*
X5117682Y-10846389D02*
X5108158Y-10865436D01*
X5108158Y-10865436D02*
X5098634Y-10874960D01*
X5098634Y-10874960D02*
X5079586Y-10884484D01*
X5079586Y-10884484D02*
X5060539Y-10884484D01*
X5060539Y-10884484D02*
X5041491Y-10874960D01*
X5041491Y-10874960D02*
X5031967Y-10865436D01*
X5031967Y-10865436D02*
X5022444Y-10846389D01*
X5022444Y-10846389D02*
X5012920Y-10808293D01*
X5012920Y-10808293D02*
X5012920Y-10760674D01*
X5012920Y-10760674D02*
X5022444Y-10722579D01*
X5022444Y-10722579D02*
X5031967Y-10703531D01*
X5031967Y-10703531D02*
X5041491Y-10694008D01*
X5041491Y-10694008D02*
X5060539Y-10684484D01*
X5212920Y-10884484D02*
X5212920Y-10751150D01*
X5212920Y-10770198D02*
X5222444Y-10760674D01*
X5222444Y-10760674D02*
X5241491Y-10751150D01*
X5241491Y-10751150D02*
X5270063Y-10751150D01*
X5270063Y-10751150D02*
X5289110Y-10760674D01*
X5289110Y-10760674D02*
X5298634Y-10779722D01*
X5298634Y-10779722D02*
X5298634Y-10884484D01*
X5298634Y-10779722D02*
X5308158Y-10760674D01*
X5308158Y-10760674D02*
X5327205Y-10751150D01*
X5327205Y-10751150D02*
X5355777Y-10751150D01*
X5355777Y-10751150D02*
X5374825Y-10760674D01*
X5374825Y-10760674D02*
X5384348Y-10779722D01*
X5384348Y-10779722D02*
X5384348Y-10884484D01*
X5479586Y-10884484D02*
X5479586Y-10751150D01*
X5479586Y-10770198D02*
X5489110Y-10760674D01*
X5489110Y-10760674D02*
X5508158Y-10751150D01*
X5508158Y-10751150D02*
X5536729Y-10751150D01*
X5536729Y-10751150D02*
X5555777Y-10760674D01*
X5555777Y-10760674D02*
X5565301Y-10779722D01*
X5565301Y-10779722D02*
X5565301Y-10884484D01*
X5565301Y-10779722D02*
X5574825Y-10760674D01*
X5574825Y-10760674D02*
X5593872Y-10751150D01*
X5593872Y-10751150D02*
X5622443Y-10751150D01*
X5622443Y-10751150D02*
X5641491Y-10760674D01*
X5641491Y-10760674D02*
X5651015Y-10779722D01*
X5651015Y-10779722D02*
X5651015Y-10884484D01*
X6041491Y-10674960D02*
X5870063Y-10932103D01*
X6298634Y-10684484D02*
X6317682Y-10684484D01*
X6317682Y-10684484D02*
X6336729Y-10694008D01*
X6336729Y-10694008D02*
X6346253Y-10703531D01*
X6346253Y-10703531D02*
X6355777Y-10722579D01*
X6355777Y-10722579D02*
X6365301Y-10760674D01*
X6365301Y-10760674D02*
X6365301Y-10808293D01*
X6365301Y-10808293D02*
X6355777Y-10846389D01*
X6355777Y-10846389D02*
X6346253Y-10865436D01*
X6346253Y-10865436D02*
X6336729Y-10874960D01*
X6336729Y-10874960D02*
X6317682Y-10884484D01*
X6317682Y-10884484D02*
X6298634Y-10884484D01*
X6298634Y-10884484D02*
X6279586Y-10874960D01*
X6279586Y-10874960D02*
X6270063Y-10865436D01*
X6270063Y-10865436D02*
X6260539Y-10846389D01*
X6260539Y-10846389D02*
X6251015Y-10808293D01*
X6251015Y-10808293D02*
X6251015Y-10760674D01*
X6251015Y-10760674D02*
X6260539Y-10722579D01*
X6260539Y-10722579D02*
X6270063Y-10703531D01*
X6270063Y-10703531D02*
X6279586Y-10694008D01*
X6279586Y-10694008D02*
X6298634Y-10684484D01*
X6451015Y-10865436D02*
X6460539Y-10874960D01*
X6460539Y-10874960D02*
X6451015Y-10884484D01*
X6451015Y-10884484D02*
X6441491Y-10874960D01*
X6441491Y-10874960D02*
X6451015Y-10865436D01*
X6451015Y-10865436D02*
X6451015Y-10884484D01*
X6584348Y-10684484D02*
X6603396Y-10684484D01*
X6603396Y-10684484D02*
X6622444Y-10694008D01*
X6622444Y-10694008D02*
X6631967Y-10703531D01*
X6631967Y-10703531D02*
X6641491Y-10722579D01*
X6641491Y-10722579D02*
X6651015Y-10760674D01*
X6651015Y-10760674D02*
X6651015Y-10808293D01*
X6651015Y-10808293D02*
X6641491Y-10846389D01*
X6641491Y-10846389D02*
X6631967Y-10865436D01*
X6631967Y-10865436D02*
X6622444Y-10874960D01*
X6622444Y-10874960D02*
X6603396Y-10884484D01*
X6603396Y-10884484D02*
X6584348Y-10884484D01*
X6584348Y-10884484D02*
X6565301Y-10874960D01*
X6565301Y-10874960D02*
X6555777Y-10865436D01*
X6555777Y-10865436D02*
X6546253Y-10846389D01*
X6546253Y-10846389D02*
X6536729Y-10808293D01*
X6536729Y-10808293D02*
X6536729Y-10760674D01*
X6536729Y-10760674D02*
X6546253Y-10722579D01*
X6546253Y-10722579D02*
X6555777Y-10703531D01*
X6555777Y-10703531D02*
X6565301Y-10694008D01*
X6565301Y-10694008D02*
X6584348Y-10684484D01*
X6717682Y-10684484D02*
X6841491Y-10684484D01*
X6841491Y-10684484D02*
X6774825Y-10760674D01*
X6774825Y-10760674D02*
X6803396Y-10760674D01*
X6803396Y-10760674D02*
X6822444Y-10770198D01*
X6822444Y-10770198D02*
X6831967Y-10779722D01*
X6831967Y-10779722D02*
X6841491Y-10798770D01*
X6841491Y-10798770D02*
X6841491Y-10846389D01*
X6841491Y-10846389D02*
X6831967Y-10865436D01*
X6831967Y-10865436D02*
X6822444Y-10874960D01*
X6822444Y-10874960D02*
X6803396Y-10884484D01*
X6803396Y-10884484D02*
X6746253Y-10884484D01*
X6746253Y-10884484D02*
X6727206Y-10874960D01*
X6727206Y-10874960D02*
X6717682Y-10865436D01*
X6936729Y-10884484D02*
X6974825Y-10884484D01*
X6974825Y-10884484D02*
X6993872Y-10874960D01*
X6993872Y-10874960D02*
X7003396Y-10865436D01*
X7003396Y-10865436D02*
X7022444Y-10836865D01*
X7022444Y-10836865D02*
X7031967Y-10798770D01*
X7031967Y-10798770D02*
X7031967Y-10722579D01*
X7031967Y-10722579D02*
X7022444Y-10703531D01*
X7022444Y-10703531D02*
X7012920Y-10694008D01*
X7012920Y-10694008D02*
X6993872Y-10684484D01*
X6993872Y-10684484D02*
X6955777Y-10684484D01*
X6955777Y-10684484D02*
X6936729Y-10694008D01*
X6936729Y-10694008D02*
X6927206Y-10703531D01*
X6927206Y-10703531D02*
X6917682Y-10722579D01*
X6917682Y-10722579D02*
X6917682Y-10770198D01*
X6917682Y-10770198D02*
X6927206Y-10789246D01*
X6927206Y-10789246D02*
X6936729Y-10798770D01*
X6936729Y-10798770D02*
X6955777Y-10808293D01*
X6955777Y-10808293D02*
X6993872Y-10808293D01*
X6993872Y-10808293D02*
X7012920Y-10798770D01*
X7012920Y-10798770D02*
X7022444Y-10789246D01*
X7022444Y-10789246D02*
X7031967Y-10770198D01*
X7203396Y-10751150D02*
X7203396Y-10884484D01*
X7155777Y-10674960D02*
X7108158Y-10817817D01*
X7108158Y-10817817D02*
X7231967Y-10817817D01*
X7298634Y-10684484D02*
X7298634Y-10722579D01*
X7374825Y-10684484D02*
X7374825Y-10722579D01*
X7670063Y-10960674D02*
X7660539Y-10951150D01*
X7660539Y-10951150D02*
X7641491Y-10922579D01*
X7641491Y-10922579D02*
X7631968Y-10903531D01*
X7631968Y-10903531D02*
X7622444Y-10874960D01*
X7622444Y-10874960D02*
X7612920Y-10827341D01*
X7612920Y-10827341D02*
X7612920Y-10789246D01*
X7612920Y-10789246D02*
X7622444Y-10741627D01*
X7622444Y-10741627D02*
X7631968Y-10713055D01*
X7631968Y-10713055D02*
X7641491Y-10694008D01*
X7641491Y-10694008D02*
X7660539Y-10665436D01*
X7660539Y-10665436D02*
X7670063Y-10655912D01*
X7851015Y-10884484D02*
X7736729Y-10884484D01*
X7793872Y-10884484D02*
X7793872Y-10684484D01*
X7793872Y-10684484D02*
X7774825Y-10713055D01*
X7774825Y-10713055D02*
X7755777Y-10732103D01*
X7755777Y-10732103D02*
X7736729Y-10741627D01*
X7965301Y-10770198D02*
X7946253Y-10760674D01*
X7946253Y-10760674D02*
X7936729Y-10751150D01*
X7936729Y-10751150D02*
X7927206Y-10732103D01*
X7927206Y-10732103D02*
X7927206Y-10722579D01*
X7927206Y-10722579D02*
X7936729Y-10703531D01*
X7936729Y-10703531D02*
X7946253Y-10694008D01*
X7946253Y-10694008D02*
X7965301Y-10684484D01*
X7965301Y-10684484D02*
X8003396Y-10684484D01*
X8003396Y-10684484D02*
X8022444Y-10694008D01*
X8022444Y-10694008D02*
X8031968Y-10703531D01*
X8031968Y-10703531D02*
X8041491Y-10722579D01*
X8041491Y-10722579D02*
X8041491Y-10732103D01*
X8041491Y-10732103D02*
X8031968Y-10751150D01*
X8031968Y-10751150D02*
X8022444Y-10760674D01*
X8022444Y-10760674D02*
X8003396Y-10770198D01*
X8003396Y-10770198D02*
X7965301Y-10770198D01*
X7965301Y-10770198D02*
X7946253Y-10779722D01*
X7946253Y-10779722D02*
X7936729Y-10789246D01*
X7936729Y-10789246D02*
X7927206Y-10808293D01*
X7927206Y-10808293D02*
X7927206Y-10846389D01*
X7927206Y-10846389D02*
X7936729Y-10865436D01*
X7936729Y-10865436D02*
X7946253Y-10874960D01*
X7946253Y-10874960D02*
X7965301Y-10884484D01*
X7965301Y-10884484D02*
X8003396Y-10884484D01*
X8003396Y-10884484D02*
X8022444Y-10874960D01*
X8022444Y-10874960D02*
X8031968Y-10865436D01*
X8031968Y-10865436D02*
X8041491Y-10846389D01*
X8041491Y-10846389D02*
X8041491Y-10808293D01*
X8041491Y-10808293D02*
X8031968Y-10789246D01*
X8031968Y-10789246D02*
X8022444Y-10779722D01*
X8022444Y-10779722D02*
X8003396Y-10770198D01*
X8279587Y-10884484D02*
X8279587Y-10684484D01*
X8365301Y-10884484D02*
X8365301Y-10779722D01*
X8365301Y-10779722D02*
X8355777Y-10760674D01*
X8355777Y-10760674D02*
X8336730Y-10751150D01*
X8336730Y-10751150D02*
X8308158Y-10751150D01*
X8308158Y-10751150D02*
X8289110Y-10760674D01*
X8289110Y-10760674D02*
X8279587Y-10770198D01*
X8489111Y-10884484D02*
X8470063Y-10874960D01*
X8470063Y-10874960D02*
X8460539Y-10865436D01*
X8460539Y-10865436D02*
X8451015Y-10846389D01*
X8451015Y-10846389D02*
X8451015Y-10789246D01*
X8451015Y-10789246D02*
X8460539Y-10770198D01*
X8460539Y-10770198D02*
X8470063Y-10760674D01*
X8470063Y-10760674D02*
X8489111Y-10751150D01*
X8489111Y-10751150D02*
X8517682Y-10751150D01*
X8517682Y-10751150D02*
X8536730Y-10760674D01*
X8536730Y-10760674D02*
X8546253Y-10770198D01*
X8546253Y-10770198D02*
X8555777Y-10789246D01*
X8555777Y-10789246D02*
X8555777Y-10846389D01*
X8555777Y-10846389D02*
X8546253Y-10865436D01*
X8546253Y-10865436D02*
X8536730Y-10874960D01*
X8536730Y-10874960D02*
X8517682Y-10884484D01*
X8517682Y-10884484D02*
X8489111Y-10884484D01*
X8670063Y-10884484D02*
X8651015Y-10874960D01*
X8651015Y-10874960D02*
X8641492Y-10855912D01*
X8641492Y-10855912D02*
X8641492Y-10684484D01*
X8822444Y-10874960D02*
X8803396Y-10884484D01*
X8803396Y-10884484D02*
X8765301Y-10884484D01*
X8765301Y-10884484D02*
X8746253Y-10874960D01*
X8746253Y-10874960D02*
X8736730Y-10855912D01*
X8736730Y-10855912D02*
X8736730Y-10779722D01*
X8736730Y-10779722D02*
X8746253Y-10760674D01*
X8746253Y-10760674D02*
X8765301Y-10751150D01*
X8765301Y-10751150D02*
X8803396Y-10751150D01*
X8803396Y-10751150D02*
X8822444Y-10760674D01*
X8822444Y-10760674D02*
X8831968Y-10779722D01*
X8831968Y-10779722D02*
X8831968Y-10798770D01*
X8831968Y-10798770D02*
X8736730Y-10817817D01*
X8908158Y-10874960D02*
X8927206Y-10884484D01*
X8927206Y-10884484D02*
X8965301Y-10884484D01*
X8965301Y-10884484D02*
X8984349Y-10874960D01*
X8984349Y-10874960D02*
X8993873Y-10855912D01*
X8993873Y-10855912D02*
X8993873Y-10846389D01*
X8993873Y-10846389D02*
X8984349Y-10827341D01*
X8984349Y-10827341D02*
X8965301Y-10817817D01*
X8965301Y-10817817D02*
X8936730Y-10817817D01*
X8936730Y-10817817D02*
X8917682Y-10808293D01*
X8917682Y-10808293D02*
X8908158Y-10789246D01*
X8908158Y-10789246D02*
X8908158Y-10779722D01*
X8908158Y-10779722D02*
X8917682Y-10760674D01*
X8917682Y-10760674D02*
X8936730Y-10751150D01*
X8936730Y-10751150D02*
X8965301Y-10751150D01*
X8965301Y-10751150D02*
X8984349Y-10760674D01*
X9060539Y-10960674D02*
X9070063Y-10951150D01*
X9070063Y-10951150D02*
X9089111Y-10922579D01*
X9089111Y-10922579D02*
X9098634Y-10903531D01*
X9098634Y-10903531D02*
X9108158Y-10874960D01*
X9108158Y-10874960D02*
X9117682Y-10827341D01*
X9117682Y-10827341D02*
X9117682Y-10789246D01*
X9117682Y-10789246D02*
X9108158Y-10741627D01*
X9108158Y-10741627D02*
X9098634Y-10713055D01*
X9098634Y-10713055D02*
X9089111Y-10694008D01*
X9089111Y-10694008D02*
X9070063Y-10665436D01*
X9070063Y-10665436D02*
X9060539Y-10655912D01*
X3895000Y-10957000D02*
X4095000Y-11157000D01*
X4095000Y-10957000D02*
X3895000Y-11157000D01*
X3995000Y-11157000D02*
X4095000Y-11057000D01*
X3995000Y-10957000D01*
X3895000Y-11057000D01*
X3995000Y-11157000D01*
X4346253Y-10967531D02*
X4355777Y-10958008D01*
X4355777Y-10958008D02*
X4374824Y-10948484D01*
X4374824Y-10948484D02*
X4422444Y-10948484D01*
X4422444Y-10948484D02*
X4441491Y-10958008D01*
X4441491Y-10958008D02*
X4451015Y-10967531D01*
X4451015Y-10967531D02*
X4460539Y-10986579D01*
X4460539Y-10986579D02*
X4460539Y-11005627D01*
X4460539Y-11005627D02*
X4451015Y-11034198D01*
X4451015Y-11034198D02*
X4336729Y-11148484D01*
X4336729Y-11148484D02*
X4460539Y-11148484D01*
X4546253Y-11129436D02*
X4555777Y-11138960D01*
X4555777Y-11138960D02*
X4546253Y-11148484D01*
X4546253Y-11148484D02*
X4536729Y-11138960D01*
X4536729Y-11138960D02*
X4546253Y-11129436D01*
X4546253Y-11129436D02*
X4546253Y-11148484D01*
X4679586Y-10948484D02*
X4698634Y-10948484D01*
X4698634Y-10948484D02*
X4717682Y-10958008D01*
X4717682Y-10958008D02*
X4727205Y-10967531D01*
X4727205Y-10967531D02*
X4736729Y-10986579D01*
X4736729Y-10986579D02*
X4746253Y-11024674D01*
X4746253Y-11024674D02*
X4746253Y-11072293D01*
X4746253Y-11072293D02*
X4736729Y-11110389D01*
X4736729Y-11110389D02*
X4727205Y-11129436D01*
X4727205Y-11129436D02*
X4717682Y-11138960D01*
X4717682Y-11138960D02*
X4698634Y-11148484D01*
X4698634Y-11148484D02*
X4679586Y-11148484D01*
X4679586Y-11148484D02*
X4660539Y-11138960D01*
X4660539Y-11138960D02*
X4651015Y-11129436D01*
X4651015Y-11129436D02*
X4641491Y-11110389D01*
X4641491Y-11110389D02*
X4631967Y-11072293D01*
X4631967Y-11072293D02*
X4631967Y-11024674D01*
X4631967Y-11024674D02*
X4641491Y-10986579D01*
X4641491Y-10986579D02*
X4651015Y-10967531D01*
X4651015Y-10967531D02*
X4660539Y-10958008D01*
X4660539Y-10958008D02*
X4679586Y-10948484D01*
X4870063Y-10948484D02*
X4889110Y-10948484D01*
X4889110Y-10948484D02*
X4908158Y-10958008D01*
X4908158Y-10958008D02*
X4917682Y-10967531D01*
X4917682Y-10967531D02*
X4927205Y-10986579D01*
X4927205Y-10986579D02*
X4936729Y-11024674D01*
X4936729Y-11024674D02*
X4936729Y-11072293D01*
X4936729Y-11072293D02*
X4927205Y-11110389D01*
X4927205Y-11110389D02*
X4917682Y-11129436D01*
X4917682Y-11129436D02*
X4908158Y-11138960D01*
X4908158Y-11138960D02*
X4889110Y-11148484D01*
X4889110Y-11148484D02*
X4870063Y-11148484D01*
X4870063Y-11148484D02*
X4851015Y-11138960D01*
X4851015Y-11138960D02*
X4841491Y-11129436D01*
X4841491Y-11129436D02*
X4831967Y-11110389D01*
X4831967Y-11110389D02*
X4822444Y-11072293D01*
X4822444Y-11072293D02*
X4822444Y-11024674D01*
X4822444Y-11024674D02*
X4831967Y-10986579D01*
X4831967Y-10986579D02*
X4841491Y-10967531D01*
X4841491Y-10967531D02*
X4851015Y-10958008D01*
X4851015Y-10958008D02*
X4870063Y-10948484D01*
X5060539Y-10948484D02*
X5079586Y-10948484D01*
X5079586Y-10948484D02*
X5098634Y-10958008D01*
X5098634Y-10958008D02*
X5108158Y-10967531D01*
X5108158Y-10967531D02*
X5117682Y-10986579D01*
X5117682Y-10986579D02*
X5127205Y-11024674D01*
X5127205Y-11024674D02*
X5127205Y-11072293D01*
X5127205Y-11072293D02*
X5117682Y-11110389D01*
X5117682Y-11110389D02*
X5108158Y-11129436D01*
X5108158Y-11129436D02*
X5098634Y-11138960D01*
X5098634Y-11138960D02*
X5079586Y-11148484D01*
X5079586Y-11148484D02*
X5060539Y-11148484D01*
X5060539Y-11148484D02*
X5041491Y-11138960D01*
X5041491Y-11138960D02*
X5031967Y-11129436D01*
X5031967Y-11129436D02*
X5022444Y-11110389D01*
X5022444Y-11110389D02*
X5012920Y-11072293D01*
X5012920Y-11072293D02*
X5012920Y-11024674D01*
X5012920Y-11024674D02*
X5022444Y-10986579D01*
X5022444Y-10986579D02*
X5031967Y-10967531D01*
X5031967Y-10967531D02*
X5041491Y-10958008D01*
X5041491Y-10958008D02*
X5060539Y-10948484D01*
X5212920Y-11148484D02*
X5212920Y-11015150D01*
X5212920Y-11034198D02*
X5222444Y-11024674D01*
X5222444Y-11024674D02*
X5241491Y-11015150D01*
X5241491Y-11015150D02*
X5270063Y-11015150D01*
X5270063Y-11015150D02*
X5289110Y-11024674D01*
X5289110Y-11024674D02*
X5298634Y-11043722D01*
X5298634Y-11043722D02*
X5298634Y-11148484D01*
X5298634Y-11043722D02*
X5308158Y-11024674D01*
X5308158Y-11024674D02*
X5327205Y-11015150D01*
X5327205Y-11015150D02*
X5355777Y-11015150D01*
X5355777Y-11015150D02*
X5374825Y-11024674D01*
X5374825Y-11024674D02*
X5384348Y-11043722D01*
X5384348Y-11043722D02*
X5384348Y-11148484D01*
X5479586Y-11148484D02*
X5479586Y-11015150D01*
X5479586Y-11034198D02*
X5489110Y-11024674D01*
X5489110Y-11024674D02*
X5508158Y-11015150D01*
X5508158Y-11015150D02*
X5536729Y-11015150D01*
X5536729Y-11015150D02*
X5555777Y-11024674D01*
X5555777Y-11024674D02*
X5565301Y-11043722D01*
X5565301Y-11043722D02*
X5565301Y-11148484D01*
X5565301Y-11043722D02*
X5574825Y-11024674D01*
X5574825Y-11024674D02*
X5593872Y-11015150D01*
X5593872Y-11015150D02*
X5622443Y-11015150D01*
X5622443Y-11015150D02*
X5641491Y-11024674D01*
X5641491Y-11024674D02*
X5651015Y-11043722D01*
X5651015Y-11043722D02*
X5651015Y-11148484D01*
X6041491Y-10938960D02*
X5870063Y-11196103D01*
X6298634Y-10948484D02*
X6317682Y-10948484D01*
X6317682Y-10948484D02*
X6336729Y-10958008D01*
X6336729Y-10958008D02*
X6346253Y-10967531D01*
X6346253Y-10967531D02*
X6355777Y-10986579D01*
X6355777Y-10986579D02*
X6365301Y-11024674D01*
X6365301Y-11024674D02*
X6365301Y-11072293D01*
X6365301Y-11072293D02*
X6355777Y-11110389D01*
X6355777Y-11110389D02*
X6346253Y-11129436D01*
X6346253Y-11129436D02*
X6336729Y-11138960D01*
X6336729Y-11138960D02*
X6317682Y-11148484D01*
X6317682Y-11148484D02*
X6298634Y-11148484D01*
X6298634Y-11148484D02*
X6279586Y-11138960D01*
X6279586Y-11138960D02*
X6270063Y-11129436D01*
X6270063Y-11129436D02*
X6260539Y-11110389D01*
X6260539Y-11110389D02*
X6251015Y-11072293D01*
X6251015Y-11072293D02*
X6251015Y-11024674D01*
X6251015Y-11024674D02*
X6260539Y-10986579D01*
X6260539Y-10986579D02*
X6270063Y-10967531D01*
X6270063Y-10967531D02*
X6279586Y-10958008D01*
X6279586Y-10958008D02*
X6298634Y-10948484D01*
X6451015Y-11129436D02*
X6460539Y-11138960D01*
X6460539Y-11138960D02*
X6451015Y-11148484D01*
X6451015Y-11148484D02*
X6441491Y-11138960D01*
X6441491Y-11138960D02*
X6451015Y-11129436D01*
X6451015Y-11129436D02*
X6451015Y-11148484D01*
X6584348Y-10948484D02*
X6603396Y-10948484D01*
X6603396Y-10948484D02*
X6622444Y-10958008D01*
X6622444Y-10958008D02*
X6631967Y-10967531D01*
X6631967Y-10967531D02*
X6641491Y-10986579D01*
X6641491Y-10986579D02*
X6651015Y-11024674D01*
X6651015Y-11024674D02*
X6651015Y-11072293D01*
X6651015Y-11072293D02*
X6641491Y-11110389D01*
X6641491Y-11110389D02*
X6631967Y-11129436D01*
X6631967Y-11129436D02*
X6622444Y-11138960D01*
X6622444Y-11138960D02*
X6603396Y-11148484D01*
X6603396Y-11148484D02*
X6584348Y-11148484D01*
X6584348Y-11148484D02*
X6565301Y-11138960D01*
X6565301Y-11138960D02*
X6555777Y-11129436D01*
X6555777Y-11129436D02*
X6546253Y-11110389D01*
X6546253Y-11110389D02*
X6536729Y-11072293D01*
X6536729Y-11072293D02*
X6536729Y-11024674D01*
X6536729Y-11024674D02*
X6546253Y-10986579D01*
X6546253Y-10986579D02*
X6555777Y-10967531D01*
X6555777Y-10967531D02*
X6565301Y-10958008D01*
X6565301Y-10958008D02*
X6584348Y-10948484D01*
X6717682Y-10948484D02*
X6851015Y-10948484D01*
X6851015Y-10948484D02*
X6765301Y-11148484D01*
X6955777Y-11034198D02*
X6936729Y-11024674D01*
X6936729Y-11024674D02*
X6927206Y-11015150D01*
X6927206Y-11015150D02*
X6917682Y-10996103D01*
X6917682Y-10996103D02*
X6917682Y-10986579D01*
X6917682Y-10986579D02*
X6927206Y-10967531D01*
X6927206Y-10967531D02*
X6936729Y-10958008D01*
X6936729Y-10958008D02*
X6955777Y-10948484D01*
X6955777Y-10948484D02*
X6993872Y-10948484D01*
X6993872Y-10948484D02*
X7012920Y-10958008D01*
X7012920Y-10958008D02*
X7022444Y-10967531D01*
X7022444Y-10967531D02*
X7031967Y-10986579D01*
X7031967Y-10986579D02*
X7031967Y-10996103D01*
X7031967Y-10996103D02*
X7022444Y-11015150D01*
X7022444Y-11015150D02*
X7012920Y-11024674D01*
X7012920Y-11024674D02*
X6993872Y-11034198D01*
X6993872Y-11034198D02*
X6955777Y-11034198D01*
X6955777Y-11034198D02*
X6936729Y-11043722D01*
X6936729Y-11043722D02*
X6927206Y-11053246D01*
X6927206Y-11053246D02*
X6917682Y-11072293D01*
X6917682Y-11072293D02*
X6917682Y-11110389D01*
X6917682Y-11110389D02*
X6927206Y-11129436D01*
X6927206Y-11129436D02*
X6936729Y-11138960D01*
X6936729Y-11138960D02*
X6955777Y-11148484D01*
X6955777Y-11148484D02*
X6993872Y-11148484D01*
X6993872Y-11148484D02*
X7012920Y-11138960D01*
X7012920Y-11138960D02*
X7022444Y-11129436D01*
X7022444Y-11129436D02*
X7031967Y-11110389D01*
X7031967Y-11110389D02*
X7031967Y-11072293D01*
X7031967Y-11072293D02*
X7022444Y-11053246D01*
X7022444Y-11053246D02*
X7012920Y-11043722D01*
X7012920Y-11043722D02*
X6993872Y-11034198D01*
X7098634Y-10948484D02*
X7231967Y-10948484D01*
X7231967Y-10948484D02*
X7146253Y-11148484D01*
X7298634Y-10948484D02*
X7298634Y-10986579D01*
X7374825Y-10948484D02*
X7374825Y-10986579D01*
X7670063Y-11224674D02*
X7660539Y-11215150D01*
X7660539Y-11215150D02*
X7641491Y-11186579D01*
X7641491Y-11186579D02*
X7631968Y-11167531D01*
X7631968Y-11167531D02*
X7622444Y-11138960D01*
X7622444Y-11138960D02*
X7612920Y-11091341D01*
X7612920Y-11091341D02*
X7612920Y-11053246D01*
X7612920Y-11053246D02*
X7622444Y-11005627D01*
X7622444Y-11005627D02*
X7631968Y-10977055D01*
X7631968Y-10977055D02*
X7641491Y-10958008D01*
X7641491Y-10958008D02*
X7660539Y-10929436D01*
X7660539Y-10929436D02*
X7670063Y-10919912D01*
X7851015Y-11148484D02*
X7736729Y-11148484D01*
X7793872Y-11148484D02*
X7793872Y-10948484D01*
X7793872Y-10948484D02*
X7774825Y-10977055D01*
X7774825Y-10977055D02*
X7755777Y-10996103D01*
X7755777Y-10996103D02*
X7736729Y-11005627D01*
X8089110Y-11148484D02*
X8089110Y-10948484D01*
X8174825Y-11148484D02*
X8174825Y-11043722D01*
X8174825Y-11043722D02*
X8165301Y-11024674D01*
X8165301Y-11024674D02*
X8146253Y-11015150D01*
X8146253Y-11015150D02*
X8117682Y-11015150D01*
X8117682Y-11015150D02*
X8098634Y-11024674D01*
X8098634Y-11024674D02*
X8089110Y-11034198D01*
X8298634Y-11148484D02*
X8279587Y-11138960D01*
X8279587Y-11138960D02*
X8270063Y-11129436D01*
X8270063Y-11129436D02*
X8260539Y-11110389D01*
X8260539Y-11110389D02*
X8260539Y-11053246D01*
X8260539Y-11053246D02*
X8270063Y-11034198D01*
X8270063Y-11034198D02*
X8279587Y-11024674D01*
X8279587Y-11024674D02*
X8298634Y-11015150D01*
X8298634Y-11015150D02*
X8327206Y-11015150D01*
X8327206Y-11015150D02*
X8346253Y-11024674D01*
X8346253Y-11024674D02*
X8355777Y-11034198D01*
X8355777Y-11034198D02*
X8365301Y-11053246D01*
X8365301Y-11053246D02*
X8365301Y-11110389D01*
X8365301Y-11110389D02*
X8355777Y-11129436D01*
X8355777Y-11129436D02*
X8346253Y-11138960D01*
X8346253Y-11138960D02*
X8327206Y-11148484D01*
X8327206Y-11148484D02*
X8298634Y-11148484D01*
X8479587Y-11148484D02*
X8460539Y-11138960D01*
X8460539Y-11138960D02*
X8451015Y-11119912D01*
X8451015Y-11119912D02*
X8451015Y-10948484D01*
X8631968Y-11138960D02*
X8612920Y-11148484D01*
X8612920Y-11148484D02*
X8574825Y-11148484D01*
X8574825Y-11148484D02*
X8555777Y-11138960D01*
X8555777Y-11138960D02*
X8546253Y-11119912D01*
X8546253Y-11119912D02*
X8546253Y-11043722D01*
X8546253Y-11043722D02*
X8555777Y-11024674D01*
X8555777Y-11024674D02*
X8574825Y-11015150D01*
X8574825Y-11015150D02*
X8612920Y-11015150D01*
X8612920Y-11015150D02*
X8631968Y-11024674D01*
X8631968Y-11024674D02*
X8641492Y-11043722D01*
X8641492Y-11043722D02*
X8641492Y-11062770D01*
X8641492Y-11062770D02*
X8546253Y-11081817D01*
X8708158Y-11224674D02*
X8717682Y-11215150D01*
X8717682Y-11215150D02*
X8736730Y-11186579D01*
X8736730Y-11186579D02*
X8746253Y-11167531D01*
X8746253Y-11167531D02*
X8755777Y-11138960D01*
X8755777Y-11138960D02*
X8765301Y-11091341D01*
X8765301Y-11091341D02*
X8765301Y-11053246D01*
X8765301Y-11053246D02*
X8755777Y-11005627D01*
X8755777Y-11005627D02*
X8746253Y-10977055D01*
X8746253Y-10977055D02*
X8736730Y-10958008D01*
X8736730Y-10958008D02*
X8717682Y-10929436D01*
X8717682Y-10929436D02*
X8708158Y-10919912D01*
M02*
