%TF.GenerationSoftware,KiCad,Pcbnew,8.0.2-8.0.2-0~ubuntu22.04.1*%
%TF.CreationDate,2024-05-11T00:12:29+03:00*%
%TF.ProjectId,outdoor-module,6f757464-6f6f-4722-9d6d-6f64756c652e,rev?*%
%TF.SameCoordinates,Original*%
%TF.FileFunction,Paste,Top*%
%TF.FilePolarity,Positive*%
%FSLAX46Y46*%
G04 Gerber Fmt 4.6, Leading zero omitted, Abs format (unit mm)*
G04 Created by KiCad (PCBNEW 8.0.2-8.0.2-0~ubuntu22.04.1) date 2024-05-11 00:12:29*
%MOMM*%
%LPD*%
G01*
G04 APERTURE LIST*
G04 Aperture macros list*
%AMRoundRect*
0 Rectangle with rounded corners*
0 $1 Rounding radius*
0 $2 $3 $4 $5 $6 $7 $8 $9 X,Y pos of 4 corners*
0 Add a 4 corners polygon primitive as box body*
4,1,4,$2,$3,$4,$5,$6,$7,$8,$9,$2,$3,0*
0 Add four circle primitives for the rounded corners*
1,1,$1+$1,$2,$3*
1,1,$1+$1,$4,$5*
1,1,$1+$1,$6,$7*
1,1,$1+$1,$8,$9*
0 Add four rect primitives between the rounded corners*
20,1,$1+$1,$2,$3,$4,$5,0*
20,1,$1+$1,$4,$5,$6,$7,0*
20,1,$1+$1,$6,$7,$8,$9,0*
20,1,$1+$1,$8,$9,$2,$3,0*%
G04 Aperture macros list end*
%ADD10RoundRect,0.250000X-0.450000X0.262500X-0.450000X-0.262500X0.450000X-0.262500X0.450000X0.262500X0*%
%ADD11RoundRect,0.952500X-1.167500X-0.952500X1.167500X-0.952500X1.167500X0.952500X-1.167500X0.952500X0*%
%ADD12RoundRect,0.225000X-0.225000X-0.250000X0.225000X-0.250000X0.225000X0.250000X-0.225000X0.250000X0*%
%ADD13RoundRect,0.250000X-0.325000X-1.100000X0.325000X-1.100000X0.325000X1.100000X-0.325000X1.100000X0*%
%ADD14RoundRect,0.150000X-0.150000X0.587500X-0.150000X-0.587500X0.150000X-0.587500X0.150000X0.587500X0*%
%ADD15RoundRect,0.250000X0.450000X-0.262500X0.450000X0.262500X-0.450000X0.262500X-0.450000X-0.262500X0*%
%ADD16RoundRect,0.225000X0.225000X0.250000X-0.225000X0.250000X-0.225000X-0.250000X0.225000X-0.250000X0*%
%ADD17RoundRect,0.150000X0.587500X0.150000X-0.587500X0.150000X-0.587500X-0.150000X0.587500X-0.150000X0*%
%ADD18RoundRect,0.235000X-1.465000X0.940000X-1.465000X-0.940000X1.465000X-0.940000X1.465000X0.940000X0*%
%ADD19RoundRect,0.225000X0.250000X-0.225000X0.250000X0.225000X-0.250000X0.225000X-0.250000X-0.225000X0*%
%ADD20RoundRect,0.952500X1.167500X0.952500X-1.167500X0.952500X-1.167500X-0.952500X1.167500X-0.952500X0*%
%ADD21RoundRect,0.225000X-0.250000X0.225000X-0.250000X-0.225000X0.250000X-0.225000X0.250000X0.225000X0*%
%ADD22RoundRect,0.250000X-0.312500X-0.625000X0.312500X-0.625000X0.312500X0.625000X-0.312500X0.625000X0*%
%ADD23R,0.350000X0.500000*%
%ADD24RoundRect,0.250000X0.650000X-1.000000X0.650000X1.000000X-0.650000X1.000000X-0.650000X-1.000000X0*%
%ADD25C,0.700000*%
%ADD26R,0.550000X1.600000*%
%ADD27R,1.600000X0.550000*%
%ADD28RoundRect,0.150000X-0.587500X-0.150000X0.587500X-0.150000X0.587500X0.150000X-0.587500X0.150000X0*%
%ADD29RoundRect,0.100000X-0.712500X-0.100000X0.712500X-0.100000X0.712500X0.100000X-0.712500X0.100000X0*%
%ADD30RoundRect,0.250000X1.100000X-0.325000X1.100000X0.325000X-1.100000X0.325000X-1.100000X-0.325000X0*%
%ADD31RoundRect,0.250000X0.262500X0.450000X-0.262500X0.450000X-0.262500X-0.450000X0.262500X-0.450000X0*%
%ADD32RoundRect,0.250000X-0.315000X0.315000X-0.315000X-0.315000X0.315000X-0.315000X0.315000X0.315000X0*%
%ADD33RoundRect,0.050000X-0.050000X0.387500X-0.050000X-0.387500X0.050000X-0.387500X0.050000X0.387500X0*%
%ADD34RoundRect,0.050000X-0.387500X0.050000X-0.387500X-0.050000X0.387500X-0.050000X0.387500X0.050000X0*%
%ADD35RoundRect,0.250000X-0.262500X-0.450000X0.262500X-0.450000X0.262500X0.450000X-0.262500X0.450000X0*%
%ADD36RoundRect,0.150000X0.150000X-0.587500X0.150000X0.587500X-0.150000X0.587500X-0.150000X-0.587500X0*%
%ADD37RoundRect,0.250000X-0.650000X1.000000X-0.650000X-1.000000X0.650000X-1.000000X0.650000X1.000000X0*%
%ADD38RoundRect,0.250000X0.312500X0.625000X-0.312500X0.625000X-0.312500X-0.625000X0.312500X-0.625000X0*%
G04 APERTURE END LIST*
D10*
%TO.C,R3*%
X82800000Y-40987500D03*
X82800000Y-42812500D03*
%TD*%
%TO.C,R21*%
X107800000Y-68775000D03*
X107800000Y-70600000D03*
%TD*%
D11*
%TO.C,F1*%
X85975000Y-79200000D03*
X92385000Y-79200000D03*
%TD*%
D12*
%TO.C,C19*%
X61120000Y-51662500D03*
X62670000Y-51662500D03*
%TD*%
D13*
%TO.C,C34*%
X132325000Y-51300000D03*
X135275000Y-51300000D03*
%TD*%
D14*
%TO.C,U3*%
X86418750Y-69656250D03*
X84518750Y-69656250D03*
X85468750Y-71531250D03*
%TD*%
D13*
%TO.C,C35*%
X132325000Y-54800000D03*
X135275000Y-54800000D03*
%TD*%
D12*
%TO.C,C32*%
X127625000Y-65600000D03*
X129175000Y-65600000D03*
%TD*%
D15*
%TO.C,R2*%
X73000000Y-66812500D03*
X73000000Y-64987500D03*
%TD*%
D16*
%TO.C,C24*%
X125575000Y-56240000D03*
X124025000Y-56240000D03*
%TD*%
D10*
%TO.C,R6*%
X82280000Y-48587500D03*
X82280000Y-50412500D03*
%TD*%
%TO.C,R10*%
X63512500Y-41937500D03*
X63512500Y-43762500D03*
%TD*%
D16*
%TO.C,C1*%
X90975000Y-54900000D03*
X89425000Y-54900000D03*
%TD*%
D17*
%TO.C,Q1*%
X70700000Y-70550000D03*
X70700000Y-68650000D03*
X68825000Y-69600000D03*
%TD*%
D15*
%TO.C,R25*%
X64700000Y-49312500D03*
X64700000Y-47487500D03*
%TD*%
D13*
%TO.C,C20*%
X83993750Y-66793750D03*
X86943750Y-66793750D03*
%TD*%
D12*
%TO.C,C37*%
X61345000Y-47500000D03*
X62895000Y-47500000D03*
%TD*%
D10*
%TO.C,R8*%
X108200000Y-55587500D03*
X108200000Y-57412500D03*
%TD*%
D18*
%TO.C,L3*%
X133200000Y-67775000D03*
X133200000Y-73825000D03*
%TD*%
D19*
%TO.C,C33*%
X45400000Y-48975000D03*
X45400000Y-47425000D03*
%TD*%
D12*
%TO.C,C40*%
X65045000Y-50900000D03*
X66595000Y-50900000D03*
%TD*%
D20*
%TO.C,F2*%
X125225000Y-43200000D03*
X118815000Y-43200000D03*
%TD*%
D21*
%TO.C,C23*%
X72200000Y-41025000D03*
X72200000Y-42575000D03*
%TD*%
D16*
%TO.C,C39*%
X116275000Y-76500000D03*
X114725000Y-76500000D03*
%TD*%
D10*
%TO.C,R26*%
X66800000Y-47487500D03*
X66800000Y-49312500D03*
%TD*%
D16*
%TO.C,C2*%
X91275000Y-41200000D03*
X89725000Y-41200000D03*
%TD*%
D12*
%TO.C,C15*%
X61445000Y-57862500D03*
X62995000Y-57862500D03*
%TD*%
D22*
%TO.C,R16*%
X126637500Y-53000000D03*
X129562500Y-53000000D03*
%TD*%
D23*
%TO.C,U7*%
X42025000Y-40775000D03*
X42675000Y-40775000D03*
X43325000Y-40775000D03*
X43975000Y-40775000D03*
X43975000Y-42825000D03*
X43325000Y-42825000D03*
X42675000Y-42825000D03*
X42025000Y-42825000D03*
%TD*%
D24*
%TO.C,D3*%
X104600000Y-63600000D03*
X104600000Y-59600000D03*
%TD*%
D17*
%TO.C,Q2*%
X70688060Y-66900000D03*
X70688060Y-65000000D03*
X68813060Y-65950000D03*
%TD*%
D16*
%TO.C,C30*%
X107950000Y-66700000D03*
X106400000Y-66700000D03*
%TD*%
D12*
%TO.C,C25*%
X127325000Y-55200000D03*
X128875000Y-55200000D03*
%TD*%
D10*
%TO.C,R9*%
X108200000Y-59287500D03*
X108200000Y-61112500D03*
%TD*%
D14*
%TO.C,U5*%
X62870000Y-53787500D03*
X60970000Y-53787500D03*
X61920000Y-55662500D03*
%TD*%
D10*
%TO.C,R11*%
X61312500Y-41950000D03*
X61312500Y-43775000D03*
%TD*%
D25*
%TO.C,MK1*%
X47230000Y-48630000D03*
X47230000Y-45970000D03*
X48370000Y-45970000D03*
X48370000Y-48630000D03*
%TD*%
D15*
%TO.C,R24*%
X122000000Y-72600000D03*
X122000000Y-70775000D03*
%TD*%
D26*
%TO.C,U1*%
X87600000Y-52150000D03*
X88400000Y-52150000D03*
X89200000Y-52150000D03*
X90000000Y-52150000D03*
X90800000Y-52150000D03*
X91600000Y-52150000D03*
X92400000Y-52150000D03*
X93200000Y-52150000D03*
D27*
X94650000Y-50700000D03*
X94650000Y-49900000D03*
X94650000Y-49100000D03*
X94650000Y-48300000D03*
X94650000Y-47500000D03*
X94650000Y-46700000D03*
X94650000Y-45900000D03*
X94650000Y-45100000D03*
D26*
X93200000Y-43650000D03*
X92400000Y-43650000D03*
X91600000Y-43650000D03*
X90800000Y-43650000D03*
X90000000Y-43650000D03*
X89200000Y-43650000D03*
X88400000Y-43650000D03*
X87600000Y-43650000D03*
D27*
X86150000Y-45100000D03*
X86150000Y-45900000D03*
X86150000Y-46700000D03*
X86150000Y-47500000D03*
X86150000Y-48300000D03*
X86150000Y-49100000D03*
X86150000Y-49900000D03*
X86150000Y-50700000D03*
%TD*%
D15*
%TO.C,R1*%
X73000000Y-70512500D03*
X73000000Y-68687500D03*
%TD*%
D28*
%TO.C,Q4*%
X114962915Y-53319392D03*
X114962915Y-55219392D03*
X116837915Y-54269392D03*
%TD*%
D29*
%TO.C,U6*%
X65900000Y-41975000D03*
X65900000Y-42625000D03*
X65900000Y-43275000D03*
X65900000Y-43925000D03*
X70125000Y-43925000D03*
X70125000Y-43275000D03*
X70125000Y-42625000D03*
X70125000Y-41975000D03*
%TD*%
D12*
%TO.C,C17*%
X42100000Y-44900000D03*
X43650000Y-44900000D03*
%TD*%
%TO.C,C16*%
X42100000Y-46500000D03*
X43650000Y-46500000D03*
%TD*%
D30*
%TO.C,C14*%
X89968750Y-71668750D03*
X89968750Y-68718750D03*
%TD*%
D21*
%TO.C,C4*%
X80330000Y-48525000D03*
X80330000Y-50075000D03*
%TD*%
D10*
%TO.C,R5*%
X80600000Y-40987500D03*
X80600000Y-42812500D03*
%TD*%
D31*
%TO.C,R19*%
X118712500Y-60450000D03*
X116887500Y-60450000D03*
%TD*%
D32*
%TO.C,U8*%
X121450000Y-64500000D03*
X120150000Y-64500000D03*
X121450000Y-65800000D03*
X120150000Y-65800000D03*
D33*
X122000000Y-63212500D03*
X121600000Y-63212500D03*
X121200000Y-63212500D03*
X120800000Y-63212500D03*
X120400000Y-63212500D03*
X120000000Y-63212500D03*
X119600000Y-63212500D03*
D34*
X118862500Y-63950000D03*
X118862500Y-64350000D03*
X118862500Y-64750000D03*
X118862500Y-65150000D03*
X118862500Y-65550000D03*
X118862500Y-65950000D03*
X118862500Y-66350000D03*
D33*
X119600000Y-67087500D03*
X120000000Y-67087500D03*
X120400000Y-67087500D03*
X120800000Y-67087500D03*
X121200000Y-67087500D03*
X121600000Y-67087500D03*
X122000000Y-67087500D03*
D34*
X122737500Y-66350000D03*
X122737500Y-65950000D03*
X122737500Y-65550000D03*
X122737500Y-65150000D03*
X122737500Y-64750000D03*
X122737500Y-64350000D03*
X122737500Y-63950000D03*
%TD*%
D28*
%TO.C,Q6*%
X126525000Y-69787500D03*
X126525000Y-71687500D03*
X128400000Y-70737500D03*
%TD*%
D15*
%TO.C,R28*%
X119800000Y-72612500D03*
X119800000Y-70787500D03*
%TD*%
D10*
%TO.C,R15*%
X74200000Y-40887500D03*
X74200000Y-42712500D03*
%TD*%
D35*
%TO.C,R4*%
X63187500Y-71600000D03*
X65012500Y-71600000D03*
%TD*%
D12*
%TO.C,C21*%
X112725415Y-51069392D03*
X114275415Y-51069392D03*
%TD*%
D15*
%TO.C,R29*%
X122000000Y-76512500D03*
X122000000Y-74687500D03*
%TD*%
D16*
%TO.C,C27*%
X125575000Y-57800000D03*
X124025000Y-57800000D03*
%TD*%
D36*
%TO.C,Q5*%
X131450000Y-63875000D03*
X133350000Y-63875000D03*
X132400000Y-62000000D03*
%TD*%
%TO.C,Q3*%
X110800415Y-55106892D03*
X112700415Y-55106892D03*
X111750415Y-53231892D03*
%TD*%
D37*
%TO.C,D5*%
X104700000Y-69600000D03*
X104700000Y-73600000D03*
%TD*%
D10*
%TO.C,R30*%
X119800000Y-74687500D03*
X119800000Y-76512500D03*
%TD*%
D38*
%TO.C,R27*%
X116962500Y-78500000D03*
X114037500Y-78500000D03*
%TD*%
D21*
%TO.C,C26*%
X124800000Y-65975000D03*
X124800000Y-67525000D03*
%TD*%
M02*
