%TF.GenerationSoftware,KiCad,Pcbnew,8.0.2-8.0.2-0~ubuntu22.04.1*%
%TF.CreationDate,2024-05-11T00:12:29+03:00*%
%TF.ProjectId,outdoor-module,6f757464-6f6f-4722-9d6d-6f64756c652e,rev?*%
%TF.SameCoordinates,Original*%
%TF.FileFunction,Legend,Top*%
%TF.FilePolarity,Positive*%
%FSLAX46Y46*%
G04 Gerber Fmt 4.6, Leading zero omitted, Abs format (unit mm)*
G04 Created by KiCad (PCBNEW 8.0.2-8.0.2-0~ubuntu22.04.1) date 2024-05-11 00:12:29*
%MOMM*%
%LPD*%
G01*
G04 APERTURE LIST*
%ADD10C,0.150000*%
%ADD11C,0.120000*%
%ADD12C,0.100000*%
G04 APERTURE END LIST*
D10*
X103750000Y-47000000D02*
X104250000Y-47000000D01*
X104250000Y-48250000D02*
X103750000Y-48250000D01*
X104250000Y-47000000D02*
X104250000Y-48250000D01*
X84733333Y-41654819D02*
X84400000Y-41178628D01*
X84161905Y-41654819D02*
X84161905Y-40654819D01*
X84161905Y-40654819D02*
X84542857Y-40654819D01*
X84542857Y-40654819D02*
X84638095Y-40702438D01*
X84638095Y-40702438D02*
X84685714Y-40750057D01*
X84685714Y-40750057D02*
X84733333Y-40845295D01*
X84733333Y-40845295D02*
X84733333Y-40988152D01*
X84733333Y-40988152D02*
X84685714Y-41083390D01*
X84685714Y-41083390D02*
X84638095Y-41131009D01*
X84638095Y-41131009D02*
X84542857Y-41178628D01*
X84542857Y-41178628D02*
X84161905Y-41178628D01*
X85066667Y-40654819D02*
X85685714Y-40654819D01*
X85685714Y-40654819D02*
X85352381Y-41035771D01*
X85352381Y-41035771D02*
X85495238Y-41035771D01*
X85495238Y-41035771D02*
X85590476Y-41083390D01*
X85590476Y-41083390D02*
X85638095Y-41131009D01*
X85638095Y-41131009D02*
X85685714Y-41226247D01*
X85685714Y-41226247D02*
X85685714Y-41464342D01*
X85685714Y-41464342D02*
X85638095Y-41559580D01*
X85638095Y-41559580D02*
X85590476Y-41607200D01*
X85590476Y-41607200D02*
X85495238Y-41654819D01*
X85495238Y-41654819D02*
X85209524Y-41654819D01*
X85209524Y-41654819D02*
X85114286Y-41607200D01*
X85114286Y-41607200D02*
X85066667Y-41559580D01*
X107157142Y-72642319D02*
X106823809Y-72166128D01*
X106585714Y-72642319D02*
X106585714Y-71642319D01*
X106585714Y-71642319D02*
X106966666Y-71642319D01*
X106966666Y-71642319D02*
X107061904Y-71689938D01*
X107061904Y-71689938D02*
X107109523Y-71737557D01*
X107109523Y-71737557D02*
X107157142Y-71832795D01*
X107157142Y-71832795D02*
X107157142Y-71975652D01*
X107157142Y-71975652D02*
X107109523Y-72070890D01*
X107109523Y-72070890D02*
X107061904Y-72118509D01*
X107061904Y-72118509D02*
X106966666Y-72166128D01*
X106966666Y-72166128D02*
X106585714Y-72166128D01*
X107538095Y-71737557D02*
X107585714Y-71689938D01*
X107585714Y-71689938D02*
X107680952Y-71642319D01*
X107680952Y-71642319D02*
X107919047Y-71642319D01*
X107919047Y-71642319D02*
X108014285Y-71689938D01*
X108014285Y-71689938D02*
X108061904Y-71737557D01*
X108061904Y-71737557D02*
X108109523Y-71832795D01*
X108109523Y-71832795D02*
X108109523Y-71928033D01*
X108109523Y-71928033D02*
X108061904Y-72070890D01*
X108061904Y-72070890D02*
X107490476Y-72642319D01*
X107490476Y-72642319D02*
X108109523Y-72642319D01*
X109061904Y-72642319D02*
X108490476Y-72642319D01*
X108776190Y-72642319D02*
X108776190Y-71642319D01*
X108776190Y-71642319D02*
X108680952Y-71785176D01*
X108680952Y-71785176D02*
X108585714Y-71880414D01*
X108585714Y-71880414D02*
X108490476Y-71928033D01*
X88566666Y-75231009D02*
X88233333Y-75231009D01*
X88233333Y-75754819D02*
X88233333Y-74754819D01*
X88233333Y-74754819D02*
X88709523Y-74754819D01*
X89614285Y-75754819D02*
X89042857Y-75754819D01*
X89328571Y-75754819D02*
X89328571Y-74754819D01*
X89328571Y-74754819D02*
X89233333Y-74897676D01*
X89233333Y-74897676D02*
X89138095Y-74992914D01*
X89138095Y-74992914D02*
X89042857Y-75040533D01*
X64657142Y-54159580D02*
X64609523Y-54207200D01*
X64609523Y-54207200D02*
X64466666Y-54254819D01*
X64466666Y-54254819D02*
X64371428Y-54254819D01*
X64371428Y-54254819D02*
X64228571Y-54207200D01*
X64228571Y-54207200D02*
X64133333Y-54111961D01*
X64133333Y-54111961D02*
X64085714Y-54016723D01*
X64085714Y-54016723D02*
X64038095Y-53826247D01*
X64038095Y-53826247D02*
X64038095Y-53683390D01*
X64038095Y-53683390D02*
X64085714Y-53492914D01*
X64085714Y-53492914D02*
X64133333Y-53397676D01*
X64133333Y-53397676D02*
X64228571Y-53302438D01*
X64228571Y-53302438D02*
X64371428Y-53254819D01*
X64371428Y-53254819D02*
X64466666Y-53254819D01*
X64466666Y-53254819D02*
X64609523Y-53302438D01*
X64609523Y-53302438D02*
X64657142Y-53350057D01*
X65609523Y-54254819D02*
X65038095Y-54254819D01*
X65323809Y-54254819D02*
X65323809Y-53254819D01*
X65323809Y-53254819D02*
X65228571Y-53397676D01*
X65228571Y-53397676D02*
X65133333Y-53492914D01*
X65133333Y-53492914D02*
X65038095Y-53540533D01*
X66085714Y-54254819D02*
X66276190Y-54254819D01*
X66276190Y-54254819D02*
X66371428Y-54207200D01*
X66371428Y-54207200D02*
X66419047Y-54159580D01*
X66419047Y-54159580D02*
X66514285Y-54016723D01*
X66514285Y-54016723D02*
X66561904Y-53826247D01*
X66561904Y-53826247D02*
X66561904Y-53445295D01*
X66561904Y-53445295D02*
X66514285Y-53350057D01*
X66514285Y-53350057D02*
X66466666Y-53302438D01*
X66466666Y-53302438D02*
X66371428Y-53254819D01*
X66371428Y-53254819D02*
X66180952Y-53254819D01*
X66180952Y-53254819D02*
X66085714Y-53302438D01*
X66085714Y-53302438D02*
X66038095Y-53350057D01*
X66038095Y-53350057D02*
X65990476Y-53445295D01*
X65990476Y-53445295D02*
X65990476Y-53683390D01*
X65990476Y-53683390D02*
X66038095Y-53778628D01*
X66038095Y-53778628D02*
X66085714Y-53826247D01*
X66085714Y-53826247D02*
X66180952Y-53873866D01*
X66180952Y-53873866D02*
X66371428Y-53873866D01*
X66371428Y-53873866D02*
X66466666Y-53826247D01*
X66466666Y-53826247D02*
X66514285Y-53778628D01*
X66514285Y-53778628D02*
X66561904Y-53683390D01*
X91550476Y-62079819D02*
X92217142Y-63079819D01*
X92217142Y-62079819D02*
X91550476Y-63079819D01*
X93121904Y-63079819D02*
X92550476Y-63079819D01*
X92836190Y-63079819D02*
X92836190Y-62079819D01*
X92836190Y-62079819D02*
X92740952Y-62222676D01*
X92740952Y-62222676D02*
X92645714Y-62317914D01*
X92645714Y-62317914D02*
X92550476Y-62365533D01*
X133157142Y-49359580D02*
X133109523Y-49407200D01*
X133109523Y-49407200D02*
X132966666Y-49454819D01*
X132966666Y-49454819D02*
X132871428Y-49454819D01*
X132871428Y-49454819D02*
X132728571Y-49407200D01*
X132728571Y-49407200D02*
X132633333Y-49311961D01*
X132633333Y-49311961D02*
X132585714Y-49216723D01*
X132585714Y-49216723D02*
X132538095Y-49026247D01*
X132538095Y-49026247D02*
X132538095Y-48883390D01*
X132538095Y-48883390D02*
X132585714Y-48692914D01*
X132585714Y-48692914D02*
X132633333Y-48597676D01*
X132633333Y-48597676D02*
X132728571Y-48502438D01*
X132728571Y-48502438D02*
X132871428Y-48454819D01*
X132871428Y-48454819D02*
X132966666Y-48454819D01*
X132966666Y-48454819D02*
X133109523Y-48502438D01*
X133109523Y-48502438D02*
X133157142Y-48550057D01*
X133490476Y-48454819D02*
X134109523Y-48454819D01*
X134109523Y-48454819D02*
X133776190Y-48835771D01*
X133776190Y-48835771D02*
X133919047Y-48835771D01*
X133919047Y-48835771D02*
X134014285Y-48883390D01*
X134014285Y-48883390D02*
X134061904Y-48931009D01*
X134061904Y-48931009D02*
X134109523Y-49026247D01*
X134109523Y-49026247D02*
X134109523Y-49264342D01*
X134109523Y-49264342D02*
X134061904Y-49359580D01*
X134061904Y-49359580D02*
X134014285Y-49407200D01*
X134014285Y-49407200D02*
X133919047Y-49454819D01*
X133919047Y-49454819D02*
X133633333Y-49454819D01*
X133633333Y-49454819D02*
X133538095Y-49407200D01*
X133538095Y-49407200D02*
X133490476Y-49359580D01*
X134966666Y-48788152D02*
X134966666Y-49454819D01*
X134728571Y-48407200D02*
X134490476Y-49121485D01*
X134490476Y-49121485D02*
X135109523Y-49121485D01*
X84738095Y-72754819D02*
X84738095Y-73564342D01*
X84738095Y-73564342D02*
X84785714Y-73659580D01*
X84785714Y-73659580D02*
X84833333Y-73707200D01*
X84833333Y-73707200D02*
X84928571Y-73754819D01*
X84928571Y-73754819D02*
X85119047Y-73754819D01*
X85119047Y-73754819D02*
X85214285Y-73707200D01*
X85214285Y-73707200D02*
X85261904Y-73659580D01*
X85261904Y-73659580D02*
X85309523Y-73564342D01*
X85309523Y-73564342D02*
X85309523Y-72754819D01*
X85690476Y-72754819D02*
X86309523Y-72754819D01*
X86309523Y-72754819D02*
X85976190Y-73135771D01*
X85976190Y-73135771D02*
X86119047Y-73135771D01*
X86119047Y-73135771D02*
X86214285Y-73183390D01*
X86214285Y-73183390D02*
X86261904Y-73231009D01*
X86261904Y-73231009D02*
X86309523Y-73326247D01*
X86309523Y-73326247D02*
X86309523Y-73564342D01*
X86309523Y-73564342D02*
X86261904Y-73659580D01*
X86261904Y-73659580D02*
X86214285Y-73707200D01*
X86214285Y-73707200D02*
X86119047Y-73754819D01*
X86119047Y-73754819D02*
X85833333Y-73754819D01*
X85833333Y-73754819D02*
X85738095Y-73707200D01*
X85738095Y-73707200D02*
X85690476Y-73659580D01*
X131757142Y-57559580D02*
X131709523Y-57607200D01*
X131709523Y-57607200D02*
X131566666Y-57654819D01*
X131566666Y-57654819D02*
X131471428Y-57654819D01*
X131471428Y-57654819D02*
X131328571Y-57607200D01*
X131328571Y-57607200D02*
X131233333Y-57511961D01*
X131233333Y-57511961D02*
X131185714Y-57416723D01*
X131185714Y-57416723D02*
X131138095Y-57226247D01*
X131138095Y-57226247D02*
X131138095Y-57083390D01*
X131138095Y-57083390D02*
X131185714Y-56892914D01*
X131185714Y-56892914D02*
X131233333Y-56797676D01*
X131233333Y-56797676D02*
X131328571Y-56702438D01*
X131328571Y-56702438D02*
X131471428Y-56654819D01*
X131471428Y-56654819D02*
X131566666Y-56654819D01*
X131566666Y-56654819D02*
X131709523Y-56702438D01*
X131709523Y-56702438D02*
X131757142Y-56750057D01*
X132090476Y-56654819D02*
X132709523Y-56654819D01*
X132709523Y-56654819D02*
X132376190Y-57035771D01*
X132376190Y-57035771D02*
X132519047Y-57035771D01*
X132519047Y-57035771D02*
X132614285Y-57083390D01*
X132614285Y-57083390D02*
X132661904Y-57131009D01*
X132661904Y-57131009D02*
X132709523Y-57226247D01*
X132709523Y-57226247D02*
X132709523Y-57464342D01*
X132709523Y-57464342D02*
X132661904Y-57559580D01*
X132661904Y-57559580D02*
X132614285Y-57607200D01*
X132614285Y-57607200D02*
X132519047Y-57654819D01*
X132519047Y-57654819D02*
X132233333Y-57654819D01*
X132233333Y-57654819D02*
X132138095Y-57607200D01*
X132138095Y-57607200D02*
X132090476Y-57559580D01*
X133614285Y-56654819D02*
X133138095Y-56654819D01*
X133138095Y-56654819D02*
X133090476Y-57131009D01*
X133090476Y-57131009D02*
X133138095Y-57083390D01*
X133138095Y-57083390D02*
X133233333Y-57035771D01*
X133233333Y-57035771D02*
X133471428Y-57035771D01*
X133471428Y-57035771D02*
X133566666Y-57083390D01*
X133566666Y-57083390D02*
X133614285Y-57131009D01*
X133614285Y-57131009D02*
X133661904Y-57226247D01*
X133661904Y-57226247D02*
X133661904Y-57464342D01*
X133661904Y-57464342D02*
X133614285Y-57559580D01*
X133614285Y-57559580D02*
X133566666Y-57607200D01*
X133566666Y-57607200D02*
X133471428Y-57654819D01*
X133471428Y-57654819D02*
X133233333Y-57654819D01*
X133233333Y-57654819D02*
X133138095Y-57607200D01*
X133138095Y-57607200D02*
X133090476Y-57559580D01*
X126657142Y-64459580D02*
X126609523Y-64507200D01*
X126609523Y-64507200D02*
X126466666Y-64554819D01*
X126466666Y-64554819D02*
X126371428Y-64554819D01*
X126371428Y-64554819D02*
X126228571Y-64507200D01*
X126228571Y-64507200D02*
X126133333Y-64411961D01*
X126133333Y-64411961D02*
X126085714Y-64316723D01*
X126085714Y-64316723D02*
X126038095Y-64126247D01*
X126038095Y-64126247D02*
X126038095Y-63983390D01*
X126038095Y-63983390D02*
X126085714Y-63792914D01*
X126085714Y-63792914D02*
X126133333Y-63697676D01*
X126133333Y-63697676D02*
X126228571Y-63602438D01*
X126228571Y-63602438D02*
X126371428Y-63554819D01*
X126371428Y-63554819D02*
X126466666Y-63554819D01*
X126466666Y-63554819D02*
X126609523Y-63602438D01*
X126609523Y-63602438D02*
X126657142Y-63650057D01*
X126990476Y-63554819D02*
X127609523Y-63554819D01*
X127609523Y-63554819D02*
X127276190Y-63935771D01*
X127276190Y-63935771D02*
X127419047Y-63935771D01*
X127419047Y-63935771D02*
X127514285Y-63983390D01*
X127514285Y-63983390D02*
X127561904Y-64031009D01*
X127561904Y-64031009D02*
X127609523Y-64126247D01*
X127609523Y-64126247D02*
X127609523Y-64364342D01*
X127609523Y-64364342D02*
X127561904Y-64459580D01*
X127561904Y-64459580D02*
X127514285Y-64507200D01*
X127514285Y-64507200D02*
X127419047Y-64554819D01*
X127419047Y-64554819D02*
X127133333Y-64554819D01*
X127133333Y-64554819D02*
X127038095Y-64507200D01*
X127038095Y-64507200D02*
X126990476Y-64459580D01*
X127990476Y-63650057D02*
X128038095Y-63602438D01*
X128038095Y-63602438D02*
X128133333Y-63554819D01*
X128133333Y-63554819D02*
X128371428Y-63554819D01*
X128371428Y-63554819D02*
X128466666Y-63602438D01*
X128466666Y-63602438D02*
X128514285Y-63650057D01*
X128514285Y-63650057D02*
X128561904Y-63745295D01*
X128561904Y-63745295D02*
X128561904Y-63840533D01*
X128561904Y-63840533D02*
X128514285Y-63983390D01*
X128514285Y-63983390D02*
X127942857Y-64554819D01*
X127942857Y-64554819D02*
X128561904Y-64554819D01*
X75082773Y-66604819D02*
X74749440Y-66128628D01*
X74511345Y-66604819D02*
X74511345Y-65604819D01*
X74511345Y-65604819D02*
X74892297Y-65604819D01*
X74892297Y-65604819D02*
X74987535Y-65652438D01*
X74987535Y-65652438D02*
X75035154Y-65700057D01*
X75035154Y-65700057D02*
X75082773Y-65795295D01*
X75082773Y-65795295D02*
X75082773Y-65938152D01*
X75082773Y-65938152D02*
X75035154Y-66033390D01*
X75035154Y-66033390D02*
X74987535Y-66081009D01*
X74987535Y-66081009D02*
X74892297Y-66128628D01*
X74892297Y-66128628D02*
X74511345Y-66128628D01*
X75463726Y-65700057D02*
X75511345Y-65652438D01*
X75511345Y-65652438D02*
X75606583Y-65604819D01*
X75606583Y-65604819D02*
X75844678Y-65604819D01*
X75844678Y-65604819D02*
X75939916Y-65652438D01*
X75939916Y-65652438D02*
X75987535Y-65700057D01*
X75987535Y-65700057D02*
X76035154Y-65795295D01*
X76035154Y-65795295D02*
X76035154Y-65890533D01*
X76035154Y-65890533D02*
X75987535Y-66033390D01*
X75987535Y-66033390D02*
X75416107Y-66604819D01*
X75416107Y-66604819D02*
X76035154Y-66604819D01*
X124157142Y-55159580D02*
X124109523Y-55207200D01*
X124109523Y-55207200D02*
X123966666Y-55254819D01*
X123966666Y-55254819D02*
X123871428Y-55254819D01*
X123871428Y-55254819D02*
X123728571Y-55207200D01*
X123728571Y-55207200D02*
X123633333Y-55111961D01*
X123633333Y-55111961D02*
X123585714Y-55016723D01*
X123585714Y-55016723D02*
X123538095Y-54826247D01*
X123538095Y-54826247D02*
X123538095Y-54683390D01*
X123538095Y-54683390D02*
X123585714Y-54492914D01*
X123585714Y-54492914D02*
X123633333Y-54397676D01*
X123633333Y-54397676D02*
X123728571Y-54302438D01*
X123728571Y-54302438D02*
X123871428Y-54254819D01*
X123871428Y-54254819D02*
X123966666Y-54254819D01*
X123966666Y-54254819D02*
X124109523Y-54302438D01*
X124109523Y-54302438D02*
X124157142Y-54350057D01*
X124538095Y-54350057D02*
X124585714Y-54302438D01*
X124585714Y-54302438D02*
X124680952Y-54254819D01*
X124680952Y-54254819D02*
X124919047Y-54254819D01*
X124919047Y-54254819D02*
X125014285Y-54302438D01*
X125014285Y-54302438D02*
X125061904Y-54350057D01*
X125061904Y-54350057D02*
X125109523Y-54445295D01*
X125109523Y-54445295D02*
X125109523Y-54540533D01*
X125109523Y-54540533D02*
X125061904Y-54683390D01*
X125061904Y-54683390D02*
X124490476Y-55254819D01*
X124490476Y-55254819D02*
X125109523Y-55254819D01*
X125966666Y-54588152D02*
X125966666Y-55254819D01*
X125728571Y-54207200D02*
X125490476Y-54921485D01*
X125490476Y-54921485D02*
X126109523Y-54921485D01*
X82133333Y-52354819D02*
X81800000Y-51878628D01*
X81561905Y-52354819D02*
X81561905Y-51354819D01*
X81561905Y-51354819D02*
X81942857Y-51354819D01*
X81942857Y-51354819D02*
X82038095Y-51402438D01*
X82038095Y-51402438D02*
X82085714Y-51450057D01*
X82085714Y-51450057D02*
X82133333Y-51545295D01*
X82133333Y-51545295D02*
X82133333Y-51688152D01*
X82133333Y-51688152D02*
X82085714Y-51783390D01*
X82085714Y-51783390D02*
X82038095Y-51831009D01*
X82038095Y-51831009D02*
X81942857Y-51878628D01*
X81942857Y-51878628D02*
X81561905Y-51878628D01*
X82990476Y-51354819D02*
X82800000Y-51354819D01*
X82800000Y-51354819D02*
X82704762Y-51402438D01*
X82704762Y-51402438D02*
X82657143Y-51450057D01*
X82657143Y-51450057D02*
X82561905Y-51592914D01*
X82561905Y-51592914D02*
X82514286Y-51783390D01*
X82514286Y-51783390D02*
X82514286Y-52164342D01*
X82514286Y-52164342D02*
X82561905Y-52259580D01*
X82561905Y-52259580D02*
X82609524Y-52307200D01*
X82609524Y-52307200D02*
X82704762Y-52354819D01*
X82704762Y-52354819D02*
X82895238Y-52354819D01*
X82895238Y-52354819D02*
X82990476Y-52307200D01*
X82990476Y-52307200D02*
X83038095Y-52259580D01*
X83038095Y-52259580D02*
X83085714Y-52164342D01*
X83085714Y-52164342D02*
X83085714Y-51926247D01*
X83085714Y-51926247D02*
X83038095Y-51831009D01*
X83038095Y-51831009D02*
X82990476Y-51783390D01*
X82990476Y-51783390D02*
X82895238Y-51735771D01*
X82895238Y-51735771D02*
X82704762Y-51735771D01*
X82704762Y-51735771D02*
X82609524Y-51783390D01*
X82609524Y-51783390D02*
X82561905Y-51831009D01*
X82561905Y-51831009D02*
X82514286Y-51926247D01*
X104238095Y-40954819D02*
X104809523Y-40954819D01*
X104523809Y-41954819D02*
X104523809Y-40954819D01*
X105142857Y-41954819D02*
X105142857Y-40954819D01*
X105142857Y-40954819D02*
X105523809Y-40954819D01*
X105523809Y-40954819D02*
X105619047Y-41002438D01*
X105619047Y-41002438D02*
X105666666Y-41050057D01*
X105666666Y-41050057D02*
X105714285Y-41145295D01*
X105714285Y-41145295D02*
X105714285Y-41288152D01*
X105714285Y-41288152D02*
X105666666Y-41383390D01*
X105666666Y-41383390D02*
X105619047Y-41431009D01*
X105619047Y-41431009D02*
X105523809Y-41478628D01*
X105523809Y-41478628D02*
X105142857Y-41478628D01*
X106095238Y-41050057D02*
X106142857Y-41002438D01*
X106142857Y-41002438D02*
X106238095Y-40954819D01*
X106238095Y-40954819D02*
X106476190Y-40954819D01*
X106476190Y-40954819D02*
X106571428Y-41002438D01*
X106571428Y-41002438D02*
X106619047Y-41050057D01*
X106619047Y-41050057D02*
X106666666Y-41145295D01*
X106666666Y-41145295D02*
X106666666Y-41240533D01*
X106666666Y-41240533D02*
X106619047Y-41383390D01*
X106619047Y-41383390D02*
X106047619Y-41954819D01*
X106047619Y-41954819D02*
X106666666Y-41954819D01*
X104738095Y-42502438D02*
X104642857Y-42454819D01*
X104642857Y-42454819D02*
X104500000Y-42454819D01*
X104500000Y-42454819D02*
X104357143Y-42502438D01*
X104357143Y-42502438D02*
X104261905Y-42597676D01*
X104261905Y-42597676D02*
X104214286Y-42692914D01*
X104214286Y-42692914D02*
X104166667Y-42883390D01*
X104166667Y-42883390D02*
X104166667Y-43026247D01*
X104166667Y-43026247D02*
X104214286Y-43216723D01*
X104214286Y-43216723D02*
X104261905Y-43311961D01*
X104261905Y-43311961D02*
X104357143Y-43407200D01*
X104357143Y-43407200D02*
X104500000Y-43454819D01*
X104500000Y-43454819D02*
X104595238Y-43454819D01*
X104595238Y-43454819D02*
X104738095Y-43407200D01*
X104738095Y-43407200D02*
X104785714Y-43359580D01*
X104785714Y-43359580D02*
X104785714Y-43026247D01*
X104785714Y-43026247D02*
X104595238Y-43026247D01*
X105214286Y-43454819D02*
X105214286Y-42454819D01*
X105214286Y-42454819D02*
X105785714Y-43454819D01*
X105785714Y-43454819D02*
X105785714Y-42454819D01*
X106261905Y-43454819D02*
X106261905Y-42454819D01*
X106261905Y-42454819D02*
X106500000Y-42454819D01*
X106500000Y-42454819D02*
X106642857Y-42502438D01*
X106642857Y-42502438D02*
X106738095Y-42597676D01*
X106738095Y-42597676D02*
X106785714Y-42692914D01*
X106785714Y-42692914D02*
X106833333Y-42883390D01*
X106833333Y-42883390D02*
X106833333Y-43026247D01*
X106833333Y-43026247D02*
X106785714Y-43216723D01*
X106785714Y-43216723D02*
X106738095Y-43311961D01*
X106738095Y-43311961D02*
X106642857Y-43407200D01*
X106642857Y-43407200D02*
X106500000Y-43454819D01*
X106500000Y-43454819D02*
X106261905Y-43454819D01*
X118561905Y-53554819D02*
X119133333Y-53554819D01*
X118847619Y-54554819D02*
X118847619Y-53554819D01*
X119466667Y-54554819D02*
X119466667Y-53554819D01*
X119466667Y-53554819D02*
X119847619Y-53554819D01*
X119847619Y-53554819D02*
X119942857Y-53602438D01*
X119942857Y-53602438D02*
X119990476Y-53650057D01*
X119990476Y-53650057D02*
X120038095Y-53745295D01*
X120038095Y-53745295D02*
X120038095Y-53888152D01*
X120038095Y-53888152D02*
X119990476Y-53983390D01*
X119990476Y-53983390D02*
X119942857Y-54031009D01*
X119942857Y-54031009D02*
X119847619Y-54078628D01*
X119847619Y-54078628D02*
X119466667Y-54078628D01*
X120990476Y-54554819D02*
X120419048Y-54554819D01*
X120704762Y-54554819D02*
X120704762Y-53554819D01*
X120704762Y-53554819D02*
X120609524Y-53697676D01*
X120609524Y-53697676D02*
X120514286Y-53792914D01*
X120514286Y-53792914D02*
X120419048Y-53840533D01*
X121942857Y-54554819D02*
X121371429Y-54554819D01*
X121657143Y-54554819D02*
X121657143Y-53554819D01*
X121657143Y-53554819D02*
X121561905Y-53697676D01*
X121561905Y-53697676D02*
X121466667Y-53792914D01*
X121466667Y-53792914D02*
X121371429Y-53840533D01*
X118333333Y-55669104D02*
X118809523Y-55669104D01*
X118238095Y-55954819D02*
X118571428Y-54954819D01*
X118571428Y-54954819D02*
X118904761Y-55954819D01*
X119809523Y-55859580D02*
X119761904Y-55907200D01*
X119761904Y-55907200D02*
X119619047Y-55954819D01*
X119619047Y-55954819D02*
X119523809Y-55954819D01*
X119523809Y-55954819D02*
X119380952Y-55907200D01*
X119380952Y-55907200D02*
X119285714Y-55811961D01*
X119285714Y-55811961D02*
X119238095Y-55716723D01*
X119238095Y-55716723D02*
X119190476Y-55526247D01*
X119190476Y-55526247D02*
X119190476Y-55383390D01*
X119190476Y-55383390D02*
X119238095Y-55192914D01*
X119238095Y-55192914D02*
X119285714Y-55097676D01*
X119285714Y-55097676D02*
X119380952Y-55002438D01*
X119380952Y-55002438D02*
X119523809Y-54954819D01*
X119523809Y-54954819D02*
X119619047Y-54954819D01*
X119619047Y-54954819D02*
X119761904Y-55002438D01*
X119761904Y-55002438D02*
X119809523Y-55050057D01*
X120238095Y-55954819D02*
X120238095Y-54954819D01*
X120238095Y-54954819D02*
X120476190Y-54954819D01*
X120476190Y-54954819D02*
X120619047Y-55002438D01*
X120619047Y-55002438D02*
X120714285Y-55097676D01*
X120714285Y-55097676D02*
X120761904Y-55192914D01*
X120761904Y-55192914D02*
X120809523Y-55383390D01*
X120809523Y-55383390D02*
X120809523Y-55526247D01*
X120809523Y-55526247D02*
X120761904Y-55716723D01*
X120761904Y-55716723D02*
X120714285Y-55811961D01*
X120714285Y-55811961D02*
X120619047Y-55907200D01*
X120619047Y-55907200D02*
X120476190Y-55954819D01*
X120476190Y-55954819D02*
X120238095Y-55954819D01*
X121809523Y-55954819D02*
X121476190Y-55478628D01*
X121238095Y-55954819D02*
X121238095Y-54954819D01*
X121238095Y-54954819D02*
X121619047Y-54954819D01*
X121619047Y-54954819D02*
X121714285Y-55002438D01*
X121714285Y-55002438D02*
X121761904Y-55050057D01*
X121761904Y-55050057D02*
X121809523Y-55145295D01*
X121809523Y-55145295D02*
X121809523Y-55288152D01*
X121809523Y-55288152D02*
X121761904Y-55383390D01*
X121761904Y-55383390D02*
X121714285Y-55431009D01*
X121714285Y-55431009D02*
X121619047Y-55478628D01*
X121619047Y-55478628D02*
X121238095Y-55478628D01*
X122095238Y-54954819D02*
X122428571Y-55954819D01*
X122428571Y-55954819D02*
X122761904Y-54954819D01*
X111538095Y-62156819D02*
X112109523Y-62156819D01*
X111823809Y-63156819D02*
X111823809Y-62156819D01*
X112442857Y-63156819D02*
X112442857Y-62156819D01*
X112442857Y-62156819D02*
X112823809Y-62156819D01*
X112823809Y-62156819D02*
X112919047Y-62204438D01*
X112919047Y-62204438D02*
X112966666Y-62252057D01*
X112966666Y-62252057D02*
X113014285Y-62347295D01*
X113014285Y-62347295D02*
X113014285Y-62490152D01*
X113014285Y-62490152D02*
X112966666Y-62585390D01*
X112966666Y-62585390D02*
X112919047Y-62633009D01*
X112919047Y-62633009D02*
X112823809Y-62680628D01*
X112823809Y-62680628D02*
X112442857Y-62680628D01*
X113490476Y-63156819D02*
X113680952Y-63156819D01*
X113680952Y-63156819D02*
X113776190Y-63109200D01*
X113776190Y-63109200D02*
X113823809Y-63061580D01*
X113823809Y-63061580D02*
X113919047Y-62918723D01*
X113919047Y-62918723D02*
X113966666Y-62728247D01*
X113966666Y-62728247D02*
X113966666Y-62347295D01*
X113966666Y-62347295D02*
X113919047Y-62252057D01*
X113919047Y-62252057D02*
X113871428Y-62204438D01*
X113871428Y-62204438D02*
X113776190Y-62156819D01*
X113776190Y-62156819D02*
X113585714Y-62156819D01*
X113585714Y-62156819D02*
X113490476Y-62204438D01*
X113490476Y-62204438D02*
X113442857Y-62252057D01*
X113442857Y-62252057D02*
X113395238Y-62347295D01*
X113395238Y-62347295D02*
X113395238Y-62585390D01*
X113395238Y-62585390D02*
X113442857Y-62680628D01*
X113442857Y-62680628D02*
X113490476Y-62728247D01*
X113490476Y-62728247D02*
X113585714Y-62775866D01*
X113585714Y-62775866D02*
X113776190Y-62775866D01*
X113776190Y-62775866D02*
X113871428Y-62728247D01*
X113871428Y-62728247D02*
X113919047Y-62680628D01*
X113919047Y-62680628D02*
X113966666Y-62585390D01*
X110728571Y-64369104D02*
X111204761Y-64369104D01*
X110633333Y-64654819D02*
X110966666Y-63654819D01*
X110966666Y-63654819D02*
X111299999Y-64654819D01*
X112204761Y-64559580D02*
X112157142Y-64607200D01*
X112157142Y-64607200D02*
X112014285Y-64654819D01*
X112014285Y-64654819D02*
X111919047Y-64654819D01*
X111919047Y-64654819D02*
X111776190Y-64607200D01*
X111776190Y-64607200D02*
X111680952Y-64511961D01*
X111680952Y-64511961D02*
X111633333Y-64416723D01*
X111633333Y-64416723D02*
X111585714Y-64226247D01*
X111585714Y-64226247D02*
X111585714Y-64083390D01*
X111585714Y-64083390D02*
X111633333Y-63892914D01*
X111633333Y-63892914D02*
X111680952Y-63797676D01*
X111680952Y-63797676D02*
X111776190Y-63702438D01*
X111776190Y-63702438D02*
X111919047Y-63654819D01*
X111919047Y-63654819D02*
X112014285Y-63654819D01*
X112014285Y-63654819D02*
X112157142Y-63702438D01*
X112157142Y-63702438D02*
X112204761Y-63750057D01*
X112633333Y-64654819D02*
X112633333Y-63654819D01*
X112633333Y-63654819D02*
X112871428Y-63654819D01*
X112871428Y-63654819D02*
X113014285Y-63702438D01*
X113014285Y-63702438D02*
X113109523Y-63797676D01*
X113109523Y-63797676D02*
X113157142Y-63892914D01*
X113157142Y-63892914D02*
X113204761Y-64083390D01*
X113204761Y-64083390D02*
X113204761Y-64226247D01*
X113204761Y-64226247D02*
X113157142Y-64416723D01*
X113157142Y-64416723D02*
X113109523Y-64511961D01*
X113109523Y-64511961D02*
X113014285Y-64607200D01*
X113014285Y-64607200D02*
X112871428Y-64654819D01*
X112871428Y-64654819D02*
X112633333Y-64654819D01*
X113633333Y-64131009D02*
X113966666Y-64131009D01*
X114109523Y-64654819D02*
X113633333Y-64654819D01*
X113633333Y-64654819D02*
X113633333Y-63654819D01*
X113633333Y-63654819D02*
X114109523Y-63654819D01*
X114395238Y-63654819D02*
X114966666Y-63654819D01*
X114680952Y-64654819D02*
X114680952Y-63654819D01*
X112738095Y-48454819D02*
X113309523Y-48454819D01*
X113023809Y-49454819D02*
X113023809Y-48454819D01*
X113642857Y-49454819D02*
X113642857Y-48454819D01*
X113642857Y-48454819D02*
X114023809Y-48454819D01*
X114023809Y-48454819D02*
X114119047Y-48502438D01*
X114119047Y-48502438D02*
X114166666Y-48550057D01*
X114166666Y-48550057D02*
X114214285Y-48645295D01*
X114214285Y-48645295D02*
X114214285Y-48788152D01*
X114214285Y-48788152D02*
X114166666Y-48883390D01*
X114166666Y-48883390D02*
X114119047Y-48931009D01*
X114119047Y-48931009D02*
X114023809Y-48978628D01*
X114023809Y-48978628D02*
X113642857Y-48978628D01*
X115166666Y-49454819D02*
X114595238Y-49454819D01*
X114880952Y-49454819D02*
X114880952Y-48454819D01*
X114880952Y-48454819D02*
X114785714Y-48597676D01*
X114785714Y-48597676D02*
X114690476Y-48692914D01*
X114690476Y-48692914D02*
X114595238Y-48740533D01*
X116571428Y-49359580D02*
X116523809Y-49407200D01*
X116523809Y-49407200D02*
X116380952Y-49454819D01*
X116380952Y-49454819D02*
X116285714Y-49454819D01*
X116285714Y-49454819D02*
X116142857Y-49407200D01*
X116142857Y-49407200D02*
X116047619Y-49311961D01*
X116047619Y-49311961D02*
X116000000Y-49216723D01*
X116000000Y-49216723D02*
X115952381Y-49026247D01*
X115952381Y-49026247D02*
X115952381Y-48883390D01*
X115952381Y-48883390D02*
X116000000Y-48692914D01*
X116000000Y-48692914D02*
X116047619Y-48597676D01*
X116047619Y-48597676D02*
X116142857Y-48502438D01*
X116142857Y-48502438D02*
X116285714Y-48454819D01*
X116285714Y-48454819D02*
X116380952Y-48454819D01*
X116380952Y-48454819D02*
X116523809Y-48502438D01*
X116523809Y-48502438D02*
X116571428Y-48550057D01*
X117000000Y-49454819D02*
X117000000Y-48454819D01*
X117000000Y-48931009D02*
X117571428Y-48931009D01*
X117571428Y-49454819D02*
X117571428Y-48454819D01*
X118571428Y-48502438D02*
X118476190Y-48454819D01*
X118476190Y-48454819D02*
X118333333Y-48454819D01*
X118333333Y-48454819D02*
X118190476Y-48502438D01*
X118190476Y-48502438D02*
X118095238Y-48597676D01*
X118095238Y-48597676D02*
X118047619Y-48692914D01*
X118047619Y-48692914D02*
X118000000Y-48883390D01*
X118000000Y-48883390D02*
X118000000Y-49026247D01*
X118000000Y-49026247D02*
X118047619Y-49216723D01*
X118047619Y-49216723D02*
X118095238Y-49311961D01*
X118095238Y-49311961D02*
X118190476Y-49407200D01*
X118190476Y-49407200D02*
X118333333Y-49454819D01*
X118333333Y-49454819D02*
X118428571Y-49454819D01*
X118428571Y-49454819D02*
X118571428Y-49407200D01*
X118571428Y-49407200D02*
X118619047Y-49359580D01*
X118619047Y-49359580D02*
X118619047Y-49026247D01*
X118619047Y-49026247D02*
X118428571Y-49026247D01*
X119761905Y-49407200D02*
X119904762Y-49454819D01*
X119904762Y-49454819D02*
X120142857Y-49454819D01*
X120142857Y-49454819D02*
X120238095Y-49407200D01*
X120238095Y-49407200D02*
X120285714Y-49359580D01*
X120285714Y-49359580D02*
X120333333Y-49264342D01*
X120333333Y-49264342D02*
X120333333Y-49169104D01*
X120333333Y-49169104D02*
X120285714Y-49073866D01*
X120285714Y-49073866D02*
X120238095Y-49026247D01*
X120238095Y-49026247D02*
X120142857Y-48978628D01*
X120142857Y-48978628D02*
X119952381Y-48931009D01*
X119952381Y-48931009D02*
X119857143Y-48883390D01*
X119857143Y-48883390D02*
X119809524Y-48835771D01*
X119809524Y-48835771D02*
X119761905Y-48740533D01*
X119761905Y-48740533D02*
X119761905Y-48645295D01*
X119761905Y-48645295D02*
X119809524Y-48550057D01*
X119809524Y-48550057D02*
X119857143Y-48502438D01*
X119857143Y-48502438D02*
X119952381Y-48454819D01*
X119952381Y-48454819D02*
X120190476Y-48454819D01*
X120190476Y-48454819D02*
X120333333Y-48502438D01*
X120761905Y-48454819D02*
X120761905Y-49264342D01*
X120761905Y-49264342D02*
X120809524Y-49359580D01*
X120809524Y-49359580D02*
X120857143Y-49407200D01*
X120857143Y-49407200D02*
X120952381Y-49454819D01*
X120952381Y-49454819D02*
X121142857Y-49454819D01*
X121142857Y-49454819D02*
X121238095Y-49407200D01*
X121238095Y-49407200D02*
X121285714Y-49359580D01*
X121285714Y-49359580D02*
X121333333Y-49264342D01*
X121333333Y-49264342D02*
X121333333Y-48454819D01*
X121809524Y-49454819D02*
X121809524Y-48454819D01*
X121809524Y-48454819D02*
X122190476Y-48454819D01*
X122190476Y-48454819D02*
X122285714Y-48502438D01*
X122285714Y-48502438D02*
X122333333Y-48550057D01*
X122333333Y-48550057D02*
X122380952Y-48645295D01*
X122380952Y-48645295D02*
X122380952Y-48788152D01*
X122380952Y-48788152D02*
X122333333Y-48883390D01*
X122333333Y-48883390D02*
X122285714Y-48931009D01*
X122285714Y-48931009D02*
X122190476Y-48978628D01*
X122190476Y-48978628D02*
X121809524Y-48978628D01*
X122809524Y-49454819D02*
X122809524Y-48454819D01*
X122809524Y-48454819D02*
X123190476Y-48454819D01*
X123190476Y-48454819D02*
X123285714Y-48502438D01*
X123285714Y-48502438D02*
X123333333Y-48550057D01*
X123333333Y-48550057D02*
X123380952Y-48645295D01*
X123380952Y-48645295D02*
X123380952Y-48788152D01*
X123380952Y-48788152D02*
X123333333Y-48883390D01*
X123333333Y-48883390D02*
X123285714Y-48931009D01*
X123285714Y-48931009D02*
X123190476Y-48978628D01*
X123190476Y-48978628D02*
X122809524Y-48978628D01*
X124285714Y-49454819D02*
X123809524Y-49454819D01*
X123809524Y-49454819D02*
X123809524Y-48454819D01*
X124809524Y-48978628D02*
X124809524Y-49454819D01*
X124476191Y-48454819D02*
X124809524Y-48978628D01*
X124809524Y-48978628D02*
X125142857Y-48454819D01*
X58257142Y-43254819D02*
X57923809Y-42778628D01*
X57685714Y-43254819D02*
X57685714Y-42254819D01*
X57685714Y-42254819D02*
X58066666Y-42254819D01*
X58066666Y-42254819D02*
X58161904Y-42302438D01*
X58161904Y-42302438D02*
X58209523Y-42350057D01*
X58209523Y-42350057D02*
X58257142Y-42445295D01*
X58257142Y-42445295D02*
X58257142Y-42588152D01*
X58257142Y-42588152D02*
X58209523Y-42683390D01*
X58209523Y-42683390D02*
X58161904Y-42731009D01*
X58161904Y-42731009D02*
X58066666Y-42778628D01*
X58066666Y-42778628D02*
X57685714Y-42778628D01*
X59209523Y-43254819D02*
X58638095Y-43254819D01*
X58923809Y-43254819D02*
X58923809Y-42254819D01*
X58923809Y-42254819D02*
X58828571Y-42397676D01*
X58828571Y-42397676D02*
X58733333Y-42492914D01*
X58733333Y-42492914D02*
X58638095Y-42540533D01*
X59828571Y-42254819D02*
X59923809Y-42254819D01*
X59923809Y-42254819D02*
X60019047Y-42302438D01*
X60019047Y-42302438D02*
X60066666Y-42350057D01*
X60066666Y-42350057D02*
X60114285Y-42445295D01*
X60114285Y-42445295D02*
X60161904Y-42635771D01*
X60161904Y-42635771D02*
X60161904Y-42873866D01*
X60161904Y-42873866D02*
X60114285Y-43064342D01*
X60114285Y-43064342D02*
X60066666Y-43159580D01*
X60066666Y-43159580D02*
X60019047Y-43207200D01*
X60019047Y-43207200D02*
X59923809Y-43254819D01*
X59923809Y-43254819D02*
X59828571Y-43254819D01*
X59828571Y-43254819D02*
X59733333Y-43207200D01*
X59733333Y-43207200D02*
X59685714Y-43159580D01*
X59685714Y-43159580D02*
X59638095Y-43064342D01*
X59638095Y-43064342D02*
X59590476Y-42873866D01*
X59590476Y-42873866D02*
X59590476Y-42635771D01*
X59590476Y-42635771D02*
X59638095Y-42445295D01*
X59638095Y-42445295D02*
X59685714Y-42350057D01*
X59685714Y-42350057D02*
X59733333Y-42302438D01*
X59733333Y-42302438D02*
X59828571Y-42254819D01*
X87633333Y-55359580D02*
X87585714Y-55407200D01*
X87585714Y-55407200D02*
X87442857Y-55454819D01*
X87442857Y-55454819D02*
X87347619Y-55454819D01*
X87347619Y-55454819D02*
X87204762Y-55407200D01*
X87204762Y-55407200D02*
X87109524Y-55311961D01*
X87109524Y-55311961D02*
X87061905Y-55216723D01*
X87061905Y-55216723D02*
X87014286Y-55026247D01*
X87014286Y-55026247D02*
X87014286Y-54883390D01*
X87014286Y-54883390D02*
X87061905Y-54692914D01*
X87061905Y-54692914D02*
X87109524Y-54597676D01*
X87109524Y-54597676D02*
X87204762Y-54502438D01*
X87204762Y-54502438D02*
X87347619Y-54454819D01*
X87347619Y-54454819D02*
X87442857Y-54454819D01*
X87442857Y-54454819D02*
X87585714Y-54502438D01*
X87585714Y-54502438D02*
X87633333Y-54550057D01*
X88585714Y-55454819D02*
X88014286Y-55454819D01*
X88300000Y-55454819D02*
X88300000Y-54454819D01*
X88300000Y-54454819D02*
X88204762Y-54597676D01*
X88204762Y-54597676D02*
X88109524Y-54692914D01*
X88109524Y-54692914D02*
X88014286Y-54740533D01*
X69667261Y-72550057D02*
X69572023Y-72502438D01*
X69572023Y-72502438D02*
X69476785Y-72407200D01*
X69476785Y-72407200D02*
X69333928Y-72264342D01*
X69333928Y-72264342D02*
X69238690Y-72216723D01*
X69238690Y-72216723D02*
X69143452Y-72216723D01*
X69191071Y-72454819D02*
X69095833Y-72407200D01*
X69095833Y-72407200D02*
X69000595Y-72311961D01*
X69000595Y-72311961D02*
X68952976Y-72121485D01*
X68952976Y-72121485D02*
X68952976Y-71788152D01*
X68952976Y-71788152D02*
X69000595Y-71597676D01*
X69000595Y-71597676D02*
X69095833Y-71502438D01*
X69095833Y-71502438D02*
X69191071Y-71454819D01*
X69191071Y-71454819D02*
X69381547Y-71454819D01*
X69381547Y-71454819D02*
X69476785Y-71502438D01*
X69476785Y-71502438D02*
X69572023Y-71597676D01*
X69572023Y-71597676D02*
X69619642Y-71788152D01*
X69619642Y-71788152D02*
X69619642Y-72121485D01*
X69619642Y-72121485D02*
X69572023Y-72311961D01*
X69572023Y-72311961D02*
X69476785Y-72407200D01*
X69476785Y-72407200D02*
X69381547Y-72454819D01*
X69381547Y-72454819D02*
X69191071Y-72454819D01*
X70572023Y-72454819D02*
X70000595Y-72454819D01*
X70286309Y-72454819D02*
X70286309Y-71454819D01*
X70286309Y-71454819D02*
X70191071Y-71597676D01*
X70191071Y-71597676D02*
X70095833Y-71692914D01*
X70095833Y-71692914D02*
X70000595Y-71740533D01*
X62737142Y-46554819D02*
X62403809Y-46078628D01*
X62165714Y-46554819D02*
X62165714Y-45554819D01*
X62165714Y-45554819D02*
X62546666Y-45554819D01*
X62546666Y-45554819D02*
X62641904Y-45602438D01*
X62641904Y-45602438D02*
X62689523Y-45650057D01*
X62689523Y-45650057D02*
X62737142Y-45745295D01*
X62737142Y-45745295D02*
X62737142Y-45888152D01*
X62737142Y-45888152D02*
X62689523Y-45983390D01*
X62689523Y-45983390D02*
X62641904Y-46031009D01*
X62641904Y-46031009D02*
X62546666Y-46078628D01*
X62546666Y-46078628D02*
X62165714Y-46078628D01*
X63118095Y-45650057D02*
X63165714Y-45602438D01*
X63165714Y-45602438D02*
X63260952Y-45554819D01*
X63260952Y-45554819D02*
X63499047Y-45554819D01*
X63499047Y-45554819D02*
X63594285Y-45602438D01*
X63594285Y-45602438D02*
X63641904Y-45650057D01*
X63641904Y-45650057D02*
X63689523Y-45745295D01*
X63689523Y-45745295D02*
X63689523Y-45840533D01*
X63689523Y-45840533D02*
X63641904Y-45983390D01*
X63641904Y-45983390D02*
X63070476Y-46554819D01*
X63070476Y-46554819D02*
X63689523Y-46554819D01*
X64594285Y-45554819D02*
X64118095Y-45554819D01*
X64118095Y-45554819D02*
X64070476Y-46031009D01*
X64070476Y-46031009D02*
X64118095Y-45983390D01*
X64118095Y-45983390D02*
X64213333Y-45935771D01*
X64213333Y-45935771D02*
X64451428Y-45935771D01*
X64451428Y-45935771D02*
X64546666Y-45983390D01*
X64546666Y-45983390D02*
X64594285Y-46031009D01*
X64594285Y-46031009D02*
X64641904Y-46126247D01*
X64641904Y-46126247D02*
X64641904Y-46364342D01*
X64641904Y-46364342D02*
X64594285Y-46459580D01*
X64594285Y-46459580D02*
X64546666Y-46507200D01*
X64546666Y-46507200D02*
X64451428Y-46554819D01*
X64451428Y-46554819D02*
X64213333Y-46554819D01*
X64213333Y-46554819D02*
X64118095Y-46507200D01*
X64118095Y-46507200D02*
X64070476Y-46459580D01*
X56638095Y-47554819D02*
X57209523Y-47554819D01*
X56923809Y-48554819D02*
X56923809Y-47554819D01*
X57542857Y-48554819D02*
X57542857Y-47554819D01*
X57542857Y-47554819D02*
X57923809Y-47554819D01*
X57923809Y-47554819D02*
X58019047Y-47602438D01*
X58019047Y-47602438D02*
X58066666Y-47650057D01*
X58066666Y-47650057D02*
X58114285Y-47745295D01*
X58114285Y-47745295D02*
X58114285Y-47888152D01*
X58114285Y-47888152D02*
X58066666Y-47983390D01*
X58066666Y-47983390D02*
X58019047Y-48031009D01*
X58019047Y-48031009D02*
X57923809Y-48078628D01*
X57923809Y-48078628D02*
X57542857Y-48078628D01*
X58447619Y-47554819D02*
X59114285Y-47554819D01*
X59114285Y-47554819D02*
X58685714Y-48554819D01*
X55057143Y-49754819D02*
X55057143Y-48754819D01*
X55057143Y-48754819D02*
X55390476Y-49469104D01*
X55390476Y-49469104D02*
X55723809Y-48754819D01*
X55723809Y-48754819D02*
X55723809Y-49754819D01*
X56200000Y-49754819D02*
X56200000Y-48754819D01*
X56771428Y-49754819D02*
X56342857Y-49183390D01*
X56771428Y-48754819D02*
X56200000Y-49326247D01*
X56961905Y-49850057D02*
X57723809Y-49850057D01*
X58152381Y-48754819D02*
X58342857Y-48754819D01*
X58342857Y-48754819D02*
X58438095Y-48802438D01*
X58438095Y-48802438D02*
X58533333Y-48897676D01*
X58533333Y-48897676D02*
X58580952Y-49088152D01*
X58580952Y-49088152D02*
X58580952Y-49421485D01*
X58580952Y-49421485D02*
X58533333Y-49611961D01*
X58533333Y-49611961D02*
X58438095Y-49707200D01*
X58438095Y-49707200D02*
X58342857Y-49754819D01*
X58342857Y-49754819D02*
X58152381Y-49754819D01*
X58152381Y-49754819D02*
X58057143Y-49707200D01*
X58057143Y-49707200D02*
X57961905Y-49611961D01*
X57961905Y-49611961D02*
X57914286Y-49421485D01*
X57914286Y-49421485D02*
X57914286Y-49088152D01*
X57914286Y-49088152D02*
X57961905Y-48897676D01*
X57961905Y-48897676D02*
X58057143Y-48802438D01*
X58057143Y-48802438D02*
X58152381Y-48754819D01*
X59009524Y-48754819D02*
X59009524Y-49564342D01*
X59009524Y-49564342D02*
X59057143Y-49659580D01*
X59057143Y-49659580D02*
X59104762Y-49707200D01*
X59104762Y-49707200D02*
X59200000Y-49754819D01*
X59200000Y-49754819D02*
X59390476Y-49754819D01*
X59390476Y-49754819D02*
X59485714Y-49707200D01*
X59485714Y-49707200D02*
X59533333Y-49659580D01*
X59533333Y-49659580D02*
X59580952Y-49564342D01*
X59580952Y-49564342D02*
X59580952Y-48754819D01*
X59914286Y-48754819D02*
X60485714Y-48754819D01*
X60200000Y-49754819D02*
X60200000Y-48754819D01*
X84825892Y-64853330D02*
X84778273Y-64900950D01*
X84778273Y-64900950D02*
X84635416Y-64948569D01*
X84635416Y-64948569D02*
X84540178Y-64948569D01*
X84540178Y-64948569D02*
X84397321Y-64900950D01*
X84397321Y-64900950D02*
X84302083Y-64805711D01*
X84302083Y-64805711D02*
X84254464Y-64710473D01*
X84254464Y-64710473D02*
X84206845Y-64519997D01*
X84206845Y-64519997D02*
X84206845Y-64377140D01*
X84206845Y-64377140D02*
X84254464Y-64186664D01*
X84254464Y-64186664D02*
X84302083Y-64091426D01*
X84302083Y-64091426D02*
X84397321Y-63996188D01*
X84397321Y-63996188D02*
X84540178Y-63948569D01*
X84540178Y-63948569D02*
X84635416Y-63948569D01*
X84635416Y-63948569D02*
X84778273Y-63996188D01*
X84778273Y-63996188D02*
X84825892Y-64043807D01*
X85206845Y-64043807D02*
X85254464Y-63996188D01*
X85254464Y-63996188D02*
X85349702Y-63948569D01*
X85349702Y-63948569D02*
X85587797Y-63948569D01*
X85587797Y-63948569D02*
X85683035Y-63996188D01*
X85683035Y-63996188D02*
X85730654Y-64043807D01*
X85730654Y-64043807D02*
X85778273Y-64139045D01*
X85778273Y-64139045D02*
X85778273Y-64234283D01*
X85778273Y-64234283D02*
X85730654Y-64377140D01*
X85730654Y-64377140D02*
X85159226Y-64948569D01*
X85159226Y-64948569D02*
X85778273Y-64948569D01*
X86397321Y-63948569D02*
X86492559Y-63948569D01*
X86492559Y-63948569D02*
X86587797Y-63996188D01*
X86587797Y-63996188D02*
X86635416Y-64043807D01*
X86635416Y-64043807D02*
X86683035Y-64139045D01*
X86683035Y-64139045D02*
X86730654Y-64329521D01*
X86730654Y-64329521D02*
X86730654Y-64567616D01*
X86730654Y-64567616D02*
X86683035Y-64758092D01*
X86683035Y-64758092D02*
X86635416Y-64853330D01*
X86635416Y-64853330D02*
X86587797Y-64900950D01*
X86587797Y-64900950D02*
X86492559Y-64948569D01*
X86492559Y-64948569D02*
X86397321Y-64948569D01*
X86397321Y-64948569D02*
X86302083Y-64900950D01*
X86302083Y-64900950D02*
X86254464Y-64853330D01*
X86254464Y-64853330D02*
X86206845Y-64758092D01*
X86206845Y-64758092D02*
X86159226Y-64567616D01*
X86159226Y-64567616D02*
X86159226Y-64329521D01*
X86159226Y-64329521D02*
X86206845Y-64139045D01*
X86206845Y-64139045D02*
X86254464Y-64043807D01*
X86254464Y-64043807D02*
X86302083Y-63996188D01*
X86302083Y-63996188D02*
X86397321Y-63948569D01*
X59757142Y-46359580D02*
X59709523Y-46407200D01*
X59709523Y-46407200D02*
X59566666Y-46454819D01*
X59566666Y-46454819D02*
X59471428Y-46454819D01*
X59471428Y-46454819D02*
X59328571Y-46407200D01*
X59328571Y-46407200D02*
X59233333Y-46311961D01*
X59233333Y-46311961D02*
X59185714Y-46216723D01*
X59185714Y-46216723D02*
X59138095Y-46026247D01*
X59138095Y-46026247D02*
X59138095Y-45883390D01*
X59138095Y-45883390D02*
X59185714Y-45692914D01*
X59185714Y-45692914D02*
X59233333Y-45597676D01*
X59233333Y-45597676D02*
X59328571Y-45502438D01*
X59328571Y-45502438D02*
X59471428Y-45454819D01*
X59471428Y-45454819D02*
X59566666Y-45454819D01*
X59566666Y-45454819D02*
X59709523Y-45502438D01*
X59709523Y-45502438D02*
X59757142Y-45550057D01*
X60090476Y-45454819D02*
X60709523Y-45454819D01*
X60709523Y-45454819D02*
X60376190Y-45835771D01*
X60376190Y-45835771D02*
X60519047Y-45835771D01*
X60519047Y-45835771D02*
X60614285Y-45883390D01*
X60614285Y-45883390D02*
X60661904Y-45931009D01*
X60661904Y-45931009D02*
X60709523Y-46026247D01*
X60709523Y-46026247D02*
X60709523Y-46264342D01*
X60709523Y-46264342D02*
X60661904Y-46359580D01*
X60661904Y-46359580D02*
X60614285Y-46407200D01*
X60614285Y-46407200D02*
X60519047Y-46454819D01*
X60519047Y-46454819D02*
X60233333Y-46454819D01*
X60233333Y-46454819D02*
X60138095Y-46407200D01*
X60138095Y-46407200D02*
X60090476Y-46359580D01*
X61042857Y-45454819D02*
X61709523Y-45454819D01*
X61709523Y-45454819D02*
X61280952Y-46454819D01*
X106033333Y-57154819D02*
X105700000Y-56678628D01*
X105461905Y-57154819D02*
X105461905Y-56154819D01*
X105461905Y-56154819D02*
X105842857Y-56154819D01*
X105842857Y-56154819D02*
X105938095Y-56202438D01*
X105938095Y-56202438D02*
X105985714Y-56250057D01*
X105985714Y-56250057D02*
X106033333Y-56345295D01*
X106033333Y-56345295D02*
X106033333Y-56488152D01*
X106033333Y-56488152D02*
X105985714Y-56583390D01*
X105985714Y-56583390D02*
X105938095Y-56631009D01*
X105938095Y-56631009D02*
X105842857Y-56678628D01*
X105842857Y-56678628D02*
X105461905Y-56678628D01*
X106604762Y-56583390D02*
X106509524Y-56535771D01*
X106509524Y-56535771D02*
X106461905Y-56488152D01*
X106461905Y-56488152D02*
X106414286Y-56392914D01*
X106414286Y-56392914D02*
X106414286Y-56345295D01*
X106414286Y-56345295D02*
X106461905Y-56250057D01*
X106461905Y-56250057D02*
X106509524Y-56202438D01*
X106509524Y-56202438D02*
X106604762Y-56154819D01*
X106604762Y-56154819D02*
X106795238Y-56154819D01*
X106795238Y-56154819D02*
X106890476Y-56202438D01*
X106890476Y-56202438D02*
X106938095Y-56250057D01*
X106938095Y-56250057D02*
X106985714Y-56345295D01*
X106985714Y-56345295D02*
X106985714Y-56392914D01*
X106985714Y-56392914D02*
X106938095Y-56488152D01*
X106938095Y-56488152D02*
X106890476Y-56535771D01*
X106890476Y-56535771D02*
X106795238Y-56583390D01*
X106795238Y-56583390D02*
X106604762Y-56583390D01*
X106604762Y-56583390D02*
X106509524Y-56631009D01*
X106509524Y-56631009D02*
X106461905Y-56678628D01*
X106461905Y-56678628D02*
X106414286Y-56773866D01*
X106414286Y-56773866D02*
X106414286Y-56964342D01*
X106414286Y-56964342D02*
X106461905Y-57059580D01*
X106461905Y-57059580D02*
X106509524Y-57107200D01*
X106509524Y-57107200D02*
X106604762Y-57154819D01*
X106604762Y-57154819D02*
X106795238Y-57154819D01*
X106795238Y-57154819D02*
X106890476Y-57107200D01*
X106890476Y-57107200D02*
X106938095Y-57059580D01*
X106938095Y-57059580D02*
X106985714Y-56964342D01*
X106985714Y-56964342D02*
X106985714Y-56773866D01*
X106985714Y-56773866D02*
X106938095Y-56678628D01*
X106938095Y-56678628D02*
X106890476Y-56631009D01*
X106890476Y-56631009D02*
X106795238Y-56583390D01*
X133233333Y-76554819D02*
X132757143Y-76554819D01*
X132757143Y-76554819D02*
X132757143Y-75554819D01*
X133471429Y-75554819D02*
X134090476Y-75554819D01*
X134090476Y-75554819D02*
X133757143Y-75935771D01*
X133757143Y-75935771D02*
X133900000Y-75935771D01*
X133900000Y-75935771D02*
X133995238Y-75983390D01*
X133995238Y-75983390D02*
X134042857Y-76031009D01*
X134042857Y-76031009D02*
X134090476Y-76126247D01*
X134090476Y-76126247D02*
X134090476Y-76364342D01*
X134090476Y-76364342D02*
X134042857Y-76459580D01*
X134042857Y-76459580D02*
X133995238Y-76507200D01*
X133995238Y-76507200D02*
X133900000Y-76554819D01*
X133900000Y-76554819D02*
X133614286Y-76554819D01*
X133614286Y-76554819D02*
X133519048Y-76507200D01*
X133519048Y-76507200D02*
X133471429Y-76459580D01*
X42157142Y-49559580D02*
X42109523Y-49607200D01*
X42109523Y-49607200D02*
X41966666Y-49654819D01*
X41966666Y-49654819D02*
X41871428Y-49654819D01*
X41871428Y-49654819D02*
X41728571Y-49607200D01*
X41728571Y-49607200D02*
X41633333Y-49511961D01*
X41633333Y-49511961D02*
X41585714Y-49416723D01*
X41585714Y-49416723D02*
X41538095Y-49226247D01*
X41538095Y-49226247D02*
X41538095Y-49083390D01*
X41538095Y-49083390D02*
X41585714Y-48892914D01*
X41585714Y-48892914D02*
X41633333Y-48797676D01*
X41633333Y-48797676D02*
X41728571Y-48702438D01*
X41728571Y-48702438D02*
X41871428Y-48654819D01*
X41871428Y-48654819D02*
X41966666Y-48654819D01*
X41966666Y-48654819D02*
X42109523Y-48702438D01*
X42109523Y-48702438D02*
X42157142Y-48750057D01*
X42490476Y-48654819D02*
X43109523Y-48654819D01*
X43109523Y-48654819D02*
X42776190Y-49035771D01*
X42776190Y-49035771D02*
X42919047Y-49035771D01*
X42919047Y-49035771D02*
X43014285Y-49083390D01*
X43014285Y-49083390D02*
X43061904Y-49131009D01*
X43061904Y-49131009D02*
X43109523Y-49226247D01*
X43109523Y-49226247D02*
X43109523Y-49464342D01*
X43109523Y-49464342D02*
X43061904Y-49559580D01*
X43061904Y-49559580D02*
X43014285Y-49607200D01*
X43014285Y-49607200D02*
X42919047Y-49654819D01*
X42919047Y-49654819D02*
X42633333Y-49654819D01*
X42633333Y-49654819D02*
X42538095Y-49607200D01*
X42538095Y-49607200D02*
X42490476Y-49559580D01*
X43442857Y-48654819D02*
X44061904Y-48654819D01*
X44061904Y-48654819D02*
X43728571Y-49035771D01*
X43728571Y-49035771D02*
X43871428Y-49035771D01*
X43871428Y-49035771D02*
X43966666Y-49083390D01*
X43966666Y-49083390D02*
X44014285Y-49131009D01*
X44014285Y-49131009D02*
X44061904Y-49226247D01*
X44061904Y-49226247D02*
X44061904Y-49464342D01*
X44061904Y-49464342D02*
X44014285Y-49559580D01*
X44014285Y-49559580D02*
X43966666Y-49607200D01*
X43966666Y-49607200D02*
X43871428Y-49654819D01*
X43871428Y-49654819D02*
X43585714Y-49654819D01*
X43585714Y-49654819D02*
X43490476Y-49607200D01*
X43490476Y-49607200D02*
X43442857Y-49559580D01*
X65057142Y-52859580D02*
X65009523Y-52907200D01*
X65009523Y-52907200D02*
X64866666Y-52954819D01*
X64866666Y-52954819D02*
X64771428Y-52954819D01*
X64771428Y-52954819D02*
X64628571Y-52907200D01*
X64628571Y-52907200D02*
X64533333Y-52811961D01*
X64533333Y-52811961D02*
X64485714Y-52716723D01*
X64485714Y-52716723D02*
X64438095Y-52526247D01*
X64438095Y-52526247D02*
X64438095Y-52383390D01*
X64438095Y-52383390D02*
X64485714Y-52192914D01*
X64485714Y-52192914D02*
X64533333Y-52097676D01*
X64533333Y-52097676D02*
X64628571Y-52002438D01*
X64628571Y-52002438D02*
X64771428Y-51954819D01*
X64771428Y-51954819D02*
X64866666Y-51954819D01*
X64866666Y-51954819D02*
X65009523Y-52002438D01*
X65009523Y-52002438D02*
X65057142Y-52050057D01*
X65914285Y-52288152D02*
X65914285Y-52954819D01*
X65676190Y-51907200D02*
X65438095Y-52621485D01*
X65438095Y-52621485D02*
X66057142Y-52621485D01*
X66628571Y-51954819D02*
X66723809Y-51954819D01*
X66723809Y-51954819D02*
X66819047Y-52002438D01*
X66819047Y-52002438D02*
X66866666Y-52050057D01*
X66866666Y-52050057D02*
X66914285Y-52145295D01*
X66914285Y-52145295D02*
X66961904Y-52335771D01*
X66961904Y-52335771D02*
X66961904Y-52573866D01*
X66961904Y-52573866D02*
X66914285Y-52764342D01*
X66914285Y-52764342D02*
X66866666Y-52859580D01*
X66866666Y-52859580D02*
X66819047Y-52907200D01*
X66819047Y-52907200D02*
X66723809Y-52954819D01*
X66723809Y-52954819D02*
X66628571Y-52954819D01*
X66628571Y-52954819D02*
X66533333Y-52907200D01*
X66533333Y-52907200D02*
X66485714Y-52859580D01*
X66485714Y-52859580D02*
X66438095Y-52764342D01*
X66438095Y-52764342D02*
X66390476Y-52573866D01*
X66390476Y-52573866D02*
X66390476Y-52335771D01*
X66390476Y-52335771D02*
X66438095Y-52145295D01*
X66438095Y-52145295D02*
X66485714Y-52050057D01*
X66485714Y-52050057D02*
X66533333Y-52002438D01*
X66533333Y-52002438D02*
X66628571Y-51954819D01*
X125266666Y-47131009D02*
X124933333Y-47131009D01*
X124933333Y-47654819D02*
X124933333Y-46654819D01*
X124933333Y-46654819D02*
X125409523Y-46654819D01*
X125742857Y-46750057D02*
X125790476Y-46702438D01*
X125790476Y-46702438D02*
X125885714Y-46654819D01*
X125885714Y-46654819D02*
X126123809Y-46654819D01*
X126123809Y-46654819D02*
X126219047Y-46702438D01*
X126219047Y-46702438D02*
X126266666Y-46750057D01*
X126266666Y-46750057D02*
X126314285Y-46845295D01*
X126314285Y-46845295D02*
X126314285Y-46940533D01*
X126314285Y-46940533D02*
X126266666Y-47083390D01*
X126266666Y-47083390D02*
X125695238Y-47654819D01*
X125695238Y-47654819D02*
X126314285Y-47654819D01*
X60361905Y-71354819D02*
X60361905Y-70354819D01*
X60361905Y-70354819D02*
X60600000Y-70354819D01*
X60600000Y-70354819D02*
X60742857Y-70402438D01*
X60742857Y-70402438D02*
X60838095Y-70497676D01*
X60838095Y-70497676D02*
X60885714Y-70592914D01*
X60885714Y-70592914D02*
X60933333Y-70783390D01*
X60933333Y-70783390D02*
X60933333Y-70926247D01*
X60933333Y-70926247D02*
X60885714Y-71116723D01*
X60885714Y-71116723D02*
X60838095Y-71211961D01*
X60838095Y-71211961D02*
X60742857Y-71307200D01*
X60742857Y-71307200D02*
X60600000Y-71354819D01*
X60600000Y-71354819D02*
X60361905Y-71354819D01*
X61885714Y-71354819D02*
X61314286Y-71354819D01*
X61600000Y-71354819D02*
X61600000Y-70354819D01*
X61600000Y-70354819D02*
X61504762Y-70497676D01*
X61504762Y-70497676D02*
X61409524Y-70592914D01*
X61409524Y-70592914D02*
X61314286Y-70640533D01*
X72257142Y-44559580D02*
X72209523Y-44607200D01*
X72209523Y-44607200D02*
X72066666Y-44654819D01*
X72066666Y-44654819D02*
X71971428Y-44654819D01*
X71971428Y-44654819D02*
X71828571Y-44607200D01*
X71828571Y-44607200D02*
X71733333Y-44511961D01*
X71733333Y-44511961D02*
X71685714Y-44416723D01*
X71685714Y-44416723D02*
X71638095Y-44226247D01*
X71638095Y-44226247D02*
X71638095Y-44083390D01*
X71638095Y-44083390D02*
X71685714Y-43892914D01*
X71685714Y-43892914D02*
X71733333Y-43797676D01*
X71733333Y-43797676D02*
X71828571Y-43702438D01*
X71828571Y-43702438D02*
X71971428Y-43654819D01*
X71971428Y-43654819D02*
X72066666Y-43654819D01*
X72066666Y-43654819D02*
X72209523Y-43702438D01*
X72209523Y-43702438D02*
X72257142Y-43750057D01*
X72638095Y-43750057D02*
X72685714Y-43702438D01*
X72685714Y-43702438D02*
X72780952Y-43654819D01*
X72780952Y-43654819D02*
X73019047Y-43654819D01*
X73019047Y-43654819D02*
X73114285Y-43702438D01*
X73114285Y-43702438D02*
X73161904Y-43750057D01*
X73161904Y-43750057D02*
X73209523Y-43845295D01*
X73209523Y-43845295D02*
X73209523Y-43940533D01*
X73209523Y-43940533D02*
X73161904Y-44083390D01*
X73161904Y-44083390D02*
X72590476Y-44654819D01*
X72590476Y-44654819D02*
X73209523Y-44654819D01*
X73542857Y-43654819D02*
X74161904Y-43654819D01*
X74161904Y-43654819D02*
X73828571Y-44035771D01*
X73828571Y-44035771D02*
X73971428Y-44035771D01*
X73971428Y-44035771D02*
X74066666Y-44083390D01*
X74066666Y-44083390D02*
X74114285Y-44131009D01*
X74114285Y-44131009D02*
X74161904Y-44226247D01*
X74161904Y-44226247D02*
X74161904Y-44464342D01*
X74161904Y-44464342D02*
X74114285Y-44559580D01*
X74114285Y-44559580D02*
X74066666Y-44607200D01*
X74066666Y-44607200D02*
X73971428Y-44654819D01*
X73971428Y-44654819D02*
X73685714Y-44654819D01*
X73685714Y-44654819D02*
X73590476Y-44607200D01*
X73590476Y-44607200D02*
X73542857Y-44559580D01*
X114957142Y-75459580D02*
X114909523Y-75507200D01*
X114909523Y-75507200D02*
X114766666Y-75554819D01*
X114766666Y-75554819D02*
X114671428Y-75554819D01*
X114671428Y-75554819D02*
X114528571Y-75507200D01*
X114528571Y-75507200D02*
X114433333Y-75411961D01*
X114433333Y-75411961D02*
X114385714Y-75316723D01*
X114385714Y-75316723D02*
X114338095Y-75126247D01*
X114338095Y-75126247D02*
X114338095Y-74983390D01*
X114338095Y-74983390D02*
X114385714Y-74792914D01*
X114385714Y-74792914D02*
X114433333Y-74697676D01*
X114433333Y-74697676D02*
X114528571Y-74602438D01*
X114528571Y-74602438D02*
X114671428Y-74554819D01*
X114671428Y-74554819D02*
X114766666Y-74554819D01*
X114766666Y-74554819D02*
X114909523Y-74602438D01*
X114909523Y-74602438D02*
X114957142Y-74650057D01*
X115290476Y-74554819D02*
X115909523Y-74554819D01*
X115909523Y-74554819D02*
X115576190Y-74935771D01*
X115576190Y-74935771D02*
X115719047Y-74935771D01*
X115719047Y-74935771D02*
X115814285Y-74983390D01*
X115814285Y-74983390D02*
X115861904Y-75031009D01*
X115861904Y-75031009D02*
X115909523Y-75126247D01*
X115909523Y-75126247D02*
X115909523Y-75364342D01*
X115909523Y-75364342D02*
X115861904Y-75459580D01*
X115861904Y-75459580D02*
X115814285Y-75507200D01*
X115814285Y-75507200D02*
X115719047Y-75554819D01*
X115719047Y-75554819D02*
X115433333Y-75554819D01*
X115433333Y-75554819D02*
X115338095Y-75507200D01*
X115338095Y-75507200D02*
X115290476Y-75459580D01*
X116385714Y-75554819D02*
X116576190Y-75554819D01*
X116576190Y-75554819D02*
X116671428Y-75507200D01*
X116671428Y-75507200D02*
X116719047Y-75459580D01*
X116719047Y-75459580D02*
X116814285Y-75316723D01*
X116814285Y-75316723D02*
X116861904Y-75126247D01*
X116861904Y-75126247D02*
X116861904Y-74745295D01*
X116861904Y-74745295D02*
X116814285Y-74650057D01*
X116814285Y-74650057D02*
X116766666Y-74602438D01*
X116766666Y-74602438D02*
X116671428Y-74554819D01*
X116671428Y-74554819D02*
X116480952Y-74554819D01*
X116480952Y-74554819D02*
X116385714Y-74602438D01*
X116385714Y-74602438D02*
X116338095Y-74650057D01*
X116338095Y-74650057D02*
X116290476Y-74745295D01*
X116290476Y-74745295D02*
X116290476Y-74983390D01*
X116290476Y-74983390D02*
X116338095Y-75078628D01*
X116338095Y-75078628D02*
X116385714Y-75126247D01*
X116385714Y-75126247D02*
X116480952Y-75173866D01*
X116480952Y-75173866D02*
X116671428Y-75173866D01*
X116671428Y-75173866D02*
X116766666Y-75126247D01*
X116766666Y-75126247D02*
X116814285Y-75078628D01*
X116814285Y-75078628D02*
X116861904Y-74983390D01*
X65737142Y-46554819D02*
X65403809Y-46078628D01*
X65165714Y-46554819D02*
X65165714Y-45554819D01*
X65165714Y-45554819D02*
X65546666Y-45554819D01*
X65546666Y-45554819D02*
X65641904Y-45602438D01*
X65641904Y-45602438D02*
X65689523Y-45650057D01*
X65689523Y-45650057D02*
X65737142Y-45745295D01*
X65737142Y-45745295D02*
X65737142Y-45888152D01*
X65737142Y-45888152D02*
X65689523Y-45983390D01*
X65689523Y-45983390D02*
X65641904Y-46031009D01*
X65641904Y-46031009D02*
X65546666Y-46078628D01*
X65546666Y-46078628D02*
X65165714Y-46078628D01*
X66118095Y-45650057D02*
X66165714Y-45602438D01*
X66165714Y-45602438D02*
X66260952Y-45554819D01*
X66260952Y-45554819D02*
X66499047Y-45554819D01*
X66499047Y-45554819D02*
X66594285Y-45602438D01*
X66594285Y-45602438D02*
X66641904Y-45650057D01*
X66641904Y-45650057D02*
X66689523Y-45745295D01*
X66689523Y-45745295D02*
X66689523Y-45840533D01*
X66689523Y-45840533D02*
X66641904Y-45983390D01*
X66641904Y-45983390D02*
X66070476Y-46554819D01*
X66070476Y-46554819D02*
X66689523Y-46554819D01*
X67546666Y-45554819D02*
X67356190Y-45554819D01*
X67356190Y-45554819D02*
X67260952Y-45602438D01*
X67260952Y-45602438D02*
X67213333Y-45650057D01*
X67213333Y-45650057D02*
X67118095Y-45792914D01*
X67118095Y-45792914D02*
X67070476Y-45983390D01*
X67070476Y-45983390D02*
X67070476Y-46364342D01*
X67070476Y-46364342D02*
X67118095Y-46459580D01*
X67118095Y-46459580D02*
X67165714Y-46507200D01*
X67165714Y-46507200D02*
X67260952Y-46554819D01*
X67260952Y-46554819D02*
X67451428Y-46554819D01*
X67451428Y-46554819D02*
X67546666Y-46507200D01*
X67546666Y-46507200D02*
X67594285Y-46459580D01*
X67594285Y-46459580D02*
X67641904Y-46364342D01*
X67641904Y-46364342D02*
X67641904Y-46126247D01*
X67641904Y-46126247D02*
X67594285Y-46031009D01*
X67594285Y-46031009D02*
X67546666Y-45983390D01*
X67546666Y-45983390D02*
X67451428Y-45935771D01*
X67451428Y-45935771D02*
X67260952Y-45935771D01*
X67260952Y-45935771D02*
X67165714Y-45983390D01*
X67165714Y-45983390D02*
X67118095Y-46031009D01*
X67118095Y-46031009D02*
X67070476Y-46126247D01*
X100471666Y-54559819D02*
X100471666Y-55274104D01*
X100471666Y-55274104D02*
X100424047Y-55416961D01*
X100424047Y-55416961D02*
X100328809Y-55512200D01*
X100328809Y-55512200D02*
X100185952Y-55559819D01*
X100185952Y-55559819D02*
X100090714Y-55559819D01*
X100900238Y-54655057D02*
X100947857Y-54607438D01*
X100947857Y-54607438D02*
X101043095Y-54559819D01*
X101043095Y-54559819D02*
X101281190Y-54559819D01*
X101281190Y-54559819D02*
X101376428Y-54607438D01*
X101376428Y-54607438D02*
X101424047Y-54655057D01*
X101424047Y-54655057D02*
X101471666Y-54750295D01*
X101471666Y-54750295D02*
X101471666Y-54845533D01*
X101471666Y-54845533D02*
X101424047Y-54988390D01*
X101424047Y-54988390D02*
X100852619Y-55559819D01*
X100852619Y-55559819D02*
X101471666Y-55559819D01*
X92933333Y-41559580D02*
X92885714Y-41607200D01*
X92885714Y-41607200D02*
X92742857Y-41654819D01*
X92742857Y-41654819D02*
X92647619Y-41654819D01*
X92647619Y-41654819D02*
X92504762Y-41607200D01*
X92504762Y-41607200D02*
X92409524Y-41511961D01*
X92409524Y-41511961D02*
X92361905Y-41416723D01*
X92361905Y-41416723D02*
X92314286Y-41226247D01*
X92314286Y-41226247D02*
X92314286Y-41083390D01*
X92314286Y-41083390D02*
X92361905Y-40892914D01*
X92361905Y-40892914D02*
X92409524Y-40797676D01*
X92409524Y-40797676D02*
X92504762Y-40702438D01*
X92504762Y-40702438D02*
X92647619Y-40654819D01*
X92647619Y-40654819D02*
X92742857Y-40654819D01*
X92742857Y-40654819D02*
X92885714Y-40702438D01*
X92885714Y-40702438D02*
X92933333Y-40750057D01*
X93314286Y-40750057D02*
X93361905Y-40702438D01*
X93361905Y-40702438D02*
X93457143Y-40654819D01*
X93457143Y-40654819D02*
X93695238Y-40654819D01*
X93695238Y-40654819D02*
X93790476Y-40702438D01*
X93790476Y-40702438D02*
X93838095Y-40750057D01*
X93838095Y-40750057D02*
X93885714Y-40845295D01*
X93885714Y-40845295D02*
X93885714Y-40940533D01*
X93885714Y-40940533D02*
X93838095Y-41083390D01*
X93838095Y-41083390D02*
X93266667Y-41654819D01*
X93266667Y-41654819D02*
X93885714Y-41654819D01*
X64657142Y-58259580D02*
X64609523Y-58307200D01*
X64609523Y-58307200D02*
X64466666Y-58354819D01*
X64466666Y-58354819D02*
X64371428Y-58354819D01*
X64371428Y-58354819D02*
X64228571Y-58307200D01*
X64228571Y-58307200D02*
X64133333Y-58211961D01*
X64133333Y-58211961D02*
X64085714Y-58116723D01*
X64085714Y-58116723D02*
X64038095Y-57926247D01*
X64038095Y-57926247D02*
X64038095Y-57783390D01*
X64038095Y-57783390D02*
X64085714Y-57592914D01*
X64085714Y-57592914D02*
X64133333Y-57497676D01*
X64133333Y-57497676D02*
X64228571Y-57402438D01*
X64228571Y-57402438D02*
X64371428Y-57354819D01*
X64371428Y-57354819D02*
X64466666Y-57354819D01*
X64466666Y-57354819D02*
X64609523Y-57402438D01*
X64609523Y-57402438D02*
X64657142Y-57450057D01*
X65609523Y-58354819D02*
X65038095Y-58354819D01*
X65323809Y-58354819D02*
X65323809Y-57354819D01*
X65323809Y-57354819D02*
X65228571Y-57497676D01*
X65228571Y-57497676D02*
X65133333Y-57592914D01*
X65133333Y-57592914D02*
X65038095Y-57640533D01*
X66514285Y-57354819D02*
X66038095Y-57354819D01*
X66038095Y-57354819D02*
X65990476Y-57831009D01*
X65990476Y-57831009D02*
X66038095Y-57783390D01*
X66038095Y-57783390D02*
X66133333Y-57735771D01*
X66133333Y-57735771D02*
X66371428Y-57735771D01*
X66371428Y-57735771D02*
X66466666Y-57783390D01*
X66466666Y-57783390D02*
X66514285Y-57831009D01*
X66514285Y-57831009D02*
X66561904Y-57926247D01*
X66561904Y-57926247D02*
X66561904Y-58164342D01*
X66561904Y-58164342D02*
X66514285Y-58259580D01*
X66514285Y-58259580D02*
X66466666Y-58307200D01*
X66466666Y-58307200D02*
X66371428Y-58354819D01*
X66371428Y-58354819D02*
X66133333Y-58354819D01*
X66133333Y-58354819D02*
X66038095Y-58307200D01*
X66038095Y-58307200D02*
X65990476Y-58259580D01*
X127457142Y-51634819D02*
X127123809Y-51158628D01*
X126885714Y-51634819D02*
X126885714Y-50634819D01*
X126885714Y-50634819D02*
X127266666Y-50634819D01*
X127266666Y-50634819D02*
X127361904Y-50682438D01*
X127361904Y-50682438D02*
X127409523Y-50730057D01*
X127409523Y-50730057D02*
X127457142Y-50825295D01*
X127457142Y-50825295D02*
X127457142Y-50968152D01*
X127457142Y-50968152D02*
X127409523Y-51063390D01*
X127409523Y-51063390D02*
X127361904Y-51111009D01*
X127361904Y-51111009D02*
X127266666Y-51158628D01*
X127266666Y-51158628D02*
X126885714Y-51158628D01*
X128409523Y-51634819D02*
X127838095Y-51634819D01*
X128123809Y-51634819D02*
X128123809Y-50634819D01*
X128123809Y-50634819D02*
X128028571Y-50777676D01*
X128028571Y-50777676D02*
X127933333Y-50872914D01*
X127933333Y-50872914D02*
X127838095Y-50920533D01*
X129266666Y-50634819D02*
X129076190Y-50634819D01*
X129076190Y-50634819D02*
X128980952Y-50682438D01*
X128980952Y-50682438D02*
X128933333Y-50730057D01*
X128933333Y-50730057D02*
X128838095Y-50872914D01*
X128838095Y-50872914D02*
X128790476Y-51063390D01*
X128790476Y-51063390D02*
X128790476Y-51444342D01*
X128790476Y-51444342D02*
X128838095Y-51539580D01*
X128838095Y-51539580D02*
X128885714Y-51587200D01*
X128885714Y-51587200D02*
X128980952Y-51634819D01*
X128980952Y-51634819D02*
X129171428Y-51634819D01*
X129171428Y-51634819D02*
X129266666Y-51587200D01*
X129266666Y-51587200D02*
X129314285Y-51539580D01*
X129314285Y-51539580D02*
X129361904Y-51444342D01*
X129361904Y-51444342D02*
X129361904Y-51206247D01*
X129361904Y-51206247D02*
X129314285Y-51111009D01*
X129314285Y-51111009D02*
X129266666Y-51063390D01*
X129266666Y-51063390D02*
X129171428Y-51015771D01*
X129171428Y-51015771D02*
X128980952Y-51015771D01*
X128980952Y-51015771D02*
X128885714Y-51063390D01*
X128885714Y-51063390D02*
X128838095Y-51111009D01*
X128838095Y-51111009D02*
X128790476Y-51206247D01*
X44738095Y-40554819D02*
X44738095Y-41364342D01*
X44738095Y-41364342D02*
X44785714Y-41459580D01*
X44785714Y-41459580D02*
X44833333Y-41507200D01*
X44833333Y-41507200D02*
X44928571Y-41554819D01*
X44928571Y-41554819D02*
X45119047Y-41554819D01*
X45119047Y-41554819D02*
X45214285Y-41507200D01*
X45214285Y-41507200D02*
X45261904Y-41459580D01*
X45261904Y-41459580D02*
X45309523Y-41364342D01*
X45309523Y-41364342D02*
X45309523Y-40554819D01*
X45690476Y-40554819D02*
X46357142Y-40554819D01*
X46357142Y-40554819D02*
X45928571Y-41554819D01*
X111133333Y-82159580D02*
X111085714Y-82207200D01*
X111085714Y-82207200D02*
X110942857Y-82254819D01*
X110942857Y-82254819D02*
X110847619Y-82254819D01*
X110847619Y-82254819D02*
X110704762Y-82207200D01*
X110704762Y-82207200D02*
X110609524Y-82111961D01*
X110609524Y-82111961D02*
X110561905Y-82016723D01*
X110561905Y-82016723D02*
X110514286Y-81826247D01*
X110514286Y-81826247D02*
X110514286Y-81683390D01*
X110514286Y-81683390D02*
X110561905Y-81492914D01*
X110561905Y-81492914D02*
X110609524Y-81397676D01*
X110609524Y-81397676D02*
X110704762Y-81302438D01*
X110704762Y-81302438D02*
X110847619Y-81254819D01*
X110847619Y-81254819D02*
X110942857Y-81254819D01*
X110942857Y-81254819D02*
X111085714Y-81302438D01*
X111085714Y-81302438D02*
X111133333Y-81350057D01*
X111466667Y-81254819D02*
X112133333Y-81254819D01*
X112133333Y-81254819D02*
X111704762Y-82254819D01*
X100961905Y-62154819D02*
X100961905Y-61154819D01*
X100961905Y-61154819D02*
X101200000Y-61154819D01*
X101200000Y-61154819D02*
X101342857Y-61202438D01*
X101342857Y-61202438D02*
X101438095Y-61297676D01*
X101438095Y-61297676D02*
X101485714Y-61392914D01*
X101485714Y-61392914D02*
X101533333Y-61583390D01*
X101533333Y-61583390D02*
X101533333Y-61726247D01*
X101533333Y-61726247D02*
X101485714Y-61916723D01*
X101485714Y-61916723D02*
X101438095Y-62011961D01*
X101438095Y-62011961D02*
X101342857Y-62107200D01*
X101342857Y-62107200D02*
X101200000Y-62154819D01*
X101200000Y-62154819D02*
X100961905Y-62154819D01*
X101866667Y-61154819D02*
X102485714Y-61154819D01*
X102485714Y-61154819D02*
X102152381Y-61535771D01*
X102152381Y-61535771D02*
X102295238Y-61535771D01*
X102295238Y-61535771D02*
X102390476Y-61583390D01*
X102390476Y-61583390D02*
X102438095Y-61631009D01*
X102438095Y-61631009D02*
X102485714Y-61726247D01*
X102485714Y-61726247D02*
X102485714Y-61964342D01*
X102485714Y-61964342D02*
X102438095Y-62059580D01*
X102438095Y-62059580D02*
X102390476Y-62107200D01*
X102390476Y-62107200D02*
X102295238Y-62154819D01*
X102295238Y-62154819D02*
X102009524Y-62154819D01*
X102009524Y-62154819D02*
X101914286Y-62107200D01*
X101914286Y-62107200D02*
X101866667Y-62059580D01*
X69504761Y-63950057D02*
X69409523Y-63902438D01*
X69409523Y-63902438D02*
X69314285Y-63807200D01*
X69314285Y-63807200D02*
X69171428Y-63664342D01*
X69171428Y-63664342D02*
X69076190Y-63616723D01*
X69076190Y-63616723D02*
X68980952Y-63616723D01*
X69028571Y-63854819D02*
X68933333Y-63807200D01*
X68933333Y-63807200D02*
X68838095Y-63711961D01*
X68838095Y-63711961D02*
X68790476Y-63521485D01*
X68790476Y-63521485D02*
X68790476Y-63188152D01*
X68790476Y-63188152D02*
X68838095Y-62997676D01*
X68838095Y-62997676D02*
X68933333Y-62902438D01*
X68933333Y-62902438D02*
X69028571Y-62854819D01*
X69028571Y-62854819D02*
X69219047Y-62854819D01*
X69219047Y-62854819D02*
X69314285Y-62902438D01*
X69314285Y-62902438D02*
X69409523Y-62997676D01*
X69409523Y-62997676D02*
X69457142Y-63188152D01*
X69457142Y-63188152D02*
X69457142Y-63521485D01*
X69457142Y-63521485D02*
X69409523Y-63711961D01*
X69409523Y-63711961D02*
X69314285Y-63807200D01*
X69314285Y-63807200D02*
X69219047Y-63854819D01*
X69219047Y-63854819D02*
X69028571Y-63854819D01*
X69838095Y-62950057D02*
X69885714Y-62902438D01*
X69885714Y-62902438D02*
X69980952Y-62854819D01*
X69980952Y-62854819D02*
X70219047Y-62854819D01*
X70219047Y-62854819D02*
X70314285Y-62902438D01*
X70314285Y-62902438D02*
X70361904Y-62950057D01*
X70361904Y-62950057D02*
X70409523Y-63045295D01*
X70409523Y-63045295D02*
X70409523Y-63140533D01*
X70409523Y-63140533D02*
X70361904Y-63283390D01*
X70361904Y-63283390D02*
X69790476Y-63854819D01*
X69790476Y-63854819D02*
X70409523Y-63854819D01*
X103457142Y-67159580D02*
X103409523Y-67207200D01*
X103409523Y-67207200D02*
X103266666Y-67254819D01*
X103266666Y-67254819D02*
X103171428Y-67254819D01*
X103171428Y-67254819D02*
X103028571Y-67207200D01*
X103028571Y-67207200D02*
X102933333Y-67111961D01*
X102933333Y-67111961D02*
X102885714Y-67016723D01*
X102885714Y-67016723D02*
X102838095Y-66826247D01*
X102838095Y-66826247D02*
X102838095Y-66683390D01*
X102838095Y-66683390D02*
X102885714Y-66492914D01*
X102885714Y-66492914D02*
X102933333Y-66397676D01*
X102933333Y-66397676D02*
X103028571Y-66302438D01*
X103028571Y-66302438D02*
X103171428Y-66254819D01*
X103171428Y-66254819D02*
X103266666Y-66254819D01*
X103266666Y-66254819D02*
X103409523Y-66302438D01*
X103409523Y-66302438D02*
X103457142Y-66350057D01*
X103790476Y-66254819D02*
X104409523Y-66254819D01*
X104409523Y-66254819D02*
X104076190Y-66635771D01*
X104076190Y-66635771D02*
X104219047Y-66635771D01*
X104219047Y-66635771D02*
X104314285Y-66683390D01*
X104314285Y-66683390D02*
X104361904Y-66731009D01*
X104361904Y-66731009D02*
X104409523Y-66826247D01*
X104409523Y-66826247D02*
X104409523Y-67064342D01*
X104409523Y-67064342D02*
X104361904Y-67159580D01*
X104361904Y-67159580D02*
X104314285Y-67207200D01*
X104314285Y-67207200D02*
X104219047Y-67254819D01*
X104219047Y-67254819D02*
X103933333Y-67254819D01*
X103933333Y-67254819D02*
X103838095Y-67207200D01*
X103838095Y-67207200D02*
X103790476Y-67159580D01*
X105028571Y-66254819D02*
X105123809Y-66254819D01*
X105123809Y-66254819D02*
X105219047Y-66302438D01*
X105219047Y-66302438D02*
X105266666Y-66350057D01*
X105266666Y-66350057D02*
X105314285Y-66445295D01*
X105314285Y-66445295D02*
X105361904Y-66635771D01*
X105361904Y-66635771D02*
X105361904Y-66873866D01*
X105361904Y-66873866D02*
X105314285Y-67064342D01*
X105314285Y-67064342D02*
X105266666Y-67159580D01*
X105266666Y-67159580D02*
X105219047Y-67207200D01*
X105219047Y-67207200D02*
X105123809Y-67254819D01*
X105123809Y-67254819D02*
X105028571Y-67254819D01*
X105028571Y-67254819D02*
X104933333Y-67207200D01*
X104933333Y-67207200D02*
X104885714Y-67159580D01*
X104885714Y-67159580D02*
X104838095Y-67064342D01*
X104838095Y-67064342D02*
X104790476Y-66873866D01*
X104790476Y-66873866D02*
X104790476Y-66635771D01*
X104790476Y-66635771D02*
X104838095Y-66445295D01*
X104838095Y-66445295D02*
X104885714Y-66350057D01*
X104885714Y-66350057D02*
X104933333Y-66302438D01*
X104933333Y-66302438D02*
X105028571Y-66254819D01*
X127557142Y-56959580D02*
X127509523Y-57007200D01*
X127509523Y-57007200D02*
X127366666Y-57054819D01*
X127366666Y-57054819D02*
X127271428Y-57054819D01*
X127271428Y-57054819D02*
X127128571Y-57007200D01*
X127128571Y-57007200D02*
X127033333Y-56911961D01*
X127033333Y-56911961D02*
X126985714Y-56816723D01*
X126985714Y-56816723D02*
X126938095Y-56626247D01*
X126938095Y-56626247D02*
X126938095Y-56483390D01*
X126938095Y-56483390D02*
X126985714Y-56292914D01*
X126985714Y-56292914D02*
X127033333Y-56197676D01*
X127033333Y-56197676D02*
X127128571Y-56102438D01*
X127128571Y-56102438D02*
X127271428Y-56054819D01*
X127271428Y-56054819D02*
X127366666Y-56054819D01*
X127366666Y-56054819D02*
X127509523Y-56102438D01*
X127509523Y-56102438D02*
X127557142Y-56150057D01*
X127938095Y-56150057D02*
X127985714Y-56102438D01*
X127985714Y-56102438D02*
X128080952Y-56054819D01*
X128080952Y-56054819D02*
X128319047Y-56054819D01*
X128319047Y-56054819D02*
X128414285Y-56102438D01*
X128414285Y-56102438D02*
X128461904Y-56150057D01*
X128461904Y-56150057D02*
X128509523Y-56245295D01*
X128509523Y-56245295D02*
X128509523Y-56340533D01*
X128509523Y-56340533D02*
X128461904Y-56483390D01*
X128461904Y-56483390D02*
X127890476Y-57054819D01*
X127890476Y-57054819D02*
X128509523Y-57054819D01*
X129414285Y-56054819D02*
X128938095Y-56054819D01*
X128938095Y-56054819D02*
X128890476Y-56531009D01*
X128890476Y-56531009D02*
X128938095Y-56483390D01*
X128938095Y-56483390D02*
X129033333Y-56435771D01*
X129033333Y-56435771D02*
X129271428Y-56435771D01*
X129271428Y-56435771D02*
X129366666Y-56483390D01*
X129366666Y-56483390D02*
X129414285Y-56531009D01*
X129414285Y-56531009D02*
X129461904Y-56626247D01*
X129461904Y-56626247D02*
X129461904Y-56864342D01*
X129461904Y-56864342D02*
X129414285Y-56959580D01*
X129414285Y-56959580D02*
X129366666Y-57007200D01*
X129366666Y-57007200D02*
X129271428Y-57054819D01*
X129271428Y-57054819D02*
X129033333Y-57054819D01*
X129033333Y-57054819D02*
X128938095Y-57007200D01*
X128938095Y-57007200D02*
X128890476Y-56959580D01*
X108133333Y-63254819D02*
X107800000Y-62778628D01*
X107561905Y-63254819D02*
X107561905Y-62254819D01*
X107561905Y-62254819D02*
X107942857Y-62254819D01*
X107942857Y-62254819D02*
X108038095Y-62302438D01*
X108038095Y-62302438D02*
X108085714Y-62350057D01*
X108085714Y-62350057D02*
X108133333Y-62445295D01*
X108133333Y-62445295D02*
X108133333Y-62588152D01*
X108133333Y-62588152D02*
X108085714Y-62683390D01*
X108085714Y-62683390D02*
X108038095Y-62731009D01*
X108038095Y-62731009D02*
X107942857Y-62778628D01*
X107942857Y-62778628D02*
X107561905Y-62778628D01*
X108609524Y-63254819D02*
X108800000Y-63254819D01*
X108800000Y-63254819D02*
X108895238Y-63207200D01*
X108895238Y-63207200D02*
X108942857Y-63159580D01*
X108942857Y-63159580D02*
X109038095Y-63016723D01*
X109038095Y-63016723D02*
X109085714Y-62826247D01*
X109085714Y-62826247D02*
X109085714Y-62445295D01*
X109085714Y-62445295D02*
X109038095Y-62350057D01*
X109038095Y-62350057D02*
X108990476Y-62302438D01*
X108990476Y-62302438D02*
X108895238Y-62254819D01*
X108895238Y-62254819D02*
X108704762Y-62254819D01*
X108704762Y-62254819D02*
X108609524Y-62302438D01*
X108609524Y-62302438D02*
X108561905Y-62350057D01*
X108561905Y-62350057D02*
X108514286Y-62445295D01*
X108514286Y-62445295D02*
X108514286Y-62683390D01*
X108514286Y-62683390D02*
X108561905Y-62778628D01*
X108561905Y-62778628D02*
X108609524Y-62826247D01*
X108609524Y-62826247D02*
X108704762Y-62873866D01*
X108704762Y-62873866D02*
X108895238Y-62873866D01*
X108895238Y-62873866D02*
X108990476Y-62826247D01*
X108990476Y-62826247D02*
X109038095Y-62778628D01*
X109038095Y-62778628D02*
X109085714Y-62683390D01*
X63938095Y-54754819D02*
X63938095Y-55564342D01*
X63938095Y-55564342D02*
X63985714Y-55659580D01*
X63985714Y-55659580D02*
X64033333Y-55707200D01*
X64033333Y-55707200D02*
X64128571Y-55754819D01*
X64128571Y-55754819D02*
X64319047Y-55754819D01*
X64319047Y-55754819D02*
X64414285Y-55707200D01*
X64414285Y-55707200D02*
X64461904Y-55659580D01*
X64461904Y-55659580D02*
X64509523Y-55564342D01*
X64509523Y-55564342D02*
X64509523Y-54754819D01*
X65461904Y-54754819D02*
X64985714Y-54754819D01*
X64985714Y-54754819D02*
X64938095Y-55231009D01*
X64938095Y-55231009D02*
X64985714Y-55183390D01*
X64985714Y-55183390D02*
X65080952Y-55135771D01*
X65080952Y-55135771D02*
X65319047Y-55135771D01*
X65319047Y-55135771D02*
X65414285Y-55183390D01*
X65414285Y-55183390D02*
X65461904Y-55231009D01*
X65461904Y-55231009D02*
X65509523Y-55326247D01*
X65509523Y-55326247D02*
X65509523Y-55564342D01*
X65509523Y-55564342D02*
X65461904Y-55659580D01*
X65461904Y-55659580D02*
X65414285Y-55707200D01*
X65414285Y-55707200D02*
X65319047Y-55754819D01*
X65319047Y-55754819D02*
X65080952Y-55754819D01*
X65080952Y-55754819D02*
X64985714Y-55707200D01*
X64985714Y-55707200D02*
X64938095Y-55659580D01*
X58257142Y-41854819D02*
X57923809Y-41378628D01*
X57685714Y-41854819D02*
X57685714Y-40854819D01*
X57685714Y-40854819D02*
X58066666Y-40854819D01*
X58066666Y-40854819D02*
X58161904Y-40902438D01*
X58161904Y-40902438D02*
X58209523Y-40950057D01*
X58209523Y-40950057D02*
X58257142Y-41045295D01*
X58257142Y-41045295D02*
X58257142Y-41188152D01*
X58257142Y-41188152D02*
X58209523Y-41283390D01*
X58209523Y-41283390D02*
X58161904Y-41331009D01*
X58161904Y-41331009D02*
X58066666Y-41378628D01*
X58066666Y-41378628D02*
X57685714Y-41378628D01*
X59209523Y-41854819D02*
X58638095Y-41854819D01*
X58923809Y-41854819D02*
X58923809Y-40854819D01*
X58923809Y-40854819D02*
X58828571Y-40997676D01*
X58828571Y-40997676D02*
X58733333Y-41092914D01*
X58733333Y-41092914D02*
X58638095Y-41140533D01*
X60161904Y-41854819D02*
X59590476Y-41854819D01*
X59876190Y-41854819D02*
X59876190Y-40854819D01*
X59876190Y-40854819D02*
X59780952Y-40997676D01*
X59780952Y-40997676D02*
X59685714Y-41092914D01*
X59685714Y-41092914D02*
X59590476Y-41140533D01*
X49490476Y-49454819D02*
X49490476Y-48454819D01*
X49490476Y-48454819D02*
X49823809Y-49169104D01*
X49823809Y-49169104D02*
X50157142Y-48454819D01*
X50157142Y-48454819D02*
X50157142Y-49454819D01*
X50633333Y-49454819D02*
X50633333Y-48454819D01*
X51204761Y-49454819D02*
X50776190Y-48883390D01*
X51204761Y-48454819D02*
X50633333Y-49026247D01*
X52157142Y-49454819D02*
X51585714Y-49454819D01*
X51871428Y-49454819D02*
X51871428Y-48454819D01*
X51871428Y-48454819D02*
X51776190Y-48597676D01*
X51776190Y-48597676D02*
X51680952Y-48692914D01*
X51680952Y-48692914D02*
X51585714Y-48740533D01*
X76104761Y-52454819D02*
X75771428Y-51978628D01*
X75533333Y-52454819D02*
X75533333Y-51454819D01*
X75533333Y-51454819D02*
X75914285Y-51454819D01*
X75914285Y-51454819D02*
X76009523Y-51502438D01*
X76009523Y-51502438D02*
X76057142Y-51550057D01*
X76057142Y-51550057D02*
X76104761Y-51645295D01*
X76104761Y-51645295D02*
X76104761Y-51788152D01*
X76104761Y-51788152D02*
X76057142Y-51883390D01*
X76057142Y-51883390D02*
X76009523Y-51931009D01*
X76009523Y-51931009D02*
X75914285Y-51978628D01*
X75914285Y-51978628D02*
X75533333Y-51978628D01*
X76390476Y-51454819D02*
X76723809Y-52454819D01*
X76723809Y-52454819D02*
X77057142Y-51454819D01*
X77295238Y-51454819D02*
X77914285Y-51454819D01*
X77914285Y-51454819D02*
X77580952Y-51835771D01*
X77580952Y-51835771D02*
X77723809Y-51835771D01*
X77723809Y-51835771D02*
X77819047Y-51883390D01*
X77819047Y-51883390D02*
X77866666Y-51931009D01*
X77866666Y-51931009D02*
X77914285Y-52026247D01*
X77914285Y-52026247D02*
X77914285Y-52264342D01*
X77914285Y-52264342D02*
X77866666Y-52359580D01*
X77866666Y-52359580D02*
X77819047Y-52407200D01*
X77819047Y-52407200D02*
X77723809Y-52454819D01*
X77723809Y-52454819D02*
X77438095Y-52454819D01*
X77438095Y-52454819D02*
X77342857Y-52407200D01*
X77342857Y-52407200D02*
X77295238Y-52359580D01*
X75680952Y-53469104D02*
X76157142Y-53469104D01*
X75585714Y-53754819D02*
X75919047Y-52754819D01*
X75919047Y-52754819D02*
X76252380Y-53754819D01*
X76585714Y-53754819D02*
X76585714Y-53088152D01*
X76585714Y-53183390D02*
X76633333Y-53135771D01*
X76633333Y-53135771D02*
X76728571Y-53088152D01*
X76728571Y-53088152D02*
X76871428Y-53088152D01*
X76871428Y-53088152D02*
X76966666Y-53135771D01*
X76966666Y-53135771D02*
X77014285Y-53231009D01*
X77014285Y-53231009D02*
X77014285Y-53754819D01*
X77014285Y-53231009D02*
X77061904Y-53135771D01*
X77061904Y-53135771D02*
X77157142Y-53088152D01*
X77157142Y-53088152D02*
X77299999Y-53088152D01*
X77299999Y-53088152D02*
X77395238Y-53135771D01*
X77395238Y-53135771D02*
X77442857Y-53231009D01*
X77442857Y-53231009D02*
X77442857Y-53754819D01*
X77919047Y-53088152D02*
X77919047Y-54088152D01*
X77919047Y-53135771D02*
X78014285Y-53088152D01*
X78014285Y-53088152D02*
X78204761Y-53088152D01*
X78204761Y-53088152D02*
X78299999Y-53135771D01*
X78299999Y-53135771D02*
X78347618Y-53183390D01*
X78347618Y-53183390D02*
X78395237Y-53278628D01*
X78395237Y-53278628D02*
X78395237Y-53564342D01*
X78395237Y-53564342D02*
X78347618Y-53659580D01*
X78347618Y-53659580D02*
X78299999Y-53707200D01*
X78299999Y-53707200D02*
X78204761Y-53754819D01*
X78204761Y-53754819D02*
X78014285Y-53754819D01*
X78014285Y-53754819D02*
X77919047Y-53707200D01*
X78966666Y-53754819D02*
X78871428Y-53707200D01*
X78871428Y-53707200D02*
X78823809Y-53611961D01*
X78823809Y-53611961D02*
X78823809Y-52754819D01*
X79347619Y-53754819D02*
X79347619Y-53088152D01*
X79347619Y-52754819D02*
X79300000Y-52802438D01*
X79300000Y-52802438D02*
X79347619Y-52850057D01*
X79347619Y-52850057D02*
X79395238Y-52802438D01*
X79395238Y-52802438D02*
X79347619Y-52754819D01*
X79347619Y-52754819D02*
X79347619Y-52850057D01*
X79680952Y-53088152D02*
X80061904Y-53088152D01*
X79823809Y-53754819D02*
X79823809Y-52897676D01*
X79823809Y-52897676D02*
X79871428Y-52802438D01*
X79871428Y-52802438D02*
X79966666Y-52754819D01*
X79966666Y-52754819D02*
X80061904Y-52754819D01*
X80395238Y-53754819D02*
X80395238Y-53088152D01*
X80395238Y-52754819D02*
X80347619Y-52802438D01*
X80347619Y-52802438D02*
X80395238Y-52850057D01*
X80395238Y-52850057D02*
X80442857Y-52802438D01*
X80442857Y-52802438D02*
X80395238Y-52754819D01*
X80395238Y-52754819D02*
X80395238Y-52850057D01*
X81252380Y-53707200D02*
X81157142Y-53754819D01*
X81157142Y-53754819D02*
X80966666Y-53754819D01*
X80966666Y-53754819D02*
X80871428Y-53707200D01*
X80871428Y-53707200D02*
X80823809Y-53611961D01*
X80823809Y-53611961D02*
X80823809Y-53231009D01*
X80823809Y-53231009D02*
X80871428Y-53135771D01*
X80871428Y-53135771D02*
X80966666Y-53088152D01*
X80966666Y-53088152D02*
X81157142Y-53088152D01*
X81157142Y-53088152D02*
X81252380Y-53135771D01*
X81252380Y-53135771D02*
X81299999Y-53231009D01*
X81299999Y-53231009D02*
X81299999Y-53326247D01*
X81299999Y-53326247D02*
X80823809Y-53421485D01*
X81728571Y-53754819D02*
X81728571Y-53088152D01*
X81728571Y-53278628D02*
X81776190Y-53183390D01*
X81776190Y-53183390D02*
X81823809Y-53135771D01*
X81823809Y-53135771D02*
X81919047Y-53088152D01*
X81919047Y-53088152D02*
X82014285Y-53088152D01*
X120057142Y-69754819D02*
X119723809Y-69278628D01*
X119485714Y-69754819D02*
X119485714Y-68754819D01*
X119485714Y-68754819D02*
X119866666Y-68754819D01*
X119866666Y-68754819D02*
X119961904Y-68802438D01*
X119961904Y-68802438D02*
X120009523Y-68850057D01*
X120009523Y-68850057D02*
X120057142Y-68945295D01*
X120057142Y-68945295D02*
X120057142Y-69088152D01*
X120057142Y-69088152D02*
X120009523Y-69183390D01*
X120009523Y-69183390D02*
X119961904Y-69231009D01*
X119961904Y-69231009D02*
X119866666Y-69278628D01*
X119866666Y-69278628D02*
X119485714Y-69278628D01*
X120438095Y-68850057D02*
X120485714Y-68802438D01*
X120485714Y-68802438D02*
X120580952Y-68754819D01*
X120580952Y-68754819D02*
X120819047Y-68754819D01*
X120819047Y-68754819D02*
X120914285Y-68802438D01*
X120914285Y-68802438D02*
X120961904Y-68850057D01*
X120961904Y-68850057D02*
X121009523Y-68945295D01*
X121009523Y-68945295D02*
X121009523Y-69040533D01*
X121009523Y-69040533D02*
X120961904Y-69183390D01*
X120961904Y-69183390D02*
X120390476Y-69754819D01*
X120390476Y-69754819D02*
X121009523Y-69754819D01*
X121866666Y-69088152D02*
X121866666Y-69754819D01*
X121628571Y-68707200D02*
X121390476Y-69421485D01*
X121390476Y-69421485D02*
X122009523Y-69421485D01*
X102233333Y-82359580D02*
X102185714Y-82407200D01*
X102185714Y-82407200D02*
X102042857Y-82454819D01*
X102042857Y-82454819D02*
X101947619Y-82454819D01*
X101947619Y-82454819D02*
X101804762Y-82407200D01*
X101804762Y-82407200D02*
X101709524Y-82311961D01*
X101709524Y-82311961D02*
X101661905Y-82216723D01*
X101661905Y-82216723D02*
X101614286Y-82026247D01*
X101614286Y-82026247D02*
X101614286Y-81883390D01*
X101614286Y-81883390D02*
X101661905Y-81692914D01*
X101661905Y-81692914D02*
X101709524Y-81597676D01*
X101709524Y-81597676D02*
X101804762Y-81502438D01*
X101804762Y-81502438D02*
X101947619Y-81454819D01*
X101947619Y-81454819D02*
X102042857Y-81454819D01*
X102042857Y-81454819D02*
X102185714Y-81502438D01*
X102185714Y-81502438D02*
X102233333Y-81550057D01*
X102566667Y-81454819D02*
X103185714Y-81454819D01*
X103185714Y-81454819D02*
X102852381Y-81835771D01*
X102852381Y-81835771D02*
X102995238Y-81835771D01*
X102995238Y-81835771D02*
X103090476Y-81883390D01*
X103090476Y-81883390D02*
X103138095Y-81931009D01*
X103138095Y-81931009D02*
X103185714Y-82026247D01*
X103185714Y-82026247D02*
X103185714Y-82264342D01*
X103185714Y-82264342D02*
X103138095Y-82359580D01*
X103138095Y-82359580D02*
X103090476Y-82407200D01*
X103090476Y-82407200D02*
X102995238Y-82454819D01*
X102995238Y-82454819D02*
X102709524Y-82454819D01*
X102709524Y-82454819D02*
X102614286Y-82407200D01*
X102614286Y-82407200D02*
X102566667Y-82359580D01*
X95038095Y-41054819D02*
X95038095Y-41864342D01*
X95038095Y-41864342D02*
X95085714Y-41959580D01*
X95085714Y-41959580D02*
X95133333Y-42007200D01*
X95133333Y-42007200D02*
X95228571Y-42054819D01*
X95228571Y-42054819D02*
X95419047Y-42054819D01*
X95419047Y-42054819D02*
X95514285Y-42007200D01*
X95514285Y-42007200D02*
X95561904Y-41959580D01*
X95561904Y-41959580D02*
X95609523Y-41864342D01*
X95609523Y-41864342D02*
X95609523Y-41054819D01*
X96609523Y-42054819D02*
X96038095Y-42054819D01*
X96323809Y-42054819D02*
X96323809Y-41054819D01*
X96323809Y-41054819D02*
X96228571Y-41197676D01*
X96228571Y-41197676D02*
X96133333Y-41292914D01*
X96133333Y-41292914D02*
X96038095Y-41340533D01*
X75082773Y-70154819D02*
X74749440Y-69678628D01*
X74511345Y-70154819D02*
X74511345Y-69154819D01*
X74511345Y-69154819D02*
X74892297Y-69154819D01*
X74892297Y-69154819D02*
X74987535Y-69202438D01*
X74987535Y-69202438D02*
X75035154Y-69250057D01*
X75035154Y-69250057D02*
X75082773Y-69345295D01*
X75082773Y-69345295D02*
X75082773Y-69488152D01*
X75082773Y-69488152D02*
X75035154Y-69583390D01*
X75035154Y-69583390D02*
X74987535Y-69631009D01*
X74987535Y-69631009D02*
X74892297Y-69678628D01*
X74892297Y-69678628D02*
X74511345Y-69678628D01*
X76035154Y-70154819D02*
X75463726Y-70154819D01*
X75749440Y-70154819D02*
X75749440Y-69154819D01*
X75749440Y-69154819D02*
X75654202Y-69297676D01*
X75654202Y-69297676D02*
X75558964Y-69392914D01*
X75558964Y-69392914D02*
X75463726Y-69440533D01*
X115805176Y-52419449D02*
X115709938Y-52371830D01*
X115709938Y-52371830D02*
X115614700Y-52276592D01*
X115614700Y-52276592D02*
X115471843Y-52133734D01*
X115471843Y-52133734D02*
X115376605Y-52086115D01*
X115376605Y-52086115D02*
X115281367Y-52086115D01*
X115328986Y-52324211D02*
X115233748Y-52276592D01*
X115233748Y-52276592D02*
X115138510Y-52181353D01*
X115138510Y-52181353D02*
X115090891Y-51990877D01*
X115090891Y-51990877D02*
X115090891Y-51657544D01*
X115090891Y-51657544D02*
X115138510Y-51467068D01*
X115138510Y-51467068D02*
X115233748Y-51371830D01*
X115233748Y-51371830D02*
X115328986Y-51324211D01*
X115328986Y-51324211D02*
X115519462Y-51324211D01*
X115519462Y-51324211D02*
X115614700Y-51371830D01*
X115614700Y-51371830D02*
X115709938Y-51467068D01*
X115709938Y-51467068D02*
X115757557Y-51657544D01*
X115757557Y-51657544D02*
X115757557Y-51990877D01*
X115757557Y-51990877D02*
X115709938Y-52181353D01*
X115709938Y-52181353D02*
X115614700Y-52276592D01*
X115614700Y-52276592D02*
X115519462Y-52324211D01*
X115519462Y-52324211D02*
X115328986Y-52324211D01*
X116614700Y-51657544D02*
X116614700Y-52324211D01*
X116376605Y-51276592D02*
X116138510Y-51990877D01*
X116138510Y-51990877D02*
X116757557Y-51990877D01*
X66238095Y-40154819D02*
X66238095Y-40964342D01*
X66238095Y-40964342D02*
X66285714Y-41059580D01*
X66285714Y-41059580D02*
X66333333Y-41107200D01*
X66333333Y-41107200D02*
X66428571Y-41154819D01*
X66428571Y-41154819D02*
X66619047Y-41154819D01*
X66619047Y-41154819D02*
X66714285Y-41107200D01*
X66714285Y-41107200D02*
X66761904Y-41059580D01*
X66761904Y-41059580D02*
X66809523Y-40964342D01*
X66809523Y-40964342D02*
X66809523Y-40154819D01*
X67714285Y-40154819D02*
X67523809Y-40154819D01*
X67523809Y-40154819D02*
X67428571Y-40202438D01*
X67428571Y-40202438D02*
X67380952Y-40250057D01*
X67380952Y-40250057D02*
X67285714Y-40392914D01*
X67285714Y-40392914D02*
X67238095Y-40583390D01*
X67238095Y-40583390D02*
X67238095Y-40964342D01*
X67238095Y-40964342D02*
X67285714Y-41059580D01*
X67285714Y-41059580D02*
X67333333Y-41107200D01*
X67333333Y-41107200D02*
X67428571Y-41154819D01*
X67428571Y-41154819D02*
X67619047Y-41154819D01*
X67619047Y-41154819D02*
X67714285Y-41107200D01*
X67714285Y-41107200D02*
X67761904Y-41059580D01*
X67761904Y-41059580D02*
X67809523Y-40964342D01*
X67809523Y-40964342D02*
X67809523Y-40726247D01*
X67809523Y-40726247D02*
X67761904Y-40631009D01*
X67761904Y-40631009D02*
X67714285Y-40583390D01*
X67714285Y-40583390D02*
X67619047Y-40535771D01*
X67619047Y-40535771D02*
X67428571Y-40535771D01*
X67428571Y-40535771D02*
X67333333Y-40583390D01*
X67333333Y-40583390D02*
X67285714Y-40631009D01*
X67285714Y-40631009D02*
X67238095Y-40726247D01*
X45157142Y-44959580D02*
X45109523Y-45007200D01*
X45109523Y-45007200D02*
X44966666Y-45054819D01*
X44966666Y-45054819D02*
X44871428Y-45054819D01*
X44871428Y-45054819D02*
X44728571Y-45007200D01*
X44728571Y-45007200D02*
X44633333Y-44911961D01*
X44633333Y-44911961D02*
X44585714Y-44816723D01*
X44585714Y-44816723D02*
X44538095Y-44626247D01*
X44538095Y-44626247D02*
X44538095Y-44483390D01*
X44538095Y-44483390D02*
X44585714Y-44292914D01*
X44585714Y-44292914D02*
X44633333Y-44197676D01*
X44633333Y-44197676D02*
X44728571Y-44102438D01*
X44728571Y-44102438D02*
X44871428Y-44054819D01*
X44871428Y-44054819D02*
X44966666Y-44054819D01*
X44966666Y-44054819D02*
X45109523Y-44102438D01*
X45109523Y-44102438D02*
X45157142Y-44150057D01*
X46109523Y-45054819D02*
X45538095Y-45054819D01*
X45823809Y-45054819D02*
X45823809Y-44054819D01*
X45823809Y-44054819D02*
X45728571Y-44197676D01*
X45728571Y-44197676D02*
X45633333Y-44292914D01*
X45633333Y-44292914D02*
X45538095Y-44340533D01*
X46442857Y-44054819D02*
X47109523Y-44054819D01*
X47109523Y-44054819D02*
X46680952Y-45054819D01*
X42157142Y-48359580D02*
X42109523Y-48407200D01*
X42109523Y-48407200D02*
X41966666Y-48454819D01*
X41966666Y-48454819D02*
X41871428Y-48454819D01*
X41871428Y-48454819D02*
X41728571Y-48407200D01*
X41728571Y-48407200D02*
X41633333Y-48311961D01*
X41633333Y-48311961D02*
X41585714Y-48216723D01*
X41585714Y-48216723D02*
X41538095Y-48026247D01*
X41538095Y-48026247D02*
X41538095Y-47883390D01*
X41538095Y-47883390D02*
X41585714Y-47692914D01*
X41585714Y-47692914D02*
X41633333Y-47597676D01*
X41633333Y-47597676D02*
X41728571Y-47502438D01*
X41728571Y-47502438D02*
X41871428Y-47454819D01*
X41871428Y-47454819D02*
X41966666Y-47454819D01*
X41966666Y-47454819D02*
X42109523Y-47502438D01*
X42109523Y-47502438D02*
X42157142Y-47550057D01*
X43109523Y-48454819D02*
X42538095Y-48454819D01*
X42823809Y-48454819D02*
X42823809Y-47454819D01*
X42823809Y-47454819D02*
X42728571Y-47597676D01*
X42728571Y-47597676D02*
X42633333Y-47692914D01*
X42633333Y-47692914D02*
X42538095Y-47740533D01*
X43966666Y-47454819D02*
X43776190Y-47454819D01*
X43776190Y-47454819D02*
X43680952Y-47502438D01*
X43680952Y-47502438D02*
X43633333Y-47550057D01*
X43633333Y-47550057D02*
X43538095Y-47692914D01*
X43538095Y-47692914D02*
X43490476Y-47883390D01*
X43490476Y-47883390D02*
X43490476Y-48264342D01*
X43490476Y-48264342D02*
X43538095Y-48359580D01*
X43538095Y-48359580D02*
X43585714Y-48407200D01*
X43585714Y-48407200D02*
X43680952Y-48454819D01*
X43680952Y-48454819D02*
X43871428Y-48454819D01*
X43871428Y-48454819D02*
X43966666Y-48407200D01*
X43966666Y-48407200D02*
X44014285Y-48359580D01*
X44014285Y-48359580D02*
X44061904Y-48264342D01*
X44061904Y-48264342D02*
X44061904Y-48026247D01*
X44061904Y-48026247D02*
X44014285Y-47931009D01*
X44014285Y-47931009D02*
X43966666Y-47883390D01*
X43966666Y-47883390D02*
X43871428Y-47835771D01*
X43871428Y-47835771D02*
X43680952Y-47835771D01*
X43680952Y-47835771D02*
X43585714Y-47883390D01*
X43585714Y-47883390D02*
X43538095Y-47931009D01*
X43538095Y-47931009D02*
X43490476Y-48026247D01*
X89857142Y-67359580D02*
X89809523Y-67407200D01*
X89809523Y-67407200D02*
X89666666Y-67454819D01*
X89666666Y-67454819D02*
X89571428Y-67454819D01*
X89571428Y-67454819D02*
X89428571Y-67407200D01*
X89428571Y-67407200D02*
X89333333Y-67311961D01*
X89333333Y-67311961D02*
X89285714Y-67216723D01*
X89285714Y-67216723D02*
X89238095Y-67026247D01*
X89238095Y-67026247D02*
X89238095Y-66883390D01*
X89238095Y-66883390D02*
X89285714Y-66692914D01*
X89285714Y-66692914D02*
X89333333Y-66597676D01*
X89333333Y-66597676D02*
X89428571Y-66502438D01*
X89428571Y-66502438D02*
X89571428Y-66454819D01*
X89571428Y-66454819D02*
X89666666Y-66454819D01*
X89666666Y-66454819D02*
X89809523Y-66502438D01*
X89809523Y-66502438D02*
X89857142Y-66550057D01*
X90809523Y-67454819D02*
X90238095Y-67454819D01*
X90523809Y-67454819D02*
X90523809Y-66454819D01*
X90523809Y-66454819D02*
X90428571Y-66597676D01*
X90428571Y-66597676D02*
X90333333Y-66692914D01*
X90333333Y-66692914D02*
X90238095Y-66740533D01*
X91666666Y-66788152D02*
X91666666Y-67454819D01*
X91428571Y-66407200D02*
X91190476Y-67121485D01*
X91190476Y-67121485D02*
X91809523Y-67121485D01*
X61538095Y-72854819D02*
X61538095Y-73664342D01*
X61538095Y-73664342D02*
X61585714Y-73759580D01*
X61585714Y-73759580D02*
X61633333Y-73807200D01*
X61633333Y-73807200D02*
X61728571Y-73854819D01*
X61728571Y-73854819D02*
X61919047Y-73854819D01*
X61919047Y-73854819D02*
X62014285Y-73807200D01*
X62014285Y-73807200D02*
X62061904Y-73759580D01*
X62061904Y-73759580D02*
X62109523Y-73664342D01*
X62109523Y-73664342D02*
X62109523Y-72854819D01*
X62538095Y-72950057D02*
X62585714Y-72902438D01*
X62585714Y-72902438D02*
X62680952Y-72854819D01*
X62680952Y-72854819D02*
X62919047Y-72854819D01*
X62919047Y-72854819D02*
X63014285Y-72902438D01*
X63014285Y-72902438D02*
X63061904Y-72950057D01*
X63061904Y-72950057D02*
X63109523Y-73045295D01*
X63109523Y-73045295D02*
X63109523Y-73140533D01*
X63109523Y-73140533D02*
X63061904Y-73283390D01*
X63061904Y-73283390D02*
X62490476Y-73854819D01*
X62490476Y-73854819D02*
X63109523Y-73854819D01*
X78761905Y-43954819D02*
X79333333Y-43954819D01*
X79047619Y-44954819D02*
X79047619Y-43954819D01*
X79666667Y-44954819D02*
X79666667Y-43954819D01*
X79666667Y-43954819D02*
X80047619Y-43954819D01*
X80047619Y-43954819D02*
X80142857Y-44002438D01*
X80142857Y-44002438D02*
X80190476Y-44050057D01*
X80190476Y-44050057D02*
X80238095Y-44145295D01*
X80238095Y-44145295D02*
X80238095Y-44288152D01*
X80238095Y-44288152D02*
X80190476Y-44383390D01*
X80190476Y-44383390D02*
X80142857Y-44431009D01*
X80142857Y-44431009D02*
X80047619Y-44478628D01*
X80047619Y-44478628D02*
X79666667Y-44478628D01*
X81190476Y-44954819D02*
X80619048Y-44954819D01*
X80904762Y-44954819D02*
X80904762Y-43954819D01*
X80904762Y-43954819D02*
X80809524Y-44097676D01*
X80809524Y-44097676D02*
X80714286Y-44192914D01*
X80714286Y-44192914D02*
X80619048Y-44240533D01*
X81809524Y-43954819D02*
X81904762Y-43954819D01*
X81904762Y-43954819D02*
X82000000Y-44002438D01*
X82000000Y-44002438D02*
X82047619Y-44050057D01*
X82047619Y-44050057D02*
X82095238Y-44145295D01*
X82095238Y-44145295D02*
X82142857Y-44335771D01*
X82142857Y-44335771D02*
X82142857Y-44573866D01*
X82142857Y-44573866D02*
X82095238Y-44764342D01*
X82095238Y-44764342D02*
X82047619Y-44859580D01*
X82047619Y-44859580D02*
X82000000Y-44907200D01*
X82000000Y-44907200D02*
X81904762Y-44954819D01*
X81904762Y-44954819D02*
X81809524Y-44954819D01*
X81809524Y-44954819D02*
X81714286Y-44907200D01*
X81714286Y-44907200D02*
X81666667Y-44859580D01*
X81666667Y-44859580D02*
X81619048Y-44764342D01*
X81619048Y-44764342D02*
X81571429Y-44573866D01*
X81571429Y-44573866D02*
X81571429Y-44335771D01*
X81571429Y-44335771D02*
X81619048Y-44145295D01*
X81619048Y-44145295D02*
X81666667Y-44050057D01*
X81666667Y-44050057D02*
X81714286Y-44002438D01*
X81714286Y-44002438D02*
X81809524Y-43954819D01*
X78923810Y-46254819D02*
X78923810Y-45254819D01*
X78923810Y-45254819D02*
X79495238Y-46254819D01*
X79495238Y-46254819D02*
X79495238Y-45254819D01*
X80161905Y-45254819D02*
X80352381Y-45254819D01*
X80352381Y-45254819D02*
X80447619Y-45302438D01*
X80447619Y-45302438D02*
X80542857Y-45397676D01*
X80542857Y-45397676D02*
X80590476Y-45588152D01*
X80590476Y-45588152D02*
X80590476Y-45921485D01*
X80590476Y-45921485D02*
X80542857Y-46111961D01*
X80542857Y-46111961D02*
X80447619Y-46207200D01*
X80447619Y-46207200D02*
X80352381Y-46254819D01*
X80352381Y-46254819D02*
X80161905Y-46254819D01*
X80161905Y-46254819D02*
X80066667Y-46207200D01*
X80066667Y-46207200D02*
X79971429Y-46111961D01*
X79971429Y-46111961D02*
X79923810Y-45921485D01*
X79923810Y-45921485D02*
X79923810Y-45588152D01*
X79923810Y-45588152D02*
X79971429Y-45397676D01*
X79971429Y-45397676D02*
X80066667Y-45302438D01*
X80066667Y-45302438D02*
X80161905Y-45254819D01*
X81019048Y-46254819D02*
X81019048Y-45254819D01*
X81447619Y-46207200D02*
X81590476Y-46254819D01*
X81590476Y-46254819D02*
X81828571Y-46254819D01*
X81828571Y-46254819D02*
X81923809Y-46207200D01*
X81923809Y-46207200D02*
X81971428Y-46159580D01*
X81971428Y-46159580D02*
X82019047Y-46064342D01*
X82019047Y-46064342D02*
X82019047Y-45969104D01*
X82019047Y-45969104D02*
X81971428Y-45873866D01*
X81971428Y-45873866D02*
X81923809Y-45826247D01*
X81923809Y-45826247D02*
X81828571Y-45778628D01*
X81828571Y-45778628D02*
X81638095Y-45731009D01*
X81638095Y-45731009D02*
X81542857Y-45683390D01*
X81542857Y-45683390D02*
X81495238Y-45635771D01*
X81495238Y-45635771D02*
X81447619Y-45540533D01*
X81447619Y-45540533D02*
X81447619Y-45445295D01*
X81447619Y-45445295D02*
X81495238Y-45350057D01*
X81495238Y-45350057D02*
X81542857Y-45302438D01*
X81542857Y-45302438D02*
X81638095Y-45254819D01*
X81638095Y-45254819D02*
X81876190Y-45254819D01*
X81876190Y-45254819D02*
X82019047Y-45302438D01*
X82447619Y-45731009D02*
X82780952Y-45731009D01*
X82923809Y-46254819D02*
X82447619Y-46254819D01*
X82447619Y-46254819D02*
X82447619Y-45254819D01*
X82447619Y-45254819D02*
X82923809Y-45254819D01*
X79633333Y-51959580D02*
X79585714Y-52007200D01*
X79585714Y-52007200D02*
X79442857Y-52054819D01*
X79442857Y-52054819D02*
X79347619Y-52054819D01*
X79347619Y-52054819D02*
X79204762Y-52007200D01*
X79204762Y-52007200D02*
X79109524Y-51911961D01*
X79109524Y-51911961D02*
X79061905Y-51816723D01*
X79061905Y-51816723D02*
X79014286Y-51626247D01*
X79014286Y-51626247D02*
X79014286Y-51483390D01*
X79014286Y-51483390D02*
X79061905Y-51292914D01*
X79061905Y-51292914D02*
X79109524Y-51197676D01*
X79109524Y-51197676D02*
X79204762Y-51102438D01*
X79204762Y-51102438D02*
X79347619Y-51054819D01*
X79347619Y-51054819D02*
X79442857Y-51054819D01*
X79442857Y-51054819D02*
X79585714Y-51102438D01*
X79585714Y-51102438D02*
X79633333Y-51150057D01*
X80490476Y-51388152D02*
X80490476Y-52054819D01*
X80252381Y-51007200D02*
X80014286Y-51721485D01*
X80014286Y-51721485D02*
X80633333Y-51721485D01*
X110461905Y-56854819D02*
X111033333Y-56854819D01*
X110747619Y-57854819D02*
X110747619Y-56854819D01*
X111366667Y-57854819D02*
X111366667Y-56854819D01*
X111366667Y-56854819D02*
X111747619Y-56854819D01*
X111747619Y-56854819D02*
X111842857Y-56902438D01*
X111842857Y-56902438D02*
X111890476Y-56950057D01*
X111890476Y-56950057D02*
X111938095Y-57045295D01*
X111938095Y-57045295D02*
X111938095Y-57188152D01*
X111938095Y-57188152D02*
X111890476Y-57283390D01*
X111890476Y-57283390D02*
X111842857Y-57331009D01*
X111842857Y-57331009D02*
X111747619Y-57378628D01*
X111747619Y-57378628D02*
X111366667Y-57378628D01*
X112890476Y-57854819D02*
X112319048Y-57854819D01*
X112604762Y-57854819D02*
X112604762Y-56854819D01*
X112604762Y-56854819D02*
X112509524Y-56997676D01*
X112509524Y-56997676D02*
X112414286Y-57092914D01*
X112414286Y-57092914D02*
X112319048Y-57140533D01*
X113271429Y-56950057D02*
X113319048Y-56902438D01*
X113319048Y-56902438D02*
X113414286Y-56854819D01*
X113414286Y-56854819D02*
X113652381Y-56854819D01*
X113652381Y-56854819D02*
X113747619Y-56902438D01*
X113747619Y-56902438D02*
X113795238Y-56950057D01*
X113795238Y-56950057D02*
X113842857Y-57045295D01*
X113842857Y-57045295D02*
X113842857Y-57140533D01*
X113842857Y-57140533D02*
X113795238Y-57283390D01*
X113795238Y-57283390D02*
X113223810Y-57854819D01*
X113223810Y-57854819D02*
X113842857Y-57854819D01*
X110238095Y-58969104D02*
X110714285Y-58969104D01*
X110142857Y-59254819D02*
X110476190Y-58254819D01*
X110476190Y-58254819D02*
X110809523Y-59254819D01*
X111714285Y-59159580D02*
X111666666Y-59207200D01*
X111666666Y-59207200D02*
X111523809Y-59254819D01*
X111523809Y-59254819D02*
X111428571Y-59254819D01*
X111428571Y-59254819D02*
X111285714Y-59207200D01*
X111285714Y-59207200D02*
X111190476Y-59111961D01*
X111190476Y-59111961D02*
X111142857Y-59016723D01*
X111142857Y-59016723D02*
X111095238Y-58826247D01*
X111095238Y-58826247D02*
X111095238Y-58683390D01*
X111095238Y-58683390D02*
X111142857Y-58492914D01*
X111142857Y-58492914D02*
X111190476Y-58397676D01*
X111190476Y-58397676D02*
X111285714Y-58302438D01*
X111285714Y-58302438D02*
X111428571Y-58254819D01*
X111428571Y-58254819D02*
X111523809Y-58254819D01*
X111523809Y-58254819D02*
X111666666Y-58302438D01*
X111666666Y-58302438D02*
X111714285Y-58350057D01*
X112333333Y-58254819D02*
X112523809Y-58254819D01*
X112523809Y-58254819D02*
X112619047Y-58302438D01*
X112619047Y-58302438D02*
X112714285Y-58397676D01*
X112714285Y-58397676D02*
X112761904Y-58588152D01*
X112761904Y-58588152D02*
X112761904Y-58921485D01*
X112761904Y-58921485D02*
X112714285Y-59111961D01*
X112714285Y-59111961D02*
X112619047Y-59207200D01*
X112619047Y-59207200D02*
X112523809Y-59254819D01*
X112523809Y-59254819D02*
X112333333Y-59254819D01*
X112333333Y-59254819D02*
X112238095Y-59207200D01*
X112238095Y-59207200D02*
X112142857Y-59111961D01*
X112142857Y-59111961D02*
X112095238Y-58921485D01*
X112095238Y-58921485D02*
X112095238Y-58588152D01*
X112095238Y-58588152D02*
X112142857Y-58397676D01*
X112142857Y-58397676D02*
X112238095Y-58302438D01*
X112238095Y-58302438D02*
X112333333Y-58254819D01*
X113190476Y-59254819D02*
X113190476Y-58254819D01*
X113761904Y-59254819D02*
X113333333Y-58683390D01*
X113761904Y-58254819D02*
X113190476Y-58826247D01*
X78433333Y-43454819D02*
X78100000Y-42978628D01*
X77861905Y-43454819D02*
X77861905Y-42454819D01*
X77861905Y-42454819D02*
X78242857Y-42454819D01*
X78242857Y-42454819D02*
X78338095Y-42502438D01*
X78338095Y-42502438D02*
X78385714Y-42550057D01*
X78385714Y-42550057D02*
X78433333Y-42645295D01*
X78433333Y-42645295D02*
X78433333Y-42788152D01*
X78433333Y-42788152D02*
X78385714Y-42883390D01*
X78385714Y-42883390D02*
X78338095Y-42931009D01*
X78338095Y-42931009D02*
X78242857Y-42978628D01*
X78242857Y-42978628D02*
X77861905Y-42978628D01*
X79338095Y-42454819D02*
X78861905Y-42454819D01*
X78861905Y-42454819D02*
X78814286Y-42931009D01*
X78814286Y-42931009D02*
X78861905Y-42883390D01*
X78861905Y-42883390D02*
X78957143Y-42835771D01*
X78957143Y-42835771D02*
X79195238Y-42835771D01*
X79195238Y-42835771D02*
X79290476Y-42883390D01*
X79290476Y-42883390D02*
X79338095Y-42931009D01*
X79338095Y-42931009D02*
X79385714Y-43026247D01*
X79385714Y-43026247D02*
X79385714Y-43264342D01*
X79385714Y-43264342D02*
X79338095Y-43359580D01*
X79338095Y-43359580D02*
X79290476Y-43407200D01*
X79290476Y-43407200D02*
X79195238Y-43454819D01*
X79195238Y-43454819D02*
X78957143Y-43454819D01*
X78957143Y-43454819D02*
X78861905Y-43407200D01*
X78861905Y-43407200D02*
X78814286Y-43359580D01*
X76404761Y-56554819D02*
X76071428Y-56078628D01*
X75833333Y-56554819D02*
X75833333Y-55554819D01*
X75833333Y-55554819D02*
X76214285Y-55554819D01*
X76214285Y-55554819D02*
X76309523Y-55602438D01*
X76309523Y-55602438D02*
X76357142Y-55650057D01*
X76357142Y-55650057D02*
X76404761Y-55745295D01*
X76404761Y-55745295D02*
X76404761Y-55888152D01*
X76404761Y-55888152D02*
X76357142Y-55983390D01*
X76357142Y-55983390D02*
X76309523Y-56031009D01*
X76309523Y-56031009D02*
X76214285Y-56078628D01*
X76214285Y-56078628D02*
X75833333Y-56078628D01*
X76690476Y-55554819D02*
X77023809Y-56554819D01*
X77023809Y-56554819D02*
X77357142Y-55554819D01*
X78214285Y-56554819D02*
X77642857Y-56554819D01*
X77928571Y-56554819D02*
X77928571Y-55554819D01*
X77928571Y-55554819D02*
X77833333Y-55697676D01*
X77833333Y-55697676D02*
X77738095Y-55792914D01*
X77738095Y-55792914D02*
X77642857Y-55840533D01*
X75866666Y-57569104D02*
X76342856Y-57569104D01*
X75771428Y-57854819D02*
X76104761Y-56854819D01*
X76104761Y-56854819D02*
X76438094Y-57854819D01*
X76914285Y-57854819D02*
X76819047Y-57807200D01*
X76819047Y-57807200D02*
X76771428Y-57711961D01*
X76771428Y-57711961D02*
X76771428Y-56854819D01*
X77723809Y-57854819D02*
X77723809Y-57331009D01*
X77723809Y-57331009D02*
X77676190Y-57235771D01*
X77676190Y-57235771D02*
X77580952Y-57188152D01*
X77580952Y-57188152D02*
X77390476Y-57188152D01*
X77390476Y-57188152D02*
X77295238Y-57235771D01*
X77723809Y-57807200D02*
X77628571Y-57854819D01*
X77628571Y-57854819D02*
X77390476Y-57854819D01*
X77390476Y-57854819D02*
X77295238Y-57807200D01*
X77295238Y-57807200D02*
X77247619Y-57711961D01*
X77247619Y-57711961D02*
X77247619Y-57616723D01*
X77247619Y-57616723D02*
X77295238Y-57521485D01*
X77295238Y-57521485D02*
X77390476Y-57473866D01*
X77390476Y-57473866D02*
X77628571Y-57473866D01*
X77628571Y-57473866D02*
X77723809Y-57426247D01*
X78200000Y-57854819D02*
X78200000Y-57188152D01*
X78200000Y-57378628D02*
X78247619Y-57283390D01*
X78247619Y-57283390D02*
X78295238Y-57235771D01*
X78295238Y-57235771D02*
X78390476Y-57188152D01*
X78390476Y-57188152D02*
X78485714Y-57188152D01*
X78819048Y-57854819D02*
X78819048Y-57188152D01*
X78819048Y-57283390D02*
X78866667Y-57235771D01*
X78866667Y-57235771D02*
X78961905Y-57188152D01*
X78961905Y-57188152D02*
X79104762Y-57188152D01*
X79104762Y-57188152D02*
X79200000Y-57235771D01*
X79200000Y-57235771D02*
X79247619Y-57331009D01*
X79247619Y-57331009D02*
X79247619Y-57854819D01*
X79247619Y-57331009D02*
X79295238Y-57235771D01*
X79295238Y-57235771D02*
X79390476Y-57188152D01*
X79390476Y-57188152D02*
X79533333Y-57188152D01*
X79533333Y-57188152D02*
X79628572Y-57235771D01*
X79628572Y-57235771D02*
X79676191Y-57331009D01*
X79676191Y-57331009D02*
X79676191Y-57854819D01*
X80866667Y-57807200D02*
X80961905Y-57854819D01*
X80961905Y-57854819D02*
X81152381Y-57854819D01*
X81152381Y-57854819D02*
X81247619Y-57807200D01*
X81247619Y-57807200D02*
X81295238Y-57711961D01*
X81295238Y-57711961D02*
X81295238Y-57664342D01*
X81295238Y-57664342D02*
X81247619Y-57569104D01*
X81247619Y-57569104D02*
X81152381Y-57521485D01*
X81152381Y-57521485D02*
X81009524Y-57521485D01*
X81009524Y-57521485D02*
X80914286Y-57473866D01*
X80914286Y-57473866D02*
X80866667Y-57378628D01*
X80866667Y-57378628D02*
X80866667Y-57331009D01*
X80866667Y-57331009D02*
X80914286Y-57235771D01*
X80914286Y-57235771D02*
X81009524Y-57188152D01*
X81009524Y-57188152D02*
X81152381Y-57188152D01*
X81152381Y-57188152D02*
X81247619Y-57235771D01*
X82104762Y-57807200D02*
X82009524Y-57854819D01*
X82009524Y-57854819D02*
X81819048Y-57854819D01*
X81819048Y-57854819D02*
X81723810Y-57807200D01*
X81723810Y-57807200D02*
X81676191Y-57711961D01*
X81676191Y-57711961D02*
X81676191Y-57331009D01*
X81676191Y-57331009D02*
X81723810Y-57235771D01*
X81723810Y-57235771D02*
X81819048Y-57188152D01*
X81819048Y-57188152D02*
X82009524Y-57188152D01*
X82009524Y-57188152D02*
X82104762Y-57235771D01*
X82104762Y-57235771D02*
X82152381Y-57331009D01*
X82152381Y-57331009D02*
X82152381Y-57426247D01*
X82152381Y-57426247D02*
X81676191Y-57521485D01*
X82438096Y-57188152D02*
X82819048Y-57188152D01*
X82580953Y-56854819D02*
X82580953Y-57711961D01*
X82580953Y-57711961D02*
X82628572Y-57807200D01*
X82628572Y-57807200D02*
X82723810Y-57854819D01*
X82723810Y-57854819D02*
X82819048Y-57854819D01*
X83580953Y-57188152D02*
X83580953Y-57854819D01*
X83152382Y-57188152D02*
X83152382Y-57711961D01*
X83152382Y-57711961D02*
X83200001Y-57807200D01*
X83200001Y-57807200D02*
X83295239Y-57854819D01*
X83295239Y-57854819D02*
X83438096Y-57854819D01*
X83438096Y-57854819D02*
X83533334Y-57807200D01*
X83533334Y-57807200D02*
X83580953Y-57759580D01*
X84057144Y-57188152D02*
X84057144Y-58188152D01*
X84057144Y-57235771D02*
X84152382Y-57188152D01*
X84152382Y-57188152D02*
X84342858Y-57188152D01*
X84342858Y-57188152D02*
X84438096Y-57235771D01*
X84438096Y-57235771D02*
X84485715Y-57283390D01*
X84485715Y-57283390D02*
X84533334Y-57378628D01*
X84533334Y-57378628D02*
X84533334Y-57664342D01*
X84533334Y-57664342D02*
X84485715Y-57759580D01*
X84485715Y-57759580D02*
X84438096Y-57807200D01*
X84438096Y-57807200D02*
X84342858Y-57854819D01*
X84342858Y-57854819D02*
X84152382Y-57854819D01*
X84152382Y-57854819D02*
X84057144Y-57807200D01*
X116904761Y-47454819D02*
X116571428Y-46978628D01*
X116333333Y-47454819D02*
X116333333Y-46454819D01*
X116333333Y-46454819D02*
X116714285Y-46454819D01*
X116714285Y-46454819D02*
X116809523Y-46502438D01*
X116809523Y-46502438D02*
X116857142Y-46550057D01*
X116857142Y-46550057D02*
X116904761Y-46645295D01*
X116904761Y-46645295D02*
X116904761Y-46788152D01*
X116904761Y-46788152D02*
X116857142Y-46883390D01*
X116857142Y-46883390D02*
X116809523Y-46931009D01*
X116809523Y-46931009D02*
X116714285Y-46978628D01*
X116714285Y-46978628D02*
X116333333Y-46978628D01*
X117190476Y-46454819D02*
X117523809Y-47454819D01*
X117523809Y-47454819D02*
X117857142Y-46454819D01*
X118142857Y-46550057D02*
X118190476Y-46502438D01*
X118190476Y-46502438D02*
X118285714Y-46454819D01*
X118285714Y-46454819D02*
X118523809Y-46454819D01*
X118523809Y-46454819D02*
X118619047Y-46502438D01*
X118619047Y-46502438D02*
X118666666Y-46550057D01*
X118666666Y-46550057D02*
X118714285Y-46645295D01*
X118714285Y-46645295D02*
X118714285Y-46740533D01*
X118714285Y-46740533D02*
X118666666Y-46883390D01*
X118666666Y-46883390D02*
X118095238Y-47454819D01*
X118095238Y-47454819D02*
X118714285Y-47454819D01*
X117057142Y-59404819D02*
X116723809Y-58928628D01*
X116485714Y-59404819D02*
X116485714Y-58404819D01*
X116485714Y-58404819D02*
X116866666Y-58404819D01*
X116866666Y-58404819D02*
X116961904Y-58452438D01*
X116961904Y-58452438D02*
X117009523Y-58500057D01*
X117009523Y-58500057D02*
X117057142Y-58595295D01*
X117057142Y-58595295D02*
X117057142Y-58738152D01*
X117057142Y-58738152D02*
X117009523Y-58833390D01*
X117009523Y-58833390D02*
X116961904Y-58881009D01*
X116961904Y-58881009D02*
X116866666Y-58928628D01*
X116866666Y-58928628D02*
X116485714Y-58928628D01*
X118009523Y-59404819D02*
X117438095Y-59404819D01*
X117723809Y-59404819D02*
X117723809Y-58404819D01*
X117723809Y-58404819D02*
X117628571Y-58547676D01*
X117628571Y-58547676D02*
X117533333Y-58642914D01*
X117533333Y-58642914D02*
X117438095Y-58690533D01*
X118485714Y-59404819D02*
X118676190Y-59404819D01*
X118676190Y-59404819D02*
X118771428Y-59357200D01*
X118771428Y-59357200D02*
X118819047Y-59309580D01*
X118819047Y-59309580D02*
X118914285Y-59166723D01*
X118914285Y-59166723D02*
X118961904Y-58976247D01*
X118961904Y-58976247D02*
X118961904Y-58595295D01*
X118961904Y-58595295D02*
X118914285Y-58500057D01*
X118914285Y-58500057D02*
X118866666Y-58452438D01*
X118866666Y-58452438D02*
X118771428Y-58404819D01*
X118771428Y-58404819D02*
X118580952Y-58404819D01*
X118580952Y-58404819D02*
X118485714Y-58452438D01*
X118485714Y-58452438D02*
X118438095Y-58500057D01*
X118438095Y-58500057D02*
X118390476Y-58595295D01*
X118390476Y-58595295D02*
X118390476Y-58833390D01*
X118390476Y-58833390D02*
X118438095Y-58928628D01*
X118438095Y-58928628D02*
X118485714Y-58976247D01*
X118485714Y-58976247D02*
X118580952Y-59023866D01*
X118580952Y-59023866D02*
X118771428Y-59023866D01*
X118771428Y-59023866D02*
X118866666Y-58976247D01*
X118866666Y-58976247D02*
X118914285Y-58928628D01*
X118914285Y-58928628D02*
X118961904Y-58833390D01*
X116238095Y-62104819D02*
X116238095Y-62914342D01*
X116238095Y-62914342D02*
X116285714Y-63009580D01*
X116285714Y-63009580D02*
X116333333Y-63057200D01*
X116333333Y-63057200D02*
X116428571Y-63104819D01*
X116428571Y-63104819D02*
X116619047Y-63104819D01*
X116619047Y-63104819D02*
X116714285Y-63057200D01*
X116714285Y-63057200D02*
X116761904Y-63009580D01*
X116761904Y-63009580D02*
X116809523Y-62914342D01*
X116809523Y-62914342D02*
X116809523Y-62104819D01*
X117428571Y-62533390D02*
X117333333Y-62485771D01*
X117333333Y-62485771D02*
X117285714Y-62438152D01*
X117285714Y-62438152D02*
X117238095Y-62342914D01*
X117238095Y-62342914D02*
X117238095Y-62295295D01*
X117238095Y-62295295D02*
X117285714Y-62200057D01*
X117285714Y-62200057D02*
X117333333Y-62152438D01*
X117333333Y-62152438D02*
X117428571Y-62104819D01*
X117428571Y-62104819D02*
X117619047Y-62104819D01*
X117619047Y-62104819D02*
X117714285Y-62152438D01*
X117714285Y-62152438D02*
X117761904Y-62200057D01*
X117761904Y-62200057D02*
X117809523Y-62295295D01*
X117809523Y-62295295D02*
X117809523Y-62342914D01*
X117809523Y-62342914D02*
X117761904Y-62438152D01*
X117761904Y-62438152D02*
X117714285Y-62485771D01*
X117714285Y-62485771D02*
X117619047Y-62533390D01*
X117619047Y-62533390D02*
X117428571Y-62533390D01*
X117428571Y-62533390D02*
X117333333Y-62581009D01*
X117333333Y-62581009D02*
X117285714Y-62628628D01*
X117285714Y-62628628D02*
X117238095Y-62723866D01*
X117238095Y-62723866D02*
X117238095Y-62914342D01*
X117238095Y-62914342D02*
X117285714Y-63009580D01*
X117285714Y-63009580D02*
X117333333Y-63057200D01*
X117333333Y-63057200D02*
X117428571Y-63104819D01*
X117428571Y-63104819D02*
X117619047Y-63104819D01*
X117619047Y-63104819D02*
X117714285Y-63057200D01*
X117714285Y-63057200D02*
X117761904Y-63009580D01*
X117761904Y-63009580D02*
X117809523Y-62914342D01*
X117809523Y-62914342D02*
X117809523Y-62723866D01*
X117809523Y-62723866D02*
X117761904Y-62628628D01*
X117761904Y-62628628D02*
X117714285Y-62581009D01*
X117714285Y-62581009D02*
X117619047Y-62533390D01*
X127104761Y-73850057D02*
X127009523Y-73802438D01*
X127009523Y-73802438D02*
X126914285Y-73707200D01*
X126914285Y-73707200D02*
X126771428Y-73564342D01*
X126771428Y-73564342D02*
X126676190Y-73516723D01*
X126676190Y-73516723D02*
X126580952Y-73516723D01*
X126628571Y-73754819D02*
X126533333Y-73707200D01*
X126533333Y-73707200D02*
X126438095Y-73611961D01*
X126438095Y-73611961D02*
X126390476Y-73421485D01*
X126390476Y-73421485D02*
X126390476Y-73088152D01*
X126390476Y-73088152D02*
X126438095Y-72897676D01*
X126438095Y-72897676D02*
X126533333Y-72802438D01*
X126533333Y-72802438D02*
X126628571Y-72754819D01*
X126628571Y-72754819D02*
X126819047Y-72754819D01*
X126819047Y-72754819D02*
X126914285Y-72802438D01*
X126914285Y-72802438D02*
X127009523Y-72897676D01*
X127009523Y-72897676D02*
X127057142Y-73088152D01*
X127057142Y-73088152D02*
X127057142Y-73421485D01*
X127057142Y-73421485D02*
X127009523Y-73611961D01*
X127009523Y-73611961D02*
X126914285Y-73707200D01*
X126914285Y-73707200D02*
X126819047Y-73754819D01*
X126819047Y-73754819D02*
X126628571Y-73754819D01*
X127914285Y-72754819D02*
X127723809Y-72754819D01*
X127723809Y-72754819D02*
X127628571Y-72802438D01*
X127628571Y-72802438D02*
X127580952Y-72850057D01*
X127580952Y-72850057D02*
X127485714Y-72992914D01*
X127485714Y-72992914D02*
X127438095Y-73183390D01*
X127438095Y-73183390D02*
X127438095Y-73564342D01*
X127438095Y-73564342D02*
X127485714Y-73659580D01*
X127485714Y-73659580D02*
X127533333Y-73707200D01*
X127533333Y-73707200D02*
X127628571Y-73754819D01*
X127628571Y-73754819D02*
X127819047Y-73754819D01*
X127819047Y-73754819D02*
X127914285Y-73707200D01*
X127914285Y-73707200D02*
X127961904Y-73659580D01*
X127961904Y-73659580D02*
X128009523Y-73564342D01*
X128009523Y-73564342D02*
X128009523Y-73326247D01*
X128009523Y-73326247D02*
X127961904Y-73231009D01*
X127961904Y-73231009D02*
X127914285Y-73183390D01*
X127914285Y-73183390D02*
X127819047Y-73135771D01*
X127819047Y-73135771D02*
X127628571Y-73135771D01*
X127628571Y-73135771D02*
X127533333Y-73183390D01*
X127533333Y-73183390D02*
X127485714Y-73231009D01*
X127485714Y-73231009D02*
X127438095Y-73326247D01*
X116357142Y-72154819D02*
X116023809Y-71678628D01*
X115785714Y-72154819D02*
X115785714Y-71154819D01*
X115785714Y-71154819D02*
X116166666Y-71154819D01*
X116166666Y-71154819D02*
X116261904Y-71202438D01*
X116261904Y-71202438D02*
X116309523Y-71250057D01*
X116309523Y-71250057D02*
X116357142Y-71345295D01*
X116357142Y-71345295D02*
X116357142Y-71488152D01*
X116357142Y-71488152D02*
X116309523Y-71583390D01*
X116309523Y-71583390D02*
X116261904Y-71631009D01*
X116261904Y-71631009D02*
X116166666Y-71678628D01*
X116166666Y-71678628D02*
X115785714Y-71678628D01*
X116738095Y-71250057D02*
X116785714Y-71202438D01*
X116785714Y-71202438D02*
X116880952Y-71154819D01*
X116880952Y-71154819D02*
X117119047Y-71154819D01*
X117119047Y-71154819D02*
X117214285Y-71202438D01*
X117214285Y-71202438D02*
X117261904Y-71250057D01*
X117261904Y-71250057D02*
X117309523Y-71345295D01*
X117309523Y-71345295D02*
X117309523Y-71440533D01*
X117309523Y-71440533D02*
X117261904Y-71583390D01*
X117261904Y-71583390D02*
X116690476Y-72154819D01*
X116690476Y-72154819D02*
X117309523Y-72154819D01*
X117880952Y-71583390D02*
X117785714Y-71535771D01*
X117785714Y-71535771D02*
X117738095Y-71488152D01*
X117738095Y-71488152D02*
X117690476Y-71392914D01*
X117690476Y-71392914D02*
X117690476Y-71345295D01*
X117690476Y-71345295D02*
X117738095Y-71250057D01*
X117738095Y-71250057D02*
X117785714Y-71202438D01*
X117785714Y-71202438D02*
X117880952Y-71154819D01*
X117880952Y-71154819D02*
X118071428Y-71154819D01*
X118071428Y-71154819D02*
X118166666Y-71202438D01*
X118166666Y-71202438D02*
X118214285Y-71250057D01*
X118214285Y-71250057D02*
X118261904Y-71345295D01*
X118261904Y-71345295D02*
X118261904Y-71392914D01*
X118261904Y-71392914D02*
X118214285Y-71488152D01*
X118214285Y-71488152D02*
X118166666Y-71535771D01*
X118166666Y-71535771D02*
X118071428Y-71583390D01*
X118071428Y-71583390D02*
X117880952Y-71583390D01*
X117880952Y-71583390D02*
X117785714Y-71631009D01*
X117785714Y-71631009D02*
X117738095Y-71678628D01*
X117738095Y-71678628D02*
X117690476Y-71773866D01*
X117690476Y-71773866D02*
X117690476Y-71964342D01*
X117690476Y-71964342D02*
X117738095Y-72059580D01*
X117738095Y-72059580D02*
X117785714Y-72107200D01*
X117785714Y-72107200D02*
X117880952Y-72154819D01*
X117880952Y-72154819D02*
X118071428Y-72154819D01*
X118071428Y-72154819D02*
X118166666Y-72107200D01*
X118166666Y-72107200D02*
X118214285Y-72059580D01*
X118214285Y-72059580D02*
X118261904Y-71964342D01*
X118261904Y-71964342D02*
X118261904Y-71773866D01*
X118261904Y-71773866D02*
X118214285Y-71678628D01*
X118214285Y-71678628D02*
X118166666Y-71631009D01*
X118166666Y-71631009D02*
X118071428Y-71583390D01*
X76157142Y-42254819D02*
X75823809Y-41778628D01*
X75585714Y-42254819D02*
X75585714Y-41254819D01*
X75585714Y-41254819D02*
X75966666Y-41254819D01*
X75966666Y-41254819D02*
X76061904Y-41302438D01*
X76061904Y-41302438D02*
X76109523Y-41350057D01*
X76109523Y-41350057D02*
X76157142Y-41445295D01*
X76157142Y-41445295D02*
X76157142Y-41588152D01*
X76157142Y-41588152D02*
X76109523Y-41683390D01*
X76109523Y-41683390D02*
X76061904Y-41731009D01*
X76061904Y-41731009D02*
X75966666Y-41778628D01*
X75966666Y-41778628D02*
X75585714Y-41778628D01*
X77109523Y-42254819D02*
X76538095Y-42254819D01*
X76823809Y-42254819D02*
X76823809Y-41254819D01*
X76823809Y-41254819D02*
X76728571Y-41397676D01*
X76728571Y-41397676D02*
X76633333Y-41492914D01*
X76633333Y-41492914D02*
X76538095Y-41540533D01*
X78014285Y-41254819D02*
X77538095Y-41254819D01*
X77538095Y-41254819D02*
X77490476Y-41731009D01*
X77490476Y-41731009D02*
X77538095Y-41683390D01*
X77538095Y-41683390D02*
X77633333Y-41635771D01*
X77633333Y-41635771D02*
X77871428Y-41635771D01*
X77871428Y-41635771D02*
X77966666Y-41683390D01*
X77966666Y-41683390D02*
X78014285Y-41731009D01*
X78014285Y-41731009D02*
X78061904Y-41826247D01*
X78061904Y-41826247D02*
X78061904Y-42064342D01*
X78061904Y-42064342D02*
X78014285Y-42159580D01*
X78014285Y-42159580D02*
X77966666Y-42207200D01*
X77966666Y-42207200D02*
X77871428Y-42254819D01*
X77871428Y-42254819D02*
X77633333Y-42254819D01*
X77633333Y-42254819D02*
X77538095Y-42207200D01*
X77538095Y-42207200D02*
X77490476Y-42159580D01*
X76666666Y-80054819D02*
X76666666Y-80769104D01*
X76666666Y-80769104D02*
X76619047Y-80911961D01*
X76619047Y-80911961D02*
X76523809Y-81007200D01*
X76523809Y-81007200D02*
X76380952Y-81054819D01*
X76380952Y-81054819D02*
X76285714Y-81054819D01*
X77666666Y-81054819D02*
X77095238Y-81054819D01*
X77380952Y-81054819D02*
X77380952Y-80054819D01*
X77380952Y-80054819D02*
X77285714Y-80197676D01*
X77285714Y-80197676D02*
X77190476Y-80292914D01*
X77190476Y-80292914D02*
X77095238Y-80340533D01*
X77919048Y-77673866D02*
X78680953Y-77673866D01*
X78300000Y-78054819D02*
X78300000Y-77292914D01*
X74585714Y-81969104D02*
X75061904Y-81969104D01*
X74490476Y-82254819D02*
X74823809Y-81254819D01*
X74823809Y-81254819D02*
X75157142Y-82254819D01*
X75919047Y-82207200D02*
X75823809Y-82254819D01*
X75823809Y-82254819D02*
X75633333Y-82254819D01*
X75633333Y-82254819D02*
X75538095Y-82207200D01*
X75538095Y-82207200D02*
X75490476Y-82159580D01*
X75490476Y-82159580D02*
X75442857Y-82064342D01*
X75442857Y-82064342D02*
X75442857Y-81778628D01*
X75442857Y-81778628D02*
X75490476Y-81683390D01*
X75490476Y-81683390D02*
X75538095Y-81635771D01*
X75538095Y-81635771D02*
X75633333Y-81588152D01*
X75633333Y-81588152D02*
X75823809Y-81588152D01*
X75823809Y-81588152D02*
X75919047Y-81635771D01*
X76776190Y-82207200D02*
X76680952Y-82254819D01*
X76680952Y-82254819D02*
X76490476Y-82254819D01*
X76490476Y-82254819D02*
X76395238Y-82207200D01*
X76395238Y-82207200D02*
X76347619Y-82159580D01*
X76347619Y-82159580D02*
X76300000Y-82064342D01*
X76300000Y-82064342D02*
X76300000Y-81778628D01*
X76300000Y-81778628D02*
X76347619Y-81683390D01*
X76347619Y-81683390D02*
X76395238Y-81635771D01*
X76395238Y-81635771D02*
X76490476Y-81588152D01*
X76490476Y-81588152D02*
X76680952Y-81588152D01*
X76680952Y-81588152D02*
X76776190Y-81635771D01*
X77633333Y-81588152D02*
X77633333Y-82254819D01*
X77204762Y-81588152D02*
X77204762Y-82111961D01*
X77204762Y-82111961D02*
X77252381Y-82207200D01*
X77252381Y-82207200D02*
X77347619Y-82254819D01*
X77347619Y-82254819D02*
X77490476Y-82254819D01*
X77490476Y-82254819D02*
X77585714Y-82207200D01*
X77585714Y-82207200D02*
X77633333Y-82159580D01*
X78109524Y-82254819D02*
X78109524Y-81588152D01*
X78109524Y-81683390D02*
X78157143Y-81635771D01*
X78157143Y-81635771D02*
X78252381Y-81588152D01*
X78252381Y-81588152D02*
X78395238Y-81588152D01*
X78395238Y-81588152D02*
X78490476Y-81635771D01*
X78490476Y-81635771D02*
X78538095Y-81731009D01*
X78538095Y-81731009D02*
X78538095Y-82254819D01*
X78538095Y-81731009D02*
X78585714Y-81635771D01*
X78585714Y-81635771D02*
X78680952Y-81588152D01*
X78680952Y-81588152D02*
X78823809Y-81588152D01*
X78823809Y-81588152D02*
X78919048Y-81635771D01*
X78919048Y-81635771D02*
X78966667Y-81731009D01*
X78966667Y-81731009D02*
X78966667Y-82254819D01*
X66483333Y-71954819D02*
X66150000Y-71478628D01*
X65911905Y-71954819D02*
X65911905Y-70954819D01*
X65911905Y-70954819D02*
X66292857Y-70954819D01*
X66292857Y-70954819D02*
X66388095Y-71002438D01*
X66388095Y-71002438D02*
X66435714Y-71050057D01*
X66435714Y-71050057D02*
X66483333Y-71145295D01*
X66483333Y-71145295D02*
X66483333Y-71288152D01*
X66483333Y-71288152D02*
X66435714Y-71383390D01*
X66435714Y-71383390D02*
X66388095Y-71431009D01*
X66388095Y-71431009D02*
X66292857Y-71478628D01*
X66292857Y-71478628D02*
X65911905Y-71478628D01*
X67340476Y-71288152D02*
X67340476Y-71954819D01*
X67102381Y-70907200D02*
X66864286Y-71621485D01*
X66864286Y-71621485D02*
X67483333Y-71621485D01*
X109857142Y-51859580D02*
X109809523Y-51907200D01*
X109809523Y-51907200D02*
X109666666Y-51954819D01*
X109666666Y-51954819D02*
X109571428Y-51954819D01*
X109571428Y-51954819D02*
X109428571Y-51907200D01*
X109428571Y-51907200D02*
X109333333Y-51811961D01*
X109333333Y-51811961D02*
X109285714Y-51716723D01*
X109285714Y-51716723D02*
X109238095Y-51526247D01*
X109238095Y-51526247D02*
X109238095Y-51383390D01*
X109238095Y-51383390D02*
X109285714Y-51192914D01*
X109285714Y-51192914D02*
X109333333Y-51097676D01*
X109333333Y-51097676D02*
X109428571Y-51002438D01*
X109428571Y-51002438D02*
X109571428Y-50954819D01*
X109571428Y-50954819D02*
X109666666Y-50954819D01*
X109666666Y-50954819D02*
X109809523Y-51002438D01*
X109809523Y-51002438D02*
X109857142Y-51050057D01*
X110238095Y-51050057D02*
X110285714Y-51002438D01*
X110285714Y-51002438D02*
X110380952Y-50954819D01*
X110380952Y-50954819D02*
X110619047Y-50954819D01*
X110619047Y-50954819D02*
X110714285Y-51002438D01*
X110714285Y-51002438D02*
X110761904Y-51050057D01*
X110761904Y-51050057D02*
X110809523Y-51145295D01*
X110809523Y-51145295D02*
X110809523Y-51240533D01*
X110809523Y-51240533D02*
X110761904Y-51383390D01*
X110761904Y-51383390D02*
X110190476Y-51954819D01*
X110190476Y-51954819D02*
X110809523Y-51954819D01*
X111761904Y-51954819D02*
X111190476Y-51954819D01*
X111476190Y-51954819D02*
X111476190Y-50954819D01*
X111476190Y-50954819D02*
X111380952Y-51097676D01*
X111380952Y-51097676D02*
X111285714Y-51192914D01*
X111285714Y-51192914D02*
X111190476Y-51240533D01*
X123857142Y-76054819D02*
X123523809Y-75578628D01*
X123285714Y-76054819D02*
X123285714Y-75054819D01*
X123285714Y-75054819D02*
X123666666Y-75054819D01*
X123666666Y-75054819D02*
X123761904Y-75102438D01*
X123761904Y-75102438D02*
X123809523Y-75150057D01*
X123809523Y-75150057D02*
X123857142Y-75245295D01*
X123857142Y-75245295D02*
X123857142Y-75388152D01*
X123857142Y-75388152D02*
X123809523Y-75483390D01*
X123809523Y-75483390D02*
X123761904Y-75531009D01*
X123761904Y-75531009D02*
X123666666Y-75578628D01*
X123666666Y-75578628D02*
X123285714Y-75578628D01*
X124238095Y-75150057D02*
X124285714Y-75102438D01*
X124285714Y-75102438D02*
X124380952Y-75054819D01*
X124380952Y-75054819D02*
X124619047Y-75054819D01*
X124619047Y-75054819D02*
X124714285Y-75102438D01*
X124714285Y-75102438D02*
X124761904Y-75150057D01*
X124761904Y-75150057D02*
X124809523Y-75245295D01*
X124809523Y-75245295D02*
X124809523Y-75340533D01*
X124809523Y-75340533D02*
X124761904Y-75483390D01*
X124761904Y-75483390D02*
X124190476Y-76054819D01*
X124190476Y-76054819D02*
X124809523Y-76054819D01*
X125285714Y-76054819D02*
X125476190Y-76054819D01*
X125476190Y-76054819D02*
X125571428Y-76007200D01*
X125571428Y-76007200D02*
X125619047Y-75959580D01*
X125619047Y-75959580D02*
X125714285Y-75816723D01*
X125714285Y-75816723D02*
X125761904Y-75626247D01*
X125761904Y-75626247D02*
X125761904Y-75245295D01*
X125761904Y-75245295D02*
X125714285Y-75150057D01*
X125714285Y-75150057D02*
X125666666Y-75102438D01*
X125666666Y-75102438D02*
X125571428Y-75054819D01*
X125571428Y-75054819D02*
X125380952Y-75054819D01*
X125380952Y-75054819D02*
X125285714Y-75102438D01*
X125285714Y-75102438D02*
X125238095Y-75150057D01*
X125238095Y-75150057D02*
X125190476Y-75245295D01*
X125190476Y-75245295D02*
X125190476Y-75483390D01*
X125190476Y-75483390D02*
X125238095Y-75578628D01*
X125238095Y-75578628D02*
X125285714Y-75626247D01*
X125285714Y-75626247D02*
X125380952Y-75673866D01*
X125380952Y-75673866D02*
X125571428Y-75673866D01*
X125571428Y-75673866D02*
X125666666Y-75626247D01*
X125666666Y-75626247D02*
X125714285Y-75578628D01*
X125714285Y-75578628D02*
X125761904Y-75483390D01*
X132438095Y-58354819D02*
X133009523Y-58354819D01*
X132723809Y-59354819D02*
X132723809Y-58354819D01*
X133342857Y-59354819D02*
X133342857Y-58354819D01*
X133342857Y-58354819D02*
X133723809Y-58354819D01*
X133723809Y-58354819D02*
X133819047Y-58402438D01*
X133819047Y-58402438D02*
X133866666Y-58450057D01*
X133866666Y-58450057D02*
X133914285Y-58545295D01*
X133914285Y-58545295D02*
X133914285Y-58688152D01*
X133914285Y-58688152D02*
X133866666Y-58783390D01*
X133866666Y-58783390D02*
X133819047Y-58831009D01*
X133819047Y-58831009D02*
X133723809Y-58878628D01*
X133723809Y-58878628D02*
X133342857Y-58878628D01*
X134771428Y-58354819D02*
X134580952Y-58354819D01*
X134580952Y-58354819D02*
X134485714Y-58402438D01*
X134485714Y-58402438D02*
X134438095Y-58450057D01*
X134438095Y-58450057D02*
X134342857Y-58592914D01*
X134342857Y-58592914D02*
X134295238Y-58783390D01*
X134295238Y-58783390D02*
X134295238Y-59164342D01*
X134295238Y-59164342D02*
X134342857Y-59259580D01*
X134342857Y-59259580D02*
X134390476Y-59307200D01*
X134390476Y-59307200D02*
X134485714Y-59354819D01*
X134485714Y-59354819D02*
X134676190Y-59354819D01*
X134676190Y-59354819D02*
X134771428Y-59307200D01*
X134771428Y-59307200D02*
X134819047Y-59259580D01*
X134819047Y-59259580D02*
X134866666Y-59164342D01*
X134866666Y-59164342D02*
X134866666Y-58926247D01*
X134866666Y-58926247D02*
X134819047Y-58831009D01*
X134819047Y-58831009D02*
X134771428Y-58783390D01*
X134771428Y-58783390D02*
X134676190Y-58735771D01*
X134676190Y-58735771D02*
X134485714Y-58735771D01*
X134485714Y-58735771D02*
X134390476Y-58783390D01*
X134390476Y-58783390D02*
X134342857Y-58831009D01*
X134342857Y-58831009D02*
X134295238Y-58926247D01*
X131985714Y-59654819D02*
X132319047Y-60654819D01*
X132319047Y-60654819D02*
X132652380Y-59654819D01*
X132938095Y-60607200D02*
X133080952Y-60654819D01*
X133080952Y-60654819D02*
X133319047Y-60654819D01*
X133319047Y-60654819D02*
X133414285Y-60607200D01*
X133414285Y-60607200D02*
X133461904Y-60559580D01*
X133461904Y-60559580D02*
X133509523Y-60464342D01*
X133509523Y-60464342D02*
X133509523Y-60369104D01*
X133509523Y-60369104D02*
X133461904Y-60273866D01*
X133461904Y-60273866D02*
X133414285Y-60226247D01*
X133414285Y-60226247D02*
X133319047Y-60178628D01*
X133319047Y-60178628D02*
X133128571Y-60131009D01*
X133128571Y-60131009D02*
X133033333Y-60083390D01*
X133033333Y-60083390D02*
X132985714Y-60035771D01*
X132985714Y-60035771D02*
X132938095Y-59940533D01*
X132938095Y-59940533D02*
X132938095Y-59845295D01*
X132938095Y-59845295D02*
X132985714Y-59750057D01*
X132985714Y-59750057D02*
X133033333Y-59702438D01*
X133033333Y-59702438D02*
X133128571Y-59654819D01*
X133128571Y-59654819D02*
X133366666Y-59654819D01*
X133366666Y-59654819D02*
X133509523Y-59702438D01*
X134128571Y-60178628D02*
X134128571Y-60654819D01*
X133795238Y-59654819D02*
X134128571Y-60178628D01*
X134128571Y-60178628D02*
X134461904Y-59654819D01*
X134747619Y-60607200D02*
X134890476Y-60654819D01*
X134890476Y-60654819D02*
X135128571Y-60654819D01*
X135128571Y-60654819D02*
X135223809Y-60607200D01*
X135223809Y-60607200D02*
X135271428Y-60559580D01*
X135271428Y-60559580D02*
X135319047Y-60464342D01*
X135319047Y-60464342D02*
X135319047Y-60369104D01*
X135319047Y-60369104D02*
X135271428Y-60273866D01*
X135271428Y-60273866D02*
X135223809Y-60226247D01*
X135223809Y-60226247D02*
X135128571Y-60178628D01*
X135128571Y-60178628D02*
X134938095Y-60131009D01*
X134938095Y-60131009D02*
X134842857Y-60083390D01*
X134842857Y-60083390D02*
X134795238Y-60035771D01*
X134795238Y-60035771D02*
X134747619Y-59940533D01*
X134747619Y-59940533D02*
X134747619Y-59845295D01*
X134747619Y-59845295D02*
X134795238Y-59750057D01*
X134795238Y-59750057D02*
X134842857Y-59702438D01*
X134842857Y-59702438D02*
X134938095Y-59654819D01*
X134938095Y-59654819D02*
X135176190Y-59654819D01*
X135176190Y-59654819D02*
X135319047Y-59702438D01*
X124157142Y-59659580D02*
X124109523Y-59707200D01*
X124109523Y-59707200D02*
X123966666Y-59754819D01*
X123966666Y-59754819D02*
X123871428Y-59754819D01*
X123871428Y-59754819D02*
X123728571Y-59707200D01*
X123728571Y-59707200D02*
X123633333Y-59611961D01*
X123633333Y-59611961D02*
X123585714Y-59516723D01*
X123585714Y-59516723D02*
X123538095Y-59326247D01*
X123538095Y-59326247D02*
X123538095Y-59183390D01*
X123538095Y-59183390D02*
X123585714Y-58992914D01*
X123585714Y-58992914D02*
X123633333Y-58897676D01*
X123633333Y-58897676D02*
X123728571Y-58802438D01*
X123728571Y-58802438D02*
X123871428Y-58754819D01*
X123871428Y-58754819D02*
X123966666Y-58754819D01*
X123966666Y-58754819D02*
X124109523Y-58802438D01*
X124109523Y-58802438D02*
X124157142Y-58850057D01*
X124538095Y-58850057D02*
X124585714Y-58802438D01*
X124585714Y-58802438D02*
X124680952Y-58754819D01*
X124680952Y-58754819D02*
X124919047Y-58754819D01*
X124919047Y-58754819D02*
X125014285Y-58802438D01*
X125014285Y-58802438D02*
X125061904Y-58850057D01*
X125061904Y-58850057D02*
X125109523Y-58945295D01*
X125109523Y-58945295D02*
X125109523Y-59040533D01*
X125109523Y-59040533D02*
X125061904Y-59183390D01*
X125061904Y-59183390D02*
X124490476Y-59754819D01*
X124490476Y-59754819D02*
X125109523Y-59754819D01*
X125442857Y-58754819D02*
X126109523Y-58754819D01*
X126109523Y-58754819D02*
X125680952Y-59754819D01*
X129504761Y-63350057D02*
X129409523Y-63302438D01*
X129409523Y-63302438D02*
X129314285Y-63207200D01*
X129314285Y-63207200D02*
X129171428Y-63064342D01*
X129171428Y-63064342D02*
X129076190Y-63016723D01*
X129076190Y-63016723D02*
X128980952Y-63016723D01*
X129028571Y-63254819D02*
X128933333Y-63207200D01*
X128933333Y-63207200D02*
X128838095Y-63111961D01*
X128838095Y-63111961D02*
X128790476Y-62921485D01*
X128790476Y-62921485D02*
X128790476Y-62588152D01*
X128790476Y-62588152D02*
X128838095Y-62397676D01*
X128838095Y-62397676D02*
X128933333Y-62302438D01*
X128933333Y-62302438D02*
X129028571Y-62254819D01*
X129028571Y-62254819D02*
X129219047Y-62254819D01*
X129219047Y-62254819D02*
X129314285Y-62302438D01*
X129314285Y-62302438D02*
X129409523Y-62397676D01*
X129409523Y-62397676D02*
X129457142Y-62588152D01*
X129457142Y-62588152D02*
X129457142Y-62921485D01*
X129457142Y-62921485D02*
X129409523Y-63111961D01*
X129409523Y-63111961D02*
X129314285Y-63207200D01*
X129314285Y-63207200D02*
X129219047Y-63254819D01*
X129219047Y-63254819D02*
X129028571Y-63254819D01*
X130361904Y-62254819D02*
X129885714Y-62254819D01*
X129885714Y-62254819D02*
X129838095Y-62731009D01*
X129838095Y-62731009D02*
X129885714Y-62683390D01*
X129885714Y-62683390D02*
X129980952Y-62635771D01*
X129980952Y-62635771D02*
X130219047Y-62635771D01*
X130219047Y-62635771D02*
X130314285Y-62683390D01*
X130314285Y-62683390D02*
X130361904Y-62731009D01*
X130361904Y-62731009D02*
X130409523Y-62826247D01*
X130409523Y-62826247D02*
X130409523Y-63064342D01*
X130409523Y-63064342D02*
X130361904Y-63159580D01*
X130361904Y-63159580D02*
X130314285Y-63207200D01*
X130314285Y-63207200D02*
X130219047Y-63254819D01*
X130219047Y-63254819D02*
X129980952Y-63254819D01*
X129980952Y-63254819D02*
X129885714Y-63207200D01*
X129885714Y-63207200D02*
X129838095Y-63159580D01*
X62138095Y-60454819D02*
X62709523Y-60454819D01*
X62423809Y-61454819D02*
X62423809Y-60454819D01*
X63042857Y-61454819D02*
X63042857Y-60454819D01*
X63042857Y-60454819D02*
X63423809Y-60454819D01*
X63423809Y-60454819D02*
X63519047Y-60502438D01*
X63519047Y-60502438D02*
X63566666Y-60550057D01*
X63566666Y-60550057D02*
X63614285Y-60645295D01*
X63614285Y-60645295D02*
X63614285Y-60788152D01*
X63614285Y-60788152D02*
X63566666Y-60883390D01*
X63566666Y-60883390D02*
X63519047Y-60931009D01*
X63519047Y-60931009D02*
X63423809Y-60978628D01*
X63423809Y-60978628D02*
X63042857Y-60978628D01*
X63947619Y-60454819D02*
X64566666Y-60454819D01*
X64566666Y-60454819D02*
X64233333Y-60835771D01*
X64233333Y-60835771D02*
X64376190Y-60835771D01*
X64376190Y-60835771D02*
X64471428Y-60883390D01*
X64471428Y-60883390D02*
X64519047Y-60931009D01*
X64519047Y-60931009D02*
X64566666Y-61026247D01*
X64566666Y-61026247D02*
X64566666Y-61264342D01*
X64566666Y-61264342D02*
X64519047Y-61359580D01*
X64519047Y-61359580D02*
X64471428Y-61407200D01*
X64471428Y-61407200D02*
X64376190Y-61454819D01*
X64376190Y-61454819D02*
X64090476Y-61454819D01*
X64090476Y-61454819D02*
X63995238Y-61407200D01*
X63995238Y-61407200D02*
X63947619Y-61359580D01*
X62780952Y-62754819D02*
X62209524Y-62754819D01*
X62495238Y-62754819D02*
X62495238Y-61754819D01*
X62495238Y-61754819D02*
X62400000Y-61897676D01*
X62400000Y-61897676D02*
X62304762Y-61992914D01*
X62304762Y-61992914D02*
X62209524Y-62040533D01*
X63066667Y-61754819D02*
X63400000Y-62754819D01*
X63400000Y-62754819D02*
X63733333Y-61754819D01*
X64209524Y-62183390D02*
X64114286Y-62135771D01*
X64114286Y-62135771D02*
X64066667Y-62088152D01*
X64066667Y-62088152D02*
X64019048Y-61992914D01*
X64019048Y-61992914D02*
X64019048Y-61945295D01*
X64019048Y-61945295D02*
X64066667Y-61850057D01*
X64066667Y-61850057D02*
X64114286Y-61802438D01*
X64114286Y-61802438D02*
X64209524Y-61754819D01*
X64209524Y-61754819D02*
X64400000Y-61754819D01*
X64400000Y-61754819D02*
X64495238Y-61802438D01*
X64495238Y-61802438D02*
X64542857Y-61850057D01*
X64542857Y-61850057D02*
X64590476Y-61945295D01*
X64590476Y-61945295D02*
X64590476Y-61992914D01*
X64590476Y-61992914D02*
X64542857Y-62088152D01*
X64542857Y-62088152D02*
X64495238Y-62135771D01*
X64495238Y-62135771D02*
X64400000Y-62183390D01*
X64400000Y-62183390D02*
X64209524Y-62183390D01*
X64209524Y-62183390D02*
X64114286Y-62231009D01*
X64114286Y-62231009D02*
X64066667Y-62278628D01*
X64066667Y-62278628D02*
X64019048Y-62373866D01*
X64019048Y-62373866D02*
X64019048Y-62564342D01*
X64019048Y-62564342D02*
X64066667Y-62659580D01*
X64066667Y-62659580D02*
X64114286Y-62707200D01*
X64114286Y-62707200D02*
X64209524Y-62754819D01*
X64209524Y-62754819D02*
X64400000Y-62754819D01*
X64400000Y-62754819D02*
X64495238Y-62707200D01*
X64495238Y-62707200D02*
X64542857Y-62659580D01*
X64542857Y-62659580D02*
X64590476Y-62564342D01*
X64590476Y-62564342D02*
X64590476Y-62373866D01*
X64590476Y-62373866D02*
X64542857Y-62278628D01*
X64542857Y-62278628D02*
X64495238Y-62231009D01*
X64495238Y-62231009D02*
X64400000Y-62183390D01*
X80006845Y-68200569D02*
X80578273Y-68200569D01*
X80292559Y-69200569D02*
X80292559Y-68200569D01*
X80911607Y-69200569D02*
X80911607Y-68200569D01*
X80911607Y-68200569D02*
X81292559Y-68200569D01*
X81292559Y-68200569D02*
X81387797Y-68248188D01*
X81387797Y-68248188D02*
X81435416Y-68295807D01*
X81435416Y-68295807D02*
X81483035Y-68391045D01*
X81483035Y-68391045D02*
X81483035Y-68533902D01*
X81483035Y-68533902D02*
X81435416Y-68629140D01*
X81435416Y-68629140D02*
X81387797Y-68676759D01*
X81387797Y-68676759D02*
X81292559Y-68724378D01*
X81292559Y-68724378D02*
X80911607Y-68724378D01*
X82340178Y-68533902D02*
X82340178Y-69200569D01*
X82102083Y-68152950D02*
X81863988Y-68867235D01*
X81863988Y-68867235D02*
X82483035Y-68867235D01*
X79983036Y-71817616D02*
X80744941Y-71817616D01*
X80363988Y-72198569D02*
X80363988Y-71436664D01*
X81697321Y-71198569D02*
X81221131Y-71198569D01*
X81221131Y-71198569D02*
X81173512Y-71674759D01*
X81173512Y-71674759D02*
X81221131Y-71627140D01*
X81221131Y-71627140D02*
X81316369Y-71579521D01*
X81316369Y-71579521D02*
X81554464Y-71579521D01*
X81554464Y-71579521D02*
X81649702Y-71627140D01*
X81649702Y-71627140D02*
X81697321Y-71674759D01*
X81697321Y-71674759D02*
X81744940Y-71769997D01*
X81744940Y-71769997D02*
X81744940Y-72008092D01*
X81744940Y-72008092D02*
X81697321Y-72103330D01*
X81697321Y-72103330D02*
X81649702Y-72150950D01*
X81649702Y-72150950D02*
X81554464Y-72198569D01*
X81554464Y-72198569D02*
X81316369Y-72198569D01*
X81316369Y-72198569D02*
X81221131Y-72150950D01*
X81221131Y-72150950D02*
X81173512Y-72103330D01*
X82030655Y-71198569D02*
X82363988Y-72198569D01*
X82363988Y-72198569D02*
X82697321Y-71198569D01*
X108905176Y-54819449D02*
X108809938Y-54771830D01*
X108809938Y-54771830D02*
X108714700Y-54676592D01*
X108714700Y-54676592D02*
X108571843Y-54533734D01*
X108571843Y-54533734D02*
X108476605Y-54486115D01*
X108476605Y-54486115D02*
X108381367Y-54486115D01*
X108428986Y-54724211D02*
X108333748Y-54676592D01*
X108333748Y-54676592D02*
X108238510Y-54581353D01*
X108238510Y-54581353D02*
X108190891Y-54390877D01*
X108190891Y-54390877D02*
X108190891Y-54057544D01*
X108190891Y-54057544D02*
X108238510Y-53867068D01*
X108238510Y-53867068D02*
X108333748Y-53771830D01*
X108333748Y-53771830D02*
X108428986Y-53724211D01*
X108428986Y-53724211D02*
X108619462Y-53724211D01*
X108619462Y-53724211D02*
X108714700Y-53771830D01*
X108714700Y-53771830D02*
X108809938Y-53867068D01*
X108809938Y-53867068D02*
X108857557Y-54057544D01*
X108857557Y-54057544D02*
X108857557Y-54390877D01*
X108857557Y-54390877D02*
X108809938Y-54581353D01*
X108809938Y-54581353D02*
X108714700Y-54676592D01*
X108714700Y-54676592D02*
X108619462Y-54724211D01*
X108619462Y-54724211D02*
X108428986Y-54724211D01*
X109190891Y-53724211D02*
X109809938Y-53724211D01*
X109809938Y-53724211D02*
X109476605Y-54105163D01*
X109476605Y-54105163D02*
X109619462Y-54105163D01*
X109619462Y-54105163D02*
X109714700Y-54152782D01*
X109714700Y-54152782D02*
X109762319Y-54200401D01*
X109762319Y-54200401D02*
X109809938Y-54295639D01*
X109809938Y-54295639D02*
X109809938Y-54533734D01*
X109809938Y-54533734D02*
X109762319Y-54628972D01*
X109762319Y-54628972D02*
X109714700Y-54676592D01*
X109714700Y-54676592D02*
X109619462Y-54724211D01*
X109619462Y-54724211D02*
X109333748Y-54724211D01*
X109333748Y-54724211D02*
X109238510Y-54676592D01*
X109238510Y-54676592D02*
X109190891Y-54628972D01*
X128966666Y-45254819D02*
X128966666Y-45969104D01*
X128966666Y-45969104D02*
X128919047Y-46111961D01*
X128919047Y-46111961D02*
X128823809Y-46207200D01*
X128823809Y-46207200D02*
X128680952Y-46254819D01*
X128680952Y-46254819D02*
X128585714Y-46254819D01*
X129347619Y-45254819D02*
X129966666Y-45254819D01*
X129966666Y-45254819D02*
X129633333Y-45635771D01*
X129633333Y-45635771D02*
X129776190Y-45635771D01*
X129776190Y-45635771D02*
X129871428Y-45683390D01*
X129871428Y-45683390D02*
X129919047Y-45731009D01*
X129919047Y-45731009D02*
X129966666Y-45826247D01*
X129966666Y-45826247D02*
X129966666Y-46064342D01*
X129966666Y-46064342D02*
X129919047Y-46159580D01*
X129919047Y-46159580D02*
X129871428Y-46207200D01*
X129871428Y-46207200D02*
X129776190Y-46254819D01*
X129776190Y-46254819D02*
X129490476Y-46254819D01*
X129490476Y-46254819D02*
X129395238Y-46207200D01*
X129395238Y-46207200D02*
X129347619Y-46159580D01*
X129419048Y-42873866D02*
X130180953Y-42873866D01*
X129800000Y-43254819D02*
X129800000Y-42492914D01*
X100761905Y-72254819D02*
X100761905Y-71254819D01*
X100761905Y-71254819D02*
X101000000Y-71254819D01*
X101000000Y-71254819D02*
X101142857Y-71302438D01*
X101142857Y-71302438D02*
X101238095Y-71397676D01*
X101238095Y-71397676D02*
X101285714Y-71492914D01*
X101285714Y-71492914D02*
X101333333Y-71683390D01*
X101333333Y-71683390D02*
X101333333Y-71826247D01*
X101333333Y-71826247D02*
X101285714Y-72016723D01*
X101285714Y-72016723D02*
X101238095Y-72111961D01*
X101238095Y-72111961D02*
X101142857Y-72207200D01*
X101142857Y-72207200D02*
X101000000Y-72254819D01*
X101000000Y-72254819D02*
X100761905Y-72254819D01*
X102238095Y-71254819D02*
X101761905Y-71254819D01*
X101761905Y-71254819D02*
X101714286Y-71731009D01*
X101714286Y-71731009D02*
X101761905Y-71683390D01*
X101761905Y-71683390D02*
X101857143Y-71635771D01*
X101857143Y-71635771D02*
X102095238Y-71635771D01*
X102095238Y-71635771D02*
X102190476Y-71683390D01*
X102190476Y-71683390D02*
X102238095Y-71731009D01*
X102238095Y-71731009D02*
X102285714Y-71826247D01*
X102285714Y-71826247D02*
X102285714Y-72064342D01*
X102285714Y-72064342D02*
X102238095Y-72159580D01*
X102238095Y-72159580D02*
X102190476Y-72207200D01*
X102190476Y-72207200D02*
X102095238Y-72254819D01*
X102095238Y-72254819D02*
X101857143Y-72254819D01*
X101857143Y-72254819D02*
X101761905Y-72207200D01*
X101761905Y-72207200D02*
X101714286Y-72159580D01*
X119157142Y-78754819D02*
X118823809Y-78278628D01*
X118585714Y-78754819D02*
X118585714Y-77754819D01*
X118585714Y-77754819D02*
X118966666Y-77754819D01*
X118966666Y-77754819D02*
X119061904Y-77802438D01*
X119061904Y-77802438D02*
X119109523Y-77850057D01*
X119109523Y-77850057D02*
X119157142Y-77945295D01*
X119157142Y-77945295D02*
X119157142Y-78088152D01*
X119157142Y-78088152D02*
X119109523Y-78183390D01*
X119109523Y-78183390D02*
X119061904Y-78231009D01*
X119061904Y-78231009D02*
X118966666Y-78278628D01*
X118966666Y-78278628D02*
X118585714Y-78278628D01*
X119490476Y-77754819D02*
X120109523Y-77754819D01*
X120109523Y-77754819D02*
X119776190Y-78135771D01*
X119776190Y-78135771D02*
X119919047Y-78135771D01*
X119919047Y-78135771D02*
X120014285Y-78183390D01*
X120014285Y-78183390D02*
X120061904Y-78231009D01*
X120061904Y-78231009D02*
X120109523Y-78326247D01*
X120109523Y-78326247D02*
X120109523Y-78564342D01*
X120109523Y-78564342D02*
X120061904Y-78659580D01*
X120061904Y-78659580D02*
X120014285Y-78707200D01*
X120014285Y-78707200D02*
X119919047Y-78754819D01*
X119919047Y-78754819D02*
X119633333Y-78754819D01*
X119633333Y-78754819D02*
X119538095Y-78707200D01*
X119538095Y-78707200D02*
X119490476Y-78659580D01*
X120728571Y-77754819D02*
X120823809Y-77754819D01*
X120823809Y-77754819D02*
X120919047Y-77802438D01*
X120919047Y-77802438D02*
X120966666Y-77850057D01*
X120966666Y-77850057D02*
X121014285Y-77945295D01*
X121014285Y-77945295D02*
X121061904Y-78135771D01*
X121061904Y-78135771D02*
X121061904Y-78373866D01*
X121061904Y-78373866D02*
X121014285Y-78564342D01*
X121014285Y-78564342D02*
X120966666Y-78659580D01*
X120966666Y-78659580D02*
X120919047Y-78707200D01*
X120919047Y-78707200D02*
X120823809Y-78754819D01*
X120823809Y-78754819D02*
X120728571Y-78754819D01*
X120728571Y-78754819D02*
X120633333Y-78707200D01*
X120633333Y-78707200D02*
X120585714Y-78659580D01*
X120585714Y-78659580D02*
X120538095Y-78564342D01*
X120538095Y-78564342D02*
X120490476Y-78373866D01*
X120490476Y-78373866D02*
X120490476Y-78135771D01*
X120490476Y-78135771D02*
X120538095Y-77945295D01*
X120538095Y-77945295D02*
X120585714Y-77850057D01*
X120585714Y-77850057D02*
X120633333Y-77802438D01*
X120633333Y-77802438D02*
X120728571Y-77754819D01*
X114457142Y-81054819D02*
X114123809Y-80578628D01*
X113885714Y-81054819D02*
X113885714Y-80054819D01*
X113885714Y-80054819D02*
X114266666Y-80054819D01*
X114266666Y-80054819D02*
X114361904Y-80102438D01*
X114361904Y-80102438D02*
X114409523Y-80150057D01*
X114409523Y-80150057D02*
X114457142Y-80245295D01*
X114457142Y-80245295D02*
X114457142Y-80388152D01*
X114457142Y-80388152D02*
X114409523Y-80483390D01*
X114409523Y-80483390D02*
X114361904Y-80531009D01*
X114361904Y-80531009D02*
X114266666Y-80578628D01*
X114266666Y-80578628D02*
X113885714Y-80578628D01*
X114838095Y-80150057D02*
X114885714Y-80102438D01*
X114885714Y-80102438D02*
X114980952Y-80054819D01*
X114980952Y-80054819D02*
X115219047Y-80054819D01*
X115219047Y-80054819D02*
X115314285Y-80102438D01*
X115314285Y-80102438D02*
X115361904Y-80150057D01*
X115361904Y-80150057D02*
X115409523Y-80245295D01*
X115409523Y-80245295D02*
X115409523Y-80340533D01*
X115409523Y-80340533D02*
X115361904Y-80483390D01*
X115361904Y-80483390D02*
X114790476Y-81054819D01*
X114790476Y-81054819D02*
X115409523Y-81054819D01*
X115742857Y-80054819D02*
X116409523Y-80054819D01*
X116409523Y-80054819D02*
X115980952Y-81054819D01*
X123257142Y-69459580D02*
X123209523Y-69507200D01*
X123209523Y-69507200D02*
X123066666Y-69554819D01*
X123066666Y-69554819D02*
X122971428Y-69554819D01*
X122971428Y-69554819D02*
X122828571Y-69507200D01*
X122828571Y-69507200D02*
X122733333Y-69411961D01*
X122733333Y-69411961D02*
X122685714Y-69316723D01*
X122685714Y-69316723D02*
X122638095Y-69126247D01*
X122638095Y-69126247D02*
X122638095Y-68983390D01*
X122638095Y-68983390D02*
X122685714Y-68792914D01*
X122685714Y-68792914D02*
X122733333Y-68697676D01*
X122733333Y-68697676D02*
X122828571Y-68602438D01*
X122828571Y-68602438D02*
X122971428Y-68554819D01*
X122971428Y-68554819D02*
X123066666Y-68554819D01*
X123066666Y-68554819D02*
X123209523Y-68602438D01*
X123209523Y-68602438D02*
X123257142Y-68650057D01*
X123638095Y-68650057D02*
X123685714Y-68602438D01*
X123685714Y-68602438D02*
X123780952Y-68554819D01*
X123780952Y-68554819D02*
X124019047Y-68554819D01*
X124019047Y-68554819D02*
X124114285Y-68602438D01*
X124114285Y-68602438D02*
X124161904Y-68650057D01*
X124161904Y-68650057D02*
X124209523Y-68745295D01*
X124209523Y-68745295D02*
X124209523Y-68840533D01*
X124209523Y-68840533D02*
X124161904Y-68983390D01*
X124161904Y-68983390D02*
X123590476Y-69554819D01*
X123590476Y-69554819D02*
X124209523Y-69554819D01*
X125066666Y-68554819D02*
X124876190Y-68554819D01*
X124876190Y-68554819D02*
X124780952Y-68602438D01*
X124780952Y-68602438D02*
X124733333Y-68650057D01*
X124733333Y-68650057D02*
X124638095Y-68792914D01*
X124638095Y-68792914D02*
X124590476Y-68983390D01*
X124590476Y-68983390D02*
X124590476Y-69364342D01*
X124590476Y-69364342D02*
X124638095Y-69459580D01*
X124638095Y-69459580D02*
X124685714Y-69507200D01*
X124685714Y-69507200D02*
X124780952Y-69554819D01*
X124780952Y-69554819D02*
X124971428Y-69554819D01*
X124971428Y-69554819D02*
X125066666Y-69507200D01*
X125066666Y-69507200D02*
X125114285Y-69459580D01*
X125114285Y-69459580D02*
X125161904Y-69364342D01*
X125161904Y-69364342D02*
X125161904Y-69126247D01*
X125161904Y-69126247D02*
X125114285Y-69031009D01*
X125114285Y-69031009D02*
X125066666Y-68983390D01*
X125066666Y-68983390D02*
X124971428Y-68935771D01*
X124971428Y-68935771D02*
X124780952Y-68935771D01*
X124780952Y-68935771D02*
X124685714Y-68983390D01*
X124685714Y-68983390D02*
X124638095Y-69031009D01*
X124638095Y-69031009D02*
X124590476Y-69126247D01*
D11*
%TO.C,R3*%
X82065000Y-41672936D02*
X82065000Y-42127064D01*
X83535000Y-41672936D02*
X83535000Y-42127064D01*
%TO.C,R21*%
X107065000Y-69460436D02*
X107065000Y-69914564D01*
X108535000Y-69460436D02*
X108535000Y-69914564D01*
%TO.C,F1*%
X83200000Y-76200000D02*
X83200000Y-77200000D01*
X83200000Y-77200000D02*
X83200000Y-82200000D01*
X83200000Y-82200000D02*
X95200000Y-82200000D01*
X95200000Y-76200000D02*
X83200000Y-76200000D01*
X95200000Y-82200000D02*
X95200000Y-76200000D01*
%TO.C,C19*%
X61754420Y-51152500D02*
X62035580Y-51152500D01*
X61754420Y-52172500D02*
X62035580Y-52172500D01*
%TO.C,X1*%
X95485000Y-56575000D02*
X89235000Y-56575000D01*
X95485000Y-61625000D02*
X89235000Y-61625000D01*
X89235000Y-61625000D02*
G75*
G02*
X89235000Y-56575000I0J2525000D01*
G01*
X95485000Y-56575000D02*
G75*
G02*
X95485000Y-61625000I0J-2525000D01*
G01*
%TO.C,C34*%
X133088748Y-49940000D02*
X134511252Y-49940000D01*
X133088748Y-52660000D02*
X134511252Y-52660000D01*
%TO.C,U3*%
X83908750Y-70593750D02*
X83908750Y-69943750D01*
X83908750Y-70593750D02*
X83908750Y-71243750D01*
X87028750Y-70593750D02*
X87028750Y-69943750D01*
X87028750Y-70593750D02*
X87028750Y-71243750D01*
X87308750Y-69671250D02*
X86978750Y-69431250D01*
X87308750Y-69191250D01*
X87308750Y-69671250D01*
G36*
X87308750Y-69671250D02*
G01*
X86978750Y-69431250D01*
X87308750Y-69191250D01*
X87308750Y-69671250D01*
G37*
%TO.C,C35*%
X133088748Y-53440000D02*
X134511252Y-53440000D01*
X133088748Y-56160000D02*
X134511252Y-56160000D01*
%TO.C,C32*%
X128259420Y-66110000D02*
X128540580Y-66110000D01*
X128259420Y-65090000D02*
X128540580Y-65090000D01*
%TO.C,R2*%
X72265000Y-66127064D02*
X72265000Y-65672936D01*
X73735000Y-66127064D02*
X73735000Y-65672936D01*
%TO.C,C24*%
X124940580Y-55730000D02*
X124659420Y-55730000D01*
X124940580Y-56750000D02*
X124659420Y-56750000D01*
%TO.C,R6*%
X81545000Y-49272936D02*
X81545000Y-49727064D01*
X83015000Y-49272936D02*
X83015000Y-49727064D01*
%TO.C,TP11*%
X119300000Y-57400000D02*
G75*
G02*
X117900000Y-57400000I-700000J0D01*
G01*
X117900000Y-57400000D02*
G75*
G02*
X119300000Y-57400000I700000J0D01*
G01*
%TO.C,TP9*%
X113700000Y-60800000D02*
G75*
G02*
X112300000Y-60800000I-700000J0D01*
G01*
X112300000Y-60800000D02*
G75*
G02*
X113700000Y-60800000I700000J0D01*
G01*
%TO.C,TP1*%
X111700000Y-49400000D02*
G75*
G02*
X110300000Y-49400000I-700000J0D01*
G01*
X110300000Y-49400000D02*
G75*
G02*
X111700000Y-49400000I700000J0D01*
G01*
%TO.C,R10*%
X62777500Y-42622936D02*
X62777500Y-43077064D01*
X64247500Y-42622936D02*
X64247500Y-43077064D01*
%TO.C,C1*%
X90340580Y-54390000D02*
X90059420Y-54390000D01*
X90340580Y-55410000D02*
X90059420Y-55410000D01*
%TO.C,Q1*%
X69762500Y-68040000D02*
X69112500Y-68040000D01*
X69762500Y-68040000D02*
X70412500Y-68040000D01*
X69762500Y-71160000D02*
X69112500Y-71160000D01*
X69762500Y-71160000D02*
X70412500Y-71160000D01*
X71165000Y-71440000D02*
X70685000Y-71440000D01*
X70925000Y-71110000D01*
X71165000Y-71440000D01*
G36*
X71165000Y-71440000D02*
G01*
X70685000Y-71440000D01*
X70925000Y-71110000D01*
X71165000Y-71440000D01*
G37*
%TO.C,R25*%
X63965000Y-48627064D02*
X63965000Y-48172936D01*
X65435000Y-48627064D02*
X65435000Y-48172936D01*
%TO.C,TP7*%
X62700000Y-49300000D02*
G75*
G02*
X61300000Y-49300000I-700000J0D01*
G01*
X61300000Y-49300000D02*
G75*
G02*
X62700000Y-49300000I700000J0D01*
G01*
%TO.C,C20*%
X84757498Y-65433750D02*
X86180002Y-65433750D01*
X84757498Y-68153750D02*
X86180002Y-68153750D01*
%TO.C,C37*%
X61979420Y-46990000D02*
X62260580Y-46990000D01*
X61979420Y-48010000D02*
X62260580Y-48010000D01*
%TO.C,R8*%
X107465000Y-56272936D02*
X107465000Y-56727064D01*
X108935000Y-56272936D02*
X108935000Y-56727064D01*
%TO.C,L3*%
X129800000Y-67100000D02*
X129800000Y-74500000D01*
X129800000Y-67100000D02*
X131300000Y-67100000D01*
X129800000Y-74500000D02*
X131300000Y-74500000D01*
X136600000Y-67100000D02*
X135100000Y-67100000D01*
X136600000Y-74500000D02*
X135100000Y-74500000D01*
X136600000Y-74500000D02*
X136600000Y-67100000D01*
%TO.C,C33*%
X44890000Y-48340580D02*
X44890000Y-48059420D01*
X45910000Y-48340580D02*
X45910000Y-48059420D01*
%TO.C,C40*%
X65679420Y-50390000D02*
X65960580Y-50390000D01*
X65679420Y-51410000D02*
X65960580Y-51410000D01*
%TO.C,F2*%
X116000000Y-40200000D02*
X116000000Y-46200000D01*
X116000000Y-46200000D02*
X128000000Y-46200000D01*
X128000000Y-40200000D02*
X116000000Y-40200000D01*
X128000000Y-45200000D02*
X128000000Y-40200000D01*
X128000000Y-46200000D02*
X128000000Y-45200000D01*
%TO.C,D1*%
X62620000Y-64030000D02*
X62155000Y-64030000D01*
X65245000Y-64030000D02*
X64780000Y-64030000D01*
X62619173Y-69377815D02*
G75*
G02*
X62155170Y-64030000I1080827J2787815D01*
G01*
X62619571Y-68844479D02*
G75*
G02*
X62620000Y-64335316I1080429J2254479D01*
G01*
X64780000Y-64335316D02*
G75*
G02*
X64780429Y-68844479I-1080000J-2254684D01*
G01*
X65244830Y-64030000D02*
G75*
G02*
X64780827Y-69377815I-1544830J-2560000D01*
G01*
%TO.C,C23*%
X71690000Y-41659420D02*
X71690000Y-41940580D01*
X72710000Y-41659420D02*
X72710000Y-41940580D01*
%TO.C,C39*%
X115640580Y-75990000D02*
X115359420Y-75990000D01*
X115640580Y-77010000D02*
X115359420Y-77010000D01*
%TO.C,R26*%
X66065000Y-48172936D02*
X66065000Y-48627064D01*
X67535000Y-48172936D02*
X67535000Y-48627064D01*
%TO.C,J2*%
X98205000Y-54105000D02*
X98205000Y-41285000D01*
X100805000Y-51505000D02*
X100805000Y-54105000D01*
X100805000Y-54105000D02*
X98205000Y-54105000D01*
X103405000Y-41285000D02*
X98205000Y-41285000D01*
X103405000Y-51505000D02*
X100805000Y-51505000D01*
X103405000Y-51505000D02*
X103405000Y-41285000D01*
X103405000Y-52775000D02*
X103405000Y-54105000D01*
X103405000Y-54105000D02*
X102075000Y-54105000D01*
%TO.C,C2*%
X90640580Y-40690000D02*
X90359420Y-40690000D01*
X90640580Y-41710000D02*
X90359420Y-41710000D01*
%TO.C,C15*%
X62079420Y-57352500D02*
X62360580Y-57352500D01*
X62079420Y-58372500D02*
X62360580Y-58372500D01*
%TO.C,R16*%
X127372936Y-52090000D02*
X128827064Y-52090000D01*
X127372936Y-53910000D02*
X128827064Y-53910000D01*
D12*
%TO.C,U7*%
X41650000Y-43150000D02*
X41650000Y-43000000D01*
X41650000Y-43160000D02*
X41800000Y-43160000D01*
X44200000Y-40450000D02*
X44350000Y-40450000D01*
X44350000Y-40450000D02*
X44350000Y-40600000D01*
X44350000Y-43150000D02*
X44200000Y-43150000D01*
X44350000Y-43150000D02*
X44350000Y-43000000D01*
D11*
X41650000Y-40450000D02*
X41290000Y-40450000D01*
X41650000Y-40090000D01*
X41650000Y-40450000D01*
G36*
X41650000Y-40450000D02*
G01*
X41290000Y-40450000D01*
X41650000Y-40090000D01*
X41650000Y-40450000D01*
G37*
%TO.C,C7*%
X106160000Y-79507621D02*
X103978000Y-79507621D01*
X106160000Y-79547621D02*
X103982000Y-79547621D01*
X106160000Y-79587621D02*
X103985000Y-79587621D01*
X106160000Y-79627621D02*
X103989000Y-79627621D01*
X106160000Y-79667621D02*
X103994000Y-79667621D01*
X106160000Y-79707621D02*
X103999000Y-79707621D01*
X106160000Y-79747621D02*
X104005000Y-79747621D01*
X106160000Y-79787621D02*
X104011000Y-79787621D01*
X106160000Y-79827621D02*
X104018000Y-79827621D01*
X106160000Y-79867621D02*
X104025000Y-79867621D01*
X106160000Y-79907621D02*
X104033000Y-79907621D01*
X106160000Y-79947621D02*
X104041000Y-79947621D01*
X106160000Y-79988621D02*
X104050000Y-79988621D01*
X106160000Y-80028621D02*
X104059000Y-80028621D01*
X106160000Y-80068621D02*
X104069000Y-80068621D01*
X106160000Y-80108621D02*
X104079000Y-80108621D01*
X106160000Y-80148621D02*
X104090000Y-80148621D01*
X106160000Y-80188621D02*
X104102000Y-80188621D01*
X106160000Y-80228621D02*
X104114000Y-80228621D01*
X106160000Y-80268621D02*
X104126000Y-80268621D01*
X106160000Y-80308621D02*
X104139000Y-80308621D01*
X106160000Y-80348621D02*
X104153000Y-80348621D01*
X106160000Y-80388621D02*
X104167000Y-80388621D01*
X106160000Y-80428621D02*
X104182000Y-80428621D01*
X106160000Y-80468621D02*
X104198000Y-80468621D01*
X106160000Y-80508621D02*
X104214000Y-80508621D01*
X106160000Y-80548621D02*
X104230000Y-80548621D01*
X106160000Y-80588621D02*
X104248000Y-80588621D01*
X106160000Y-80628621D02*
X104266000Y-80628621D01*
X106160000Y-80668621D02*
X104284000Y-80668621D01*
X106160000Y-80708621D02*
X104304000Y-80708621D01*
X106160000Y-80748621D02*
X104324000Y-80748621D01*
X106160000Y-80788621D02*
X104344000Y-80788621D01*
X106160000Y-80828621D02*
X104366000Y-80828621D01*
X106160000Y-80868621D02*
X104388000Y-80868621D01*
X106160000Y-80908621D02*
X104410000Y-80908621D01*
X106160000Y-80948621D02*
X104434000Y-80948621D01*
X106160000Y-80988621D02*
X104458000Y-80988621D01*
X106160000Y-81028621D02*
X104484000Y-81028621D01*
X106160000Y-81068621D02*
X104510000Y-81068621D01*
X106160000Y-81108621D02*
X104536000Y-81108621D01*
X106160000Y-81148621D02*
X104564000Y-81148621D01*
X106160000Y-81188621D02*
X104593000Y-81188621D01*
X106160000Y-81228621D02*
X104622000Y-81228621D01*
X106160000Y-81268621D02*
X104652000Y-81268621D01*
X106160000Y-81308621D02*
X104684000Y-81308621D01*
X106160000Y-81348621D02*
X104716000Y-81348621D01*
X106160000Y-81388621D02*
X104750000Y-81388621D01*
X106160000Y-81428621D02*
X104784000Y-81428621D01*
X106160000Y-81468621D02*
X104820000Y-81468621D01*
X106160000Y-81508621D02*
X104857000Y-81508621D01*
X106160000Y-81548621D02*
X104895000Y-81548621D01*
X107602000Y-82508621D02*
X106798000Y-82508621D01*
X107833000Y-82468621D02*
X106567000Y-82468621D01*
X108002000Y-82428621D02*
X106398000Y-82428621D01*
X108140000Y-82388621D02*
X106260000Y-82388621D01*
X108259000Y-82348621D02*
X106141000Y-82348621D01*
X108365000Y-82308621D02*
X106035000Y-82308621D01*
X108462000Y-82268621D02*
X105938000Y-82268621D01*
X108550000Y-82228621D02*
X105850000Y-82228621D01*
X108632000Y-82188621D02*
X105768000Y-82188621D01*
X108709000Y-82148621D02*
X105691000Y-82148621D01*
X108781000Y-82108621D02*
X105619000Y-82108621D01*
X108850000Y-82068621D02*
X105550000Y-82068621D01*
X108914000Y-82028621D02*
X105486000Y-82028621D01*
X108976000Y-81988621D02*
X105424000Y-81988621D01*
X109034000Y-81948621D02*
X105366000Y-81948621D01*
X109039000Y-75767380D02*
X109039000Y-76397380D01*
X109090000Y-81908621D02*
X105310000Y-81908621D01*
X109144000Y-81868621D02*
X105256000Y-81868621D01*
X109195000Y-81828621D02*
X105205000Y-81828621D01*
X109244000Y-81788621D02*
X105156000Y-81788621D01*
X109292000Y-81748621D02*
X105108000Y-81748621D01*
X109337000Y-81708621D02*
X105063000Y-81708621D01*
X109354000Y-76082380D02*
X108724000Y-76082380D01*
X109382000Y-81668621D02*
X105018000Y-81668621D01*
X109424000Y-81628621D02*
X104976000Y-81628621D01*
X109465000Y-81588621D02*
X104935000Y-81588621D01*
X109505000Y-81548621D02*
X108240000Y-81548621D01*
X109543000Y-81508621D02*
X108240000Y-81508621D01*
X109580000Y-81468621D02*
X108240000Y-81468621D01*
X109616000Y-81428621D02*
X108240000Y-81428621D01*
X109650000Y-81388621D02*
X108240000Y-81388621D01*
X109684000Y-81348621D02*
X108240000Y-81348621D01*
X109716000Y-81308621D02*
X108240000Y-81308621D01*
X109748000Y-81268621D02*
X108240000Y-81268621D01*
X109778000Y-81228621D02*
X108240000Y-81228621D01*
X109807000Y-81188621D02*
X108240000Y-81188621D01*
X109836000Y-81148621D02*
X108240000Y-81148621D01*
X109864000Y-81108621D02*
X108240000Y-81108621D01*
X109890000Y-81068621D02*
X108240000Y-81068621D01*
X109916000Y-81028621D02*
X108240000Y-81028621D01*
X109942000Y-80988621D02*
X108240000Y-80988621D01*
X109966000Y-80948621D02*
X108240000Y-80948621D01*
X109990000Y-80908621D02*
X108240000Y-80908621D01*
X110012000Y-80868621D02*
X108240000Y-80868621D01*
X110034000Y-80828621D02*
X108240000Y-80828621D01*
X110056000Y-80788621D02*
X108240000Y-80788621D01*
X110076000Y-80748621D02*
X108240000Y-80748621D01*
X110096000Y-80708621D02*
X108240000Y-80708621D01*
X110116000Y-80668621D02*
X108240000Y-80668621D01*
X110134000Y-80628621D02*
X108240000Y-80628621D01*
X110152000Y-80588621D02*
X108240000Y-80588621D01*
X110170000Y-80548621D02*
X108240000Y-80548621D01*
X110186000Y-80508621D02*
X108240000Y-80508621D01*
X110202000Y-80468621D02*
X108240000Y-80468621D01*
X110218000Y-80428621D02*
X108240000Y-80428621D01*
X110233000Y-80388621D02*
X108240000Y-80388621D01*
X110247000Y-80348621D02*
X108240000Y-80348621D01*
X110261000Y-80308621D02*
X108240000Y-80308621D01*
X110274000Y-80268621D02*
X108240000Y-80268621D01*
X110286000Y-80228621D02*
X108240000Y-80228621D01*
X110298000Y-80188621D02*
X108240000Y-80188621D01*
X110310000Y-80148621D02*
X108240000Y-80148621D01*
X110321000Y-80108621D02*
X108240000Y-80108621D01*
X110331000Y-80068621D02*
X108240000Y-80068621D01*
X110341000Y-80028621D02*
X108240000Y-80028621D01*
X110350000Y-79988621D02*
X108240000Y-79988621D01*
X110359000Y-79947621D02*
X108240000Y-79947621D01*
X110367000Y-79907621D02*
X108240000Y-79907621D01*
X110375000Y-79867621D02*
X108240000Y-79867621D01*
X110382000Y-79827621D02*
X108240000Y-79827621D01*
X110389000Y-79787621D02*
X108240000Y-79787621D01*
X110395000Y-79747621D02*
X108240000Y-79747621D01*
X110401000Y-79707621D02*
X108240000Y-79707621D01*
X110406000Y-79667621D02*
X108240000Y-79667621D01*
X110411000Y-79627621D02*
X108240000Y-79627621D01*
X110415000Y-79587621D02*
X108240000Y-79587621D01*
X110418000Y-79547621D02*
X108240000Y-79547621D01*
X110422000Y-79507621D02*
X108240000Y-79507621D01*
X110424000Y-79467621D02*
X103976000Y-79467621D01*
X110427000Y-79427621D02*
X103973000Y-79427621D01*
X110428000Y-79387621D02*
X103972000Y-79387621D01*
X110430000Y-79267621D02*
X103970000Y-79267621D01*
X110430000Y-79307621D02*
X103970000Y-79307621D01*
X110430000Y-79347621D02*
X103970000Y-79347621D01*
X110470000Y-79267621D02*
G75*
G02*
X103930000Y-79267621I-3270000J0D01*
G01*
X103930000Y-79267621D02*
G75*
G02*
X110470000Y-79267621I3270000J0D01*
G01*
%TO.C,D3*%
X102950000Y-65110000D02*
X102950000Y-59600000D01*
X102950000Y-65110000D02*
X106250000Y-65110000D01*
X106250000Y-65110000D02*
X106250000Y-59600000D01*
%TO.C,Q2*%
X69750560Y-64390000D02*
X69100560Y-64390000D01*
X69750560Y-64390000D02*
X70400560Y-64390000D01*
X69750560Y-67510000D02*
X69100560Y-67510000D01*
X69750560Y-67510000D02*
X70400560Y-67510000D01*
X71153060Y-67790000D02*
X70673060Y-67790000D01*
X70913060Y-67460000D01*
X71153060Y-67790000D01*
G36*
X71153060Y-67790000D02*
G01*
X70673060Y-67790000D01*
X70913060Y-67460000D01*
X71153060Y-67790000D01*
G37*
%TO.C,C30*%
X107315580Y-66190000D02*
X107034420Y-66190000D01*
X107315580Y-67210000D02*
X107034420Y-67210000D01*
%TO.C,C25*%
X127959420Y-54690000D02*
X128240580Y-54690000D01*
X127959420Y-55710000D02*
X128240580Y-55710000D01*
%TO.C,R9*%
X107465000Y-59972936D02*
X107465000Y-60427064D01*
X108935000Y-59972936D02*
X108935000Y-60427064D01*
%TO.C,U5*%
X60360000Y-54725000D02*
X60360000Y-54075000D01*
X60360000Y-54725000D02*
X60360000Y-55375000D01*
X63480000Y-54725000D02*
X63480000Y-54075000D01*
X63480000Y-54725000D02*
X63480000Y-55375000D01*
X63760000Y-53802500D02*
X63430000Y-53562500D01*
X63760000Y-53322500D01*
X63760000Y-53802500D01*
G36*
X63760000Y-53802500D02*
G01*
X63430000Y-53562500D01*
X63760000Y-53322500D01*
X63760000Y-53802500D01*
G37*
%TO.C,R11*%
X60577500Y-42635436D02*
X60577500Y-43089564D01*
X62047500Y-42635436D02*
X62047500Y-43089564D01*
%TO.C,MK1*%
X48920000Y-45420000D02*
X46680000Y-45420000D01*
X46680000Y-49180000D01*
X48920000Y-49180000D01*
X48920000Y-45420000D01*
%TO.C,RV3*%
X67970000Y-45290000D02*
X68170000Y-45290000D01*
X67970000Y-46710000D02*
X67970000Y-45290000D01*
X67970000Y-51710000D02*
X67970000Y-50290000D01*
X67970000Y-51710000D02*
X68170000Y-51710000D01*
X68170000Y-45190000D02*
X68860000Y-45190000D01*
X68170000Y-45290000D02*
X68170000Y-45190000D01*
X68170000Y-46710000D02*
X67970000Y-46710000D01*
X68170000Y-50290000D02*
X67970000Y-50290000D01*
X68170000Y-50290000D02*
X68170000Y-46710000D01*
X68170000Y-51710000D02*
X68170000Y-51810000D01*
X68170000Y-51810000D02*
X68420000Y-51810000D01*
X69900000Y-45190000D02*
X73880000Y-45190000D01*
X73880000Y-51810000D02*
X70340000Y-51810000D01*
X75190000Y-46500000D02*
X75190000Y-47990000D01*
X75190000Y-49010000D02*
X75190000Y-50500000D01*
X73880000Y-45190000D02*
G75*
G02*
X75190000Y-46500000I0J-1310000D01*
G01*
X75190000Y-50500000D02*
G75*
G02*
X73880000Y-51810000I-1310000J0D01*
G01*
%TO.C,R24*%
X121265000Y-71914564D02*
X121265000Y-71460436D01*
X122735000Y-71914564D02*
X122735000Y-71460436D01*
%TO.C,C3*%
X97560000Y-79507621D02*
X95378000Y-79507621D01*
X97560000Y-79547621D02*
X95382000Y-79547621D01*
X97560000Y-79587621D02*
X95385000Y-79587621D01*
X97560000Y-79627621D02*
X95389000Y-79627621D01*
X97560000Y-79667621D02*
X95394000Y-79667621D01*
X97560000Y-79707621D02*
X95399000Y-79707621D01*
X97560000Y-79747621D02*
X95405000Y-79747621D01*
X97560000Y-79787621D02*
X95411000Y-79787621D01*
X97560000Y-79827621D02*
X95418000Y-79827621D01*
X97560000Y-79867621D02*
X95425000Y-79867621D01*
X97560000Y-79907621D02*
X95433000Y-79907621D01*
X97560000Y-79947621D02*
X95441000Y-79947621D01*
X97560000Y-79988621D02*
X95450000Y-79988621D01*
X97560000Y-80028621D02*
X95459000Y-80028621D01*
X97560000Y-80068621D02*
X95469000Y-80068621D01*
X97560000Y-80108621D02*
X95479000Y-80108621D01*
X97560000Y-80148621D02*
X95490000Y-80148621D01*
X97560000Y-80188621D02*
X95502000Y-80188621D01*
X97560000Y-80228621D02*
X95514000Y-80228621D01*
X97560000Y-80268621D02*
X95526000Y-80268621D01*
X97560000Y-80308621D02*
X95539000Y-80308621D01*
X97560000Y-80348621D02*
X95553000Y-80348621D01*
X97560000Y-80388621D02*
X95567000Y-80388621D01*
X97560000Y-80428621D02*
X95582000Y-80428621D01*
X97560000Y-80468621D02*
X95598000Y-80468621D01*
X97560000Y-80508621D02*
X95614000Y-80508621D01*
X97560000Y-80548621D02*
X95630000Y-80548621D01*
X97560000Y-80588621D02*
X95648000Y-80588621D01*
X97560000Y-80628621D02*
X95666000Y-80628621D01*
X97560000Y-80668621D02*
X95684000Y-80668621D01*
X97560000Y-80708621D02*
X95704000Y-80708621D01*
X97560000Y-80748621D02*
X95724000Y-80748621D01*
X97560000Y-80788621D02*
X95744000Y-80788621D01*
X97560000Y-80828621D02*
X95766000Y-80828621D01*
X97560000Y-80868621D02*
X95788000Y-80868621D01*
X97560000Y-80908621D02*
X95810000Y-80908621D01*
X97560000Y-80948621D02*
X95834000Y-80948621D01*
X97560000Y-80988621D02*
X95858000Y-80988621D01*
X97560000Y-81028621D02*
X95884000Y-81028621D01*
X97560000Y-81068621D02*
X95910000Y-81068621D01*
X97560000Y-81108621D02*
X95936000Y-81108621D01*
X97560000Y-81148621D02*
X95964000Y-81148621D01*
X97560000Y-81188621D02*
X95993000Y-81188621D01*
X97560000Y-81228621D02*
X96022000Y-81228621D01*
X97560000Y-81268621D02*
X96052000Y-81268621D01*
X97560000Y-81308621D02*
X96084000Y-81308621D01*
X97560000Y-81348621D02*
X96116000Y-81348621D01*
X97560000Y-81388621D02*
X96150000Y-81388621D01*
X97560000Y-81428621D02*
X96184000Y-81428621D01*
X97560000Y-81468621D02*
X96220000Y-81468621D01*
X97560000Y-81508621D02*
X96257000Y-81508621D01*
X97560000Y-81548621D02*
X96295000Y-81548621D01*
X99002000Y-82508621D02*
X98198000Y-82508621D01*
X99233000Y-82468621D02*
X97967000Y-82468621D01*
X99402000Y-82428621D02*
X97798000Y-82428621D01*
X99540000Y-82388621D02*
X97660000Y-82388621D01*
X99659000Y-82348621D02*
X97541000Y-82348621D01*
X99765000Y-82308621D02*
X97435000Y-82308621D01*
X99862000Y-82268621D02*
X97338000Y-82268621D01*
X99950000Y-82228621D02*
X97250000Y-82228621D01*
X100032000Y-82188621D02*
X97168000Y-82188621D01*
X100109000Y-82148621D02*
X97091000Y-82148621D01*
X100181000Y-82108621D02*
X97019000Y-82108621D01*
X100250000Y-82068621D02*
X96950000Y-82068621D01*
X100314000Y-82028621D02*
X96886000Y-82028621D01*
X100376000Y-81988621D02*
X96824000Y-81988621D01*
X100434000Y-81948621D02*
X96766000Y-81948621D01*
X100439000Y-75767380D02*
X100439000Y-76397380D01*
X100490000Y-81908621D02*
X96710000Y-81908621D01*
X100544000Y-81868621D02*
X96656000Y-81868621D01*
X100595000Y-81828621D02*
X96605000Y-81828621D01*
X100644000Y-81788621D02*
X96556000Y-81788621D01*
X100692000Y-81748621D02*
X96508000Y-81748621D01*
X100737000Y-81708621D02*
X96463000Y-81708621D01*
X100754000Y-76082380D02*
X100124000Y-76082380D01*
X100782000Y-81668621D02*
X96418000Y-81668621D01*
X100824000Y-81628621D02*
X96376000Y-81628621D01*
X100865000Y-81588621D02*
X96335000Y-81588621D01*
X100905000Y-81548621D02*
X99640000Y-81548621D01*
X100943000Y-81508621D02*
X99640000Y-81508621D01*
X100980000Y-81468621D02*
X99640000Y-81468621D01*
X101016000Y-81428621D02*
X99640000Y-81428621D01*
X101050000Y-81388621D02*
X99640000Y-81388621D01*
X101084000Y-81348621D02*
X99640000Y-81348621D01*
X101116000Y-81308621D02*
X99640000Y-81308621D01*
X101148000Y-81268621D02*
X99640000Y-81268621D01*
X101178000Y-81228621D02*
X99640000Y-81228621D01*
X101207000Y-81188621D02*
X99640000Y-81188621D01*
X101236000Y-81148621D02*
X99640000Y-81148621D01*
X101264000Y-81108621D02*
X99640000Y-81108621D01*
X101290000Y-81068621D02*
X99640000Y-81068621D01*
X101316000Y-81028621D02*
X99640000Y-81028621D01*
X101342000Y-80988621D02*
X99640000Y-80988621D01*
X101366000Y-80948621D02*
X99640000Y-80948621D01*
X101390000Y-80908621D02*
X99640000Y-80908621D01*
X101412000Y-80868621D02*
X99640000Y-80868621D01*
X101434000Y-80828621D02*
X99640000Y-80828621D01*
X101456000Y-80788621D02*
X99640000Y-80788621D01*
X101476000Y-80748621D02*
X99640000Y-80748621D01*
X101496000Y-80708621D02*
X99640000Y-80708621D01*
X101516000Y-80668621D02*
X99640000Y-80668621D01*
X101534000Y-80628621D02*
X99640000Y-80628621D01*
X101552000Y-80588621D02*
X99640000Y-80588621D01*
X101570000Y-80548621D02*
X99640000Y-80548621D01*
X101586000Y-80508621D02*
X99640000Y-80508621D01*
X101602000Y-80468621D02*
X99640000Y-80468621D01*
X101618000Y-80428621D02*
X99640000Y-80428621D01*
X101633000Y-80388621D02*
X99640000Y-80388621D01*
X101647000Y-80348621D02*
X99640000Y-80348621D01*
X101661000Y-80308621D02*
X99640000Y-80308621D01*
X101674000Y-80268621D02*
X99640000Y-80268621D01*
X101686000Y-80228621D02*
X99640000Y-80228621D01*
X101698000Y-80188621D02*
X99640000Y-80188621D01*
X101710000Y-80148621D02*
X99640000Y-80148621D01*
X101721000Y-80108621D02*
X99640000Y-80108621D01*
X101731000Y-80068621D02*
X99640000Y-80068621D01*
X101741000Y-80028621D02*
X99640000Y-80028621D01*
X101750000Y-79988621D02*
X99640000Y-79988621D01*
X101759000Y-79947621D02*
X99640000Y-79947621D01*
X101767000Y-79907621D02*
X99640000Y-79907621D01*
X101775000Y-79867621D02*
X99640000Y-79867621D01*
X101782000Y-79827621D02*
X99640000Y-79827621D01*
X101789000Y-79787621D02*
X99640000Y-79787621D01*
X101795000Y-79747621D02*
X99640000Y-79747621D01*
X101801000Y-79707621D02*
X99640000Y-79707621D01*
X101806000Y-79667621D02*
X99640000Y-79667621D01*
X101811000Y-79627621D02*
X99640000Y-79627621D01*
X101815000Y-79587621D02*
X99640000Y-79587621D01*
X101818000Y-79547621D02*
X99640000Y-79547621D01*
X101822000Y-79507621D02*
X99640000Y-79507621D01*
X101824000Y-79467621D02*
X95376000Y-79467621D01*
X101827000Y-79427621D02*
X95373000Y-79427621D01*
X101828000Y-79387621D02*
X95372000Y-79387621D01*
X101830000Y-79267621D02*
X95370000Y-79267621D01*
X101830000Y-79307621D02*
X95370000Y-79307621D01*
X101830000Y-79347621D02*
X95370000Y-79347621D01*
X101870000Y-79267621D02*
G75*
G02*
X95330000Y-79267621I-3270000J0D01*
G01*
X95330000Y-79267621D02*
G75*
G02*
X101870000Y-79267621I3270000J0D01*
G01*
D10*
%TO.C,U1*%
X86775000Y-44275000D02*
X86775000Y-44600000D01*
X86775000Y-44275000D02*
X87100000Y-44275000D01*
X86775000Y-51525000D02*
X86775000Y-51200000D01*
X86775000Y-51525000D02*
X87000000Y-51525000D01*
X94025000Y-44275000D02*
X93700000Y-44275000D01*
X94025000Y-44275000D02*
X94025000Y-44600000D01*
X94025000Y-51525000D02*
X93700000Y-51525000D01*
X94025000Y-51525000D02*
X94025000Y-51200000D01*
D11*
X87060000Y-52290000D02*
X86590000Y-52630000D01*
X86590000Y-51950000D01*
X87060000Y-52290000D01*
G36*
X87060000Y-52290000D02*
G01*
X86590000Y-52630000D01*
X86590000Y-51950000D01*
X87060000Y-52290000D01*
G37*
%TO.C,R1*%
X72265000Y-69827064D02*
X72265000Y-69372936D01*
X73735000Y-69827064D02*
X73735000Y-69372936D01*
%TO.C,Q4*%
X115900415Y-52709392D02*
X115250415Y-52709392D01*
X115900415Y-52709392D02*
X116550415Y-52709392D01*
X115900415Y-55829392D02*
X115250415Y-55829392D01*
X115900415Y-55829392D02*
X116550415Y-55829392D01*
X114737915Y-52759392D02*
X114497915Y-52429392D01*
X114977915Y-52429392D01*
X114737915Y-52759392D01*
G36*
X114737915Y-52759392D02*
G01*
X114497915Y-52429392D01*
X114977915Y-52429392D01*
X114737915Y-52759392D01*
G37*
%TO.C,U6*%
X68012500Y-41340000D02*
X66512500Y-41340000D01*
X68012500Y-41340000D02*
X69512500Y-41340000D01*
X68012500Y-44560000D02*
X66512500Y-44560000D01*
X68012500Y-44560000D02*
X69512500Y-44560000D01*
X65800000Y-41515000D02*
X65560000Y-41185000D01*
X66040000Y-41185000D01*
X65800000Y-41515000D01*
G36*
X65800000Y-41515000D02*
G01*
X65560000Y-41185000D01*
X66040000Y-41185000D01*
X65800000Y-41515000D01*
G37*
%TO.C,C17*%
X42734420Y-44390000D02*
X43015580Y-44390000D01*
X42734420Y-45410000D02*
X43015580Y-45410000D01*
%TO.C,C16*%
X42734420Y-45990000D02*
X43015580Y-45990000D01*
X42734420Y-47010000D02*
X43015580Y-47010000D01*
%TO.C,C14*%
X88608750Y-70905002D02*
X88608750Y-69482498D01*
X91328750Y-70905002D02*
X91328750Y-69482498D01*
%TO.C,U2*%
X69700000Y-74500000D02*
X64700000Y-74500000D01*
X64700000Y-76000000D01*
X69700000Y-76000000D01*
X69700000Y-74500000D01*
X73260000Y-81500000D02*
X61260000Y-81500000D01*
X61260000Y-74500000D01*
X73260000Y-74500000D01*
X73260000Y-81500000D01*
X73200000Y-75500000D02*
X72200000Y-74500000D01*
X73260000Y-74500000D01*
X73200000Y-75500000D01*
G36*
X73200000Y-75500000D02*
G01*
X72200000Y-74500000D01*
X73260000Y-74500000D01*
X73200000Y-75500000D01*
G37*
%TO.C,TP10*%
X78300000Y-46700000D02*
G75*
G02*
X76900000Y-46700000I-700000J0D01*
G01*
X76900000Y-46700000D02*
G75*
G02*
X78300000Y-46700000I700000J0D01*
G01*
%TO.C,C4*%
X79820000Y-49159420D02*
X79820000Y-49440580D01*
X80840000Y-49159420D02*
X80840000Y-49440580D01*
%TO.C,TP12*%
X115900000Y-58200000D02*
G75*
G02*
X114500000Y-58200000I-700000J0D01*
G01*
X114500000Y-58200000D02*
G75*
G02*
X115900000Y-58200000I700000J0D01*
G01*
%TO.C,R5*%
X79865000Y-41672936D02*
X79865000Y-42127064D01*
X81335000Y-41672936D02*
X81335000Y-42127064D01*
%TO.C,RV1*%
X67950000Y-52590000D02*
X68150000Y-52590000D01*
X67950000Y-54010000D02*
X67950000Y-52590000D01*
X67950000Y-59010000D02*
X67950000Y-57590000D01*
X67950000Y-59010000D02*
X68150000Y-59010000D01*
X68150000Y-52490000D02*
X68840000Y-52490000D01*
X68150000Y-52590000D02*
X68150000Y-52490000D01*
X68150000Y-54010000D02*
X67950000Y-54010000D01*
X68150000Y-57590000D02*
X67950000Y-57590000D01*
X68150000Y-57590000D02*
X68150000Y-54010000D01*
X68150000Y-59010000D02*
X68150000Y-59110000D01*
X68150000Y-59110000D02*
X68400000Y-59110000D01*
X69880000Y-52490000D02*
X73860000Y-52490000D01*
X73860000Y-59110000D02*
X70320000Y-59110000D01*
X75170000Y-53800000D02*
X75170000Y-55290000D01*
X75170000Y-56310000D02*
X75170000Y-57800000D01*
X73860000Y-52490000D02*
G75*
G02*
X75170000Y-53800000I0J-1310000D01*
G01*
X75170000Y-57800000D02*
G75*
G02*
X73860000Y-59110000I-1310000J0D01*
G01*
D10*
%TO.C,RV2*%
X110950000Y-40300000D02*
X110950000Y-47300000D01*
X115450000Y-40300000D02*
X110950000Y-40300000D01*
X115450000Y-40300000D02*
X115450000Y-47300000D01*
X115450000Y-47300000D02*
X110950000Y-47300000D01*
D11*
%TO.C,R19*%
X118027064Y-59715000D02*
X117572936Y-59715000D01*
X118027064Y-61185000D02*
X117572936Y-61185000D01*
%TO.C,U8*%
X118690000Y-63040000D02*
X119240000Y-63040000D01*
X118690000Y-63590000D02*
X118690000Y-63040000D01*
X118690000Y-66710000D02*
X118690000Y-67260000D01*
X118690000Y-67260000D02*
X119240000Y-67260000D01*
X122360000Y-63040000D02*
X122670000Y-63040000D01*
X122910000Y-63590000D02*
X122910000Y-63340000D01*
X122910000Y-66710000D02*
X122910000Y-67260000D01*
X122910000Y-67260000D02*
X122360000Y-67260000D01*
X123240000Y-63280000D02*
X122910000Y-63040000D01*
X123240000Y-62800000D01*
X123240000Y-63280000D01*
G36*
X123240000Y-63280000D02*
G01*
X122910000Y-63040000D01*
X123240000Y-62800000D01*
X123240000Y-63280000D01*
G37*
%TO.C,Q6*%
X127462500Y-69177500D02*
X126812500Y-69177500D01*
X127462500Y-69177500D02*
X128112500Y-69177500D01*
X127462500Y-72297500D02*
X126812500Y-72297500D01*
X127462500Y-72297500D02*
X128112500Y-72297500D01*
X126300000Y-69227500D02*
X126060000Y-68897500D01*
X126540000Y-68897500D01*
X126300000Y-69227500D01*
G36*
X126300000Y-69227500D02*
G01*
X126060000Y-68897500D01*
X126540000Y-68897500D01*
X126300000Y-69227500D01*
G37*
%TO.C,R28*%
X119065000Y-71927064D02*
X119065000Y-71472936D01*
X120535000Y-71927064D02*
X120535000Y-71472936D01*
%TO.C,R15*%
X73465000Y-41572936D02*
X73465000Y-42027064D01*
X74935000Y-41572936D02*
X74935000Y-42027064D01*
%TO.C,J1*%
X79645000Y-79180000D02*
X79645000Y-76580000D01*
X79645000Y-81780000D02*
X79645000Y-80450000D01*
X80975000Y-81780000D02*
X79645000Y-81780000D01*
X82305000Y-76580000D02*
X79645000Y-76580000D01*
X82305000Y-79180000D02*
X79645000Y-79180000D01*
X82305000Y-79180000D02*
X82305000Y-76580000D01*
%TO.C,R4*%
X63872936Y-70865000D02*
X64327064Y-70865000D01*
X63872936Y-72335000D02*
X64327064Y-72335000D01*
%TO.C,C21*%
X113359835Y-50559392D02*
X113640995Y-50559392D01*
X113359835Y-51579392D02*
X113640995Y-51579392D01*
%TO.C,R29*%
X121265000Y-75827064D02*
X121265000Y-75372936D01*
X122735000Y-75827064D02*
X122735000Y-75372936D01*
%TO.C,TP6*%
X136300000Y-57800000D02*
G75*
G02*
X134900000Y-57800000I-700000J0D01*
G01*
X134900000Y-57800000D02*
G75*
G02*
X136300000Y-57800000I700000J0D01*
G01*
%TO.C,C27*%
X124940580Y-57290000D02*
X124659420Y-57290000D01*
X124940580Y-58310000D02*
X124659420Y-58310000D01*
%TO.C,Q5*%
X130840000Y-62937500D02*
X130840000Y-62287500D01*
X130840000Y-62937500D02*
X130840000Y-63587500D01*
X133960000Y-62937500D02*
X133960000Y-62287500D01*
X133960000Y-62937500D02*
X133960000Y-63587500D01*
X130890000Y-64100000D02*
X130560000Y-64340000D01*
X130560000Y-63860000D01*
X130890000Y-64100000D01*
G36*
X130890000Y-64100000D02*
G01*
X130560000Y-64340000D01*
X130560000Y-63860000D01*
X130890000Y-64100000D01*
G37*
%TO.C,TP3*%
X61700000Y-60400000D02*
G75*
G02*
X60300000Y-60400000I-700000J0D01*
G01*
X60300000Y-60400000D02*
G75*
G02*
X61700000Y-60400000I700000J0D01*
G01*
%TO.C,TP4*%
X81968750Y-70193750D02*
G75*
G02*
X80568750Y-70193750I-700000J0D01*
G01*
X80568750Y-70193750D02*
G75*
G02*
X81968750Y-70193750I700000J0D01*
G01*
%TO.C,Q3*%
X110190415Y-54169392D02*
X110190415Y-53519392D01*
X110190415Y-54169392D02*
X110190415Y-54819392D01*
X113310415Y-54169392D02*
X113310415Y-53519392D01*
X113310415Y-54169392D02*
X113310415Y-54819392D01*
X110240415Y-55331892D02*
X109910415Y-55571892D01*
X109910415Y-55091892D01*
X110240415Y-55331892D01*
G36*
X110240415Y-55331892D02*
G01*
X109910415Y-55571892D01*
X109910415Y-55091892D01*
X110240415Y-55331892D01*
G37*
%TO.C,J3*%
X130325000Y-47250000D02*
X130325000Y-48500000D01*
X130325000Y-48500000D02*
X131575000Y-48500000D01*
X130615000Y-40590000D02*
X130615000Y-48210000D01*
X130615000Y-48210000D02*
X136585000Y-48210000D01*
X130625000Y-40600000D02*
X130625000Y-42400000D01*
X130625000Y-42400000D02*
X131375000Y-42400000D01*
X130625000Y-43900000D02*
X130625000Y-44900000D01*
X130625000Y-44900000D02*
X131375000Y-44900000D01*
X130625000Y-46400000D02*
X130625000Y-48200000D01*
X130625000Y-48200000D02*
X131375000Y-48200000D01*
X131375000Y-40600000D02*
X130625000Y-40600000D01*
X131375000Y-42400000D02*
X131375000Y-40600000D01*
X131375000Y-43900000D02*
X130625000Y-43900000D01*
X131375000Y-44900000D02*
X131375000Y-43900000D01*
X131375000Y-46400000D02*
X130625000Y-46400000D01*
X131375000Y-48200000D02*
X131375000Y-46400000D01*
X132875000Y-40600000D02*
X132875000Y-41350000D01*
X132875000Y-41350000D02*
X135825000Y-41350000D01*
X132875000Y-47450000D02*
X135825000Y-47450000D01*
X132875000Y-48200000D02*
X132875000Y-47450000D01*
X135825000Y-41350000D02*
X135825000Y-44400000D01*
X135825000Y-47450000D02*
X135825000Y-44400000D01*
X136585000Y-40590000D02*
X130615000Y-40590000D01*
X136585000Y-48210000D02*
X136585000Y-40590000D01*
%TO.C,D5*%
X103050000Y-68090000D02*
X103050000Y-73600000D01*
X106350000Y-68090000D02*
X103050000Y-68090000D01*
X106350000Y-68090000D02*
X106350000Y-73600000D01*
%TO.C,R30*%
X119065000Y-75372936D02*
X119065000Y-75827064D01*
X120535000Y-75372936D02*
X120535000Y-75827064D01*
%TO.C,R27*%
X116227064Y-77590000D02*
X114772936Y-77590000D01*
X116227064Y-79410000D02*
X114772936Y-79410000D01*
%TO.C,C26*%
X124290000Y-66609420D02*
X124290000Y-66890580D01*
X125310000Y-66609420D02*
X125310000Y-66890580D01*
%TD*%
M02*
