%TF.GenerationSoftware,KiCad,Pcbnew,7.0.8-7.0.8~ubuntu22.04.1*%
%TF.CreationDate,2023-11-01T15:39:39+03:00*%
%TF.ProjectId,main-module,6d61696e-2d6d-46f6-9475-6c652e6b6963,rev?*%
%TF.SameCoordinates,Original*%
%TF.FileFunction,Soldermask,Top*%
%TF.FilePolarity,Negative*%
%FSLAX46Y46*%
G04 Gerber Fmt 4.6, Leading zero omitted, Abs format (unit mm)*
G04 Created by KiCad (PCBNEW 7.0.8-7.0.8~ubuntu22.04.1) date 2023-11-01 15:39:39*
%MOMM*%
%LPD*%
G01*
G04 APERTURE LIST*
G04 Aperture macros list*
%AMRoundRect*
0 Rectangle with rounded corners*
0 $1 Rounding radius*
0 $2 $3 $4 $5 $6 $7 $8 $9 X,Y pos of 4 corners*
0 Add a 4 corners polygon primitive as box body*
4,1,4,$2,$3,$4,$5,$6,$7,$8,$9,$2,$3,0*
0 Add four circle primitives for the rounded corners*
1,1,$1+$1,$2,$3*
1,1,$1+$1,$4,$5*
1,1,$1+$1,$6,$7*
1,1,$1+$1,$8,$9*
0 Add four rect primitives between the rounded corners*
20,1,$1+$1,$2,$3,$4,$5,0*
20,1,$1+$1,$4,$5,$6,$7,0*
20,1,$1+$1,$6,$7,$8,$9,0*
20,1,$1+$1,$8,$9,$2,$3,0*%
G04 Aperture macros list end*
%ADD10RoundRect,0.250000X-0.725000X0.600000X-0.725000X-0.600000X0.725000X-0.600000X0.725000X0.600000X0*%
%ADD11O,1.950000X1.700000*%
%ADD12RoundRect,0.225000X-0.250000X0.225000X-0.250000X-0.225000X0.250000X-0.225000X0.250000X0.225000X0*%
%ADD13R,3.200000X3.200000*%
%ADD14O,3.200000X3.200000*%
%ADD15R,1.560000X1.560000*%
%ADD16C,1.560000*%
%ADD17RoundRect,0.250000X-0.450000X0.262500X-0.450000X-0.262500X0.450000X-0.262500X0.450000X0.262500X0*%
%ADD18C,2.200000*%
%ADD19R,1.600000X1.600000*%
%ADD20C,1.600000*%
%ADD21RoundRect,0.250000X0.450000X-0.262500X0.450000X0.262500X-0.450000X0.262500X-0.450000X-0.262500X0*%
%ADD22C,1.000000*%
%ADD23C,3.000000*%
%ADD24RoundRect,0.225000X0.250000X-0.225000X0.250000X0.225000X-0.250000X0.225000X-0.250000X-0.225000X0*%
%ADD25R,1.800000X1.800000*%
%ADD26C,1.800000*%
%ADD27RoundRect,0.225000X-0.225000X-0.975000X0.225000X-0.975000X0.225000X0.975000X-0.225000X0.975000X0*%
%ADD28RoundRect,0.150000X-0.725000X-0.150000X0.725000X-0.150000X0.725000X0.150000X-0.725000X0.150000X0*%
%ADD29RoundRect,0.250000X-0.750000X0.600000X-0.750000X-0.600000X0.750000X-0.600000X0.750000X0.600000X0*%
%ADD30O,2.000000X1.700000*%
G04 APERTURE END LIST*
D10*
%TO.C,T1*%
X172550000Y-75687500D03*
D11*
X172550000Y-78187500D03*
X172550000Y-80687500D03*
X172550000Y-83187500D03*
X172550000Y-85687500D03*
%TD*%
D12*
%TO.C,C23*%
X146750000Y-81475000D03*
X146750000Y-83025000D03*
%TD*%
D13*
%TO.C,D4*%
X164950000Y-63315000D03*
D14*
X164950000Y-67125000D03*
%TD*%
D15*
%TO.C,RV2*%
X169050000Y-62547500D03*
D16*
X171550000Y-67547500D03*
X174050000Y-62547500D03*
%TD*%
D17*
%TO.C,R14*%
X146950000Y-77812500D03*
X146950000Y-79637500D03*
%TD*%
D18*
%TO.C,H1*%
X165500000Y-83500000D03*
%TD*%
D19*
%TO.C,C18*%
X156550000Y-63205121D03*
D20*
X156550000Y-65705121D03*
%TD*%
D12*
%TO.C,C25*%
X149150000Y-77712500D03*
X149150000Y-79262500D03*
%TD*%
D17*
%TO.C,R21*%
X160750000Y-66975000D03*
X160750000Y-68800000D03*
%TD*%
D21*
%TO.C,R15*%
X146950000Y-76050000D03*
X146950000Y-74225000D03*
%TD*%
D12*
%TO.C,C22*%
X158900000Y-81225000D03*
X158900000Y-82775000D03*
%TD*%
D22*
%TO.C,TP6*%
X173750000Y-70887500D03*
%TD*%
D23*
%TO.C,TP5*%
X147550000Y-71087500D03*
%TD*%
D24*
%TO.C,C21*%
X158900000Y-78462500D03*
X158900000Y-76912500D03*
%TD*%
D25*
%TO.C,D5*%
X156075000Y-69887500D03*
D26*
X158615000Y-69887500D03*
%TD*%
D27*
%TO.C,D6*%
X167000000Y-71287500D03*
X164500000Y-71287500D03*
X164500000Y-77287500D03*
X167000000Y-77287500D03*
%TD*%
D28*
%TO.C,U9*%
X151175000Y-76055000D03*
X151175000Y-77325000D03*
X151175000Y-78595000D03*
X151175000Y-79865000D03*
X151175000Y-81135000D03*
X151175000Y-82405000D03*
X151175000Y-83675000D03*
X151175000Y-84945000D03*
X156325000Y-84945000D03*
X156325000Y-83675000D03*
X156325000Y-82405000D03*
X156325000Y-81135000D03*
X156325000Y-79865000D03*
X156325000Y-78595000D03*
X156325000Y-77325000D03*
X156325000Y-76055000D03*
%TD*%
D17*
%TO.C,R13*%
X148750000Y-82337500D03*
X148750000Y-84162500D03*
%TD*%
D29*
%TO.C,J4*%
X149150000Y-63187500D03*
D30*
X149150000Y-65687500D03*
%TD*%
M02*
