%TF.GenerationSoftware,KiCad,Pcbnew,7.0.8-7.0.8~ubuntu22.04.1*%
%TF.CreationDate,2023-11-01T15:39:39+03:00*%
%TF.ProjectId,main-module,6d61696e-2d6d-46f6-9475-6c652e6b6963,rev?*%
%TF.SameCoordinates,Original*%
%TF.FileFunction,Soldermask,Bot*%
%TF.FilePolarity,Negative*%
%FSLAX46Y46*%
G04 Gerber Fmt 4.6, Leading zero omitted, Abs format (unit mm)*
G04 Created by KiCad (PCBNEW 7.0.8-7.0.8~ubuntu22.04.1) date 2023-11-01 15:39:39*
%MOMM*%
%LPD*%
G01*
G04 APERTURE LIST*
G04 Aperture macros list*
%AMRoundRect*
0 Rectangle with rounded corners*
0 $1 Rounding radius*
0 $2 $3 $4 $5 $6 $7 $8 $9 X,Y pos of 4 corners*
0 Add a 4 corners polygon primitive as box body*
4,1,4,$2,$3,$4,$5,$6,$7,$8,$9,$2,$3,0*
0 Add four circle primitives for the rounded corners*
1,1,$1+$1,$2,$3*
1,1,$1+$1,$4,$5*
1,1,$1+$1,$6,$7*
1,1,$1+$1,$8,$9*
0 Add four rect primitives between the rounded corners*
20,1,$1+$1,$2,$3,$4,$5,0*
20,1,$1+$1,$4,$5,$6,$7,0*
20,1,$1+$1,$6,$7,$8,$9,0*
20,1,$1+$1,$8,$9,$2,$3,0*%
G04 Aperture macros list end*
%ADD10RoundRect,0.250000X-0.725000X0.600000X-0.725000X-0.600000X0.725000X-0.600000X0.725000X0.600000X0*%
%ADD11O,1.950000X1.700000*%
%ADD12R,3.200000X3.200000*%
%ADD13O,3.200000X3.200000*%
%ADD14R,1.560000X1.560000*%
%ADD15C,1.560000*%
%ADD16C,2.200000*%
%ADD17R,1.600000X1.600000*%
%ADD18C,1.600000*%
%ADD19C,3.000000*%
%ADD20R,1.800000X1.800000*%
%ADD21C,1.800000*%
%ADD22RoundRect,0.250000X-0.750000X0.600000X-0.750000X-0.600000X0.750000X-0.600000X0.750000X0.600000X0*%
%ADD23O,2.000000X1.700000*%
%ADD24RoundRect,0.225000X0.250000X-0.225000X0.250000X0.225000X-0.250000X0.225000X-0.250000X-0.225000X0*%
%ADD25RoundRect,0.150000X-0.512500X-0.150000X0.512500X-0.150000X0.512500X0.150000X-0.512500X0.150000X0*%
%ADD26RoundRect,0.250000X-0.262500X-0.450000X0.262500X-0.450000X0.262500X0.450000X-0.262500X0.450000X0*%
%ADD27RoundRect,0.150000X-0.825000X-0.150000X0.825000X-0.150000X0.825000X0.150000X-0.825000X0.150000X0*%
%ADD28RoundRect,0.250000X-1.100000X0.325000X-1.100000X-0.325000X1.100000X-0.325000X1.100000X0.325000X0*%
%ADD29RoundRect,0.225000X-0.225000X-0.250000X0.225000X-0.250000X0.225000X0.250000X-0.225000X0.250000X0*%
G04 APERTURE END LIST*
D10*
%TO.C,T1*%
X172550000Y-75687500D03*
D11*
X172550000Y-78187500D03*
X172550000Y-80687500D03*
X172550000Y-83187500D03*
X172550000Y-85687500D03*
%TD*%
D12*
%TO.C,D4*%
X164950000Y-63315000D03*
D13*
X164950000Y-67125000D03*
%TD*%
D14*
%TO.C,RV2*%
X169050000Y-62547500D03*
D15*
X171550000Y-67547500D03*
X174050000Y-62547500D03*
%TD*%
D16*
%TO.C,H1*%
X165500000Y-83500000D03*
%TD*%
D17*
%TO.C,C18*%
X156550000Y-63205121D03*
D18*
X156550000Y-65705121D03*
%TD*%
D19*
%TO.C,TP5*%
X147550000Y-71087500D03*
%TD*%
D20*
%TO.C,D5*%
X156075000Y-69887500D03*
D21*
X158615000Y-69887500D03*
%TD*%
D22*
%TO.C,J4*%
X149150000Y-63187500D03*
D23*
X149150000Y-65687500D03*
%TD*%
D24*
%TO.C,C35*%
X173925000Y-67472500D03*
X173925000Y-65922500D03*
%TD*%
D25*
%TO.C,U11*%
X150600036Y-86700000D03*
X150600036Y-85750000D03*
X150600036Y-84800000D03*
X152875036Y-84800000D03*
X152875036Y-86700000D03*
%TD*%
D26*
%TO.C,R16*%
X150437500Y-82487500D03*
X152262500Y-82487500D03*
%TD*%
D27*
%TO.C,Q8*%
X156775000Y-78905000D03*
X156775000Y-77635000D03*
X156775000Y-76365000D03*
X156775000Y-75095000D03*
X161725000Y-75095000D03*
X161725000Y-76365000D03*
X161725000Y-77635000D03*
X161725000Y-78905000D03*
%TD*%
%TO.C,Q7*%
X156775000Y-86405000D03*
X156775000Y-85135000D03*
X156775000Y-83865000D03*
X156775000Y-82595000D03*
X161725000Y-82595000D03*
X161725000Y-83865000D03*
X161725000Y-85135000D03*
X161725000Y-86405000D03*
%TD*%
D28*
%TO.C,C30*%
X147200000Y-84525000D03*
X147200000Y-87475000D03*
%TD*%
%TO.C,C28*%
X147150000Y-74537500D03*
X147150000Y-77487500D03*
%TD*%
D29*
%TO.C,C33*%
X170900000Y-62447500D03*
X172450000Y-62447500D03*
%TD*%
D25*
%TO.C,U12*%
X149875000Y-77387500D03*
X149875000Y-76437500D03*
X149875000Y-75487500D03*
X152150000Y-75487500D03*
X152150000Y-77387500D03*
%TD*%
D26*
%TO.C,R17*%
X150237500Y-73487500D03*
X152062500Y-73487500D03*
%TD*%
M02*
