%TF.GenerationSoftware,KiCad,Pcbnew,7.0.8-7.0.8~ubuntu22.04.1*%
%TF.CreationDate,2023-11-01T15:39:39+03:00*%
%TF.ProjectId,main-module,6d61696e-2d6d-46f6-9475-6c652e6b6963,rev?*%
%TF.SameCoordinates,Original*%
%TF.FileFunction,Legend,Top*%
%TF.FilePolarity,Positive*%
%FSLAX46Y46*%
G04 Gerber Fmt 4.6, Leading zero omitted, Abs format (unit mm)*
G04 Created by KiCad (PCBNEW 7.0.8-7.0.8~ubuntu22.04.1) date 2023-11-01 15:39:39*
%MOMM*%
%LPD*%
G01*
G04 APERTURE LIST*
%ADD10C,0.150000*%
%ADD11C,0.120000*%
G04 APERTURE END LIST*
D10*
X166788095Y-87342319D02*
X167359523Y-87342319D01*
X167073809Y-88342319D02*
X167073809Y-87342319D01*
X168216666Y-88342319D02*
X167645238Y-88342319D01*
X167930952Y-88342319D02*
X167930952Y-87342319D01*
X167930952Y-87342319D02*
X167835714Y-87485176D01*
X167835714Y-87485176D02*
X167740476Y-87580414D01*
X167740476Y-87580414D02*
X167645238Y-87628033D01*
X146107142Y-88247080D02*
X146059523Y-88294700D01*
X146059523Y-88294700D02*
X145916666Y-88342319D01*
X145916666Y-88342319D02*
X145821428Y-88342319D01*
X145821428Y-88342319D02*
X145678571Y-88294700D01*
X145678571Y-88294700D02*
X145583333Y-88199461D01*
X145583333Y-88199461D02*
X145535714Y-88104223D01*
X145535714Y-88104223D02*
X145488095Y-87913747D01*
X145488095Y-87913747D02*
X145488095Y-87770890D01*
X145488095Y-87770890D02*
X145535714Y-87580414D01*
X145535714Y-87580414D02*
X145583333Y-87485176D01*
X145583333Y-87485176D02*
X145678571Y-87389938D01*
X145678571Y-87389938D02*
X145821428Y-87342319D01*
X145821428Y-87342319D02*
X145916666Y-87342319D01*
X145916666Y-87342319D02*
X146059523Y-87389938D01*
X146059523Y-87389938D02*
X146107142Y-87437557D01*
X146488095Y-87437557D02*
X146535714Y-87389938D01*
X146535714Y-87389938D02*
X146630952Y-87342319D01*
X146630952Y-87342319D02*
X146869047Y-87342319D01*
X146869047Y-87342319D02*
X146964285Y-87389938D01*
X146964285Y-87389938D02*
X147011904Y-87437557D01*
X147011904Y-87437557D02*
X147059523Y-87532795D01*
X147059523Y-87532795D02*
X147059523Y-87628033D01*
X147059523Y-87628033D02*
X147011904Y-87770890D01*
X147011904Y-87770890D02*
X146440476Y-88342319D01*
X146440476Y-88342319D02*
X147059523Y-88342319D01*
X147392857Y-87342319D02*
X148011904Y-87342319D01*
X148011904Y-87342319D02*
X147678571Y-87723271D01*
X147678571Y-87723271D02*
X147821428Y-87723271D01*
X147821428Y-87723271D02*
X147916666Y-87770890D01*
X147916666Y-87770890D02*
X147964285Y-87818509D01*
X147964285Y-87818509D02*
X148011904Y-87913747D01*
X148011904Y-87913747D02*
X148011904Y-88151842D01*
X148011904Y-88151842D02*
X147964285Y-88247080D01*
X147964285Y-88247080D02*
X147916666Y-88294700D01*
X147916666Y-88294700D02*
X147821428Y-88342319D01*
X147821428Y-88342319D02*
X147535714Y-88342319D01*
X147535714Y-88342319D02*
X147440476Y-88294700D01*
X147440476Y-88294700D02*
X147392857Y-88247080D01*
X160211905Y-62142319D02*
X160211905Y-61142319D01*
X160211905Y-61142319D02*
X160450000Y-61142319D01*
X160450000Y-61142319D02*
X160592857Y-61189938D01*
X160592857Y-61189938D02*
X160688095Y-61285176D01*
X160688095Y-61285176D02*
X160735714Y-61380414D01*
X160735714Y-61380414D02*
X160783333Y-61570890D01*
X160783333Y-61570890D02*
X160783333Y-61713747D01*
X160783333Y-61713747D02*
X160735714Y-61904223D01*
X160735714Y-61904223D02*
X160688095Y-61999461D01*
X160688095Y-61999461D02*
X160592857Y-62094700D01*
X160592857Y-62094700D02*
X160450000Y-62142319D01*
X160450000Y-62142319D02*
X160211905Y-62142319D01*
X161640476Y-61475652D02*
X161640476Y-62142319D01*
X161402381Y-61094700D02*
X161164286Y-61808985D01*
X161164286Y-61808985D02*
X161783333Y-61808985D01*
X162519104Y-67363094D02*
X162519104Y-66886904D01*
X162804819Y-67458332D02*
X161804819Y-67124999D01*
X161804819Y-67124999D02*
X162804819Y-66791666D01*
X173954761Y-69742319D02*
X173621428Y-69266128D01*
X173383333Y-69742319D02*
X173383333Y-68742319D01*
X173383333Y-68742319D02*
X173764285Y-68742319D01*
X173764285Y-68742319D02*
X173859523Y-68789938D01*
X173859523Y-68789938D02*
X173907142Y-68837557D01*
X173907142Y-68837557D02*
X173954761Y-68932795D01*
X173954761Y-68932795D02*
X173954761Y-69075652D01*
X173954761Y-69075652D02*
X173907142Y-69170890D01*
X173907142Y-69170890D02*
X173859523Y-69218509D01*
X173859523Y-69218509D02*
X173764285Y-69266128D01*
X173764285Y-69266128D02*
X173383333Y-69266128D01*
X174240476Y-68742319D02*
X174573809Y-69742319D01*
X174573809Y-69742319D02*
X174907142Y-68742319D01*
X175192857Y-68837557D02*
X175240476Y-68789938D01*
X175240476Y-68789938D02*
X175335714Y-68742319D01*
X175335714Y-68742319D02*
X175573809Y-68742319D01*
X175573809Y-68742319D02*
X175669047Y-68789938D01*
X175669047Y-68789938D02*
X175716666Y-68837557D01*
X175716666Y-68837557D02*
X175764285Y-68932795D01*
X175764285Y-68932795D02*
X175764285Y-69028033D01*
X175764285Y-69028033D02*
X175716666Y-69170890D01*
X175716666Y-69170890D02*
X175145238Y-69742319D01*
X175145238Y-69742319D02*
X175764285Y-69742319D01*
X146107142Y-86942319D02*
X145773809Y-86466128D01*
X145535714Y-86942319D02*
X145535714Y-85942319D01*
X145535714Y-85942319D02*
X145916666Y-85942319D01*
X145916666Y-85942319D02*
X146011904Y-85989938D01*
X146011904Y-85989938D02*
X146059523Y-86037557D01*
X146059523Y-86037557D02*
X146107142Y-86132795D01*
X146107142Y-86132795D02*
X146107142Y-86275652D01*
X146107142Y-86275652D02*
X146059523Y-86370890D01*
X146059523Y-86370890D02*
X146011904Y-86418509D01*
X146011904Y-86418509D02*
X145916666Y-86466128D01*
X145916666Y-86466128D02*
X145535714Y-86466128D01*
X147059523Y-86942319D02*
X146488095Y-86942319D01*
X146773809Y-86942319D02*
X146773809Y-85942319D01*
X146773809Y-85942319D02*
X146678571Y-86085176D01*
X146678571Y-86085176D02*
X146583333Y-86180414D01*
X146583333Y-86180414D02*
X146488095Y-86228033D01*
X147916666Y-86275652D02*
X147916666Y-86942319D01*
X147678571Y-85894700D02*
X147440476Y-86608985D01*
X147440476Y-86608985D02*
X148059523Y-86608985D01*
X152707142Y-68647080D02*
X152659523Y-68694700D01*
X152659523Y-68694700D02*
X152516666Y-68742319D01*
X152516666Y-68742319D02*
X152421428Y-68742319D01*
X152421428Y-68742319D02*
X152278571Y-68694700D01*
X152278571Y-68694700D02*
X152183333Y-68599461D01*
X152183333Y-68599461D02*
X152135714Y-68504223D01*
X152135714Y-68504223D02*
X152088095Y-68313747D01*
X152088095Y-68313747D02*
X152088095Y-68170890D01*
X152088095Y-68170890D02*
X152135714Y-67980414D01*
X152135714Y-67980414D02*
X152183333Y-67885176D01*
X152183333Y-67885176D02*
X152278571Y-67789938D01*
X152278571Y-67789938D02*
X152421428Y-67742319D01*
X152421428Y-67742319D02*
X152516666Y-67742319D01*
X152516666Y-67742319D02*
X152659523Y-67789938D01*
X152659523Y-67789938D02*
X152707142Y-67837557D01*
X153659523Y-68742319D02*
X153088095Y-68742319D01*
X153373809Y-68742319D02*
X153373809Y-67742319D01*
X153373809Y-67742319D02*
X153278571Y-67885176D01*
X153278571Y-67885176D02*
X153183333Y-67980414D01*
X153183333Y-67980414D02*
X153088095Y-68028033D01*
X154230952Y-68170890D02*
X154135714Y-68123271D01*
X154135714Y-68123271D02*
X154088095Y-68075652D01*
X154088095Y-68075652D02*
X154040476Y-67980414D01*
X154040476Y-67980414D02*
X154040476Y-67932795D01*
X154040476Y-67932795D02*
X154088095Y-67837557D01*
X154088095Y-67837557D02*
X154135714Y-67789938D01*
X154135714Y-67789938D02*
X154230952Y-67742319D01*
X154230952Y-67742319D02*
X154421428Y-67742319D01*
X154421428Y-67742319D02*
X154516666Y-67789938D01*
X154516666Y-67789938D02*
X154564285Y-67837557D01*
X154564285Y-67837557D02*
X154611904Y-67932795D01*
X154611904Y-67932795D02*
X154611904Y-67980414D01*
X154611904Y-67980414D02*
X154564285Y-68075652D01*
X154564285Y-68075652D02*
X154516666Y-68123271D01*
X154516666Y-68123271D02*
X154421428Y-68170890D01*
X154421428Y-68170890D02*
X154230952Y-68170890D01*
X154230952Y-68170890D02*
X154135714Y-68218509D01*
X154135714Y-68218509D02*
X154088095Y-68266128D01*
X154088095Y-68266128D02*
X154040476Y-68361366D01*
X154040476Y-68361366D02*
X154040476Y-68551842D01*
X154040476Y-68551842D02*
X154088095Y-68647080D01*
X154088095Y-68647080D02*
X154135714Y-68694700D01*
X154135714Y-68694700D02*
X154230952Y-68742319D01*
X154230952Y-68742319D02*
X154421428Y-68742319D01*
X154421428Y-68742319D02*
X154516666Y-68694700D01*
X154516666Y-68694700D02*
X154564285Y-68647080D01*
X154564285Y-68647080D02*
X154611904Y-68551842D01*
X154611904Y-68551842D02*
X154611904Y-68361366D01*
X154611904Y-68361366D02*
X154564285Y-68266128D01*
X154564285Y-68266128D02*
X154516666Y-68218509D01*
X154516666Y-68218509D02*
X154421428Y-68170890D01*
X150307142Y-86847080D02*
X150259523Y-86894700D01*
X150259523Y-86894700D02*
X150116666Y-86942319D01*
X150116666Y-86942319D02*
X150021428Y-86942319D01*
X150021428Y-86942319D02*
X149878571Y-86894700D01*
X149878571Y-86894700D02*
X149783333Y-86799461D01*
X149783333Y-86799461D02*
X149735714Y-86704223D01*
X149735714Y-86704223D02*
X149688095Y-86513747D01*
X149688095Y-86513747D02*
X149688095Y-86370890D01*
X149688095Y-86370890D02*
X149735714Y-86180414D01*
X149735714Y-86180414D02*
X149783333Y-86085176D01*
X149783333Y-86085176D02*
X149878571Y-85989938D01*
X149878571Y-85989938D02*
X150021428Y-85942319D01*
X150021428Y-85942319D02*
X150116666Y-85942319D01*
X150116666Y-85942319D02*
X150259523Y-85989938D01*
X150259523Y-85989938D02*
X150307142Y-86037557D01*
X150688095Y-86037557D02*
X150735714Y-85989938D01*
X150735714Y-85989938D02*
X150830952Y-85942319D01*
X150830952Y-85942319D02*
X151069047Y-85942319D01*
X151069047Y-85942319D02*
X151164285Y-85989938D01*
X151164285Y-85989938D02*
X151211904Y-86037557D01*
X151211904Y-86037557D02*
X151259523Y-86132795D01*
X151259523Y-86132795D02*
X151259523Y-86228033D01*
X151259523Y-86228033D02*
X151211904Y-86370890D01*
X151211904Y-86370890D02*
X150640476Y-86942319D01*
X150640476Y-86942319D02*
X151259523Y-86942319D01*
X152164285Y-85942319D02*
X151688095Y-85942319D01*
X151688095Y-85942319D02*
X151640476Y-86418509D01*
X151640476Y-86418509D02*
X151688095Y-86370890D01*
X151688095Y-86370890D02*
X151783333Y-86323271D01*
X151783333Y-86323271D02*
X152021428Y-86323271D01*
X152021428Y-86323271D02*
X152116666Y-86370890D01*
X152116666Y-86370890D02*
X152164285Y-86418509D01*
X152164285Y-86418509D02*
X152211904Y-86513747D01*
X152211904Y-86513747D02*
X152211904Y-86751842D01*
X152211904Y-86751842D02*
X152164285Y-86847080D01*
X152164285Y-86847080D02*
X152116666Y-86894700D01*
X152116666Y-86894700D02*
X152021428Y-86942319D01*
X152021428Y-86942319D02*
X151783333Y-86942319D01*
X151783333Y-86942319D02*
X151688095Y-86894700D01*
X151688095Y-86894700D02*
X151640476Y-86847080D01*
X160707142Y-71142319D02*
X160373809Y-70666128D01*
X160135714Y-71142319D02*
X160135714Y-70142319D01*
X160135714Y-70142319D02*
X160516666Y-70142319D01*
X160516666Y-70142319D02*
X160611904Y-70189938D01*
X160611904Y-70189938D02*
X160659523Y-70237557D01*
X160659523Y-70237557D02*
X160707142Y-70332795D01*
X160707142Y-70332795D02*
X160707142Y-70475652D01*
X160707142Y-70475652D02*
X160659523Y-70570890D01*
X160659523Y-70570890D02*
X160611904Y-70618509D01*
X160611904Y-70618509D02*
X160516666Y-70666128D01*
X160516666Y-70666128D02*
X160135714Y-70666128D01*
X161088095Y-70237557D02*
X161135714Y-70189938D01*
X161135714Y-70189938D02*
X161230952Y-70142319D01*
X161230952Y-70142319D02*
X161469047Y-70142319D01*
X161469047Y-70142319D02*
X161564285Y-70189938D01*
X161564285Y-70189938D02*
X161611904Y-70237557D01*
X161611904Y-70237557D02*
X161659523Y-70332795D01*
X161659523Y-70332795D02*
X161659523Y-70428033D01*
X161659523Y-70428033D02*
X161611904Y-70570890D01*
X161611904Y-70570890D02*
X161040476Y-71142319D01*
X161040476Y-71142319D02*
X161659523Y-71142319D01*
X162611904Y-71142319D02*
X162040476Y-71142319D01*
X162326190Y-71142319D02*
X162326190Y-70142319D01*
X162326190Y-70142319D02*
X162230952Y-70285176D01*
X162230952Y-70285176D02*
X162135714Y-70380414D01*
X162135714Y-70380414D02*
X162040476Y-70428033D01*
X148907142Y-75142319D02*
X148573809Y-74666128D01*
X148335714Y-75142319D02*
X148335714Y-74142319D01*
X148335714Y-74142319D02*
X148716666Y-74142319D01*
X148716666Y-74142319D02*
X148811904Y-74189938D01*
X148811904Y-74189938D02*
X148859523Y-74237557D01*
X148859523Y-74237557D02*
X148907142Y-74332795D01*
X148907142Y-74332795D02*
X148907142Y-74475652D01*
X148907142Y-74475652D02*
X148859523Y-74570890D01*
X148859523Y-74570890D02*
X148811904Y-74618509D01*
X148811904Y-74618509D02*
X148716666Y-74666128D01*
X148716666Y-74666128D02*
X148335714Y-74666128D01*
X149859523Y-75142319D02*
X149288095Y-75142319D01*
X149573809Y-75142319D02*
X149573809Y-74142319D01*
X149573809Y-74142319D02*
X149478571Y-74285176D01*
X149478571Y-74285176D02*
X149383333Y-74380414D01*
X149383333Y-74380414D02*
X149288095Y-74428033D01*
X150764285Y-74142319D02*
X150288095Y-74142319D01*
X150288095Y-74142319D02*
X150240476Y-74618509D01*
X150240476Y-74618509D02*
X150288095Y-74570890D01*
X150288095Y-74570890D02*
X150383333Y-74523271D01*
X150383333Y-74523271D02*
X150621428Y-74523271D01*
X150621428Y-74523271D02*
X150716666Y-74570890D01*
X150716666Y-74570890D02*
X150764285Y-74618509D01*
X150764285Y-74618509D02*
X150811904Y-74713747D01*
X150811904Y-74713747D02*
X150811904Y-74951842D01*
X150811904Y-74951842D02*
X150764285Y-75047080D01*
X150764285Y-75047080D02*
X150716666Y-75094700D01*
X150716666Y-75094700D02*
X150621428Y-75142319D01*
X150621428Y-75142319D02*
X150383333Y-75142319D01*
X150383333Y-75142319D02*
X150288095Y-75094700D01*
X150288095Y-75094700D02*
X150240476Y-75047080D01*
X160657142Y-82359580D02*
X160609523Y-82407200D01*
X160609523Y-82407200D02*
X160466666Y-82454819D01*
X160466666Y-82454819D02*
X160371428Y-82454819D01*
X160371428Y-82454819D02*
X160228571Y-82407200D01*
X160228571Y-82407200D02*
X160133333Y-82311961D01*
X160133333Y-82311961D02*
X160085714Y-82216723D01*
X160085714Y-82216723D02*
X160038095Y-82026247D01*
X160038095Y-82026247D02*
X160038095Y-81883390D01*
X160038095Y-81883390D02*
X160085714Y-81692914D01*
X160085714Y-81692914D02*
X160133333Y-81597676D01*
X160133333Y-81597676D02*
X160228571Y-81502438D01*
X160228571Y-81502438D02*
X160371428Y-81454819D01*
X160371428Y-81454819D02*
X160466666Y-81454819D01*
X160466666Y-81454819D02*
X160609523Y-81502438D01*
X160609523Y-81502438D02*
X160657142Y-81550057D01*
X161038095Y-81550057D02*
X161085714Y-81502438D01*
X161085714Y-81502438D02*
X161180952Y-81454819D01*
X161180952Y-81454819D02*
X161419047Y-81454819D01*
X161419047Y-81454819D02*
X161514285Y-81502438D01*
X161514285Y-81502438D02*
X161561904Y-81550057D01*
X161561904Y-81550057D02*
X161609523Y-81645295D01*
X161609523Y-81645295D02*
X161609523Y-81740533D01*
X161609523Y-81740533D02*
X161561904Y-81883390D01*
X161561904Y-81883390D02*
X160990476Y-82454819D01*
X160990476Y-82454819D02*
X161609523Y-82454819D01*
X161990476Y-81550057D02*
X162038095Y-81502438D01*
X162038095Y-81502438D02*
X162133333Y-81454819D01*
X162133333Y-81454819D02*
X162371428Y-81454819D01*
X162371428Y-81454819D02*
X162466666Y-81502438D01*
X162466666Y-81502438D02*
X162514285Y-81550057D01*
X162514285Y-81550057D02*
X162561904Y-81645295D01*
X162561904Y-81645295D02*
X162561904Y-81740533D01*
X162561904Y-81740533D02*
X162514285Y-81883390D01*
X162514285Y-81883390D02*
X161942857Y-82454819D01*
X161942857Y-82454819D02*
X162561904Y-82454819D01*
X169688095Y-69742319D02*
X170259523Y-69742319D01*
X169973809Y-70742319D02*
X169973809Y-69742319D01*
X170592857Y-70742319D02*
X170592857Y-69742319D01*
X170592857Y-69742319D02*
X170973809Y-69742319D01*
X170973809Y-69742319D02*
X171069047Y-69789938D01*
X171069047Y-69789938D02*
X171116666Y-69837557D01*
X171116666Y-69837557D02*
X171164285Y-69932795D01*
X171164285Y-69932795D02*
X171164285Y-70075652D01*
X171164285Y-70075652D02*
X171116666Y-70170890D01*
X171116666Y-70170890D02*
X171069047Y-70218509D01*
X171069047Y-70218509D02*
X170973809Y-70266128D01*
X170973809Y-70266128D02*
X170592857Y-70266128D01*
X172021428Y-69742319D02*
X171830952Y-69742319D01*
X171830952Y-69742319D02*
X171735714Y-69789938D01*
X171735714Y-69789938D02*
X171688095Y-69837557D01*
X171688095Y-69837557D02*
X171592857Y-69980414D01*
X171592857Y-69980414D02*
X171545238Y-70170890D01*
X171545238Y-70170890D02*
X171545238Y-70551842D01*
X171545238Y-70551842D02*
X171592857Y-70647080D01*
X171592857Y-70647080D02*
X171640476Y-70694700D01*
X171640476Y-70694700D02*
X171735714Y-70742319D01*
X171735714Y-70742319D02*
X171926190Y-70742319D01*
X171926190Y-70742319D02*
X172021428Y-70694700D01*
X172021428Y-70694700D02*
X172069047Y-70647080D01*
X172069047Y-70647080D02*
X172116666Y-70551842D01*
X172116666Y-70551842D02*
X172116666Y-70313747D01*
X172116666Y-70313747D02*
X172069047Y-70218509D01*
X172069047Y-70218509D02*
X172021428Y-70170890D01*
X172021428Y-70170890D02*
X171926190Y-70123271D01*
X171926190Y-70123271D02*
X171735714Y-70123271D01*
X171735714Y-70123271D02*
X171640476Y-70170890D01*
X171640476Y-70170890D02*
X171592857Y-70218509D01*
X171592857Y-70218509D02*
X171545238Y-70313747D01*
X169235714Y-71142319D02*
X169569047Y-72142319D01*
X169569047Y-72142319D02*
X169902380Y-71142319D01*
X170807142Y-72142319D02*
X170473809Y-71666128D01*
X170235714Y-72142319D02*
X170235714Y-71142319D01*
X170235714Y-71142319D02*
X170616666Y-71142319D01*
X170616666Y-71142319D02*
X170711904Y-71189938D01*
X170711904Y-71189938D02*
X170759523Y-71237557D01*
X170759523Y-71237557D02*
X170807142Y-71332795D01*
X170807142Y-71332795D02*
X170807142Y-71475652D01*
X170807142Y-71475652D02*
X170759523Y-71570890D01*
X170759523Y-71570890D02*
X170711904Y-71618509D01*
X170711904Y-71618509D02*
X170616666Y-71666128D01*
X170616666Y-71666128D02*
X170235714Y-71666128D01*
X171235714Y-71618509D02*
X171569047Y-71618509D01*
X171711904Y-72142319D02*
X171235714Y-72142319D01*
X171235714Y-72142319D02*
X171235714Y-71142319D01*
X171235714Y-71142319D02*
X171711904Y-71142319D01*
X172473809Y-71618509D02*
X172140476Y-71618509D01*
X172140476Y-72142319D02*
X172140476Y-71142319D01*
X172140476Y-71142319D02*
X172616666Y-71142319D01*
X149688095Y-69742319D02*
X150259523Y-69742319D01*
X149973809Y-70742319D02*
X149973809Y-69742319D01*
X150592857Y-70742319D02*
X150592857Y-69742319D01*
X150592857Y-69742319D02*
X150973809Y-69742319D01*
X150973809Y-69742319D02*
X151069047Y-69789938D01*
X151069047Y-69789938D02*
X151116666Y-69837557D01*
X151116666Y-69837557D02*
X151164285Y-69932795D01*
X151164285Y-69932795D02*
X151164285Y-70075652D01*
X151164285Y-70075652D02*
X151116666Y-70170890D01*
X151116666Y-70170890D02*
X151069047Y-70218509D01*
X151069047Y-70218509D02*
X150973809Y-70266128D01*
X150973809Y-70266128D02*
X150592857Y-70266128D01*
X152069047Y-69742319D02*
X151592857Y-69742319D01*
X151592857Y-69742319D02*
X151545238Y-70218509D01*
X151545238Y-70218509D02*
X151592857Y-70170890D01*
X151592857Y-70170890D02*
X151688095Y-70123271D01*
X151688095Y-70123271D02*
X151926190Y-70123271D01*
X151926190Y-70123271D02*
X152021428Y-70170890D01*
X152021428Y-70170890D02*
X152069047Y-70218509D01*
X152069047Y-70218509D02*
X152116666Y-70313747D01*
X152116666Y-70313747D02*
X152116666Y-70551842D01*
X152116666Y-70551842D02*
X152069047Y-70647080D01*
X152069047Y-70647080D02*
X152021428Y-70694700D01*
X152021428Y-70694700D02*
X151926190Y-70742319D01*
X151926190Y-70742319D02*
X151688095Y-70742319D01*
X151688095Y-70742319D02*
X151592857Y-70694700D01*
X151592857Y-70694700D02*
X151545238Y-70647080D01*
X150188095Y-71189938D02*
X150092857Y-71142319D01*
X150092857Y-71142319D02*
X149950000Y-71142319D01*
X149950000Y-71142319D02*
X149807143Y-71189938D01*
X149807143Y-71189938D02*
X149711905Y-71285176D01*
X149711905Y-71285176D02*
X149664286Y-71380414D01*
X149664286Y-71380414D02*
X149616667Y-71570890D01*
X149616667Y-71570890D02*
X149616667Y-71713747D01*
X149616667Y-71713747D02*
X149664286Y-71904223D01*
X149664286Y-71904223D02*
X149711905Y-71999461D01*
X149711905Y-71999461D02*
X149807143Y-72094700D01*
X149807143Y-72094700D02*
X149950000Y-72142319D01*
X149950000Y-72142319D02*
X150045238Y-72142319D01*
X150045238Y-72142319D02*
X150188095Y-72094700D01*
X150188095Y-72094700D02*
X150235714Y-72047080D01*
X150235714Y-72047080D02*
X150235714Y-71713747D01*
X150235714Y-71713747D02*
X150045238Y-71713747D01*
X150664286Y-72142319D02*
X150664286Y-71142319D01*
X150664286Y-71142319D02*
X151235714Y-72142319D01*
X151235714Y-72142319D02*
X151235714Y-71142319D01*
X151711905Y-72142319D02*
X151711905Y-71142319D01*
X151711905Y-71142319D02*
X151950000Y-71142319D01*
X151950000Y-71142319D02*
X152092857Y-71189938D01*
X152092857Y-71189938D02*
X152188095Y-71285176D01*
X152188095Y-71285176D02*
X152235714Y-71380414D01*
X152235714Y-71380414D02*
X152283333Y-71570890D01*
X152283333Y-71570890D02*
X152283333Y-71713747D01*
X152283333Y-71713747D02*
X152235714Y-71904223D01*
X152235714Y-71904223D02*
X152188095Y-71999461D01*
X152188095Y-71999461D02*
X152092857Y-72094700D01*
X152092857Y-72094700D02*
X151950000Y-72142319D01*
X151950000Y-72142319D02*
X151711905Y-72142319D01*
X160457142Y-78047080D02*
X160409523Y-78094700D01*
X160409523Y-78094700D02*
X160266666Y-78142319D01*
X160266666Y-78142319D02*
X160171428Y-78142319D01*
X160171428Y-78142319D02*
X160028571Y-78094700D01*
X160028571Y-78094700D02*
X159933333Y-77999461D01*
X159933333Y-77999461D02*
X159885714Y-77904223D01*
X159885714Y-77904223D02*
X159838095Y-77713747D01*
X159838095Y-77713747D02*
X159838095Y-77570890D01*
X159838095Y-77570890D02*
X159885714Y-77380414D01*
X159885714Y-77380414D02*
X159933333Y-77285176D01*
X159933333Y-77285176D02*
X160028571Y-77189938D01*
X160028571Y-77189938D02*
X160171428Y-77142319D01*
X160171428Y-77142319D02*
X160266666Y-77142319D01*
X160266666Y-77142319D02*
X160409523Y-77189938D01*
X160409523Y-77189938D02*
X160457142Y-77237557D01*
X160838095Y-77237557D02*
X160885714Y-77189938D01*
X160885714Y-77189938D02*
X160980952Y-77142319D01*
X160980952Y-77142319D02*
X161219047Y-77142319D01*
X161219047Y-77142319D02*
X161314285Y-77189938D01*
X161314285Y-77189938D02*
X161361904Y-77237557D01*
X161361904Y-77237557D02*
X161409523Y-77332795D01*
X161409523Y-77332795D02*
X161409523Y-77428033D01*
X161409523Y-77428033D02*
X161361904Y-77570890D01*
X161361904Y-77570890D02*
X160790476Y-78142319D01*
X160790476Y-78142319D02*
X161409523Y-78142319D01*
X162361904Y-78142319D02*
X161790476Y-78142319D01*
X162076190Y-78142319D02*
X162076190Y-77142319D01*
X162076190Y-77142319D02*
X161980952Y-77285176D01*
X161980952Y-77285176D02*
X161885714Y-77380414D01*
X161885714Y-77380414D02*
X161790476Y-77428033D01*
X156611905Y-72742319D02*
X156611905Y-71742319D01*
X156611905Y-71742319D02*
X156850000Y-71742319D01*
X156850000Y-71742319D02*
X156992857Y-71789938D01*
X156992857Y-71789938D02*
X157088095Y-71885176D01*
X157088095Y-71885176D02*
X157135714Y-71980414D01*
X157135714Y-71980414D02*
X157183333Y-72170890D01*
X157183333Y-72170890D02*
X157183333Y-72313747D01*
X157183333Y-72313747D02*
X157135714Y-72504223D01*
X157135714Y-72504223D02*
X157088095Y-72599461D01*
X157088095Y-72599461D02*
X156992857Y-72694700D01*
X156992857Y-72694700D02*
X156850000Y-72742319D01*
X156850000Y-72742319D02*
X156611905Y-72742319D01*
X158088095Y-71742319D02*
X157611905Y-71742319D01*
X157611905Y-71742319D02*
X157564286Y-72218509D01*
X157564286Y-72218509D02*
X157611905Y-72170890D01*
X157611905Y-72170890D02*
X157707143Y-72123271D01*
X157707143Y-72123271D02*
X157945238Y-72123271D01*
X157945238Y-72123271D02*
X158040476Y-72170890D01*
X158040476Y-72170890D02*
X158088095Y-72218509D01*
X158088095Y-72218509D02*
X158135714Y-72313747D01*
X158135714Y-72313747D02*
X158135714Y-72551842D01*
X158135714Y-72551842D02*
X158088095Y-72647080D01*
X158088095Y-72647080D02*
X158040476Y-72694700D01*
X158040476Y-72694700D02*
X157945238Y-72742319D01*
X157945238Y-72742319D02*
X157707143Y-72742319D01*
X157707143Y-72742319D02*
X157611905Y-72694700D01*
X157611905Y-72694700D02*
X157564286Y-72647080D01*
X165011905Y-80142319D02*
X165011905Y-79142319D01*
X165011905Y-79142319D02*
X165250000Y-79142319D01*
X165250000Y-79142319D02*
X165392857Y-79189938D01*
X165392857Y-79189938D02*
X165488095Y-79285176D01*
X165488095Y-79285176D02*
X165535714Y-79380414D01*
X165535714Y-79380414D02*
X165583333Y-79570890D01*
X165583333Y-79570890D02*
X165583333Y-79713747D01*
X165583333Y-79713747D02*
X165535714Y-79904223D01*
X165535714Y-79904223D02*
X165488095Y-79999461D01*
X165488095Y-79999461D02*
X165392857Y-80094700D01*
X165392857Y-80094700D02*
X165250000Y-80142319D01*
X165250000Y-80142319D02*
X165011905Y-80142319D01*
X166440476Y-79142319D02*
X166250000Y-79142319D01*
X166250000Y-79142319D02*
X166154762Y-79189938D01*
X166154762Y-79189938D02*
X166107143Y-79237557D01*
X166107143Y-79237557D02*
X166011905Y-79380414D01*
X166011905Y-79380414D02*
X165964286Y-79570890D01*
X165964286Y-79570890D02*
X165964286Y-79951842D01*
X165964286Y-79951842D02*
X166011905Y-80047080D01*
X166011905Y-80047080D02*
X166059524Y-80094700D01*
X166059524Y-80094700D02*
X166154762Y-80142319D01*
X166154762Y-80142319D02*
X166345238Y-80142319D01*
X166345238Y-80142319D02*
X166440476Y-80094700D01*
X166440476Y-80094700D02*
X166488095Y-80047080D01*
X166488095Y-80047080D02*
X166535714Y-79951842D01*
X166535714Y-79951842D02*
X166535714Y-79713747D01*
X166535714Y-79713747D02*
X166488095Y-79618509D01*
X166488095Y-79618509D02*
X166440476Y-79570890D01*
X166440476Y-79570890D02*
X166345238Y-79523271D01*
X166345238Y-79523271D02*
X166154762Y-79523271D01*
X166154762Y-79523271D02*
X166059524Y-79570890D01*
X166059524Y-79570890D02*
X166011905Y-79618509D01*
X166011905Y-79618509D02*
X165964286Y-79713747D01*
X152988095Y-74054819D02*
X152988095Y-74864342D01*
X152988095Y-74864342D02*
X153035714Y-74959580D01*
X153035714Y-74959580D02*
X153083333Y-75007200D01*
X153083333Y-75007200D02*
X153178571Y-75054819D01*
X153178571Y-75054819D02*
X153369047Y-75054819D01*
X153369047Y-75054819D02*
X153464285Y-75007200D01*
X153464285Y-75007200D02*
X153511904Y-74959580D01*
X153511904Y-74959580D02*
X153559523Y-74864342D01*
X153559523Y-74864342D02*
X153559523Y-74054819D01*
X154083333Y-75054819D02*
X154273809Y-75054819D01*
X154273809Y-75054819D02*
X154369047Y-75007200D01*
X154369047Y-75007200D02*
X154416666Y-74959580D01*
X154416666Y-74959580D02*
X154511904Y-74816723D01*
X154511904Y-74816723D02*
X154559523Y-74626247D01*
X154559523Y-74626247D02*
X154559523Y-74245295D01*
X154559523Y-74245295D02*
X154511904Y-74150057D01*
X154511904Y-74150057D02*
X154464285Y-74102438D01*
X154464285Y-74102438D02*
X154369047Y-74054819D01*
X154369047Y-74054819D02*
X154178571Y-74054819D01*
X154178571Y-74054819D02*
X154083333Y-74102438D01*
X154083333Y-74102438D02*
X154035714Y-74150057D01*
X154035714Y-74150057D02*
X153988095Y-74245295D01*
X153988095Y-74245295D02*
X153988095Y-74483390D01*
X153988095Y-74483390D02*
X154035714Y-74578628D01*
X154035714Y-74578628D02*
X154083333Y-74626247D01*
X154083333Y-74626247D02*
X154178571Y-74673866D01*
X154178571Y-74673866D02*
X154369047Y-74673866D01*
X154369047Y-74673866D02*
X154464285Y-74626247D01*
X154464285Y-74626247D02*
X154511904Y-74578628D01*
X154511904Y-74578628D02*
X154559523Y-74483390D01*
X150307142Y-88342319D02*
X149973809Y-87866128D01*
X149735714Y-88342319D02*
X149735714Y-87342319D01*
X149735714Y-87342319D02*
X150116666Y-87342319D01*
X150116666Y-87342319D02*
X150211904Y-87389938D01*
X150211904Y-87389938D02*
X150259523Y-87437557D01*
X150259523Y-87437557D02*
X150307142Y-87532795D01*
X150307142Y-87532795D02*
X150307142Y-87675652D01*
X150307142Y-87675652D02*
X150259523Y-87770890D01*
X150259523Y-87770890D02*
X150211904Y-87818509D01*
X150211904Y-87818509D02*
X150116666Y-87866128D01*
X150116666Y-87866128D02*
X149735714Y-87866128D01*
X151259523Y-88342319D02*
X150688095Y-88342319D01*
X150973809Y-88342319D02*
X150973809Y-87342319D01*
X150973809Y-87342319D02*
X150878571Y-87485176D01*
X150878571Y-87485176D02*
X150783333Y-87580414D01*
X150783333Y-87580414D02*
X150688095Y-87628033D01*
X151592857Y-87342319D02*
X152211904Y-87342319D01*
X152211904Y-87342319D02*
X151878571Y-87723271D01*
X151878571Y-87723271D02*
X152021428Y-87723271D01*
X152021428Y-87723271D02*
X152116666Y-87770890D01*
X152116666Y-87770890D02*
X152164285Y-87818509D01*
X152164285Y-87818509D02*
X152211904Y-87913747D01*
X152211904Y-87913747D02*
X152211904Y-88151842D01*
X152211904Y-88151842D02*
X152164285Y-88247080D01*
X152164285Y-88247080D02*
X152116666Y-88294700D01*
X152116666Y-88294700D02*
X152021428Y-88342319D01*
X152021428Y-88342319D02*
X151735714Y-88342319D01*
X151735714Y-88342319D02*
X151640476Y-88294700D01*
X151640476Y-88294700D02*
X151592857Y-88247080D01*
X152616666Y-60342319D02*
X152616666Y-61056604D01*
X152616666Y-61056604D02*
X152569047Y-61199461D01*
X152569047Y-61199461D02*
X152473809Y-61294700D01*
X152473809Y-61294700D02*
X152330952Y-61342319D01*
X152330952Y-61342319D02*
X152235714Y-61342319D01*
X153521428Y-60675652D02*
X153521428Y-61342319D01*
X153283333Y-60294700D02*
X153045238Y-61008985D01*
X153045238Y-61008985D02*
X153664285Y-61008985D01*
D11*
%TO.C,T1*%
X175300000Y-72837500D02*
X174050000Y-72837500D01*
X175010000Y-73127500D02*
X169040000Y-73127500D01*
X169040000Y-73127500D02*
X169040000Y-88247500D01*
X175000000Y-73137500D02*
X174250000Y-73137500D01*
X174250000Y-73137500D02*
X174250000Y-74937500D01*
X172750000Y-73137500D02*
X172750000Y-73887500D01*
X172750000Y-73887500D02*
X169800000Y-73887500D01*
X169800000Y-73887500D02*
X169800000Y-80687500D01*
X175300000Y-74087500D02*
X175300000Y-72837500D01*
X175000000Y-74937500D02*
X175000000Y-73137500D01*
X174250000Y-74937500D02*
X175000000Y-74937500D01*
X175000000Y-76437500D02*
X174250000Y-76437500D01*
X174250000Y-76437500D02*
X174250000Y-84937500D01*
X175000000Y-84937500D02*
X175000000Y-76437500D01*
X174250000Y-84937500D02*
X175000000Y-84937500D01*
X175000000Y-86437500D02*
X174250000Y-86437500D01*
X174250000Y-86437500D02*
X174250000Y-88237500D01*
X172750000Y-87487500D02*
X169800000Y-87487500D01*
X169800000Y-87487500D02*
X169800000Y-80687500D01*
X175000000Y-88237500D02*
X175000000Y-86437500D01*
X174250000Y-88237500D02*
X175000000Y-88237500D01*
X172750000Y-88237500D02*
X172750000Y-87487500D01*
X175010000Y-88247500D02*
X175010000Y-73127500D01*
X169040000Y-88247500D02*
X175010000Y-88247500D01*
%TO.C,C23*%
X147260000Y-82109420D02*
X147260000Y-82390580D01*
X146240000Y-82109420D02*
X146240000Y-82390580D01*
%TO.C,D4*%
X166550000Y-65469716D02*
G75*
G03*
X163274614Y-65411636I-1600000J2154716D01*
G01*
%TO.C,RV2*%
X168240000Y-61337500D02*
X168240000Y-61587500D01*
X168240000Y-67047500D02*
X168240000Y-63507500D01*
X168340000Y-61137500D02*
X168340000Y-61337500D01*
X168340000Y-61137500D02*
X169760000Y-61137500D01*
X168340000Y-61337500D02*
X168240000Y-61337500D01*
X169760000Y-61337500D02*
X169760000Y-61137500D01*
X169760000Y-61337500D02*
X173340000Y-61337500D01*
X171040000Y-68357500D02*
X169550000Y-68357500D01*
X173340000Y-61137500D02*
X174760000Y-61137500D01*
X173340000Y-61337500D02*
X173340000Y-61137500D01*
X173550000Y-68357500D02*
X172060000Y-68357500D01*
X174760000Y-61137500D02*
X174760000Y-61337500D01*
X174760000Y-61337500D02*
X174860000Y-61337500D01*
X174860000Y-61337500D02*
X174860000Y-62027500D01*
X174860000Y-63067500D02*
X174860000Y-67047500D01*
X168240000Y-67047500D02*
G75*
G03*
X169550000Y-68357500I1310000J0D01*
G01*
X173550000Y-68357500D02*
G75*
G03*
X174860000Y-67047500I0J1310000D01*
G01*
%TO.C,R14*%
X147685000Y-78497936D02*
X147685000Y-78952064D01*
X146215000Y-78497936D02*
X146215000Y-78952064D01*
%TO.C,C18*%
X158389000Y-60954880D02*
X158389000Y-61584880D01*
X158704000Y-61269880D02*
X158074000Y-61269880D01*
X159780000Y-64455121D02*
X153320000Y-64455121D01*
X159780000Y-64495121D02*
X153320000Y-64495121D01*
X159780000Y-64535121D02*
X153320000Y-64535121D01*
X159778000Y-64575121D02*
X153322000Y-64575121D01*
X159777000Y-64615121D02*
X153323000Y-64615121D01*
X159774000Y-64655121D02*
X153326000Y-64655121D01*
X159772000Y-64695121D02*
X157590000Y-64695121D01*
X155510000Y-64695121D02*
X153328000Y-64695121D01*
X159768000Y-64735121D02*
X157590000Y-64735121D01*
X155510000Y-64735121D02*
X153332000Y-64735121D01*
X159765000Y-64775121D02*
X157590000Y-64775121D01*
X155510000Y-64775121D02*
X153335000Y-64775121D01*
X159761000Y-64815121D02*
X157590000Y-64815121D01*
X155510000Y-64815121D02*
X153339000Y-64815121D01*
X159756000Y-64855121D02*
X157590000Y-64855121D01*
X155510000Y-64855121D02*
X153344000Y-64855121D01*
X159751000Y-64895121D02*
X157590000Y-64895121D01*
X155510000Y-64895121D02*
X153349000Y-64895121D01*
X159745000Y-64935121D02*
X157590000Y-64935121D01*
X155510000Y-64935121D02*
X153355000Y-64935121D01*
X159739000Y-64975121D02*
X157590000Y-64975121D01*
X155510000Y-64975121D02*
X153361000Y-64975121D01*
X159732000Y-65015121D02*
X157590000Y-65015121D01*
X155510000Y-65015121D02*
X153368000Y-65015121D01*
X159725000Y-65055121D02*
X157590000Y-65055121D01*
X155510000Y-65055121D02*
X153375000Y-65055121D01*
X159717000Y-65095121D02*
X157590000Y-65095121D01*
X155510000Y-65095121D02*
X153383000Y-65095121D01*
X159709000Y-65135121D02*
X157590000Y-65135121D01*
X155510000Y-65135121D02*
X153391000Y-65135121D01*
X159700000Y-65176121D02*
X157590000Y-65176121D01*
X155510000Y-65176121D02*
X153400000Y-65176121D01*
X159691000Y-65216121D02*
X157590000Y-65216121D01*
X155510000Y-65216121D02*
X153409000Y-65216121D01*
X159681000Y-65256121D02*
X157590000Y-65256121D01*
X155510000Y-65256121D02*
X153419000Y-65256121D01*
X159671000Y-65296121D02*
X157590000Y-65296121D01*
X155510000Y-65296121D02*
X153429000Y-65296121D01*
X159660000Y-65336121D02*
X157590000Y-65336121D01*
X155510000Y-65336121D02*
X153440000Y-65336121D01*
X159648000Y-65376121D02*
X157590000Y-65376121D01*
X155510000Y-65376121D02*
X153452000Y-65376121D01*
X159636000Y-65416121D02*
X157590000Y-65416121D01*
X155510000Y-65416121D02*
X153464000Y-65416121D01*
X159624000Y-65456121D02*
X157590000Y-65456121D01*
X155510000Y-65456121D02*
X153476000Y-65456121D01*
X159611000Y-65496121D02*
X157590000Y-65496121D01*
X155510000Y-65496121D02*
X153489000Y-65496121D01*
X159597000Y-65536121D02*
X157590000Y-65536121D01*
X155510000Y-65536121D02*
X153503000Y-65536121D01*
X159583000Y-65576121D02*
X157590000Y-65576121D01*
X155510000Y-65576121D02*
X153517000Y-65576121D01*
X159568000Y-65616121D02*
X157590000Y-65616121D01*
X155510000Y-65616121D02*
X153532000Y-65616121D01*
X159552000Y-65656121D02*
X157590000Y-65656121D01*
X155510000Y-65656121D02*
X153548000Y-65656121D01*
X159536000Y-65696121D02*
X157590000Y-65696121D01*
X155510000Y-65696121D02*
X153564000Y-65696121D01*
X159520000Y-65736121D02*
X157590000Y-65736121D01*
X155510000Y-65736121D02*
X153580000Y-65736121D01*
X159502000Y-65776121D02*
X157590000Y-65776121D01*
X155510000Y-65776121D02*
X153598000Y-65776121D01*
X159484000Y-65816121D02*
X157590000Y-65816121D01*
X155510000Y-65816121D02*
X153616000Y-65816121D01*
X159466000Y-65856121D02*
X157590000Y-65856121D01*
X155510000Y-65856121D02*
X153634000Y-65856121D01*
X159446000Y-65896121D02*
X157590000Y-65896121D01*
X155510000Y-65896121D02*
X153654000Y-65896121D01*
X159426000Y-65936121D02*
X157590000Y-65936121D01*
X155510000Y-65936121D02*
X153674000Y-65936121D01*
X159406000Y-65976121D02*
X157590000Y-65976121D01*
X155510000Y-65976121D02*
X153694000Y-65976121D01*
X159384000Y-66016121D02*
X157590000Y-66016121D01*
X155510000Y-66016121D02*
X153716000Y-66016121D01*
X159362000Y-66056121D02*
X157590000Y-66056121D01*
X155510000Y-66056121D02*
X153738000Y-66056121D01*
X159340000Y-66096121D02*
X157590000Y-66096121D01*
X155510000Y-66096121D02*
X153760000Y-66096121D01*
X159316000Y-66136121D02*
X157590000Y-66136121D01*
X155510000Y-66136121D02*
X153784000Y-66136121D01*
X159292000Y-66176121D02*
X157590000Y-66176121D01*
X155510000Y-66176121D02*
X153808000Y-66176121D01*
X159266000Y-66216121D02*
X157590000Y-66216121D01*
X155510000Y-66216121D02*
X153834000Y-66216121D01*
X159240000Y-66256121D02*
X157590000Y-66256121D01*
X155510000Y-66256121D02*
X153860000Y-66256121D01*
X159214000Y-66296121D02*
X157590000Y-66296121D01*
X155510000Y-66296121D02*
X153886000Y-66296121D01*
X159186000Y-66336121D02*
X157590000Y-66336121D01*
X155510000Y-66336121D02*
X153914000Y-66336121D01*
X159157000Y-66376121D02*
X157590000Y-66376121D01*
X155510000Y-66376121D02*
X153943000Y-66376121D01*
X159128000Y-66416121D02*
X157590000Y-66416121D01*
X155510000Y-66416121D02*
X153972000Y-66416121D01*
X159098000Y-66456121D02*
X157590000Y-66456121D01*
X155510000Y-66456121D02*
X154002000Y-66456121D01*
X159066000Y-66496121D02*
X157590000Y-66496121D01*
X155510000Y-66496121D02*
X154034000Y-66496121D01*
X159034000Y-66536121D02*
X157590000Y-66536121D01*
X155510000Y-66536121D02*
X154066000Y-66536121D01*
X159000000Y-66576121D02*
X157590000Y-66576121D01*
X155510000Y-66576121D02*
X154100000Y-66576121D01*
X158966000Y-66616121D02*
X157590000Y-66616121D01*
X155510000Y-66616121D02*
X154134000Y-66616121D01*
X158930000Y-66656121D02*
X157590000Y-66656121D01*
X155510000Y-66656121D02*
X154170000Y-66656121D01*
X158893000Y-66696121D02*
X157590000Y-66696121D01*
X155510000Y-66696121D02*
X154207000Y-66696121D01*
X158855000Y-66736121D02*
X157590000Y-66736121D01*
X155510000Y-66736121D02*
X154245000Y-66736121D01*
X158815000Y-66776121D02*
X154285000Y-66776121D01*
X158774000Y-66816121D02*
X154326000Y-66816121D01*
X158732000Y-66856121D02*
X154368000Y-66856121D01*
X158687000Y-66896121D02*
X154413000Y-66896121D01*
X158642000Y-66936121D02*
X154458000Y-66936121D01*
X158594000Y-66976121D02*
X154506000Y-66976121D01*
X158545000Y-67016121D02*
X154555000Y-67016121D01*
X158494000Y-67056121D02*
X154606000Y-67056121D01*
X158440000Y-67096121D02*
X154660000Y-67096121D01*
X158384000Y-67136121D02*
X154716000Y-67136121D01*
X158326000Y-67176121D02*
X154774000Y-67176121D01*
X158264000Y-67216121D02*
X154836000Y-67216121D01*
X158200000Y-67256121D02*
X154900000Y-67256121D01*
X158131000Y-67296121D02*
X154969000Y-67296121D01*
X158059000Y-67336121D02*
X155041000Y-67336121D01*
X157982000Y-67376121D02*
X155118000Y-67376121D01*
X157900000Y-67416121D02*
X155200000Y-67416121D01*
X157812000Y-67456121D02*
X155288000Y-67456121D01*
X157715000Y-67496121D02*
X155385000Y-67496121D01*
X157609000Y-67536121D02*
X155491000Y-67536121D01*
X157490000Y-67576121D02*
X155610000Y-67576121D01*
X157352000Y-67616121D02*
X155748000Y-67616121D01*
X157183000Y-67656121D02*
X155917000Y-67656121D01*
X156952000Y-67696121D02*
X156148000Y-67696121D01*
X159820000Y-64455121D02*
G75*
G03*
X159820000Y-64455121I-3270000J0D01*
G01*
%TO.C,C25*%
X149660000Y-78346920D02*
X149660000Y-78628080D01*
X148640000Y-78346920D02*
X148640000Y-78628080D01*
%TO.C,R21*%
X161485000Y-67660436D02*
X161485000Y-68114564D01*
X160015000Y-67660436D02*
X160015000Y-68114564D01*
%TO.C,R15*%
X146215000Y-75364564D02*
X146215000Y-74910436D01*
X147685000Y-75364564D02*
X147685000Y-74910436D01*
%TO.C,C22*%
X159410000Y-81859420D02*
X159410000Y-82140580D01*
X158390000Y-81859420D02*
X158390000Y-82140580D01*
%TO.C,TP6*%
X174450000Y-70887500D02*
G75*
G03*
X174450000Y-70887500I-700000J0D01*
G01*
%TO.C,TP5*%
X149250000Y-71087500D02*
G75*
G03*
X149250000Y-71087500I-1700000J0D01*
G01*
%TO.C,C21*%
X158390000Y-77828080D02*
X158390000Y-77546920D01*
X159410000Y-77828080D02*
X159410000Y-77546920D01*
%TO.C,D5*%
X155635000Y-68627500D02*
X155635000Y-68807500D01*
X155635000Y-68627500D02*
X159055000Y-68627500D01*
X155635000Y-70967500D02*
X155635000Y-71147500D01*
X155635000Y-71147500D02*
X159055000Y-71147500D01*
X155755000Y-68627500D02*
X155755000Y-68807500D01*
X155755000Y-70967500D02*
X155755000Y-71147500D01*
X155875000Y-68627500D02*
X155875000Y-68807500D01*
X155875000Y-70967500D02*
X155875000Y-71147500D01*
X159055000Y-68627500D02*
X159055000Y-68792500D01*
X159055000Y-70982500D02*
X159055000Y-71147500D01*
%TO.C,D6*%
X168000000Y-69787500D02*
X163500000Y-69787500D01*
X163500000Y-69787500D02*
X163500000Y-78787500D01*
X163500000Y-78787500D02*
X168000000Y-78787500D01*
X168000000Y-78787500D02*
X168000000Y-69787500D01*
X168000000Y-70537500D02*
X167250000Y-69787500D01*
X168000000Y-69787500D01*
X168000000Y-70537500D01*
G36*
X168000000Y-70537500D02*
G01*
X167250000Y-69787500D01*
X168000000Y-69787500D01*
X168000000Y-70537500D01*
G37*
%TO.C,U9*%
X153750000Y-75440000D02*
X150300000Y-75440000D01*
X153750000Y-75440000D02*
X155700000Y-75440000D01*
X153750000Y-85560000D02*
X151800000Y-85560000D01*
X153750000Y-85560000D02*
X155700000Y-85560000D01*
%TO.C,R13*%
X149485000Y-83022936D02*
X149485000Y-83477064D01*
X148015000Y-83022936D02*
X148015000Y-83477064D01*
%TO.C,J4*%
X151900000Y-60337500D02*
X150650000Y-60337500D01*
X151610000Y-60627500D02*
X145640000Y-60627500D01*
X145640000Y-60627500D02*
X145640000Y-68247500D01*
X151600000Y-60637500D02*
X150850000Y-60637500D01*
X150850000Y-60637500D02*
X150850000Y-62437500D01*
X149350000Y-60637500D02*
X149350000Y-61387500D01*
X149350000Y-61387500D02*
X146400000Y-61387500D01*
X146400000Y-61387500D02*
X146400000Y-64437500D01*
X151900000Y-61587500D02*
X151900000Y-60337500D01*
X151600000Y-62437500D02*
X151600000Y-60637500D01*
X150850000Y-62437500D02*
X151600000Y-62437500D01*
X151600000Y-63937500D02*
X150850000Y-63937500D01*
X150850000Y-63937500D02*
X150850000Y-64937500D01*
X151600000Y-64937500D02*
X151600000Y-63937500D01*
X150850000Y-64937500D02*
X151600000Y-64937500D01*
X151600000Y-66437500D02*
X150850000Y-66437500D01*
X150850000Y-66437500D02*
X150850000Y-68237500D01*
X149350000Y-67487500D02*
X146400000Y-67487500D01*
X146400000Y-67487500D02*
X146400000Y-64437500D01*
X151600000Y-68237500D02*
X151600000Y-66437500D01*
X150850000Y-68237500D02*
X151600000Y-68237500D01*
X149350000Y-68237500D02*
X149350000Y-67487500D01*
X151610000Y-68247500D02*
X151610000Y-60627500D01*
X145640000Y-68247500D02*
X151610000Y-68247500D01*
%TD*%
M02*
