%TF.GenerationSoftware,KiCad,Pcbnew,7.0.9-7.0.9~ubuntu22.04.1*%
%TF.CreationDate,2023-12-14T14:14:35+03:00*%
%TF.ProjectId,main-module,6d61696e-2d6d-46f6-9475-6c652e6b6963,rev?*%
%TF.SameCoordinates,Original*%
%TF.FileFunction,Copper,L4,Bot*%
%TF.FilePolarity,Positive*%
%FSLAX46Y46*%
G04 Gerber Fmt 4.6, Leading zero omitted, Abs format (unit mm)*
G04 Created by KiCad (PCBNEW 7.0.9-7.0.9~ubuntu22.04.1) date 2023-12-14 14:14:35*
%MOMM*%
%LPD*%
G01*
G04 APERTURE LIST*
G04 Aperture macros list*
%AMRoundRect*
0 Rectangle with rounded corners*
0 $1 Rounding radius*
0 $2 $3 $4 $5 $6 $7 $8 $9 X,Y pos of 4 corners*
0 Add a 4 corners polygon primitive as box body*
4,1,4,$2,$3,$4,$5,$6,$7,$8,$9,$2,$3,0*
0 Add four circle primitives for the rounded corners*
1,1,$1+$1,$2,$3*
1,1,$1+$1,$4,$5*
1,1,$1+$1,$6,$7*
1,1,$1+$1,$8,$9*
0 Add four rect primitives between the rounded corners*
20,1,$1+$1,$2,$3,$4,$5,0*
20,1,$1+$1,$4,$5,$6,$7,0*
20,1,$1+$1,$6,$7,$8,$9,0*
20,1,$1+$1,$8,$9,$2,$3,0*%
G04 Aperture macros list end*
%TA.AperFunction,ComponentPad*%
%ADD10RoundRect,0.250000X-0.725000X0.600000X-0.725000X-0.600000X0.725000X-0.600000X0.725000X0.600000X0*%
%TD*%
%TA.AperFunction,ComponentPad*%
%ADD11O,1.950000X1.700000*%
%TD*%
%TA.AperFunction,ComponentPad*%
%ADD12R,3.200000X3.200000*%
%TD*%
%TA.AperFunction,ComponentPad*%
%ADD13O,3.200000X3.200000*%
%TD*%
%TA.AperFunction,ComponentPad*%
%ADD14R,1.560000X1.560000*%
%TD*%
%TA.AperFunction,ComponentPad*%
%ADD15C,1.560000*%
%TD*%
%TA.AperFunction,ComponentPad*%
%ADD16R,1.600000X1.600000*%
%TD*%
%TA.AperFunction,ComponentPad*%
%ADD17C,1.600000*%
%TD*%
%TA.AperFunction,ComponentPad*%
%ADD18C,3.000000*%
%TD*%
%TA.AperFunction,ComponentPad*%
%ADD19R,1.800000X1.800000*%
%TD*%
%TA.AperFunction,ComponentPad*%
%ADD20C,1.800000*%
%TD*%
%TA.AperFunction,ComponentPad*%
%ADD21RoundRect,0.250000X-0.750000X0.600000X-0.750000X-0.600000X0.750000X-0.600000X0.750000X0.600000X0*%
%TD*%
%TA.AperFunction,ComponentPad*%
%ADD22O,2.000000X1.700000*%
%TD*%
%TA.AperFunction,SMDPad,CuDef*%
%ADD23RoundRect,0.225000X0.250000X-0.225000X0.250000X0.225000X-0.250000X0.225000X-0.250000X-0.225000X0*%
%TD*%
%TA.AperFunction,SMDPad,CuDef*%
%ADD24RoundRect,0.150000X-0.512500X-0.150000X0.512500X-0.150000X0.512500X0.150000X-0.512500X0.150000X0*%
%TD*%
%TA.AperFunction,SMDPad,CuDef*%
%ADD25RoundRect,0.250000X-0.262500X-0.450000X0.262500X-0.450000X0.262500X0.450000X-0.262500X0.450000X0*%
%TD*%
%TA.AperFunction,SMDPad,CuDef*%
%ADD26RoundRect,0.150000X-0.825000X-0.150000X0.825000X-0.150000X0.825000X0.150000X-0.825000X0.150000X0*%
%TD*%
%TA.AperFunction,SMDPad,CuDef*%
%ADD27RoundRect,0.250000X-1.100000X0.325000X-1.100000X-0.325000X1.100000X-0.325000X1.100000X0.325000X0*%
%TD*%
%TA.AperFunction,SMDPad,CuDef*%
%ADD28RoundRect,0.225000X-0.225000X-0.250000X0.225000X-0.250000X0.225000X0.250000X-0.225000X0.250000X0*%
%TD*%
%TA.AperFunction,ViaPad*%
%ADD29C,0.800000*%
%TD*%
%TA.AperFunction,Conductor*%
%ADD30C,0.500000*%
%TD*%
%TA.AperFunction,Conductor*%
%ADD31C,1.000000*%
%TD*%
G04 APERTURE END LIST*
D10*
%TO.P,T1,1,AA*%
%TO.N,Net-(T1-AA)*%
X172550000Y-75687500D03*
D11*
%TO.P,T1,2,AB*%
%TO.N,Net-(T1-AB)*%
X172550000Y-78187500D03*
%TO.P,T1,3,SA*%
%TO.N,Net-(T1-SA)*%
X172550000Y-80687500D03*
%TO.P,T1,4,SC*%
%TO.N,VPP*%
X172550000Y-83187500D03*
%TO.P,T1,5,SB*%
%TO.N,Net-(T1-SB)*%
X172550000Y-85687500D03*
%TD*%
D12*
%TO.P,D4,1,K*%
%TO.N,VPP*%
X164950000Y-63315000D03*
D13*
%TO.P,D4,2,A*%
%TO.N,GND1*%
X164950000Y-67125000D03*
%TD*%
D14*
%TO.P,RV2,1,1*%
%TO.N,Net-(D6-+)*%
X169050000Y-62547500D03*
D15*
%TO.P,RV2,2,2*%
%TO.N,/TL494_FEEDBACK*%
X171550000Y-67547500D03*
%TO.P,RV2,3,3*%
%TO.N,GND1*%
X174050000Y-62547500D03*
%TD*%
D16*
%TO.P,C18,1*%
%TO.N,VPP*%
X156550000Y-63205121D03*
D17*
%TO.P,C18,2*%
%TO.N,GND1*%
X156550000Y-65705121D03*
%TD*%
D18*
%TO.P,TP5,1,1*%
%TO.N,GND1*%
X147550000Y-71087500D03*
%TD*%
D19*
%TO.P,D5,1,K*%
%TO.N,GND1*%
X156075000Y-69887500D03*
D20*
%TO.P,D5,2,A*%
%TO.N,Net-(D5-A)*%
X158615000Y-69887500D03*
%TD*%
D21*
%TO.P,J4,1,Pin_1*%
%TO.N,VPP*%
X149150000Y-63187500D03*
D22*
%TO.P,J4,2,Pin_2*%
%TO.N,GND1*%
X149150000Y-65687500D03*
%TD*%
D23*
%TO.P,C35,1*%
%TO.N,/TL494_FEEDBACK*%
X173925000Y-67472500D03*
%TO.P,C35,2*%
%TO.N,GND1*%
X173925000Y-65922500D03*
%TD*%
D24*
%TO.P,U11,1,VCC*%
%TO.N,VPP*%
X150600036Y-86700000D03*
%TO.P,U11,2,GND*%
%TO.N,GND1*%
X150600036Y-85750000D03*
%TO.P,U11,3,IN+*%
%TO.N,VPP*%
X150600036Y-84800000D03*
%TO.P,U11,4,IN-*%
%TO.N,Net-(U11-IN-)*%
X152875036Y-84800000D03*
%TO.P,U11,5,OUT*%
%TO.N,Net-(Q7-G)*%
X152875036Y-86700000D03*
%TD*%
D25*
%TO.P,R16,1*%
%TO.N,VPP*%
X150437500Y-82487500D03*
%TO.P,R16,2*%
%TO.N,Net-(U11-IN-)*%
X152262500Y-82487500D03*
%TD*%
D26*
%TO.P,Q8,1,S*%
%TO.N,GND1*%
X156775000Y-78905000D03*
%TO.P,Q8,2,S*%
X156775000Y-77635000D03*
%TO.P,Q8,3,S*%
X156775000Y-76365000D03*
%TO.P,Q8,4,G*%
%TO.N,Net-(Q8-G)*%
X156775000Y-75095000D03*
%TO.P,Q8,5,D*%
%TO.N,Net-(T1-SA)*%
X161725000Y-75095000D03*
%TO.P,Q8,6,D*%
X161725000Y-76365000D03*
%TO.P,Q8,7,D*%
X161725000Y-77635000D03*
%TO.P,Q8,8,D*%
X161725000Y-78905000D03*
%TD*%
%TO.P,Q7,1,S*%
%TO.N,GND1*%
X156775000Y-86405000D03*
%TO.P,Q7,2,S*%
X156775000Y-85135000D03*
%TO.P,Q7,3,S*%
X156775000Y-83865000D03*
%TO.P,Q7,4,G*%
%TO.N,Net-(Q7-G)*%
X156775000Y-82595000D03*
%TO.P,Q7,5,D*%
%TO.N,Net-(T1-SB)*%
X161725000Y-82595000D03*
%TO.P,Q7,6,D*%
X161725000Y-83865000D03*
%TO.P,Q7,7,D*%
X161725000Y-85135000D03*
%TO.P,Q7,8,D*%
X161725000Y-86405000D03*
%TD*%
D27*
%TO.P,C30,1*%
%TO.N,GND1*%
X147200000Y-84525000D03*
%TO.P,C30,2*%
%TO.N,VPP*%
X147200000Y-87475000D03*
%TD*%
%TO.P,C28,1*%
%TO.N,GND1*%
X147150000Y-74537500D03*
%TO.P,C28,2*%
%TO.N,VPP*%
X147150000Y-77487500D03*
%TD*%
D28*
%TO.P,C33,1*%
%TO.N,Net-(D6-+)*%
X170900000Y-62447500D03*
%TO.P,C33,2*%
%TO.N,GND1*%
X172450000Y-62447500D03*
%TD*%
D24*
%TO.P,U12,1,VCC*%
%TO.N,VPP*%
X149875000Y-77387500D03*
%TO.P,U12,2,GND*%
%TO.N,GND1*%
X149875000Y-76437500D03*
%TO.P,U12,3,IN+*%
%TO.N,VPP*%
X149875000Y-75487500D03*
%TO.P,U12,4,IN-*%
%TO.N,Net-(U12-IN-)*%
X152150000Y-75487500D03*
%TO.P,U12,5,OUT*%
%TO.N,Net-(Q8-G)*%
X152150000Y-77387500D03*
%TD*%
D25*
%TO.P,R17,1*%
%TO.N,VPP*%
X150237500Y-73487500D03*
%TO.P,R17,2*%
%TO.N,Net-(U12-IN-)*%
X152062500Y-73487500D03*
%TD*%
D29*
%TO.N,Net-(U11-IN-)*%
X152950000Y-84887500D03*
%TO.N,Net-(U12-IN-)*%
X153950000Y-81687500D03*
X152150000Y-73487500D03*
%TO.N,VPP*%
X154950000Y-80687500D03*
%TO.N,/TL494_FEEDBACK*%
X152550000Y-78487500D03*
%TD*%
D30*
%TO.N,Net-(U11-IN-)*%
X152262500Y-84187464D02*
X152875036Y-84800000D01*
X152262500Y-82487500D02*
X152262500Y-84187464D01*
%TO.N,VPP*%
X151262536Y-84800000D02*
X151712536Y-85250000D01*
X151712536Y-86250000D02*
X151262536Y-86700000D01*
X151712536Y-85250000D02*
X151712536Y-86250000D01*
X147487536Y-87475000D02*
X149825036Y-87475000D01*
X154950000Y-80687500D02*
X150437500Y-80687500D01*
X150600036Y-84800000D02*
X151262536Y-84800000D01*
X150237500Y-73487500D02*
X150237500Y-75125000D01*
X149875000Y-77387500D02*
X150537500Y-77387500D01*
X150237500Y-75125000D02*
X149875000Y-75487500D01*
X149825036Y-87475000D02*
X150600036Y-86700000D01*
X150437500Y-82487500D02*
X150437500Y-80687500D01*
X151037500Y-75987500D02*
X150537500Y-75487500D01*
X150437500Y-77950000D02*
X149875000Y-77387500D01*
X149775000Y-77487500D02*
X149875000Y-77387500D01*
X147150000Y-77487500D02*
X149775000Y-77487500D01*
X150600036Y-84800000D02*
X150600036Y-82650036D01*
X150537500Y-75487500D02*
X149875000Y-75487500D01*
X150437500Y-80687500D02*
X150437500Y-77950000D01*
X151037500Y-76887500D02*
X151037500Y-75987500D01*
X151262536Y-86700000D02*
X150600036Y-86700000D01*
X150537500Y-77387500D02*
X151037500Y-76887500D01*
%TO.N,GND1*%
X147975000Y-76437500D02*
X147150000Y-75612500D01*
X150600036Y-85750000D02*
X148712536Y-85750000D01*
X148712536Y-85750000D02*
X147487536Y-84525000D01*
X147150000Y-75612500D02*
X147150000Y-74537500D01*
X149875000Y-76437500D02*
X147975000Y-76437500D01*
%TO.N,/TL494_FEEDBACK*%
X173925000Y-67472500D02*
X171625000Y-67472500D01*
%TO.N,Net-(Q7-G)*%
X155442500Y-82595000D02*
X156775000Y-82595000D01*
X154750000Y-83287500D02*
X155442500Y-82595000D01*
X154750000Y-86087500D02*
X154750000Y-83287500D01*
X154137500Y-86700000D02*
X154750000Y-86087500D01*
X152875036Y-86700000D02*
X154137500Y-86700000D01*
D31*
%TO.N,Net-(T1-SB)*%
X161725000Y-82595000D02*
X161725000Y-86405000D01*
X161725000Y-86405000D02*
X162320000Y-87000000D01*
X162320000Y-87000000D02*
X171237500Y-87000000D01*
X171237500Y-87000000D02*
X172550000Y-85687500D01*
D30*
%TO.N,Net-(Q8-G)*%
X152150000Y-77387500D02*
X154442500Y-75095000D01*
X154442500Y-75095000D02*
X156775000Y-75095000D01*
D31*
%TO.N,Net-(T1-SA)*%
X172550000Y-80687500D02*
X168187500Y-80687500D01*
X167500000Y-80000000D02*
X162820000Y-80000000D01*
X161725000Y-75095000D02*
X161725000Y-78905000D01*
X168187500Y-80687500D02*
X167500000Y-80000000D01*
X162820000Y-80000000D02*
X161725000Y-78905000D01*
D30*
%TO.N,Net-(U12-IN-)*%
X152062500Y-75400000D02*
X152150000Y-75487500D01*
X152150000Y-73487500D02*
X152062500Y-75400000D01*
%TO.N,Net-(D6-+)*%
X170900000Y-62447500D02*
X169150000Y-62447500D01*
%TD*%
%TA.AperFunction,Conductor*%
%TO.N,GND1*%
G36*
X175942539Y-60020185D02*
G01*
X175988294Y-60072989D01*
X175999500Y-60124500D01*
X175999500Y-88875500D01*
X175979815Y-88942539D01*
X175927011Y-88988294D01*
X175875500Y-88999500D01*
X145124500Y-88999500D01*
X145057461Y-88979815D01*
X145011706Y-88927011D01*
X145000500Y-88875500D01*
X145000500Y-84775000D01*
X145350001Y-84775000D01*
X145350001Y-84899986D01*
X145360494Y-85002697D01*
X145415641Y-85169119D01*
X145415643Y-85169124D01*
X145507684Y-85318345D01*
X145631654Y-85442315D01*
X145780875Y-85534356D01*
X145780880Y-85534358D01*
X145947302Y-85589505D01*
X145947309Y-85589506D01*
X146050019Y-85599999D01*
X146949999Y-85599999D01*
X146950000Y-85599998D01*
X146950000Y-84775000D01*
X147450000Y-84775000D01*
X147450000Y-85599999D01*
X148349972Y-85599999D01*
X148349986Y-85599998D01*
X148452697Y-85589505D01*
X148619119Y-85534358D01*
X148619124Y-85534356D01*
X148768345Y-85442315D01*
X148892315Y-85318345D01*
X148984356Y-85169124D01*
X148984358Y-85169119D01*
X149039505Y-85002697D01*
X149039506Y-85002690D01*
X149049999Y-84899986D01*
X149050000Y-84899973D01*
X149050000Y-84775000D01*
X147450000Y-84775000D01*
X146950000Y-84775000D01*
X145350001Y-84775000D01*
X145000500Y-84775000D01*
X145000500Y-84275000D01*
X145350000Y-84275000D01*
X146950000Y-84275000D01*
X146950000Y-83450000D01*
X147450000Y-83450000D01*
X147450000Y-84275000D01*
X149049999Y-84275000D01*
X149049999Y-84150028D01*
X149049998Y-84150013D01*
X149039505Y-84047302D01*
X148984358Y-83880880D01*
X148984356Y-83880875D01*
X148892315Y-83731654D01*
X148768345Y-83607684D01*
X148619124Y-83515643D01*
X148619119Y-83515641D01*
X148452697Y-83460494D01*
X148452690Y-83460493D01*
X148349986Y-83450000D01*
X147450000Y-83450000D01*
X146950000Y-83450000D01*
X146050028Y-83450000D01*
X146050012Y-83450001D01*
X145947302Y-83460494D01*
X145780880Y-83515641D01*
X145780875Y-83515643D01*
X145631654Y-83607684D01*
X145507684Y-83731654D01*
X145415643Y-83880875D01*
X145415641Y-83880880D01*
X145360494Y-84047302D01*
X145360493Y-84047309D01*
X145350000Y-84150013D01*
X145350000Y-84275000D01*
X145000500Y-84275000D01*
X145000500Y-77862501D01*
X145299500Y-77862501D01*
X145299501Y-77862519D01*
X145310000Y-77965296D01*
X145310001Y-77965299D01*
X145365185Y-78131831D01*
X145365187Y-78131836D01*
X145369034Y-78138073D01*
X145457288Y-78281156D01*
X145581344Y-78405212D01*
X145730666Y-78497314D01*
X145897203Y-78552499D01*
X145999991Y-78563000D01*
X148300008Y-78562999D01*
X148402797Y-78552499D01*
X148569334Y-78497314D01*
X148718656Y-78405212D01*
X148842712Y-78281156D01*
X148842712Y-78281155D01*
X148847819Y-78276049D01*
X148849705Y-78277935D01*
X148896625Y-78244712D01*
X148936868Y-78238000D01*
X149563000Y-78238000D01*
X149630039Y-78257685D01*
X149675794Y-78310489D01*
X149687000Y-78362000D01*
X149687000Y-80663858D01*
X149686895Y-80667463D01*
X149683169Y-80731434D01*
X149683169Y-80731435D01*
X149685116Y-80742477D01*
X149687000Y-80764009D01*
X149687000Y-81412770D01*
X149667315Y-81479809D01*
X149650681Y-81500451D01*
X149582289Y-81568842D01*
X149490187Y-81718163D01*
X149490185Y-81718168D01*
X149482436Y-81741553D01*
X149435001Y-81884703D01*
X149435001Y-81884704D01*
X149435000Y-81884704D01*
X149424500Y-81987483D01*
X149424500Y-82987501D01*
X149424501Y-82987519D01*
X149435000Y-83090296D01*
X149435001Y-83090299D01*
X149490185Y-83256831D01*
X149490187Y-83256836D01*
X149500363Y-83273334D01*
X149582288Y-83406156D01*
X149706344Y-83530212D01*
X149790633Y-83582202D01*
X149837357Y-83634147D01*
X149849536Y-83687739D01*
X149849536Y-83964281D01*
X149829851Y-84031320D01*
X149788657Y-84071013D01*
X149685674Y-84131916D01*
X149685665Y-84131923D01*
X149569459Y-84248129D01*
X149569453Y-84248137D01*
X149485791Y-84389603D01*
X149485790Y-84389606D01*
X149439938Y-84547426D01*
X149439937Y-84547432D01*
X149437036Y-84584304D01*
X149437036Y-85015696D01*
X149439937Y-85052567D01*
X149439938Y-85052573D01*
X149485790Y-85210393D01*
X149485792Y-85210399D01*
X149486962Y-85212377D01*
X149487405Y-85214126D01*
X149488889Y-85217554D01*
X149488335Y-85217793D01*
X149504139Y-85280102D01*
X149488785Y-85332395D01*
X149489353Y-85332641D01*
X149487363Y-85337239D01*
X149486964Y-85338599D01*
X149486258Y-85339791D01*
X149486252Y-85339806D01*
X149440436Y-85497505D01*
X149440435Y-85497511D01*
X149440240Y-85499998D01*
X149440241Y-85500000D01*
X149705721Y-85500000D01*
X149768842Y-85517268D01*
X149827138Y-85551744D01*
X149846417Y-85557345D01*
X149984962Y-85597597D01*
X149984965Y-85597597D01*
X149984967Y-85597598D01*
X149997258Y-85598565D01*
X150021840Y-85600500D01*
X150021842Y-85600500D01*
X150726036Y-85600500D01*
X150793075Y-85620185D01*
X150838830Y-85672989D01*
X150850036Y-85724500D01*
X150850036Y-85775500D01*
X150830351Y-85842539D01*
X150777547Y-85888294D01*
X150726036Y-85899500D01*
X150021840Y-85899500D01*
X149984968Y-85902401D01*
X149984962Y-85902402D01*
X149827142Y-85948254D01*
X149827139Y-85948255D01*
X149768842Y-85982732D01*
X149705721Y-86000000D01*
X149440241Y-86000000D01*
X149440240Y-86000001D01*
X149440435Y-86002488D01*
X149440436Y-86002494D01*
X149486252Y-86160193D01*
X149486256Y-86160203D01*
X149486963Y-86161398D01*
X149487231Y-86162454D01*
X149489352Y-86167356D01*
X149488560Y-86167698D01*
X149504139Y-86229123D01*
X149488529Y-86282284D01*
X149488891Y-86282441D01*
X149487623Y-86285369D01*
X149486963Y-86287620D01*
X149485795Y-86289594D01*
X149485790Y-86289607D01*
X149439938Y-86447426D01*
X149439937Y-86447432D01*
X149437036Y-86484304D01*
X149437036Y-86600500D01*
X149417351Y-86667539D01*
X149364547Y-86713294D01*
X149313036Y-86724500D01*
X148986868Y-86724500D01*
X148919829Y-86704815D01*
X148898653Y-86685616D01*
X148897819Y-86686451D01*
X148768657Y-86557289D01*
X148768656Y-86557288D01*
X148650333Y-86484306D01*
X148619336Y-86465187D01*
X148619331Y-86465185D01*
X148617862Y-86464698D01*
X148452797Y-86410001D01*
X148452795Y-86410000D01*
X148350010Y-86399500D01*
X146049998Y-86399500D01*
X146049981Y-86399501D01*
X145947203Y-86410000D01*
X145947200Y-86410001D01*
X145780668Y-86465185D01*
X145780663Y-86465187D01*
X145631342Y-86557289D01*
X145507289Y-86681342D01*
X145415187Y-86830663D01*
X145415186Y-86830666D01*
X145360001Y-86997203D01*
X145360001Y-86997204D01*
X145360000Y-86997204D01*
X145349500Y-87099983D01*
X145349500Y-87850001D01*
X145349501Y-87850019D01*
X145360000Y-87952796D01*
X145360001Y-87952799D01*
X145415185Y-88119331D01*
X145415186Y-88119334D01*
X145507288Y-88268656D01*
X145631344Y-88392712D01*
X145780666Y-88484814D01*
X145947203Y-88539999D01*
X146049991Y-88550500D01*
X148350008Y-88550499D01*
X148452797Y-88539999D01*
X148619334Y-88484814D01*
X148768656Y-88392712D01*
X148892712Y-88268656D01*
X148892712Y-88268655D01*
X148897819Y-88263549D01*
X148899705Y-88265435D01*
X148946625Y-88232212D01*
X148986868Y-88225500D01*
X149761331Y-88225500D01*
X149779301Y-88226809D01*
X149803059Y-88230289D01*
X149855104Y-88225735D01*
X149860506Y-88225500D01*
X149868740Y-88225500D01*
X149868745Y-88225500D01*
X149880363Y-88224141D01*
X149901312Y-88221693D01*
X149914064Y-88220577D01*
X149977833Y-88214999D01*
X149977841Y-88214996D01*
X149984902Y-88213539D01*
X149984914Y-88213598D01*
X149992279Y-88211965D01*
X149992265Y-88211906D01*
X149999282Y-88210241D01*
X149999291Y-88210241D01*
X150071459Y-88183974D01*
X150144370Y-88159814D01*
X150144379Y-88159807D01*
X150150918Y-88156760D01*
X150150944Y-88156816D01*
X150157726Y-88153532D01*
X150157699Y-88153478D01*
X150164142Y-88150240D01*
X150164153Y-88150237D01*
X150228319Y-88108034D01*
X150293692Y-88067712D01*
X150293698Y-88067705D01*
X150299361Y-88063229D01*
X150299398Y-88063277D01*
X150305240Y-88058518D01*
X150305200Y-88058471D01*
X150310727Y-88053832D01*
X150310732Y-88053830D01*
X150363423Y-87997980D01*
X150824584Y-87536819D01*
X150885907Y-87503334D01*
X150912265Y-87500500D01*
X151178232Y-87500500D01*
X151196667Y-87499049D01*
X151215105Y-87497598D01*
X151215107Y-87497597D01*
X151215109Y-87497597D01*
X151372926Y-87451747D01*
X151372930Y-87451744D01*
X151372934Y-87451744D01*
X151372936Y-87451742D01*
X151377762Y-87449654D01*
X151408347Y-87441913D01*
X151408254Y-87441461D01*
X151422402Y-87438539D01*
X151422414Y-87438598D01*
X151429779Y-87436965D01*
X151429765Y-87436906D01*
X151436782Y-87435241D01*
X151436791Y-87435241D01*
X151508959Y-87408974D01*
X151581870Y-87384814D01*
X151581879Y-87384807D01*
X151588418Y-87381760D01*
X151588444Y-87381816D01*
X151595226Y-87378532D01*
X151595199Y-87378478D01*
X151601642Y-87375240D01*
X151601653Y-87375237D01*
X151665819Y-87333034D01*
X151731192Y-87292712D01*
X151731191Y-87292712D01*
X151737340Y-87288920D01*
X151738084Y-87290126D01*
X151795475Y-87266968D01*
X151864118Y-87280003D01*
X151895282Y-87302693D01*
X151960665Y-87368076D01*
X151960669Y-87368079D01*
X151960671Y-87368081D01*
X152102138Y-87451744D01*
X152114340Y-87455289D01*
X152259962Y-87497597D01*
X152259965Y-87497597D01*
X152259967Y-87497598D01*
X152272258Y-87498565D01*
X152296840Y-87500500D01*
X152296842Y-87500500D01*
X153453232Y-87500500D01*
X153471667Y-87499049D01*
X153490105Y-87497598D01*
X153490107Y-87497597D01*
X153490109Y-87497597D01*
X153635269Y-87455424D01*
X153669864Y-87450500D01*
X154073795Y-87450500D01*
X154091765Y-87451809D01*
X154115523Y-87455289D01*
X154167568Y-87450735D01*
X154172970Y-87450500D01*
X154181204Y-87450500D01*
X154181209Y-87450500D01*
X154192827Y-87449141D01*
X154213776Y-87446693D01*
X154226528Y-87445577D01*
X154290297Y-87439999D01*
X154290305Y-87439996D01*
X154297366Y-87438539D01*
X154297378Y-87438598D01*
X154304743Y-87436965D01*
X154304729Y-87436906D01*
X154311746Y-87435241D01*
X154311755Y-87435241D01*
X154383923Y-87408974D01*
X154456834Y-87384814D01*
X154456843Y-87384807D01*
X154463382Y-87381760D01*
X154463408Y-87381816D01*
X154470190Y-87378532D01*
X154470163Y-87378478D01*
X154476606Y-87375240D01*
X154476617Y-87375237D01*
X154540783Y-87333034D01*
X154606156Y-87292712D01*
X154606162Y-87292705D01*
X154611825Y-87288229D01*
X154611863Y-87288277D01*
X154617700Y-87283522D01*
X154617661Y-87283475D01*
X154623196Y-87278830D01*
X154675885Y-87222983D01*
X154942315Y-86956552D01*
X155140790Y-86758076D01*
X155202111Y-86724593D01*
X155271802Y-86729577D01*
X155327736Y-86771448D01*
X155347544Y-86811160D01*
X155348715Y-86815192D01*
X155348717Y-86815196D01*
X155432314Y-86956552D01*
X155432321Y-86956561D01*
X155548438Y-87072678D01*
X155548447Y-87072685D01*
X155689803Y-87156282D01*
X155689806Y-87156283D01*
X155847504Y-87202099D01*
X155847510Y-87202100D01*
X155884356Y-87205000D01*
X156525000Y-87205000D01*
X156525000Y-86655000D01*
X157025000Y-86655000D01*
X157025000Y-87205000D01*
X157665644Y-87205000D01*
X157702489Y-87202100D01*
X157702495Y-87202099D01*
X157860193Y-87156283D01*
X157860196Y-87156282D01*
X158001552Y-87072685D01*
X158001561Y-87072678D01*
X158117678Y-86956561D01*
X158117685Y-86956552D01*
X158201281Y-86815198D01*
X158247100Y-86657486D01*
X158247295Y-86655001D01*
X158247295Y-86655000D01*
X157025000Y-86655000D01*
X156525000Y-86655000D01*
X156525000Y-86620696D01*
X160249500Y-86620696D01*
X160252401Y-86657567D01*
X160252402Y-86657573D01*
X160298254Y-86815393D01*
X160298255Y-86815396D01*
X160298256Y-86815398D01*
X160307287Y-86830668D01*
X160381917Y-86956862D01*
X160381923Y-86956870D01*
X160498129Y-87073076D01*
X160498133Y-87073079D01*
X160498135Y-87073081D01*
X160639602Y-87156744D01*
X160681224Y-87168836D01*
X160797426Y-87202597D01*
X160797429Y-87202597D01*
X160797431Y-87202598D01*
X160809722Y-87203565D01*
X160834304Y-87205500D01*
X160834306Y-87205500D01*
X161059217Y-87205500D01*
X161126256Y-87225185D01*
X161146898Y-87241819D01*
X161402677Y-87497597D01*
X161603548Y-87698468D01*
X161664941Y-87763053D01*
X161664944Y-87763055D01*
X161664947Y-87763058D01*
X161699053Y-87786795D01*
X161715303Y-87798106D01*
X161719044Y-87800926D01*
X161766593Y-87839698D01*
X161797045Y-87855604D01*
X161803758Y-87859672D01*
X161831951Y-87879295D01*
X161888329Y-87903489D01*
X161892578Y-87905507D01*
X161946951Y-87933909D01*
X161974489Y-87941788D01*
X161979974Y-87943358D01*
X161987368Y-87945990D01*
X162018942Y-87959540D01*
X162018945Y-87959540D01*
X162018946Y-87959541D01*
X162079022Y-87971887D01*
X162083600Y-87973010D01*
X162085704Y-87973612D01*
X162142582Y-87989887D01*
X162176839Y-87992495D01*
X162184614Y-87993586D01*
X162218255Y-88000500D01*
X162218259Y-88000500D01*
X162279598Y-88000500D01*
X162284304Y-88000678D01*
X162311595Y-88002757D01*
X162345475Y-88005337D01*
X162345475Y-88005336D01*
X162345476Y-88005337D01*
X162379559Y-88000996D01*
X162387389Y-88000500D01*
X171224784Y-88000500D01*
X171313858Y-88002757D01*
X171313858Y-88002756D01*
X171313863Y-88002757D01*
X171374253Y-87991932D01*
X171378912Y-87991280D01*
X171421107Y-87986988D01*
X171439938Y-87985074D01*
X171472727Y-87974786D01*
X171480340Y-87972918D01*
X171514153Y-87966858D01*
X171571121Y-87944101D01*
X171575553Y-87942524D01*
X171634088Y-87924159D01*
X171664127Y-87907484D01*
X171671208Y-87904122D01*
X171703117Y-87891377D01*
X171754354Y-87857608D01*
X171758351Y-87855187D01*
X171812002Y-87825409D01*
X171838068Y-87803030D01*
X171844343Y-87798300D01*
X171844645Y-87798101D01*
X171873019Y-87779402D01*
X171916417Y-87736002D01*
X171919836Y-87732834D01*
X171966395Y-87692866D01*
X171987431Y-87665688D01*
X171992601Y-87659818D01*
X172578102Y-87074319D01*
X172639425Y-87040834D01*
X172665783Y-87038000D01*
X172733966Y-87038000D01*
X172910408Y-87022563D01*
X173138663Y-86961403D01*
X173352829Y-86861535D01*
X173546401Y-86725995D01*
X173713495Y-86558901D01*
X173849035Y-86365330D01*
X173948903Y-86151163D01*
X174010063Y-85922908D01*
X174030659Y-85687500D01*
X174030603Y-85686865D01*
X174021649Y-85584515D01*
X174010063Y-85452092D01*
X173948903Y-85223837D01*
X173849035Y-85009671D01*
X173849034Y-85009669D01*
X173713494Y-84816097D01*
X173546403Y-84649006D01*
X173490187Y-84609644D01*
X173389401Y-84539073D01*
X173345778Y-84484499D01*
X173338584Y-84415000D01*
X173370106Y-84352645D01*
X173389398Y-84335928D01*
X173546401Y-84225995D01*
X173713495Y-84058901D01*
X173849035Y-83865330D01*
X173948903Y-83651163D01*
X174010063Y-83422908D01*
X174030659Y-83187500D01*
X174030622Y-83187082D01*
X174026539Y-83140418D01*
X174010063Y-82952092D01*
X173959536Y-82763519D01*
X173948905Y-82723844D01*
X173948904Y-82723843D01*
X173948903Y-82723837D01*
X173849035Y-82509671D01*
X173849034Y-82509669D01*
X173713494Y-82316097D01*
X173546403Y-82149006D01*
X173490187Y-82109644D01*
X173389401Y-82039073D01*
X173345778Y-81984499D01*
X173338584Y-81915000D01*
X173370106Y-81852645D01*
X173389398Y-81835928D01*
X173546401Y-81725995D01*
X173713495Y-81558901D01*
X173849035Y-81365330D01*
X173948903Y-81151163D01*
X174010063Y-80922908D01*
X174030659Y-80687500D01*
X174010063Y-80452092D01*
X173948903Y-80223837D01*
X173849035Y-80009671D01*
X173798151Y-79937000D01*
X173713494Y-79816097D01*
X173546403Y-79649006D01*
X173437971Y-79573082D01*
X173389401Y-79539073D01*
X173345778Y-79484499D01*
X173338584Y-79415000D01*
X173370106Y-79352645D01*
X173389398Y-79335928D01*
X173546401Y-79225995D01*
X173713495Y-79058901D01*
X173849035Y-78865330D01*
X173948903Y-78651163D01*
X174010063Y-78422908D01*
X174030659Y-78187500D01*
X174030603Y-78186865D01*
X174018209Y-78045198D01*
X174010063Y-77952092D01*
X173948903Y-77723837D01*
X173849035Y-77509671D01*
X173849034Y-77509669D01*
X173713494Y-77316097D01*
X173566295Y-77168898D01*
X173532810Y-77107575D01*
X173537794Y-77037883D01*
X173579666Y-76981950D01*
X173588880Y-76975678D01*
X173619629Y-76956712D01*
X173743656Y-76880212D01*
X173867712Y-76756156D01*
X173959814Y-76606834D01*
X174014999Y-76440297D01*
X174025500Y-76337509D01*
X174025499Y-75037492D01*
X174019462Y-74978398D01*
X174014999Y-74934703D01*
X174014998Y-74934700D01*
X174007637Y-74912486D01*
X173959814Y-74768166D01*
X173867712Y-74618844D01*
X173743656Y-74494788D01*
X173622022Y-74419764D01*
X173594336Y-74402687D01*
X173594331Y-74402685D01*
X173592862Y-74402198D01*
X173427797Y-74347501D01*
X173427795Y-74347500D01*
X173325010Y-74337000D01*
X171774998Y-74337000D01*
X171774981Y-74337001D01*
X171672203Y-74347500D01*
X171672200Y-74347501D01*
X171505668Y-74402685D01*
X171505663Y-74402687D01*
X171356342Y-74494789D01*
X171232289Y-74618842D01*
X171140187Y-74768163D01*
X171140186Y-74768166D01*
X171085001Y-74934703D01*
X171085001Y-74934704D01*
X171085000Y-74934704D01*
X171074500Y-75037483D01*
X171074500Y-76337501D01*
X171074501Y-76337518D01*
X171085000Y-76440296D01*
X171085001Y-76440299D01*
X171140185Y-76606831D01*
X171140187Y-76606836D01*
X171232289Y-76756157D01*
X171356344Y-76880212D01*
X171511120Y-76975678D01*
X171557845Y-77027626D01*
X171569068Y-77096588D01*
X171541224Y-77160671D01*
X171533706Y-77168898D01*
X171386501Y-77316103D01*
X171386501Y-77316104D01*
X171250967Y-77509665D01*
X171250965Y-77509669D01*
X171151098Y-77723835D01*
X171151094Y-77723844D01*
X171089938Y-77952086D01*
X171089936Y-77952096D01*
X171069341Y-78187499D01*
X171069341Y-78187500D01*
X171089936Y-78422903D01*
X171089938Y-78422913D01*
X171151094Y-78651155D01*
X171151096Y-78651159D01*
X171151097Y-78651163D01*
X171168883Y-78689304D01*
X171250964Y-78865328D01*
X171250965Y-78865330D01*
X171386505Y-79058902D01*
X171553597Y-79225994D01*
X171710595Y-79335925D01*
X171754220Y-79390502D01*
X171761414Y-79460000D01*
X171729891Y-79522355D01*
X171710595Y-79539075D01*
X171553597Y-79649005D01*
X171551922Y-79650681D01*
X171551000Y-79651184D01*
X171549449Y-79652486D01*
X171549187Y-79652174D01*
X171490599Y-79684166D01*
X171464241Y-79687000D01*
X168653282Y-79687000D01*
X168586243Y-79667315D01*
X168565601Y-79650681D01*
X168216452Y-79301532D01*
X168155061Y-79236949D01*
X168155060Y-79236948D01*
X168155059Y-79236947D01*
X168127204Y-79217559D01*
X168104709Y-79201902D01*
X168100946Y-79199064D01*
X168053413Y-79160305D01*
X168053406Y-79160300D01*
X168022959Y-79144397D01*
X168016251Y-79140334D01*
X167988049Y-79120705D01*
X167988046Y-79120703D01*
X167988045Y-79120703D01*
X167988041Y-79120701D01*
X167931680Y-79096514D01*
X167927424Y-79094493D01*
X167873057Y-79066094D01*
X167873050Y-79066091D01*
X167873049Y-79066091D01*
X167867008Y-79064362D01*
X167840030Y-79056642D01*
X167832630Y-79054008D01*
X167801057Y-79040459D01*
X167801058Y-79040459D01*
X167740966Y-79028109D01*
X167736391Y-79026986D01*
X167677420Y-79010113D01*
X167677425Y-79010113D01*
X167643158Y-79007503D01*
X167635380Y-79006412D01*
X167601742Y-78999500D01*
X167601741Y-78999500D01*
X167540402Y-78999500D01*
X167535695Y-78999321D01*
X167530121Y-78998896D01*
X167474524Y-78994662D01*
X167454589Y-78997201D01*
X167440440Y-78999003D01*
X167432611Y-78999500D01*
X163324500Y-78999500D01*
X163257461Y-78979815D01*
X163211706Y-78927011D01*
X163200500Y-78875500D01*
X163200500Y-78689304D01*
X163197598Y-78652432D01*
X163197597Y-78652426D01*
X163151745Y-78494606D01*
X163151744Y-78494603D01*
X163151744Y-78494602D01*
X163068081Y-78353135D01*
X163068078Y-78353132D01*
X163063298Y-78346969D01*
X163065750Y-78345066D01*
X163039155Y-78296421D01*
X163044104Y-78226726D01*
X163064940Y-78194304D01*
X163063298Y-78193031D01*
X163068075Y-78186870D01*
X163068081Y-78186865D01*
X163151744Y-78045398D01*
X163197598Y-77887569D01*
X163200500Y-77850694D01*
X163200500Y-77419306D01*
X163197598Y-77382431D01*
X163184465Y-77337229D01*
X163163836Y-77266224D01*
X163151744Y-77224602D01*
X163068081Y-77083135D01*
X163068078Y-77083132D01*
X163063298Y-77076969D01*
X163065750Y-77075066D01*
X163039155Y-77026421D01*
X163044104Y-76956726D01*
X163064940Y-76924304D01*
X163063298Y-76923031D01*
X163068075Y-76916870D01*
X163068081Y-76916865D01*
X163151744Y-76775398D01*
X163192314Y-76635756D01*
X163197597Y-76617573D01*
X163197598Y-76617567D01*
X163197605Y-76617486D01*
X163199775Y-76589902D01*
X163200500Y-76580696D01*
X163200500Y-76149304D01*
X163197598Y-76112432D01*
X163197597Y-76112426D01*
X163151745Y-75954606D01*
X163151744Y-75954603D01*
X163151744Y-75954602D01*
X163068081Y-75813135D01*
X163068078Y-75813132D01*
X163063298Y-75806969D01*
X163065750Y-75805066D01*
X163039155Y-75756421D01*
X163044104Y-75686726D01*
X163064940Y-75654304D01*
X163063298Y-75653031D01*
X163068075Y-75646870D01*
X163068081Y-75646865D01*
X163151744Y-75505398D01*
X163197598Y-75347569D01*
X163200500Y-75310694D01*
X163200500Y-74879306D01*
X163197598Y-74842431D01*
X163197473Y-74842001D01*
X163153284Y-74689902D01*
X163151744Y-74684602D01*
X163068081Y-74543135D01*
X163068079Y-74543133D01*
X163068076Y-74543129D01*
X162951870Y-74426923D01*
X162951862Y-74426917D01*
X162810396Y-74343255D01*
X162810393Y-74343254D01*
X162652573Y-74297402D01*
X162652567Y-74297401D01*
X162615696Y-74294500D01*
X162615694Y-74294500D01*
X162367745Y-74294500D01*
X162300706Y-74274815D01*
X162291844Y-74268556D01*
X162256960Y-74241553D01*
X162256956Y-74241551D01*
X162074271Y-74151940D01*
X161877285Y-74100937D01*
X161877287Y-74100937D01*
X161741804Y-74094066D01*
X161674064Y-74090631D01*
X161674063Y-74090631D01*
X161674061Y-74090631D01*
X161472936Y-74121442D01*
X161472924Y-74121445D01*
X161282117Y-74192112D01*
X161282108Y-74192116D01*
X161147960Y-74275732D01*
X161082369Y-74294500D01*
X160834304Y-74294500D01*
X160797432Y-74297401D01*
X160797426Y-74297402D01*
X160639606Y-74343254D01*
X160639603Y-74343255D01*
X160498137Y-74426917D01*
X160498129Y-74426923D01*
X160381923Y-74543129D01*
X160381917Y-74543137D01*
X160298255Y-74684603D01*
X160298254Y-74684606D01*
X160252402Y-74842426D01*
X160252401Y-74842432D01*
X160249500Y-74879304D01*
X160249500Y-75310696D01*
X160252401Y-75347567D01*
X160252402Y-75347573D01*
X160298254Y-75505393D01*
X160298255Y-75505396D01*
X160381917Y-75646862D01*
X160386702Y-75653031D01*
X160384256Y-75654927D01*
X160410857Y-75703642D01*
X160405873Y-75773334D01*
X160385069Y-75805703D01*
X160386702Y-75806969D01*
X160381917Y-75813137D01*
X160298255Y-75954603D01*
X160298254Y-75954606D01*
X160252402Y-76112426D01*
X160252401Y-76112432D01*
X160249500Y-76149304D01*
X160249500Y-76580696D01*
X160252401Y-76617567D01*
X160252402Y-76617573D01*
X160298254Y-76775393D01*
X160298255Y-76775396D01*
X160381917Y-76916862D01*
X160386702Y-76923031D01*
X160384256Y-76924927D01*
X160410857Y-76973642D01*
X160405873Y-77043334D01*
X160385069Y-77075703D01*
X160386702Y-77076969D01*
X160381917Y-77083137D01*
X160298255Y-77224603D01*
X160298254Y-77224606D01*
X160252402Y-77382426D01*
X160252401Y-77382432D01*
X160249500Y-77419304D01*
X160249500Y-77850696D01*
X160252401Y-77887567D01*
X160252402Y-77887573D01*
X160298254Y-78045393D01*
X160298255Y-78045396D01*
X160381917Y-78186862D01*
X160386702Y-78193031D01*
X160384256Y-78194927D01*
X160410857Y-78243642D01*
X160405873Y-78313334D01*
X160385069Y-78345703D01*
X160386702Y-78346969D01*
X160381917Y-78353137D01*
X160298255Y-78494603D01*
X160298254Y-78494606D01*
X160252402Y-78652426D01*
X160252401Y-78652432D01*
X160249500Y-78689304D01*
X160249500Y-79120696D01*
X160252401Y-79157567D01*
X160252402Y-79157573D01*
X160298254Y-79315393D01*
X160298255Y-79315396D01*
X160381917Y-79456862D01*
X160381923Y-79456870D01*
X160498129Y-79573076D01*
X160498133Y-79573079D01*
X160498135Y-79573081D01*
X160639602Y-79656744D01*
X160675987Y-79667315D01*
X160797426Y-79702597D01*
X160797429Y-79702597D01*
X160797431Y-79702598D01*
X160809722Y-79703565D01*
X160834304Y-79705500D01*
X160834306Y-79705500D01*
X161059217Y-79705500D01*
X161126256Y-79725185D01*
X161146898Y-79741819D01*
X162103548Y-80698468D01*
X162164941Y-80763053D01*
X162164944Y-80763055D01*
X162164947Y-80763058D01*
X162199053Y-80786795D01*
X162215303Y-80798106D01*
X162219044Y-80800926D01*
X162266593Y-80839698D01*
X162297045Y-80855604D01*
X162303758Y-80859672D01*
X162331951Y-80879295D01*
X162388329Y-80903489D01*
X162392578Y-80905507D01*
X162446951Y-80933909D01*
X162474489Y-80941788D01*
X162479974Y-80943358D01*
X162487368Y-80945990D01*
X162518942Y-80959540D01*
X162518945Y-80959540D01*
X162518946Y-80959541D01*
X162579022Y-80971887D01*
X162583600Y-80973010D01*
X162597501Y-80976987D01*
X162642582Y-80989887D01*
X162676839Y-80992495D01*
X162684614Y-80993586D01*
X162718255Y-81000500D01*
X162718259Y-81000500D01*
X162779598Y-81000500D01*
X162784304Y-81000678D01*
X162819062Y-81003325D01*
X162845475Y-81005337D01*
X162845475Y-81005336D01*
X162845476Y-81005337D01*
X162879559Y-81000996D01*
X162887389Y-81000500D01*
X167034217Y-81000500D01*
X167101256Y-81020185D01*
X167121898Y-81036819D01*
X167471048Y-81385968D01*
X167532441Y-81450553D01*
X167532444Y-81450555D01*
X167532447Y-81450558D01*
X167562749Y-81471648D01*
X167582803Y-81485606D01*
X167586544Y-81488426D01*
X167634093Y-81527198D01*
X167664545Y-81543104D01*
X167671258Y-81547172D01*
X167699451Y-81566795D01*
X167755829Y-81590989D01*
X167760078Y-81593007D01*
X167814451Y-81621409D01*
X167841989Y-81629288D01*
X167847474Y-81630858D01*
X167854868Y-81633490D01*
X167886442Y-81647040D01*
X167886445Y-81647040D01*
X167886446Y-81647041D01*
X167946522Y-81659387D01*
X167951100Y-81660510D01*
X167965001Y-81664487D01*
X168010082Y-81677387D01*
X168044339Y-81679995D01*
X168052114Y-81681086D01*
X168085755Y-81688000D01*
X168085759Y-81688000D01*
X168147098Y-81688000D01*
X168151804Y-81688178D01*
X168186562Y-81690825D01*
X168212975Y-81692837D01*
X168212975Y-81692836D01*
X168212976Y-81692837D01*
X168247059Y-81688496D01*
X168254889Y-81688000D01*
X171464241Y-81688000D01*
X171531280Y-81707685D01*
X171551922Y-81724319D01*
X171553597Y-81725994D01*
X171710595Y-81835925D01*
X171754220Y-81890502D01*
X171761414Y-81960000D01*
X171729891Y-82022355D01*
X171710595Y-82039075D01*
X171553597Y-82149005D01*
X171386506Y-82316097D01*
X171386501Y-82316104D01*
X171250967Y-82509665D01*
X171250965Y-82509669D01*
X171151098Y-82723835D01*
X171151094Y-82723844D01*
X171089938Y-82952086D01*
X171089936Y-82952096D01*
X171069341Y-83187499D01*
X171069341Y-83187500D01*
X171089936Y-83422903D01*
X171089938Y-83422913D01*
X171151094Y-83651155D01*
X171151096Y-83651159D01*
X171151097Y-83651163D01*
X171168153Y-83687739D01*
X171250964Y-83865328D01*
X171250965Y-83865330D01*
X171386505Y-84058902D01*
X171553597Y-84225994D01*
X171710595Y-84335925D01*
X171754220Y-84390502D01*
X171761414Y-84460000D01*
X171729891Y-84522355D01*
X171710595Y-84539075D01*
X171553597Y-84649005D01*
X171386506Y-84816097D01*
X171386501Y-84816104D01*
X171250967Y-85009665D01*
X171250965Y-85009669D01*
X171151098Y-85223835D01*
X171151094Y-85223844D01*
X171089938Y-85452086D01*
X171089936Y-85452096D01*
X171069341Y-85687499D01*
X171069341Y-85687509D01*
X171069590Y-85690359D01*
X171069341Y-85691597D01*
X171069341Y-85692913D01*
X171069076Y-85692913D01*
X171055816Y-85758858D01*
X171033743Y-85788833D01*
X170859399Y-85963180D01*
X170798076Y-85996666D01*
X170771717Y-85999500D01*
X163225369Y-85999500D01*
X163158330Y-85979815D01*
X163118637Y-85938621D01*
X163109344Y-85922908D01*
X163068081Y-85853135D01*
X163068078Y-85853132D01*
X163063298Y-85846969D01*
X163065750Y-85845066D01*
X163039155Y-85796421D01*
X163044104Y-85726726D01*
X163064940Y-85694304D01*
X163063298Y-85693031D01*
X163068075Y-85686870D01*
X163068081Y-85686865D01*
X163151744Y-85545398D01*
X163197598Y-85387569D01*
X163200500Y-85350694D01*
X163200500Y-84919306D01*
X163197598Y-84882431D01*
X163151744Y-84724602D01*
X163068081Y-84583135D01*
X163068078Y-84583132D01*
X163063298Y-84576969D01*
X163065750Y-84575066D01*
X163039155Y-84526421D01*
X163044104Y-84456726D01*
X163064940Y-84424304D01*
X163063298Y-84423031D01*
X163068075Y-84416870D01*
X163068081Y-84416865D01*
X163151744Y-84275398D01*
X163193429Y-84131919D01*
X163197597Y-84117573D01*
X163197598Y-84117567D01*
X163197605Y-84117486D01*
X163200500Y-84080694D01*
X163200500Y-83649306D01*
X163197598Y-83612431D01*
X163193512Y-83598368D01*
X163164934Y-83500000D01*
X164144341Y-83500000D01*
X164164936Y-83735403D01*
X164164938Y-83735413D01*
X164226094Y-83963655D01*
X164226096Y-83963659D01*
X164226097Y-83963663D01*
X164257646Y-84031320D01*
X164325964Y-84177828D01*
X164325965Y-84177830D01*
X164461505Y-84371402D01*
X164628597Y-84538494D01*
X164822169Y-84674034D01*
X164822171Y-84674035D01*
X165036337Y-84773903D01*
X165264592Y-84835063D01*
X165441034Y-84850500D01*
X165558966Y-84850500D01*
X165735408Y-84835063D01*
X165963663Y-84773903D01*
X166177829Y-84674035D01*
X166371401Y-84538495D01*
X166538495Y-84371401D01*
X166674035Y-84177830D01*
X166773903Y-83963663D01*
X166835063Y-83735408D01*
X166855659Y-83500000D01*
X166835063Y-83264592D01*
X166773903Y-83036337D01*
X166674035Y-82822171D01*
X166674034Y-82822169D01*
X166538494Y-82628597D01*
X166371402Y-82461505D01*
X166177830Y-82325965D01*
X166177828Y-82325964D01*
X166070746Y-82276031D01*
X165963663Y-82226097D01*
X165963659Y-82226096D01*
X165963655Y-82226094D01*
X165735413Y-82164938D01*
X165735403Y-82164936D01*
X165558966Y-82149500D01*
X165441034Y-82149500D01*
X165264596Y-82164936D01*
X165264586Y-82164938D01*
X165036344Y-82226094D01*
X165036335Y-82226098D01*
X164822171Y-82325964D01*
X164822169Y-82325965D01*
X164628597Y-82461505D01*
X164461506Y-82628597D01*
X164461501Y-82628604D01*
X164325967Y-82822165D01*
X164325965Y-82822169D01*
X164226098Y-83036335D01*
X164226094Y-83036344D01*
X164164938Y-83264586D01*
X164164936Y-83264596D01*
X164144341Y-83499999D01*
X164144341Y-83500000D01*
X163164934Y-83500000D01*
X163153456Y-83460494D01*
X163151744Y-83454602D01*
X163068081Y-83313135D01*
X163068078Y-83313132D01*
X163063298Y-83306969D01*
X163065750Y-83305066D01*
X163039155Y-83256421D01*
X163044104Y-83186726D01*
X163064940Y-83154304D01*
X163063298Y-83153031D01*
X163068075Y-83146870D01*
X163068081Y-83146865D01*
X163151744Y-83005398D01*
X163197598Y-82847569D01*
X163199597Y-82822165D01*
X163200500Y-82810696D01*
X163200500Y-82379304D01*
X163197598Y-82342432D01*
X163197597Y-82342426D01*
X163151745Y-82184606D01*
X163151744Y-82184603D01*
X163151744Y-82184602D01*
X163068081Y-82043135D01*
X163068079Y-82043133D01*
X163068076Y-82043129D01*
X162951870Y-81926923D01*
X162951862Y-81926917D01*
X162810396Y-81843255D01*
X162810393Y-81843254D01*
X162652573Y-81797402D01*
X162652567Y-81797401D01*
X162615696Y-81794500D01*
X162615694Y-81794500D01*
X162367745Y-81794500D01*
X162300706Y-81774815D01*
X162291844Y-81768556D01*
X162256960Y-81741553D01*
X162256956Y-81741551D01*
X162074271Y-81651940D01*
X161992847Y-81630858D01*
X161877285Y-81600937D01*
X161877287Y-81600937D01*
X161741804Y-81594066D01*
X161674064Y-81590631D01*
X161674063Y-81590631D01*
X161674061Y-81590631D01*
X161472936Y-81621442D01*
X161472924Y-81621445D01*
X161282117Y-81692112D01*
X161282108Y-81692116D01*
X161147960Y-81775732D01*
X161082369Y-81794500D01*
X160834304Y-81794500D01*
X160797432Y-81797401D01*
X160797426Y-81797402D01*
X160639606Y-81843254D01*
X160639603Y-81843255D01*
X160498137Y-81926917D01*
X160498129Y-81926923D01*
X160381923Y-82043129D01*
X160381917Y-82043137D01*
X160298255Y-82184603D01*
X160298254Y-82184606D01*
X160252402Y-82342426D01*
X160252401Y-82342432D01*
X160249500Y-82379304D01*
X160249500Y-82810696D01*
X160252401Y-82847567D01*
X160252402Y-82847573D01*
X160298254Y-83005393D01*
X160298255Y-83005396D01*
X160381917Y-83146862D01*
X160386702Y-83153031D01*
X160384256Y-83154927D01*
X160410857Y-83203642D01*
X160405873Y-83273334D01*
X160385069Y-83305703D01*
X160386702Y-83306969D01*
X160381917Y-83313137D01*
X160298255Y-83454603D01*
X160298254Y-83454606D01*
X160252402Y-83612426D01*
X160252401Y-83612432D01*
X160249500Y-83649304D01*
X160249500Y-84080696D01*
X160252401Y-84117567D01*
X160252402Y-84117573D01*
X160298254Y-84275393D01*
X160298255Y-84275396D01*
X160381917Y-84416862D01*
X160386702Y-84423031D01*
X160384256Y-84424927D01*
X160410857Y-84473642D01*
X160405873Y-84543334D01*
X160385069Y-84575703D01*
X160386702Y-84576969D01*
X160381917Y-84583137D01*
X160298255Y-84724603D01*
X160298254Y-84724606D01*
X160252402Y-84882426D01*
X160252401Y-84882432D01*
X160249500Y-84919304D01*
X160249500Y-85350696D01*
X160252401Y-85387567D01*
X160252402Y-85387573D01*
X160298254Y-85545393D01*
X160298255Y-85545396D01*
X160298256Y-85545398D01*
X160329126Y-85597597D01*
X160381917Y-85686862D01*
X160386702Y-85693031D01*
X160384256Y-85694927D01*
X160410857Y-85743642D01*
X160405873Y-85813334D01*
X160385069Y-85845703D01*
X160386702Y-85846969D01*
X160381917Y-85853137D01*
X160298255Y-85994603D01*
X160298254Y-85994606D01*
X160252402Y-86152426D01*
X160252401Y-86152432D01*
X160249500Y-86189304D01*
X160249500Y-86620696D01*
X156525000Y-86620696D01*
X156525000Y-85385000D01*
X157025000Y-85385000D01*
X157025000Y-86155000D01*
X158247295Y-86155000D01*
X158247295Y-86154998D01*
X158247100Y-86152513D01*
X158201281Y-85994801D01*
X158117685Y-85853447D01*
X158112900Y-85847278D01*
X158115252Y-85845453D01*
X158088445Y-85796405D01*
X158093402Y-85726712D01*
X158114465Y-85693936D01*
X158112900Y-85692722D01*
X158117685Y-85686552D01*
X158201281Y-85545198D01*
X158247100Y-85387486D01*
X158247295Y-85385001D01*
X158247295Y-85385000D01*
X157025000Y-85385000D01*
X156525000Y-85385000D01*
X156525000Y-84115000D01*
X157025000Y-84115000D01*
X157025000Y-84885000D01*
X158247295Y-84885000D01*
X158247295Y-84884998D01*
X158247100Y-84882513D01*
X158201281Y-84724801D01*
X158117685Y-84583447D01*
X158112900Y-84577278D01*
X158115252Y-84575453D01*
X158088445Y-84526405D01*
X158093402Y-84456712D01*
X158114465Y-84423936D01*
X158112900Y-84422722D01*
X158117685Y-84416552D01*
X158201281Y-84275198D01*
X158247100Y-84117486D01*
X158247295Y-84115001D01*
X158247295Y-84115000D01*
X157025000Y-84115000D01*
X156525000Y-84115000D01*
X156525000Y-83739000D01*
X156544685Y-83671961D01*
X156597489Y-83626206D01*
X156649000Y-83615000D01*
X158247295Y-83615000D01*
X158247295Y-83614998D01*
X158247100Y-83612513D01*
X158201281Y-83454801D01*
X158117685Y-83313447D01*
X158112900Y-83307278D01*
X158115366Y-83305364D01*
X158088802Y-83256776D01*
X158093749Y-83187082D01*
X158114856Y-83154232D01*
X158113301Y-83153026D01*
X158118077Y-83146868D01*
X158118081Y-83146865D01*
X158201744Y-83005398D01*
X158247598Y-82847569D01*
X158249597Y-82822165D01*
X158250500Y-82810696D01*
X158250500Y-82379304D01*
X158247598Y-82342432D01*
X158247597Y-82342426D01*
X158201745Y-82184606D01*
X158201744Y-82184603D01*
X158201744Y-82184602D01*
X158118081Y-82043135D01*
X158118079Y-82043133D01*
X158118076Y-82043129D01*
X158001870Y-81926923D01*
X158001862Y-81926917D01*
X157860396Y-81843255D01*
X157860393Y-81843254D01*
X157702573Y-81797402D01*
X157702567Y-81797401D01*
X157665696Y-81794500D01*
X157665694Y-81794500D01*
X155884306Y-81794500D01*
X155884304Y-81794500D01*
X155847432Y-81797401D01*
X155847426Y-81797402D01*
X155702267Y-81839576D01*
X155667672Y-81844500D01*
X155506205Y-81844500D01*
X155488235Y-81843191D01*
X155464472Y-81839710D01*
X155419033Y-81843686D01*
X155412431Y-81844264D01*
X155407030Y-81844500D01*
X155398789Y-81844500D01*
X155377079Y-81847037D01*
X155366224Y-81848306D01*
X155350919Y-81849645D01*
X155289699Y-81855001D01*
X155282632Y-81856460D01*
X155282620Y-81856404D01*
X155275263Y-81858035D01*
X155275277Y-81858092D01*
X155268243Y-81859759D01*
X155196075Y-81886025D01*
X155123175Y-81910181D01*
X155116626Y-81913236D01*
X155116601Y-81913183D01*
X155109808Y-81916471D01*
X155109834Y-81916523D01*
X155103380Y-81919764D01*
X155039204Y-81961973D01*
X155026663Y-81969707D01*
X154959269Y-81988143D01*
X154892607Y-81967216D01*
X154847842Y-81913570D01*
X154838253Y-81851208D01*
X154854247Y-81699036D01*
X154880832Y-81634423D01*
X154938130Y-81594439D01*
X154977568Y-81588000D01*
X155044644Y-81588000D01*
X155044646Y-81588000D01*
X155229803Y-81548644D01*
X155402730Y-81471651D01*
X155555871Y-81360388D01*
X155682533Y-81219716D01*
X155777179Y-81055784D01*
X155835674Y-80875756D01*
X155855460Y-80687500D01*
X155835674Y-80499244D01*
X155777179Y-80319216D01*
X155682533Y-80155284D01*
X155555871Y-80014612D01*
X155555870Y-80014611D01*
X155402734Y-79903351D01*
X155402729Y-79903348D01*
X155229807Y-79826357D01*
X155229802Y-79826355D01*
X155084001Y-79795365D01*
X155044646Y-79787000D01*
X154855354Y-79787000D01*
X154822897Y-79793898D01*
X154670197Y-79826355D01*
X154670192Y-79826357D01*
X154497270Y-79903348D01*
X154497265Y-79903351D01*
X154483548Y-79913318D01*
X154417742Y-79936798D01*
X154410663Y-79937000D01*
X151312000Y-79937000D01*
X151244961Y-79917315D01*
X151199206Y-79864511D01*
X151188000Y-79813000D01*
X151188000Y-78244804D01*
X151207685Y-78177765D01*
X151260489Y-78132010D01*
X151329647Y-78122066D01*
X151369907Y-78136237D01*
X151369946Y-78136147D01*
X151371230Y-78136702D01*
X151375120Y-78138072D01*
X151377102Y-78139244D01*
X151418724Y-78151336D01*
X151534926Y-78185097D01*
X151534929Y-78185097D01*
X151534931Y-78185098D01*
X151548262Y-78186147D01*
X151613551Y-78211029D01*
X151655024Y-78267259D01*
X151661858Y-78322726D01*
X151644540Y-78487500D01*
X151664326Y-78675756D01*
X151664327Y-78675759D01*
X151722818Y-78855777D01*
X151722821Y-78855784D01*
X151817467Y-79019716D01*
X151908398Y-79120705D01*
X151944129Y-79160388D01*
X152097265Y-79271648D01*
X152097270Y-79271651D01*
X152270192Y-79348642D01*
X152270197Y-79348644D01*
X152455354Y-79388000D01*
X152455355Y-79388000D01*
X152644644Y-79388000D01*
X152644646Y-79388000D01*
X152829803Y-79348644D01*
X153002730Y-79271651D01*
X153155871Y-79160388D01*
X153160721Y-79155001D01*
X155302704Y-79155001D01*
X155302899Y-79157486D01*
X155348718Y-79315198D01*
X155432314Y-79456552D01*
X155432321Y-79456561D01*
X155548438Y-79572678D01*
X155548447Y-79572685D01*
X155689803Y-79656282D01*
X155689806Y-79656283D01*
X155847504Y-79702099D01*
X155847510Y-79702100D01*
X155884356Y-79705000D01*
X156525000Y-79705000D01*
X156525000Y-79155000D01*
X157025000Y-79155000D01*
X157025000Y-79705000D01*
X157665644Y-79705000D01*
X157702489Y-79702100D01*
X157702495Y-79702099D01*
X157860193Y-79656283D01*
X157860196Y-79656282D01*
X158001552Y-79572685D01*
X158001561Y-79572678D01*
X158117678Y-79456561D01*
X158117685Y-79456552D01*
X158201281Y-79315198D01*
X158247100Y-79157486D01*
X158247295Y-79155001D01*
X158247295Y-79155000D01*
X157025000Y-79155000D01*
X156525000Y-79155000D01*
X155302705Y-79155000D01*
X155302704Y-79155001D01*
X153160721Y-79155001D01*
X153282533Y-79019716D01*
X153377179Y-78855784D01*
X153435674Y-78675756D01*
X153437856Y-78654998D01*
X155302704Y-78654998D01*
X155302705Y-78655000D01*
X156525000Y-78655000D01*
X156525000Y-77885000D01*
X157025000Y-77885000D01*
X157025000Y-78655000D01*
X158247295Y-78655000D01*
X158247295Y-78654998D01*
X158247100Y-78652513D01*
X158201281Y-78494801D01*
X158117685Y-78353447D01*
X158112900Y-78347278D01*
X158115252Y-78345453D01*
X158088445Y-78296405D01*
X158093402Y-78226712D01*
X158114465Y-78193936D01*
X158112900Y-78192722D01*
X158117685Y-78186552D01*
X158201281Y-78045198D01*
X158247100Y-77887486D01*
X158247295Y-77885001D01*
X158247295Y-77885000D01*
X157025000Y-77885000D01*
X156525000Y-77885000D01*
X155302705Y-77885000D01*
X155302704Y-77885001D01*
X155302899Y-77887486D01*
X155348718Y-78045198D01*
X155432314Y-78186552D01*
X155437100Y-78192722D01*
X155434753Y-78194542D01*
X155461564Y-78243642D01*
X155456580Y-78313334D01*
X155435541Y-78346069D01*
X155437100Y-78347278D01*
X155432314Y-78353447D01*
X155348718Y-78494801D01*
X155302899Y-78652513D01*
X155302704Y-78654998D01*
X153437856Y-78654998D01*
X153455460Y-78487500D01*
X153435674Y-78299244D01*
X153377179Y-78119216D01*
X153288314Y-77965297D01*
X153282535Y-77955287D01*
X153282534Y-77955286D01*
X153282533Y-77955284D01*
X153276263Y-77948321D01*
X153246035Y-77885333D01*
X153254659Y-77815997D01*
X153261681Y-77802231D01*
X153264244Y-77797898D01*
X153310098Y-77640069D01*
X153313000Y-77603194D01*
X153313000Y-77384998D01*
X155302704Y-77384998D01*
X155302705Y-77385000D01*
X156525000Y-77385000D01*
X156525000Y-76615000D01*
X157025000Y-76615000D01*
X157025000Y-77385000D01*
X158247295Y-77385000D01*
X158247295Y-77384998D01*
X158247100Y-77382513D01*
X158201281Y-77224801D01*
X158117685Y-77083447D01*
X158112900Y-77077278D01*
X158115252Y-77075453D01*
X158088445Y-77026405D01*
X158093402Y-76956712D01*
X158114465Y-76923936D01*
X158112900Y-76922722D01*
X158117685Y-76916552D01*
X158201281Y-76775198D01*
X158247100Y-76617486D01*
X158247295Y-76615001D01*
X158247295Y-76615000D01*
X157025000Y-76615000D01*
X156525000Y-76615000D01*
X155302705Y-76615000D01*
X155302704Y-76615001D01*
X155302899Y-76617486D01*
X155348718Y-76775198D01*
X155432314Y-76916552D01*
X155437100Y-76922722D01*
X155434753Y-76924542D01*
X155461564Y-76973642D01*
X155456580Y-77043334D01*
X155435541Y-77076069D01*
X155437100Y-77077278D01*
X155432314Y-77083447D01*
X155348718Y-77224801D01*
X155302899Y-77382513D01*
X155302704Y-77384998D01*
X153313000Y-77384998D01*
X153313000Y-77337229D01*
X153332685Y-77270190D01*
X153349319Y-77249548D01*
X154717048Y-75881819D01*
X154778371Y-75848334D01*
X154804729Y-75845500D01*
X155215321Y-75845500D01*
X155282360Y-75865185D01*
X155328115Y-75917989D01*
X155338059Y-75987147D01*
X155334397Y-76004095D01*
X155302900Y-76112505D01*
X155302899Y-76112511D01*
X155302704Y-76114998D01*
X155302705Y-76115000D01*
X158247295Y-76115000D01*
X158247295Y-76114998D01*
X158247100Y-76112513D01*
X158201281Y-75954801D01*
X158117685Y-75813447D01*
X158112900Y-75807278D01*
X158115366Y-75805364D01*
X158088802Y-75756776D01*
X158093749Y-75687082D01*
X158114856Y-75654232D01*
X158113301Y-75653026D01*
X158118077Y-75646868D01*
X158118081Y-75646865D01*
X158201744Y-75505398D01*
X158247598Y-75347569D01*
X158250500Y-75310694D01*
X158250500Y-74879306D01*
X158247598Y-74842431D01*
X158247473Y-74842001D01*
X158203284Y-74689902D01*
X158201744Y-74684602D01*
X158118081Y-74543135D01*
X158118079Y-74543133D01*
X158118076Y-74543129D01*
X158001870Y-74426923D01*
X158001862Y-74426917D01*
X157860396Y-74343255D01*
X157860393Y-74343254D01*
X157702573Y-74297402D01*
X157702567Y-74297401D01*
X157665696Y-74294500D01*
X157665694Y-74294500D01*
X155884306Y-74294500D01*
X155884304Y-74294500D01*
X155847432Y-74297401D01*
X155847426Y-74297402D01*
X155702267Y-74339576D01*
X155667672Y-74344500D01*
X154506205Y-74344500D01*
X154488235Y-74343191D01*
X154464472Y-74339710D01*
X154419033Y-74343686D01*
X154412431Y-74344264D01*
X154407030Y-74344500D01*
X154398789Y-74344500D01*
X154377079Y-74347037D01*
X154366224Y-74348306D01*
X154350919Y-74349645D01*
X154289699Y-74355001D01*
X154282632Y-74356460D01*
X154282620Y-74356404D01*
X154275263Y-74358035D01*
X154275277Y-74358092D01*
X154268243Y-74359759D01*
X154196075Y-74386025D01*
X154123175Y-74410181D01*
X154116626Y-74413236D01*
X154116601Y-74413183D01*
X154109808Y-74416471D01*
X154109834Y-74416523D01*
X154103380Y-74419764D01*
X154039208Y-74461971D01*
X153973847Y-74502285D01*
X153968183Y-74506765D01*
X153968147Y-74506719D01*
X153962298Y-74511484D01*
X153962335Y-74511528D01*
X153956810Y-74516164D01*
X153956804Y-74516169D01*
X153956804Y-74516170D01*
X153913348Y-74562230D01*
X153904097Y-74572035D01*
X153427371Y-75048760D01*
X153366048Y-75082245D01*
X153296356Y-75077261D01*
X153240423Y-75035389D01*
X153232958Y-75024200D01*
X153180582Y-74935637D01*
X153180581Y-74935635D01*
X153180579Y-74935633D01*
X153180576Y-74935629D01*
X153064370Y-74819423D01*
X153064362Y-74819417D01*
X152977704Y-74768168D01*
X152922898Y-74735756D01*
X152922897Y-74735755D01*
X152916183Y-74731785D01*
X152917034Y-74730344D01*
X152870525Y-74691639D01*
X152849509Y-74625005D01*
X152849613Y-74616883D01*
X152854255Y-74515434D01*
X152876981Y-74449369D01*
X152890436Y-74433430D01*
X152917712Y-74406156D01*
X153009814Y-74256834D01*
X153064999Y-74090297D01*
X153075500Y-73987509D01*
X153075499Y-72987492D01*
X153064999Y-72884703D01*
X153009814Y-72718166D01*
X152917712Y-72568844D01*
X152793656Y-72444788D01*
X152644334Y-72352686D01*
X152477797Y-72297501D01*
X152477795Y-72297500D01*
X152375010Y-72287000D01*
X151749998Y-72287000D01*
X151749980Y-72287001D01*
X151647203Y-72297500D01*
X151647200Y-72297501D01*
X151480668Y-72352685D01*
X151480663Y-72352687D01*
X151331342Y-72444789D01*
X151237681Y-72538451D01*
X151176358Y-72571936D01*
X151106666Y-72566952D01*
X151062319Y-72538451D01*
X150968657Y-72444789D01*
X150968656Y-72444788D01*
X150819334Y-72352686D01*
X150652797Y-72297501D01*
X150652795Y-72297500D01*
X150550010Y-72287000D01*
X149924998Y-72287000D01*
X149924980Y-72287001D01*
X149822203Y-72297500D01*
X149822200Y-72297501D01*
X149655668Y-72352685D01*
X149655663Y-72352687D01*
X149506342Y-72444789D01*
X149382289Y-72568842D01*
X149290187Y-72718163D01*
X149290186Y-72718166D01*
X149235001Y-72884703D01*
X149235001Y-72884704D01*
X149235000Y-72884704D01*
X149224500Y-72987483D01*
X149224500Y-73987501D01*
X149224501Y-73987515D01*
X149224852Y-73990946D01*
X149212078Y-74059638D01*
X149208719Y-74063206D01*
X149237818Y-74099699D01*
X149240719Y-74107555D01*
X149274965Y-74210900D01*
X149290186Y-74256834D01*
X149380148Y-74402687D01*
X149382289Y-74406157D01*
X149450681Y-74474549D01*
X149484166Y-74535872D01*
X149487000Y-74562230D01*
X149487000Y-74563000D01*
X149467315Y-74630039D01*
X149414511Y-74675794D01*
X149363000Y-74687000D01*
X149296804Y-74687000D01*
X149259932Y-74689901D01*
X149259926Y-74689902D01*
X149102107Y-74735754D01*
X149102100Y-74735756D01*
X149043803Y-74770233D01*
X148980683Y-74787500D01*
X147400000Y-74787500D01*
X147400000Y-75612499D01*
X148299972Y-75612499D01*
X148299986Y-75612498D01*
X148402695Y-75602006D01*
X148548995Y-75553526D01*
X148618824Y-75551124D01*
X148678866Y-75586855D01*
X148710059Y-75649375D01*
X148712000Y-75671232D01*
X148712000Y-75703196D01*
X148714901Y-75740067D01*
X148714902Y-75740073D01*
X148760754Y-75897893D01*
X148760756Y-75897899D01*
X148761926Y-75899877D01*
X148762369Y-75901626D01*
X148763853Y-75905054D01*
X148763299Y-75905293D01*
X148779103Y-75967602D01*
X148763749Y-76019895D01*
X148764317Y-76020141D01*
X148762327Y-76024739D01*
X148761928Y-76026099D01*
X148761222Y-76027291D01*
X148761216Y-76027306D01*
X148715400Y-76185005D01*
X148715399Y-76185011D01*
X148715204Y-76187498D01*
X148715205Y-76187500D01*
X148980685Y-76187500D01*
X149043806Y-76204768D01*
X149102102Y-76239244D01*
X149143724Y-76251336D01*
X149259926Y-76285097D01*
X149259929Y-76285097D01*
X149259931Y-76285098D01*
X149272222Y-76286065D01*
X149296804Y-76288000D01*
X149296806Y-76288000D01*
X150001000Y-76288000D01*
X150068039Y-76307685D01*
X150113794Y-76360489D01*
X150125000Y-76412000D01*
X150125000Y-76463000D01*
X150105315Y-76530039D01*
X150052511Y-76575794D01*
X150001000Y-76587000D01*
X149296804Y-76587000D01*
X149259932Y-76589901D01*
X149259926Y-76589902D01*
X149102106Y-76635754D01*
X149102103Y-76635755D01*
X149043806Y-76670232D01*
X148980685Y-76687500D01*
X148887730Y-76687500D01*
X148820691Y-76667815D01*
X148800049Y-76651181D01*
X148718657Y-76569789D01*
X148718656Y-76569788D01*
X148569334Y-76477686D01*
X148402797Y-76422501D01*
X148402795Y-76422500D01*
X148300010Y-76412000D01*
X145999998Y-76412000D01*
X145999981Y-76412001D01*
X145897203Y-76422500D01*
X145897200Y-76422501D01*
X145730668Y-76477685D01*
X145730663Y-76477687D01*
X145581342Y-76569789D01*
X145457289Y-76693842D01*
X145365187Y-76843163D01*
X145365185Y-76843168D01*
X145338824Y-76922722D01*
X145310001Y-77009703D01*
X145310001Y-77009704D01*
X145310000Y-77009704D01*
X145299500Y-77112483D01*
X145299500Y-77862501D01*
X145000500Y-77862501D01*
X145000500Y-74787500D01*
X145300001Y-74787500D01*
X145300001Y-74912486D01*
X145310494Y-75015197D01*
X145365641Y-75181619D01*
X145365643Y-75181624D01*
X145457684Y-75330845D01*
X145581654Y-75454815D01*
X145730875Y-75546856D01*
X145730880Y-75546858D01*
X145897302Y-75602005D01*
X145897309Y-75602006D01*
X146000019Y-75612499D01*
X146899999Y-75612499D01*
X146900000Y-75612498D01*
X146900000Y-74787500D01*
X145300001Y-74787500D01*
X145000500Y-74787500D01*
X145000500Y-74287500D01*
X145300000Y-74287500D01*
X146900000Y-74287500D01*
X146900000Y-73462500D01*
X147400000Y-73462500D01*
X147400000Y-74287500D01*
X148999999Y-74287500D01*
X148999999Y-74162528D01*
X148999998Y-74162514D01*
X148999657Y-74159178D01*
X149012417Y-74090484D01*
X149015788Y-74086899D01*
X148986680Y-74050380D01*
X148983787Y-74042545D01*
X148934358Y-73893380D01*
X148934356Y-73893375D01*
X148842315Y-73744154D01*
X148718345Y-73620184D01*
X148569124Y-73528143D01*
X148569119Y-73528141D01*
X148402697Y-73472994D01*
X148402690Y-73472993D01*
X148299986Y-73462500D01*
X147400000Y-73462500D01*
X146900000Y-73462500D01*
X146000028Y-73462500D01*
X146000012Y-73462501D01*
X145897302Y-73472994D01*
X145730880Y-73528141D01*
X145730875Y-73528143D01*
X145581654Y-73620184D01*
X145457684Y-73744154D01*
X145365643Y-73893375D01*
X145365641Y-73893380D01*
X145310494Y-74059802D01*
X145310493Y-74059809D01*
X145300000Y-74162513D01*
X145300000Y-74287500D01*
X145000500Y-74287500D01*
X145000500Y-71087501D01*
X145544891Y-71087501D01*
X145565300Y-71372862D01*
X145626109Y-71652395D01*
X145726091Y-71920458D01*
X145863191Y-72171538D01*
X145863196Y-72171546D01*
X145969882Y-72314061D01*
X145969883Y-72314062D01*
X146688348Y-71595596D01*
X146755146Y-71702763D01*
X146895268Y-71850171D01*
X147040085Y-71950967D01*
X146323436Y-72667615D01*
X146465960Y-72774307D01*
X146465961Y-72774308D01*
X146717042Y-72911408D01*
X146717041Y-72911408D01*
X146985104Y-73011390D01*
X147264637Y-73072199D01*
X147549999Y-73092609D01*
X147550001Y-73092609D01*
X147835362Y-73072199D01*
X148114895Y-73011390D01*
X148382958Y-72911408D01*
X148634047Y-72774303D01*
X148776561Y-72667616D01*
X148776562Y-72667615D01*
X148058125Y-71949178D01*
X148124214Y-71912496D01*
X148278531Y-71780020D01*
X148403021Y-71619192D01*
X148413625Y-71597572D01*
X149130115Y-72314062D01*
X149130116Y-72314061D01*
X149236803Y-72171547D01*
X149373908Y-71920458D01*
X149473890Y-71652395D01*
X149534699Y-71372862D01*
X149555109Y-71087501D01*
X149555109Y-71087498D01*
X149537074Y-70835344D01*
X154675000Y-70835344D01*
X154681401Y-70894872D01*
X154681403Y-70894879D01*
X154731645Y-71029586D01*
X154731649Y-71029593D01*
X154817809Y-71144687D01*
X154817812Y-71144690D01*
X154932906Y-71230850D01*
X154932913Y-71230854D01*
X155067620Y-71281096D01*
X155067627Y-71281098D01*
X155127155Y-71287499D01*
X155127172Y-71287500D01*
X155825000Y-71287500D01*
X155825000Y-70261689D01*
X155877547Y-70297516D01*
X156007173Y-70337500D01*
X156108724Y-70337500D01*
X156209138Y-70322365D01*
X156325000Y-70266568D01*
X156325000Y-71287500D01*
X157022828Y-71287500D01*
X157022844Y-71287499D01*
X157082372Y-71281098D01*
X157082379Y-71281096D01*
X157217086Y-71230854D01*
X157217093Y-71230850D01*
X157332187Y-71144690D01*
X157332190Y-71144687D01*
X157418350Y-71029593D01*
X157418355Y-71029584D01*
X157447075Y-70952581D01*
X157488945Y-70896647D01*
X157554409Y-70872229D01*
X157622682Y-70887080D01*
X157654484Y-70911928D01*
X157663216Y-70921413D01*
X157663219Y-70921415D01*
X157663222Y-70921418D01*
X157846365Y-71063964D01*
X157846371Y-71063968D01*
X157846374Y-71063970D01*
X158050497Y-71174436D01*
X158164487Y-71213568D01*
X158270015Y-71249797D01*
X158270017Y-71249797D01*
X158270019Y-71249798D01*
X158498951Y-71288000D01*
X158498952Y-71288000D01*
X158731048Y-71288000D01*
X158731049Y-71288000D01*
X158959981Y-71249798D01*
X159179503Y-71174436D01*
X159383626Y-71063970D01*
X159566784Y-70921413D01*
X159723979Y-70750653D01*
X159850924Y-70556349D01*
X159944157Y-70343800D01*
X160001134Y-70118805D01*
X160001446Y-70115041D01*
X160020300Y-69887506D01*
X160020300Y-69887493D01*
X160001135Y-69656202D01*
X160001133Y-69656191D01*
X159944157Y-69431199D01*
X159850924Y-69218651D01*
X159723983Y-69024352D01*
X159723980Y-69024349D01*
X159723979Y-69024347D01*
X159566784Y-68853587D01*
X159566779Y-68853583D01*
X159566777Y-68853581D01*
X159383634Y-68711035D01*
X159383628Y-68711031D01*
X159179504Y-68600564D01*
X159179495Y-68600561D01*
X158959984Y-68525202D01*
X158772404Y-68493901D01*
X158731049Y-68487000D01*
X158498951Y-68487000D01*
X158457596Y-68493901D01*
X158270015Y-68525202D01*
X158050504Y-68600561D01*
X158050495Y-68600564D01*
X157846371Y-68711031D01*
X157846365Y-68711035D01*
X157663222Y-68853581D01*
X157663215Y-68853587D01*
X157654484Y-68863072D01*
X157594595Y-68899061D01*
X157524757Y-68896958D01*
X157467143Y-68857432D01*
X157447075Y-68822418D01*
X157418355Y-68745415D01*
X157418350Y-68745406D01*
X157332190Y-68630312D01*
X157332187Y-68630309D01*
X157217093Y-68544149D01*
X157217086Y-68544145D01*
X157082379Y-68493903D01*
X157082372Y-68493901D01*
X157022844Y-68487500D01*
X156325000Y-68487500D01*
X156325000Y-69513310D01*
X156272453Y-69477484D01*
X156142827Y-69437500D01*
X156041276Y-69437500D01*
X155940862Y-69452635D01*
X155825000Y-69508431D01*
X155825000Y-68487500D01*
X155127155Y-68487500D01*
X155067627Y-68493901D01*
X155067620Y-68493903D01*
X154932913Y-68544145D01*
X154932906Y-68544149D01*
X154817812Y-68630309D01*
X154817809Y-68630312D01*
X154731649Y-68745406D01*
X154731645Y-68745413D01*
X154681403Y-68880120D01*
X154681401Y-68880127D01*
X154675000Y-68939655D01*
X154675000Y-69637500D01*
X155699722Y-69637500D01*
X155651375Y-69721240D01*
X155621190Y-69853492D01*
X155631327Y-69988765D01*
X155680887Y-70115041D01*
X155698797Y-70137500D01*
X154675000Y-70137500D01*
X154675000Y-70835344D01*
X149537074Y-70835344D01*
X149534699Y-70802137D01*
X149473890Y-70522604D01*
X149373908Y-70254541D01*
X149236808Y-70003461D01*
X149236807Y-70003460D01*
X149130115Y-69860936D01*
X148411650Y-70579401D01*
X148344854Y-70472237D01*
X148204732Y-70324829D01*
X148059913Y-70224032D01*
X148776562Y-69507383D01*
X148776561Y-69507382D01*
X148634046Y-69400696D01*
X148634038Y-69400691D01*
X148382957Y-69263591D01*
X148382958Y-69263591D01*
X148114895Y-69163609D01*
X147835362Y-69102800D01*
X147550001Y-69082391D01*
X147549999Y-69082391D01*
X147264637Y-69102800D01*
X146985104Y-69163609D01*
X146717041Y-69263591D01*
X146465961Y-69400691D01*
X146465953Y-69400696D01*
X146323437Y-69507382D01*
X146323436Y-69507383D01*
X147041874Y-70225821D01*
X146975786Y-70262504D01*
X146821469Y-70394980D01*
X146696979Y-70555808D01*
X146686374Y-70577427D01*
X145969883Y-69860936D01*
X145969882Y-69860937D01*
X145863196Y-70003453D01*
X145863191Y-70003461D01*
X145726091Y-70254541D01*
X145626109Y-70522604D01*
X145565300Y-70802137D01*
X145544891Y-71087498D01*
X145544891Y-71087501D01*
X145000500Y-71087501D01*
X145000500Y-63837501D01*
X147649500Y-63837501D01*
X147649501Y-63837518D01*
X147660000Y-63940296D01*
X147660001Y-63940299D01*
X147697342Y-64052985D01*
X147715186Y-64106834D01*
X147807288Y-64256156D01*
X147931344Y-64380212D01*
X148042728Y-64448914D01*
X148086558Y-64475948D01*
X148133283Y-64527896D01*
X148144506Y-64596858D01*
X148116663Y-64660941D01*
X148109144Y-64669168D01*
X147961891Y-64816421D01*
X147826399Y-65009921D01*
X147726570Y-65224007D01*
X147726567Y-65224013D01*
X147669364Y-65437499D01*
X147669364Y-65437500D01*
X148716314Y-65437500D01*
X148690507Y-65477656D01*
X148650000Y-65615611D01*
X148650000Y-65759389D01*
X148690507Y-65897344D01*
X148716314Y-65937500D01*
X147669364Y-65937500D01*
X147726567Y-66150986D01*
X147726570Y-66150992D01*
X147826399Y-66365077D01*
X147826400Y-66365079D01*
X147961886Y-66558573D01*
X147961891Y-66558579D01*
X148128920Y-66725608D01*
X148128926Y-66725613D01*
X148322420Y-66861099D01*
X148322422Y-66861100D01*
X148536507Y-66960929D01*
X148536516Y-66960933D01*
X148764673Y-67022067D01*
X148764684Y-67022069D01*
X148899999Y-67033907D01*
X148900000Y-67033907D01*
X148900000Y-66123001D01*
X149007685Y-66172180D01*
X149114237Y-66187500D01*
X149185763Y-66187500D01*
X149292315Y-66172180D01*
X149400000Y-66123001D01*
X149400000Y-67033907D01*
X149535315Y-67022069D01*
X149535326Y-67022067D01*
X149763483Y-66960933D01*
X149763492Y-66960929D01*
X149977577Y-66861100D01*
X149977579Y-66861099D01*
X150171073Y-66725613D01*
X150171079Y-66725608D01*
X150338105Y-66558582D01*
X150473600Y-66365078D01*
X150573429Y-66150992D01*
X150573432Y-66150986D01*
X150630636Y-65937500D01*
X149583686Y-65937500D01*
X149609493Y-65897344D01*
X149650000Y-65759389D01*
X149650000Y-65705123D01*
X155245034Y-65705123D01*
X155264858Y-65931720D01*
X155264860Y-65931731D01*
X155323730Y-66151438D01*
X155323734Y-66151447D01*
X155419865Y-66357602D01*
X155419866Y-66357604D01*
X155470973Y-66430592D01*
X155470974Y-66430593D01*
X156152046Y-65749520D01*
X156164835Y-65830269D01*
X156222359Y-65943166D01*
X156311955Y-66032762D01*
X156424852Y-66090286D01*
X156505599Y-66103074D01*
X155824526Y-66784146D01*
X155824526Y-66784147D01*
X155897512Y-66835252D01*
X155897516Y-66835254D01*
X156103673Y-66931386D01*
X156103682Y-66931390D01*
X156323389Y-66990260D01*
X156323400Y-66990262D01*
X156549998Y-67010087D01*
X156550002Y-67010087D01*
X156776599Y-66990262D01*
X156776610Y-66990260D01*
X156996317Y-66931390D01*
X156996331Y-66931385D01*
X157202478Y-66835257D01*
X157275472Y-66784146D01*
X156594401Y-66103074D01*
X156675148Y-66090286D01*
X156788045Y-66032762D01*
X156877641Y-65943166D01*
X156935165Y-65830269D01*
X156947953Y-65749521D01*
X157629025Y-66430593D01*
X157680136Y-66357599D01*
X157776264Y-66151452D01*
X157776269Y-66151438D01*
X157835139Y-65931731D01*
X157835141Y-65931720D01*
X157854966Y-65705123D01*
X157854966Y-65705118D01*
X157835141Y-65478521D01*
X157835139Y-65478510D01*
X157776269Y-65258803D01*
X157776265Y-65258794D01*
X157680133Y-65052637D01*
X157680131Y-65052633D01*
X157629026Y-64979647D01*
X157629025Y-64979647D01*
X156947953Y-65660719D01*
X156935165Y-65579973D01*
X156877641Y-65467076D01*
X156788045Y-65377480D01*
X156675148Y-65319956D01*
X156594400Y-65307167D01*
X156938696Y-64962870D01*
X162849500Y-64962870D01*
X162849501Y-64962876D01*
X162855908Y-65022483D01*
X162906202Y-65157328D01*
X162906206Y-65157335D01*
X162992452Y-65272544D01*
X162992455Y-65272547D01*
X163107664Y-65358793D01*
X163107671Y-65358797D01*
X163152618Y-65375561D01*
X163242517Y-65409091D01*
X163302127Y-65415500D01*
X163387664Y-65415499D01*
X163454700Y-65435183D01*
X163500456Y-65487986D01*
X163510400Y-65557145D01*
X163481376Y-65620701D01*
X163478286Y-65624135D01*
X163317204Y-65796613D01*
X163317204Y-65796614D01*
X163151527Y-66031323D01*
X163019355Y-66286404D01*
X162923150Y-66557097D01*
X162923146Y-66557111D01*
X162864697Y-66838380D01*
X162862192Y-66874999D01*
X162862193Y-66875000D01*
X164189917Y-66875000D01*
X164165123Y-66945857D01*
X164144938Y-67125000D01*
X164165123Y-67304143D01*
X164189917Y-67375000D01*
X162862193Y-67375000D01*
X162864697Y-67411619D01*
X162923146Y-67692888D01*
X162923150Y-67692902D01*
X163019355Y-67963595D01*
X163151527Y-68218676D01*
X163317204Y-68453385D01*
X163317204Y-68453386D01*
X163513288Y-68663341D01*
X163736135Y-68844641D01*
X163736146Y-68844648D01*
X163981607Y-68993917D01*
X164245108Y-69108371D01*
X164521737Y-69185879D01*
X164521746Y-69185881D01*
X164699999Y-69210380D01*
X164700000Y-69210380D01*
X164700000Y-67885083D01*
X164770857Y-67909877D01*
X164905074Y-67925000D01*
X164994926Y-67925000D01*
X165129143Y-67909877D01*
X165200000Y-67885083D01*
X165200000Y-69210380D01*
X165378253Y-69185881D01*
X165378262Y-69185879D01*
X165654891Y-69108371D01*
X165918392Y-68993917D01*
X166163853Y-68844648D01*
X166163864Y-68844641D01*
X166386711Y-68663341D01*
X166582795Y-68453386D01*
X166582795Y-68453385D01*
X166748472Y-68218676D01*
X166880644Y-67963595D01*
X166976849Y-67692902D01*
X166976853Y-67692888D01*
X167007065Y-67547501D01*
X170264609Y-67547501D01*
X170284136Y-67770700D01*
X170284137Y-67770708D01*
X170342126Y-67987125D01*
X170342127Y-67987127D01*
X170342128Y-67987130D01*
X170351023Y-68006205D01*
X170436819Y-68190196D01*
X170436821Y-68190200D01*
X170565329Y-68373728D01*
X170565334Y-68373734D01*
X170723765Y-68532165D01*
X170723771Y-68532170D01*
X170907299Y-68660678D01*
X170907301Y-68660679D01*
X170907304Y-68660681D01*
X171110370Y-68755372D01*
X171326794Y-68813363D01*
X171486226Y-68827311D01*
X171549998Y-68832891D01*
X171550000Y-68832891D01*
X171550002Y-68832891D01*
X171605801Y-68828009D01*
X171773206Y-68813363D01*
X171989630Y-68755372D01*
X172192696Y-68660681D01*
X172376233Y-68532167D01*
X172534667Y-68373733D01*
X172603186Y-68275876D01*
X172657762Y-68232252D01*
X172704761Y-68223000D01*
X173123126Y-68223000D01*
X173190165Y-68242685D01*
X173210807Y-68259319D01*
X173221955Y-68270467D01*
X173221959Y-68270470D01*
X173366294Y-68359498D01*
X173366297Y-68359499D01*
X173366303Y-68359503D01*
X173527292Y-68412849D01*
X173626655Y-68423000D01*
X174223344Y-68422999D01*
X174223352Y-68422998D01*
X174223355Y-68422998D01*
X174277760Y-68417440D01*
X174322708Y-68412849D01*
X174483697Y-68359503D01*
X174628044Y-68270468D01*
X174747968Y-68150544D01*
X174837003Y-68006197D01*
X174890349Y-67845208D01*
X174900500Y-67745845D01*
X174900499Y-67199156D01*
X174890349Y-67099792D01*
X174837003Y-66938803D01*
X174836999Y-66938797D01*
X174836998Y-66938794D01*
X174747970Y-66794459D01*
X174747967Y-66794455D01*
X174738339Y-66784827D01*
X174704854Y-66723504D01*
X174709838Y-66653812D01*
X174738345Y-66609459D01*
X174747573Y-66600231D01*
X174836542Y-66455992D01*
X174836547Y-66455981D01*
X174889855Y-66295106D01*
X174899999Y-66195822D01*
X174900000Y-66195809D01*
X174900000Y-66172500D01*
X172950001Y-66172500D01*
X172950001Y-66195822D01*
X172960144Y-66295107D01*
X173013452Y-66455981D01*
X173013457Y-66455992D01*
X173060897Y-66532903D01*
X173079338Y-66600295D01*
X173058416Y-66666959D01*
X173004774Y-66711728D01*
X172955359Y-66722000D01*
X172586763Y-66722000D01*
X172519724Y-66702315D01*
X172499082Y-66685682D01*
X172467212Y-66653812D01*
X172376233Y-66562833D01*
X172376229Y-66562830D01*
X172376228Y-66562829D01*
X172192700Y-66434321D01*
X172192696Y-66434319D01*
X172118378Y-66399664D01*
X171989630Y-66339628D01*
X171989627Y-66339627D01*
X171989625Y-66339626D01*
X171773208Y-66281637D01*
X171773200Y-66281636D01*
X171550002Y-66262109D01*
X171549998Y-66262109D01*
X171326799Y-66281636D01*
X171326791Y-66281637D01*
X171110374Y-66339626D01*
X171110370Y-66339628D01*
X171087604Y-66350243D01*
X170907306Y-66434318D01*
X170907304Y-66434319D01*
X170723764Y-66562834D01*
X170565334Y-66721264D01*
X170436819Y-66904804D01*
X170436818Y-66904806D01*
X170342129Y-67107868D01*
X170342126Y-67107874D01*
X170284137Y-67324291D01*
X170284136Y-67324299D01*
X170264609Y-67547498D01*
X170264609Y-67547501D01*
X167007065Y-67547501D01*
X167035302Y-67411619D01*
X167037807Y-67375000D01*
X165710083Y-67375000D01*
X165734877Y-67304143D01*
X165755062Y-67125000D01*
X165734877Y-66945857D01*
X165710083Y-66875000D01*
X167037807Y-66875000D01*
X167037807Y-66874999D01*
X167035302Y-66838380D01*
X166976853Y-66557111D01*
X166976849Y-66557097D01*
X166880644Y-66286404D01*
X166748472Y-66031323D01*
X166582795Y-65796614D01*
X166466881Y-65672500D01*
X172950000Y-65672500D01*
X173675000Y-65672500D01*
X173675000Y-64972500D01*
X174175000Y-64972500D01*
X174175000Y-65672500D01*
X174899999Y-65672500D01*
X174899999Y-65649192D01*
X174899998Y-65649177D01*
X174889855Y-65549892D01*
X174836547Y-65389018D01*
X174836542Y-65389007D01*
X174747575Y-65244771D01*
X174747572Y-65244767D01*
X174627732Y-65124927D01*
X174627728Y-65124924D01*
X174483492Y-65035957D01*
X174483481Y-65035952D01*
X174322606Y-64982644D01*
X174223322Y-64972500D01*
X174175000Y-64972500D01*
X173675000Y-64972500D01*
X173674999Y-64972499D01*
X173626693Y-64972500D01*
X173626675Y-64972501D01*
X173527392Y-64982644D01*
X173366518Y-65035952D01*
X173366507Y-65035957D01*
X173222271Y-65124924D01*
X173222267Y-65124927D01*
X173102427Y-65244767D01*
X173102424Y-65244771D01*
X173013457Y-65389007D01*
X173013452Y-65389018D01*
X172960144Y-65549893D01*
X172950000Y-65649177D01*
X172950000Y-65672500D01*
X166466881Y-65672500D01*
X166421712Y-65624135D01*
X166390341Y-65561705D01*
X166397701Y-65492224D01*
X166441458Y-65437753D01*
X166507718Y-65415585D01*
X166512334Y-65415499D01*
X166597872Y-65415499D01*
X166657483Y-65409091D01*
X166792331Y-65358796D01*
X166907546Y-65272546D01*
X166993796Y-65157331D01*
X167044091Y-65022483D01*
X167050500Y-64962873D01*
X167050500Y-63375370D01*
X167769500Y-63375370D01*
X167769501Y-63375376D01*
X167775908Y-63434983D01*
X167826202Y-63569828D01*
X167826206Y-63569835D01*
X167912452Y-63685044D01*
X167912455Y-63685047D01*
X168027664Y-63771293D01*
X168027671Y-63771297D01*
X168162517Y-63821591D01*
X168162516Y-63821591D01*
X168169444Y-63822335D01*
X168222127Y-63828000D01*
X169877872Y-63827999D01*
X169937483Y-63821591D01*
X170072331Y-63771296D01*
X170187546Y-63685046D01*
X170273796Y-63569831D01*
X170312032Y-63467314D01*
X170353901Y-63411382D01*
X170419365Y-63386964D01*
X170467214Y-63392941D01*
X170527292Y-63412849D01*
X170626655Y-63423000D01*
X171173344Y-63422999D01*
X171173352Y-63422998D01*
X171173355Y-63422998D01*
X171227760Y-63417440D01*
X171272708Y-63412849D01*
X171433697Y-63359503D01*
X171578044Y-63270468D01*
X171587668Y-63260843D01*
X171648987Y-63227356D01*
X171718679Y-63232335D01*
X171763034Y-63260839D01*
X171772267Y-63270072D01*
X171772271Y-63270075D01*
X171916507Y-63359042D01*
X171916518Y-63359047D01*
X172077393Y-63412355D01*
X172176683Y-63422499D01*
X172700000Y-63422499D01*
X172723308Y-63422499D01*
X172723322Y-63422498D01*
X172822607Y-63412355D01*
X172983484Y-63359046D01*
X172990473Y-63354734D01*
X172995188Y-63314376D01*
X172999022Y-63260769D01*
X173027523Y-63216422D01*
X173566922Y-62677023D01*
X173590507Y-62757344D01*
X173668239Y-62878298D01*
X173776900Y-62972452D01*
X173907685Y-63032180D01*
X173917466Y-63033586D01*
X173338887Y-63612165D01*
X173407548Y-63660242D01*
X173407554Y-63660246D01*
X173610540Y-63754899D01*
X173610549Y-63754903D01*
X173826875Y-63812867D01*
X173826886Y-63812869D01*
X174049998Y-63832389D01*
X174050002Y-63832389D01*
X174273113Y-63812869D01*
X174273124Y-63812867D01*
X174489450Y-63754903D01*
X174489464Y-63754898D01*
X174692440Y-63660249D01*
X174761111Y-63612164D01*
X174182534Y-63033586D01*
X174192315Y-63032180D01*
X174323100Y-62972452D01*
X174431761Y-62878298D01*
X174509493Y-62757344D01*
X174533076Y-62677023D01*
X175114664Y-63258610D01*
X175162749Y-63189940D01*
X175257398Y-62986964D01*
X175257403Y-62986950D01*
X175315367Y-62770624D01*
X175315369Y-62770613D01*
X175334889Y-62547502D01*
X175334889Y-62547497D01*
X175315369Y-62324386D01*
X175315367Y-62324375D01*
X175257403Y-62108049D01*
X175257399Y-62108040D01*
X175162746Y-61905056D01*
X175114664Y-61836387D01*
X174533076Y-62417975D01*
X174509493Y-62337656D01*
X174431761Y-62216702D01*
X174323100Y-62122548D01*
X174192315Y-62062820D01*
X174182533Y-62061413D01*
X174761111Y-61482834D01*
X174692444Y-61434753D01*
X174489459Y-61340100D01*
X174489450Y-61340096D01*
X174273124Y-61282132D01*
X174273113Y-61282130D01*
X174050002Y-61262611D01*
X174049998Y-61262611D01*
X173826886Y-61282130D01*
X173826875Y-61282132D01*
X173610549Y-61340096D01*
X173610540Y-61340100D01*
X173407555Y-61434753D01*
X173407551Y-61434755D01*
X173224093Y-61563214D01*
X173224090Y-61563216D01*
X173218487Y-61568820D01*
X173157162Y-61602302D01*
X173087470Y-61597313D01*
X173065713Y-61586673D01*
X172983486Y-61535954D01*
X172983481Y-61535952D01*
X172822606Y-61482644D01*
X172723322Y-61472500D01*
X172700000Y-61472500D01*
X172700000Y-63422499D01*
X172176683Y-63422499D01*
X172200000Y-63422498D01*
X172200000Y-61472499D01*
X172176693Y-61472500D01*
X172176674Y-61472501D01*
X172077392Y-61482644D01*
X171916518Y-61535952D01*
X171916507Y-61535957D01*
X171772271Y-61624924D01*
X171772265Y-61624928D01*
X171763031Y-61634163D01*
X171701707Y-61667646D01*
X171632015Y-61662659D01*
X171587672Y-61634160D01*
X171578044Y-61624532D01*
X171578040Y-61624529D01*
X171433705Y-61535501D01*
X171433699Y-61535498D01*
X171433697Y-61535497D01*
X171402514Y-61525164D01*
X171272709Y-61482151D01*
X171173346Y-61472000D01*
X170626662Y-61472000D01*
X170626644Y-61472001D01*
X170527292Y-61482150D01*
X170527289Y-61482151D01*
X170405843Y-61522394D01*
X170383136Y-61529919D01*
X170313309Y-61532321D01*
X170253267Y-61496589D01*
X170244867Y-61486524D01*
X170187547Y-61409955D01*
X170187544Y-61409952D01*
X170072335Y-61323706D01*
X170072328Y-61323702D01*
X169937482Y-61273408D01*
X169937483Y-61273408D01*
X169877883Y-61267001D01*
X169877881Y-61267000D01*
X169877873Y-61267000D01*
X169877864Y-61267000D01*
X168222129Y-61267000D01*
X168222123Y-61267001D01*
X168162516Y-61273408D01*
X168027671Y-61323702D01*
X168027664Y-61323706D01*
X167912455Y-61409952D01*
X167912452Y-61409955D01*
X167826206Y-61525164D01*
X167826202Y-61525171D01*
X167775908Y-61660017D01*
X167769501Y-61719616D01*
X167769500Y-61719635D01*
X167769500Y-63375370D01*
X167050500Y-63375370D01*
X167050499Y-61667128D01*
X167044091Y-61607517D01*
X167040285Y-61597313D01*
X166993797Y-61472671D01*
X166993792Y-61472662D01*
X166907547Y-61357455D01*
X166907544Y-61357452D01*
X166792335Y-61271206D01*
X166792328Y-61271202D01*
X166657482Y-61220908D01*
X166657483Y-61220908D01*
X166597883Y-61214501D01*
X166597881Y-61214500D01*
X166597873Y-61214500D01*
X166597864Y-61214500D01*
X163302129Y-61214500D01*
X163302123Y-61214501D01*
X163242516Y-61220908D01*
X163107671Y-61271202D01*
X163107664Y-61271206D01*
X162992455Y-61357452D01*
X162992452Y-61357455D01*
X162906208Y-61472662D01*
X162906202Y-61472671D01*
X162855908Y-61607517D01*
X162853044Y-61634160D01*
X162849501Y-61667123D01*
X162849500Y-61667135D01*
X162849500Y-64962870D01*
X156938696Y-64962870D01*
X157280646Y-64620920D01*
X157290492Y-64571928D01*
X157339107Y-64521745D01*
X157394633Y-64507102D01*
X157394576Y-64506021D01*
X157394571Y-64505975D01*
X157394573Y-64505974D01*
X157394564Y-64505797D01*
X157397857Y-64505620D01*
X157397872Y-64505620D01*
X157457483Y-64499212D01*
X157592331Y-64448917D01*
X157707546Y-64362667D01*
X157793796Y-64247452D01*
X157844091Y-64112604D01*
X157850500Y-64052994D01*
X157850499Y-62357249D01*
X157844091Y-62297638D01*
X157833099Y-62268168D01*
X157793797Y-62162792D01*
X157793793Y-62162785D01*
X157707547Y-62047576D01*
X157707544Y-62047573D01*
X157592335Y-61961327D01*
X157592328Y-61961323D01*
X157457482Y-61911029D01*
X157457483Y-61911029D01*
X157397883Y-61904622D01*
X157397881Y-61904621D01*
X157397873Y-61904621D01*
X157397864Y-61904621D01*
X155702129Y-61904621D01*
X155702123Y-61904622D01*
X155642516Y-61911029D01*
X155507671Y-61961323D01*
X155507664Y-61961327D01*
X155392455Y-62047573D01*
X155392452Y-62047576D01*
X155306206Y-62162785D01*
X155306202Y-62162792D01*
X155255908Y-62297638D01*
X155253034Y-62324375D01*
X155249501Y-62357244D01*
X155249500Y-62357256D01*
X155249500Y-64052991D01*
X155249501Y-64052997D01*
X155255908Y-64112604D01*
X155306202Y-64247449D01*
X155306206Y-64247456D01*
X155392452Y-64362665D01*
X155392455Y-64362668D01*
X155507664Y-64448914D01*
X155507671Y-64448918D01*
X155552618Y-64465682D01*
X155642517Y-64499212D01*
X155702127Y-64505621D01*
X155702153Y-64505620D01*
X155705453Y-64505799D01*
X155705372Y-64507304D01*
X155766672Y-64525233D01*
X155812483Y-64577988D01*
X155820016Y-64621584D01*
X156505600Y-65307167D01*
X156424852Y-65319956D01*
X156311955Y-65377480D01*
X156222359Y-65467076D01*
X156164835Y-65579973D01*
X156152046Y-65660720D01*
X155470973Y-64979647D01*
X155470972Y-64979648D01*
X155419868Y-65052634D01*
X155323734Y-65258794D01*
X155323730Y-65258803D01*
X155264860Y-65478510D01*
X155264858Y-65478521D01*
X155245034Y-65705118D01*
X155245034Y-65705123D01*
X149650000Y-65705123D01*
X149650000Y-65615611D01*
X149609493Y-65477656D01*
X149583686Y-65437500D01*
X150630636Y-65437500D01*
X150630635Y-65437499D01*
X150573432Y-65224013D01*
X150573429Y-65224007D01*
X150473600Y-65009922D01*
X150473599Y-65009920D01*
X150338113Y-64816426D01*
X150190856Y-64669168D01*
X150157372Y-64607845D01*
X150162356Y-64538153D01*
X150204228Y-64482220D01*
X150213442Y-64475948D01*
X150257265Y-64448918D01*
X150368656Y-64380212D01*
X150492712Y-64256156D01*
X150584814Y-64106834D01*
X150639999Y-63940297D01*
X150650500Y-63837509D01*
X150650499Y-62537492D01*
X150639999Y-62434703D01*
X150584814Y-62268166D01*
X150492712Y-62118844D01*
X150368656Y-61994788D01*
X150232862Y-61911030D01*
X150219336Y-61902687D01*
X150219331Y-61902685D01*
X150217862Y-61902198D01*
X150052797Y-61847501D01*
X150052795Y-61847500D01*
X149950010Y-61837000D01*
X148349998Y-61837000D01*
X148349981Y-61837001D01*
X148247203Y-61847500D01*
X148247200Y-61847501D01*
X148080668Y-61902685D01*
X148080663Y-61902687D01*
X147931342Y-61994789D01*
X147807289Y-62118842D01*
X147715187Y-62268163D01*
X147715185Y-62268168D01*
X147692159Y-62337656D01*
X147660001Y-62434703D01*
X147660001Y-62434704D01*
X147660000Y-62434704D01*
X147649500Y-62537483D01*
X147649500Y-63837501D01*
X145000500Y-63837501D01*
X145000500Y-60124500D01*
X145020185Y-60057461D01*
X145072989Y-60011706D01*
X145124500Y-60000500D01*
X175875500Y-60000500D01*
X175942539Y-60020185D01*
G37*
%TD.AperFunction*%
%TD*%
M02*
