%TF.GenerationSoftware,KiCad,Pcbnew,7.0.8-7.0.8~ubuntu22.04.1*%
%TF.CreationDate,2023-11-01T15:39:39+03:00*%
%TF.ProjectId,main-module,6d61696e-2d6d-46f6-9475-6c652e6b6963,rev?*%
%TF.SameCoordinates,Original*%
%TF.FileFunction,Copper,L1,Top*%
%TF.FilePolarity,Positive*%
%FSLAX46Y46*%
G04 Gerber Fmt 4.6, Leading zero omitted, Abs format (unit mm)*
G04 Created by KiCad (PCBNEW 7.0.8-7.0.8~ubuntu22.04.1) date 2023-11-01 15:39:39*
%MOMM*%
%LPD*%
G01*
G04 APERTURE LIST*
G04 Aperture macros list*
%AMRoundRect*
0 Rectangle with rounded corners*
0 $1 Rounding radius*
0 $2 $3 $4 $5 $6 $7 $8 $9 X,Y pos of 4 corners*
0 Add a 4 corners polygon primitive as box body*
4,1,4,$2,$3,$4,$5,$6,$7,$8,$9,$2,$3,0*
0 Add four circle primitives for the rounded corners*
1,1,$1+$1,$2,$3*
1,1,$1+$1,$4,$5*
1,1,$1+$1,$6,$7*
1,1,$1+$1,$8,$9*
0 Add four rect primitives between the rounded corners*
20,1,$1+$1,$2,$3,$4,$5,0*
20,1,$1+$1,$4,$5,$6,$7,0*
20,1,$1+$1,$6,$7,$8,$9,0*
20,1,$1+$1,$8,$9,$2,$3,0*%
G04 Aperture macros list end*
%TA.AperFunction,ComponentPad*%
%ADD10RoundRect,0.250000X-0.725000X0.600000X-0.725000X-0.600000X0.725000X-0.600000X0.725000X0.600000X0*%
%TD*%
%TA.AperFunction,ComponentPad*%
%ADD11O,1.950000X1.700000*%
%TD*%
%TA.AperFunction,SMDPad,CuDef*%
%ADD12RoundRect,0.225000X-0.250000X0.225000X-0.250000X-0.225000X0.250000X-0.225000X0.250000X0.225000X0*%
%TD*%
%TA.AperFunction,ComponentPad*%
%ADD13R,3.200000X3.200000*%
%TD*%
%TA.AperFunction,ComponentPad*%
%ADD14O,3.200000X3.200000*%
%TD*%
%TA.AperFunction,ComponentPad*%
%ADD15R,1.560000X1.560000*%
%TD*%
%TA.AperFunction,ComponentPad*%
%ADD16C,1.560000*%
%TD*%
%TA.AperFunction,SMDPad,CuDef*%
%ADD17RoundRect,0.250000X-0.450000X0.262500X-0.450000X-0.262500X0.450000X-0.262500X0.450000X0.262500X0*%
%TD*%
%TA.AperFunction,ComponentPad*%
%ADD18R,1.600000X1.600000*%
%TD*%
%TA.AperFunction,ComponentPad*%
%ADD19C,1.600000*%
%TD*%
%TA.AperFunction,SMDPad,CuDef*%
%ADD20RoundRect,0.250000X0.450000X-0.262500X0.450000X0.262500X-0.450000X0.262500X-0.450000X-0.262500X0*%
%TD*%
%TA.AperFunction,SMDPad,CuDef*%
%ADD21C,1.000000*%
%TD*%
%TA.AperFunction,ComponentPad*%
%ADD22C,3.000000*%
%TD*%
%TA.AperFunction,SMDPad,CuDef*%
%ADD23RoundRect,0.225000X0.250000X-0.225000X0.250000X0.225000X-0.250000X0.225000X-0.250000X-0.225000X0*%
%TD*%
%TA.AperFunction,ComponentPad*%
%ADD24R,1.800000X1.800000*%
%TD*%
%TA.AperFunction,ComponentPad*%
%ADD25C,1.800000*%
%TD*%
%TA.AperFunction,SMDPad,CuDef*%
%ADD26RoundRect,0.225000X-0.225000X-0.975000X0.225000X-0.975000X0.225000X0.975000X-0.225000X0.975000X0*%
%TD*%
%TA.AperFunction,SMDPad,CuDef*%
%ADD27RoundRect,0.150000X-0.725000X-0.150000X0.725000X-0.150000X0.725000X0.150000X-0.725000X0.150000X0*%
%TD*%
%TA.AperFunction,ComponentPad*%
%ADD28RoundRect,0.250000X-0.750000X0.600000X-0.750000X-0.600000X0.750000X-0.600000X0.750000X0.600000X0*%
%TD*%
%TA.AperFunction,ComponentPad*%
%ADD29O,2.000000X1.700000*%
%TD*%
%TA.AperFunction,ViaPad*%
%ADD30C,0.800000*%
%TD*%
%TA.AperFunction,Conductor*%
%ADD31C,0.500000*%
%TD*%
%TA.AperFunction,Conductor*%
%ADD32C,1.000000*%
%TD*%
G04 APERTURE END LIST*
D10*
%TO.P,T1,1,AA*%
%TO.N,Net-(T1-AA)*%
X172550000Y-75687500D03*
D11*
%TO.P,T1,2,AB*%
%TO.N,Net-(T1-AB)*%
X172550000Y-78187500D03*
%TO.P,T1,3,SA*%
%TO.N,Net-(T1-SA)*%
X172550000Y-80687500D03*
%TO.P,T1,4,SC*%
%TO.N,VPP*%
X172550000Y-83187500D03*
%TO.P,T1,5,SB*%
%TO.N,Net-(T1-SB)*%
X172550000Y-85687500D03*
%TD*%
D12*
%TO.P,C23,1*%
%TO.N,Net-(U9-CT)*%
X146750000Y-81475000D03*
%TO.P,C23,2*%
%TO.N,GND1*%
X146750000Y-83025000D03*
%TD*%
D13*
%TO.P,D4,1,K*%
%TO.N,VPP*%
X164950000Y-63315000D03*
D14*
%TO.P,D4,2,A*%
%TO.N,GND1*%
X164950000Y-67125000D03*
%TD*%
D15*
%TO.P,RV2,1,1*%
%TO.N,Net-(D6-+)*%
X169050000Y-62547500D03*
D16*
%TO.P,RV2,2,2*%
%TO.N,/TL494_FEEDBACK*%
X171550000Y-67547500D03*
%TO.P,RV2,3,3*%
%TO.N,GND1*%
X174050000Y-62547500D03*
%TD*%
D17*
%TO.P,R14,1*%
%TO.N,/TL494_VREF*%
X146950000Y-77812500D03*
%TO.P,R14,2*%
%TO.N,/TL494_DTC*%
X146950000Y-79637500D03*
%TD*%
D18*
%TO.P,C18,1*%
%TO.N,VPP*%
X156550000Y-63205121D03*
D19*
%TO.P,C18,2*%
%TO.N,GND1*%
X156550000Y-65705121D03*
%TD*%
D12*
%TO.P,C25,1*%
%TO.N,/TL494_VREF*%
X149150000Y-77712500D03*
%TO.P,C25,2*%
%TO.N,/TL494_DTC*%
X149150000Y-79262500D03*
%TD*%
D17*
%TO.P,R21,1*%
%TO.N,VPP*%
X160750000Y-66975000D03*
%TO.P,R21,2*%
%TO.N,Net-(D5-A)*%
X160750000Y-68800000D03*
%TD*%
D20*
%TO.P,R15,1*%
%TO.N,/TL494_DTC*%
X146950000Y-76050000D03*
%TO.P,R15,2*%
%TO.N,GND1*%
X146950000Y-74225000D03*
%TD*%
D12*
%TO.P,C22,1*%
%TO.N,VPP*%
X158900000Y-81225000D03*
%TO.P,C22,2*%
%TO.N,GND1*%
X158900000Y-82775000D03*
%TD*%
D21*
%TO.P,TP6,1,1*%
%TO.N,Net-(D6-+)*%
X173750000Y-70887500D03*
%TD*%
D22*
%TO.P,TP5,1,1*%
%TO.N,GND1*%
X147550000Y-71087500D03*
%TD*%
D23*
%TO.P,C21,1*%
%TO.N,/TL494_VREF*%
X158900000Y-78462500D03*
%TO.P,C21,2*%
%TO.N,GND1*%
X158900000Y-76912500D03*
%TD*%
D24*
%TO.P,D5,1,K*%
%TO.N,GND1*%
X156075000Y-69887500D03*
D25*
%TO.P,D5,2,A*%
%TO.N,Net-(D5-A)*%
X158615000Y-69887500D03*
%TD*%
D26*
%TO.P,D6,1,+*%
%TO.N,Net-(D6-+)*%
X167000000Y-71287500D03*
%TO.P,D6,2,-*%
%TO.N,GND1*%
X164500000Y-71287500D03*
%TO.P,D6,3*%
%TO.N,Net-(T1-AA)*%
X164500000Y-77287500D03*
%TO.P,D6,4*%
%TO.N,Net-(T1-AB)*%
X167000000Y-77287500D03*
%TD*%
D27*
%TO.P,U9,1,1IN+*%
%TO.N,GND1*%
X151175000Y-76055000D03*
%TO.P,U9,2,1IN-*%
%TO.N,/TL494_VREF*%
X151175000Y-77325000D03*
%TO.P,U9,3,FB*%
%TO.N,/TL494_FEEDBACK*%
X151175000Y-78595000D03*
%TO.P,U9,4,DTC*%
%TO.N,/TL494_DTC*%
X151175000Y-79865000D03*
%TO.P,U9,5,CT*%
%TO.N,Net-(U9-CT)*%
X151175000Y-81135000D03*
%TO.P,U9,6,RT*%
%TO.N,Net-(U9-RT)*%
X151175000Y-82405000D03*
%TO.P,U9,7,GND*%
%TO.N,GND1*%
X151175000Y-83675000D03*
%TO.P,U9,8,C1*%
%TO.N,Net-(U11-IN-)*%
X151175000Y-84945000D03*
%TO.P,U9,9,E1*%
%TO.N,GND1*%
X156325000Y-84945000D03*
%TO.P,U9,10,E2*%
X156325000Y-83675000D03*
%TO.P,U9,11,C2*%
%TO.N,Net-(U12-IN-)*%
X156325000Y-82405000D03*
%TO.P,U9,12,VCC*%
%TO.N,VPP*%
X156325000Y-81135000D03*
%TO.P,U9,13,OUTCTRL*%
%TO.N,/TL494_VREF*%
X156325000Y-79865000D03*
%TO.P,U9,14,REF*%
X156325000Y-78595000D03*
%TO.P,U9,15,2IN-*%
X156325000Y-77325000D03*
%TO.P,U9,16,2IN+*%
%TO.N,GND1*%
X156325000Y-76055000D03*
%TD*%
D17*
%TO.P,R13,1*%
%TO.N,Net-(U9-RT)*%
X148750000Y-82337500D03*
%TO.P,R13,2*%
%TO.N,GND1*%
X148750000Y-84162500D03*
%TD*%
D28*
%TO.P,J4,1,Pin_1*%
%TO.N,VPP*%
X149150000Y-63187500D03*
D29*
%TO.P,J4,2,Pin_2*%
%TO.N,GND1*%
X149150000Y-65687500D03*
%TD*%
D30*
%TO.N,Net-(U11-IN-)*%
X152950000Y-84887500D03*
%TO.N,Net-(U12-IN-)*%
X153950000Y-81687500D03*
X152150000Y-73487500D03*
%TO.N,VPP*%
X154950000Y-80687500D03*
%TO.N,/TL494_FEEDBACK*%
X152550000Y-78487500D03*
%TD*%
D31*
%TO.N,Net-(U9-RT)*%
X151107500Y-82337500D02*
X151175000Y-82405000D01*
X148750000Y-82337500D02*
X151107500Y-82337500D01*
%TO.N,Net-(U11-IN-)*%
X152892500Y-84945000D02*
X152950000Y-84887500D01*
X151175000Y-84945000D02*
X152892500Y-84945000D01*
%TO.N,Net-(U12-IN-)*%
X154667500Y-82405000D02*
X153950000Y-81687500D01*
X156325000Y-82405000D02*
X154667500Y-82405000D01*
%TO.N,VPP*%
X158950000Y-81112500D02*
X156347500Y-81112500D01*
X156325000Y-81135000D02*
X155397500Y-81135000D01*
D32*
X149150000Y-63187500D02*
X156532379Y-63187500D01*
D31*
X160750000Y-63405121D02*
X160550000Y-63205121D01*
D32*
X160550000Y-63205121D02*
X164840121Y-63205121D01*
D31*
X155397500Y-81135000D02*
X154950000Y-80687500D01*
X160750000Y-66975000D02*
X160750000Y-63405121D01*
D32*
X156550000Y-63205121D02*
X160550000Y-63205121D01*
D31*
%TO.N,GND1*%
X153550000Y-76055000D02*
X156325000Y-76055000D01*
X156325000Y-83675000D02*
X156325000Y-84945000D01*
X148750000Y-84162500D02*
X150687500Y-84162500D01*
X158950000Y-82662500D02*
X159875000Y-81737500D01*
X150687500Y-84162500D02*
X151175000Y-83675000D01*
X153550000Y-70087500D02*
X149150000Y-65687500D01*
X146950000Y-74225000D02*
X149345000Y-74225000D01*
X148750000Y-84162500D02*
X147887500Y-84162500D01*
X149345000Y-74225000D02*
X151175000Y-76055000D01*
X153550000Y-76055000D02*
X153550000Y-70087500D01*
X164500000Y-71287500D02*
X164500000Y-67575000D01*
X158950000Y-82662500D02*
X157937500Y-83675000D01*
X151175000Y-76055000D02*
X153550000Y-76055000D01*
X159875000Y-77875000D02*
X158055000Y-76055000D01*
X151175000Y-83675000D02*
X156325000Y-83675000D01*
X158055000Y-76055000D02*
X156325000Y-76055000D01*
X147887500Y-84162500D02*
X146750000Y-83025000D01*
X159875000Y-81737500D02*
X159875000Y-77875000D01*
X157937500Y-83675000D02*
X156325000Y-83675000D01*
%TO.N,Net-(U9-CT)*%
X147090000Y-81135000D02*
X151175000Y-81135000D01*
X146750000Y-81475000D02*
X147090000Y-81135000D01*
%TO.N,/TL494_VREF*%
X150787500Y-77712500D02*
X151175000Y-77325000D01*
X156325000Y-78595000D02*
X158417500Y-78595000D01*
X146950000Y-77812500D02*
X149050000Y-77812500D01*
X156325000Y-77325000D02*
X151175000Y-77325000D01*
X156325000Y-77325000D02*
X156325000Y-79865000D01*
X149150000Y-77712500D02*
X150787500Y-77712500D01*
%TO.N,/TL494_DTC*%
X145550000Y-76687500D02*
X146187500Y-76050000D01*
X146950000Y-79637500D02*
X148775000Y-79637500D01*
X149150000Y-79262500D02*
X149752500Y-79865000D01*
X148775000Y-79637500D02*
X149150000Y-79262500D01*
X145550000Y-78887500D02*
X145550000Y-76687500D01*
X146950000Y-79637500D02*
X146300000Y-79637500D01*
X146300000Y-79637500D02*
X145550000Y-78887500D01*
X146187500Y-76050000D02*
X146950000Y-76050000D01*
X149752500Y-79865000D02*
X151175000Y-79865000D01*
%TO.N,/TL494_FEEDBACK*%
X151175000Y-78595000D02*
X152442500Y-78595000D01*
X152442500Y-78595000D02*
X152550000Y-78487500D01*
%TO.N,Net-(T1-AA)*%
X166150000Y-75637500D02*
X172500000Y-75637500D01*
X164500000Y-77287500D02*
X166150000Y-75637500D01*
%TO.N,Net-(T1-AB)*%
X167000000Y-77287500D02*
X167900000Y-78187500D01*
X167900000Y-78187500D02*
X172550000Y-78187500D01*
%TO.N,Net-(D6-+)*%
X167000000Y-71287500D02*
X168950000Y-69337500D01*
X167400000Y-70887500D02*
X167000000Y-71287500D01*
X168950000Y-69337500D02*
X168950000Y-62647500D01*
X173750000Y-70887500D02*
X167400000Y-70887500D01*
%TO.N,Net-(D5-A)*%
X158615000Y-69887500D02*
X159662500Y-69887500D01*
X159662500Y-69887500D02*
X160750000Y-68800000D01*
%TD*%
%TA.AperFunction,Conductor*%
%TO.N,Net-(D6-+)*%
G36*
X169057998Y-62555048D02*
G01*
X169058269Y-62555328D01*
X169774873Y-63320355D01*
X169778028Y-63328735D01*
X169775714Y-63335347D01*
X169203509Y-64102794D01*
X169195816Y-64107378D01*
X169194129Y-64107500D01*
X168706910Y-64107500D01*
X168698637Y-64104073D01*
X168696664Y-64101449D01*
X168274243Y-63335197D01*
X168273250Y-63326297D01*
X168276209Y-63321282D01*
X169041453Y-62555057D01*
X169049723Y-62551626D01*
X169057998Y-62555048D01*
G37*
%TD.AperFunction*%
%TD*%
%TA.AperFunction,Conductor*%
%TO.N,Net-(U12-IN-)*%
G36*
X155602772Y-82106145D02*
G01*
X155746340Y-82165471D01*
X156299832Y-82394187D01*
X156306170Y-82400513D01*
X156306177Y-82409468D01*
X156299852Y-82415804D01*
X156299836Y-82415811D01*
X156299832Y-82415813D01*
X155602774Y-82703853D01*
X155597014Y-82704668D01*
X155160408Y-82656156D01*
X155152564Y-82651837D01*
X155150000Y-82644528D01*
X155150000Y-82165471D01*
X155153427Y-82157198D01*
X155160406Y-82153843D01*
X155597017Y-82105331D01*
X155602772Y-82106145D01*
G37*
%TD.AperFunction*%
%TD*%
%TA.AperFunction,Conductor*%
%TO.N,GND1*%
G36*
X150098379Y-65439167D02*
G01*
X150103486Y-65445263D01*
X150586376Y-66765874D01*
X150585999Y-66774821D01*
X150583661Y-66778165D01*
X150240993Y-67120833D01*
X150232720Y-67124260D01*
X150228102Y-67123310D01*
X149460656Y-66793602D01*
X148759144Y-66492221D01*
X148752896Y-66485808D01*
X148753013Y-66476854D01*
X148753294Y-66476249D01*
X149146928Y-65691506D01*
X149153699Y-65685650D01*
X149154375Y-65685448D01*
X150089505Y-65437970D01*
X150098379Y-65439167D01*
G37*
%TD.AperFunction*%
%TD*%
%TA.AperFunction,Conductor*%
%TO.N,GND1*%
G36*
X148302234Y-83653075D02*
G01*
X148304371Y-83654977D01*
X148741171Y-84152349D01*
X148744055Y-84160826D01*
X148740101Y-84168860D01*
X148738103Y-84170274D01*
X148087607Y-84535056D01*
X148078715Y-84536114D01*
X148075027Y-84534331D01*
X147474359Y-84099835D01*
X147469664Y-84092209D01*
X147471736Y-84083498D01*
X147472937Y-84082088D01*
X147814210Y-83740815D01*
X147820377Y-83737580D01*
X148293481Y-83651190D01*
X148302234Y-83653075D01*
G37*
%TD.AperFunction*%
%TD*%
%TA.AperFunction,Conductor*%
%TO.N,/TL494_VREF*%
G36*
X157489593Y-78343843D02*
G01*
X157497436Y-78348162D01*
X157500000Y-78355471D01*
X157500000Y-78834528D01*
X157496573Y-78842801D01*
X157489592Y-78846156D01*
X157052985Y-78894668D01*
X157047225Y-78893853D01*
X156350167Y-78605813D01*
X156343829Y-78599487D01*
X156343822Y-78590532D01*
X156350146Y-78584195D01*
X157047227Y-78296145D01*
X157052982Y-78295331D01*
X157489593Y-78343843D01*
G37*
%TD.AperFunction*%
%TD*%
%TA.AperFunction,Conductor*%
%TO.N,GND1*%
G36*
X147502289Y-73733946D02*
G01*
X148154813Y-73972193D01*
X148161409Y-73978249D01*
X148162500Y-73983183D01*
X148162500Y-74466816D01*
X148159073Y-74475089D01*
X148154813Y-74477806D01*
X147502292Y-74716052D01*
X147493345Y-74715671D01*
X147490439Y-74713747D01*
X146958621Y-74233685D01*
X146954776Y-74225598D01*
X146957776Y-74217160D01*
X146958621Y-74216315D01*
X147225952Y-73975000D01*
X147490440Y-73736251D01*
X147498877Y-73733252D01*
X147502289Y-73733946D01*
G37*
%TD.AperFunction*%
%TD*%
%TA.AperFunction,Conductor*%
%TO.N,GND1*%
G36*
X157489593Y-83423843D02*
G01*
X157497436Y-83428162D01*
X157500000Y-83435471D01*
X157500000Y-83914528D01*
X157496573Y-83922801D01*
X157489592Y-83926156D01*
X157052985Y-83974668D01*
X157047225Y-83973853D01*
X156350167Y-83685813D01*
X156343829Y-83679487D01*
X156343822Y-83670532D01*
X156350146Y-83664195D01*
X157047227Y-83376145D01*
X157052982Y-83375331D01*
X157489593Y-83423843D01*
G37*
%TD.AperFunction*%
%TD*%
%TA.AperFunction,Conductor*%
%TO.N,GND1*%
G36*
X147224967Y-82867230D02*
G01*
X147229833Y-82871737D01*
X147634442Y-83552716D01*
X147635721Y-83561578D01*
X147632656Y-83566964D01*
X147292033Y-83907587D01*
X147283760Y-83911014D01*
X147277680Y-83909310D01*
X146572153Y-83480200D01*
X146566865Y-83472973D01*
X146567415Y-83465747D01*
X146747265Y-83029214D01*
X146753584Y-83022872D01*
X146754316Y-83022596D01*
X147216035Y-82866631D01*
X147224967Y-82867230D01*
G37*
%TD.AperFunction*%
%TD*%
%TA.AperFunction,Conductor*%
%TO.N,Net-(D6-+)*%
G36*
X173557677Y-70429360D02*
G01*
X173562573Y-70434963D01*
X173749127Y-70883003D01*
X173749144Y-70891957D01*
X173749127Y-70891997D01*
X173562573Y-71340036D01*
X173556229Y-71346357D01*
X173548806Y-71346857D01*
X172758734Y-71139789D01*
X172751600Y-71134376D01*
X172750000Y-71128471D01*
X172750000Y-70646528D01*
X172753427Y-70638255D01*
X172758731Y-70635211D01*
X173548806Y-70428142D01*
X173557677Y-70429360D01*
G37*
%TD.AperFunction*%
%TD*%
%TA.AperFunction,Conductor*%
%TO.N,/TL494_DTC*%
G36*
X146270693Y-75720775D02*
G01*
X146936851Y-76042599D01*
X146942809Y-76049283D01*
X146942296Y-76058224D01*
X146940552Y-76060855D01*
X146503675Y-76558315D01*
X146495641Y-76562269D01*
X146494433Y-76562285D01*
X146050659Y-76545150D01*
X146042837Y-76541732D01*
X145701606Y-76200501D01*
X145698179Y-76192228D01*
X145701606Y-76183955D01*
X145702395Y-76183235D01*
X146258135Y-75722303D01*
X146266689Y-75719661D01*
X146270693Y-75720775D01*
G37*
%TD.AperFunction*%
%TD*%
%TA.AperFunction,Conductor*%
%TO.N,VPP*%
G36*
X155751993Y-62408051D02*
G01*
X155755213Y-62410328D01*
X156542665Y-63196797D01*
X156546097Y-63205068D01*
X156542675Y-63213343D01*
X156542619Y-63213399D01*
X155755380Y-63991038D01*
X155747086Y-63994414D01*
X155742944Y-63993629D01*
X154957486Y-63690390D01*
X154951002Y-63684213D01*
X154950000Y-63679475D01*
X154950000Y-62695777D01*
X154953427Y-62687504D01*
X154957803Y-62684745D01*
X155743053Y-62407573D01*
X155751993Y-62408051D01*
G37*
%TD.AperFunction*%
%TD*%
%TA.AperFunction,Conductor*%
%TO.N,Net-(T1-AA)*%
G36*
X171735436Y-74862706D02*
G01*
X172261326Y-75394548D01*
X172542825Y-75679232D01*
X172546205Y-75687524D01*
X172542784Y-75695726D01*
X171731009Y-76508579D01*
X171722738Y-76512011D01*
X171716507Y-76510219D01*
X170730477Y-75890939D01*
X170725294Y-75883637D01*
X170725000Y-75881031D01*
X170725000Y-75394548D01*
X170728427Y-75386275D01*
X170731232Y-75384205D01*
X171717645Y-74862707D01*
X171721649Y-74860589D01*
X171730564Y-74859752D01*
X171735436Y-74862706D01*
G37*
%TD.AperFunction*%
%TD*%
%TA.AperFunction,Conductor*%
%TO.N,GND1*%
G36*
X159404849Y-81867660D02*
G01*
X159745497Y-82208308D01*
X159748924Y-82216581D01*
X159747554Y-82222075D01*
X159379540Y-82913937D01*
X159372629Y-82919632D01*
X159365761Y-82919623D01*
X158904410Y-82777285D01*
X158897515Y-82771571D01*
X158897143Y-82770801D01*
X158705725Y-82333986D01*
X158705544Y-82325035D01*
X158709952Y-82319557D01*
X159390088Y-81866197D01*
X159398871Y-81864460D01*
X159404849Y-81867660D01*
G37*
%TD.AperFunction*%
%TD*%
%TA.AperFunction,Conductor*%
%TO.N,Net-(D5-A)*%
G36*
X158628257Y-68989306D02*
G01*
X160013915Y-69178093D01*
X160020608Y-69181413D01*
X160362583Y-69523388D01*
X160366010Y-69531661D01*
X160362583Y-69539934D01*
X160362066Y-69540421D01*
X159259629Y-70516605D01*
X159251164Y-70519523D01*
X159243610Y-70516127D01*
X158617731Y-69891637D01*
X158614296Y-69883371D01*
X158614989Y-69000889D01*
X158618422Y-68992620D01*
X158626698Y-68989200D01*
X158628257Y-68989306D01*
G37*
%TD.AperFunction*%
%TD*%
%TA.AperFunction,Conductor*%
%TO.N,VPP*%
G36*
X157357048Y-62407764D02*
G01*
X158142408Y-62702274D01*
X158148951Y-62708388D01*
X158150000Y-62713229D01*
X158150000Y-63697013D01*
X158146573Y-63705286D01*
X158142408Y-63707968D01*
X157357048Y-64002477D01*
X157348098Y-64002173D01*
X157344672Y-63999800D01*
X157052475Y-63707968D01*
X156557287Y-63213398D01*
X156553856Y-63205128D01*
X156557278Y-63196853D01*
X156557288Y-63196843D01*
X157344674Y-62410440D01*
X157352947Y-62407019D01*
X157357048Y-62407764D01*
G37*
%TD.AperFunction*%
%TD*%
%TA.AperFunction,Conductor*%
%TO.N,GND1*%
G36*
X157489593Y-75803843D02*
G01*
X157497436Y-75808162D01*
X157500000Y-75815471D01*
X157500000Y-76294528D01*
X157496573Y-76302801D01*
X157489592Y-76306156D01*
X157052985Y-76354668D01*
X157047225Y-76353853D01*
X156350167Y-76065813D01*
X156343829Y-76059487D01*
X156343822Y-76050532D01*
X156350146Y-76044195D01*
X157047227Y-75756145D01*
X157052982Y-75755331D01*
X157489593Y-75803843D01*
G37*
%TD.AperFunction*%
%TD*%
%TA.AperFunction,Conductor*%
%TO.N,Net-(U11-IN-)*%
G36*
X152339593Y-84693843D02*
G01*
X152347436Y-84698162D01*
X152350000Y-84705471D01*
X152350000Y-85184528D01*
X152346573Y-85192801D01*
X152339592Y-85196156D01*
X151902985Y-85244668D01*
X151897225Y-85243853D01*
X151200167Y-84955813D01*
X151193829Y-84949487D01*
X151193822Y-84940532D01*
X151200146Y-84934195D01*
X151897227Y-84646145D01*
X151902982Y-84645331D01*
X152339593Y-84693843D01*
G37*
%TD.AperFunction*%
%TD*%
%TA.AperFunction,Conductor*%
%TO.N,/TL494_VREF*%
G36*
X147502289Y-77321446D02*
G01*
X148154813Y-77559693D01*
X148161409Y-77565749D01*
X148162500Y-77570683D01*
X148162500Y-78054316D01*
X148159073Y-78062589D01*
X148154813Y-78065306D01*
X147502292Y-78303552D01*
X147493345Y-78303171D01*
X147490439Y-78301247D01*
X146958621Y-77821185D01*
X146954776Y-77813098D01*
X146957776Y-77804660D01*
X146958621Y-77803815D01*
X147225952Y-77562500D01*
X147490440Y-77323751D01*
X147498877Y-77320752D01*
X147502289Y-77321446D01*
G37*
%TD.AperFunction*%
%TD*%
%TA.AperFunction,Conductor*%
%TO.N,Net-(T1-AB)*%
G36*
X172099295Y-77406044D02*
G01*
X172104732Y-77410925D01*
X172547649Y-78181670D01*
X172548800Y-78190551D01*
X172547649Y-78193330D01*
X172104732Y-78964074D01*
X172097639Y-78969539D01*
X172090343Y-78969147D01*
X170732455Y-78440402D01*
X170725989Y-78434206D01*
X170725000Y-78429499D01*
X170725000Y-77945500D01*
X170728427Y-77937227D01*
X170732455Y-77934597D01*
X172090345Y-77405852D01*
X172099295Y-77406044D01*
G37*
%TD.AperFunction*%
%TD*%
%TA.AperFunction,Conductor*%
%TO.N,GND1*%
G36*
X164749655Y-69640927D02*
G01*
X164752556Y-69645730D01*
X164931629Y-70222392D01*
X164931290Y-70230278D01*
X164510835Y-71261915D01*
X164504539Y-71268283D01*
X164495584Y-71268334D01*
X164489216Y-71262038D01*
X164489165Y-71261915D01*
X164068709Y-70230278D01*
X164068370Y-70222392D01*
X164247444Y-69645730D01*
X164253171Y-69638846D01*
X164258618Y-69637500D01*
X164741382Y-69637500D01*
X164749655Y-69640927D01*
G37*
%TD.AperFunction*%
%TD*%
%TA.AperFunction,Conductor*%
%TO.N,Net-(T1-AB)*%
G36*
X167449890Y-77104855D02*
G01*
X167455263Y-77109375D01*
X167939935Y-77871003D01*
X167941485Y-77879822D01*
X167938337Y-77885557D01*
X167592012Y-78231882D01*
X167590746Y-78232978D01*
X167441773Y-78344395D01*
X167433096Y-78346606D01*
X167425397Y-78342033D01*
X167423916Y-78339403D01*
X167003638Y-77297563D01*
X167003721Y-77288609D01*
X167010029Y-77282369D01*
X167440936Y-77104838D01*
X167449890Y-77104855D01*
G37*
%TD.AperFunction*%
%TD*%
%TA.AperFunction,Conductor*%
%TO.N,/TL494_DTC*%
G36*
X147502289Y-79146446D02*
G01*
X148154813Y-79384693D01*
X148161409Y-79390749D01*
X148162500Y-79395683D01*
X148162500Y-79879316D01*
X148159073Y-79887589D01*
X148154813Y-79890306D01*
X147502292Y-80128552D01*
X147493345Y-80128171D01*
X147490439Y-80126247D01*
X146958621Y-79646185D01*
X146954776Y-79638098D01*
X146957776Y-79629660D01*
X146958621Y-79628815D01*
X147225952Y-79387500D01*
X147490440Y-79148751D01*
X147498877Y-79145752D01*
X147502289Y-79146446D01*
G37*
%TD.AperFunction*%
%TD*%
%TA.AperFunction,Conductor*%
%TO.N,VPP*%
G36*
X155239466Y-80414574D02*
G01*
X155240802Y-80416180D01*
X155562567Y-80881999D01*
X155564640Y-80888648D01*
X155564640Y-81367279D01*
X155561213Y-81375552D01*
X155552940Y-81378979D01*
X155548344Y-81378038D01*
X154807544Y-81061587D01*
X154801282Y-81055186D01*
X154801320Y-81046376D01*
X154867727Y-80885000D01*
X154948105Y-80689673D01*
X154950663Y-80685842D01*
X155222920Y-80414544D01*
X155231199Y-80411133D01*
X155239466Y-80414574D01*
G37*
%TD.AperFunction*%
%TD*%
%TA.AperFunction,Conductor*%
%TO.N,VPP*%
G36*
X163355429Y-62250096D02*
G01*
X164935413Y-63304597D01*
X164940392Y-63312040D01*
X164938650Y-63320824D01*
X164934810Y-63324437D01*
X163355688Y-64244940D01*
X163346815Y-64246146D01*
X163344212Y-64245113D01*
X162356116Y-63708442D01*
X162350481Y-63701482D01*
X162350000Y-63698161D01*
X162350000Y-62712627D01*
X162353427Y-62704354D01*
X162356822Y-62701992D01*
X163344063Y-62249195D01*
X163353010Y-62248862D01*
X163355429Y-62250096D01*
G37*
%TD.AperFunction*%
%TD*%
%TA.AperFunction,Conductor*%
%TO.N,Net-(U12-IN-)*%
G36*
X154239421Y-81414617D02*
G01*
X154240783Y-81416262D01*
X154686978Y-82068395D01*
X154688822Y-82077158D01*
X154685595Y-82083275D01*
X154345775Y-82423095D01*
X154337502Y-82426522D01*
X154330895Y-82424478D01*
X153678762Y-81978283D01*
X153673869Y-81970783D01*
X153675713Y-81962020D01*
X153677075Y-81960375D01*
X153949293Y-81686793D01*
X154222875Y-81414575D01*
X154231156Y-81411169D01*
X154239421Y-81414617D01*
G37*
%TD.AperFunction*%
%TD*%
%TA.AperFunction,Conductor*%
%TO.N,Net-(U9-RT)*%
G36*
X151172740Y-82104824D02*
G01*
X151180960Y-82108373D01*
X151184265Y-82116696D01*
X151184261Y-82116858D01*
X151176241Y-82396578D01*
X151172579Y-82404750D01*
X151167936Y-82407441D01*
X150344456Y-82656742D01*
X150338714Y-82657005D01*
X150009348Y-82589418D01*
X150001933Y-82584398D01*
X150000000Y-82577957D01*
X150000000Y-82099374D01*
X150003427Y-82091101D01*
X150011700Y-82087674D01*
X150011828Y-82087674D01*
X151172740Y-82104824D01*
G37*
%TD.AperFunction*%
%TD*%
%TA.AperFunction,Conductor*%
%TO.N,VPP*%
G36*
X158650784Y-80778353D02*
G01*
X158653861Y-80781922D01*
X158896880Y-81217614D01*
X158897917Y-81226508D01*
X158895278Y-81231228D01*
X158532277Y-81626353D01*
X158524156Y-81630128D01*
X158518511Y-81628944D01*
X157981550Y-81365710D01*
X157975630Y-81358991D01*
X157975000Y-81355204D01*
X157975000Y-80872781D01*
X157978427Y-80864508D01*
X157985195Y-80861178D01*
X158642141Y-80776018D01*
X158650784Y-80778353D01*
G37*
%TD.AperFunction*%
%TD*%
%TA.AperFunction,Conductor*%
%TO.N,Net-(U9-RT)*%
G36*
X149302289Y-81846446D02*
G01*
X149954813Y-82084693D01*
X149961409Y-82090749D01*
X149962500Y-82095683D01*
X149962500Y-82579316D01*
X149959073Y-82587589D01*
X149954813Y-82590306D01*
X149302292Y-82828552D01*
X149293345Y-82828171D01*
X149290439Y-82826247D01*
X148758621Y-82346185D01*
X148754776Y-82338098D01*
X148757776Y-82329660D01*
X148758621Y-82328815D01*
X149025952Y-82087500D01*
X149290440Y-81848751D01*
X149298877Y-81845752D01*
X149302289Y-81846446D01*
G37*
%TD.AperFunction*%
%TD*%
%TA.AperFunction,Conductor*%
%TO.N,Net-(U9-CT)*%
G36*
X150452772Y-80836145D02*
G01*
X150596340Y-80895471D01*
X151149832Y-81124187D01*
X151156170Y-81130513D01*
X151156177Y-81139468D01*
X151149852Y-81145804D01*
X151149836Y-81145811D01*
X151149832Y-81145813D01*
X150452774Y-81433853D01*
X150447014Y-81434668D01*
X150010408Y-81386156D01*
X150002564Y-81381837D01*
X150000000Y-81374528D01*
X150000000Y-80895471D01*
X150003427Y-80887198D01*
X150010406Y-80883843D01*
X150447017Y-80835331D01*
X150452772Y-80836145D01*
G37*
%TD.AperFunction*%
%TD*%
%TA.AperFunction,Conductor*%
%TO.N,Net-(D6-+)*%
G36*
X167441769Y-70230601D02*
G01*
X167590746Y-70342021D01*
X167592012Y-70343117D01*
X167938337Y-70689442D01*
X167941764Y-70697715D01*
X167939935Y-70703996D01*
X167455263Y-71465624D01*
X167447930Y-71470764D01*
X167440935Y-71470161D01*
X167010031Y-71292631D01*
X167003687Y-71286311D01*
X167003638Y-71277436D01*
X167234964Y-70703996D01*
X167423916Y-70235595D01*
X167430189Y-70229206D01*
X167439143Y-70229123D01*
X167441769Y-70230601D01*
G37*
%TD.AperFunction*%
%TD*%
%TA.AperFunction,Conductor*%
%TO.N,/TL494_VREF*%
G36*
X152339593Y-77073843D02*
G01*
X152347436Y-77078162D01*
X152350000Y-77085471D01*
X152350000Y-77564528D01*
X152346573Y-77572801D01*
X152339592Y-77576156D01*
X151902985Y-77624668D01*
X151897225Y-77623853D01*
X151200167Y-77335813D01*
X151193829Y-77329487D01*
X151193822Y-77320532D01*
X151200146Y-77314195D01*
X151897227Y-77026145D01*
X151902982Y-77025331D01*
X152339593Y-77073843D01*
G37*
%TD.AperFunction*%
%TD*%
%TA.AperFunction,Conductor*%
%TO.N,VPP*%
G36*
X157489015Y-80861828D02*
G01*
X157497062Y-80865753D01*
X157500000Y-80873506D01*
X157500000Y-81352408D01*
X157496573Y-81360681D01*
X157490018Y-81363981D01*
X157115737Y-81419528D01*
X157110044Y-81418959D01*
X156352433Y-81145271D01*
X156345816Y-81139237D01*
X156345404Y-81130292D01*
X156351438Y-81123675D01*
X156351919Y-81123462D01*
X157047511Y-80836028D01*
X157052688Y-80835164D01*
X157489015Y-80861828D01*
G37*
%TD.AperFunction*%
%TD*%
%TA.AperFunction,Conductor*%
%TO.N,/TL494_DTC*%
G36*
X149624010Y-79069965D02*
G01*
X149629925Y-79075413D01*
X149906499Y-79612479D01*
X149907797Y-79617836D01*
X149907797Y-80097076D01*
X149904370Y-80105349D01*
X149896097Y-80108776D01*
X149891389Y-80107787D01*
X149001972Y-79716852D01*
X148995777Y-79710386D01*
X148995632Y-79702288D01*
X149026951Y-79612479D01*
X149147272Y-79267454D01*
X149153231Y-79260773D01*
X149153838Y-79260501D01*
X149615058Y-79069956D01*
X149624010Y-79069965D01*
G37*
%TD.AperFunction*%
%TD*%
%TA.AperFunction,Conductor*%
%TO.N,Net-(T1-AA)*%
G36*
X164941769Y-76230601D02*
G01*
X165090746Y-76342021D01*
X165092012Y-76343117D01*
X165438337Y-76689442D01*
X165441764Y-76697715D01*
X165439935Y-76703996D01*
X164955263Y-77465624D01*
X164947930Y-77470764D01*
X164940935Y-77470161D01*
X164510031Y-77292631D01*
X164503687Y-77286311D01*
X164503638Y-77277436D01*
X164734964Y-76703996D01*
X164923916Y-76235595D01*
X164930189Y-76229206D01*
X164939143Y-76229123D01*
X164941769Y-76230601D01*
G37*
%TD.AperFunction*%
%TD*%
%TA.AperFunction,Conductor*%
%TO.N,GND1*%
G36*
X152339593Y-75803843D02*
G01*
X152347436Y-75808162D01*
X152350000Y-75815471D01*
X152350000Y-76294528D01*
X152346573Y-76302801D01*
X152339592Y-76306156D01*
X151902985Y-76354668D01*
X151897225Y-76353853D01*
X151200167Y-76065813D01*
X151193829Y-76059487D01*
X151193822Y-76050532D01*
X151200146Y-76044195D01*
X151897227Y-75756145D01*
X151902982Y-75755331D01*
X152339593Y-75803843D01*
G37*
%TD.AperFunction*%
%TD*%
%TA.AperFunction,Conductor*%
%TO.N,/TL494_VREF*%
G36*
X149493832Y-77282027D02*
G01*
X149506665Y-77286012D01*
X150066770Y-77459944D01*
X150073654Y-77465671D01*
X150075000Y-77471118D01*
X150075000Y-77953881D01*
X150071573Y-77962154D01*
X150066770Y-77965055D01*
X149493832Y-78142972D01*
X149484915Y-78142152D01*
X149481131Y-78138987D01*
X149336978Y-77953881D01*
X149154597Y-77719688D01*
X149152218Y-77711056D01*
X149154597Y-77705312D01*
X149481132Y-77286011D01*
X149488918Y-77281590D01*
X149493832Y-77282027D01*
G37*
%TD.AperFunction*%
%TD*%
%TA.AperFunction,Conductor*%
%TO.N,VPP*%
G36*
X155404458Y-80783499D02*
G01*
X156333220Y-80834354D01*
X156341293Y-80838228D01*
X156344262Y-80846676D01*
X156344256Y-80846786D01*
X156326288Y-81126645D01*
X156322338Y-81134681D01*
X156316783Y-81137392D01*
X155456443Y-81299865D01*
X155449909Y-81299224D01*
X155062148Y-81143372D01*
X155055749Y-81137107D01*
X155055655Y-81128153D01*
X155058236Y-81124245D01*
X155395573Y-80786908D01*
X155403845Y-80783482D01*
X155404458Y-80783499D01*
G37*
%TD.AperFunction*%
%TD*%
%TA.AperFunction,Conductor*%
%TO.N,/TL494_DTC*%
G36*
X146069755Y-79048751D02*
G01*
X147032020Y-79123988D01*
X147040001Y-79128049D01*
X147042772Y-79136564D01*
X147042616Y-79137765D01*
X146951873Y-79631855D01*
X146947008Y-79639373D01*
X146944710Y-79640605D01*
X146260359Y-79914293D01*
X146251404Y-79914184D01*
X146247960Y-79911915D01*
X145719537Y-79410151D01*
X145715898Y-79401971D01*
X145719110Y-79393612D01*
X145719285Y-79393431D01*
X146060574Y-79052142D01*
X146068846Y-79048716D01*
X146069755Y-79048751D01*
G37*
%TD.AperFunction*%
%TD*%
%TA.AperFunction,Conductor*%
%TO.N,GND1*%
G36*
X155602772Y-75756145D02*
G01*
X155746340Y-75815471D01*
X156299832Y-76044187D01*
X156306170Y-76050513D01*
X156306177Y-76059468D01*
X156299852Y-76065804D01*
X156299836Y-76065811D01*
X156299832Y-76065813D01*
X155602774Y-76353853D01*
X155597014Y-76354668D01*
X155160408Y-76306156D01*
X155152564Y-76301837D01*
X155150000Y-76294528D01*
X155150000Y-75815471D01*
X155153427Y-75807198D01*
X155160406Y-75803843D01*
X155597017Y-75755331D01*
X155602772Y-75756145D01*
G37*
%TD.AperFunction*%
%TD*%
%TA.AperFunction,Conductor*%
%TO.N,/TL494_VREF*%
G36*
X148789964Y-77306039D02*
G01*
X149145481Y-77706287D01*
X149148414Y-77714748D01*
X149146952Y-77719756D01*
X148903937Y-78155440D01*
X148896914Y-78160996D01*
X148892004Y-78161315D01*
X148234985Y-78063979D01*
X148227304Y-78059376D01*
X148225000Y-78052405D01*
X148225000Y-77569926D01*
X148228427Y-77561653D01*
X148231720Y-77559339D01*
X148776239Y-77303221D01*
X148785182Y-77302801D01*
X148789964Y-77306039D01*
G37*
%TD.AperFunction*%
%TD*%
%TA.AperFunction,Conductor*%
%TO.N,Net-(D5-A)*%
G36*
X160743169Y-68799033D02*
G01*
X160751317Y-68802742D01*
X160753582Y-68806267D01*
X160958409Y-69303102D01*
X160958394Y-69312056D01*
X160953519Y-69317649D01*
X160070055Y-69836715D01*
X160061186Y-69837951D01*
X160055855Y-69834900D01*
X159714558Y-69493603D01*
X159711131Y-69485330D01*
X159712279Y-69480276D01*
X160046694Y-68782115D01*
X160053359Y-68776135D01*
X160057643Y-68775477D01*
X160743169Y-68799033D01*
G37*
%TD.AperFunction*%
%TD*%
%TA.AperFunction,Conductor*%
%TO.N,GND1*%
G36*
X155602772Y-83376145D02*
G01*
X155746340Y-83435471D01*
X156299832Y-83664187D01*
X156306170Y-83670513D01*
X156306177Y-83679468D01*
X156299852Y-83685804D01*
X156299836Y-83685811D01*
X156299832Y-83685813D01*
X155602774Y-83973853D01*
X155597014Y-83974668D01*
X155160408Y-83926156D01*
X155152564Y-83921837D01*
X155150000Y-83914528D01*
X155150000Y-83435471D01*
X155153427Y-83427198D01*
X155160406Y-83423843D01*
X155597017Y-83375331D01*
X155602772Y-83376145D01*
G37*
%TD.AperFunction*%
%TD*%
%TA.AperFunction,Conductor*%
%TO.N,VPP*%
G36*
X150002435Y-62358759D02*
G01*
X150991962Y-62684851D01*
X150998747Y-62690695D01*
X151000000Y-62695963D01*
X151000000Y-63679036D01*
X150996573Y-63687309D01*
X150991962Y-63690148D01*
X150002440Y-64016239D01*
X149993510Y-64015574D01*
X149990585Y-64013478D01*
X149157506Y-63195848D01*
X149154003Y-63187609D01*
X149157352Y-63179305D01*
X149157466Y-63179190D01*
X149990585Y-62361520D01*
X149998887Y-62358173D01*
X150002435Y-62358759D01*
G37*
%TD.AperFunction*%
%TD*%
%TA.AperFunction,Conductor*%
%TO.N,/TL494_VREF*%
G36*
X156333258Y-77332285D02*
G01*
X156568034Y-77567844D01*
X156620758Y-77620744D01*
X156624171Y-77629022D01*
X156624012Y-77630926D01*
X156576630Y-77915223D01*
X156571890Y-77922821D01*
X156565089Y-77925000D01*
X156084911Y-77925000D01*
X156076638Y-77921573D01*
X156073370Y-77915223D01*
X156025987Y-77630924D01*
X156028007Y-77622203D01*
X156029236Y-77620749D01*
X156316714Y-77332313D01*
X156324981Y-77328873D01*
X156333258Y-77332285D01*
G37*
%TD.AperFunction*%
%TD*%
%TA.AperFunction,Conductor*%
%TO.N,GND1*%
G36*
X152339593Y-83423843D02*
G01*
X152347436Y-83428162D01*
X152350000Y-83435471D01*
X152350000Y-83914528D01*
X152346573Y-83922801D01*
X152339592Y-83926156D01*
X151902985Y-83974668D01*
X151897225Y-83973853D01*
X151200167Y-83685813D01*
X151193829Y-83679487D01*
X151193822Y-83670532D01*
X151200146Y-83664195D01*
X151897227Y-83376145D01*
X151902982Y-83375331D01*
X152339593Y-83423843D01*
G37*
%TD.AperFunction*%
%TD*%
%TA.AperFunction,Conductor*%
%TO.N,GND1*%
G36*
X158433724Y-82602968D02*
G01*
X158793876Y-82735099D01*
X158895732Y-82772468D01*
X158902318Y-82778535D01*
X158902616Y-82779235D01*
X159071179Y-83215454D01*
X159070964Y-83224406D01*
X159065897Y-83229926D01*
X158342156Y-83627366D01*
X158333255Y-83628345D01*
X158328251Y-83625384D01*
X157987632Y-83284765D01*
X157984205Y-83276492D01*
X157986115Y-83270085D01*
X158419909Y-82607543D01*
X158427307Y-82602500D01*
X158433724Y-82602968D01*
G37*
%TD.AperFunction*%
%TD*%
%TA.AperFunction,Conductor*%
%TO.N,/TL494_VREF*%
G36*
X155602772Y-77026145D02*
G01*
X155746340Y-77085471D01*
X156299832Y-77314187D01*
X156306170Y-77320513D01*
X156306177Y-77329468D01*
X156299852Y-77335804D01*
X156299836Y-77335811D01*
X156299832Y-77335813D01*
X155602774Y-77623853D01*
X155597014Y-77624668D01*
X155160408Y-77576156D01*
X155152564Y-77571837D01*
X155150000Y-77564528D01*
X155150000Y-77085471D01*
X155153427Y-77077198D01*
X155160406Y-77073843D01*
X155597017Y-77025331D01*
X155602772Y-77026145D01*
G37*
%TD.AperFunction*%
%TD*%
%TA.AperFunction,Conductor*%
%TO.N,/TL494_DTC*%
G36*
X150452772Y-79566145D02*
G01*
X150596340Y-79625471D01*
X151149832Y-79854187D01*
X151156170Y-79860513D01*
X151156177Y-79869468D01*
X151149852Y-79875804D01*
X151149836Y-79875811D01*
X151149832Y-79875813D01*
X150452774Y-80163853D01*
X150447014Y-80164668D01*
X150010408Y-80116156D01*
X150002564Y-80111837D01*
X150000000Y-80104528D01*
X150000000Y-79625471D01*
X150003427Y-79617198D01*
X150010406Y-79613843D01*
X150447017Y-79565331D01*
X150452772Y-79566145D01*
G37*
%TD.AperFunction*%
%TD*%
%TA.AperFunction,Conductor*%
%TO.N,/TL494_VREF*%
G36*
X156573362Y-79268427D02*
G01*
X156576630Y-79274777D01*
X156624012Y-79559073D01*
X156621992Y-79567797D01*
X156620758Y-79569255D01*
X156333287Y-79857685D01*
X156325019Y-79861126D01*
X156316741Y-79857713D01*
X156316713Y-79857685D01*
X156029241Y-79569255D01*
X156025828Y-79560977D01*
X156025986Y-79559083D01*
X156073370Y-79274775D01*
X156078111Y-79267179D01*
X156084911Y-79265000D01*
X156565089Y-79265000D01*
X156573362Y-79268427D01*
G37*
%TD.AperFunction*%
%TD*%
%TA.AperFunction,Conductor*%
%TO.N,VPP*%
G36*
X161001042Y-65953427D02*
G01*
X161003234Y-65956467D01*
X161258683Y-66467298D01*
X161259318Y-66476230D01*
X161256397Y-66480897D01*
X160758179Y-66968003D01*
X160749868Y-66971336D01*
X160741821Y-66968003D01*
X160243602Y-66480897D01*
X160240082Y-66472663D01*
X160241315Y-66467301D01*
X160496766Y-65956466D01*
X160503532Y-65950600D01*
X160507231Y-65950000D01*
X160992769Y-65950000D01*
X161001042Y-65953427D01*
G37*
%TD.AperFunction*%
%TD*%
%TA.AperFunction,Conductor*%
%TO.N,/TL494_FEEDBACK*%
G36*
X152339593Y-78343843D02*
G01*
X152347436Y-78348162D01*
X152350000Y-78355471D01*
X152350000Y-78834528D01*
X152346573Y-78842801D01*
X152339592Y-78846156D01*
X151902985Y-78894668D01*
X151897225Y-78893853D01*
X151200167Y-78605813D01*
X151193829Y-78599487D01*
X151193822Y-78590532D01*
X151200146Y-78584195D01*
X151897227Y-78296145D01*
X151902982Y-78295331D01*
X152339593Y-78343843D01*
G37*
%TD.AperFunction*%
%TD*%
%TA.AperFunction,Conductor*%
%TO.N,GND1*%
G36*
X149302289Y-83671446D02*
G01*
X149954813Y-83909693D01*
X149961409Y-83915749D01*
X149962500Y-83920683D01*
X149962500Y-84404316D01*
X149959073Y-84412589D01*
X149954813Y-84415306D01*
X149302292Y-84653552D01*
X149293345Y-84653171D01*
X149290439Y-84651247D01*
X148758621Y-84171185D01*
X148754776Y-84163098D01*
X148757776Y-84154660D01*
X148758621Y-84153815D01*
X149025952Y-83912500D01*
X149290440Y-83673751D01*
X149298877Y-83670752D01*
X149302289Y-83671446D01*
G37*
%TD.AperFunction*%
%TD*%
%TA.AperFunction,Conductor*%
%TO.N,Net-(U9-CT)*%
G36*
X147633875Y-80889138D02*
G01*
X147638446Y-80896838D01*
X147638565Y-80898505D01*
X147638565Y-81379871D01*
X147635138Y-81388144D01*
X147634794Y-81388475D01*
X147215651Y-81774745D01*
X147207245Y-81777831D01*
X147201241Y-81775882D01*
X146753125Y-81477744D01*
X146748135Y-81470308D01*
X146748100Y-81470127D01*
X146668141Y-81036968D01*
X146670009Y-81028212D01*
X146677523Y-81023340D01*
X146677939Y-81023271D01*
X147625198Y-80886924D01*
X147633875Y-80889138D01*
G37*
%TD.AperFunction*%
%TD*%
%TA.AperFunction,Conductor*%
%TO.N,Net-(U11-IN-)*%
G36*
X152795856Y-84521803D02*
G01*
X152800905Y-84527490D01*
X152870999Y-84695613D01*
X152950093Y-84885324D01*
X152950994Y-84889855D01*
X152950032Y-85274380D01*
X152946584Y-85282645D01*
X152938303Y-85286051D01*
X152936969Y-85285971D01*
X152171774Y-85196212D01*
X152163956Y-85191845D01*
X152161437Y-85184592D01*
X152161437Y-84703886D01*
X152164864Y-84695613D01*
X152169997Y-84692615D01*
X152786969Y-84520722D01*
X152795856Y-84521803D01*
G37*
%TD.AperFunction*%
%TD*%
%TA.AperFunction,Conductor*%
%TO.N,GND1*%
G36*
X156333258Y-83682285D02*
G01*
X156568034Y-83917844D01*
X156620758Y-83970744D01*
X156624171Y-83979022D01*
X156624012Y-83980926D01*
X156576630Y-84265223D01*
X156571890Y-84272821D01*
X156565089Y-84275000D01*
X156084911Y-84275000D01*
X156076638Y-84271573D01*
X156073370Y-84265223D01*
X156025987Y-83980924D01*
X156028007Y-83972203D01*
X156029236Y-83970749D01*
X156316714Y-83682313D01*
X156324981Y-83678873D01*
X156333258Y-83682285D01*
G37*
%TD.AperFunction*%
%TD*%
%TA.AperFunction,Conductor*%
%TO.N,/TL494_FEEDBACK*%
G36*
X152395378Y-78122156D02*
G01*
X152401223Y-78128253D01*
X152550093Y-78485324D01*
X152550994Y-78489855D01*
X152550030Y-78875174D01*
X152546582Y-78883439D01*
X152538301Y-78886845D01*
X152537692Y-78886828D01*
X151782445Y-78845603D01*
X151774371Y-78841730D01*
X151771383Y-78833920D01*
X151771383Y-78353200D01*
X151774810Y-78344927D01*
X151779090Y-78342202D01*
X152386432Y-78121757D01*
X152395378Y-78122156D01*
G37*
%TD.AperFunction*%
%TD*%
%TA.AperFunction,Conductor*%
%TO.N,GND1*%
G36*
X156573362Y-84348427D02*
G01*
X156576630Y-84354777D01*
X156624012Y-84639073D01*
X156621992Y-84647797D01*
X156620758Y-84649255D01*
X156333287Y-84937685D01*
X156325019Y-84941126D01*
X156316741Y-84937713D01*
X156316713Y-84937685D01*
X156029241Y-84649255D01*
X156025828Y-84640977D01*
X156025986Y-84639083D01*
X156073370Y-84354775D01*
X156078111Y-84347179D01*
X156084911Y-84345000D01*
X156565089Y-84345000D01*
X156573362Y-84348427D01*
G37*
%TD.AperFunction*%
%TD*%
%TA.AperFunction,Conductor*%
%TO.N,GND1*%
G36*
X150847861Y-75373044D02*
G01*
X151070079Y-75561075D01*
X151292762Y-75749499D01*
X151296864Y-75757459D01*
X151296026Y-75762878D01*
X151180168Y-76044849D01*
X151173854Y-76051199D01*
X151164899Y-76051224D01*
X151164863Y-76051209D01*
X150466901Y-75761705D01*
X150460572Y-75755370D01*
X150460577Y-75746415D01*
X150463107Y-75742629D01*
X150486092Y-75719645D01*
X150832033Y-75373703D01*
X150840305Y-75370277D01*
X150847861Y-75373044D01*
G37*
%TD.AperFunction*%
%TD*%
%TA.AperFunction,Conductor*%
%TO.N,GND1*%
G36*
X164955624Y-67134600D02*
G01*
X164956990Y-67136554D01*
X165715856Y-68499316D01*
X165716887Y-68508211D01*
X165714570Y-68512561D01*
X164753505Y-69649580D01*
X164745547Y-69653686D01*
X164744569Y-69653727D01*
X164258422Y-69653727D01*
X164250149Y-69650300D01*
X164247327Y-69645740D01*
X164096294Y-69194486D01*
X163752519Y-68167351D01*
X163753143Y-68158420D01*
X163755965Y-68154786D01*
X164939123Y-67133389D01*
X164947624Y-67130577D01*
X164955624Y-67134600D01*
G37*
%TD.AperFunction*%
%TD*%
M02*
