%TF.GenerationSoftware,KiCad,Pcbnew,7.0.8-7.0.8~ubuntu22.04.1*%
%TF.CreationDate,2023-11-01T15:39:39+03:00*%
%TF.ProjectId,main-module,6d61696e-2d6d-46f6-9475-6c652e6b6963,rev?*%
%TF.SameCoordinates,Original*%
%TF.FileFunction,Legend,Bot*%
%TF.FilePolarity,Positive*%
%FSLAX46Y46*%
G04 Gerber Fmt 4.6, Leading zero omitted, Abs format (unit mm)*
G04 Created by KiCad (PCBNEW 7.0.8-7.0.8~ubuntu22.04.1) date 2023-11-01 15:39:39*
%MOMM*%
%LPD*%
G01*
G04 APERTURE LIST*
%ADD10C,0.150000*%
%ADD11C,0.120000*%
G04 APERTURE END LIST*
D10*
X159910839Y-61184104D02*
X159434649Y-61184104D01*
X160006077Y-61469819D02*
X159672744Y-60469819D01*
X159672744Y-60469819D02*
X159339411Y-61469819D01*
X158434649Y-61374580D02*
X158482268Y-61422200D01*
X158482268Y-61422200D02*
X158625125Y-61469819D01*
X158625125Y-61469819D02*
X158720363Y-61469819D01*
X158720363Y-61469819D02*
X158863220Y-61422200D01*
X158863220Y-61422200D02*
X158958458Y-61326961D01*
X158958458Y-61326961D02*
X159006077Y-61231723D01*
X159006077Y-61231723D02*
X159053696Y-61041247D01*
X159053696Y-61041247D02*
X159053696Y-60898390D01*
X159053696Y-60898390D02*
X159006077Y-60707914D01*
X159006077Y-60707914D02*
X158958458Y-60612676D01*
X158958458Y-60612676D02*
X158863220Y-60517438D01*
X158863220Y-60517438D02*
X158720363Y-60469819D01*
X158720363Y-60469819D02*
X158625125Y-60469819D01*
X158625125Y-60469819D02*
X158482268Y-60517438D01*
X158482268Y-60517438D02*
X158434649Y-60565057D01*
X158101315Y-60469819D02*
X157863220Y-61469819D01*
X157863220Y-61469819D02*
X157672744Y-60755533D01*
X157672744Y-60755533D02*
X157482268Y-61469819D01*
X157482268Y-61469819D02*
X157244173Y-60469819D01*
X156863220Y-61088866D02*
X156101316Y-61088866D01*
X155196554Y-61422200D02*
X155291792Y-61469819D01*
X155291792Y-61469819D02*
X155482268Y-61469819D01*
X155482268Y-61469819D02*
X155577506Y-61422200D01*
X155577506Y-61422200D02*
X155625125Y-61374580D01*
X155625125Y-61374580D02*
X155672744Y-61279342D01*
X155672744Y-61279342D02*
X155672744Y-60993628D01*
X155672744Y-60993628D02*
X155625125Y-60898390D01*
X155625125Y-60898390D02*
X155577506Y-60850771D01*
X155577506Y-60850771D02*
X155482268Y-60803152D01*
X155482268Y-60803152D02*
X155291792Y-60803152D01*
X155291792Y-60803152D02*
X155196554Y-60850771D01*
X154767982Y-61469819D02*
X154767982Y-60469819D01*
X154339411Y-61469819D02*
X154339411Y-60946009D01*
X154339411Y-60946009D02*
X154387030Y-60850771D01*
X154387030Y-60850771D02*
X154482268Y-60803152D01*
X154482268Y-60803152D02*
X154625125Y-60803152D01*
X154625125Y-60803152D02*
X154720363Y-60850771D01*
X154720363Y-60850771D02*
X154767982Y-60898390D01*
X153434649Y-61469819D02*
X153434649Y-60946009D01*
X153434649Y-60946009D02*
X153482268Y-60850771D01*
X153482268Y-60850771D02*
X153577506Y-60803152D01*
X153577506Y-60803152D02*
X153767982Y-60803152D01*
X153767982Y-60803152D02*
X153863220Y-60850771D01*
X153434649Y-61422200D02*
X153529887Y-61469819D01*
X153529887Y-61469819D02*
X153767982Y-61469819D01*
X153767982Y-61469819D02*
X153863220Y-61422200D01*
X153863220Y-61422200D02*
X153910839Y-61326961D01*
X153910839Y-61326961D02*
X153910839Y-61231723D01*
X153910839Y-61231723D02*
X153863220Y-61136485D01*
X153863220Y-61136485D02*
X153767982Y-61088866D01*
X153767982Y-61088866D02*
X153529887Y-61088866D01*
X153529887Y-61088866D02*
X153434649Y-61041247D01*
X152958458Y-61469819D02*
X152958458Y-60803152D01*
X152958458Y-60993628D02*
X152910839Y-60898390D01*
X152910839Y-60898390D02*
X152863220Y-60850771D01*
X152863220Y-60850771D02*
X152767982Y-60803152D01*
X152767982Y-60803152D02*
X152672744Y-60803152D01*
X151910839Y-60803152D02*
X151910839Y-61612676D01*
X151910839Y-61612676D02*
X151958458Y-61707914D01*
X151958458Y-61707914D02*
X152006077Y-61755533D01*
X152006077Y-61755533D02*
X152101315Y-61803152D01*
X152101315Y-61803152D02*
X152244172Y-61803152D01*
X152244172Y-61803152D02*
X152339410Y-61755533D01*
X151910839Y-61422200D02*
X152006077Y-61469819D01*
X152006077Y-61469819D02*
X152196553Y-61469819D01*
X152196553Y-61469819D02*
X152291791Y-61422200D01*
X152291791Y-61422200D02*
X152339410Y-61374580D01*
X152339410Y-61374580D02*
X152387029Y-61279342D01*
X152387029Y-61279342D02*
X152387029Y-60993628D01*
X152387029Y-60993628D02*
X152339410Y-60898390D01*
X152339410Y-60898390D02*
X152291791Y-60850771D01*
X152291791Y-60850771D02*
X152196553Y-60803152D01*
X152196553Y-60803152D02*
X152006077Y-60803152D01*
X152006077Y-60803152D02*
X151910839Y-60850771D01*
X151053696Y-61422200D02*
X151148934Y-61469819D01*
X151148934Y-61469819D02*
X151339410Y-61469819D01*
X151339410Y-61469819D02*
X151434648Y-61422200D01*
X151434648Y-61422200D02*
X151482267Y-61326961D01*
X151482267Y-61326961D02*
X151482267Y-60946009D01*
X151482267Y-60946009D02*
X151434648Y-60850771D01*
X151434648Y-60850771D02*
X151339410Y-60803152D01*
X151339410Y-60803152D02*
X151148934Y-60803152D01*
X151148934Y-60803152D02*
X151053696Y-60850771D01*
X151053696Y-60850771D02*
X151006077Y-60946009D01*
X151006077Y-60946009D02*
X151006077Y-61041247D01*
X151006077Y-61041247D02*
X151482267Y-61136485D01*
X150577505Y-61469819D02*
X150577505Y-60803152D01*
X150577505Y-60993628D02*
X150529886Y-60898390D01*
X150529886Y-60898390D02*
X150482267Y-60850771D01*
X150482267Y-60850771D02*
X150387029Y-60803152D01*
X150387029Y-60803152D02*
X150291791Y-60803152D01*
X149958457Y-61088866D02*
X149196553Y-61088866D01*
X148815600Y-60803152D02*
X148577505Y-61469819D01*
X148577505Y-61469819D02*
X148339410Y-60803152D01*
X147434648Y-61469819D02*
X148006076Y-61469819D01*
X147720362Y-61469819D02*
X147720362Y-60469819D01*
X147720362Y-60469819D02*
X147815600Y-60612676D01*
X147815600Y-60612676D02*
X147910838Y-60707914D01*
X147910838Y-60707914D02*
X148006076Y-60755533D01*
X147006076Y-61374580D02*
X146958457Y-61422200D01*
X146958457Y-61422200D02*
X147006076Y-61469819D01*
X147006076Y-61469819D02*
X147053695Y-61422200D01*
X147053695Y-61422200D02*
X147006076Y-61374580D01*
X147006076Y-61374580D02*
X147006076Y-61469819D01*
X146339410Y-60469819D02*
X146244172Y-60469819D01*
X146244172Y-60469819D02*
X146148934Y-60517438D01*
X146148934Y-60517438D02*
X146101315Y-60565057D01*
X146101315Y-60565057D02*
X146053696Y-60660295D01*
X146053696Y-60660295D02*
X146006077Y-60850771D01*
X146006077Y-60850771D02*
X146006077Y-61088866D01*
X146006077Y-61088866D02*
X146053696Y-61279342D01*
X146053696Y-61279342D02*
X146101315Y-61374580D01*
X146101315Y-61374580D02*
X146148934Y-61422200D01*
X146148934Y-61422200D02*
X146244172Y-61469819D01*
X146244172Y-61469819D02*
X146339410Y-61469819D01*
X146339410Y-61469819D02*
X146434648Y-61422200D01*
X146434648Y-61422200D02*
X146482267Y-61374580D01*
X146482267Y-61374580D02*
X146529886Y-61279342D01*
X146529886Y-61279342D02*
X146577505Y-61088866D01*
X146577505Y-61088866D02*
X146577505Y-60850771D01*
X146577505Y-60850771D02*
X146529886Y-60660295D01*
X146529886Y-60660295D02*
X146482267Y-60565057D01*
X146482267Y-60565057D02*
X146434648Y-60517438D01*
X146434648Y-60517438D02*
X146339410Y-60469819D01*
X174792857Y-69447080D02*
X174840476Y-69494700D01*
X174840476Y-69494700D02*
X174983333Y-69542319D01*
X174983333Y-69542319D02*
X175078571Y-69542319D01*
X175078571Y-69542319D02*
X175221428Y-69494700D01*
X175221428Y-69494700D02*
X175316666Y-69399461D01*
X175316666Y-69399461D02*
X175364285Y-69304223D01*
X175364285Y-69304223D02*
X175411904Y-69113747D01*
X175411904Y-69113747D02*
X175411904Y-68970890D01*
X175411904Y-68970890D02*
X175364285Y-68780414D01*
X175364285Y-68780414D02*
X175316666Y-68685176D01*
X175316666Y-68685176D02*
X175221428Y-68589938D01*
X175221428Y-68589938D02*
X175078571Y-68542319D01*
X175078571Y-68542319D02*
X174983333Y-68542319D01*
X174983333Y-68542319D02*
X174840476Y-68589938D01*
X174840476Y-68589938D02*
X174792857Y-68637557D01*
X174459523Y-68542319D02*
X173840476Y-68542319D01*
X173840476Y-68542319D02*
X174173809Y-68923271D01*
X174173809Y-68923271D02*
X174030952Y-68923271D01*
X174030952Y-68923271D02*
X173935714Y-68970890D01*
X173935714Y-68970890D02*
X173888095Y-69018509D01*
X173888095Y-69018509D02*
X173840476Y-69113747D01*
X173840476Y-69113747D02*
X173840476Y-69351842D01*
X173840476Y-69351842D02*
X173888095Y-69447080D01*
X173888095Y-69447080D02*
X173935714Y-69494700D01*
X173935714Y-69494700D02*
X174030952Y-69542319D01*
X174030952Y-69542319D02*
X174316666Y-69542319D01*
X174316666Y-69542319D02*
X174411904Y-69494700D01*
X174411904Y-69494700D02*
X174459523Y-69447080D01*
X172935714Y-68542319D02*
X173411904Y-68542319D01*
X173411904Y-68542319D02*
X173459523Y-69018509D01*
X173459523Y-69018509D02*
X173411904Y-68970890D01*
X173411904Y-68970890D02*
X173316666Y-68923271D01*
X173316666Y-68923271D02*
X173078571Y-68923271D01*
X173078571Y-68923271D02*
X172983333Y-68970890D01*
X172983333Y-68970890D02*
X172935714Y-69018509D01*
X172935714Y-69018509D02*
X172888095Y-69113747D01*
X172888095Y-69113747D02*
X172888095Y-69351842D01*
X172888095Y-69351842D02*
X172935714Y-69447080D01*
X172935714Y-69447080D02*
X172983333Y-69494700D01*
X172983333Y-69494700D02*
X173078571Y-69542319D01*
X173078571Y-69542319D02*
X173316666Y-69542319D01*
X173316666Y-69542319D02*
X173411904Y-69494700D01*
X173411904Y-69494700D02*
X173459523Y-69447080D01*
X152975630Y-87604819D02*
X152975630Y-88414342D01*
X152975630Y-88414342D02*
X152928011Y-88509580D01*
X152928011Y-88509580D02*
X152880392Y-88557200D01*
X152880392Y-88557200D02*
X152785154Y-88604819D01*
X152785154Y-88604819D02*
X152594678Y-88604819D01*
X152594678Y-88604819D02*
X152499440Y-88557200D01*
X152499440Y-88557200D02*
X152451821Y-88509580D01*
X152451821Y-88509580D02*
X152404202Y-88414342D01*
X152404202Y-88414342D02*
X152404202Y-87604819D01*
X151404202Y-88604819D02*
X151975630Y-88604819D01*
X151689916Y-88604819D02*
X151689916Y-87604819D01*
X151689916Y-87604819D02*
X151785154Y-87747676D01*
X151785154Y-87747676D02*
X151880392Y-87842914D01*
X151880392Y-87842914D02*
X151975630Y-87890533D01*
X150451821Y-88604819D02*
X151023249Y-88604819D01*
X150737535Y-88604819D02*
X150737535Y-87604819D01*
X150737535Y-87604819D02*
X150832773Y-87747676D01*
X150832773Y-87747676D02*
X150928011Y-87842914D01*
X150928011Y-87842914D02*
X151023249Y-87890533D01*
X151992857Y-81342319D02*
X152326190Y-80866128D01*
X152564285Y-81342319D02*
X152564285Y-80342319D01*
X152564285Y-80342319D02*
X152183333Y-80342319D01*
X152183333Y-80342319D02*
X152088095Y-80389938D01*
X152088095Y-80389938D02*
X152040476Y-80437557D01*
X152040476Y-80437557D02*
X151992857Y-80532795D01*
X151992857Y-80532795D02*
X151992857Y-80675652D01*
X151992857Y-80675652D02*
X152040476Y-80770890D01*
X152040476Y-80770890D02*
X152088095Y-80818509D01*
X152088095Y-80818509D02*
X152183333Y-80866128D01*
X152183333Y-80866128D02*
X152564285Y-80866128D01*
X151040476Y-81342319D02*
X151611904Y-81342319D01*
X151326190Y-81342319D02*
X151326190Y-80342319D01*
X151326190Y-80342319D02*
X151421428Y-80485176D01*
X151421428Y-80485176D02*
X151516666Y-80580414D01*
X151516666Y-80580414D02*
X151611904Y-80628033D01*
X150183333Y-80342319D02*
X150373809Y-80342319D01*
X150373809Y-80342319D02*
X150469047Y-80389938D01*
X150469047Y-80389938D02*
X150516666Y-80437557D01*
X150516666Y-80437557D02*
X150611904Y-80580414D01*
X150611904Y-80580414D02*
X150659523Y-80770890D01*
X150659523Y-80770890D02*
X150659523Y-81151842D01*
X150659523Y-81151842D02*
X150611904Y-81247080D01*
X150611904Y-81247080D02*
X150564285Y-81294700D01*
X150564285Y-81294700D02*
X150469047Y-81342319D01*
X150469047Y-81342319D02*
X150278571Y-81342319D01*
X150278571Y-81342319D02*
X150183333Y-81294700D01*
X150183333Y-81294700D02*
X150135714Y-81247080D01*
X150135714Y-81247080D02*
X150088095Y-81151842D01*
X150088095Y-81151842D02*
X150088095Y-80913747D01*
X150088095Y-80913747D02*
X150135714Y-80818509D01*
X150135714Y-80818509D02*
X150183333Y-80770890D01*
X150183333Y-80770890D02*
X150278571Y-80723271D01*
X150278571Y-80723271D02*
X150469047Y-80723271D01*
X150469047Y-80723271D02*
X150564285Y-80770890D01*
X150564285Y-80770890D02*
X150611904Y-80818509D01*
X150611904Y-80818509D02*
X150659523Y-80913747D01*
X159345238Y-80950057D02*
X159440476Y-80902438D01*
X159440476Y-80902438D02*
X159535714Y-80807200D01*
X159535714Y-80807200D02*
X159678571Y-80664342D01*
X159678571Y-80664342D02*
X159773809Y-80616723D01*
X159773809Y-80616723D02*
X159869047Y-80616723D01*
X159821428Y-80854819D02*
X159916666Y-80807200D01*
X159916666Y-80807200D02*
X160011904Y-80711961D01*
X160011904Y-80711961D02*
X160059523Y-80521485D01*
X160059523Y-80521485D02*
X160059523Y-80188152D01*
X160059523Y-80188152D02*
X160011904Y-79997676D01*
X160011904Y-79997676D02*
X159916666Y-79902438D01*
X159916666Y-79902438D02*
X159821428Y-79854819D01*
X159821428Y-79854819D02*
X159630952Y-79854819D01*
X159630952Y-79854819D02*
X159535714Y-79902438D01*
X159535714Y-79902438D02*
X159440476Y-79997676D01*
X159440476Y-79997676D02*
X159392857Y-80188152D01*
X159392857Y-80188152D02*
X159392857Y-80521485D01*
X159392857Y-80521485D02*
X159440476Y-80711961D01*
X159440476Y-80711961D02*
X159535714Y-80807200D01*
X159535714Y-80807200D02*
X159630952Y-80854819D01*
X159630952Y-80854819D02*
X159821428Y-80854819D01*
X158821428Y-80283390D02*
X158916666Y-80235771D01*
X158916666Y-80235771D02*
X158964285Y-80188152D01*
X158964285Y-80188152D02*
X159011904Y-80092914D01*
X159011904Y-80092914D02*
X159011904Y-80045295D01*
X159011904Y-80045295D02*
X158964285Y-79950057D01*
X158964285Y-79950057D02*
X158916666Y-79902438D01*
X158916666Y-79902438D02*
X158821428Y-79854819D01*
X158821428Y-79854819D02*
X158630952Y-79854819D01*
X158630952Y-79854819D02*
X158535714Y-79902438D01*
X158535714Y-79902438D02*
X158488095Y-79950057D01*
X158488095Y-79950057D02*
X158440476Y-80045295D01*
X158440476Y-80045295D02*
X158440476Y-80092914D01*
X158440476Y-80092914D02*
X158488095Y-80188152D01*
X158488095Y-80188152D02*
X158535714Y-80235771D01*
X158535714Y-80235771D02*
X158630952Y-80283390D01*
X158630952Y-80283390D02*
X158821428Y-80283390D01*
X158821428Y-80283390D02*
X158916666Y-80331009D01*
X158916666Y-80331009D02*
X158964285Y-80378628D01*
X158964285Y-80378628D02*
X159011904Y-80473866D01*
X159011904Y-80473866D02*
X159011904Y-80664342D01*
X159011904Y-80664342D02*
X158964285Y-80759580D01*
X158964285Y-80759580D02*
X158916666Y-80807200D01*
X158916666Y-80807200D02*
X158821428Y-80854819D01*
X158821428Y-80854819D02*
X158630952Y-80854819D01*
X158630952Y-80854819D02*
X158535714Y-80807200D01*
X158535714Y-80807200D02*
X158488095Y-80759580D01*
X158488095Y-80759580D02*
X158440476Y-80664342D01*
X158440476Y-80664342D02*
X158440476Y-80473866D01*
X158440476Y-80473866D02*
X158488095Y-80378628D01*
X158488095Y-80378628D02*
X158535714Y-80331009D01*
X158535714Y-80331009D02*
X158630952Y-80283390D01*
X159345238Y-88450057D02*
X159440476Y-88402438D01*
X159440476Y-88402438D02*
X159535714Y-88307200D01*
X159535714Y-88307200D02*
X159678571Y-88164342D01*
X159678571Y-88164342D02*
X159773809Y-88116723D01*
X159773809Y-88116723D02*
X159869047Y-88116723D01*
X159821428Y-88354819D02*
X159916666Y-88307200D01*
X159916666Y-88307200D02*
X160011904Y-88211961D01*
X160011904Y-88211961D02*
X160059523Y-88021485D01*
X160059523Y-88021485D02*
X160059523Y-87688152D01*
X160059523Y-87688152D02*
X160011904Y-87497676D01*
X160011904Y-87497676D02*
X159916666Y-87402438D01*
X159916666Y-87402438D02*
X159821428Y-87354819D01*
X159821428Y-87354819D02*
X159630952Y-87354819D01*
X159630952Y-87354819D02*
X159535714Y-87402438D01*
X159535714Y-87402438D02*
X159440476Y-87497676D01*
X159440476Y-87497676D02*
X159392857Y-87688152D01*
X159392857Y-87688152D02*
X159392857Y-88021485D01*
X159392857Y-88021485D02*
X159440476Y-88211961D01*
X159440476Y-88211961D02*
X159535714Y-88307200D01*
X159535714Y-88307200D02*
X159630952Y-88354819D01*
X159630952Y-88354819D02*
X159821428Y-88354819D01*
X159059523Y-87354819D02*
X158392857Y-87354819D01*
X158392857Y-87354819D02*
X158821428Y-88354819D01*
X147705321Y-83247080D02*
X147752940Y-83294700D01*
X147752940Y-83294700D02*
X147895797Y-83342319D01*
X147895797Y-83342319D02*
X147991035Y-83342319D01*
X147991035Y-83342319D02*
X148133892Y-83294700D01*
X148133892Y-83294700D02*
X148229130Y-83199461D01*
X148229130Y-83199461D02*
X148276749Y-83104223D01*
X148276749Y-83104223D02*
X148324368Y-82913747D01*
X148324368Y-82913747D02*
X148324368Y-82770890D01*
X148324368Y-82770890D02*
X148276749Y-82580414D01*
X148276749Y-82580414D02*
X148229130Y-82485176D01*
X148229130Y-82485176D02*
X148133892Y-82389938D01*
X148133892Y-82389938D02*
X147991035Y-82342319D01*
X147991035Y-82342319D02*
X147895797Y-82342319D01*
X147895797Y-82342319D02*
X147752940Y-82389938D01*
X147752940Y-82389938D02*
X147705321Y-82437557D01*
X147371987Y-82342319D02*
X146752940Y-82342319D01*
X146752940Y-82342319D02*
X147086273Y-82723271D01*
X147086273Y-82723271D02*
X146943416Y-82723271D01*
X146943416Y-82723271D02*
X146848178Y-82770890D01*
X146848178Y-82770890D02*
X146800559Y-82818509D01*
X146800559Y-82818509D02*
X146752940Y-82913747D01*
X146752940Y-82913747D02*
X146752940Y-83151842D01*
X146752940Y-83151842D02*
X146800559Y-83247080D01*
X146800559Y-83247080D02*
X146848178Y-83294700D01*
X146848178Y-83294700D02*
X146943416Y-83342319D01*
X146943416Y-83342319D02*
X147229130Y-83342319D01*
X147229130Y-83342319D02*
X147324368Y-83294700D01*
X147324368Y-83294700D02*
X147371987Y-83247080D01*
X146133892Y-82342319D02*
X146038654Y-82342319D01*
X146038654Y-82342319D02*
X145943416Y-82389938D01*
X145943416Y-82389938D02*
X145895797Y-82437557D01*
X145895797Y-82437557D02*
X145848178Y-82532795D01*
X145848178Y-82532795D02*
X145800559Y-82723271D01*
X145800559Y-82723271D02*
X145800559Y-82961366D01*
X145800559Y-82961366D02*
X145848178Y-83151842D01*
X145848178Y-83151842D02*
X145895797Y-83247080D01*
X145895797Y-83247080D02*
X145943416Y-83294700D01*
X145943416Y-83294700D02*
X146038654Y-83342319D01*
X146038654Y-83342319D02*
X146133892Y-83342319D01*
X146133892Y-83342319D02*
X146229130Y-83294700D01*
X146229130Y-83294700D02*
X146276749Y-83247080D01*
X146276749Y-83247080D02*
X146324368Y-83151842D01*
X146324368Y-83151842D02*
X146371987Y-82961366D01*
X146371987Y-82961366D02*
X146371987Y-82723271D01*
X146371987Y-82723271D02*
X146324368Y-82532795D01*
X146324368Y-82532795D02*
X146276749Y-82437557D01*
X146276749Y-82437557D02*
X146229130Y-82389938D01*
X146229130Y-82389938D02*
X146133892Y-82342319D01*
X147792857Y-79847080D02*
X147840476Y-79894700D01*
X147840476Y-79894700D02*
X147983333Y-79942319D01*
X147983333Y-79942319D02*
X148078571Y-79942319D01*
X148078571Y-79942319D02*
X148221428Y-79894700D01*
X148221428Y-79894700D02*
X148316666Y-79799461D01*
X148316666Y-79799461D02*
X148364285Y-79704223D01*
X148364285Y-79704223D02*
X148411904Y-79513747D01*
X148411904Y-79513747D02*
X148411904Y-79370890D01*
X148411904Y-79370890D02*
X148364285Y-79180414D01*
X148364285Y-79180414D02*
X148316666Y-79085176D01*
X148316666Y-79085176D02*
X148221428Y-78989938D01*
X148221428Y-78989938D02*
X148078571Y-78942319D01*
X148078571Y-78942319D02*
X147983333Y-78942319D01*
X147983333Y-78942319D02*
X147840476Y-78989938D01*
X147840476Y-78989938D02*
X147792857Y-79037557D01*
X147411904Y-79037557D02*
X147364285Y-78989938D01*
X147364285Y-78989938D02*
X147269047Y-78942319D01*
X147269047Y-78942319D02*
X147030952Y-78942319D01*
X147030952Y-78942319D02*
X146935714Y-78989938D01*
X146935714Y-78989938D02*
X146888095Y-79037557D01*
X146888095Y-79037557D02*
X146840476Y-79132795D01*
X146840476Y-79132795D02*
X146840476Y-79228033D01*
X146840476Y-79228033D02*
X146888095Y-79370890D01*
X146888095Y-79370890D02*
X147459523Y-79942319D01*
X147459523Y-79942319D02*
X146840476Y-79942319D01*
X146269047Y-79370890D02*
X146364285Y-79323271D01*
X146364285Y-79323271D02*
X146411904Y-79275652D01*
X146411904Y-79275652D02*
X146459523Y-79180414D01*
X146459523Y-79180414D02*
X146459523Y-79132795D01*
X146459523Y-79132795D02*
X146411904Y-79037557D01*
X146411904Y-79037557D02*
X146364285Y-78989938D01*
X146364285Y-78989938D02*
X146269047Y-78942319D01*
X146269047Y-78942319D02*
X146078571Y-78942319D01*
X146078571Y-78942319D02*
X145983333Y-78989938D01*
X145983333Y-78989938D02*
X145935714Y-79037557D01*
X145935714Y-79037557D02*
X145888095Y-79132795D01*
X145888095Y-79132795D02*
X145888095Y-79180414D01*
X145888095Y-79180414D02*
X145935714Y-79275652D01*
X145935714Y-79275652D02*
X145983333Y-79323271D01*
X145983333Y-79323271D02*
X146078571Y-79370890D01*
X146078571Y-79370890D02*
X146269047Y-79370890D01*
X146269047Y-79370890D02*
X146364285Y-79418509D01*
X146364285Y-79418509D02*
X146411904Y-79466128D01*
X146411904Y-79466128D02*
X146459523Y-79561366D01*
X146459523Y-79561366D02*
X146459523Y-79751842D01*
X146459523Y-79751842D02*
X146411904Y-79847080D01*
X146411904Y-79847080D02*
X146364285Y-79894700D01*
X146364285Y-79894700D02*
X146269047Y-79942319D01*
X146269047Y-79942319D02*
X146078571Y-79942319D01*
X146078571Y-79942319D02*
X145983333Y-79894700D01*
X145983333Y-79894700D02*
X145935714Y-79847080D01*
X145935714Y-79847080D02*
X145888095Y-79751842D01*
X145888095Y-79751842D02*
X145888095Y-79561366D01*
X145888095Y-79561366D02*
X145935714Y-79466128D01*
X145935714Y-79466128D02*
X145983333Y-79418509D01*
X145983333Y-79418509D02*
X146078571Y-79370890D01*
X172317857Y-64237080D02*
X172365476Y-64284700D01*
X172365476Y-64284700D02*
X172508333Y-64332319D01*
X172508333Y-64332319D02*
X172603571Y-64332319D01*
X172603571Y-64332319D02*
X172746428Y-64284700D01*
X172746428Y-64284700D02*
X172841666Y-64189461D01*
X172841666Y-64189461D02*
X172889285Y-64094223D01*
X172889285Y-64094223D02*
X172936904Y-63903747D01*
X172936904Y-63903747D02*
X172936904Y-63760890D01*
X172936904Y-63760890D02*
X172889285Y-63570414D01*
X172889285Y-63570414D02*
X172841666Y-63475176D01*
X172841666Y-63475176D02*
X172746428Y-63379938D01*
X172746428Y-63379938D02*
X172603571Y-63332319D01*
X172603571Y-63332319D02*
X172508333Y-63332319D01*
X172508333Y-63332319D02*
X172365476Y-63379938D01*
X172365476Y-63379938D02*
X172317857Y-63427557D01*
X171984523Y-63332319D02*
X171365476Y-63332319D01*
X171365476Y-63332319D02*
X171698809Y-63713271D01*
X171698809Y-63713271D02*
X171555952Y-63713271D01*
X171555952Y-63713271D02*
X171460714Y-63760890D01*
X171460714Y-63760890D02*
X171413095Y-63808509D01*
X171413095Y-63808509D02*
X171365476Y-63903747D01*
X171365476Y-63903747D02*
X171365476Y-64141842D01*
X171365476Y-64141842D02*
X171413095Y-64237080D01*
X171413095Y-64237080D02*
X171460714Y-64284700D01*
X171460714Y-64284700D02*
X171555952Y-64332319D01*
X171555952Y-64332319D02*
X171841666Y-64332319D01*
X171841666Y-64332319D02*
X171936904Y-64284700D01*
X171936904Y-64284700D02*
X171984523Y-64237080D01*
X171032142Y-63332319D02*
X170413095Y-63332319D01*
X170413095Y-63332319D02*
X170746428Y-63713271D01*
X170746428Y-63713271D02*
X170603571Y-63713271D01*
X170603571Y-63713271D02*
X170508333Y-63760890D01*
X170508333Y-63760890D02*
X170460714Y-63808509D01*
X170460714Y-63808509D02*
X170413095Y-63903747D01*
X170413095Y-63903747D02*
X170413095Y-64141842D01*
X170413095Y-64141842D02*
X170460714Y-64237080D01*
X170460714Y-64237080D02*
X170508333Y-64284700D01*
X170508333Y-64284700D02*
X170603571Y-64332319D01*
X170603571Y-64332319D02*
X170889285Y-64332319D01*
X170889285Y-64332319D02*
X170984523Y-64284700D01*
X170984523Y-64284700D02*
X171032142Y-64237080D01*
X152250594Y-78542319D02*
X152250594Y-79351842D01*
X152250594Y-79351842D02*
X152202975Y-79447080D01*
X152202975Y-79447080D02*
X152155356Y-79494700D01*
X152155356Y-79494700D02*
X152060118Y-79542319D01*
X152060118Y-79542319D02*
X151869642Y-79542319D01*
X151869642Y-79542319D02*
X151774404Y-79494700D01*
X151774404Y-79494700D02*
X151726785Y-79447080D01*
X151726785Y-79447080D02*
X151679166Y-79351842D01*
X151679166Y-79351842D02*
X151679166Y-78542319D01*
X150679166Y-79542319D02*
X151250594Y-79542319D01*
X150964880Y-79542319D02*
X150964880Y-78542319D01*
X150964880Y-78542319D02*
X151060118Y-78685176D01*
X151060118Y-78685176D02*
X151155356Y-78780414D01*
X151155356Y-78780414D02*
X151250594Y-78828033D01*
X150298213Y-78637557D02*
X150250594Y-78589938D01*
X150250594Y-78589938D02*
X150155356Y-78542319D01*
X150155356Y-78542319D02*
X149917261Y-78542319D01*
X149917261Y-78542319D02*
X149822023Y-78589938D01*
X149822023Y-78589938D02*
X149774404Y-78637557D01*
X149774404Y-78637557D02*
X149726785Y-78732795D01*
X149726785Y-78732795D02*
X149726785Y-78828033D01*
X149726785Y-78828033D02*
X149774404Y-78970890D01*
X149774404Y-78970890D02*
X150345832Y-79542319D01*
X150345832Y-79542319D02*
X149726785Y-79542319D01*
X152192857Y-71942319D02*
X152526190Y-71466128D01*
X152764285Y-71942319D02*
X152764285Y-70942319D01*
X152764285Y-70942319D02*
X152383333Y-70942319D01*
X152383333Y-70942319D02*
X152288095Y-70989938D01*
X152288095Y-70989938D02*
X152240476Y-71037557D01*
X152240476Y-71037557D02*
X152192857Y-71132795D01*
X152192857Y-71132795D02*
X152192857Y-71275652D01*
X152192857Y-71275652D02*
X152240476Y-71370890D01*
X152240476Y-71370890D02*
X152288095Y-71418509D01*
X152288095Y-71418509D02*
X152383333Y-71466128D01*
X152383333Y-71466128D02*
X152764285Y-71466128D01*
X151240476Y-71942319D02*
X151811904Y-71942319D01*
X151526190Y-71942319D02*
X151526190Y-70942319D01*
X151526190Y-70942319D02*
X151621428Y-71085176D01*
X151621428Y-71085176D02*
X151716666Y-71180414D01*
X151716666Y-71180414D02*
X151811904Y-71228033D01*
X150907142Y-70942319D02*
X150240476Y-70942319D01*
X150240476Y-70942319D02*
X150669047Y-71942319D01*
D11*
%TO.C,C35*%
X173415000Y-66838080D02*
X173415000Y-66556920D01*
X174435000Y-66838080D02*
X174435000Y-66556920D01*
%TO.C,U11*%
X151737536Y-84190000D02*
X150937536Y-84190000D01*
X151737536Y-84190000D02*
X152537536Y-84190000D01*
X151737536Y-87310000D02*
X149937536Y-87310000D01*
X151737536Y-87310000D02*
X152537536Y-87310000D01*
%TO.C,R16*%
X151122936Y-81752500D02*
X151577064Y-81752500D01*
X151122936Y-83222500D02*
X151577064Y-83222500D01*
%TO.C,Q8*%
X159250000Y-74440000D02*
X157300000Y-74440000D01*
X159250000Y-74440000D02*
X161200000Y-74440000D01*
X159250000Y-79560000D02*
X155800000Y-79560000D01*
X159250000Y-79560000D02*
X161200000Y-79560000D01*
%TO.C,Q7*%
X159250000Y-81940000D02*
X157300000Y-81940000D01*
X159250000Y-81940000D02*
X161200000Y-81940000D01*
X159250000Y-87060000D02*
X155800000Y-87060000D01*
X159250000Y-87060000D02*
X161200000Y-87060000D01*
%TO.C,C30*%
X148560000Y-85288748D02*
X148560000Y-86711252D01*
X145840000Y-85288748D02*
X145840000Y-86711252D01*
%TO.C,C28*%
X148510000Y-75301248D02*
X148510000Y-76723752D01*
X145790000Y-75301248D02*
X145790000Y-76723752D01*
%TO.C,C33*%
X171534420Y-61937500D02*
X171815580Y-61937500D01*
X171534420Y-62957500D02*
X171815580Y-62957500D01*
%TO.C,U12*%
X151012500Y-74877500D02*
X150212500Y-74877500D01*
X151012500Y-74877500D02*
X151812500Y-74877500D01*
X151012500Y-77997500D02*
X149212500Y-77997500D01*
X151012500Y-77997500D02*
X151812500Y-77997500D01*
%TO.C,R17*%
X150922936Y-72752500D02*
X151377064Y-72752500D01*
X150922936Y-74222500D02*
X151377064Y-74222500D01*
%TD*%
M02*
