%TF.GenerationSoftware,KiCad,Pcbnew,7.0.9-7.0.9~ubuntu22.04.1*%
%TF.CreationDate,2023-12-14T14:14:35+03:00*%
%TF.ProjectId,main-module,6d61696e-2d6d-46f6-9475-6c652e6b6963,rev?*%
%TF.SameCoordinates,Original*%
%TF.FileFunction,Copper,L1,Top*%
%TF.FilePolarity,Positive*%
%FSLAX46Y46*%
G04 Gerber Fmt 4.6, Leading zero omitted, Abs format (unit mm)*
G04 Created by KiCad (PCBNEW 7.0.9-7.0.9~ubuntu22.04.1) date 2023-12-14 14:14:35*
%MOMM*%
%LPD*%
G01*
G04 APERTURE LIST*
G04 Aperture macros list*
%AMRoundRect*
0 Rectangle with rounded corners*
0 $1 Rounding radius*
0 $2 $3 $4 $5 $6 $7 $8 $9 X,Y pos of 4 corners*
0 Add a 4 corners polygon primitive as box body*
4,1,4,$2,$3,$4,$5,$6,$7,$8,$9,$2,$3,0*
0 Add four circle primitives for the rounded corners*
1,1,$1+$1,$2,$3*
1,1,$1+$1,$4,$5*
1,1,$1+$1,$6,$7*
1,1,$1+$1,$8,$9*
0 Add four rect primitives between the rounded corners*
20,1,$1+$1,$2,$3,$4,$5,0*
20,1,$1+$1,$4,$5,$6,$7,0*
20,1,$1+$1,$6,$7,$8,$9,0*
20,1,$1+$1,$8,$9,$2,$3,0*%
G04 Aperture macros list end*
%TA.AperFunction,ComponentPad*%
%ADD10RoundRect,0.250000X-0.725000X0.600000X-0.725000X-0.600000X0.725000X-0.600000X0.725000X0.600000X0*%
%TD*%
%TA.AperFunction,ComponentPad*%
%ADD11O,1.950000X1.700000*%
%TD*%
%TA.AperFunction,SMDPad,CuDef*%
%ADD12RoundRect,0.225000X-0.250000X0.225000X-0.250000X-0.225000X0.250000X-0.225000X0.250000X0.225000X0*%
%TD*%
%TA.AperFunction,ComponentPad*%
%ADD13R,3.200000X3.200000*%
%TD*%
%TA.AperFunction,ComponentPad*%
%ADD14O,3.200000X3.200000*%
%TD*%
%TA.AperFunction,ComponentPad*%
%ADD15R,1.560000X1.560000*%
%TD*%
%TA.AperFunction,ComponentPad*%
%ADD16C,1.560000*%
%TD*%
%TA.AperFunction,SMDPad,CuDef*%
%ADD17RoundRect,0.250000X-0.450000X0.262500X-0.450000X-0.262500X0.450000X-0.262500X0.450000X0.262500X0*%
%TD*%
%TA.AperFunction,ComponentPad*%
%ADD18R,1.600000X1.600000*%
%TD*%
%TA.AperFunction,ComponentPad*%
%ADD19C,1.600000*%
%TD*%
%TA.AperFunction,SMDPad,CuDef*%
%ADD20RoundRect,0.250000X0.450000X-0.262500X0.450000X0.262500X-0.450000X0.262500X-0.450000X-0.262500X0*%
%TD*%
%TA.AperFunction,SMDPad,CuDef*%
%ADD21C,1.000000*%
%TD*%
%TA.AperFunction,ComponentPad*%
%ADD22C,3.000000*%
%TD*%
%TA.AperFunction,SMDPad,CuDef*%
%ADD23RoundRect,0.225000X0.250000X-0.225000X0.250000X0.225000X-0.250000X0.225000X-0.250000X-0.225000X0*%
%TD*%
%TA.AperFunction,ComponentPad*%
%ADD24R,1.800000X1.800000*%
%TD*%
%TA.AperFunction,ComponentPad*%
%ADD25C,1.800000*%
%TD*%
%TA.AperFunction,SMDPad,CuDef*%
%ADD26RoundRect,0.225000X-0.225000X-0.975000X0.225000X-0.975000X0.225000X0.975000X-0.225000X0.975000X0*%
%TD*%
%TA.AperFunction,SMDPad,CuDef*%
%ADD27RoundRect,0.150000X-0.725000X-0.150000X0.725000X-0.150000X0.725000X0.150000X-0.725000X0.150000X0*%
%TD*%
%TA.AperFunction,ComponentPad*%
%ADD28RoundRect,0.250000X-0.750000X0.600000X-0.750000X-0.600000X0.750000X-0.600000X0.750000X0.600000X0*%
%TD*%
%TA.AperFunction,ComponentPad*%
%ADD29O,2.000000X1.700000*%
%TD*%
%TA.AperFunction,ViaPad*%
%ADD30C,0.800000*%
%TD*%
%TA.AperFunction,Conductor*%
%ADD31C,0.500000*%
%TD*%
%TA.AperFunction,Conductor*%
%ADD32C,1.000000*%
%TD*%
G04 APERTURE END LIST*
D10*
%TO.P,T1,1,AA*%
%TO.N,Net-(T1-AA)*%
X172550000Y-75687500D03*
D11*
%TO.P,T1,2,AB*%
%TO.N,Net-(T1-AB)*%
X172550000Y-78187500D03*
%TO.P,T1,3,SA*%
%TO.N,Net-(T1-SA)*%
X172550000Y-80687500D03*
%TO.P,T1,4,SC*%
%TO.N,VPP*%
X172550000Y-83187500D03*
%TO.P,T1,5,SB*%
%TO.N,Net-(T1-SB)*%
X172550000Y-85687500D03*
%TD*%
D12*
%TO.P,C23,1*%
%TO.N,Net-(U9-CT)*%
X146750000Y-81475000D03*
%TO.P,C23,2*%
%TO.N,GND1*%
X146750000Y-83025000D03*
%TD*%
D13*
%TO.P,D4,1,K*%
%TO.N,VPP*%
X164950000Y-63315000D03*
D14*
%TO.P,D4,2,A*%
%TO.N,GND1*%
X164950000Y-67125000D03*
%TD*%
D15*
%TO.P,RV2,1,1*%
%TO.N,Net-(D6-+)*%
X169050000Y-62547500D03*
D16*
%TO.P,RV2,2,2*%
%TO.N,/TL494_FEEDBACK*%
X171550000Y-67547500D03*
%TO.P,RV2,3,3*%
%TO.N,GND1*%
X174050000Y-62547500D03*
%TD*%
D17*
%TO.P,R14,1*%
%TO.N,/TL494_VREF*%
X146950000Y-77812500D03*
%TO.P,R14,2*%
%TO.N,/TL494_DTC*%
X146950000Y-79637500D03*
%TD*%
D18*
%TO.P,C18,1*%
%TO.N,VPP*%
X156550000Y-63205121D03*
D19*
%TO.P,C18,2*%
%TO.N,GND1*%
X156550000Y-65705121D03*
%TD*%
D12*
%TO.P,C25,1*%
%TO.N,/TL494_VREF*%
X149150000Y-77712500D03*
%TO.P,C25,2*%
%TO.N,/TL494_DTC*%
X149150000Y-79262500D03*
%TD*%
D17*
%TO.P,R21,1*%
%TO.N,VPP*%
X160750000Y-66975000D03*
%TO.P,R21,2*%
%TO.N,Net-(D5-A)*%
X160750000Y-68800000D03*
%TD*%
D20*
%TO.P,R15,1*%
%TO.N,/TL494_DTC*%
X146950000Y-76050000D03*
%TO.P,R15,2*%
%TO.N,GND1*%
X146950000Y-74225000D03*
%TD*%
D12*
%TO.P,C22,1*%
%TO.N,VPP*%
X158900000Y-81225000D03*
%TO.P,C22,2*%
%TO.N,GND1*%
X158900000Y-82775000D03*
%TD*%
D21*
%TO.P,TP6,1,1*%
%TO.N,Net-(D6-+)*%
X173750000Y-70887500D03*
%TD*%
D22*
%TO.P,TP5,1,1*%
%TO.N,GND1*%
X147550000Y-71087500D03*
%TD*%
D23*
%TO.P,C21,1*%
%TO.N,/TL494_VREF*%
X158900000Y-78462500D03*
%TO.P,C21,2*%
%TO.N,GND1*%
X158900000Y-76912500D03*
%TD*%
D24*
%TO.P,D5,1,K*%
%TO.N,GND1*%
X156075000Y-69887500D03*
D25*
%TO.P,D5,2,A*%
%TO.N,Net-(D5-A)*%
X158615000Y-69887500D03*
%TD*%
D26*
%TO.P,D6,1,+*%
%TO.N,Net-(D6-+)*%
X167000000Y-71287500D03*
%TO.P,D6,2,-*%
%TO.N,GND1*%
X164500000Y-71287500D03*
%TO.P,D6,3*%
%TO.N,Net-(T1-AA)*%
X164500000Y-77287500D03*
%TO.P,D6,4*%
%TO.N,Net-(T1-AB)*%
X167000000Y-77287500D03*
%TD*%
D27*
%TO.P,U9,1,1IN+*%
%TO.N,GND1*%
X151175000Y-76055000D03*
%TO.P,U9,2,1IN-*%
%TO.N,/TL494_VREF*%
X151175000Y-77325000D03*
%TO.P,U9,3,FB*%
%TO.N,/TL494_FEEDBACK*%
X151175000Y-78595000D03*
%TO.P,U9,4,DTC*%
%TO.N,/TL494_DTC*%
X151175000Y-79865000D03*
%TO.P,U9,5,CT*%
%TO.N,Net-(U9-CT)*%
X151175000Y-81135000D03*
%TO.P,U9,6,RT*%
%TO.N,Net-(U9-RT)*%
X151175000Y-82405000D03*
%TO.P,U9,7,GND*%
%TO.N,GND1*%
X151175000Y-83675000D03*
%TO.P,U9,8,C1*%
%TO.N,Net-(U11-IN-)*%
X151175000Y-84945000D03*
%TO.P,U9,9,E1*%
%TO.N,GND1*%
X156325000Y-84945000D03*
%TO.P,U9,10,E2*%
X156325000Y-83675000D03*
%TO.P,U9,11,C2*%
%TO.N,Net-(U12-IN-)*%
X156325000Y-82405000D03*
%TO.P,U9,12,VCC*%
%TO.N,VPP*%
X156325000Y-81135000D03*
%TO.P,U9,13,OUTCTRL*%
%TO.N,/TL494_VREF*%
X156325000Y-79865000D03*
%TO.P,U9,14,REF*%
X156325000Y-78595000D03*
%TO.P,U9,15,2IN-*%
X156325000Y-77325000D03*
%TO.P,U9,16,2IN+*%
%TO.N,GND1*%
X156325000Y-76055000D03*
%TD*%
D17*
%TO.P,R13,1*%
%TO.N,Net-(U9-RT)*%
X148750000Y-82337500D03*
%TO.P,R13,2*%
%TO.N,GND1*%
X148750000Y-84162500D03*
%TD*%
D28*
%TO.P,J4,1,Pin_1*%
%TO.N,VPP*%
X149150000Y-63187500D03*
D29*
%TO.P,J4,2,Pin_2*%
%TO.N,GND1*%
X149150000Y-65687500D03*
%TD*%
D30*
%TO.N,Net-(U11-IN-)*%
X152950000Y-84887500D03*
%TO.N,Net-(U12-IN-)*%
X153950000Y-81687500D03*
X152150000Y-73487500D03*
%TO.N,VPP*%
X154950000Y-80687500D03*
%TO.N,/TL494_FEEDBACK*%
X152550000Y-78487500D03*
%TD*%
D31*
%TO.N,Net-(U9-RT)*%
X151107500Y-82337500D02*
X151175000Y-82405000D01*
X148750000Y-82337500D02*
X151107500Y-82337500D01*
%TO.N,Net-(U11-IN-)*%
X152892500Y-84945000D02*
X152950000Y-84887500D01*
X151175000Y-84945000D02*
X152892500Y-84945000D01*
%TO.N,Net-(U12-IN-)*%
X154667500Y-82405000D02*
X153950000Y-81687500D01*
X156325000Y-82405000D02*
X154667500Y-82405000D01*
%TO.N,VPP*%
X158950000Y-81112500D02*
X156347500Y-81112500D01*
X156325000Y-81135000D02*
X155397500Y-81135000D01*
D32*
X149150000Y-63187500D02*
X156532379Y-63187500D01*
D31*
X160750000Y-63405121D02*
X160550000Y-63205121D01*
D32*
X160550000Y-63205121D02*
X164840121Y-63205121D01*
D31*
X155397500Y-81135000D02*
X154950000Y-80687500D01*
X160750000Y-66975000D02*
X160750000Y-63405121D01*
D32*
X156550000Y-63205121D02*
X160550000Y-63205121D01*
D31*
%TO.N,GND1*%
X153550000Y-76055000D02*
X156325000Y-76055000D01*
X156325000Y-83675000D02*
X156325000Y-84945000D01*
X148750000Y-84162500D02*
X150687500Y-84162500D01*
X158950000Y-82662500D02*
X159875000Y-81737500D01*
X150687500Y-84162500D02*
X151175000Y-83675000D01*
X153550000Y-70087500D02*
X149150000Y-65687500D01*
X146950000Y-74225000D02*
X149345000Y-74225000D01*
X148750000Y-84162500D02*
X147887500Y-84162500D01*
X149345000Y-74225000D02*
X151175000Y-76055000D01*
X153550000Y-76055000D02*
X153550000Y-70087500D01*
X164500000Y-71287500D02*
X164500000Y-67575000D01*
X158950000Y-82662500D02*
X157937500Y-83675000D01*
X151175000Y-76055000D02*
X153550000Y-76055000D01*
X159875000Y-77875000D02*
X158055000Y-76055000D01*
X151175000Y-83675000D02*
X156325000Y-83675000D01*
X158055000Y-76055000D02*
X156325000Y-76055000D01*
X147887500Y-84162500D02*
X146750000Y-83025000D01*
X159875000Y-81737500D02*
X159875000Y-77875000D01*
X157937500Y-83675000D02*
X156325000Y-83675000D01*
%TO.N,Net-(U9-CT)*%
X147090000Y-81135000D02*
X151175000Y-81135000D01*
X146750000Y-81475000D02*
X147090000Y-81135000D01*
%TO.N,/TL494_VREF*%
X150787500Y-77712500D02*
X151175000Y-77325000D01*
X156325000Y-78595000D02*
X158417500Y-78595000D01*
X146950000Y-77812500D02*
X149050000Y-77812500D01*
X156325000Y-77325000D02*
X151175000Y-77325000D01*
X156325000Y-77325000D02*
X156325000Y-79865000D01*
X149150000Y-77712500D02*
X150787500Y-77712500D01*
%TO.N,/TL494_DTC*%
X145550000Y-76687500D02*
X146187500Y-76050000D01*
X146950000Y-79637500D02*
X148775000Y-79637500D01*
X149150000Y-79262500D02*
X149752500Y-79865000D01*
X148775000Y-79637500D02*
X149150000Y-79262500D01*
X145550000Y-78887500D02*
X145550000Y-76687500D01*
X146950000Y-79637500D02*
X146300000Y-79637500D01*
X146300000Y-79637500D02*
X145550000Y-78887500D01*
X146187500Y-76050000D02*
X146950000Y-76050000D01*
X149752500Y-79865000D02*
X151175000Y-79865000D01*
%TO.N,/TL494_FEEDBACK*%
X151175000Y-78595000D02*
X152442500Y-78595000D01*
X152442500Y-78595000D02*
X152550000Y-78487500D01*
%TO.N,Net-(T1-AA)*%
X166150000Y-75637500D02*
X172500000Y-75637500D01*
X164500000Y-77287500D02*
X166150000Y-75637500D01*
%TO.N,Net-(T1-AB)*%
X167000000Y-77287500D02*
X167900000Y-78187500D01*
X167900000Y-78187500D02*
X172550000Y-78187500D01*
%TO.N,Net-(D6-+)*%
X167000000Y-71287500D02*
X168950000Y-69337500D01*
X167400000Y-70887500D02*
X167000000Y-71287500D01*
X168950000Y-69337500D02*
X168950000Y-62647500D01*
X173750000Y-70887500D02*
X167400000Y-70887500D01*
%TO.N,Net-(D5-A)*%
X158615000Y-69887500D02*
X159662500Y-69887500D01*
X159662500Y-69887500D02*
X160750000Y-68800000D01*
%TD*%
M02*
