M48
; DRILL file {KiCad 7.0.8-7.0.8~ubuntu22.04.1} date Ср 01 ноя 2023 15:39:42
; FORMAT={-:-/ absolute / inch / decimal}
; #@! TF.CreationDate,2023-11-01T15:39:42+03:00
; #@! TF.GenerationSoftware,Kicad,Pcbnew,7.0.8-7.0.8~ubuntu22.04.1
; #@! TF.FileFunction,Plated,1,4,PTH
FMAT,2
INCH
; #@! TA.AperFunction,Plated,PTH,ViaDrill
T1C0.0157
; #@! TA.AperFunction,Plated,PTH,ComponentDrill
T2C0.0315
; #@! TA.AperFunction,Plated,PTH,ComponentDrill
T3C0.0354
; #@! TA.AperFunction,Plated,PTH,ComponentDrill
T4C0.0374
; #@! TA.AperFunction,Plated,PTH,ComponentDrill
T5C0.0394
; #@! TA.AperFunction,Plated,PTH,ComponentDrill
T6C0.0630
; #@! TA.AperFunction,Plated,PTH,ComponentDrill
T7C0.0787
%
G90
G05
T1
X5.9902Y-2.8932
X6.0059Y-3.0901
X6.0217Y-3.342
X6.061Y-3.216
X6.1004Y-3.1767
T2
X6.1634Y-2.4884
X6.1634Y-2.5868
T3
X6.1447Y-2.7515
X6.2447Y-2.7515
T4
X6.7933Y-2.9798
X6.7933Y-3.0782
X6.7933Y-3.1767
X6.7933Y-3.2751
X6.7933Y-3.3735
T5
X5.872Y-2.4877
X5.872Y-2.5861
X6.6555Y-2.4625
X6.7539Y-2.6594
X6.8524Y-2.4625
T6
X6.4941Y-2.4927
X6.4941Y-2.6427
T7
X5.8091Y-2.7987
T0
M30
