%TF.GenerationSoftware,KiCad,Pcbnew,7.0.8-7.0.8~ubuntu22.04.1*%
%TF.CreationDate,2023-11-01T15:39:42+03:00*%
%TF.ProjectId,main-module,6d61696e-2d6d-46f6-9475-6c652e6b6963,rev?*%
%TF.SameCoordinates,Original*%
%TF.FileFunction,Drillmap*%
%TF.FilePolarity,Positive*%
%FSLAX45Y45*%
G04 Gerber Fmt 4.5, Leading zero omitted, Abs format (unit mm)*
G04 Created by KiCad (PCBNEW 7.0.8-7.0.8~ubuntu22.04.1) date 2023-11-01 15:39:42*
%MOMM*%
%LPD*%
G01*
G04 APERTURE LIST*
%ADD10C,0.100000*%
%ADD11C,0.200000*%
%ADD12C,0.220000*%
G04 APERTURE END LIST*
D10*
X14500000Y-6000000D02*
X17600000Y-6000000D01*
X17600000Y-8900000D01*
X14500000Y-8900000D01*
X14500000Y-6000000D01*
D11*
D12*
X16440000Y-8240000D02*
X16660000Y-8460000D01*
X16660000Y-8240000D02*
X16440000Y-8460000D01*
D11*
X14755777Y-9216484D02*
X14755777Y-9016484D01*
X14755777Y-9016484D02*
X14803396Y-9016484D01*
X14803396Y-9016484D02*
X14831967Y-9026008D01*
X14831967Y-9026008D02*
X14851015Y-9045055D01*
X14851015Y-9045055D02*
X14860539Y-9064103D01*
X14860539Y-9064103D02*
X14870062Y-9102198D01*
X14870062Y-9102198D02*
X14870062Y-9130770D01*
X14870062Y-9130770D02*
X14860539Y-9168865D01*
X14860539Y-9168865D02*
X14851015Y-9187912D01*
X14851015Y-9187912D02*
X14831967Y-9206960D01*
X14831967Y-9206960D02*
X14803396Y-9216484D01*
X14803396Y-9216484D02*
X14755777Y-9216484D01*
X14955777Y-9216484D02*
X14955777Y-9083150D01*
X14955777Y-9121246D02*
X14965301Y-9102198D01*
X14965301Y-9102198D02*
X14974824Y-9092674D01*
X14974824Y-9092674D02*
X14993872Y-9083150D01*
X14993872Y-9083150D02*
X15012920Y-9083150D01*
X15079586Y-9216484D02*
X15079586Y-9083150D01*
X15079586Y-9016484D02*
X15070062Y-9026008D01*
X15070062Y-9026008D02*
X15079586Y-9035531D01*
X15079586Y-9035531D02*
X15089110Y-9026008D01*
X15089110Y-9026008D02*
X15079586Y-9016484D01*
X15079586Y-9016484D02*
X15079586Y-9035531D01*
X15203396Y-9216484D02*
X15184348Y-9206960D01*
X15184348Y-9206960D02*
X15174824Y-9187912D01*
X15174824Y-9187912D02*
X15174824Y-9016484D01*
X15308158Y-9216484D02*
X15289110Y-9206960D01*
X15289110Y-9206960D02*
X15279586Y-9187912D01*
X15279586Y-9187912D02*
X15279586Y-9016484D01*
X15536729Y-9216484D02*
X15536729Y-9016484D01*
X15536729Y-9016484D02*
X15603396Y-9159341D01*
X15603396Y-9159341D02*
X15670062Y-9016484D01*
X15670062Y-9016484D02*
X15670062Y-9216484D01*
X15851015Y-9216484D02*
X15851015Y-9111722D01*
X15851015Y-9111722D02*
X15841491Y-9092674D01*
X15841491Y-9092674D02*
X15822443Y-9083150D01*
X15822443Y-9083150D02*
X15784348Y-9083150D01*
X15784348Y-9083150D02*
X15765301Y-9092674D01*
X15851015Y-9206960D02*
X15831967Y-9216484D01*
X15831967Y-9216484D02*
X15784348Y-9216484D01*
X15784348Y-9216484D02*
X15765301Y-9206960D01*
X15765301Y-9206960D02*
X15755777Y-9187912D01*
X15755777Y-9187912D02*
X15755777Y-9168865D01*
X15755777Y-9168865D02*
X15765301Y-9149817D01*
X15765301Y-9149817D02*
X15784348Y-9140293D01*
X15784348Y-9140293D02*
X15831967Y-9140293D01*
X15831967Y-9140293D02*
X15851015Y-9130770D01*
X15946253Y-9083150D02*
X15946253Y-9283150D01*
X15946253Y-9092674D02*
X15965301Y-9083150D01*
X15965301Y-9083150D02*
X16003396Y-9083150D01*
X16003396Y-9083150D02*
X16022443Y-9092674D01*
X16022443Y-9092674D02*
X16031967Y-9102198D01*
X16031967Y-9102198D02*
X16041491Y-9121246D01*
X16041491Y-9121246D02*
X16041491Y-9178389D01*
X16041491Y-9178389D02*
X16031967Y-9197436D01*
X16031967Y-9197436D02*
X16022443Y-9206960D01*
X16022443Y-9206960D02*
X16003396Y-9216484D01*
X16003396Y-9216484D02*
X15965301Y-9216484D01*
X15965301Y-9216484D02*
X15946253Y-9206960D01*
X16127205Y-9197436D02*
X16136729Y-9206960D01*
X16136729Y-9206960D02*
X16127205Y-9216484D01*
X16127205Y-9216484D02*
X16117682Y-9206960D01*
X16117682Y-9206960D02*
X16127205Y-9197436D01*
X16127205Y-9197436D02*
X16127205Y-9216484D01*
X16127205Y-9092674D02*
X16136729Y-9102198D01*
X16136729Y-9102198D02*
X16127205Y-9111722D01*
X16127205Y-9111722D02*
X16117682Y-9102198D01*
X16117682Y-9102198D02*
X16127205Y-9092674D01*
X16127205Y-9092674D02*
X16127205Y-9111722D01*
X14295000Y-9445000D02*
X14495000Y-9645000D01*
X14495000Y-9445000D02*
X14295000Y-9645000D01*
X14746253Y-9455531D02*
X14755777Y-9446008D01*
X14755777Y-9446008D02*
X14774824Y-9436484D01*
X14774824Y-9436484D02*
X14822443Y-9436484D01*
X14822443Y-9436484D02*
X14841491Y-9446008D01*
X14841491Y-9446008D02*
X14851015Y-9455531D01*
X14851015Y-9455531D02*
X14860539Y-9474579D01*
X14860539Y-9474579D02*
X14860539Y-9493627D01*
X14860539Y-9493627D02*
X14851015Y-9522198D01*
X14851015Y-9522198D02*
X14736729Y-9636484D01*
X14736729Y-9636484D02*
X14860539Y-9636484D01*
X14946253Y-9617436D02*
X14955777Y-9626960D01*
X14955777Y-9626960D02*
X14946253Y-9636484D01*
X14946253Y-9636484D02*
X14936729Y-9626960D01*
X14936729Y-9626960D02*
X14946253Y-9617436D01*
X14946253Y-9617436D02*
X14946253Y-9636484D01*
X15031967Y-9455531D02*
X15041491Y-9446008D01*
X15041491Y-9446008D02*
X15060539Y-9436484D01*
X15060539Y-9436484D02*
X15108158Y-9436484D01*
X15108158Y-9436484D02*
X15127205Y-9446008D01*
X15127205Y-9446008D02*
X15136729Y-9455531D01*
X15136729Y-9455531D02*
X15146253Y-9474579D01*
X15146253Y-9474579D02*
X15146253Y-9493627D01*
X15146253Y-9493627D02*
X15136729Y-9522198D01*
X15136729Y-9522198D02*
X15022443Y-9636484D01*
X15022443Y-9636484D02*
X15146253Y-9636484D01*
X15270062Y-9436484D02*
X15289110Y-9436484D01*
X15289110Y-9436484D02*
X15308158Y-9446008D01*
X15308158Y-9446008D02*
X15317682Y-9455531D01*
X15317682Y-9455531D02*
X15327205Y-9474579D01*
X15327205Y-9474579D02*
X15336729Y-9512674D01*
X15336729Y-9512674D02*
X15336729Y-9560293D01*
X15336729Y-9560293D02*
X15327205Y-9598389D01*
X15327205Y-9598389D02*
X15317682Y-9617436D01*
X15317682Y-9617436D02*
X15308158Y-9626960D01*
X15308158Y-9626960D02*
X15289110Y-9636484D01*
X15289110Y-9636484D02*
X15270062Y-9636484D01*
X15270062Y-9636484D02*
X15251015Y-9626960D01*
X15251015Y-9626960D02*
X15241491Y-9617436D01*
X15241491Y-9617436D02*
X15231967Y-9598389D01*
X15231967Y-9598389D02*
X15222443Y-9560293D01*
X15222443Y-9560293D02*
X15222443Y-9512674D01*
X15222443Y-9512674D02*
X15231967Y-9474579D01*
X15231967Y-9474579D02*
X15241491Y-9455531D01*
X15241491Y-9455531D02*
X15251015Y-9446008D01*
X15251015Y-9446008D02*
X15270062Y-9436484D01*
X15460539Y-9436484D02*
X15479586Y-9436484D01*
X15479586Y-9436484D02*
X15498634Y-9446008D01*
X15498634Y-9446008D02*
X15508158Y-9455531D01*
X15508158Y-9455531D02*
X15517682Y-9474579D01*
X15517682Y-9474579D02*
X15527205Y-9512674D01*
X15527205Y-9512674D02*
X15527205Y-9560293D01*
X15527205Y-9560293D02*
X15517682Y-9598389D01*
X15517682Y-9598389D02*
X15508158Y-9617436D01*
X15508158Y-9617436D02*
X15498634Y-9626960D01*
X15498634Y-9626960D02*
X15479586Y-9636484D01*
X15479586Y-9636484D02*
X15460539Y-9636484D01*
X15460539Y-9636484D02*
X15441491Y-9626960D01*
X15441491Y-9626960D02*
X15431967Y-9617436D01*
X15431967Y-9617436D02*
X15422443Y-9598389D01*
X15422443Y-9598389D02*
X15412920Y-9560293D01*
X15412920Y-9560293D02*
X15412920Y-9512674D01*
X15412920Y-9512674D02*
X15422443Y-9474579D01*
X15422443Y-9474579D02*
X15431967Y-9455531D01*
X15431967Y-9455531D02*
X15441491Y-9446008D01*
X15441491Y-9446008D02*
X15460539Y-9436484D01*
X15612920Y-9636484D02*
X15612920Y-9503150D01*
X15612920Y-9522198D02*
X15622443Y-9512674D01*
X15622443Y-9512674D02*
X15641491Y-9503150D01*
X15641491Y-9503150D02*
X15670063Y-9503150D01*
X15670063Y-9503150D02*
X15689110Y-9512674D01*
X15689110Y-9512674D02*
X15698634Y-9531722D01*
X15698634Y-9531722D02*
X15698634Y-9636484D01*
X15698634Y-9531722D02*
X15708158Y-9512674D01*
X15708158Y-9512674D02*
X15727205Y-9503150D01*
X15727205Y-9503150D02*
X15755777Y-9503150D01*
X15755777Y-9503150D02*
X15774824Y-9512674D01*
X15774824Y-9512674D02*
X15784348Y-9531722D01*
X15784348Y-9531722D02*
X15784348Y-9636484D01*
X15879586Y-9636484D02*
X15879586Y-9503150D01*
X15879586Y-9522198D02*
X15889110Y-9512674D01*
X15889110Y-9512674D02*
X15908158Y-9503150D01*
X15908158Y-9503150D02*
X15936729Y-9503150D01*
X15936729Y-9503150D02*
X15955777Y-9512674D01*
X15955777Y-9512674D02*
X15965301Y-9531722D01*
X15965301Y-9531722D02*
X15965301Y-9636484D01*
X15965301Y-9531722D02*
X15974824Y-9512674D01*
X15974824Y-9512674D02*
X15993872Y-9503150D01*
X15993872Y-9503150D02*
X16022443Y-9503150D01*
X16022443Y-9503150D02*
X16041491Y-9512674D01*
X16041491Y-9512674D02*
X16051015Y-9531722D01*
X16051015Y-9531722D02*
X16051015Y-9636484D01*
X16441491Y-9426960D02*
X16270063Y-9684103D01*
X16698634Y-9436484D02*
X16717682Y-9436484D01*
X16717682Y-9436484D02*
X16736729Y-9446008D01*
X16736729Y-9446008D02*
X16746253Y-9455531D01*
X16746253Y-9455531D02*
X16755777Y-9474579D01*
X16755777Y-9474579D02*
X16765301Y-9512674D01*
X16765301Y-9512674D02*
X16765301Y-9560293D01*
X16765301Y-9560293D02*
X16755777Y-9598389D01*
X16755777Y-9598389D02*
X16746253Y-9617436D01*
X16746253Y-9617436D02*
X16736729Y-9626960D01*
X16736729Y-9626960D02*
X16717682Y-9636484D01*
X16717682Y-9636484D02*
X16698634Y-9636484D01*
X16698634Y-9636484D02*
X16679586Y-9626960D01*
X16679586Y-9626960D02*
X16670063Y-9617436D01*
X16670063Y-9617436D02*
X16660539Y-9598389D01*
X16660539Y-9598389D02*
X16651015Y-9560293D01*
X16651015Y-9560293D02*
X16651015Y-9512674D01*
X16651015Y-9512674D02*
X16660539Y-9474579D01*
X16660539Y-9474579D02*
X16670063Y-9455531D01*
X16670063Y-9455531D02*
X16679586Y-9446008D01*
X16679586Y-9446008D02*
X16698634Y-9436484D01*
X16851015Y-9617436D02*
X16860539Y-9626960D01*
X16860539Y-9626960D02*
X16851015Y-9636484D01*
X16851015Y-9636484D02*
X16841491Y-9626960D01*
X16841491Y-9626960D02*
X16851015Y-9617436D01*
X16851015Y-9617436D02*
X16851015Y-9636484D01*
X16984348Y-9436484D02*
X17003396Y-9436484D01*
X17003396Y-9436484D02*
X17022444Y-9446008D01*
X17022444Y-9446008D02*
X17031968Y-9455531D01*
X17031968Y-9455531D02*
X17041491Y-9474579D01*
X17041491Y-9474579D02*
X17051015Y-9512674D01*
X17051015Y-9512674D02*
X17051015Y-9560293D01*
X17051015Y-9560293D02*
X17041491Y-9598389D01*
X17041491Y-9598389D02*
X17031968Y-9617436D01*
X17031968Y-9617436D02*
X17022444Y-9626960D01*
X17022444Y-9626960D02*
X17003396Y-9636484D01*
X17003396Y-9636484D02*
X16984348Y-9636484D01*
X16984348Y-9636484D02*
X16965301Y-9626960D01*
X16965301Y-9626960D02*
X16955777Y-9617436D01*
X16955777Y-9617436D02*
X16946253Y-9598389D01*
X16946253Y-9598389D02*
X16936729Y-9560293D01*
X16936729Y-9560293D02*
X16936729Y-9512674D01*
X16936729Y-9512674D02*
X16946253Y-9474579D01*
X16946253Y-9474579D02*
X16955777Y-9455531D01*
X16955777Y-9455531D02*
X16965301Y-9446008D01*
X16965301Y-9446008D02*
X16984348Y-9436484D01*
X17165301Y-9522198D02*
X17146253Y-9512674D01*
X17146253Y-9512674D02*
X17136729Y-9503150D01*
X17136729Y-9503150D02*
X17127206Y-9484103D01*
X17127206Y-9484103D02*
X17127206Y-9474579D01*
X17127206Y-9474579D02*
X17136729Y-9455531D01*
X17136729Y-9455531D02*
X17146253Y-9446008D01*
X17146253Y-9446008D02*
X17165301Y-9436484D01*
X17165301Y-9436484D02*
X17203396Y-9436484D01*
X17203396Y-9436484D02*
X17222444Y-9446008D01*
X17222444Y-9446008D02*
X17231968Y-9455531D01*
X17231968Y-9455531D02*
X17241491Y-9474579D01*
X17241491Y-9474579D02*
X17241491Y-9484103D01*
X17241491Y-9484103D02*
X17231968Y-9503150D01*
X17231968Y-9503150D02*
X17222444Y-9512674D01*
X17222444Y-9512674D02*
X17203396Y-9522198D01*
X17203396Y-9522198D02*
X17165301Y-9522198D01*
X17165301Y-9522198D02*
X17146253Y-9531722D01*
X17146253Y-9531722D02*
X17136729Y-9541246D01*
X17136729Y-9541246D02*
X17127206Y-9560293D01*
X17127206Y-9560293D02*
X17127206Y-9598389D01*
X17127206Y-9598389D02*
X17136729Y-9617436D01*
X17136729Y-9617436D02*
X17146253Y-9626960D01*
X17146253Y-9626960D02*
X17165301Y-9636484D01*
X17165301Y-9636484D02*
X17203396Y-9636484D01*
X17203396Y-9636484D02*
X17222444Y-9626960D01*
X17222444Y-9626960D02*
X17231968Y-9617436D01*
X17231968Y-9617436D02*
X17241491Y-9598389D01*
X17241491Y-9598389D02*
X17241491Y-9560293D01*
X17241491Y-9560293D02*
X17231968Y-9541246D01*
X17231968Y-9541246D02*
X17222444Y-9531722D01*
X17222444Y-9531722D02*
X17203396Y-9522198D01*
X17412920Y-9436484D02*
X17374825Y-9436484D01*
X17374825Y-9436484D02*
X17355777Y-9446008D01*
X17355777Y-9446008D02*
X17346253Y-9455531D01*
X17346253Y-9455531D02*
X17327206Y-9484103D01*
X17327206Y-9484103D02*
X17317682Y-9522198D01*
X17317682Y-9522198D02*
X17317682Y-9598389D01*
X17317682Y-9598389D02*
X17327206Y-9617436D01*
X17327206Y-9617436D02*
X17336729Y-9626960D01*
X17336729Y-9626960D02*
X17355777Y-9636484D01*
X17355777Y-9636484D02*
X17393872Y-9636484D01*
X17393872Y-9636484D02*
X17412920Y-9626960D01*
X17412920Y-9626960D02*
X17422444Y-9617436D01*
X17422444Y-9617436D02*
X17431968Y-9598389D01*
X17431968Y-9598389D02*
X17431968Y-9550770D01*
X17431968Y-9550770D02*
X17422444Y-9531722D01*
X17422444Y-9531722D02*
X17412920Y-9522198D01*
X17412920Y-9522198D02*
X17393872Y-9512674D01*
X17393872Y-9512674D02*
X17355777Y-9512674D01*
X17355777Y-9512674D02*
X17336729Y-9522198D01*
X17336729Y-9522198D02*
X17327206Y-9531722D01*
X17327206Y-9531722D02*
X17317682Y-9550770D01*
X17603396Y-9436484D02*
X17565301Y-9436484D01*
X17565301Y-9436484D02*
X17546253Y-9446008D01*
X17546253Y-9446008D02*
X17536729Y-9455531D01*
X17536729Y-9455531D02*
X17517682Y-9484103D01*
X17517682Y-9484103D02*
X17508158Y-9522198D01*
X17508158Y-9522198D02*
X17508158Y-9598389D01*
X17508158Y-9598389D02*
X17517682Y-9617436D01*
X17517682Y-9617436D02*
X17527206Y-9626960D01*
X17527206Y-9626960D02*
X17546253Y-9636484D01*
X17546253Y-9636484D02*
X17584349Y-9636484D01*
X17584349Y-9636484D02*
X17603396Y-9626960D01*
X17603396Y-9626960D02*
X17612920Y-9617436D01*
X17612920Y-9617436D02*
X17622444Y-9598389D01*
X17622444Y-9598389D02*
X17622444Y-9550770D01*
X17622444Y-9550770D02*
X17612920Y-9531722D01*
X17612920Y-9531722D02*
X17603396Y-9522198D01*
X17603396Y-9522198D02*
X17584349Y-9512674D01*
X17584349Y-9512674D02*
X17546253Y-9512674D01*
X17546253Y-9512674D02*
X17527206Y-9522198D01*
X17527206Y-9522198D02*
X17517682Y-9531722D01*
X17517682Y-9531722D02*
X17508158Y-9550770D01*
X17698634Y-9436484D02*
X17698634Y-9474579D01*
X17774825Y-9436484D02*
X17774825Y-9474579D01*
X18070063Y-9712674D02*
X18060539Y-9703150D01*
X18060539Y-9703150D02*
X18041491Y-9674579D01*
X18041491Y-9674579D02*
X18031968Y-9655531D01*
X18031968Y-9655531D02*
X18022444Y-9626960D01*
X18022444Y-9626960D02*
X18012920Y-9579341D01*
X18012920Y-9579341D02*
X18012920Y-9541246D01*
X18012920Y-9541246D02*
X18022444Y-9493627D01*
X18022444Y-9493627D02*
X18031968Y-9465055D01*
X18031968Y-9465055D02*
X18041491Y-9446008D01*
X18041491Y-9446008D02*
X18060539Y-9417436D01*
X18060539Y-9417436D02*
X18070063Y-9407912D01*
X18251015Y-9636484D02*
X18136730Y-9636484D01*
X18193872Y-9636484D02*
X18193872Y-9436484D01*
X18193872Y-9436484D02*
X18174825Y-9465055D01*
X18174825Y-9465055D02*
X18155777Y-9484103D01*
X18155777Y-9484103D02*
X18136730Y-9493627D01*
X18489111Y-9636484D02*
X18489111Y-9436484D01*
X18574825Y-9636484D02*
X18574825Y-9531722D01*
X18574825Y-9531722D02*
X18565301Y-9512674D01*
X18565301Y-9512674D02*
X18546253Y-9503150D01*
X18546253Y-9503150D02*
X18517682Y-9503150D01*
X18517682Y-9503150D02*
X18498634Y-9512674D01*
X18498634Y-9512674D02*
X18489111Y-9522198D01*
X18698634Y-9636484D02*
X18679587Y-9626960D01*
X18679587Y-9626960D02*
X18670063Y-9617436D01*
X18670063Y-9617436D02*
X18660539Y-9598389D01*
X18660539Y-9598389D02*
X18660539Y-9541246D01*
X18660539Y-9541246D02*
X18670063Y-9522198D01*
X18670063Y-9522198D02*
X18679587Y-9512674D01*
X18679587Y-9512674D02*
X18698634Y-9503150D01*
X18698634Y-9503150D02*
X18727206Y-9503150D01*
X18727206Y-9503150D02*
X18746253Y-9512674D01*
X18746253Y-9512674D02*
X18755777Y-9522198D01*
X18755777Y-9522198D02*
X18765301Y-9541246D01*
X18765301Y-9541246D02*
X18765301Y-9598389D01*
X18765301Y-9598389D02*
X18755777Y-9617436D01*
X18755777Y-9617436D02*
X18746253Y-9626960D01*
X18746253Y-9626960D02*
X18727206Y-9636484D01*
X18727206Y-9636484D02*
X18698634Y-9636484D01*
X18879587Y-9636484D02*
X18860539Y-9626960D01*
X18860539Y-9626960D02*
X18851015Y-9607912D01*
X18851015Y-9607912D02*
X18851015Y-9436484D01*
X19031968Y-9626960D02*
X19012920Y-9636484D01*
X19012920Y-9636484D02*
X18974825Y-9636484D01*
X18974825Y-9636484D02*
X18955777Y-9626960D01*
X18955777Y-9626960D02*
X18946253Y-9607912D01*
X18946253Y-9607912D02*
X18946253Y-9531722D01*
X18946253Y-9531722D02*
X18955777Y-9512674D01*
X18955777Y-9512674D02*
X18974825Y-9503150D01*
X18974825Y-9503150D02*
X19012920Y-9503150D01*
X19012920Y-9503150D02*
X19031968Y-9512674D01*
X19031968Y-9512674D02*
X19041492Y-9531722D01*
X19041492Y-9531722D02*
X19041492Y-9550770D01*
X19041492Y-9550770D02*
X18946253Y-9569817D01*
X19108158Y-9712674D02*
X19117682Y-9703150D01*
X19117682Y-9703150D02*
X19136730Y-9674579D01*
X19136730Y-9674579D02*
X19146253Y-9655531D01*
X19146253Y-9655531D02*
X19155777Y-9626960D01*
X19155777Y-9626960D02*
X19165301Y-9579341D01*
X19165301Y-9579341D02*
X19165301Y-9541246D01*
X19165301Y-9541246D02*
X19155777Y-9493627D01*
X19155777Y-9493627D02*
X19146253Y-9465055D01*
X19146253Y-9465055D02*
X19136730Y-9446008D01*
X19136730Y-9446008D02*
X19117682Y-9417436D01*
X19117682Y-9417436D02*
X19108158Y-9407912D01*
X19470063Y-9712674D02*
X19460539Y-9703150D01*
X19460539Y-9703150D02*
X19441492Y-9674579D01*
X19441492Y-9674579D02*
X19431968Y-9655531D01*
X19431968Y-9655531D02*
X19422444Y-9626960D01*
X19422444Y-9626960D02*
X19412920Y-9579341D01*
X19412920Y-9579341D02*
X19412920Y-9541246D01*
X19412920Y-9541246D02*
X19422444Y-9493627D01*
X19422444Y-9493627D02*
X19431968Y-9465055D01*
X19431968Y-9465055D02*
X19441492Y-9446008D01*
X19441492Y-9446008D02*
X19460539Y-9417436D01*
X19460539Y-9417436D02*
X19470063Y-9407912D01*
X19546253Y-9503150D02*
X19546253Y-9636484D01*
X19546253Y-9522198D02*
X19555777Y-9512674D01*
X19555777Y-9512674D02*
X19574825Y-9503150D01*
X19574825Y-9503150D02*
X19603396Y-9503150D01*
X19603396Y-9503150D02*
X19622444Y-9512674D01*
X19622444Y-9512674D02*
X19631968Y-9531722D01*
X19631968Y-9531722D02*
X19631968Y-9636484D01*
X19755777Y-9636484D02*
X19736730Y-9626960D01*
X19736730Y-9626960D02*
X19727206Y-9617436D01*
X19727206Y-9617436D02*
X19717682Y-9598389D01*
X19717682Y-9598389D02*
X19717682Y-9541246D01*
X19717682Y-9541246D02*
X19727206Y-9522198D01*
X19727206Y-9522198D02*
X19736730Y-9512674D01*
X19736730Y-9512674D02*
X19755777Y-9503150D01*
X19755777Y-9503150D02*
X19784349Y-9503150D01*
X19784349Y-9503150D02*
X19803396Y-9512674D01*
X19803396Y-9512674D02*
X19812920Y-9522198D01*
X19812920Y-9522198D02*
X19822444Y-9541246D01*
X19822444Y-9541246D02*
X19822444Y-9598389D01*
X19822444Y-9598389D02*
X19812920Y-9617436D01*
X19812920Y-9617436D02*
X19803396Y-9626960D01*
X19803396Y-9626960D02*
X19784349Y-9636484D01*
X19784349Y-9636484D02*
X19755777Y-9636484D01*
X19879587Y-9503150D02*
X19955777Y-9503150D01*
X19908158Y-9436484D02*
X19908158Y-9607912D01*
X19908158Y-9607912D02*
X19917682Y-9626960D01*
X19917682Y-9626960D02*
X19936730Y-9636484D01*
X19936730Y-9636484D02*
X19955777Y-9636484D01*
X20174825Y-9503150D02*
X20174825Y-9703150D01*
X20174825Y-9512674D02*
X20193873Y-9503150D01*
X20193873Y-9503150D02*
X20231968Y-9503150D01*
X20231968Y-9503150D02*
X20251015Y-9512674D01*
X20251015Y-9512674D02*
X20260539Y-9522198D01*
X20260539Y-9522198D02*
X20270063Y-9541246D01*
X20270063Y-9541246D02*
X20270063Y-9598389D01*
X20270063Y-9598389D02*
X20260539Y-9617436D01*
X20260539Y-9617436D02*
X20251015Y-9626960D01*
X20251015Y-9626960D02*
X20231968Y-9636484D01*
X20231968Y-9636484D02*
X20193873Y-9636484D01*
X20193873Y-9636484D02*
X20174825Y-9626960D01*
X20384349Y-9636484D02*
X20365301Y-9626960D01*
X20365301Y-9626960D02*
X20355777Y-9607912D01*
X20355777Y-9607912D02*
X20355777Y-9436484D01*
X20546254Y-9636484D02*
X20546254Y-9531722D01*
X20546254Y-9531722D02*
X20536730Y-9512674D01*
X20536730Y-9512674D02*
X20517682Y-9503150D01*
X20517682Y-9503150D02*
X20479587Y-9503150D01*
X20479587Y-9503150D02*
X20460539Y-9512674D01*
X20546254Y-9626960D02*
X20527206Y-9636484D01*
X20527206Y-9636484D02*
X20479587Y-9636484D01*
X20479587Y-9636484D02*
X20460539Y-9626960D01*
X20460539Y-9626960D02*
X20451015Y-9607912D01*
X20451015Y-9607912D02*
X20451015Y-9588865D01*
X20451015Y-9588865D02*
X20460539Y-9569817D01*
X20460539Y-9569817D02*
X20479587Y-9560293D01*
X20479587Y-9560293D02*
X20527206Y-9560293D01*
X20527206Y-9560293D02*
X20546254Y-9550770D01*
X20612920Y-9503150D02*
X20689111Y-9503150D01*
X20641492Y-9436484D02*
X20641492Y-9607912D01*
X20641492Y-9607912D02*
X20651015Y-9626960D01*
X20651015Y-9626960D02*
X20670063Y-9636484D01*
X20670063Y-9636484D02*
X20689111Y-9636484D01*
X20831968Y-9626960D02*
X20812920Y-9636484D01*
X20812920Y-9636484D02*
X20774825Y-9636484D01*
X20774825Y-9636484D02*
X20755777Y-9626960D01*
X20755777Y-9626960D02*
X20746254Y-9607912D01*
X20746254Y-9607912D02*
X20746254Y-9531722D01*
X20746254Y-9531722D02*
X20755777Y-9512674D01*
X20755777Y-9512674D02*
X20774825Y-9503150D01*
X20774825Y-9503150D02*
X20812920Y-9503150D01*
X20812920Y-9503150D02*
X20831968Y-9512674D01*
X20831968Y-9512674D02*
X20841492Y-9531722D01*
X20841492Y-9531722D02*
X20841492Y-9550770D01*
X20841492Y-9550770D02*
X20746254Y-9569817D01*
X21012920Y-9636484D02*
X21012920Y-9436484D01*
X21012920Y-9626960D02*
X20993873Y-9636484D01*
X20993873Y-9636484D02*
X20955777Y-9636484D01*
X20955777Y-9636484D02*
X20936730Y-9626960D01*
X20936730Y-9626960D02*
X20927206Y-9617436D01*
X20927206Y-9617436D02*
X20917682Y-9598389D01*
X20917682Y-9598389D02*
X20917682Y-9541246D01*
X20917682Y-9541246D02*
X20927206Y-9522198D01*
X20927206Y-9522198D02*
X20936730Y-9512674D01*
X20936730Y-9512674D02*
X20955777Y-9503150D01*
X20955777Y-9503150D02*
X20993873Y-9503150D01*
X20993873Y-9503150D02*
X21012920Y-9512674D01*
X21089111Y-9712674D02*
X21098635Y-9703150D01*
X21098635Y-9703150D02*
X21117682Y-9674579D01*
X21117682Y-9674579D02*
X21127206Y-9655531D01*
X21127206Y-9655531D02*
X21136730Y-9626960D01*
X21136730Y-9626960D02*
X21146254Y-9579341D01*
X21146254Y-9579341D02*
X21146254Y-9541246D01*
X21146254Y-9541246D02*
X21136730Y-9493627D01*
X21136730Y-9493627D02*
X21127206Y-9465055D01*
X21127206Y-9465055D02*
X21117682Y-9446008D01*
X21117682Y-9446008D02*
X21098635Y-9417436D01*
X21098635Y-9417436D02*
X21089111Y-9407912D01*
M02*
