%TF.GenerationSoftware,KiCad,Pcbnew,7.0.8-7.0.8~ubuntu22.04.1*%
%TF.CreationDate,2023-11-01T15:39:22+03:00*%
%TF.ProjectId,main-module,6d61696e-2d6d-46f6-9475-6c652e6b6963,rev?*%
%TF.SameCoordinates,Original*%
%TF.FileFunction,Copper,L4,Bot*%
%TF.FilePolarity,Positive*%
%FSLAX46Y46*%
G04 Gerber Fmt 4.6, Leading zero omitted, Abs format (unit mm)*
G04 Created by KiCad (PCBNEW 7.0.8-7.0.8~ubuntu22.04.1) date 2023-11-01 15:39:22*
%MOMM*%
%LPD*%
G01*
G04 APERTURE LIST*
G04 Aperture macros list*
%AMRoundRect*
0 Rectangle with rounded corners*
0 $1 Rounding radius*
0 $2 $3 $4 $5 $6 $7 $8 $9 X,Y pos of 4 corners*
0 Add a 4 corners polygon primitive as box body*
4,1,4,$2,$3,$4,$5,$6,$7,$8,$9,$2,$3,0*
0 Add four circle primitives for the rounded corners*
1,1,$1+$1,$2,$3*
1,1,$1+$1,$4,$5*
1,1,$1+$1,$6,$7*
1,1,$1+$1,$8,$9*
0 Add four rect primitives between the rounded corners*
20,1,$1+$1,$2,$3,$4,$5,0*
20,1,$1+$1,$4,$5,$6,$7,0*
20,1,$1+$1,$6,$7,$8,$9,0*
20,1,$1+$1,$8,$9,$2,$3,0*%
G04 Aperture macros list end*
%TA.AperFunction,ComponentPad*%
%ADD10C,2.000000*%
%TD*%
%TA.AperFunction,ComponentPad*%
%ADD11RoundRect,0.250000X-0.750000X0.600000X-0.750000X-0.600000X0.750000X-0.600000X0.750000X0.600000X0*%
%TD*%
%TA.AperFunction,ComponentPad*%
%ADD12O,2.000000X1.700000*%
%TD*%
%TA.AperFunction,ComponentPad*%
%ADD13C,1.524000*%
%TD*%
%TA.AperFunction,ComponentPad*%
%ADD14O,2.000000X1.200000*%
%TD*%
%TA.AperFunction,ComponentPad*%
%ADD15O,2.400000X1.000000*%
%TD*%
%TA.AperFunction,ComponentPad*%
%ADD16RoundRect,0.250000X-0.600000X-0.725000X0.600000X-0.725000X0.600000X0.725000X-0.600000X0.725000X0*%
%TD*%
%TA.AperFunction,ComponentPad*%
%ADD17O,1.700000X1.950000*%
%TD*%
%TA.AperFunction,ComponentPad*%
%ADD18R,1.600000X1.600000*%
%TD*%
%TA.AperFunction,ComponentPad*%
%ADD19C,1.600000*%
%TD*%
%TA.AperFunction,ComponentPad*%
%ADD20RoundRect,0.250000X0.750000X-0.600000X0.750000X0.600000X-0.750000X0.600000X-0.750000X-0.600000X0*%
%TD*%
%TA.AperFunction,ComponentPad*%
%ADD21C,3.000000*%
%TD*%
%TA.AperFunction,ComponentPad*%
%ADD22RoundRect,0.250000X0.600000X0.750000X-0.600000X0.750000X-0.600000X-0.750000X0.600000X-0.750000X0*%
%TD*%
%TA.AperFunction,ComponentPad*%
%ADD23O,1.700000X2.000000*%
%TD*%
%TA.AperFunction,HeatsinkPad*%
%ADD24C,0.600000*%
%TD*%
%TA.AperFunction,SMDPad,CuDef*%
%ADD25RoundRect,0.250000X0.262500X0.450000X-0.262500X0.450000X-0.262500X-0.450000X0.262500X-0.450000X0*%
%TD*%
%TA.AperFunction,SMDPad,CuDef*%
%ADD26RoundRect,0.225000X-0.225000X-0.250000X0.225000X-0.250000X0.225000X0.250000X-0.225000X0.250000X0*%
%TD*%
%TA.AperFunction,SMDPad,CuDef*%
%ADD27RoundRect,0.250000X-0.450000X0.262500X-0.450000X-0.262500X0.450000X-0.262500X0.450000X0.262500X0*%
%TD*%
%TA.AperFunction,SMDPad,CuDef*%
%ADD28RoundRect,0.225000X0.250000X-0.225000X0.250000X0.225000X-0.250000X0.225000X-0.250000X-0.225000X0*%
%TD*%
%TA.AperFunction,SMDPad,CuDef*%
%ADD29RoundRect,0.250000X-1.100000X0.325000X-1.100000X-0.325000X1.100000X-0.325000X1.100000X0.325000X0*%
%TD*%
%TA.AperFunction,SMDPad,CuDef*%
%ADD30RoundRect,0.250000X1.100000X-0.325000X1.100000X0.325000X-1.100000X0.325000X-1.100000X-0.325000X0*%
%TD*%
%TA.AperFunction,SMDPad,CuDef*%
%ADD31RoundRect,0.225000X0.225000X0.250000X-0.225000X0.250000X-0.225000X-0.250000X0.225000X-0.250000X0*%
%TD*%
%TA.AperFunction,SMDPad,CuDef*%
%ADD32RoundRect,0.150000X0.587500X0.150000X-0.587500X0.150000X-0.587500X-0.150000X0.587500X-0.150000X0*%
%TD*%
%TA.AperFunction,SMDPad,CuDef*%
%ADD33RoundRect,0.250000X-0.262500X-0.450000X0.262500X-0.450000X0.262500X0.450000X-0.262500X0.450000X0*%
%TD*%
%TA.AperFunction,SMDPad,CuDef*%
%ADD34RoundRect,0.250000X0.325000X1.100000X-0.325000X1.100000X-0.325000X-1.100000X0.325000X-1.100000X0*%
%TD*%
%TA.AperFunction,SMDPad,CuDef*%
%ADD35RoundRect,0.225000X-0.250000X0.225000X-0.250000X-0.225000X0.250000X-0.225000X0.250000X0.225000X0*%
%TD*%
%TA.AperFunction,ViaPad*%
%ADD36C,0.800000*%
%TD*%
%TA.AperFunction,Conductor*%
%ADD37C,1.000000*%
%TD*%
%TA.AperFunction,Conductor*%
%ADD38C,0.500000*%
%TD*%
%TA.AperFunction,Conductor*%
%ADD39C,0.200000*%
%TD*%
G04 APERTURE END LIST*
D10*
%TO.P,U13,1,ENABLE#*%
%TO.N,/M_ENABLE#*%
X44560000Y-91675000D03*
%TO.P,U13,2,MS1*%
%TO.N,GNDA*%
X47100000Y-91675000D03*
%TO.P,U13,3,MS2*%
X49640000Y-91675000D03*
%TO.P,U13,4,PDN/UART1*%
%TO.N,unconnected-(U13-PDN{slash}UART1-Pad4)*%
X52180000Y-91675000D03*
%TO.P,U13,5,PDN/UART2*%
%TO.N,unconnected-(U13-PDN{slash}UART2-Pad5)*%
X54720000Y-91675000D03*
%TO.P,U13,6,EXTERNAL_CLK*%
%TO.N,unconnected-(U13-EXTERNAL_CLK-Pad6)*%
X57260000Y-91675000D03*
%TO.P,U13,7,STEP*%
%TO.N,/M_STEP*%
X59800000Y-91675000D03*
%TO.P,U13,8,DIR*%
%TO.N,/M_DIR*%
X62340000Y-91675000D03*
%TO.P,U13,9,VM*%
%TO.N,VD*%
X44560000Y-78975000D03*
%TO.P,U13,10,GND*%
%TO.N,GNDPWR*%
X47100000Y-78975000D03*
%TO.P,U13,11,M1B*%
%TO.N,Net-(J6-Pin_1)*%
X49640000Y-78975000D03*
%TO.P,U13,12,M1A*%
%TO.N,Net-(J6-Pin_2)*%
X52180000Y-78975000D03*
%TO.P,U13,13,M2A*%
%TO.N,Net-(J6-Pin_3)*%
X54720000Y-78975000D03*
%TO.P,U13,14,M2B*%
%TO.N,Net-(J6-Pin_4)*%
X57260000Y-78975000D03*
%TO.P,U13,15,VIO*%
%TO.N,+3V3*%
X59800000Y-78975000D03*
%TO.P,U13,16,GND*%
%TO.N,GNDPWR*%
X62340000Y-78975000D03*
%TD*%
D11*
%TO.P,J1,1,Pin_1*%
%TO.N,GNDPWR*%
X46560000Y-45250000D03*
D12*
%TO.P,J1,2,Pin_2*%
%TO.N,/7.5V_BEFORE_FUSE*%
X46560000Y-47750000D03*
%TD*%
D13*
%TO.P,U7,2,DATA*%
%TO.N,/FM_OUT_433*%
X110995000Y-70100000D03*
%TO.P,U7,3,VCC*%
%TO.N,+5V*%
X113535000Y-70100000D03*
%TO.P,U7,4,GND*%
%TO.N,GNDA*%
X116075000Y-70100000D03*
%TD*%
D14*
%TO.P,J2,S1,SHIELD*%
%TO.N,GNDA*%
X114975000Y-55250000D03*
D15*
X118900000Y-55250000D03*
D14*
X114975000Y-44050000D03*
D15*
X118900000Y-44050000D03*
%TD*%
D16*
%TO.P,J6,1,Pin_1*%
%TO.N,Net-(J6-Pin_1)*%
X53000000Y-72800000D03*
D17*
%TO.P,J6,2,Pin_2*%
%TO.N,Net-(J6-Pin_2)*%
X55500000Y-72800000D03*
%TO.P,J6,3,Pin_3*%
%TO.N,Net-(J6-Pin_3)*%
X58000000Y-72800000D03*
%TO.P,J6,4,Pin_4*%
%TO.N,Net-(J6-Pin_4)*%
X60500000Y-72800000D03*
%TD*%
D10*
%TO.P,SW1,1,1*%
%TO.N,GNDA*%
X70135000Y-51275000D03*
%TO.P,SW1,2,2*%
%TO.N,/ESP32_ENABLE*%
X70135000Y-44775000D03*
%TD*%
D18*
%TO.P,C17,1*%
%TO.N,+3V3*%
X64235000Y-44700000D03*
D19*
%TO.P,C17,2*%
%TO.N,GNDA*%
X64235000Y-47200000D03*
%TD*%
D18*
%TO.P,C4,1*%
%TO.N,/7.5V_BEFORE_FUSE*%
X55235000Y-48400000D03*
D19*
%TO.P,C4,2*%
%TO.N,GNDA*%
X55235000Y-44900000D03*
%TD*%
D20*
%TO.P,J3,1,Pin_1*%
%TO.N,Net-(J3-Pin_1)*%
X60110000Y-60350000D03*
D12*
%TO.P,J3,2,Pin_2*%
%TO.N,Net-(J3-Pin_2)*%
X60110000Y-57850000D03*
%TD*%
D10*
%TO.P,U6,1,ANT*%
%TO.N,unconnected-(U6-ANT-Pad1)*%
X117800000Y-83500000D03*
%TO.P,U6,2,GND*%
%TO.N,GNDA*%
X115260000Y-83500000D03*
%TO.P,U6,3,VCC*%
%TO.N,+5V*%
X96300000Y-83500000D03*
%TO.P,U6,4,CS*%
X93760000Y-83500000D03*
%TO.P,U6,5,DATA*%
%TO.N,/FM_IN_5V_433*%
X91220000Y-83500000D03*
%TO.P,U6,6,GND*%
%TO.N,GNDA*%
X88680000Y-83500000D03*
%TD*%
%TO.P,SW2,1,1*%
%TO.N,/CHARGER_START_BUTTON*%
X70135000Y-54750000D03*
%TO.P,SW2,2,2*%
%TO.N,GNDA*%
X70135000Y-61250000D03*
%TD*%
D21*
%TO.P,TP1,1,1*%
%TO.N,GNDA*%
X119000000Y-77000000D03*
%TD*%
D10*
%TO.P,U10,1,ANT*%
%TO.N,unconnected-(U10-ANT-Pad1)*%
X117735000Y-90900000D03*
%TO.P,U10,2,GND*%
%TO.N,GNDA*%
X115195000Y-90900000D03*
%TO.P,U10,3,VCC*%
%TO.N,+5V*%
X96235000Y-90900000D03*
%TO.P,U10,4,CS*%
X93695000Y-90900000D03*
%TO.P,U10,5,DATA*%
%TO.N,/FM_IN_5V_315*%
X91155000Y-90900000D03*
%TO.P,U10,6,GND*%
%TO.N,GNDA*%
X88615000Y-90900000D03*
%TD*%
D22*
%TO.P,J5,1,Pin_1*%
%TO.N,GNDA*%
X96050000Y-69800000D03*
D23*
%TO.P,J5,2,Pin_2*%
%TO.N,/LIMIT_SWITCH*%
X93550000Y-69800000D03*
%TD*%
D24*
%TO.P,U8,39,GND*%
%TO.N,GNDA*%
X83037500Y-49512500D03*
X83037500Y-51037500D03*
X83800000Y-48750000D03*
X83800000Y-50275000D03*
X83800000Y-51800000D03*
X84562500Y-49512500D03*
X84562500Y-51037500D03*
X85325000Y-48750000D03*
X85325000Y-50275000D03*
X85325000Y-51800000D03*
X86087500Y-49512500D03*
X86087500Y-51037500D03*
%TD*%
D25*
%TO.P,R20,1*%
%TO.N,GNDA*%
X96347500Y-88000000D03*
%TO.P,R20,2*%
%TO.N,/FM_IN_315*%
X94522500Y-88000000D03*
%TD*%
D26*
%TO.P,C26,1*%
%TO.N,/LIMIT_SWITCH*%
X93525000Y-67000000D03*
%TO.P,C26,2*%
%TO.N,GNDA*%
X95075000Y-67000000D03*
%TD*%
D27*
%TO.P,R3,1*%
%TO.N,/VM_ENABLE*%
X56285560Y-65287500D03*
%TO.P,R3,2*%
%TO.N,GNDA*%
X56285560Y-67112500D03*
%TD*%
D25*
%TO.P,R22,1*%
%TO.N,+3V3*%
X74147500Y-53400000D03*
%TO.P,R22,2*%
%TO.N,/CHARGER_START_BUTTON*%
X72322500Y-53400000D03*
%TD*%
%TO.P,R11,1*%
%TO.N,/FM_IN_433*%
X93057500Y-80000000D03*
%TO.P,R11,2*%
%TO.N,/FM_IN_5V_433*%
X91232500Y-80000000D03*
%TD*%
D26*
%TO.P,C34,1*%
%TO.N,/CHARGER_START_BUTTON*%
X72285000Y-55300000D03*
%TO.P,C34,2*%
%TO.N,GNDA*%
X73835000Y-55300000D03*
%TD*%
D28*
%TO.P,C20,1*%
%TO.N,+3V3*%
X84400000Y-45975000D03*
%TO.P,C20,2*%
%TO.N,GNDA*%
X84400000Y-44425000D03*
%TD*%
D29*
%TO.P,C19,1*%
%TO.N,GNDA*%
X81500000Y-43025000D03*
%TO.P,C19,2*%
%TO.N,+3V3*%
X81500000Y-45975000D03*
%TD*%
D25*
%TO.P,R19,1*%
%TO.N,/FM_IN_315*%
X92847500Y-88000000D03*
%TO.P,R19,2*%
%TO.N,/FM_IN_5V_315*%
X91022500Y-88000000D03*
%TD*%
D30*
%TO.P,C27,1*%
%TO.N,GNDA*%
X59625000Y-88500000D03*
%TO.P,C27,2*%
%TO.N,+3V3*%
X59625000Y-85550000D03*
%TD*%
D31*
%TO.P,C31,1*%
%TO.N,GNDPWR*%
X47200000Y-82425000D03*
%TO.P,C31,2*%
%TO.N,VD*%
X45650000Y-82425000D03*
%TD*%
D26*
%TO.P,C14,1*%
%TO.N,+5V*%
X113860000Y-72000000D03*
%TO.P,C14,2*%
%TO.N,GNDA*%
X115410000Y-72000000D03*
%TD*%
D32*
%TO.P,Q1,1,G*%
%TO.N,/VM_ENABLE*%
X53923060Y-65150000D03*
%TO.P,Q1,2,S*%
%TO.N,GNDA*%
X53923060Y-67050000D03*
%TO.P,Q1,3,D*%
%TO.N,Net-(Q1-D)*%
X52048060Y-66100000D03*
%TD*%
D25*
%TO.P,R12,1*%
%TO.N,GNDA*%
X96807500Y-80000000D03*
%TO.P,R12,2*%
%TO.N,/FM_IN_433*%
X94982500Y-80000000D03*
%TD*%
D26*
%TO.P,C15,1*%
%TO.N,+5V*%
X98870000Y-83500000D03*
%TO.P,C15,2*%
%TO.N,GNDA*%
X100420000Y-83500000D03*
%TD*%
D28*
%TO.P,C1,1*%
%TO.N,/7.5V_BEFORE_FUSE*%
X57535000Y-47422349D03*
%TO.P,C1,2*%
%TO.N,GNDA*%
X57535000Y-45872349D03*
%TD*%
D30*
%TO.P,C2,1*%
%TO.N,/7.5V_BEFORE_FUSE*%
X52035000Y-48222349D03*
%TO.P,C2,2*%
%TO.N,GNDA*%
X52035000Y-45272349D03*
%TD*%
D33*
%TO.P,R6,1*%
%TO.N,Net-(Q4-E)*%
X102837500Y-58800000D03*
%TO.P,R6,2*%
%TO.N,Net-(Q3-B)*%
X104662500Y-58800000D03*
%TD*%
D26*
%TO.P,C24,1*%
%TO.N,+5V*%
X98725000Y-91000000D03*
%TO.P,C24,2*%
%TO.N,GNDA*%
X100275000Y-91000000D03*
%TD*%
D25*
%TO.P,R10,1*%
%TO.N,+3V3*%
X74547500Y-44800000D03*
%TO.P,R10,2*%
%TO.N,/ESP32_ENABLE*%
X72722500Y-44800000D03*
%TD*%
D34*
%TO.P,C32,1*%
%TO.N,GNDPWR*%
X47700000Y-85125000D03*
%TO.P,C32,2*%
%TO.N,VD*%
X44750000Y-85125000D03*
%TD*%
D35*
%TO.P,C29,1*%
%TO.N,+3V3*%
X56825000Y-86350000D03*
%TO.P,C29,2*%
%TO.N,GNDA*%
X56825000Y-87900000D03*
%TD*%
D31*
%TO.P,C16,1*%
%TO.N,/ESP32_ENABLE*%
X72810000Y-47500000D03*
%TO.P,C16,2*%
%TO.N,GNDA*%
X71260000Y-47500000D03*
%TD*%
D36*
%TO.N,GNDA*%
X110200000Y-58600000D03*
X73250000Y-82250000D03*
X81000000Y-69750000D03*
X103035000Y-49600000D03*
X72500000Y-69750000D03*
X79532500Y-60695000D03*
%TO.N,+3V3*%
X81600000Y-46000000D03*
X59875000Y-85575000D03*
%TO.N,+5V*%
X115000000Y-62750000D03*
X73250000Y-79250000D03*
%TO.N,/ESP32_ENABLE*%
X101900000Y-64400000D03*
%TO.N,VBUS*%
X112435000Y-47200000D03*
X112335000Y-52100000D03*
X107435000Y-45000000D03*
%TO.N,/D+*%
X111535000Y-48300000D03*
X109735000Y-49800000D03*
%TO.N,/D-*%
X111535000Y-51000000D03*
X110635000Y-49200000D03*
%TO.N,/VM_ENABLE*%
X61735000Y-62800000D03*
%TO.N,Net-(Q1-D)*%
X49935000Y-66100000D03*
%TO.N,Net-(Q3-B)*%
X106450000Y-58750000D03*
%TO.N,Net-(Q4-E)*%
X100950000Y-58750000D03*
%TO.N,/FM_IN_433*%
X94000000Y-80000000D03*
X93992500Y-54365000D03*
%TO.N,/FM_IN_315*%
X93992500Y-49285000D03*
X93735000Y-88000000D03*
%TO.N,/TXD_3V3*%
X101979378Y-54169163D03*
X97000000Y-52200000D03*
%TO.N,/RXD_3V3*%
X102535000Y-55000000D03*
X100250000Y-55000000D03*
%TO.N,/FM_OUT_433*%
X93992500Y-45475000D03*
%TO.N,/M_DIR*%
X93992500Y-56905000D03*
%TO.N,/M_STEP*%
X93992500Y-55635000D03*
%TO.N,/M_ENABLE#*%
X90962500Y-60695000D03*
%TD*%
D37*
%TO.N,/7.5V_BEFORE_FUSE*%
X52212651Y-48400000D02*
X52035000Y-48222349D01*
X55235000Y-48400000D02*
X52212651Y-48400000D01*
X56557349Y-48400000D02*
X57535000Y-47422349D01*
X55235000Y-48400000D02*
X56557349Y-48400000D01*
D38*
%TO.N,GNDA*%
X53923060Y-67050000D02*
X55135000Y-67050000D01*
X55135000Y-67050000D02*
X56223060Y-67050000D01*
X55135000Y-67050000D02*
X55435000Y-67350000D01*
X56825000Y-87900000D02*
X59025000Y-87900000D01*
X49640000Y-91675000D02*
X48425000Y-91675000D01*
X56285560Y-67112500D02*
X59722500Y-67112500D01*
X49640000Y-91675000D02*
X53415000Y-87900000D01*
X59722500Y-67112500D02*
X65635000Y-61200000D01*
X59625000Y-88500000D02*
X67000000Y-88500000D01*
X48425000Y-91675000D02*
X47100000Y-91675000D01*
X59025000Y-87900000D02*
X59625000Y-88500000D01*
X65635000Y-61200000D02*
X70085000Y-61200000D01*
X53415000Y-87900000D02*
X56825000Y-87900000D01*
D39*
%TO.N,+3V3*%
X74547500Y-44800000D02*
X80325000Y-44800000D01*
D38*
X57625000Y-85550000D02*
X56825000Y-86350000D01*
X59625000Y-85550000D02*
X57625000Y-85550000D01*
D39*
X80325000Y-44800000D02*
X81500000Y-45975000D01*
D38*
X84400000Y-45975000D02*
X81500000Y-45975000D01*
D39*
X74147500Y-52887500D02*
X81060000Y-45975000D01*
D38*
X59800000Y-78975000D02*
X59800000Y-85375000D01*
D37*
%TO.N,GNDPWR*%
X62340000Y-77040000D02*
X61000000Y-75700000D01*
X47100000Y-75700000D02*
X47100000Y-78975000D01*
X47700000Y-82925000D02*
X47100000Y-82325000D01*
X47100000Y-82325000D02*
X47100000Y-78975000D01*
X47700000Y-82925000D02*
X47200000Y-82425000D01*
X46560000Y-45250000D02*
X45085000Y-45250000D01*
X61000000Y-75700000D02*
X47100000Y-75700000D01*
X47700000Y-85125000D02*
X47700000Y-82925000D01*
X43435000Y-72035000D02*
X47100000Y-75700000D01*
X45085000Y-45250000D02*
X43435000Y-46900000D01*
X62340000Y-78975000D02*
X62340000Y-77040000D01*
X43435000Y-46900000D02*
X43435000Y-72035000D01*
%TO.N,VD*%
X44750000Y-85125000D02*
X44750000Y-83325000D01*
X45650000Y-82425000D02*
X44525000Y-81300000D01*
X44525000Y-81300000D02*
X44525000Y-79010000D01*
X44750000Y-83325000D02*
X45650000Y-82425000D01*
D38*
%TO.N,+5V*%
X93760000Y-83500000D02*
X96300000Y-83500000D01*
X96300000Y-83500000D02*
X98870000Y-83500000D01*
X93695000Y-90900000D02*
X96235000Y-90900000D01*
X98725000Y-91000000D02*
X96335000Y-91000000D01*
X113860000Y-72000000D02*
X113860000Y-70425000D01*
D39*
%TO.N,/ESP32_ENABLE*%
X72722500Y-44800000D02*
X70160000Y-44800000D01*
X72810000Y-47500000D02*
X72810000Y-44887500D01*
%TO.N,/CHARGER_START_BUTTON*%
X72322500Y-53400000D02*
X71485000Y-53400000D01*
X72322500Y-53400000D02*
X72322500Y-55262500D01*
X71485000Y-53400000D02*
X70135000Y-54750000D01*
D38*
%TO.N,/LIMIT_SWITCH*%
X93525000Y-67000000D02*
X93525000Y-69775000D01*
%TO.N,/VM_ENABLE*%
X61735000Y-62800000D02*
X59247500Y-65287500D01*
X59247500Y-65287500D02*
X56285560Y-65287500D01*
X53923060Y-65150000D02*
X56148060Y-65150000D01*
%TO.N,Net-(Q1-D)*%
X52048060Y-66100000D02*
X50035000Y-66100000D01*
D39*
%TO.N,Net-(Q3-B)*%
X106300000Y-58800000D02*
X106350000Y-58750000D01*
X104662500Y-58800000D02*
X106300000Y-58800000D01*
X106350000Y-58750000D02*
X106450000Y-58750000D01*
%TO.N,Net-(Q4-E)*%
X101000000Y-58800000D02*
X100950000Y-58750000D01*
X102837500Y-58800000D02*
X101000000Y-58800000D01*
D38*
%TO.N,/FM_IN_433*%
X94000000Y-80000000D02*
X94982500Y-80000000D01*
X94000000Y-80000000D02*
X93057500Y-80000000D01*
%TO.N,/FM_IN_5V_433*%
X91232500Y-80000000D02*
X91232500Y-83487500D01*
%TO.N,/FM_IN_315*%
X93735000Y-88000000D02*
X94522500Y-88000000D01*
X92847500Y-88000000D02*
X93735000Y-88000000D01*
%TO.N,/FM_IN_5V_315*%
X91022500Y-88000000D02*
X91022500Y-90767500D01*
%TD*%
%TA.AperFunction,Conductor*%
%TO.N,Net-(Q1-D)*%
G36*
X51463681Y-65801591D02*
G01*
X52028611Y-66089576D01*
X52034425Y-66096387D01*
X52033721Y-66105314D01*
X52028611Y-66110424D01*
X51463681Y-66398408D01*
X51457075Y-66399612D01*
X51020968Y-66351156D01*
X51013124Y-66346837D01*
X51010560Y-66339528D01*
X51010560Y-65860471D01*
X51013987Y-65852198D01*
X51020966Y-65848843D01*
X51457075Y-65800387D01*
X51463681Y-65801591D01*
G37*
%TD.AperFunction*%
%TD*%
%TA.AperFunction,Conductor*%
%TO.N,+5V*%
G36*
X94088482Y-89980620D02*
G01*
X94088495Y-89980625D01*
X95687800Y-90647000D01*
X95694119Y-90653345D01*
X95695000Y-90657800D01*
X95695000Y-91142199D01*
X95691573Y-91150472D01*
X95687800Y-91152999D01*
X94088495Y-91819374D01*
X94079540Y-91819393D01*
X94073195Y-91813074D01*
X94073190Y-91813061D01*
X93695863Y-90904487D01*
X93695854Y-90895535D01*
X94073190Y-89986937D01*
X94079528Y-89980611D01*
X94088482Y-89980620D01*
G37*
%TD.AperFunction*%
%TD*%
%TA.AperFunction,Conductor*%
%TO.N,Net-(Q3-B)*%
G36*
X105170823Y-58293987D02*
G01*
X105683029Y-58696487D01*
X105687417Y-58704292D01*
X105687500Y-58705685D01*
X105687500Y-58894314D01*
X105684073Y-58902587D01*
X105683029Y-58903513D01*
X105170823Y-59306012D01*
X105162201Y-59308430D01*
X105155228Y-59304992D01*
X104762704Y-58903513D01*
X104669495Y-58808178D01*
X104666163Y-58799868D01*
X104669495Y-58791821D01*
X105155228Y-58295006D01*
X105163462Y-58291487D01*
X105170823Y-58293987D01*
G37*
%TD.AperFunction*%
%TD*%
%TA.AperFunction,Conductor*%
%TO.N,+5V*%
G36*
X96693482Y-82580620D02*
G01*
X96693495Y-82580625D01*
X98292800Y-83247000D01*
X98299119Y-83253345D01*
X98300000Y-83257800D01*
X98300000Y-83742199D01*
X98296573Y-83750472D01*
X98292800Y-83752999D01*
X96693495Y-84419374D01*
X96684540Y-84419393D01*
X96678195Y-84413074D01*
X96678190Y-84413061D01*
X96300863Y-83504487D01*
X96300854Y-83495535D01*
X96678190Y-82586937D01*
X96684528Y-82580611D01*
X96693482Y-82580620D01*
G37*
%TD.AperFunction*%
%TD*%
%TA.AperFunction,Conductor*%
%TO.N,/VM_ENABLE*%
G36*
X55837884Y-64778091D02*
G01*
X55839841Y-64779865D01*
X56278042Y-65277821D01*
X56280935Y-65286295D01*
X56276988Y-65294333D01*
X56276103Y-65295040D01*
X55674509Y-65728880D01*
X55665794Y-65730939D01*
X55661951Y-65729600D01*
X55079046Y-65403350D01*
X55073500Y-65396319D01*
X55073060Y-65393140D01*
X55073060Y-64909938D01*
X55076487Y-64901665D01*
X55082866Y-64898392D01*
X55829165Y-64776048D01*
X55837884Y-64778091D01*
G37*
%TD.AperFunction*%
%TD*%
%TA.AperFunction,Conductor*%
%TO.N,/FM_IN_315*%
G36*
X93355198Y-87491315D02*
G01*
X93866033Y-87746766D01*
X93871900Y-87753532D01*
X93872500Y-87757231D01*
X93872500Y-88242768D01*
X93869073Y-88251041D01*
X93866033Y-88253233D01*
X93355200Y-88508683D01*
X93346268Y-88509318D01*
X93341601Y-88506397D01*
X93090923Y-88250000D01*
X92854495Y-88008178D01*
X92851163Y-87999868D01*
X92854495Y-87991821D01*
X93341602Y-87493601D01*
X93349835Y-87490082D01*
X93355198Y-87491315D01*
G37*
%TD.AperFunction*%
%TD*%
%TA.AperFunction,Conductor*%
%TO.N,GNDA*%
G36*
X54950153Y-66798843D02*
G01*
X54957996Y-66803162D01*
X54960560Y-66810471D01*
X54960560Y-67289528D01*
X54957133Y-67297801D01*
X54950152Y-67301156D01*
X54514044Y-67349612D01*
X54507438Y-67348408D01*
X53942508Y-67060424D01*
X53936694Y-67053613D01*
X53937398Y-67044686D01*
X53942508Y-67039576D01*
X54507439Y-66751590D01*
X54514043Y-66750387D01*
X54950153Y-66798843D01*
G37*
%TD.AperFunction*%
%TD*%
%TA.AperFunction,Conductor*%
%TO.N,GNDPWR*%
G36*
X48197588Y-83203427D02*
G01*
X48200967Y-83210641D01*
X48274688Y-84021574D01*
X48273407Y-84028049D01*
X47710371Y-85106141D01*
X47703503Y-85111888D01*
X47694584Y-85111096D01*
X47689629Y-85106141D01*
X47126592Y-84028049D01*
X47125311Y-84021574D01*
X47199033Y-83210641D01*
X47203195Y-83202712D01*
X47210685Y-83200000D01*
X48189315Y-83200000D01*
X48197588Y-83203427D01*
G37*
%TD.AperFunction*%
%TD*%
%TA.AperFunction,Conductor*%
%TO.N,/FM_IN_433*%
G36*
X93565198Y-79491315D02*
G01*
X94076033Y-79746766D01*
X94081900Y-79753532D01*
X94082500Y-79757231D01*
X94082500Y-80242768D01*
X94079073Y-80251041D01*
X94076033Y-80253233D01*
X93565200Y-80508683D01*
X93556268Y-80509318D01*
X93551601Y-80506397D01*
X93300923Y-80250000D01*
X93064495Y-80008178D01*
X93061163Y-79999868D01*
X93064495Y-79991821D01*
X93551602Y-79493601D01*
X93559835Y-79490082D01*
X93565198Y-79491315D01*
G37*
%TD.AperFunction*%
%TD*%
%TA.AperFunction,Conductor*%
%TO.N,GNDA*%
G36*
X56837849Y-66621446D02*
G01*
X57490373Y-66859693D01*
X57496969Y-66865749D01*
X57498060Y-66870683D01*
X57498060Y-67354316D01*
X57494633Y-67362589D01*
X57490373Y-67365306D01*
X56837852Y-67603552D01*
X56828905Y-67603171D01*
X56825999Y-67601247D01*
X56294181Y-67121185D01*
X56290336Y-67113098D01*
X56293336Y-67104660D01*
X56294181Y-67103815D01*
X56561512Y-66862500D01*
X56826000Y-66623751D01*
X56834437Y-66620752D01*
X56837849Y-66621446D01*
G37*
%TD.AperFunction*%
%TD*%
%TA.AperFunction,Conductor*%
%TO.N,GNDA*%
G36*
X50879179Y-90086998D02*
G01*
X50882952Y-90089525D01*
X51225474Y-90432047D01*
X51228901Y-90440320D01*
X51228020Y-90444775D01*
X50568340Y-92046851D01*
X50562021Y-92053196D01*
X50553066Y-92053215D01*
X50553054Y-92053210D01*
X49643784Y-91677562D01*
X49637446Y-91671235D01*
X49637437Y-91671215D01*
X49261789Y-90761945D01*
X49261798Y-90752991D01*
X49268134Y-90746665D01*
X50870226Y-90086979D01*
X50879179Y-90086998D01*
G37*
%TD.AperFunction*%
%TD*%
%TA.AperFunction,Conductor*%
%TO.N,+3V3*%
G36*
X75055823Y-44293987D02*
G01*
X75568029Y-44696487D01*
X75572417Y-44704292D01*
X75572500Y-44705685D01*
X75572500Y-44894314D01*
X75569073Y-44902587D01*
X75568029Y-44903513D01*
X75055823Y-45306012D01*
X75047201Y-45308430D01*
X75040228Y-45304992D01*
X74647704Y-44903513D01*
X74554495Y-44808178D01*
X74551163Y-44799868D01*
X74554495Y-44791821D01*
X75040228Y-44295006D01*
X75048462Y-44291487D01*
X75055823Y-44293987D01*
G37*
%TD.AperFunction*%
%TD*%
%TA.AperFunction,Conductor*%
%TO.N,+3V3*%
G36*
X59870222Y-85179219D02*
G01*
X59874892Y-85186860D01*
X59875034Y-85188648D01*
X59875994Y-85572644D01*
X59875093Y-85577175D01*
X59725708Y-85935481D01*
X59719361Y-85941799D01*
X59712339Y-85942393D01*
X59089103Y-85802055D01*
X59081785Y-85796895D01*
X59079973Y-85790641D01*
X59079973Y-85310004D01*
X59083400Y-85301731D01*
X59089855Y-85298446D01*
X59861519Y-85177119D01*
X59870222Y-85179219D01*
G37*
%TD.AperFunction*%
%TD*%
%TA.AperFunction,Conductor*%
%TO.N,/7.5V_BEFORE_FUSE*%
G36*
X56043013Y-47605489D02*
G01*
X56399229Y-47849504D01*
X56400890Y-47850883D01*
X57095843Y-48545836D01*
X57099270Y-48554109D01*
X57095843Y-48562382D01*
X57092882Y-48564534D01*
X56042068Y-49099967D01*
X56033141Y-49100669D01*
X56029038Y-49098335D01*
X55420926Y-48564534D01*
X55243675Y-48408942D01*
X55239719Y-48400911D01*
X55242601Y-48392433D01*
X55243106Y-48391893D01*
X56028131Y-47606868D01*
X56036403Y-47603442D01*
X56043013Y-47605489D01*
G37*
%TD.AperFunction*%
%TD*%
%TA.AperFunction,Conductor*%
%TO.N,/ESP32_ENABLE*%
G36*
X72911447Y-46578427D02*
G01*
X72913359Y-46580943D01*
X73237906Y-47155109D01*
X73238994Y-47163997D01*
X73234910Y-47170097D01*
X72817189Y-47495401D01*
X72808556Y-47497781D01*
X72802811Y-47495401D01*
X72597832Y-47335772D01*
X72385088Y-47170096D01*
X72380667Y-47162310D01*
X72382092Y-47155111D01*
X72706641Y-46580943D01*
X72713695Y-46575427D01*
X72716826Y-46575000D01*
X72903174Y-46575000D01*
X72911447Y-46578427D01*
G37*
%TD.AperFunction*%
%TD*%
%TA.AperFunction,Conductor*%
%TO.N,+3V3*%
G36*
X84065084Y-45545347D02*
G01*
X84068868Y-45548512D01*
X84395401Y-45967811D01*
X84397781Y-45976444D01*
X84395401Y-45982189D01*
X84068868Y-46401487D01*
X84061081Y-46405909D01*
X84056167Y-46405472D01*
X83483230Y-46227555D01*
X83476346Y-46221828D01*
X83475000Y-46216381D01*
X83475000Y-45733618D01*
X83478427Y-45725345D01*
X83483228Y-45722444D01*
X84056167Y-45544527D01*
X84065084Y-45545347D01*
G37*
%TD.AperFunction*%
%TD*%
%TA.AperFunction,Conductor*%
%TO.N,+3V3*%
G36*
X58434017Y-84996208D02*
G01*
X59603160Y-85539389D01*
X59609219Y-85545983D01*
X59608841Y-85554930D01*
X59603160Y-85560611D01*
X58434017Y-86103791D01*
X58425070Y-86104169D01*
X58424561Y-86103969D01*
X57707174Y-85803009D01*
X57700870Y-85796648D01*
X57700000Y-85792220D01*
X57700000Y-85307779D01*
X57703427Y-85299506D01*
X57707172Y-85296990D01*
X58424561Y-84996029D01*
X58433515Y-84995989D01*
X58434017Y-84996208D01*
G37*
%TD.AperFunction*%
%TD*%
%TA.AperFunction,Conductor*%
%TO.N,/FM_IN_5V_315*%
G36*
X91273586Y-88929783D02*
G01*
X91275749Y-88932766D01*
X92073175Y-90506061D01*
X92073859Y-90514990D01*
X92068029Y-90521787D01*
X92067226Y-90522156D01*
X91159487Y-90899136D01*
X91150533Y-90899145D01*
X91150513Y-90899136D01*
X90241238Y-90521519D01*
X90234911Y-90515181D01*
X90234649Y-90506945D01*
X90769801Y-88934287D01*
X90775710Y-88927559D01*
X90780877Y-88926356D01*
X91265313Y-88926356D01*
X91273586Y-88929783D01*
G37*
%TD.AperFunction*%
%TD*%
%TA.AperFunction,Conductor*%
%TO.N,+3V3*%
G36*
X57367033Y-85467412D02*
G01*
X57707656Y-85808035D01*
X57711083Y-85816308D01*
X57709441Y-85822284D01*
X57304835Y-86503258D01*
X57297664Y-86508620D01*
X57291033Y-86508367D01*
X56829338Y-86352411D01*
X56822596Y-86346516D01*
X56822264Y-86345783D01*
X56642416Y-85909252D01*
X56642433Y-85900297D01*
X56647152Y-85894800D01*
X57352681Y-85465688D01*
X57361529Y-85464317D01*
X57367033Y-85467412D01*
G37*
%TD.AperFunction*%
%TD*%
%TA.AperFunction,Conductor*%
%TO.N,/VM_ENABLE*%
G36*
X54950153Y-64898843D02*
G01*
X54957996Y-64903162D01*
X54960560Y-64910471D01*
X54960560Y-65389528D01*
X54957133Y-65397801D01*
X54950152Y-65401156D01*
X54514044Y-65449612D01*
X54507438Y-65448408D01*
X53942508Y-65160424D01*
X53936694Y-65153613D01*
X53937398Y-65144686D01*
X53942508Y-65139576D01*
X54507439Y-64851590D01*
X54514043Y-64850387D01*
X54950153Y-64898843D01*
G37*
%TD.AperFunction*%
%TD*%
%TA.AperFunction,Conductor*%
%TO.N,/ESP32_ENABLE*%
G36*
X72229771Y-44295007D02*
G01*
X72715503Y-44791821D01*
X72718836Y-44800132D01*
X72715503Y-44808179D01*
X72229771Y-45304992D01*
X72221537Y-45308512D01*
X72214176Y-45306012D01*
X71701971Y-44903513D01*
X71697583Y-44895707D01*
X71697500Y-44894314D01*
X71697500Y-44705685D01*
X71700927Y-44697412D01*
X71701964Y-44696491D01*
X72214177Y-44293986D01*
X72222798Y-44291569D01*
X72229771Y-44295007D01*
G37*
%TD.AperFunction*%
%TD*%
%TA.AperFunction,Conductor*%
%TO.N,/CHARGER_START_BUTTON*%
G36*
X71569768Y-53305310D02*
G01*
X71575354Y-53312309D01*
X71575813Y-53315552D01*
X71575813Y-53498192D01*
X71575267Y-53501724D01*
X71062727Y-55120530D01*
X71056963Y-55127382D01*
X71048041Y-55128152D01*
X71047100Y-55127809D01*
X70138487Y-54751856D01*
X70132152Y-54745527D01*
X70132146Y-54745512D01*
X70082827Y-54626133D01*
X69757308Y-53838200D01*
X69757317Y-53829249D01*
X69763655Y-53822922D01*
X69764869Y-53822498D01*
X71560870Y-53304311D01*
X71569768Y-53305310D01*
G37*
%TD.AperFunction*%
%TD*%
%TA.AperFunction,Conductor*%
%TO.N,GNDA*%
G36*
X55742606Y-66621843D02*
G01*
X55744629Y-66623309D01*
X56276727Y-67103624D01*
X56280572Y-67111711D01*
X56277572Y-67120149D01*
X56276538Y-67121161D01*
X55731861Y-67591917D01*
X55723361Y-67594734D01*
X55719369Y-67593717D01*
X55079919Y-67303117D01*
X55073805Y-67296574D01*
X55073060Y-67292465D01*
X55073060Y-66808948D01*
X55076487Y-66800675D01*
X55081695Y-66797656D01*
X55733727Y-66620702D01*
X55742606Y-66621843D01*
G37*
%TD.AperFunction*%
%TD*%
%TA.AperFunction,Conductor*%
%TO.N,/7.5V_BEFORE_FUSE*%
G36*
X54436900Y-47602947D02*
G01*
X54440327Y-47605320D01*
X55227711Y-48391722D01*
X55231143Y-48399993D01*
X55227721Y-48408268D01*
X55227711Y-48408278D01*
X54440327Y-49194679D01*
X54432052Y-49198101D01*
X54427951Y-49197356D01*
X53642592Y-48902847D01*
X53636049Y-48896734D01*
X53635000Y-48891892D01*
X53635000Y-47908108D01*
X53638427Y-47899835D01*
X53642592Y-47897153D01*
X54427951Y-47602643D01*
X54436900Y-47602947D01*
G37*
%TD.AperFunction*%
%TD*%
%TA.AperFunction,Conductor*%
%TO.N,GNDPWR*%
G36*
X48014464Y-79353772D02*
G01*
X48020791Y-79360110D01*
X48021295Y-79367543D01*
X47602289Y-80966266D01*
X47596876Y-80973400D01*
X47590971Y-80975000D01*
X46609029Y-80975000D01*
X46600756Y-80971573D01*
X46597711Y-80966266D01*
X46178704Y-79367543D01*
X46179922Y-79358672D01*
X46185532Y-79353773D01*
X47095514Y-78975862D01*
X47104464Y-78975854D01*
X48014464Y-79353772D01*
G37*
%TD.AperFunction*%
%TD*%
%TA.AperFunction,Conductor*%
%TO.N,/FM_IN_5V_315*%
G36*
X91030340Y-88007776D02*
G01*
X91031185Y-88008621D01*
X91511247Y-88540439D01*
X91514247Y-88548877D01*
X91513552Y-88552292D01*
X91275307Y-89204813D01*
X91269251Y-89211409D01*
X91264317Y-89212500D01*
X90780683Y-89212500D01*
X90772410Y-89209073D01*
X90769693Y-89204813D01*
X90531447Y-88552292D01*
X90531828Y-88543345D01*
X90533749Y-88540442D01*
X91013815Y-88008620D01*
X91021902Y-88004776D01*
X91030340Y-88007776D01*
G37*
%TD.AperFunction*%
%TD*%
%TA.AperFunction,Conductor*%
%TO.N,GNDA*%
G36*
X56490084Y-87470347D02*
G01*
X56493868Y-87473512D01*
X56820401Y-87892811D01*
X56822781Y-87901444D01*
X56820401Y-87907189D01*
X56493868Y-88326487D01*
X56486081Y-88330909D01*
X56481167Y-88330472D01*
X55908230Y-88152555D01*
X55901346Y-88146828D01*
X55900000Y-88141381D01*
X55900000Y-87658618D01*
X55903427Y-87650345D01*
X55908228Y-87647444D01*
X56481167Y-87469527D01*
X56490084Y-87470347D01*
G37*
%TD.AperFunction*%
%TD*%
%TA.AperFunction,Conductor*%
%TO.N,GNDA*%
G36*
X49261804Y-90761925D02*
G01*
X49261809Y-90761938D01*
X49639136Y-91670513D01*
X49639145Y-91679467D01*
X49639136Y-91679487D01*
X49261809Y-92588061D01*
X49255471Y-92594388D01*
X49246517Y-92594379D01*
X49246504Y-92594374D01*
X47647200Y-91927999D01*
X47640881Y-91921654D01*
X47640000Y-91917199D01*
X47640000Y-91432800D01*
X47643427Y-91424527D01*
X47647200Y-91422000D01*
X49246504Y-90755624D01*
X49255459Y-90755606D01*
X49261804Y-90761925D01*
G37*
%TD.AperFunction*%
%TD*%
%TA.AperFunction,Conductor*%
%TO.N,/FM_IN_433*%
G36*
X94013817Y-79602590D02*
G01*
X94790457Y-79748210D01*
X94797956Y-79753103D01*
X94800000Y-79759710D01*
X94800000Y-80240289D01*
X94796573Y-80248562D01*
X94790456Y-80251789D01*
X94013820Y-80397408D01*
X94005057Y-80395564D01*
X94000164Y-80388064D01*
X93999964Y-80385946D01*
X93999000Y-80000000D01*
X93999964Y-79614059D01*
X94003412Y-79605797D01*
X94011693Y-79602391D01*
X94013817Y-79602590D01*
G37*
%TD.AperFunction*%
%TD*%
%TA.AperFunction,Conductor*%
%TO.N,+3V3*%
G36*
X60571120Y-79294242D02*
G01*
X60713061Y-79353190D01*
X60719388Y-79359528D01*
X60719379Y-79368482D01*
X60719374Y-79368495D01*
X60053000Y-80967800D01*
X60046655Y-80974119D01*
X60042200Y-80975000D01*
X59557800Y-80975000D01*
X59549527Y-80971573D01*
X59547000Y-80967800D01*
X58880625Y-79368495D01*
X58880606Y-79359540D01*
X58886923Y-79353196D01*
X59795514Y-78975862D01*
X59804464Y-78975854D01*
X60571120Y-79294242D01*
G37*
%TD.AperFunction*%
%TD*%
%TA.AperFunction,Conductor*%
%TO.N,/FM_IN_5V_433*%
G36*
X91240340Y-80007776D02*
G01*
X91241185Y-80008621D01*
X91721247Y-80540439D01*
X91724247Y-80548877D01*
X91723552Y-80552292D01*
X91485307Y-81204813D01*
X91479251Y-81211409D01*
X91474317Y-81212500D01*
X90990683Y-81212500D01*
X90982410Y-81209073D01*
X90979693Y-81204813D01*
X90741447Y-80552292D01*
X90741828Y-80543345D01*
X90743749Y-80540442D01*
X91223815Y-80008620D01*
X91231902Y-80004776D01*
X91240340Y-80007776D01*
G37*
%TD.AperFunction*%
%TD*%
%TA.AperFunction,Conductor*%
%TO.N,GNDA*%
G36*
X79806516Y-42020185D02*
G01*
X79852271Y-42072989D01*
X79862215Y-42142147D01*
X79833190Y-42205703D01*
X79827158Y-42212181D01*
X79807684Y-42231654D01*
X79715643Y-42380875D01*
X79715641Y-42380880D01*
X79660494Y-42547302D01*
X79660493Y-42547309D01*
X79650000Y-42650013D01*
X79650000Y-42775000D01*
X83349999Y-42775000D01*
X83349999Y-42650028D01*
X83349998Y-42650013D01*
X83339505Y-42547302D01*
X83284358Y-42380880D01*
X83284356Y-42380875D01*
X83192315Y-42231654D01*
X83172842Y-42212181D01*
X83139357Y-42150858D01*
X83144341Y-42081166D01*
X83186213Y-42025233D01*
X83251677Y-42000816D01*
X83260523Y-42000500D01*
X120875500Y-42000500D01*
X120942539Y-42020185D01*
X120988294Y-42072989D01*
X120999500Y-42124500D01*
X120999500Y-44925500D01*
X120979815Y-44992539D01*
X120927011Y-45038294D01*
X120875500Y-45049500D01*
X120305752Y-45049500D01*
X120238713Y-45029815D01*
X120192958Y-44977011D01*
X120183014Y-44907853D01*
X120212039Y-44844297D01*
X120224982Y-44831414D01*
X120328530Y-44742521D01*
X120328531Y-44742520D01*
X120453018Y-44581695D01*
X120542588Y-44399093D01*
X120568246Y-44300000D01*
X119815686Y-44300000D01*
X119827641Y-44288045D01*
X119885165Y-44175148D01*
X119904986Y-44050000D01*
X119885165Y-43924852D01*
X119827641Y-43811955D01*
X119815686Y-43800000D01*
X120573366Y-43800000D01*
X120573068Y-43798053D01*
X120573066Y-43798047D01*
X120502437Y-43607342D01*
X120502434Y-43607335D01*
X120394850Y-43434732D01*
X120254735Y-43287331D01*
X120254733Y-43287330D01*
X120087804Y-43171143D01*
X119900907Y-43090940D01*
X119701690Y-43050000D01*
X119150000Y-43050000D01*
X119150000Y-43650000D01*
X118650000Y-43650000D01*
X118650000Y-43050000D01*
X118149287Y-43050000D01*
X117997661Y-43065418D01*
X117803618Y-43126299D01*
X117803608Y-43126304D01*
X117625784Y-43225005D01*
X117625783Y-43225005D01*
X117471469Y-43357478D01*
X117471468Y-43357479D01*
X117346981Y-43518304D01*
X117257411Y-43700906D01*
X117231754Y-43800000D01*
X117984314Y-43800000D01*
X117972359Y-43811955D01*
X117914835Y-43924852D01*
X117895014Y-44050000D01*
X117914835Y-44175148D01*
X117972359Y-44288045D01*
X117984314Y-44300000D01*
X117226634Y-44300000D01*
X117226931Y-44301946D01*
X117226933Y-44301952D01*
X117297562Y-44492657D01*
X117297565Y-44492664D01*
X117405149Y-44665267D01*
X117545264Y-44812668D01*
X117545266Y-44812669D01*
X117561150Y-44823725D01*
X117604929Y-44878179D01*
X117612317Y-44947657D01*
X117580971Y-45010100D01*
X117520841Y-45045683D01*
X117490313Y-45049500D01*
X116235960Y-45049500D01*
X116168921Y-45029815D01*
X116123166Y-44977011D01*
X116113222Y-44907853D01*
X116142247Y-44844297D01*
X116275105Y-44690969D01*
X116275114Y-44690958D01*
X116380144Y-44509039D01*
X116380147Y-44509032D01*
X116448855Y-44310517D01*
X116448855Y-44310515D01*
X116450368Y-44300000D01*
X115690686Y-44300000D01*
X115702641Y-44288045D01*
X115760165Y-44175148D01*
X115779986Y-44050000D01*
X115760165Y-43924852D01*
X115702641Y-43811955D01*
X115690686Y-43800000D01*
X116446257Y-43800000D01*
X116419229Y-43688590D01*
X116331959Y-43497492D01*
X116210110Y-43326380D01*
X116210104Y-43326374D01*
X116058067Y-43181407D01*
X115881342Y-43067833D01*
X115686314Y-42989755D01*
X115480038Y-42950000D01*
X115225000Y-42950000D01*
X115225000Y-43650000D01*
X114725000Y-43650000D01*
X114725000Y-42950000D01*
X114522602Y-42950000D01*
X114365877Y-42964965D01*
X114365873Y-42964966D01*
X114164313Y-43024149D01*
X113977585Y-43120413D01*
X113812462Y-43250268D01*
X113812459Y-43250271D01*
X113674894Y-43409030D01*
X113674885Y-43409041D01*
X113569855Y-43590960D01*
X113569852Y-43590967D01*
X113501144Y-43789482D01*
X113501144Y-43789484D01*
X113499632Y-43800000D01*
X114259314Y-43800000D01*
X114247359Y-43811955D01*
X114189835Y-43924852D01*
X114170014Y-44050000D01*
X114189835Y-44175148D01*
X114247359Y-44288045D01*
X114259314Y-44300000D01*
X113503742Y-44300000D01*
X113530770Y-44411409D01*
X113618040Y-44602507D01*
X113739889Y-44773619D01*
X113739895Y-44773625D01*
X113891932Y-44918592D01*
X114068657Y-45032166D01*
X114263685Y-45110244D01*
X114469962Y-45150000D01*
X114775500Y-45150000D01*
X114842539Y-45169685D01*
X114888294Y-45222489D01*
X114899500Y-45274000D01*
X114899500Y-54026000D01*
X114879815Y-54093039D01*
X114827011Y-54138794D01*
X114775500Y-54150000D01*
X114522602Y-54150000D01*
X114365877Y-54164965D01*
X114365873Y-54164966D01*
X114164313Y-54224149D01*
X113977585Y-54320413D01*
X113812462Y-54450268D01*
X113812459Y-54450271D01*
X113674894Y-54609030D01*
X113674885Y-54609041D01*
X113569855Y-54790960D01*
X113569852Y-54790967D01*
X113501144Y-54989482D01*
X113501144Y-54989484D01*
X113499632Y-55000000D01*
X114259314Y-55000000D01*
X114247359Y-55011955D01*
X114189835Y-55124852D01*
X114170014Y-55250000D01*
X114189835Y-55375148D01*
X114247359Y-55488045D01*
X114259314Y-55500000D01*
X113503742Y-55500000D01*
X113530770Y-55611409D01*
X113618040Y-55802507D01*
X113739889Y-55973619D01*
X113739895Y-55973625D01*
X113891932Y-56118592D01*
X114068657Y-56232166D01*
X114263685Y-56310244D01*
X114469962Y-56350000D01*
X114725000Y-56350000D01*
X114725000Y-55650000D01*
X115225000Y-55650000D01*
X115225000Y-56350000D01*
X115427398Y-56350000D01*
X115584122Y-56335034D01*
X115584126Y-56335033D01*
X115785686Y-56275850D01*
X115972414Y-56179586D01*
X116137537Y-56049731D01*
X116137540Y-56049728D01*
X116275105Y-55890969D01*
X116275114Y-55890958D01*
X116380144Y-55709039D01*
X116380147Y-55709032D01*
X116448855Y-55510517D01*
X116448855Y-55510515D01*
X116450368Y-55500000D01*
X115690686Y-55500000D01*
X115702641Y-55488045D01*
X115760165Y-55375148D01*
X115779986Y-55250000D01*
X115760165Y-55124852D01*
X115702641Y-55011955D01*
X115690686Y-55000000D01*
X116446257Y-55000000D01*
X116419229Y-54888590D01*
X116331959Y-54697492D01*
X116210110Y-54526380D01*
X116210104Y-54526374D01*
X116144943Y-54464243D01*
X116110008Y-54403734D01*
X116113333Y-54333944D01*
X116153861Y-54277029D01*
X116218726Y-54251061D01*
X116230513Y-54250500D01*
X117494248Y-54250500D01*
X117561287Y-54270185D01*
X117607042Y-54322989D01*
X117616986Y-54392147D01*
X117587961Y-54455703D01*
X117575018Y-54468586D01*
X117471469Y-54557478D01*
X117471468Y-54557479D01*
X117346981Y-54718304D01*
X117257411Y-54900906D01*
X117231754Y-55000000D01*
X117984314Y-55000000D01*
X117972359Y-55011955D01*
X117914835Y-55124852D01*
X117895014Y-55250000D01*
X117914835Y-55375148D01*
X117972359Y-55488045D01*
X117984314Y-55500000D01*
X117226634Y-55500000D01*
X117226931Y-55501946D01*
X117226933Y-55501952D01*
X117297562Y-55692657D01*
X117297565Y-55692664D01*
X117405149Y-55865267D01*
X117545264Y-56012668D01*
X117545266Y-56012669D01*
X117712195Y-56128856D01*
X117899092Y-56209059D01*
X118098310Y-56250000D01*
X118650000Y-56250000D01*
X118650000Y-55650000D01*
X119150000Y-55650000D01*
X119150000Y-56250000D01*
X119650713Y-56250000D01*
X119802338Y-56234581D01*
X119996381Y-56173700D01*
X119996391Y-56173695D01*
X120174215Y-56074994D01*
X120174216Y-56074994D01*
X120328530Y-55942521D01*
X120328531Y-55942520D01*
X120453018Y-55781695D01*
X120542588Y-55599093D01*
X120568246Y-55500000D01*
X119815686Y-55500000D01*
X119827641Y-55488045D01*
X119885165Y-55375148D01*
X119904986Y-55250000D01*
X119885165Y-55124852D01*
X119827641Y-55011955D01*
X119815686Y-55000000D01*
X120573366Y-55000000D01*
X120573068Y-54998053D01*
X120573066Y-54998047D01*
X120502437Y-54807342D01*
X120502434Y-54807335D01*
X120394850Y-54634732D01*
X120254735Y-54487331D01*
X120254733Y-54487330D01*
X120238850Y-54476275D01*
X120195071Y-54421821D01*
X120187683Y-54352343D01*
X120219029Y-54289900D01*
X120279159Y-54254317D01*
X120309687Y-54250500D01*
X120875500Y-54250500D01*
X120942539Y-54270185D01*
X120988294Y-54322989D01*
X120999500Y-54374500D01*
X120999500Y-76002786D01*
X120979815Y-76069825D01*
X120927011Y-76115580D01*
X120857853Y-76125524D01*
X120794297Y-76096499D01*
X120766668Y-76062213D01*
X120686808Y-75915961D01*
X120686807Y-75915960D01*
X120580115Y-75773436D01*
X119861650Y-76491901D01*
X119794854Y-76384737D01*
X119654732Y-76237329D01*
X119509913Y-76136532D01*
X120226562Y-75419883D01*
X120226561Y-75419882D01*
X120084046Y-75313196D01*
X120084038Y-75313191D01*
X119832957Y-75176091D01*
X119832958Y-75176091D01*
X119564895Y-75076109D01*
X119285362Y-75015300D01*
X119000001Y-74994891D01*
X118999999Y-74994891D01*
X118714637Y-75015300D01*
X118435104Y-75076109D01*
X118167041Y-75176091D01*
X117915961Y-75313191D01*
X117915953Y-75313196D01*
X117773437Y-75419882D01*
X117773436Y-75419883D01*
X118491874Y-76138321D01*
X118425786Y-76175004D01*
X118271469Y-76307480D01*
X118146979Y-76468308D01*
X118136374Y-76489927D01*
X117419883Y-75773436D01*
X117419882Y-75773437D01*
X117313196Y-75915953D01*
X117313191Y-75915961D01*
X117176091Y-76167041D01*
X117076109Y-76435104D01*
X117015300Y-76714637D01*
X116994891Y-76999998D01*
X116994891Y-77000001D01*
X117015300Y-77285362D01*
X117076109Y-77564895D01*
X117176091Y-77832958D01*
X117313191Y-78084038D01*
X117313196Y-78084046D01*
X117419882Y-78226561D01*
X117419883Y-78226562D01*
X118138348Y-77508096D01*
X118205146Y-77615263D01*
X118345268Y-77762671D01*
X118490085Y-77863467D01*
X117773436Y-78580115D01*
X117915960Y-78686807D01*
X117915961Y-78686808D01*
X118167042Y-78823908D01*
X118167041Y-78823908D01*
X118435104Y-78923890D01*
X118714637Y-78984699D01*
X118999999Y-79005109D01*
X119000001Y-79005109D01*
X119285362Y-78984699D01*
X119564895Y-78923890D01*
X119832958Y-78823908D01*
X120084047Y-78686803D01*
X120226561Y-78580116D01*
X120226562Y-78580115D01*
X119508125Y-77861678D01*
X119574214Y-77824996D01*
X119728531Y-77692520D01*
X119853021Y-77531692D01*
X119863625Y-77510072D01*
X120580115Y-78226562D01*
X120580116Y-78226561D01*
X120686803Y-78084047D01*
X120766668Y-77937786D01*
X120816073Y-77888381D01*
X120884346Y-77873529D01*
X120949810Y-77897946D01*
X120991682Y-77953879D01*
X120999500Y-77997213D01*
X120999500Y-93875500D01*
X120979815Y-93942539D01*
X120927011Y-93988294D01*
X120875500Y-93999500D01*
X66124000Y-93999500D01*
X66056961Y-93979815D01*
X66011206Y-93927011D01*
X66000000Y-93875500D01*
X66000000Y-90000000D01*
X72644341Y-90000000D01*
X72664936Y-90235403D01*
X72664938Y-90235413D01*
X72726094Y-90463655D01*
X72726096Y-90463659D01*
X72726097Y-90463663D01*
X72731406Y-90475048D01*
X72825964Y-90677828D01*
X72825965Y-90677830D01*
X72961505Y-90871402D01*
X73128597Y-91038494D01*
X73322169Y-91174034D01*
X73322171Y-91174035D01*
X73536337Y-91273903D01*
X73764592Y-91335063D01*
X73941034Y-91350500D01*
X74058966Y-91350500D01*
X74235408Y-91335063D01*
X74463663Y-91273903D01*
X74677829Y-91174035D01*
X74871401Y-91038495D01*
X75009891Y-90900005D01*
X87109859Y-90900005D01*
X87130385Y-91147729D01*
X87130387Y-91147738D01*
X87191412Y-91388717D01*
X87291266Y-91616364D01*
X87391564Y-91769882D01*
X88131923Y-91029523D01*
X88155507Y-91109844D01*
X88233239Y-91230798D01*
X88341900Y-91324952D01*
X88472685Y-91384680D01*
X88482466Y-91386086D01*
X87744942Y-92123609D01*
X87791768Y-92160055D01*
X87791770Y-92160056D01*
X88010385Y-92278364D01*
X88010396Y-92278369D01*
X88245506Y-92359083D01*
X88490707Y-92400000D01*
X88739293Y-92400000D01*
X88984493Y-92359083D01*
X89219603Y-92278369D01*
X89219614Y-92278364D01*
X89438228Y-92160057D01*
X89438231Y-92160055D01*
X89485056Y-92123609D01*
X88747533Y-91386086D01*
X88757315Y-91384680D01*
X88888100Y-91324952D01*
X88996761Y-91230798D01*
X89074493Y-91109844D01*
X89098076Y-91029524D01*
X89838434Y-91769882D01*
X89849861Y-91768697D01*
X89918573Y-91781360D01*
X89963092Y-91821194D01*
X89963683Y-91820735D01*
X89966218Y-91823992D01*
X89966456Y-91824205D01*
X89966831Y-91824780D01*
X89966836Y-91824785D01*
X90135256Y-92007738D01*
X90331491Y-92160474D01*
X90331493Y-92160475D01*
X90549332Y-92278364D01*
X90550190Y-92278828D01*
X90639386Y-92309449D01*
X90783964Y-92359083D01*
X90785386Y-92359571D01*
X91030665Y-92400500D01*
X91279335Y-92400500D01*
X91524614Y-92359571D01*
X91759810Y-92278828D01*
X91978509Y-92160474D01*
X92174744Y-92007738D01*
X92333771Y-91834988D01*
X92393657Y-91798999D01*
X92463495Y-91801099D01*
X92516228Y-91834988D01*
X92675256Y-92007738D01*
X92871491Y-92160474D01*
X92871493Y-92160475D01*
X93089332Y-92278364D01*
X93090190Y-92278828D01*
X93179386Y-92309449D01*
X93323964Y-92359083D01*
X93325386Y-92359571D01*
X93570665Y-92400500D01*
X93819335Y-92400500D01*
X94064614Y-92359571D01*
X94264745Y-92290865D01*
X94269388Y-92289473D01*
X94282918Y-92285990D01*
X94917309Y-92021660D01*
X94986760Y-92014047D01*
X95012686Y-92021659D01*
X95200589Y-92099952D01*
X95647090Y-92285994D01*
X95666201Y-92292768D01*
X95698614Y-92304259D01*
X95698618Y-92304259D01*
X95704550Y-92305726D01*
X95704518Y-92305853D01*
X95719385Y-92309449D01*
X95865383Y-92359570D01*
X95865386Y-92359571D01*
X96110665Y-92400500D01*
X96359335Y-92400500D01*
X96604614Y-92359571D01*
X96606035Y-92359083D01*
X96773408Y-92301622D01*
X96781062Y-92299534D01*
X96799077Y-92295844D01*
X97985411Y-91869649D01*
X98055156Y-91865510D01*
X98067926Y-91869181D01*
X98158046Y-91900412D01*
X98187766Y-91910712D01*
X98189389Y-91911369D01*
X98191302Y-91912002D01*
X98191303Y-91912003D01*
X98195630Y-91913436D01*
X98228353Y-91924777D01*
X98229186Y-91924954D01*
X98235776Y-91926739D01*
X98352292Y-91965349D01*
X98451655Y-91975500D01*
X98998344Y-91975499D01*
X98998352Y-91975498D01*
X98998355Y-91975498D01*
X99052760Y-91969940D01*
X99097708Y-91965349D01*
X99258697Y-91912003D01*
X99403044Y-91822968D01*
X99412668Y-91813343D01*
X99473987Y-91779856D01*
X99543679Y-91784835D01*
X99588034Y-91813339D01*
X99597267Y-91822572D01*
X99597271Y-91822575D01*
X99741507Y-91911542D01*
X99741518Y-91911547D01*
X99902393Y-91964855D01*
X100001683Y-91974999D01*
X100025000Y-91974998D01*
X100025000Y-91250000D01*
X100525000Y-91250000D01*
X100525000Y-91974999D01*
X100548308Y-91974999D01*
X100548322Y-91974998D01*
X100647607Y-91964855D01*
X100808481Y-91911547D01*
X100808492Y-91911542D01*
X100952728Y-91822575D01*
X100952732Y-91822572D01*
X101072572Y-91702732D01*
X101072575Y-91702728D01*
X101161542Y-91558492D01*
X101161547Y-91558481D01*
X101214855Y-91397606D01*
X101224999Y-91298322D01*
X101225000Y-91298309D01*
X101225000Y-91250000D01*
X100525000Y-91250000D01*
X100025000Y-91250000D01*
X100025000Y-90900005D01*
X113689859Y-90900005D01*
X113710385Y-91147729D01*
X113710387Y-91147738D01*
X113771412Y-91388717D01*
X113871266Y-91616364D01*
X113971564Y-91769882D01*
X114711923Y-91029523D01*
X114735507Y-91109844D01*
X114813239Y-91230798D01*
X114921900Y-91324952D01*
X115052685Y-91384680D01*
X115062466Y-91386086D01*
X114324942Y-92123609D01*
X114371768Y-92160055D01*
X114371770Y-92160056D01*
X114590385Y-92278364D01*
X114590396Y-92278369D01*
X114825506Y-92359083D01*
X115070707Y-92400000D01*
X115319293Y-92400000D01*
X115564493Y-92359083D01*
X115799603Y-92278369D01*
X115799614Y-92278364D01*
X116018228Y-92160057D01*
X116018231Y-92160055D01*
X116065056Y-92123609D01*
X115327533Y-91386086D01*
X115337315Y-91384680D01*
X115468100Y-91324952D01*
X115576761Y-91230798D01*
X115654493Y-91109844D01*
X115678076Y-91029524D01*
X116418434Y-91769882D01*
X116429861Y-91768697D01*
X116498573Y-91781360D01*
X116543092Y-91821194D01*
X116543683Y-91820735D01*
X116546218Y-91823992D01*
X116546456Y-91824205D01*
X116546831Y-91824780D01*
X116546836Y-91824785D01*
X116715256Y-92007738D01*
X116911491Y-92160474D01*
X116911493Y-92160475D01*
X117129332Y-92278364D01*
X117130190Y-92278828D01*
X117219386Y-92309449D01*
X117363964Y-92359083D01*
X117365386Y-92359571D01*
X117610665Y-92400500D01*
X117859335Y-92400500D01*
X118104614Y-92359571D01*
X118339810Y-92278828D01*
X118558509Y-92160474D01*
X118754744Y-92007738D01*
X118923164Y-91824785D01*
X119059173Y-91616607D01*
X119159063Y-91388881D01*
X119220108Y-91147821D01*
X119234686Y-90971889D01*
X119240643Y-90900005D01*
X119240643Y-90899994D01*
X119220109Y-90652187D01*
X119220107Y-90652175D01*
X119159063Y-90411118D01*
X119059173Y-90183393D01*
X118923166Y-89975217D01*
X118864127Y-89911084D01*
X118754744Y-89792262D01*
X118558509Y-89639526D01*
X118558507Y-89639525D01*
X118558506Y-89639524D01*
X118339811Y-89521172D01*
X118339802Y-89521169D01*
X118104616Y-89440429D01*
X117859335Y-89399500D01*
X117610665Y-89399500D01*
X117365383Y-89440429D01*
X117130197Y-89521169D01*
X117130188Y-89521172D01*
X116911493Y-89639524D01*
X116715257Y-89792261D01*
X116546837Y-89975213D01*
X116546829Y-89975224D01*
X116546455Y-89975797D01*
X116546242Y-89975978D01*
X116543690Y-89979258D01*
X116543014Y-89978732D01*
X116493304Y-90021147D01*
X116429865Y-90031302D01*
X116418434Y-90030116D01*
X115678076Y-90770475D01*
X115654493Y-90690156D01*
X115576761Y-90569202D01*
X115468100Y-90475048D01*
X115337315Y-90415320D01*
X115327534Y-90413913D01*
X116065057Y-89676390D01*
X116065056Y-89676389D01*
X116018229Y-89639943D01*
X115799614Y-89521635D01*
X115799603Y-89521630D01*
X115564493Y-89440916D01*
X115319293Y-89400000D01*
X115070707Y-89400000D01*
X114825506Y-89440916D01*
X114590396Y-89521630D01*
X114590390Y-89521632D01*
X114371761Y-89639949D01*
X114324942Y-89676388D01*
X114324942Y-89676390D01*
X115062466Y-90413913D01*
X115052685Y-90415320D01*
X114921900Y-90475048D01*
X114813239Y-90569202D01*
X114735507Y-90690156D01*
X114711923Y-90770475D01*
X113971564Y-90030116D01*
X113871267Y-90183632D01*
X113771412Y-90411282D01*
X113710387Y-90652261D01*
X113710385Y-90652270D01*
X113689859Y-90899994D01*
X113689859Y-90900005D01*
X100025000Y-90900005D01*
X100025000Y-90025000D01*
X100525000Y-90025000D01*
X100525000Y-90750000D01*
X101224999Y-90750000D01*
X101224999Y-90701692D01*
X101224998Y-90701677D01*
X101214855Y-90602392D01*
X101161547Y-90441518D01*
X101161542Y-90441507D01*
X101072575Y-90297271D01*
X101072572Y-90297267D01*
X100952732Y-90177427D01*
X100952728Y-90177424D01*
X100808492Y-90088457D01*
X100808481Y-90088452D01*
X100647606Y-90035144D01*
X100548322Y-90025000D01*
X100525000Y-90025000D01*
X100025000Y-90025000D01*
X100025000Y-90024999D01*
X100001693Y-90025000D01*
X100001674Y-90025001D01*
X99902392Y-90035144D01*
X99741518Y-90088452D01*
X99741507Y-90088457D01*
X99597271Y-90177424D01*
X99597265Y-90177428D01*
X99588031Y-90186663D01*
X99526707Y-90220146D01*
X99457015Y-90215159D01*
X99412672Y-90186660D01*
X99403044Y-90177032D01*
X99403040Y-90177029D01*
X99258705Y-90088001D01*
X99258699Y-90087998D01*
X99258697Y-90087997D01*
X99254433Y-90086584D01*
X99097709Y-90034651D01*
X98998346Y-90024500D01*
X98451662Y-90024500D01*
X98451644Y-90024501D01*
X98352292Y-90034650D01*
X98352286Y-90034652D01*
X98236100Y-90073152D01*
X98229051Y-90075036D01*
X98229037Y-90075038D01*
X98228355Y-90075221D01*
X98228353Y-90075222D01*
X98195567Y-90086584D01*
X98192214Y-90087694D01*
X98189373Y-90088636D01*
X98187780Y-90089280D01*
X98133038Y-90108252D01*
X98063249Y-90111606D01*
X98038371Y-90102683D01*
X98008054Y-90087996D01*
X96856279Y-89530013D01*
X96853805Y-89528745D01*
X96839814Y-89521174D01*
X96839800Y-89521167D01*
X96816744Y-89513253D01*
X96771125Y-89496367D01*
X96764788Y-89494755D01*
X96764892Y-89494345D01*
X96753963Y-89491700D01*
X96607094Y-89441280D01*
X96550079Y-89400895D01*
X96523948Y-89336095D01*
X96536999Y-89267455D01*
X96585088Y-89216768D01*
X96647357Y-89199999D01*
X96659971Y-89199999D01*
X96659987Y-89199998D01*
X96762697Y-89189505D01*
X96929119Y-89134358D01*
X96929124Y-89134356D01*
X97078345Y-89042315D01*
X97202315Y-88918345D01*
X97294356Y-88769124D01*
X97294358Y-88769119D01*
X97349505Y-88602697D01*
X97349506Y-88602690D01*
X97359999Y-88499986D01*
X97360000Y-88499973D01*
X97360000Y-88250000D01*
X96221500Y-88250000D01*
X96154461Y-88230315D01*
X96108706Y-88177511D01*
X96097500Y-88126000D01*
X96097500Y-86800000D01*
X96597500Y-86800000D01*
X96597500Y-87750000D01*
X97359999Y-87750000D01*
X97359999Y-87500028D01*
X97359998Y-87500013D01*
X97349505Y-87397302D01*
X97294358Y-87230880D01*
X97294356Y-87230875D01*
X97202315Y-87081654D01*
X97078345Y-86957684D01*
X96929124Y-86865643D01*
X96929119Y-86865641D01*
X96762697Y-86810494D01*
X96762690Y-86810493D01*
X96659986Y-86800000D01*
X96597500Y-86800000D01*
X96097500Y-86800000D01*
X96097499Y-86799999D01*
X96035028Y-86800000D01*
X96035011Y-86800001D01*
X95932302Y-86810494D01*
X95765880Y-86865641D01*
X95765875Y-86865643D01*
X95616657Y-86957682D01*
X95523034Y-87051305D01*
X95461710Y-87084789D01*
X95392019Y-87079805D01*
X95347672Y-87051304D01*
X95253657Y-86957289D01*
X95253656Y-86957288D01*
X95104334Y-86865186D01*
X94937797Y-86810001D01*
X94937795Y-86810000D01*
X94835010Y-86799500D01*
X94209998Y-86799500D01*
X94209980Y-86799501D01*
X94107203Y-86810000D01*
X94107200Y-86810001D01*
X93940668Y-86865185D01*
X93940663Y-86865187D01*
X93791342Y-86957289D01*
X93772681Y-86975951D01*
X93711358Y-87009436D01*
X93641666Y-87004452D01*
X93597319Y-86975951D01*
X93578657Y-86957289D01*
X93578656Y-86957288D01*
X93429334Y-86865186D01*
X93262797Y-86810001D01*
X93262795Y-86810000D01*
X93160010Y-86799500D01*
X92534998Y-86799500D01*
X92534980Y-86799501D01*
X92432203Y-86810000D01*
X92432200Y-86810001D01*
X92265668Y-86865185D01*
X92265663Y-86865187D01*
X92116342Y-86957289D01*
X92022681Y-87050951D01*
X91961358Y-87084436D01*
X91891666Y-87079452D01*
X91847319Y-87050951D01*
X91753657Y-86957289D01*
X91753656Y-86957288D01*
X91604334Y-86865186D01*
X91437797Y-86810001D01*
X91437795Y-86810000D01*
X91335010Y-86799500D01*
X90709998Y-86799500D01*
X90709980Y-86799501D01*
X90607203Y-86810000D01*
X90607200Y-86810001D01*
X90440668Y-86865185D01*
X90440663Y-86865187D01*
X90291342Y-86957289D01*
X90167289Y-87081342D01*
X90075187Y-87230663D01*
X90075185Y-87230668D01*
X90075115Y-87230880D01*
X90020001Y-87397203D01*
X90020001Y-87397204D01*
X90020000Y-87397204D01*
X90009500Y-87499983D01*
X90009500Y-88500001D01*
X90009501Y-88500019D01*
X90020000Y-88602796D01*
X90020001Y-88602799D01*
X90048373Y-88688419D01*
X90050194Y-88695167D01*
X90056609Y-88725668D01*
X90171123Y-89039305D01*
X90175625Y-89109029D01*
X90172034Y-89121779D01*
X89884878Y-89965646D01*
X89855169Y-90013381D01*
X89098076Y-90770475D01*
X89074493Y-90690156D01*
X88996761Y-90569202D01*
X88888100Y-90475048D01*
X88757315Y-90415320D01*
X88747534Y-90413913D01*
X89485057Y-89676390D01*
X89485056Y-89676389D01*
X89438229Y-89639943D01*
X89219614Y-89521635D01*
X89219603Y-89521630D01*
X88984493Y-89440916D01*
X88739293Y-89400000D01*
X88490707Y-89400000D01*
X88245506Y-89440916D01*
X88010396Y-89521630D01*
X88010390Y-89521632D01*
X87791761Y-89639949D01*
X87744942Y-89676388D01*
X87744942Y-89676390D01*
X88482466Y-90413913D01*
X88472685Y-90415320D01*
X88341900Y-90475048D01*
X88233239Y-90569202D01*
X88155507Y-90690156D01*
X88131923Y-90770475D01*
X87391564Y-90030116D01*
X87291267Y-90183632D01*
X87191412Y-90411282D01*
X87130387Y-90652261D01*
X87130385Y-90652270D01*
X87109859Y-90899994D01*
X87109859Y-90900005D01*
X75009891Y-90900005D01*
X75038495Y-90871401D01*
X75174035Y-90677830D01*
X75273903Y-90463663D01*
X75335063Y-90235408D01*
X75355659Y-90000000D01*
X75353541Y-89975797D01*
X75337484Y-89792262D01*
X75335063Y-89764592D01*
X75273903Y-89536337D01*
X75174035Y-89322171D01*
X75174034Y-89322169D01*
X75038494Y-89128597D01*
X74871402Y-88961505D01*
X74677830Y-88825965D01*
X74677828Y-88825964D01*
X74555923Y-88769119D01*
X74463663Y-88726097D01*
X74463659Y-88726096D01*
X74463655Y-88726094D01*
X74235413Y-88664938D01*
X74235403Y-88664936D01*
X74058966Y-88649500D01*
X73941034Y-88649500D01*
X73764596Y-88664936D01*
X73764586Y-88664938D01*
X73536344Y-88726094D01*
X73536335Y-88726098D01*
X73322171Y-88825964D01*
X73322169Y-88825965D01*
X73128597Y-88961505D01*
X72961506Y-89128597D01*
X72961501Y-89128604D01*
X72825967Y-89322165D01*
X72825965Y-89322169D01*
X72745678Y-89494345D01*
X72729046Y-89530014D01*
X72726098Y-89536335D01*
X72726094Y-89536344D01*
X72664938Y-89764586D01*
X72664936Y-89764596D01*
X72644341Y-89999999D01*
X72644341Y-90000000D01*
X66000000Y-90000000D01*
X66000000Y-83500005D01*
X87174859Y-83500005D01*
X87195385Y-83747729D01*
X87195387Y-83747738D01*
X87256412Y-83988717D01*
X87356266Y-84216364D01*
X87456564Y-84369882D01*
X88196923Y-83629523D01*
X88220507Y-83709844D01*
X88298239Y-83830798D01*
X88406900Y-83924952D01*
X88537685Y-83984680D01*
X88547466Y-83986086D01*
X87809942Y-84723609D01*
X87856768Y-84760055D01*
X87856770Y-84760056D01*
X88075385Y-84878364D01*
X88075396Y-84878369D01*
X88310506Y-84959083D01*
X88555707Y-85000000D01*
X88804293Y-85000000D01*
X89049493Y-84959083D01*
X89284603Y-84878369D01*
X89284614Y-84878364D01*
X89503228Y-84760057D01*
X89503231Y-84760055D01*
X89550056Y-84723609D01*
X88812533Y-83986086D01*
X88822315Y-83984680D01*
X88953100Y-83924952D01*
X89061761Y-83830798D01*
X89139493Y-83709844D01*
X89163076Y-83629524D01*
X89903434Y-84369882D01*
X89914861Y-84368697D01*
X89983573Y-84381360D01*
X90028092Y-84421194D01*
X90028683Y-84420735D01*
X90031218Y-84423992D01*
X90031456Y-84424205D01*
X90031831Y-84424780D01*
X90041229Y-84434989D01*
X90200256Y-84607738D01*
X90396491Y-84760474D01*
X90396493Y-84760475D01*
X90614332Y-84878364D01*
X90615190Y-84878828D01*
X90704386Y-84909449D01*
X90848964Y-84959083D01*
X90850386Y-84959571D01*
X91095665Y-85000500D01*
X91344335Y-85000500D01*
X91589614Y-84959571D01*
X91824810Y-84878828D01*
X92043509Y-84760474D01*
X92239744Y-84607738D01*
X92398771Y-84434988D01*
X92458657Y-84398999D01*
X92528495Y-84401099D01*
X92581228Y-84434988D01*
X92740256Y-84607738D01*
X92936491Y-84760474D01*
X92936493Y-84760475D01*
X93154332Y-84878364D01*
X93155190Y-84878828D01*
X93244386Y-84909449D01*
X93388964Y-84959083D01*
X93390386Y-84959571D01*
X93635665Y-85000500D01*
X93884335Y-85000500D01*
X94129614Y-84959571D01*
X94329745Y-84890865D01*
X94334388Y-84889473D01*
X94347918Y-84885990D01*
X94982309Y-84621660D01*
X95051760Y-84614047D01*
X95077686Y-84621659D01*
X95322366Y-84723609D01*
X95712090Y-84885994D01*
X95731201Y-84892768D01*
X95763614Y-84904259D01*
X95763618Y-84904259D01*
X95769550Y-84905726D01*
X95769518Y-84905853D01*
X95784385Y-84909449D01*
X95930383Y-84959570D01*
X95930386Y-84959571D01*
X96175665Y-85000500D01*
X96424335Y-85000500D01*
X96669614Y-84959571D01*
X96869745Y-84890865D01*
X96874388Y-84889473D01*
X96887918Y-84885990D01*
X98123074Y-84371342D01*
X98192526Y-84363729D01*
X98211367Y-84368640D01*
X98237662Y-84377753D01*
X98332765Y-84410712D01*
X98334385Y-84411367D01*
X98336300Y-84412001D01*
X98336303Y-84412003D01*
X98340630Y-84413436D01*
X98373353Y-84424777D01*
X98374186Y-84424954D01*
X98380776Y-84426739D01*
X98497292Y-84465349D01*
X98596655Y-84475500D01*
X99143344Y-84475499D01*
X99143352Y-84475498D01*
X99143355Y-84475498D01*
X99197760Y-84469940D01*
X99242708Y-84465349D01*
X99403697Y-84412003D01*
X99548044Y-84322968D01*
X99557668Y-84313343D01*
X99618987Y-84279856D01*
X99688679Y-84284835D01*
X99733034Y-84313339D01*
X99742267Y-84322572D01*
X99742271Y-84322575D01*
X99886507Y-84411542D01*
X99886518Y-84411547D01*
X100047393Y-84464855D01*
X100146683Y-84474999D01*
X100170000Y-84474998D01*
X100170000Y-83750000D01*
X100670000Y-83750000D01*
X100670000Y-84474999D01*
X100693308Y-84474999D01*
X100693322Y-84474998D01*
X100792607Y-84464855D01*
X100953481Y-84411547D01*
X100953492Y-84411542D01*
X101097728Y-84322575D01*
X101097732Y-84322572D01*
X101217572Y-84202732D01*
X101217575Y-84202728D01*
X101306542Y-84058492D01*
X101306547Y-84058481D01*
X101359855Y-83897606D01*
X101369999Y-83798322D01*
X101370000Y-83798309D01*
X101370000Y-83750000D01*
X100670000Y-83750000D01*
X100170000Y-83750000D01*
X100170000Y-83500005D01*
X113754859Y-83500005D01*
X113775385Y-83747729D01*
X113775387Y-83747738D01*
X113836412Y-83988717D01*
X113936266Y-84216364D01*
X114036564Y-84369882D01*
X114776923Y-83629523D01*
X114800507Y-83709844D01*
X114878239Y-83830798D01*
X114986900Y-83924952D01*
X115117685Y-83984680D01*
X115127466Y-83986086D01*
X114389942Y-84723609D01*
X114436768Y-84760055D01*
X114436770Y-84760056D01*
X114655385Y-84878364D01*
X114655396Y-84878369D01*
X114890506Y-84959083D01*
X115135707Y-85000000D01*
X115384293Y-85000000D01*
X115629493Y-84959083D01*
X115864603Y-84878369D01*
X115864614Y-84878364D01*
X116083228Y-84760057D01*
X116083231Y-84760055D01*
X116130056Y-84723609D01*
X115392533Y-83986086D01*
X115402315Y-83984680D01*
X115533100Y-83924952D01*
X115641761Y-83830798D01*
X115719493Y-83709844D01*
X115743076Y-83629524D01*
X116483434Y-84369882D01*
X116494861Y-84368697D01*
X116563573Y-84381360D01*
X116608092Y-84421194D01*
X116608683Y-84420735D01*
X116611218Y-84423992D01*
X116611456Y-84424205D01*
X116611831Y-84424780D01*
X116621229Y-84434989D01*
X116780256Y-84607738D01*
X116976491Y-84760474D01*
X116976493Y-84760475D01*
X117194332Y-84878364D01*
X117195190Y-84878828D01*
X117284386Y-84909449D01*
X117428964Y-84959083D01*
X117430386Y-84959571D01*
X117675665Y-85000500D01*
X117924335Y-85000500D01*
X118169614Y-84959571D01*
X118404810Y-84878828D01*
X118623509Y-84760474D01*
X118819744Y-84607738D01*
X118988164Y-84424785D01*
X119124173Y-84216607D01*
X119224063Y-83988881D01*
X119285108Y-83747821D01*
X119305643Y-83500000D01*
X119299686Y-83428111D01*
X119285109Y-83252187D01*
X119285107Y-83252175D01*
X119224063Y-83011118D01*
X119124173Y-82783393D01*
X118988166Y-82575217D01*
X118941937Y-82524999D01*
X118819744Y-82392262D01*
X118623509Y-82239526D01*
X118623507Y-82239525D01*
X118623506Y-82239524D01*
X118404811Y-82121172D01*
X118404802Y-82121169D01*
X118169616Y-82040429D01*
X117924335Y-81999500D01*
X117675665Y-81999500D01*
X117430383Y-82040429D01*
X117195197Y-82121169D01*
X117195188Y-82121172D01*
X116976493Y-82239524D01*
X116780257Y-82392261D01*
X116611837Y-82575213D01*
X116611829Y-82575224D01*
X116611455Y-82575797D01*
X116611242Y-82575978D01*
X116608690Y-82579258D01*
X116608014Y-82578732D01*
X116558304Y-82621147D01*
X116494865Y-82631302D01*
X116483434Y-82630116D01*
X115743076Y-83370475D01*
X115719493Y-83290156D01*
X115641761Y-83169202D01*
X115533100Y-83075048D01*
X115402315Y-83015320D01*
X115392534Y-83013913D01*
X116130057Y-82276390D01*
X116130056Y-82276389D01*
X116083229Y-82239943D01*
X115864614Y-82121635D01*
X115864603Y-82121630D01*
X115629493Y-82040916D01*
X115384293Y-82000000D01*
X115135707Y-82000000D01*
X114890506Y-82040916D01*
X114655396Y-82121630D01*
X114655390Y-82121632D01*
X114436761Y-82239949D01*
X114389942Y-82276388D01*
X114389942Y-82276390D01*
X115127466Y-83013913D01*
X115117685Y-83015320D01*
X114986900Y-83075048D01*
X114878239Y-83169202D01*
X114800507Y-83290156D01*
X114776923Y-83370475D01*
X114036564Y-82630116D01*
X113936267Y-82783632D01*
X113836412Y-83011282D01*
X113775387Y-83252261D01*
X113775385Y-83252270D01*
X113754859Y-83499994D01*
X113754859Y-83500005D01*
X100170000Y-83500005D01*
X100170000Y-82525000D01*
X100670000Y-82525000D01*
X100670000Y-83250000D01*
X101369999Y-83250000D01*
X101369999Y-83201692D01*
X101369998Y-83201677D01*
X101359855Y-83102392D01*
X101306547Y-82941518D01*
X101306542Y-82941507D01*
X101217575Y-82797271D01*
X101217572Y-82797267D01*
X101097732Y-82677427D01*
X101097728Y-82677424D01*
X100953492Y-82588457D01*
X100953481Y-82588452D01*
X100792606Y-82535144D01*
X100693322Y-82525000D01*
X100670000Y-82525000D01*
X100170000Y-82525000D01*
X100170000Y-82524999D01*
X100146693Y-82525000D01*
X100146674Y-82525001D01*
X100047392Y-82535144D01*
X99886518Y-82588452D01*
X99886507Y-82588457D01*
X99742271Y-82677424D01*
X99742265Y-82677428D01*
X99733031Y-82686663D01*
X99671707Y-82720146D01*
X99602015Y-82715159D01*
X99557672Y-82686660D01*
X99548044Y-82677032D01*
X99548040Y-82677029D01*
X99403705Y-82588001D01*
X99403699Y-82587998D01*
X99403697Y-82587997D01*
X99366880Y-82575797D01*
X99242709Y-82534651D01*
X99143346Y-82524500D01*
X98596662Y-82524500D01*
X98596644Y-82524501D01*
X98497292Y-82534650D01*
X98497286Y-82534652D01*
X98381100Y-82573152D01*
X98374051Y-82575036D01*
X98374037Y-82575038D01*
X98373355Y-82575221D01*
X98373353Y-82575222D01*
X98340567Y-82586584D01*
X98336303Y-82587997D01*
X98336302Y-82587997D01*
X98334378Y-82588635D01*
X98332779Y-82589281D01*
X98211368Y-82631357D01*
X98141579Y-82634709D01*
X98123072Y-82628655D01*
X96887902Y-82114003D01*
X96836385Y-82095739D01*
X96830458Y-82094275D01*
X96830489Y-82094148D01*
X96815610Y-82090549D01*
X96669616Y-82040429D01*
X96424335Y-81999500D01*
X96175665Y-81999500D01*
X95930382Y-82040429D01*
X95930380Y-82040429D01*
X95730293Y-82109120D01*
X95725625Y-82110520D01*
X95712089Y-82114006D01*
X95712083Y-82114008D01*
X95712081Y-82114009D01*
X95693791Y-82121630D01*
X95077691Y-82378337D01*
X95008237Y-82385951D01*
X94982307Y-82378337D01*
X94347902Y-82114003D01*
X94296385Y-82095739D01*
X94290458Y-82094275D01*
X94290489Y-82094148D01*
X94275610Y-82090549D01*
X94129616Y-82040429D01*
X93884335Y-81999500D01*
X93635665Y-81999500D01*
X93390383Y-82040429D01*
X93155197Y-82121169D01*
X93155188Y-82121172D01*
X92936493Y-82239524D01*
X92740255Y-82392262D01*
X92740252Y-82392265D01*
X92632117Y-82509731D01*
X92572230Y-82545722D01*
X92502392Y-82543621D01*
X92444776Y-82504097D01*
X92426139Y-82472745D01*
X92345718Y-82276389D01*
X91992251Y-81413358D01*
X91983000Y-81366361D01*
X91983000Y-81337520D01*
X91990521Y-81294992D01*
X92025022Y-81200500D01*
X92081134Y-81046814D01*
X92122617Y-80990593D01*
X92187911Y-80965723D01*
X92256285Y-80980102D01*
X92285294Y-81001662D01*
X92326344Y-81042712D01*
X92475666Y-81134814D01*
X92642203Y-81189999D01*
X92744991Y-81200500D01*
X93370008Y-81200499D01*
X93370016Y-81200498D01*
X93370019Y-81200498D01*
X93426302Y-81194748D01*
X93472797Y-81189999D01*
X93639334Y-81134814D01*
X93788656Y-81042712D01*
X93894383Y-80936985D01*
X93955706Y-80903500D01*
X93981389Y-80900668D01*
X94011977Y-80900502D01*
X94012385Y-80900500D01*
X94057769Y-80900500D01*
X94124808Y-80920185D01*
X94145450Y-80936818D01*
X94251344Y-81042712D01*
X94400666Y-81134814D01*
X94567203Y-81189999D01*
X94669991Y-81200500D01*
X95295008Y-81200499D01*
X95295016Y-81200498D01*
X95295019Y-81200498D01*
X95351302Y-81194748D01*
X95397797Y-81189999D01*
X95564334Y-81134814D01*
X95713656Y-81042712D01*
X95807675Y-80948692D01*
X95868994Y-80915210D01*
X95938686Y-80920194D01*
X95983034Y-80948695D01*
X96076654Y-81042315D01*
X96225875Y-81134356D01*
X96225880Y-81134358D01*
X96392302Y-81189505D01*
X96392309Y-81189506D01*
X96495019Y-81199999D01*
X96557499Y-81199998D01*
X96557500Y-81199998D01*
X96557500Y-80250000D01*
X97057500Y-80250000D01*
X97057500Y-81199999D01*
X97119972Y-81199999D01*
X97119986Y-81199998D01*
X97222697Y-81189505D01*
X97389119Y-81134358D01*
X97389124Y-81134356D01*
X97538345Y-81042315D01*
X97662315Y-80918345D01*
X97754356Y-80769124D01*
X97754358Y-80769119D01*
X97809505Y-80602697D01*
X97809506Y-80602690D01*
X97819999Y-80499986D01*
X97820000Y-80499973D01*
X97820000Y-80250000D01*
X97057500Y-80250000D01*
X96557500Y-80250000D01*
X96557500Y-78800000D01*
X97057500Y-78800000D01*
X97057500Y-79750000D01*
X97819999Y-79750000D01*
X97819999Y-79500028D01*
X97819998Y-79500013D01*
X97809505Y-79397302D01*
X97754358Y-79230880D01*
X97754356Y-79230875D01*
X97662315Y-79081654D01*
X97538345Y-78957684D01*
X97389124Y-78865643D01*
X97389119Y-78865641D01*
X97222697Y-78810494D01*
X97222690Y-78810493D01*
X97119986Y-78800000D01*
X97057500Y-78800000D01*
X96557500Y-78800000D01*
X96557499Y-78799999D01*
X96495028Y-78800000D01*
X96495011Y-78800001D01*
X96392302Y-78810494D01*
X96225880Y-78865641D01*
X96225875Y-78865643D01*
X96076657Y-78957682D01*
X95983034Y-79051305D01*
X95921710Y-79084789D01*
X95852019Y-79079805D01*
X95807672Y-79051304D01*
X95713657Y-78957289D01*
X95713656Y-78957288D01*
X95564334Y-78865186D01*
X95397797Y-78810001D01*
X95397795Y-78810000D01*
X95295010Y-78799500D01*
X94669998Y-78799500D01*
X94669980Y-78799501D01*
X94567203Y-78810000D01*
X94567200Y-78810001D01*
X94400668Y-78865185D01*
X94400663Y-78865187D01*
X94251345Y-78957287D01*
X94145853Y-79062779D01*
X94084530Y-79096263D01*
X94058867Y-79099095D01*
X94058848Y-79099095D01*
X94058847Y-79099095D01*
X93986570Y-79099500D01*
X93982231Y-79099500D01*
X93915192Y-79079815D01*
X93894550Y-79063182D01*
X93882319Y-79050951D01*
X93788656Y-78957288D01*
X93713995Y-78911237D01*
X93639336Y-78865187D01*
X93639331Y-78865185D01*
X93637862Y-78864698D01*
X93472797Y-78810001D01*
X93472795Y-78810000D01*
X93370010Y-78799500D01*
X92744998Y-78799500D01*
X92744980Y-78799501D01*
X92642203Y-78810000D01*
X92642200Y-78810001D01*
X92475668Y-78865185D01*
X92475663Y-78865187D01*
X92326342Y-78957289D01*
X92232681Y-79050951D01*
X92171358Y-79084436D01*
X92101666Y-79079452D01*
X92057319Y-79050951D01*
X91963657Y-78957289D01*
X91963656Y-78957288D01*
X91814334Y-78865186D01*
X91647797Y-78810001D01*
X91647795Y-78810000D01*
X91545010Y-78799500D01*
X90919998Y-78799500D01*
X90919980Y-78799501D01*
X90817203Y-78810000D01*
X90817200Y-78810001D01*
X90650668Y-78865185D01*
X90650663Y-78865187D01*
X90501342Y-78957289D01*
X90377289Y-79081342D01*
X90285187Y-79230663D01*
X90285185Y-79230668D01*
X90285115Y-79230880D01*
X90230001Y-79397203D01*
X90230001Y-79397204D01*
X90230000Y-79397204D01*
X90219500Y-79499983D01*
X90219500Y-80500001D01*
X90219501Y-80500019D01*
X90230000Y-80602796D01*
X90230001Y-80602799D01*
X90258373Y-80688419D01*
X90260194Y-80695167D01*
X90266609Y-80725668D01*
X90474479Y-81294992D01*
X90482000Y-81337520D01*
X90482000Y-81362489D01*
X90472119Y-81410995D01*
X89987624Y-82550853D01*
X89943284Y-82604850D01*
X89921754Y-82611796D01*
X89163076Y-83370475D01*
X89139493Y-83290156D01*
X89061761Y-83169202D01*
X88953100Y-83075048D01*
X88822315Y-83015320D01*
X88812534Y-83013913D01*
X89550057Y-82276390D01*
X89550056Y-82276389D01*
X89503229Y-82239943D01*
X89284614Y-82121635D01*
X89284603Y-82121630D01*
X89049493Y-82040916D01*
X88804293Y-82000000D01*
X88555707Y-82000000D01*
X88310506Y-82040916D01*
X88075396Y-82121630D01*
X88075390Y-82121632D01*
X87856761Y-82239949D01*
X87809942Y-82276388D01*
X87809942Y-82276390D01*
X88547466Y-83013913D01*
X88537685Y-83015320D01*
X88406900Y-83075048D01*
X88298239Y-83169202D01*
X88220507Y-83290156D01*
X88196923Y-83370475D01*
X87456564Y-82630116D01*
X87356267Y-82783632D01*
X87256412Y-83011282D01*
X87195387Y-83252261D01*
X87195385Y-83252270D01*
X87174859Y-83499994D01*
X87174859Y-83500005D01*
X66000000Y-83500005D01*
X66000000Y-79250000D01*
X72344540Y-79250000D01*
X72364326Y-79438256D01*
X72364327Y-79438259D01*
X72422818Y-79618277D01*
X72422821Y-79618284D01*
X72517467Y-79782216D01*
X72623327Y-79899785D01*
X72644129Y-79922888D01*
X72797265Y-80034148D01*
X72797270Y-80034151D01*
X72970192Y-80111142D01*
X72970197Y-80111144D01*
X73155354Y-80150500D01*
X73155355Y-80150500D01*
X73344644Y-80150500D01*
X73344646Y-80150500D01*
X73529803Y-80111144D01*
X73702730Y-80034151D01*
X73855871Y-79922888D01*
X73982533Y-79782216D01*
X74077179Y-79618284D01*
X74135674Y-79438256D01*
X74155460Y-79250000D01*
X74135674Y-79061744D01*
X74077179Y-78881716D01*
X73982533Y-78717784D01*
X73855871Y-78577112D01*
X73855870Y-78577111D01*
X73702734Y-78465851D01*
X73702729Y-78465848D01*
X73529807Y-78388857D01*
X73529802Y-78388855D01*
X73384001Y-78357865D01*
X73344646Y-78349500D01*
X73155354Y-78349500D01*
X73122897Y-78356398D01*
X72970197Y-78388855D01*
X72970192Y-78388857D01*
X72797270Y-78465848D01*
X72797265Y-78465851D01*
X72644129Y-78577111D01*
X72517466Y-78717785D01*
X72422821Y-78881715D01*
X72422818Y-78881722D01*
X72367833Y-79050951D01*
X72364326Y-79061744D01*
X72344540Y-79250000D01*
X66000000Y-79250000D01*
X66000000Y-76000000D01*
X102644341Y-76000000D01*
X102664936Y-76235403D01*
X102664938Y-76235413D01*
X102726094Y-76463655D01*
X102726096Y-76463659D01*
X102726097Y-76463663D01*
X102769777Y-76557335D01*
X102825964Y-76677828D01*
X102825965Y-76677830D01*
X102961505Y-76871402D01*
X103128597Y-77038494D01*
X103322169Y-77174034D01*
X103322171Y-77174035D01*
X103536337Y-77273903D01*
X103764592Y-77335063D01*
X103941034Y-77350500D01*
X104058966Y-77350500D01*
X104235408Y-77335063D01*
X104463663Y-77273903D01*
X104677829Y-77174035D01*
X104871401Y-77038495D01*
X105038495Y-76871401D01*
X105174035Y-76677830D01*
X105273903Y-76463663D01*
X105335063Y-76235408D01*
X105355659Y-76000000D01*
X105335063Y-75764592D01*
X105273903Y-75536337D01*
X105174035Y-75322171D01*
X105174034Y-75322169D01*
X105038494Y-75128597D01*
X104871402Y-74961505D01*
X104677830Y-74825965D01*
X104677828Y-74825964D01*
X104494464Y-74740460D01*
X104463663Y-74726097D01*
X104463659Y-74726096D01*
X104463655Y-74726094D01*
X104235413Y-74664938D01*
X104235403Y-74664936D01*
X104058966Y-74649500D01*
X103941034Y-74649500D01*
X103764596Y-74664936D01*
X103764586Y-74664938D01*
X103536344Y-74726094D01*
X103536337Y-74726096D01*
X103536337Y-74726097D01*
X103522816Y-74732401D01*
X103322171Y-74825964D01*
X103322169Y-74825965D01*
X103128597Y-74961505D01*
X102961506Y-75128597D01*
X102961501Y-75128604D01*
X102825967Y-75322165D01*
X102825965Y-75322169D01*
X102726098Y-75536335D01*
X102726094Y-75536344D01*
X102664938Y-75764586D01*
X102664936Y-75764596D01*
X102644341Y-75999999D01*
X102644341Y-76000000D01*
X66000000Y-76000000D01*
X66000000Y-70008966D01*
X92199500Y-70008966D01*
X92214936Y-70185403D01*
X92214938Y-70185413D01*
X92276094Y-70413655D01*
X92276096Y-70413659D01*
X92276097Y-70413663D01*
X92300194Y-70465339D01*
X92375964Y-70627828D01*
X92375965Y-70627830D01*
X92511505Y-70821402D01*
X92604719Y-70914615D01*
X92678599Y-70988495D01*
X92751682Y-71039668D01*
X92872165Y-71124032D01*
X92872167Y-71124033D01*
X92872170Y-71124035D01*
X93086337Y-71223903D01*
X93086343Y-71223904D01*
X93086344Y-71223905D01*
X93125356Y-71234358D01*
X93314592Y-71285063D01*
X93502918Y-71301539D01*
X93549999Y-71305659D01*
X93550000Y-71305659D01*
X93550001Y-71305659D01*
X93589234Y-71302226D01*
X93785408Y-71285063D01*
X94013663Y-71223903D01*
X94227829Y-71124035D01*
X94421401Y-70988495D01*
X94568965Y-70840930D01*
X94630287Y-70807447D01*
X94699978Y-70812431D01*
X94755912Y-70854302D01*
X94762183Y-70863516D01*
X94857680Y-71018340D01*
X94857683Y-71018344D01*
X94981654Y-71142315D01*
X95130875Y-71234356D01*
X95130880Y-71234358D01*
X95297302Y-71289505D01*
X95297309Y-71289506D01*
X95400019Y-71299999D01*
X95799999Y-71299999D01*
X95800000Y-71299998D01*
X95800000Y-70235501D01*
X95907685Y-70284680D01*
X96014237Y-70300000D01*
X96085763Y-70300000D01*
X96192315Y-70284680D01*
X96300000Y-70235501D01*
X96300000Y-71299999D01*
X96699972Y-71299999D01*
X96699986Y-71299998D01*
X96802697Y-71289505D01*
X96969119Y-71234358D01*
X96969124Y-71234356D01*
X97118345Y-71142315D01*
X97242315Y-71018345D01*
X97334356Y-70869124D01*
X97334358Y-70869119D01*
X97389505Y-70702697D01*
X97389506Y-70702690D01*
X97399999Y-70599986D01*
X97400000Y-70599973D01*
X97400000Y-70100002D01*
X109727677Y-70100002D01*
X109746929Y-70320062D01*
X109746930Y-70320070D01*
X109804104Y-70533445D01*
X109804105Y-70533447D01*
X109804106Y-70533450D01*
X109865630Y-70665389D01*
X109897466Y-70733662D01*
X109897468Y-70733666D01*
X110024170Y-70914615D01*
X110024175Y-70914621D01*
X110180378Y-71070824D01*
X110180384Y-71070829D01*
X110361333Y-71197531D01*
X110361335Y-71197532D01*
X110361338Y-71197534D01*
X110561550Y-71290894D01*
X110774932Y-71348070D01*
X110932123Y-71361822D01*
X110994998Y-71367323D01*
X110995000Y-71367323D01*
X110995002Y-71367323D01*
X111050017Y-71362509D01*
X111215068Y-71348070D01*
X111428450Y-71290894D01*
X111628662Y-71197534D01*
X111809620Y-71070826D01*
X111965826Y-70914620D01*
X112092534Y-70733662D01*
X112152618Y-70604811D01*
X112198790Y-70552371D01*
X112265983Y-70533219D01*
X112332865Y-70553435D01*
X112377382Y-70604811D01*
X112437464Y-70733658D01*
X112437468Y-70733666D01*
X112564170Y-70914615D01*
X112564175Y-70914621D01*
X112581561Y-70932007D01*
X112596498Y-70950077D01*
X112923796Y-71432569D01*
X112945140Y-71499099D01*
X112942831Y-71526189D01*
X112940585Y-71537571D01*
X112938610Y-71545075D01*
X112919651Y-71602288D01*
X112909500Y-71701647D01*
X112909500Y-72298337D01*
X112909501Y-72298355D01*
X112919650Y-72397707D01*
X112919651Y-72397710D01*
X112972996Y-72558694D01*
X112973001Y-72558705D01*
X113062029Y-72703040D01*
X113062032Y-72703044D01*
X113181955Y-72822967D01*
X113181959Y-72822970D01*
X113326294Y-72911998D01*
X113326297Y-72911999D01*
X113326303Y-72912003D01*
X113487292Y-72965349D01*
X113586655Y-72975500D01*
X114133344Y-72975499D01*
X114133352Y-72975498D01*
X114133355Y-72975498D01*
X114187760Y-72969940D01*
X114232708Y-72965349D01*
X114393697Y-72912003D01*
X114538044Y-72822968D01*
X114547668Y-72813343D01*
X114608987Y-72779856D01*
X114678679Y-72784835D01*
X114723034Y-72813339D01*
X114732267Y-72822572D01*
X114732271Y-72822575D01*
X114876507Y-72911542D01*
X114876518Y-72911547D01*
X115037393Y-72964855D01*
X115136683Y-72974999D01*
X115160000Y-72974998D01*
X115160000Y-72250000D01*
X115660000Y-72250000D01*
X115660000Y-72974999D01*
X115683308Y-72974999D01*
X115683322Y-72974998D01*
X115782607Y-72964855D01*
X115943481Y-72911547D01*
X115943492Y-72911542D01*
X116087728Y-72822575D01*
X116087732Y-72822572D01*
X116207572Y-72702732D01*
X116207575Y-72702728D01*
X116296542Y-72558492D01*
X116296547Y-72558481D01*
X116349855Y-72397606D01*
X116359999Y-72298322D01*
X116360000Y-72298309D01*
X116360000Y-72250000D01*
X115660000Y-72250000D01*
X115160000Y-72250000D01*
X115160000Y-71874000D01*
X115179685Y-71806961D01*
X115232489Y-71761206D01*
X115284000Y-71750000D01*
X116359999Y-71750000D01*
X116359999Y-71701692D01*
X116359998Y-71701677D01*
X116349855Y-71602392D01*
X116309170Y-71479612D01*
X116306768Y-71409784D01*
X116342500Y-71349742D01*
X116394783Y-71320833D01*
X116508270Y-71290424D01*
X116508284Y-71290419D01*
X116708408Y-71197100D01*
X116708420Y-71197093D01*
X116773186Y-71151742D01*
X116773187Y-71151740D01*
X116102447Y-70481000D01*
X116106569Y-70481000D01*
X116200421Y-70465339D01*
X116312251Y-70404820D01*
X116398371Y-70311269D01*
X116449448Y-70194823D01*
X116455105Y-70126552D01*
X117126740Y-70798187D01*
X117126742Y-70798186D01*
X117172093Y-70733420D01*
X117172100Y-70733408D01*
X117265419Y-70533284D01*
X117265424Y-70533270D01*
X117322573Y-70319986D01*
X117322575Y-70319976D01*
X117341821Y-70100000D01*
X117341821Y-70099999D01*
X117322575Y-69880023D01*
X117322573Y-69880013D01*
X117265424Y-69666729D01*
X117265420Y-69666720D01*
X117172098Y-69466590D01*
X117126740Y-69401811D01*
X116459903Y-70068648D01*
X116459949Y-70068102D01*
X116428734Y-69944838D01*
X116359187Y-69838388D01*
X116258843Y-69760287D01*
X116138578Y-69719000D01*
X116102447Y-69719000D01*
X116773187Y-69048258D01*
X116708409Y-69002900D01*
X116708407Y-69002899D01*
X116508284Y-68909580D01*
X116508270Y-68909575D01*
X116294986Y-68852426D01*
X116294976Y-68852424D01*
X116075001Y-68833179D01*
X116074999Y-68833179D01*
X115855023Y-68852424D01*
X115855013Y-68852426D01*
X115641729Y-68909575D01*
X115641720Y-68909579D01*
X115441586Y-69002903D01*
X115376812Y-69048257D01*
X115376811Y-69048258D01*
X116047554Y-69719000D01*
X116043431Y-69719000D01*
X115949579Y-69734661D01*
X115837749Y-69795180D01*
X115751629Y-69888731D01*
X115700552Y-70005177D01*
X115694894Y-70073447D01*
X115023258Y-69401811D01*
X115023257Y-69401812D01*
X114977903Y-69466586D01*
X114917658Y-69595781D01*
X114871485Y-69648220D01*
X114804292Y-69667372D01*
X114737411Y-69647156D01*
X114692894Y-69595781D01*
X114632534Y-69466340D01*
X114632533Y-69466338D01*
X114596300Y-69414592D01*
X114505826Y-69285380D01*
X114349620Y-69129174D01*
X114349616Y-69129171D01*
X114349615Y-69129170D01*
X114168666Y-69002468D01*
X114168662Y-69002466D01*
X114163434Y-69000028D01*
X113968450Y-68909106D01*
X113968447Y-68909105D01*
X113968445Y-68909104D01*
X113755070Y-68851930D01*
X113755062Y-68851929D01*
X113535002Y-68832677D01*
X113534998Y-68832677D01*
X113314937Y-68851929D01*
X113314929Y-68851930D01*
X113101554Y-68909104D01*
X113101548Y-68909107D01*
X112901340Y-69002465D01*
X112901338Y-69002466D01*
X112720377Y-69129175D01*
X112564175Y-69285377D01*
X112437466Y-69466338D01*
X112437465Y-69466340D01*
X112377382Y-69595189D01*
X112331209Y-69647628D01*
X112264016Y-69666780D01*
X112197135Y-69646564D01*
X112152618Y-69595189D01*
X112092534Y-69466340D01*
X112092533Y-69466338D01*
X112056300Y-69414592D01*
X111965826Y-69285380D01*
X111809620Y-69129174D01*
X111809616Y-69129171D01*
X111809615Y-69129170D01*
X111628666Y-69002468D01*
X111628662Y-69002466D01*
X111623434Y-69000028D01*
X111428450Y-68909106D01*
X111428447Y-68909105D01*
X111428445Y-68909104D01*
X111215070Y-68851930D01*
X111215062Y-68851929D01*
X110995002Y-68832677D01*
X110994998Y-68832677D01*
X110774937Y-68851929D01*
X110774929Y-68851930D01*
X110561554Y-68909104D01*
X110561548Y-68909107D01*
X110361340Y-69002465D01*
X110361338Y-69002466D01*
X110180377Y-69129175D01*
X110024175Y-69285377D01*
X109897466Y-69466338D01*
X109897465Y-69466340D01*
X109804107Y-69666548D01*
X109804104Y-69666554D01*
X109746930Y-69879929D01*
X109746929Y-69879937D01*
X109727677Y-70099997D01*
X109727677Y-70100002D01*
X97400000Y-70100002D01*
X97400000Y-70050000D01*
X96483686Y-70050000D01*
X96509493Y-70009844D01*
X96550000Y-69871889D01*
X96550000Y-69728111D01*
X96509493Y-69590156D01*
X96483686Y-69550000D01*
X97399999Y-69550000D01*
X97399999Y-69000028D01*
X97399998Y-69000013D01*
X97389505Y-68897302D01*
X97334358Y-68730880D01*
X97334356Y-68730875D01*
X97242315Y-68581654D01*
X97118345Y-68457684D01*
X96969124Y-68365643D01*
X96969119Y-68365641D01*
X96802697Y-68310494D01*
X96802690Y-68310493D01*
X96699986Y-68300000D01*
X96300000Y-68300000D01*
X96300000Y-69364498D01*
X96192315Y-69315320D01*
X96085763Y-69300000D01*
X96014237Y-69300000D01*
X95907685Y-69315320D01*
X95800000Y-69364498D01*
X95800000Y-68300000D01*
X95400028Y-68300000D01*
X95400012Y-68300001D01*
X95297302Y-68310494D01*
X95130880Y-68365641D01*
X95130875Y-68365643D01*
X94981654Y-68457684D01*
X94857682Y-68581656D01*
X94817218Y-68647259D01*
X94765270Y-68693983D01*
X94696307Y-68705204D01*
X94632225Y-68677361D01*
X94596911Y-68629108D01*
X94489139Y-68365641D01*
X94367153Y-68067425D01*
X94359992Y-67997925D01*
X94391542Y-67935584D01*
X94451788Y-67900198D01*
X94521601Y-67903000D01*
X94534665Y-67909140D01*
X94534968Y-67908493D01*
X94541518Y-67911547D01*
X94702393Y-67964855D01*
X94801683Y-67974999D01*
X94825000Y-67974998D01*
X94825000Y-67250000D01*
X95325000Y-67250000D01*
X95325000Y-67974999D01*
X95348308Y-67974999D01*
X95348322Y-67974998D01*
X95447607Y-67964855D01*
X95608481Y-67911547D01*
X95608492Y-67911542D01*
X95752728Y-67822575D01*
X95752732Y-67822572D01*
X95872572Y-67702732D01*
X95872575Y-67702728D01*
X95961542Y-67558492D01*
X95961547Y-67558481D01*
X96014855Y-67397606D01*
X96024999Y-67298322D01*
X96025000Y-67298309D01*
X96025000Y-67250000D01*
X95325000Y-67250000D01*
X94825000Y-67250000D01*
X94825000Y-66025000D01*
X95325000Y-66025000D01*
X95325000Y-66750000D01*
X96024999Y-66750000D01*
X96024999Y-66701692D01*
X96024998Y-66701677D01*
X96014855Y-66602392D01*
X95961547Y-66441518D01*
X95961542Y-66441507D01*
X95872575Y-66297271D01*
X95872572Y-66297267D01*
X95752732Y-66177427D01*
X95752728Y-66177424D01*
X95608492Y-66088457D01*
X95608481Y-66088452D01*
X95447606Y-66035144D01*
X95348322Y-66025000D01*
X95325000Y-66025000D01*
X94825000Y-66025000D01*
X94825000Y-66024999D01*
X94801693Y-66025000D01*
X94801674Y-66025001D01*
X94702392Y-66035144D01*
X94541518Y-66088452D01*
X94541507Y-66088457D01*
X94397271Y-66177424D01*
X94397265Y-66177428D01*
X94388031Y-66186663D01*
X94326707Y-66220146D01*
X94257015Y-66215159D01*
X94212672Y-66186660D01*
X94203044Y-66177032D01*
X94203040Y-66177029D01*
X94058705Y-66088001D01*
X94058699Y-66087998D01*
X94058697Y-66087997D01*
X94058694Y-66087996D01*
X93897709Y-66034651D01*
X93798346Y-66024500D01*
X93251662Y-66024500D01*
X93251644Y-66024501D01*
X93152292Y-66034650D01*
X93152289Y-66034651D01*
X92991305Y-66087996D01*
X92991294Y-66088001D01*
X92846959Y-66177029D01*
X92846955Y-66177032D01*
X92727032Y-66296955D01*
X92727029Y-66296959D01*
X92638001Y-66441294D01*
X92637996Y-66441305D01*
X92584651Y-66602290D01*
X92574500Y-66701647D01*
X92574500Y-67298337D01*
X92574501Y-67298355D01*
X92584651Y-67397709D01*
X92604233Y-67456806D01*
X92608976Y-67476258D01*
X92611767Y-67493744D01*
X92733610Y-67886108D01*
X92734692Y-67955969D01*
X92731386Y-67966172D01*
X92294384Y-69139177D01*
X92292133Y-69145341D01*
X92290875Y-69149792D01*
X92290382Y-69149652D01*
X92283550Y-69170351D01*
X92276096Y-69186336D01*
X92214938Y-69414586D01*
X92214936Y-69414596D01*
X92199500Y-69591034D01*
X92199500Y-70008966D01*
X66000000Y-70008966D01*
X66000000Y-64400000D01*
X100994540Y-64400000D01*
X101014326Y-64588256D01*
X101014327Y-64588259D01*
X101072818Y-64768277D01*
X101072821Y-64768284D01*
X101167467Y-64932216D01*
X101294129Y-65072888D01*
X101447265Y-65184148D01*
X101447270Y-65184151D01*
X101620192Y-65261142D01*
X101620197Y-65261144D01*
X101805354Y-65300500D01*
X101805355Y-65300500D01*
X101994644Y-65300500D01*
X101994646Y-65300500D01*
X102179803Y-65261144D01*
X102352730Y-65184151D01*
X102505871Y-65072888D01*
X102632533Y-64932216D01*
X102727179Y-64768284D01*
X102785674Y-64588256D01*
X102805460Y-64400000D01*
X102785674Y-64211744D01*
X102727179Y-64031716D01*
X102632533Y-63867784D01*
X102505871Y-63727112D01*
X102505870Y-63727111D01*
X102352734Y-63615851D01*
X102352729Y-63615848D01*
X102179807Y-63538857D01*
X102179802Y-63538855D01*
X102034001Y-63507865D01*
X101994646Y-63499500D01*
X101805354Y-63499500D01*
X101772897Y-63506398D01*
X101620197Y-63538855D01*
X101620192Y-63538857D01*
X101447270Y-63615848D01*
X101447265Y-63615851D01*
X101294129Y-63727111D01*
X101167466Y-63867785D01*
X101072821Y-64031715D01*
X101072818Y-64031722D01*
X101014327Y-64211740D01*
X101014326Y-64211744D01*
X100994540Y-64400000D01*
X66000000Y-64400000D01*
X66000000Y-61250005D01*
X68629859Y-61250005D01*
X68650385Y-61497729D01*
X68650387Y-61497738D01*
X68711412Y-61738717D01*
X68811266Y-61966364D01*
X68911564Y-62119882D01*
X69572226Y-61459219D01*
X69610901Y-61552588D01*
X69707075Y-61677925D01*
X69832412Y-61774099D01*
X69925779Y-61812772D01*
X69264942Y-62473609D01*
X69311768Y-62510055D01*
X69311770Y-62510056D01*
X69530385Y-62628364D01*
X69530396Y-62628369D01*
X69765506Y-62709083D01*
X70010707Y-62750000D01*
X70259293Y-62750000D01*
X114094540Y-62750000D01*
X114114326Y-62938256D01*
X114114327Y-62938259D01*
X114172818Y-63118277D01*
X114172821Y-63118284D01*
X114267467Y-63282216D01*
X114390755Y-63419141D01*
X114394129Y-63422888D01*
X114547265Y-63534148D01*
X114547270Y-63534151D01*
X114720192Y-63611142D01*
X114720197Y-63611144D01*
X114905354Y-63650500D01*
X114905355Y-63650500D01*
X115094644Y-63650500D01*
X115094646Y-63650500D01*
X115279803Y-63611144D01*
X115452730Y-63534151D01*
X115605871Y-63422888D01*
X115732533Y-63282216D01*
X115827179Y-63118284D01*
X115885674Y-62938256D01*
X115905460Y-62750000D01*
X115885674Y-62561744D01*
X115827179Y-62381716D01*
X115732533Y-62217784D01*
X115605871Y-62077112D01*
X115605870Y-62077111D01*
X115452734Y-61965851D01*
X115452729Y-61965848D01*
X115279807Y-61888857D01*
X115279802Y-61888855D01*
X115134001Y-61857865D01*
X115094646Y-61849500D01*
X114905354Y-61849500D01*
X114872897Y-61856398D01*
X114720197Y-61888855D01*
X114720192Y-61888857D01*
X114547270Y-61965848D01*
X114547265Y-61965851D01*
X114394129Y-62077111D01*
X114267466Y-62217785D01*
X114172821Y-62381715D01*
X114172818Y-62381722D01*
X114131120Y-62510057D01*
X114114326Y-62561744D01*
X114094540Y-62750000D01*
X70259293Y-62750000D01*
X70504493Y-62709083D01*
X70739603Y-62628369D01*
X70739614Y-62628364D01*
X70958228Y-62510057D01*
X70958231Y-62510055D01*
X71005056Y-62473609D01*
X70344220Y-61812773D01*
X70437588Y-61774099D01*
X70562925Y-61677925D01*
X70659099Y-61552589D01*
X70697772Y-61459220D01*
X71358434Y-62119882D01*
X71458731Y-61966369D01*
X71558587Y-61738717D01*
X71619612Y-61497738D01*
X71619614Y-61497729D01*
X71640141Y-61250005D01*
X71640141Y-61249994D01*
X71619614Y-61002270D01*
X71619612Y-61002261D01*
X71558587Y-60761282D01*
X71529513Y-60695000D01*
X90057040Y-60695000D01*
X90076826Y-60883256D01*
X90076827Y-60883259D01*
X90135318Y-61063277D01*
X90135321Y-61063284D01*
X90229967Y-61227216D01*
X90356629Y-61367888D01*
X90509765Y-61479148D01*
X90509770Y-61479151D01*
X90682692Y-61556142D01*
X90682697Y-61556144D01*
X90867854Y-61595500D01*
X90867855Y-61595500D01*
X91057144Y-61595500D01*
X91057146Y-61595500D01*
X91242303Y-61556144D01*
X91415230Y-61479151D01*
X91568371Y-61367888D01*
X91695033Y-61227216D01*
X91789679Y-61063284D01*
X91848174Y-60883256D01*
X91867960Y-60695000D01*
X91848174Y-60506744D01*
X91789679Y-60326716D01*
X91695033Y-60162784D01*
X91568371Y-60022112D01*
X91538625Y-60000500D01*
X91415234Y-59910851D01*
X91415229Y-59910848D01*
X91242307Y-59833857D01*
X91242302Y-59833855D01*
X91096501Y-59802865D01*
X91057146Y-59794500D01*
X90867854Y-59794500D01*
X90835397Y-59801398D01*
X90682697Y-59833855D01*
X90682692Y-59833857D01*
X90509770Y-59910848D01*
X90509765Y-59910851D01*
X90356629Y-60022111D01*
X90229966Y-60162785D01*
X90135321Y-60326715D01*
X90135318Y-60326722D01*
X90076827Y-60506740D01*
X90076826Y-60506744D01*
X90057040Y-60695000D01*
X71529513Y-60695000D01*
X71458731Y-60533630D01*
X71358434Y-60380116D01*
X70697772Y-61040778D01*
X70659099Y-60947412D01*
X70562925Y-60822075D01*
X70437588Y-60725901D01*
X70344220Y-60687227D01*
X71005057Y-60026390D01*
X71005056Y-60026389D01*
X70958229Y-59989943D01*
X70739614Y-59871635D01*
X70739603Y-59871630D01*
X70504493Y-59790916D01*
X70259293Y-59750000D01*
X70010707Y-59750000D01*
X69765506Y-59790916D01*
X69530396Y-59871630D01*
X69530390Y-59871632D01*
X69311761Y-59989949D01*
X69264942Y-60026388D01*
X69264942Y-60026390D01*
X69925779Y-60687227D01*
X69832412Y-60725901D01*
X69707075Y-60822075D01*
X69610901Y-60947411D01*
X69572227Y-61040779D01*
X68911564Y-60380116D01*
X68811267Y-60533632D01*
X68711412Y-60761282D01*
X68650387Y-61002261D01*
X68650385Y-61002270D01*
X68629859Y-61249994D01*
X68629859Y-61250005D01*
X66000000Y-61250005D01*
X66000000Y-58750000D01*
X100044540Y-58750000D01*
X100064326Y-58938256D01*
X100064327Y-58938259D01*
X100122818Y-59118277D01*
X100122821Y-59118284D01*
X100217467Y-59282216D01*
X100344129Y-59422888D01*
X100497265Y-59534148D01*
X100497270Y-59534151D01*
X100670192Y-59611142D01*
X100670195Y-59611143D01*
X100670197Y-59611144D01*
X100855354Y-59650500D01*
X100855355Y-59650500D01*
X101044644Y-59650500D01*
X101044646Y-59650500D01*
X101229803Y-59611144D01*
X101248263Y-59602924D01*
X101275394Y-59594413D01*
X101278181Y-59593880D01*
X101630800Y-59472339D01*
X101700591Y-59469105D01*
X101747818Y-59492072D01*
X101914275Y-59622877D01*
X101943195Y-59655276D01*
X101982288Y-59718656D01*
X102106344Y-59842712D01*
X102255666Y-59934814D01*
X102422203Y-59989999D01*
X102524991Y-60000500D01*
X103150008Y-60000499D01*
X103150016Y-60000498D01*
X103150019Y-60000498D01*
X103206302Y-59994748D01*
X103252797Y-59989999D01*
X103419334Y-59934814D01*
X103568656Y-59842712D01*
X103662319Y-59749049D01*
X103723642Y-59715564D01*
X103793334Y-59720548D01*
X103837681Y-59749049D01*
X103931344Y-59842712D01*
X104080666Y-59934814D01*
X104247203Y-59989999D01*
X104349991Y-60000500D01*
X104975008Y-60000499D01*
X104975016Y-60000498D01*
X104975019Y-60000498D01*
X105031302Y-59994748D01*
X105077797Y-59989999D01*
X105244334Y-59934814D01*
X105393656Y-59842712D01*
X105517712Y-59718656D01*
X105556802Y-59655277D01*
X105585723Y-59622876D01*
X105721692Y-59516030D01*
X105786563Y-59490088D01*
X105838708Y-59496298D01*
X106121817Y-59593880D01*
X106148187Y-59601870D01*
X106155405Y-59604558D01*
X106170197Y-59611144D01*
X106355354Y-59650500D01*
X106355355Y-59650500D01*
X106544644Y-59650500D01*
X106544646Y-59650500D01*
X106729803Y-59611144D01*
X106902730Y-59534151D01*
X107055871Y-59422888D01*
X107182533Y-59282216D01*
X107277179Y-59118284D01*
X107335674Y-58938256D01*
X107355460Y-58750000D01*
X107335674Y-58561744D01*
X107277179Y-58381716D01*
X107182533Y-58217784D01*
X107055871Y-58077112D01*
X107033129Y-58060589D01*
X106902734Y-57965851D01*
X106902729Y-57965848D01*
X106729807Y-57888857D01*
X106729802Y-57888855D01*
X106551472Y-57850951D01*
X106544646Y-57849500D01*
X106355354Y-57849500D01*
X106348528Y-57850951D01*
X106170198Y-57888855D01*
X106170193Y-57888857D01*
X106098613Y-57920726D01*
X106093026Y-57922897D01*
X106059050Y-57934239D01*
X106059046Y-57934240D01*
X106059043Y-57934242D01*
X105979347Y-57974223D01*
X105807188Y-58060589D01*
X105738439Y-58073055D01*
X105674970Y-58047253D01*
X105585724Y-57977122D01*
X105556802Y-57944721D01*
X105517712Y-57881344D01*
X105393656Y-57757288D01*
X105244334Y-57665186D01*
X105077797Y-57610001D01*
X105077795Y-57610000D01*
X104975010Y-57599500D01*
X104349998Y-57599500D01*
X104349980Y-57599501D01*
X104247203Y-57610000D01*
X104247200Y-57610001D01*
X104080668Y-57665185D01*
X104080663Y-57665187D01*
X103931342Y-57757289D01*
X103837681Y-57850951D01*
X103776358Y-57884436D01*
X103706666Y-57879452D01*
X103662319Y-57850951D01*
X103568657Y-57757289D01*
X103568656Y-57757288D01*
X103419334Y-57665186D01*
X103252797Y-57610001D01*
X103252795Y-57610000D01*
X103150010Y-57599500D01*
X102524998Y-57599500D01*
X102524980Y-57599501D01*
X102422203Y-57610000D01*
X102422200Y-57610001D01*
X102255668Y-57665185D01*
X102255663Y-57665187D01*
X102106342Y-57757289D01*
X101982287Y-57881344D01*
X101943198Y-57944718D01*
X101914276Y-57977119D01*
X101786062Y-58077872D01*
X101721188Y-58103816D01*
X101653844Y-58091208D01*
X101566226Y-58047253D01*
X101333000Y-57930251D01*
X101324169Y-57926203D01*
X101324168Y-57926203D01*
X101259357Y-57901891D01*
X101255915Y-57900481D01*
X101242607Y-57894556D01*
X101229803Y-57888856D01*
X101229801Y-57888855D01*
X101051472Y-57850951D01*
X101044646Y-57849500D01*
X100855354Y-57849500D01*
X100848528Y-57850951D01*
X100670197Y-57888855D01*
X100670192Y-57888857D01*
X100497270Y-57965848D01*
X100497265Y-57965851D01*
X100344129Y-58077111D01*
X100217466Y-58217785D01*
X100122821Y-58381715D01*
X100122818Y-58381722D01*
X100075345Y-58527830D01*
X100064326Y-58561744D01*
X100044540Y-58750000D01*
X66000000Y-58750000D01*
X66000000Y-56905000D01*
X93087040Y-56905000D01*
X93106826Y-57093256D01*
X93106827Y-57093259D01*
X93165318Y-57273277D01*
X93165321Y-57273284D01*
X93259967Y-57437216D01*
X93386629Y-57577888D01*
X93539765Y-57689148D01*
X93539770Y-57689151D01*
X93712692Y-57766142D01*
X93712697Y-57766144D01*
X93897854Y-57805500D01*
X93897855Y-57805500D01*
X94087144Y-57805500D01*
X94087146Y-57805500D01*
X94272303Y-57766144D01*
X94445230Y-57689151D01*
X94598371Y-57577888D01*
X94725033Y-57437216D01*
X94819679Y-57273284D01*
X94878174Y-57093256D01*
X94897960Y-56905000D01*
X94878174Y-56716744D01*
X94819679Y-56536716D01*
X94725033Y-56372784D01*
X94707193Y-56352971D01*
X94676964Y-56289981D01*
X94685589Y-56220646D01*
X94707194Y-56187028D01*
X94725033Y-56167216D01*
X94819679Y-56003284D01*
X94878174Y-55823256D01*
X94897960Y-55635000D01*
X94878174Y-55446744D01*
X94819679Y-55266716D01*
X94725033Y-55102784D01*
X94707193Y-55082971D01*
X94676964Y-55019981D01*
X94679450Y-55000000D01*
X99344540Y-55000000D01*
X99364326Y-55188256D01*
X99364327Y-55188259D01*
X99422818Y-55368277D01*
X99422821Y-55368284D01*
X99517467Y-55532216D01*
X99644129Y-55672888D01*
X99797265Y-55784148D01*
X99797270Y-55784151D01*
X99970192Y-55861142D01*
X99970197Y-55861144D01*
X100155354Y-55900500D01*
X100155355Y-55900500D01*
X100344644Y-55900500D01*
X100344646Y-55900500D01*
X100529803Y-55861144D01*
X100702730Y-55784151D01*
X100855871Y-55672888D01*
X100982533Y-55532216D01*
X101077179Y-55368284D01*
X101135674Y-55188256D01*
X101155460Y-55000000D01*
X101147739Y-54926544D01*
X101160308Y-54857820D01*
X101208040Y-54806795D01*
X101275780Y-54789677D01*
X101342021Y-54811899D01*
X101363210Y-54830615D01*
X101373507Y-54842051D01*
X101526647Y-54953314D01*
X101564041Y-54969963D01*
X101617278Y-55015213D01*
X101636926Y-55070279D01*
X101649326Y-55188256D01*
X101649327Y-55188259D01*
X101707818Y-55368277D01*
X101707821Y-55368284D01*
X101802467Y-55532216D01*
X101929129Y-55672888D01*
X102082265Y-55784148D01*
X102082270Y-55784151D01*
X102255192Y-55861142D01*
X102255197Y-55861144D01*
X102440354Y-55900500D01*
X102440355Y-55900500D01*
X102629644Y-55900500D01*
X102629646Y-55900500D01*
X102814803Y-55861144D01*
X102987730Y-55784151D01*
X103140871Y-55672888D01*
X103267533Y-55532216D01*
X103362179Y-55368284D01*
X103420674Y-55188256D01*
X103440460Y-55000000D01*
X103420674Y-54811744D01*
X103362179Y-54631716D01*
X103267533Y-54467784D01*
X103140871Y-54327112D01*
X103140870Y-54327111D01*
X102987730Y-54215848D01*
X102950335Y-54199199D01*
X102897098Y-54153949D01*
X102877451Y-54098885D01*
X102865052Y-53980907D01*
X102806557Y-53800879D01*
X102711911Y-53636947D01*
X102585249Y-53496275D01*
X102575957Y-53489524D01*
X102432112Y-53385014D01*
X102432107Y-53385011D01*
X102259185Y-53308020D01*
X102259180Y-53308018D01*
X102113379Y-53277028D01*
X102074024Y-53268663D01*
X101884732Y-53268663D01*
X101852275Y-53275561D01*
X101699575Y-53308018D01*
X101699570Y-53308020D01*
X101526648Y-53385011D01*
X101526643Y-53385014D01*
X101373507Y-53496274D01*
X101246844Y-53636948D01*
X101152199Y-53800878D01*
X101152196Y-53800885D01*
X101093705Y-53980903D01*
X101093704Y-53980907D01*
X101077103Y-54138856D01*
X101073918Y-54169163D01*
X101081638Y-54242614D01*
X101069068Y-54311344D01*
X101021336Y-54362367D01*
X100953596Y-54379485D01*
X100887354Y-54357262D01*
X100866167Y-54338547D01*
X100862022Y-54333944D01*
X100855871Y-54327112D01*
X100855870Y-54327111D01*
X100702734Y-54215851D01*
X100702729Y-54215848D01*
X100529807Y-54138857D01*
X100529802Y-54138855D01*
X100384001Y-54107865D01*
X100344646Y-54099500D01*
X100155354Y-54099500D01*
X100122897Y-54106398D01*
X99970197Y-54138855D01*
X99970192Y-54138857D01*
X99797270Y-54215848D01*
X99797265Y-54215851D01*
X99644129Y-54327111D01*
X99517466Y-54467785D01*
X99422821Y-54631715D01*
X99422818Y-54631722D01*
X99365756Y-54807342D01*
X99364326Y-54811744D01*
X99344540Y-55000000D01*
X94679450Y-55000000D01*
X94685589Y-54950646D01*
X94707194Y-54917028D01*
X94725033Y-54897216D01*
X94819679Y-54733284D01*
X94878174Y-54553256D01*
X94897960Y-54365000D01*
X94878174Y-54176744D01*
X94819679Y-53996716D01*
X94725033Y-53832784D01*
X94598371Y-53692112D01*
X94598370Y-53692111D01*
X94445234Y-53580851D01*
X94445229Y-53580848D01*
X94272307Y-53503857D01*
X94272302Y-53503855D01*
X94126501Y-53472865D01*
X94087146Y-53464500D01*
X93897854Y-53464500D01*
X93865397Y-53471398D01*
X93712697Y-53503855D01*
X93712692Y-53503857D01*
X93539770Y-53580848D01*
X93539765Y-53580851D01*
X93386629Y-53692111D01*
X93259966Y-53832785D01*
X93165321Y-53996715D01*
X93165318Y-53996722D01*
X93109233Y-54169336D01*
X93106826Y-54176744D01*
X93087040Y-54365000D01*
X93106826Y-54553256D01*
X93106827Y-54553259D01*
X93165318Y-54733277D01*
X93165321Y-54733284D01*
X93259967Y-54897216D01*
X93270306Y-54908699D01*
X93277807Y-54917030D01*
X93308035Y-54980022D01*
X93299409Y-55049357D01*
X93277807Y-55082970D01*
X93259966Y-55102785D01*
X93165321Y-55266715D01*
X93165318Y-55266722D01*
X93106827Y-55446740D01*
X93106826Y-55446744D01*
X93087040Y-55635000D01*
X93106826Y-55823256D01*
X93106827Y-55823259D01*
X93165318Y-56003277D01*
X93165321Y-56003284D01*
X93259967Y-56167216D01*
X93270306Y-56178699D01*
X93277807Y-56187030D01*
X93308035Y-56250022D01*
X93299409Y-56319357D01*
X93277807Y-56352970D01*
X93259966Y-56372785D01*
X93165321Y-56536715D01*
X93165318Y-56536722D01*
X93120076Y-56675965D01*
X93106826Y-56716744D01*
X93087040Y-56905000D01*
X66000000Y-56905000D01*
X66000000Y-54750005D01*
X68629357Y-54750005D01*
X68649890Y-54997812D01*
X68649892Y-54997824D01*
X68710936Y-55238881D01*
X68810826Y-55466606D01*
X68946833Y-55674782D01*
X68946836Y-55674785D01*
X69115256Y-55857738D01*
X69311491Y-56010474D01*
X69311493Y-56010475D01*
X69511275Y-56118592D01*
X69530190Y-56128828D01*
X69765386Y-56209571D01*
X70010665Y-56250500D01*
X70259335Y-56250500D01*
X70504614Y-56209571D01*
X70739810Y-56128828D01*
X70958509Y-56010474D01*
X71154744Y-55857738D01*
X71190704Y-55818674D01*
X71250588Y-55782684D01*
X71320426Y-55784783D01*
X71378043Y-55824306D01*
X71393662Y-55852752D01*
X71394947Y-55852154D01*
X71398001Y-55858705D01*
X71487029Y-56003040D01*
X71487032Y-56003044D01*
X71606955Y-56122967D01*
X71606959Y-56122970D01*
X71751294Y-56211998D01*
X71751297Y-56211999D01*
X71751303Y-56212003D01*
X71912292Y-56265349D01*
X72011655Y-56275500D01*
X72558344Y-56275499D01*
X72558352Y-56275498D01*
X72558355Y-56275498D01*
X72612760Y-56269940D01*
X72657708Y-56265349D01*
X72818697Y-56212003D01*
X72963044Y-56122968D01*
X72972668Y-56113343D01*
X73033987Y-56079856D01*
X73103679Y-56084835D01*
X73148034Y-56113339D01*
X73157267Y-56122572D01*
X73157271Y-56122575D01*
X73301507Y-56211542D01*
X73301518Y-56211547D01*
X73462393Y-56264855D01*
X73561683Y-56274999D01*
X73585000Y-56274998D01*
X73585000Y-55550000D01*
X74085000Y-55550000D01*
X74085000Y-56274999D01*
X74108308Y-56274999D01*
X74108322Y-56274998D01*
X74207607Y-56264855D01*
X74368481Y-56211547D01*
X74368492Y-56211542D01*
X74512728Y-56122575D01*
X74512732Y-56122572D01*
X74632572Y-56002732D01*
X74632575Y-56002728D01*
X74721542Y-55858492D01*
X74721547Y-55858481D01*
X74774855Y-55697606D01*
X74784999Y-55598322D01*
X74785000Y-55598309D01*
X74785000Y-55550000D01*
X74085000Y-55550000D01*
X73585000Y-55550000D01*
X73585000Y-55174000D01*
X73604685Y-55106961D01*
X73657489Y-55061206D01*
X73709000Y-55050000D01*
X74784999Y-55050000D01*
X74784999Y-55001692D01*
X74784998Y-55001677D01*
X74774855Y-54902392D01*
X74721547Y-54741518D01*
X74721544Y-54741512D01*
X74696432Y-54700800D01*
X74677991Y-54633408D01*
X74698912Y-54566745D01*
X74736873Y-54530163D01*
X74878656Y-54442712D01*
X75002712Y-54318656D01*
X75094814Y-54169334D01*
X75149999Y-54002797D01*
X75160500Y-53900009D01*
X75160499Y-53590594D01*
X75163710Y-53563907D01*
X75163699Y-53563906D01*
X75163737Y-53563677D01*
X75164038Y-53561182D01*
X75164167Y-53560649D01*
X75164441Y-53559530D01*
X75250230Y-52673985D01*
X75276287Y-52609157D01*
X75285963Y-52598270D01*
X75367573Y-52516660D01*
X83436891Y-52516660D01*
X83450697Y-52525335D01*
X83450701Y-52525337D01*
X83620858Y-52584877D01*
X83620861Y-52584878D01*
X83799997Y-52605062D01*
X83800003Y-52605062D01*
X83979138Y-52584878D01*
X84149307Y-52525333D01*
X84163107Y-52516661D01*
X84163107Y-52516660D01*
X84961891Y-52516660D01*
X84975697Y-52525335D01*
X84975701Y-52525337D01*
X85145858Y-52584877D01*
X85145861Y-52584878D01*
X85324997Y-52605062D01*
X85325003Y-52605062D01*
X85504138Y-52584878D01*
X85674307Y-52525333D01*
X85688107Y-52516661D01*
X85688107Y-52516660D01*
X85371448Y-52200000D01*
X96094540Y-52200000D01*
X96114326Y-52388256D01*
X96114327Y-52388259D01*
X96172818Y-52568277D01*
X96172821Y-52568284D01*
X96267467Y-52732216D01*
X96394129Y-52872888D01*
X96547265Y-52984148D01*
X96547270Y-52984151D01*
X96720192Y-53061142D01*
X96720197Y-53061144D01*
X96905354Y-53100500D01*
X96905355Y-53100500D01*
X97094644Y-53100500D01*
X97094646Y-53100500D01*
X97279803Y-53061144D01*
X97452730Y-52984151D01*
X97605871Y-52872888D01*
X97732533Y-52732216D01*
X97827179Y-52568284D01*
X97885674Y-52388256D01*
X97905460Y-52200000D01*
X97885674Y-52011744D01*
X97827179Y-51831716D01*
X97732533Y-51667784D01*
X97605871Y-51527112D01*
X97599851Y-51522738D01*
X97452734Y-51415851D01*
X97452729Y-51415848D01*
X97279807Y-51338857D01*
X97279802Y-51338855D01*
X97134001Y-51307865D01*
X97094646Y-51299500D01*
X96905354Y-51299500D01*
X96872897Y-51306398D01*
X96720197Y-51338855D01*
X96720192Y-51338857D01*
X96547270Y-51415848D01*
X96547265Y-51415851D01*
X96394129Y-51527111D01*
X96267466Y-51667785D01*
X96172821Y-51831715D01*
X96172818Y-51831722D01*
X96124920Y-51979138D01*
X96114326Y-52011744D01*
X96094540Y-52200000D01*
X85371448Y-52200000D01*
X85325001Y-52153553D01*
X85325000Y-52153553D01*
X84961891Y-52516660D01*
X84163107Y-52516660D01*
X83800001Y-52153553D01*
X83800000Y-52153553D01*
X83436891Y-52516660D01*
X75367573Y-52516660D01*
X76130073Y-51754160D01*
X82674391Y-51754160D01*
X82688197Y-51762835D01*
X82688201Y-51762837D01*
X82858359Y-51822377D01*
X82900982Y-51827180D01*
X82965396Y-51854246D01*
X83004951Y-51911840D01*
X83010319Y-51936515D01*
X83015121Y-51979138D01*
X83015122Y-51979141D01*
X83074662Y-52149298D01*
X83074667Y-52149308D01*
X83083338Y-52163108D01*
X83413955Y-51832492D01*
X83700000Y-51832492D01*
X83738197Y-51885065D01*
X83784162Y-51900000D01*
X83815838Y-51900000D01*
X83861803Y-51885065D01*
X83900000Y-51832492D01*
X83900000Y-51800000D01*
X84153553Y-51800000D01*
X84516660Y-52163107D01*
X84548621Y-52159507D01*
X84576387Y-52159508D01*
X84608338Y-52163108D01*
X84938955Y-51832492D01*
X85225000Y-51832492D01*
X85263197Y-51885065D01*
X85309162Y-51900000D01*
X85340838Y-51900000D01*
X85386803Y-51885065D01*
X85425000Y-51832492D01*
X85425000Y-51800000D01*
X85678553Y-51800000D01*
X86041660Y-52163107D01*
X86041661Y-52163107D01*
X86050333Y-52149307D01*
X86109878Y-51979138D01*
X86114680Y-51936518D01*
X86141746Y-51872103D01*
X86199340Y-51832548D01*
X86224018Y-51827180D01*
X86266638Y-51822378D01*
X86436807Y-51762833D01*
X86450607Y-51754161D01*
X86450607Y-51754160D01*
X86087500Y-51391053D01*
X85678553Y-51800000D01*
X85425000Y-51800000D01*
X85425000Y-51767508D01*
X85386803Y-51714935D01*
X85340838Y-51700000D01*
X85309162Y-51700000D01*
X85263197Y-51714935D01*
X85225000Y-51767508D01*
X85225000Y-51832492D01*
X84938955Y-51832492D01*
X84971447Y-51800000D01*
X84562500Y-51391053D01*
X84153553Y-51800000D01*
X83900000Y-51800000D01*
X83900000Y-51767508D01*
X83861803Y-51714935D01*
X83815838Y-51700000D01*
X83784162Y-51700000D01*
X83738197Y-51714935D01*
X83700000Y-51767508D01*
X83700000Y-51832492D01*
X83413955Y-51832492D01*
X83446447Y-51800000D01*
X83446447Y-51799999D01*
X83037501Y-51391053D01*
X83037500Y-51391053D01*
X82674391Y-51754160D01*
X76130073Y-51754160D01*
X76846731Y-51037502D01*
X82232438Y-51037502D01*
X82252621Y-51216638D01*
X82252622Y-51216641D01*
X82312162Y-51386798D01*
X82312167Y-51386808D01*
X82320838Y-51400608D01*
X82651455Y-51069992D01*
X82937500Y-51069992D01*
X82975697Y-51122565D01*
X83021662Y-51137500D01*
X83053338Y-51137500D01*
X83099303Y-51122565D01*
X83137500Y-51069992D01*
X83137500Y-51037500D01*
X83391053Y-51037500D01*
X83800000Y-51446447D01*
X84176455Y-51069992D01*
X84462500Y-51069992D01*
X84500697Y-51122565D01*
X84546662Y-51137500D01*
X84578338Y-51137500D01*
X84624303Y-51122565D01*
X84662500Y-51069992D01*
X84662500Y-51037500D01*
X84916053Y-51037500D01*
X85325000Y-51446447D01*
X85701455Y-51069992D01*
X85987500Y-51069992D01*
X86025697Y-51122565D01*
X86071662Y-51137500D01*
X86103338Y-51137500D01*
X86149303Y-51122565D01*
X86187500Y-51069992D01*
X86187500Y-51037500D01*
X86441053Y-51037500D01*
X86804160Y-51400607D01*
X86804161Y-51400607D01*
X86812833Y-51386807D01*
X86872378Y-51216638D01*
X86892562Y-51037502D01*
X86892562Y-51037497D01*
X86872378Y-50858361D01*
X86872377Y-50858358D01*
X86812837Y-50688201D01*
X86812835Y-50688197D01*
X86804160Y-50674391D01*
X86441053Y-51037499D01*
X86441053Y-51037500D01*
X86187500Y-51037500D01*
X86187500Y-51005008D01*
X86149303Y-50952435D01*
X86103338Y-50937500D01*
X86071662Y-50937500D01*
X86025697Y-50952435D01*
X85987500Y-51005008D01*
X85987500Y-51069992D01*
X85701455Y-51069992D01*
X85733947Y-51037500D01*
X85325000Y-50628553D01*
X84916053Y-51037500D01*
X84662500Y-51037500D01*
X84662500Y-51005008D01*
X84624303Y-50952435D01*
X84578338Y-50937500D01*
X84546662Y-50937500D01*
X84500697Y-50952435D01*
X84462500Y-51005008D01*
X84462500Y-51069992D01*
X84176455Y-51069992D01*
X84208947Y-51037500D01*
X83800000Y-50628553D01*
X83391053Y-51037500D01*
X83137500Y-51037500D01*
X83137500Y-51005008D01*
X83099303Y-50952435D01*
X83053338Y-50937500D01*
X83021662Y-50937500D01*
X82975697Y-50952435D01*
X82937500Y-51005008D01*
X82937500Y-51069992D01*
X82651455Y-51069992D01*
X82683947Y-51037500D01*
X82683947Y-51037499D01*
X82320838Y-50674390D01*
X82320838Y-50674391D01*
X82312164Y-50688196D01*
X82252622Y-50858358D01*
X82252621Y-50858361D01*
X82232438Y-51037497D01*
X82232438Y-51037502D01*
X76846731Y-51037502D01*
X77563395Y-50320838D01*
X82674390Y-50320838D01*
X83037499Y-50683947D01*
X83413955Y-50307492D01*
X83700000Y-50307492D01*
X83738197Y-50360065D01*
X83784162Y-50375000D01*
X83815838Y-50375000D01*
X83861803Y-50360065D01*
X83900000Y-50307492D01*
X83900000Y-50275000D01*
X84153553Y-50275000D01*
X84562500Y-50683947D01*
X84938955Y-50307492D01*
X85225000Y-50307492D01*
X85263197Y-50360065D01*
X85309162Y-50375000D01*
X85340838Y-50375000D01*
X85386803Y-50360065D01*
X85425000Y-50307492D01*
X85425000Y-50275000D01*
X85678553Y-50275000D01*
X86087500Y-50683947D01*
X86087501Y-50683947D01*
X86450608Y-50320838D01*
X86447008Y-50288884D01*
X86447007Y-50261119D01*
X86450607Y-50229160D01*
X86087500Y-49866053D01*
X85678553Y-50275000D01*
X85425000Y-50275000D01*
X85425000Y-50242508D01*
X85386803Y-50189935D01*
X85340838Y-50175000D01*
X85309162Y-50175000D01*
X85263197Y-50189935D01*
X85225000Y-50242508D01*
X85225000Y-50307492D01*
X84938955Y-50307492D01*
X84971447Y-50275000D01*
X84562500Y-49866053D01*
X84153553Y-50275000D01*
X83900000Y-50275000D01*
X83900000Y-50242508D01*
X83861803Y-50189935D01*
X83815838Y-50175000D01*
X83784162Y-50175000D01*
X83738197Y-50189935D01*
X83700000Y-50242508D01*
X83700000Y-50307492D01*
X83413955Y-50307492D01*
X83446447Y-50275000D01*
X83446447Y-50274999D01*
X83037501Y-49866053D01*
X83037500Y-49866053D01*
X82674390Y-50229161D01*
X82677991Y-50261123D01*
X82677991Y-50288892D01*
X82674390Y-50320838D01*
X77563395Y-50320838D01*
X78371731Y-49512502D01*
X82232438Y-49512502D01*
X82252621Y-49691638D01*
X82252622Y-49691641D01*
X82312162Y-49861798D01*
X82312167Y-49861808D01*
X82320838Y-49875608D01*
X82651455Y-49544992D01*
X82937500Y-49544992D01*
X82975697Y-49597565D01*
X83021662Y-49612500D01*
X83053338Y-49612500D01*
X83099303Y-49597565D01*
X83137500Y-49544992D01*
X83137500Y-49512500D01*
X83391053Y-49512500D01*
X83800000Y-49921447D01*
X84176455Y-49544992D01*
X84462500Y-49544992D01*
X84500697Y-49597565D01*
X84546662Y-49612500D01*
X84578338Y-49612500D01*
X84624303Y-49597565D01*
X84662500Y-49544992D01*
X84662500Y-49512500D01*
X84916053Y-49512500D01*
X85325000Y-49921447D01*
X85701455Y-49544992D01*
X85987500Y-49544992D01*
X86025697Y-49597565D01*
X86071662Y-49612500D01*
X86103338Y-49612500D01*
X86149303Y-49597565D01*
X86187500Y-49544992D01*
X86187500Y-49512500D01*
X86441053Y-49512500D01*
X86804160Y-49875607D01*
X86804161Y-49875607D01*
X86812833Y-49861807D01*
X86872378Y-49691638D01*
X86892562Y-49512502D01*
X86892562Y-49512497D01*
X86872378Y-49333361D01*
X86872377Y-49333358D01*
X86855456Y-49285000D01*
X93087040Y-49285000D01*
X93106826Y-49473256D01*
X93106827Y-49473259D01*
X93165318Y-49653277D01*
X93165321Y-49653284D01*
X93259967Y-49817216D01*
X93380089Y-49950625D01*
X93386629Y-49957888D01*
X93539765Y-50069148D01*
X93539770Y-50069151D01*
X93712692Y-50146142D01*
X93712697Y-50146144D01*
X93897854Y-50185500D01*
X93897855Y-50185500D01*
X94087144Y-50185500D01*
X94087146Y-50185500D01*
X94272303Y-50146144D01*
X94445230Y-50069151D01*
X94598371Y-49957888D01*
X94725033Y-49817216D01*
X94734973Y-49800000D01*
X108829540Y-49800000D01*
X108849326Y-49988256D01*
X108849327Y-49988259D01*
X108907818Y-50168277D01*
X108907821Y-50168284D01*
X109002467Y-50332216D01*
X109068107Y-50405116D01*
X109129129Y-50472888D01*
X109282265Y-50584148D01*
X109282270Y-50584151D01*
X109455192Y-50661142D01*
X109455197Y-50661144D01*
X109640354Y-50700500D01*
X109640355Y-50700500D01*
X109829644Y-50700500D01*
X109829646Y-50700500D01*
X110014803Y-50661144D01*
X110187730Y-50584151D01*
X110340871Y-50472888D01*
X110467533Y-50332216D01*
X110500567Y-50274999D01*
X110565429Y-50162656D01*
X110568074Y-50164183D01*
X110604603Y-50120994D01*
X110671402Y-50100509D01*
X110672885Y-50100500D01*
X110729644Y-50100500D01*
X110729646Y-50100500D01*
X110881892Y-50068139D01*
X110951557Y-50073455D01*
X111007291Y-50115592D01*
X111031396Y-50181172D01*
X111016219Y-50249373D01*
X110980557Y-50289746D01*
X110929131Y-50327109D01*
X110929129Y-50327111D01*
X110802466Y-50467785D01*
X110707821Y-50631715D01*
X110707818Y-50631722D01*
X110669095Y-50750901D01*
X110649326Y-50811744D01*
X110629540Y-51000000D01*
X110649326Y-51188256D01*
X110649327Y-51188259D01*
X110707818Y-51368277D01*
X110707821Y-51368284D01*
X110802467Y-51532216D01*
X110924533Y-51667784D01*
X110929129Y-51672888D01*
X111082265Y-51784148D01*
X111082270Y-51784151D01*
X111255191Y-51861142D01*
X111255193Y-51861142D01*
X111255197Y-51861144D01*
X111341078Y-51879398D01*
X111402556Y-51912588D01*
X111436333Y-51973751D01*
X111438615Y-52013647D01*
X111429540Y-52099999D01*
X111429540Y-52100000D01*
X111449326Y-52288256D01*
X111449327Y-52288259D01*
X111507818Y-52468277D01*
X111507821Y-52468284D01*
X111602467Y-52632216D01*
X111692506Y-52732214D01*
X111729129Y-52772888D01*
X111882265Y-52884148D01*
X111882270Y-52884151D01*
X112055192Y-52961142D01*
X112055197Y-52961144D01*
X112240354Y-53000500D01*
X112240355Y-53000500D01*
X112429644Y-53000500D01*
X112429646Y-53000500D01*
X112614803Y-52961144D01*
X112787730Y-52884151D01*
X112940871Y-52772888D01*
X113067533Y-52632216D01*
X113162179Y-52468284D01*
X113220674Y-52288256D01*
X113240460Y-52100000D01*
X113220674Y-51911744D01*
X113162179Y-51731716D01*
X113067533Y-51567784D01*
X112940871Y-51427112D01*
X112925369Y-51415849D01*
X112787734Y-51315851D01*
X112787729Y-51315848D01*
X112614807Y-51238857D01*
X112614802Y-51238855D01*
X112528924Y-51220602D01*
X112467442Y-51187410D01*
X112433666Y-51126247D01*
X112431384Y-51086351D01*
X112440460Y-51000000D01*
X112420674Y-50811744D01*
X112362179Y-50631716D01*
X112267533Y-50467784D01*
X112140871Y-50327112D01*
X112132236Y-50320838D01*
X111987734Y-50215851D01*
X111987729Y-50215848D01*
X111814807Y-50138857D01*
X111814802Y-50138855D01*
X111669001Y-50107865D01*
X111629646Y-50099500D01*
X111440354Y-50099500D01*
X111440353Y-50099500D01*
X111288108Y-50131860D01*
X111218441Y-50126544D01*
X111162708Y-50084407D01*
X111138603Y-50018827D01*
X111153780Y-49950625D01*
X111189442Y-49910253D01*
X111240871Y-49872888D01*
X111367533Y-49732216D01*
X111462179Y-49568284D01*
X111520674Y-49388256D01*
X111528951Y-49309499D01*
X111555535Y-49244885D01*
X111612832Y-49204900D01*
X111626492Y-49201170D01*
X111629644Y-49200500D01*
X111629646Y-49200500D01*
X111814803Y-49161144D01*
X111987730Y-49084151D01*
X112140871Y-48972888D01*
X112267533Y-48832216D01*
X112362179Y-48668284D01*
X112420674Y-48488256D01*
X112440460Y-48300000D01*
X112433569Y-48234437D01*
X112446139Y-48165710D01*
X112493871Y-48114686D01*
X112531099Y-48100191D01*
X112714803Y-48061144D01*
X112714807Y-48061142D01*
X112714808Y-48061142D01*
X112777258Y-48033337D01*
X112887730Y-47984151D01*
X113040871Y-47872888D01*
X113167533Y-47732216D01*
X113262179Y-47568284D01*
X113320674Y-47388256D01*
X113340460Y-47200000D01*
X113320674Y-47011744D01*
X113262179Y-46831716D01*
X113167533Y-46667784D01*
X113040871Y-46527112D01*
X113040870Y-46527111D01*
X112887734Y-46415851D01*
X112887729Y-46415848D01*
X112714807Y-46338857D01*
X112714802Y-46338855D01*
X112569001Y-46307865D01*
X112529646Y-46299500D01*
X112340354Y-46299500D01*
X112307897Y-46306398D01*
X112155197Y-46338855D01*
X112155192Y-46338857D01*
X111982270Y-46415848D01*
X111982265Y-46415851D01*
X111829129Y-46527111D01*
X111702466Y-46667785D01*
X111607821Y-46831715D01*
X111607818Y-46831722D01*
X111551486Y-47005095D01*
X111549326Y-47011744D01*
X111536827Y-47130665D01*
X111529540Y-47200000D01*
X111536430Y-47265561D01*
X111523860Y-47334291D01*
X111476127Y-47385314D01*
X111438890Y-47399811D01*
X111255197Y-47438855D01*
X111255192Y-47438857D01*
X111082270Y-47515848D01*
X111082265Y-47515851D01*
X110929129Y-47627111D01*
X110802466Y-47767785D01*
X110707821Y-47931715D01*
X110707818Y-47931722D01*
X110649325Y-48111744D01*
X110641048Y-48190501D01*
X110614463Y-48255115D01*
X110557166Y-48295100D01*
X110543508Y-48298829D01*
X110355197Y-48338855D01*
X110355192Y-48338857D01*
X110182270Y-48415848D01*
X110182265Y-48415851D01*
X110029129Y-48527111D01*
X109902465Y-48667785D01*
X109804571Y-48837344D01*
X109801925Y-48835816D01*
X109765397Y-48879006D01*
X109698598Y-48899491D01*
X109697115Y-48899500D01*
X109640354Y-48899500D01*
X109607897Y-48906398D01*
X109455197Y-48938855D01*
X109455192Y-48938857D01*
X109282270Y-49015848D01*
X109282265Y-49015851D01*
X109129129Y-49127111D01*
X109002466Y-49267785D01*
X108907821Y-49431715D01*
X108907818Y-49431722D01*
X108863449Y-49568277D01*
X108849326Y-49611744D01*
X108829540Y-49800000D01*
X94734973Y-49800000D01*
X94819679Y-49653284D01*
X94878174Y-49473256D01*
X94897960Y-49285000D01*
X94878174Y-49096744D01*
X94819679Y-48916716D01*
X94725033Y-48752784D01*
X94598371Y-48612112D01*
X94598370Y-48612111D01*
X94445234Y-48500851D01*
X94445229Y-48500848D01*
X94272307Y-48423857D01*
X94272302Y-48423855D01*
X94126501Y-48392865D01*
X94087146Y-48384500D01*
X93897854Y-48384500D01*
X93869668Y-48390491D01*
X93712697Y-48423855D01*
X93712692Y-48423857D01*
X93539770Y-48500848D01*
X93539765Y-48500851D01*
X93386629Y-48612111D01*
X93259966Y-48752785D01*
X93165321Y-48916715D01*
X93165318Y-48916722D01*
X93108086Y-49092866D01*
X93106826Y-49096744D01*
X93087040Y-49285000D01*
X86855456Y-49285000D01*
X86812837Y-49163201D01*
X86812835Y-49163197D01*
X86804160Y-49149391D01*
X86441053Y-49512499D01*
X86441053Y-49512500D01*
X86187500Y-49512500D01*
X86187500Y-49480008D01*
X86149303Y-49427435D01*
X86103338Y-49412500D01*
X86071662Y-49412500D01*
X86025697Y-49427435D01*
X85987500Y-49480008D01*
X85987500Y-49544992D01*
X85701455Y-49544992D01*
X85733947Y-49512500D01*
X85325000Y-49103553D01*
X84916053Y-49512500D01*
X84662500Y-49512500D01*
X84662500Y-49480008D01*
X84624303Y-49427435D01*
X84578338Y-49412500D01*
X84546662Y-49412500D01*
X84500697Y-49427435D01*
X84462500Y-49480008D01*
X84462500Y-49544992D01*
X84176455Y-49544992D01*
X84208947Y-49512500D01*
X83800000Y-49103553D01*
X83391053Y-49512500D01*
X83137500Y-49512500D01*
X83137500Y-49480008D01*
X83099303Y-49427435D01*
X83053338Y-49412500D01*
X83021662Y-49412500D01*
X82975697Y-49427435D01*
X82937500Y-49480008D01*
X82937500Y-49544992D01*
X82651455Y-49544992D01*
X82683947Y-49512500D01*
X82683947Y-49512499D01*
X82320838Y-49149390D01*
X82320838Y-49149391D01*
X82312164Y-49163196D01*
X82252622Y-49333358D01*
X82252621Y-49333361D01*
X82232438Y-49512497D01*
X82232438Y-49512502D01*
X78371731Y-49512502D01*
X79088395Y-48795838D01*
X82674390Y-48795838D01*
X83037499Y-49158947D01*
X83413955Y-48782492D01*
X83700000Y-48782492D01*
X83738197Y-48835065D01*
X83784162Y-48850000D01*
X83815838Y-48850000D01*
X83861803Y-48835065D01*
X83900000Y-48782492D01*
X83900000Y-48750000D01*
X84153553Y-48750000D01*
X84562499Y-49158947D01*
X84938955Y-48782492D01*
X85225000Y-48782492D01*
X85263197Y-48835065D01*
X85309162Y-48850000D01*
X85340838Y-48850000D01*
X85386803Y-48835065D01*
X85425000Y-48782492D01*
X85425000Y-48750000D01*
X85678553Y-48750000D01*
X86087500Y-49158947D01*
X86087501Y-49158947D01*
X86450608Y-48795838D01*
X86450608Y-48795837D01*
X86436808Y-48787167D01*
X86436798Y-48787162D01*
X86266641Y-48727622D01*
X86266638Y-48727621D01*
X86224015Y-48722819D01*
X86159602Y-48695752D01*
X86120047Y-48638157D01*
X86114680Y-48613482D01*
X86109877Y-48570859D01*
X86050337Y-48400701D01*
X86050335Y-48400697D01*
X86041660Y-48386891D01*
X85678553Y-48749999D01*
X85678553Y-48750000D01*
X85425000Y-48750000D01*
X85425000Y-48717508D01*
X85386803Y-48664935D01*
X85340838Y-48650000D01*
X85309162Y-48650000D01*
X85263197Y-48664935D01*
X85225000Y-48717508D01*
X85225000Y-48782492D01*
X84938955Y-48782492D01*
X84971447Y-48750000D01*
X84971447Y-48749999D01*
X84608338Y-48386890D01*
X84576392Y-48390491D01*
X84548623Y-48390491D01*
X84516661Y-48386890D01*
X84153553Y-48749999D01*
X84153553Y-48750000D01*
X83900000Y-48750000D01*
X83900000Y-48717508D01*
X83861803Y-48664935D01*
X83815838Y-48650000D01*
X83784162Y-48650000D01*
X83738197Y-48664935D01*
X83700000Y-48717508D01*
X83700000Y-48782492D01*
X83413955Y-48782492D01*
X83446447Y-48750000D01*
X83446447Y-48749999D01*
X83083338Y-48386890D01*
X83083338Y-48386891D01*
X83074665Y-48400695D01*
X83015122Y-48570859D01*
X83010319Y-48613484D01*
X82983252Y-48677898D01*
X82925656Y-48717452D01*
X82900984Y-48722819D01*
X82858359Y-48727622D01*
X82688195Y-48787165D01*
X82674391Y-48795838D01*
X82674390Y-48795838D01*
X79088395Y-48795838D01*
X79850895Y-48033338D01*
X83436890Y-48033338D01*
X83800000Y-48396447D01*
X83800001Y-48396447D01*
X84163108Y-48033338D01*
X84961890Y-48033338D01*
X85325000Y-48396447D01*
X85325001Y-48396447D01*
X85688108Y-48033338D01*
X85688108Y-48033337D01*
X85674308Y-48024667D01*
X85674298Y-48024662D01*
X85504141Y-47965122D01*
X85504138Y-47965121D01*
X85325003Y-47944938D01*
X85324997Y-47944938D01*
X85145861Y-47965121D01*
X85145858Y-47965122D01*
X84975696Y-48024664D01*
X84961891Y-48033338D01*
X84961890Y-48033338D01*
X84163108Y-48033338D01*
X84163108Y-48033337D01*
X84149308Y-48024667D01*
X84149298Y-48024662D01*
X83979141Y-47965122D01*
X83979138Y-47965121D01*
X83800003Y-47944938D01*
X83799997Y-47944938D01*
X83620861Y-47965121D01*
X83620858Y-47965122D01*
X83450696Y-48024664D01*
X83436891Y-48033338D01*
X83436890Y-48033338D01*
X79850895Y-48033338D01*
X80386659Y-47497574D01*
X80437403Y-47466885D01*
X81753961Y-47056125D01*
X81790893Y-47050499D01*
X82650002Y-47050499D01*
X82650008Y-47050499D01*
X82752797Y-47039999D01*
X82858141Y-47005090D01*
X82862019Y-47003945D01*
X82895995Y-46995110D01*
X83430482Y-46770879D01*
X83499916Y-46763097D01*
X83515224Y-46766802D01*
X83906253Y-46888231D01*
X83937575Y-46894413D01*
X83945067Y-46896386D01*
X84002292Y-46915349D01*
X84101655Y-46925500D01*
X84698344Y-46925499D01*
X84698352Y-46925498D01*
X84698355Y-46925498D01*
X84752760Y-46919940D01*
X84797708Y-46915349D01*
X84958697Y-46862003D01*
X85103044Y-46772968D01*
X85222968Y-46653044D01*
X85312003Y-46508697D01*
X85365349Y-46347708D01*
X85375500Y-46248345D01*
X85375499Y-45701656D01*
X85372633Y-45673603D01*
X85365349Y-45602292D01*
X85365348Y-45602289D01*
X85351545Y-45560635D01*
X85323169Y-45475000D01*
X93087040Y-45475000D01*
X93106826Y-45663256D01*
X93106827Y-45663259D01*
X93165318Y-45843277D01*
X93165321Y-45843284D01*
X93259967Y-46007216D01*
X93373976Y-46133835D01*
X93386629Y-46147888D01*
X93539765Y-46259148D01*
X93539770Y-46259151D01*
X93712692Y-46336142D01*
X93712697Y-46336144D01*
X93897854Y-46375500D01*
X93897855Y-46375500D01*
X94087144Y-46375500D01*
X94087146Y-46375500D01*
X94272303Y-46336144D01*
X94445230Y-46259151D01*
X94598371Y-46147888D01*
X94725033Y-46007216D01*
X94819679Y-45843284D01*
X94878174Y-45663256D01*
X94897960Y-45475000D01*
X94878174Y-45286744D01*
X94819679Y-45106716D01*
X94758067Y-45000000D01*
X106529540Y-45000000D01*
X106549326Y-45188256D01*
X106549327Y-45188259D01*
X106607818Y-45368277D01*
X106607821Y-45368284D01*
X106702467Y-45532216D01*
X106792102Y-45631765D01*
X106829129Y-45672888D01*
X106982265Y-45784148D01*
X106982270Y-45784151D01*
X107155192Y-45861142D01*
X107155197Y-45861144D01*
X107340354Y-45900500D01*
X107340355Y-45900500D01*
X107529644Y-45900500D01*
X107529646Y-45900500D01*
X107714803Y-45861144D01*
X107887730Y-45784151D01*
X108040871Y-45672888D01*
X108167533Y-45532216D01*
X108262179Y-45368284D01*
X108320674Y-45188256D01*
X108340460Y-45000000D01*
X108320674Y-44811744D01*
X108262179Y-44631716D01*
X108167533Y-44467784D01*
X108040871Y-44327112D01*
X108018030Y-44310517D01*
X107887734Y-44215851D01*
X107887729Y-44215848D01*
X107714807Y-44138857D01*
X107714802Y-44138855D01*
X107569001Y-44107865D01*
X107529646Y-44099500D01*
X107340354Y-44099500D01*
X107307897Y-44106398D01*
X107155197Y-44138855D01*
X107155192Y-44138857D01*
X106982270Y-44215848D01*
X106982265Y-44215851D01*
X106829129Y-44327111D01*
X106702466Y-44467785D01*
X106607821Y-44631715D01*
X106607818Y-44631722D01*
X106549327Y-44811740D01*
X106549326Y-44811744D01*
X106529540Y-45000000D01*
X94758067Y-45000000D01*
X94725033Y-44942784D01*
X94598371Y-44802112D01*
X94598370Y-44802111D01*
X94445234Y-44690851D01*
X94445229Y-44690848D01*
X94272307Y-44613857D01*
X94272302Y-44613855D01*
X94120996Y-44581695D01*
X94087146Y-44574500D01*
X93897854Y-44574500D01*
X93865397Y-44581398D01*
X93712697Y-44613855D01*
X93712692Y-44613857D01*
X93539770Y-44690848D01*
X93539765Y-44690851D01*
X93386629Y-44802111D01*
X93259966Y-44942785D01*
X93165321Y-45106715D01*
X93165318Y-45106722D01*
X93107339Y-45285165D01*
X93106826Y-45286744D01*
X93087040Y-45475000D01*
X85323169Y-45475000D01*
X85312003Y-45441303D01*
X85311999Y-45441297D01*
X85311998Y-45441294D01*
X85222970Y-45296959D01*
X85222967Y-45296955D01*
X85213339Y-45287327D01*
X85179854Y-45226004D01*
X85184838Y-45156312D01*
X85213345Y-45111959D01*
X85222573Y-45102731D01*
X85311542Y-44958492D01*
X85311547Y-44958481D01*
X85364855Y-44797606D01*
X85374999Y-44698322D01*
X85375000Y-44698309D01*
X85375000Y-44675000D01*
X83425001Y-44675000D01*
X83425001Y-44698322D01*
X83435144Y-44797607D01*
X83488452Y-44958481D01*
X83488457Y-44958490D01*
X83489378Y-44959984D01*
X83489697Y-44961150D01*
X83491507Y-44965032D01*
X83490843Y-44965341D01*
X83507818Y-45027377D01*
X83486895Y-45094040D01*
X83433252Y-45138809D01*
X83363922Y-45147470D01*
X83335869Y-45139425D01*
X82890672Y-44952655D01*
X82884792Y-44950344D01*
X82884793Y-44950345D01*
X82821796Y-44930239D01*
X82815472Y-44928926D01*
X82815527Y-44928657D01*
X82797443Y-44924794D01*
X82752800Y-44910001D01*
X82650016Y-44899500D01*
X82650009Y-44899500D01*
X81875754Y-44899500D01*
X81828187Y-44890014D01*
X81799695Y-44878179D01*
X81349005Y-44690969D01*
X80886273Y-44498757D01*
X80846159Y-44471924D01*
X80824235Y-44450000D01*
X80780320Y-44406085D01*
X80774980Y-44399995D01*
X80753282Y-44371718D01*
X80688975Y-44322373D01*
X80647774Y-44265947D01*
X80643619Y-44196201D01*
X80655525Y-44175000D01*
X83425000Y-44175000D01*
X84150000Y-44175000D01*
X84150000Y-43475000D01*
X84650000Y-43475000D01*
X84650000Y-44175000D01*
X85374999Y-44175000D01*
X85374999Y-44151692D01*
X85374998Y-44151677D01*
X85364855Y-44052392D01*
X85311547Y-43891518D01*
X85311542Y-43891507D01*
X85222575Y-43747271D01*
X85222572Y-43747267D01*
X85102732Y-43627427D01*
X85102728Y-43627424D01*
X84958492Y-43538457D01*
X84958481Y-43538452D01*
X84797606Y-43485144D01*
X84698322Y-43475000D01*
X84650000Y-43475000D01*
X84150000Y-43475000D01*
X84149999Y-43474999D01*
X84101693Y-43475000D01*
X84101675Y-43475001D01*
X84002392Y-43485144D01*
X83841518Y-43538452D01*
X83841507Y-43538457D01*
X83697271Y-43627424D01*
X83697267Y-43627427D01*
X83577427Y-43747267D01*
X83577424Y-43747271D01*
X83488457Y-43891507D01*
X83488452Y-43891518D01*
X83435144Y-44052393D01*
X83425000Y-44151677D01*
X83425000Y-44175000D01*
X80655525Y-44175000D01*
X80677832Y-44135280D01*
X80739549Y-44102528D01*
X80764463Y-44099999D01*
X81249999Y-44099999D01*
X81250000Y-44099998D01*
X81250000Y-43275000D01*
X81750000Y-43275000D01*
X81750000Y-44099999D01*
X82649972Y-44099999D01*
X82649986Y-44099998D01*
X82752697Y-44089505D01*
X82919119Y-44034358D01*
X82919124Y-44034356D01*
X83068345Y-43942315D01*
X83192315Y-43818345D01*
X83284356Y-43669124D01*
X83284358Y-43669119D01*
X83339505Y-43502697D01*
X83339506Y-43502690D01*
X83349999Y-43399986D01*
X83350000Y-43399973D01*
X83350000Y-43275000D01*
X81750000Y-43275000D01*
X81250000Y-43275000D01*
X79650001Y-43275000D01*
X79650001Y-43399986D01*
X79660494Y-43502697D01*
X79715641Y-43669119D01*
X79715643Y-43669124D01*
X79807684Y-43818345D01*
X79931654Y-43942315D01*
X79976475Y-43969961D01*
X80023199Y-44021909D01*
X80034422Y-44090872D01*
X80006578Y-44154954D01*
X79948510Y-44193810D01*
X79911378Y-44199500D01*
X75796606Y-44199500D01*
X75729567Y-44179815D01*
X75719990Y-44172999D01*
X75563466Y-44050000D01*
X75470722Y-43977120D01*
X75441802Y-43944721D01*
X75402712Y-43881344D01*
X75278656Y-43757288D01*
X75135719Y-43669124D01*
X75129336Y-43665187D01*
X75129331Y-43665185D01*
X75106634Y-43657664D01*
X74962797Y-43610001D01*
X74962795Y-43610000D01*
X74860010Y-43599500D01*
X74234998Y-43599500D01*
X74234980Y-43599501D01*
X74132203Y-43610000D01*
X74132200Y-43610001D01*
X73965668Y-43665185D01*
X73965663Y-43665187D01*
X73816342Y-43757289D01*
X73722681Y-43850951D01*
X73661358Y-43884436D01*
X73591666Y-43879452D01*
X73547319Y-43850951D01*
X73453657Y-43757289D01*
X73453656Y-43757288D01*
X73310719Y-43669124D01*
X73304336Y-43665187D01*
X73304331Y-43665185D01*
X73281634Y-43657664D01*
X73137797Y-43610001D01*
X73137795Y-43610000D01*
X73035010Y-43599500D01*
X72409998Y-43599500D01*
X72409980Y-43599501D01*
X72307203Y-43610000D01*
X72307200Y-43610001D01*
X72140668Y-43665185D01*
X72140663Y-43665187D01*
X71991342Y-43757289D01*
X71862181Y-43886451D01*
X71860333Y-43884603D01*
X71813233Y-43917930D01*
X71743433Y-43921045D01*
X71715262Y-43910351D01*
X70781677Y-43418829D01*
X70749576Y-43401457D01*
X70739810Y-43396172D01*
X70739809Y-43396171D01*
X70739806Y-43396170D01*
X70739804Y-43396169D01*
X70692813Y-43380037D01*
X70680117Y-43375226D01*
X70670962Y-43371758D01*
X70670960Y-43371757D01*
X70670956Y-43371756D01*
X70664098Y-43369983D01*
X70659502Y-43368602D01*
X70586704Y-43343610D01*
X70504616Y-43315429D01*
X70259335Y-43274500D01*
X70010665Y-43274500D01*
X69765383Y-43315429D01*
X69530197Y-43396169D01*
X69530188Y-43396172D01*
X69311493Y-43514524D01*
X69115257Y-43667261D01*
X68946833Y-43850217D01*
X68810826Y-44058393D01*
X68710936Y-44286118D01*
X68649892Y-44527175D01*
X68649890Y-44527187D01*
X68629357Y-44774994D01*
X68629357Y-44775005D01*
X68649890Y-45022812D01*
X68649892Y-45022824D01*
X68710936Y-45263881D01*
X68810826Y-45491606D01*
X68946833Y-45699782D01*
X68946836Y-45699785D01*
X69115256Y-45882738D01*
X69311491Y-46035474D01*
X69311493Y-46035475D01*
X69489890Y-46132019D01*
X69530190Y-46153828D01*
X69765386Y-46234571D01*
X70010665Y-46275500D01*
X70259335Y-46275500D01*
X70504614Y-46234571D01*
X70739810Y-46153828D01*
X70758631Y-46143642D01*
X71707290Y-45673602D01*
X71776097Y-45661478D01*
X71840539Y-45688478D01*
X71862365Y-45713334D01*
X71862805Y-45712987D01*
X71867286Y-45718654D01*
X71872066Y-45723434D01*
X71884603Y-45738092D01*
X71916688Y-45782126D01*
X72185719Y-46151353D01*
X72209288Y-46217124D01*
X72209500Y-46224373D01*
X72209500Y-46400554D01*
X72193448Y-46461572D01*
X72100265Y-46626423D01*
X72050140Y-46675098D01*
X71981656Y-46688946D01*
X71927219Y-46670943D01*
X71793488Y-46588455D01*
X71793481Y-46588452D01*
X71632606Y-46535144D01*
X71533322Y-46525000D01*
X71510000Y-46525000D01*
X71510000Y-48474999D01*
X71533308Y-48474999D01*
X71533322Y-48474998D01*
X71632607Y-48464855D01*
X71793481Y-48411547D01*
X71793492Y-48411542D01*
X71937731Y-48322573D01*
X71946959Y-48313345D01*
X72008279Y-48279856D01*
X72077971Y-48284835D01*
X72122327Y-48313339D01*
X72131955Y-48322967D01*
X72131959Y-48322970D01*
X72276294Y-48411998D01*
X72276297Y-48411999D01*
X72276303Y-48412003D01*
X72437292Y-48465349D01*
X72536655Y-48475500D01*
X73083344Y-48475499D01*
X73083352Y-48475498D01*
X73083355Y-48475498D01*
X73137760Y-48469940D01*
X73182708Y-48465349D01*
X73343697Y-48412003D01*
X73488044Y-48322968D01*
X73607968Y-48203044D01*
X73697003Y-48058697D01*
X73750349Y-47897708D01*
X73760500Y-47798345D01*
X73760499Y-47201656D01*
X73760200Y-47198732D01*
X73750349Y-47102292D01*
X73735051Y-47056126D01*
X73732754Y-47049193D01*
X73731917Y-47046456D01*
X73730225Y-47040431D01*
X73730224Y-47040420D01*
X73728288Y-47035455D01*
X73727199Y-47032432D01*
X73720344Y-47011744D01*
X73697003Y-46941303D01*
X73688198Y-46927028D01*
X73679894Y-46910357D01*
X73679870Y-46910369D01*
X73679264Y-46909092D01*
X73678199Y-46906954D01*
X73678135Y-46906790D01*
X73677969Y-46906363D01*
X73426552Y-46461573D01*
X73410500Y-46400555D01*
X73410500Y-46160925D01*
X73421798Y-46109212D01*
X73471680Y-46000499D01*
X73555375Y-45818093D01*
X73601224Y-45765372D01*
X73668298Y-45745807D01*
X73735302Y-45765611D01*
X73755758Y-45782126D01*
X73816344Y-45842712D01*
X73965666Y-45934814D01*
X74132203Y-45989999D01*
X74234991Y-46000500D01*
X74860008Y-46000499D01*
X74860016Y-46000498D01*
X74860019Y-46000498D01*
X74922758Y-45994089D01*
X74962797Y-45989999D01*
X75129334Y-45934814D01*
X75278656Y-45842712D01*
X75402712Y-45718656D01*
X75441802Y-45655277D01*
X75470726Y-45622875D01*
X75719991Y-45427001D01*
X75784865Y-45401057D01*
X75796606Y-45400500D01*
X79532567Y-45400500D01*
X79599606Y-45420185D01*
X79645361Y-45472989D01*
X79655924Y-45537102D01*
X79654405Y-45551969D01*
X79649500Y-45599983D01*
X79649500Y-46119140D01*
X79646852Y-46144627D01*
X79549610Y-46607630D01*
X79516567Y-46669192D01*
X79515939Y-46669824D01*
X74338909Y-51846854D01*
X74316868Y-51864375D01*
X73793361Y-52191015D01*
X73740327Y-52209171D01*
X73732208Y-52210000D01*
X73732202Y-52210001D01*
X73565668Y-52265185D01*
X73565663Y-52265187D01*
X73416342Y-52357289D01*
X73322681Y-52450951D01*
X73261358Y-52484436D01*
X73191666Y-52479452D01*
X73147319Y-52450951D01*
X73053657Y-52357289D01*
X73053656Y-52357288D01*
X72904334Y-52265186D01*
X72737797Y-52210001D01*
X72737795Y-52210000D01*
X72635010Y-52199500D01*
X72009998Y-52199500D01*
X72009980Y-52199501D01*
X71907203Y-52210000D01*
X71907200Y-52210001D01*
X71740668Y-52265185D01*
X71740663Y-52265187D01*
X71591342Y-52357289D01*
X71467289Y-52481342D01*
X71375185Y-52630667D01*
X71365895Y-52658702D01*
X71334263Y-52708956D01*
X71157200Y-52879696D01*
X71105502Y-52909575D01*
X69816510Y-53281477D01*
X69809524Y-53283062D01*
X69765390Y-53290428D01*
X69765380Y-53290430D01*
X69660969Y-53326274D01*
X69658028Y-53327203D01*
X69618046Y-53338740D01*
X69610976Y-53340992D01*
X69604769Y-53342970D01*
X69597912Y-53345364D01*
X69596975Y-53345692D01*
X69573978Y-53355892D01*
X69568971Y-53357857D01*
X69530192Y-53371171D01*
X69530188Y-53371172D01*
X69311493Y-53489524D01*
X69115257Y-53642261D01*
X68946833Y-53825217D01*
X68810826Y-54033393D01*
X68710936Y-54261118D01*
X68649892Y-54502175D01*
X68649890Y-54502187D01*
X68629357Y-54749994D01*
X68629357Y-54750005D01*
X66000000Y-54750005D01*
X66000000Y-51275005D01*
X68629859Y-51275005D01*
X68650385Y-51522729D01*
X68650387Y-51522738D01*
X68711412Y-51763717D01*
X68811266Y-51991364D01*
X68911564Y-52144882D01*
X69572226Y-51484219D01*
X69610901Y-51577588D01*
X69707075Y-51702925D01*
X69832412Y-51799099D01*
X69925779Y-51837772D01*
X69264942Y-52498609D01*
X69311768Y-52535055D01*
X69311770Y-52535056D01*
X69530385Y-52653364D01*
X69530396Y-52653369D01*
X69765506Y-52734083D01*
X70010707Y-52775000D01*
X70259293Y-52775000D01*
X70504493Y-52734083D01*
X70739603Y-52653369D01*
X70739614Y-52653364D01*
X70958228Y-52535057D01*
X70958231Y-52535055D01*
X71005056Y-52498609D01*
X70344220Y-51837773D01*
X70437588Y-51799099D01*
X70562925Y-51702925D01*
X70659099Y-51577589D01*
X70697772Y-51484220D01*
X71358434Y-52144882D01*
X71458731Y-51991369D01*
X71558587Y-51763717D01*
X71619612Y-51522738D01*
X71619614Y-51522729D01*
X71640141Y-51275005D01*
X71640141Y-51274994D01*
X71619614Y-51027270D01*
X71619612Y-51027261D01*
X71558587Y-50786282D01*
X71458731Y-50558630D01*
X71358434Y-50405116D01*
X70697772Y-51065778D01*
X70659099Y-50972412D01*
X70562925Y-50847075D01*
X70437588Y-50750901D01*
X70344220Y-50712227D01*
X71005057Y-50051390D01*
X71005056Y-50051389D01*
X70958229Y-50014943D01*
X70739614Y-49896635D01*
X70739603Y-49896630D01*
X70504493Y-49815916D01*
X70259293Y-49775000D01*
X70010707Y-49775000D01*
X69765506Y-49815916D01*
X69530396Y-49896630D01*
X69530390Y-49896632D01*
X69311761Y-50014949D01*
X69264942Y-50051388D01*
X69264942Y-50051390D01*
X69925779Y-50712227D01*
X69832412Y-50750901D01*
X69707075Y-50847075D01*
X69610901Y-50972411D01*
X69572227Y-51065779D01*
X68911564Y-50405116D01*
X68811267Y-50558632D01*
X68711412Y-50786282D01*
X68650387Y-51027261D01*
X68650385Y-51027270D01*
X68629859Y-51274994D01*
X68629859Y-51275005D01*
X66000000Y-51275005D01*
X66000000Y-50000000D01*
X50124000Y-50000000D01*
X50056961Y-49980315D01*
X50011206Y-49927511D01*
X50000000Y-49876000D01*
X50000000Y-48880095D01*
X50019685Y-48813056D01*
X50072489Y-48767301D01*
X50141647Y-48757357D01*
X50205203Y-48786382D01*
X50241706Y-48841091D01*
X50250185Y-48866680D01*
X50250187Y-48866685D01*
X50281046Y-48916715D01*
X50342288Y-49016005D01*
X50466344Y-49140061D01*
X50615666Y-49232163D01*
X50782203Y-49287348D01*
X50884991Y-49297849D01*
X51740133Y-49297848D01*
X51797541Y-49311938D01*
X51839602Y-49333909D01*
X51872624Y-49343356D01*
X51880016Y-49345989D01*
X51911591Y-49359539D01*
X51911592Y-49359540D01*
X51924705Y-49362234D01*
X51971706Y-49371892D01*
X51976246Y-49373006D01*
X52035233Y-49389886D01*
X52069492Y-49392494D01*
X52077260Y-49393585D01*
X52110906Y-49400500D01*
X52110910Y-49400500D01*
X52172252Y-49400500D01*
X52176959Y-49400678D01*
X52204248Y-49402757D01*
X52238126Y-49405337D01*
X52238126Y-49405336D01*
X52238127Y-49405337D01*
X52272210Y-49400996D01*
X52280040Y-49400500D01*
X53507514Y-49400500D01*
X53551053Y-49408395D01*
X54250451Y-49670669D01*
X54250457Y-49670670D01*
X54250458Y-49670671D01*
X54302678Y-49685080D01*
X54307833Y-49686749D01*
X54327517Y-49694091D01*
X54387127Y-49700500D01*
X54479292Y-49700499D01*
X54485796Y-49700736D01*
X54485799Y-49700735D01*
X54486454Y-49700759D01*
X54491322Y-49700499D01*
X56082871Y-49700499D01*
X56082872Y-49700499D01*
X56142483Y-49694091D01*
X56277331Y-49643796D01*
X56392546Y-49557546D01*
X56458559Y-49469362D01*
X56501526Y-49433193D01*
X56536683Y-49415279D01*
X56596119Y-49401804D01*
X56626483Y-49402573D01*
X56633708Y-49402757D01*
X56633708Y-49402756D01*
X56633712Y-49402757D01*
X56694102Y-49391932D01*
X56698761Y-49391280D01*
X56740956Y-49386988D01*
X56759787Y-49385074D01*
X56792576Y-49374786D01*
X56800189Y-49372918D01*
X56834002Y-49366858D01*
X56890970Y-49344101D01*
X56895402Y-49342524D01*
X56953937Y-49324159D01*
X56983976Y-49307484D01*
X56991057Y-49304122D01*
X57022966Y-49291377D01*
X57074203Y-49257608D01*
X57078200Y-49255187D01*
X57131851Y-49225409D01*
X57157917Y-49203030D01*
X57164192Y-49198300D01*
X57192868Y-49179402D01*
X57236266Y-49136002D01*
X57239685Y-49132834D01*
X57286244Y-49092866D01*
X57307280Y-49065688D01*
X57312450Y-49059818D01*
X58026883Y-48345385D01*
X58075562Y-48315361D01*
X58081664Y-48313339D01*
X58093697Y-48309352D01*
X58238044Y-48220317D01*
X58357968Y-48100393D01*
X58447003Y-47956046D01*
X58500349Y-47795057D01*
X58510500Y-47695694D01*
X58510499Y-47667435D01*
X58515282Y-47633326D01*
X58524886Y-47599767D01*
X58540337Y-47396873D01*
X58531202Y-47325148D01*
X58515264Y-47200002D01*
X62930034Y-47200002D01*
X62949858Y-47426599D01*
X62949860Y-47426610D01*
X63008730Y-47646317D01*
X63008734Y-47646326D01*
X63104865Y-47852481D01*
X63104866Y-47852483D01*
X63155973Y-47925471D01*
X63155974Y-47925472D01*
X63837046Y-47244399D01*
X63849835Y-47325148D01*
X63907359Y-47438045D01*
X63996955Y-47527641D01*
X64109852Y-47585165D01*
X64190599Y-47597953D01*
X63509526Y-48279025D01*
X63509526Y-48279026D01*
X63582512Y-48330131D01*
X63582516Y-48330133D01*
X63788673Y-48426265D01*
X63788682Y-48426269D01*
X64008389Y-48485139D01*
X64008400Y-48485141D01*
X64234998Y-48504966D01*
X64235002Y-48504966D01*
X64461599Y-48485141D01*
X64461610Y-48485139D01*
X64681317Y-48426269D01*
X64681331Y-48426264D01*
X64887478Y-48330136D01*
X64960472Y-48279025D01*
X64279401Y-47597953D01*
X64360148Y-47585165D01*
X64473045Y-47527641D01*
X64562641Y-47438045D01*
X64620165Y-47325148D01*
X64632953Y-47244400D01*
X65314025Y-47925472D01*
X65365136Y-47852478D01*
X65412922Y-47750000D01*
X70310001Y-47750000D01*
X70310001Y-47798322D01*
X70320144Y-47897607D01*
X70373452Y-48058481D01*
X70373457Y-48058492D01*
X70462424Y-48202728D01*
X70462427Y-48202732D01*
X70582267Y-48322572D01*
X70582271Y-48322575D01*
X70726507Y-48411542D01*
X70726518Y-48411547D01*
X70887393Y-48464855D01*
X70986683Y-48474999D01*
X71010000Y-48474998D01*
X71010000Y-47750000D01*
X70310001Y-47750000D01*
X65412922Y-47750000D01*
X65461264Y-47646331D01*
X65461269Y-47646317D01*
X65520139Y-47426610D01*
X65520141Y-47426599D01*
X65535592Y-47250000D01*
X70310000Y-47250000D01*
X71010000Y-47250000D01*
X71010000Y-46524999D01*
X70986693Y-46525000D01*
X70986674Y-46525001D01*
X70887392Y-46535144D01*
X70726518Y-46588452D01*
X70726507Y-46588457D01*
X70582271Y-46677424D01*
X70582267Y-46677427D01*
X70462427Y-46797267D01*
X70462424Y-46797271D01*
X70373457Y-46941507D01*
X70373452Y-46941518D01*
X70320144Y-47102393D01*
X70310000Y-47201677D01*
X70310000Y-47250000D01*
X65535592Y-47250000D01*
X65539966Y-47200002D01*
X65539966Y-47199997D01*
X65520141Y-46973400D01*
X65520139Y-46973389D01*
X65461269Y-46753682D01*
X65461265Y-46753673D01*
X65365133Y-46547516D01*
X65365131Y-46547512D01*
X65314026Y-46474526D01*
X65314025Y-46474526D01*
X64632953Y-47155598D01*
X64620165Y-47074852D01*
X64562641Y-46961955D01*
X64473045Y-46872359D01*
X64360148Y-46814835D01*
X64279400Y-46802046D01*
X64965646Y-46115799D01*
X64975492Y-46066807D01*
X65024107Y-46016624D01*
X65079633Y-46001981D01*
X65079576Y-46000900D01*
X65079571Y-46000854D01*
X65079573Y-46000853D01*
X65079564Y-46000676D01*
X65082857Y-46000499D01*
X65082872Y-46000499D01*
X65142483Y-45994091D01*
X65277331Y-45943796D01*
X65392546Y-45857546D01*
X65478796Y-45742331D01*
X65529091Y-45607483D01*
X65535500Y-45547873D01*
X65535499Y-43852128D01*
X65529686Y-43798053D01*
X65529091Y-43792516D01*
X65478797Y-43657671D01*
X65478793Y-43657664D01*
X65392547Y-43542455D01*
X65392544Y-43542452D01*
X65277335Y-43456206D01*
X65277328Y-43456202D01*
X65142482Y-43405908D01*
X65142483Y-43405908D01*
X65082883Y-43399501D01*
X65082881Y-43399500D01*
X65082873Y-43399500D01*
X65082864Y-43399500D01*
X63387129Y-43399500D01*
X63387123Y-43399501D01*
X63327516Y-43405908D01*
X63192671Y-43456202D01*
X63192664Y-43456206D01*
X63077455Y-43542452D01*
X63077452Y-43542455D01*
X62991206Y-43657664D01*
X62991202Y-43657671D01*
X62940908Y-43792517D01*
X62934705Y-43850217D01*
X62934501Y-43852123D01*
X62934500Y-43852135D01*
X62934500Y-45547870D01*
X62934501Y-45547876D01*
X62940908Y-45607483D01*
X62991202Y-45742328D01*
X62991206Y-45742335D01*
X63077452Y-45857544D01*
X63077455Y-45857547D01*
X63192664Y-45943793D01*
X63192671Y-45943797D01*
X63237618Y-45960561D01*
X63327517Y-45994091D01*
X63387127Y-46000500D01*
X63387153Y-46000499D01*
X63390453Y-46000678D01*
X63390372Y-46002183D01*
X63451672Y-46020112D01*
X63497483Y-46072867D01*
X63505016Y-46116463D01*
X64190600Y-46802046D01*
X64109852Y-46814835D01*
X63996955Y-46872359D01*
X63907359Y-46961955D01*
X63849835Y-47074852D01*
X63837046Y-47155599D01*
X63155973Y-46474526D01*
X63155972Y-46474527D01*
X63104868Y-46547513D01*
X63008734Y-46753673D01*
X63008730Y-46753682D01*
X62949860Y-46973389D01*
X62949858Y-46973400D01*
X62930034Y-47199997D01*
X62930034Y-47200002D01*
X58515264Y-47200002D01*
X58514631Y-47195028D01*
X58514630Y-47195026D01*
X58514630Y-47195021D01*
X58514628Y-47195015D01*
X58513708Y-47191049D01*
X58510499Y-47163020D01*
X58510499Y-47149011D01*
X58510498Y-47148993D01*
X58500349Y-47049641D01*
X58500348Y-47049638D01*
X58495648Y-47035455D01*
X58447003Y-46888652D01*
X58446999Y-46888646D01*
X58446998Y-46888643D01*
X58357970Y-46744308D01*
X58357967Y-46744304D01*
X58348339Y-46734676D01*
X58314854Y-46673353D01*
X58319838Y-46603661D01*
X58348345Y-46559308D01*
X58357573Y-46550080D01*
X58446542Y-46405841D01*
X58446547Y-46405830D01*
X58499855Y-46244955D01*
X58509999Y-46145671D01*
X58510000Y-46145658D01*
X58510000Y-46122349D01*
X56560001Y-46122349D01*
X56560001Y-46145671D01*
X56570144Y-46244956D01*
X56623452Y-46405830D01*
X56623457Y-46405841D01*
X56712424Y-46550077D01*
X56712427Y-46550081D01*
X56721660Y-46559314D01*
X56755145Y-46620637D01*
X56750161Y-46690329D01*
X56721663Y-46734673D01*
X56712033Y-46744302D01*
X56712031Y-46744305D01*
X56622999Y-46888646D01*
X56622995Y-46888655D01*
X56616986Y-46906790D01*
X56586962Y-46955464D01*
X56412991Y-47129435D01*
X56351668Y-47162920D01*
X56281976Y-47157936D01*
X56214434Y-47132743D01*
X56209519Y-47130665D01*
X56192552Y-47122614D01*
X56189687Y-47121727D01*
X56185941Y-47120567D01*
X56183406Y-47119948D01*
X56177451Y-47118494D01*
X56170486Y-47116353D01*
X56142481Y-47105908D01*
X56142483Y-47105908D01*
X56082883Y-47099501D01*
X56082881Y-47099500D01*
X56082873Y-47099500D01*
X56082865Y-47099500D01*
X54474915Y-47099500D01*
X54458487Y-47098044D01*
X54458471Y-47098204D01*
X54454058Y-47097737D01*
X54446578Y-47097483D01*
X54445113Y-47097434D01*
X54445109Y-47097434D01*
X54445108Y-47097434D01*
X54390994Y-47098495D01*
X54390990Y-47098496D01*
X54389015Y-47098929D01*
X54382366Y-47100011D01*
X54327526Y-47105907D01*
X54327517Y-47105909D01*
X54289210Y-47120195D01*
X54280823Y-47122666D01*
X54250460Y-47129327D01*
X53750441Y-47316834D01*
X53680758Y-47321942D01*
X53680548Y-47321896D01*
X53625702Y-47309967D01*
X53586962Y-47294340D01*
X53454334Y-47212535D01*
X53287797Y-47157350D01*
X53287795Y-47157349D01*
X53185010Y-47146849D01*
X50884998Y-47146849D01*
X50884981Y-47146850D01*
X50782203Y-47157349D01*
X50782200Y-47157350D01*
X50615668Y-47212534D01*
X50615663Y-47212536D01*
X50466342Y-47304638D01*
X50342289Y-47428691D01*
X50250187Y-47578012D01*
X50250185Y-47578017D01*
X50241706Y-47603607D01*
X50201933Y-47661052D01*
X50137417Y-47687875D01*
X50068641Y-47675560D01*
X50017442Y-47628017D01*
X50000000Y-47564603D01*
X50000000Y-45928506D01*
X50019685Y-45861467D01*
X50072489Y-45815712D01*
X50141647Y-45805768D01*
X50205203Y-45834793D01*
X50241706Y-45889503D01*
X50250640Y-45916466D01*
X50250643Y-45916473D01*
X50342684Y-46065694D01*
X50466654Y-46189664D01*
X50615875Y-46281705D01*
X50615880Y-46281707D01*
X50782302Y-46336854D01*
X50782309Y-46336855D01*
X50885019Y-46347348D01*
X51784999Y-46347348D01*
X52285000Y-46347348D01*
X53184972Y-46347348D01*
X53184986Y-46347347D01*
X53287697Y-46336854D01*
X53454119Y-46281707D01*
X53454124Y-46281705D01*
X53603345Y-46189664D01*
X53727315Y-46065694D01*
X53819356Y-45916473D01*
X53819358Y-45916468D01*
X53874505Y-45750046D01*
X53874506Y-45750039D01*
X53884999Y-45647335D01*
X53884999Y-45631765D01*
X53904680Y-45564724D01*
X53957482Y-45518966D01*
X54026639Y-45509019D01*
X54090197Y-45538041D01*
X54110574Y-45560635D01*
X54155972Y-45625471D01*
X54155974Y-45625472D01*
X54837046Y-44944399D01*
X54849835Y-45025148D01*
X54907359Y-45138045D01*
X54996955Y-45227641D01*
X55109852Y-45285165D01*
X55190599Y-45297953D01*
X54509526Y-45979025D01*
X54509526Y-45979026D01*
X54582512Y-46030131D01*
X54582516Y-46030133D01*
X54788673Y-46126265D01*
X54788682Y-46126269D01*
X55008389Y-46185139D01*
X55008400Y-46185141D01*
X55234998Y-46204966D01*
X55235002Y-46204966D01*
X55461599Y-46185141D01*
X55461610Y-46185139D01*
X55681317Y-46126269D01*
X55681331Y-46126264D01*
X55887478Y-46030136D01*
X55960472Y-45979025D01*
X55279401Y-45297953D01*
X55360148Y-45285165D01*
X55473045Y-45227641D01*
X55562641Y-45138045D01*
X55620165Y-45025148D01*
X55632953Y-44944400D01*
X56314025Y-45625472D01*
X56334425Y-45596339D01*
X56389002Y-45552714D01*
X56458500Y-45545520D01*
X56520855Y-45577043D01*
X56529647Y-45591996D01*
X56560000Y-45622349D01*
X57285000Y-45622349D01*
X57285000Y-44922349D01*
X57785000Y-44922349D01*
X57785000Y-45622349D01*
X58509999Y-45622349D01*
X58509999Y-45599041D01*
X58509998Y-45599026D01*
X58499855Y-45499741D01*
X58446547Y-45338867D01*
X58446542Y-45338856D01*
X58357575Y-45194620D01*
X58357572Y-45194616D01*
X58237732Y-45074776D01*
X58237728Y-45074773D01*
X58093492Y-44985806D01*
X58093481Y-44985801D01*
X57932606Y-44932493D01*
X57833322Y-44922349D01*
X57785000Y-44922349D01*
X57285000Y-44922349D01*
X57284999Y-44922348D01*
X57236693Y-44922349D01*
X57236675Y-44922350D01*
X57137392Y-44932493D01*
X56976518Y-44985801D01*
X56976507Y-44985806D01*
X56832271Y-45074773D01*
X56736086Y-45170958D01*
X56674762Y-45204442D01*
X56605071Y-45199458D01*
X56549138Y-45157586D01*
X56524721Y-45092121D01*
X56524877Y-45072469D01*
X56539966Y-44900001D01*
X56539966Y-44899997D01*
X56520141Y-44673400D01*
X56520139Y-44673389D01*
X56461269Y-44453682D01*
X56461265Y-44453673D01*
X56365133Y-44247516D01*
X56365131Y-44247512D01*
X56314026Y-44174526D01*
X56314025Y-44174526D01*
X55632953Y-44855598D01*
X55620165Y-44774852D01*
X55562641Y-44661955D01*
X55473045Y-44572359D01*
X55360148Y-44514835D01*
X55279400Y-44502046D01*
X55960472Y-43820974D01*
X55960471Y-43820973D01*
X55887483Y-43769866D01*
X55887481Y-43769865D01*
X55681326Y-43673734D01*
X55681317Y-43673730D01*
X55461610Y-43614860D01*
X55461599Y-43614858D01*
X55235002Y-43595034D01*
X55234998Y-43595034D01*
X55008400Y-43614858D01*
X55008389Y-43614860D01*
X54788682Y-43673730D01*
X54788673Y-43673734D01*
X54582513Y-43769868D01*
X54509527Y-43820972D01*
X54509526Y-43820973D01*
X55190600Y-44502046D01*
X55109852Y-44514835D01*
X54996955Y-44572359D01*
X54907359Y-44661955D01*
X54849835Y-44774852D01*
X54837046Y-44855599D01*
X54155973Y-44174526D01*
X54155972Y-44174527D01*
X54104868Y-44247513D01*
X54008734Y-44453673D01*
X54008728Y-44453688D01*
X53993174Y-44511736D01*
X53956809Y-44571396D01*
X53893962Y-44601924D01*
X53824586Y-44593629D01*
X53770709Y-44549143D01*
X53767861Y-44544738D01*
X53727315Y-44479003D01*
X53603345Y-44355033D01*
X53454124Y-44262992D01*
X53454119Y-44262990D01*
X53287697Y-44207843D01*
X53287690Y-44207842D01*
X53184986Y-44197349D01*
X52285000Y-44197349D01*
X52285000Y-46347348D01*
X51784999Y-46347348D01*
X51785000Y-46347347D01*
X51785000Y-44197349D01*
X50885028Y-44197349D01*
X50885012Y-44197350D01*
X50782302Y-44207843D01*
X50615880Y-44262990D01*
X50615875Y-44262992D01*
X50466654Y-44355033D01*
X50342684Y-44479003D01*
X50250643Y-44628224D01*
X50250641Y-44628229D01*
X50241706Y-44655195D01*
X50201933Y-44712640D01*
X50137417Y-44739463D01*
X50068641Y-44727148D01*
X50017442Y-44679605D01*
X50000000Y-44616191D01*
X50000000Y-42124500D01*
X50019685Y-42057461D01*
X50072489Y-42011706D01*
X50124000Y-42000500D01*
X79739477Y-42000500D01*
X79806516Y-42020185D01*
G37*
%TD.AperFunction*%
%TD*%
%TA.AperFunction,Conductor*%
%TO.N,+3V3*%
G36*
X60050531Y-84403427D02*
G01*
X60053027Y-84407127D01*
X60290843Y-84967134D01*
X60290923Y-84976088D01*
X60287707Y-84980574D01*
X59633883Y-85543353D01*
X59625377Y-85546153D01*
X59617383Y-85542119D01*
X59617369Y-85542103D01*
X59136994Y-84982026D01*
X59134209Y-84973515D01*
X59136417Y-84967522D01*
X59546495Y-84404808D01*
X59554137Y-84400141D01*
X59555951Y-84400000D01*
X60042258Y-84400000D01*
X60050531Y-84403427D01*
G37*
%TD.AperFunction*%
%TD*%
%TA.AperFunction,Conductor*%
%TO.N,+5V*%
G36*
X95856804Y-89986925D02*
G01*
X95856809Y-89986938D01*
X96234136Y-90895513D01*
X96234145Y-90904467D01*
X96234136Y-90904487D01*
X95856809Y-91813061D01*
X95850471Y-91819388D01*
X95841517Y-91819379D01*
X95841504Y-91819374D01*
X94242200Y-91152999D01*
X94235881Y-91146654D01*
X94235000Y-91142199D01*
X94235000Y-90657800D01*
X94238427Y-90649527D01*
X94242200Y-90647000D01*
X95841504Y-89980624D01*
X95850459Y-89980606D01*
X95856804Y-89986925D01*
G37*
%TD.AperFunction*%
%TD*%
%TA.AperFunction,Conductor*%
%TO.N,VD*%
G36*
X45250096Y-79260594D02*
G01*
X45474260Y-79353688D01*
X45480587Y-79360026D01*
X45481025Y-79367699D01*
X45027420Y-80959544D01*
X45021857Y-80966562D01*
X45016168Y-80968038D01*
X44034211Y-80968038D01*
X44025938Y-80964611D01*
X44022838Y-80959084D01*
X43835141Y-80181832D01*
X43638466Y-79367398D01*
X43639855Y-79358553D01*
X43645349Y-79353849D01*
X44555514Y-78975862D01*
X44564464Y-78975854D01*
X45250096Y-79260594D01*
G37*
%TD.AperFunction*%
%TD*%
%TA.AperFunction,Conductor*%
%TO.N,GNDPWR*%
G36*
X45596207Y-44542090D02*
G01*
X46549610Y-45241156D01*
X46554256Y-45248811D01*
X46552127Y-45257509D01*
X46550892Y-45258936D01*
X45719740Y-46075652D01*
X45711438Y-46079007D01*
X45707267Y-46078199D01*
X45175659Y-45869609D01*
X45171660Y-45866990D01*
X44477253Y-45172583D01*
X44473826Y-45164310D01*
X44477253Y-45156037D01*
X44479847Y-45154081D01*
X45583615Y-44541297D01*
X45592510Y-44540278D01*
X45596207Y-44542090D01*
G37*
%TD.AperFunction*%
%TD*%
%TA.AperFunction,Conductor*%
%TO.N,+5V*%
G36*
X96628221Y-89981247D02*
G01*
X96628835Y-89981523D01*
X98208510Y-90746803D01*
X98214461Y-90753494D01*
X98215109Y-90757332D01*
X98215109Y-91241771D01*
X98211682Y-91250044D01*
X98207365Y-91252782D01*
X96628169Y-91820112D01*
X96619224Y-91819684D01*
X96613409Y-91813589D01*
X96235862Y-90904485D01*
X96235854Y-90895535D01*
X96612930Y-89987563D01*
X96619267Y-89981238D01*
X96628221Y-89981247D01*
G37*
%TD.AperFunction*%
%TD*%
%TA.AperFunction,Conductor*%
%TO.N,+3V3*%
G36*
X80596347Y-44925703D02*
G01*
X81727393Y-45395522D01*
X81733719Y-45401860D01*
X81733721Y-45410788D01*
X81505010Y-45965273D01*
X81498687Y-45971615D01*
X81490124Y-45971781D01*
X80220703Y-45500842D01*
X80214139Y-45494752D01*
X80213804Y-45485803D01*
X80214539Y-45484201D01*
X80446909Y-45065554D01*
X80448860Y-45062967D01*
X80583592Y-44928235D01*
X80591864Y-44924809D01*
X80596347Y-44925703D01*
G37*
%TD.AperFunction*%
%TD*%
%TA.AperFunction,Conductor*%
%TO.N,+5V*%
G36*
X95921804Y-82586925D02*
G01*
X95921809Y-82586938D01*
X96299136Y-83495513D01*
X96299145Y-83504467D01*
X96299136Y-83504487D01*
X95921809Y-84413061D01*
X95915471Y-84419388D01*
X95906517Y-84419379D01*
X95906504Y-84419374D01*
X94307200Y-83752999D01*
X94300881Y-83746654D01*
X94300000Y-83742199D01*
X94300000Y-83257800D01*
X94303427Y-83249527D01*
X94307200Y-83247000D01*
X95906504Y-82580624D01*
X95915459Y-82580606D01*
X95921804Y-82586925D01*
G37*
%TD.AperFunction*%
%TD*%
%TA.AperFunction,Conductor*%
%TO.N,/CHARGER_START_BUTTON*%
G36*
X72423552Y-54378427D02*
G01*
X72425737Y-54381454D01*
X72713569Y-54955316D01*
X72714215Y-54964248D01*
X72710300Y-54969793D01*
X72292189Y-55295401D01*
X72283556Y-55297781D01*
X72277811Y-55295401D01*
X71860476Y-54970397D01*
X71856054Y-54962610D01*
X71857760Y-54954938D01*
X72219059Y-54380470D01*
X72226364Y-54375292D01*
X72228963Y-54375000D01*
X72415279Y-54375000D01*
X72423552Y-54378427D01*
G37*
%TD.AperFunction*%
%TD*%
%TA.AperFunction,Conductor*%
%TO.N,/CHARGER_START_BUTTON*%
G36*
X72330340Y-53407776D02*
G01*
X72331185Y-53408621D01*
X72810209Y-53939289D01*
X72813209Y-53947727D01*
X72811601Y-53953075D01*
X72425895Y-54606746D01*
X72418739Y-54612130D01*
X72415818Y-54612500D01*
X72229182Y-54612500D01*
X72220909Y-54609073D01*
X72219105Y-54606746D01*
X72139159Y-54471259D01*
X71833397Y-53953073D01*
X71832145Y-53944208D01*
X71834788Y-53939291D01*
X72313815Y-53408620D01*
X72321902Y-53404776D01*
X72330340Y-53407776D01*
G37*
%TD.AperFunction*%
%TD*%
%TA.AperFunction,Conductor*%
%TO.N,GNDPWR*%
G36*
X47599244Y-76978427D02*
G01*
X47602289Y-76983734D01*
X48021295Y-78582456D01*
X48020077Y-78591327D01*
X48014464Y-78596227D01*
X47104487Y-78974136D01*
X47095533Y-78974145D01*
X47095513Y-78974136D01*
X46185535Y-78596227D01*
X46179208Y-78589889D01*
X46178704Y-78582456D01*
X46597711Y-76983734D01*
X46603124Y-76976600D01*
X46609029Y-76975000D01*
X47590971Y-76975000D01*
X47599244Y-76978427D01*
G37*
%TD.AperFunction*%
%TD*%
%TA.AperFunction,Conductor*%
%TO.N,/VM_ENABLE*%
G36*
X61460479Y-62525713D02*
G01*
X61462124Y-62527075D01*
X61735707Y-62799293D01*
X62007924Y-63072875D01*
X62011330Y-63081156D01*
X62007882Y-63089421D01*
X62006237Y-63090783D01*
X61354104Y-63536978D01*
X61345341Y-63538822D01*
X61339224Y-63535595D01*
X60999404Y-63195775D01*
X60995977Y-63187502D01*
X60998021Y-63180895D01*
X61444217Y-62528761D01*
X61451716Y-62523869D01*
X61460479Y-62525713D01*
G37*
%TD.AperFunction*%
%TD*%
%TA.AperFunction,Conductor*%
%TO.N,/7.5V_BEFORE_FUSE*%
G36*
X53950787Y-47897996D02*
G01*
X53958143Y-47903103D01*
X53960000Y-47909429D01*
X53960000Y-48887668D01*
X53956573Y-48895941D01*
X53948300Y-48899368D01*
X53947686Y-48899352D01*
X52019141Y-48797959D01*
X52011059Y-48794102D01*
X52008067Y-48785737D01*
X52033636Y-48230249D01*
X52037440Y-48222142D01*
X52041465Y-48219741D01*
X53338708Y-47766627D01*
X53345046Y-47766241D01*
X53950787Y-47897996D01*
G37*
%TD.AperFunction*%
%TD*%
%TA.AperFunction,Conductor*%
%TO.N,VD*%
G36*
X44499366Y-82897590D02*
G01*
X45189998Y-83588222D01*
X45192815Y-83592766D01*
X45304480Y-83924900D01*
X45303998Y-83933565D01*
X44760555Y-85101501D01*
X44753958Y-85107556D01*
X44745011Y-85107173D01*
X44739128Y-85101019D01*
X44234290Y-83874865D01*
X44233773Y-83867523D01*
X44479757Y-82902970D01*
X44485121Y-82895802D01*
X44493984Y-82894526D01*
X44499366Y-82897590D01*
G37*
%TD.AperFunction*%
%TD*%
%TA.AperFunction,Conductor*%
%TO.N,+5V*%
G36*
X94153482Y-82580620D02*
G01*
X94153495Y-82580625D01*
X95752800Y-83247000D01*
X95759119Y-83253345D01*
X95760000Y-83257800D01*
X95760000Y-83742199D01*
X95756573Y-83750472D01*
X95752800Y-83752999D01*
X94153495Y-84419374D01*
X94144540Y-84419393D01*
X94138195Y-84413074D01*
X94138190Y-84413061D01*
X93760863Y-83504487D01*
X93760854Y-83495535D01*
X94138190Y-82586937D01*
X94144528Y-82580611D01*
X94153482Y-82580620D01*
G37*
%TD.AperFunction*%
%TD*%
%TA.AperFunction,Conductor*%
%TO.N,/FM_IN_315*%
G36*
X93729942Y-87604435D02*
G01*
X93734835Y-87611935D01*
X93735035Y-87614062D01*
X93736000Y-88000000D01*
X93735035Y-88385937D01*
X93731587Y-88394202D01*
X93723306Y-88397608D01*
X93721179Y-88397408D01*
X92944544Y-88251789D01*
X92937044Y-88246896D01*
X92935000Y-88240289D01*
X92935000Y-87759710D01*
X92938427Y-87751437D01*
X92944542Y-87748210D01*
X93721180Y-87602591D01*
X93729942Y-87604435D01*
G37*
%TD.AperFunction*%
%TD*%
%TA.AperFunction,Conductor*%
%TO.N,+5V*%
G36*
X114109655Y-71078427D02*
G01*
X114112556Y-71083230D01*
X114290472Y-71656167D01*
X114289652Y-71665084D01*
X114286487Y-71668868D01*
X113867189Y-71995401D01*
X113858556Y-71997781D01*
X113852811Y-71995401D01*
X113433512Y-71668868D01*
X113429090Y-71661081D01*
X113429527Y-71656167D01*
X113607444Y-71083230D01*
X113613171Y-71076346D01*
X113618618Y-71075000D01*
X114101382Y-71075000D01*
X114109655Y-71078427D01*
G37*
%TD.AperFunction*%
%TD*%
%TA.AperFunction,Conductor*%
%TO.N,/LIMIT_SWITCH*%
G36*
X93532187Y-67004597D02*
G01*
X93850857Y-67252764D01*
X93951487Y-67331131D01*
X93955909Y-67338918D01*
X93955472Y-67343832D01*
X93777556Y-67916770D01*
X93771829Y-67923654D01*
X93766382Y-67925000D01*
X93283618Y-67925000D01*
X93275345Y-67921573D01*
X93272444Y-67916770D01*
X93094527Y-67343832D01*
X93095347Y-67334915D01*
X93098510Y-67331132D01*
X93517811Y-67004597D01*
X93526444Y-67002218D01*
X93532187Y-67004597D01*
G37*
%TD.AperFunction*%
%TD*%
%TA.AperFunction,Conductor*%
%TO.N,/CHARGER_START_BUTTON*%
G36*
X71818085Y-52959487D02*
G01*
X72314699Y-53391885D01*
X72318688Y-53399902D01*
X72316114Y-53408065D01*
X71860431Y-53971708D01*
X71852565Y-53975987D01*
X71843977Y-53973450D01*
X71843606Y-53973137D01*
X71423254Y-53603403D01*
X71422997Y-53603161D01*
X71290131Y-53470295D01*
X71286704Y-53462022D01*
X71290131Y-53453749D01*
X71290201Y-53453680D01*
X71802283Y-52959888D01*
X71810615Y-52956613D01*
X71818085Y-52959487D01*
G37*
%TD.AperFunction*%
%TD*%
%TA.AperFunction,Conductor*%
%TO.N,+3V3*%
G36*
X74633256Y-52273473D02*
G01*
X74764197Y-52404414D01*
X74767624Y-52412687D01*
X74767569Y-52413815D01*
X74661297Y-53510787D01*
X74657089Y-53518691D01*
X74648524Y-53521304D01*
X74646915Y-53521034D01*
X74153291Y-53402270D01*
X74146049Y-53397003D01*
X74144839Y-53394316D01*
X73935171Y-52708590D01*
X73936029Y-52699676D01*
X73940164Y-52695246D01*
X74618793Y-52271819D01*
X74627623Y-52270348D01*
X74633256Y-52273473D01*
G37*
%TD.AperFunction*%
%TD*%
%TA.AperFunction,Conductor*%
%TO.N,Net-(Q4-E)*%
G36*
X102344771Y-58295007D02*
G01*
X102830503Y-58791821D01*
X102833836Y-58800132D01*
X102830503Y-58808179D01*
X102344771Y-59304992D01*
X102336537Y-59308512D01*
X102329176Y-59306012D01*
X101816971Y-58903513D01*
X101812583Y-58895707D01*
X101812500Y-58894314D01*
X101812500Y-58705685D01*
X101815927Y-58697412D01*
X101816964Y-58696491D01*
X102329177Y-58293986D01*
X102337798Y-58291569D01*
X102344771Y-58295007D01*
G37*
%TD.AperFunction*%
%TD*%
%TA.AperFunction,Conductor*%
%TO.N,Net-(Q1-D)*%
G36*
X49948817Y-65702590D02*
G01*
X50725457Y-65848210D01*
X50732956Y-65853103D01*
X50735000Y-65859710D01*
X50735000Y-66340289D01*
X50731573Y-66348562D01*
X50725456Y-66351789D01*
X49948820Y-66497408D01*
X49940057Y-66495564D01*
X49935164Y-66488064D01*
X49934964Y-66485946D01*
X49934000Y-66100000D01*
X49934964Y-65714059D01*
X49938412Y-65705797D01*
X49946693Y-65702391D01*
X49948817Y-65702590D01*
G37*
%TD.AperFunction*%
%TD*%
%TA.AperFunction,Conductor*%
%TO.N,/ESP32_ENABLE*%
G36*
X72730369Y-44808161D02*
G01*
X72732343Y-44809905D01*
X72967331Y-45070227D01*
X73210808Y-45339953D01*
X73213808Y-45348391D01*
X73212757Y-45352672D01*
X72913130Y-46005679D01*
X72906565Y-46011770D01*
X72902496Y-46012500D01*
X72715951Y-46012500D01*
X72707678Y-46009073D01*
X72706495Y-46007690D01*
X72288143Y-45433529D01*
X72286041Y-45424825D01*
X72288013Y-45419931D01*
X72714076Y-44811037D01*
X72721626Y-44806225D01*
X72730369Y-44808161D01*
G37*
%TD.AperFunction*%
%TD*%
%TA.AperFunction,Conductor*%
%TO.N,Net-(Q3-B)*%
G36*
X106301415Y-58391286D02*
G01*
X106301756Y-58392030D01*
X106449123Y-58745498D01*
X106449144Y-58754452D01*
X106449123Y-58754502D01*
X106301153Y-59109413D01*
X106294806Y-59115731D01*
X106286541Y-59115972D01*
X105667833Y-58902718D01*
X105661129Y-58896783D01*
X105659946Y-58891657D01*
X105659946Y-58707220D01*
X105663373Y-58698947D01*
X105666400Y-58696762D01*
X106285712Y-58386073D01*
X106294642Y-58385427D01*
X106301415Y-58391286D01*
G37*
%TD.AperFunction*%
%TD*%
%TA.AperFunction,Conductor*%
%TO.N,/FM_IN_315*%
G36*
X94028398Y-87493602D02*
G01*
X94515503Y-87991821D01*
X94518836Y-88000132D01*
X94515503Y-88008179D01*
X94028398Y-88506397D01*
X94020164Y-88509917D01*
X94014799Y-88508683D01*
X93503967Y-88253233D01*
X93498100Y-88246467D01*
X93497500Y-88242768D01*
X93497500Y-87757231D01*
X93500927Y-87748958D01*
X93503967Y-87746766D01*
X94014801Y-87491315D01*
X94023731Y-87490681D01*
X94028398Y-87493602D01*
G37*
%TD.AperFunction*%
%TD*%
%TA.AperFunction,Conductor*%
%TO.N,/LIMIT_SWITCH*%
G36*
X93775418Y-67958400D02*
G01*
X93777974Y-67962243D01*
X94331513Y-69315468D01*
X94331474Y-69324423D01*
X94326751Y-69329902D01*
X93556067Y-69797320D01*
X93547216Y-69798680D01*
X93543933Y-69797320D01*
X93067546Y-69508393D01*
X92772976Y-69329737D01*
X92767680Y-69322518D01*
X92768079Y-69315652D01*
X93272163Y-67962587D01*
X93278263Y-67956032D01*
X93283127Y-67954973D01*
X93767145Y-67954973D01*
X93775418Y-67958400D01*
G37*
%TD.AperFunction*%
%TD*%
%TA.AperFunction,Conductor*%
%TO.N,/FM_IN_433*%
G36*
X93994942Y-79604435D02*
G01*
X93999835Y-79611935D01*
X94000035Y-79614062D01*
X94001000Y-80000000D01*
X94000035Y-80385937D01*
X93996587Y-80394202D01*
X93988306Y-80397608D01*
X93986179Y-80397408D01*
X93209544Y-80251789D01*
X93202044Y-80246896D01*
X93200000Y-80240289D01*
X93200000Y-79759710D01*
X93203427Y-79751437D01*
X93209542Y-79748210D01*
X93986180Y-79602591D01*
X93994942Y-79604435D01*
G37*
%TD.AperFunction*%
%TD*%
%TA.AperFunction,Conductor*%
%TO.N,GNDPWR*%
G36*
X62650509Y-76654112D02*
G01*
X62653393Y-76658862D01*
X63260653Y-78582098D01*
X63259876Y-78591019D01*
X63253983Y-78596426D01*
X62345191Y-78973844D01*
X62336237Y-78973853D01*
X62336222Y-78973847D01*
X61426988Y-78596823D01*
X61420659Y-78590488D01*
X61420661Y-78581535D01*
X61939596Y-77349699D01*
X61942101Y-77345974D01*
X62633964Y-76654111D01*
X62642236Y-76650685D01*
X62650509Y-76654112D01*
G37*
%TD.AperFunction*%
%TD*%
%TA.AperFunction,Conductor*%
%TO.N,+5V*%
G36*
X98402816Y-90553383D02*
G01*
X98407204Y-90557074D01*
X98721080Y-90993165D01*
X98723132Y-91001882D01*
X98721080Y-91006835D01*
X98407204Y-91442925D01*
X98399590Y-91447638D01*
X98393877Y-91447145D01*
X97832869Y-91252727D01*
X97826174Y-91246780D01*
X97825000Y-91241672D01*
X97825000Y-90758327D01*
X97828427Y-90750054D01*
X97832865Y-90747274D01*
X98393877Y-90552854D01*
X98402816Y-90553383D01*
G37*
%TD.AperFunction*%
%TD*%
%TA.AperFunction,Conductor*%
%TO.N,/ESP32_ENABLE*%
G36*
X70528059Y-43856638D02*
G01*
X70529016Y-43857086D01*
X72123779Y-44696710D01*
X72129502Y-44703596D01*
X72130027Y-44707062D01*
X72130027Y-44892739D01*
X72126600Y-44901012D01*
X72123521Y-44903223D01*
X70528886Y-45693329D01*
X70519952Y-45693931D01*
X70513208Y-45688039D01*
X70512887Y-45687332D01*
X70135863Y-44779487D01*
X70135854Y-44770535D01*
X70512767Y-43862955D01*
X70519105Y-43856629D01*
X70528059Y-43856638D01*
G37*
%TD.AperFunction*%
%TD*%
%TA.AperFunction,Conductor*%
%TO.N,+3V3*%
G36*
X60049633Y-84793345D02*
G01*
X60052542Y-84798176D01*
X60241426Y-85411774D01*
X60240585Y-85420689D01*
X60234746Y-85426015D01*
X59877175Y-85575093D01*
X59872644Y-85575994D01*
X59487838Y-85575032D01*
X59479573Y-85571584D01*
X59476167Y-85563303D01*
X59476218Y-85562240D01*
X59548989Y-84800505D01*
X59553187Y-84792596D01*
X59560636Y-84789918D01*
X60041360Y-84789918D01*
X60049633Y-84793345D01*
G37*
%TD.AperFunction*%
%TD*%
%TA.AperFunction,Conductor*%
%TO.N,/VM_ENABLE*%
G36*
X56837849Y-64796446D02*
G01*
X57490373Y-65034693D01*
X57496969Y-65040749D01*
X57498060Y-65045683D01*
X57498060Y-65529316D01*
X57494633Y-65537589D01*
X57490373Y-65540306D01*
X56837852Y-65778552D01*
X56828905Y-65778171D01*
X56825999Y-65776247D01*
X56294181Y-65296185D01*
X56290336Y-65288098D01*
X56293336Y-65279660D01*
X56294181Y-65278815D01*
X56561512Y-65037500D01*
X56826000Y-64798751D01*
X56834437Y-64795752D01*
X56837849Y-64796446D01*
G37*
%TD.AperFunction*%
%TD*%
%TA.AperFunction,Conductor*%
%TO.N,GNDA*%
G36*
X57168832Y-87469527D02*
G01*
X57181665Y-87473512D01*
X57741770Y-87647444D01*
X57748654Y-87653171D01*
X57750000Y-87658618D01*
X57750000Y-88141381D01*
X57746573Y-88149654D01*
X57741770Y-88152555D01*
X57168832Y-88330472D01*
X57159915Y-88329652D01*
X57156131Y-88326487D01*
X57011978Y-88141381D01*
X56829597Y-87907188D01*
X56827218Y-87898556D01*
X56829597Y-87892812D01*
X57156132Y-87473511D01*
X57163918Y-87469090D01*
X57168832Y-87469527D01*
G37*
%TD.AperFunction*%
%TD*%
%TA.AperFunction,Conductor*%
%TO.N,Net-(Q4-E)*%
G36*
X101113544Y-58385733D02*
G01*
X101114288Y-58386074D01*
X101733600Y-58696762D01*
X101739459Y-58703535D01*
X101740054Y-58707220D01*
X101740054Y-58891657D01*
X101736627Y-58899930D01*
X101732167Y-58902718D01*
X101113458Y-59115972D01*
X101104519Y-59115428D01*
X101098846Y-59109413D01*
X101080722Y-59065942D01*
X100950875Y-58754499D01*
X100950855Y-58745550D01*
X101098245Y-58392027D01*
X101104590Y-58385712D01*
X101113544Y-58385733D01*
G37*
%TD.AperFunction*%
%TD*%
%TA.AperFunction,Conductor*%
%TO.N,+3V3*%
G36*
X81499310Y-45978012D02*
G01*
X81503748Y-45984116D01*
X81675491Y-46538848D01*
X81674664Y-46547764D01*
X81667799Y-46553477D01*
X80155879Y-47025189D01*
X80146960Y-47024382D01*
X80144121Y-47022293D01*
X80012181Y-46890353D01*
X80008754Y-46882080D01*
X80009002Y-46879685D01*
X80148369Y-46216106D01*
X80153422Y-46208716D01*
X80157815Y-46206986D01*
X81490575Y-45976048D01*
X81499310Y-45978012D01*
G37*
%TD.AperFunction*%
%TD*%
%TA.AperFunction,Conductor*%
%TO.N,/FM_IN_315*%
G36*
X93748845Y-87602637D02*
G01*
X94512989Y-87748188D01*
X94520475Y-87753102D01*
X94522500Y-87759681D01*
X94522500Y-88240318D01*
X94519073Y-88248591D01*
X94512989Y-88251811D01*
X93748853Y-88397361D01*
X93740085Y-88395543D01*
X93735171Y-88388057D01*
X93734964Y-88385904D01*
X93734000Y-88000000D01*
X93734964Y-87614100D01*
X93738412Y-87605837D01*
X93746693Y-87602431D01*
X93748845Y-87602637D01*
G37*
%TD.AperFunction*%
%TD*%
%TA.AperFunction,Conductor*%
%TO.N,/FM_IN_433*%
G36*
X94488398Y-79493602D02*
G01*
X94975503Y-79991821D01*
X94978836Y-80000132D01*
X94975503Y-80008179D01*
X94488398Y-80506397D01*
X94480164Y-80509917D01*
X94474799Y-80508683D01*
X93963967Y-80253233D01*
X93958100Y-80246467D01*
X93957500Y-80242768D01*
X93957500Y-79757231D01*
X93960927Y-79748958D01*
X93963967Y-79746766D01*
X94474801Y-79491315D01*
X94483731Y-79490681D01*
X94488398Y-79493602D01*
G37*
%TD.AperFunction*%
%TD*%
%TA.AperFunction,Conductor*%
%TO.N,GNDA*%
G36*
X47493482Y-90755620D02*
G01*
X47493495Y-90755625D01*
X49092800Y-91422000D01*
X49099119Y-91428345D01*
X49100000Y-91432800D01*
X49100000Y-91917199D01*
X49096573Y-91925472D01*
X49092800Y-91927999D01*
X47493495Y-92594374D01*
X47484540Y-92594393D01*
X47478195Y-92588074D01*
X47478190Y-92588061D01*
X47100863Y-91679487D01*
X47100854Y-91670535D01*
X47478190Y-90761937D01*
X47484528Y-90755611D01*
X47493482Y-90755620D01*
G37*
%TD.AperFunction*%
%TD*%
%TA.AperFunction,Conductor*%
%TO.N,+3V3*%
G36*
X82700438Y-45421030D02*
G01*
X82903075Y-45506040D01*
X83417826Y-45721990D01*
X83424130Y-45728351D01*
X83425000Y-45732779D01*
X83425000Y-46217220D01*
X83421573Y-46225493D01*
X83417826Y-46228009D01*
X82700438Y-46528969D01*
X82691484Y-46529010D01*
X82690982Y-46528791D01*
X81521839Y-45985611D01*
X81515780Y-45979017D01*
X81516158Y-45970070D01*
X81521839Y-45964389D01*
X82690983Y-45421207D01*
X82699929Y-45420830D01*
X82700438Y-45421030D01*
G37*
%TD.AperFunction*%
%TD*%
%TA.AperFunction,Conductor*%
%TO.N,+5V*%
G36*
X98547816Y-83053383D02*
G01*
X98552204Y-83057074D01*
X98866080Y-83493165D01*
X98868132Y-83501882D01*
X98866080Y-83506835D01*
X98552204Y-83942925D01*
X98544590Y-83947638D01*
X98538877Y-83947145D01*
X97977869Y-83752727D01*
X97971174Y-83746780D01*
X97970000Y-83741672D01*
X97970000Y-83258327D01*
X97973427Y-83250054D01*
X97977865Y-83247274D01*
X98538877Y-83052854D01*
X98547816Y-83053383D01*
G37*
%TD.AperFunction*%
%TD*%
%TA.AperFunction,Conductor*%
%TO.N,GNDA*%
G36*
X60825438Y-87946030D02*
G01*
X61028075Y-88031040D01*
X61542826Y-88246990D01*
X61549130Y-88253351D01*
X61550000Y-88257779D01*
X61550000Y-88742220D01*
X61546573Y-88750493D01*
X61542826Y-88753009D01*
X60825438Y-89053969D01*
X60816484Y-89054010D01*
X60815982Y-89053791D01*
X59646839Y-88510611D01*
X59640780Y-88504017D01*
X59641158Y-88495070D01*
X59646839Y-88489389D01*
X60815983Y-87946207D01*
X60824929Y-87945830D01*
X60825438Y-87946030D01*
G37*
%TD.AperFunction*%
%TD*%
%TA.AperFunction,Conductor*%
%TO.N,+3V3*%
G36*
X81613472Y-45602118D02*
G01*
X82385144Y-45723446D01*
X82392785Y-45728116D01*
X82395027Y-45735004D01*
X82395027Y-46215641D01*
X82391600Y-46223914D01*
X82385897Y-46227055D01*
X81762660Y-46367393D01*
X81753836Y-46365867D01*
X81749291Y-46360481D01*
X81693663Y-46227055D01*
X81599905Y-46002171D01*
X81599005Y-45997648D01*
X81599965Y-45613645D01*
X81603413Y-45605383D01*
X81611694Y-45601977D01*
X81613472Y-45602118D01*
G37*
%TD.AperFunction*%
%TD*%
%TA.AperFunction,Conductor*%
%TO.N,/FM_IN_5V_433*%
G36*
X91482922Y-81505913D02*
G01*
X91485476Y-81509752D01*
X92139467Y-83106543D01*
X92139432Y-83115497D01*
X92133127Y-83121782D01*
X91224487Y-83499136D01*
X91215533Y-83499145D01*
X91215513Y-83499136D01*
X90307015Y-83121841D01*
X90300688Y-83115503D01*
X90300697Y-83106549D01*
X90300699Y-83106542D01*
X90979472Y-81509608D01*
X90985862Y-81503336D01*
X90990240Y-81502486D01*
X91474649Y-81502486D01*
X91482922Y-81505913D01*
G37*
%TD.AperFunction*%
%TD*%
%TA.AperFunction,Conductor*%
%TO.N,+3V3*%
G36*
X81081808Y-45410796D02*
G01*
X81661327Y-45600426D01*
X81741096Y-45626529D01*
X81747893Y-45632359D01*
X81748577Y-45641288D01*
X81748277Y-45642101D01*
X81602563Y-45996195D01*
X81596245Y-46002542D01*
X81596195Y-46002563D01*
X81240564Y-46148909D01*
X81231610Y-46148888D01*
X81225615Y-46143256D01*
X80937261Y-45557497D01*
X80936683Y-45548564D01*
X80939484Y-45544062D01*
X81069903Y-45413643D01*
X81078175Y-45410217D01*
X81081808Y-45410796D01*
G37*
%TD.AperFunction*%
%TD*%
%TA.AperFunction,Conductor*%
%TO.N,+5V*%
G36*
X114283705Y-70099982D02*
G01*
X114291973Y-70103420D01*
X114295389Y-70111697D01*
X114295292Y-70113185D01*
X114111321Y-71533485D01*
X114106860Y-71541249D01*
X114099718Y-71543682D01*
X113616201Y-71543682D01*
X113607928Y-71540255D01*
X113606519Y-71538550D01*
X113001608Y-70646810D01*
X112999799Y-70638040D01*
X113003007Y-70631979D01*
X113531566Y-70102440D01*
X113539833Y-70099006D01*
X114283705Y-70099982D01*
G37*
%TD.AperFunction*%
%TD*%
M02*
