%TF.GenerationSoftware,KiCad,Pcbnew,7.0.9-7.0.9~ubuntu22.04.1*%
%TF.CreationDate,2023-12-14T14:14:08+03:00*%
%TF.ProjectId,main-module,6d61696e-2d6d-46f6-9475-6c652e6b6963,rev?*%
%TF.SameCoordinates,Original*%
%TF.FileFunction,Soldermask,Top*%
%TF.FilePolarity,Negative*%
%FSLAX46Y46*%
G04 Gerber Fmt 4.6, Leading zero omitted, Abs format (unit mm)*
G04 Created by KiCad (PCBNEW 7.0.9-7.0.9~ubuntu22.04.1) date 2023-12-14 14:14:08*
%MOMM*%
%LPD*%
G01*
G04 APERTURE LIST*
G04 Aperture macros list*
%AMRoundRect*
0 Rectangle with rounded corners*
0 $1 Rounding radius*
0 $2 $3 $4 $5 $6 $7 $8 $9 X,Y pos of 4 corners*
0 Add a 4 corners polygon primitive as box body*
4,1,4,$2,$3,$4,$5,$6,$7,$8,$9,$2,$3,0*
0 Add four circle primitives for the rounded corners*
1,1,$1+$1,$2,$3*
1,1,$1+$1,$4,$5*
1,1,$1+$1,$6,$7*
1,1,$1+$1,$8,$9*
0 Add four rect primitives between the rounded corners*
20,1,$1+$1,$2,$3,$4,$5,0*
20,1,$1+$1,$4,$5,$6,$7,0*
20,1,$1+$1,$6,$7,$8,$9,0*
20,1,$1+$1,$8,$9,$2,$3,0*%
%AMFreePoly0*
4,1,6,1.000000,0.000000,0.500000,-0.750000,-0.500000,-0.750000,-0.500000,0.750000,0.500000,0.750000,1.000000,0.000000,1.000000,0.000000,$1*%
%AMFreePoly1*
4,1,6,0.500000,-0.750000,-0.650000,-0.750000,-0.150000,0.000000,-0.650000,0.750000,0.500000,0.750000,0.500000,-0.750000,0.500000,-0.750000,$1*%
G04 Aperture macros list end*
%ADD10RoundRect,0.250000X0.450000X-0.262500X0.450000X0.262500X-0.450000X0.262500X-0.450000X-0.262500X0*%
%ADD11RoundRect,0.250000X1.100000X-0.325000X1.100000X0.325000X-1.100000X0.325000X-1.100000X-0.325000X0*%
%ADD12C,2.000000*%
%ADD13R,1.500000X2.000000*%
%ADD14R,3.800000X2.000000*%
%ADD15RoundRect,0.250000X-0.262500X-0.450000X0.262500X-0.450000X0.262500X0.450000X-0.262500X0.450000X0*%
%ADD16RoundRect,0.250000X-0.750000X0.600000X-0.750000X-0.600000X0.750000X-0.600000X0.750000X0.600000X0*%
%ADD17O,2.000000X1.700000*%
%ADD18RoundRect,0.250000X0.262500X0.450000X-0.262500X0.450000X-0.262500X-0.450000X0.262500X-0.450000X0*%
%ADD19RoundRect,0.250000X0.325000X1.100000X-0.325000X1.100000X-0.325000X-1.100000X0.325000X-1.100000X0*%
%ADD20FreePoly0,0.000000*%
%ADD21FreePoly1,0.000000*%
%ADD22RoundRect,0.250000X-1.000000X-0.650000X1.000000X-0.650000X1.000000X0.650000X-1.000000X0.650000X0*%
%ADD23R,1.160000X0.600000*%
%ADD24R,1.160000X0.300000*%
%ADD25O,2.000000X1.200000*%
%ADD26O,2.400000X1.000000*%
%ADD27RoundRect,0.250000X-0.600000X-0.725000X0.600000X-0.725000X0.600000X0.725000X-0.600000X0.725000X0*%
%ADD28O,1.700000X1.950000*%
%ADD29C,2.200000*%
%ADD30FreePoly0,270.000000*%
%ADD31FreePoly1,270.000000*%
%ADD32R,1.600000X1.600000*%
%ADD33C,1.600000*%
%ADD34RoundRect,0.225000X0.250000X-0.225000X0.250000X0.225000X-0.250000X0.225000X-0.250000X-0.225000X0*%
%ADD35RoundRect,0.150000X-0.150000X0.587500X-0.150000X-0.587500X0.150000X-0.587500X0.150000X0.587500X0*%
%ADD36RoundRect,0.250000X0.750000X-0.600000X0.750000X0.600000X-0.750000X0.600000X-0.750000X-0.600000X0*%
%ADD37RoundRect,0.062500X0.337500X0.062500X-0.337500X0.062500X-0.337500X-0.062500X0.337500X-0.062500X0*%
%ADD38RoundRect,0.062500X0.062500X0.337500X-0.062500X0.337500X-0.062500X-0.337500X0.062500X-0.337500X0*%
%ADD39R,3.350000X3.350000*%
%ADD40RoundRect,0.952500X-1.167500X-0.952500X1.167500X-0.952500X1.167500X0.952500X-1.167500X0.952500X0*%
%ADD41RoundRect,0.952500X1.167500X0.952500X-1.167500X0.952500X-1.167500X-0.952500X1.167500X-0.952500X0*%
%ADD42RoundRect,0.250000X-0.325000X-1.100000X0.325000X-1.100000X0.325000X1.100000X-0.325000X1.100000X0*%
%ADD43C,3.000000*%
%ADD44C,1.000000*%
%ADD45RoundRect,0.150000X-0.150000X0.825000X-0.150000X-0.825000X0.150000X-0.825000X0.150000X0.825000X0*%
%ADD46RoundRect,0.250000X0.650000X-1.000000X0.650000X1.000000X-0.650000X1.000000X-0.650000X-1.000000X0*%
%ADD47RoundRect,0.150000X0.587500X0.150000X-0.587500X0.150000X-0.587500X-0.150000X0.587500X-0.150000X0*%
%ADD48RoundRect,0.250000X0.600000X0.750000X-0.600000X0.750000X-0.600000X-0.750000X0.600000X-0.750000X0*%
%ADD49O,1.700000X2.000000*%
%ADD50R,1.500000X0.900000*%
%ADD51R,0.900000X1.500000*%
%ADD52C,0.600000*%
%ADD53R,4.200000X4.200000*%
G04 APERTURE END LIST*
D10*
%TO.C,R5*%
X98935000Y-44812500D03*
X98935000Y-42987500D03*
%TD*%
D11*
%TO.C,C11*%
X73250000Y-82225000D03*
X73250000Y-79275000D03*
%TD*%
D12*
%TO.C,U13*%
X44560000Y-91675000D03*
X47100000Y-91675000D03*
X49640000Y-91675000D03*
X52180000Y-91675000D03*
X54720000Y-91675000D03*
X57260000Y-91675000D03*
X59800000Y-91675000D03*
X62340000Y-91675000D03*
X44560000Y-78975000D03*
X47100000Y-78975000D03*
X49640000Y-78975000D03*
X52180000Y-78975000D03*
X54720000Y-78975000D03*
X57260000Y-78975000D03*
X59800000Y-78975000D03*
X62340000Y-78975000D03*
%TD*%
D13*
%TO.C,U3*%
X72500000Y-69750000D03*
X70200000Y-69750000D03*
D14*
X70200000Y-76050000D03*
D13*
X67900000Y-69750000D03*
%TD*%
D15*
%TO.C,R4*%
X46887500Y-66000000D03*
X48712500Y-66000000D03*
%TD*%
D16*
%TO.C,J1*%
X46560000Y-45250000D03*
D17*
X46560000Y-47750000D03*
%TD*%
D18*
%TO.C,R1*%
X107447500Y-45000000D03*
X105622500Y-45000000D03*
%TD*%
D10*
%TO.C,R18*%
X89000000Y-67312500D03*
X89000000Y-65487500D03*
%TD*%
D19*
%TO.C,C9*%
X71475000Y-65900000D03*
X68525000Y-65900000D03*
%TD*%
D20*
%TO.C,JP1*%
X116475000Y-59000000D03*
D21*
X117925000Y-59000000D03*
%TD*%
D10*
%TO.C,R9*%
X64572500Y-53162500D03*
X64572500Y-51337500D03*
%TD*%
D12*
%TO.C,U7*%
X110995000Y-70100000D03*
X113535000Y-70100000D03*
X116075000Y-70100000D03*
%TD*%
D22*
%TO.C,D2*%
X115000000Y-62750000D03*
X119000000Y-62750000D03*
%TD*%
D23*
%TO.C,J2*%
X114090000Y-52850000D03*
X114090000Y-52050000D03*
D24*
X114090000Y-50900000D03*
X114090000Y-49900000D03*
X114090000Y-49400000D03*
X114090000Y-48400000D03*
D23*
X114090000Y-47250000D03*
X114090000Y-46450000D03*
X114090000Y-46450000D03*
X114090000Y-47250000D03*
D24*
X114090000Y-47900000D03*
X114090000Y-48900000D03*
X114090000Y-50400000D03*
X114090000Y-51400000D03*
D23*
X114090000Y-52050000D03*
X114090000Y-52850000D03*
D25*
X114975000Y-55250000D03*
D26*
X118900000Y-55250000D03*
D25*
X114975000Y-44050000D03*
D26*
X118900000Y-44050000D03*
%TD*%
D27*
%TO.C,J6*%
X53000000Y-72800000D03*
D28*
X55500000Y-72800000D03*
X58000000Y-72800000D03*
X60500000Y-72800000D03*
%TD*%
D12*
%TO.C,SW1*%
X70135000Y-51275000D03*
X70135000Y-44775000D03*
%TD*%
D19*
%TO.C,C10*%
X79675000Y-65850000D03*
X76725000Y-65850000D03*
%TD*%
D29*
%TO.C,H3*%
X74000000Y-90000000D03*
%TD*%
D18*
%TO.C,R7*%
X104462500Y-56500000D03*
X102637500Y-56500000D03*
%TD*%
D30*
%TO.C,JP3*%
X101900000Y-62775000D03*
D31*
X101900000Y-64225000D03*
%TD*%
D32*
%TO.C,C17*%
X64235000Y-44700000D03*
D33*
X64235000Y-47200000D03*
%TD*%
D30*
%TO.C,JP2*%
X105500000Y-62875000D03*
D31*
X105500000Y-64325000D03*
%TD*%
D29*
%TO.C,H2*%
X64000000Y-67000000D03*
%TD*%
D34*
%TO.C,C3*%
X103835000Y-44575000D03*
X103835000Y-43025000D03*
%TD*%
D32*
%TO.C,C4*%
X55235000Y-48400000D03*
D33*
X55235000Y-44900000D03*
%TD*%
D35*
%TO.C,Q4*%
X102850000Y-58700000D03*
X100950000Y-58700000D03*
X101900000Y-60575000D03*
%TD*%
D36*
%TO.C,J3*%
X60110000Y-60350000D03*
D17*
X60110000Y-57850000D03*
%TD*%
D37*
%TO.C,U1*%
X105385000Y-51100000D03*
X105385000Y-50600000D03*
X105385000Y-50100000D03*
X105385000Y-49600000D03*
X105385000Y-49100000D03*
X105385000Y-48600000D03*
X105385000Y-48100000D03*
D38*
X104435000Y-47150000D03*
X103935000Y-47150000D03*
X103435000Y-47150000D03*
X102935000Y-47150000D03*
X102435000Y-47150000D03*
X101935000Y-47150000D03*
X101435000Y-47150000D03*
D37*
X100485000Y-48100000D03*
X100485000Y-48600000D03*
X100485000Y-49100000D03*
X100485000Y-49600000D03*
X100485000Y-50100000D03*
X100485000Y-50600000D03*
X100485000Y-51100000D03*
D38*
X101435000Y-52050000D03*
X101935000Y-52050000D03*
X102435000Y-52050000D03*
X102935000Y-52050000D03*
X103435000Y-52050000D03*
X103935000Y-52050000D03*
X104435000Y-52050000D03*
D39*
X102935000Y-49600000D03*
%TD*%
D40*
%TO.C,F2*%
X46610000Y-61100000D03*
X53020000Y-61100000D03*
%TD*%
D12*
%TO.C,U6*%
X117800000Y-83500000D03*
X115260000Y-83500000D03*
X96300000Y-83500000D03*
X93760000Y-83500000D03*
X91220000Y-83500000D03*
X88680000Y-83500000D03*
%TD*%
D41*
%TO.C,F1*%
X53060000Y-54500000D03*
X46650000Y-54500000D03*
%TD*%
D42*
%TO.C,C12*%
X84275000Y-70000000D03*
X87225000Y-70000000D03*
%TD*%
D12*
%TO.C,SW2*%
X70135000Y-54750000D03*
X70135000Y-61250000D03*
%TD*%
D43*
%TO.C,TP1*%
X119000000Y-77000000D03*
%TD*%
D12*
%TO.C,U10*%
X117735000Y-90900000D03*
X115195000Y-90900000D03*
X96235000Y-90900000D03*
X93695000Y-90900000D03*
X91155000Y-90900000D03*
X88615000Y-90900000D03*
%TD*%
D34*
%TO.C,C5*%
X109600000Y-44925000D03*
X109600000Y-43375000D03*
%TD*%
D44*
%TO.C,TP2*%
X70000000Y-82250000D03*
%TD*%
D45*
%TO.C,Q2*%
X48105000Y-68525000D03*
X46835000Y-68525000D03*
X45565000Y-68525000D03*
X44295000Y-68525000D03*
X44295000Y-73475000D03*
X45565000Y-73475000D03*
X46835000Y-73475000D03*
X48105000Y-73475000D03*
%TD*%
D34*
%TO.C,C6*%
X111300000Y-44925000D03*
X111300000Y-43375000D03*
%TD*%
D46*
%TO.C,D1*%
X110200000Y-58600000D03*
X110200000Y-54600000D03*
%TD*%
D13*
%TO.C,U4*%
X81100000Y-69750000D03*
X78800000Y-69750000D03*
D14*
X78800000Y-76050000D03*
D13*
X76500000Y-69750000D03*
%TD*%
D44*
%TO.C,TP3*%
X78750000Y-82250000D03*
%TD*%
D47*
%TO.C,Q6*%
X62272500Y-53250000D03*
X62272500Y-51350000D03*
X60397500Y-52300000D03*
%TD*%
D48*
%TO.C,J5*%
X96050000Y-69800000D03*
D49*
X93550000Y-69800000D03*
%TD*%
D50*
%TO.C,U8*%
X76492500Y-42935000D03*
X76492500Y-44205000D03*
X76492500Y-45475000D03*
X76492500Y-46745000D03*
X76492500Y-48015000D03*
X76492500Y-49285000D03*
X76492500Y-50555000D03*
X76492500Y-51825000D03*
X76492500Y-53095000D03*
X76492500Y-54365000D03*
X76492500Y-55635000D03*
X76492500Y-56905000D03*
X76492500Y-58175000D03*
X76492500Y-59445000D03*
D51*
X79532500Y-60695000D03*
X80802500Y-60695000D03*
X82072500Y-60695000D03*
X83342500Y-60695000D03*
X84612500Y-60695000D03*
X85882500Y-60695000D03*
X87152500Y-60695000D03*
X88422500Y-60695000D03*
X89692500Y-60695000D03*
X90962500Y-60695000D03*
D50*
X93992500Y-59445000D03*
X93992500Y-58175000D03*
X93992500Y-56905000D03*
X93992500Y-55635000D03*
X93992500Y-54365000D03*
X93992500Y-53095000D03*
X93992500Y-51825000D03*
X93992500Y-50555000D03*
X93992500Y-49285000D03*
X93992500Y-48015000D03*
X93992500Y-46745000D03*
X93992500Y-45475000D03*
X93992500Y-44205000D03*
X93992500Y-42935000D03*
D52*
X83037500Y-49512500D03*
X83037500Y-51037500D03*
X83800000Y-48750000D03*
X83800000Y-50275000D03*
X83800000Y-51800000D03*
X84562500Y-49512500D03*
D53*
X84562500Y-50275000D03*
D52*
X84562500Y-51037500D03*
X85325000Y-48750000D03*
X85325000Y-50275000D03*
X85325000Y-51800000D03*
X86087500Y-49512500D03*
X86087500Y-51037500D03*
%TD*%
D35*
%TO.C,Q3*%
X106400000Y-58700000D03*
X104500000Y-58700000D03*
X105450000Y-60575000D03*
%TD*%
D10*
%TO.C,R2*%
X101935000Y-44812500D03*
X101935000Y-42987500D03*
%TD*%
D29*
%TO.C,H4*%
X104000000Y-76000000D03*
%TD*%
M02*
