%TF.GenerationSoftware,KiCad,Pcbnew,7.0.9-7.0.9~ubuntu22.04.1*%
%TF.CreationDate,2023-12-14T14:14:11+03:00*%
%TF.ProjectId,main-module,6d61696e-2d6d-46f6-9475-6c652e6b6963,rev?*%
%TF.SameCoordinates,Original*%
%TF.FileFunction,Drillmap*%
%TF.FilePolarity,Positive*%
%FSLAX45Y45*%
G04 Gerber Fmt 4.5, Leading zero omitted, Abs format (unit mm)*
G04 Created by KiCad (PCBNEW 7.0.9-7.0.9~ubuntu22.04.1) date 2023-12-14 14:14:11*
%MOMM*%
%LPD*%
G01*
G04 APERTURE LIST*
%ADD10C,0.100000*%
%ADD11C,0.200000*%
%ADD12C,0.220000*%
G04 APERTURE END LIST*
D10*
X4200000Y-9400000D02*
X12100000Y-9400000D01*
X4200000Y-4200000D02*
X4200000Y-9400000D01*
X12100000Y-4200000D02*
X4200000Y-4200000D01*
X12100000Y-5585000D02*
X12100000Y-9400000D01*
X12100000Y-4200000D02*
X12100000Y-4325000D01*
D11*
D12*
X6290000Y-6590000D02*
X6510000Y-6810000D01*
X6510000Y-6590000D02*
X6290000Y-6810000D01*
X7290000Y-8890000D02*
X7510000Y-9110000D01*
X7510000Y-8890000D02*
X7290000Y-9110000D01*
X10290000Y-7490000D02*
X10510000Y-7710000D01*
X10510000Y-7490000D02*
X10290000Y-7710000D01*
D11*
X4455777Y-9716484D02*
X4455777Y-9516484D01*
X4455777Y-9516484D02*
X4503396Y-9516484D01*
X4503396Y-9516484D02*
X4531967Y-9526008D01*
X4531967Y-9526008D02*
X4551015Y-9545055D01*
X4551015Y-9545055D02*
X4560539Y-9564103D01*
X4560539Y-9564103D02*
X4570063Y-9602198D01*
X4570063Y-9602198D02*
X4570063Y-9630770D01*
X4570063Y-9630770D02*
X4560539Y-9668865D01*
X4560539Y-9668865D02*
X4551015Y-9687912D01*
X4551015Y-9687912D02*
X4531967Y-9706960D01*
X4531967Y-9706960D02*
X4503396Y-9716484D01*
X4503396Y-9716484D02*
X4455777Y-9716484D01*
X4655777Y-9716484D02*
X4655777Y-9583150D01*
X4655777Y-9621246D02*
X4665301Y-9602198D01*
X4665301Y-9602198D02*
X4674824Y-9592674D01*
X4674824Y-9592674D02*
X4693872Y-9583150D01*
X4693872Y-9583150D02*
X4712920Y-9583150D01*
X4779586Y-9716484D02*
X4779586Y-9583150D01*
X4779586Y-9516484D02*
X4770063Y-9526008D01*
X4770063Y-9526008D02*
X4779586Y-9535531D01*
X4779586Y-9535531D02*
X4789110Y-9526008D01*
X4789110Y-9526008D02*
X4779586Y-9516484D01*
X4779586Y-9516484D02*
X4779586Y-9535531D01*
X4903396Y-9716484D02*
X4884348Y-9706960D01*
X4884348Y-9706960D02*
X4874824Y-9687912D01*
X4874824Y-9687912D02*
X4874824Y-9516484D01*
X5008158Y-9716484D02*
X4989110Y-9706960D01*
X4989110Y-9706960D02*
X4979586Y-9687912D01*
X4979586Y-9687912D02*
X4979586Y-9516484D01*
X5236729Y-9716484D02*
X5236729Y-9516484D01*
X5236729Y-9516484D02*
X5303396Y-9659341D01*
X5303396Y-9659341D02*
X5370063Y-9516484D01*
X5370063Y-9516484D02*
X5370063Y-9716484D01*
X5551015Y-9716484D02*
X5551015Y-9611722D01*
X5551015Y-9611722D02*
X5541491Y-9592674D01*
X5541491Y-9592674D02*
X5522444Y-9583150D01*
X5522444Y-9583150D02*
X5484348Y-9583150D01*
X5484348Y-9583150D02*
X5465301Y-9592674D01*
X5551015Y-9706960D02*
X5531967Y-9716484D01*
X5531967Y-9716484D02*
X5484348Y-9716484D01*
X5484348Y-9716484D02*
X5465301Y-9706960D01*
X5465301Y-9706960D02*
X5455777Y-9687912D01*
X5455777Y-9687912D02*
X5455777Y-9668865D01*
X5455777Y-9668865D02*
X5465301Y-9649817D01*
X5465301Y-9649817D02*
X5484348Y-9640293D01*
X5484348Y-9640293D02*
X5531967Y-9640293D01*
X5531967Y-9640293D02*
X5551015Y-9630770D01*
X5646253Y-9583150D02*
X5646253Y-9783150D01*
X5646253Y-9592674D02*
X5665301Y-9583150D01*
X5665301Y-9583150D02*
X5703396Y-9583150D01*
X5703396Y-9583150D02*
X5722443Y-9592674D01*
X5722443Y-9592674D02*
X5731967Y-9602198D01*
X5731967Y-9602198D02*
X5741491Y-9621246D01*
X5741491Y-9621246D02*
X5741491Y-9678389D01*
X5741491Y-9678389D02*
X5731967Y-9697436D01*
X5731967Y-9697436D02*
X5722443Y-9706960D01*
X5722443Y-9706960D02*
X5703396Y-9716484D01*
X5703396Y-9716484D02*
X5665301Y-9716484D01*
X5665301Y-9716484D02*
X5646253Y-9706960D01*
X5827205Y-9697436D02*
X5836729Y-9706960D01*
X5836729Y-9706960D02*
X5827205Y-9716484D01*
X5827205Y-9716484D02*
X5817682Y-9706960D01*
X5817682Y-9706960D02*
X5827205Y-9697436D01*
X5827205Y-9697436D02*
X5827205Y-9716484D01*
X5827205Y-9592674D02*
X5836729Y-9602198D01*
X5836729Y-9602198D02*
X5827205Y-9611722D01*
X5827205Y-9611722D02*
X5817682Y-9602198D01*
X5817682Y-9602198D02*
X5827205Y-9592674D01*
X5827205Y-9592674D02*
X5827205Y-9611722D01*
X3995000Y-9945000D02*
X4195000Y-10145000D01*
X4195000Y-9945000D02*
X3995000Y-10145000D01*
X4446253Y-9955531D02*
X4455777Y-9946008D01*
X4455777Y-9946008D02*
X4474824Y-9936484D01*
X4474824Y-9936484D02*
X4522444Y-9936484D01*
X4522444Y-9936484D02*
X4541491Y-9946008D01*
X4541491Y-9946008D02*
X4551015Y-9955531D01*
X4551015Y-9955531D02*
X4560539Y-9974579D01*
X4560539Y-9974579D02*
X4560539Y-9993627D01*
X4560539Y-9993627D02*
X4551015Y-10022198D01*
X4551015Y-10022198D02*
X4436729Y-10136484D01*
X4436729Y-10136484D02*
X4560539Y-10136484D01*
X4646253Y-10117436D02*
X4655777Y-10126960D01*
X4655777Y-10126960D02*
X4646253Y-10136484D01*
X4646253Y-10136484D02*
X4636729Y-10126960D01*
X4636729Y-10126960D02*
X4646253Y-10117436D01*
X4646253Y-10117436D02*
X4646253Y-10136484D01*
X4731967Y-9955531D02*
X4741491Y-9946008D01*
X4741491Y-9946008D02*
X4760539Y-9936484D01*
X4760539Y-9936484D02*
X4808158Y-9936484D01*
X4808158Y-9936484D02*
X4827205Y-9946008D01*
X4827205Y-9946008D02*
X4836729Y-9955531D01*
X4836729Y-9955531D02*
X4846253Y-9974579D01*
X4846253Y-9974579D02*
X4846253Y-9993627D01*
X4846253Y-9993627D02*
X4836729Y-10022198D01*
X4836729Y-10022198D02*
X4722444Y-10136484D01*
X4722444Y-10136484D02*
X4846253Y-10136484D01*
X4970063Y-9936484D02*
X4989110Y-9936484D01*
X4989110Y-9936484D02*
X5008158Y-9946008D01*
X5008158Y-9946008D02*
X5017682Y-9955531D01*
X5017682Y-9955531D02*
X5027205Y-9974579D01*
X5027205Y-9974579D02*
X5036729Y-10012674D01*
X5036729Y-10012674D02*
X5036729Y-10060293D01*
X5036729Y-10060293D02*
X5027205Y-10098389D01*
X5027205Y-10098389D02*
X5017682Y-10117436D01*
X5017682Y-10117436D02*
X5008158Y-10126960D01*
X5008158Y-10126960D02*
X4989110Y-10136484D01*
X4989110Y-10136484D02*
X4970063Y-10136484D01*
X4970063Y-10136484D02*
X4951015Y-10126960D01*
X4951015Y-10126960D02*
X4941491Y-10117436D01*
X4941491Y-10117436D02*
X4931967Y-10098389D01*
X4931967Y-10098389D02*
X4922444Y-10060293D01*
X4922444Y-10060293D02*
X4922444Y-10012674D01*
X4922444Y-10012674D02*
X4931967Y-9974579D01*
X4931967Y-9974579D02*
X4941491Y-9955531D01*
X4941491Y-9955531D02*
X4951015Y-9946008D01*
X4951015Y-9946008D02*
X4970063Y-9936484D01*
X5160539Y-9936484D02*
X5179586Y-9936484D01*
X5179586Y-9936484D02*
X5198634Y-9946008D01*
X5198634Y-9946008D02*
X5208158Y-9955531D01*
X5208158Y-9955531D02*
X5217682Y-9974579D01*
X5217682Y-9974579D02*
X5227205Y-10012674D01*
X5227205Y-10012674D02*
X5227205Y-10060293D01*
X5227205Y-10060293D02*
X5217682Y-10098389D01*
X5217682Y-10098389D02*
X5208158Y-10117436D01*
X5208158Y-10117436D02*
X5198634Y-10126960D01*
X5198634Y-10126960D02*
X5179586Y-10136484D01*
X5179586Y-10136484D02*
X5160539Y-10136484D01*
X5160539Y-10136484D02*
X5141491Y-10126960D01*
X5141491Y-10126960D02*
X5131967Y-10117436D01*
X5131967Y-10117436D02*
X5122444Y-10098389D01*
X5122444Y-10098389D02*
X5112920Y-10060293D01*
X5112920Y-10060293D02*
X5112920Y-10012674D01*
X5112920Y-10012674D02*
X5122444Y-9974579D01*
X5122444Y-9974579D02*
X5131967Y-9955531D01*
X5131967Y-9955531D02*
X5141491Y-9946008D01*
X5141491Y-9946008D02*
X5160539Y-9936484D01*
X5312920Y-10136484D02*
X5312920Y-10003150D01*
X5312920Y-10022198D02*
X5322444Y-10012674D01*
X5322444Y-10012674D02*
X5341491Y-10003150D01*
X5341491Y-10003150D02*
X5370063Y-10003150D01*
X5370063Y-10003150D02*
X5389110Y-10012674D01*
X5389110Y-10012674D02*
X5398634Y-10031722D01*
X5398634Y-10031722D02*
X5398634Y-10136484D01*
X5398634Y-10031722D02*
X5408158Y-10012674D01*
X5408158Y-10012674D02*
X5427205Y-10003150D01*
X5427205Y-10003150D02*
X5455777Y-10003150D01*
X5455777Y-10003150D02*
X5474825Y-10012674D01*
X5474825Y-10012674D02*
X5484348Y-10031722D01*
X5484348Y-10031722D02*
X5484348Y-10136484D01*
X5579586Y-10136484D02*
X5579586Y-10003150D01*
X5579586Y-10022198D02*
X5589110Y-10012674D01*
X5589110Y-10012674D02*
X5608158Y-10003150D01*
X5608158Y-10003150D02*
X5636729Y-10003150D01*
X5636729Y-10003150D02*
X5655777Y-10012674D01*
X5655777Y-10012674D02*
X5665301Y-10031722D01*
X5665301Y-10031722D02*
X5665301Y-10136484D01*
X5665301Y-10031722D02*
X5674824Y-10012674D01*
X5674824Y-10012674D02*
X5693872Y-10003150D01*
X5693872Y-10003150D02*
X5722443Y-10003150D01*
X5722443Y-10003150D02*
X5741491Y-10012674D01*
X5741491Y-10012674D02*
X5751015Y-10031722D01*
X5751015Y-10031722D02*
X5751015Y-10136484D01*
X6141491Y-9926960D02*
X5970063Y-10184103D01*
X6398634Y-9936484D02*
X6417682Y-9936484D01*
X6417682Y-9936484D02*
X6436729Y-9946008D01*
X6436729Y-9946008D02*
X6446253Y-9955531D01*
X6446253Y-9955531D02*
X6455777Y-9974579D01*
X6455777Y-9974579D02*
X6465301Y-10012674D01*
X6465301Y-10012674D02*
X6465301Y-10060293D01*
X6465301Y-10060293D02*
X6455777Y-10098389D01*
X6455777Y-10098389D02*
X6446253Y-10117436D01*
X6446253Y-10117436D02*
X6436729Y-10126960D01*
X6436729Y-10126960D02*
X6417682Y-10136484D01*
X6417682Y-10136484D02*
X6398634Y-10136484D01*
X6398634Y-10136484D02*
X6379586Y-10126960D01*
X6379586Y-10126960D02*
X6370063Y-10117436D01*
X6370063Y-10117436D02*
X6360539Y-10098389D01*
X6360539Y-10098389D02*
X6351015Y-10060293D01*
X6351015Y-10060293D02*
X6351015Y-10012674D01*
X6351015Y-10012674D02*
X6360539Y-9974579D01*
X6360539Y-9974579D02*
X6370063Y-9955531D01*
X6370063Y-9955531D02*
X6379586Y-9946008D01*
X6379586Y-9946008D02*
X6398634Y-9936484D01*
X6551015Y-10117436D02*
X6560539Y-10126960D01*
X6560539Y-10126960D02*
X6551015Y-10136484D01*
X6551015Y-10136484D02*
X6541491Y-10126960D01*
X6541491Y-10126960D02*
X6551015Y-10117436D01*
X6551015Y-10117436D02*
X6551015Y-10136484D01*
X6684348Y-9936484D02*
X6703396Y-9936484D01*
X6703396Y-9936484D02*
X6722444Y-9946008D01*
X6722444Y-9946008D02*
X6731967Y-9955531D01*
X6731967Y-9955531D02*
X6741491Y-9974579D01*
X6741491Y-9974579D02*
X6751015Y-10012674D01*
X6751015Y-10012674D02*
X6751015Y-10060293D01*
X6751015Y-10060293D02*
X6741491Y-10098389D01*
X6741491Y-10098389D02*
X6731967Y-10117436D01*
X6731967Y-10117436D02*
X6722444Y-10126960D01*
X6722444Y-10126960D02*
X6703396Y-10136484D01*
X6703396Y-10136484D02*
X6684348Y-10136484D01*
X6684348Y-10136484D02*
X6665301Y-10126960D01*
X6665301Y-10126960D02*
X6655777Y-10117436D01*
X6655777Y-10117436D02*
X6646253Y-10098389D01*
X6646253Y-10098389D02*
X6636729Y-10060293D01*
X6636729Y-10060293D02*
X6636729Y-10012674D01*
X6636729Y-10012674D02*
X6646253Y-9974579D01*
X6646253Y-9974579D02*
X6655777Y-9955531D01*
X6655777Y-9955531D02*
X6665301Y-9946008D01*
X6665301Y-9946008D02*
X6684348Y-9936484D01*
X6865301Y-10022198D02*
X6846253Y-10012674D01*
X6846253Y-10012674D02*
X6836729Y-10003150D01*
X6836729Y-10003150D02*
X6827206Y-9984103D01*
X6827206Y-9984103D02*
X6827206Y-9974579D01*
X6827206Y-9974579D02*
X6836729Y-9955531D01*
X6836729Y-9955531D02*
X6846253Y-9946008D01*
X6846253Y-9946008D02*
X6865301Y-9936484D01*
X6865301Y-9936484D02*
X6903396Y-9936484D01*
X6903396Y-9936484D02*
X6922444Y-9946008D01*
X6922444Y-9946008D02*
X6931967Y-9955531D01*
X6931967Y-9955531D02*
X6941491Y-9974579D01*
X6941491Y-9974579D02*
X6941491Y-9984103D01*
X6941491Y-9984103D02*
X6931967Y-10003150D01*
X6931967Y-10003150D02*
X6922444Y-10012674D01*
X6922444Y-10012674D02*
X6903396Y-10022198D01*
X6903396Y-10022198D02*
X6865301Y-10022198D01*
X6865301Y-10022198D02*
X6846253Y-10031722D01*
X6846253Y-10031722D02*
X6836729Y-10041246D01*
X6836729Y-10041246D02*
X6827206Y-10060293D01*
X6827206Y-10060293D02*
X6827206Y-10098389D01*
X6827206Y-10098389D02*
X6836729Y-10117436D01*
X6836729Y-10117436D02*
X6846253Y-10126960D01*
X6846253Y-10126960D02*
X6865301Y-10136484D01*
X6865301Y-10136484D02*
X6903396Y-10136484D01*
X6903396Y-10136484D02*
X6922444Y-10126960D01*
X6922444Y-10126960D02*
X6931967Y-10117436D01*
X6931967Y-10117436D02*
X6941491Y-10098389D01*
X6941491Y-10098389D02*
X6941491Y-10060293D01*
X6941491Y-10060293D02*
X6931967Y-10041246D01*
X6931967Y-10041246D02*
X6922444Y-10031722D01*
X6922444Y-10031722D02*
X6903396Y-10022198D01*
X7112920Y-9936484D02*
X7074825Y-9936484D01*
X7074825Y-9936484D02*
X7055777Y-9946008D01*
X7055777Y-9946008D02*
X7046253Y-9955531D01*
X7046253Y-9955531D02*
X7027206Y-9984103D01*
X7027206Y-9984103D02*
X7017682Y-10022198D01*
X7017682Y-10022198D02*
X7017682Y-10098389D01*
X7017682Y-10098389D02*
X7027206Y-10117436D01*
X7027206Y-10117436D02*
X7036729Y-10126960D01*
X7036729Y-10126960D02*
X7055777Y-10136484D01*
X7055777Y-10136484D02*
X7093872Y-10136484D01*
X7093872Y-10136484D02*
X7112920Y-10126960D01*
X7112920Y-10126960D02*
X7122444Y-10117436D01*
X7122444Y-10117436D02*
X7131967Y-10098389D01*
X7131967Y-10098389D02*
X7131967Y-10050770D01*
X7131967Y-10050770D02*
X7122444Y-10031722D01*
X7122444Y-10031722D02*
X7112920Y-10022198D01*
X7112920Y-10022198D02*
X7093872Y-10012674D01*
X7093872Y-10012674D02*
X7055777Y-10012674D01*
X7055777Y-10012674D02*
X7036729Y-10022198D01*
X7036729Y-10022198D02*
X7027206Y-10031722D01*
X7027206Y-10031722D02*
X7017682Y-10050770D01*
X7303396Y-9936484D02*
X7265301Y-9936484D01*
X7265301Y-9936484D02*
X7246253Y-9946008D01*
X7246253Y-9946008D02*
X7236729Y-9955531D01*
X7236729Y-9955531D02*
X7217682Y-9984103D01*
X7217682Y-9984103D02*
X7208158Y-10022198D01*
X7208158Y-10022198D02*
X7208158Y-10098389D01*
X7208158Y-10098389D02*
X7217682Y-10117436D01*
X7217682Y-10117436D02*
X7227206Y-10126960D01*
X7227206Y-10126960D02*
X7246253Y-10136484D01*
X7246253Y-10136484D02*
X7284348Y-10136484D01*
X7284348Y-10136484D02*
X7303396Y-10126960D01*
X7303396Y-10126960D02*
X7312920Y-10117436D01*
X7312920Y-10117436D02*
X7322444Y-10098389D01*
X7322444Y-10098389D02*
X7322444Y-10050770D01*
X7322444Y-10050770D02*
X7312920Y-10031722D01*
X7312920Y-10031722D02*
X7303396Y-10022198D01*
X7303396Y-10022198D02*
X7284348Y-10012674D01*
X7284348Y-10012674D02*
X7246253Y-10012674D01*
X7246253Y-10012674D02*
X7227206Y-10022198D01*
X7227206Y-10022198D02*
X7217682Y-10031722D01*
X7217682Y-10031722D02*
X7208158Y-10050770D01*
X7398634Y-9936484D02*
X7398634Y-9974579D01*
X7474825Y-9936484D02*
X7474825Y-9974579D01*
X7770063Y-10212674D02*
X7760539Y-10203150D01*
X7760539Y-10203150D02*
X7741491Y-10174579D01*
X7741491Y-10174579D02*
X7731968Y-10155531D01*
X7731968Y-10155531D02*
X7722444Y-10126960D01*
X7722444Y-10126960D02*
X7712920Y-10079341D01*
X7712920Y-10079341D02*
X7712920Y-10041246D01*
X7712920Y-10041246D02*
X7722444Y-9993627D01*
X7722444Y-9993627D02*
X7731968Y-9965055D01*
X7731968Y-9965055D02*
X7741491Y-9946008D01*
X7741491Y-9946008D02*
X7760539Y-9917436D01*
X7760539Y-9917436D02*
X7770063Y-9907912D01*
X7827206Y-9936484D02*
X7951015Y-9936484D01*
X7951015Y-9936484D02*
X7884348Y-10012674D01*
X7884348Y-10012674D02*
X7912920Y-10012674D01*
X7912920Y-10012674D02*
X7931968Y-10022198D01*
X7931968Y-10022198D02*
X7941491Y-10031722D01*
X7941491Y-10031722D02*
X7951015Y-10050770D01*
X7951015Y-10050770D02*
X7951015Y-10098389D01*
X7951015Y-10098389D02*
X7941491Y-10117436D01*
X7941491Y-10117436D02*
X7931968Y-10126960D01*
X7931968Y-10126960D02*
X7912920Y-10136484D01*
X7912920Y-10136484D02*
X7855777Y-10136484D01*
X7855777Y-10136484D02*
X7836729Y-10126960D01*
X7836729Y-10126960D02*
X7827206Y-10117436D01*
X8189110Y-10136484D02*
X8189110Y-9936484D01*
X8274825Y-10136484D02*
X8274825Y-10031722D01*
X8274825Y-10031722D02*
X8265301Y-10012674D01*
X8265301Y-10012674D02*
X8246253Y-10003150D01*
X8246253Y-10003150D02*
X8217682Y-10003150D01*
X8217682Y-10003150D02*
X8198634Y-10012674D01*
X8198634Y-10012674D02*
X8189110Y-10022198D01*
X8398634Y-10136484D02*
X8379587Y-10126960D01*
X8379587Y-10126960D02*
X8370063Y-10117436D01*
X8370063Y-10117436D02*
X8360539Y-10098389D01*
X8360539Y-10098389D02*
X8360539Y-10041246D01*
X8360539Y-10041246D02*
X8370063Y-10022198D01*
X8370063Y-10022198D02*
X8379587Y-10012674D01*
X8379587Y-10012674D02*
X8398634Y-10003150D01*
X8398634Y-10003150D02*
X8427206Y-10003150D01*
X8427206Y-10003150D02*
X8446253Y-10012674D01*
X8446253Y-10012674D02*
X8455777Y-10022198D01*
X8455777Y-10022198D02*
X8465301Y-10041246D01*
X8465301Y-10041246D02*
X8465301Y-10098389D01*
X8465301Y-10098389D02*
X8455777Y-10117436D01*
X8455777Y-10117436D02*
X8446253Y-10126960D01*
X8446253Y-10126960D02*
X8427206Y-10136484D01*
X8427206Y-10136484D02*
X8398634Y-10136484D01*
X8579587Y-10136484D02*
X8560539Y-10126960D01*
X8560539Y-10126960D02*
X8551015Y-10107912D01*
X8551015Y-10107912D02*
X8551015Y-9936484D01*
X8731968Y-10126960D02*
X8712920Y-10136484D01*
X8712920Y-10136484D02*
X8674825Y-10136484D01*
X8674825Y-10136484D02*
X8655777Y-10126960D01*
X8655777Y-10126960D02*
X8646253Y-10107912D01*
X8646253Y-10107912D02*
X8646253Y-10031722D01*
X8646253Y-10031722D02*
X8655777Y-10012674D01*
X8655777Y-10012674D02*
X8674825Y-10003150D01*
X8674825Y-10003150D02*
X8712920Y-10003150D01*
X8712920Y-10003150D02*
X8731968Y-10012674D01*
X8731968Y-10012674D02*
X8741492Y-10031722D01*
X8741492Y-10031722D02*
X8741492Y-10050770D01*
X8741492Y-10050770D02*
X8646253Y-10069817D01*
X8817682Y-10126960D02*
X8836730Y-10136484D01*
X8836730Y-10136484D02*
X8874825Y-10136484D01*
X8874825Y-10136484D02*
X8893873Y-10126960D01*
X8893873Y-10126960D02*
X8903396Y-10107912D01*
X8903396Y-10107912D02*
X8903396Y-10098389D01*
X8903396Y-10098389D02*
X8893873Y-10079341D01*
X8893873Y-10079341D02*
X8874825Y-10069817D01*
X8874825Y-10069817D02*
X8846253Y-10069817D01*
X8846253Y-10069817D02*
X8827206Y-10060293D01*
X8827206Y-10060293D02*
X8817682Y-10041246D01*
X8817682Y-10041246D02*
X8817682Y-10031722D01*
X8817682Y-10031722D02*
X8827206Y-10012674D01*
X8827206Y-10012674D02*
X8846253Y-10003150D01*
X8846253Y-10003150D02*
X8874825Y-10003150D01*
X8874825Y-10003150D02*
X8893873Y-10012674D01*
X8970063Y-10212674D02*
X8979587Y-10203150D01*
X8979587Y-10203150D02*
X8998634Y-10174579D01*
X8998634Y-10174579D02*
X9008158Y-10155531D01*
X9008158Y-10155531D02*
X9017682Y-10126960D01*
X9017682Y-10126960D02*
X9027206Y-10079341D01*
X9027206Y-10079341D02*
X9027206Y-10041246D01*
X9027206Y-10041246D02*
X9017682Y-9993627D01*
X9017682Y-9993627D02*
X9008158Y-9965055D01*
X9008158Y-9965055D02*
X8998634Y-9946008D01*
X8998634Y-9946008D02*
X8979587Y-9917436D01*
X8979587Y-9917436D02*
X8970063Y-9907912D01*
X9331968Y-10212674D02*
X9322444Y-10203150D01*
X9322444Y-10203150D02*
X9303396Y-10174579D01*
X9303396Y-10174579D02*
X9293873Y-10155531D01*
X9293873Y-10155531D02*
X9284349Y-10126960D01*
X9284349Y-10126960D02*
X9274825Y-10079341D01*
X9274825Y-10079341D02*
X9274825Y-10041246D01*
X9274825Y-10041246D02*
X9284349Y-9993627D01*
X9284349Y-9993627D02*
X9293873Y-9965055D01*
X9293873Y-9965055D02*
X9303396Y-9946008D01*
X9303396Y-9946008D02*
X9322444Y-9917436D01*
X9322444Y-9917436D02*
X9331968Y-9907912D01*
X9408158Y-10003150D02*
X9408158Y-10136484D01*
X9408158Y-10022198D02*
X9417682Y-10012674D01*
X9417682Y-10012674D02*
X9436730Y-10003150D01*
X9436730Y-10003150D02*
X9465301Y-10003150D01*
X9465301Y-10003150D02*
X9484349Y-10012674D01*
X9484349Y-10012674D02*
X9493873Y-10031722D01*
X9493873Y-10031722D02*
X9493873Y-10136484D01*
X9617682Y-10136484D02*
X9598634Y-10126960D01*
X9598634Y-10126960D02*
X9589111Y-10117436D01*
X9589111Y-10117436D02*
X9579587Y-10098389D01*
X9579587Y-10098389D02*
X9579587Y-10041246D01*
X9579587Y-10041246D02*
X9589111Y-10022198D01*
X9589111Y-10022198D02*
X9598634Y-10012674D01*
X9598634Y-10012674D02*
X9617682Y-10003150D01*
X9617682Y-10003150D02*
X9646254Y-10003150D01*
X9646254Y-10003150D02*
X9665301Y-10012674D01*
X9665301Y-10012674D02*
X9674825Y-10022198D01*
X9674825Y-10022198D02*
X9684349Y-10041246D01*
X9684349Y-10041246D02*
X9684349Y-10098389D01*
X9684349Y-10098389D02*
X9674825Y-10117436D01*
X9674825Y-10117436D02*
X9665301Y-10126960D01*
X9665301Y-10126960D02*
X9646254Y-10136484D01*
X9646254Y-10136484D02*
X9617682Y-10136484D01*
X9741492Y-10003150D02*
X9817682Y-10003150D01*
X9770063Y-9936484D02*
X9770063Y-10107912D01*
X9770063Y-10107912D02*
X9779587Y-10126960D01*
X9779587Y-10126960D02*
X9798634Y-10136484D01*
X9798634Y-10136484D02*
X9817682Y-10136484D01*
X10036730Y-10003150D02*
X10036730Y-10203150D01*
X10036730Y-10012674D02*
X10055777Y-10003150D01*
X10055777Y-10003150D02*
X10093873Y-10003150D01*
X10093873Y-10003150D02*
X10112920Y-10012674D01*
X10112920Y-10012674D02*
X10122444Y-10022198D01*
X10122444Y-10022198D02*
X10131968Y-10041246D01*
X10131968Y-10041246D02*
X10131968Y-10098389D01*
X10131968Y-10098389D02*
X10122444Y-10117436D01*
X10122444Y-10117436D02*
X10112920Y-10126960D01*
X10112920Y-10126960D02*
X10093873Y-10136484D01*
X10093873Y-10136484D02*
X10055777Y-10136484D01*
X10055777Y-10136484D02*
X10036730Y-10126960D01*
X10246254Y-10136484D02*
X10227206Y-10126960D01*
X10227206Y-10126960D02*
X10217682Y-10107912D01*
X10217682Y-10107912D02*
X10217682Y-9936484D01*
X10408158Y-10136484D02*
X10408158Y-10031722D01*
X10408158Y-10031722D02*
X10398635Y-10012674D01*
X10398635Y-10012674D02*
X10379587Y-10003150D01*
X10379587Y-10003150D02*
X10341492Y-10003150D01*
X10341492Y-10003150D02*
X10322444Y-10012674D01*
X10408158Y-10126960D02*
X10389111Y-10136484D01*
X10389111Y-10136484D02*
X10341492Y-10136484D01*
X10341492Y-10136484D02*
X10322444Y-10126960D01*
X10322444Y-10126960D02*
X10312920Y-10107912D01*
X10312920Y-10107912D02*
X10312920Y-10088865D01*
X10312920Y-10088865D02*
X10322444Y-10069817D01*
X10322444Y-10069817D02*
X10341492Y-10060293D01*
X10341492Y-10060293D02*
X10389111Y-10060293D01*
X10389111Y-10060293D02*
X10408158Y-10050770D01*
X10474825Y-10003150D02*
X10551015Y-10003150D01*
X10503396Y-9936484D02*
X10503396Y-10107912D01*
X10503396Y-10107912D02*
X10512920Y-10126960D01*
X10512920Y-10126960D02*
X10531968Y-10136484D01*
X10531968Y-10136484D02*
X10551015Y-10136484D01*
X10693873Y-10126960D02*
X10674825Y-10136484D01*
X10674825Y-10136484D02*
X10636730Y-10136484D01*
X10636730Y-10136484D02*
X10617682Y-10126960D01*
X10617682Y-10126960D02*
X10608158Y-10107912D01*
X10608158Y-10107912D02*
X10608158Y-10031722D01*
X10608158Y-10031722D02*
X10617682Y-10012674D01*
X10617682Y-10012674D02*
X10636730Y-10003150D01*
X10636730Y-10003150D02*
X10674825Y-10003150D01*
X10674825Y-10003150D02*
X10693873Y-10012674D01*
X10693873Y-10012674D02*
X10703396Y-10031722D01*
X10703396Y-10031722D02*
X10703396Y-10050770D01*
X10703396Y-10050770D02*
X10608158Y-10069817D01*
X10874825Y-10136484D02*
X10874825Y-9936484D01*
X10874825Y-10126960D02*
X10855777Y-10136484D01*
X10855777Y-10136484D02*
X10817682Y-10136484D01*
X10817682Y-10136484D02*
X10798635Y-10126960D01*
X10798635Y-10126960D02*
X10789111Y-10117436D01*
X10789111Y-10117436D02*
X10779587Y-10098389D01*
X10779587Y-10098389D02*
X10779587Y-10041246D01*
X10779587Y-10041246D02*
X10789111Y-10022198D01*
X10789111Y-10022198D02*
X10798635Y-10012674D01*
X10798635Y-10012674D02*
X10817682Y-10003150D01*
X10817682Y-10003150D02*
X10855777Y-10003150D01*
X10855777Y-10003150D02*
X10874825Y-10012674D01*
X10951016Y-10212674D02*
X10960539Y-10203150D01*
X10960539Y-10203150D02*
X10979587Y-10174579D01*
X10979587Y-10174579D02*
X10989111Y-10155531D01*
X10989111Y-10155531D02*
X10998635Y-10126960D01*
X10998635Y-10126960D02*
X11008158Y-10079341D01*
X11008158Y-10079341D02*
X11008158Y-10041246D01*
X11008158Y-10041246D02*
X10998635Y-9993627D01*
X10998635Y-9993627D02*
X10989111Y-9965055D01*
X10989111Y-9965055D02*
X10979587Y-9946008D01*
X10979587Y-9946008D02*
X10960539Y-9917436D01*
X10960539Y-9917436D02*
X10951016Y-9907912D01*
M02*
