M48
; DRILL file {KiCad 7.0.9-7.0.9~ubuntu22.04.1} date Чт 14 дек 2023 14:14:11
; FORMAT={-:-/ absolute / inch / decimal}
; #@! TF.CreationDate,2023-12-14T14:14:11+03:00
; #@! TF.GenerationSoftware,Kicad,Pcbnew,7.0.9-7.0.9~ubuntu22.04.1
; #@! TF.FileFunction,Plated,1,4,PTH
FMAT,2
INCH
; #@! TA.AperFunction,Plated,PTH,ComponentDrill
T1C0.0079
; #@! TA.AperFunction,Plated,PTH,ViaDrill
T2C0.0157
; #@! TA.AperFunction,Plated,PTH,ComponentDrill
T3C0.0315
; #@! TA.AperFunction,Plated,PTH,ComponentDrill
T4C0.0374
; #@! TA.AperFunction,Plated,PTH,ComponentDrill
T5C0.0394
; #@! TA.AperFunction,Plated,PTH,ComponentDrill
T6C0.0472
; #@! TA.AperFunction,Plated,PTH,ComponentDrill
T7C0.0787
%
G90
G05
T1
X3.2692Y-1.9493
X3.2692Y-2.0094
X3.2992Y-1.9193
X3.2992Y-1.9793
X3.2992Y-2.0394
X3.3292Y-1.9493
X3.3292Y-2.0094
X3.3593Y-1.9193
X3.3593Y-1.9793
X3.3593Y-2.0394
X3.3893Y-1.9493
X3.3893Y-2.0094
T2
X1.9659Y-2.6024
X2.3573Y-3.3691
X2.4305Y-2.4724
X2.8543Y-2.7461
X2.8839Y-3.1201
X2.8839Y-3.2382
X3.0118Y-2.0906
X3.1312Y-2.3896
X3.189Y-2.7461
X3.2126Y-1.811
X3.5812Y-2.3896
X3.6904Y-3.4646
X3.7005Y-1.7904
X3.7005Y-1.9404
X3.7005Y-2.1404
X3.7005Y-2.1904
X3.7005Y-2.2404
X3.7008Y-3.1496
X3.815Y-2.063
X3.8661Y-2.0866
X3.9744Y-2.313
X4.0118Y-2.5354
X4.0149Y-2.1326
X4.0368Y-2.1654
X4.0565Y-1.9528
X4.1909Y-2.313
X4.2297Y-1.7717
X4.3203Y-1.9606
X4.3386Y-2.3071
X4.3557Y-1.937
X4.3911Y-1.9016
X4.3911Y-2.0079
X4.4226Y-2.0512
X4.4266Y-1.8583
X4.5276Y-2.4705
T3
X2.1746Y-1.7677
X2.1746Y-1.9055
X2.5289Y-1.7598
X2.5289Y-1.8583
T4
X2.0866Y-2.8661
X2.185Y-2.8661
X2.2835Y-2.8661
X2.3819Y-2.8661
T5
X1.7543Y-3.1093
X1.7543Y-3.6093
X1.8331Y-1.7815
X1.8331Y-1.8799
X1.8543Y-3.1093
X1.8543Y-3.6093
X1.9543Y-3.1093
X1.9543Y-3.6093
X2.0543Y-3.1093
X2.0543Y-3.6093
X2.1543Y-3.1093
X2.1543Y-3.6093
X2.2543Y-3.1093
X2.2543Y-3.6093
X2.3543Y-3.1093
X2.3543Y-3.6093
X2.3665Y-2.2776
X2.3665Y-2.376
X2.4543Y-3.1093
X2.4543Y-3.6093
X3.4888Y-3.5787
X3.4913Y-3.2874
X3.5888Y-3.5787
X3.5913Y-3.2874
X3.6831Y-2.748
X3.6888Y-3.5787
X3.6913Y-3.2874
X3.7815Y-2.748
X3.7888Y-3.5787
X3.7913Y-3.2874
X4.3699Y-2.7598
X4.4699Y-2.7598
X4.5352Y-3.5787
X4.5378Y-3.2874
X4.5699Y-2.7598
X4.6352Y-3.5787
X4.6378Y-3.2874
T6
X2.7612Y-1.7628
X2.7612Y-2.0187
X2.7612Y-2.1555
X2.7612Y-2.4114
T7
X4.685Y-3.0315
T3
G00X4.5423Y-1.7343
M15
G01X4.5108Y-1.7343
M16
G05
G00X4.5423Y-2.1752
M15
G01X4.5108Y-2.1752
M16
G05
G00X4.7047Y-1.7343
M15
G01X4.6575Y-1.7343
M16
G05
G00X4.7047Y-2.1752
M15
G01X4.6575Y-2.1752
M16
G05
T0
M30
