%TF.GenerationSoftware,KiCad,Pcbnew,7.0.8-7.0.8~ubuntu22.04.1*%
%TF.CreationDate,2023-10-31T14:19:29+03:00*%
%TF.ProjectId,handle-module,68616e64-6c65-42d6-9d6f-64756c652e6b,rev?*%
%TF.SameCoordinates,Original*%
%TF.FileFunction,Soldermask,Bot*%
%TF.FilePolarity,Negative*%
%FSLAX46Y46*%
G04 Gerber Fmt 4.6, Leading zero omitted, Abs format (unit mm)*
G04 Created by KiCad (PCBNEW 7.0.8-7.0.8~ubuntu22.04.1) date 2023-10-31 14:19:29*
%MOMM*%
%LPD*%
G01*
G04 APERTURE LIST*
G04 Aperture macros list*
%AMRoundRect*
0 Rectangle with rounded corners*
0 $1 Rounding radius*
0 $2 $3 $4 $5 $6 $7 $8 $9 X,Y pos of 4 corners*
0 Add a 4 corners polygon primitive as box body*
4,1,4,$2,$3,$4,$5,$6,$7,$8,$9,$2,$3,0*
0 Add four circle primitives for the rounded corners*
1,1,$1+$1,$2,$3*
1,1,$1+$1,$4,$5*
1,1,$1+$1,$6,$7*
1,1,$1+$1,$8,$9*
0 Add four rect primitives between the rounded corners*
20,1,$1+$1,$2,$3,$4,$5,0*
20,1,$1+$1,$4,$5,$6,$7,0*
20,1,$1+$1,$6,$7,$8,$9,0*
20,1,$1+$1,$8,$9,$2,$3,0*%
G04 Aperture macros list end*
%ADD10C,1.500000*%
%ADD11R,1.700000X1.700000*%
%ADD12O,1.700000X1.700000*%
%ADD13C,2.000000*%
%ADD14R,1.600000X1.600000*%
%ADD15C,1.600000*%
%ADD16C,2.200000*%
%ADD17C,1.524000*%
%ADD18R,1.800000X1.800000*%
%ADD19C,1.800000*%
%ADD20C,3.000000*%
%ADD21RoundRect,0.250000X0.725000X-0.600000X0.725000X0.600000X-0.725000X0.600000X-0.725000X-0.600000X0*%
%ADD22O,1.950000X1.700000*%
%ADD23RoundRect,0.250000X-0.262500X-0.450000X0.262500X-0.450000X0.262500X0.450000X-0.262500X0.450000X0*%
%ADD24RoundRect,0.225000X-0.250000X0.225000X-0.250000X-0.225000X0.250000X-0.225000X0.250000X0.225000X0*%
%ADD25RoundRect,0.150000X-0.150000X0.587500X-0.150000X-0.587500X0.150000X-0.587500X0.150000X0.587500X0*%
%ADD26RoundRect,0.225000X0.250000X-0.225000X0.250000X0.225000X-0.250000X0.225000X-0.250000X-0.225000X0*%
%ADD27RoundRect,0.250000X1.100000X-0.325000X1.100000X0.325000X-1.100000X0.325000X-1.100000X-0.325000X0*%
%ADD28RoundRect,0.250000X0.262500X0.450000X-0.262500X0.450000X-0.262500X-0.450000X0.262500X-0.450000X0*%
%ADD29RoundRect,0.225000X0.225000X0.250000X-0.225000X0.250000X-0.225000X-0.250000X0.225000X-0.250000X0*%
%ADD30RoundRect,0.225000X-0.225000X-0.250000X0.225000X-0.250000X0.225000X0.250000X-0.225000X0.250000X0*%
%ADD31RoundRect,0.250000X-0.325000X-1.100000X0.325000X-1.100000X0.325000X1.100000X-0.325000X1.100000X0*%
%ADD32RoundRect,0.150000X-0.587500X-0.150000X0.587500X-0.150000X0.587500X0.150000X-0.587500X0.150000X0*%
%ADD33RoundRect,0.250000X1.000000X0.650000X-1.000000X0.650000X-1.000000X-0.650000X1.000000X-0.650000X0*%
G04 APERTURE END LIST*
D10*
%TO.C,X1*%
X102750000Y-62175000D03*
X102750000Y-57295000D03*
%TD*%
D11*
%TO.C,J1*%
X177000000Y-49000000D03*
D12*
X177000000Y-51540000D03*
%TD*%
D13*
%TO.C,U2*%
X101380000Y-85750000D03*
X103920000Y-85750000D03*
X122880000Y-85750000D03*
X125420000Y-85750000D03*
X127960000Y-85750000D03*
X130500000Y-85750000D03*
%TD*%
D14*
%TO.C,C6*%
X162750000Y-54775001D03*
D15*
X162750000Y-52275001D03*
%TD*%
D14*
%TO.C,C5*%
X170000000Y-54750000D03*
D15*
X170000000Y-52250000D03*
%TD*%
D16*
%TO.C,H4*%
X101500000Y-70000000D03*
%TD*%
%TO.C,H3*%
X118000000Y-80000000D03*
%TD*%
D17*
%TO.C,U1*%
X103920000Y-77000000D03*
X106460000Y-77000000D03*
X109000000Y-77000000D03*
%TD*%
D18*
%TO.C,D1*%
X138450000Y-68000000D03*
D19*
X140990000Y-68000000D03*
X143530000Y-68000000D03*
%TD*%
D15*
%TO.C,RV1*%
X145225000Y-86300000D03*
X140225000Y-84200000D03*
%TD*%
D13*
%TO.C,SW2*%
X126750000Y-68000000D03*
X133250000Y-68000000D03*
%TD*%
D20*
%TO.C,TP2*%
X173000000Y-49000000D03*
%TD*%
D21*
%TO.C,J3*%
X174500000Y-85250000D03*
D22*
X174500000Y-82750000D03*
X174500000Y-80250000D03*
%TD*%
D16*
%TO.C,H2*%
X137000000Y-79000000D03*
%TD*%
%TO.C,H1*%
X154000000Y-59000000D03*
%TD*%
D13*
%TO.C,SW1*%
X105750000Y-68000000D03*
X112250000Y-68000000D03*
%TD*%
D11*
%TO.C,J4*%
X111290000Y-49000000D03*
D12*
X111290000Y-51540000D03*
X108750000Y-49000000D03*
X108750000Y-51540000D03*
X106210000Y-49000000D03*
X106210000Y-51540000D03*
X103670000Y-49000000D03*
X103670000Y-51540000D03*
X101130000Y-49000000D03*
X101130000Y-51540000D03*
%TD*%
D23*
%TO.C,R29*%
X156800000Y-69900000D03*
X158625000Y-69900000D03*
%TD*%
D24*
%TO.C,C29*%
X176775000Y-81975000D03*
X176775000Y-83525000D03*
%TD*%
D25*
%TO.C,Q2*%
X137630000Y-63025000D03*
X139530000Y-63025000D03*
X138580000Y-64900000D03*
%TD*%
D26*
%TO.C,C26*%
X104500000Y-62250000D03*
X104500000Y-60700000D03*
%TD*%
D23*
%TO.C,R14*%
X153500000Y-77200000D03*
X155325000Y-77200000D03*
%TD*%
D27*
%TO.C,C7*%
X159200000Y-54775000D03*
X159200000Y-51825000D03*
%TD*%
D28*
%TO.C,R10*%
X153612500Y-87700000D03*
X151787500Y-87700000D03*
%TD*%
D26*
%TO.C,C20*%
X152312500Y-71775000D03*
X152312500Y-70225000D03*
%TD*%
D25*
%TO.C,Q1*%
X142550000Y-63025000D03*
X144450000Y-63025000D03*
X143500000Y-64900000D03*
%TD*%
D29*
%TO.C,C27*%
X156975000Y-79700000D03*
X155425000Y-79700000D03*
%TD*%
D26*
%TO.C,C10*%
X147000000Y-85025000D03*
X147000000Y-83475000D03*
%TD*%
D30*
%TO.C,C2*%
X125475000Y-83750000D03*
X127025000Y-83750000D03*
%TD*%
D28*
%TO.C,R24*%
X165012500Y-58100000D03*
X163187500Y-58100000D03*
%TD*%
%TO.C,R8*%
X144912500Y-83250000D03*
X143087500Y-83250000D03*
%TD*%
D23*
%TO.C,R13*%
X148600000Y-76600000D03*
X150425000Y-76600000D03*
%TD*%
D26*
%TO.C,C8*%
X156100000Y-54675000D03*
X156100000Y-53125000D03*
%TD*%
D24*
%TO.C,C9*%
X154340000Y-53125000D03*
X154340000Y-54675000D03*
%TD*%
D23*
%TO.C,R9*%
X151787500Y-85600000D03*
X153612500Y-85600000D03*
%TD*%
D30*
%TO.C,C4*%
X123925000Y-69800000D03*
X125475000Y-69800000D03*
%TD*%
D26*
%TO.C,C23*%
X154012500Y-71775000D03*
X154012500Y-70225000D03*
%TD*%
D24*
%TO.C,C28*%
X166800000Y-58225000D03*
X166800000Y-59775000D03*
%TD*%
D28*
%TO.C,R5*%
X140942500Y-70500000D03*
X139117500Y-70500000D03*
%TD*%
D30*
%TO.C,C1*%
X105725000Y-79600000D03*
X107275000Y-79600000D03*
%TD*%
D23*
%TO.C,R15*%
X153400000Y-74300000D03*
X155225000Y-74300000D03*
%TD*%
%TO.C,R1*%
X142530000Y-60500000D03*
X144355000Y-60500000D03*
%TD*%
D30*
%TO.C,C32*%
X155925000Y-65700000D03*
X157475000Y-65700000D03*
%TD*%
D24*
%TO.C,C25*%
X104500000Y-57175000D03*
X104500000Y-58725000D03*
%TD*%
D29*
%TO.C,C3*%
X114550000Y-70000000D03*
X113000000Y-70000000D03*
%TD*%
D31*
%TO.C,C36*%
X165925000Y-49000000D03*
X168875000Y-49000000D03*
%TD*%
D32*
%TO.C,Q10*%
X163362500Y-66250000D03*
X163362500Y-64350000D03*
X165237500Y-65300000D03*
%TD*%
D29*
%TO.C,C17*%
X150987500Y-74500000D03*
X149437500Y-74500000D03*
%TD*%
D23*
%TO.C,R2*%
X137617500Y-60500000D03*
X139442500Y-60500000D03*
%TD*%
D26*
%TO.C,C33*%
X151750000Y-83775000D03*
X151750000Y-82225000D03*
%TD*%
D29*
%TO.C,C35*%
X151575000Y-65600000D03*
X150025000Y-65600000D03*
%TD*%
D33*
%TO.C,D8*%
X150612500Y-79600000D03*
X146612500Y-79600000D03*
%TD*%
D30*
%TO.C,C12*%
X145837500Y-74100000D03*
X147387500Y-74100000D03*
%TD*%
D28*
%TO.C,R27*%
X158625000Y-67900000D03*
X156800000Y-67900000D03*
%TD*%
D23*
%TO.C,R4*%
X112775000Y-66000000D03*
X114600000Y-66000000D03*
%TD*%
D28*
%TO.C,R3*%
X125612500Y-71900000D03*
X123787500Y-71900000D03*
%TD*%
D27*
%TO.C,C30*%
X174600000Y-62675000D03*
X174600000Y-59725000D03*
%TD*%
M02*
