%TF.GenerationSoftware,KiCad,Pcbnew,8.0.2-8.0.2-0~ubuntu22.04.1*%
%TF.CreationDate,2024-05-10T23:44:38+03:00*%
%TF.ProjectId,handle-module,68616e64-6c65-42d6-9d6f-64756c652e6b,rev?*%
%TF.SameCoordinates,Original*%
%TF.FileFunction,Legend,Top*%
%TF.FilePolarity,Positive*%
%FSLAX46Y46*%
G04 Gerber Fmt 4.6, Leading zero omitted, Abs format (unit mm)*
G04 Created by KiCad (PCBNEW 8.0.2-8.0.2-0~ubuntu22.04.1) date 2024-05-10 23:44:38*
%MOMM*%
%LPD*%
G01*
G04 APERTURE LIST*
%ADD10C,0.150000*%
%ADD11C,0.120000*%
G04 APERTURE END LIST*
D10*
X61490487Y-78250000D02*
X62740487Y-78250000D01*
X62740487Y-78250000D02*
X62740487Y-78500000D01*
X61490487Y-78250000D02*
X61490487Y-78500000D01*
X86638095Y-90554819D02*
X87209523Y-90554819D01*
X86923809Y-91554819D02*
X86923809Y-90554819D01*
X87542857Y-91554819D02*
X87542857Y-90554819D01*
X87542857Y-90554819D02*
X87923809Y-90554819D01*
X87923809Y-90554819D02*
X88019047Y-90602438D01*
X88019047Y-90602438D02*
X88066666Y-90650057D01*
X88066666Y-90650057D02*
X88114285Y-90745295D01*
X88114285Y-90745295D02*
X88114285Y-90888152D01*
X88114285Y-90888152D02*
X88066666Y-90983390D01*
X88066666Y-90983390D02*
X88019047Y-91031009D01*
X88019047Y-91031009D02*
X87923809Y-91078628D01*
X87923809Y-91078628D02*
X87542857Y-91078628D01*
X89019047Y-90554819D02*
X88542857Y-90554819D01*
X88542857Y-90554819D02*
X88495238Y-91031009D01*
X88495238Y-91031009D02*
X88542857Y-90983390D01*
X88542857Y-90983390D02*
X88638095Y-90935771D01*
X88638095Y-90935771D02*
X88876190Y-90935771D01*
X88876190Y-90935771D02*
X88971428Y-90983390D01*
X88971428Y-90983390D02*
X89019047Y-91031009D01*
X89019047Y-91031009D02*
X89066666Y-91126247D01*
X89066666Y-91126247D02*
X89066666Y-91364342D01*
X89066666Y-91364342D02*
X89019047Y-91459580D01*
X89019047Y-91459580D02*
X88971428Y-91507200D01*
X88971428Y-91507200D02*
X88876190Y-91554819D01*
X88876190Y-91554819D02*
X88638095Y-91554819D01*
X88638095Y-91554819D02*
X88542857Y-91507200D01*
X88542857Y-91507200D02*
X88495238Y-91459580D01*
X86414286Y-92473866D02*
X87176191Y-92473866D01*
X86795238Y-92854819D02*
X86795238Y-92092914D01*
X88128571Y-91854819D02*
X87652381Y-91854819D01*
X87652381Y-91854819D02*
X87604762Y-92331009D01*
X87604762Y-92331009D02*
X87652381Y-92283390D01*
X87652381Y-92283390D02*
X87747619Y-92235771D01*
X87747619Y-92235771D02*
X87985714Y-92235771D01*
X87985714Y-92235771D02*
X88080952Y-92283390D01*
X88080952Y-92283390D02*
X88128571Y-92331009D01*
X88128571Y-92331009D02*
X88176190Y-92426247D01*
X88176190Y-92426247D02*
X88176190Y-92664342D01*
X88176190Y-92664342D02*
X88128571Y-92759580D01*
X88128571Y-92759580D02*
X88080952Y-92807200D01*
X88080952Y-92807200D02*
X87985714Y-92854819D01*
X87985714Y-92854819D02*
X87747619Y-92854819D01*
X87747619Y-92854819D02*
X87652381Y-92807200D01*
X87652381Y-92807200D02*
X87604762Y-92759580D01*
X88461905Y-91854819D02*
X88795238Y-92854819D01*
X88795238Y-92854819D02*
X89128571Y-91854819D01*
X105391666Y-117231009D02*
X105058333Y-117231009D01*
X105058333Y-117754819D02*
X105058333Y-116754819D01*
X105058333Y-116754819D02*
X105534523Y-116754819D01*
X105867857Y-116850057D02*
X105915476Y-116802438D01*
X105915476Y-116802438D02*
X106010714Y-116754819D01*
X106010714Y-116754819D02*
X106248809Y-116754819D01*
X106248809Y-116754819D02*
X106344047Y-116802438D01*
X106344047Y-116802438D02*
X106391666Y-116850057D01*
X106391666Y-116850057D02*
X106439285Y-116945295D01*
X106439285Y-116945295D02*
X106439285Y-117040533D01*
X106439285Y-117040533D02*
X106391666Y-117183390D01*
X106391666Y-117183390D02*
X105820238Y-117754819D01*
X105820238Y-117754819D02*
X106439285Y-117754819D01*
X78328582Y-93254819D02*
X78328582Y-94064342D01*
X78328582Y-94064342D02*
X78376201Y-94159580D01*
X78376201Y-94159580D02*
X78423820Y-94207200D01*
X78423820Y-94207200D02*
X78519058Y-94254819D01*
X78519058Y-94254819D02*
X78709534Y-94254819D01*
X78709534Y-94254819D02*
X78804772Y-94207200D01*
X78804772Y-94207200D02*
X78852391Y-94159580D01*
X78852391Y-94159580D02*
X78900010Y-94064342D01*
X78900010Y-94064342D02*
X78900010Y-93254819D01*
X79280963Y-93254819D02*
X79900010Y-93254819D01*
X79900010Y-93254819D02*
X79566677Y-93635771D01*
X79566677Y-93635771D02*
X79709534Y-93635771D01*
X79709534Y-93635771D02*
X79804772Y-93683390D01*
X79804772Y-93683390D02*
X79852391Y-93731009D01*
X79852391Y-93731009D02*
X79900010Y-93826247D01*
X79900010Y-93826247D02*
X79900010Y-94064342D01*
X79900010Y-94064342D02*
X79852391Y-94159580D01*
X79852391Y-94159580D02*
X79804772Y-94207200D01*
X79804772Y-94207200D02*
X79709534Y-94254819D01*
X79709534Y-94254819D02*
X79423820Y-94254819D01*
X79423820Y-94254819D02*
X79328582Y-94207200D01*
X79328582Y-94207200D02*
X79280963Y-94159580D01*
X109192629Y-98444580D02*
X109145010Y-98492200D01*
X109145010Y-98492200D02*
X109002153Y-98539819D01*
X109002153Y-98539819D02*
X108906915Y-98539819D01*
X108906915Y-98539819D02*
X108764058Y-98492200D01*
X108764058Y-98492200D02*
X108668820Y-98396961D01*
X108668820Y-98396961D02*
X108621201Y-98301723D01*
X108621201Y-98301723D02*
X108573582Y-98111247D01*
X108573582Y-98111247D02*
X108573582Y-97968390D01*
X108573582Y-97968390D02*
X108621201Y-97777914D01*
X108621201Y-97777914D02*
X108668820Y-97682676D01*
X108668820Y-97682676D02*
X108764058Y-97587438D01*
X108764058Y-97587438D02*
X108906915Y-97539819D01*
X108906915Y-97539819D02*
X109002153Y-97539819D01*
X109002153Y-97539819D02*
X109145010Y-97587438D01*
X109145010Y-97587438D02*
X109192629Y-97635057D01*
X109525963Y-97539819D02*
X110145010Y-97539819D01*
X110145010Y-97539819D02*
X109811677Y-97920771D01*
X109811677Y-97920771D02*
X109954534Y-97920771D01*
X109954534Y-97920771D02*
X110049772Y-97968390D01*
X110049772Y-97968390D02*
X110097391Y-98016009D01*
X110097391Y-98016009D02*
X110145010Y-98111247D01*
X110145010Y-98111247D02*
X110145010Y-98349342D01*
X110145010Y-98349342D02*
X110097391Y-98444580D01*
X110097391Y-98444580D02*
X110049772Y-98492200D01*
X110049772Y-98492200D02*
X109954534Y-98539819D01*
X109954534Y-98539819D02*
X109668820Y-98539819D01*
X109668820Y-98539819D02*
X109573582Y-98492200D01*
X109573582Y-98492200D02*
X109525963Y-98444580D01*
X110764058Y-97539819D02*
X110859296Y-97539819D01*
X110859296Y-97539819D02*
X110954534Y-97587438D01*
X110954534Y-97587438D02*
X111002153Y-97635057D01*
X111002153Y-97635057D02*
X111049772Y-97730295D01*
X111049772Y-97730295D02*
X111097391Y-97920771D01*
X111097391Y-97920771D02*
X111097391Y-98158866D01*
X111097391Y-98158866D02*
X111049772Y-98349342D01*
X111049772Y-98349342D02*
X111002153Y-98444580D01*
X111002153Y-98444580D02*
X110954534Y-98492200D01*
X110954534Y-98492200D02*
X110859296Y-98539819D01*
X110859296Y-98539819D02*
X110764058Y-98539819D01*
X110764058Y-98539819D02*
X110668820Y-98492200D01*
X110668820Y-98492200D02*
X110621201Y-98444580D01*
X110621201Y-98444580D02*
X110573582Y-98349342D01*
X110573582Y-98349342D02*
X110525963Y-98158866D01*
X110525963Y-98158866D02*
X110525963Y-97920771D01*
X110525963Y-97920771D02*
X110573582Y-97730295D01*
X110573582Y-97730295D02*
X110621201Y-97635057D01*
X110621201Y-97635057D02*
X110668820Y-97587438D01*
X110668820Y-97587438D02*
X110764058Y-97539819D01*
X104038095Y-112454819D02*
X104609523Y-112454819D01*
X104323809Y-113454819D02*
X104323809Y-112454819D01*
X104942857Y-113454819D02*
X104942857Y-112454819D01*
X104942857Y-112454819D02*
X105323809Y-112454819D01*
X105323809Y-112454819D02*
X105419047Y-112502438D01*
X105419047Y-112502438D02*
X105466666Y-112550057D01*
X105466666Y-112550057D02*
X105514285Y-112645295D01*
X105514285Y-112645295D02*
X105514285Y-112788152D01*
X105514285Y-112788152D02*
X105466666Y-112883390D01*
X105466666Y-112883390D02*
X105419047Y-112931009D01*
X105419047Y-112931009D02*
X105323809Y-112978628D01*
X105323809Y-112978628D02*
X104942857Y-112978628D01*
X106371428Y-112788152D02*
X106371428Y-113454819D01*
X106133333Y-112407200D02*
X105895238Y-113121485D01*
X105895238Y-113121485D02*
X106514285Y-113121485D01*
X107328571Y-113169104D02*
X107804761Y-113169104D01*
X107233333Y-113454819D02*
X107566666Y-112454819D01*
X107566666Y-112454819D02*
X107899999Y-113454819D01*
X108804761Y-113359580D02*
X108757142Y-113407200D01*
X108757142Y-113407200D02*
X108614285Y-113454819D01*
X108614285Y-113454819D02*
X108519047Y-113454819D01*
X108519047Y-113454819D02*
X108376190Y-113407200D01*
X108376190Y-113407200D02*
X108280952Y-113311961D01*
X108280952Y-113311961D02*
X108233333Y-113216723D01*
X108233333Y-113216723D02*
X108185714Y-113026247D01*
X108185714Y-113026247D02*
X108185714Y-112883390D01*
X108185714Y-112883390D02*
X108233333Y-112692914D01*
X108233333Y-112692914D02*
X108280952Y-112597676D01*
X108280952Y-112597676D02*
X108376190Y-112502438D01*
X108376190Y-112502438D02*
X108519047Y-112454819D01*
X108519047Y-112454819D02*
X108614285Y-112454819D01*
X108614285Y-112454819D02*
X108757142Y-112502438D01*
X108757142Y-112502438D02*
X108804761Y-112550057D01*
X109233333Y-113454819D02*
X109233333Y-112454819D01*
X109233333Y-112454819D02*
X109471428Y-112454819D01*
X109471428Y-112454819D02*
X109614285Y-112502438D01*
X109614285Y-112502438D02*
X109709523Y-112597676D01*
X109709523Y-112597676D02*
X109757142Y-112692914D01*
X109757142Y-112692914D02*
X109804761Y-112883390D01*
X109804761Y-112883390D02*
X109804761Y-113026247D01*
X109804761Y-113026247D02*
X109757142Y-113216723D01*
X109757142Y-113216723D02*
X109709523Y-113311961D01*
X109709523Y-113311961D02*
X109614285Y-113407200D01*
X109614285Y-113407200D02*
X109471428Y-113454819D01*
X109471428Y-113454819D02*
X109233333Y-113454819D01*
X110233333Y-112931009D02*
X110566666Y-112931009D01*
X110709523Y-113454819D02*
X110233333Y-113454819D01*
X110233333Y-113454819D02*
X110233333Y-112454819D01*
X110233333Y-112454819D02*
X110709523Y-112454819D01*
X110995238Y-112454819D02*
X111566666Y-112454819D01*
X111280952Y-113454819D02*
X111280952Y-112454819D01*
X79104761Y-101150057D02*
X79009523Y-101102438D01*
X79009523Y-101102438D02*
X78914285Y-101007200D01*
X78914285Y-101007200D02*
X78771428Y-100864342D01*
X78771428Y-100864342D02*
X78676190Y-100816723D01*
X78676190Y-100816723D02*
X78580952Y-100816723D01*
X78628571Y-101054819D02*
X78533333Y-101007200D01*
X78533333Y-101007200D02*
X78438095Y-100911961D01*
X78438095Y-100911961D02*
X78390476Y-100721485D01*
X78390476Y-100721485D02*
X78390476Y-100388152D01*
X78390476Y-100388152D02*
X78438095Y-100197676D01*
X78438095Y-100197676D02*
X78533333Y-100102438D01*
X78533333Y-100102438D02*
X78628571Y-100054819D01*
X78628571Y-100054819D02*
X78819047Y-100054819D01*
X78819047Y-100054819D02*
X78914285Y-100102438D01*
X78914285Y-100102438D02*
X79009523Y-100197676D01*
X79009523Y-100197676D02*
X79057142Y-100388152D01*
X79057142Y-100388152D02*
X79057142Y-100721485D01*
X79057142Y-100721485D02*
X79009523Y-100911961D01*
X79009523Y-100911961D02*
X78914285Y-101007200D01*
X78914285Y-101007200D02*
X78819047Y-101054819D01*
X78819047Y-101054819D02*
X78628571Y-101054819D01*
X79390476Y-100054819D02*
X80009523Y-100054819D01*
X80009523Y-100054819D02*
X79676190Y-100435771D01*
X79676190Y-100435771D02*
X79819047Y-100435771D01*
X79819047Y-100435771D02*
X79914285Y-100483390D01*
X79914285Y-100483390D02*
X79961904Y-100531009D01*
X79961904Y-100531009D02*
X80009523Y-100626247D01*
X80009523Y-100626247D02*
X80009523Y-100864342D01*
X80009523Y-100864342D02*
X79961904Y-100959580D01*
X79961904Y-100959580D02*
X79914285Y-101007200D01*
X79914285Y-101007200D02*
X79819047Y-101054819D01*
X79819047Y-101054819D02*
X79533333Y-101054819D01*
X79533333Y-101054819D02*
X79438095Y-101007200D01*
X79438095Y-101007200D02*
X79390476Y-100959580D01*
X123771418Y-114654819D02*
X123771418Y-113654819D01*
X123771418Y-113654819D02*
X124009513Y-113654819D01*
X124009513Y-113654819D02*
X124152370Y-113702438D01*
X124152370Y-113702438D02*
X124247608Y-113797676D01*
X124247608Y-113797676D02*
X124295227Y-113892914D01*
X124295227Y-113892914D02*
X124342846Y-114083390D01*
X124342846Y-114083390D02*
X124342846Y-114226247D01*
X124342846Y-114226247D02*
X124295227Y-114416723D01*
X124295227Y-114416723D02*
X124247608Y-114511961D01*
X124247608Y-114511961D02*
X124152370Y-114607200D01*
X124152370Y-114607200D02*
X124009513Y-114654819D01*
X124009513Y-114654819D02*
X123771418Y-114654819D01*
X124819037Y-114654819D02*
X125009513Y-114654819D01*
X125009513Y-114654819D02*
X125104751Y-114607200D01*
X125104751Y-114607200D02*
X125152370Y-114559580D01*
X125152370Y-114559580D02*
X125247608Y-114416723D01*
X125247608Y-114416723D02*
X125295227Y-114226247D01*
X125295227Y-114226247D02*
X125295227Y-113845295D01*
X125295227Y-113845295D02*
X125247608Y-113750057D01*
X125247608Y-113750057D02*
X125199989Y-113702438D01*
X125199989Y-113702438D02*
X125104751Y-113654819D01*
X125104751Y-113654819D02*
X124914275Y-113654819D01*
X124914275Y-113654819D02*
X124819037Y-113702438D01*
X124819037Y-113702438D02*
X124771418Y-113750057D01*
X124771418Y-113750057D02*
X124723799Y-113845295D01*
X124723799Y-113845295D02*
X124723799Y-114083390D01*
X124723799Y-114083390D02*
X124771418Y-114178628D01*
X124771418Y-114178628D02*
X124819037Y-114226247D01*
X124819037Y-114226247D02*
X124914275Y-114273866D01*
X124914275Y-114273866D02*
X125104751Y-114273866D01*
X125104751Y-114273866D02*
X125199989Y-114226247D01*
X125199989Y-114226247D02*
X125247608Y-114178628D01*
X125247608Y-114178628D02*
X125295227Y-114083390D01*
X98133333Y-88154819D02*
X97800000Y-87678628D01*
X97561905Y-88154819D02*
X97561905Y-87154819D01*
X97561905Y-87154819D02*
X97942857Y-87154819D01*
X97942857Y-87154819D02*
X98038095Y-87202438D01*
X98038095Y-87202438D02*
X98085714Y-87250057D01*
X98085714Y-87250057D02*
X98133333Y-87345295D01*
X98133333Y-87345295D02*
X98133333Y-87488152D01*
X98133333Y-87488152D02*
X98085714Y-87583390D01*
X98085714Y-87583390D02*
X98038095Y-87631009D01*
X98038095Y-87631009D02*
X97942857Y-87678628D01*
X97942857Y-87678628D02*
X97561905Y-87678628D01*
X98609524Y-88154819D02*
X98800000Y-88154819D01*
X98800000Y-88154819D02*
X98895238Y-88107200D01*
X98895238Y-88107200D02*
X98942857Y-88059580D01*
X98942857Y-88059580D02*
X99038095Y-87916723D01*
X99038095Y-87916723D02*
X99085714Y-87726247D01*
X99085714Y-87726247D02*
X99085714Y-87345295D01*
X99085714Y-87345295D02*
X99038095Y-87250057D01*
X99038095Y-87250057D02*
X98990476Y-87202438D01*
X98990476Y-87202438D02*
X98895238Y-87154819D01*
X98895238Y-87154819D02*
X98704762Y-87154819D01*
X98704762Y-87154819D02*
X98609524Y-87202438D01*
X98609524Y-87202438D02*
X98561905Y-87250057D01*
X98561905Y-87250057D02*
X98514286Y-87345295D01*
X98514286Y-87345295D02*
X98514286Y-87583390D01*
X98514286Y-87583390D02*
X98561905Y-87678628D01*
X98561905Y-87678628D02*
X98609524Y-87726247D01*
X98609524Y-87726247D02*
X98704762Y-87773866D01*
X98704762Y-87773866D02*
X98895238Y-87773866D01*
X98895238Y-87773866D02*
X98990476Y-87726247D01*
X98990476Y-87726247D02*
X99038095Y-87678628D01*
X99038095Y-87678628D02*
X99085714Y-87583390D01*
X124247629Y-101059580D02*
X124200010Y-101107200D01*
X124200010Y-101107200D02*
X124057153Y-101154819D01*
X124057153Y-101154819D02*
X123961915Y-101154819D01*
X123961915Y-101154819D02*
X123819058Y-101107200D01*
X123819058Y-101107200D02*
X123723820Y-101011961D01*
X123723820Y-101011961D02*
X123676201Y-100916723D01*
X123676201Y-100916723D02*
X123628582Y-100726247D01*
X123628582Y-100726247D02*
X123628582Y-100583390D01*
X123628582Y-100583390D02*
X123676201Y-100392914D01*
X123676201Y-100392914D02*
X123723820Y-100297676D01*
X123723820Y-100297676D02*
X123819058Y-100202438D01*
X123819058Y-100202438D02*
X123961915Y-100154819D01*
X123961915Y-100154819D02*
X124057153Y-100154819D01*
X124057153Y-100154819D02*
X124200010Y-100202438D01*
X124200010Y-100202438D02*
X124247629Y-100250057D01*
X124628582Y-100250057D02*
X124676201Y-100202438D01*
X124676201Y-100202438D02*
X124771439Y-100154819D01*
X124771439Y-100154819D02*
X125009534Y-100154819D01*
X125009534Y-100154819D02*
X125104772Y-100202438D01*
X125104772Y-100202438D02*
X125152391Y-100250057D01*
X125152391Y-100250057D02*
X125200010Y-100345295D01*
X125200010Y-100345295D02*
X125200010Y-100440533D01*
X125200010Y-100440533D02*
X125152391Y-100583390D01*
X125152391Y-100583390D02*
X124580963Y-101154819D01*
X124580963Y-101154819D02*
X125200010Y-101154819D01*
X125580963Y-100250057D02*
X125628582Y-100202438D01*
X125628582Y-100202438D02*
X125723820Y-100154819D01*
X125723820Y-100154819D02*
X125961915Y-100154819D01*
X125961915Y-100154819D02*
X126057153Y-100202438D01*
X126057153Y-100202438D02*
X126104772Y-100250057D01*
X126104772Y-100250057D02*
X126152391Y-100345295D01*
X126152391Y-100345295D02*
X126152391Y-100440533D01*
X126152391Y-100440533D02*
X126104772Y-100583390D01*
X126104772Y-100583390D02*
X125533344Y-101154819D01*
X125533344Y-101154819D02*
X126152391Y-101154819D01*
X119438095Y-100434819D02*
X119438095Y-101244342D01*
X119438095Y-101244342D02*
X119485714Y-101339580D01*
X119485714Y-101339580D02*
X119533333Y-101387200D01*
X119533333Y-101387200D02*
X119628571Y-101434819D01*
X119628571Y-101434819D02*
X119819047Y-101434819D01*
X119819047Y-101434819D02*
X119914285Y-101387200D01*
X119914285Y-101387200D02*
X119961904Y-101339580D01*
X119961904Y-101339580D02*
X120009523Y-101244342D01*
X120009523Y-101244342D02*
X120009523Y-100434819D01*
X120961904Y-100434819D02*
X120485714Y-100434819D01*
X120485714Y-100434819D02*
X120438095Y-100911009D01*
X120438095Y-100911009D02*
X120485714Y-100863390D01*
X120485714Y-100863390D02*
X120580952Y-100815771D01*
X120580952Y-100815771D02*
X120819047Y-100815771D01*
X120819047Y-100815771D02*
X120914285Y-100863390D01*
X120914285Y-100863390D02*
X120961904Y-100911009D01*
X120961904Y-100911009D02*
X121009523Y-101006247D01*
X121009523Y-101006247D02*
X121009523Y-101244342D01*
X121009523Y-101244342D02*
X120961904Y-101339580D01*
X120961904Y-101339580D02*
X120914285Y-101387200D01*
X120914285Y-101387200D02*
X120819047Y-101434819D01*
X120819047Y-101434819D02*
X120580952Y-101434819D01*
X120580952Y-101434819D02*
X120485714Y-101387200D01*
X120485714Y-101387200D02*
X120438095Y-101339580D01*
X62080963Y-89854819D02*
X62747629Y-90854819D01*
X62747629Y-89854819D02*
X62080963Y-90854819D01*
X63652391Y-90854819D02*
X63080963Y-90854819D01*
X63366677Y-90854819D02*
X63366677Y-89854819D01*
X63366677Y-89854819D02*
X63271439Y-89997676D01*
X63271439Y-89997676D02*
X63176201Y-90092914D01*
X63176201Y-90092914D02*
X63080963Y-90140533D01*
X107647629Y-101054819D02*
X107314296Y-100578628D01*
X107076201Y-101054819D02*
X107076201Y-100054819D01*
X107076201Y-100054819D02*
X107457153Y-100054819D01*
X107457153Y-100054819D02*
X107552391Y-100102438D01*
X107552391Y-100102438D02*
X107600010Y-100150057D01*
X107600010Y-100150057D02*
X107647629Y-100245295D01*
X107647629Y-100245295D02*
X107647629Y-100388152D01*
X107647629Y-100388152D02*
X107600010Y-100483390D01*
X107600010Y-100483390D02*
X107552391Y-100531009D01*
X107552391Y-100531009D02*
X107457153Y-100578628D01*
X107457153Y-100578628D02*
X107076201Y-100578628D01*
X108600010Y-101054819D02*
X108028582Y-101054819D01*
X108314296Y-101054819D02*
X108314296Y-100054819D01*
X108314296Y-100054819D02*
X108219058Y-100197676D01*
X108219058Y-100197676D02*
X108123820Y-100292914D01*
X108123820Y-100292914D02*
X108028582Y-100340533D01*
X108933344Y-100054819D02*
X109600010Y-100054819D01*
X109600010Y-100054819D02*
X109171439Y-101054819D01*
X71547629Y-84259580D02*
X71500010Y-84307200D01*
X71500010Y-84307200D02*
X71357153Y-84354819D01*
X71357153Y-84354819D02*
X71261915Y-84354819D01*
X71261915Y-84354819D02*
X71119058Y-84307200D01*
X71119058Y-84307200D02*
X71023820Y-84211961D01*
X71023820Y-84211961D02*
X70976201Y-84116723D01*
X70976201Y-84116723D02*
X70928582Y-83926247D01*
X70928582Y-83926247D02*
X70928582Y-83783390D01*
X70928582Y-83783390D02*
X70976201Y-83592914D01*
X70976201Y-83592914D02*
X71023820Y-83497676D01*
X71023820Y-83497676D02*
X71119058Y-83402438D01*
X71119058Y-83402438D02*
X71261915Y-83354819D01*
X71261915Y-83354819D02*
X71357153Y-83354819D01*
X71357153Y-83354819D02*
X71500010Y-83402438D01*
X71500010Y-83402438D02*
X71547629Y-83450057D01*
X72500010Y-84354819D02*
X71928582Y-84354819D01*
X72214296Y-84354819D02*
X72214296Y-83354819D01*
X72214296Y-83354819D02*
X72119058Y-83497676D01*
X72119058Y-83497676D02*
X72023820Y-83592914D01*
X72023820Y-83592914D02*
X71928582Y-83640533D01*
X72833344Y-83354819D02*
X73500010Y-83354819D01*
X73500010Y-83354819D02*
X73071439Y-84354819D01*
X87961905Y-110704819D02*
X87961905Y-109704819D01*
X87961905Y-109704819D02*
X88200000Y-109704819D01*
X88200000Y-109704819D02*
X88342857Y-109752438D01*
X88342857Y-109752438D02*
X88438095Y-109847676D01*
X88438095Y-109847676D02*
X88485714Y-109942914D01*
X88485714Y-109942914D02*
X88533333Y-110133390D01*
X88533333Y-110133390D02*
X88533333Y-110276247D01*
X88533333Y-110276247D02*
X88485714Y-110466723D01*
X88485714Y-110466723D02*
X88438095Y-110561961D01*
X88438095Y-110561961D02*
X88342857Y-110657200D01*
X88342857Y-110657200D02*
X88200000Y-110704819D01*
X88200000Y-110704819D02*
X87961905Y-110704819D01*
X89438095Y-109704819D02*
X88961905Y-109704819D01*
X88961905Y-109704819D02*
X88914286Y-110181009D01*
X88914286Y-110181009D02*
X88961905Y-110133390D01*
X88961905Y-110133390D02*
X89057143Y-110085771D01*
X89057143Y-110085771D02*
X89295238Y-110085771D01*
X89295238Y-110085771D02*
X89390476Y-110133390D01*
X89390476Y-110133390D02*
X89438095Y-110181009D01*
X89438095Y-110181009D02*
X89485714Y-110276247D01*
X89485714Y-110276247D02*
X89485714Y-110514342D01*
X89485714Y-110514342D02*
X89438095Y-110609580D01*
X89438095Y-110609580D02*
X89390476Y-110657200D01*
X89390476Y-110657200D02*
X89295238Y-110704819D01*
X89295238Y-110704819D02*
X89057143Y-110704819D01*
X89057143Y-110704819D02*
X88961905Y-110657200D01*
X88961905Y-110657200D02*
X88914286Y-110609580D01*
X130047629Y-89559580D02*
X130000010Y-89607200D01*
X130000010Y-89607200D02*
X129857153Y-89654819D01*
X129857153Y-89654819D02*
X129761915Y-89654819D01*
X129761915Y-89654819D02*
X129619058Y-89607200D01*
X129619058Y-89607200D02*
X129523820Y-89511961D01*
X129523820Y-89511961D02*
X129476201Y-89416723D01*
X129476201Y-89416723D02*
X129428582Y-89226247D01*
X129428582Y-89226247D02*
X129428582Y-89083390D01*
X129428582Y-89083390D02*
X129476201Y-88892914D01*
X129476201Y-88892914D02*
X129523820Y-88797676D01*
X129523820Y-88797676D02*
X129619058Y-88702438D01*
X129619058Y-88702438D02*
X129761915Y-88654819D01*
X129761915Y-88654819D02*
X129857153Y-88654819D01*
X129857153Y-88654819D02*
X130000010Y-88702438D01*
X130000010Y-88702438D02*
X130047629Y-88750057D01*
X130428582Y-88750057D02*
X130476201Y-88702438D01*
X130476201Y-88702438D02*
X130571439Y-88654819D01*
X130571439Y-88654819D02*
X130809534Y-88654819D01*
X130809534Y-88654819D02*
X130904772Y-88702438D01*
X130904772Y-88702438D02*
X130952391Y-88750057D01*
X130952391Y-88750057D02*
X131000010Y-88845295D01*
X131000010Y-88845295D02*
X131000010Y-88940533D01*
X131000010Y-88940533D02*
X130952391Y-89083390D01*
X130952391Y-89083390D02*
X130380963Y-89654819D01*
X130380963Y-89654819D02*
X131000010Y-89654819D01*
X131571439Y-89083390D02*
X131476201Y-89035771D01*
X131476201Y-89035771D02*
X131428582Y-88988152D01*
X131428582Y-88988152D02*
X131380963Y-88892914D01*
X131380963Y-88892914D02*
X131380963Y-88845295D01*
X131380963Y-88845295D02*
X131428582Y-88750057D01*
X131428582Y-88750057D02*
X131476201Y-88702438D01*
X131476201Y-88702438D02*
X131571439Y-88654819D01*
X131571439Y-88654819D02*
X131761915Y-88654819D01*
X131761915Y-88654819D02*
X131857153Y-88702438D01*
X131857153Y-88702438D02*
X131904772Y-88750057D01*
X131904772Y-88750057D02*
X131952391Y-88845295D01*
X131952391Y-88845295D02*
X131952391Y-88892914D01*
X131952391Y-88892914D02*
X131904772Y-88988152D01*
X131904772Y-88988152D02*
X131857153Y-89035771D01*
X131857153Y-89035771D02*
X131761915Y-89083390D01*
X131761915Y-89083390D02*
X131571439Y-89083390D01*
X131571439Y-89083390D02*
X131476201Y-89131009D01*
X131476201Y-89131009D02*
X131428582Y-89178628D01*
X131428582Y-89178628D02*
X131380963Y-89273866D01*
X131380963Y-89273866D02*
X131380963Y-89464342D01*
X131380963Y-89464342D02*
X131428582Y-89559580D01*
X131428582Y-89559580D02*
X131476201Y-89607200D01*
X131476201Y-89607200D02*
X131571439Y-89654819D01*
X131571439Y-89654819D02*
X131761915Y-89654819D01*
X131761915Y-89654819D02*
X131857153Y-89607200D01*
X131857153Y-89607200D02*
X131904772Y-89559580D01*
X131904772Y-89559580D02*
X131952391Y-89464342D01*
X131952391Y-89464342D02*
X131952391Y-89273866D01*
X131952391Y-89273866D02*
X131904772Y-89178628D01*
X131904772Y-89178628D02*
X131857153Y-89131009D01*
X131857153Y-89131009D02*
X131761915Y-89083390D01*
X76097629Y-84604819D02*
X75764296Y-84128628D01*
X75526201Y-84604819D02*
X75526201Y-83604819D01*
X75526201Y-83604819D02*
X75907153Y-83604819D01*
X75907153Y-83604819D02*
X76002391Y-83652438D01*
X76002391Y-83652438D02*
X76050010Y-83700057D01*
X76050010Y-83700057D02*
X76097629Y-83795295D01*
X76097629Y-83795295D02*
X76097629Y-83938152D01*
X76097629Y-83938152D02*
X76050010Y-84033390D01*
X76050010Y-84033390D02*
X76002391Y-84081009D01*
X76002391Y-84081009D02*
X75907153Y-84128628D01*
X75907153Y-84128628D02*
X75526201Y-84128628D01*
X77050010Y-84604819D02*
X76478582Y-84604819D01*
X76764296Y-84604819D02*
X76764296Y-83604819D01*
X76764296Y-83604819D02*
X76669058Y-83747676D01*
X76669058Y-83747676D02*
X76573820Y-83842914D01*
X76573820Y-83842914D02*
X76478582Y-83890533D01*
X77621439Y-84033390D02*
X77526201Y-83985771D01*
X77526201Y-83985771D02*
X77478582Y-83938152D01*
X77478582Y-83938152D02*
X77430963Y-83842914D01*
X77430963Y-83842914D02*
X77430963Y-83795295D01*
X77430963Y-83795295D02*
X77478582Y-83700057D01*
X77478582Y-83700057D02*
X77526201Y-83652438D01*
X77526201Y-83652438D02*
X77621439Y-83604819D01*
X77621439Y-83604819D02*
X77811915Y-83604819D01*
X77811915Y-83604819D02*
X77907153Y-83652438D01*
X77907153Y-83652438D02*
X77954772Y-83700057D01*
X77954772Y-83700057D02*
X78002391Y-83795295D01*
X78002391Y-83795295D02*
X78002391Y-83842914D01*
X78002391Y-83842914D02*
X77954772Y-83938152D01*
X77954772Y-83938152D02*
X77907153Y-83985771D01*
X77907153Y-83985771D02*
X77811915Y-84033390D01*
X77811915Y-84033390D02*
X77621439Y-84033390D01*
X77621439Y-84033390D02*
X77526201Y-84081009D01*
X77526201Y-84081009D02*
X77478582Y-84128628D01*
X77478582Y-84128628D02*
X77430963Y-84223866D01*
X77430963Y-84223866D02*
X77430963Y-84414342D01*
X77430963Y-84414342D02*
X77478582Y-84509580D01*
X77478582Y-84509580D02*
X77526201Y-84557200D01*
X77526201Y-84557200D02*
X77621439Y-84604819D01*
X77621439Y-84604819D02*
X77811915Y-84604819D01*
X77811915Y-84604819D02*
X77907153Y-84557200D01*
X77907153Y-84557200D02*
X77954772Y-84509580D01*
X77954772Y-84509580D02*
X78002391Y-84414342D01*
X78002391Y-84414342D02*
X78002391Y-84223866D01*
X78002391Y-84223866D02*
X77954772Y-84128628D01*
X77954772Y-84128628D02*
X77907153Y-84081009D01*
X77907153Y-84081009D02*
X77811915Y-84033390D01*
X133466666Y-84654819D02*
X133466666Y-85369104D01*
X133466666Y-85369104D02*
X133419047Y-85511961D01*
X133419047Y-85511961D02*
X133323809Y-85607200D01*
X133323809Y-85607200D02*
X133180952Y-85654819D01*
X133180952Y-85654819D02*
X133085714Y-85654819D01*
X134466666Y-85654819D02*
X133895238Y-85654819D01*
X134180952Y-85654819D02*
X134180952Y-84654819D01*
X134180952Y-84654819D02*
X134085714Y-84797676D01*
X134085714Y-84797676D02*
X133990476Y-84892914D01*
X133990476Y-84892914D02*
X133895238Y-84940533D01*
X130185714Y-86569104D02*
X130661904Y-86569104D01*
X130090476Y-86854819D02*
X130423809Y-85854819D01*
X130423809Y-85854819D02*
X130757142Y-86854819D01*
X131519047Y-86807200D02*
X131423809Y-86854819D01*
X131423809Y-86854819D02*
X131233333Y-86854819D01*
X131233333Y-86854819D02*
X131138095Y-86807200D01*
X131138095Y-86807200D02*
X131090476Y-86759580D01*
X131090476Y-86759580D02*
X131042857Y-86664342D01*
X131042857Y-86664342D02*
X131042857Y-86378628D01*
X131042857Y-86378628D02*
X131090476Y-86283390D01*
X131090476Y-86283390D02*
X131138095Y-86235771D01*
X131138095Y-86235771D02*
X131233333Y-86188152D01*
X131233333Y-86188152D02*
X131423809Y-86188152D01*
X131423809Y-86188152D02*
X131519047Y-86235771D01*
X132376190Y-86807200D02*
X132280952Y-86854819D01*
X132280952Y-86854819D02*
X132090476Y-86854819D01*
X132090476Y-86854819D02*
X131995238Y-86807200D01*
X131995238Y-86807200D02*
X131947619Y-86759580D01*
X131947619Y-86759580D02*
X131900000Y-86664342D01*
X131900000Y-86664342D02*
X131900000Y-86378628D01*
X131900000Y-86378628D02*
X131947619Y-86283390D01*
X131947619Y-86283390D02*
X131995238Y-86235771D01*
X131995238Y-86235771D02*
X132090476Y-86188152D01*
X132090476Y-86188152D02*
X132280952Y-86188152D01*
X132280952Y-86188152D02*
X132376190Y-86235771D01*
X133233333Y-86188152D02*
X133233333Y-86854819D01*
X132804762Y-86188152D02*
X132804762Y-86711961D01*
X132804762Y-86711961D02*
X132852381Y-86807200D01*
X132852381Y-86807200D02*
X132947619Y-86854819D01*
X132947619Y-86854819D02*
X133090476Y-86854819D01*
X133090476Y-86854819D02*
X133185714Y-86807200D01*
X133185714Y-86807200D02*
X133233333Y-86759580D01*
X133709524Y-86854819D02*
X133709524Y-86188152D01*
X133709524Y-86283390D02*
X133757143Y-86235771D01*
X133757143Y-86235771D02*
X133852381Y-86188152D01*
X133852381Y-86188152D02*
X133995238Y-86188152D01*
X133995238Y-86188152D02*
X134090476Y-86235771D01*
X134090476Y-86235771D02*
X134138095Y-86331009D01*
X134138095Y-86331009D02*
X134138095Y-86854819D01*
X134138095Y-86331009D02*
X134185714Y-86235771D01*
X134185714Y-86235771D02*
X134280952Y-86188152D01*
X134280952Y-86188152D02*
X134423809Y-86188152D01*
X134423809Y-86188152D02*
X134519048Y-86235771D01*
X134519048Y-86235771D02*
X134566667Y-86331009D01*
X134566667Y-86331009D02*
X134566667Y-86854819D01*
X130419048Y-80073866D02*
X131180953Y-80073866D01*
X130800000Y-80454819D02*
X130800000Y-79692914D01*
X71670248Y-98150057D02*
X71575010Y-98102438D01*
X71575010Y-98102438D02*
X71479772Y-98007200D01*
X71479772Y-98007200D02*
X71336915Y-97864342D01*
X71336915Y-97864342D02*
X71241677Y-97816723D01*
X71241677Y-97816723D02*
X71146439Y-97816723D01*
X71194058Y-98054819D02*
X71098820Y-98007200D01*
X71098820Y-98007200D02*
X71003582Y-97911961D01*
X71003582Y-97911961D02*
X70955963Y-97721485D01*
X70955963Y-97721485D02*
X70955963Y-97388152D01*
X70955963Y-97388152D02*
X71003582Y-97197676D01*
X71003582Y-97197676D02*
X71098820Y-97102438D01*
X71098820Y-97102438D02*
X71194058Y-97054819D01*
X71194058Y-97054819D02*
X71384534Y-97054819D01*
X71384534Y-97054819D02*
X71479772Y-97102438D01*
X71479772Y-97102438D02*
X71575010Y-97197676D01*
X71575010Y-97197676D02*
X71622629Y-97388152D01*
X71622629Y-97388152D02*
X71622629Y-97721485D01*
X71622629Y-97721485D02*
X71575010Y-97911961D01*
X71575010Y-97911961D02*
X71479772Y-98007200D01*
X71479772Y-98007200D02*
X71384534Y-98054819D01*
X71384534Y-98054819D02*
X71194058Y-98054819D01*
X72479772Y-97388152D02*
X72479772Y-98054819D01*
X72241677Y-97007200D02*
X72003582Y-97721485D01*
X72003582Y-97721485D02*
X72622629Y-97721485D01*
X70328582Y-112354819D02*
X70328582Y-113164342D01*
X70328582Y-113164342D02*
X70376201Y-113259580D01*
X70376201Y-113259580D02*
X70423820Y-113307200D01*
X70423820Y-113307200D02*
X70519058Y-113354819D01*
X70519058Y-113354819D02*
X70709534Y-113354819D01*
X70709534Y-113354819D02*
X70804772Y-113307200D01*
X70804772Y-113307200D02*
X70852391Y-113259580D01*
X70852391Y-113259580D02*
X70900010Y-113164342D01*
X70900010Y-113164342D02*
X70900010Y-112354819D01*
X71328582Y-112450057D02*
X71376201Y-112402438D01*
X71376201Y-112402438D02*
X71471439Y-112354819D01*
X71471439Y-112354819D02*
X71709534Y-112354819D01*
X71709534Y-112354819D02*
X71804772Y-112402438D01*
X71804772Y-112402438D02*
X71852391Y-112450057D01*
X71852391Y-112450057D02*
X71900010Y-112545295D01*
X71900010Y-112545295D02*
X71900010Y-112640533D01*
X71900010Y-112640533D02*
X71852391Y-112783390D01*
X71852391Y-112783390D02*
X71280963Y-113354819D01*
X71280963Y-113354819D02*
X71900010Y-113354819D01*
X128657142Y-105454819D02*
X128323809Y-104978628D01*
X128085714Y-105454819D02*
X128085714Y-104454819D01*
X128085714Y-104454819D02*
X128466666Y-104454819D01*
X128466666Y-104454819D02*
X128561904Y-104502438D01*
X128561904Y-104502438D02*
X128609523Y-104550057D01*
X128609523Y-104550057D02*
X128657142Y-104645295D01*
X128657142Y-104645295D02*
X128657142Y-104788152D01*
X128657142Y-104788152D02*
X128609523Y-104883390D01*
X128609523Y-104883390D02*
X128561904Y-104931009D01*
X128561904Y-104931009D02*
X128466666Y-104978628D01*
X128466666Y-104978628D02*
X128085714Y-104978628D01*
X129038095Y-104550057D02*
X129085714Y-104502438D01*
X129085714Y-104502438D02*
X129180952Y-104454819D01*
X129180952Y-104454819D02*
X129419047Y-104454819D01*
X129419047Y-104454819D02*
X129514285Y-104502438D01*
X129514285Y-104502438D02*
X129561904Y-104550057D01*
X129561904Y-104550057D02*
X129609523Y-104645295D01*
X129609523Y-104645295D02*
X129609523Y-104740533D01*
X129609523Y-104740533D02*
X129561904Y-104883390D01*
X129561904Y-104883390D02*
X128990476Y-105454819D01*
X128990476Y-105454819D02*
X129609523Y-105454819D01*
X130561904Y-105454819D02*
X129990476Y-105454819D01*
X130276190Y-105454819D02*
X130276190Y-104454819D01*
X130276190Y-104454819D02*
X130180952Y-104597676D01*
X130180952Y-104597676D02*
X130085714Y-104692914D01*
X130085714Y-104692914D02*
X129990476Y-104740533D01*
X109547629Y-107554819D02*
X109214296Y-107078628D01*
X108976201Y-107554819D02*
X108976201Y-106554819D01*
X108976201Y-106554819D02*
X109357153Y-106554819D01*
X109357153Y-106554819D02*
X109452391Y-106602438D01*
X109452391Y-106602438D02*
X109500010Y-106650057D01*
X109500010Y-106650057D02*
X109547629Y-106745295D01*
X109547629Y-106745295D02*
X109547629Y-106888152D01*
X109547629Y-106888152D02*
X109500010Y-106983390D01*
X109500010Y-106983390D02*
X109452391Y-107031009D01*
X109452391Y-107031009D02*
X109357153Y-107078628D01*
X109357153Y-107078628D02*
X108976201Y-107078628D01*
X109928582Y-106650057D02*
X109976201Y-106602438D01*
X109976201Y-106602438D02*
X110071439Y-106554819D01*
X110071439Y-106554819D02*
X110309534Y-106554819D01*
X110309534Y-106554819D02*
X110404772Y-106602438D01*
X110404772Y-106602438D02*
X110452391Y-106650057D01*
X110452391Y-106650057D02*
X110500010Y-106745295D01*
X110500010Y-106745295D02*
X110500010Y-106840533D01*
X110500010Y-106840533D02*
X110452391Y-106983390D01*
X110452391Y-106983390D02*
X109880963Y-107554819D01*
X109880963Y-107554819D02*
X110500010Y-107554819D01*
X111357153Y-106888152D02*
X111357153Y-107554819D01*
X111119058Y-106507200D02*
X110880963Y-107221485D01*
X110880963Y-107221485D02*
X111500010Y-107221485D01*
X125919058Y-89250057D02*
X125823820Y-89202438D01*
X125823820Y-89202438D02*
X125728582Y-89107200D01*
X125728582Y-89107200D02*
X125585725Y-88964342D01*
X125585725Y-88964342D02*
X125490487Y-88916723D01*
X125490487Y-88916723D02*
X125395249Y-88916723D01*
X125442868Y-89154819D02*
X125347630Y-89107200D01*
X125347630Y-89107200D02*
X125252392Y-89011961D01*
X125252392Y-89011961D02*
X125204773Y-88821485D01*
X125204773Y-88821485D02*
X125204773Y-88488152D01*
X125204773Y-88488152D02*
X125252392Y-88297676D01*
X125252392Y-88297676D02*
X125347630Y-88202438D01*
X125347630Y-88202438D02*
X125442868Y-88154819D01*
X125442868Y-88154819D02*
X125633344Y-88154819D01*
X125633344Y-88154819D02*
X125728582Y-88202438D01*
X125728582Y-88202438D02*
X125823820Y-88297676D01*
X125823820Y-88297676D02*
X125871439Y-88488152D01*
X125871439Y-88488152D02*
X125871439Y-88821485D01*
X125871439Y-88821485D02*
X125823820Y-89011961D01*
X125823820Y-89011961D02*
X125728582Y-89107200D01*
X125728582Y-89107200D02*
X125633344Y-89154819D01*
X125633344Y-89154819D02*
X125442868Y-89154819D01*
X126823820Y-89154819D02*
X126252392Y-89154819D01*
X126538106Y-89154819D02*
X126538106Y-88154819D01*
X126538106Y-88154819D02*
X126442868Y-88297676D01*
X126442868Y-88297676D02*
X126347630Y-88392914D01*
X126347630Y-88392914D02*
X126252392Y-88440533D01*
X127442868Y-88154819D02*
X127538106Y-88154819D01*
X127538106Y-88154819D02*
X127633344Y-88202438D01*
X127633344Y-88202438D02*
X127680963Y-88250057D01*
X127680963Y-88250057D02*
X127728582Y-88345295D01*
X127728582Y-88345295D02*
X127776201Y-88535771D01*
X127776201Y-88535771D02*
X127776201Y-88773866D01*
X127776201Y-88773866D02*
X127728582Y-88964342D01*
X127728582Y-88964342D02*
X127680963Y-89059580D01*
X127680963Y-89059580D02*
X127633344Y-89107200D01*
X127633344Y-89107200D02*
X127538106Y-89154819D01*
X127538106Y-89154819D02*
X127442868Y-89154819D01*
X127442868Y-89154819D02*
X127347630Y-89107200D01*
X127347630Y-89107200D02*
X127300011Y-89059580D01*
X127300011Y-89059580D02*
X127252392Y-88964342D01*
X127252392Y-88964342D02*
X127204773Y-88773866D01*
X127204773Y-88773866D02*
X127204773Y-88535771D01*
X127204773Y-88535771D02*
X127252392Y-88345295D01*
X127252392Y-88345295D02*
X127300011Y-88250057D01*
X127300011Y-88250057D02*
X127347630Y-88202438D01*
X127347630Y-88202438D02*
X127442868Y-88154819D01*
X107383333Y-86734581D02*
X107335714Y-86782201D01*
X107335714Y-86782201D02*
X107192857Y-86829820D01*
X107192857Y-86829820D02*
X107097619Y-86829820D01*
X107097619Y-86829820D02*
X106954762Y-86782201D01*
X106954762Y-86782201D02*
X106859524Y-86686962D01*
X106859524Y-86686962D02*
X106811905Y-86591724D01*
X106811905Y-86591724D02*
X106764286Y-86401248D01*
X106764286Y-86401248D02*
X106764286Y-86258391D01*
X106764286Y-86258391D02*
X106811905Y-86067915D01*
X106811905Y-86067915D02*
X106859524Y-85972677D01*
X106859524Y-85972677D02*
X106954762Y-85877439D01*
X106954762Y-85877439D02*
X107097619Y-85829820D01*
X107097619Y-85829820D02*
X107192857Y-85829820D01*
X107192857Y-85829820D02*
X107335714Y-85877439D01*
X107335714Y-85877439D02*
X107383333Y-85925058D01*
X108240476Y-85829820D02*
X108050000Y-85829820D01*
X108050000Y-85829820D02*
X107954762Y-85877439D01*
X107954762Y-85877439D02*
X107907143Y-85925058D01*
X107907143Y-85925058D02*
X107811905Y-86067915D01*
X107811905Y-86067915D02*
X107764286Y-86258391D01*
X107764286Y-86258391D02*
X107764286Y-86639343D01*
X107764286Y-86639343D02*
X107811905Y-86734581D01*
X107811905Y-86734581D02*
X107859524Y-86782201D01*
X107859524Y-86782201D02*
X107954762Y-86829820D01*
X107954762Y-86829820D02*
X108145238Y-86829820D01*
X108145238Y-86829820D02*
X108240476Y-86782201D01*
X108240476Y-86782201D02*
X108288095Y-86734581D01*
X108288095Y-86734581D02*
X108335714Y-86639343D01*
X108335714Y-86639343D02*
X108335714Y-86401248D01*
X108335714Y-86401248D02*
X108288095Y-86306010D01*
X108288095Y-86306010D02*
X108240476Y-86258391D01*
X108240476Y-86258391D02*
X108145238Y-86210772D01*
X108145238Y-86210772D02*
X107954762Y-86210772D01*
X107954762Y-86210772D02*
X107859524Y-86258391D01*
X107859524Y-86258391D02*
X107811905Y-86306010D01*
X107811905Y-86306010D02*
X107764286Y-86401248D01*
X116433333Y-86359580D02*
X116385714Y-86407200D01*
X116385714Y-86407200D02*
X116242857Y-86454819D01*
X116242857Y-86454819D02*
X116147619Y-86454819D01*
X116147619Y-86454819D02*
X116004762Y-86407200D01*
X116004762Y-86407200D02*
X115909524Y-86311961D01*
X115909524Y-86311961D02*
X115861905Y-86216723D01*
X115861905Y-86216723D02*
X115814286Y-86026247D01*
X115814286Y-86026247D02*
X115814286Y-85883390D01*
X115814286Y-85883390D02*
X115861905Y-85692914D01*
X115861905Y-85692914D02*
X115909524Y-85597676D01*
X115909524Y-85597676D02*
X116004762Y-85502438D01*
X116004762Y-85502438D02*
X116147619Y-85454819D01*
X116147619Y-85454819D02*
X116242857Y-85454819D01*
X116242857Y-85454819D02*
X116385714Y-85502438D01*
X116385714Y-85502438D02*
X116433333Y-85550057D01*
X117338095Y-85454819D02*
X116861905Y-85454819D01*
X116861905Y-85454819D02*
X116814286Y-85931009D01*
X116814286Y-85931009D02*
X116861905Y-85883390D01*
X116861905Y-85883390D02*
X116957143Y-85835771D01*
X116957143Y-85835771D02*
X117195238Y-85835771D01*
X117195238Y-85835771D02*
X117290476Y-85883390D01*
X117290476Y-85883390D02*
X117338095Y-85931009D01*
X117338095Y-85931009D02*
X117385714Y-86026247D01*
X117385714Y-86026247D02*
X117385714Y-86264342D01*
X117385714Y-86264342D02*
X117338095Y-86359580D01*
X117338095Y-86359580D02*
X117290476Y-86407200D01*
X117290476Y-86407200D02*
X117195238Y-86454819D01*
X117195238Y-86454819D02*
X116957143Y-86454819D01*
X116957143Y-86454819D02*
X116861905Y-86407200D01*
X116861905Y-86407200D02*
X116814286Y-86359580D01*
X129295248Y-96150057D02*
X129200010Y-96102438D01*
X129200010Y-96102438D02*
X129104772Y-96007200D01*
X129104772Y-96007200D02*
X128961915Y-95864342D01*
X128961915Y-95864342D02*
X128866677Y-95816723D01*
X128866677Y-95816723D02*
X128771439Y-95816723D01*
X128819058Y-96054819D02*
X128723820Y-96007200D01*
X128723820Y-96007200D02*
X128628582Y-95911961D01*
X128628582Y-95911961D02*
X128580963Y-95721485D01*
X128580963Y-95721485D02*
X128580963Y-95388152D01*
X128580963Y-95388152D02*
X128628582Y-95197676D01*
X128628582Y-95197676D02*
X128723820Y-95102438D01*
X128723820Y-95102438D02*
X128819058Y-95054819D01*
X128819058Y-95054819D02*
X129009534Y-95054819D01*
X129009534Y-95054819D02*
X129104772Y-95102438D01*
X129104772Y-95102438D02*
X129200010Y-95197676D01*
X129200010Y-95197676D02*
X129247629Y-95388152D01*
X129247629Y-95388152D02*
X129247629Y-95721485D01*
X129247629Y-95721485D02*
X129200010Y-95911961D01*
X129200010Y-95911961D02*
X129104772Y-96007200D01*
X129104772Y-96007200D02*
X129009534Y-96054819D01*
X129009534Y-96054819D02*
X128819058Y-96054819D01*
X129723820Y-96054819D02*
X129914296Y-96054819D01*
X129914296Y-96054819D02*
X130009534Y-96007200D01*
X130009534Y-96007200D02*
X130057153Y-95959580D01*
X130057153Y-95959580D02*
X130152391Y-95816723D01*
X130152391Y-95816723D02*
X130200010Y-95626247D01*
X130200010Y-95626247D02*
X130200010Y-95245295D01*
X130200010Y-95245295D02*
X130152391Y-95150057D01*
X130152391Y-95150057D02*
X130104772Y-95102438D01*
X130104772Y-95102438D02*
X130009534Y-95054819D01*
X130009534Y-95054819D02*
X129819058Y-95054819D01*
X129819058Y-95054819D02*
X129723820Y-95102438D01*
X129723820Y-95102438D02*
X129676201Y-95150057D01*
X129676201Y-95150057D02*
X129628582Y-95245295D01*
X129628582Y-95245295D02*
X129628582Y-95483390D01*
X129628582Y-95483390D02*
X129676201Y-95578628D01*
X129676201Y-95578628D02*
X129723820Y-95626247D01*
X129723820Y-95626247D02*
X129819058Y-95673866D01*
X129819058Y-95673866D02*
X130009534Y-95673866D01*
X130009534Y-95673866D02*
X130104772Y-95626247D01*
X130104772Y-95626247D02*
X130152391Y-95578628D01*
X130152391Y-95578628D02*
X130200010Y-95483390D01*
X80747629Y-84959580D02*
X80700010Y-85007200D01*
X80700010Y-85007200D02*
X80557153Y-85054819D01*
X80557153Y-85054819D02*
X80461915Y-85054819D01*
X80461915Y-85054819D02*
X80319058Y-85007200D01*
X80319058Y-85007200D02*
X80223820Y-84911961D01*
X80223820Y-84911961D02*
X80176201Y-84816723D01*
X80176201Y-84816723D02*
X80128582Y-84626247D01*
X80128582Y-84626247D02*
X80128582Y-84483390D01*
X80128582Y-84483390D02*
X80176201Y-84292914D01*
X80176201Y-84292914D02*
X80223820Y-84197676D01*
X80223820Y-84197676D02*
X80319058Y-84102438D01*
X80319058Y-84102438D02*
X80461915Y-84054819D01*
X80461915Y-84054819D02*
X80557153Y-84054819D01*
X80557153Y-84054819D02*
X80700010Y-84102438D01*
X80700010Y-84102438D02*
X80747629Y-84150057D01*
X81700010Y-85054819D02*
X81128582Y-85054819D01*
X81414296Y-85054819D02*
X81414296Y-84054819D01*
X81414296Y-84054819D02*
X81319058Y-84197676D01*
X81319058Y-84197676D02*
X81223820Y-84292914D01*
X81223820Y-84292914D02*
X81128582Y-84340533D01*
X82604772Y-84054819D02*
X82128582Y-84054819D01*
X82128582Y-84054819D02*
X82080963Y-84531009D01*
X82080963Y-84531009D02*
X82128582Y-84483390D01*
X82128582Y-84483390D02*
X82223820Y-84435771D01*
X82223820Y-84435771D02*
X82461915Y-84435771D01*
X82461915Y-84435771D02*
X82557153Y-84483390D01*
X82557153Y-84483390D02*
X82604772Y-84531009D01*
X82604772Y-84531009D02*
X82652391Y-84626247D01*
X82652391Y-84626247D02*
X82652391Y-84864342D01*
X82652391Y-84864342D02*
X82604772Y-84959580D01*
X82604772Y-84959580D02*
X82557153Y-85007200D01*
X82557153Y-85007200D02*
X82461915Y-85054819D01*
X82461915Y-85054819D02*
X82223820Y-85054819D01*
X82223820Y-85054819D02*
X82128582Y-85007200D01*
X82128582Y-85007200D02*
X82080963Y-84959580D01*
X80947629Y-89959580D02*
X80900010Y-90007200D01*
X80900010Y-90007200D02*
X80757153Y-90054819D01*
X80757153Y-90054819D02*
X80661915Y-90054819D01*
X80661915Y-90054819D02*
X80519058Y-90007200D01*
X80519058Y-90007200D02*
X80423820Y-89911961D01*
X80423820Y-89911961D02*
X80376201Y-89816723D01*
X80376201Y-89816723D02*
X80328582Y-89626247D01*
X80328582Y-89626247D02*
X80328582Y-89483390D01*
X80328582Y-89483390D02*
X80376201Y-89292914D01*
X80376201Y-89292914D02*
X80423820Y-89197676D01*
X80423820Y-89197676D02*
X80519058Y-89102438D01*
X80519058Y-89102438D02*
X80661915Y-89054819D01*
X80661915Y-89054819D02*
X80757153Y-89054819D01*
X80757153Y-89054819D02*
X80900010Y-89102438D01*
X80900010Y-89102438D02*
X80947629Y-89150057D01*
X81900010Y-90054819D02*
X81328582Y-90054819D01*
X81614296Y-90054819D02*
X81614296Y-89054819D01*
X81614296Y-89054819D02*
X81519058Y-89197676D01*
X81519058Y-89197676D02*
X81423820Y-89292914D01*
X81423820Y-89292914D02*
X81328582Y-89340533D01*
X82852391Y-90054819D02*
X82280963Y-90054819D01*
X82566677Y-90054819D02*
X82566677Y-89054819D01*
X82566677Y-89054819D02*
X82471439Y-89197676D01*
X82471439Y-89197676D02*
X82376201Y-89292914D01*
X82376201Y-89292914D02*
X82280963Y-89340533D01*
X102138095Y-96254819D02*
X102709523Y-96254819D01*
X102423809Y-97254819D02*
X102423809Y-96254819D01*
X103042857Y-97254819D02*
X103042857Y-96254819D01*
X103042857Y-96254819D02*
X103423809Y-96254819D01*
X103423809Y-96254819D02*
X103519047Y-96302438D01*
X103519047Y-96302438D02*
X103566666Y-96350057D01*
X103566666Y-96350057D02*
X103614285Y-96445295D01*
X103614285Y-96445295D02*
X103614285Y-96588152D01*
X103614285Y-96588152D02*
X103566666Y-96683390D01*
X103566666Y-96683390D02*
X103519047Y-96731009D01*
X103519047Y-96731009D02*
X103423809Y-96778628D01*
X103423809Y-96778628D02*
X103042857Y-96778628D01*
X103947619Y-96254819D02*
X104566666Y-96254819D01*
X104566666Y-96254819D02*
X104233333Y-96635771D01*
X104233333Y-96635771D02*
X104376190Y-96635771D01*
X104376190Y-96635771D02*
X104471428Y-96683390D01*
X104471428Y-96683390D02*
X104519047Y-96731009D01*
X104519047Y-96731009D02*
X104566666Y-96826247D01*
X104566666Y-96826247D02*
X104566666Y-97064342D01*
X104566666Y-97064342D02*
X104519047Y-97159580D01*
X104519047Y-97159580D02*
X104471428Y-97207200D01*
X104471428Y-97207200D02*
X104376190Y-97254819D01*
X104376190Y-97254819D02*
X104090476Y-97254819D01*
X104090476Y-97254819D02*
X103995238Y-97207200D01*
X103995238Y-97207200D02*
X103947619Y-97159580D01*
X101433333Y-98469104D02*
X101909523Y-98469104D01*
X101338095Y-98754819D02*
X101671428Y-97754819D01*
X101671428Y-97754819D02*
X102004761Y-98754819D01*
X102909523Y-98659580D02*
X102861904Y-98707200D01*
X102861904Y-98707200D02*
X102719047Y-98754819D01*
X102719047Y-98754819D02*
X102623809Y-98754819D01*
X102623809Y-98754819D02*
X102480952Y-98707200D01*
X102480952Y-98707200D02*
X102385714Y-98611961D01*
X102385714Y-98611961D02*
X102338095Y-98516723D01*
X102338095Y-98516723D02*
X102290476Y-98326247D01*
X102290476Y-98326247D02*
X102290476Y-98183390D01*
X102290476Y-98183390D02*
X102338095Y-97992914D01*
X102338095Y-97992914D02*
X102385714Y-97897676D01*
X102385714Y-97897676D02*
X102480952Y-97802438D01*
X102480952Y-97802438D02*
X102623809Y-97754819D01*
X102623809Y-97754819D02*
X102719047Y-97754819D01*
X102719047Y-97754819D02*
X102861904Y-97802438D01*
X102861904Y-97802438D02*
X102909523Y-97850057D01*
X103338095Y-98754819D02*
X103338095Y-97754819D01*
X103338095Y-97754819D02*
X103576190Y-97754819D01*
X103576190Y-97754819D02*
X103719047Y-97802438D01*
X103719047Y-97802438D02*
X103814285Y-97897676D01*
X103814285Y-97897676D02*
X103861904Y-97992914D01*
X103861904Y-97992914D02*
X103909523Y-98183390D01*
X103909523Y-98183390D02*
X103909523Y-98326247D01*
X103909523Y-98326247D02*
X103861904Y-98516723D01*
X103861904Y-98516723D02*
X103814285Y-98611961D01*
X103814285Y-98611961D02*
X103719047Y-98707200D01*
X103719047Y-98707200D02*
X103576190Y-98754819D01*
X103576190Y-98754819D02*
X103338095Y-98754819D01*
X104909523Y-98754819D02*
X104576190Y-98278628D01*
X104338095Y-98754819D02*
X104338095Y-97754819D01*
X104338095Y-97754819D02*
X104719047Y-97754819D01*
X104719047Y-97754819D02*
X104814285Y-97802438D01*
X104814285Y-97802438D02*
X104861904Y-97850057D01*
X104861904Y-97850057D02*
X104909523Y-97945295D01*
X104909523Y-97945295D02*
X104909523Y-98088152D01*
X104909523Y-98088152D02*
X104861904Y-98183390D01*
X104861904Y-98183390D02*
X104814285Y-98231009D01*
X104814285Y-98231009D02*
X104719047Y-98278628D01*
X104719047Y-98278628D02*
X104338095Y-98278628D01*
X105195238Y-97754819D02*
X105528571Y-98754819D01*
X105528571Y-98754819D02*
X105861904Y-97754819D01*
X75823820Y-102254819D02*
X75490487Y-101778628D01*
X75252392Y-102254819D02*
X75252392Y-101254819D01*
X75252392Y-101254819D02*
X75633344Y-101254819D01*
X75633344Y-101254819D02*
X75728582Y-101302438D01*
X75728582Y-101302438D02*
X75776201Y-101350057D01*
X75776201Y-101350057D02*
X75823820Y-101445295D01*
X75823820Y-101445295D02*
X75823820Y-101588152D01*
X75823820Y-101588152D02*
X75776201Y-101683390D01*
X75776201Y-101683390D02*
X75728582Y-101731009D01*
X75728582Y-101731009D02*
X75633344Y-101778628D01*
X75633344Y-101778628D02*
X75252392Y-101778628D01*
X76680963Y-101254819D02*
X76490487Y-101254819D01*
X76490487Y-101254819D02*
X76395249Y-101302438D01*
X76395249Y-101302438D02*
X76347630Y-101350057D01*
X76347630Y-101350057D02*
X76252392Y-101492914D01*
X76252392Y-101492914D02*
X76204773Y-101683390D01*
X76204773Y-101683390D02*
X76204773Y-102064342D01*
X76204773Y-102064342D02*
X76252392Y-102159580D01*
X76252392Y-102159580D02*
X76300011Y-102207200D01*
X76300011Y-102207200D02*
X76395249Y-102254819D01*
X76395249Y-102254819D02*
X76585725Y-102254819D01*
X76585725Y-102254819D02*
X76680963Y-102207200D01*
X76680963Y-102207200D02*
X76728582Y-102159580D01*
X76728582Y-102159580D02*
X76776201Y-102064342D01*
X76776201Y-102064342D02*
X76776201Y-101826247D01*
X76776201Y-101826247D02*
X76728582Y-101731009D01*
X76728582Y-101731009D02*
X76680963Y-101683390D01*
X76680963Y-101683390D02*
X76585725Y-101635771D01*
X76585725Y-101635771D02*
X76395249Y-101635771D01*
X76395249Y-101635771D02*
X76300011Y-101683390D01*
X76300011Y-101683390D02*
X76252392Y-101731009D01*
X76252392Y-101731009D02*
X76204773Y-101826247D01*
X61648582Y-103054819D02*
X61648582Y-103864342D01*
X61648582Y-103864342D02*
X61696201Y-103959580D01*
X61696201Y-103959580D02*
X61743820Y-104007200D01*
X61743820Y-104007200D02*
X61839058Y-104054819D01*
X61839058Y-104054819D02*
X62029534Y-104054819D01*
X62029534Y-104054819D02*
X62124772Y-104007200D01*
X62124772Y-104007200D02*
X62172391Y-103959580D01*
X62172391Y-103959580D02*
X62220010Y-103864342D01*
X62220010Y-103864342D02*
X62220010Y-103054819D01*
X63220010Y-104054819D02*
X62648582Y-104054819D01*
X62934296Y-104054819D02*
X62934296Y-103054819D01*
X62934296Y-103054819D02*
X62839058Y-103197676D01*
X62839058Y-103197676D02*
X62743820Y-103292914D01*
X62743820Y-103292914D02*
X62648582Y-103340533D01*
X112847629Y-101159580D02*
X112800010Y-101207200D01*
X112800010Y-101207200D02*
X112657153Y-101254819D01*
X112657153Y-101254819D02*
X112561915Y-101254819D01*
X112561915Y-101254819D02*
X112419058Y-101207200D01*
X112419058Y-101207200D02*
X112323820Y-101111961D01*
X112323820Y-101111961D02*
X112276201Y-101016723D01*
X112276201Y-101016723D02*
X112228582Y-100826247D01*
X112228582Y-100826247D02*
X112228582Y-100683390D01*
X112228582Y-100683390D02*
X112276201Y-100492914D01*
X112276201Y-100492914D02*
X112323820Y-100397676D01*
X112323820Y-100397676D02*
X112419058Y-100302438D01*
X112419058Y-100302438D02*
X112561915Y-100254819D01*
X112561915Y-100254819D02*
X112657153Y-100254819D01*
X112657153Y-100254819D02*
X112800010Y-100302438D01*
X112800010Y-100302438D02*
X112847629Y-100350057D01*
X113228582Y-100350057D02*
X113276201Y-100302438D01*
X113276201Y-100302438D02*
X113371439Y-100254819D01*
X113371439Y-100254819D02*
X113609534Y-100254819D01*
X113609534Y-100254819D02*
X113704772Y-100302438D01*
X113704772Y-100302438D02*
X113752391Y-100350057D01*
X113752391Y-100350057D02*
X113800010Y-100445295D01*
X113800010Y-100445295D02*
X113800010Y-100540533D01*
X113800010Y-100540533D02*
X113752391Y-100683390D01*
X113752391Y-100683390D02*
X113180963Y-101254819D01*
X113180963Y-101254819D02*
X113800010Y-101254819D01*
X114752391Y-101254819D02*
X114180963Y-101254819D01*
X114466677Y-101254819D02*
X114466677Y-100254819D01*
X114466677Y-100254819D02*
X114371439Y-100397676D01*
X114371439Y-100397676D02*
X114276201Y-100492914D01*
X114276201Y-100492914D02*
X114180963Y-100540533D01*
X93832392Y-95417319D02*
X93832392Y-94417319D01*
X93832392Y-94417319D02*
X94070487Y-94417319D01*
X94070487Y-94417319D02*
X94213344Y-94464938D01*
X94213344Y-94464938D02*
X94308582Y-94560176D01*
X94308582Y-94560176D02*
X94356201Y-94655414D01*
X94356201Y-94655414D02*
X94403820Y-94845890D01*
X94403820Y-94845890D02*
X94403820Y-94988747D01*
X94403820Y-94988747D02*
X94356201Y-95179223D01*
X94356201Y-95179223D02*
X94308582Y-95274461D01*
X94308582Y-95274461D02*
X94213344Y-95369700D01*
X94213344Y-95369700D02*
X94070487Y-95417319D01*
X94070487Y-95417319D02*
X93832392Y-95417319D01*
X95356201Y-95417319D02*
X94784773Y-95417319D01*
X95070487Y-95417319D02*
X95070487Y-94417319D01*
X95070487Y-94417319D02*
X94975249Y-94560176D01*
X94975249Y-94560176D02*
X94880011Y-94655414D01*
X94880011Y-94655414D02*
X94784773Y-94703033D01*
X119798820Y-98454819D02*
X119322630Y-98454819D01*
X119322630Y-98454819D02*
X119322630Y-97454819D01*
X120655963Y-98454819D02*
X120084535Y-98454819D01*
X120370249Y-98454819D02*
X120370249Y-97454819D01*
X120370249Y-97454819D02*
X120275011Y-97597676D01*
X120275011Y-97597676D02*
X120179773Y-97692914D01*
X120179773Y-97692914D02*
X120084535Y-97740533D01*
X97703333Y-93054819D02*
X97370000Y-92578628D01*
X97131905Y-93054819D02*
X97131905Y-92054819D01*
X97131905Y-92054819D02*
X97512857Y-92054819D01*
X97512857Y-92054819D02*
X97608095Y-92102438D01*
X97608095Y-92102438D02*
X97655714Y-92150057D01*
X97655714Y-92150057D02*
X97703333Y-92245295D01*
X97703333Y-92245295D02*
X97703333Y-92388152D01*
X97703333Y-92388152D02*
X97655714Y-92483390D01*
X97655714Y-92483390D02*
X97608095Y-92531009D01*
X97608095Y-92531009D02*
X97512857Y-92578628D01*
X97512857Y-92578628D02*
X97131905Y-92578628D01*
X98608095Y-92054819D02*
X98131905Y-92054819D01*
X98131905Y-92054819D02*
X98084286Y-92531009D01*
X98084286Y-92531009D02*
X98131905Y-92483390D01*
X98131905Y-92483390D02*
X98227143Y-92435771D01*
X98227143Y-92435771D02*
X98465238Y-92435771D01*
X98465238Y-92435771D02*
X98560476Y-92483390D01*
X98560476Y-92483390D02*
X98608095Y-92531009D01*
X98608095Y-92531009D02*
X98655714Y-92626247D01*
X98655714Y-92626247D02*
X98655714Y-92864342D01*
X98655714Y-92864342D02*
X98608095Y-92959580D01*
X98608095Y-92959580D02*
X98560476Y-93007200D01*
X98560476Y-93007200D02*
X98465238Y-93054819D01*
X98465238Y-93054819D02*
X98227143Y-93054819D01*
X98227143Y-93054819D02*
X98131905Y-93007200D01*
X98131905Y-93007200D02*
X98084286Y-92959580D01*
X98961905Y-110754819D02*
X98961905Y-109754819D01*
X98961905Y-109754819D02*
X99200000Y-109754819D01*
X99200000Y-109754819D02*
X99342857Y-109802438D01*
X99342857Y-109802438D02*
X99438095Y-109897676D01*
X99438095Y-109897676D02*
X99485714Y-109992914D01*
X99485714Y-109992914D02*
X99533333Y-110183390D01*
X99533333Y-110183390D02*
X99533333Y-110326247D01*
X99533333Y-110326247D02*
X99485714Y-110516723D01*
X99485714Y-110516723D02*
X99438095Y-110611961D01*
X99438095Y-110611961D02*
X99342857Y-110707200D01*
X99342857Y-110707200D02*
X99200000Y-110754819D01*
X99200000Y-110754819D02*
X98961905Y-110754819D01*
X100390476Y-109754819D02*
X100200000Y-109754819D01*
X100200000Y-109754819D02*
X100104762Y-109802438D01*
X100104762Y-109802438D02*
X100057143Y-109850057D01*
X100057143Y-109850057D02*
X99961905Y-109992914D01*
X99961905Y-109992914D02*
X99914286Y-110183390D01*
X99914286Y-110183390D02*
X99914286Y-110564342D01*
X99914286Y-110564342D02*
X99961905Y-110659580D01*
X99961905Y-110659580D02*
X100009524Y-110707200D01*
X100009524Y-110707200D02*
X100104762Y-110754819D01*
X100104762Y-110754819D02*
X100295238Y-110754819D01*
X100295238Y-110754819D02*
X100390476Y-110707200D01*
X100390476Y-110707200D02*
X100438095Y-110659580D01*
X100438095Y-110659580D02*
X100485714Y-110564342D01*
X100485714Y-110564342D02*
X100485714Y-110326247D01*
X100485714Y-110326247D02*
X100438095Y-110231009D01*
X100438095Y-110231009D02*
X100390476Y-110183390D01*
X100390476Y-110183390D02*
X100295238Y-110135771D01*
X100295238Y-110135771D02*
X100104762Y-110135771D01*
X100104762Y-110135771D02*
X100009524Y-110183390D01*
X100009524Y-110183390D02*
X99961905Y-110231009D01*
X99961905Y-110231009D02*
X99914286Y-110326247D01*
X101804761Y-115854819D02*
X101471428Y-115378628D01*
X101233333Y-115854819D02*
X101233333Y-114854819D01*
X101233333Y-114854819D02*
X101614285Y-114854819D01*
X101614285Y-114854819D02*
X101709523Y-114902438D01*
X101709523Y-114902438D02*
X101757142Y-114950057D01*
X101757142Y-114950057D02*
X101804761Y-115045295D01*
X101804761Y-115045295D02*
X101804761Y-115188152D01*
X101804761Y-115188152D02*
X101757142Y-115283390D01*
X101757142Y-115283390D02*
X101709523Y-115331009D01*
X101709523Y-115331009D02*
X101614285Y-115378628D01*
X101614285Y-115378628D02*
X101233333Y-115378628D01*
X102090476Y-114854819D02*
X102423809Y-115854819D01*
X102423809Y-115854819D02*
X102757142Y-114854819D01*
X103614285Y-115854819D02*
X103042857Y-115854819D01*
X103328571Y-115854819D02*
X103328571Y-114854819D01*
X103328571Y-114854819D02*
X103233333Y-114997676D01*
X103233333Y-114997676D02*
X103138095Y-115092914D01*
X103138095Y-115092914D02*
X103042857Y-115140533D01*
X90028582Y-87954819D02*
X90028582Y-88764342D01*
X90028582Y-88764342D02*
X90076201Y-88859580D01*
X90076201Y-88859580D02*
X90123820Y-88907200D01*
X90123820Y-88907200D02*
X90219058Y-88954819D01*
X90219058Y-88954819D02*
X90409534Y-88954819D01*
X90409534Y-88954819D02*
X90504772Y-88907200D01*
X90504772Y-88907200D02*
X90552391Y-88859580D01*
X90552391Y-88859580D02*
X90600010Y-88764342D01*
X90600010Y-88764342D02*
X90600010Y-87954819D01*
X91504772Y-88288152D02*
X91504772Y-88954819D01*
X91266677Y-87907200D02*
X91028582Y-88621485D01*
X91028582Y-88621485D02*
X91647629Y-88621485D01*
X92228582Y-115554819D02*
X92800010Y-115554819D01*
X92514296Y-116554819D02*
X92514296Y-115554819D01*
X93133344Y-116554819D02*
X93133344Y-115554819D01*
X93133344Y-115554819D02*
X93514296Y-115554819D01*
X93514296Y-115554819D02*
X93609534Y-115602438D01*
X93609534Y-115602438D02*
X93657153Y-115650057D01*
X93657153Y-115650057D02*
X93704772Y-115745295D01*
X93704772Y-115745295D02*
X93704772Y-115888152D01*
X93704772Y-115888152D02*
X93657153Y-115983390D01*
X93657153Y-115983390D02*
X93609534Y-116031009D01*
X93609534Y-116031009D02*
X93514296Y-116078628D01*
X93514296Y-116078628D02*
X93133344Y-116078628D01*
X94038106Y-115554819D02*
X94704772Y-115554819D01*
X94704772Y-115554819D02*
X94276201Y-116554819D01*
X92461915Y-119759580D02*
X92414296Y-119807200D01*
X92414296Y-119807200D02*
X92271439Y-119854819D01*
X92271439Y-119854819D02*
X92176201Y-119854819D01*
X92176201Y-119854819D02*
X92033344Y-119807200D01*
X92033344Y-119807200D02*
X91938106Y-119711961D01*
X91938106Y-119711961D02*
X91890487Y-119616723D01*
X91890487Y-119616723D02*
X91842868Y-119426247D01*
X91842868Y-119426247D02*
X91842868Y-119283390D01*
X91842868Y-119283390D02*
X91890487Y-119092914D01*
X91890487Y-119092914D02*
X91938106Y-118997676D01*
X91938106Y-118997676D02*
X92033344Y-118902438D01*
X92033344Y-118902438D02*
X92176201Y-118854819D01*
X92176201Y-118854819D02*
X92271439Y-118854819D01*
X92271439Y-118854819D02*
X92414296Y-118902438D01*
X92414296Y-118902438D02*
X92461915Y-118950057D01*
X92890487Y-119854819D02*
X92890487Y-118854819D01*
X92890487Y-119331009D02*
X93461915Y-119331009D01*
X93461915Y-119854819D02*
X93461915Y-118854819D01*
X94461915Y-118902438D02*
X94366677Y-118854819D01*
X94366677Y-118854819D02*
X94223820Y-118854819D01*
X94223820Y-118854819D02*
X94080963Y-118902438D01*
X94080963Y-118902438D02*
X93985725Y-118997676D01*
X93985725Y-118997676D02*
X93938106Y-119092914D01*
X93938106Y-119092914D02*
X93890487Y-119283390D01*
X93890487Y-119283390D02*
X93890487Y-119426247D01*
X93890487Y-119426247D02*
X93938106Y-119616723D01*
X93938106Y-119616723D02*
X93985725Y-119711961D01*
X93985725Y-119711961D02*
X94080963Y-119807200D01*
X94080963Y-119807200D02*
X94223820Y-119854819D01*
X94223820Y-119854819D02*
X94319058Y-119854819D01*
X94319058Y-119854819D02*
X94461915Y-119807200D01*
X94461915Y-119807200D02*
X94509534Y-119759580D01*
X94509534Y-119759580D02*
X94509534Y-119426247D01*
X94509534Y-119426247D02*
X94319058Y-119426247D01*
X95652392Y-119807200D02*
X95795249Y-119854819D01*
X95795249Y-119854819D02*
X96033344Y-119854819D01*
X96033344Y-119854819D02*
X96128582Y-119807200D01*
X96128582Y-119807200D02*
X96176201Y-119759580D01*
X96176201Y-119759580D02*
X96223820Y-119664342D01*
X96223820Y-119664342D02*
X96223820Y-119569104D01*
X96223820Y-119569104D02*
X96176201Y-119473866D01*
X96176201Y-119473866D02*
X96128582Y-119426247D01*
X96128582Y-119426247D02*
X96033344Y-119378628D01*
X96033344Y-119378628D02*
X95842868Y-119331009D01*
X95842868Y-119331009D02*
X95747630Y-119283390D01*
X95747630Y-119283390D02*
X95700011Y-119235771D01*
X95700011Y-119235771D02*
X95652392Y-119140533D01*
X95652392Y-119140533D02*
X95652392Y-119045295D01*
X95652392Y-119045295D02*
X95700011Y-118950057D01*
X95700011Y-118950057D02*
X95747630Y-118902438D01*
X95747630Y-118902438D02*
X95842868Y-118854819D01*
X95842868Y-118854819D02*
X96080963Y-118854819D01*
X96080963Y-118854819D02*
X96223820Y-118902438D01*
X96652392Y-118854819D02*
X96652392Y-119664342D01*
X96652392Y-119664342D02*
X96700011Y-119759580D01*
X96700011Y-119759580D02*
X96747630Y-119807200D01*
X96747630Y-119807200D02*
X96842868Y-119854819D01*
X96842868Y-119854819D02*
X97033344Y-119854819D01*
X97033344Y-119854819D02*
X97128582Y-119807200D01*
X97128582Y-119807200D02*
X97176201Y-119759580D01*
X97176201Y-119759580D02*
X97223820Y-119664342D01*
X97223820Y-119664342D02*
X97223820Y-118854819D01*
X97700011Y-119854819D02*
X97700011Y-118854819D01*
X97700011Y-118854819D02*
X98080963Y-118854819D01*
X98080963Y-118854819D02*
X98176201Y-118902438D01*
X98176201Y-118902438D02*
X98223820Y-118950057D01*
X98223820Y-118950057D02*
X98271439Y-119045295D01*
X98271439Y-119045295D02*
X98271439Y-119188152D01*
X98271439Y-119188152D02*
X98223820Y-119283390D01*
X98223820Y-119283390D02*
X98176201Y-119331009D01*
X98176201Y-119331009D02*
X98080963Y-119378628D01*
X98080963Y-119378628D02*
X97700011Y-119378628D01*
X98700011Y-119854819D02*
X98700011Y-118854819D01*
X98700011Y-118854819D02*
X99080963Y-118854819D01*
X99080963Y-118854819D02*
X99176201Y-118902438D01*
X99176201Y-118902438D02*
X99223820Y-118950057D01*
X99223820Y-118950057D02*
X99271439Y-119045295D01*
X99271439Y-119045295D02*
X99271439Y-119188152D01*
X99271439Y-119188152D02*
X99223820Y-119283390D01*
X99223820Y-119283390D02*
X99176201Y-119331009D01*
X99176201Y-119331009D02*
X99080963Y-119378628D01*
X99080963Y-119378628D02*
X98700011Y-119378628D01*
X100176201Y-119854819D02*
X99700011Y-119854819D01*
X99700011Y-119854819D02*
X99700011Y-118854819D01*
X100700011Y-119378628D02*
X100700011Y-119854819D01*
X100366678Y-118854819D02*
X100700011Y-119378628D01*
X100700011Y-119378628D02*
X101033344Y-118854819D01*
X76097629Y-79254819D02*
X75764296Y-78778628D01*
X75526201Y-79254819D02*
X75526201Y-78254819D01*
X75526201Y-78254819D02*
X75907153Y-78254819D01*
X75907153Y-78254819D02*
X76002391Y-78302438D01*
X76002391Y-78302438D02*
X76050010Y-78350057D01*
X76050010Y-78350057D02*
X76097629Y-78445295D01*
X76097629Y-78445295D02*
X76097629Y-78588152D01*
X76097629Y-78588152D02*
X76050010Y-78683390D01*
X76050010Y-78683390D02*
X76002391Y-78731009D01*
X76002391Y-78731009D02*
X75907153Y-78778628D01*
X75907153Y-78778628D02*
X75526201Y-78778628D01*
X77050010Y-79254819D02*
X76478582Y-79254819D01*
X76764296Y-79254819D02*
X76764296Y-78254819D01*
X76764296Y-78254819D02*
X76669058Y-78397676D01*
X76669058Y-78397676D02*
X76573820Y-78492914D01*
X76573820Y-78492914D02*
X76478582Y-78540533D01*
X77526201Y-79254819D02*
X77716677Y-79254819D01*
X77716677Y-79254819D02*
X77811915Y-79207200D01*
X77811915Y-79207200D02*
X77859534Y-79159580D01*
X77859534Y-79159580D02*
X77954772Y-79016723D01*
X77954772Y-79016723D02*
X78002391Y-78826247D01*
X78002391Y-78826247D02*
X78002391Y-78445295D01*
X78002391Y-78445295D02*
X77954772Y-78350057D01*
X77954772Y-78350057D02*
X77907153Y-78302438D01*
X77907153Y-78302438D02*
X77811915Y-78254819D01*
X77811915Y-78254819D02*
X77621439Y-78254819D01*
X77621439Y-78254819D02*
X77526201Y-78302438D01*
X77526201Y-78302438D02*
X77478582Y-78350057D01*
X77478582Y-78350057D02*
X77430963Y-78445295D01*
X77430963Y-78445295D02*
X77430963Y-78683390D01*
X77430963Y-78683390D02*
X77478582Y-78778628D01*
X77478582Y-78778628D02*
X77526201Y-78826247D01*
X77526201Y-78826247D02*
X77621439Y-78873866D01*
X77621439Y-78873866D02*
X77811915Y-78873866D01*
X77811915Y-78873866D02*
X77907153Y-78826247D01*
X77907153Y-78826247D02*
X77954772Y-78778628D01*
X77954772Y-78778628D02*
X78002391Y-78683390D01*
X93747629Y-83159580D02*
X93700010Y-83207200D01*
X93700010Y-83207200D02*
X93557153Y-83254819D01*
X93557153Y-83254819D02*
X93461915Y-83254819D01*
X93461915Y-83254819D02*
X93319058Y-83207200D01*
X93319058Y-83207200D02*
X93223820Y-83111961D01*
X93223820Y-83111961D02*
X93176201Y-83016723D01*
X93176201Y-83016723D02*
X93128582Y-82826247D01*
X93128582Y-82826247D02*
X93128582Y-82683390D01*
X93128582Y-82683390D02*
X93176201Y-82492914D01*
X93176201Y-82492914D02*
X93223820Y-82397676D01*
X93223820Y-82397676D02*
X93319058Y-82302438D01*
X93319058Y-82302438D02*
X93461915Y-82254819D01*
X93461915Y-82254819D02*
X93557153Y-82254819D01*
X93557153Y-82254819D02*
X93700010Y-82302438D01*
X93700010Y-82302438D02*
X93747629Y-82350057D01*
X94700010Y-83254819D02*
X94128582Y-83254819D01*
X94414296Y-83254819D02*
X94414296Y-82254819D01*
X94414296Y-82254819D02*
X94319058Y-82397676D01*
X94319058Y-82397676D02*
X94223820Y-82492914D01*
X94223820Y-82492914D02*
X94128582Y-82540533D01*
X95033344Y-82254819D02*
X95652391Y-82254819D01*
X95652391Y-82254819D02*
X95319058Y-82635771D01*
X95319058Y-82635771D02*
X95461915Y-82635771D01*
X95461915Y-82635771D02*
X95557153Y-82683390D01*
X95557153Y-82683390D02*
X95604772Y-82731009D01*
X95604772Y-82731009D02*
X95652391Y-82826247D01*
X95652391Y-82826247D02*
X95652391Y-83064342D01*
X95652391Y-83064342D02*
X95604772Y-83159580D01*
X95604772Y-83159580D02*
X95557153Y-83207200D01*
X95557153Y-83207200D02*
X95461915Y-83254819D01*
X95461915Y-83254819D02*
X95176201Y-83254819D01*
X95176201Y-83254819D02*
X95080963Y-83207200D01*
X95080963Y-83207200D02*
X95033344Y-83159580D01*
X109147629Y-109454819D02*
X108814296Y-108978628D01*
X108576201Y-109454819D02*
X108576201Y-108454819D01*
X108576201Y-108454819D02*
X108957153Y-108454819D01*
X108957153Y-108454819D02*
X109052391Y-108502438D01*
X109052391Y-108502438D02*
X109100010Y-108550057D01*
X109100010Y-108550057D02*
X109147629Y-108645295D01*
X109147629Y-108645295D02*
X109147629Y-108788152D01*
X109147629Y-108788152D02*
X109100010Y-108883390D01*
X109100010Y-108883390D02*
X109052391Y-108931009D01*
X109052391Y-108931009D02*
X108957153Y-108978628D01*
X108957153Y-108978628D02*
X108576201Y-108978628D01*
X109528582Y-108550057D02*
X109576201Y-108502438D01*
X109576201Y-108502438D02*
X109671439Y-108454819D01*
X109671439Y-108454819D02*
X109909534Y-108454819D01*
X109909534Y-108454819D02*
X110004772Y-108502438D01*
X110004772Y-108502438D02*
X110052391Y-108550057D01*
X110052391Y-108550057D02*
X110100010Y-108645295D01*
X110100010Y-108645295D02*
X110100010Y-108740533D01*
X110100010Y-108740533D02*
X110052391Y-108883390D01*
X110052391Y-108883390D02*
X109480963Y-109454819D01*
X109480963Y-109454819D02*
X110100010Y-109454819D01*
X110480963Y-108550057D02*
X110528582Y-108502438D01*
X110528582Y-108502438D02*
X110623820Y-108454819D01*
X110623820Y-108454819D02*
X110861915Y-108454819D01*
X110861915Y-108454819D02*
X110957153Y-108502438D01*
X110957153Y-108502438D02*
X111004772Y-108550057D01*
X111004772Y-108550057D02*
X111052391Y-108645295D01*
X111052391Y-108645295D02*
X111052391Y-108740533D01*
X111052391Y-108740533D02*
X111004772Y-108883390D01*
X111004772Y-108883390D02*
X110433344Y-109454819D01*
X110433344Y-109454819D02*
X111052391Y-109454819D01*
X83757142Y-110054819D02*
X83423809Y-109578628D01*
X83185714Y-110054819D02*
X83185714Y-109054819D01*
X83185714Y-109054819D02*
X83566666Y-109054819D01*
X83566666Y-109054819D02*
X83661904Y-109102438D01*
X83661904Y-109102438D02*
X83709523Y-109150057D01*
X83709523Y-109150057D02*
X83757142Y-109245295D01*
X83757142Y-109245295D02*
X83757142Y-109388152D01*
X83757142Y-109388152D02*
X83709523Y-109483390D01*
X83709523Y-109483390D02*
X83661904Y-109531009D01*
X83661904Y-109531009D02*
X83566666Y-109578628D01*
X83566666Y-109578628D02*
X83185714Y-109578628D01*
X84709523Y-110054819D02*
X84138095Y-110054819D01*
X84423809Y-110054819D02*
X84423809Y-109054819D01*
X84423809Y-109054819D02*
X84328571Y-109197676D01*
X84328571Y-109197676D02*
X84233333Y-109292914D01*
X84233333Y-109292914D02*
X84138095Y-109340533D01*
X85328571Y-109054819D02*
X85423809Y-109054819D01*
X85423809Y-109054819D02*
X85519047Y-109102438D01*
X85519047Y-109102438D02*
X85566666Y-109150057D01*
X85566666Y-109150057D02*
X85614285Y-109245295D01*
X85614285Y-109245295D02*
X85661904Y-109435771D01*
X85661904Y-109435771D02*
X85661904Y-109673866D01*
X85661904Y-109673866D02*
X85614285Y-109864342D01*
X85614285Y-109864342D02*
X85566666Y-109959580D01*
X85566666Y-109959580D02*
X85519047Y-110007200D01*
X85519047Y-110007200D02*
X85423809Y-110054819D01*
X85423809Y-110054819D02*
X85328571Y-110054819D01*
X85328571Y-110054819D02*
X85233333Y-110007200D01*
X85233333Y-110007200D02*
X85185714Y-109959580D01*
X85185714Y-109959580D02*
X85138095Y-109864342D01*
X85138095Y-109864342D02*
X85090476Y-109673866D01*
X85090476Y-109673866D02*
X85090476Y-109435771D01*
X85090476Y-109435771D02*
X85138095Y-109245295D01*
X85138095Y-109245295D02*
X85185714Y-109150057D01*
X85185714Y-109150057D02*
X85233333Y-109102438D01*
X85233333Y-109102438D02*
X85328571Y-109054819D01*
X71561905Y-105454819D02*
X71561905Y-104454819D01*
X71561905Y-104454819D02*
X71800000Y-104454819D01*
X71800000Y-104454819D02*
X71942857Y-104502438D01*
X71942857Y-104502438D02*
X72038095Y-104597676D01*
X72038095Y-104597676D02*
X72085714Y-104692914D01*
X72085714Y-104692914D02*
X72133333Y-104883390D01*
X72133333Y-104883390D02*
X72133333Y-105026247D01*
X72133333Y-105026247D02*
X72085714Y-105216723D01*
X72085714Y-105216723D02*
X72038095Y-105311961D01*
X72038095Y-105311961D02*
X71942857Y-105407200D01*
X71942857Y-105407200D02*
X71800000Y-105454819D01*
X71800000Y-105454819D02*
X71561905Y-105454819D01*
X72466667Y-104454819D02*
X73085714Y-104454819D01*
X73085714Y-104454819D02*
X72752381Y-104835771D01*
X72752381Y-104835771D02*
X72895238Y-104835771D01*
X72895238Y-104835771D02*
X72990476Y-104883390D01*
X72990476Y-104883390D02*
X73038095Y-104931009D01*
X73038095Y-104931009D02*
X73085714Y-105026247D01*
X73085714Y-105026247D02*
X73085714Y-105264342D01*
X73085714Y-105264342D02*
X73038095Y-105359580D01*
X73038095Y-105359580D02*
X72990476Y-105407200D01*
X72990476Y-105407200D02*
X72895238Y-105454819D01*
X72895238Y-105454819D02*
X72609524Y-105454819D01*
X72609524Y-105454819D02*
X72514286Y-105407200D01*
X72514286Y-105407200D02*
X72466667Y-105359580D01*
X123366666Y-85431009D02*
X123033333Y-85431009D01*
X123033333Y-85954819D02*
X123033333Y-84954819D01*
X123033333Y-84954819D02*
X123509523Y-84954819D01*
X124414285Y-85954819D02*
X123842857Y-85954819D01*
X124128571Y-85954819D02*
X124128571Y-84954819D01*
X124128571Y-84954819D02*
X124033333Y-85097676D01*
X124033333Y-85097676D02*
X123938095Y-85192914D01*
X123938095Y-85192914D02*
X123842857Y-85240533D01*
X109147629Y-92854819D02*
X108814296Y-92378628D01*
X108576201Y-92854819D02*
X108576201Y-91854819D01*
X108576201Y-91854819D02*
X108957153Y-91854819D01*
X108957153Y-91854819D02*
X109052391Y-91902438D01*
X109052391Y-91902438D02*
X109100010Y-91950057D01*
X109100010Y-91950057D02*
X109147629Y-92045295D01*
X109147629Y-92045295D02*
X109147629Y-92188152D01*
X109147629Y-92188152D02*
X109100010Y-92283390D01*
X109100010Y-92283390D02*
X109052391Y-92331009D01*
X109052391Y-92331009D02*
X108957153Y-92378628D01*
X108957153Y-92378628D02*
X108576201Y-92378628D01*
X109528582Y-91950057D02*
X109576201Y-91902438D01*
X109576201Y-91902438D02*
X109671439Y-91854819D01*
X109671439Y-91854819D02*
X109909534Y-91854819D01*
X109909534Y-91854819D02*
X110004772Y-91902438D01*
X110004772Y-91902438D02*
X110052391Y-91950057D01*
X110052391Y-91950057D02*
X110100010Y-92045295D01*
X110100010Y-92045295D02*
X110100010Y-92140533D01*
X110100010Y-92140533D02*
X110052391Y-92283390D01*
X110052391Y-92283390D02*
X109480963Y-92854819D01*
X109480963Y-92854819D02*
X110100010Y-92854819D01*
X110957153Y-91854819D02*
X110766677Y-91854819D01*
X110766677Y-91854819D02*
X110671439Y-91902438D01*
X110671439Y-91902438D02*
X110623820Y-91950057D01*
X110623820Y-91950057D02*
X110528582Y-92092914D01*
X110528582Y-92092914D02*
X110480963Y-92283390D01*
X110480963Y-92283390D02*
X110480963Y-92664342D01*
X110480963Y-92664342D02*
X110528582Y-92759580D01*
X110528582Y-92759580D02*
X110576201Y-92807200D01*
X110576201Y-92807200D02*
X110671439Y-92854819D01*
X110671439Y-92854819D02*
X110861915Y-92854819D01*
X110861915Y-92854819D02*
X110957153Y-92807200D01*
X110957153Y-92807200D02*
X111004772Y-92759580D01*
X111004772Y-92759580D02*
X111052391Y-92664342D01*
X111052391Y-92664342D02*
X111052391Y-92426247D01*
X111052391Y-92426247D02*
X111004772Y-92331009D01*
X111004772Y-92331009D02*
X110957153Y-92283390D01*
X110957153Y-92283390D02*
X110861915Y-92235771D01*
X110861915Y-92235771D02*
X110671439Y-92235771D01*
X110671439Y-92235771D02*
X110576201Y-92283390D01*
X110576201Y-92283390D02*
X110528582Y-92331009D01*
X110528582Y-92331009D02*
X110480963Y-92426247D01*
X132157153Y-109454819D02*
X132157153Y-110169104D01*
X132157153Y-110169104D02*
X132109534Y-110311961D01*
X132109534Y-110311961D02*
X132014296Y-110407200D01*
X132014296Y-110407200D02*
X131871439Y-110454819D01*
X131871439Y-110454819D02*
X131776201Y-110454819D01*
X132585725Y-109550057D02*
X132633344Y-109502438D01*
X132633344Y-109502438D02*
X132728582Y-109454819D01*
X132728582Y-109454819D02*
X132966677Y-109454819D01*
X132966677Y-109454819D02*
X133061915Y-109502438D01*
X133061915Y-109502438D02*
X133109534Y-109550057D01*
X133109534Y-109550057D02*
X133157153Y-109645295D01*
X133157153Y-109645295D02*
X133157153Y-109740533D01*
X133157153Y-109740533D02*
X133109534Y-109883390D01*
X133109534Y-109883390D02*
X132538106Y-110454819D01*
X132538106Y-110454819D02*
X133157153Y-110454819D01*
X133819048Y-117673866D02*
X134580953Y-117673866D01*
X134200000Y-118054819D02*
X134200000Y-117292914D01*
X71561905Y-107954819D02*
X71561905Y-106954819D01*
X71561905Y-106954819D02*
X71800000Y-106954819D01*
X71800000Y-106954819D02*
X71942857Y-107002438D01*
X71942857Y-107002438D02*
X72038095Y-107097676D01*
X72038095Y-107097676D02*
X72085714Y-107192914D01*
X72085714Y-107192914D02*
X72133333Y-107383390D01*
X72133333Y-107383390D02*
X72133333Y-107526247D01*
X72133333Y-107526247D02*
X72085714Y-107716723D01*
X72085714Y-107716723D02*
X72038095Y-107811961D01*
X72038095Y-107811961D02*
X71942857Y-107907200D01*
X71942857Y-107907200D02*
X71800000Y-107954819D01*
X71800000Y-107954819D02*
X71561905Y-107954819D01*
X72990476Y-107288152D02*
X72990476Y-107954819D01*
X72752381Y-106907200D02*
X72514286Y-107621485D01*
X72514286Y-107621485D02*
X73133333Y-107621485D01*
X84957154Y-94907200D02*
X85100011Y-94954819D01*
X85100011Y-94954819D02*
X85338106Y-94954819D01*
X85338106Y-94954819D02*
X85433344Y-94907200D01*
X85433344Y-94907200D02*
X85480963Y-94859580D01*
X85480963Y-94859580D02*
X85528582Y-94764342D01*
X85528582Y-94764342D02*
X85528582Y-94669104D01*
X85528582Y-94669104D02*
X85480963Y-94573866D01*
X85480963Y-94573866D02*
X85433344Y-94526247D01*
X85433344Y-94526247D02*
X85338106Y-94478628D01*
X85338106Y-94478628D02*
X85147630Y-94431009D01*
X85147630Y-94431009D02*
X85052392Y-94383390D01*
X85052392Y-94383390D02*
X85004773Y-94335771D01*
X85004773Y-94335771D02*
X84957154Y-94240533D01*
X84957154Y-94240533D02*
X84957154Y-94145295D01*
X84957154Y-94145295D02*
X85004773Y-94050057D01*
X85004773Y-94050057D02*
X85052392Y-94002438D01*
X85052392Y-94002438D02*
X85147630Y-93954819D01*
X85147630Y-93954819D02*
X85385725Y-93954819D01*
X85385725Y-93954819D02*
X85528582Y-94002438D01*
X85861916Y-93954819D02*
X86100011Y-94954819D01*
X86100011Y-94954819D02*
X86290487Y-94240533D01*
X86290487Y-94240533D02*
X86480963Y-94954819D01*
X86480963Y-94954819D02*
X86719059Y-93954819D01*
X87052392Y-94050057D02*
X87100011Y-94002438D01*
X87100011Y-94002438D02*
X87195249Y-93954819D01*
X87195249Y-93954819D02*
X87433344Y-93954819D01*
X87433344Y-93954819D02*
X87528582Y-94002438D01*
X87528582Y-94002438D02*
X87576201Y-94050057D01*
X87576201Y-94050057D02*
X87623820Y-94145295D01*
X87623820Y-94145295D02*
X87623820Y-94240533D01*
X87623820Y-94240533D02*
X87576201Y-94383390D01*
X87576201Y-94383390D02*
X87004773Y-94954819D01*
X87004773Y-94954819D02*
X87623820Y-94954819D01*
X84752391Y-96159580D02*
X84704772Y-96207200D01*
X84704772Y-96207200D02*
X84561915Y-96254819D01*
X84561915Y-96254819D02*
X84466677Y-96254819D01*
X84466677Y-96254819D02*
X84323820Y-96207200D01*
X84323820Y-96207200D02*
X84228582Y-96111961D01*
X84228582Y-96111961D02*
X84180963Y-96016723D01*
X84180963Y-96016723D02*
X84133344Y-95826247D01*
X84133344Y-95826247D02*
X84133344Y-95683390D01*
X84133344Y-95683390D02*
X84180963Y-95492914D01*
X84180963Y-95492914D02*
X84228582Y-95397676D01*
X84228582Y-95397676D02*
X84323820Y-95302438D01*
X84323820Y-95302438D02*
X84466677Y-95254819D01*
X84466677Y-95254819D02*
X84561915Y-95254819D01*
X84561915Y-95254819D02*
X84704772Y-95302438D01*
X84704772Y-95302438D02*
X84752391Y-95350057D01*
X85323820Y-96254819D02*
X85228582Y-96207200D01*
X85228582Y-96207200D02*
X85180963Y-96111961D01*
X85180963Y-96111961D02*
X85180963Y-95254819D01*
X85847630Y-96254819D02*
X85752392Y-96207200D01*
X85752392Y-96207200D02*
X85704773Y-96159580D01*
X85704773Y-96159580D02*
X85657154Y-96064342D01*
X85657154Y-96064342D02*
X85657154Y-95778628D01*
X85657154Y-95778628D02*
X85704773Y-95683390D01*
X85704773Y-95683390D02*
X85752392Y-95635771D01*
X85752392Y-95635771D02*
X85847630Y-95588152D01*
X85847630Y-95588152D02*
X85990487Y-95588152D01*
X85990487Y-95588152D02*
X86085725Y-95635771D01*
X86085725Y-95635771D02*
X86133344Y-95683390D01*
X86133344Y-95683390D02*
X86180963Y-95778628D01*
X86180963Y-95778628D02*
X86180963Y-96064342D01*
X86180963Y-96064342D02*
X86133344Y-96159580D01*
X86133344Y-96159580D02*
X86085725Y-96207200D01*
X86085725Y-96207200D02*
X85990487Y-96254819D01*
X85990487Y-96254819D02*
X85847630Y-96254819D01*
X86561916Y-96207200D02*
X86657154Y-96254819D01*
X86657154Y-96254819D02*
X86847630Y-96254819D01*
X86847630Y-96254819D02*
X86942868Y-96207200D01*
X86942868Y-96207200D02*
X86990487Y-96111961D01*
X86990487Y-96111961D02*
X86990487Y-96064342D01*
X86990487Y-96064342D02*
X86942868Y-95969104D01*
X86942868Y-95969104D02*
X86847630Y-95921485D01*
X86847630Y-95921485D02*
X86704773Y-95921485D01*
X86704773Y-95921485D02*
X86609535Y-95873866D01*
X86609535Y-95873866D02*
X86561916Y-95778628D01*
X86561916Y-95778628D02*
X86561916Y-95731009D01*
X86561916Y-95731009D02*
X86609535Y-95635771D01*
X86609535Y-95635771D02*
X86704773Y-95588152D01*
X86704773Y-95588152D02*
X86847630Y-95588152D01*
X86847630Y-95588152D02*
X86942868Y-95635771D01*
X87800011Y-96207200D02*
X87704773Y-96254819D01*
X87704773Y-96254819D02*
X87514297Y-96254819D01*
X87514297Y-96254819D02*
X87419059Y-96207200D01*
X87419059Y-96207200D02*
X87371440Y-96111961D01*
X87371440Y-96111961D02*
X87371440Y-95731009D01*
X87371440Y-95731009D02*
X87419059Y-95635771D01*
X87419059Y-95635771D02*
X87514297Y-95588152D01*
X87514297Y-95588152D02*
X87704773Y-95588152D01*
X87704773Y-95588152D02*
X87800011Y-95635771D01*
X87800011Y-95635771D02*
X87847630Y-95731009D01*
X87847630Y-95731009D02*
X87847630Y-95826247D01*
X87847630Y-95826247D02*
X87371440Y-95921485D01*
X101907748Y-104550057D02*
X101812510Y-104502438D01*
X101812510Y-104502438D02*
X101717272Y-104407200D01*
X101717272Y-104407200D02*
X101574415Y-104264342D01*
X101574415Y-104264342D02*
X101479177Y-104216723D01*
X101479177Y-104216723D02*
X101383939Y-104216723D01*
X101431558Y-104454819D02*
X101336320Y-104407200D01*
X101336320Y-104407200D02*
X101241082Y-104311961D01*
X101241082Y-104311961D02*
X101193463Y-104121485D01*
X101193463Y-104121485D02*
X101193463Y-103788152D01*
X101193463Y-103788152D02*
X101241082Y-103597676D01*
X101241082Y-103597676D02*
X101336320Y-103502438D01*
X101336320Y-103502438D02*
X101431558Y-103454819D01*
X101431558Y-103454819D02*
X101622034Y-103454819D01*
X101622034Y-103454819D02*
X101717272Y-103502438D01*
X101717272Y-103502438D02*
X101812510Y-103597676D01*
X101812510Y-103597676D02*
X101860129Y-103788152D01*
X101860129Y-103788152D02*
X101860129Y-104121485D01*
X101860129Y-104121485D02*
X101812510Y-104311961D01*
X101812510Y-104311961D02*
X101717272Y-104407200D01*
X101717272Y-104407200D02*
X101622034Y-104454819D01*
X101622034Y-104454819D02*
X101431558Y-104454819D01*
X102193463Y-103454819D02*
X102860129Y-103454819D01*
X102860129Y-103454819D02*
X102431558Y-104454819D01*
X115138095Y-88654819D02*
X115709523Y-88654819D01*
X115423809Y-89654819D02*
X115423809Y-88654819D01*
X116042857Y-89654819D02*
X116042857Y-88654819D01*
X116042857Y-88654819D02*
X116423809Y-88654819D01*
X116423809Y-88654819D02*
X116519047Y-88702438D01*
X116519047Y-88702438D02*
X116566666Y-88750057D01*
X116566666Y-88750057D02*
X116614285Y-88845295D01*
X116614285Y-88845295D02*
X116614285Y-88988152D01*
X116614285Y-88988152D02*
X116566666Y-89083390D01*
X116566666Y-89083390D02*
X116519047Y-89131009D01*
X116519047Y-89131009D02*
X116423809Y-89178628D01*
X116423809Y-89178628D02*
X116042857Y-89178628D01*
X116995238Y-88750057D02*
X117042857Y-88702438D01*
X117042857Y-88702438D02*
X117138095Y-88654819D01*
X117138095Y-88654819D02*
X117376190Y-88654819D01*
X117376190Y-88654819D02*
X117471428Y-88702438D01*
X117471428Y-88702438D02*
X117519047Y-88750057D01*
X117519047Y-88750057D02*
X117566666Y-88845295D01*
X117566666Y-88845295D02*
X117566666Y-88940533D01*
X117566666Y-88940533D02*
X117519047Y-89083390D01*
X117519047Y-89083390D02*
X116947619Y-89654819D01*
X116947619Y-89654819D02*
X117566666Y-89654819D01*
X119038095Y-88702438D02*
X118942857Y-88654819D01*
X118942857Y-88654819D02*
X118800000Y-88654819D01*
X118800000Y-88654819D02*
X118657143Y-88702438D01*
X118657143Y-88702438D02*
X118561905Y-88797676D01*
X118561905Y-88797676D02*
X118514286Y-88892914D01*
X118514286Y-88892914D02*
X118466667Y-89083390D01*
X118466667Y-89083390D02*
X118466667Y-89226247D01*
X118466667Y-89226247D02*
X118514286Y-89416723D01*
X118514286Y-89416723D02*
X118561905Y-89511961D01*
X118561905Y-89511961D02*
X118657143Y-89607200D01*
X118657143Y-89607200D02*
X118800000Y-89654819D01*
X118800000Y-89654819D02*
X118895238Y-89654819D01*
X118895238Y-89654819D02*
X119038095Y-89607200D01*
X119038095Y-89607200D02*
X119085714Y-89559580D01*
X119085714Y-89559580D02*
X119085714Y-89226247D01*
X119085714Y-89226247D02*
X118895238Y-89226247D01*
X119514286Y-89654819D02*
X119514286Y-88654819D01*
X119514286Y-88654819D02*
X120085714Y-89654819D01*
X120085714Y-89654819D02*
X120085714Y-88654819D01*
X120561905Y-89654819D02*
X120561905Y-88654819D01*
X120561905Y-88654819D02*
X120800000Y-88654819D01*
X120800000Y-88654819D02*
X120942857Y-88702438D01*
X120942857Y-88702438D02*
X121038095Y-88797676D01*
X121038095Y-88797676D02*
X121085714Y-88892914D01*
X121085714Y-88892914D02*
X121133333Y-89083390D01*
X121133333Y-89083390D02*
X121133333Y-89226247D01*
X121133333Y-89226247D02*
X121085714Y-89416723D01*
X121085714Y-89416723D02*
X121038095Y-89511961D01*
X121038095Y-89511961D02*
X120942857Y-89607200D01*
X120942857Y-89607200D02*
X120800000Y-89654819D01*
X120800000Y-89654819D02*
X120561905Y-89654819D01*
X78561905Y-103604819D02*
X78561905Y-102604819D01*
X78561905Y-102604819D02*
X78800000Y-102604819D01*
X78800000Y-102604819D02*
X78942857Y-102652438D01*
X78942857Y-102652438D02*
X79038095Y-102747676D01*
X79038095Y-102747676D02*
X79085714Y-102842914D01*
X79085714Y-102842914D02*
X79133333Y-103033390D01*
X79133333Y-103033390D02*
X79133333Y-103176247D01*
X79133333Y-103176247D02*
X79085714Y-103366723D01*
X79085714Y-103366723D02*
X79038095Y-103461961D01*
X79038095Y-103461961D02*
X78942857Y-103557200D01*
X78942857Y-103557200D02*
X78800000Y-103604819D01*
X78800000Y-103604819D02*
X78561905Y-103604819D01*
X79514286Y-102700057D02*
X79561905Y-102652438D01*
X79561905Y-102652438D02*
X79657143Y-102604819D01*
X79657143Y-102604819D02*
X79895238Y-102604819D01*
X79895238Y-102604819D02*
X79990476Y-102652438D01*
X79990476Y-102652438D02*
X80038095Y-102700057D01*
X80038095Y-102700057D02*
X80085714Y-102795295D01*
X80085714Y-102795295D02*
X80085714Y-102890533D01*
X80085714Y-102890533D02*
X80038095Y-103033390D01*
X80038095Y-103033390D02*
X79466667Y-103604819D01*
X79466667Y-103604819D02*
X80085714Y-103604819D01*
X106207748Y-102650057D02*
X106112510Y-102602438D01*
X106112510Y-102602438D02*
X106017272Y-102507200D01*
X106017272Y-102507200D02*
X105874415Y-102364342D01*
X105874415Y-102364342D02*
X105779177Y-102316723D01*
X105779177Y-102316723D02*
X105683939Y-102316723D01*
X105731558Y-102554819D02*
X105636320Y-102507200D01*
X105636320Y-102507200D02*
X105541082Y-102411961D01*
X105541082Y-102411961D02*
X105493463Y-102221485D01*
X105493463Y-102221485D02*
X105493463Y-101888152D01*
X105493463Y-101888152D02*
X105541082Y-101697676D01*
X105541082Y-101697676D02*
X105636320Y-101602438D01*
X105636320Y-101602438D02*
X105731558Y-101554819D01*
X105731558Y-101554819D02*
X105922034Y-101554819D01*
X105922034Y-101554819D02*
X106017272Y-101602438D01*
X106017272Y-101602438D02*
X106112510Y-101697676D01*
X106112510Y-101697676D02*
X106160129Y-101888152D01*
X106160129Y-101888152D02*
X106160129Y-102221485D01*
X106160129Y-102221485D02*
X106112510Y-102411961D01*
X106112510Y-102411961D02*
X106017272Y-102507200D01*
X106017272Y-102507200D02*
X105922034Y-102554819D01*
X105922034Y-102554819D02*
X105731558Y-102554819D01*
X106731558Y-101983390D02*
X106636320Y-101935771D01*
X106636320Y-101935771D02*
X106588701Y-101888152D01*
X106588701Y-101888152D02*
X106541082Y-101792914D01*
X106541082Y-101792914D02*
X106541082Y-101745295D01*
X106541082Y-101745295D02*
X106588701Y-101650057D01*
X106588701Y-101650057D02*
X106636320Y-101602438D01*
X106636320Y-101602438D02*
X106731558Y-101554819D01*
X106731558Y-101554819D02*
X106922034Y-101554819D01*
X106922034Y-101554819D02*
X107017272Y-101602438D01*
X107017272Y-101602438D02*
X107064891Y-101650057D01*
X107064891Y-101650057D02*
X107112510Y-101745295D01*
X107112510Y-101745295D02*
X107112510Y-101792914D01*
X107112510Y-101792914D02*
X107064891Y-101888152D01*
X107064891Y-101888152D02*
X107017272Y-101935771D01*
X107017272Y-101935771D02*
X106922034Y-101983390D01*
X106922034Y-101983390D02*
X106731558Y-101983390D01*
X106731558Y-101983390D02*
X106636320Y-102031009D01*
X106636320Y-102031009D02*
X106588701Y-102078628D01*
X106588701Y-102078628D02*
X106541082Y-102173866D01*
X106541082Y-102173866D02*
X106541082Y-102364342D01*
X106541082Y-102364342D02*
X106588701Y-102459580D01*
X106588701Y-102459580D02*
X106636320Y-102507200D01*
X106636320Y-102507200D02*
X106731558Y-102554819D01*
X106731558Y-102554819D02*
X106922034Y-102554819D01*
X106922034Y-102554819D02*
X107017272Y-102507200D01*
X107017272Y-102507200D02*
X107064891Y-102459580D01*
X107064891Y-102459580D02*
X107112510Y-102364342D01*
X107112510Y-102364342D02*
X107112510Y-102173866D01*
X107112510Y-102173866D02*
X107064891Y-102078628D01*
X107064891Y-102078628D02*
X107017272Y-102031009D01*
X107017272Y-102031009D02*
X106922034Y-101983390D01*
X94504761Y-88850057D02*
X94409523Y-88802438D01*
X94409523Y-88802438D02*
X94314285Y-88707200D01*
X94314285Y-88707200D02*
X94171428Y-88564342D01*
X94171428Y-88564342D02*
X94076190Y-88516723D01*
X94076190Y-88516723D02*
X93980952Y-88516723D01*
X94028571Y-88754819D02*
X93933333Y-88707200D01*
X93933333Y-88707200D02*
X93838095Y-88611961D01*
X93838095Y-88611961D02*
X93790476Y-88421485D01*
X93790476Y-88421485D02*
X93790476Y-88088152D01*
X93790476Y-88088152D02*
X93838095Y-87897676D01*
X93838095Y-87897676D02*
X93933333Y-87802438D01*
X93933333Y-87802438D02*
X94028571Y-87754819D01*
X94028571Y-87754819D02*
X94219047Y-87754819D01*
X94219047Y-87754819D02*
X94314285Y-87802438D01*
X94314285Y-87802438D02*
X94409523Y-87897676D01*
X94409523Y-87897676D02*
X94457142Y-88088152D01*
X94457142Y-88088152D02*
X94457142Y-88421485D01*
X94457142Y-88421485D02*
X94409523Y-88611961D01*
X94409523Y-88611961D02*
X94314285Y-88707200D01*
X94314285Y-88707200D02*
X94219047Y-88754819D01*
X94219047Y-88754819D02*
X94028571Y-88754819D01*
X95314285Y-87754819D02*
X95123809Y-87754819D01*
X95123809Y-87754819D02*
X95028571Y-87802438D01*
X95028571Y-87802438D02*
X94980952Y-87850057D01*
X94980952Y-87850057D02*
X94885714Y-87992914D01*
X94885714Y-87992914D02*
X94838095Y-88183390D01*
X94838095Y-88183390D02*
X94838095Y-88564342D01*
X94838095Y-88564342D02*
X94885714Y-88659580D01*
X94885714Y-88659580D02*
X94933333Y-88707200D01*
X94933333Y-88707200D02*
X95028571Y-88754819D01*
X95028571Y-88754819D02*
X95219047Y-88754819D01*
X95219047Y-88754819D02*
X95314285Y-88707200D01*
X95314285Y-88707200D02*
X95361904Y-88659580D01*
X95361904Y-88659580D02*
X95409523Y-88564342D01*
X95409523Y-88564342D02*
X95409523Y-88326247D01*
X95409523Y-88326247D02*
X95361904Y-88231009D01*
X95361904Y-88231009D02*
X95314285Y-88183390D01*
X95314285Y-88183390D02*
X95219047Y-88135771D01*
X95219047Y-88135771D02*
X95028571Y-88135771D01*
X95028571Y-88135771D02*
X94933333Y-88183390D01*
X94933333Y-88183390D02*
X94885714Y-88231009D01*
X94885714Y-88231009D02*
X94838095Y-88326247D01*
X101338095Y-88854819D02*
X101909523Y-88854819D01*
X101623809Y-89854819D02*
X101623809Y-88854819D01*
X102242857Y-89854819D02*
X102242857Y-88854819D01*
X102242857Y-88854819D02*
X102623809Y-88854819D01*
X102623809Y-88854819D02*
X102719047Y-88902438D01*
X102719047Y-88902438D02*
X102766666Y-88950057D01*
X102766666Y-88950057D02*
X102814285Y-89045295D01*
X102814285Y-89045295D02*
X102814285Y-89188152D01*
X102814285Y-89188152D02*
X102766666Y-89283390D01*
X102766666Y-89283390D02*
X102719047Y-89331009D01*
X102719047Y-89331009D02*
X102623809Y-89378628D01*
X102623809Y-89378628D02*
X102242857Y-89378628D01*
X103385714Y-89283390D02*
X103290476Y-89235771D01*
X103290476Y-89235771D02*
X103242857Y-89188152D01*
X103242857Y-89188152D02*
X103195238Y-89092914D01*
X103195238Y-89092914D02*
X103195238Y-89045295D01*
X103195238Y-89045295D02*
X103242857Y-88950057D01*
X103242857Y-88950057D02*
X103290476Y-88902438D01*
X103290476Y-88902438D02*
X103385714Y-88854819D01*
X103385714Y-88854819D02*
X103576190Y-88854819D01*
X103576190Y-88854819D02*
X103671428Y-88902438D01*
X103671428Y-88902438D02*
X103719047Y-88950057D01*
X103719047Y-88950057D02*
X103766666Y-89045295D01*
X103766666Y-89045295D02*
X103766666Y-89092914D01*
X103766666Y-89092914D02*
X103719047Y-89188152D01*
X103719047Y-89188152D02*
X103671428Y-89235771D01*
X103671428Y-89235771D02*
X103576190Y-89283390D01*
X103576190Y-89283390D02*
X103385714Y-89283390D01*
X103385714Y-89283390D02*
X103290476Y-89331009D01*
X103290476Y-89331009D02*
X103242857Y-89378628D01*
X103242857Y-89378628D02*
X103195238Y-89473866D01*
X103195238Y-89473866D02*
X103195238Y-89664342D01*
X103195238Y-89664342D02*
X103242857Y-89759580D01*
X103242857Y-89759580D02*
X103290476Y-89807200D01*
X103290476Y-89807200D02*
X103385714Y-89854819D01*
X103385714Y-89854819D02*
X103576190Y-89854819D01*
X103576190Y-89854819D02*
X103671428Y-89807200D01*
X103671428Y-89807200D02*
X103719047Y-89759580D01*
X103719047Y-89759580D02*
X103766666Y-89664342D01*
X103766666Y-89664342D02*
X103766666Y-89473866D01*
X103766666Y-89473866D02*
X103719047Y-89378628D01*
X103719047Y-89378628D02*
X103671428Y-89331009D01*
X103671428Y-89331009D02*
X103576190Y-89283390D01*
X100885714Y-90454819D02*
X101219047Y-91454819D01*
X101219047Y-91454819D02*
X101552380Y-90454819D01*
X101838095Y-91407200D02*
X101980952Y-91454819D01*
X101980952Y-91454819D02*
X102219047Y-91454819D01*
X102219047Y-91454819D02*
X102314285Y-91407200D01*
X102314285Y-91407200D02*
X102361904Y-91359580D01*
X102361904Y-91359580D02*
X102409523Y-91264342D01*
X102409523Y-91264342D02*
X102409523Y-91169104D01*
X102409523Y-91169104D02*
X102361904Y-91073866D01*
X102361904Y-91073866D02*
X102314285Y-91026247D01*
X102314285Y-91026247D02*
X102219047Y-90978628D01*
X102219047Y-90978628D02*
X102028571Y-90931009D01*
X102028571Y-90931009D02*
X101933333Y-90883390D01*
X101933333Y-90883390D02*
X101885714Y-90835771D01*
X101885714Y-90835771D02*
X101838095Y-90740533D01*
X101838095Y-90740533D02*
X101838095Y-90645295D01*
X101838095Y-90645295D02*
X101885714Y-90550057D01*
X101885714Y-90550057D02*
X101933333Y-90502438D01*
X101933333Y-90502438D02*
X102028571Y-90454819D01*
X102028571Y-90454819D02*
X102266666Y-90454819D01*
X102266666Y-90454819D02*
X102409523Y-90502438D01*
X103028571Y-90978628D02*
X103028571Y-91454819D01*
X102695238Y-90454819D02*
X103028571Y-90978628D01*
X103028571Y-90978628D02*
X103361904Y-90454819D01*
X103647619Y-91407200D02*
X103790476Y-91454819D01*
X103790476Y-91454819D02*
X104028571Y-91454819D01*
X104028571Y-91454819D02*
X104123809Y-91407200D01*
X104123809Y-91407200D02*
X104171428Y-91359580D01*
X104171428Y-91359580D02*
X104219047Y-91264342D01*
X104219047Y-91264342D02*
X104219047Y-91169104D01*
X104219047Y-91169104D02*
X104171428Y-91073866D01*
X104171428Y-91073866D02*
X104123809Y-91026247D01*
X104123809Y-91026247D02*
X104028571Y-90978628D01*
X104028571Y-90978628D02*
X103838095Y-90931009D01*
X103838095Y-90931009D02*
X103742857Y-90883390D01*
X103742857Y-90883390D02*
X103695238Y-90835771D01*
X103695238Y-90835771D02*
X103647619Y-90740533D01*
X103647619Y-90740533D02*
X103647619Y-90645295D01*
X103647619Y-90645295D02*
X103695238Y-90550057D01*
X103695238Y-90550057D02*
X103742857Y-90502438D01*
X103742857Y-90502438D02*
X103838095Y-90454819D01*
X103838095Y-90454819D02*
X104076190Y-90454819D01*
X104076190Y-90454819D02*
X104219047Y-90502438D01*
X64647629Y-92359580D02*
X64600010Y-92407200D01*
X64600010Y-92407200D02*
X64457153Y-92454819D01*
X64457153Y-92454819D02*
X64361915Y-92454819D01*
X64361915Y-92454819D02*
X64219058Y-92407200D01*
X64219058Y-92407200D02*
X64123820Y-92311961D01*
X64123820Y-92311961D02*
X64076201Y-92216723D01*
X64076201Y-92216723D02*
X64028582Y-92026247D01*
X64028582Y-92026247D02*
X64028582Y-91883390D01*
X64028582Y-91883390D02*
X64076201Y-91692914D01*
X64076201Y-91692914D02*
X64123820Y-91597676D01*
X64123820Y-91597676D02*
X64219058Y-91502438D01*
X64219058Y-91502438D02*
X64361915Y-91454819D01*
X64361915Y-91454819D02*
X64457153Y-91454819D01*
X64457153Y-91454819D02*
X64600010Y-91502438D01*
X64600010Y-91502438D02*
X64647629Y-91550057D01*
X65600010Y-92454819D02*
X65028582Y-92454819D01*
X65314296Y-92454819D02*
X65314296Y-91454819D01*
X65314296Y-91454819D02*
X65219058Y-91597676D01*
X65219058Y-91597676D02*
X65123820Y-91692914D01*
X65123820Y-91692914D02*
X65028582Y-91740533D01*
X66219058Y-91454819D02*
X66314296Y-91454819D01*
X66314296Y-91454819D02*
X66409534Y-91502438D01*
X66409534Y-91502438D02*
X66457153Y-91550057D01*
X66457153Y-91550057D02*
X66504772Y-91645295D01*
X66504772Y-91645295D02*
X66552391Y-91835771D01*
X66552391Y-91835771D02*
X66552391Y-92073866D01*
X66552391Y-92073866D02*
X66504772Y-92264342D01*
X66504772Y-92264342D02*
X66457153Y-92359580D01*
X66457153Y-92359580D02*
X66409534Y-92407200D01*
X66409534Y-92407200D02*
X66314296Y-92454819D01*
X66314296Y-92454819D02*
X66219058Y-92454819D01*
X66219058Y-92454819D02*
X66123820Y-92407200D01*
X66123820Y-92407200D02*
X66076201Y-92359580D01*
X66076201Y-92359580D02*
X66028582Y-92264342D01*
X66028582Y-92264342D02*
X65980963Y-92073866D01*
X65980963Y-92073866D02*
X65980963Y-91835771D01*
X65980963Y-91835771D02*
X66028582Y-91645295D01*
X66028582Y-91645295D02*
X66076201Y-91550057D01*
X66076201Y-91550057D02*
X66123820Y-91502438D01*
X66123820Y-91502438D02*
X66219058Y-91454819D01*
X74923820Y-103754819D02*
X74590487Y-103278628D01*
X74352392Y-103754819D02*
X74352392Y-102754819D01*
X74352392Y-102754819D02*
X74733344Y-102754819D01*
X74733344Y-102754819D02*
X74828582Y-102802438D01*
X74828582Y-102802438D02*
X74876201Y-102850057D01*
X74876201Y-102850057D02*
X74923820Y-102945295D01*
X74923820Y-102945295D02*
X74923820Y-103088152D01*
X74923820Y-103088152D02*
X74876201Y-103183390D01*
X74876201Y-103183390D02*
X74828582Y-103231009D01*
X74828582Y-103231009D02*
X74733344Y-103278628D01*
X74733344Y-103278628D02*
X74352392Y-103278628D01*
X75257154Y-102754819D02*
X75923820Y-102754819D01*
X75923820Y-102754819D02*
X75495249Y-103754819D01*
X114438095Y-107754819D02*
X115009523Y-107754819D01*
X114723809Y-108754819D02*
X114723809Y-107754819D01*
X115342857Y-108754819D02*
X115342857Y-107754819D01*
X115342857Y-107754819D02*
X115723809Y-107754819D01*
X115723809Y-107754819D02*
X115819047Y-107802438D01*
X115819047Y-107802438D02*
X115866666Y-107850057D01*
X115866666Y-107850057D02*
X115914285Y-107945295D01*
X115914285Y-107945295D02*
X115914285Y-108088152D01*
X115914285Y-108088152D02*
X115866666Y-108183390D01*
X115866666Y-108183390D02*
X115819047Y-108231009D01*
X115819047Y-108231009D02*
X115723809Y-108278628D01*
X115723809Y-108278628D02*
X115342857Y-108278628D01*
X116771428Y-107754819D02*
X116580952Y-107754819D01*
X116580952Y-107754819D02*
X116485714Y-107802438D01*
X116485714Y-107802438D02*
X116438095Y-107850057D01*
X116438095Y-107850057D02*
X116342857Y-107992914D01*
X116342857Y-107992914D02*
X116295238Y-108183390D01*
X116295238Y-108183390D02*
X116295238Y-108564342D01*
X116295238Y-108564342D02*
X116342857Y-108659580D01*
X116342857Y-108659580D02*
X116390476Y-108707200D01*
X116390476Y-108707200D02*
X116485714Y-108754819D01*
X116485714Y-108754819D02*
X116676190Y-108754819D01*
X116676190Y-108754819D02*
X116771428Y-108707200D01*
X116771428Y-108707200D02*
X116819047Y-108659580D01*
X116819047Y-108659580D02*
X116866666Y-108564342D01*
X116866666Y-108564342D02*
X116866666Y-108326247D01*
X116866666Y-108326247D02*
X116819047Y-108231009D01*
X116819047Y-108231009D02*
X116771428Y-108183390D01*
X116771428Y-108183390D02*
X116676190Y-108135771D01*
X116676190Y-108135771D02*
X116485714Y-108135771D01*
X116485714Y-108135771D02*
X116390476Y-108183390D01*
X116390476Y-108183390D02*
X116342857Y-108231009D01*
X116342857Y-108231009D02*
X116295238Y-108326247D01*
X114238095Y-109869104D02*
X114714285Y-109869104D01*
X114142857Y-110154819D02*
X114476190Y-109154819D01*
X114476190Y-109154819D02*
X114809523Y-110154819D01*
X115714285Y-110059580D02*
X115666666Y-110107200D01*
X115666666Y-110107200D02*
X115523809Y-110154819D01*
X115523809Y-110154819D02*
X115428571Y-110154819D01*
X115428571Y-110154819D02*
X115285714Y-110107200D01*
X115285714Y-110107200D02*
X115190476Y-110011961D01*
X115190476Y-110011961D02*
X115142857Y-109916723D01*
X115142857Y-109916723D02*
X115095238Y-109726247D01*
X115095238Y-109726247D02*
X115095238Y-109583390D01*
X115095238Y-109583390D02*
X115142857Y-109392914D01*
X115142857Y-109392914D02*
X115190476Y-109297676D01*
X115190476Y-109297676D02*
X115285714Y-109202438D01*
X115285714Y-109202438D02*
X115428571Y-109154819D01*
X115428571Y-109154819D02*
X115523809Y-109154819D01*
X115523809Y-109154819D02*
X115666666Y-109202438D01*
X115666666Y-109202438D02*
X115714285Y-109250057D01*
X116333333Y-109154819D02*
X116523809Y-109154819D01*
X116523809Y-109154819D02*
X116619047Y-109202438D01*
X116619047Y-109202438D02*
X116714285Y-109297676D01*
X116714285Y-109297676D02*
X116761904Y-109488152D01*
X116761904Y-109488152D02*
X116761904Y-109821485D01*
X116761904Y-109821485D02*
X116714285Y-110011961D01*
X116714285Y-110011961D02*
X116619047Y-110107200D01*
X116619047Y-110107200D02*
X116523809Y-110154819D01*
X116523809Y-110154819D02*
X116333333Y-110154819D01*
X116333333Y-110154819D02*
X116238095Y-110107200D01*
X116238095Y-110107200D02*
X116142857Y-110011961D01*
X116142857Y-110011961D02*
X116095238Y-109821485D01*
X116095238Y-109821485D02*
X116095238Y-109488152D01*
X116095238Y-109488152D02*
X116142857Y-109297676D01*
X116142857Y-109297676D02*
X116238095Y-109202438D01*
X116238095Y-109202438D02*
X116333333Y-109154819D01*
X117190476Y-110154819D02*
X117190476Y-109154819D01*
X117761904Y-110154819D02*
X117333333Y-109583390D01*
X117761904Y-109154819D02*
X117190476Y-109726247D01*
X71847629Y-79304819D02*
X71514296Y-78828628D01*
X71276201Y-79304819D02*
X71276201Y-78304819D01*
X71276201Y-78304819D02*
X71657153Y-78304819D01*
X71657153Y-78304819D02*
X71752391Y-78352438D01*
X71752391Y-78352438D02*
X71800010Y-78400057D01*
X71800010Y-78400057D02*
X71847629Y-78495295D01*
X71847629Y-78495295D02*
X71847629Y-78638152D01*
X71847629Y-78638152D02*
X71800010Y-78733390D01*
X71800010Y-78733390D02*
X71752391Y-78781009D01*
X71752391Y-78781009D02*
X71657153Y-78828628D01*
X71657153Y-78828628D02*
X71276201Y-78828628D01*
X72800010Y-79304819D02*
X72228582Y-79304819D01*
X72514296Y-79304819D02*
X72514296Y-78304819D01*
X72514296Y-78304819D02*
X72419058Y-78447676D01*
X72419058Y-78447676D02*
X72323820Y-78542914D01*
X72323820Y-78542914D02*
X72228582Y-78590533D01*
X73657153Y-78304819D02*
X73466677Y-78304819D01*
X73466677Y-78304819D02*
X73371439Y-78352438D01*
X73371439Y-78352438D02*
X73323820Y-78400057D01*
X73323820Y-78400057D02*
X73228582Y-78542914D01*
X73228582Y-78542914D02*
X73180963Y-78733390D01*
X73180963Y-78733390D02*
X73180963Y-79114342D01*
X73180963Y-79114342D02*
X73228582Y-79209580D01*
X73228582Y-79209580D02*
X73276201Y-79257200D01*
X73276201Y-79257200D02*
X73371439Y-79304819D01*
X73371439Y-79304819D02*
X73561915Y-79304819D01*
X73561915Y-79304819D02*
X73657153Y-79257200D01*
X73657153Y-79257200D02*
X73704772Y-79209580D01*
X73704772Y-79209580D02*
X73752391Y-79114342D01*
X73752391Y-79114342D02*
X73752391Y-78876247D01*
X73752391Y-78876247D02*
X73704772Y-78781009D01*
X73704772Y-78781009D02*
X73657153Y-78733390D01*
X73657153Y-78733390D02*
X73561915Y-78685771D01*
X73561915Y-78685771D02*
X73371439Y-78685771D01*
X73371439Y-78685771D02*
X73276201Y-78733390D01*
X73276201Y-78733390D02*
X73228582Y-78781009D01*
X73228582Y-78781009D02*
X73180963Y-78876247D01*
X121466666Y-108654819D02*
X121466666Y-109369104D01*
X121466666Y-109369104D02*
X121419047Y-109511961D01*
X121419047Y-109511961D02*
X121323809Y-109607200D01*
X121323809Y-109607200D02*
X121180952Y-109654819D01*
X121180952Y-109654819D02*
X121085714Y-109654819D01*
X121942857Y-109654819D02*
X121942857Y-108654819D01*
X121942857Y-108654819D02*
X122323809Y-108654819D01*
X122323809Y-108654819D02*
X122419047Y-108702438D01*
X122419047Y-108702438D02*
X122466666Y-108750057D01*
X122466666Y-108750057D02*
X122514285Y-108845295D01*
X122514285Y-108845295D02*
X122514285Y-108988152D01*
X122514285Y-108988152D02*
X122466666Y-109083390D01*
X122466666Y-109083390D02*
X122419047Y-109131009D01*
X122419047Y-109131009D02*
X122323809Y-109178628D01*
X122323809Y-109178628D02*
X121942857Y-109178628D01*
X123466666Y-109654819D02*
X122895238Y-109654819D01*
X123180952Y-109654819D02*
X123180952Y-108654819D01*
X123180952Y-108654819D02*
X123085714Y-108797676D01*
X123085714Y-108797676D02*
X122990476Y-108892914D01*
X122990476Y-108892914D02*
X122895238Y-108940533D01*
X118428571Y-110854819D02*
X118428571Y-109854819D01*
X118428571Y-109854819D02*
X118809523Y-109854819D01*
X118809523Y-109854819D02*
X118904761Y-109902438D01*
X118904761Y-109902438D02*
X118952380Y-109950057D01*
X118952380Y-109950057D02*
X118999999Y-110045295D01*
X118999999Y-110045295D02*
X118999999Y-110188152D01*
X118999999Y-110188152D02*
X118952380Y-110283390D01*
X118952380Y-110283390D02*
X118904761Y-110331009D01*
X118904761Y-110331009D02*
X118809523Y-110378628D01*
X118809523Y-110378628D02*
X118428571Y-110378628D01*
X119999999Y-110854819D02*
X119666666Y-110378628D01*
X119428571Y-110854819D02*
X119428571Y-109854819D01*
X119428571Y-109854819D02*
X119809523Y-109854819D01*
X119809523Y-109854819D02*
X119904761Y-109902438D01*
X119904761Y-109902438D02*
X119952380Y-109950057D01*
X119952380Y-109950057D02*
X119999999Y-110045295D01*
X119999999Y-110045295D02*
X119999999Y-110188152D01*
X119999999Y-110188152D02*
X119952380Y-110283390D01*
X119952380Y-110283390D02*
X119904761Y-110331009D01*
X119904761Y-110331009D02*
X119809523Y-110378628D01*
X119809523Y-110378628D02*
X119428571Y-110378628D01*
X120619047Y-109854819D02*
X120809523Y-109854819D01*
X120809523Y-109854819D02*
X120904761Y-109902438D01*
X120904761Y-109902438D02*
X120999999Y-109997676D01*
X120999999Y-109997676D02*
X121047618Y-110188152D01*
X121047618Y-110188152D02*
X121047618Y-110521485D01*
X121047618Y-110521485D02*
X120999999Y-110711961D01*
X120999999Y-110711961D02*
X120904761Y-110807200D01*
X120904761Y-110807200D02*
X120809523Y-110854819D01*
X120809523Y-110854819D02*
X120619047Y-110854819D01*
X120619047Y-110854819D02*
X120523809Y-110807200D01*
X120523809Y-110807200D02*
X120428571Y-110711961D01*
X120428571Y-110711961D02*
X120380952Y-110521485D01*
X120380952Y-110521485D02*
X120380952Y-110188152D01*
X120380952Y-110188152D02*
X120428571Y-109997676D01*
X120428571Y-109997676D02*
X120523809Y-109902438D01*
X120523809Y-109902438D02*
X120619047Y-109854819D01*
X122047618Y-110759580D02*
X121999999Y-110807200D01*
X121999999Y-110807200D02*
X121857142Y-110854819D01*
X121857142Y-110854819D02*
X121761904Y-110854819D01*
X121761904Y-110854819D02*
X121619047Y-110807200D01*
X121619047Y-110807200D02*
X121523809Y-110711961D01*
X121523809Y-110711961D02*
X121476190Y-110616723D01*
X121476190Y-110616723D02*
X121428571Y-110426247D01*
X121428571Y-110426247D02*
X121428571Y-110283390D01*
X121428571Y-110283390D02*
X121476190Y-110092914D01*
X121476190Y-110092914D02*
X121523809Y-109997676D01*
X121523809Y-109997676D02*
X121619047Y-109902438D01*
X121619047Y-109902438D02*
X121761904Y-109854819D01*
X121761904Y-109854819D02*
X121857142Y-109854819D01*
X121857142Y-109854819D02*
X121999999Y-109902438D01*
X121999999Y-109902438D02*
X122047618Y-109950057D01*
X122476190Y-110854819D02*
X122476190Y-109854819D01*
X122476190Y-110331009D02*
X123047618Y-110331009D01*
X123047618Y-110854819D02*
X123047618Y-109854819D01*
X123714285Y-109854819D02*
X123904761Y-109854819D01*
X123904761Y-109854819D02*
X123999999Y-109902438D01*
X123999999Y-109902438D02*
X124095237Y-109997676D01*
X124095237Y-109997676D02*
X124142856Y-110188152D01*
X124142856Y-110188152D02*
X124142856Y-110521485D01*
X124142856Y-110521485D02*
X124095237Y-110711961D01*
X124095237Y-110711961D02*
X123999999Y-110807200D01*
X123999999Y-110807200D02*
X123904761Y-110854819D01*
X123904761Y-110854819D02*
X123714285Y-110854819D01*
X123714285Y-110854819D02*
X123619047Y-110807200D01*
X123619047Y-110807200D02*
X123523809Y-110711961D01*
X123523809Y-110711961D02*
X123476190Y-110521485D01*
X123476190Y-110521485D02*
X123476190Y-110188152D01*
X123476190Y-110188152D02*
X123523809Y-109997676D01*
X123523809Y-109997676D02*
X123619047Y-109902438D01*
X123619047Y-109902438D02*
X123714285Y-109854819D01*
X124428571Y-109854819D02*
X124999999Y-109854819D01*
X124714285Y-110854819D02*
X124714285Y-109854819D01*
X125285714Y-110188152D02*
X125999999Y-110188152D01*
X125571428Y-109759580D02*
X125285714Y-111045295D01*
X125904761Y-110616723D02*
X125190476Y-110616723D01*
X125619047Y-111045295D02*
X125904761Y-109759580D01*
X126095238Y-110950057D02*
X126857142Y-110950057D01*
X127095238Y-110331009D02*
X127428571Y-110331009D01*
X127571428Y-110854819D02*
X127095238Y-110854819D01*
X127095238Y-110854819D02*
X127095238Y-109854819D01*
X127095238Y-109854819D02*
X127571428Y-109854819D01*
X128000000Y-110854819D02*
X128000000Y-109854819D01*
X128000000Y-109854819D02*
X128571428Y-110854819D01*
X128571428Y-110854819D02*
X128571428Y-109854819D01*
X63782154Y-94907200D02*
X63925011Y-94954819D01*
X63925011Y-94954819D02*
X64163106Y-94954819D01*
X64163106Y-94954819D02*
X64258344Y-94907200D01*
X64258344Y-94907200D02*
X64305963Y-94859580D01*
X64305963Y-94859580D02*
X64353582Y-94764342D01*
X64353582Y-94764342D02*
X64353582Y-94669104D01*
X64353582Y-94669104D02*
X64305963Y-94573866D01*
X64305963Y-94573866D02*
X64258344Y-94526247D01*
X64258344Y-94526247D02*
X64163106Y-94478628D01*
X64163106Y-94478628D02*
X63972630Y-94431009D01*
X63972630Y-94431009D02*
X63877392Y-94383390D01*
X63877392Y-94383390D02*
X63829773Y-94335771D01*
X63829773Y-94335771D02*
X63782154Y-94240533D01*
X63782154Y-94240533D02*
X63782154Y-94145295D01*
X63782154Y-94145295D02*
X63829773Y-94050057D01*
X63829773Y-94050057D02*
X63877392Y-94002438D01*
X63877392Y-94002438D02*
X63972630Y-93954819D01*
X63972630Y-93954819D02*
X64210725Y-93954819D01*
X64210725Y-93954819D02*
X64353582Y-94002438D01*
X64686916Y-93954819D02*
X64925011Y-94954819D01*
X64925011Y-94954819D02*
X65115487Y-94240533D01*
X65115487Y-94240533D02*
X65305963Y-94954819D01*
X65305963Y-94954819D02*
X65544059Y-93954819D01*
X66448820Y-94954819D02*
X65877392Y-94954819D01*
X66163106Y-94954819D02*
X66163106Y-93954819D01*
X66163106Y-93954819D02*
X66067868Y-94097676D01*
X66067868Y-94097676D02*
X65972630Y-94192914D01*
X65972630Y-94192914D02*
X65877392Y-94240533D01*
X63686915Y-95354819D02*
X63877391Y-95354819D01*
X63877391Y-95354819D02*
X63972629Y-95402438D01*
X63972629Y-95402438D02*
X64067867Y-95497676D01*
X64067867Y-95497676D02*
X64115486Y-95688152D01*
X64115486Y-95688152D02*
X64115486Y-96021485D01*
X64115486Y-96021485D02*
X64067867Y-96211961D01*
X64067867Y-96211961D02*
X63972629Y-96307200D01*
X63972629Y-96307200D02*
X63877391Y-96354819D01*
X63877391Y-96354819D02*
X63686915Y-96354819D01*
X63686915Y-96354819D02*
X63591677Y-96307200D01*
X63591677Y-96307200D02*
X63496439Y-96211961D01*
X63496439Y-96211961D02*
X63448820Y-96021485D01*
X63448820Y-96021485D02*
X63448820Y-95688152D01*
X63448820Y-95688152D02*
X63496439Y-95497676D01*
X63496439Y-95497676D02*
X63591677Y-95402438D01*
X63591677Y-95402438D02*
X63686915Y-95354819D01*
X64544058Y-95688152D02*
X64544058Y-96688152D01*
X64544058Y-95735771D02*
X64639296Y-95688152D01*
X64639296Y-95688152D02*
X64829772Y-95688152D01*
X64829772Y-95688152D02*
X64925010Y-95735771D01*
X64925010Y-95735771D02*
X64972629Y-95783390D01*
X64972629Y-95783390D02*
X65020248Y-95878628D01*
X65020248Y-95878628D02*
X65020248Y-96164342D01*
X65020248Y-96164342D02*
X64972629Y-96259580D01*
X64972629Y-96259580D02*
X64925010Y-96307200D01*
X64925010Y-96307200D02*
X64829772Y-96354819D01*
X64829772Y-96354819D02*
X64639296Y-96354819D01*
X64639296Y-96354819D02*
X64544058Y-96307200D01*
X65829772Y-96307200D02*
X65734534Y-96354819D01*
X65734534Y-96354819D02*
X65544058Y-96354819D01*
X65544058Y-96354819D02*
X65448820Y-96307200D01*
X65448820Y-96307200D02*
X65401201Y-96211961D01*
X65401201Y-96211961D02*
X65401201Y-95831009D01*
X65401201Y-95831009D02*
X65448820Y-95735771D01*
X65448820Y-95735771D02*
X65544058Y-95688152D01*
X65544058Y-95688152D02*
X65734534Y-95688152D01*
X65734534Y-95688152D02*
X65829772Y-95735771D01*
X65829772Y-95735771D02*
X65877391Y-95831009D01*
X65877391Y-95831009D02*
X65877391Y-95926247D01*
X65877391Y-95926247D02*
X65401201Y-96021485D01*
X66305963Y-95688152D02*
X66305963Y-96354819D01*
X66305963Y-95783390D02*
X66353582Y-95735771D01*
X66353582Y-95735771D02*
X66448820Y-95688152D01*
X66448820Y-95688152D02*
X66591677Y-95688152D01*
X66591677Y-95688152D02*
X66686915Y-95735771D01*
X66686915Y-95735771D02*
X66734534Y-95831009D01*
X66734534Y-95831009D02*
X66734534Y-96354819D01*
X63857153Y-84754819D02*
X63857153Y-85469104D01*
X63857153Y-85469104D02*
X63809534Y-85611961D01*
X63809534Y-85611961D02*
X63714296Y-85707200D01*
X63714296Y-85707200D02*
X63571439Y-85754819D01*
X63571439Y-85754819D02*
X63476201Y-85754819D01*
X64238106Y-84754819D02*
X64857153Y-84754819D01*
X64857153Y-84754819D02*
X64523820Y-85135771D01*
X64523820Y-85135771D02*
X64666677Y-85135771D01*
X64666677Y-85135771D02*
X64761915Y-85183390D01*
X64761915Y-85183390D02*
X64809534Y-85231009D01*
X64809534Y-85231009D02*
X64857153Y-85326247D01*
X64857153Y-85326247D02*
X64857153Y-85564342D01*
X64857153Y-85564342D02*
X64809534Y-85659580D01*
X64809534Y-85659580D02*
X64761915Y-85707200D01*
X64761915Y-85707200D02*
X64666677Y-85754819D01*
X64666677Y-85754819D02*
X64380963Y-85754819D01*
X64380963Y-85754819D02*
X64285725Y-85707200D01*
X64285725Y-85707200D02*
X64238106Y-85659580D01*
X128657142Y-103454819D02*
X128323809Y-102978628D01*
X128085714Y-103454819D02*
X128085714Y-102454819D01*
X128085714Y-102454819D02*
X128466666Y-102454819D01*
X128466666Y-102454819D02*
X128561904Y-102502438D01*
X128561904Y-102502438D02*
X128609523Y-102550057D01*
X128609523Y-102550057D02*
X128657142Y-102645295D01*
X128657142Y-102645295D02*
X128657142Y-102788152D01*
X128657142Y-102788152D02*
X128609523Y-102883390D01*
X128609523Y-102883390D02*
X128561904Y-102931009D01*
X128561904Y-102931009D02*
X128466666Y-102978628D01*
X128466666Y-102978628D02*
X128085714Y-102978628D01*
X129038095Y-102550057D02*
X129085714Y-102502438D01*
X129085714Y-102502438D02*
X129180952Y-102454819D01*
X129180952Y-102454819D02*
X129419047Y-102454819D01*
X129419047Y-102454819D02*
X129514285Y-102502438D01*
X129514285Y-102502438D02*
X129561904Y-102550057D01*
X129561904Y-102550057D02*
X129609523Y-102645295D01*
X129609523Y-102645295D02*
X129609523Y-102740533D01*
X129609523Y-102740533D02*
X129561904Y-102883390D01*
X129561904Y-102883390D02*
X128990476Y-103454819D01*
X128990476Y-103454819D02*
X129609523Y-103454819D01*
X130228571Y-102454819D02*
X130323809Y-102454819D01*
X130323809Y-102454819D02*
X130419047Y-102502438D01*
X130419047Y-102502438D02*
X130466666Y-102550057D01*
X130466666Y-102550057D02*
X130514285Y-102645295D01*
X130514285Y-102645295D02*
X130561904Y-102835771D01*
X130561904Y-102835771D02*
X130561904Y-103073866D01*
X130561904Y-103073866D02*
X130514285Y-103264342D01*
X130514285Y-103264342D02*
X130466666Y-103359580D01*
X130466666Y-103359580D02*
X130419047Y-103407200D01*
X130419047Y-103407200D02*
X130323809Y-103454819D01*
X130323809Y-103454819D02*
X130228571Y-103454819D01*
X130228571Y-103454819D02*
X130133333Y-103407200D01*
X130133333Y-103407200D02*
X130085714Y-103359580D01*
X130085714Y-103359580D02*
X130038095Y-103264342D01*
X130038095Y-103264342D02*
X129990476Y-103073866D01*
X129990476Y-103073866D02*
X129990476Y-102835771D01*
X129990476Y-102835771D02*
X130038095Y-102645295D01*
X130038095Y-102645295D02*
X130085714Y-102550057D01*
X130085714Y-102550057D02*
X130133333Y-102502438D01*
X130133333Y-102502438D02*
X130228571Y-102454819D01*
X87804761Y-105150057D02*
X87709523Y-105102438D01*
X87709523Y-105102438D02*
X87614285Y-105007200D01*
X87614285Y-105007200D02*
X87471428Y-104864342D01*
X87471428Y-104864342D02*
X87376190Y-104816723D01*
X87376190Y-104816723D02*
X87280952Y-104816723D01*
X87328571Y-105054819D02*
X87233333Y-105007200D01*
X87233333Y-105007200D02*
X87138095Y-104911961D01*
X87138095Y-104911961D02*
X87090476Y-104721485D01*
X87090476Y-104721485D02*
X87090476Y-104388152D01*
X87090476Y-104388152D02*
X87138095Y-104197676D01*
X87138095Y-104197676D02*
X87233333Y-104102438D01*
X87233333Y-104102438D02*
X87328571Y-104054819D01*
X87328571Y-104054819D02*
X87519047Y-104054819D01*
X87519047Y-104054819D02*
X87614285Y-104102438D01*
X87614285Y-104102438D02*
X87709523Y-104197676D01*
X87709523Y-104197676D02*
X87757142Y-104388152D01*
X87757142Y-104388152D02*
X87757142Y-104721485D01*
X87757142Y-104721485D02*
X87709523Y-104911961D01*
X87709523Y-104911961D02*
X87614285Y-105007200D01*
X87614285Y-105007200D02*
X87519047Y-105054819D01*
X87519047Y-105054819D02*
X87328571Y-105054819D01*
X88661904Y-104054819D02*
X88185714Y-104054819D01*
X88185714Y-104054819D02*
X88138095Y-104531009D01*
X88138095Y-104531009D02*
X88185714Y-104483390D01*
X88185714Y-104483390D02*
X88280952Y-104435771D01*
X88280952Y-104435771D02*
X88519047Y-104435771D01*
X88519047Y-104435771D02*
X88614285Y-104483390D01*
X88614285Y-104483390D02*
X88661904Y-104531009D01*
X88661904Y-104531009D02*
X88709523Y-104626247D01*
X88709523Y-104626247D02*
X88709523Y-104864342D01*
X88709523Y-104864342D02*
X88661904Y-104959580D01*
X88661904Y-104959580D02*
X88614285Y-105007200D01*
X88614285Y-105007200D02*
X88519047Y-105054819D01*
X88519047Y-105054819D02*
X88280952Y-105054819D01*
X88280952Y-105054819D02*
X88185714Y-105007200D01*
X88185714Y-105007200D02*
X88138095Y-104959580D01*
D11*
%TO.C,TP5*%
X88440487Y-89250000D02*
G75*
G02*
X87040487Y-89250000I-700000J0D01*
G01*
X87040487Y-89250000D02*
G75*
G02*
X88440487Y-89250000I700000J0D01*
G01*
%TO.C,F2*%
X106975000Y-113800000D02*
X106975000Y-119800000D01*
X106975000Y-119800000D02*
X118975000Y-119800000D01*
X118975000Y-113800000D02*
X106975000Y-113800000D01*
X118975000Y-118800000D02*
X118975000Y-113800000D01*
X118975000Y-119800000D02*
X118975000Y-118800000D01*
D10*
%TO.C,U3*%
X68865487Y-86625000D02*
X68865487Y-86850000D01*
X68865487Y-86625000D02*
X69190487Y-86625000D01*
X68865487Y-93875000D02*
X68865487Y-93550000D01*
X68865487Y-93875000D02*
X69190487Y-93875000D01*
X76115487Y-86625000D02*
X75790487Y-86625000D01*
X76115487Y-86625000D02*
X76115487Y-86950000D01*
X76115487Y-93875000D02*
X75790487Y-93875000D01*
X76115487Y-93875000D02*
X76115487Y-93550000D01*
D11*
X68100487Y-86910000D02*
X67760487Y-86440000D01*
X68440487Y-86440000D01*
X68100487Y-86910000D01*
G36*
X68100487Y-86910000D02*
G01*
X67760487Y-86440000D01*
X68440487Y-86440000D01*
X68100487Y-86910000D01*
G37*
%TO.C,C30*%
X109976067Y-96145000D02*
X109694907Y-96145000D01*
X109976067Y-97165000D02*
X109694907Y-97165000D01*
%TO.C,TP4*%
X113300000Y-112500000D02*
G75*
G02*
X111900000Y-112500000I-700000J0D01*
G01*
X111900000Y-112500000D02*
G75*
G02*
X113300000Y-112500000I700000J0D01*
G01*
%TO.C,Q3*%
X79240487Y-96440000D02*
X78590487Y-96440000D01*
X79240487Y-96440000D02*
X79890487Y-96440000D01*
X79240487Y-99560000D02*
X78590487Y-99560000D01*
X79240487Y-99560000D02*
X79890487Y-99560000D01*
X80642987Y-99840000D02*
X80162987Y-99840000D01*
X80402987Y-99510000D01*
X80642987Y-99840000D01*
G36*
X80642987Y-99840000D02*
G01*
X80162987Y-99840000D01*
X80402987Y-99510000D01*
X80642987Y-99840000D01*
G37*
%TO.C,D9*%
X119140000Y-115350000D02*
X119140000Y-119650000D01*
X119140000Y-115350000D02*
X124950000Y-115350000D01*
X119140000Y-119650000D02*
X124950000Y-119650000D01*
%TO.C,R9*%
X97665000Y-84872936D02*
X97665000Y-85327064D01*
X99135000Y-84872936D02*
X99135000Y-85327064D01*
%TO.C,C22*%
X124849907Y-98690000D02*
X125131067Y-98690000D01*
X124849907Y-99710000D02*
X125131067Y-99710000D01*
%TO.C,U5*%
X117580487Y-102740000D02*
X117580487Y-102430000D01*
X117580487Y-106410000D02*
X117580487Y-105860000D01*
X118130487Y-102190000D02*
X117880487Y-102190000D01*
X118130487Y-106410000D02*
X117580487Y-106410000D01*
X121250487Y-102190000D02*
X121800487Y-102190000D01*
X121250487Y-106410000D02*
X121800487Y-106410000D01*
X121800487Y-102190000D02*
X121800487Y-102740000D01*
X121800487Y-106410000D02*
X121800487Y-105860000D01*
X117580487Y-102190000D02*
X117340487Y-101860000D01*
X117820487Y-101860000D01*
X117580487Y-102190000D01*
G36*
X117580487Y-102190000D02*
G01*
X117340487Y-101860000D01*
X117820487Y-101860000D01*
X117580487Y-102190000D01*
G37*
%TO.C,X1*%
X56215487Y-93860000D02*
X56215487Y-87610000D01*
X61265487Y-93860000D02*
X61265487Y-87610000D01*
X56215487Y-87610000D02*
G75*
G02*
X61265487Y-87610000I2525000J0D01*
G01*
X61265487Y-93860000D02*
G75*
G02*
X56215487Y-93860000I-2525000J0D01*
G01*
%TO.C,R17*%
X109992987Y-102927064D02*
X109992987Y-101472936D01*
X111812987Y-102927064D02*
X111812987Y-101472936D01*
%TO.C,C17*%
X72099907Y-81990000D02*
X72381067Y-81990000D01*
X72099907Y-83010000D02*
X72381067Y-83010000D01*
%TO.C,D5*%
X87090000Y-111250000D02*
X87090000Y-112950000D01*
X87090000Y-111250000D02*
X89750000Y-111250000D01*
X87090000Y-112950000D02*
X89750000Y-112950000D01*
%TO.C,C28*%
X129230487Y-92911252D02*
X129230487Y-91488748D01*
X131950487Y-92911252D02*
X131950487Y-91488748D01*
%TO.C,R18*%
X76967551Y-81765000D02*
X76513423Y-81765000D01*
X76967551Y-83235000D02*
X76513423Y-83235000D01*
%TO.C,J1*%
X131645000Y-81330000D02*
X131645000Y-78730000D01*
X131645000Y-83930000D02*
X131645000Y-82600000D01*
X132975000Y-83930000D02*
X131645000Y-83930000D01*
X134305000Y-78730000D02*
X131645000Y-78730000D01*
X134305000Y-81330000D02*
X131645000Y-81330000D01*
X134305000Y-81330000D02*
X134305000Y-78730000D01*
%TO.C,Q4*%
X71765487Y-98440000D02*
X71115487Y-98440000D01*
X71765487Y-98440000D02*
X72415487Y-98440000D01*
X71765487Y-101560000D02*
X71115487Y-101560000D01*
X71765487Y-101560000D02*
X72415487Y-101560000D01*
X70602987Y-98490000D02*
X70362987Y-98160000D01*
X70842987Y-98160000D01*
X70602987Y-98490000D01*
G36*
X70602987Y-98490000D02*
G01*
X70362987Y-98160000D01*
X70842987Y-98160000D01*
X70602987Y-98490000D01*
G37*
%TO.C,U2*%
X55870487Y-114250000D02*
X90870487Y-114250000D01*
X90870487Y-119250000D01*
X55870487Y-119250000D01*
X55870487Y-114250000D01*
X56870487Y-119250000D02*
X55870487Y-119250000D01*
X55870487Y-118250000D01*
X56870487Y-119250000D01*
G36*
X56870487Y-119250000D02*
G01*
X55870487Y-119250000D01*
X55870487Y-118250000D01*
X56870487Y-119250000D01*
G37*
%TO.C,R21*%
X125817551Y-104265000D02*
X125363423Y-104265000D01*
X125817551Y-105735000D02*
X125363423Y-105735000D01*
%TO.C,R24*%
X112155487Y-107372936D02*
X112155487Y-107827064D01*
X113625487Y-107372936D02*
X113625487Y-107827064D01*
%TO.C,Q10*%
X124905487Y-91312500D02*
X124905487Y-90662500D01*
X124905487Y-91312500D02*
X124905487Y-91962500D01*
X128025487Y-91312500D02*
X128025487Y-90662500D01*
X128025487Y-91312500D02*
X128025487Y-91962500D01*
X128305487Y-90390000D02*
X127975487Y-90150000D01*
X128305487Y-89910000D01*
X128305487Y-90390000D01*
G36*
X128305487Y-90390000D02*
G01*
X127975487Y-90150000D01*
X128305487Y-89910000D01*
X128305487Y-90390000D01*
G37*
%TO.C,C6*%
X106160000Y-82190000D02*
X103978000Y-82190000D01*
X106160000Y-82230000D02*
X103982000Y-82230000D01*
X106160000Y-82270000D02*
X103985000Y-82270000D01*
X106160000Y-82310000D02*
X103989000Y-82310000D01*
X106160000Y-82350000D02*
X103994000Y-82350000D01*
X106160000Y-82390000D02*
X103999000Y-82390000D01*
X106160000Y-82430000D02*
X104005000Y-82430000D01*
X106160000Y-82470000D02*
X104011000Y-82470000D01*
X106160000Y-82510000D02*
X104018000Y-82510000D01*
X106160000Y-82550000D02*
X104025000Y-82550000D01*
X106160000Y-82590000D02*
X104033000Y-82590000D01*
X106160000Y-82630000D02*
X104041000Y-82630000D01*
X106160000Y-82671000D02*
X104050000Y-82671000D01*
X106160000Y-82711000D02*
X104059000Y-82711000D01*
X106160000Y-82751000D02*
X104069000Y-82751000D01*
X106160000Y-82791000D02*
X104079000Y-82791000D01*
X106160000Y-82831000D02*
X104090000Y-82831000D01*
X106160000Y-82871000D02*
X104102000Y-82871000D01*
X106160000Y-82911000D02*
X104114000Y-82911000D01*
X106160000Y-82951000D02*
X104126000Y-82951000D01*
X106160000Y-82991000D02*
X104139000Y-82991000D01*
X106160000Y-83031000D02*
X104153000Y-83031000D01*
X106160000Y-83071000D02*
X104167000Y-83071000D01*
X106160000Y-83111000D02*
X104182000Y-83111000D01*
X106160000Y-83151000D02*
X104198000Y-83151000D01*
X106160000Y-83191000D02*
X104214000Y-83191000D01*
X106160000Y-83231000D02*
X104230000Y-83231000D01*
X106160000Y-83271000D02*
X104248000Y-83271000D01*
X106160000Y-83311000D02*
X104266000Y-83311000D01*
X106160000Y-83351000D02*
X104284000Y-83351000D01*
X106160000Y-83391000D02*
X104304000Y-83391000D01*
X106160000Y-83431000D02*
X104324000Y-83431000D01*
X106160000Y-83471000D02*
X104344000Y-83471000D01*
X106160000Y-83511000D02*
X104366000Y-83511000D01*
X106160000Y-83551000D02*
X104388000Y-83551000D01*
X106160000Y-83591000D02*
X104410000Y-83591000D01*
X106160000Y-83631000D02*
X104434000Y-83631000D01*
X106160000Y-83671000D02*
X104458000Y-83671000D01*
X106160000Y-83711000D02*
X104484000Y-83711000D01*
X106160000Y-83751000D02*
X104510000Y-83751000D01*
X106160000Y-83791000D02*
X104536000Y-83791000D01*
X106160000Y-83831000D02*
X104564000Y-83831000D01*
X106160000Y-83871000D02*
X104593000Y-83871000D01*
X106160000Y-83911000D02*
X104622000Y-83911000D01*
X106160000Y-83951000D02*
X104652000Y-83951000D01*
X106160000Y-83991000D02*
X104684000Y-83991000D01*
X106160000Y-84031000D02*
X104716000Y-84031000D01*
X106160000Y-84071000D02*
X104750000Y-84071000D01*
X106160000Y-84111000D02*
X104784000Y-84111000D01*
X106160000Y-84151000D02*
X104820000Y-84151000D01*
X106160000Y-84191000D02*
X104857000Y-84191000D01*
X106160000Y-84231000D02*
X104895000Y-84231000D01*
X107602000Y-85191000D02*
X106798000Y-85191000D01*
X107833000Y-85151000D02*
X106567000Y-85151000D01*
X108002000Y-85111000D02*
X106398000Y-85111000D01*
X108140000Y-85071000D02*
X106260000Y-85071000D01*
X108259000Y-85031000D02*
X106141000Y-85031000D01*
X108365000Y-84991000D02*
X106035000Y-84991000D01*
X108462000Y-84951000D02*
X105938000Y-84951000D01*
X108550000Y-84911000D02*
X105850000Y-84911000D01*
X108632000Y-84871000D02*
X105768000Y-84871000D01*
X108709000Y-84831000D02*
X105691000Y-84831000D01*
X108781000Y-84791000D02*
X105619000Y-84791000D01*
X108850000Y-84751000D02*
X105550000Y-84751000D01*
X108914000Y-84711000D02*
X105486000Y-84711000D01*
X108976000Y-84671000D02*
X105424000Y-84671000D01*
X109034000Y-84631000D02*
X105366000Y-84631000D01*
X109039000Y-78449759D02*
X109039000Y-79079759D01*
X109090000Y-84591000D02*
X105310000Y-84591000D01*
X109144000Y-84551000D02*
X105256000Y-84551000D01*
X109195000Y-84511000D02*
X105205000Y-84511000D01*
X109244000Y-84471000D02*
X105156000Y-84471000D01*
X109292000Y-84431000D02*
X105108000Y-84431000D01*
X109337000Y-84391000D02*
X105063000Y-84391000D01*
X109354000Y-78764759D02*
X108724000Y-78764759D01*
X109382000Y-84351000D02*
X105018000Y-84351000D01*
X109424000Y-84311000D02*
X104976000Y-84311000D01*
X109465000Y-84271000D02*
X104935000Y-84271000D01*
X109505000Y-84231000D02*
X108240000Y-84231000D01*
X109543000Y-84191000D02*
X108240000Y-84191000D01*
X109580000Y-84151000D02*
X108240000Y-84151000D01*
X109616000Y-84111000D02*
X108240000Y-84111000D01*
X109650000Y-84071000D02*
X108240000Y-84071000D01*
X109684000Y-84031000D02*
X108240000Y-84031000D01*
X109716000Y-83991000D02*
X108240000Y-83991000D01*
X109748000Y-83951000D02*
X108240000Y-83951000D01*
X109778000Y-83911000D02*
X108240000Y-83911000D01*
X109807000Y-83871000D02*
X108240000Y-83871000D01*
X109836000Y-83831000D02*
X108240000Y-83831000D01*
X109864000Y-83791000D02*
X108240000Y-83791000D01*
X109890000Y-83751000D02*
X108240000Y-83751000D01*
X109916000Y-83711000D02*
X108240000Y-83711000D01*
X109942000Y-83671000D02*
X108240000Y-83671000D01*
X109966000Y-83631000D02*
X108240000Y-83631000D01*
X109990000Y-83591000D02*
X108240000Y-83591000D01*
X110012000Y-83551000D02*
X108240000Y-83551000D01*
X110034000Y-83511000D02*
X108240000Y-83511000D01*
X110056000Y-83471000D02*
X108240000Y-83471000D01*
X110076000Y-83431000D02*
X108240000Y-83431000D01*
X110096000Y-83391000D02*
X108240000Y-83391000D01*
X110116000Y-83351000D02*
X108240000Y-83351000D01*
X110134000Y-83311000D02*
X108240000Y-83311000D01*
X110152000Y-83271000D02*
X108240000Y-83271000D01*
X110170000Y-83231000D02*
X108240000Y-83231000D01*
X110186000Y-83191000D02*
X108240000Y-83191000D01*
X110202000Y-83151000D02*
X108240000Y-83151000D01*
X110218000Y-83111000D02*
X108240000Y-83111000D01*
X110233000Y-83071000D02*
X108240000Y-83071000D01*
X110247000Y-83031000D02*
X108240000Y-83031000D01*
X110261000Y-82991000D02*
X108240000Y-82991000D01*
X110274000Y-82951000D02*
X108240000Y-82951000D01*
X110286000Y-82911000D02*
X108240000Y-82911000D01*
X110298000Y-82871000D02*
X108240000Y-82871000D01*
X110310000Y-82831000D02*
X108240000Y-82831000D01*
X110321000Y-82791000D02*
X108240000Y-82791000D01*
X110331000Y-82751000D02*
X108240000Y-82751000D01*
X110341000Y-82711000D02*
X108240000Y-82711000D01*
X110350000Y-82671000D02*
X108240000Y-82671000D01*
X110359000Y-82630000D02*
X108240000Y-82630000D01*
X110367000Y-82590000D02*
X108240000Y-82590000D01*
X110375000Y-82550000D02*
X108240000Y-82550000D01*
X110382000Y-82510000D02*
X108240000Y-82510000D01*
X110389000Y-82470000D02*
X108240000Y-82470000D01*
X110395000Y-82430000D02*
X108240000Y-82430000D01*
X110401000Y-82390000D02*
X108240000Y-82390000D01*
X110406000Y-82350000D02*
X108240000Y-82350000D01*
X110411000Y-82310000D02*
X108240000Y-82310000D01*
X110415000Y-82270000D02*
X108240000Y-82270000D01*
X110418000Y-82230000D02*
X108240000Y-82230000D01*
X110422000Y-82190000D02*
X108240000Y-82190000D01*
X110424000Y-82150000D02*
X103976000Y-82150000D01*
X110427000Y-82110000D02*
X103973000Y-82110000D01*
X110428000Y-82070000D02*
X103972000Y-82070000D01*
X110430000Y-81950000D02*
X103970000Y-81950000D01*
X110430000Y-81990000D02*
X103970000Y-81990000D01*
X110430000Y-82030000D02*
X103970000Y-82030000D01*
X110470000Y-81950000D02*
G75*
G02*
X103930000Y-81950000I-3270000J0D01*
G01*
X103930000Y-81950000D02*
G75*
G02*
X110470000Y-81950000I3270000J0D01*
G01*
%TO.C,C5*%
X113160000Y-82107621D02*
X110978000Y-82107621D01*
X113160000Y-82147621D02*
X110982000Y-82147621D01*
X113160000Y-82187621D02*
X110985000Y-82187621D01*
X113160000Y-82227621D02*
X110989000Y-82227621D01*
X113160000Y-82267621D02*
X110994000Y-82267621D01*
X113160000Y-82307621D02*
X110999000Y-82307621D01*
X113160000Y-82347621D02*
X111005000Y-82347621D01*
X113160000Y-82387621D02*
X111011000Y-82387621D01*
X113160000Y-82427621D02*
X111018000Y-82427621D01*
X113160000Y-82467621D02*
X111025000Y-82467621D01*
X113160000Y-82507621D02*
X111033000Y-82507621D01*
X113160000Y-82547621D02*
X111041000Y-82547621D01*
X113160000Y-82588621D02*
X111050000Y-82588621D01*
X113160000Y-82628621D02*
X111059000Y-82628621D01*
X113160000Y-82668621D02*
X111069000Y-82668621D01*
X113160000Y-82708621D02*
X111079000Y-82708621D01*
X113160000Y-82748621D02*
X111090000Y-82748621D01*
X113160000Y-82788621D02*
X111102000Y-82788621D01*
X113160000Y-82828621D02*
X111114000Y-82828621D01*
X113160000Y-82868621D02*
X111126000Y-82868621D01*
X113160000Y-82908621D02*
X111139000Y-82908621D01*
X113160000Y-82948621D02*
X111153000Y-82948621D01*
X113160000Y-82988621D02*
X111167000Y-82988621D01*
X113160000Y-83028621D02*
X111182000Y-83028621D01*
X113160000Y-83068621D02*
X111198000Y-83068621D01*
X113160000Y-83108621D02*
X111214000Y-83108621D01*
X113160000Y-83148621D02*
X111230000Y-83148621D01*
X113160000Y-83188621D02*
X111248000Y-83188621D01*
X113160000Y-83228621D02*
X111266000Y-83228621D01*
X113160000Y-83268621D02*
X111284000Y-83268621D01*
X113160000Y-83308621D02*
X111304000Y-83308621D01*
X113160000Y-83348621D02*
X111324000Y-83348621D01*
X113160000Y-83388621D02*
X111344000Y-83388621D01*
X113160000Y-83428621D02*
X111366000Y-83428621D01*
X113160000Y-83468621D02*
X111388000Y-83468621D01*
X113160000Y-83508621D02*
X111410000Y-83508621D01*
X113160000Y-83548621D02*
X111434000Y-83548621D01*
X113160000Y-83588621D02*
X111458000Y-83588621D01*
X113160000Y-83628621D02*
X111484000Y-83628621D01*
X113160000Y-83668621D02*
X111510000Y-83668621D01*
X113160000Y-83708621D02*
X111536000Y-83708621D01*
X113160000Y-83748621D02*
X111564000Y-83748621D01*
X113160000Y-83788621D02*
X111593000Y-83788621D01*
X113160000Y-83828621D02*
X111622000Y-83828621D01*
X113160000Y-83868621D02*
X111652000Y-83868621D01*
X113160000Y-83908621D02*
X111684000Y-83908621D01*
X113160000Y-83948621D02*
X111716000Y-83948621D01*
X113160000Y-83988621D02*
X111750000Y-83988621D01*
X113160000Y-84028621D02*
X111784000Y-84028621D01*
X113160000Y-84068621D02*
X111820000Y-84068621D01*
X113160000Y-84108621D02*
X111857000Y-84108621D01*
X113160000Y-84148621D02*
X111895000Y-84148621D01*
X114602000Y-85108621D02*
X113798000Y-85108621D01*
X114833000Y-85068621D02*
X113567000Y-85068621D01*
X115002000Y-85028621D02*
X113398000Y-85028621D01*
X115140000Y-84988621D02*
X113260000Y-84988621D01*
X115259000Y-84948621D02*
X113141000Y-84948621D01*
X115365000Y-84908621D02*
X113035000Y-84908621D01*
X115462000Y-84868621D02*
X112938000Y-84868621D01*
X115550000Y-84828621D02*
X112850000Y-84828621D01*
X115632000Y-84788621D02*
X112768000Y-84788621D01*
X115709000Y-84748621D02*
X112691000Y-84748621D01*
X115781000Y-84708621D02*
X112619000Y-84708621D01*
X115850000Y-84668621D02*
X112550000Y-84668621D01*
X115914000Y-84628621D02*
X112486000Y-84628621D01*
X115976000Y-84588621D02*
X112424000Y-84588621D01*
X116034000Y-84548621D02*
X112366000Y-84548621D01*
X116039000Y-78367380D02*
X116039000Y-78997380D01*
X116090000Y-84508621D02*
X112310000Y-84508621D01*
X116144000Y-84468621D02*
X112256000Y-84468621D01*
X116195000Y-84428621D02*
X112205000Y-84428621D01*
X116244000Y-84388621D02*
X112156000Y-84388621D01*
X116292000Y-84348621D02*
X112108000Y-84348621D01*
X116337000Y-84308621D02*
X112063000Y-84308621D01*
X116354000Y-78682380D02*
X115724000Y-78682380D01*
X116382000Y-84268621D02*
X112018000Y-84268621D01*
X116424000Y-84228621D02*
X111976000Y-84228621D01*
X116465000Y-84188621D02*
X111935000Y-84188621D01*
X116505000Y-84148621D02*
X115240000Y-84148621D01*
X116543000Y-84108621D02*
X115240000Y-84108621D01*
X116580000Y-84068621D02*
X115240000Y-84068621D01*
X116616000Y-84028621D02*
X115240000Y-84028621D01*
X116650000Y-83988621D02*
X115240000Y-83988621D01*
X116684000Y-83948621D02*
X115240000Y-83948621D01*
X116716000Y-83908621D02*
X115240000Y-83908621D01*
X116748000Y-83868621D02*
X115240000Y-83868621D01*
X116778000Y-83828621D02*
X115240000Y-83828621D01*
X116807000Y-83788621D02*
X115240000Y-83788621D01*
X116836000Y-83748621D02*
X115240000Y-83748621D01*
X116864000Y-83708621D02*
X115240000Y-83708621D01*
X116890000Y-83668621D02*
X115240000Y-83668621D01*
X116916000Y-83628621D02*
X115240000Y-83628621D01*
X116942000Y-83588621D02*
X115240000Y-83588621D01*
X116966000Y-83548621D02*
X115240000Y-83548621D01*
X116990000Y-83508621D02*
X115240000Y-83508621D01*
X117012000Y-83468621D02*
X115240000Y-83468621D01*
X117034000Y-83428621D02*
X115240000Y-83428621D01*
X117056000Y-83388621D02*
X115240000Y-83388621D01*
X117076000Y-83348621D02*
X115240000Y-83348621D01*
X117096000Y-83308621D02*
X115240000Y-83308621D01*
X117116000Y-83268621D02*
X115240000Y-83268621D01*
X117134000Y-83228621D02*
X115240000Y-83228621D01*
X117152000Y-83188621D02*
X115240000Y-83188621D01*
X117170000Y-83148621D02*
X115240000Y-83148621D01*
X117186000Y-83108621D02*
X115240000Y-83108621D01*
X117202000Y-83068621D02*
X115240000Y-83068621D01*
X117218000Y-83028621D02*
X115240000Y-83028621D01*
X117233000Y-82988621D02*
X115240000Y-82988621D01*
X117247000Y-82948621D02*
X115240000Y-82948621D01*
X117261000Y-82908621D02*
X115240000Y-82908621D01*
X117274000Y-82868621D02*
X115240000Y-82868621D01*
X117286000Y-82828621D02*
X115240000Y-82828621D01*
X117298000Y-82788621D02*
X115240000Y-82788621D01*
X117310000Y-82748621D02*
X115240000Y-82748621D01*
X117321000Y-82708621D02*
X115240000Y-82708621D01*
X117331000Y-82668621D02*
X115240000Y-82668621D01*
X117341000Y-82628621D02*
X115240000Y-82628621D01*
X117350000Y-82588621D02*
X115240000Y-82588621D01*
X117359000Y-82547621D02*
X115240000Y-82547621D01*
X117367000Y-82507621D02*
X115240000Y-82507621D01*
X117375000Y-82467621D02*
X115240000Y-82467621D01*
X117382000Y-82427621D02*
X115240000Y-82427621D01*
X117389000Y-82387621D02*
X115240000Y-82387621D01*
X117395000Y-82347621D02*
X115240000Y-82347621D01*
X117401000Y-82307621D02*
X115240000Y-82307621D01*
X117406000Y-82267621D02*
X115240000Y-82267621D01*
X117411000Y-82227621D02*
X115240000Y-82227621D01*
X117415000Y-82187621D02*
X115240000Y-82187621D01*
X117418000Y-82147621D02*
X115240000Y-82147621D01*
X117422000Y-82107621D02*
X115240000Y-82107621D01*
X117424000Y-82067621D02*
X110976000Y-82067621D01*
X117427000Y-82027621D02*
X110973000Y-82027621D01*
X117428000Y-81987621D02*
X110972000Y-81987621D01*
X117430000Y-81867621D02*
X110970000Y-81867621D01*
X117430000Y-81907621D02*
X110970000Y-81907621D01*
X117430000Y-81947621D02*
X110970000Y-81947621D01*
X117470000Y-81867621D02*
G75*
G02*
X110930000Y-81867621I-3270000J0D01*
G01*
X110930000Y-81867621D02*
G75*
G02*
X117470000Y-81867621I3270000J0D01*
G01*
%TO.C,Q9*%
X124955487Y-95937500D02*
X124955487Y-95287500D01*
X124955487Y-95937500D02*
X124955487Y-96587500D01*
X128075487Y-95937500D02*
X128075487Y-95287500D01*
X128075487Y-95937500D02*
X128075487Y-96587500D01*
X128355487Y-95015000D02*
X128025487Y-94775000D01*
X128355487Y-94535000D01*
X128355487Y-95015000D01*
G36*
X128355487Y-95015000D02*
G01*
X128025487Y-94775000D01*
X128355487Y-94535000D01*
X128355487Y-95015000D01*
G37*
%TO.C,C15*%
X80130487Y-80788748D02*
X80130487Y-82211252D01*
X82850487Y-80788748D02*
X82850487Y-82211252D01*
%TO.C,C11*%
X78530487Y-89940580D02*
X78530487Y-89659420D01*
X79550487Y-89940580D02*
X79550487Y-89659420D01*
%TO.C,TP3*%
X104000000Y-100300000D02*
G75*
G02*
X102600000Y-100300000I-700000J0D01*
G01*
X102600000Y-100300000D02*
G75*
G02*
X104000000Y-100300000I700000J0D01*
G01*
%TO.C,R6*%
X75255487Y-98972936D02*
X75255487Y-99427064D01*
X76725487Y-98972936D02*
X76725487Y-99427064D01*
%TO.C,U1*%
X56390487Y-104500000D02*
X68390487Y-104500000D01*
X68390487Y-111500000D01*
X56390487Y-111500000D01*
X56390487Y-104500000D01*
X59950487Y-111500000D02*
X64950487Y-111500000D01*
X64950487Y-110000000D01*
X59950487Y-110000000D01*
X59950487Y-111500000D01*
X57450487Y-111500000D02*
X56390487Y-111500000D01*
X56450487Y-110500000D01*
X57450487Y-111500000D01*
G36*
X57450487Y-111500000D02*
G01*
X56390487Y-111500000D01*
X56450487Y-110500000D01*
X57450487Y-111500000D01*
G37*
%TO.C,C21*%
X112292987Y-103240580D02*
X112292987Y-102959420D01*
X113312987Y-103240580D02*
X113312987Y-102959420D01*
%TO.C,D1*%
X94420487Y-97455000D02*
X94420487Y-97920000D01*
X94420487Y-100080000D02*
X94420487Y-100545000D01*
X94420487Y-97455170D02*
G75*
G02*
X99768302Y-97919173I2560000J-1544830D01*
G01*
X94725803Y-97920000D02*
G75*
G02*
X99234966Y-97919571I2254684J-1080000D01*
G01*
X99234966Y-100080429D02*
G75*
G02*
X94725803Y-100080000I-2254479J1080429D01*
G01*
X99768302Y-100080827D02*
G75*
G02*
X94420487Y-100544830I-2787815J1080827D01*
G01*
%TO.C,L1*%
X116265487Y-90350000D02*
X116265487Y-91850000D01*
X116265487Y-97150000D02*
X116265487Y-95650000D01*
X116265487Y-97150000D02*
X123665487Y-97150000D01*
X123665487Y-90350000D02*
X116265487Y-90350000D01*
X123665487Y-90350000D02*
X123665487Y-91850000D01*
X123665487Y-97150000D02*
X123665487Y-95650000D01*
%TO.C,R5*%
X98227064Y-93665000D02*
X97772936Y-93665000D01*
X98227064Y-95135000D02*
X97772936Y-95135000D01*
%TO.C,D6*%
X108212987Y-108950000D02*
X102702987Y-108950000D01*
X108212987Y-112250000D02*
X102702987Y-112250000D01*
X108212987Y-112250000D02*
X108212987Y-108950000D01*
D10*
%TO.C,RV1*%
X95950000Y-111700000D02*
X100450000Y-111700000D01*
X95950000Y-118700000D02*
X95950000Y-111700000D01*
X95950000Y-118700000D02*
X100450000Y-118700000D01*
X100450000Y-118700000D02*
X100450000Y-111700000D01*
D11*
%TO.C,U4*%
X84405487Y-81190000D02*
X85665487Y-81190000D01*
X84405487Y-84950000D02*
X84405487Y-81190000D01*
X91225487Y-81190000D02*
X89965487Y-81190000D01*
X91225487Y-84950000D02*
X91225487Y-81190000D01*
X84505487Y-86230000D02*
X84175487Y-86470000D01*
X84175487Y-85990000D01*
X84505487Y-86230000D01*
G36*
X84505487Y-86230000D02*
G01*
X84175487Y-86470000D01*
X84175487Y-85990000D01*
X84505487Y-86230000D01*
G37*
%TO.C,TP7*%
X94415487Y-117750000D02*
G75*
G02*
X93015487Y-117750000I-700000J0D01*
G01*
X93015487Y-117750000D02*
G75*
G02*
X94415487Y-117750000I700000J0D01*
G01*
%TO.C,R19*%
X76967551Y-79677500D02*
X76513423Y-79677500D01*
X76967551Y-81147500D02*
X76513423Y-81147500D01*
%TO.C,C13*%
X93529235Y-79140000D02*
X94951739Y-79140000D01*
X93529235Y-81860000D02*
X94951739Y-81860000D01*
%TO.C,R22*%
X110680051Y-109865000D02*
X110225923Y-109865000D01*
X110680051Y-111335000D02*
X110225923Y-111335000D01*
%TO.C,R10*%
X83502500Y-106772936D02*
X83502500Y-107227064D01*
X84972500Y-106772936D02*
X84972500Y-107227064D01*
%TO.C,D3*%
X76810000Y-104150000D02*
X74150000Y-104150000D01*
X76810000Y-105850000D02*
X74150000Y-105850000D01*
X76810000Y-105850000D02*
X76810000Y-104150000D01*
%TO.C,F1*%
X118000000Y-78400000D02*
X118000000Y-84400000D01*
X118000000Y-84400000D02*
X130000000Y-84400000D01*
X130000000Y-78400000D02*
X118000000Y-78400000D01*
X130000000Y-83400000D02*
X130000000Y-78400000D01*
X130000000Y-84400000D02*
X130000000Y-83400000D01*
%TO.C,R26*%
X110587551Y-93245000D02*
X109133423Y-93245000D01*
X110587551Y-95065000D02*
X109133423Y-95065000D01*
%TO.C,J2*%
X126980487Y-111440000D02*
X126980487Y-119060000D01*
X126980487Y-119060000D02*
X132950487Y-119060000D01*
X127740487Y-112200000D02*
X127740487Y-115250000D01*
X127740487Y-118300000D02*
X127740487Y-115250000D01*
X130690487Y-111450000D02*
X130690487Y-112200000D01*
X130690487Y-112200000D02*
X127740487Y-112200000D01*
X130690487Y-118300000D02*
X127740487Y-118300000D01*
X130690487Y-119050000D02*
X130690487Y-118300000D01*
X132190487Y-111450000D02*
X132190487Y-113250000D01*
X132190487Y-113250000D02*
X132940487Y-113250000D01*
X132190487Y-114750000D02*
X132190487Y-115750000D01*
X132190487Y-115750000D02*
X132940487Y-115750000D01*
X132190487Y-117250000D02*
X132190487Y-119050000D01*
X132190487Y-119050000D02*
X132940487Y-119050000D01*
X132940487Y-111450000D02*
X132190487Y-111450000D01*
X132940487Y-113250000D02*
X132940487Y-111450000D01*
X132940487Y-114750000D02*
X132190487Y-114750000D01*
X132940487Y-115750000D02*
X132940487Y-114750000D01*
X132940487Y-117250000D02*
X132190487Y-117250000D01*
X132940487Y-119050000D02*
X132940487Y-117250000D01*
X132950487Y-111440000D02*
X126980487Y-111440000D01*
X132950487Y-119060000D02*
X132950487Y-111440000D01*
X133240487Y-111150000D02*
X131990487Y-111150000D01*
X133240487Y-112400000D02*
X133240487Y-111150000D01*
%TO.C,D4*%
X76810000Y-106650000D02*
X74150000Y-106650000D01*
X76810000Y-108350000D02*
X74150000Y-108350000D01*
X76810000Y-108350000D02*
X76810000Y-106650000D01*
%TO.C,SW2*%
X82740487Y-97250000D02*
X82740487Y-97750000D01*
X82740487Y-97250000D02*
X89240487Y-97250000D01*
X82740487Y-100750000D02*
X82740487Y-100250000D01*
X82740487Y-100750000D02*
X89240487Y-100750000D01*
X83990487Y-99000000D02*
X85240487Y-99000000D01*
X85240487Y-98250000D02*
X86740487Y-98250000D01*
X85240487Y-98750000D02*
X85240487Y-99000000D01*
X85990487Y-97750000D02*
X85990487Y-98250000D01*
X86740487Y-99000000D02*
X86740487Y-98750000D01*
X87990487Y-99000000D02*
X86740487Y-99000000D01*
X89240487Y-97250000D02*
X89240487Y-97750000D01*
X89240487Y-100750000D02*
X89240487Y-100250000D01*
%TO.C,Q7*%
X102002987Y-104940000D02*
X101352987Y-104940000D01*
X102002987Y-104940000D02*
X102652987Y-104940000D01*
X102002987Y-108060000D02*
X101352987Y-108060000D01*
X102002987Y-108060000D02*
X102652987Y-108060000D01*
X103405487Y-108340000D02*
X102925487Y-108340000D01*
X103165487Y-108010000D01*
X103405487Y-108340000D01*
G36*
X103405487Y-108340000D02*
G01*
X102925487Y-108340000D01*
X103165487Y-108010000D01*
X103405487Y-108340000D01*
G37*
%TO.C,D2*%
X77690000Y-104150000D02*
X77690000Y-105850000D01*
X77690000Y-104150000D02*
X80350000Y-104150000D01*
X77690000Y-105850000D02*
X80350000Y-105850000D01*
%TO.C,Q8*%
X106302987Y-102940000D02*
X105652987Y-102940000D01*
X106302987Y-102940000D02*
X106952987Y-102940000D01*
X106302987Y-106060000D02*
X105652987Y-106060000D01*
X106302987Y-106060000D02*
X106952987Y-106060000D01*
X105140487Y-102990000D02*
X104900487Y-102660000D01*
X105380487Y-102660000D01*
X105140487Y-102990000D01*
G36*
X105140487Y-102990000D02*
G01*
X104900487Y-102660000D01*
X105380487Y-102660000D01*
X105140487Y-102990000D01*
G37*
%TO.C,Q6*%
X94700000Y-83640000D02*
X94050000Y-83640000D01*
X94700000Y-83640000D02*
X95350000Y-83640000D01*
X94700000Y-86760000D02*
X94050000Y-86760000D01*
X94700000Y-86760000D02*
X95350000Y-86760000D01*
X96102500Y-87040000D02*
X95622500Y-87040000D01*
X95862500Y-86710000D01*
X96102500Y-87040000D01*
G36*
X96102500Y-87040000D02*
G01*
X95622500Y-87040000D01*
X95862500Y-86710000D01*
X96102500Y-87040000D01*
G37*
%TO.C,TP8*%
X103300000Y-92900000D02*
G75*
G02*
X101900000Y-92900000I-700000J0D01*
G01*
X101900000Y-92900000D02*
G75*
G02*
X103300000Y-92900000I700000J0D01*
G01*
%TO.C,C10*%
X65530487Y-89190580D02*
X65530487Y-88909420D01*
X66550487Y-89190580D02*
X66550487Y-88909420D01*
%TO.C,R7*%
X72317551Y-102165000D02*
X71863423Y-102165000D01*
X72317551Y-103635000D02*
X71863423Y-103635000D01*
%TO.C,TP6*%
X116000000Y-106500000D02*
G75*
G02*
X114600000Y-106500000I-700000J0D01*
G01*
X114600000Y-106500000D02*
G75*
G02*
X116000000Y-106500000I700000J0D01*
G01*
%TO.C,R16*%
X72263423Y-79765000D02*
X72717551Y-79765000D01*
X72263423Y-81235000D02*
X72717551Y-81235000D01*
%TO.C,JP1*%
X115100000Y-110600000D02*
X117900000Y-110600000D01*
X115100000Y-112600000D02*
X115100000Y-110600000D01*
X117900000Y-110600000D02*
X117900000Y-112600000D01*
X117900000Y-112600000D02*
X115100000Y-112600000D01*
%TO.C,SW1*%
X61740487Y-97250000D02*
X61740487Y-97750000D01*
X61740487Y-97250000D02*
X68240487Y-97250000D01*
X61740487Y-100750000D02*
X61740487Y-100250000D01*
X61740487Y-100750000D02*
X68240487Y-100750000D01*
X62990487Y-99000000D02*
X64240487Y-99000000D01*
X64240487Y-98250000D02*
X65740487Y-98250000D01*
X64240487Y-98750000D02*
X64240487Y-99000000D01*
X64990487Y-97750000D02*
X64990487Y-98250000D01*
X65740487Y-99000000D02*
X65740487Y-98750000D01*
X66990487Y-99000000D02*
X65740487Y-99000000D01*
X68240487Y-97250000D02*
X68240487Y-97750000D01*
X68240487Y-100750000D02*
X68240487Y-100250000D01*
%TO.C,J3*%
X55790487Y-78670000D02*
X55790487Y-83870000D01*
X66010487Y-78670000D02*
X55790487Y-78670000D01*
X66010487Y-78670000D02*
X66010487Y-81270000D01*
X66010487Y-81270000D02*
X68610487Y-81270000D01*
X67280487Y-78670000D02*
X68610487Y-78670000D01*
X68610487Y-78670000D02*
X68610487Y-80000000D01*
X68610487Y-81270000D02*
X68610487Y-83870000D01*
X68610487Y-83870000D02*
X55790487Y-83870000D01*
%TO.C,R20*%
X125817551Y-102265000D02*
X125363423Y-102265000D01*
X125817551Y-103735000D02*
X125363423Y-103735000D01*
%TO.C,Q5*%
X87900000Y-105440000D02*
X87250000Y-105440000D01*
X87900000Y-105440000D02*
X88550000Y-105440000D01*
X87900000Y-108560000D02*
X87250000Y-108560000D01*
X87900000Y-108560000D02*
X88550000Y-108560000D01*
X86737500Y-105490000D02*
X86497500Y-105160000D01*
X86977500Y-105160000D01*
X86737500Y-105490000D01*
G36*
X86737500Y-105490000D02*
G01*
X86497500Y-105160000D01*
X86977500Y-105160000D01*
X86737500Y-105490000D01*
G37*
%TD*%
M02*
