%TF.GenerationSoftware,KiCad,Pcbnew,7.0.8-7.0.8~ubuntu22.04.1*%
%TF.CreationDate,2023-10-31T14:19:29+03:00*%
%TF.ProjectId,handle-module,68616e64-6c65-42d6-9d6f-64756c652e6b,rev?*%
%TF.SameCoordinates,Original*%
%TF.FileFunction,Legend,Top*%
%TF.FilePolarity,Positive*%
%FSLAX46Y46*%
G04 Gerber Fmt 4.6, Leading zero omitted, Abs format (unit mm)*
G04 Created by KiCad (PCBNEW 7.0.8-7.0.8~ubuntu22.04.1) date 2023-10-31 14:19:29*
%MOMM*%
%LPD*%
G01*
G04 APERTURE LIST*
%ADD10C,0.150000*%
%ADD11C,0.120000*%
G04 APERTURE END LIST*
D10*
X105500000Y-47250000D02*
X106750000Y-47250000D01*
X106750000Y-47250000D02*
X106750000Y-47500000D01*
X105500000Y-47250000D02*
X105500000Y-47500000D01*
X143838095Y-53754819D02*
X144409523Y-53754819D01*
X144123809Y-54754819D02*
X144123809Y-53754819D01*
X144742857Y-54754819D02*
X144742857Y-53754819D01*
X144742857Y-53754819D02*
X145123809Y-53754819D01*
X145123809Y-53754819D02*
X145219047Y-53802438D01*
X145219047Y-53802438D02*
X145266666Y-53850057D01*
X145266666Y-53850057D02*
X145314285Y-53945295D01*
X145314285Y-53945295D02*
X145314285Y-54088152D01*
X145314285Y-54088152D02*
X145266666Y-54183390D01*
X145266666Y-54183390D02*
X145219047Y-54231009D01*
X145219047Y-54231009D02*
X145123809Y-54278628D01*
X145123809Y-54278628D02*
X144742857Y-54278628D01*
X146266666Y-54754819D02*
X145695238Y-54754819D01*
X145980952Y-54754819D02*
X145980952Y-53754819D01*
X145980952Y-53754819D02*
X145885714Y-53897676D01*
X145885714Y-53897676D02*
X145790476Y-53992914D01*
X145790476Y-53992914D02*
X145695238Y-54040533D01*
X143857143Y-55054819D02*
X144190476Y-56054819D01*
X144190476Y-56054819D02*
X144523809Y-55054819D01*
X145190476Y-55531009D02*
X145333333Y-55578628D01*
X145333333Y-55578628D02*
X145380952Y-55626247D01*
X145380952Y-55626247D02*
X145428571Y-55721485D01*
X145428571Y-55721485D02*
X145428571Y-55864342D01*
X145428571Y-55864342D02*
X145380952Y-55959580D01*
X145380952Y-55959580D02*
X145333333Y-56007200D01*
X145333333Y-56007200D02*
X145238095Y-56054819D01*
X145238095Y-56054819D02*
X144857143Y-56054819D01*
X144857143Y-56054819D02*
X144857143Y-55054819D01*
X144857143Y-55054819D02*
X145190476Y-55054819D01*
X145190476Y-55054819D02*
X145285714Y-55102438D01*
X145285714Y-55102438D02*
X145333333Y-55150057D01*
X145333333Y-55150057D02*
X145380952Y-55245295D01*
X145380952Y-55245295D02*
X145380952Y-55340533D01*
X145380952Y-55340533D02*
X145333333Y-55435771D01*
X145333333Y-55435771D02*
X145285714Y-55483390D01*
X145285714Y-55483390D02*
X145190476Y-55531009D01*
X145190476Y-55531009D02*
X144857143Y-55531009D01*
X145809524Y-55769104D02*
X146285714Y-55769104D01*
X145714286Y-56054819D02*
X146047619Y-55054819D01*
X146047619Y-55054819D02*
X146380952Y-56054819D01*
X146571429Y-55054819D02*
X147142857Y-55054819D01*
X146857143Y-56054819D02*
X146857143Y-55054819D01*
X128438095Y-59154819D02*
X129009523Y-59154819D01*
X128723809Y-60154819D02*
X128723809Y-59154819D01*
X129342857Y-60154819D02*
X129342857Y-59154819D01*
X129342857Y-59154819D02*
X129723809Y-59154819D01*
X129723809Y-59154819D02*
X129819047Y-59202438D01*
X129819047Y-59202438D02*
X129866666Y-59250057D01*
X129866666Y-59250057D02*
X129914285Y-59345295D01*
X129914285Y-59345295D02*
X129914285Y-59488152D01*
X129914285Y-59488152D02*
X129866666Y-59583390D01*
X129866666Y-59583390D02*
X129819047Y-59631009D01*
X129819047Y-59631009D02*
X129723809Y-59678628D01*
X129723809Y-59678628D02*
X129342857Y-59678628D01*
X130247619Y-59154819D02*
X130866666Y-59154819D01*
X130866666Y-59154819D02*
X130533333Y-59535771D01*
X130533333Y-59535771D02*
X130676190Y-59535771D01*
X130676190Y-59535771D02*
X130771428Y-59583390D01*
X130771428Y-59583390D02*
X130819047Y-59631009D01*
X130819047Y-59631009D02*
X130866666Y-59726247D01*
X130866666Y-59726247D02*
X130866666Y-59964342D01*
X130866666Y-59964342D02*
X130819047Y-60059580D01*
X130819047Y-60059580D02*
X130771428Y-60107200D01*
X130771428Y-60107200D02*
X130676190Y-60154819D01*
X130676190Y-60154819D02*
X130390476Y-60154819D01*
X130390476Y-60154819D02*
X130295238Y-60107200D01*
X130295238Y-60107200D02*
X130247619Y-60059580D01*
X128214286Y-61073866D02*
X128976191Y-61073866D01*
X128595238Y-61454819D02*
X128595238Y-60692914D01*
X129928571Y-60454819D02*
X129452381Y-60454819D01*
X129452381Y-60454819D02*
X129404762Y-60931009D01*
X129404762Y-60931009D02*
X129452381Y-60883390D01*
X129452381Y-60883390D02*
X129547619Y-60835771D01*
X129547619Y-60835771D02*
X129785714Y-60835771D01*
X129785714Y-60835771D02*
X129880952Y-60883390D01*
X129880952Y-60883390D02*
X129928571Y-60931009D01*
X129928571Y-60931009D02*
X129976190Y-61026247D01*
X129976190Y-61026247D02*
X129976190Y-61264342D01*
X129976190Y-61264342D02*
X129928571Y-61359580D01*
X129928571Y-61359580D02*
X129880952Y-61407200D01*
X129880952Y-61407200D02*
X129785714Y-61454819D01*
X129785714Y-61454819D02*
X129547619Y-61454819D01*
X129547619Y-61454819D02*
X129452381Y-61407200D01*
X129452381Y-61407200D02*
X129404762Y-61359580D01*
X130261905Y-60454819D02*
X130595238Y-61454819D01*
X130595238Y-61454819D02*
X130928571Y-60454819D01*
X133857142Y-74354819D02*
X133523809Y-73878628D01*
X133285714Y-74354819D02*
X133285714Y-73354819D01*
X133285714Y-73354819D02*
X133666666Y-73354819D01*
X133666666Y-73354819D02*
X133761904Y-73402438D01*
X133761904Y-73402438D02*
X133809523Y-73450057D01*
X133809523Y-73450057D02*
X133857142Y-73545295D01*
X133857142Y-73545295D02*
X133857142Y-73688152D01*
X133857142Y-73688152D02*
X133809523Y-73783390D01*
X133809523Y-73783390D02*
X133761904Y-73831009D01*
X133761904Y-73831009D02*
X133666666Y-73878628D01*
X133666666Y-73878628D02*
X133285714Y-73878628D01*
X134809523Y-74354819D02*
X134238095Y-74354819D01*
X134523809Y-74354819D02*
X134523809Y-73354819D01*
X134523809Y-73354819D02*
X134428571Y-73497676D01*
X134428571Y-73497676D02*
X134333333Y-73592914D01*
X134333333Y-73592914D02*
X134238095Y-73640533D01*
X135190476Y-73450057D02*
X135238095Y-73402438D01*
X135238095Y-73402438D02*
X135333333Y-73354819D01*
X135333333Y-73354819D02*
X135571428Y-73354819D01*
X135571428Y-73354819D02*
X135666666Y-73402438D01*
X135666666Y-73402438D02*
X135714285Y-73450057D01*
X135714285Y-73450057D02*
X135761904Y-73545295D01*
X135761904Y-73545295D02*
X135761904Y-73640533D01*
X135761904Y-73640533D02*
X135714285Y-73783390D01*
X135714285Y-73783390D02*
X135142857Y-74354819D01*
X135142857Y-74354819D02*
X135761904Y-74354819D01*
X147166666Y-85931009D02*
X146833333Y-85931009D01*
X146833333Y-86454819D02*
X146833333Y-85454819D01*
X146833333Y-85454819D02*
X147309523Y-85454819D01*
X147642857Y-85550057D02*
X147690476Y-85502438D01*
X147690476Y-85502438D02*
X147785714Y-85454819D01*
X147785714Y-85454819D02*
X148023809Y-85454819D01*
X148023809Y-85454819D02*
X148119047Y-85502438D01*
X148119047Y-85502438D02*
X148166666Y-85550057D01*
X148166666Y-85550057D02*
X148214285Y-85645295D01*
X148214285Y-85645295D02*
X148214285Y-85740533D01*
X148214285Y-85740533D02*
X148166666Y-85883390D01*
X148166666Y-85883390D02*
X147595238Y-86454819D01*
X147595238Y-86454819D02*
X148214285Y-86454819D01*
X122338095Y-62254819D02*
X122338095Y-63064342D01*
X122338095Y-63064342D02*
X122385714Y-63159580D01*
X122385714Y-63159580D02*
X122433333Y-63207200D01*
X122433333Y-63207200D02*
X122528571Y-63254819D01*
X122528571Y-63254819D02*
X122719047Y-63254819D01*
X122719047Y-63254819D02*
X122814285Y-63207200D01*
X122814285Y-63207200D02*
X122861904Y-63159580D01*
X122861904Y-63159580D02*
X122909523Y-63064342D01*
X122909523Y-63064342D02*
X122909523Y-62254819D01*
X123861904Y-62254819D02*
X123385714Y-62254819D01*
X123385714Y-62254819D02*
X123338095Y-62731009D01*
X123338095Y-62731009D02*
X123385714Y-62683390D01*
X123385714Y-62683390D02*
X123480952Y-62635771D01*
X123480952Y-62635771D02*
X123719047Y-62635771D01*
X123719047Y-62635771D02*
X123814285Y-62683390D01*
X123814285Y-62683390D02*
X123861904Y-62731009D01*
X123861904Y-62731009D02*
X123909523Y-62826247D01*
X123909523Y-62826247D02*
X123909523Y-63064342D01*
X123909523Y-63064342D02*
X123861904Y-63159580D01*
X123861904Y-63159580D02*
X123814285Y-63207200D01*
X123814285Y-63207200D02*
X123719047Y-63254819D01*
X123719047Y-63254819D02*
X123480952Y-63254819D01*
X123480952Y-63254819D02*
X123385714Y-63207200D01*
X123385714Y-63207200D02*
X123338095Y-63159580D01*
X153202142Y-67444580D02*
X153154523Y-67492200D01*
X153154523Y-67492200D02*
X153011666Y-67539819D01*
X153011666Y-67539819D02*
X152916428Y-67539819D01*
X152916428Y-67539819D02*
X152773571Y-67492200D01*
X152773571Y-67492200D02*
X152678333Y-67396961D01*
X152678333Y-67396961D02*
X152630714Y-67301723D01*
X152630714Y-67301723D02*
X152583095Y-67111247D01*
X152583095Y-67111247D02*
X152583095Y-66968390D01*
X152583095Y-66968390D02*
X152630714Y-66777914D01*
X152630714Y-66777914D02*
X152678333Y-66682676D01*
X152678333Y-66682676D02*
X152773571Y-66587438D01*
X152773571Y-66587438D02*
X152916428Y-66539819D01*
X152916428Y-66539819D02*
X153011666Y-66539819D01*
X153011666Y-66539819D02*
X153154523Y-66587438D01*
X153154523Y-66587438D02*
X153202142Y-66635057D01*
X153535476Y-66539819D02*
X154154523Y-66539819D01*
X154154523Y-66539819D02*
X153821190Y-66920771D01*
X153821190Y-66920771D02*
X153964047Y-66920771D01*
X153964047Y-66920771D02*
X154059285Y-66968390D01*
X154059285Y-66968390D02*
X154106904Y-67016009D01*
X154106904Y-67016009D02*
X154154523Y-67111247D01*
X154154523Y-67111247D02*
X154154523Y-67349342D01*
X154154523Y-67349342D02*
X154106904Y-67444580D01*
X154106904Y-67444580D02*
X154059285Y-67492200D01*
X154059285Y-67492200D02*
X153964047Y-67539819D01*
X153964047Y-67539819D02*
X153678333Y-67539819D01*
X153678333Y-67539819D02*
X153583095Y-67492200D01*
X153583095Y-67492200D02*
X153535476Y-67444580D01*
X155011666Y-66873152D02*
X155011666Y-67539819D01*
X154773571Y-66492200D02*
X154535476Y-67206485D01*
X154535476Y-67206485D02*
X155154523Y-67206485D01*
X168985714Y-86354819D02*
X168985714Y-85354819D01*
X168985714Y-85354819D02*
X169223809Y-85354819D01*
X169223809Y-85354819D02*
X169366666Y-85402438D01*
X169366666Y-85402438D02*
X169461904Y-85497676D01*
X169461904Y-85497676D02*
X169509523Y-85592914D01*
X169509523Y-85592914D02*
X169557142Y-85783390D01*
X169557142Y-85783390D02*
X169557142Y-85926247D01*
X169557142Y-85926247D02*
X169509523Y-86116723D01*
X169509523Y-86116723D02*
X169461904Y-86211961D01*
X169461904Y-86211961D02*
X169366666Y-86307200D01*
X169366666Y-86307200D02*
X169223809Y-86354819D01*
X169223809Y-86354819D02*
X168985714Y-86354819D01*
X170509523Y-86354819D02*
X169938095Y-86354819D01*
X170223809Y-86354819D02*
X170223809Y-85354819D01*
X170223809Y-85354819D02*
X170128571Y-85497676D01*
X170128571Y-85497676D02*
X170033333Y-85592914D01*
X170033333Y-85592914D02*
X169938095Y-85640533D01*
X171128571Y-85354819D02*
X171223809Y-85354819D01*
X171223809Y-85354819D02*
X171319047Y-85402438D01*
X171319047Y-85402438D02*
X171366666Y-85450057D01*
X171366666Y-85450057D02*
X171414285Y-85545295D01*
X171414285Y-85545295D02*
X171461904Y-85735771D01*
X171461904Y-85735771D02*
X171461904Y-85973866D01*
X171461904Y-85973866D02*
X171414285Y-86164342D01*
X171414285Y-86164342D02*
X171366666Y-86259580D01*
X171366666Y-86259580D02*
X171319047Y-86307200D01*
X171319047Y-86307200D02*
X171223809Y-86354819D01*
X171223809Y-86354819D02*
X171128571Y-86354819D01*
X171128571Y-86354819D02*
X171033333Y-86307200D01*
X171033333Y-86307200D02*
X170985714Y-86259580D01*
X170985714Y-86259580D02*
X170938095Y-86164342D01*
X170938095Y-86164342D02*
X170890476Y-85973866D01*
X170890476Y-85973866D02*
X170890476Y-85735771D01*
X170890476Y-85735771D02*
X170938095Y-85545295D01*
X170938095Y-85545295D02*
X170985714Y-85450057D01*
X170985714Y-85450057D02*
X171033333Y-85402438D01*
X171033333Y-85402438D02*
X171128571Y-85354819D01*
X128461905Y-81454819D02*
X128461905Y-80454819D01*
X128461905Y-80454819D02*
X128700000Y-80454819D01*
X128700000Y-80454819D02*
X128842857Y-80502438D01*
X128842857Y-80502438D02*
X128938095Y-80597676D01*
X128938095Y-80597676D02*
X128985714Y-80692914D01*
X128985714Y-80692914D02*
X129033333Y-80883390D01*
X129033333Y-80883390D02*
X129033333Y-81026247D01*
X129033333Y-81026247D02*
X128985714Y-81216723D01*
X128985714Y-81216723D02*
X128938095Y-81311961D01*
X128938095Y-81311961D02*
X128842857Y-81407200D01*
X128842857Y-81407200D02*
X128700000Y-81454819D01*
X128700000Y-81454819D02*
X128461905Y-81454819D01*
X129890476Y-80454819D02*
X129700000Y-80454819D01*
X129700000Y-80454819D02*
X129604762Y-80502438D01*
X129604762Y-80502438D02*
X129557143Y-80550057D01*
X129557143Y-80550057D02*
X129461905Y-80692914D01*
X129461905Y-80692914D02*
X129414286Y-80883390D01*
X129414286Y-80883390D02*
X129414286Y-81264342D01*
X129414286Y-81264342D02*
X129461905Y-81359580D01*
X129461905Y-81359580D02*
X129509524Y-81407200D01*
X129509524Y-81407200D02*
X129604762Y-81454819D01*
X129604762Y-81454819D02*
X129795238Y-81454819D01*
X129795238Y-81454819D02*
X129890476Y-81407200D01*
X129890476Y-81407200D02*
X129938095Y-81359580D01*
X129938095Y-81359580D02*
X129985714Y-81264342D01*
X129985714Y-81264342D02*
X129985714Y-81026247D01*
X129985714Y-81026247D02*
X129938095Y-80931009D01*
X129938095Y-80931009D02*
X129890476Y-80883390D01*
X129890476Y-80883390D02*
X129795238Y-80835771D01*
X129795238Y-80835771D02*
X129604762Y-80835771D01*
X129604762Y-80835771D02*
X129509524Y-80883390D01*
X129509524Y-80883390D02*
X129461905Y-80931009D01*
X129461905Y-80931009D02*
X129414286Y-81026247D01*
X123154761Y-69950057D02*
X123059523Y-69902438D01*
X123059523Y-69902438D02*
X122964285Y-69807200D01*
X122964285Y-69807200D02*
X122821428Y-69664342D01*
X122821428Y-69664342D02*
X122726190Y-69616723D01*
X122726190Y-69616723D02*
X122630952Y-69616723D01*
X122678571Y-69854819D02*
X122583333Y-69807200D01*
X122583333Y-69807200D02*
X122488095Y-69711961D01*
X122488095Y-69711961D02*
X122440476Y-69521485D01*
X122440476Y-69521485D02*
X122440476Y-69188152D01*
X122440476Y-69188152D02*
X122488095Y-68997676D01*
X122488095Y-68997676D02*
X122583333Y-68902438D01*
X122583333Y-68902438D02*
X122678571Y-68854819D01*
X122678571Y-68854819D02*
X122869047Y-68854819D01*
X122869047Y-68854819D02*
X122964285Y-68902438D01*
X122964285Y-68902438D02*
X123059523Y-68997676D01*
X123059523Y-68997676D02*
X123107142Y-69188152D01*
X123107142Y-69188152D02*
X123107142Y-69521485D01*
X123107142Y-69521485D02*
X123059523Y-69711961D01*
X123059523Y-69711961D02*
X122964285Y-69807200D01*
X122964285Y-69807200D02*
X122869047Y-69854819D01*
X122869047Y-69854819D02*
X122678571Y-69854819D01*
X123440476Y-68854819D02*
X124059523Y-68854819D01*
X124059523Y-68854819D02*
X123726190Y-69235771D01*
X123726190Y-69235771D02*
X123869047Y-69235771D01*
X123869047Y-69235771D02*
X123964285Y-69283390D01*
X123964285Y-69283390D02*
X124011904Y-69331009D01*
X124011904Y-69331009D02*
X124059523Y-69426247D01*
X124059523Y-69426247D02*
X124059523Y-69664342D01*
X124059523Y-69664342D02*
X124011904Y-69759580D01*
X124011904Y-69759580D02*
X123964285Y-69807200D01*
X123964285Y-69807200D02*
X123869047Y-69854819D01*
X123869047Y-69854819D02*
X123583333Y-69854819D01*
X123583333Y-69854819D02*
X123488095Y-69807200D01*
X123488095Y-69807200D02*
X123440476Y-69759580D01*
X168961905Y-83554819D02*
X168961905Y-82554819D01*
X168961905Y-82554819D02*
X169200000Y-82554819D01*
X169200000Y-82554819D02*
X169342857Y-82602438D01*
X169342857Y-82602438D02*
X169438095Y-82697676D01*
X169438095Y-82697676D02*
X169485714Y-82792914D01*
X169485714Y-82792914D02*
X169533333Y-82983390D01*
X169533333Y-82983390D02*
X169533333Y-83126247D01*
X169533333Y-83126247D02*
X169485714Y-83316723D01*
X169485714Y-83316723D02*
X169438095Y-83411961D01*
X169438095Y-83411961D02*
X169342857Y-83507200D01*
X169342857Y-83507200D02*
X169200000Y-83554819D01*
X169200000Y-83554819D02*
X168961905Y-83554819D01*
X170009524Y-83554819D02*
X170200000Y-83554819D01*
X170200000Y-83554819D02*
X170295238Y-83507200D01*
X170295238Y-83507200D02*
X170342857Y-83459580D01*
X170342857Y-83459580D02*
X170438095Y-83316723D01*
X170438095Y-83316723D02*
X170485714Y-83126247D01*
X170485714Y-83126247D02*
X170485714Y-82745295D01*
X170485714Y-82745295D02*
X170438095Y-82650057D01*
X170438095Y-82650057D02*
X170390476Y-82602438D01*
X170390476Y-82602438D02*
X170295238Y-82554819D01*
X170295238Y-82554819D02*
X170104762Y-82554819D01*
X170104762Y-82554819D02*
X170009524Y-82602438D01*
X170009524Y-82602438D02*
X169961905Y-82650057D01*
X169961905Y-82650057D02*
X169914286Y-82745295D01*
X169914286Y-82745295D02*
X169914286Y-82983390D01*
X169914286Y-82983390D02*
X169961905Y-83078628D01*
X169961905Y-83078628D02*
X170009524Y-83126247D01*
X170009524Y-83126247D02*
X170104762Y-83173866D01*
X170104762Y-83173866D02*
X170295238Y-83173866D01*
X170295238Y-83173866D02*
X170390476Y-83126247D01*
X170390476Y-83126247D02*
X170438095Y-83078628D01*
X170438095Y-83078628D02*
X170485714Y-82983390D01*
X168257142Y-70059580D02*
X168209523Y-70107200D01*
X168209523Y-70107200D02*
X168066666Y-70154819D01*
X168066666Y-70154819D02*
X167971428Y-70154819D01*
X167971428Y-70154819D02*
X167828571Y-70107200D01*
X167828571Y-70107200D02*
X167733333Y-70011961D01*
X167733333Y-70011961D02*
X167685714Y-69916723D01*
X167685714Y-69916723D02*
X167638095Y-69726247D01*
X167638095Y-69726247D02*
X167638095Y-69583390D01*
X167638095Y-69583390D02*
X167685714Y-69392914D01*
X167685714Y-69392914D02*
X167733333Y-69297676D01*
X167733333Y-69297676D02*
X167828571Y-69202438D01*
X167828571Y-69202438D02*
X167971428Y-69154819D01*
X167971428Y-69154819D02*
X168066666Y-69154819D01*
X168066666Y-69154819D02*
X168209523Y-69202438D01*
X168209523Y-69202438D02*
X168257142Y-69250057D01*
X168638095Y-69250057D02*
X168685714Y-69202438D01*
X168685714Y-69202438D02*
X168780952Y-69154819D01*
X168780952Y-69154819D02*
X169019047Y-69154819D01*
X169019047Y-69154819D02*
X169114285Y-69202438D01*
X169114285Y-69202438D02*
X169161904Y-69250057D01*
X169161904Y-69250057D02*
X169209523Y-69345295D01*
X169209523Y-69345295D02*
X169209523Y-69440533D01*
X169209523Y-69440533D02*
X169161904Y-69583390D01*
X169161904Y-69583390D02*
X168590476Y-70154819D01*
X168590476Y-70154819D02*
X169209523Y-70154819D01*
X169590476Y-69250057D02*
X169638095Y-69202438D01*
X169638095Y-69202438D02*
X169733333Y-69154819D01*
X169733333Y-69154819D02*
X169971428Y-69154819D01*
X169971428Y-69154819D02*
X170066666Y-69202438D01*
X170066666Y-69202438D02*
X170114285Y-69250057D01*
X170114285Y-69250057D02*
X170161904Y-69345295D01*
X170161904Y-69345295D02*
X170161904Y-69440533D01*
X170161904Y-69440533D02*
X170114285Y-69583390D01*
X170114285Y-69583390D02*
X169542857Y-70154819D01*
X169542857Y-70154819D02*
X170161904Y-70154819D01*
X162938095Y-69434819D02*
X162938095Y-70244342D01*
X162938095Y-70244342D02*
X162985714Y-70339580D01*
X162985714Y-70339580D02*
X163033333Y-70387200D01*
X163033333Y-70387200D02*
X163128571Y-70434819D01*
X163128571Y-70434819D02*
X163319047Y-70434819D01*
X163319047Y-70434819D02*
X163414285Y-70387200D01*
X163414285Y-70387200D02*
X163461904Y-70339580D01*
X163461904Y-70339580D02*
X163509523Y-70244342D01*
X163509523Y-70244342D02*
X163509523Y-69434819D01*
X164414285Y-69434819D02*
X164223809Y-69434819D01*
X164223809Y-69434819D02*
X164128571Y-69482438D01*
X164128571Y-69482438D02*
X164080952Y-69530057D01*
X164080952Y-69530057D02*
X163985714Y-69672914D01*
X163985714Y-69672914D02*
X163938095Y-69863390D01*
X163938095Y-69863390D02*
X163938095Y-70244342D01*
X163938095Y-70244342D02*
X163985714Y-70339580D01*
X163985714Y-70339580D02*
X164033333Y-70387200D01*
X164033333Y-70387200D02*
X164128571Y-70434819D01*
X164128571Y-70434819D02*
X164319047Y-70434819D01*
X164319047Y-70434819D02*
X164414285Y-70387200D01*
X164414285Y-70387200D02*
X164461904Y-70339580D01*
X164461904Y-70339580D02*
X164509523Y-70244342D01*
X164509523Y-70244342D02*
X164509523Y-70006247D01*
X164509523Y-70006247D02*
X164461904Y-69911009D01*
X164461904Y-69911009D02*
X164414285Y-69863390D01*
X164414285Y-69863390D02*
X164319047Y-69815771D01*
X164319047Y-69815771D02*
X164128571Y-69815771D01*
X164128571Y-69815771D02*
X164033333Y-69863390D01*
X164033333Y-69863390D02*
X163985714Y-69911009D01*
X163985714Y-69911009D02*
X163938095Y-70006247D01*
X122257142Y-77854819D02*
X121923809Y-77378628D01*
X121685714Y-77854819D02*
X121685714Y-76854819D01*
X121685714Y-76854819D02*
X122066666Y-76854819D01*
X122066666Y-76854819D02*
X122161904Y-76902438D01*
X122161904Y-76902438D02*
X122209523Y-76950057D01*
X122209523Y-76950057D02*
X122257142Y-77045295D01*
X122257142Y-77045295D02*
X122257142Y-77188152D01*
X122257142Y-77188152D02*
X122209523Y-77283390D01*
X122209523Y-77283390D02*
X122161904Y-77331009D01*
X122161904Y-77331009D02*
X122066666Y-77378628D01*
X122066666Y-77378628D02*
X121685714Y-77378628D01*
X123209523Y-77854819D02*
X122638095Y-77854819D01*
X122923809Y-77854819D02*
X122923809Y-76854819D01*
X122923809Y-76854819D02*
X122828571Y-76997676D01*
X122828571Y-76997676D02*
X122733333Y-77092914D01*
X122733333Y-77092914D02*
X122638095Y-77140533D01*
X124066666Y-76854819D02*
X123876190Y-76854819D01*
X123876190Y-76854819D02*
X123780952Y-76902438D01*
X123780952Y-76902438D02*
X123733333Y-76950057D01*
X123733333Y-76950057D02*
X123638095Y-77092914D01*
X123638095Y-77092914D02*
X123590476Y-77283390D01*
X123590476Y-77283390D02*
X123590476Y-77664342D01*
X123590476Y-77664342D02*
X123638095Y-77759580D01*
X123638095Y-77759580D02*
X123685714Y-77807200D01*
X123685714Y-77807200D02*
X123780952Y-77854819D01*
X123780952Y-77854819D02*
X123971428Y-77854819D01*
X123971428Y-77854819D02*
X124066666Y-77807200D01*
X124066666Y-77807200D02*
X124114285Y-77759580D01*
X124114285Y-77759580D02*
X124161904Y-77664342D01*
X124161904Y-77664342D02*
X124161904Y-77426247D01*
X124161904Y-77426247D02*
X124114285Y-77331009D01*
X124114285Y-77331009D02*
X124066666Y-77283390D01*
X124066666Y-77283390D02*
X123971428Y-77235771D01*
X123971428Y-77235771D02*
X123780952Y-77235771D01*
X123780952Y-77235771D02*
X123685714Y-77283390D01*
X123685714Y-77283390D02*
X123638095Y-77331009D01*
X123638095Y-77331009D02*
X123590476Y-77426247D01*
X106090476Y-58854819D02*
X106757142Y-59854819D01*
X106757142Y-58854819D02*
X106090476Y-59854819D01*
X107661904Y-59854819D02*
X107090476Y-59854819D01*
X107376190Y-59854819D02*
X107376190Y-58854819D01*
X107376190Y-58854819D02*
X107280952Y-58997676D01*
X107280952Y-58997676D02*
X107185714Y-59092914D01*
X107185714Y-59092914D02*
X107090476Y-59140533D01*
X151657142Y-70054819D02*
X151323809Y-69578628D01*
X151085714Y-70054819D02*
X151085714Y-69054819D01*
X151085714Y-69054819D02*
X151466666Y-69054819D01*
X151466666Y-69054819D02*
X151561904Y-69102438D01*
X151561904Y-69102438D02*
X151609523Y-69150057D01*
X151609523Y-69150057D02*
X151657142Y-69245295D01*
X151657142Y-69245295D02*
X151657142Y-69388152D01*
X151657142Y-69388152D02*
X151609523Y-69483390D01*
X151609523Y-69483390D02*
X151561904Y-69531009D01*
X151561904Y-69531009D02*
X151466666Y-69578628D01*
X151466666Y-69578628D02*
X151085714Y-69578628D01*
X152609523Y-70054819D02*
X152038095Y-70054819D01*
X152323809Y-70054819D02*
X152323809Y-69054819D01*
X152323809Y-69054819D02*
X152228571Y-69197676D01*
X152228571Y-69197676D02*
X152133333Y-69292914D01*
X152133333Y-69292914D02*
X152038095Y-69340533D01*
X152942857Y-69054819D02*
X153609523Y-69054819D01*
X153609523Y-69054819D02*
X153180952Y-70054819D01*
X115557142Y-53259580D02*
X115509523Y-53307200D01*
X115509523Y-53307200D02*
X115366666Y-53354819D01*
X115366666Y-53354819D02*
X115271428Y-53354819D01*
X115271428Y-53354819D02*
X115128571Y-53307200D01*
X115128571Y-53307200D02*
X115033333Y-53211961D01*
X115033333Y-53211961D02*
X114985714Y-53116723D01*
X114985714Y-53116723D02*
X114938095Y-52926247D01*
X114938095Y-52926247D02*
X114938095Y-52783390D01*
X114938095Y-52783390D02*
X114985714Y-52592914D01*
X114985714Y-52592914D02*
X115033333Y-52497676D01*
X115033333Y-52497676D02*
X115128571Y-52402438D01*
X115128571Y-52402438D02*
X115271428Y-52354819D01*
X115271428Y-52354819D02*
X115366666Y-52354819D01*
X115366666Y-52354819D02*
X115509523Y-52402438D01*
X115509523Y-52402438D02*
X115557142Y-52450057D01*
X115938095Y-52450057D02*
X115985714Y-52402438D01*
X115985714Y-52402438D02*
X116080952Y-52354819D01*
X116080952Y-52354819D02*
X116319047Y-52354819D01*
X116319047Y-52354819D02*
X116414285Y-52402438D01*
X116414285Y-52402438D02*
X116461904Y-52450057D01*
X116461904Y-52450057D02*
X116509523Y-52545295D01*
X116509523Y-52545295D02*
X116509523Y-52640533D01*
X116509523Y-52640533D02*
X116461904Y-52783390D01*
X116461904Y-52783390D02*
X115890476Y-53354819D01*
X115890476Y-53354819D02*
X116509523Y-53354819D01*
X117366666Y-52688152D02*
X117366666Y-53354819D01*
X117128571Y-52307200D02*
X116890476Y-53021485D01*
X116890476Y-53021485D02*
X117509523Y-53021485D01*
X174057142Y-58559580D02*
X174009523Y-58607200D01*
X174009523Y-58607200D02*
X173866666Y-58654819D01*
X173866666Y-58654819D02*
X173771428Y-58654819D01*
X173771428Y-58654819D02*
X173628571Y-58607200D01*
X173628571Y-58607200D02*
X173533333Y-58511961D01*
X173533333Y-58511961D02*
X173485714Y-58416723D01*
X173485714Y-58416723D02*
X173438095Y-58226247D01*
X173438095Y-58226247D02*
X173438095Y-58083390D01*
X173438095Y-58083390D02*
X173485714Y-57892914D01*
X173485714Y-57892914D02*
X173533333Y-57797676D01*
X173533333Y-57797676D02*
X173628571Y-57702438D01*
X173628571Y-57702438D02*
X173771428Y-57654819D01*
X173771428Y-57654819D02*
X173866666Y-57654819D01*
X173866666Y-57654819D02*
X174009523Y-57702438D01*
X174009523Y-57702438D02*
X174057142Y-57750057D01*
X174390476Y-57654819D02*
X175009523Y-57654819D01*
X175009523Y-57654819D02*
X174676190Y-58035771D01*
X174676190Y-58035771D02*
X174819047Y-58035771D01*
X174819047Y-58035771D02*
X174914285Y-58083390D01*
X174914285Y-58083390D02*
X174961904Y-58131009D01*
X174961904Y-58131009D02*
X175009523Y-58226247D01*
X175009523Y-58226247D02*
X175009523Y-58464342D01*
X175009523Y-58464342D02*
X174961904Y-58559580D01*
X174961904Y-58559580D02*
X174914285Y-58607200D01*
X174914285Y-58607200D02*
X174819047Y-58654819D01*
X174819047Y-58654819D02*
X174533333Y-58654819D01*
X174533333Y-58654819D02*
X174438095Y-58607200D01*
X174438095Y-58607200D02*
X174390476Y-58559580D01*
X175961904Y-58654819D02*
X175390476Y-58654819D01*
X175676190Y-58654819D02*
X175676190Y-57654819D01*
X175676190Y-57654819D02*
X175580952Y-57797676D01*
X175580952Y-57797676D02*
X175485714Y-57892914D01*
X175485714Y-57892914D02*
X175390476Y-57940533D01*
X120107142Y-53604819D02*
X119773809Y-53128628D01*
X119535714Y-53604819D02*
X119535714Y-52604819D01*
X119535714Y-52604819D02*
X119916666Y-52604819D01*
X119916666Y-52604819D02*
X120011904Y-52652438D01*
X120011904Y-52652438D02*
X120059523Y-52700057D01*
X120059523Y-52700057D02*
X120107142Y-52795295D01*
X120107142Y-52795295D02*
X120107142Y-52938152D01*
X120107142Y-52938152D02*
X120059523Y-53033390D01*
X120059523Y-53033390D02*
X120011904Y-53081009D01*
X120011904Y-53081009D02*
X119916666Y-53128628D01*
X119916666Y-53128628D02*
X119535714Y-53128628D01*
X120488095Y-52700057D02*
X120535714Y-52652438D01*
X120535714Y-52652438D02*
X120630952Y-52604819D01*
X120630952Y-52604819D02*
X120869047Y-52604819D01*
X120869047Y-52604819D02*
X120964285Y-52652438D01*
X120964285Y-52652438D02*
X121011904Y-52700057D01*
X121011904Y-52700057D02*
X121059523Y-52795295D01*
X121059523Y-52795295D02*
X121059523Y-52890533D01*
X121059523Y-52890533D02*
X121011904Y-53033390D01*
X121011904Y-53033390D02*
X120440476Y-53604819D01*
X120440476Y-53604819D02*
X121059523Y-53604819D01*
X121964285Y-52604819D02*
X121488095Y-52604819D01*
X121488095Y-52604819D02*
X121440476Y-53081009D01*
X121440476Y-53081009D02*
X121488095Y-53033390D01*
X121488095Y-53033390D02*
X121583333Y-52985771D01*
X121583333Y-52985771D02*
X121821428Y-52985771D01*
X121821428Y-52985771D02*
X121916666Y-53033390D01*
X121916666Y-53033390D02*
X121964285Y-53081009D01*
X121964285Y-53081009D02*
X122011904Y-53176247D01*
X122011904Y-53176247D02*
X122011904Y-53414342D01*
X122011904Y-53414342D02*
X121964285Y-53509580D01*
X121964285Y-53509580D02*
X121916666Y-53557200D01*
X121916666Y-53557200D02*
X121821428Y-53604819D01*
X121821428Y-53604819D02*
X121583333Y-53604819D01*
X121583333Y-53604819D02*
X121488095Y-53557200D01*
X121488095Y-53557200D02*
X121440476Y-53509580D01*
X177666666Y-53654819D02*
X177666666Y-54369104D01*
X177666666Y-54369104D02*
X177619047Y-54511961D01*
X177619047Y-54511961D02*
X177523809Y-54607200D01*
X177523809Y-54607200D02*
X177380952Y-54654819D01*
X177380952Y-54654819D02*
X177285714Y-54654819D01*
X178666666Y-54654819D02*
X178095238Y-54654819D01*
X178380952Y-54654819D02*
X178380952Y-53654819D01*
X178380952Y-53654819D02*
X178285714Y-53797676D01*
X178285714Y-53797676D02*
X178190476Y-53892914D01*
X178190476Y-53892914D02*
X178095238Y-53940533D01*
X174219048Y-51773866D02*
X174980953Y-51773866D01*
X174600000Y-52154819D02*
X174600000Y-51392914D01*
X174285714Y-55669104D02*
X174761904Y-55669104D01*
X174190476Y-55954819D02*
X174523809Y-54954819D01*
X174523809Y-54954819D02*
X174857142Y-55954819D01*
X175619047Y-55907200D02*
X175523809Y-55954819D01*
X175523809Y-55954819D02*
X175333333Y-55954819D01*
X175333333Y-55954819D02*
X175238095Y-55907200D01*
X175238095Y-55907200D02*
X175190476Y-55859580D01*
X175190476Y-55859580D02*
X175142857Y-55764342D01*
X175142857Y-55764342D02*
X175142857Y-55478628D01*
X175142857Y-55478628D02*
X175190476Y-55383390D01*
X175190476Y-55383390D02*
X175238095Y-55335771D01*
X175238095Y-55335771D02*
X175333333Y-55288152D01*
X175333333Y-55288152D02*
X175523809Y-55288152D01*
X175523809Y-55288152D02*
X175619047Y-55335771D01*
X176476190Y-55907200D02*
X176380952Y-55954819D01*
X176380952Y-55954819D02*
X176190476Y-55954819D01*
X176190476Y-55954819D02*
X176095238Y-55907200D01*
X176095238Y-55907200D02*
X176047619Y-55859580D01*
X176047619Y-55859580D02*
X176000000Y-55764342D01*
X176000000Y-55764342D02*
X176000000Y-55478628D01*
X176000000Y-55478628D02*
X176047619Y-55383390D01*
X176047619Y-55383390D02*
X176095238Y-55335771D01*
X176095238Y-55335771D02*
X176190476Y-55288152D01*
X176190476Y-55288152D02*
X176380952Y-55288152D01*
X176380952Y-55288152D02*
X176476190Y-55335771D01*
X177333333Y-55288152D02*
X177333333Y-55954819D01*
X176904762Y-55288152D02*
X176904762Y-55811961D01*
X176904762Y-55811961D02*
X176952381Y-55907200D01*
X176952381Y-55907200D02*
X177047619Y-55954819D01*
X177047619Y-55954819D02*
X177190476Y-55954819D01*
X177190476Y-55954819D02*
X177285714Y-55907200D01*
X177285714Y-55907200D02*
X177333333Y-55859580D01*
X177809524Y-55954819D02*
X177809524Y-55288152D01*
X177809524Y-55383390D02*
X177857143Y-55335771D01*
X177857143Y-55335771D02*
X177952381Y-55288152D01*
X177952381Y-55288152D02*
X178095238Y-55288152D01*
X178095238Y-55288152D02*
X178190476Y-55335771D01*
X178190476Y-55335771D02*
X178238095Y-55431009D01*
X178238095Y-55431009D02*
X178238095Y-55954819D01*
X178238095Y-55431009D02*
X178285714Y-55335771D01*
X178285714Y-55335771D02*
X178380952Y-55288152D01*
X178380952Y-55288152D02*
X178523809Y-55288152D01*
X178523809Y-55288152D02*
X178619048Y-55335771D01*
X178619048Y-55335771D02*
X178666667Y-55431009D01*
X178666667Y-55431009D02*
X178666667Y-55954819D01*
X115661905Y-76954819D02*
X115661905Y-75954819D01*
X115661905Y-75954819D02*
X115900000Y-75954819D01*
X115900000Y-75954819D02*
X116042857Y-76002438D01*
X116042857Y-76002438D02*
X116138095Y-76097676D01*
X116138095Y-76097676D02*
X116185714Y-76192914D01*
X116185714Y-76192914D02*
X116233333Y-76383390D01*
X116233333Y-76383390D02*
X116233333Y-76526247D01*
X116233333Y-76526247D02*
X116185714Y-76716723D01*
X116185714Y-76716723D02*
X116138095Y-76811961D01*
X116138095Y-76811961D02*
X116042857Y-76907200D01*
X116042857Y-76907200D02*
X115900000Y-76954819D01*
X115900000Y-76954819D02*
X115661905Y-76954819D01*
X117138095Y-75954819D02*
X116661905Y-75954819D01*
X116661905Y-75954819D02*
X116614286Y-76431009D01*
X116614286Y-76431009D02*
X116661905Y-76383390D01*
X116661905Y-76383390D02*
X116757143Y-76335771D01*
X116757143Y-76335771D02*
X116995238Y-76335771D01*
X116995238Y-76335771D02*
X117090476Y-76383390D01*
X117090476Y-76383390D02*
X117138095Y-76431009D01*
X117138095Y-76431009D02*
X117185714Y-76526247D01*
X117185714Y-76526247D02*
X117185714Y-76764342D01*
X117185714Y-76764342D02*
X117138095Y-76859580D01*
X117138095Y-76859580D02*
X117090476Y-76907200D01*
X117090476Y-76907200D02*
X116995238Y-76954819D01*
X116995238Y-76954819D02*
X116757143Y-76954819D01*
X116757143Y-76954819D02*
X116661905Y-76907200D01*
X116661905Y-76907200D02*
X116614286Y-76859580D01*
X134057142Y-77754819D02*
X133723809Y-77278628D01*
X133485714Y-77754819D02*
X133485714Y-76754819D01*
X133485714Y-76754819D02*
X133866666Y-76754819D01*
X133866666Y-76754819D02*
X133961904Y-76802438D01*
X133961904Y-76802438D02*
X134009523Y-76850057D01*
X134009523Y-76850057D02*
X134057142Y-76945295D01*
X134057142Y-76945295D02*
X134057142Y-77088152D01*
X134057142Y-77088152D02*
X134009523Y-77183390D01*
X134009523Y-77183390D02*
X133961904Y-77231009D01*
X133961904Y-77231009D02*
X133866666Y-77278628D01*
X133866666Y-77278628D02*
X133485714Y-77278628D01*
X135009523Y-77754819D02*
X134438095Y-77754819D01*
X134723809Y-77754819D02*
X134723809Y-76754819D01*
X134723809Y-76754819D02*
X134628571Y-76897676D01*
X134628571Y-76897676D02*
X134533333Y-76992914D01*
X134533333Y-76992914D02*
X134438095Y-77040533D01*
X135961904Y-77754819D02*
X135390476Y-77754819D01*
X135676190Y-77754819D02*
X135676190Y-76754819D01*
X135676190Y-76754819D02*
X135580952Y-76897676D01*
X135580952Y-76897676D02*
X135485714Y-76992914D01*
X135485714Y-76992914D02*
X135390476Y-77040533D01*
X128557142Y-71959580D02*
X128509523Y-72007200D01*
X128509523Y-72007200D02*
X128366666Y-72054819D01*
X128366666Y-72054819D02*
X128271428Y-72054819D01*
X128271428Y-72054819D02*
X128128571Y-72007200D01*
X128128571Y-72007200D02*
X128033333Y-71911961D01*
X128033333Y-71911961D02*
X127985714Y-71816723D01*
X127985714Y-71816723D02*
X127938095Y-71626247D01*
X127938095Y-71626247D02*
X127938095Y-71483390D01*
X127938095Y-71483390D02*
X127985714Y-71292914D01*
X127985714Y-71292914D02*
X128033333Y-71197676D01*
X128033333Y-71197676D02*
X128128571Y-71102438D01*
X128128571Y-71102438D02*
X128271428Y-71054819D01*
X128271428Y-71054819D02*
X128366666Y-71054819D01*
X128366666Y-71054819D02*
X128509523Y-71102438D01*
X128509523Y-71102438D02*
X128557142Y-71150057D01*
X129509523Y-72054819D02*
X128938095Y-72054819D01*
X129223809Y-72054819D02*
X129223809Y-71054819D01*
X129223809Y-71054819D02*
X129128571Y-71197676D01*
X129128571Y-71197676D02*
X129033333Y-71292914D01*
X129033333Y-71292914D02*
X128938095Y-71340533D01*
X130414285Y-71054819D02*
X129938095Y-71054819D01*
X129938095Y-71054819D02*
X129890476Y-71531009D01*
X129890476Y-71531009D02*
X129938095Y-71483390D01*
X129938095Y-71483390D02*
X130033333Y-71435771D01*
X130033333Y-71435771D02*
X130271428Y-71435771D01*
X130271428Y-71435771D02*
X130366666Y-71483390D01*
X130366666Y-71483390D02*
X130414285Y-71531009D01*
X130414285Y-71531009D02*
X130461904Y-71626247D01*
X130461904Y-71626247D02*
X130461904Y-71864342D01*
X130461904Y-71864342D02*
X130414285Y-71959580D01*
X130414285Y-71959580D02*
X130366666Y-72007200D01*
X130366666Y-72007200D02*
X130271428Y-72054819D01*
X130271428Y-72054819D02*
X130033333Y-72054819D01*
X130033333Y-72054819D02*
X129938095Y-72007200D01*
X129938095Y-72007200D02*
X129890476Y-71959580D01*
X115679761Y-67150057D02*
X115584523Y-67102438D01*
X115584523Y-67102438D02*
X115489285Y-67007200D01*
X115489285Y-67007200D02*
X115346428Y-66864342D01*
X115346428Y-66864342D02*
X115251190Y-66816723D01*
X115251190Y-66816723D02*
X115155952Y-66816723D01*
X115203571Y-67054819D02*
X115108333Y-67007200D01*
X115108333Y-67007200D02*
X115013095Y-66911961D01*
X115013095Y-66911961D02*
X114965476Y-66721485D01*
X114965476Y-66721485D02*
X114965476Y-66388152D01*
X114965476Y-66388152D02*
X115013095Y-66197676D01*
X115013095Y-66197676D02*
X115108333Y-66102438D01*
X115108333Y-66102438D02*
X115203571Y-66054819D01*
X115203571Y-66054819D02*
X115394047Y-66054819D01*
X115394047Y-66054819D02*
X115489285Y-66102438D01*
X115489285Y-66102438D02*
X115584523Y-66197676D01*
X115584523Y-66197676D02*
X115632142Y-66388152D01*
X115632142Y-66388152D02*
X115632142Y-66721485D01*
X115632142Y-66721485D02*
X115584523Y-66911961D01*
X115584523Y-66911961D02*
X115489285Y-67007200D01*
X115489285Y-67007200D02*
X115394047Y-67054819D01*
X115394047Y-67054819D02*
X115203571Y-67054819D01*
X116489285Y-66388152D02*
X116489285Y-67054819D01*
X116251190Y-66007200D02*
X116013095Y-66721485D01*
X116013095Y-66721485D02*
X116632142Y-66721485D01*
X114338095Y-81354819D02*
X114338095Y-82164342D01*
X114338095Y-82164342D02*
X114385714Y-82259580D01*
X114385714Y-82259580D02*
X114433333Y-82307200D01*
X114433333Y-82307200D02*
X114528571Y-82354819D01*
X114528571Y-82354819D02*
X114719047Y-82354819D01*
X114719047Y-82354819D02*
X114814285Y-82307200D01*
X114814285Y-82307200D02*
X114861904Y-82259580D01*
X114861904Y-82259580D02*
X114909523Y-82164342D01*
X114909523Y-82164342D02*
X114909523Y-81354819D01*
X115338095Y-81450057D02*
X115385714Y-81402438D01*
X115385714Y-81402438D02*
X115480952Y-81354819D01*
X115480952Y-81354819D02*
X115719047Y-81354819D01*
X115719047Y-81354819D02*
X115814285Y-81402438D01*
X115814285Y-81402438D02*
X115861904Y-81450057D01*
X115861904Y-81450057D02*
X115909523Y-81545295D01*
X115909523Y-81545295D02*
X115909523Y-81640533D01*
X115909523Y-81640533D02*
X115861904Y-81783390D01*
X115861904Y-81783390D02*
X115290476Y-82354819D01*
X115290476Y-82354819D02*
X115909523Y-82354819D01*
X168857142Y-77954819D02*
X168523809Y-77478628D01*
X168285714Y-77954819D02*
X168285714Y-76954819D01*
X168285714Y-76954819D02*
X168666666Y-76954819D01*
X168666666Y-76954819D02*
X168761904Y-77002438D01*
X168761904Y-77002438D02*
X168809523Y-77050057D01*
X168809523Y-77050057D02*
X168857142Y-77145295D01*
X168857142Y-77145295D02*
X168857142Y-77288152D01*
X168857142Y-77288152D02*
X168809523Y-77383390D01*
X168809523Y-77383390D02*
X168761904Y-77431009D01*
X168761904Y-77431009D02*
X168666666Y-77478628D01*
X168666666Y-77478628D02*
X168285714Y-77478628D01*
X169238095Y-77050057D02*
X169285714Y-77002438D01*
X169285714Y-77002438D02*
X169380952Y-76954819D01*
X169380952Y-76954819D02*
X169619047Y-76954819D01*
X169619047Y-76954819D02*
X169714285Y-77002438D01*
X169714285Y-77002438D02*
X169761904Y-77050057D01*
X169761904Y-77050057D02*
X169809523Y-77145295D01*
X169809523Y-77145295D02*
X169809523Y-77240533D01*
X169809523Y-77240533D02*
X169761904Y-77383390D01*
X169761904Y-77383390D02*
X169190476Y-77954819D01*
X169190476Y-77954819D02*
X169809523Y-77954819D01*
X170428571Y-76954819D02*
X170523809Y-76954819D01*
X170523809Y-76954819D02*
X170619047Y-77002438D01*
X170619047Y-77002438D02*
X170666666Y-77050057D01*
X170666666Y-77050057D02*
X170714285Y-77145295D01*
X170714285Y-77145295D02*
X170761904Y-77335771D01*
X170761904Y-77335771D02*
X170761904Y-77573866D01*
X170761904Y-77573866D02*
X170714285Y-77764342D01*
X170714285Y-77764342D02*
X170666666Y-77859580D01*
X170666666Y-77859580D02*
X170619047Y-77907200D01*
X170619047Y-77907200D02*
X170523809Y-77954819D01*
X170523809Y-77954819D02*
X170428571Y-77954819D01*
X170428571Y-77954819D02*
X170333333Y-77907200D01*
X170333333Y-77907200D02*
X170285714Y-77859580D01*
X170285714Y-77859580D02*
X170238095Y-77764342D01*
X170238095Y-77764342D02*
X170190476Y-77573866D01*
X170190476Y-77573866D02*
X170190476Y-77335771D01*
X170190476Y-77335771D02*
X170238095Y-77145295D01*
X170238095Y-77145295D02*
X170285714Y-77050057D01*
X170285714Y-77050057D02*
X170333333Y-77002438D01*
X170333333Y-77002438D02*
X170428571Y-76954819D01*
X153557142Y-76554819D02*
X153223809Y-76078628D01*
X152985714Y-76554819D02*
X152985714Y-75554819D01*
X152985714Y-75554819D02*
X153366666Y-75554819D01*
X153366666Y-75554819D02*
X153461904Y-75602438D01*
X153461904Y-75602438D02*
X153509523Y-75650057D01*
X153509523Y-75650057D02*
X153557142Y-75745295D01*
X153557142Y-75745295D02*
X153557142Y-75888152D01*
X153557142Y-75888152D02*
X153509523Y-75983390D01*
X153509523Y-75983390D02*
X153461904Y-76031009D01*
X153461904Y-76031009D02*
X153366666Y-76078628D01*
X153366666Y-76078628D02*
X152985714Y-76078628D01*
X153938095Y-75650057D02*
X153985714Y-75602438D01*
X153985714Y-75602438D02*
X154080952Y-75554819D01*
X154080952Y-75554819D02*
X154319047Y-75554819D01*
X154319047Y-75554819D02*
X154414285Y-75602438D01*
X154414285Y-75602438D02*
X154461904Y-75650057D01*
X154461904Y-75650057D02*
X154509523Y-75745295D01*
X154509523Y-75745295D02*
X154509523Y-75840533D01*
X154509523Y-75840533D02*
X154461904Y-75983390D01*
X154461904Y-75983390D02*
X153890476Y-76554819D01*
X153890476Y-76554819D02*
X154509523Y-76554819D01*
X155461904Y-76554819D02*
X154890476Y-76554819D01*
X155176190Y-76554819D02*
X155176190Y-75554819D01*
X155176190Y-75554819D02*
X155080952Y-75697676D01*
X155080952Y-75697676D02*
X154985714Y-75792914D01*
X154985714Y-75792914D02*
X154890476Y-75840533D01*
X176457142Y-64859580D02*
X176409523Y-64907200D01*
X176409523Y-64907200D02*
X176266666Y-64954819D01*
X176266666Y-64954819D02*
X176171428Y-64954819D01*
X176171428Y-64954819D02*
X176028571Y-64907200D01*
X176028571Y-64907200D02*
X175933333Y-64811961D01*
X175933333Y-64811961D02*
X175885714Y-64716723D01*
X175885714Y-64716723D02*
X175838095Y-64526247D01*
X175838095Y-64526247D02*
X175838095Y-64383390D01*
X175838095Y-64383390D02*
X175885714Y-64192914D01*
X175885714Y-64192914D02*
X175933333Y-64097676D01*
X175933333Y-64097676D02*
X176028571Y-64002438D01*
X176028571Y-64002438D02*
X176171428Y-63954819D01*
X176171428Y-63954819D02*
X176266666Y-63954819D01*
X176266666Y-63954819D02*
X176409523Y-64002438D01*
X176409523Y-64002438D02*
X176457142Y-64050057D01*
X177409523Y-64954819D02*
X176838095Y-64954819D01*
X177123809Y-64954819D02*
X177123809Y-63954819D01*
X177123809Y-63954819D02*
X177028571Y-64097676D01*
X177028571Y-64097676D02*
X176933333Y-64192914D01*
X176933333Y-64192914D02*
X176838095Y-64240533D01*
X177742857Y-63954819D02*
X178361904Y-63954819D01*
X178361904Y-63954819D02*
X178028571Y-64335771D01*
X178028571Y-64335771D02*
X178171428Y-64335771D01*
X178171428Y-64335771D02*
X178266666Y-64383390D01*
X178266666Y-64383390D02*
X178314285Y-64431009D01*
X178314285Y-64431009D02*
X178361904Y-64526247D01*
X178361904Y-64526247D02*
X178361904Y-64764342D01*
X178361904Y-64764342D02*
X178314285Y-64859580D01*
X178314285Y-64859580D02*
X178266666Y-64907200D01*
X178266666Y-64907200D02*
X178171428Y-64954819D01*
X178171428Y-64954819D02*
X177885714Y-64954819D01*
X177885714Y-64954819D02*
X177790476Y-64907200D01*
X177790476Y-64907200D02*
X177742857Y-64859580D01*
X170404761Y-58250057D02*
X170309523Y-58202438D01*
X170309523Y-58202438D02*
X170214285Y-58107200D01*
X170214285Y-58107200D02*
X170071428Y-57964342D01*
X170071428Y-57964342D02*
X169976190Y-57916723D01*
X169976190Y-57916723D02*
X169880952Y-57916723D01*
X169928571Y-58154819D02*
X169833333Y-58107200D01*
X169833333Y-58107200D02*
X169738095Y-58011961D01*
X169738095Y-58011961D02*
X169690476Y-57821485D01*
X169690476Y-57821485D02*
X169690476Y-57488152D01*
X169690476Y-57488152D02*
X169738095Y-57297676D01*
X169738095Y-57297676D02*
X169833333Y-57202438D01*
X169833333Y-57202438D02*
X169928571Y-57154819D01*
X169928571Y-57154819D02*
X170119047Y-57154819D01*
X170119047Y-57154819D02*
X170214285Y-57202438D01*
X170214285Y-57202438D02*
X170309523Y-57297676D01*
X170309523Y-57297676D02*
X170357142Y-57488152D01*
X170357142Y-57488152D02*
X170357142Y-57821485D01*
X170357142Y-57821485D02*
X170309523Y-58011961D01*
X170309523Y-58011961D02*
X170214285Y-58107200D01*
X170214285Y-58107200D02*
X170119047Y-58154819D01*
X170119047Y-58154819D02*
X169928571Y-58154819D01*
X170833333Y-58154819D02*
X171023809Y-58154819D01*
X171023809Y-58154819D02*
X171119047Y-58107200D01*
X171119047Y-58107200D02*
X171166666Y-58059580D01*
X171166666Y-58059580D02*
X171261904Y-57916723D01*
X171261904Y-57916723D02*
X171309523Y-57726247D01*
X171309523Y-57726247D02*
X171309523Y-57345295D01*
X171309523Y-57345295D02*
X171261904Y-57250057D01*
X171261904Y-57250057D02*
X171214285Y-57202438D01*
X171214285Y-57202438D02*
X171119047Y-57154819D01*
X171119047Y-57154819D02*
X170928571Y-57154819D01*
X170928571Y-57154819D02*
X170833333Y-57202438D01*
X170833333Y-57202438D02*
X170785714Y-57250057D01*
X170785714Y-57250057D02*
X170738095Y-57345295D01*
X170738095Y-57345295D02*
X170738095Y-57583390D01*
X170738095Y-57583390D02*
X170785714Y-57678628D01*
X170785714Y-57678628D02*
X170833333Y-57726247D01*
X170833333Y-57726247D02*
X170928571Y-57773866D01*
X170928571Y-57773866D02*
X171119047Y-57773866D01*
X171119047Y-57773866D02*
X171214285Y-57726247D01*
X171214285Y-57726247D02*
X171261904Y-57678628D01*
X171261904Y-57678628D02*
X171309523Y-57583390D01*
X162233333Y-49459580D02*
X162185714Y-49507200D01*
X162185714Y-49507200D02*
X162042857Y-49554819D01*
X162042857Y-49554819D02*
X161947619Y-49554819D01*
X161947619Y-49554819D02*
X161804762Y-49507200D01*
X161804762Y-49507200D02*
X161709524Y-49411961D01*
X161709524Y-49411961D02*
X161661905Y-49316723D01*
X161661905Y-49316723D02*
X161614286Y-49126247D01*
X161614286Y-49126247D02*
X161614286Y-48983390D01*
X161614286Y-48983390D02*
X161661905Y-48792914D01*
X161661905Y-48792914D02*
X161709524Y-48697676D01*
X161709524Y-48697676D02*
X161804762Y-48602438D01*
X161804762Y-48602438D02*
X161947619Y-48554819D01*
X161947619Y-48554819D02*
X162042857Y-48554819D01*
X162042857Y-48554819D02*
X162185714Y-48602438D01*
X162185714Y-48602438D02*
X162233333Y-48650057D01*
X163090476Y-48554819D02*
X162900000Y-48554819D01*
X162900000Y-48554819D02*
X162804762Y-48602438D01*
X162804762Y-48602438D02*
X162757143Y-48650057D01*
X162757143Y-48650057D02*
X162661905Y-48792914D01*
X162661905Y-48792914D02*
X162614286Y-48983390D01*
X162614286Y-48983390D02*
X162614286Y-49364342D01*
X162614286Y-49364342D02*
X162661905Y-49459580D01*
X162661905Y-49459580D02*
X162709524Y-49507200D01*
X162709524Y-49507200D02*
X162804762Y-49554819D01*
X162804762Y-49554819D02*
X162995238Y-49554819D01*
X162995238Y-49554819D02*
X163090476Y-49507200D01*
X163090476Y-49507200D02*
X163138095Y-49459580D01*
X163138095Y-49459580D02*
X163185714Y-49364342D01*
X163185714Y-49364342D02*
X163185714Y-49126247D01*
X163185714Y-49126247D02*
X163138095Y-49031009D01*
X163138095Y-49031009D02*
X163090476Y-48983390D01*
X163090476Y-48983390D02*
X162995238Y-48935771D01*
X162995238Y-48935771D02*
X162804762Y-48935771D01*
X162804762Y-48935771D02*
X162709524Y-48983390D01*
X162709524Y-48983390D02*
X162661905Y-49031009D01*
X162661905Y-49031009D02*
X162614286Y-49126247D01*
X166433333Y-51059580D02*
X166385714Y-51107200D01*
X166385714Y-51107200D02*
X166242857Y-51154819D01*
X166242857Y-51154819D02*
X166147619Y-51154819D01*
X166147619Y-51154819D02*
X166004762Y-51107200D01*
X166004762Y-51107200D02*
X165909524Y-51011961D01*
X165909524Y-51011961D02*
X165861905Y-50916723D01*
X165861905Y-50916723D02*
X165814286Y-50726247D01*
X165814286Y-50726247D02*
X165814286Y-50583390D01*
X165814286Y-50583390D02*
X165861905Y-50392914D01*
X165861905Y-50392914D02*
X165909524Y-50297676D01*
X165909524Y-50297676D02*
X166004762Y-50202438D01*
X166004762Y-50202438D02*
X166147619Y-50154819D01*
X166147619Y-50154819D02*
X166242857Y-50154819D01*
X166242857Y-50154819D02*
X166385714Y-50202438D01*
X166385714Y-50202438D02*
X166433333Y-50250057D01*
X167338095Y-50154819D02*
X166861905Y-50154819D01*
X166861905Y-50154819D02*
X166814286Y-50631009D01*
X166814286Y-50631009D02*
X166861905Y-50583390D01*
X166861905Y-50583390D02*
X166957143Y-50535771D01*
X166957143Y-50535771D02*
X167195238Y-50535771D01*
X167195238Y-50535771D02*
X167290476Y-50583390D01*
X167290476Y-50583390D02*
X167338095Y-50631009D01*
X167338095Y-50631009D02*
X167385714Y-50726247D01*
X167385714Y-50726247D02*
X167385714Y-50964342D01*
X167385714Y-50964342D02*
X167338095Y-51059580D01*
X167338095Y-51059580D02*
X167290476Y-51107200D01*
X167290476Y-51107200D02*
X167195238Y-51154819D01*
X167195238Y-51154819D02*
X166957143Y-51154819D01*
X166957143Y-51154819D02*
X166861905Y-51107200D01*
X166861905Y-51107200D02*
X166814286Y-51059580D01*
X173304761Y-65150057D02*
X173209523Y-65102438D01*
X173209523Y-65102438D02*
X173114285Y-65007200D01*
X173114285Y-65007200D02*
X172971428Y-64864342D01*
X172971428Y-64864342D02*
X172876190Y-64816723D01*
X172876190Y-64816723D02*
X172780952Y-64816723D01*
X172828571Y-65054819D02*
X172733333Y-65007200D01*
X172733333Y-65007200D02*
X172638095Y-64911961D01*
X172638095Y-64911961D02*
X172590476Y-64721485D01*
X172590476Y-64721485D02*
X172590476Y-64388152D01*
X172590476Y-64388152D02*
X172638095Y-64197676D01*
X172638095Y-64197676D02*
X172733333Y-64102438D01*
X172733333Y-64102438D02*
X172828571Y-64054819D01*
X172828571Y-64054819D02*
X173019047Y-64054819D01*
X173019047Y-64054819D02*
X173114285Y-64102438D01*
X173114285Y-64102438D02*
X173209523Y-64197676D01*
X173209523Y-64197676D02*
X173257142Y-64388152D01*
X173257142Y-64388152D02*
X173257142Y-64721485D01*
X173257142Y-64721485D02*
X173209523Y-64911961D01*
X173209523Y-64911961D02*
X173114285Y-65007200D01*
X173114285Y-65007200D02*
X173019047Y-65054819D01*
X173019047Y-65054819D02*
X172828571Y-65054819D01*
X173828571Y-64483390D02*
X173733333Y-64435771D01*
X173733333Y-64435771D02*
X173685714Y-64388152D01*
X173685714Y-64388152D02*
X173638095Y-64292914D01*
X173638095Y-64292914D02*
X173638095Y-64245295D01*
X173638095Y-64245295D02*
X173685714Y-64150057D01*
X173685714Y-64150057D02*
X173733333Y-64102438D01*
X173733333Y-64102438D02*
X173828571Y-64054819D01*
X173828571Y-64054819D02*
X174019047Y-64054819D01*
X174019047Y-64054819D02*
X174114285Y-64102438D01*
X174114285Y-64102438D02*
X174161904Y-64150057D01*
X174161904Y-64150057D02*
X174209523Y-64245295D01*
X174209523Y-64245295D02*
X174209523Y-64292914D01*
X174209523Y-64292914D02*
X174161904Y-64388152D01*
X174161904Y-64388152D02*
X174114285Y-64435771D01*
X174114285Y-64435771D02*
X174019047Y-64483390D01*
X174019047Y-64483390D02*
X173828571Y-64483390D01*
X173828571Y-64483390D02*
X173733333Y-64531009D01*
X173733333Y-64531009D02*
X173685714Y-64578628D01*
X173685714Y-64578628D02*
X173638095Y-64673866D01*
X173638095Y-64673866D02*
X173638095Y-64864342D01*
X173638095Y-64864342D02*
X173685714Y-64959580D01*
X173685714Y-64959580D02*
X173733333Y-65007200D01*
X173733333Y-65007200D02*
X173828571Y-65054819D01*
X173828571Y-65054819D02*
X174019047Y-65054819D01*
X174019047Y-65054819D02*
X174114285Y-65007200D01*
X174114285Y-65007200D02*
X174161904Y-64959580D01*
X174161904Y-64959580D02*
X174209523Y-64864342D01*
X174209523Y-64864342D02*
X174209523Y-64673866D01*
X174209523Y-64673866D02*
X174161904Y-64578628D01*
X174161904Y-64578628D02*
X174114285Y-64531009D01*
X174114285Y-64531009D02*
X174019047Y-64483390D01*
X124757142Y-53959580D02*
X124709523Y-54007200D01*
X124709523Y-54007200D02*
X124566666Y-54054819D01*
X124566666Y-54054819D02*
X124471428Y-54054819D01*
X124471428Y-54054819D02*
X124328571Y-54007200D01*
X124328571Y-54007200D02*
X124233333Y-53911961D01*
X124233333Y-53911961D02*
X124185714Y-53816723D01*
X124185714Y-53816723D02*
X124138095Y-53626247D01*
X124138095Y-53626247D02*
X124138095Y-53483390D01*
X124138095Y-53483390D02*
X124185714Y-53292914D01*
X124185714Y-53292914D02*
X124233333Y-53197676D01*
X124233333Y-53197676D02*
X124328571Y-53102438D01*
X124328571Y-53102438D02*
X124471428Y-53054819D01*
X124471428Y-53054819D02*
X124566666Y-53054819D01*
X124566666Y-53054819D02*
X124709523Y-53102438D01*
X124709523Y-53102438D02*
X124757142Y-53150057D01*
X125709523Y-54054819D02*
X125138095Y-54054819D01*
X125423809Y-54054819D02*
X125423809Y-53054819D01*
X125423809Y-53054819D02*
X125328571Y-53197676D01*
X125328571Y-53197676D02*
X125233333Y-53292914D01*
X125233333Y-53292914D02*
X125138095Y-53340533D01*
X126185714Y-54054819D02*
X126376190Y-54054819D01*
X126376190Y-54054819D02*
X126471428Y-54007200D01*
X126471428Y-54007200D02*
X126519047Y-53959580D01*
X126519047Y-53959580D02*
X126614285Y-53816723D01*
X126614285Y-53816723D02*
X126661904Y-53626247D01*
X126661904Y-53626247D02*
X126661904Y-53245295D01*
X126661904Y-53245295D02*
X126614285Y-53150057D01*
X126614285Y-53150057D02*
X126566666Y-53102438D01*
X126566666Y-53102438D02*
X126471428Y-53054819D01*
X126471428Y-53054819D02*
X126280952Y-53054819D01*
X126280952Y-53054819D02*
X126185714Y-53102438D01*
X126185714Y-53102438D02*
X126138095Y-53150057D01*
X126138095Y-53150057D02*
X126090476Y-53245295D01*
X126090476Y-53245295D02*
X126090476Y-53483390D01*
X126090476Y-53483390D02*
X126138095Y-53578628D01*
X126138095Y-53578628D02*
X126185714Y-53626247D01*
X126185714Y-53626247D02*
X126280952Y-53673866D01*
X126280952Y-53673866D02*
X126471428Y-53673866D01*
X126471428Y-53673866D02*
X126566666Y-53626247D01*
X126566666Y-53626247D02*
X126614285Y-53578628D01*
X126614285Y-53578628D02*
X126661904Y-53483390D01*
X124957142Y-58959580D02*
X124909523Y-59007200D01*
X124909523Y-59007200D02*
X124766666Y-59054819D01*
X124766666Y-59054819D02*
X124671428Y-59054819D01*
X124671428Y-59054819D02*
X124528571Y-59007200D01*
X124528571Y-59007200D02*
X124433333Y-58911961D01*
X124433333Y-58911961D02*
X124385714Y-58816723D01*
X124385714Y-58816723D02*
X124338095Y-58626247D01*
X124338095Y-58626247D02*
X124338095Y-58483390D01*
X124338095Y-58483390D02*
X124385714Y-58292914D01*
X124385714Y-58292914D02*
X124433333Y-58197676D01*
X124433333Y-58197676D02*
X124528571Y-58102438D01*
X124528571Y-58102438D02*
X124671428Y-58054819D01*
X124671428Y-58054819D02*
X124766666Y-58054819D01*
X124766666Y-58054819D02*
X124909523Y-58102438D01*
X124909523Y-58102438D02*
X124957142Y-58150057D01*
X125909523Y-59054819D02*
X125338095Y-59054819D01*
X125623809Y-59054819D02*
X125623809Y-58054819D01*
X125623809Y-58054819D02*
X125528571Y-58197676D01*
X125528571Y-58197676D02*
X125433333Y-58292914D01*
X125433333Y-58292914D02*
X125338095Y-58340533D01*
X126766666Y-58054819D02*
X126576190Y-58054819D01*
X126576190Y-58054819D02*
X126480952Y-58102438D01*
X126480952Y-58102438D02*
X126433333Y-58150057D01*
X126433333Y-58150057D02*
X126338095Y-58292914D01*
X126338095Y-58292914D02*
X126290476Y-58483390D01*
X126290476Y-58483390D02*
X126290476Y-58864342D01*
X126290476Y-58864342D02*
X126338095Y-58959580D01*
X126338095Y-58959580D02*
X126385714Y-59007200D01*
X126385714Y-59007200D02*
X126480952Y-59054819D01*
X126480952Y-59054819D02*
X126671428Y-59054819D01*
X126671428Y-59054819D02*
X126766666Y-59007200D01*
X126766666Y-59007200D02*
X126814285Y-58959580D01*
X126814285Y-58959580D02*
X126861904Y-58864342D01*
X126861904Y-58864342D02*
X126861904Y-58626247D01*
X126861904Y-58626247D02*
X126814285Y-58531009D01*
X126814285Y-58531009D02*
X126766666Y-58483390D01*
X126766666Y-58483390D02*
X126671428Y-58435771D01*
X126671428Y-58435771D02*
X126480952Y-58435771D01*
X126480952Y-58435771D02*
X126385714Y-58483390D01*
X126385714Y-58483390D02*
X126338095Y-58531009D01*
X126338095Y-58531009D02*
X126290476Y-58626247D01*
X119833333Y-71254819D02*
X119500000Y-70778628D01*
X119261905Y-71254819D02*
X119261905Y-70254819D01*
X119261905Y-70254819D02*
X119642857Y-70254819D01*
X119642857Y-70254819D02*
X119738095Y-70302438D01*
X119738095Y-70302438D02*
X119785714Y-70350057D01*
X119785714Y-70350057D02*
X119833333Y-70445295D01*
X119833333Y-70445295D02*
X119833333Y-70588152D01*
X119833333Y-70588152D02*
X119785714Y-70683390D01*
X119785714Y-70683390D02*
X119738095Y-70731009D01*
X119738095Y-70731009D02*
X119642857Y-70778628D01*
X119642857Y-70778628D02*
X119261905Y-70778628D01*
X120690476Y-70254819D02*
X120500000Y-70254819D01*
X120500000Y-70254819D02*
X120404762Y-70302438D01*
X120404762Y-70302438D02*
X120357143Y-70350057D01*
X120357143Y-70350057D02*
X120261905Y-70492914D01*
X120261905Y-70492914D02*
X120214286Y-70683390D01*
X120214286Y-70683390D02*
X120214286Y-71064342D01*
X120214286Y-71064342D02*
X120261905Y-71159580D01*
X120261905Y-71159580D02*
X120309524Y-71207200D01*
X120309524Y-71207200D02*
X120404762Y-71254819D01*
X120404762Y-71254819D02*
X120595238Y-71254819D01*
X120595238Y-71254819D02*
X120690476Y-71207200D01*
X120690476Y-71207200D02*
X120738095Y-71159580D01*
X120738095Y-71159580D02*
X120785714Y-71064342D01*
X120785714Y-71064342D02*
X120785714Y-70826247D01*
X120785714Y-70826247D02*
X120738095Y-70731009D01*
X120738095Y-70731009D02*
X120690476Y-70683390D01*
X120690476Y-70683390D02*
X120595238Y-70635771D01*
X120595238Y-70635771D02*
X120404762Y-70635771D01*
X120404762Y-70635771D02*
X120309524Y-70683390D01*
X120309524Y-70683390D02*
X120261905Y-70731009D01*
X120261905Y-70731009D02*
X120214286Y-70826247D01*
X105658095Y-72054819D02*
X105658095Y-72864342D01*
X105658095Y-72864342D02*
X105705714Y-72959580D01*
X105705714Y-72959580D02*
X105753333Y-73007200D01*
X105753333Y-73007200D02*
X105848571Y-73054819D01*
X105848571Y-73054819D02*
X106039047Y-73054819D01*
X106039047Y-73054819D02*
X106134285Y-73007200D01*
X106134285Y-73007200D02*
X106181904Y-72959580D01*
X106181904Y-72959580D02*
X106229523Y-72864342D01*
X106229523Y-72864342D02*
X106229523Y-72054819D01*
X107229523Y-73054819D02*
X106658095Y-73054819D01*
X106943809Y-73054819D02*
X106943809Y-72054819D01*
X106943809Y-72054819D02*
X106848571Y-72197676D01*
X106848571Y-72197676D02*
X106753333Y-72292914D01*
X106753333Y-72292914D02*
X106658095Y-72340533D01*
X156666666Y-79854819D02*
X156666666Y-80569104D01*
X156666666Y-80569104D02*
X156619047Y-80711961D01*
X156619047Y-80711961D02*
X156523809Y-80807200D01*
X156523809Y-80807200D02*
X156380952Y-80854819D01*
X156380952Y-80854819D02*
X156285714Y-80854819D01*
X157142857Y-80854819D02*
X157142857Y-79854819D01*
X157142857Y-79854819D02*
X157523809Y-79854819D01*
X157523809Y-79854819D02*
X157619047Y-79902438D01*
X157619047Y-79902438D02*
X157666666Y-79950057D01*
X157666666Y-79950057D02*
X157714285Y-80045295D01*
X157714285Y-80045295D02*
X157714285Y-80188152D01*
X157714285Y-80188152D02*
X157666666Y-80283390D01*
X157666666Y-80283390D02*
X157619047Y-80331009D01*
X157619047Y-80331009D02*
X157523809Y-80378628D01*
X157523809Y-80378628D02*
X157142857Y-80378628D01*
X158666666Y-80854819D02*
X158095238Y-80854819D01*
X158380952Y-80854819D02*
X158380952Y-79854819D01*
X158380952Y-79854819D02*
X158285714Y-79997676D01*
X158285714Y-79997676D02*
X158190476Y-80092914D01*
X158190476Y-80092914D02*
X158095238Y-80140533D01*
X153823809Y-81769104D02*
X154299999Y-81769104D01*
X153728571Y-82054819D02*
X154061904Y-81054819D01*
X154061904Y-81054819D02*
X154395237Y-82054819D01*
X155299999Y-81959580D02*
X155252380Y-82007200D01*
X155252380Y-82007200D02*
X155109523Y-82054819D01*
X155109523Y-82054819D02*
X155014285Y-82054819D01*
X155014285Y-82054819D02*
X154871428Y-82007200D01*
X154871428Y-82007200D02*
X154776190Y-81911961D01*
X154776190Y-81911961D02*
X154728571Y-81816723D01*
X154728571Y-81816723D02*
X154680952Y-81626247D01*
X154680952Y-81626247D02*
X154680952Y-81483390D01*
X154680952Y-81483390D02*
X154728571Y-81292914D01*
X154728571Y-81292914D02*
X154776190Y-81197676D01*
X154776190Y-81197676D02*
X154871428Y-81102438D01*
X154871428Y-81102438D02*
X155014285Y-81054819D01*
X155014285Y-81054819D02*
X155109523Y-81054819D01*
X155109523Y-81054819D02*
X155252380Y-81102438D01*
X155252380Y-81102438D02*
X155299999Y-81150057D01*
X156490476Y-82054819D02*
X156490476Y-81054819D01*
X156490476Y-81054819D02*
X156728571Y-81054819D01*
X156728571Y-81054819D02*
X156871428Y-81102438D01*
X156871428Y-81102438D02*
X156966666Y-81197676D01*
X156966666Y-81197676D02*
X157014285Y-81292914D01*
X157014285Y-81292914D02*
X157061904Y-81483390D01*
X157061904Y-81483390D02*
X157061904Y-81626247D01*
X157061904Y-81626247D02*
X157014285Y-81816723D01*
X157014285Y-81816723D02*
X156966666Y-81911961D01*
X156966666Y-81911961D02*
X156871428Y-82007200D01*
X156871428Y-82007200D02*
X156728571Y-82054819D01*
X156728571Y-82054819D02*
X156490476Y-82054819D01*
X157871428Y-82007200D02*
X157776190Y-82054819D01*
X157776190Y-82054819D02*
X157585714Y-82054819D01*
X157585714Y-82054819D02*
X157490476Y-82007200D01*
X157490476Y-82007200D02*
X157442857Y-81911961D01*
X157442857Y-81911961D02*
X157442857Y-81531009D01*
X157442857Y-81531009D02*
X157490476Y-81435771D01*
X157490476Y-81435771D02*
X157585714Y-81388152D01*
X157585714Y-81388152D02*
X157776190Y-81388152D01*
X157776190Y-81388152D02*
X157871428Y-81435771D01*
X157871428Y-81435771D02*
X157919047Y-81531009D01*
X157919047Y-81531009D02*
X157919047Y-81626247D01*
X157919047Y-81626247D02*
X157442857Y-81721485D01*
X158204762Y-81388152D02*
X158585714Y-81388152D01*
X158347619Y-81054819D02*
X158347619Y-81911961D01*
X158347619Y-81911961D02*
X158395238Y-82007200D01*
X158395238Y-82007200D02*
X158490476Y-82054819D01*
X158490476Y-82054819D02*
X158585714Y-82054819D01*
X159300000Y-82007200D02*
X159204762Y-82054819D01*
X159204762Y-82054819D02*
X159014286Y-82054819D01*
X159014286Y-82054819D02*
X158919048Y-82007200D01*
X158919048Y-82007200D02*
X158871429Y-81911961D01*
X158871429Y-81911961D02*
X158871429Y-81531009D01*
X158871429Y-81531009D02*
X158919048Y-81435771D01*
X158919048Y-81435771D02*
X159014286Y-81388152D01*
X159014286Y-81388152D02*
X159204762Y-81388152D01*
X159204762Y-81388152D02*
X159300000Y-81435771D01*
X159300000Y-81435771D02*
X159347619Y-81531009D01*
X159347619Y-81531009D02*
X159347619Y-81626247D01*
X159347619Y-81626247D02*
X158871429Y-81721485D01*
X160204762Y-82007200D02*
X160109524Y-82054819D01*
X160109524Y-82054819D02*
X159919048Y-82054819D01*
X159919048Y-82054819D02*
X159823810Y-82007200D01*
X159823810Y-82007200D02*
X159776191Y-81959580D01*
X159776191Y-81959580D02*
X159728572Y-81864342D01*
X159728572Y-81864342D02*
X159728572Y-81578628D01*
X159728572Y-81578628D02*
X159776191Y-81483390D01*
X159776191Y-81483390D02*
X159823810Y-81435771D01*
X159823810Y-81435771D02*
X159919048Y-81388152D01*
X159919048Y-81388152D02*
X160109524Y-81388152D01*
X160109524Y-81388152D02*
X160204762Y-81435771D01*
X160490477Y-81388152D02*
X160871429Y-81388152D01*
X160633334Y-81054819D02*
X160633334Y-81911961D01*
X160633334Y-81911961D02*
X160680953Y-82007200D01*
X160680953Y-82007200D02*
X160776191Y-82054819D01*
X160776191Y-82054819D02*
X160871429Y-82054819D01*
X156857142Y-70159580D02*
X156809523Y-70207200D01*
X156809523Y-70207200D02*
X156666666Y-70254819D01*
X156666666Y-70254819D02*
X156571428Y-70254819D01*
X156571428Y-70254819D02*
X156428571Y-70207200D01*
X156428571Y-70207200D02*
X156333333Y-70111961D01*
X156333333Y-70111961D02*
X156285714Y-70016723D01*
X156285714Y-70016723D02*
X156238095Y-69826247D01*
X156238095Y-69826247D02*
X156238095Y-69683390D01*
X156238095Y-69683390D02*
X156285714Y-69492914D01*
X156285714Y-69492914D02*
X156333333Y-69397676D01*
X156333333Y-69397676D02*
X156428571Y-69302438D01*
X156428571Y-69302438D02*
X156571428Y-69254819D01*
X156571428Y-69254819D02*
X156666666Y-69254819D01*
X156666666Y-69254819D02*
X156809523Y-69302438D01*
X156809523Y-69302438D02*
X156857142Y-69350057D01*
X157238095Y-69350057D02*
X157285714Y-69302438D01*
X157285714Y-69302438D02*
X157380952Y-69254819D01*
X157380952Y-69254819D02*
X157619047Y-69254819D01*
X157619047Y-69254819D02*
X157714285Y-69302438D01*
X157714285Y-69302438D02*
X157761904Y-69350057D01*
X157761904Y-69350057D02*
X157809523Y-69445295D01*
X157809523Y-69445295D02*
X157809523Y-69540533D01*
X157809523Y-69540533D02*
X157761904Y-69683390D01*
X157761904Y-69683390D02*
X157190476Y-70254819D01*
X157190476Y-70254819D02*
X157809523Y-70254819D01*
X158761904Y-70254819D02*
X158190476Y-70254819D01*
X158476190Y-70254819D02*
X158476190Y-69254819D01*
X158476190Y-69254819D02*
X158380952Y-69397676D01*
X158380952Y-69397676D02*
X158285714Y-69492914D01*
X158285714Y-69492914D02*
X158190476Y-69540533D01*
X169657142Y-80459580D02*
X169609523Y-80507200D01*
X169609523Y-80507200D02*
X169466666Y-80554819D01*
X169466666Y-80554819D02*
X169371428Y-80554819D01*
X169371428Y-80554819D02*
X169228571Y-80507200D01*
X169228571Y-80507200D02*
X169133333Y-80411961D01*
X169133333Y-80411961D02*
X169085714Y-80316723D01*
X169085714Y-80316723D02*
X169038095Y-80126247D01*
X169038095Y-80126247D02*
X169038095Y-79983390D01*
X169038095Y-79983390D02*
X169085714Y-79792914D01*
X169085714Y-79792914D02*
X169133333Y-79697676D01*
X169133333Y-79697676D02*
X169228571Y-79602438D01*
X169228571Y-79602438D02*
X169371428Y-79554819D01*
X169371428Y-79554819D02*
X169466666Y-79554819D01*
X169466666Y-79554819D02*
X169609523Y-79602438D01*
X169609523Y-79602438D02*
X169657142Y-79650057D01*
X170609523Y-80554819D02*
X170038095Y-80554819D01*
X170323809Y-80554819D02*
X170323809Y-79554819D01*
X170323809Y-79554819D02*
X170228571Y-79697676D01*
X170228571Y-79697676D02*
X170133333Y-79792914D01*
X170133333Y-79792914D02*
X170038095Y-79840533D01*
X171180952Y-79983390D02*
X171085714Y-79935771D01*
X171085714Y-79935771D02*
X171038095Y-79888152D01*
X171038095Y-79888152D02*
X170990476Y-79792914D01*
X170990476Y-79792914D02*
X170990476Y-79745295D01*
X170990476Y-79745295D02*
X171038095Y-79650057D01*
X171038095Y-79650057D02*
X171085714Y-79602438D01*
X171085714Y-79602438D02*
X171180952Y-79554819D01*
X171180952Y-79554819D02*
X171371428Y-79554819D01*
X171371428Y-79554819D02*
X171466666Y-79602438D01*
X171466666Y-79602438D02*
X171514285Y-79650057D01*
X171514285Y-79650057D02*
X171561904Y-79745295D01*
X171561904Y-79745295D02*
X171561904Y-79792914D01*
X171561904Y-79792914D02*
X171514285Y-79888152D01*
X171514285Y-79888152D02*
X171466666Y-79935771D01*
X171466666Y-79935771D02*
X171371428Y-79983390D01*
X171371428Y-79983390D02*
X171180952Y-79983390D01*
X171180952Y-79983390D02*
X171085714Y-80031009D01*
X171085714Y-80031009D02*
X171038095Y-80078628D01*
X171038095Y-80078628D02*
X170990476Y-80173866D01*
X170990476Y-80173866D02*
X170990476Y-80364342D01*
X170990476Y-80364342D02*
X171038095Y-80459580D01*
X171038095Y-80459580D02*
X171085714Y-80507200D01*
X171085714Y-80507200D02*
X171180952Y-80554819D01*
X171180952Y-80554819D02*
X171371428Y-80554819D01*
X171371428Y-80554819D02*
X171466666Y-80507200D01*
X171466666Y-80507200D02*
X171514285Y-80459580D01*
X171514285Y-80459580D02*
X171561904Y-80364342D01*
X171561904Y-80364342D02*
X171561904Y-80173866D01*
X171561904Y-80173866D02*
X171514285Y-80078628D01*
X171514285Y-80078628D02*
X171466666Y-80031009D01*
X171466666Y-80031009D02*
X171371428Y-79983390D01*
X122561905Y-74204819D02*
X122561905Y-73204819D01*
X122561905Y-73204819D02*
X122800000Y-73204819D01*
X122800000Y-73204819D02*
X122942857Y-73252438D01*
X122942857Y-73252438D02*
X123038095Y-73347676D01*
X123038095Y-73347676D02*
X123085714Y-73442914D01*
X123085714Y-73442914D02*
X123133333Y-73633390D01*
X123133333Y-73633390D02*
X123133333Y-73776247D01*
X123133333Y-73776247D02*
X123085714Y-73966723D01*
X123085714Y-73966723D02*
X123038095Y-74061961D01*
X123038095Y-74061961D02*
X122942857Y-74157200D01*
X122942857Y-74157200D02*
X122800000Y-74204819D01*
X122800000Y-74204819D02*
X122561905Y-74204819D01*
X123466667Y-73204819D02*
X124085714Y-73204819D01*
X124085714Y-73204819D02*
X123752381Y-73585771D01*
X123752381Y-73585771D02*
X123895238Y-73585771D01*
X123895238Y-73585771D02*
X123990476Y-73633390D01*
X123990476Y-73633390D02*
X124038095Y-73681009D01*
X124038095Y-73681009D02*
X124085714Y-73776247D01*
X124085714Y-73776247D02*
X124085714Y-74014342D01*
X124085714Y-74014342D02*
X124038095Y-74109580D01*
X124038095Y-74109580D02*
X123990476Y-74157200D01*
X123990476Y-74157200D02*
X123895238Y-74204819D01*
X123895238Y-74204819D02*
X123609524Y-74204819D01*
X123609524Y-74204819D02*
X123514286Y-74157200D01*
X123514286Y-74157200D02*
X123466667Y-74109580D01*
X170838095Y-66954819D02*
X171409523Y-66954819D01*
X171123809Y-67954819D02*
X171123809Y-66954819D01*
X171742857Y-67954819D02*
X171742857Y-66954819D01*
X171742857Y-66954819D02*
X172123809Y-66954819D01*
X172123809Y-66954819D02*
X172219047Y-67002438D01*
X172219047Y-67002438D02*
X172266666Y-67050057D01*
X172266666Y-67050057D02*
X172314285Y-67145295D01*
X172314285Y-67145295D02*
X172314285Y-67288152D01*
X172314285Y-67288152D02*
X172266666Y-67383390D01*
X172266666Y-67383390D02*
X172219047Y-67431009D01*
X172219047Y-67431009D02*
X172123809Y-67478628D01*
X172123809Y-67478628D02*
X171742857Y-67478628D01*
X173171428Y-66954819D02*
X172980952Y-66954819D01*
X172980952Y-66954819D02*
X172885714Y-67002438D01*
X172885714Y-67002438D02*
X172838095Y-67050057D01*
X172838095Y-67050057D02*
X172742857Y-67192914D01*
X172742857Y-67192914D02*
X172695238Y-67383390D01*
X172695238Y-67383390D02*
X172695238Y-67764342D01*
X172695238Y-67764342D02*
X172742857Y-67859580D01*
X172742857Y-67859580D02*
X172790476Y-67907200D01*
X172790476Y-67907200D02*
X172885714Y-67954819D01*
X172885714Y-67954819D02*
X173076190Y-67954819D01*
X173076190Y-67954819D02*
X173171428Y-67907200D01*
X173171428Y-67907200D02*
X173219047Y-67859580D01*
X173219047Y-67859580D02*
X173266666Y-67764342D01*
X173266666Y-67764342D02*
X173266666Y-67526247D01*
X173266666Y-67526247D02*
X173219047Y-67431009D01*
X173219047Y-67431009D02*
X173171428Y-67383390D01*
X173171428Y-67383390D02*
X173076190Y-67335771D01*
X173076190Y-67335771D02*
X172885714Y-67335771D01*
X172885714Y-67335771D02*
X172790476Y-67383390D01*
X172790476Y-67383390D02*
X172742857Y-67431009D01*
X172742857Y-67431009D02*
X172695238Y-67526247D01*
X170885715Y-69154819D02*
X170885715Y-68154819D01*
X171838095Y-69154819D02*
X171361905Y-69154819D01*
X171361905Y-69154819D02*
X171361905Y-68154819D01*
X172171429Y-69154819D02*
X172171429Y-68154819D01*
X172647619Y-69154819D02*
X172647619Y-68154819D01*
X172647619Y-68154819D02*
X172980952Y-68869104D01*
X172980952Y-68869104D02*
X173314285Y-68154819D01*
X173314285Y-68154819D02*
X173314285Y-69154819D01*
X140251905Y-64494819D02*
X140251905Y-63494819D01*
X140251905Y-63494819D02*
X140490000Y-63494819D01*
X140490000Y-63494819D02*
X140632857Y-63542438D01*
X140632857Y-63542438D02*
X140728095Y-63637676D01*
X140728095Y-63637676D02*
X140775714Y-63732914D01*
X140775714Y-63732914D02*
X140823333Y-63923390D01*
X140823333Y-63923390D02*
X140823333Y-64066247D01*
X140823333Y-64066247D02*
X140775714Y-64256723D01*
X140775714Y-64256723D02*
X140728095Y-64351961D01*
X140728095Y-64351961D02*
X140632857Y-64447200D01*
X140632857Y-64447200D02*
X140490000Y-64494819D01*
X140490000Y-64494819D02*
X140251905Y-64494819D01*
X141775714Y-64494819D02*
X141204286Y-64494819D01*
X141490000Y-64494819D02*
X141490000Y-63494819D01*
X141490000Y-63494819D02*
X141394762Y-63637676D01*
X141394762Y-63637676D02*
X141299524Y-63732914D01*
X141299524Y-63732914D02*
X141204286Y-63780533D01*
X163808333Y-67454819D02*
X163332143Y-67454819D01*
X163332143Y-67454819D02*
X163332143Y-66454819D01*
X164046429Y-66454819D02*
X164665476Y-66454819D01*
X164665476Y-66454819D02*
X164332143Y-66835771D01*
X164332143Y-66835771D02*
X164475000Y-66835771D01*
X164475000Y-66835771D02*
X164570238Y-66883390D01*
X164570238Y-66883390D02*
X164617857Y-66931009D01*
X164617857Y-66931009D02*
X164665476Y-67026247D01*
X164665476Y-67026247D02*
X164665476Y-67264342D01*
X164665476Y-67264342D02*
X164617857Y-67359580D01*
X164617857Y-67359580D02*
X164570238Y-67407200D01*
X164570238Y-67407200D02*
X164475000Y-67454819D01*
X164475000Y-67454819D02*
X164189286Y-67454819D01*
X164189286Y-67454819D02*
X164094048Y-67407200D01*
X164094048Y-67407200D02*
X164046429Y-67359580D01*
X127704761Y-75350057D02*
X127609523Y-75302438D01*
X127609523Y-75302438D02*
X127514285Y-75207200D01*
X127514285Y-75207200D02*
X127371428Y-75064342D01*
X127371428Y-75064342D02*
X127276190Y-75016723D01*
X127276190Y-75016723D02*
X127180952Y-75016723D01*
X127228571Y-75254819D02*
X127133333Y-75207200D01*
X127133333Y-75207200D02*
X127038095Y-75111961D01*
X127038095Y-75111961D02*
X126990476Y-74921485D01*
X126990476Y-74921485D02*
X126990476Y-74588152D01*
X126990476Y-74588152D02*
X127038095Y-74397676D01*
X127038095Y-74397676D02*
X127133333Y-74302438D01*
X127133333Y-74302438D02*
X127228571Y-74254819D01*
X127228571Y-74254819D02*
X127419047Y-74254819D01*
X127419047Y-74254819D02*
X127514285Y-74302438D01*
X127514285Y-74302438D02*
X127609523Y-74397676D01*
X127609523Y-74397676D02*
X127657142Y-74588152D01*
X127657142Y-74588152D02*
X127657142Y-74921485D01*
X127657142Y-74921485D02*
X127609523Y-75111961D01*
X127609523Y-75111961D02*
X127514285Y-75207200D01*
X127514285Y-75207200D02*
X127419047Y-75254819D01*
X127419047Y-75254819D02*
X127228571Y-75254819D01*
X128514285Y-74254819D02*
X128323809Y-74254819D01*
X128323809Y-74254819D02*
X128228571Y-74302438D01*
X128228571Y-74302438D02*
X128180952Y-74350057D01*
X128180952Y-74350057D02*
X128085714Y-74492914D01*
X128085714Y-74492914D02*
X128038095Y-74683390D01*
X128038095Y-74683390D02*
X128038095Y-75064342D01*
X128038095Y-75064342D02*
X128085714Y-75159580D01*
X128085714Y-75159580D02*
X128133333Y-75207200D01*
X128133333Y-75207200D02*
X128228571Y-75254819D01*
X128228571Y-75254819D02*
X128419047Y-75254819D01*
X128419047Y-75254819D02*
X128514285Y-75207200D01*
X128514285Y-75207200D02*
X128561904Y-75159580D01*
X128561904Y-75159580D02*
X128609523Y-75064342D01*
X128609523Y-75064342D02*
X128609523Y-74826247D01*
X128609523Y-74826247D02*
X128561904Y-74731009D01*
X128561904Y-74731009D02*
X128514285Y-74683390D01*
X128514285Y-74683390D02*
X128419047Y-74635771D01*
X128419047Y-74635771D02*
X128228571Y-74635771D01*
X128228571Y-74635771D02*
X128133333Y-74683390D01*
X128133333Y-74683390D02*
X128085714Y-74731009D01*
X128085714Y-74731009D02*
X128038095Y-74826247D01*
X146761905Y-82654819D02*
X146761905Y-81654819D01*
X146761905Y-81654819D02*
X147000000Y-81654819D01*
X147000000Y-81654819D02*
X147142857Y-81702438D01*
X147142857Y-81702438D02*
X147238095Y-81797676D01*
X147238095Y-81797676D02*
X147285714Y-81892914D01*
X147285714Y-81892914D02*
X147333333Y-82083390D01*
X147333333Y-82083390D02*
X147333333Y-82226247D01*
X147333333Y-82226247D02*
X147285714Y-82416723D01*
X147285714Y-82416723D02*
X147238095Y-82511961D01*
X147238095Y-82511961D02*
X147142857Y-82607200D01*
X147142857Y-82607200D02*
X147000000Y-82654819D01*
X147000000Y-82654819D02*
X146761905Y-82654819D01*
X147666667Y-81654819D02*
X148333333Y-81654819D01*
X148333333Y-81654819D02*
X147904762Y-82654819D01*
X142129761Y-82454819D02*
X141796428Y-81978628D01*
X141558333Y-82454819D02*
X141558333Y-81454819D01*
X141558333Y-81454819D02*
X141939285Y-81454819D01*
X141939285Y-81454819D02*
X142034523Y-81502438D01*
X142034523Y-81502438D02*
X142082142Y-81550057D01*
X142082142Y-81550057D02*
X142129761Y-81645295D01*
X142129761Y-81645295D02*
X142129761Y-81788152D01*
X142129761Y-81788152D02*
X142082142Y-81883390D01*
X142082142Y-81883390D02*
X142034523Y-81931009D01*
X142034523Y-81931009D02*
X141939285Y-81978628D01*
X141939285Y-81978628D02*
X141558333Y-81978628D01*
X142415476Y-81454819D02*
X142748809Y-82454819D01*
X142748809Y-82454819D02*
X143082142Y-81454819D01*
X143939285Y-82454819D02*
X143367857Y-82454819D01*
X143653571Y-82454819D02*
X143653571Y-81454819D01*
X143653571Y-81454819D02*
X143558333Y-81597676D01*
X143558333Y-81597676D02*
X143463095Y-81692914D01*
X143463095Y-81692914D02*
X143367857Y-81740533D01*
X134038095Y-56954819D02*
X134038095Y-57764342D01*
X134038095Y-57764342D02*
X134085714Y-57859580D01*
X134085714Y-57859580D02*
X134133333Y-57907200D01*
X134133333Y-57907200D02*
X134228571Y-57954819D01*
X134228571Y-57954819D02*
X134419047Y-57954819D01*
X134419047Y-57954819D02*
X134514285Y-57907200D01*
X134514285Y-57907200D02*
X134561904Y-57859580D01*
X134561904Y-57859580D02*
X134609523Y-57764342D01*
X134609523Y-57764342D02*
X134609523Y-56954819D01*
X134990476Y-56954819D02*
X135609523Y-56954819D01*
X135609523Y-56954819D02*
X135276190Y-57335771D01*
X135276190Y-57335771D02*
X135419047Y-57335771D01*
X135419047Y-57335771D02*
X135514285Y-57383390D01*
X135514285Y-57383390D02*
X135561904Y-57431009D01*
X135561904Y-57431009D02*
X135609523Y-57526247D01*
X135609523Y-57526247D02*
X135609523Y-57764342D01*
X135609523Y-57764342D02*
X135561904Y-57859580D01*
X135561904Y-57859580D02*
X135514285Y-57907200D01*
X135514285Y-57907200D02*
X135419047Y-57954819D01*
X135419047Y-57954819D02*
X135133333Y-57954819D01*
X135133333Y-57954819D02*
X135038095Y-57907200D01*
X135038095Y-57907200D02*
X134990476Y-57859580D01*
X136238095Y-84554819D02*
X136809523Y-84554819D01*
X136523809Y-85554819D02*
X136523809Y-84554819D01*
X137142857Y-85554819D02*
X137142857Y-84554819D01*
X137142857Y-84554819D02*
X137523809Y-84554819D01*
X137523809Y-84554819D02*
X137619047Y-84602438D01*
X137619047Y-84602438D02*
X137666666Y-84650057D01*
X137666666Y-84650057D02*
X137714285Y-84745295D01*
X137714285Y-84745295D02*
X137714285Y-84888152D01*
X137714285Y-84888152D02*
X137666666Y-84983390D01*
X137666666Y-84983390D02*
X137619047Y-85031009D01*
X137619047Y-85031009D02*
X137523809Y-85078628D01*
X137523809Y-85078628D02*
X137142857Y-85078628D01*
X138619047Y-84554819D02*
X138142857Y-84554819D01*
X138142857Y-84554819D02*
X138095238Y-85031009D01*
X138095238Y-85031009D02*
X138142857Y-84983390D01*
X138142857Y-84983390D02*
X138238095Y-84935771D01*
X138238095Y-84935771D02*
X138476190Y-84935771D01*
X138476190Y-84935771D02*
X138571428Y-84983390D01*
X138571428Y-84983390D02*
X138619047Y-85031009D01*
X138619047Y-85031009D02*
X138666666Y-85126247D01*
X138666666Y-85126247D02*
X138666666Y-85364342D01*
X138666666Y-85364342D02*
X138619047Y-85459580D01*
X138619047Y-85459580D02*
X138571428Y-85507200D01*
X138571428Y-85507200D02*
X138476190Y-85554819D01*
X138476190Y-85554819D02*
X138238095Y-85554819D01*
X138238095Y-85554819D02*
X138142857Y-85507200D01*
X138142857Y-85507200D02*
X138095238Y-85459580D01*
X136471428Y-88659580D02*
X136423809Y-88707200D01*
X136423809Y-88707200D02*
X136280952Y-88754819D01*
X136280952Y-88754819D02*
X136185714Y-88754819D01*
X136185714Y-88754819D02*
X136042857Y-88707200D01*
X136042857Y-88707200D02*
X135947619Y-88611961D01*
X135947619Y-88611961D02*
X135900000Y-88516723D01*
X135900000Y-88516723D02*
X135852381Y-88326247D01*
X135852381Y-88326247D02*
X135852381Y-88183390D01*
X135852381Y-88183390D02*
X135900000Y-87992914D01*
X135900000Y-87992914D02*
X135947619Y-87897676D01*
X135947619Y-87897676D02*
X136042857Y-87802438D01*
X136042857Y-87802438D02*
X136185714Y-87754819D01*
X136185714Y-87754819D02*
X136280952Y-87754819D01*
X136280952Y-87754819D02*
X136423809Y-87802438D01*
X136423809Y-87802438D02*
X136471428Y-87850057D01*
X136900000Y-88754819D02*
X136900000Y-87754819D01*
X136900000Y-88231009D02*
X137471428Y-88231009D01*
X137471428Y-88754819D02*
X137471428Y-87754819D01*
X138471428Y-87802438D02*
X138376190Y-87754819D01*
X138376190Y-87754819D02*
X138233333Y-87754819D01*
X138233333Y-87754819D02*
X138090476Y-87802438D01*
X138090476Y-87802438D02*
X137995238Y-87897676D01*
X137995238Y-87897676D02*
X137947619Y-87992914D01*
X137947619Y-87992914D02*
X137900000Y-88183390D01*
X137900000Y-88183390D02*
X137900000Y-88326247D01*
X137900000Y-88326247D02*
X137947619Y-88516723D01*
X137947619Y-88516723D02*
X137995238Y-88611961D01*
X137995238Y-88611961D02*
X138090476Y-88707200D01*
X138090476Y-88707200D02*
X138233333Y-88754819D01*
X138233333Y-88754819D02*
X138328571Y-88754819D01*
X138328571Y-88754819D02*
X138471428Y-88707200D01*
X138471428Y-88707200D02*
X138519047Y-88659580D01*
X138519047Y-88659580D02*
X138519047Y-88326247D01*
X138519047Y-88326247D02*
X138328571Y-88326247D01*
X139661905Y-88707200D02*
X139804762Y-88754819D01*
X139804762Y-88754819D02*
X140042857Y-88754819D01*
X140042857Y-88754819D02*
X140138095Y-88707200D01*
X140138095Y-88707200D02*
X140185714Y-88659580D01*
X140185714Y-88659580D02*
X140233333Y-88564342D01*
X140233333Y-88564342D02*
X140233333Y-88469104D01*
X140233333Y-88469104D02*
X140185714Y-88373866D01*
X140185714Y-88373866D02*
X140138095Y-88326247D01*
X140138095Y-88326247D02*
X140042857Y-88278628D01*
X140042857Y-88278628D02*
X139852381Y-88231009D01*
X139852381Y-88231009D02*
X139757143Y-88183390D01*
X139757143Y-88183390D02*
X139709524Y-88135771D01*
X139709524Y-88135771D02*
X139661905Y-88040533D01*
X139661905Y-88040533D02*
X139661905Y-87945295D01*
X139661905Y-87945295D02*
X139709524Y-87850057D01*
X139709524Y-87850057D02*
X139757143Y-87802438D01*
X139757143Y-87802438D02*
X139852381Y-87754819D01*
X139852381Y-87754819D02*
X140090476Y-87754819D01*
X140090476Y-87754819D02*
X140233333Y-87802438D01*
X140661905Y-87754819D02*
X140661905Y-88564342D01*
X140661905Y-88564342D02*
X140709524Y-88659580D01*
X140709524Y-88659580D02*
X140757143Y-88707200D01*
X140757143Y-88707200D02*
X140852381Y-88754819D01*
X140852381Y-88754819D02*
X141042857Y-88754819D01*
X141042857Y-88754819D02*
X141138095Y-88707200D01*
X141138095Y-88707200D02*
X141185714Y-88659580D01*
X141185714Y-88659580D02*
X141233333Y-88564342D01*
X141233333Y-88564342D02*
X141233333Y-87754819D01*
X141709524Y-88754819D02*
X141709524Y-87754819D01*
X141709524Y-87754819D02*
X142090476Y-87754819D01*
X142090476Y-87754819D02*
X142185714Y-87802438D01*
X142185714Y-87802438D02*
X142233333Y-87850057D01*
X142233333Y-87850057D02*
X142280952Y-87945295D01*
X142280952Y-87945295D02*
X142280952Y-88088152D01*
X142280952Y-88088152D02*
X142233333Y-88183390D01*
X142233333Y-88183390D02*
X142185714Y-88231009D01*
X142185714Y-88231009D02*
X142090476Y-88278628D01*
X142090476Y-88278628D02*
X141709524Y-88278628D01*
X142709524Y-88754819D02*
X142709524Y-87754819D01*
X142709524Y-87754819D02*
X143090476Y-87754819D01*
X143090476Y-87754819D02*
X143185714Y-87802438D01*
X143185714Y-87802438D02*
X143233333Y-87850057D01*
X143233333Y-87850057D02*
X143280952Y-87945295D01*
X143280952Y-87945295D02*
X143280952Y-88088152D01*
X143280952Y-88088152D02*
X143233333Y-88183390D01*
X143233333Y-88183390D02*
X143185714Y-88231009D01*
X143185714Y-88231009D02*
X143090476Y-88278628D01*
X143090476Y-88278628D02*
X142709524Y-88278628D01*
X144185714Y-88754819D02*
X143709524Y-88754819D01*
X143709524Y-88754819D02*
X143709524Y-87754819D01*
X144709524Y-88278628D02*
X144709524Y-88754819D01*
X144376191Y-87754819D02*
X144709524Y-88278628D01*
X144709524Y-88278628D02*
X145042857Y-87754819D01*
X120107142Y-48254819D02*
X119773809Y-47778628D01*
X119535714Y-48254819D02*
X119535714Y-47254819D01*
X119535714Y-47254819D02*
X119916666Y-47254819D01*
X119916666Y-47254819D02*
X120011904Y-47302438D01*
X120011904Y-47302438D02*
X120059523Y-47350057D01*
X120059523Y-47350057D02*
X120107142Y-47445295D01*
X120107142Y-47445295D02*
X120107142Y-47588152D01*
X120107142Y-47588152D02*
X120059523Y-47683390D01*
X120059523Y-47683390D02*
X120011904Y-47731009D01*
X120011904Y-47731009D02*
X119916666Y-47778628D01*
X119916666Y-47778628D02*
X119535714Y-47778628D01*
X120488095Y-47350057D02*
X120535714Y-47302438D01*
X120535714Y-47302438D02*
X120630952Y-47254819D01*
X120630952Y-47254819D02*
X120869047Y-47254819D01*
X120869047Y-47254819D02*
X120964285Y-47302438D01*
X120964285Y-47302438D02*
X121011904Y-47350057D01*
X121011904Y-47350057D02*
X121059523Y-47445295D01*
X121059523Y-47445295D02*
X121059523Y-47540533D01*
X121059523Y-47540533D02*
X121011904Y-47683390D01*
X121011904Y-47683390D02*
X120440476Y-48254819D01*
X120440476Y-48254819D02*
X121059523Y-48254819D01*
X121916666Y-47254819D02*
X121726190Y-47254819D01*
X121726190Y-47254819D02*
X121630952Y-47302438D01*
X121630952Y-47302438D02*
X121583333Y-47350057D01*
X121583333Y-47350057D02*
X121488095Y-47492914D01*
X121488095Y-47492914D02*
X121440476Y-47683390D01*
X121440476Y-47683390D02*
X121440476Y-48064342D01*
X121440476Y-48064342D02*
X121488095Y-48159580D01*
X121488095Y-48159580D02*
X121535714Y-48207200D01*
X121535714Y-48207200D02*
X121630952Y-48254819D01*
X121630952Y-48254819D02*
X121821428Y-48254819D01*
X121821428Y-48254819D02*
X121916666Y-48207200D01*
X121916666Y-48207200D02*
X121964285Y-48159580D01*
X121964285Y-48159580D02*
X122011904Y-48064342D01*
X122011904Y-48064342D02*
X122011904Y-47826247D01*
X122011904Y-47826247D02*
X121964285Y-47731009D01*
X121964285Y-47731009D02*
X121916666Y-47683390D01*
X121916666Y-47683390D02*
X121821428Y-47635771D01*
X121821428Y-47635771D02*
X121630952Y-47635771D01*
X121630952Y-47635771D02*
X121535714Y-47683390D01*
X121535714Y-47683390D02*
X121488095Y-47731009D01*
X121488095Y-47731009D02*
X121440476Y-47826247D01*
X137757142Y-52159580D02*
X137709523Y-52207200D01*
X137709523Y-52207200D02*
X137566666Y-52254819D01*
X137566666Y-52254819D02*
X137471428Y-52254819D01*
X137471428Y-52254819D02*
X137328571Y-52207200D01*
X137328571Y-52207200D02*
X137233333Y-52111961D01*
X137233333Y-52111961D02*
X137185714Y-52016723D01*
X137185714Y-52016723D02*
X137138095Y-51826247D01*
X137138095Y-51826247D02*
X137138095Y-51683390D01*
X137138095Y-51683390D02*
X137185714Y-51492914D01*
X137185714Y-51492914D02*
X137233333Y-51397676D01*
X137233333Y-51397676D02*
X137328571Y-51302438D01*
X137328571Y-51302438D02*
X137471428Y-51254819D01*
X137471428Y-51254819D02*
X137566666Y-51254819D01*
X137566666Y-51254819D02*
X137709523Y-51302438D01*
X137709523Y-51302438D02*
X137757142Y-51350057D01*
X138709523Y-52254819D02*
X138138095Y-52254819D01*
X138423809Y-52254819D02*
X138423809Y-51254819D01*
X138423809Y-51254819D02*
X138328571Y-51397676D01*
X138328571Y-51397676D02*
X138233333Y-51492914D01*
X138233333Y-51492914D02*
X138138095Y-51540533D01*
X139566666Y-51588152D02*
X139566666Y-52254819D01*
X139328571Y-51207200D02*
X139090476Y-51921485D01*
X139090476Y-51921485D02*
X139709523Y-51921485D01*
X153157142Y-78454819D02*
X152823809Y-77978628D01*
X152585714Y-78454819D02*
X152585714Y-77454819D01*
X152585714Y-77454819D02*
X152966666Y-77454819D01*
X152966666Y-77454819D02*
X153061904Y-77502438D01*
X153061904Y-77502438D02*
X153109523Y-77550057D01*
X153109523Y-77550057D02*
X153157142Y-77645295D01*
X153157142Y-77645295D02*
X153157142Y-77788152D01*
X153157142Y-77788152D02*
X153109523Y-77883390D01*
X153109523Y-77883390D02*
X153061904Y-77931009D01*
X153061904Y-77931009D02*
X152966666Y-77978628D01*
X152966666Y-77978628D02*
X152585714Y-77978628D01*
X153538095Y-77550057D02*
X153585714Y-77502438D01*
X153585714Y-77502438D02*
X153680952Y-77454819D01*
X153680952Y-77454819D02*
X153919047Y-77454819D01*
X153919047Y-77454819D02*
X154014285Y-77502438D01*
X154014285Y-77502438D02*
X154061904Y-77550057D01*
X154061904Y-77550057D02*
X154109523Y-77645295D01*
X154109523Y-77645295D02*
X154109523Y-77740533D01*
X154109523Y-77740533D02*
X154061904Y-77883390D01*
X154061904Y-77883390D02*
X153490476Y-78454819D01*
X153490476Y-78454819D02*
X154109523Y-78454819D01*
X154442857Y-77454819D02*
X155061904Y-77454819D01*
X155061904Y-77454819D02*
X154728571Y-77835771D01*
X154728571Y-77835771D02*
X154871428Y-77835771D01*
X154871428Y-77835771D02*
X154966666Y-77883390D01*
X154966666Y-77883390D02*
X155014285Y-77931009D01*
X155014285Y-77931009D02*
X155061904Y-78026247D01*
X155061904Y-78026247D02*
X155061904Y-78264342D01*
X155061904Y-78264342D02*
X155014285Y-78359580D01*
X155014285Y-78359580D02*
X154966666Y-78407200D01*
X154966666Y-78407200D02*
X154871428Y-78454819D01*
X154871428Y-78454819D02*
X154585714Y-78454819D01*
X154585714Y-78454819D02*
X154490476Y-78407200D01*
X154490476Y-78407200D02*
X154442857Y-78359580D01*
X172738095Y-72354819D02*
X172738095Y-73164342D01*
X172738095Y-73164342D02*
X172785714Y-73259580D01*
X172785714Y-73259580D02*
X172833333Y-73307200D01*
X172833333Y-73307200D02*
X172928571Y-73354819D01*
X172928571Y-73354819D02*
X173119047Y-73354819D01*
X173119047Y-73354819D02*
X173214285Y-73307200D01*
X173214285Y-73307200D02*
X173261904Y-73259580D01*
X173261904Y-73259580D02*
X173309523Y-73164342D01*
X173309523Y-73164342D02*
X173309523Y-72354819D01*
X174214285Y-72688152D02*
X174214285Y-73354819D01*
X173976190Y-72307200D02*
X173738095Y-73021485D01*
X173738095Y-73021485D02*
X174357142Y-73021485D01*
X115861905Y-74554819D02*
X115861905Y-73554819D01*
X115861905Y-73554819D02*
X116100000Y-73554819D01*
X116100000Y-73554819D02*
X116242857Y-73602438D01*
X116242857Y-73602438D02*
X116338095Y-73697676D01*
X116338095Y-73697676D02*
X116385714Y-73792914D01*
X116385714Y-73792914D02*
X116433333Y-73983390D01*
X116433333Y-73983390D02*
X116433333Y-74126247D01*
X116433333Y-74126247D02*
X116385714Y-74316723D01*
X116385714Y-74316723D02*
X116338095Y-74411961D01*
X116338095Y-74411961D02*
X116242857Y-74507200D01*
X116242857Y-74507200D02*
X116100000Y-74554819D01*
X116100000Y-74554819D02*
X115861905Y-74554819D01*
X117290476Y-73888152D02*
X117290476Y-74554819D01*
X117052381Y-73507200D02*
X116814286Y-74221485D01*
X116814286Y-74221485D02*
X117433333Y-74221485D01*
X150866666Y-54531009D02*
X150533333Y-54531009D01*
X150533333Y-55054819D02*
X150533333Y-54054819D01*
X150533333Y-54054819D02*
X151009523Y-54054819D01*
X151914285Y-55054819D02*
X151342857Y-55054819D01*
X151628571Y-55054819D02*
X151628571Y-54054819D01*
X151628571Y-54054819D02*
X151533333Y-54197676D01*
X151533333Y-54197676D02*
X151438095Y-54292914D01*
X151438095Y-54292914D02*
X151342857Y-54340533D01*
X153157142Y-61854819D02*
X152823809Y-61378628D01*
X152585714Y-61854819D02*
X152585714Y-60854819D01*
X152585714Y-60854819D02*
X152966666Y-60854819D01*
X152966666Y-60854819D02*
X153061904Y-60902438D01*
X153061904Y-60902438D02*
X153109523Y-60950057D01*
X153109523Y-60950057D02*
X153157142Y-61045295D01*
X153157142Y-61045295D02*
X153157142Y-61188152D01*
X153157142Y-61188152D02*
X153109523Y-61283390D01*
X153109523Y-61283390D02*
X153061904Y-61331009D01*
X153061904Y-61331009D02*
X152966666Y-61378628D01*
X152966666Y-61378628D02*
X152585714Y-61378628D01*
X153538095Y-60950057D02*
X153585714Y-60902438D01*
X153585714Y-60902438D02*
X153680952Y-60854819D01*
X153680952Y-60854819D02*
X153919047Y-60854819D01*
X153919047Y-60854819D02*
X154014285Y-60902438D01*
X154014285Y-60902438D02*
X154061904Y-60950057D01*
X154061904Y-60950057D02*
X154109523Y-61045295D01*
X154109523Y-61045295D02*
X154109523Y-61140533D01*
X154109523Y-61140533D02*
X154061904Y-61283390D01*
X154061904Y-61283390D02*
X153490476Y-61854819D01*
X153490476Y-61854819D02*
X154109523Y-61854819D01*
X154680952Y-61283390D02*
X154585714Y-61235771D01*
X154585714Y-61235771D02*
X154538095Y-61188152D01*
X154538095Y-61188152D02*
X154490476Y-61092914D01*
X154490476Y-61092914D02*
X154490476Y-61045295D01*
X154490476Y-61045295D02*
X154538095Y-60950057D01*
X154538095Y-60950057D02*
X154585714Y-60902438D01*
X154585714Y-60902438D02*
X154680952Y-60854819D01*
X154680952Y-60854819D02*
X154871428Y-60854819D01*
X154871428Y-60854819D02*
X154966666Y-60902438D01*
X154966666Y-60902438D02*
X155014285Y-60950057D01*
X155014285Y-60950057D02*
X155061904Y-61045295D01*
X155061904Y-61045295D02*
X155061904Y-61092914D01*
X155061904Y-61092914D02*
X155014285Y-61188152D01*
X155014285Y-61188152D02*
X154966666Y-61235771D01*
X154966666Y-61235771D02*
X154871428Y-61283390D01*
X154871428Y-61283390D02*
X154680952Y-61283390D01*
X154680952Y-61283390D02*
X154585714Y-61331009D01*
X154585714Y-61331009D02*
X154538095Y-61378628D01*
X154538095Y-61378628D02*
X154490476Y-61473866D01*
X154490476Y-61473866D02*
X154490476Y-61664342D01*
X154490476Y-61664342D02*
X154538095Y-61759580D01*
X154538095Y-61759580D02*
X154585714Y-61807200D01*
X154585714Y-61807200D02*
X154680952Y-61854819D01*
X154680952Y-61854819D02*
X154871428Y-61854819D01*
X154871428Y-61854819D02*
X154966666Y-61807200D01*
X154966666Y-61807200D02*
X155014285Y-61759580D01*
X155014285Y-61759580D02*
X155061904Y-61664342D01*
X155061904Y-61664342D02*
X155061904Y-61473866D01*
X155061904Y-61473866D02*
X155014285Y-61378628D01*
X155014285Y-61378628D02*
X154966666Y-61331009D01*
X154966666Y-61331009D02*
X154871428Y-61283390D01*
X162557142Y-79154819D02*
X162223809Y-78678628D01*
X161985714Y-79154819D02*
X161985714Y-78154819D01*
X161985714Y-78154819D02*
X162366666Y-78154819D01*
X162366666Y-78154819D02*
X162461904Y-78202438D01*
X162461904Y-78202438D02*
X162509523Y-78250057D01*
X162509523Y-78250057D02*
X162557142Y-78345295D01*
X162557142Y-78345295D02*
X162557142Y-78488152D01*
X162557142Y-78488152D02*
X162509523Y-78583390D01*
X162509523Y-78583390D02*
X162461904Y-78631009D01*
X162461904Y-78631009D02*
X162366666Y-78678628D01*
X162366666Y-78678628D02*
X161985714Y-78678628D01*
X162938095Y-78250057D02*
X162985714Y-78202438D01*
X162985714Y-78202438D02*
X163080952Y-78154819D01*
X163080952Y-78154819D02*
X163319047Y-78154819D01*
X163319047Y-78154819D02*
X163414285Y-78202438D01*
X163414285Y-78202438D02*
X163461904Y-78250057D01*
X163461904Y-78250057D02*
X163509523Y-78345295D01*
X163509523Y-78345295D02*
X163509523Y-78440533D01*
X163509523Y-78440533D02*
X163461904Y-78583390D01*
X163461904Y-78583390D02*
X162890476Y-79154819D01*
X162890476Y-79154819D02*
X163509523Y-79154819D01*
X163890476Y-78250057D02*
X163938095Y-78202438D01*
X163938095Y-78202438D02*
X164033333Y-78154819D01*
X164033333Y-78154819D02*
X164271428Y-78154819D01*
X164271428Y-78154819D02*
X164366666Y-78202438D01*
X164366666Y-78202438D02*
X164414285Y-78250057D01*
X164414285Y-78250057D02*
X164461904Y-78345295D01*
X164461904Y-78345295D02*
X164461904Y-78440533D01*
X164461904Y-78440533D02*
X164414285Y-78583390D01*
X164414285Y-78583390D02*
X163842857Y-79154819D01*
X163842857Y-79154819D02*
X164461904Y-79154819D01*
X128966667Y-63907200D02*
X129109524Y-63954819D01*
X129109524Y-63954819D02*
X129347619Y-63954819D01*
X129347619Y-63954819D02*
X129442857Y-63907200D01*
X129442857Y-63907200D02*
X129490476Y-63859580D01*
X129490476Y-63859580D02*
X129538095Y-63764342D01*
X129538095Y-63764342D02*
X129538095Y-63669104D01*
X129538095Y-63669104D02*
X129490476Y-63573866D01*
X129490476Y-63573866D02*
X129442857Y-63526247D01*
X129442857Y-63526247D02*
X129347619Y-63478628D01*
X129347619Y-63478628D02*
X129157143Y-63431009D01*
X129157143Y-63431009D02*
X129061905Y-63383390D01*
X129061905Y-63383390D02*
X129014286Y-63335771D01*
X129014286Y-63335771D02*
X128966667Y-63240533D01*
X128966667Y-63240533D02*
X128966667Y-63145295D01*
X128966667Y-63145295D02*
X129014286Y-63050057D01*
X129014286Y-63050057D02*
X129061905Y-63002438D01*
X129061905Y-63002438D02*
X129157143Y-62954819D01*
X129157143Y-62954819D02*
X129395238Y-62954819D01*
X129395238Y-62954819D02*
X129538095Y-63002438D01*
X129871429Y-62954819D02*
X130109524Y-63954819D01*
X130109524Y-63954819D02*
X130300000Y-63240533D01*
X130300000Y-63240533D02*
X130490476Y-63954819D01*
X130490476Y-63954819D02*
X130728572Y-62954819D01*
X131061905Y-63050057D02*
X131109524Y-63002438D01*
X131109524Y-63002438D02*
X131204762Y-62954819D01*
X131204762Y-62954819D02*
X131442857Y-62954819D01*
X131442857Y-62954819D02*
X131538095Y-63002438D01*
X131538095Y-63002438D02*
X131585714Y-63050057D01*
X131585714Y-63050057D02*
X131633333Y-63145295D01*
X131633333Y-63145295D02*
X131633333Y-63240533D01*
X131633333Y-63240533D02*
X131585714Y-63383390D01*
X131585714Y-63383390D02*
X131014286Y-63954819D01*
X131014286Y-63954819D02*
X131633333Y-63954819D01*
X128761904Y-65159580D02*
X128714285Y-65207200D01*
X128714285Y-65207200D02*
X128571428Y-65254819D01*
X128571428Y-65254819D02*
X128476190Y-65254819D01*
X128476190Y-65254819D02*
X128333333Y-65207200D01*
X128333333Y-65207200D02*
X128238095Y-65111961D01*
X128238095Y-65111961D02*
X128190476Y-65016723D01*
X128190476Y-65016723D02*
X128142857Y-64826247D01*
X128142857Y-64826247D02*
X128142857Y-64683390D01*
X128142857Y-64683390D02*
X128190476Y-64492914D01*
X128190476Y-64492914D02*
X128238095Y-64397676D01*
X128238095Y-64397676D02*
X128333333Y-64302438D01*
X128333333Y-64302438D02*
X128476190Y-64254819D01*
X128476190Y-64254819D02*
X128571428Y-64254819D01*
X128571428Y-64254819D02*
X128714285Y-64302438D01*
X128714285Y-64302438D02*
X128761904Y-64350057D01*
X129333333Y-65254819D02*
X129238095Y-65207200D01*
X129238095Y-65207200D02*
X129190476Y-65111961D01*
X129190476Y-65111961D02*
X129190476Y-64254819D01*
X129857143Y-65254819D02*
X129761905Y-65207200D01*
X129761905Y-65207200D02*
X129714286Y-65159580D01*
X129714286Y-65159580D02*
X129666667Y-65064342D01*
X129666667Y-65064342D02*
X129666667Y-64778628D01*
X129666667Y-64778628D02*
X129714286Y-64683390D01*
X129714286Y-64683390D02*
X129761905Y-64635771D01*
X129761905Y-64635771D02*
X129857143Y-64588152D01*
X129857143Y-64588152D02*
X130000000Y-64588152D01*
X130000000Y-64588152D02*
X130095238Y-64635771D01*
X130095238Y-64635771D02*
X130142857Y-64683390D01*
X130142857Y-64683390D02*
X130190476Y-64778628D01*
X130190476Y-64778628D02*
X130190476Y-65064342D01*
X130190476Y-65064342D02*
X130142857Y-65159580D01*
X130142857Y-65159580D02*
X130095238Y-65207200D01*
X130095238Y-65207200D02*
X130000000Y-65254819D01*
X130000000Y-65254819D02*
X129857143Y-65254819D01*
X130571429Y-65207200D02*
X130666667Y-65254819D01*
X130666667Y-65254819D02*
X130857143Y-65254819D01*
X130857143Y-65254819D02*
X130952381Y-65207200D01*
X130952381Y-65207200D02*
X131000000Y-65111961D01*
X131000000Y-65111961D02*
X131000000Y-65064342D01*
X131000000Y-65064342D02*
X130952381Y-64969104D01*
X130952381Y-64969104D02*
X130857143Y-64921485D01*
X130857143Y-64921485D02*
X130714286Y-64921485D01*
X130714286Y-64921485D02*
X130619048Y-64873866D01*
X130619048Y-64873866D02*
X130571429Y-64778628D01*
X130571429Y-64778628D02*
X130571429Y-64731009D01*
X130571429Y-64731009D02*
X130619048Y-64635771D01*
X130619048Y-64635771D02*
X130714286Y-64588152D01*
X130714286Y-64588152D02*
X130857143Y-64588152D01*
X130857143Y-64588152D02*
X130952381Y-64635771D01*
X131809524Y-65207200D02*
X131714286Y-65254819D01*
X131714286Y-65254819D02*
X131523810Y-65254819D01*
X131523810Y-65254819D02*
X131428572Y-65207200D01*
X131428572Y-65207200D02*
X131380953Y-65111961D01*
X131380953Y-65111961D02*
X131380953Y-64731009D01*
X131380953Y-64731009D02*
X131428572Y-64635771D01*
X131428572Y-64635771D02*
X131523810Y-64588152D01*
X131523810Y-64588152D02*
X131714286Y-64588152D01*
X131714286Y-64588152D02*
X131809524Y-64635771D01*
X131809524Y-64635771D02*
X131857143Y-64731009D01*
X131857143Y-64731009D02*
X131857143Y-64826247D01*
X131857143Y-64826247D02*
X131380953Y-64921485D01*
X145917261Y-73550057D02*
X145822023Y-73502438D01*
X145822023Y-73502438D02*
X145726785Y-73407200D01*
X145726785Y-73407200D02*
X145583928Y-73264342D01*
X145583928Y-73264342D02*
X145488690Y-73216723D01*
X145488690Y-73216723D02*
X145393452Y-73216723D01*
X145441071Y-73454819D02*
X145345833Y-73407200D01*
X145345833Y-73407200D02*
X145250595Y-73311961D01*
X145250595Y-73311961D02*
X145202976Y-73121485D01*
X145202976Y-73121485D02*
X145202976Y-72788152D01*
X145202976Y-72788152D02*
X145250595Y-72597676D01*
X145250595Y-72597676D02*
X145345833Y-72502438D01*
X145345833Y-72502438D02*
X145441071Y-72454819D01*
X145441071Y-72454819D02*
X145631547Y-72454819D01*
X145631547Y-72454819D02*
X145726785Y-72502438D01*
X145726785Y-72502438D02*
X145822023Y-72597676D01*
X145822023Y-72597676D02*
X145869642Y-72788152D01*
X145869642Y-72788152D02*
X145869642Y-73121485D01*
X145869642Y-73121485D02*
X145822023Y-73311961D01*
X145822023Y-73311961D02*
X145726785Y-73407200D01*
X145726785Y-73407200D02*
X145631547Y-73454819D01*
X145631547Y-73454819D02*
X145441071Y-73454819D01*
X146774404Y-72454819D02*
X146298214Y-72454819D01*
X146298214Y-72454819D02*
X146250595Y-72931009D01*
X146250595Y-72931009D02*
X146298214Y-72883390D01*
X146298214Y-72883390D02*
X146393452Y-72835771D01*
X146393452Y-72835771D02*
X146631547Y-72835771D01*
X146631547Y-72835771D02*
X146726785Y-72883390D01*
X146726785Y-72883390D02*
X146774404Y-72931009D01*
X146774404Y-72931009D02*
X146822023Y-73026247D01*
X146822023Y-73026247D02*
X146822023Y-73264342D01*
X146822023Y-73264342D02*
X146774404Y-73359580D01*
X146774404Y-73359580D02*
X146726785Y-73407200D01*
X146726785Y-73407200D02*
X146631547Y-73454819D01*
X146631547Y-73454819D02*
X146393452Y-73454819D01*
X146393452Y-73454819D02*
X146298214Y-73407200D01*
X146298214Y-73407200D02*
X146250595Y-73359580D01*
X169757142Y-81854819D02*
X169423809Y-81378628D01*
X169185714Y-81854819D02*
X169185714Y-80854819D01*
X169185714Y-80854819D02*
X169566666Y-80854819D01*
X169566666Y-80854819D02*
X169661904Y-80902438D01*
X169661904Y-80902438D02*
X169709523Y-80950057D01*
X169709523Y-80950057D02*
X169757142Y-81045295D01*
X169757142Y-81045295D02*
X169757142Y-81188152D01*
X169757142Y-81188152D02*
X169709523Y-81283390D01*
X169709523Y-81283390D02*
X169661904Y-81331009D01*
X169661904Y-81331009D02*
X169566666Y-81378628D01*
X169566666Y-81378628D02*
X169185714Y-81378628D01*
X170090476Y-80854819D02*
X170709523Y-80854819D01*
X170709523Y-80854819D02*
X170376190Y-81235771D01*
X170376190Y-81235771D02*
X170519047Y-81235771D01*
X170519047Y-81235771D02*
X170614285Y-81283390D01*
X170614285Y-81283390D02*
X170661904Y-81331009D01*
X170661904Y-81331009D02*
X170709523Y-81426247D01*
X170709523Y-81426247D02*
X170709523Y-81664342D01*
X170709523Y-81664342D02*
X170661904Y-81759580D01*
X170661904Y-81759580D02*
X170614285Y-81807200D01*
X170614285Y-81807200D02*
X170519047Y-81854819D01*
X170519047Y-81854819D02*
X170233333Y-81854819D01*
X170233333Y-81854819D02*
X170138095Y-81807200D01*
X170138095Y-81807200D02*
X170090476Y-81759580D01*
X171328571Y-80854819D02*
X171423809Y-80854819D01*
X171423809Y-80854819D02*
X171519047Y-80902438D01*
X171519047Y-80902438D02*
X171566666Y-80950057D01*
X171566666Y-80950057D02*
X171614285Y-81045295D01*
X171614285Y-81045295D02*
X171661904Y-81235771D01*
X171661904Y-81235771D02*
X171661904Y-81473866D01*
X171661904Y-81473866D02*
X171614285Y-81664342D01*
X171614285Y-81664342D02*
X171566666Y-81759580D01*
X171566666Y-81759580D02*
X171519047Y-81807200D01*
X171519047Y-81807200D02*
X171423809Y-81854819D01*
X171423809Y-81854819D02*
X171328571Y-81854819D01*
X171328571Y-81854819D02*
X171233333Y-81807200D01*
X171233333Y-81807200D02*
X171185714Y-81759580D01*
X171185714Y-81759580D02*
X171138095Y-81664342D01*
X171138095Y-81664342D02*
X171090476Y-81473866D01*
X171090476Y-81473866D02*
X171090476Y-81235771D01*
X171090476Y-81235771D02*
X171138095Y-81045295D01*
X171138095Y-81045295D02*
X171185714Y-80950057D01*
X171185714Y-80950057D02*
X171233333Y-80902438D01*
X171233333Y-80902438D02*
X171328571Y-80854819D01*
X168038095Y-47354819D02*
X168609523Y-47354819D01*
X168323809Y-48354819D02*
X168323809Y-47354819D01*
X168942857Y-48354819D02*
X168942857Y-47354819D01*
X168942857Y-47354819D02*
X169323809Y-47354819D01*
X169323809Y-47354819D02*
X169419047Y-47402438D01*
X169419047Y-47402438D02*
X169466666Y-47450057D01*
X169466666Y-47450057D02*
X169514285Y-47545295D01*
X169514285Y-47545295D02*
X169514285Y-47688152D01*
X169514285Y-47688152D02*
X169466666Y-47783390D01*
X169466666Y-47783390D02*
X169419047Y-47831009D01*
X169419047Y-47831009D02*
X169323809Y-47878628D01*
X169323809Y-47878628D02*
X168942857Y-47878628D01*
X169895238Y-47450057D02*
X169942857Y-47402438D01*
X169942857Y-47402438D02*
X170038095Y-47354819D01*
X170038095Y-47354819D02*
X170276190Y-47354819D01*
X170276190Y-47354819D02*
X170371428Y-47402438D01*
X170371428Y-47402438D02*
X170419047Y-47450057D01*
X170419047Y-47450057D02*
X170466666Y-47545295D01*
X170466666Y-47545295D02*
X170466666Y-47640533D01*
X170466666Y-47640533D02*
X170419047Y-47783390D01*
X170419047Y-47783390D02*
X169847619Y-48354819D01*
X169847619Y-48354819D02*
X170466666Y-48354819D01*
X168538095Y-48802438D02*
X168442857Y-48754819D01*
X168442857Y-48754819D02*
X168300000Y-48754819D01*
X168300000Y-48754819D02*
X168157143Y-48802438D01*
X168157143Y-48802438D02*
X168061905Y-48897676D01*
X168061905Y-48897676D02*
X168014286Y-48992914D01*
X168014286Y-48992914D02*
X167966667Y-49183390D01*
X167966667Y-49183390D02*
X167966667Y-49326247D01*
X167966667Y-49326247D02*
X168014286Y-49516723D01*
X168014286Y-49516723D02*
X168061905Y-49611961D01*
X168061905Y-49611961D02*
X168157143Y-49707200D01*
X168157143Y-49707200D02*
X168300000Y-49754819D01*
X168300000Y-49754819D02*
X168395238Y-49754819D01*
X168395238Y-49754819D02*
X168538095Y-49707200D01*
X168538095Y-49707200D02*
X168585714Y-49659580D01*
X168585714Y-49659580D02*
X168585714Y-49326247D01*
X168585714Y-49326247D02*
X168395238Y-49326247D01*
X169014286Y-49754819D02*
X169014286Y-48754819D01*
X169014286Y-48754819D02*
X169585714Y-49754819D01*
X169585714Y-49754819D02*
X169585714Y-48754819D01*
X170061905Y-49754819D02*
X170061905Y-48754819D01*
X170061905Y-48754819D02*
X170300000Y-48754819D01*
X170300000Y-48754819D02*
X170442857Y-48802438D01*
X170442857Y-48802438D02*
X170538095Y-48897676D01*
X170538095Y-48897676D02*
X170585714Y-48992914D01*
X170585714Y-48992914D02*
X170633333Y-49183390D01*
X170633333Y-49183390D02*
X170633333Y-49326247D01*
X170633333Y-49326247D02*
X170585714Y-49516723D01*
X170585714Y-49516723D02*
X170538095Y-49611961D01*
X170538095Y-49611961D02*
X170442857Y-49707200D01*
X170442857Y-49707200D02*
X170300000Y-49754819D01*
X170300000Y-49754819D02*
X170061905Y-49754819D01*
X170266666Y-87054819D02*
X170266666Y-87769104D01*
X170266666Y-87769104D02*
X170219047Y-87911961D01*
X170219047Y-87911961D02*
X170123809Y-88007200D01*
X170123809Y-88007200D02*
X169980952Y-88054819D01*
X169980952Y-88054819D02*
X169885714Y-88054819D01*
X170647619Y-87054819D02*
X171266666Y-87054819D01*
X171266666Y-87054819D02*
X170933333Y-87435771D01*
X170933333Y-87435771D02*
X171076190Y-87435771D01*
X171076190Y-87435771D02*
X171171428Y-87483390D01*
X171171428Y-87483390D02*
X171219047Y-87531009D01*
X171219047Y-87531009D02*
X171266666Y-87626247D01*
X171266666Y-87626247D02*
X171266666Y-87864342D01*
X171266666Y-87864342D02*
X171219047Y-87959580D01*
X171219047Y-87959580D02*
X171171428Y-88007200D01*
X171171428Y-88007200D02*
X171076190Y-88054819D01*
X171076190Y-88054819D02*
X170790476Y-88054819D01*
X170790476Y-88054819D02*
X170695238Y-88007200D01*
X170695238Y-88007200D02*
X170647619Y-87959580D01*
X138861905Y-57554819D02*
X138861905Y-56554819D01*
X138861905Y-56554819D02*
X139100000Y-56554819D01*
X139100000Y-56554819D02*
X139242857Y-56602438D01*
X139242857Y-56602438D02*
X139338095Y-56697676D01*
X139338095Y-56697676D02*
X139385714Y-56792914D01*
X139385714Y-56792914D02*
X139433333Y-56983390D01*
X139433333Y-56983390D02*
X139433333Y-57126247D01*
X139433333Y-57126247D02*
X139385714Y-57316723D01*
X139385714Y-57316723D02*
X139338095Y-57411961D01*
X139338095Y-57411961D02*
X139242857Y-57507200D01*
X139242857Y-57507200D02*
X139100000Y-57554819D01*
X139100000Y-57554819D02*
X138861905Y-57554819D01*
X139814286Y-56650057D02*
X139861905Y-56602438D01*
X139861905Y-56602438D02*
X139957143Y-56554819D01*
X139957143Y-56554819D02*
X140195238Y-56554819D01*
X140195238Y-56554819D02*
X140290476Y-56602438D01*
X140290476Y-56602438D02*
X140338095Y-56650057D01*
X140338095Y-56650057D02*
X140385714Y-56745295D01*
X140385714Y-56745295D02*
X140385714Y-56840533D01*
X140385714Y-56840533D02*
X140338095Y-56983390D01*
X140338095Y-56983390D02*
X139766667Y-57554819D01*
X139766667Y-57554819D02*
X140385714Y-57554819D01*
X150217261Y-71650057D02*
X150122023Y-71602438D01*
X150122023Y-71602438D02*
X150026785Y-71507200D01*
X150026785Y-71507200D02*
X149883928Y-71364342D01*
X149883928Y-71364342D02*
X149788690Y-71316723D01*
X149788690Y-71316723D02*
X149693452Y-71316723D01*
X149741071Y-71554819D02*
X149645833Y-71507200D01*
X149645833Y-71507200D02*
X149550595Y-71411961D01*
X149550595Y-71411961D02*
X149502976Y-71221485D01*
X149502976Y-71221485D02*
X149502976Y-70888152D01*
X149502976Y-70888152D02*
X149550595Y-70697676D01*
X149550595Y-70697676D02*
X149645833Y-70602438D01*
X149645833Y-70602438D02*
X149741071Y-70554819D01*
X149741071Y-70554819D02*
X149931547Y-70554819D01*
X149931547Y-70554819D02*
X150026785Y-70602438D01*
X150026785Y-70602438D02*
X150122023Y-70697676D01*
X150122023Y-70697676D02*
X150169642Y-70888152D01*
X150169642Y-70888152D02*
X150169642Y-71221485D01*
X150169642Y-71221485D02*
X150122023Y-71411961D01*
X150122023Y-71411961D02*
X150026785Y-71507200D01*
X150026785Y-71507200D02*
X149931547Y-71554819D01*
X149931547Y-71554819D02*
X149741071Y-71554819D01*
X150502976Y-70554819D02*
X151169642Y-70554819D01*
X151169642Y-70554819D02*
X150741071Y-71554819D01*
X146038095Y-57854819D02*
X146609523Y-57854819D01*
X146323809Y-58854819D02*
X146323809Y-57854819D01*
X146942857Y-58854819D02*
X146942857Y-57854819D01*
X146942857Y-57854819D02*
X147323809Y-57854819D01*
X147323809Y-57854819D02*
X147419047Y-57902438D01*
X147419047Y-57902438D02*
X147466666Y-57950057D01*
X147466666Y-57950057D02*
X147514285Y-58045295D01*
X147514285Y-58045295D02*
X147514285Y-58188152D01*
X147514285Y-58188152D02*
X147466666Y-58283390D01*
X147466666Y-58283390D02*
X147419047Y-58331009D01*
X147419047Y-58331009D02*
X147323809Y-58378628D01*
X147323809Y-58378628D02*
X146942857Y-58378628D01*
X148371428Y-58188152D02*
X148371428Y-58854819D01*
X148133333Y-57807200D02*
X147895238Y-58521485D01*
X147895238Y-58521485D02*
X148514285Y-58521485D01*
X145585714Y-59454819D02*
X145919047Y-60454819D01*
X145919047Y-60454819D02*
X146252380Y-59454819D01*
X146538095Y-60407200D02*
X146680952Y-60454819D01*
X146680952Y-60454819D02*
X146919047Y-60454819D01*
X146919047Y-60454819D02*
X147014285Y-60407200D01*
X147014285Y-60407200D02*
X147061904Y-60359580D01*
X147061904Y-60359580D02*
X147109523Y-60264342D01*
X147109523Y-60264342D02*
X147109523Y-60169104D01*
X147109523Y-60169104D02*
X147061904Y-60073866D01*
X147061904Y-60073866D02*
X147014285Y-60026247D01*
X147014285Y-60026247D02*
X146919047Y-59978628D01*
X146919047Y-59978628D02*
X146728571Y-59931009D01*
X146728571Y-59931009D02*
X146633333Y-59883390D01*
X146633333Y-59883390D02*
X146585714Y-59835771D01*
X146585714Y-59835771D02*
X146538095Y-59740533D01*
X146538095Y-59740533D02*
X146538095Y-59645295D01*
X146538095Y-59645295D02*
X146585714Y-59550057D01*
X146585714Y-59550057D02*
X146633333Y-59502438D01*
X146633333Y-59502438D02*
X146728571Y-59454819D01*
X146728571Y-59454819D02*
X146966666Y-59454819D01*
X146966666Y-59454819D02*
X147109523Y-59502438D01*
X147728571Y-59978628D02*
X147728571Y-60454819D01*
X147395238Y-59454819D02*
X147728571Y-59978628D01*
X147728571Y-59978628D02*
X148061904Y-59454819D01*
X148347619Y-60407200D02*
X148490476Y-60454819D01*
X148490476Y-60454819D02*
X148728571Y-60454819D01*
X148728571Y-60454819D02*
X148823809Y-60407200D01*
X148823809Y-60407200D02*
X148871428Y-60359580D01*
X148871428Y-60359580D02*
X148919047Y-60264342D01*
X148919047Y-60264342D02*
X148919047Y-60169104D01*
X148919047Y-60169104D02*
X148871428Y-60073866D01*
X148871428Y-60073866D02*
X148823809Y-60026247D01*
X148823809Y-60026247D02*
X148728571Y-59978628D01*
X148728571Y-59978628D02*
X148538095Y-59931009D01*
X148538095Y-59931009D02*
X148442857Y-59883390D01*
X148442857Y-59883390D02*
X148395238Y-59835771D01*
X148395238Y-59835771D02*
X148347619Y-59740533D01*
X148347619Y-59740533D02*
X148347619Y-59645295D01*
X148347619Y-59645295D02*
X148395238Y-59550057D01*
X148395238Y-59550057D02*
X148442857Y-59502438D01*
X148442857Y-59502438D02*
X148538095Y-59454819D01*
X148538095Y-59454819D02*
X148776190Y-59454819D01*
X148776190Y-59454819D02*
X148919047Y-59502438D01*
X108657142Y-61359580D02*
X108609523Y-61407200D01*
X108609523Y-61407200D02*
X108466666Y-61454819D01*
X108466666Y-61454819D02*
X108371428Y-61454819D01*
X108371428Y-61454819D02*
X108228571Y-61407200D01*
X108228571Y-61407200D02*
X108133333Y-61311961D01*
X108133333Y-61311961D02*
X108085714Y-61216723D01*
X108085714Y-61216723D02*
X108038095Y-61026247D01*
X108038095Y-61026247D02*
X108038095Y-60883390D01*
X108038095Y-60883390D02*
X108085714Y-60692914D01*
X108085714Y-60692914D02*
X108133333Y-60597676D01*
X108133333Y-60597676D02*
X108228571Y-60502438D01*
X108228571Y-60502438D02*
X108371428Y-60454819D01*
X108371428Y-60454819D02*
X108466666Y-60454819D01*
X108466666Y-60454819D02*
X108609523Y-60502438D01*
X108609523Y-60502438D02*
X108657142Y-60550057D01*
X109609523Y-61454819D02*
X109038095Y-61454819D01*
X109323809Y-61454819D02*
X109323809Y-60454819D01*
X109323809Y-60454819D02*
X109228571Y-60597676D01*
X109228571Y-60597676D02*
X109133333Y-60692914D01*
X109133333Y-60692914D02*
X109038095Y-60740533D01*
X110561904Y-61454819D02*
X109990476Y-61454819D01*
X110276190Y-61454819D02*
X110276190Y-60454819D01*
X110276190Y-60454819D02*
X110180952Y-60597676D01*
X110180952Y-60597676D02*
X110085714Y-60692914D01*
X110085714Y-60692914D02*
X109990476Y-60740533D01*
X118933333Y-72754819D02*
X118600000Y-72278628D01*
X118361905Y-72754819D02*
X118361905Y-71754819D01*
X118361905Y-71754819D02*
X118742857Y-71754819D01*
X118742857Y-71754819D02*
X118838095Y-71802438D01*
X118838095Y-71802438D02*
X118885714Y-71850057D01*
X118885714Y-71850057D02*
X118933333Y-71945295D01*
X118933333Y-71945295D02*
X118933333Y-72088152D01*
X118933333Y-72088152D02*
X118885714Y-72183390D01*
X118885714Y-72183390D02*
X118838095Y-72231009D01*
X118838095Y-72231009D02*
X118742857Y-72278628D01*
X118742857Y-72278628D02*
X118361905Y-72278628D01*
X119266667Y-71754819D02*
X119933333Y-71754819D01*
X119933333Y-71754819D02*
X119504762Y-72754819D01*
X115857142Y-48304819D02*
X115523809Y-47828628D01*
X115285714Y-48304819D02*
X115285714Y-47304819D01*
X115285714Y-47304819D02*
X115666666Y-47304819D01*
X115666666Y-47304819D02*
X115761904Y-47352438D01*
X115761904Y-47352438D02*
X115809523Y-47400057D01*
X115809523Y-47400057D02*
X115857142Y-47495295D01*
X115857142Y-47495295D02*
X115857142Y-47638152D01*
X115857142Y-47638152D02*
X115809523Y-47733390D01*
X115809523Y-47733390D02*
X115761904Y-47781009D01*
X115761904Y-47781009D02*
X115666666Y-47828628D01*
X115666666Y-47828628D02*
X115285714Y-47828628D01*
X116809523Y-48304819D02*
X116238095Y-48304819D01*
X116523809Y-48304819D02*
X116523809Y-47304819D01*
X116523809Y-47304819D02*
X116428571Y-47447676D01*
X116428571Y-47447676D02*
X116333333Y-47542914D01*
X116333333Y-47542914D02*
X116238095Y-47590533D01*
X117380952Y-47733390D02*
X117285714Y-47685771D01*
X117285714Y-47685771D02*
X117238095Y-47638152D01*
X117238095Y-47638152D02*
X117190476Y-47542914D01*
X117190476Y-47542914D02*
X117190476Y-47495295D01*
X117190476Y-47495295D02*
X117238095Y-47400057D01*
X117238095Y-47400057D02*
X117285714Y-47352438D01*
X117285714Y-47352438D02*
X117380952Y-47304819D01*
X117380952Y-47304819D02*
X117571428Y-47304819D01*
X117571428Y-47304819D02*
X117666666Y-47352438D01*
X117666666Y-47352438D02*
X117714285Y-47400057D01*
X117714285Y-47400057D02*
X117761904Y-47495295D01*
X117761904Y-47495295D02*
X117761904Y-47542914D01*
X117761904Y-47542914D02*
X117714285Y-47638152D01*
X117714285Y-47638152D02*
X117666666Y-47685771D01*
X117666666Y-47685771D02*
X117571428Y-47733390D01*
X117571428Y-47733390D02*
X117380952Y-47733390D01*
X117380952Y-47733390D02*
X117285714Y-47781009D01*
X117285714Y-47781009D02*
X117238095Y-47828628D01*
X117238095Y-47828628D02*
X117190476Y-47923866D01*
X117190476Y-47923866D02*
X117190476Y-48114342D01*
X117190476Y-48114342D02*
X117238095Y-48209580D01*
X117238095Y-48209580D02*
X117285714Y-48257200D01*
X117285714Y-48257200D02*
X117380952Y-48304819D01*
X117380952Y-48304819D02*
X117571428Y-48304819D01*
X117571428Y-48304819D02*
X117666666Y-48257200D01*
X117666666Y-48257200D02*
X117714285Y-48209580D01*
X117714285Y-48209580D02*
X117761904Y-48114342D01*
X117761904Y-48114342D02*
X117761904Y-47923866D01*
X117761904Y-47923866D02*
X117714285Y-47828628D01*
X117714285Y-47828628D02*
X117666666Y-47781009D01*
X117666666Y-47781009D02*
X117571428Y-47733390D01*
X107791667Y-63907200D02*
X107934524Y-63954819D01*
X107934524Y-63954819D02*
X108172619Y-63954819D01*
X108172619Y-63954819D02*
X108267857Y-63907200D01*
X108267857Y-63907200D02*
X108315476Y-63859580D01*
X108315476Y-63859580D02*
X108363095Y-63764342D01*
X108363095Y-63764342D02*
X108363095Y-63669104D01*
X108363095Y-63669104D02*
X108315476Y-63573866D01*
X108315476Y-63573866D02*
X108267857Y-63526247D01*
X108267857Y-63526247D02*
X108172619Y-63478628D01*
X108172619Y-63478628D02*
X107982143Y-63431009D01*
X107982143Y-63431009D02*
X107886905Y-63383390D01*
X107886905Y-63383390D02*
X107839286Y-63335771D01*
X107839286Y-63335771D02*
X107791667Y-63240533D01*
X107791667Y-63240533D02*
X107791667Y-63145295D01*
X107791667Y-63145295D02*
X107839286Y-63050057D01*
X107839286Y-63050057D02*
X107886905Y-63002438D01*
X107886905Y-63002438D02*
X107982143Y-62954819D01*
X107982143Y-62954819D02*
X108220238Y-62954819D01*
X108220238Y-62954819D02*
X108363095Y-63002438D01*
X108696429Y-62954819D02*
X108934524Y-63954819D01*
X108934524Y-63954819D02*
X109125000Y-63240533D01*
X109125000Y-63240533D02*
X109315476Y-63954819D01*
X109315476Y-63954819D02*
X109553572Y-62954819D01*
X110458333Y-63954819D02*
X109886905Y-63954819D01*
X110172619Y-63954819D02*
X110172619Y-62954819D01*
X110172619Y-62954819D02*
X110077381Y-63097676D01*
X110077381Y-63097676D02*
X109982143Y-63192914D01*
X109982143Y-63192914D02*
X109886905Y-63240533D01*
X107696428Y-64354819D02*
X107886904Y-64354819D01*
X107886904Y-64354819D02*
X107982142Y-64402438D01*
X107982142Y-64402438D02*
X108077380Y-64497676D01*
X108077380Y-64497676D02*
X108124999Y-64688152D01*
X108124999Y-64688152D02*
X108124999Y-65021485D01*
X108124999Y-65021485D02*
X108077380Y-65211961D01*
X108077380Y-65211961D02*
X107982142Y-65307200D01*
X107982142Y-65307200D02*
X107886904Y-65354819D01*
X107886904Y-65354819D02*
X107696428Y-65354819D01*
X107696428Y-65354819D02*
X107601190Y-65307200D01*
X107601190Y-65307200D02*
X107505952Y-65211961D01*
X107505952Y-65211961D02*
X107458333Y-65021485D01*
X107458333Y-65021485D02*
X107458333Y-64688152D01*
X107458333Y-64688152D02*
X107505952Y-64497676D01*
X107505952Y-64497676D02*
X107601190Y-64402438D01*
X107601190Y-64402438D02*
X107696428Y-64354819D01*
X108553571Y-64688152D02*
X108553571Y-65688152D01*
X108553571Y-64735771D02*
X108648809Y-64688152D01*
X108648809Y-64688152D02*
X108839285Y-64688152D01*
X108839285Y-64688152D02*
X108934523Y-64735771D01*
X108934523Y-64735771D02*
X108982142Y-64783390D01*
X108982142Y-64783390D02*
X109029761Y-64878628D01*
X109029761Y-64878628D02*
X109029761Y-65164342D01*
X109029761Y-65164342D02*
X108982142Y-65259580D01*
X108982142Y-65259580D02*
X108934523Y-65307200D01*
X108934523Y-65307200D02*
X108839285Y-65354819D01*
X108839285Y-65354819D02*
X108648809Y-65354819D01*
X108648809Y-65354819D02*
X108553571Y-65307200D01*
X109839285Y-65307200D02*
X109744047Y-65354819D01*
X109744047Y-65354819D02*
X109553571Y-65354819D01*
X109553571Y-65354819D02*
X109458333Y-65307200D01*
X109458333Y-65307200D02*
X109410714Y-65211961D01*
X109410714Y-65211961D02*
X109410714Y-64831009D01*
X109410714Y-64831009D02*
X109458333Y-64735771D01*
X109458333Y-64735771D02*
X109553571Y-64688152D01*
X109553571Y-64688152D02*
X109744047Y-64688152D01*
X109744047Y-64688152D02*
X109839285Y-64735771D01*
X109839285Y-64735771D02*
X109886904Y-64831009D01*
X109886904Y-64831009D02*
X109886904Y-64926247D01*
X109886904Y-64926247D02*
X109410714Y-65021485D01*
X110315476Y-64688152D02*
X110315476Y-65354819D01*
X110315476Y-64783390D02*
X110363095Y-64735771D01*
X110363095Y-64735771D02*
X110458333Y-64688152D01*
X110458333Y-64688152D02*
X110601190Y-64688152D01*
X110601190Y-64688152D02*
X110696428Y-64735771D01*
X110696428Y-64735771D02*
X110744047Y-64831009D01*
X110744047Y-64831009D02*
X110744047Y-65354819D01*
X107866666Y-53754819D02*
X107866666Y-54469104D01*
X107866666Y-54469104D02*
X107819047Y-54611961D01*
X107819047Y-54611961D02*
X107723809Y-54707200D01*
X107723809Y-54707200D02*
X107580952Y-54754819D01*
X107580952Y-54754819D02*
X107485714Y-54754819D01*
X108771428Y-54088152D02*
X108771428Y-54754819D01*
X108533333Y-53707200D02*
X108295238Y-54421485D01*
X108295238Y-54421485D02*
X108914285Y-54421485D01*
X168857142Y-76354819D02*
X168523809Y-75878628D01*
X168285714Y-76354819D02*
X168285714Y-75354819D01*
X168285714Y-75354819D02*
X168666666Y-75354819D01*
X168666666Y-75354819D02*
X168761904Y-75402438D01*
X168761904Y-75402438D02*
X168809523Y-75450057D01*
X168809523Y-75450057D02*
X168857142Y-75545295D01*
X168857142Y-75545295D02*
X168857142Y-75688152D01*
X168857142Y-75688152D02*
X168809523Y-75783390D01*
X168809523Y-75783390D02*
X168761904Y-75831009D01*
X168761904Y-75831009D02*
X168666666Y-75878628D01*
X168666666Y-75878628D02*
X168285714Y-75878628D01*
X169809523Y-76354819D02*
X169238095Y-76354819D01*
X169523809Y-76354819D02*
X169523809Y-75354819D01*
X169523809Y-75354819D02*
X169428571Y-75497676D01*
X169428571Y-75497676D02*
X169333333Y-75592914D01*
X169333333Y-75592914D02*
X169238095Y-75640533D01*
X170285714Y-76354819D02*
X170476190Y-76354819D01*
X170476190Y-76354819D02*
X170571428Y-76307200D01*
X170571428Y-76307200D02*
X170619047Y-76259580D01*
X170619047Y-76259580D02*
X170714285Y-76116723D01*
X170714285Y-76116723D02*
X170761904Y-75926247D01*
X170761904Y-75926247D02*
X170761904Y-75545295D01*
X170761904Y-75545295D02*
X170714285Y-75450057D01*
X170714285Y-75450057D02*
X170666666Y-75402438D01*
X170666666Y-75402438D02*
X170571428Y-75354819D01*
X170571428Y-75354819D02*
X170380952Y-75354819D01*
X170380952Y-75354819D02*
X170285714Y-75402438D01*
X170285714Y-75402438D02*
X170238095Y-75450057D01*
X170238095Y-75450057D02*
X170190476Y-75545295D01*
X170190476Y-75545295D02*
X170190476Y-75783390D01*
X170190476Y-75783390D02*
X170238095Y-75878628D01*
X170238095Y-75878628D02*
X170285714Y-75926247D01*
X170285714Y-75926247D02*
X170380952Y-75973866D01*
X170380952Y-75973866D02*
X170571428Y-75973866D01*
X170571428Y-75973866D02*
X170666666Y-75926247D01*
X170666666Y-75926247D02*
X170714285Y-75878628D01*
X170714285Y-75878628D02*
X170761904Y-75783390D01*
X169457142Y-79254819D02*
X169123809Y-78778628D01*
X168885714Y-79254819D02*
X168885714Y-78254819D01*
X168885714Y-78254819D02*
X169266666Y-78254819D01*
X169266666Y-78254819D02*
X169361904Y-78302438D01*
X169361904Y-78302438D02*
X169409523Y-78350057D01*
X169409523Y-78350057D02*
X169457142Y-78445295D01*
X169457142Y-78445295D02*
X169457142Y-78588152D01*
X169457142Y-78588152D02*
X169409523Y-78683390D01*
X169409523Y-78683390D02*
X169361904Y-78731009D01*
X169361904Y-78731009D02*
X169266666Y-78778628D01*
X169266666Y-78778628D02*
X168885714Y-78778628D01*
X169790476Y-78254819D02*
X170409523Y-78254819D01*
X170409523Y-78254819D02*
X170076190Y-78635771D01*
X170076190Y-78635771D02*
X170219047Y-78635771D01*
X170219047Y-78635771D02*
X170314285Y-78683390D01*
X170314285Y-78683390D02*
X170361904Y-78731009D01*
X170361904Y-78731009D02*
X170409523Y-78826247D01*
X170409523Y-78826247D02*
X170409523Y-79064342D01*
X170409523Y-79064342D02*
X170361904Y-79159580D01*
X170361904Y-79159580D02*
X170314285Y-79207200D01*
X170314285Y-79207200D02*
X170219047Y-79254819D01*
X170219047Y-79254819D02*
X169933333Y-79254819D01*
X169933333Y-79254819D02*
X169838095Y-79207200D01*
X169838095Y-79207200D02*
X169790476Y-79159580D01*
X171361904Y-79254819D02*
X170790476Y-79254819D01*
X171076190Y-79254819D02*
X171076190Y-78254819D01*
X171076190Y-78254819D02*
X170980952Y-78397676D01*
X170980952Y-78397676D02*
X170885714Y-78492914D01*
X170885714Y-78492914D02*
X170790476Y-78540533D01*
D11*
%TO.C,TP1*%
X144700000Y-50500000D02*
G75*
G03*
X144700000Y-50500000I-700000J0D01*
G01*
%TO.C,TP3*%
X132450000Y-58250000D02*
G75*
G03*
X132450000Y-58250000I-700000J0D01*
G01*
%TO.C,R12*%
X132735000Y-73772936D02*
X132735000Y-74227064D01*
X131265000Y-73772936D02*
X131265000Y-74227064D01*
%TO.C,F2*%
X160750000Y-88500000D02*
X160750000Y-87500000D01*
X160750000Y-87500000D02*
X160750000Y-82500000D01*
X160750000Y-82500000D02*
X148750000Y-82500000D01*
X148750000Y-88500000D02*
X160750000Y-88500000D01*
X148750000Y-82500000D02*
X148750000Y-88500000D01*
D10*
%TO.C,U5*%
X112875000Y-55625000D02*
X112875000Y-55850000D01*
X112875000Y-55625000D02*
X113200000Y-55625000D01*
X112875000Y-55850000D02*
X111450000Y-55850000D01*
X112875000Y-62875000D02*
X112875000Y-62550000D01*
X112875000Y-62875000D02*
X113200000Y-62875000D01*
X120125000Y-55625000D02*
X119800000Y-55625000D01*
X120125000Y-55625000D02*
X120125000Y-55950000D01*
X120125000Y-62875000D02*
X119800000Y-62875000D01*
X120125000Y-62875000D02*
X120125000Y-62550000D01*
D11*
%TO.C,C34*%
X153985580Y-66165000D02*
X153704420Y-66165000D01*
X153985580Y-65145000D02*
X153704420Y-65145000D01*
%TO.C,D10*%
X161440000Y-84050000D02*
X161440000Y-88350000D01*
X161440000Y-84050000D02*
X167250000Y-84050000D01*
X161440000Y-88350000D02*
X167250000Y-88350000D01*
%TO.C,D6*%
X124890000Y-80150000D02*
X124890000Y-81850000D01*
X124890000Y-80150000D02*
X127550000Y-80150000D01*
X124890000Y-81850000D02*
X127550000Y-81850000D01*
%TO.C,Q3*%
X123250000Y-68560000D02*
X124925000Y-68560000D01*
X123250000Y-68560000D02*
X122600000Y-68560000D01*
X123250000Y-65440000D02*
X123900000Y-65440000D01*
X123250000Y-65440000D02*
X122600000Y-65440000D01*
%TO.C,D9*%
X161440000Y-79550000D02*
X161440000Y-83850000D01*
X161440000Y-79550000D02*
X167250000Y-79550000D01*
X161440000Y-83850000D02*
X167250000Y-83850000D01*
%TO.C,C22*%
X168859420Y-67690000D02*
X169140580Y-67690000D01*
X168859420Y-68710000D02*
X169140580Y-68710000D01*
%TO.C,U6*%
X161590000Y-75410000D02*
X161590000Y-74860000D01*
X162140000Y-71190000D02*
X161590000Y-71190000D01*
X162140000Y-75410000D02*
X161590000Y-75410000D01*
X165260000Y-71190000D02*
X165810000Y-71190000D01*
X165260000Y-75410000D02*
X165810000Y-75410000D01*
X165810000Y-71190000D02*
X165810000Y-71740000D01*
X165810000Y-75410000D02*
X165810000Y-74860000D01*
%TO.C,R16*%
X126235000Y-77222936D02*
X126235000Y-77677064D01*
X124765000Y-77222936D02*
X124765000Y-77677064D01*
%TO.C,X1*%
X100225000Y-62860000D02*
X100225000Y-56610000D01*
X105275000Y-62860000D02*
X105275000Y-56610000D01*
X100225000Y-62860000D02*
G75*
G03*
X105275000Y-62860000I2525000J0D01*
G01*
X105275000Y-56610000D02*
G75*
G03*
X100225000Y-56610000I-2525000J0D01*
G01*
%TO.C,R17*%
X154002500Y-71927064D02*
X154002500Y-70472936D01*
X155822500Y-71927064D02*
X155822500Y-70472936D01*
%TO.C,C24*%
X116109420Y-50990000D02*
X116390580Y-50990000D01*
X116109420Y-52010000D02*
X116390580Y-52010000D01*
%TO.C,C31*%
X173240000Y-61911252D02*
X173240000Y-60488748D01*
X175960000Y-61911252D02*
X175960000Y-60488748D01*
%TO.C,R25*%
X120977064Y-52235000D02*
X120522936Y-52235000D01*
X120977064Y-50765000D02*
X120522936Y-50765000D01*
%TO.C,J1*%
X175670000Y-50270000D02*
X175670000Y-52870000D01*
X175670000Y-50270000D02*
X178330000Y-50270000D01*
X175670000Y-52870000D02*
X178330000Y-52870000D01*
X177000000Y-47670000D02*
X178330000Y-47670000D01*
X178330000Y-47670000D02*
X178330000Y-49000000D01*
X178330000Y-50270000D02*
X178330000Y-52870000D01*
%TO.C,D5*%
X120860000Y-77350000D02*
X120860000Y-75650000D01*
X120860000Y-77350000D02*
X118200000Y-77350000D01*
X120860000Y-75650000D02*
X118200000Y-75650000D01*
%TO.C,R11*%
X132735000Y-77272936D02*
X132735000Y-77727064D01*
X131265000Y-77272936D02*
X131265000Y-77727064D01*
%TO.C,C15*%
X130510000Y-73859420D02*
X130510000Y-74140580D01*
X129490000Y-73859420D02*
X129490000Y-74140580D01*
%TO.C,Q4*%
X115775000Y-67440000D02*
X114100000Y-67440000D01*
X115775000Y-67440000D02*
X116425000Y-67440000D01*
X115775000Y-70560000D02*
X115125000Y-70560000D01*
X115775000Y-70560000D02*
X116425000Y-70560000D01*
%TO.C,U2*%
X99880000Y-83250000D02*
X134880000Y-83250000D01*
X134880000Y-83250000D02*
X134880000Y-88250000D01*
X134880000Y-88250000D02*
X99880000Y-88250000D01*
X99880000Y-88250000D02*
X99880000Y-83250000D01*
X100880000Y-88250000D02*
X99880000Y-88250000D01*
X99880000Y-87250000D01*
X100880000Y-88250000D01*
G36*
X100880000Y-88250000D02*
G01*
X99880000Y-88250000D01*
X99880000Y-87250000D01*
X100880000Y-88250000D01*
G37*
%TO.C,R20*%
X169827064Y-74735000D02*
X169372936Y-74735000D01*
X169827064Y-73265000D02*
X169372936Y-73265000D01*
%TO.C,R21*%
X157635000Y-76372936D02*
X157635000Y-76827064D01*
X156165000Y-76372936D02*
X156165000Y-76827064D01*
%TO.C,C13*%
X176736252Y-68197500D02*
X175313748Y-68197500D01*
X176736252Y-65477500D02*
X175313748Y-65477500D01*
%TO.C,Q9*%
X172035000Y-60312500D02*
X172035000Y-58637500D01*
X172035000Y-60312500D02*
X172035000Y-60962500D01*
X168915000Y-60312500D02*
X168915000Y-59662500D01*
X168915000Y-60312500D02*
X168915000Y-60962500D01*
%TO.C,C6*%
X160911000Y-57025242D02*
X160911000Y-56395242D01*
X160596000Y-56710242D02*
X161226000Y-56710242D01*
X159520000Y-53525001D02*
X165980000Y-53525001D01*
X159520000Y-53485001D02*
X165980000Y-53485001D01*
X159520000Y-53445001D02*
X165980000Y-53445001D01*
X159522000Y-53405001D02*
X165978000Y-53405001D01*
X159523000Y-53365001D02*
X165977000Y-53365001D01*
X159526000Y-53325001D02*
X165974000Y-53325001D01*
X159528000Y-53285001D02*
X161710000Y-53285001D01*
X163790000Y-53285001D02*
X165972000Y-53285001D01*
X159532000Y-53245001D02*
X161710000Y-53245001D01*
X163790000Y-53245001D02*
X165968000Y-53245001D01*
X159535000Y-53205001D02*
X161710000Y-53205001D01*
X163790000Y-53205001D02*
X165965000Y-53205001D01*
X159539000Y-53165001D02*
X161710000Y-53165001D01*
X163790000Y-53165001D02*
X165961000Y-53165001D01*
X159544000Y-53125001D02*
X161710000Y-53125001D01*
X163790000Y-53125001D02*
X165956000Y-53125001D01*
X159549000Y-53085001D02*
X161710000Y-53085001D01*
X163790000Y-53085001D02*
X165951000Y-53085001D01*
X159555000Y-53045001D02*
X161710000Y-53045001D01*
X163790000Y-53045001D02*
X165945000Y-53045001D01*
X159561000Y-53005001D02*
X161710000Y-53005001D01*
X163790000Y-53005001D02*
X165939000Y-53005001D01*
X159568000Y-52965001D02*
X161710000Y-52965001D01*
X163790000Y-52965001D02*
X165932000Y-52965001D01*
X159575000Y-52925001D02*
X161710000Y-52925001D01*
X163790000Y-52925001D02*
X165925000Y-52925001D01*
X159583000Y-52885001D02*
X161710000Y-52885001D01*
X163790000Y-52885001D02*
X165917000Y-52885001D01*
X159591000Y-52845001D02*
X161710000Y-52845001D01*
X163790000Y-52845001D02*
X165909000Y-52845001D01*
X159600000Y-52804001D02*
X161710000Y-52804001D01*
X163790000Y-52804001D02*
X165900000Y-52804001D01*
X159609000Y-52764001D02*
X161710000Y-52764001D01*
X163790000Y-52764001D02*
X165891000Y-52764001D01*
X159619000Y-52724001D02*
X161710000Y-52724001D01*
X163790000Y-52724001D02*
X165881000Y-52724001D01*
X159629000Y-52684001D02*
X161710000Y-52684001D01*
X163790000Y-52684001D02*
X165871000Y-52684001D01*
X159640000Y-52644001D02*
X161710000Y-52644001D01*
X163790000Y-52644001D02*
X165860000Y-52644001D01*
X159652000Y-52604001D02*
X161710000Y-52604001D01*
X163790000Y-52604001D02*
X165848000Y-52604001D01*
X159664000Y-52564001D02*
X161710000Y-52564001D01*
X163790000Y-52564001D02*
X165836000Y-52564001D01*
X159676000Y-52524001D02*
X161710000Y-52524001D01*
X163790000Y-52524001D02*
X165824000Y-52524001D01*
X159689000Y-52484001D02*
X161710000Y-52484001D01*
X163790000Y-52484001D02*
X165811000Y-52484001D01*
X159703000Y-52444001D02*
X161710000Y-52444001D01*
X163790000Y-52444001D02*
X165797000Y-52444001D01*
X159717000Y-52404001D02*
X161710000Y-52404001D01*
X163790000Y-52404001D02*
X165783000Y-52404001D01*
X159732000Y-52364001D02*
X161710000Y-52364001D01*
X163790000Y-52364001D02*
X165768000Y-52364001D01*
X159748000Y-52324001D02*
X161710000Y-52324001D01*
X163790000Y-52324001D02*
X165752000Y-52324001D01*
X159764000Y-52284001D02*
X161710000Y-52284001D01*
X163790000Y-52284001D02*
X165736000Y-52284001D01*
X159780000Y-52244001D02*
X161710000Y-52244001D01*
X163790000Y-52244001D02*
X165720000Y-52244001D01*
X159798000Y-52204001D02*
X161710000Y-52204001D01*
X163790000Y-52204001D02*
X165702000Y-52204001D01*
X159816000Y-52164001D02*
X161710000Y-52164001D01*
X163790000Y-52164001D02*
X165684000Y-52164001D01*
X159834000Y-52124001D02*
X161710000Y-52124001D01*
X163790000Y-52124001D02*
X165666000Y-52124001D01*
X159854000Y-52084001D02*
X161710000Y-52084001D01*
X163790000Y-52084001D02*
X165646000Y-52084001D01*
X159874000Y-52044001D02*
X161710000Y-52044001D01*
X163790000Y-52044001D02*
X165626000Y-52044001D01*
X159894000Y-52004001D02*
X161710000Y-52004001D01*
X163790000Y-52004001D02*
X165606000Y-52004001D01*
X159916000Y-51964001D02*
X161710000Y-51964001D01*
X163790000Y-51964001D02*
X165584000Y-51964001D01*
X159938000Y-51924001D02*
X161710000Y-51924001D01*
X163790000Y-51924001D02*
X165562000Y-51924001D01*
X159960000Y-51884001D02*
X161710000Y-51884001D01*
X163790000Y-51884001D02*
X165540000Y-51884001D01*
X159984000Y-51844001D02*
X161710000Y-51844001D01*
X163790000Y-51844001D02*
X165516000Y-51844001D01*
X160008000Y-51804001D02*
X161710000Y-51804001D01*
X163790000Y-51804001D02*
X165492000Y-51804001D01*
X160034000Y-51764001D02*
X161710000Y-51764001D01*
X163790000Y-51764001D02*
X165466000Y-51764001D01*
X160060000Y-51724001D02*
X161710000Y-51724001D01*
X163790000Y-51724001D02*
X165440000Y-51724001D01*
X160086000Y-51684001D02*
X161710000Y-51684001D01*
X163790000Y-51684001D02*
X165414000Y-51684001D01*
X160114000Y-51644001D02*
X161710000Y-51644001D01*
X163790000Y-51644001D02*
X165386000Y-51644001D01*
X160143000Y-51604001D02*
X161710000Y-51604001D01*
X163790000Y-51604001D02*
X165357000Y-51604001D01*
X160172000Y-51564001D02*
X161710000Y-51564001D01*
X163790000Y-51564001D02*
X165328000Y-51564001D01*
X160202000Y-51524001D02*
X161710000Y-51524001D01*
X163790000Y-51524001D02*
X165298000Y-51524001D01*
X160234000Y-51484001D02*
X161710000Y-51484001D01*
X163790000Y-51484001D02*
X165266000Y-51484001D01*
X160266000Y-51444001D02*
X161710000Y-51444001D01*
X163790000Y-51444001D02*
X165234000Y-51444001D01*
X160300000Y-51404001D02*
X161710000Y-51404001D01*
X163790000Y-51404001D02*
X165200000Y-51404001D01*
X160334000Y-51364001D02*
X161710000Y-51364001D01*
X163790000Y-51364001D02*
X165166000Y-51364001D01*
X160370000Y-51324001D02*
X161710000Y-51324001D01*
X163790000Y-51324001D02*
X165130000Y-51324001D01*
X160407000Y-51284001D02*
X161710000Y-51284001D01*
X163790000Y-51284001D02*
X165093000Y-51284001D01*
X160445000Y-51244001D02*
X161710000Y-51244001D01*
X163790000Y-51244001D02*
X165055000Y-51244001D01*
X160485000Y-51204001D02*
X165015000Y-51204001D01*
X160526000Y-51164001D02*
X164974000Y-51164001D01*
X160568000Y-51124001D02*
X164932000Y-51124001D01*
X160613000Y-51084001D02*
X164887000Y-51084001D01*
X160658000Y-51044001D02*
X164842000Y-51044001D01*
X160706000Y-51004001D02*
X164794000Y-51004001D01*
X160755000Y-50964001D02*
X164745000Y-50964001D01*
X160806000Y-50924001D02*
X164694000Y-50924001D01*
X160860000Y-50884001D02*
X164640000Y-50884001D01*
X160916000Y-50844001D02*
X164584000Y-50844001D01*
X160974000Y-50804001D02*
X164526000Y-50804001D01*
X161036000Y-50764001D02*
X164464000Y-50764001D01*
X161100000Y-50724001D02*
X164400000Y-50724001D01*
X161169000Y-50684001D02*
X164331000Y-50684001D01*
X161241000Y-50644001D02*
X164259000Y-50644001D01*
X161318000Y-50604001D02*
X164182000Y-50604001D01*
X161400000Y-50564001D02*
X164100000Y-50564001D01*
X161488000Y-50524001D02*
X164012000Y-50524001D01*
X161585000Y-50484001D02*
X163915000Y-50484001D01*
X161691000Y-50444001D02*
X163809000Y-50444001D01*
X161810000Y-50404001D02*
X163690000Y-50404001D01*
X161948000Y-50364001D02*
X163552000Y-50364001D01*
X162117000Y-50324001D02*
X163383000Y-50324001D01*
X162348000Y-50284001D02*
X163152000Y-50284001D01*
X166020000Y-53525001D02*
G75*
G03*
X166020000Y-53525001I-3270000J0D01*
G01*
%TO.C,C5*%
X168161000Y-57000241D02*
X168161000Y-56370241D01*
X167846000Y-56685241D02*
X168476000Y-56685241D01*
X166770000Y-53500000D02*
X173230000Y-53500000D01*
X166770000Y-53460000D02*
X173230000Y-53460000D01*
X166770000Y-53420000D02*
X173230000Y-53420000D01*
X166772000Y-53380000D02*
X173228000Y-53380000D01*
X166773000Y-53340000D02*
X173227000Y-53340000D01*
X166776000Y-53300000D02*
X173224000Y-53300000D01*
X166778000Y-53260000D02*
X168960000Y-53260000D01*
X171040000Y-53260000D02*
X173222000Y-53260000D01*
X166782000Y-53220000D02*
X168960000Y-53220000D01*
X171040000Y-53220000D02*
X173218000Y-53220000D01*
X166785000Y-53180000D02*
X168960000Y-53180000D01*
X171040000Y-53180000D02*
X173215000Y-53180000D01*
X166789000Y-53140000D02*
X168960000Y-53140000D01*
X171040000Y-53140000D02*
X173211000Y-53140000D01*
X166794000Y-53100000D02*
X168960000Y-53100000D01*
X171040000Y-53100000D02*
X173206000Y-53100000D01*
X166799000Y-53060000D02*
X168960000Y-53060000D01*
X171040000Y-53060000D02*
X173201000Y-53060000D01*
X166805000Y-53020000D02*
X168960000Y-53020000D01*
X171040000Y-53020000D02*
X173195000Y-53020000D01*
X166811000Y-52980000D02*
X168960000Y-52980000D01*
X171040000Y-52980000D02*
X173189000Y-52980000D01*
X166818000Y-52940000D02*
X168960000Y-52940000D01*
X171040000Y-52940000D02*
X173182000Y-52940000D01*
X166825000Y-52900000D02*
X168960000Y-52900000D01*
X171040000Y-52900000D02*
X173175000Y-52900000D01*
X166833000Y-52860000D02*
X168960000Y-52860000D01*
X171040000Y-52860000D02*
X173167000Y-52860000D01*
X166841000Y-52820000D02*
X168960000Y-52820000D01*
X171040000Y-52820000D02*
X173159000Y-52820000D01*
X166850000Y-52779000D02*
X168960000Y-52779000D01*
X171040000Y-52779000D02*
X173150000Y-52779000D01*
X166859000Y-52739000D02*
X168960000Y-52739000D01*
X171040000Y-52739000D02*
X173141000Y-52739000D01*
X166869000Y-52699000D02*
X168960000Y-52699000D01*
X171040000Y-52699000D02*
X173131000Y-52699000D01*
X166879000Y-52659000D02*
X168960000Y-52659000D01*
X171040000Y-52659000D02*
X173121000Y-52659000D01*
X166890000Y-52619000D02*
X168960000Y-52619000D01*
X171040000Y-52619000D02*
X173110000Y-52619000D01*
X166902000Y-52579000D02*
X168960000Y-52579000D01*
X171040000Y-52579000D02*
X173098000Y-52579000D01*
X166914000Y-52539000D02*
X168960000Y-52539000D01*
X171040000Y-52539000D02*
X173086000Y-52539000D01*
X166926000Y-52499000D02*
X168960000Y-52499000D01*
X171040000Y-52499000D02*
X173074000Y-52499000D01*
X166939000Y-52459000D02*
X168960000Y-52459000D01*
X171040000Y-52459000D02*
X173061000Y-52459000D01*
X166953000Y-52419000D02*
X168960000Y-52419000D01*
X171040000Y-52419000D02*
X173047000Y-52419000D01*
X166967000Y-52379000D02*
X168960000Y-52379000D01*
X171040000Y-52379000D02*
X173033000Y-52379000D01*
X166982000Y-52339000D02*
X168960000Y-52339000D01*
X171040000Y-52339000D02*
X173018000Y-52339000D01*
X166998000Y-52299000D02*
X168960000Y-52299000D01*
X171040000Y-52299000D02*
X173002000Y-52299000D01*
X167014000Y-52259000D02*
X168960000Y-52259000D01*
X171040000Y-52259000D02*
X172986000Y-52259000D01*
X167030000Y-52219000D02*
X168960000Y-52219000D01*
X171040000Y-52219000D02*
X172970000Y-52219000D01*
X167048000Y-52179000D02*
X168960000Y-52179000D01*
X171040000Y-52179000D02*
X172952000Y-52179000D01*
X167066000Y-52139000D02*
X168960000Y-52139000D01*
X171040000Y-52139000D02*
X172934000Y-52139000D01*
X167084000Y-52099000D02*
X168960000Y-52099000D01*
X171040000Y-52099000D02*
X172916000Y-52099000D01*
X167104000Y-52059000D02*
X168960000Y-52059000D01*
X171040000Y-52059000D02*
X172896000Y-52059000D01*
X167124000Y-52019000D02*
X168960000Y-52019000D01*
X171040000Y-52019000D02*
X172876000Y-52019000D01*
X167144000Y-51979000D02*
X168960000Y-51979000D01*
X171040000Y-51979000D02*
X172856000Y-51979000D01*
X167166000Y-51939000D02*
X168960000Y-51939000D01*
X171040000Y-51939000D02*
X172834000Y-51939000D01*
X167188000Y-51899000D02*
X168960000Y-51899000D01*
X171040000Y-51899000D02*
X172812000Y-51899000D01*
X167210000Y-51859000D02*
X168960000Y-51859000D01*
X171040000Y-51859000D02*
X172790000Y-51859000D01*
X167234000Y-51819000D02*
X168960000Y-51819000D01*
X171040000Y-51819000D02*
X172766000Y-51819000D01*
X167258000Y-51779000D02*
X168960000Y-51779000D01*
X171040000Y-51779000D02*
X172742000Y-51779000D01*
X167284000Y-51739000D02*
X168960000Y-51739000D01*
X171040000Y-51739000D02*
X172716000Y-51739000D01*
X167310000Y-51699000D02*
X168960000Y-51699000D01*
X171040000Y-51699000D02*
X172690000Y-51699000D01*
X167336000Y-51659000D02*
X168960000Y-51659000D01*
X171040000Y-51659000D02*
X172664000Y-51659000D01*
X167364000Y-51619000D02*
X168960000Y-51619000D01*
X171040000Y-51619000D02*
X172636000Y-51619000D01*
X167393000Y-51579000D02*
X168960000Y-51579000D01*
X171040000Y-51579000D02*
X172607000Y-51579000D01*
X167422000Y-51539000D02*
X168960000Y-51539000D01*
X171040000Y-51539000D02*
X172578000Y-51539000D01*
X167452000Y-51499000D02*
X168960000Y-51499000D01*
X171040000Y-51499000D02*
X172548000Y-51499000D01*
X167484000Y-51459000D02*
X168960000Y-51459000D01*
X171040000Y-51459000D02*
X172516000Y-51459000D01*
X167516000Y-51419000D02*
X168960000Y-51419000D01*
X171040000Y-51419000D02*
X172484000Y-51419000D01*
X167550000Y-51379000D02*
X168960000Y-51379000D01*
X171040000Y-51379000D02*
X172450000Y-51379000D01*
X167584000Y-51339000D02*
X168960000Y-51339000D01*
X171040000Y-51339000D02*
X172416000Y-51339000D01*
X167620000Y-51299000D02*
X168960000Y-51299000D01*
X171040000Y-51299000D02*
X172380000Y-51299000D01*
X167657000Y-51259000D02*
X168960000Y-51259000D01*
X171040000Y-51259000D02*
X172343000Y-51259000D01*
X167695000Y-51219000D02*
X168960000Y-51219000D01*
X171040000Y-51219000D02*
X172305000Y-51219000D01*
X167735000Y-51179000D02*
X172265000Y-51179000D01*
X167776000Y-51139000D02*
X172224000Y-51139000D01*
X167818000Y-51099000D02*
X172182000Y-51099000D01*
X167863000Y-51059000D02*
X172137000Y-51059000D01*
X167908000Y-51019000D02*
X172092000Y-51019000D01*
X167956000Y-50979000D02*
X172044000Y-50979000D01*
X168005000Y-50939000D02*
X171995000Y-50939000D01*
X168056000Y-50899000D02*
X171944000Y-50899000D01*
X168110000Y-50859000D02*
X171890000Y-50859000D01*
X168166000Y-50819000D02*
X171834000Y-50819000D01*
X168224000Y-50779000D02*
X171776000Y-50779000D01*
X168286000Y-50739000D02*
X171714000Y-50739000D01*
X168350000Y-50699000D02*
X171650000Y-50699000D01*
X168419000Y-50659000D02*
X171581000Y-50659000D01*
X168491000Y-50619000D02*
X171509000Y-50619000D01*
X168568000Y-50579000D02*
X171432000Y-50579000D01*
X168650000Y-50539000D02*
X171350000Y-50539000D01*
X168738000Y-50499000D02*
X171262000Y-50499000D01*
X168835000Y-50459000D02*
X171165000Y-50459000D01*
X168941000Y-50419000D02*
X171059000Y-50419000D01*
X169060000Y-50379000D02*
X170940000Y-50379000D01*
X169198000Y-50339000D02*
X170802000Y-50339000D01*
X169367000Y-50299000D02*
X170633000Y-50299000D01*
X169598000Y-50259000D02*
X170402000Y-50259000D01*
X173270000Y-53500000D02*
G75*
G03*
X173270000Y-53500000I-3270000J0D01*
G01*
%TO.C,Q8*%
X172085000Y-64937500D02*
X172085000Y-63262500D01*
X172085000Y-64937500D02*
X172085000Y-65587500D01*
X168965000Y-64937500D02*
X168965000Y-64287500D01*
X168965000Y-64937500D02*
X168965000Y-65587500D01*
%TO.C,C19*%
X126860000Y-49788748D02*
X126860000Y-51211252D01*
X124140000Y-49788748D02*
X124140000Y-51211252D01*
%TO.C,C16*%
X122540000Y-58940580D02*
X122540000Y-58659420D01*
X123560000Y-58940580D02*
X123560000Y-58659420D01*
%TO.C,R6*%
X120735000Y-67972936D02*
X120735000Y-68427064D01*
X119265000Y-67972936D02*
X119265000Y-68427064D01*
%TO.C,U1*%
X100400000Y-73500000D02*
X112400000Y-73500000D01*
X112400000Y-73500000D02*
X112400000Y-80500000D01*
X112400000Y-80500000D02*
X100400000Y-80500000D01*
X100400000Y-80500000D02*
X100400000Y-73500000D01*
X103960000Y-80500000D02*
X108960000Y-80500000D01*
X108960000Y-80500000D02*
X108960000Y-79000000D01*
X108960000Y-79000000D02*
X103960000Y-79000000D01*
X103960000Y-79000000D02*
X103960000Y-80500000D01*
X101460000Y-80500000D02*
X100400000Y-80500000D01*
X100460000Y-79500000D01*
X101460000Y-80500000D01*
G36*
X101460000Y-80500000D02*
G01*
X100400000Y-80500000D01*
X100460000Y-79500000D01*
X101460000Y-80500000D01*
G37*
%TO.C,JP1*%
X159000000Y-80300000D02*
X159000000Y-77500000D01*
X161000000Y-80300000D02*
X159000000Y-80300000D01*
X159000000Y-77500000D02*
X161000000Y-77500000D01*
X161000000Y-77500000D02*
X161000000Y-80300000D01*
%TO.C,C21*%
X156302500Y-72240580D02*
X156302500Y-71959420D01*
X157322500Y-72240580D02*
X157322500Y-71959420D01*
%TO.C,C18*%
X176134420Y-73577500D02*
X176415580Y-73577500D01*
X176134420Y-74597500D02*
X176415580Y-74597500D01*
%TO.C,D3*%
X124500000Y-75360000D02*
X126200000Y-75360000D01*
X124500000Y-75360000D02*
X124500000Y-72700000D01*
X126200000Y-75360000D02*
X126200000Y-72700000D01*
%TO.C,TP6*%
X173000000Y-70100000D02*
G75*
G03*
X173000000Y-70100000I-700000J0D01*
G01*
%TO.C,D1*%
X138430000Y-66455000D02*
X138430000Y-66920000D01*
X138430000Y-69080000D02*
X138430000Y-69545000D01*
X143777814Y-66919173D02*
G75*
G03*
X138430001Y-66455170I-2787814J-1080827D01*
G01*
X143244478Y-66919572D02*
G75*
G03*
X138735317Y-66920000I-2254478J-1080428D01*
G01*
X138735316Y-69080000D02*
G75*
G03*
X143244479Y-69080429I2254684J1080000D01*
G01*
X138430001Y-69544830D02*
G75*
G03*
X143777814Y-69080827I2559999J1544830D01*
G01*
%TO.C,L3*%
X167675000Y-66150000D02*
X167675000Y-64650000D01*
X167675000Y-59350000D02*
X167675000Y-60850000D01*
X167675000Y-59350000D02*
X160275000Y-59350000D01*
X160275000Y-66150000D02*
X167675000Y-66150000D01*
X160275000Y-66150000D02*
X160275000Y-64650000D01*
X160275000Y-59350000D02*
X160275000Y-60850000D01*
%TO.C,Q6*%
X128750000Y-75940000D02*
X127075000Y-75940000D01*
X128750000Y-75940000D02*
X129400000Y-75940000D01*
X128750000Y-79060000D02*
X128100000Y-79060000D01*
X128750000Y-79060000D02*
X129400000Y-79060000D01*
%TO.C,D7*%
X152222500Y-81250000D02*
X152222500Y-77950000D01*
X152222500Y-81250000D02*
X146712500Y-81250000D01*
X152222500Y-77950000D02*
X146712500Y-77950000D01*
D10*
%TO.C,RV1*%
X146225000Y-87500000D02*
X146225000Y-83000000D01*
X146225000Y-87500000D02*
X139225000Y-87500000D01*
X146225000Y-83000000D02*
X139225000Y-83000000D01*
X139225000Y-87500000D02*
X139225000Y-83000000D01*
D11*
%TO.C,U3*%
X128415000Y-56200000D02*
X128415000Y-50190000D01*
X135235000Y-53950000D02*
X135235000Y-50190000D01*
X128415000Y-50190000D02*
X129675000Y-50190000D01*
X135235000Y-50190000D02*
X133975000Y-50190000D01*
%TO.C,TP5*%
X138425000Y-86750000D02*
G75*
G03*
X138425000Y-86750000I-700000J0D01*
G01*
%TO.C,R26*%
X120977064Y-50147500D02*
X120522936Y-50147500D01*
X120977064Y-48677500D02*
X120522936Y-48677500D01*
%TO.C,C14*%
X137538748Y-48140000D02*
X138961252Y-48140000D01*
X137538748Y-50860000D02*
X138961252Y-50860000D01*
%TO.C,R23*%
X154689564Y-80335000D02*
X154235436Y-80335000D01*
X154689564Y-78865000D02*
X154235436Y-78865000D01*
%TO.C,U4*%
X174715000Y-70775000D02*
X174715000Y-72450000D01*
X174715000Y-70775000D02*
X174715000Y-70125000D01*
X177835000Y-70775000D02*
X177835000Y-71425000D01*
X177835000Y-70775000D02*
X177835000Y-70125000D01*
%TO.C,D4*%
X120860000Y-74850000D02*
X120860000Y-73150000D01*
X120860000Y-74850000D02*
X118200000Y-74850000D01*
X120860000Y-73150000D02*
X118200000Y-73150000D01*
%TO.C,F1*%
X157500000Y-53500000D02*
X157500000Y-52500000D01*
X157500000Y-52500000D02*
X157500000Y-47500000D01*
X157500000Y-47500000D02*
X145500000Y-47500000D01*
X145500000Y-53500000D02*
X157500000Y-53500000D01*
X145500000Y-47500000D02*
X145500000Y-53500000D01*
%TO.C,R28*%
X154597064Y-64065000D02*
X153142936Y-64065000D01*
X154597064Y-62245000D02*
X153142936Y-62245000D01*
%TO.C,R22*%
X166627064Y-78935000D02*
X166172936Y-78935000D01*
X166627064Y-77465000D02*
X166172936Y-77465000D01*
%TO.C,SW2*%
X126750000Y-66250000D02*
X126750000Y-66750000D01*
X126750000Y-66250000D02*
X133250000Y-66250000D01*
X126750000Y-69750000D02*
X126750000Y-69250000D01*
X126750000Y-69750000D02*
X133250000Y-69750000D01*
X128000000Y-68000000D02*
X129250000Y-68000000D01*
X129250000Y-67250000D02*
X130750000Y-67250000D01*
X129250000Y-67750000D02*
X129250000Y-68000000D01*
X130000000Y-66750000D02*
X130000000Y-67250000D01*
X130750000Y-68000000D02*
X130750000Y-67750000D01*
X132000000Y-68000000D02*
X130750000Y-68000000D01*
X133250000Y-66250000D02*
X133250000Y-66750000D01*
X133250000Y-69750000D02*
X133250000Y-69250000D01*
%TO.C,Q5*%
X146012500Y-77060000D02*
X147687500Y-77060000D01*
X146012500Y-77060000D02*
X145362500Y-77060000D01*
X146012500Y-73940000D02*
X146662500Y-73940000D01*
X146012500Y-73940000D02*
X145362500Y-73940000D01*
%TO.C,R30*%
X176427064Y-76935000D02*
X175972936Y-76935000D01*
X176427064Y-75465000D02*
X175972936Y-75465000D01*
%TO.C,TP2*%
X174700000Y-49000000D02*
G75*
G03*
X174700000Y-49000000I-1700000J0D01*
G01*
%TO.C,J3*%
X171750000Y-88100000D02*
X173000000Y-88100000D01*
X172040000Y-87810000D02*
X178010000Y-87810000D01*
X178010000Y-87810000D02*
X178010000Y-77690000D01*
X172050000Y-87800000D02*
X172800000Y-87800000D01*
X172800000Y-87800000D02*
X172800000Y-86000000D01*
X174300000Y-87800000D02*
X174300000Y-87050000D01*
X174300000Y-87050000D02*
X177250000Y-87050000D01*
X177250000Y-87050000D02*
X177250000Y-82750000D01*
X171750000Y-86850000D02*
X171750000Y-88100000D01*
X172050000Y-86000000D02*
X172050000Y-87800000D01*
X172800000Y-86000000D02*
X172050000Y-86000000D01*
X172050000Y-84500000D02*
X172800000Y-84500000D01*
X172800000Y-84500000D02*
X172800000Y-81000000D01*
X172050000Y-81000000D02*
X172050000Y-84500000D01*
X172800000Y-81000000D02*
X172050000Y-81000000D01*
X172050000Y-79500000D02*
X172800000Y-79500000D01*
X172800000Y-79500000D02*
X172800000Y-77700000D01*
X174300000Y-78450000D02*
X177250000Y-78450000D01*
X177250000Y-78450000D02*
X177250000Y-82750000D01*
X172050000Y-77700000D02*
X172050000Y-79500000D01*
X172800000Y-77700000D02*
X172050000Y-77700000D01*
X174300000Y-77700000D02*
X174300000Y-78450000D01*
X172040000Y-77690000D02*
X172040000Y-87810000D01*
X178010000Y-77690000D02*
X172040000Y-77690000D01*
%TO.C,D2*%
X136240000Y-52600000D02*
X136240000Y-55900000D01*
X136240000Y-52600000D02*
X141750000Y-52600000D01*
X136240000Y-55900000D02*
X141750000Y-55900000D01*
%TO.C,Q7*%
X150312500Y-71940000D02*
X148637500Y-71940000D01*
X150312500Y-71940000D02*
X150962500Y-71940000D01*
X150312500Y-75060000D02*
X149662500Y-75060000D01*
X150312500Y-75060000D02*
X150962500Y-75060000D01*
%TO.C,TP4*%
X148000000Y-61900000D02*
G75*
G03*
X148000000Y-61900000I-700000J0D01*
G01*
%TO.C,C11*%
X109540000Y-58190580D02*
X109540000Y-57909420D01*
X110560000Y-58190580D02*
X110560000Y-57909420D01*
%TO.C,R7*%
X116327064Y-72635000D02*
X115872936Y-72635000D01*
X116327064Y-71165000D02*
X115872936Y-71165000D01*
%TO.C,R18*%
X116272936Y-48765000D02*
X116727064Y-48765000D01*
X116272936Y-50235000D02*
X116727064Y-50235000D01*
%TO.C,SW1*%
X105750000Y-66250000D02*
X105750000Y-66750000D01*
X105750000Y-66250000D02*
X112250000Y-66250000D01*
X105750000Y-69750000D02*
X105750000Y-69250000D01*
X105750000Y-69750000D02*
X112250000Y-69750000D01*
X107000000Y-68000000D02*
X108250000Y-68000000D01*
X108250000Y-67250000D02*
X109750000Y-67250000D01*
X108250000Y-67750000D02*
X108250000Y-68000000D01*
X109000000Y-66750000D02*
X109000000Y-67250000D01*
X109750000Y-68000000D02*
X109750000Y-67750000D01*
X111000000Y-68000000D02*
X109750000Y-68000000D01*
X112250000Y-66250000D02*
X112250000Y-66750000D01*
X112250000Y-69750000D02*
X112250000Y-69250000D01*
%TO.C,J4*%
X112620000Y-47670000D02*
X112620000Y-49000000D01*
X111290000Y-47670000D02*
X112620000Y-47670000D01*
X110020000Y-47670000D02*
X99800000Y-47670000D01*
X110020000Y-47670000D02*
X110020000Y-50270000D01*
X99800000Y-47670000D02*
X99800000Y-52870000D01*
X112620000Y-50270000D02*
X112620000Y-52870000D01*
X110020000Y-50270000D02*
X112620000Y-50270000D01*
X112620000Y-52870000D02*
X99800000Y-52870000D01*
%TO.C,R19*%
X169827064Y-72735000D02*
X169372936Y-72735000D01*
X169827064Y-71265000D02*
X169372936Y-71265000D01*
%TO.C,R31*%
X172665000Y-75427064D02*
X172665000Y-74972936D01*
X174135000Y-75427064D02*
X174135000Y-74972936D01*
%TD*%
M02*
