%TF.GenerationSoftware,KiCad,Pcbnew,7.0.8-7.0.8~ubuntu22.04.1*%
%TF.CreationDate,2023-10-31T14:19:29+03:00*%
%TF.ProjectId,handle-module,68616e64-6c65-42d6-9d6f-64756c652e6b,rev?*%
%TF.SameCoordinates,Original*%
%TF.FileFunction,Copper,L3,Inr*%
%TF.FilePolarity,Positive*%
%FSLAX46Y46*%
G04 Gerber Fmt 4.6, Leading zero omitted, Abs format (unit mm)*
G04 Created by KiCad (PCBNEW 7.0.8-7.0.8~ubuntu22.04.1) date 2023-10-31 14:19:29*
%MOMM*%
%LPD*%
G01*
G04 APERTURE LIST*
G04 Aperture macros list*
%AMRoundRect*
0 Rectangle with rounded corners*
0 $1 Rounding radius*
0 $2 $3 $4 $5 $6 $7 $8 $9 X,Y pos of 4 corners*
0 Add a 4 corners polygon primitive as box body*
4,1,4,$2,$3,$4,$5,$6,$7,$8,$9,$2,$3,0*
0 Add four circle primitives for the rounded corners*
1,1,$1+$1,$2,$3*
1,1,$1+$1,$4,$5*
1,1,$1+$1,$6,$7*
1,1,$1+$1,$8,$9*
0 Add four rect primitives between the rounded corners*
20,1,$1+$1,$2,$3,$4,$5,0*
20,1,$1+$1,$4,$5,$6,$7,0*
20,1,$1+$1,$6,$7,$8,$9,0*
20,1,$1+$1,$8,$9,$2,$3,0*%
G04 Aperture macros list end*
%TA.AperFunction,ComponentPad*%
%ADD10C,0.500000*%
%TD*%
%TA.AperFunction,ComponentPad*%
%ADD11C,1.500000*%
%TD*%
%TA.AperFunction,ComponentPad*%
%ADD12R,1.700000X1.700000*%
%TD*%
%TA.AperFunction,ComponentPad*%
%ADD13O,1.700000X1.700000*%
%TD*%
%TA.AperFunction,ComponentPad*%
%ADD14C,2.000000*%
%TD*%
%TA.AperFunction,ComponentPad*%
%ADD15R,1.600000X1.600000*%
%TD*%
%TA.AperFunction,ComponentPad*%
%ADD16C,1.600000*%
%TD*%
%TA.AperFunction,ComponentPad*%
%ADD17C,1.524000*%
%TD*%
%TA.AperFunction,ComponentPad*%
%ADD18R,1.800000X1.800000*%
%TD*%
%TA.AperFunction,ComponentPad*%
%ADD19C,1.800000*%
%TD*%
%TA.AperFunction,ComponentPad*%
%ADD20C,3.000000*%
%TD*%
%TA.AperFunction,ComponentPad*%
%ADD21RoundRect,0.250000X0.725000X-0.600000X0.725000X0.600000X-0.725000X0.600000X-0.725000X-0.600000X0*%
%TD*%
%TA.AperFunction,ComponentPad*%
%ADD22O,1.950000X1.700000*%
%TD*%
%TA.AperFunction,ViaPad*%
%ADD23C,0.800000*%
%TD*%
%TA.AperFunction,Conductor*%
%ADD24C,0.200000*%
%TD*%
%TA.AperFunction,Conductor*%
%ADD25C,1.000000*%
%TD*%
G04 APERTURE END LIST*
D10*
%TO.N,GNDPWR*%
%TO.C,U6*%
X162650000Y-72250000D03*
X162650000Y-73300000D03*
X162650000Y-74350000D03*
X163700000Y-72250000D03*
X163700000Y-73300000D03*
X163700000Y-74350000D03*
X164750000Y-72250000D03*
X164750000Y-73300000D03*
X164750000Y-74350000D03*
%TD*%
D11*
%TO.N,Net-(U5-XTAL2{slash}PB7)*%
%TO.C,X1*%
X102750000Y-62175000D03*
%TO.N,Net-(U5-XTAL1{slash}PB6)*%
X102750000Y-57295000D03*
%TD*%
D12*
%TO.N,GNDPWR*%
%TO.C,J1*%
X177000000Y-49000000D03*
D13*
%TO.N,/VBAT_BEFORE_FUSE*%
X177000000Y-51540000D03*
%TD*%
D14*
%TO.N,unconnected-(U2-ANT-Pad1)*%
%TO.C,U2*%
X101380000Y-85750000D03*
%TO.N,GNDA*%
X103920000Y-85750000D03*
%TO.N,+5V*%
X122880000Y-85750000D03*
X125420000Y-85750000D03*
%TO.N,/FM_IN*%
X127960000Y-85750000D03*
%TO.N,GNDA*%
X130500000Y-85750000D03*
%TD*%
D15*
%TO.N,/VBAT_BEFORE_FUSE*%
%TO.C,C6*%
X162750000Y-54775001D03*
D16*
%TO.N,GNDA*%
X162750000Y-52275001D03*
%TD*%
D15*
%TO.N,/VBAT_BEFORE_FUSE*%
%TO.C,C5*%
X170000000Y-54750000D03*
D16*
%TO.N,GNDPWR*%
X170000000Y-52250000D03*
%TD*%
D17*
%TO.N,/FM_OUT*%
%TO.C,U1*%
X103920000Y-77000000D03*
%TO.N,+5V*%
X106460000Y-77000000D03*
%TO.N,GNDA*%
X109000000Y-77000000D03*
%TD*%
D18*
%TO.N,Net-(D1-A1)*%
%TO.C,D1*%
X138450000Y-68000000D03*
D19*
%TO.N,Net-(D1-K)*%
X140990000Y-68000000D03*
%TO.N,Net-(D1-A2)*%
X143530000Y-68000000D03*
%TD*%
D16*
%TO.N,/CHARGER_SUPPLY*%
%TO.C,RV1*%
X145225000Y-86300000D03*
%TO.N,GNDPWR*%
X140225000Y-84200000D03*
%TD*%
D14*
%TO.N,/CLOSE_BUTTON*%
%TO.C,SW2*%
X126750000Y-68000000D03*
%TO.N,/VBAT*%
X133250000Y-68000000D03*
%TD*%
D20*
%TO.N,GNDPWR*%
%TO.C,TP2*%
X173000000Y-49000000D03*
%TD*%
D21*
%TO.N,Net-(D10-A)*%
%TO.C,J3*%
X174500000Y-85250000D03*
D22*
%TO.N,GNDPWR*%
X174500000Y-82750000D03*
%TO.N,Net-(D9-A)*%
X174500000Y-80250000D03*
%TD*%
D14*
%TO.N,/VBAT*%
%TO.C,SW1*%
X105750000Y-68000000D03*
%TO.N,/OPEN_BUTTON*%
X112250000Y-68000000D03*
%TD*%
D12*
%TO.N,/MOSI*%
%TO.C,J4*%
X111290000Y-49000000D03*
D13*
%TO.N,+5V*%
X111290000Y-51540000D03*
%TO.N,unconnected-(J4-Pin_3-Pad3)*%
X108750000Y-49000000D03*
%TO.N,/RXD*%
X108750000Y-51540000D03*
%TO.N,/RESET#*%
X106210000Y-49000000D03*
%TO.N,/TXD*%
X106210000Y-51540000D03*
%TO.N,/SCK*%
X103670000Y-49000000D03*
%TO.N,GNDA*%
X103670000Y-51540000D03*
%TO.N,/MISO*%
X101130000Y-49000000D03*
%TO.N,GNDA*%
X101130000Y-51540000D03*
%TD*%
D23*
%TO.N,GNDA*%
X125500000Y-52000000D03*
X130000000Y-73250000D03*
X124200000Y-66100000D03*
X117000000Y-51500000D03*
X174600000Y-67000000D03*
X139750000Y-49500000D03*
X114800000Y-70000000D03*
X126600000Y-78400000D03*
X129500000Y-55250000D03*
X116750000Y-58750000D03*
%TO.N,+5V*%
X144355000Y-60500000D03*
X115300000Y-72000000D03*
X139442500Y-60500000D03*
X156900000Y-77500000D03*
X125600000Y-49000000D03*
X120000000Y-69100000D03*
%TO.N,GNDPWR*%
X169800000Y-68200000D03*
X174500000Y-59700000D03*
%TO.N,/CHARGER_SUPPLY*%
X145012500Y-75500000D03*
X151700000Y-85600000D03*
%TO.N,Net-(Q7-G)*%
X149412500Y-72600000D03*
%TO.N,Net-(Q6-D)*%
X131900000Y-75800000D03*
X164300000Y-77100000D03*
%TO.N,Net-(Q7-D)*%
X156812500Y-72900000D03*
%TO.N,/VSYS*%
X156812500Y-71300000D03*
X174500000Y-62600000D03*
X168600000Y-66100000D03*
%TO.N,Net-(U6-VCC)*%
X156900000Y-79700000D03*
X160300000Y-71400000D03*
%TO.N,/CHARGER_PHASE*%
X162000000Y-69600000D03*
X167000000Y-62800000D03*
%TO.N,/CHARGER_BATSRC*%
X154600000Y-65700000D03*
X170600000Y-74100000D03*
X161100000Y-62800000D03*
%TO.N,/VBAT*%
X148300000Y-50500000D03*
X153100000Y-65700000D03*
%TO.N,Net-(D7-K)*%
X150812500Y-79600000D03*
%TO.N,/MOSI*%
X115750000Y-61000000D03*
%TO.N,/SCK*%
X117250000Y-61250000D03*
%TO.N,/MISO*%
X120750000Y-63500000D03*
%TO.N,Net-(JP1-A)*%
X160000000Y-79625000D03*
%TO.N,/LED_GREEN#*%
X142530000Y-60500000D03*
%TO.N,/LED_RED#*%
X137617500Y-60500000D03*
%TO.N,Net-(Q5-G)*%
X148612500Y-76600000D03*
%TO.N,Net-(Q8-G)*%
X171500000Y-64000000D03*
X163000000Y-69300000D03*
%TO.N,/CHARGER_BATDRV*%
X170500000Y-72100000D03*
%TO.N,Net-(U6-ACDRV)*%
X155412500Y-77200000D03*
%TO.N,Net-(U6-CMSRC)*%
X155212500Y-74400000D03*
%TO.N,/CHARGER_BOOST*%
X163200000Y-58100000D03*
X163700000Y-67899500D03*
%TO.N,/SDA*%
X162000000Y-76800000D03*
X119800000Y-51500000D03*
%TO.N,/SCL*%
X162350949Y-77735863D03*
X118400000Y-51800000D03*
%TO.N,/CHARGER_SRP*%
X167300000Y-71300000D03*
%TO.N,/CHARGER_SRN*%
X167342747Y-72355509D03*
%TO.N,/CHR_VSYS_NMOS*%
X153412500Y-74300000D03*
%TD*%
D24*
%TO.N,/CHARGER_PHASE*%
X164300000Y-62800000D02*
X167000000Y-62800000D01*
X162000000Y-69600000D02*
X162000000Y-65100000D01*
X162000000Y-65100000D02*
X164300000Y-62800000D01*
D25*
%TO.N,/VBAT*%
X108500000Y-68000000D02*
X113750000Y-73250000D01*
X105525000Y-68000000D02*
X108500000Y-68000000D01*
X126250000Y-73250000D02*
X131500000Y-68000000D01*
X113750000Y-73250000D02*
X126250000Y-73250000D01*
X131500000Y-68000000D02*
X133500000Y-68000000D01*
D24*
%TO.N,/SDA*%
X119800000Y-51895836D02*
X119800000Y-51500000D01*
X162000000Y-76800000D02*
X161910050Y-76800000D01*
X160510050Y-78200000D02*
X146104164Y-78200000D01*
X161910050Y-76800000D02*
X160510050Y-78200000D01*
X146104164Y-78200000D02*
X119800000Y-51895836D01*
%TO.N,/SCL*%
X145938478Y-78600000D02*
X119538478Y-52200000D01*
X162350949Y-77735863D02*
X161486812Y-78600000D01*
X119510050Y-52200000D02*
X119100000Y-51789950D01*
X119100000Y-51789950D02*
X118410050Y-51789950D01*
X161486812Y-78600000D02*
X145938478Y-78600000D01*
X119538478Y-52200000D02*
X119510050Y-52200000D01*
X118410050Y-51789950D02*
X118400000Y-51800000D01*
%TD*%
%TA.AperFunction,Conductor*%
%TO.N,/CHARGER_PHASE*%
G36*
X166851428Y-62441244D02*
G01*
X166999123Y-62795498D01*
X166999144Y-62804452D01*
X166999123Y-62804502D01*
X166851428Y-63158755D01*
X166845081Y-63165073D01*
X166836129Y-63165053D01*
X166207200Y-62902999D01*
X166200881Y-62896654D01*
X166200000Y-62892199D01*
X166200000Y-62707800D01*
X166203427Y-62699527D01*
X166207200Y-62697000D01*
X166836131Y-62434945D01*
X166845084Y-62434927D01*
X166851428Y-62441244D01*
G37*
%TD.AperFunction*%
%TD*%
%TA.AperFunction,Conductor*%
%TO.N,/CHARGER_PHASE*%
G36*
X162100473Y-68803427D02*
G01*
X162103000Y-68807200D01*
X162365053Y-69436129D01*
X162365072Y-69445084D01*
X162358755Y-69451428D01*
X162004502Y-69599123D01*
X161995548Y-69599144D01*
X161995498Y-69599123D01*
X161641244Y-69451428D01*
X161634926Y-69445081D01*
X161634945Y-69436131D01*
X161897000Y-68807199D01*
X161903345Y-68800881D01*
X161907800Y-68800000D01*
X162092200Y-68800000D01*
X162100473Y-68803427D01*
G37*
%TD.AperFunction*%
%TD*%
%TA.AperFunction,Conductor*%
%TO.N,/VBAT*%
G36*
X107741267Y-67497711D02*
G01*
X107748400Y-67503123D01*
X107750000Y-67509028D01*
X107750000Y-68490971D01*
X107746573Y-68499244D01*
X107741266Y-68502289D01*
X106142543Y-68921295D01*
X106133672Y-68920077D01*
X106128773Y-68914465D01*
X105750862Y-68004485D01*
X105750854Y-67995535D01*
X106128773Y-67085533D01*
X106135110Y-67079208D01*
X106142542Y-67078704D01*
X107741267Y-67497711D01*
G37*
%TD.AperFunction*%
%TD*%
%TA.AperFunction,Conductor*%
%TO.N,/VBAT*%
G36*
X132865584Y-67080485D02*
G01*
X132871722Y-67086727D01*
X133248844Y-67994808D01*
X133248853Y-68003762D01*
X133248847Y-68003777D01*
X132871479Y-68913842D01*
X132865144Y-68920171D01*
X132856999Y-68920469D01*
X131679412Y-68531201D01*
X131674811Y-68528365D01*
X130982291Y-67835845D01*
X130978864Y-67827572D01*
X130982291Y-67819299D01*
X130986276Y-67816686D01*
X132856631Y-67080327D01*
X132865584Y-67080485D01*
G37*
%TD.AperFunction*%
%TD*%
%TA.AperFunction,Conductor*%
%TO.N,/SDA*%
G36*
X161640423Y-76651031D02*
G01*
X161996195Y-76797436D01*
X162002542Y-76803754D01*
X162002563Y-76803804D01*
X162148032Y-77157302D01*
X162148011Y-77166256D01*
X162141689Y-77172564D01*
X162136778Y-77174597D01*
X162136278Y-77174778D01*
X161475746Y-77380373D01*
X161466828Y-77379560D01*
X161463996Y-77377475D01*
X161333587Y-77247066D01*
X161330160Y-77238793D01*
X161331435Y-77233481D01*
X161625548Y-76656537D01*
X161632359Y-76650724D01*
X161640423Y-76651031D01*
G37*
%TD.AperFunction*%
%TD*%
%TA.AperFunction,Conductor*%
%TO.N,/SDA*%
G36*
X120187473Y-51499977D02*
G01*
X120195738Y-51503418D01*
X120199150Y-51511698D01*
X120199121Y-51512497D01*
X120157332Y-52107079D01*
X120153934Y-52114532D01*
X120024231Y-52244236D01*
X120015958Y-52247663D01*
X120007685Y-52244236D01*
X119786974Y-52023525D01*
X119784774Y-52020467D01*
X119782436Y-52015773D01*
X119782436Y-52015772D01*
X119782434Y-52015770D01*
X119782432Y-52015767D01*
X119746158Y-51982700D01*
X119745981Y-51982532D01*
X119737627Y-51974178D01*
X119731280Y-51967830D01*
X119731275Y-51967826D01*
X119725842Y-51964103D01*
X119725207Y-51963600D01*
X119699414Y-51940086D01*
X119699411Y-51940084D01*
X119680801Y-51932874D01*
X119678416Y-51931617D01*
X119666420Y-51923400D01*
X119665008Y-51922262D01*
X119618701Y-51878596D01*
X119529553Y-51794531D01*
X119525762Y-51790741D01*
X119522334Y-51782469D01*
X119525738Y-51774218D01*
X119795855Y-51502748D01*
X119804116Y-51499301D01*
X120187473Y-51499977D01*
G37*
%TD.AperFunction*%
%TD*%
%TA.AperFunction,Conductor*%
%TO.N,/SCL*%
G36*
X162347144Y-77733299D02*
G01*
X162353491Y-77739617D01*
X162353512Y-77739667D01*
X162499570Y-78094597D01*
X162499549Y-78103551D01*
X162493205Y-78109868D01*
X161863186Y-78369289D01*
X161854231Y-78369270D01*
X161850458Y-78366743D01*
X161720068Y-78236353D01*
X161716641Y-78228080D01*
X161717521Y-78223629D01*
X161976943Y-77593605D01*
X161983262Y-77587261D01*
X161992213Y-77587241D01*
X162347144Y-77733299D01*
G37*
%TD.AperFunction*%
%TD*%
%TA.AperFunction,Conductor*%
%TO.N,/SCL*%
G36*
X118563469Y-51435915D02*
G01*
X118564364Y-51436333D01*
X119198189Y-51766738D01*
X119225865Y-51781165D01*
X119231617Y-51788028D01*
X119230832Y-51796948D01*
X119228730Y-51799813D01*
X119100141Y-51928402D01*
X119096573Y-51930841D01*
X118564003Y-52164751D01*
X118555050Y-52164941D01*
X118548586Y-52158744D01*
X118548524Y-52158600D01*
X118401159Y-51803788D01*
X118401151Y-51794836D01*
X118548168Y-51442211D01*
X118554515Y-51435894D01*
X118563469Y-51435915D01*
G37*
%TD.AperFunction*%
%TD*%
M02*
