%TF.GenerationSoftware,KiCad,Pcbnew,8.0.1-8.0.1-1~ubuntu22.04.1*%
%TF.CreationDate,2024-04-06T20:30:09+03:00*%
%TF.ProjectId,handle-module,68616e64-6c65-42d6-9d6f-64756c652e6b,rev?*%
%TF.SameCoordinates,Original*%
%TF.FileFunction,Soldermask,Bot*%
%TF.FilePolarity,Negative*%
%FSLAX46Y46*%
G04 Gerber Fmt 4.6, Leading zero omitted, Abs format (unit mm)*
G04 Created by KiCad (PCBNEW 8.0.1-8.0.1-1~ubuntu22.04.1) date 2024-04-06 20:30:09*
%MOMM*%
%LPD*%
G01*
G04 APERTURE LIST*
G04 Aperture macros list*
%AMRoundRect*
0 Rectangle with rounded corners*
0 $1 Rounding radius*
0 $2 $3 $4 $5 $6 $7 $8 $9 X,Y pos of 4 corners*
0 Add a 4 corners polygon primitive as box body*
4,1,4,$2,$3,$4,$5,$6,$7,$8,$9,$2,$3,0*
0 Add four circle primitives for the rounded corners*
1,1,$1+$1,$2,$3*
1,1,$1+$1,$4,$5*
1,1,$1+$1,$6,$7*
1,1,$1+$1,$8,$9*
0 Add four rect primitives between the rounded corners*
20,1,$1+$1,$2,$3,$4,$5,0*
20,1,$1+$1,$4,$5,$6,$7,0*
20,1,$1+$1,$6,$7,$8,$9,0*
20,1,$1+$1,$8,$9,$2,$3,0*%
G04 Aperture macros list end*
%ADD10C,1.500000*%
%ADD11R,1.700000X1.700000*%
%ADD12O,1.700000X1.700000*%
%ADD13C,2.000000*%
%ADD14R,1.600000X1.600000*%
%ADD15C,1.600000*%
%ADD16C,2.200000*%
%ADD17R,1.800000X1.800000*%
%ADD18C,1.800000*%
%ADD19RoundRect,0.250000X-0.750000X0.600000X-0.750000X-0.600000X0.750000X-0.600000X0.750000X0.600000X0*%
%ADD20O,2.000000X1.700000*%
%ADD21C,1.524000*%
%ADD22RoundRect,0.250000X-0.262500X-0.450000X0.262500X-0.450000X0.262500X0.450000X-0.262500X0.450000X0*%
%ADD23RoundRect,0.150000X-0.150000X0.587500X-0.150000X-0.587500X0.150000X-0.587500X0.150000X0.587500X0*%
%ADD24RoundRect,0.225000X0.250000X-0.225000X0.250000X0.225000X-0.250000X0.225000X-0.250000X-0.225000X0*%
%ADD25RoundRect,0.250000X1.100000X-0.325000X1.100000X0.325000X-1.100000X0.325000X-1.100000X-0.325000X0*%
%ADD26RoundRect,0.250000X0.262500X0.450000X-0.262500X0.450000X-0.262500X-0.450000X0.262500X-0.450000X0*%
%ADD27RoundRect,0.225000X0.225000X0.250000X-0.225000X0.250000X-0.225000X-0.250000X0.225000X-0.250000X0*%
%ADD28RoundRect,0.225000X-0.225000X-0.250000X0.225000X-0.250000X0.225000X0.250000X-0.225000X0.250000X0*%
%ADD29RoundRect,0.225000X-0.250000X0.225000X-0.250000X-0.225000X0.250000X-0.225000X0.250000X0.225000X0*%
%ADD30RoundRect,0.250000X-0.325000X-1.100000X0.325000X-1.100000X0.325000X1.100000X-0.325000X1.100000X0*%
%ADD31RoundRect,0.150000X-0.587500X-0.150000X0.587500X-0.150000X0.587500X0.150000X-0.587500X0.150000X0*%
%ADD32RoundRect,0.250000X0.450000X-0.262500X0.450000X0.262500X-0.450000X0.262500X-0.450000X-0.262500X0*%
%ADD33RoundRect,0.250000X1.000000X0.650000X-1.000000X0.650000X-1.000000X-0.650000X1.000000X-0.650000X0*%
%ADD34RoundRect,0.250000X0.650000X-1.000000X0.650000X1.000000X-0.650000X1.000000X-0.650000X-1.000000X0*%
G04 APERTURE END LIST*
D10*
%TO.C,X1*%
X58740487Y-93175000D03*
X58740487Y-88295000D03*
%TD*%
D11*
%TO.C,J1*%
X132990487Y-80000000D03*
D12*
X132990487Y-82540000D03*
%TD*%
D13*
%TO.C,U2*%
X57370487Y-116750000D03*
X59910487Y-116750000D03*
X78870487Y-116750000D03*
X81410487Y-116750000D03*
X83950487Y-116750000D03*
X86490487Y-116750000D03*
%TD*%
D14*
%TO.C,C6*%
X118740487Y-85775001D03*
D15*
X118740487Y-83275001D03*
%TD*%
D14*
%TO.C,C5*%
X125990487Y-85750000D03*
D15*
X125990487Y-83250000D03*
%TD*%
D16*
%TO.C,H4*%
X57500000Y-101000000D03*
%TD*%
%TO.C,H3*%
X74500000Y-111000000D03*
%TD*%
D13*
%TO.C,U1*%
X59910487Y-108000000D03*
X62450487Y-108000000D03*
X64990487Y-108000000D03*
%TD*%
D17*
%TO.C,D1*%
X94440487Y-99000000D03*
D18*
X96980487Y-99000000D03*
X99520487Y-99000000D03*
%TD*%
D15*
%TO.C,RV1*%
X101215487Y-117300000D03*
X96215487Y-115200000D03*
%TD*%
D19*
%TO.C,J2*%
X130490487Y-114000000D03*
D20*
X130490487Y-116500000D03*
%TD*%
D13*
%TO.C,SW2*%
X82740487Y-99000000D03*
X89240487Y-99000000D03*
%TD*%
D16*
%TO.C,H5*%
X129500000Y-108000000D03*
%TD*%
D21*
%TO.C,TP2*%
X128990487Y-80000000D03*
%TD*%
D16*
%TO.C,H2*%
X93000000Y-110000000D03*
%TD*%
%TO.C,H1*%
X110500000Y-89500000D03*
%TD*%
D13*
%TO.C,SW1*%
X61740487Y-99000000D03*
X68240487Y-99000000D03*
%TD*%
D11*
%TO.C,J3*%
X67280487Y-80000000D03*
D12*
X67280487Y-82540000D03*
X64740487Y-80000000D03*
X64740487Y-82540000D03*
X62200487Y-80000000D03*
X62200487Y-82540000D03*
X59660487Y-80000000D03*
X59660487Y-82540000D03*
X57120487Y-80000000D03*
X57120487Y-82540000D03*
%TD*%
D22*
%TO.C,R27*%
X112790487Y-100900000D03*
X114615487Y-100900000D03*
%TD*%
D23*
%TO.C,Q2*%
X93620487Y-94025000D03*
X95520487Y-94025000D03*
X94570487Y-95900000D03*
%TD*%
D24*
%TO.C,C19*%
X60490487Y-93250000D03*
X60490487Y-91700000D03*
%TD*%
D22*
%TO.C,R14*%
X109490487Y-108200000D03*
X111315487Y-108200000D03*
%TD*%
D25*
%TO.C,C7*%
X115190487Y-85775000D03*
X115190487Y-82825000D03*
%TD*%
D26*
%TO.C,R12*%
X109300000Y-118700000D03*
X107475000Y-118700000D03*
%TD*%
D24*
%TO.C,C20*%
X108302987Y-102775000D03*
X108302987Y-101225000D03*
%TD*%
D23*
%TO.C,Q1*%
X98540487Y-94025000D03*
X100440487Y-94025000D03*
X99490487Y-95900000D03*
%TD*%
D27*
%TO.C,C24*%
X112965487Y-110700000D03*
X111415487Y-110700000D03*
%TD*%
D24*
%TO.C,C12*%
X102990487Y-116025000D03*
X102990487Y-114475000D03*
%TD*%
D28*
%TO.C,C2*%
X81465487Y-114750000D03*
X83015487Y-114750000D03*
%TD*%
D26*
%TO.C,R8*%
X100902987Y-114250000D03*
X99077987Y-114250000D03*
%TD*%
D22*
%TO.C,R13*%
X104590487Y-107600000D03*
X106415487Y-107600000D03*
%TD*%
D24*
%TO.C,C8*%
X112090487Y-85675000D03*
X112090487Y-84125000D03*
%TD*%
D29*
%TO.C,C9*%
X110330487Y-84125000D03*
X110330487Y-85675000D03*
%TD*%
D22*
%TO.C,R11*%
X107475000Y-116600000D03*
X109300000Y-116600000D03*
%TD*%
D28*
%TO.C,C4*%
X79915487Y-100800000D03*
X81465487Y-100800000D03*
%TD*%
D24*
%TO.C,C23*%
X110002987Y-102775000D03*
X110002987Y-101225000D03*
%TD*%
D27*
%TO.C,C25*%
X119475000Y-99700000D03*
X117925000Y-99700000D03*
%TD*%
D26*
%TO.C,R5*%
X96932987Y-101500000D03*
X95107987Y-101500000D03*
%TD*%
D28*
%TO.C,C1*%
X61715487Y-110600000D03*
X63265487Y-110600000D03*
%TD*%
D22*
%TO.C,R15*%
X109390487Y-105300000D03*
X111215487Y-105300000D03*
%TD*%
%TO.C,R1*%
X98520487Y-91500000D03*
X100345487Y-91500000D03*
%TD*%
D28*
%TO.C,C29*%
X111915487Y-96700000D03*
X113465487Y-96700000D03*
%TD*%
D29*
%TO.C,C18*%
X60490487Y-88175000D03*
X60490487Y-89725000D03*
%TD*%
D27*
%TO.C,C3*%
X70540487Y-101000000D03*
X68990487Y-101000000D03*
%TD*%
D30*
%TO.C,C32*%
X121915487Y-80000000D03*
X124865487Y-80000000D03*
%TD*%
D31*
%TO.C,Q11*%
X119352987Y-97250000D03*
X119352987Y-95350000D03*
X121227987Y-96300000D03*
%TD*%
D27*
%TO.C,C16*%
X106977987Y-105500000D03*
X105427987Y-105500000D03*
%TD*%
D22*
%TO.C,R2*%
X93607987Y-91500000D03*
X95432987Y-91500000D03*
%TD*%
D24*
%TO.C,C26*%
X107437500Y-114775000D03*
X107437500Y-113225000D03*
%TD*%
D32*
%TO.C,R23*%
X132990487Y-116412500D03*
X132990487Y-114587500D03*
%TD*%
D27*
%TO.C,C31*%
X107565487Y-96600000D03*
X106015487Y-96600000D03*
%TD*%
D33*
%TO.C,D8*%
X106602987Y-110600000D03*
X102602987Y-110600000D03*
%TD*%
D28*
%TO.C,C14*%
X101827987Y-105100000D03*
X103377987Y-105100000D03*
%TD*%
D26*
%TO.C,R25*%
X114615487Y-98900000D03*
X112790487Y-98900000D03*
%TD*%
D22*
%TO.C,R4*%
X68765487Y-97000000D03*
X70590487Y-97000000D03*
%TD*%
D34*
%TO.C,D7*%
X125500000Y-117700000D03*
X125500000Y-113700000D03*
%TD*%
D26*
%TO.C,R3*%
X81602987Y-102900000D03*
X79777987Y-102900000D03*
%TD*%
D25*
%TO.C,C27*%
X130590487Y-93675000D03*
X130590487Y-90725000D03*
%TD*%
M02*
