%TF.GenerationSoftware,KiCad,Pcbnew,7.0.8-7.0.8~ubuntu22.04.1*%
%TF.CreationDate,2023-10-31T14:19:29+03:00*%
%TF.ProjectId,handle-module,68616e64-6c65-42d6-9d6f-64756c652e6b,rev?*%
%TF.SameCoordinates,Original*%
%TF.FileFunction,Legend,Bot*%
%TF.FilePolarity,Positive*%
%FSLAX46Y46*%
G04 Gerber Fmt 4.6, Leading zero omitted, Abs format (unit mm)*
G04 Created by KiCad (PCBNEW 7.0.8-7.0.8~ubuntu22.04.1) date 2023-10-31 14:19:29*
%MOMM*%
%LPD*%
G01*
G04 APERTURE LIST*
%ADD10C,0.150000*%
%ADD11C,0.120000*%
G04 APERTURE END LIST*
D10*
X177510839Y-87784104D02*
X177034649Y-87784104D01*
X177606077Y-88069819D02*
X177272744Y-87069819D01*
X177272744Y-87069819D02*
X176939411Y-88069819D01*
X176034649Y-87974580D02*
X176082268Y-88022200D01*
X176082268Y-88022200D02*
X176225125Y-88069819D01*
X176225125Y-88069819D02*
X176320363Y-88069819D01*
X176320363Y-88069819D02*
X176463220Y-88022200D01*
X176463220Y-88022200D02*
X176558458Y-87926961D01*
X176558458Y-87926961D02*
X176606077Y-87831723D01*
X176606077Y-87831723D02*
X176653696Y-87641247D01*
X176653696Y-87641247D02*
X176653696Y-87498390D01*
X176653696Y-87498390D02*
X176606077Y-87307914D01*
X176606077Y-87307914D02*
X176558458Y-87212676D01*
X176558458Y-87212676D02*
X176463220Y-87117438D01*
X176463220Y-87117438D02*
X176320363Y-87069819D01*
X176320363Y-87069819D02*
X176225125Y-87069819D01*
X176225125Y-87069819D02*
X176082268Y-87117438D01*
X176082268Y-87117438D02*
X176034649Y-87165057D01*
X175701315Y-87069819D02*
X175463220Y-88069819D01*
X175463220Y-88069819D02*
X175272744Y-87355533D01*
X175272744Y-87355533D02*
X175082268Y-88069819D01*
X175082268Y-88069819D02*
X174844173Y-87069819D01*
X174463220Y-87688866D02*
X173701316Y-87688866D01*
X173225125Y-88069819D02*
X173225125Y-87069819D01*
X172796554Y-88069819D02*
X172796554Y-87546009D01*
X172796554Y-87546009D02*
X172844173Y-87450771D01*
X172844173Y-87450771D02*
X172939411Y-87403152D01*
X172939411Y-87403152D02*
X173082268Y-87403152D01*
X173082268Y-87403152D02*
X173177506Y-87450771D01*
X173177506Y-87450771D02*
X173225125Y-87498390D01*
X171891792Y-88069819D02*
X171891792Y-87546009D01*
X171891792Y-87546009D02*
X171939411Y-87450771D01*
X171939411Y-87450771D02*
X172034649Y-87403152D01*
X172034649Y-87403152D02*
X172225125Y-87403152D01*
X172225125Y-87403152D02*
X172320363Y-87450771D01*
X171891792Y-88022200D02*
X171987030Y-88069819D01*
X171987030Y-88069819D02*
X172225125Y-88069819D01*
X172225125Y-88069819D02*
X172320363Y-88022200D01*
X172320363Y-88022200D02*
X172367982Y-87926961D01*
X172367982Y-87926961D02*
X172367982Y-87831723D01*
X172367982Y-87831723D02*
X172320363Y-87736485D01*
X172320363Y-87736485D02*
X172225125Y-87688866D01*
X172225125Y-87688866D02*
X171987030Y-87688866D01*
X171987030Y-87688866D02*
X171891792Y-87641247D01*
X171415601Y-87403152D02*
X171415601Y-88069819D01*
X171415601Y-87498390D02*
X171367982Y-87450771D01*
X171367982Y-87450771D02*
X171272744Y-87403152D01*
X171272744Y-87403152D02*
X171129887Y-87403152D01*
X171129887Y-87403152D02*
X171034649Y-87450771D01*
X171034649Y-87450771D02*
X170987030Y-87546009D01*
X170987030Y-87546009D02*
X170987030Y-88069819D01*
X170082268Y-88069819D02*
X170082268Y-87069819D01*
X170082268Y-88022200D02*
X170177506Y-88069819D01*
X170177506Y-88069819D02*
X170367982Y-88069819D01*
X170367982Y-88069819D02*
X170463220Y-88022200D01*
X170463220Y-88022200D02*
X170510839Y-87974580D01*
X170510839Y-87974580D02*
X170558458Y-87879342D01*
X170558458Y-87879342D02*
X170558458Y-87593628D01*
X170558458Y-87593628D02*
X170510839Y-87498390D01*
X170510839Y-87498390D02*
X170463220Y-87450771D01*
X170463220Y-87450771D02*
X170367982Y-87403152D01*
X170367982Y-87403152D02*
X170177506Y-87403152D01*
X170177506Y-87403152D02*
X170082268Y-87450771D01*
X169463220Y-88069819D02*
X169558458Y-88022200D01*
X169558458Y-88022200D02*
X169606077Y-87926961D01*
X169606077Y-87926961D02*
X169606077Y-87069819D01*
X168701315Y-88022200D02*
X168796553Y-88069819D01*
X168796553Y-88069819D02*
X168987029Y-88069819D01*
X168987029Y-88069819D02*
X169082267Y-88022200D01*
X169082267Y-88022200D02*
X169129886Y-87926961D01*
X169129886Y-87926961D02*
X169129886Y-87546009D01*
X169129886Y-87546009D02*
X169082267Y-87450771D01*
X169082267Y-87450771D02*
X168987029Y-87403152D01*
X168987029Y-87403152D02*
X168796553Y-87403152D01*
X168796553Y-87403152D02*
X168701315Y-87450771D01*
X168701315Y-87450771D02*
X168653696Y-87546009D01*
X168653696Y-87546009D02*
X168653696Y-87641247D01*
X168653696Y-87641247D02*
X169129886Y-87736485D01*
X168225124Y-87688866D02*
X167463220Y-87688866D01*
X167082267Y-87403152D02*
X166844172Y-88069819D01*
X166844172Y-88069819D02*
X166606077Y-87403152D01*
X165701315Y-88069819D02*
X166272743Y-88069819D01*
X165987029Y-88069819D02*
X165987029Y-87069819D01*
X165987029Y-87069819D02*
X166082267Y-87212676D01*
X166082267Y-87212676D02*
X166177505Y-87307914D01*
X166177505Y-87307914D02*
X166272743Y-87355533D01*
X165272743Y-87974580D02*
X165225124Y-88022200D01*
X165225124Y-88022200D02*
X165272743Y-88069819D01*
X165272743Y-88069819D02*
X165320362Y-88022200D01*
X165320362Y-88022200D02*
X165272743Y-87974580D01*
X165272743Y-87974580D02*
X165272743Y-88069819D01*
X164606077Y-87069819D02*
X164510839Y-87069819D01*
X164510839Y-87069819D02*
X164415601Y-87117438D01*
X164415601Y-87117438D02*
X164367982Y-87165057D01*
X164367982Y-87165057D02*
X164320363Y-87260295D01*
X164320363Y-87260295D02*
X164272744Y-87450771D01*
X164272744Y-87450771D02*
X164272744Y-87688866D01*
X164272744Y-87688866D02*
X164320363Y-87879342D01*
X164320363Y-87879342D02*
X164367982Y-87974580D01*
X164367982Y-87974580D02*
X164415601Y-88022200D01*
X164415601Y-88022200D02*
X164510839Y-88069819D01*
X164510839Y-88069819D02*
X164606077Y-88069819D01*
X164606077Y-88069819D02*
X164701315Y-88022200D01*
X164701315Y-88022200D02*
X164748934Y-87974580D01*
X164748934Y-87974580D02*
X164796553Y-87879342D01*
X164796553Y-87879342D02*
X164844172Y-87688866D01*
X164844172Y-87688866D02*
X164844172Y-87450771D01*
X164844172Y-87450771D02*
X164796553Y-87260295D01*
X164796553Y-87260295D02*
X164748934Y-87165057D01*
X164748934Y-87165057D02*
X164701315Y-87117438D01*
X164701315Y-87117438D02*
X164606077Y-87069819D01*
X158942857Y-72454819D02*
X159276190Y-71978628D01*
X159514285Y-72454819D02*
X159514285Y-71454819D01*
X159514285Y-71454819D02*
X159133333Y-71454819D01*
X159133333Y-71454819D02*
X159038095Y-71502438D01*
X159038095Y-71502438D02*
X158990476Y-71550057D01*
X158990476Y-71550057D02*
X158942857Y-71645295D01*
X158942857Y-71645295D02*
X158942857Y-71788152D01*
X158942857Y-71788152D02*
X158990476Y-71883390D01*
X158990476Y-71883390D02*
X159038095Y-71931009D01*
X159038095Y-71931009D02*
X159133333Y-71978628D01*
X159133333Y-71978628D02*
X159514285Y-71978628D01*
X158561904Y-71550057D02*
X158514285Y-71502438D01*
X158514285Y-71502438D02*
X158419047Y-71454819D01*
X158419047Y-71454819D02*
X158180952Y-71454819D01*
X158180952Y-71454819D02*
X158085714Y-71502438D01*
X158085714Y-71502438D02*
X158038095Y-71550057D01*
X158038095Y-71550057D02*
X157990476Y-71645295D01*
X157990476Y-71645295D02*
X157990476Y-71740533D01*
X157990476Y-71740533D02*
X158038095Y-71883390D01*
X158038095Y-71883390D02*
X158609523Y-72454819D01*
X158609523Y-72454819D02*
X157990476Y-72454819D01*
X157514285Y-72454819D02*
X157323809Y-72454819D01*
X157323809Y-72454819D02*
X157228571Y-72407200D01*
X157228571Y-72407200D02*
X157180952Y-72359580D01*
X157180952Y-72359580D02*
X157085714Y-72216723D01*
X157085714Y-72216723D02*
X157038095Y-72026247D01*
X157038095Y-72026247D02*
X157038095Y-71645295D01*
X157038095Y-71645295D02*
X157085714Y-71550057D01*
X157085714Y-71550057D02*
X157133333Y-71502438D01*
X157133333Y-71502438D02*
X157228571Y-71454819D01*
X157228571Y-71454819D02*
X157419047Y-71454819D01*
X157419047Y-71454819D02*
X157514285Y-71502438D01*
X157514285Y-71502438D02*
X157561904Y-71550057D01*
X157561904Y-71550057D02*
X157609523Y-71645295D01*
X157609523Y-71645295D02*
X157609523Y-71883390D01*
X157609523Y-71883390D02*
X157561904Y-71978628D01*
X157561904Y-71978628D02*
X157514285Y-72026247D01*
X157514285Y-72026247D02*
X157419047Y-72073866D01*
X157419047Y-72073866D02*
X157228571Y-72073866D01*
X157228571Y-72073866D02*
X157133333Y-72026247D01*
X157133333Y-72026247D02*
X157085714Y-71978628D01*
X157085714Y-71978628D02*
X157038095Y-71883390D01*
X177642857Y-80659580D02*
X177690476Y-80707200D01*
X177690476Y-80707200D02*
X177833333Y-80754819D01*
X177833333Y-80754819D02*
X177928571Y-80754819D01*
X177928571Y-80754819D02*
X178071428Y-80707200D01*
X178071428Y-80707200D02*
X178166666Y-80611961D01*
X178166666Y-80611961D02*
X178214285Y-80516723D01*
X178214285Y-80516723D02*
X178261904Y-80326247D01*
X178261904Y-80326247D02*
X178261904Y-80183390D01*
X178261904Y-80183390D02*
X178214285Y-79992914D01*
X178214285Y-79992914D02*
X178166666Y-79897676D01*
X178166666Y-79897676D02*
X178071428Y-79802438D01*
X178071428Y-79802438D02*
X177928571Y-79754819D01*
X177928571Y-79754819D02*
X177833333Y-79754819D01*
X177833333Y-79754819D02*
X177690476Y-79802438D01*
X177690476Y-79802438D02*
X177642857Y-79850057D01*
X177261904Y-79850057D02*
X177214285Y-79802438D01*
X177214285Y-79802438D02*
X177119047Y-79754819D01*
X177119047Y-79754819D02*
X176880952Y-79754819D01*
X176880952Y-79754819D02*
X176785714Y-79802438D01*
X176785714Y-79802438D02*
X176738095Y-79850057D01*
X176738095Y-79850057D02*
X176690476Y-79945295D01*
X176690476Y-79945295D02*
X176690476Y-80040533D01*
X176690476Y-80040533D02*
X176738095Y-80183390D01*
X176738095Y-80183390D02*
X177309523Y-80754819D01*
X177309523Y-80754819D02*
X176690476Y-80754819D01*
X176214285Y-80754819D02*
X176023809Y-80754819D01*
X176023809Y-80754819D02*
X175928571Y-80707200D01*
X175928571Y-80707200D02*
X175880952Y-80659580D01*
X175880952Y-80659580D02*
X175785714Y-80516723D01*
X175785714Y-80516723D02*
X175738095Y-80326247D01*
X175738095Y-80326247D02*
X175738095Y-79945295D01*
X175738095Y-79945295D02*
X175785714Y-79850057D01*
X175785714Y-79850057D02*
X175833333Y-79802438D01*
X175833333Y-79802438D02*
X175928571Y-79754819D01*
X175928571Y-79754819D02*
X176119047Y-79754819D01*
X176119047Y-79754819D02*
X176214285Y-79802438D01*
X176214285Y-79802438D02*
X176261904Y-79850057D01*
X176261904Y-79850057D02*
X176309523Y-79945295D01*
X176309523Y-79945295D02*
X176309523Y-80183390D01*
X176309523Y-80183390D02*
X176261904Y-80278628D01*
X176261904Y-80278628D02*
X176214285Y-80326247D01*
X176214285Y-80326247D02*
X176119047Y-80373866D01*
X176119047Y-80373866D02*
X175928571Y-80373866D01*
X175928571Y-80373866D02*
X175833333Y-80326247D01*
X175833333Y-80326247D02*
X175785714Y-80278628D01*
X175785714Y-80278628D02*
X175738095Y-80183390D01*
X135795238Y-64475057D02*
X135890476Y-64427438D01*
X135890476Y-64427438D02*
X135985714Y-64332200D01*
X135985714Y-64332200D02*
X136128571Y-64189342D01*
X136128571Y-64189342D02*
X136223809Y-64141723D01*
X136223809Y-64141723D02*
X136319047Y-64141723D01*
X136271428Y-64379819D02*
X136366666Y-64332200D01*
X136366666Y-64332200D02*
X136461904Y-64236961D01*
X136461904Y-64236961D02*
X136509523Y-64046485D01*
X136509523Y-64046485D02*
X136509523Y-63713152D01*
X136509523Y-63713152D02*
X136461904Y-63522676D01*
X136461904Y-63522676D02*
X136366666Y-63427438D01*
X136366666Y-63427438D02*
X136271428Y-63379819D01*
X136271428Y-63379819D02*
X136080952Y-63379819D01*
X136080952Y-63379819D02*
X135985714Y-63427438D01*
X135985714Y-63427438D02*
X135890476Y-63522676D01*
X135890476Y-63522676D02*
X135842857Y-63713152D01*
X135842857Y-63713152D02*
X135842857Y-64046485D01*
X135842857Y-64046485D02*
X135890476Y-64236961D01*
X135890476Y-64236961D02*
X135985714Y-64332200D01*
X135985714Y-64332200D02*
X136080952Y-64379819D01*
X136080952Y-64379819D02*
X136271428Y-64379819D01*
X135461904Y-63475057D02*
X135414285Y-63427438D01*
X135414285Y-63427438D02*
X135319047Y-63379819D01*
X135319047Y-63379819D02*
X135080952Y-63379819D01*
X135080952Y-63379819D02*
X134985714Y-63427438D01*
X134985714Y-63427438D02*
X134938095Y-63475057D01*
X134938095Y-63475057D02*
X134890476Y-63570295D01*
X134890476Y-63570295D02*
X134890476Y-63665533D01*
X134890476Y-63665533D02*
X134938095Y-63808390D01*
X134938095Y-63808390D02*
X135509523Y-64379819D01*
X135509523Y-64379819D02*
X134890476Y-64379819D01*
X107642857Y-61759580D02*
X107690476Y-61807200D01*
X107690476Y-61807200D02*
X107833333Y-61854819D01*
X107833333Y-61854819D02*
X107928571Y-61854819D01*
X107928571Y-61854819D02*
X108071428Y-61807200D01*
X108071428Y-61807200D02*
X108166666Y-61711961D01*
X108166666Y-61711961D02*
X108214285Y-61616723D01*
X108214285Y-61616723D02*
X108261904Y-61426247D01*
X108261904Y-61426247D02*
X108261904Y-61283390D01*
X108261904Y-61283390D02*
X108214285Y-61092914D01*
X108214285Y-61092914D02*
X108166666Y-60997676D01*
X108166666Y-60997676D02*
X108071428Y-60902438D01*
X108071428Y-60902438D02*
X107928571Y-60854819D01*
X107928571Y-60854819D02*
X107833333Y-60854819D01*
X107833333Y-60854819D02*
X107690476Y-60902438D01*
X107690476Y-60902438D02*
X107642857Y-60950057D01*
X107261904Y-60950057D02*
X107214285Y-60902438D01*
X107214285Y-60902438D02*
X107119047Y-60854819D01*
X107119047Y-60854819D02*
X106880952Y-60854819D01*
X106880952Y-60854819D02*
X106785714Y-60902438D01*
X106785714Y-60902438D02*
X106738095Y-60950057D01*
X106738095Y-60950057D02*
X106690476Y-61045295D01*
X106690476Y-61045295D02*
X106690476Y-61140533D01*
X106690476Y-61140533D02*
X106738095Y-61283390D01*
X106738095Y-61283390D02*
X107309523Y-61854819D01*
X107309523Y-61854819D02*
X106690476Y-61854819D01*
X105833333Y-60854819D02*
X106023809Y-60854819D01*
X106023809Y-60854819D02*
X106119047Y-60902438D01*
X106119047Y-60902438D02*
X106166666Y-60950057D01*
X106166666Y-60950057D02*
X106261904Y-61092914D01*
X106261904Y-61092914D02*
X106309523Y-61283390D01*
X106309523Y-61283390D02*
X106309523Y-61664342D01*
X106309523Y-61664342D02*
X106261904Y-61759580D01*
X106261904Y-61759580D02*
X106214285Y-61807200D01*
X106214285Y-61807200D02*
X106119047Y-61854819D01*
X106119047Y-61854819D02*
X105928571Y-61854819D01*
X105928571Y-61854819D02*
X105833333Y-61807200D01*
X105833333Y-61807200D02*
X105785714Y-61759580D01*
X105785714Y-61759580D02*
X105738095Y-61664342D01*
X105738095Y-61664342D02*
X105738095Y-61426247D01*
X105738095Y-61426247D02*
X105785714Y-61331009D01*
X105785714Y-61331009D02*
X105833333Y-61283390D01*
X105833333Y-61283390D02*
X105928571Y-61235771D01*
X105928571Y-61235771D02*
X106119047Y-61235771D01*
X106119047Y-61235771D02*
X106214285Y-61283390D01*
X106214285Y-61283390D02*
X106261904Y-61331009D01*
X106261904Y-61331009D02*
X106309523Y-61426247D01*
X158242857Y-76954819D02*
X158576190Y-76478628D01*
X158814285Y-76954819D02*
X158814285Y-75954819D01*
X158814285Y-75954819D02*
X158433333Y-75954819D01*
X158433333Y-75954819D02*
X158338095Y-76002438D01*
X158338095Y-76002438D02*
X158290476Y-76050057D01*
X158290476Y-76050057D02*
X158242857Y-76145295D01*
X158242857Y-76145295D02*
X158242857Y-76288152D01*
X158242857Y-76288152D02*
X158290476Y-76383390D01*
X158290476Y-76383390D02*
X158338095Y-76431009D01*
X158338095Y-76431009D02*
X158433333Y-76478628D01*
X158433333Y-76478628D02*
X158814285Y-76478628D01*
X157290476Y-76954819D02*
X157861904Y-76954819D01*
X157576190Y-76954819D02*
X157576190Y-75954819D01*
X157576190Y-75954819D02*
X157671428Y-76097676D01*
X157671428Y-76097676D02*
X157766666Y-76192914D01*
X157766666Y-76192914D02*
X157861904Y-76240533D01*
X156433333Y-76288152D02*
X156433333Y-76954819D01*
X156671428Y-75907200D02*
X156909523Y-76621485D01*
X156909523Y-76621485D02*
X156290476Y-76621485D01*
X159416666Y-56759580D02*
X159464285Y-56807200D01*
X159464285Y-56807200D02*
X159607142Y-56854819D01*
X159607142Y-56854819D02*
X159702380Y-56854819D01*
X159702380Y-56854819D02*
X159845237Y-56807200D01*
X159845237Y-56807200D02*
X159940475Y-56711961D01*
X159940475Y-56711961D02*
X159988094Y-56616723D01*
X159988094Y-56616723D02*
X160035713Y-56426247D01*
X160035713Y-56426247D02*
X160035713Y-56283390D01*
X160035713Y-56283390D02*
X159988094Y-56092914D01*
X159988094Y-56092914D02*
X159940475Y-55997676D01*
X159940475Y-55997676D02*
X159845237Y-55902438D01*
X159845237Y-55902438D02*
X159702380Y-55854819D01*
X159702380Y-55854819D02*
X159607142Y-55854819D01*
X159607142Y-55854819D02*
X159464285Y-55902438D01*
X159464285Y-55902438D02*
X159416666Y-55950057D01*
X159083332Y-55854819D02*
X158416666Y-55854819D01*
X158416666Y-55854819D02*
X158845237Y-56854819D01*
X156642857Y-88154819D02*
X156976190Y-87678628D01*
X157214285Y-88154819D02*
X157214285Y-87154819D01*
X157214285Y-87154819D02*
X156833333Y-87154819D01*
X156833333Y-87154819D02*
X156738095Y-87202438D01*
X156738095Y-87202438D02*
X156690476Y-87250057D01*
X156690476Y-87250057D02*
X156642857Y-87345295D01*
X156642857Y-87345295D02*
X156642857Y-87488152D01*
X156642857Y-87488152D02*
X156690476Y-87583390D01*
X156690476Y-87583390D02*
X156738095Y-87631009D01*
X156738095Y-87631009D02*
X156833333Y-87678628D01*
X156833333Y-87678628D02*
X157214285Y-87678628D01*
X155690476Y-88154819D02*
X156261904Y-88154819D01*
X155976190Y-88154819D02*
X155976190Y-87154819D01*
X155976190Y-87154819D02*
X156071428Y-87297676D01*
X156071428Y-87297676D02*
X156166666Y-87392914D01*
X156166666Y-87392914D02*
X156261904Y-87440533D01*
X155071428Y-87154819D02*
X154976190Y-87154819D01*
X154976190Y-87154819D02*
X154880952Y-87202438D01*
X154880952Y-87202438D02*
X154833333Y-87250057D01*
X154833333Y-87250057D02*
X154785714Y-87345295D01*
X154785714Y-87345295D02*
X154738095Y-87535771D01*
X154738095Y-87535771D02*
X154738095Y-87773866D01*
X154738095Y-87773866D02*
X154785714Y-87964342D01*
X154785714Y-87964342D02*
X154833333Y-88059580D01*
X154833333Y-88059580D02*
X154880952Y-88107200D01*
X154880952Y-88107200D02*
X154976190Y-88154819D01*
X154976190Y-88154819D02*
X155071428Y-88154819D01*
X155071428Y-88154819D02*
X155166666Y-88107200D01*
X155166666Y-88107200D02*
X155214285Y-88059580D01*
X155214285Y-88059580D02*
X155261904Y-87964342D01*
X155261904Y-87964342D02*
X155309523Y-87773866D01*
X155309523Y-87773866D02*
X155309523Y-87535771D01*
X155309523Y-87535771D02*
X155261904Y-87345295D01*
X155261904Y-87345295D02*
X155214285Y-87250057D01*
X155214285Y-87250057D02*
X155166666Y-87202438D01*
X155166666Y-87202438D02*
X155071428Y-87154819D01*
X150342857Y-69759580D02*
X150390476Y-69807200D01*
X150390476Y-69807200D02*
X150533333Y-69854819D01*
X150533333Y-69854819D02*
X150628571Y-69854819D01*
X150628571Y-69854819D02*
X150771428Y-69807200D01*
X150771428Y-69807200D02*
X150866666Y-69711961D01*
X150866666Y-69711961D02*
X150914285Y-69616723D01*
X150914285Y-69616723D02*
X150961904Y-69426247D01*
X150961904Y-69426247D02*
X150961904Y-69283390D01*
X150961904Y-69283390D02*
X150914285Y-69092914D01*
X150914285Y-69092914D02*
X150866666Y-68997676D01*
X150866666Y-68997676D02*
X150771428Y-68902438D01*
X150771428Y-68902438D02*
X150628571Y-68854819D01*
X150628571Y-68854819D02*
X150533333Y-68854819D01*
X150533333Y-68854819D02*
X150390476Y-68902438D01*
X150390476Y-68902438D02*
X150342857Y-68950057D01*
X149961904Y-68950057D02*
X149914285Y-68902438D01*
X149914285Y-68902438D02*
X149819047Y-68854819D01*
X149819047Y-68854819D02*
X149580952Y-68854819D01*
X149580952Y-68854819D02*
X149485714Y-68902438D01*
X149485714Y-68902438D02*
X149438095Y-68950057D01*
X149438095Y-68950057D02*
X149390476Y-69045295D01*
X149390476Y-69045295D02*
X149390476Y-69140533D01*
X149390476Y-69140533D02*
X149438095Y-69283390D01*
X149438095Y-69283390D02*
X150009523Y-69854819D01*
X150009523Y-69854819D02*
X149390476Y-69854819D01*
X148771428Y-68854819D02*
X148676190Y-68854819D01*
X148676190Y-68854819D02*
X148580952Y-68902438D01*
X148580952Y-68902438D02*
X148533333Y-68950057D01*
X148533333Y-68950057D02*
X148485714Y-69045295D01*
X148485714Y-69045295D02*
X148438095Y-69235771D01*
X148438095Y-69235771D02*
X148438095Y-69473866D01*
X148438095Y-69473866D02*
X148485714Y-69664342D01*
X148485714Y-69664342D02*
X148533333Y-69759580D01*
X148533333Y-69759580D02*
X148580952Y-69807200D01*
X148580952Y-69807200D02*
X148676190Y-69854819D01*
X148676190Y-69854819D02*
X148771428Y-69854819D01*
X148771428Y-69854819D02*
X148866666Y-69807200D01*
X148866666Y-69807200D02*
X148914285Y-69759580D01*
X148914285Y-69759580D02*
X148961904Y-69664342D01*
X148961904Y-69664342D02*
X149009523Y-69473866D01*
X149009523Y-69473866D02*
X149009523Y-69235771D01*
X149009523Y-69235771D02*
X148961904Y-69045295D01*
X148961904Y-69045295D02*
X148914285Y-68950057D01*
X148914285Y-68950057D02*
X148866666Y-68902438D01*
X148866666Y-68902438D02*
X148771428Y-68854819D01*
X146365238Y-64412557D02*
X146460476Y-64364938D01*
X146460476Y-64364938D02*
X146555714Y-64269700D01*
X146555714Y-64269700D02*
X146698571Y-64126842D01*
X146698571Y-64126842D02*
X146793809Y-64079223D01*
X146793809Y-64079223D02*
X146889047Y-64079223D01*
X146841428Y-64317319D02*
X146936666Y-64269700D01*
X146936666Y-64269700D02*
X147031904Y-64174461D01*
X147031904Y-64174461D02*
X147079523Y-63983985D01*
X147079523Y-63983985D02*
X147079523Y-63650652D01*
X147079523Y-63650652D02*
X147031904Y-63460176D01*
X147031904Y-63460176D02*
X146936666Y-63364938D01*
X146936666Y-63364938D02*
X146841428Y-63317319D01*
X146841428Y-63317319D02*
X146650952Y-63317319D01*
X146650952Y-63317319D02*
X146555714Y-63364938D01*
X146555714Y-63364938D02*
X146460476Y-63460176D01*
X146460476Y-63460176D02*
X146412857Y-63650652D01*
X146412857Y-63650652D02*
X146412857Y-63983985D01*
X146412857Y-63983985D02*
X146460476Y-64174461D01*
X146460476Y-64174461D02*
X146555714Y-64269700D01*
X146555714Y-64269700D02*
X146650952Y-64317319D01*
X146650952Y-64317319D02*
X146841428Y-64317319D01*
X145460476Y-64317319D02*
X146031904Y-64317319D01*
X145746190Y-64317319D02*
X145746190Y-63317319D01*
X145746190Y-63317319D02*
X145841428Y-63460176D01*
X145841428Y-63460176D02*
X145936666Y-63555414D01*
X145936666Y-63555414D02*
X146031904Y-63603033D01*
X156742857Y-81559580D02*
X156790476Y-81607200D01*
X156790476Y-81607200D02*
X156933333Y-81654819D01*
X156933333Y-81654819D02*
X157028571Y-81654819D01*
X157028571Y-81654819D02*
X157171428Y-81607200D01*
X157171428Y-81607200D02*
X157266666Y-81511961D01*
X157266666Y-81511961D02*
X157314285Y-81416723D01*
X157314285Y-81416723D02*
X157361904Y-81226247D01*
X157361904Y-81226247D02*
X157361904Y-81083390D01*
X157361904Y-81083390D02*
X157314285Y-80892914D01*
X157314285Y-80892914D02*
X157266666Y-80797676D01*
X157266666Y-80797676D02*
X157171428Y-80702438D01*
X157171428Y-80702438D02*
X157028571Y-80654819D01*
X157028571Y-80654819D02*
X156933333Y-80654819D01*
X156933333Y-80654819D02*
X156790476Y-80702438D01*
X156790476Y-80702438D02*
X156742857Y-80750057D01*
X156361904Y-80750057D02*
X156314285Y-80702438D01*
X156314285Y-80702438D02*
X156219047Y-80654819D01*
X156219047Y-80654819D02*
X155980952Y-80654819D01*
X155980952Y-80654819D02*
X155885714Y-80702438D01*
X155885714Y-80702438D02*
X155838095Y-80750057D01*
X155838095Y-80750057D02*
X155790476Y-80845295D01*
X155790476Y-80845295D02*
X155790476Y-80940533D01*
X155790476Y-80940533D02*
X155838095Y-81083390D01*
X155838095Y-81083390D02*
X156409523Y-81654819D01*
X156409523Y-81654819D02*
X155790476Y-81654819D01*
X155457142Y-80654819D02*
X154790476Y-80654819D01*
X154790476Y-80654819D02*
X155219047Y-81654819D01*
X149742857Y-84659580D02*
X149790476Y-84707200D01*
X149790476Y-84707200D02*
X149933333Y-84754819D01*
X149933333Y-84754819D02*
X150028571Y-84754819D01*
X150028571Y-84754819D02*
X150171428Y-84707200D01*
X150171428Y-84707200D02*
X150266666Y-84611961D01*
X150266666Y-84611961D02*
X150314285Y-84516723D01*
X150314285Y-84516723D02*
X150361904Y-84326247D01*
X150361904Y-84326247D02*
X150361904Y-84183390D01*
X150361904Y-84183390D02*
X150314285Y-83992914D01*
X150314285Y-83992914D02*
X150266666Y-83897676D01*
X150266666Y-83897676D02*
X150171428Y-83802438D01*
X150171428Y-83802438D02*
X150028571Y-83754819D01*
X150028571Y-83754819D02*
X149933333Y-83754819D01*
X149933333Y-83754819D02*
X149790476Y-83802438D01*
X149790476Y-83802438D02*
X149742857Y-83850057D01*
X148790476Y-84754819D02*
X149361904Y-84754819D01*
X149076190Y-84754819D02*
X149076190Y-83754819D01*
X149076190Y-83754819D02*
X149171428Y-83897676D01*
X149171428Y-83897676D02*
X149266666Y-83992914D01*
X149266666Y-83992914D02*
X149361904Y-84040533D01*
X148171428Y-83754819D02*
X148076190Y-83754819D01*
X148076190Y-83754819D02*
X147980952Y-83802438D01*
X147980952Y-83802438D02*
X147933333Y-83850057D01*
X147933333Y-83850057D02*
X147885714Y-83945295D01*
X147885714Y-83945295D02*
X147838095Y-84135771D01*
X147838095Y-84135771D02*
X147838095Y-84373866D01*
X147838095Y-84373866D02*
X147885714Y-84564342D01*
X147885714Y-84564342D02*
X147933333Y-84659580D01*
X147933333Y-84659580D02*
X147980952Y-84707200D01*
X147980952Y-84707200D02*
X148076190Y-84754819D01*
X148076190Y-84754819D02*
X148171428Y-84754819D01*
X148171428Y-84754819D02*
X148266666Y-84707200D01*
X148266666Y-84707200D02*
X148314285Y-84659580D01*
X148314285Y-84659580D02*
X148361904Y-84564342D01*
X148361904Y-84564342D02*
X148409523Y-84373866D01*
X148409523Y-84373866D02*
X148409523Y-84135771D01*
X148409523Y-84135771D02*
X148361904Y-83945295D01*
X148361904Y-83945295D02*
X148314285Y-83850057D01*
X148314285Y-83850057D02*
X148266666Y-83802438D01*
X148266666Y-83802438D02*
X148171428Y-83754819D01*
X128916666Y-84159580D02*
X128964285Y-84207200D01*
X128964285Y-84207200D02*
X129107142Y-84254819D01*
X129107142Y-84254819D02*
X129202380Y-84254819D01*
X129202380Y-84254819D02*
X129345237Y-84207200D01*
X129345237Y-84207200D02*
X129440475Y-84111961D01*
X129440475Y-84111961D02*
X129488094Y-84016723D01*
X129488094Y-84016723D02*
X129535713Y-83826247D01*
X129535713Y-83826247D02*
X129535713Y-83683390D01*
X129535713Y-83683390D02*
X129488094Y-83492914D01*
X129488094Y-83492914D02*
X129440475Y-83397676D01*
X129440475Y-83397676D02*
X129345237Y-83302438D01*
X129345237Y-83302438D02*
X129202380Y-83254819D01*
X129202380Y-83254819D02*
X129107142Y-83254819D01*
X129107142Y-83254819D02*
X128964285Y-83302438D01*
X128964285Y-83302438D02*
X128916666Y-83350057D01*
X128535713Y-83350057D02*
X128488094Y-83302438D01*
X128488094Y-83302438D02*
X128392856Y-83254819D01*
X128392856Y-83254819D02*
X128154761Y-83254819D01*
X128154761Y-83254819D02*
X128059523Y-83302438D01*
X128059523Y-83302438D02*
X128011904Y-83350057D01*
X128011904Y-83350057D02*
X127964285Y-83445295D01*
X127964285Y-83445295D02*
X127964285Y-83540533D01*
X127964285Y-83540533D02*
X128011904Y-83683390D01*
X128011904Y-83683390D02*
X128583332Y-84254819D01*
X128583332Y-84254819D02*
X127964285Y-84254819D01*
X164742857Y-56904819D02*
X165076190Y-56428628D01*
X165314285Y-56904819D02*
X165314285Y-55904819D01*
X165314285Y-55904819D02*
X164933333Y-55904819D01*
X164933333Y-55904819D02*
X164838095Y-55952438D01*
X164838095Y-55952438D02*
X164790476Y-56000057D01*
X164790476Y-56000057D02*
X164742857Y-56095295D01*
X164742857Y-56095295D02*
X164742857Y-56238152D01*
X164742857Y-56238152D02*
X164790476Y-56333390D01*
X164790476Y-56333390D02*
X164838095Y-56381009D01*
X164838095Y-56381009D02*
X164933333Y-56428628D01*
X164933333Y-56428628D02*
X165314285Y-56428628D01*
X164361904Y-56000057D02*
X164314285Y-55952438D01*
X164314285Y-55952438D02*
X164219047Y-55904819D01*
X164219047Y-55904819D02*
X163980952Y-55904819D01*
X163980952Y-55904819D02*
X163885714Y-55952438D01*
X163885714Y-55952438D02*
X163838095Y-56000057D01*
X163838095Y-56000057D02*
X163790476Y-56095295D01*
X163790476Y-56095295D02*
X163790476Y-56190533D01*
X163790476Y-56190533D02*
X163838095Y-56333390D01*
X163838095Y-56333390D02*
X164409523Y-56904819D01*
X164409523Y-56904819D02*
X163790476Y-56904819D01*
X162933333Y-56238152D02*
X162933333Y-56904819D01*
X163171428Y-55857200D02*
X163409523Y-56571485D01*
X163409523Y-56571485D02*
X162790476Y-56571485D01*
X144166666Y-82054819D02*
X144499999Y-81578628D01*
X144738094Y-82054819D02*
X144738094Y-81054819D01*
X144738094Y-81054819D02*
X144357142Y-81054819D01*
X144357142Y-81054819D02*
X144261904Y-81102438D01*
X144261904Y-81102438D02*
X144214285Y-81150057D01*
X144214285Y-81150057D02*
X144166666Y-81245295D01*
X144166666Y-81245295D02*
X144166666Y-81388152D01*
X144166666Y-81388152D02*
X144214285Y-81483390D01*
X144214285Y-81483390D02*
X144261904Y-81531009D01*
X144261904Y-81531009D02*
X144357142Y-81578628D01*
X144357142Y-81578628D02*
X144738094Y-81578628D01*
X143595237Y-81483390D02*
X143690475Y-81435771D01*
X143690475Y-81435771D02*
X143738094Y-81388152D01*
X143738094Y-81388152D02*
X143785713Y-81292914D01*
X143785713Y-81292914D02*
X143785713Y-81245295D01*
X143785713Y-81245295D02*
X143738094Y-81150057D01*
X143738094Y-81150057D02*
X143690475Y-81102438D01*
X143690475Y-81102438D02*
X143595237Y-81054819D01*
X143595237Y-81054819D02*
X143404761Y-81054819D01*
X143404761Y-81054819D02*
X143309523Y-81102438D01*
X143309523Y-81102438D02*
X143261904Y-81150057D01*
X143261904Y-81150057D02*
X143214285Y-81245295D01*
X143214285Y-81245295D02*
X143214285Y-81292914D01*
X143214285Y-81292914D02*
X143261904Y-81388152D01*
X143261904Y-81388152D02*
X143309523Y-81435771D01*
X143309523Y-81435771D02*
X143404761Y-81483390D01*
X143404761Y-81483390D02*
X143595237Y-81483390D01*
X143595237Y-81483390D02*
X143690475Y-81531009D01*
X143690475Y-81531009D02*
X143738094Y-81578628D01*
X143738094Y-81578628D02*
X143785713Y-81673866D01*
X143785713Y-81673866D02*
X143785713Y-81864342D01*
X143785713Y-81864342D02*
X143738094Y-81959580D01*
X143738094Y-81959580D02*
X143690475Y-82007200D01*
X143690475Y-82007200D02*
X143595237Y-82054819D01*
X143595237Y-82054819D02*
X143404761Y-82054819D01*
X143404761Y-82054819D02*
X143309523Y-82007200D01*
X143309523Y-82007200D02*
X143261904Y-81959580D01*
X143261904Y-81959580D02*
X143214285Y-81864342D01*
X143214285Y-81864342D02*
X143214285Y-81673866D01*
X143214285Y-81673866D02*
X143261904Y-81578628D01*
X143261904Y-81578628D02*
X143309523Y-81531009D01*
X143309523Y-81531009D02*
X143404761Y-81483390D01*
X146742857Y-77154819D02*
X147076190Y-76678628D01*
X147314285Y-77154819D02*
X147314285Y-76154819D01*
X147314285Y-76154819D02*
X146933333Y-76154819D01*
X146933333Y-76154819D02*
X146838095Y-76202438D01*
X146838095Y-76202438D02*
X146790476Y-76250057D01*
X146790476Y-76250057D02*
X146742857Y-76345295D01*
X146742857Y-76345295D02*
X146742857Y-76488152D01*
X146742857Y-76488152D02*
X146790476Y-76583390D01*
X146790476Y-76583390D02*
X146838095Y-76631009D01*
X146838095Y-76631009D02*
X146933333Y-76678628D01*
X146933333Y-76678628D02*
X147314285Y-76678628D01*
X145790476Y-77154819D02*
X146361904Y-77154819D01*
X146076190Y-77154819D02*
X146076190Y-76154819D01*
X146076190Y-76154819D02*
X146171428Y-76297676D01*
X146171428Y-76297676D02*
X146266666Y-76392914D01*
X146266666Y-76392914D02*
X146361904Y-76440533D01*
X145457142Y-76154819D02*
X144838095Y-76154819D01*
X144838095Y-76154819D02*
X145171428Y-76535771D01*
X145171428Y-76535771D02*
X145028571Y-76535771D01*
X145028571Y-76535771D02*
X144933333Y-76583390D01*
X144933333Y-76583390D02*
X144885714Y-76631009D01*
X144885714Y-76631009D02*
X144838095Y-76726247D01*
X144838095Y-76726247D02*
X144838095Y-76964342D01*
X144838095Y-76964342D02*
X144885714Y-77059580D01*
X144885714Y-77059580D02*
X144933333Y-77107200D01*
X144933333Y-77107200D02*
X145028571Y-77154819D01*
X145028571Y-77154819D02*
X145314285Y-77154819D01*
X145314285Y-77154819D02*
X145409523Y-77107200D01*
X145409523Y-77107200D02*
X145457142Y-77059580D01*
X156156666Y-56834580D02*
X156204285Y-56882200D01*
X156204285Y-56882200D02*
X156347142Y-56929819D01*
X156347142Y-56929819D02*
X156442380Y-56929819D01*
X156442380Y-56929819D02*
X156585237Y-56882200D01*
X156585237Y-56882200D02*
X156680475Y-56786961D01*
X156680475Y-56786961D02*
X156728094Y-56691723D01*
X156728094Y-56691723D02*
X156775713Y-56501247D01*
X156775713Y-56501247D02*
X156775713Y-56358390D01*
X156775713Y-56358390D02*
X156728094Y-56167914D01*
X156728094Y-56167914D02*
X156680475Y-56072676D01*
X156680475Y-56072676D02*
X156585237Y-55977438D01*
X156585237Y-55977438D02*
X156442380Y-55929819D01*
X156442380Y-55929819D02*
X156347142Y-55929819D01*
X156347142Y-55929819D02*
X156204285Y-55977438D01*
X156204285Y-55977438D02*
X156156666Y-56025057D01*
X155585237Y-56358390D02*
X155680475Y-56310771D01*
X155680475Y-56310771D02*
X155728094Y-56263152D01*
X155728094Y-56263152D02*
X155775713Y-56167914D01*
X155775713Y-56167914D02*
X155775713Y-56120295D01*
X155775713Y-56120295D02*
X155728094Y-56025057D01*
X155728094Y-56025057D02*
X155680475Y-55977438D01*
X155680475Y-55977438D02*
X155585237Y-55929819D01*
X155585237Y-55929819D02*
X155394761Y-55929819D01*
X155394761Y-55929819D02*
X155299523Y-55977438D01*
X155299523Y-55977438D02*
X155251904Y-56025057D01*
X155251904Y-56025057D02*
X155204285Y-56120295D01*
X155204285Y-56120295D02*
X155204285Y-56167914D01*
X155204285Y-56167914D02*
X155251904Y-56263152D01*
X155251904Y-56263152D02*
X155299523Y-56310771D01*
X155299523Y-56310771D02*
X155394761Y-56358390D01*
X155394761Y-56358390D02*
X155585237Y-56358390D01*
X155585237Y-56358390D02*
X155680475Y-56406009D01*
X155680475Y-56406009D02*
X155728094Y-56453628D01*
X155728094Y-56453628D02*
X155775713Y-56548866D01*
X155775713Y-56548866D02*
X155775713Y-56739342D01*
X155775713Y-56739342D02*
X155728094Y-56834580D01*
X155728094Y-56834580D02*
X155680475Y-56882200D01*
X155680475Y-56882200D02*
X155585237Y-56929819D01*
X155585237Y-56929819D02*
X155394761Y-56929819D01*
X155394761Y-56929819D02*
X155299523Y-56882200D01*
X155299523Y-56882200D02*
X155251904Y-56834580D01*
X155251904Y-56834580D02*
X155204285Y-56739342D01*
X155204285Y-56739342D02*
X155204285Y-56548866D01*
X155204285Y-56548866D02*
X155251904Y-56453628D01*
X155251904Y-56453628D02*
X155299523Y-56406009D01*
X155299523Y-56406009D02*
X155394761Y-56358390D01*
X152656666Y-54334580D02*
X152704285Y-54382200D01*
X152704285Y-54382200D02*
X152847142Y-54429819D01*
X152847142Y-54429819D02*
X152942380Y-54429819D01*
X152942380Y-54429819D02*
X153085237Y-54382200D01*
X153085237Y-54382200D02*
X153180475Y-54286961D01*
X153180475Y-54286961D02*
X153228094Y-54191723D01*
X153228094Y-54191723D02*
X153275713Y-54001247D01*
X153275713Y-54001247D02*
X153275713Y-53858390D01*
X153275713Y-53858390D02*
X153228094Y-53667914D01*
X153228094Y-53667914D02*
X153180475Y-53572676D01*
X153180475Y-53572676D02*
X153085237Y-53477438D01*
X153085237Y-53477438D02*
X152942380Y-53429819D01*
X152942380Y-53429819D02*
X152847142Y-53429819D01*
X152847142Y-53429819D02*
X152704285Y-53477438D01*
X152704285Y-53477438D02*
X152656666Y-53525057D01*
X152180475Y-54429819D02*
X151989999Y-54429819D01*
X151989999Y-54429819D02*
X151894761Y-54382200D01*
X151894761Y-54382200D02*
X151847142Y-54334580D01*
X151847142Y-54334580D02*
X151751904Y-54191723D01*
X151751904Y-54191723D02*
X151704285Y-54001247D01*
X151704285Y-54001247D02*
X151704285Y-53620295D01*
X151704285Y-53620295D02*
X151751904Y-53525057D01*
X151751904Y-53525057D02*
X151799523Y-53477438D01*
X151799523Y-53477438D02*
X151894761Y-53429819D01*
X151894761Y-53429819D02*
X152085237Y-53429819D01*
X152085237Y-53429819D02*
X152180475Y-53477438D01*
X152180475Y-53477438D02*
X152228094Y-53525057D01*
X152228094Y-53525057D02*
X152275713Y-53620295D01*
X152275713Y-53620295D02*
X152275713Y-53858390D01*
X152275713Y-53858390D02*
X152228094Y-53953628D01*
X152228094Y-53953628D02*
X152180475Y-54001247D01*
X152180475Y-54001247D02*
X152085237Y-54048866D01*
X152085237Y-54048866D02*
X151894761Y-54048866D01*
X151894761Y-54048866D02*
X151799523Y-54001247D01*
X151799523Y-54001247D02*
X151751904Y-53953628D01*
X151751904Y-53953628D02*
X151704285Y-53858390D01*
X155766666Y-86054819D02*
X156099999Y-85578628D01*
X156338094Y-86054819D02*
X156338094Y-85054819D01*
X156338094Y-85054819D02*
X155957142Y-85054819D01*
X155957142Y-85054819D02*
X155861904Y-85102438D01*
X155861904Y-85102438D02*
X155814285Y-85150057D01*
X155814285Y-85150057D02*
X155766666Y-85245295D01*
X155766666Y-85245295D02*
X155766666Y-85388152D01*
X155766666Y-85388152D02*
X155814285Y-85483390D01*
X155814285Y-85483390D02*
X155861904Y-85531009D01*
X155861904Y-85531009D02*
X155957142Y-85578628D01*
X155957142Y-85578628D02*
X156338094Y-85578628D01*
X155290475Y-86054819D02*
X155099999Y-86054819D01*
X155099999Y-86054819D02*
X155004761Y-86007200D01*
X155004761Y-86007200D02*
X154957142Y-85959580D01*
X154957142Y-85959580D02*
X154861904Y-85816723D01*
X154861904Y-85816723D02*
X154814285Y-85626247D01*
X154814285Y-85626247D02*
X154814285Y-85245295D01*
X154814285Y-85245295D02*
X154861904Y-85150057D01*
X154861904Y-85150057D02*
X154909523Y-85102438D01*
X154909523Y-85102438D02*
X155004761Y-85054819D01*
X155004761Y-85054819D02*
X155195237Y-85054819D01*
X155195237Y-85054819D02*
X155290475Y-85102438D01*
X155290475Y-85102438D02*
X155338094Y-85150057D01*
X155338094Y-85150057D02*
X155385713Y-85245295D01*
X155385713Y-85245295D02*
X155385713Y-85483390D01*
X155385713Y-85483390D02*
X155338094Y-85578628D01*
X155338094Y-85578628D02*
X155290475Y-85626247D01*
X155290475Y-85626247D02*
X155195237Y-85673866D01*
X155195237Y-85673866D02*
X155004761Y-85673866D01*
X155004761Y-85673866D02*
X154909523Y-85626247D01*
X154909523Y-85626247D02*
X154861904Y-85578628D01*
X154861904Y-85578628D02*
X154814285Y-85483390D01*
X121966666Y-70159580D02*
X122014285Y-70207200D01*
X122014285Y-70207200D02*
X122157142Y-70254819D01*
X122157142Y-70254819D02*
X122252380Y-70254819D01*
X122252380Y-70254819D02*
X122395237Y-70207200D01*
X122395237Y-70207200D02*
X122490475Y-70111961D01*
X122490475Y-70111961D02*
X122538094Y-70016723D01*
X122538094Y-70016723D02*
X122585713Y-69826247D01*
X122585713Y-69826247D02*
X122585713Y-69683390D01*
X122585713Y-69683390D02*
X122538094Y-69492914D01*
X122538094Y-69492914D02*
X122490475Y-69397676D01*
X122490475Y-69397676D02*
X122395237Y-69302438D01*
X122395237Y-69302438D02*
X122252380Y-69254819D01*
X122252380Y-69254819D02*
X122157142Y-69254819D01*
X122157142Y-69254819D02*
X122014285Y-69302438D01*
X122014285Y-69302438D02*
X121966666Y-69350057D01*
X121109523Y-69588152D02*
X121109523Y-70254819D01*
X121347618Y-69207200D02*
X121585713Y-69921485D01*
X121585713Y-69921485D02*
X120966666Y-69921485D01*
X154342857Y-69259580D02*
X154390476Y-69307200D01*
X154390476Y-69307200D02*
X154533333Y-69354819D01*
X154533333Y-69354819D02*
X154628571Y-69354819D01*
X154628571Y-69354819D02*
X154771428Y-69307200D01*
X154771428Y-69307200D02*
X154866666Y-69211961D01*
X154866666Y-69211961D02*
X154914285Y-69116723D01*
X154914285Y-69116723D02*
X154961904Y-68926247D01*
X154961904Y-68926247D02*
X154961904Y-68783390D01*
X154961904Y-68783390D02*
X154914285Y-68592914D01*
X154914285Y-68592914D02*
X154866666Y-68497676D01*
X154866666Y-68497676D02*
X154771428Y-68402438D01*
X154771428Y-68402438D02*
X154628571Y-68354819D01*
X154628571Y-68354819D02*
X154533333Y-68354819D01*
X154533333Y-68354819D02*
X154390476Y-68402438D01*
X154390476Y-68402438D02*
X154342857Y-68450057D01*
X153961904Y-68450057D02*
X153914285Y-68402438D01*
X153914285Y-68402438D02*
X153819047Y-68354819D01*
X153819047Y-68354819D02*
X153580952Y-68354819D01*
X153580952Y-68354819D02*
X153485714Y-68402438D01*
X153485714Y-68402438D02*
X153438095Y-68450057D01*
X153438095Y-68450057D02*
X153390476Y-68545295D01*
X153390476Y-68545295D02*
X153390476Y-68640533D01*
X153390476Y-68640533D02*
X153438095Y-68783390D01*
X153438095Y-68783390D02*
X154009523Y-69354819D01*
X154009523Y-69354819D02*
X153390476Y-69354819D01*
X153057142Y-68354819D02*
X152438095Y-68354819D01*
X152438095Y-68354819D02*
X152771428Y-68735771D01*
X152771428Y-68735771D02*
X152628571Y-68735771D01*
X152628571Y-68735771D02*
X152533333Y-68783390D01*
X152533333Y-68783390D02*
X152485714Y-68831009D01*
X152485714Y-68831009D02*
X152438095Y-68926247D01*
X152438095Y-68926247D02*
X152438095Y-69164342D01*
X152438095Y-69164342D02*
X152485714Y-69259580D01*
X152485714Y-69259580D02*
X152533333Y-69307200D01*
X152533333Y-69307200D02*
X152628571Y-69354819D01*
X152628571Y-69354819D02*
X152914285Y-69354819D01*
X152914285Y-69354819D02*
X153009523Y-69307200D01*
X153009523Y-69307200D02*
X153057142Y-69259580D01*
X169642857Y-59259580D02*
X169690476Y-59307200D01*
X169690476Y-59307200D02*
X169833333Y-59354819D01*
X169833333Y-59354819D02*
X169928571Y-59354819D01*
X169928571Y-59354819D02*
X170071428Y-59307200D01*
X170071428Y-59307200D02*
X170166666Y-59211961D01*
X170166666Y-59211961D02*
X170214285Y-59116723D01*
X170214285Y-59116723D02*
X170261904Y-58926247D01*
X170261904Y-58926247D02*
X170261904Y-58783390D01*
X170261904Y-58783390D02*
X170214285Y-58592914D01*
X170214285Y-58592914D02*
X170166666Y-58497676D01*
X170166666Y-58497676D02*
X170071428Y-58402438D01*
X170071428Y-58402438D02*
X169928571Y-58354819D01*
X169928571Y-58354819D02*
X169833333Y-58354819D01*
X169833333Y-58354819D02*
X169690476Y-58402438D01*
X169690476Y-58402438D02*
X169642857Y-58450057D01*
X169261904Y-58450057D02*
X169214285Y-58402438D01*
X169214285Y-58402438D02*
X169119047Y-58354819D01*
X169119047Y-58354819D02*
X168880952Y-58354819D01*
X168880952Y-58354819D02*
X168785714Y-58402438D01*
X168785714Y-58402438D02*
X168738095Y-58450057D01*
X168738095Y-58450057D02*
X168690476Y-58545295D01*
X168690476Y-58545295D02*
X168690476Y-58640533D01*
X168690476Y-58640533D02*
X168738095Y-58783390D01*
X168738095Y-58783390D02*
X169309523Y-59354819D01*
X169309523Y-59354819D02*
X168690476Y-59354819D01*
X168119047Y-58783390D02*
X168214285Y-58735771D01*
X168214285Y-58735771D02*
X168261904Y-58688152D01*
X168261904Y-58688152D02*
X168309523Y-58592914D01*
X168309523Y-58592914D02*
X168309523Y-58545295D01*
X168309523Y-58545295D02*
X168261904Y-58450057D01*
X168261904Y-58450057D02*
X168214285Y-58402438D01*
X168214285Y-58402438D02*
X168119047Y-58354819D01*
X168119047Y-58354819D02*
X167928571Y-58354819D01*
X167928571Y-58354819D02*
X167833333Y-58402438D01*
X167833333Y-58402438D02*
X167785714Y-58450057D01*
X167785714Y-58450057D02*
X167738095Y-58545295D01*
X167738095Y-58545295D02*
X167738095Y-58592914D01*
X167738095Y-58592914D02*
X167785714Y-58688152D01*
X167785714Y-58688152D02*
X167833333Y-58735771D01*
X167833333Y-58735771D02*
X167928571Y-58783390D01*
X167928571Y-58783390D02*
X168119047Y-58783390D01*
X168119047Y-58783390D02*
X168214285Y-58831009D01*
X168214285Y-58831009D02*
X168261904Y-58878628D01*
X168261904Y-58878628D02*
X168309523Y-58973866D01*
X168309523Y-58973866D02*
X168309523Y-59164342D01*
X168309523Y-59164342D02*
X168261904Y-59259580D01*
X168261904Y-59259580D02*
X168214285Y-59307200D01*
X168214285Y-59307200D02*
X168119047Y-59354819D01*
X168119047Y-59354819D02*
X167928571Y-59354819D01*
X167928571Y-59354819D02*
X167833333Y-59307200D01*
X167833333Y-59307200D02*
X167785714Y-59259580D01*
X167785714Y-59259580D02*
X167738095Y-59164342D01*
X167738095Y-59164342D02*
X167738095Y-58973866D01*
X167738095Y-58973866D02*
X167785714Y-58878628D01*
X167785714Y-58878628D02*
X167833333Y-58831009D01*
X167833333Y-58831009D02*
X167928571Y-58783390D01*
X140066666Y-72754819D02*
X140399999Y-72278628D01*
X140638094Y-72754819D02*
X140638094Y-71754819D01*
X140638094Y-71754819D02*
X140257142Y-71754819D01*
X140257142Y-71754819D02*
X140161904Y-71802438D01*
X140161904Y-71802438D02*
X140114285Y-71850057D01*
X140114285Y-71850057D02*
X140066666Y-71945295D01*
X140066666Y-71945295D02*
X140066666Y-72088152D01*
X140066666Y-72088152D02*
X140114285Y-72183390D01*
X140114285Y-72183390D02*
X140161904Y-72231009D01*
X140161904Y-72231009D02*
X140257142Y-72278628D01*
X140257142Y-72278628D02*
X140638094Y-72278628D01*
X139161904Y-71754819D02*
X139638094Y-71754819D01*
X139638094Y-71754819D02*
X139685713Y-72231009D01*
X139685713Y-72231009D02*
X139638094Y-72183390D01*
X139638094Y-72183390D02*
X139542856Y-72135771D01*
X139542856Y-72135771D02*
X139304761Y-72135771D01*
X139304761Y-72135771D02*
X139209523Y-72183390D01*
X139209523Y-72183390D02*
X139161904Y-72231009D01*
X139161904Y-72231009D02*
X139114285Y-72326247D01*
X139114285Y-72326247D02*
X139114285Y-72564342D01*
X139114285Y-72564342D02*
X139161904Y-72659580D01*
X139161904Y-72659580D02*
X139209523Y-72707200D01*
X139209523Y-72707200D02*
X139304761Y-72754819D01*
X139304761Y-72754819D02*
X139542856Y-72754819D01*
X139542856Y-72754819D02*
X139638094Y-72707200D01*
X139638094Y-72707200D02*
X139685713Y-72659580D01*
X106566666Y-81659580D02*
X106614285Y-81707200D01*
X106614285Y-81707200D02*
X106757142Y-81754819D01*
X106757142Y-81754819D02*
X106852380Y-81754819D01*
X106852380Y-81754819D02*
X106995237Y-81707200D01*
X106995237Y-81707200D02*
X107090475Y-81611961D01*
X107090475Y-81611961D02*
X107138094Y-81516723D01*
X107138094Y-81516723D02*
X107185713Y-81326247D01*
X107185713Y-81326247D02*
X107185713Y-81183390D01*
X107185713Y-81183390D02*
X107138094Y-80992914D01*
X107138094Y-80992914D02*
X107090475Y-80897676D01*
X107090475Y-80897676D02*
X106995237Y-80802438D01*
X106995237Y-80802438D02*
X106852380Y-80754819D01*
X106852380Y-80754819D02*
X106757142Y-80754819D01*
X106757142Y-80754819D02*
X106614285Y-80802438D01*
X106614285Y-80802438D02*
X106566666Y-80850057D01*
X105614285Y-81754819D02*
X106185713Y-81754819D01*
X105899999Y-81754819D02*
X105899999Y-80754819D01*
X105899999Y-80754819D02*
X105995237Y-80897676D01*
X105995237Y-80897676D02*
X106090475Y-80992914D01*
X106090475Y-80992914D02*
X106185713Y-81040533D01*
X158442857Y-74654819D02*
X158776190Y-74178628D01*
X159014285Y-74654819D02*
X159014285Y-73654819D01*
X159014285Y-73654819D02*
X158633333Y-73654819D01*
X158633333Y-73654819D02*
X158538095Y-73702438D01*
X158538095Y-73702438D02*
X158490476Y-73750057D01*
X158490476Y-73750057D02*
X158442857Y-73845295D01*
X158442857Y-73845295D02*
X158442857Y-73988152D01*
X158442857Y-73988152D02*
X158490476Y-74083390D01*
X158490476Y-74083390D02*
X158538095Y-74131009D01*
X158538095Y-74131009D02*
X158633333Y-74178628D01*
X158633333Y-74178628D02*
X159014285Y-74178628D01*
X157490476Y-74654819D02*
X158061904Y-74654819D01*
X157776190Y-74654819D02*
X157776190Y-73654819D01*
X157776190Y-73654819D02*
X157871428Y-73797676D01*
X157871428Y-73797676D02*
X157966666Y-73892914D01*
X157966666Y-73892914D02*
X158061904Y-73940533D01*
X156585714Y-73654819D02*
X157061904Y-73654819D01*
X157061904Y-73654819D02*
X157109523Y-74131009D01*
X157109523Y-74131009D02*
X157061904Y-74083390D01*
X157061904Y-74083390D02*
X156966666Y-74035771D01*
X156966666Y-74035771D02*
X156728571Y-74035771D01*
X156728571Y-74035771D02*
X156633333Y-74083390D01*
X156633333Y-74083390D02*
X156585714Y-74131009D01*
X156585714Y-74131009D02*
X156538095Y-74226247D01*
X156538095Y-74226247D02*
X156538095Y-74464342D01*
X156538095Y-74464342D02*
X156585714Y-74559580D01*
X156585714Y-74559580D02*
X156633333Y-74607200D01*
X156633333Y-74607200D02*
X156728571Y-74654819D01*
X156728571Y-74654819D02*
X156966666Y-74654819D01*
X156966666Y-74654819D02*
X157061904Y-74607200D01*
X157061904Y-74607200D02*
X157109523Y-74559580D01*
X143466666Y-59154819D02*
X143799999Y-58678628D01*
X144038094Y-59154819D02*
X144038094Y-58154819D01*
X144038094Y-58154819D02*
X143657142Y-58154819D01*
X143657142Y-58154819D02*
X143561904Y-58202438D01*
X143561904Y-58202438D02*
X143514285Y-58250057D01*
X143514285Y-58250057D02*
X143466666Y-58345295D01*
X143466666Y-58345295D02*
X143466666Y-58488152D01*
X143466666Y-58488152D02*
X143514285Y-58583390D01*
X143514285Y-58583390D02*
X143561904Y-58631009D01*
X143561904Y-58631009D02*
X143657142Y-58678628D01*
X143657142Y-58678628D02*
X144038094Y-58678628D01*
X142514285Y-59154819D02*
X143085713Y-59154819D01*
X142799999Y-59154819D02*
X142799999Y-58154819D01*
X142799999Y-58154819D02*
X142895237Y-58297676D01*
X142895237Y-58297676D02*
X142990475Y-58392914D01*
X142990475Y-58392914D02*
X143085713Y-58440533D01*
X157442857Y-64759580D02*
X157490476Y-64807200D01*
X157490476Y-64807200D02*
X157633333Y-64854819D01*
X157633333Y-64854819D02*
X157728571Y-64854819D01*
X157728571Y-64854819D02*
X157871428Y-64807200D01*
X157871428Y-64807200D02*
X157966666Y-64711961D01*
X157966666Y-64711961D02*
X158014285Y-64616723D01*
X158014285Y-64616723D02*
X158061904Y-64426247D01*
X158061904Y-64426247D02*
X158061904Y-64283390D01*
X158061904Y-64283390D02*
X158014285Y-64092914D01*
X158014285Y-64092914D02*
X157966666Y-63997676D01*
X157966666Y-63997676D02*
X157871428Y-63902438D01*
X157871428Y-63902438D02*
X157728571Y-63854819D01*
X157728571Y-63854819D02*
X157633333Y-63854819D01*
X157633333Y-63854819D02*
X157490476Y-63902438D01*
X157490476Y-63902438D02*
X157442857Y-63950057D01*
X157109523Y-63854819D02*
X156490476Y-63854819D01*
X156490476Y-63854819D02*
X156823809Y-64235771D01*
X156823809Y-64235771D02*
X156680952Y-64235771D01*
X156680952Y-64235771D02*
X156585714Y-64283390D01*
X156585714Y-64283390D02*
X156538095Y-64331009D01*
X156538095Y-64331009D02*
X156490476Y-64426247D01*
X156490476Y-64426247D02*
X156490476Y-64664342D01*
X156490476Y-64664342D02*
X156538095Y-64759580D01*
X156538095Y-64759580D02*
X156585714Y-64807200D01*
X156585714Y-64807200D02*
X156680952Y-64854819D01*
X156680952Y-64854819D02*
X156966666Y-64854819D01*
X156966666Y-64854819D02*
X157061904Y-64807200D01*
X157061904Y-64807200D02*
X157109523Y-64759580D01*
X156109523Y-63950057D02*
X156061904Y-63902438D01*
X156061904Y-63902438D02*
X155966666Y-63854819D01*
X155966666Y-63854819D02*
X155728571Y-63854819D01*
X155728571Y-63854819D02*
X155633333Y-63902438D01*
X155633333Y-63902438D02*
X155585714Y-63950057D01*
X155585714Y-63950057D02*
X155538095Y-64045295D01*
X155538095Y-64045295D02*
X155538095Y-64140533D01*
X155538095Y-64140533D02*
X155585714Y-64283390D01*
X155585714Y-64283390D02*
X156157142Y-64854819D01*
X156157142Y-64854819D02*
X155538095Y-64854819D01*
X107642857Y-58359580D02*
X107690476Y-58407200D01*
X107690476Y-58407200D02*
X107833333Y-58454819D01*
X107833333Y-58454819D02*
X107928571Y-58454819D01*
X107928571Y-58454819D02*
X108071428Y-58407200D01*
X108071428Y-58407200D02*
X108166666Y-58311961D01*
X108166666Y-58311961D02*
X108214285Y-58216723D01*
X108214285Y-58216723D02*
X108261904Y-58026247D01*
X108261904Y-58026247D02*
X108261904Y-57883390D01*
X108261904Y-57883390D02*
X108214285Y-57692914D01*
X108214285Y-57692914D02*
X108166666Y-57597676D01*
X108166666Y-57597676D02*
X108071428Y-57502438D01*
X108071428Y-57502438D02*
X107928571Y-57454819D01*
X107928571Y-57454819D02*
X107833333Y-57454819D01*
X107833333Y-57454819D02*
X107690476Y-57502438D01*
X107690476Y-57502438D02*
X107642857Y-57550057D01*
X107261904Y-57550057D02*
X107214285Y-57502438D01*
X107214285Y-57502438D02*
X107119047Y-57454819D01*
X107119047Y-57454819D02*
X106880952Y-57454819D01*
X106880952Y-57454819D02*
X106785714Y-57502438D01*
X106785714Y-57502438D02*
X106738095Y-57550057D01*
X106738095Y-57550057D02*
X106690476Y-57645295D01*
X106690476Y-57645295D02*
X106690476Y-57740533D01*
X106690476Y-57740533D02*
X106738095Y-57883390D01*
X106738095Y-57883390D02*
X107309523Y-58454819D01*
X107309523Y-58454819D02*
X106690476Y-58454819D01*
X105785714Y-57454819D02*
X106261904Y-57454819D01*
X106261904Y-57454819D02*
X106309523Y-57931009D01*
X106309523Y-57931009D02*
X106261904Y-57883390D01*
X106261904Y-57883390D02*
X106166666Y-57835771D01*
X106166666Y-57835771D02*
X105928571Y-57835771D01*
X105928571Y-57835771D02*
X105833333Y-57883390D01*
X105833333Y-57883390D02*
X105785714Y-57931009D01*
X105785714Y-57931009D02*
X105738095Y-58026247D01*
X105738095Y-58026247D02*
X105738095Y-58264342D01*
X105738095Y-58264342D02*
X105785714Y-58359580D01*
X105785714Y-58359580D02*
X105833333Y-58407200D01*
X105833333Y-58407200D02*
X105928571Y-58454819D01*
X105928571Y-58454819D02*
X106166666Y-58454819D01*
X106166666Y-58454819D02*
X106261904Y-58407200D01*
X106261904Y-58407200D02*
X106309523Y-58359580D01*
X113866666Y-71759580D02*
X113914285Y-71807200D01*
X113914285Y-71807200D02*
X114057142Y-71854819D01*
X114057142Y-71854819D02*
X114152380Y-71854819D01*
X114152380Y-71854819D02*
X114295237Y-71807200D01*
X114295237Y-71807200D02*
X114390475Y-71711961D01*
X114390475Y-71711961D02*
X114438094Y-71616723D01*
X114438094Y-71616723D02*
X114485713Y-71426247D01*
X114485713Y-71426247D02*
X114485713Y-71283390D01*
X114485713Y-71283390D02*
X114438094Y-71092914D01*
X114438094Y-71092914D02*
X114390475Y-70997676D01*
X114390475Y-70997676D02*
X114295237Y-70902438D01*
X114295237Y-70902438D02*
X114152380Y-70854819D01*
X114152380Y-70854819D02*
X114057142Y-70854819D01*
X114057142Y-70854819D02*
X113914285Y-70902438D01*
X113914285Y-70902438D02*
X113866666Y-70950057D01*
X113533332Y-70854819D02*
X112914285Y-70854819D01*
X112914285Y-70854819D02*
X113247618Y-71235771D01*
X113247618Y-71235771D02*
X113104761Y-71235771D01*
X113104761Y-71235771D02*
X113009523Y-71283390D01*
X113009523Y-71283390D02*
X112961904Y-71331009D01*
X112961904Y-71331009D02*
X112914285Y-71426247D01*
X112914285Y-71426247D02*
X112914285Y-71664342D01*
X112914285Y-71664342D02*
X112961904Y-71759580D01*
X112961904Y-71759580D02*
X113009523Y-71807200D01*
X113009523Y-71807200D02*
X113104761Y-71854819D01*
X113104761Y-71854819D02*
X113390475Y-71854819D01*
X113390475Y-71854819D02*
X113485713Y-71807200D01*
X113485713Y-71807200D02*
X113533332Y-71759580D01*
X164142857Y-49459580D02*
X164190476Y-49507200D01*
X164190476Y-49507200D02*
X164333333Y-49554819D01*
X164333333Y-49554819D02*
X164428571Y-49554819D01*
X164428571Y-49554819D02*
X164571428Y-49507200D01*
X164571428Y-49507200D02*
X164666666Y-49411961D01*
X164666666Y-49411961D02*
X164714285Y-49316723D01*
X164714285Y-49316723D02*
X164761904Y-49126247D01*
X164761904Y-49126247D02*
X164761904Y-48983390D01*
X164761904Y-48983390D02*
X164714285Y-48792914D01*
X164714285Y-48792914D02*
X164666666Y-48697676D01*
X164666666Y-48697676D02*
X164571428Y-48602438D01*
X164571428Y-48602438D02*
X164428571Y-48554819D01*
X164428571Y-48554819D02*
X164333333Y-48554819D01*
X164333333Y-48554819D02*
X164190476Y-48602438D01*
X164190476Y-48602438D02*
X164142857Y-48650057D01*
X163809523Y-48554819D02*
X163190476Y-48554819D01*
X163190476Y-48554819D02*
X163523809Y-48935771D01*
X163523809Y-48935771D02*
X163380952Y-48935771D01*
X163380952Y-48935771D02*
X163285714Y-48983390D01*
X163285714Y-48983390D02*
X163238095Y-49031009D01*
X163238095Y-49031009D02*
X163190476Y-49126247D01*
X163190476Y-49126247D02*
X163190476Y-49364342D01*
X163190476Y-49364342D02*
X163238095Y-49459580D01*
X163238095Y-49459580D02*
X163285714Y-49507200D01*
X163285714Y-49507200D02*
X163380952Y-49554819D01*
X163380952Y-49554819D02*
X163666666Y-49554819D01*
X163666666Y-49554819D02*
X163761904Y-49507200D01*
X163761904Y-49507200D02*
X163809523Y-49459580D01*
X162333333Y-48554819D02*
X162523809Y-48554819D01*
X162523809Y-48554819D02*
X162619047Y-48602438D01*
X162619047Y-48602438D02*
X162666666Y-48650057D01*
X162666666Y-48650057D02*
X162761904Y-48792914D01*
X162761904Y-48792914D02*
X162809523Y-48983390D01*
X162809523Y-48983390D02*
X162809523Y-49364342D01*
X162809523Y-49364342D02*
X162761904Y-49459580D01*
X162761904Y-49459580D02*
X162714285Y-49507200D01*
X162714285Y-49507200D02*
X162619047Y-49554819D01*
X162619047Y-49554819D02*
X162428571Y-49554819D01*
X162428571Y-49554819D02*
X162333333Y-49507200D01*
X162333333Y-49507200D02*
X162285714Y-49459580D01*
X162285714Y-49459580D02*
X162238095Y-49364342D01*
X162238095Y-49364342D02*
X162238095Y-49126247D01*
X162238095Y-49126247D02*
X162285714Y-49031009D01*
X162285714Y-49031009D02*
X162333333Y-48983390D01*
X162333333Y-48983390D02*
X162428571Y-48935771D01*
X162428571Y-48935771D02*
X162619047Y-48935771D01*
X162619047Y-48935771D02*
X162714285Y-48983390D01*
X162714285Y-48983390D02*
X162761904Y-49031009D01*
X162761904Y-49031009D02*
X162809523Y-49126247D01*
X164971428Y-63350057D02*
X165066666Y-63302438D01*
X165066666Y-63302438D02*
X165161904Y-63207200D01*
X165161904Y-63207200D02*
X165304761Y-63064342D01*
X165304761Y-63064342D02*
X165399999Y-63016723D01*
X165399999Y-63016723D02*
X165495237Y-63016723D01*
X165447618Y-63254819D02*
X165542856Y-63207200D01*
X165542856Y-63207200D02*
X165638094Y-63111961D01*
X165638094Y-63111961D02*
X165685713Y-62921485D01*
X165685713Y-62921485D02*
X165685713Y-62588152D01*
X165685713Y-62588152D02*
X165638094Y-62397676D01*
X165638094Y-62397676D02*
X165542856Y-62302438D01*
X165542856Y-62302438D02*
X165447618Y-62254819D01*
X165447618Y-62254819D02*
X165257142Y-62254819D01*
X165257142Y-62254819D02*
X165161904Y-62302438D01*
X165161904Y-62302438D02*
X165066666Y-62397676D01*
X165066666Y-62397676D02*
X165019047Y-62588152D01*
X165019047Y-62588152D02*
X165019047Y-62921485D01*
X165019047Y-62921485D02*
X165066666Y-63111961D01*
X165066666Y-63111961D02*
X165161904Y-63207200D01*
X165161904Y-63207200D02*
X165257142Y-63254819D01*
X165257142Y-63254819D02*
X165447618Y-63254819D01*
X164066666Y-63254819D02*
X164638094Y-63254819D01*
X164352380Y-63254819D02*
X164352380Y-62254819D01*
X164352380Y-62254819D02*
X164447618Y-62397676D01*
X164447618Y-62397676D02*
X164542856Y-62492914D01*
X164542856Y-62492914D02*
X164638094Y-62540533D01*
X163447618Y-62254819D02*
X163352380Y-62254819D01*
X163352380Y-62254819D02*
X163257142Y-62302438D01*
X163257142Y-62302438D02*
X163209523Y-62350057D01*
X163209523Y-62350057D02*
X163161904Y-62445295D01*
X163161904Y-62445295D02*
X163114285Y-62635771D01*
X163114285Y-62635771D02*
X163114285Y-62873866D01*
X163114285Y-62873866D02*
X163161904Y-63064342D01*
X163161904Y-63064342D02*
X163209523Y-63159580D01*
X163209523Y-63159580D02*
X163257142Y-63207200D01*
X163257142Y-63207200D02*
X163352380Y-63254819D01*
X163352380Y-63254819D02*
X163447618Y-63254819D01*
X163447618Y-63254819D02*
X163542856Y-63207200D01*
X163542856Y-63207200D02*
X163590475Y-63159580D01*
X163590475Y-63159580D02*
X163638094Y-63064342D01*
X163638094Y-63064342D02*
X163685713Y-62873866D01*
X163685713Y-62873866D02*
X163685713Y-62635771D01*
X163685713Y-62635771D02*
X163638094Y-62445295D01*
X163638094Y-62445295D02*
X163590475Y-62350057D01*
X163590475Y-62350057D02*
X163542856Y-62302438D01*
X163542856Y-62302438D02*
X163447618Y-62254819D01*
X150855357Y-73429580D02*
X150902976Y-73477200D01*
X150902976Y-73477200D02*
X151045833Y-73524819D01*
X151045833Y-73524819D02*
X151141071Y-73524819D01*
X151141071Y-73524819D02*
X151283928Y-73477200D01*
X151283928Y-73477200D02*
X151379166Y-73381961D01*
X151379166Y-73381961D02*
X151426785Y-73286723D01*
X151426785Y-73286723D02*
X151474404Y-73096247D01*
X151474404Y-73096247D02*
X151474404Y-72953390D01*
X151474404Y-72953390D02*
X151426785Y-72762914D01*
X151426785Y-72762914D02*
X151379166Y-72667676D01*
X151379166Y-72667676D02*
X151283928Y-72572438D01*
X151283928Y-72572438D02*
X151141071Y-72524819D01*
X151141071Y-72524819D02*
X151045833Y-72524819D01*
X151045833Y-72524819D02*
X150902976Y-72572438D01*
X150902976Y-72572438D02*
X150855357Y-72620057D01*
X149902976Y-73524819D02*
X150474404Y-73524819D01*
X150188690Y-73524819D02*
X150188690Y-72524819D01*
X150188690Y-72524819D02*
X150283928Y-72667676D01*
X150283928Y-72667676D02*
X150379166Y-72762914D01*
X150379166Y-72762914D02*
X150474404Y-72810533D01*
X149569642Y-72524819D02*
X148902976Y-72524819D01*
X148902976Y-72524819D02*
X149331547Y-73524819D01*
X138566666Y-59154819D02*
X138899999Y-58678628D01*
X139138094Y-59154819D02*
X139138094Y-58154819D01*
X139138094Y-58154819D02*
X138757142Y-58154819D01*
X138757142Y-58154819D02*
X138661904Y-58202438D01*
X138661904Y-58202438D02*
X138614285Y-58250057D01*
X138614285Y-58250057D02*
X138566666Y-58345295D01*
X138566666Y-58345295D02*
X138566666Y-58488152D01*
X138566666Y-58488152D02*
X138614285Y-58583390D01*
X138614285Y-58583390D02*
X138661904Y-58631009D01*
X138661904Y-58631009D02*
X138757142Y-58678628D01*
X138757142Y-58678628D02*
X139138094Y-58678628D01*
X138185713Y-58250057D02*
X138138094Y-58202438D01*
X138138094Y-58202438D02*
X138042856Y-58154819D01*
X138042856Y-58154819D02*
X137804761Y-58154819D01*
X137804761Y-58154819D02*
X137709523Y-58202438D01*
X137709523Y-58202438D02*
X137661904Y-58250057D01*
X137661904Y-58250057D02*
X137614285Y-58345295D01*
X137614285Y-58345295D02*
X137614285Y-58440533D01*
X137614285Y-58440533D02*
X137661904Y-58583390D01*
X137661904Y-58583390D02*
X138233332Y-59154819D01*
X138233332Y-59154819D02*
X137614285Y-59154819D01*
X154742857Y-83559580D02*
X154790476Y-83607200D01*
X154790476Y-83607200D02*
X154933333Y-83654819D01*
X154933333Y-83654819D02*
X155028571Y-83654819D01*
X155028571Y-83654819D02*
X155171428Y-83607200D01*
X155171428Y-83607200D02*
X155266666Y-83511961D01*
X155266666Y-83511961D02*
X155314285Y-83416723D01*
X155314285Y-83416723D02*
X155361904Y-83226247D01*
X155361904Y-83226247D02*
X155361904Y-83083390D01*
X155361904Y-83083390D02*
X155314285Y-82892914D01*
X155314285Y-82892914D02*
X155266666Y-82797676D01*
X155266666Y-82797676D02*
X155171428Y-82702438D01*
X155171428Y-82702438D02*
X155028571Y-82654819D01*
X155028571Y-82654819D02*
X154933333Y-82654819D01*
X154933333Y-82654819D02*
X154790476Y-82702438D01*
X154790476Y-82702438D02*
X154742857Y-82750057D01*
X154409523Y-82654819D02*
X153790476Y-82654819D01*
X153790476Y-82654819D02*
X154123809Y-83035771D01*
X154123809Y-83035771D02*
X153980952Y-83035771D01*
X153980952Y-83035771D02*
X153885714Y-83083390D01*
X153885714Y-83083390D02*
X153838095Y-83131009D01*
X153838095Y-83131009D02*
X153790476Y-83226247D01*
X153790476Y-83226247D02*
X153790476Y-83464342D01*
X153790476Y-83464342D02*
X153838095Y-83559580D01*
X153838095Y-83559580D02*
X153885714Y-83607200D01*
X153885714Y-83607200D02*
X153980952Y-83654819D01*
X153980952Y-83654819D02*
X154266666Y-83654819D01*
X154266666Y-83654819D02*
X154361904Y-83607200D01*
X154361904Y-83607200D02*
X154409523Y-83559580D01*
X153457142Y-82654819D02*
X152838095Y-82654819D01*
X152838095Y-82654819D02*
X153171428Y-83035771D01*
X153171428Y-83035771D02*
X153028571Y-83035771D01*
X153028571Y-83035771D02*
X152933333Y-83083390D01*
X152933333Y-83083390D02*
X152885714Y-83131009D01*
X152885714Y-83131009D02*
X152838095Y-83226247D01*
X152838095Y-83226247D02*
X152838095Y-83464342D01*
X152838095Y-83464342D02*
X152885714Y-83559580D01*
X152885714Y-83559580D02*
X152933333Y-83607200D01*
X152933333Y-83607200D02*
X153028571Y-83654819D01*
X153028571Y-83654819D02*
X153314285Y-83654819D01*
X153314285Y-83654819D02*
X153409523Y-83607200D01*
X153409523Y-83607200D02*
X153457142Y-83559580D01*
X151442857Y-64529580D02*
X151490476Y-64577200D01*
X151490476Y-64577200D02*
X151633333Y-64624819D01*
X151633333Y-64624819D02*
X151728571Y-64624819D01*
X151728571Y-64624819D02*
X151871428Y-64577200D01*
X151871428Y-64577200D02*
X151966666Y-64481961D01*
X151966666Y-64481961D02*
X152014285Y-64386723D01*
X152014285Y-64386723D02*
X152061904Y-64196247D01*
X152061904Y-64196247D02*
X152061904Y-64053390D01*
X152061904Y-64053390D02*
X152014285Y-63862914D01*
X152014285Y-63862914D02*
X151966666Y-63767676D01*
X151966666Y-63767676D02*
X151871428Y-63672438D01*
X151871428Y-63672438D02*
X151728571Y-63624819D01*
X151728571Y-63624819D02*
X151633333Y-63624819D01*
X151633333Y-63624819D02*
X151490476Y-63672438D01*
X151490476Y-63672438D02*
X151442857Y-63720057D01*
X151109523Y-63624819D02*
X150490476Y-63624819D01*
X150490476Y-63624819D02*
X150823809Y-64005771D01*
X150823809Y-64005771D02*
X150680952Y-64005771D01*
X150680952Y-64005771D02*
X150585714Y-64053390D01*
X150585714Y-64053390D02*
X150538095Y-64101009D01*
X150538095Y-64101009D02*
X150490476Y-64196247D01*
X150490476Y-64196247D02*
X150490476Y-64434342D01*
X150490476Y-64434342D02*
X150538095Y-64529580D01*
X150538095Y-64529580D02*
X150585714Y-64577200D01*
X150585714Y-64577200D02*
X150680952Y-64624819D01*
X150680952Y-64624819D02*
X150966666Y-64624819D01*
X150966666Y-64624819D02*
X151061904Y-64577200D01*
X151061904Y-64577200D02*
X151109523Y-64529580D01*
X149585714Y-63624819D02*
X150061904Y-63624819D01*
X150061904Y-63624819D02*
X150109523Y-64101009D01*
X150109523Y-64101009D02*
X150061904Y-64053390D01*
X150061904Y-64053390D02*
X149966666Y-64005771D01*
X149966666Y-64005771D02*
X149728571Y-64005771D01*
X149728571Y-64005771D02*
X149633333Y-64053390D01*
X149633333Y-64053390D02*
X149585714Y-64101009D01*
X149585714Y-64101009D02*
X149538095Y-64196247D01*
X149538095Y-64196247D02*
X149538095Y-64434342D01*
X149538095Y-64434342D02*
X149585714Y-64529580D01*
X149585714Y-64529580D02*
X149633333Y-64577200D01*
X149633333Y-64577200D02*
X149728571Y-64624819D01*
X149728571Y-64624819D02*
X149966666Y-64624819D01*
X149966666Y-64624819D02*
X150061904Y-64577200D01*
X150061904Y-64577200D02*
X150109523Y-64529580D01*
X144638094Y-80054819D02*
X144638094Y-79054819D01*
X144638094Y-79054819D02*
X144399999Y-79054819D01*
X144399999Y-79054819D02*
X144257142Y-79102438D01*
X144257142Y-79102438D02*
X144161904Y-79197676D01*
X144161904Y-79197676D02*
X144114285Y-79292914D01*
X144114285Y-79292914D02*
X144066666Y-79483390D01*
X144066666Y-79483390D02*
X144066666Y-79626247D01*
X144066666Y-79626247D02*
X144114285Y-79816723D01*
X144114285Y-79816723D02*
X144161904Y-79911961D01*
X144161904Y-79911961D02*
X144257142Y-80007200D01*
X144257142Y-80007200D02*
X144399999Y-80054819D01*
X144399999Y-80054819D02*
X144638094Y-80054819D01*
X143495237Y-79483390D02*
X143590475Y-79435771D01*
X143590475Y-79435771D02*
X143638094Y-79388152D01*
X143638094Y-79388152D02*
X143685713Y-79292914D01*
X143685713Y-79292914D02*
X143685713Y-79245295D01*
X143685713Y-79245295D02*
X143638094Y-79150057D01*
X143638094Y-79150057D02*
X143590475Y-79102438D01*
X143590475Y-79102438D02*
X143495237Y-79054819D01*
X143495237Y-79054819D02*
X143304761Y-79054819D01*
X143304761Y-79054819D02*
X143209523Y-79102438D01*
X143209523Y-79102438D02*
X143161904Y-79150057D01*
X143161904Y-79150057D02*
X143114285Y-79245295D01*
X143114285Y-79245295D02*
X143114285Y-79292914D01*
X143114285Y-79292914D02*
X143161904Y-79388152D01*
X143161904Y-79388152D02*
X143209523Y-79435771D01*
X143209523Y-79435771D02*
X143304761Y-79483390D01*
X143304761Y-79483390D02*
X143495237Y-79483390D01*
X143495237Y-79483390D02*
X143590475Y-79531009D01*
X143590475Y-79531009D02*
X143638094Y-79578628D01*
X143638094Y-79578628D02*
X143685713Y-79673866D01*
X143685713Y-79673866D02*
X143685713Y-79864342D01*
X143685713Y-79864342D02*
X143638094Y-79959580D01*
X143638094Y-79959580D02*
X143590475Y-80007200D01*
X143590475Y-80007200D02*
X143495237Y-80054819D01*
X143495237Y-80054819D02*
X143304761Y-80054819D01*
X143304761Y-80054819D02*
X143209523Y-80007200D01*
X143209523Y-80007200D02*
X143161904Y-79959580D01*
X143161904Y-79959580D02*
X143114285Y-79864342D01*
X143114285Y-79864342D02*
X143114285Y-79673866D01*
X143114285Y-79673866D02*
X143161904Y-79578628D01*
X143161904Y-79578628D02*
X143209523Y-79531009D01*
X143209523Y-79531009D02*
X143304761Y-79483390D01*
X147255357Y-72759580D02*
X147302976Y-72807200D01*
X147302976Y-72807200D02*
X147445833Y-72854819D01*
X147445833Y-72854819D02*
X147541071Y-72854819D01*
X147541071Y-72854819D02*
X147683928Y-72807200D01*
X147683928Y-72807200D02*
X147779166Y-72711961D01*
X147779166Y-72711961D02*
X147826785Y-72616723D01*
X147826785Y-72616723D02*
X147874404Y-72426247D01*
X147874404Y-72426247D02*
X147874404Y-72283390D01*
X147874404Y-72283390D02*
X147826785Y-72092914D01*
X147826785Y-72092914D02*
X147779166Y-71997676D01*
X147779166Y-71997676D02*
X147683928Y-71902438D01*
X147683928Y-71902438D02*
X147541071Y-71854819D01*
X147541071Y-71854819D02*
X147445833Y-71854819D01*
X147445833Y-71854819D02*
X147302976Y-71902438D01*
X147302976Y-71902438D02*
X147255357Y-71950057D01*
X146302976Y-72854819D02*
X146874404Y-72854819D01*
X146588690Y-72854819D02*
X146588690Y-71854819D01*
X146588690Y-71854819D02*
X146683928Y-71997676D01*
X146683928Y-71997676D02*
X146779166Y-72092914D01*
X146779166Y-72092914D02*
X146874404Y-72140533D01*
X145922023Y-71950057D02*
X145874404Y-71902438D01*
X145874404Y-71902438D02*
X145779166Y-71854819D01*
X145779166Y-71854819D02*
X145541071Y-71854819D01*
X145541071Y-71854819D02*
X145445833Y-71902438D01*
X145445833Y-71902438D02*
X145398214Y-71950057D01*
X145398214Y-71950057D02*
X145350595Y-72045295D01*
X145350595Y-72045295D02*
X145350595Y-72140533D01*
X145350595Y-72140533D02*
X145398214Y-72283390D01*
X145398214Y-72283390D02*
X145969642Y-72854819D01*
X145969642Y-72854819D02*
X145350595Y-72854819D01*
X161642857Y-68254819D02*
X161976190Y-67778628D01*
X162214285Y-68254819D02*
X162214285Y-67254819D01*
X162214285Y-67254819D02*
X161833333Y-67254819D01*
X161833333Y-67254819D02*
X161738095Y-67302438D01*
X161738095Y-67302438D02*
X161690476Y-67350057D01*
X161690476Y-67350057D02*
X161642857Y-67445295D01*
X161642857Y-67445295D02*
X161642857Y-67588152D01*
X161642857Y-67588152D02*
X161690476Y-67683390D01*
X161690476Y-67683390D02*
X161738095Y-67731009D01*
X161738095Y-67731009D02*
X161833333Y-67778628D01*
X161833333Y-67778628D02*
X162214285Y-67778628D01*
X161261904Y-67350057D02*
X161214285Y-67302438D01*
X161214285Y-67302438D02*
X161119047Y-67254819D01*
X161119047Y-67254819D02*
X160880952Y-67254819D01*
X160880952Y-67254819D02*
X160785714Y-67302438D01*
X160785714Y-67302438D02*
X160738095Y-67350057D01*
X160738095Y-67350057D02*
X160690476Y-67445295D01*
X160690476Y-67445295D02*
X160690476Y-67540533D01*
X160690476Y-67540533D02*
X160738095Y-67683390D01*
X160738095Y-67683390D02*
X161309523Y-68254819D01*
X161309523Y-68254819D02*
X160690476Y-68254819D01*
X160357142Y-67254819D02*
X159690476Y-67254819D01*
X159690476Y-67254819D02*
X160119047Y-68254819D01*
X113866666Y-64854819D02*
X114199999Y-64378628D01*
X114438094Y-64854819D02*
X114438094Y-63854819D01*
X114438094Y-63854819D02*
X114057142Y-63854819D01*
X114057142Y-63854819D02*
X113961904Y-63902438D01*
X113961904Y-63902438D02*
X113914285Y-63950057D01*
X113914285Y-63950057D02*
X113866666Y-64045295D01*
X113866666Y-64045295D02*
X113866666Y-64188152D01*
X113866666Y-64188152D02*
X113914285Y-64283390D01*
X113914285Y-64283390D02*
X113961904Y-64331009D01*
X113961904Y-64331009D02*
X114057142Y-64378628D01*
X114057142Y-64378628D02*
X114438094Y-64378628D01*
X113009523Y-64188152D02*
X113009523Y-64854819D01*
X113247618Y-63807200D02*
X113485713Y-64521485D01*
X113485713Y-64521485D02*
X112866666Y-64521485D01*
X121866666Y-72354819D02*
X122199999Y-71878628D01*
X122438094Y-72354819D02*
X122438094Y-71354819D01*
X122438094Y-71354819D02*
X122057142Y-71354819D01*
X122057142Y-71354819D02*
X121961904Y-71402438D01*
X121961904Y-71402438D02*
X121914285Y-71450057D01*
X121914285Y-71450057D02*
X121866666Y-71545295D01*
X121866666Y-71545295D02*
X121866666Y-71688152D01*
X121866666Y-71688152D02*
X121914285Y-71783390D01*
X121914285Y-71783390D02*
X121961904Y-71831009D01*
X121961904Y-71831009D02*
X122057142Y-71878628D01*
X122057142Y-71878628D02*
X122438094Y-71878628D01*
X121533332Y-71354819D02*
X120914285Y-71354819D01*
X120914285Y-71354819D02*
X121247618Y-71735771D01*
X121247618Y-71735771D02*
X121104761Y-71735771D01*
X121104761Y-71735771D02*
X121009523Y-71783390D01*
X121009523Y-71783390D02*
X120961904Y-71831009D01*
X120961904Y-71831009D02*
X120914285Y-71926247D01*
X120914285Y-71926247D02*
X120914285Y-72164342D01*
X120914285Y-72164342D02*
X120961904Y-72259580D01*
X120961904Y-72259580D02*
X121009523Y-72307200D01*
X121009523Y-72307200D02*
X121104761Y-72354819D01*
X121104761Y-72354819D02*
X121390475Y-72354819D01*
X121390475Y-72354819D02*
X121485713Y-72307200D01*
X121485713Y-72307200D02*
X121533332Y-72259580D01*
X175042857Y-58059580D02*
X175090476Y-58107200D01*
X175090476Y-58107200D02*
X175233333Y-58154819D01*
X175233333Y-58154819D02*
X175328571Y-58154819D01*
X175328571Y-58154819D02*
X175471428Y-58107200D01*
X175471428Y-58107200D02*
X175566666Y-58011961D01*
X175566666Y-58011961D02*
X175614285Y-57916723D01*
X175614285Y-57916723D02*
X175661904Y-57726247D01*
X175661904Y-57726247D02*
X175661904Y-57583390D01*
X175661904Y-57583390D02*
X175614285Y-57392914D01*
X175614285Y-57392914D02*
X175566666Y-57297676D01*
X175566666Y-57297676D02*
X175471428Y-57202438D01*
X175471428Y-57202438D02*
X175328571Y-57154819D01*
X175328571Y-57154819D02*
X175233333Y-57154819D01*
X175233333Y-57154819D02*
X175090476Y-57202438D01*
X175090476Y-57202438D02*
X175042857Y-57250057D01*
X174709523Y-57154819D02*
X174090476Y-57154819D01*
X174090476Y-57154819D02*
X174423809Y-57535771D01*
X174423809Y-57535771D02*
X174280952Y-57535771D01*
X174280952Y-57535771D02*
X174185714Y-57583390D01*
X174185714Y-57583390D02*
X174138095Y-57631009D01*
X174138095Y-57631009D02*
X174090476Y-57726247D01*
X174090476Y-57726247D02*
X174090476Y-57964342D01*
X174090476Y-57964342D02*
X174138095Y-58059580D01*
X174138095Y-58059580D02*
X174185714Y-58107200D01*
X174185714Y-58107200D02*
X174280952Y-58154819D01*
X174280952Y-58154819D02*
X174566666Y-58154819D01*
X174566666Y-58154819D02*
X174661904Y-58107200D01*
X174661904Y-58107200D02*
X174709523Y-58059580D01*
X173471428Y-57154819D02*
X173376190Y-57154819D01*
X173376190Y-57154819D02*
X173280952Y-57202438D01*
X173280952Y-57202438D02*
X173233333Y-57250057D01*
X173233333Y-57250057D02*
X173185714Y-57345295D01*
X173185714Y-57345295D02*
X173138095Y-57535771D01*
X173138095Y-57535771D02*
X173138095Y-57773866D01*
X173138095Y-57773866D02*
X173185714Y-57964342D01*
X173185714Y-57964342D02*
X173233333Y-58059580D01*
X173233333Y-58059580D02*
X173280952Y-58107200D01*
X173280952Y-58107200D02*
X173376190Y-58154819D01*
X173376190Y-58154819D02*
X173471428Y-58154819D01*
X173471428Y-58154819D02*
X173566666Y-58107200D01*
X173566666Y-58107200D02*
X173614285Y-58059580D01*
X173614285Y-58059580D02*
X173661904Y-57964342D01*
X173661904Y-57964342D02*
X173709523Y-57773866D01*
X173709523Y-57773866D02*
X173709523Y-57535771D01*
X173709523Y-57535771D02*
X173661904Y-57345295D01*
X173661904Y-57345295D02*
X173614285Y-57250057D01*
X173614285Y-57250057D02*
X173566666Y-57202438D01*
X173566666Y-57202438D02*
X173471428Y-57154819D01*
D11*
%TO.C,R29*%
X157485436Y-69165000D02*
X157939564Y-69165000D01*
X157485436Y-70635000D02*
X157939564Y-70635000D01*
%TO.C,C29*%
X177285000Y-82609420D02*
X177285000Y-82890580D01*
X176265000Y-82609420D02*
X176265000Y-82890580D01*
%TO.C,Q2*%
X140140000Y-63962500D02*
X140140000Y-63312500D01*
X140140000Y-63962500D02*
X140140000Y-64612500D01*
X137020000Y-63962500D02*
X137020000Y-62287500D01*
X137020000Y-63962500D02*
X137020000Y-64612500D01*
%TO.C,C26*%
X103990000Y-61615580D02*
X103990000Y-61334420D01*
X105010000Y-61615580D02*
X105010000Y-61334420D01*
%TO.C,R14*%
X154185436Y-76465000D02*
X154639564Y-76465000D01*
X154185436Y-77935000D02*
X154639564Y-77935000D01*
%TO.C,C7*%
X157840000Y-54011252D02*
X157840000Y-52588748D01*
X160560000Y-54011252D02*
X160560000Y-52588748D01*
%TO.C,R10*%
X152927064Y-88435000D02*
X152472936Y-88435000D01*
X152927064Y-86965000D02*
X152472936Y-86965000D01*
%TO.C,C20*%
X151802500Y-71140580D02*
X151802500Y-70859420D01*
X152822500Y-71140580D02*
X152822500Y-70859420D01*
%TO.C,Q1*%
X145060000Y-63962500D02*
X145060000Y-63312500D01*
X145060000Y-63962500D02*
X145060000Y-64612500D01*
X141940000Y-63962500D02*
X141940000Y-62287500D01*
X141940000Y-63962500D02*
X141940000Y-64612500D01*
%TO.C,C27*%
X156340580Y-80210000D02*
X156059420Y-80210000D01*
X156340580Y-79190000D02*
X156059420Y-79190000D01*
%TO.C,C10*%
X146490000Y-84390580D02*
X146490000Y-84109420D01*
X147510000Y-84390580D02*
X147510000Y-84109420D01*
%TO.C,C2*%
X126109420Y-83240000D02*
X126390580Y-83240000D01*
X126109420Y-84260000D02*
X126390580Y-84260000D01*
%TO.C,R24*%
X164327064Y-58835000D02*
X163872936Y-58835000D01*
X164327064Y-57365000D02*
X163872936Y-57365000D01*
%TO.C,R8*%
X144227064Y-83985000D02*
X143772936Y-83985000D01*
X144227064Y-82515000D02*
X143772936Y-82515000D01*
%TO.C,R13*%
X149285436Y-75865000D02*
X149739564Y-75865000D01*
X149285436Y-77335000D02*
X149739564Y-77335000D01*
%TO.C,C8*%
X155590000Y-54040580D02*
X155590000Y-53759420D01*
X156610000Y-54040580D02*
X156610000Y-53759420D01*
%TO.C,C9*%
X154850000Y-53759420D02*
X154850000Y-54040580D01*
X153830000Y-53759420D02*
X153830000Y-54040580D01*
%TO.C,R9*%
X152472936Y-84865000D02*
X152927064Y-84865000D01*
X152472936Y-86335000D02*
X152927064Y-86335000D01*
%TO.C,C4*%
X124559420Y-69290000D02*
X124840580Y-69290000D01*
X124559420Y-70310000D02*
X124840580Y-70310000D01*
%TO.C,C23*%
X153502500Y-71140580D02*
X153502500Y-70859420D01*
X154522500Y-71140580D02*
X154522500Y-70859420D01*
%TO.C,C28*%
X167310000Y-58859420D02*
X167310000Y-59140580D01*
X166290000Y-58859420D02*
X166290000Y-59140580D01*
%TO.C,R5*%
X140257064Y-71235000D02*
X139802936Y-71235000D01*
X140257064Y-69765000D02*
X139802936Y-69765000D01*
%TO.C,C1*%
X106359420Y-79090000D02*
X106640580Y-79090000D01*
X106359420Y-80110000D02*
X106640580Y-80110000D01*
%TO.C,R15*%
X154085436Y-73565000D02*
X154539564Y-73565000D01*
X154085436Y-75035000D02*
X154539564Y-75035000D01*
%TO.C,R1*%
X143215436Y-59765000D02*
X143669564Y-59765000D01*
X143215436Y-61235000D02*
X143669564Y-61235000D01*
%TO.C,C32*%
X156559420Y-65190000D02*
X156840580Y-65190000D01*
X156559420Y-66210000D02*
X156840580Y-66210000D01*
%TO.C,C25*%
X105010000Y-57809420D02*
X105010000Y-58090580D01*
X103990000Y-57809420D02*
X103990000Y-58090580D01*
%TO.C,C3*%
X113915580Y-70510000D02*
X113634420Y-70510000D01*
X113915580Y-69490000D02*
X113634420Y-69490000D01*
%TO.C,C36*%
X166688748Y-47640000D02*
X168111252Y-47640000D01*
X166688748Y-50360000D02*
X168111252Y-50360000D01*
%TO.C,Q10*%
X164300000Y-63740000D02*
X163650000Y-63740000D01*
X164300000Y-63740000D02*
X164950000Y-63740000D01*
X164300000Y-66860000D02*
X162625000Y-66860000D01*
X164300000Y-66860000D02*
X164950000Y-66860000D01*
%TO.C,C17*%
X150353080Y-75010000D02*
X150071920Y-75010000D01*
X150353080Y-73990000D02*
X150071920Y-73990000D01*
%TO.C,R2*%
X138302936Y-59765000D02*
X138757064Y-59765000D01*
X138302936Y-61235000D02*
X138757064Y-61235000D01*
%TO.C,C33*%
X151240000Y-83140580D02*
X151240000Y-82859420D01*
X152260000Y-83140580D02*
X152260000Y-82859420D01*
%TO.C,C35*%
X150940580Y-66110000D02*
X150659420Y-66110000D01*
X150940580Y-65090000D02*
X150659420Y-65090000D01*
%TO.C,D8*%
X152122500Y-81250000D02*
X146612500Y-81250000D01*
X152122500Y-77950000D02*
X152122500Y-81250000D01*
X152122500Y-77950000D02*
X146612500Y-77950000D01*
%TO.C,C12*%
X146471920Y-73590000D02*
X146753080Y-73590000D01*
X146471920Y-74610000D02*
X146753080Y-74610000D01*
%TO.C,R27*%
X157939564Y-68635000D02*
X157485436Y-68635000D01*
X157939564Y-67165000D02*
X157485436Y-67165000D01*
%TO.C,R4*%
X113460436Y-65265000D02*
X113914564Y-65265000D01*
X113460436Y-66735000D02*
X113914564Y-66735000D01*
%TO.C,R3*%
X124927064Y-72635000D02*
X124472936Y-72635000D01*
X124927064Y-71165000D02*
X124472936Y-71165000D01*
%TO.C,C30*%
X173240000Y-61911252D02*
X173240000Y-60488748D01*
X175960000Y-61911252D02*
X175960000Y-60488748D01*
%TD*%
M02*
