%TF.GenerationSoftware,KiCad,Pcbnew,8.0.2-8.0.2-0~ubuntu22.04.1*%
%TF.CreationDate,2024-05-14T11:32:01+03:00*%
%TF.ProjectId,handle-module,68616e64-6c65-42d6-9d6f-64756c652e6b,rev?*%
%TF.SameCoordinates,Original*%
%TF.FileFunction,Copper,L3,Inr*%
%TF.FilePolarity,Positive*%
%FSLAX46Y46*%
G04 Gerber Fmt 4.6, Leading zero omitted, Abs format (unit mm)*
G04 Created by KiCad (PCBNEW 8.0.2-8.0.2-0~ubuntu22.04.1) date 2024-05-14 11:32:01*
%MOMM*%
%LPD*%
G01*
G04 APERTURE LIST*
G04 Aperture macros list*
%AMRoundRect*
0 Rectangle with rounded corners*
0 $1 Rounding radius*
0 $2 $3 $4 $5 $6 $7 $8 $9 X,Y pos of 4 corners*
0 Add a 4 corners polygon primitive as box body*
4,1,4,$2,$3,$4,$5,$6,$7,$8,$9,$2,$3,0*
0 Add four circle primitives for the rounded corners*
1,1,$1+$1,$2,$3*
1,1,$1+$1,$4,$5*
1,1,$1+$1,$6,$7*
1,1,$1+$1,$8,$9*
0 Add four rect primitives between the rounded corners*
20,1,$1+$1,$2,$3,$4,$5,0*
20,1,$1+$1,$4,$5,$6,$7,0*
20,1,$1+$1,$6,$7,$8,$9,0*
20,1,$1+$1,$8,$9,$2,$3,0*%
G04 Aperture macros list end*
%TA.AperFunction,HeatsinkPad*%
%ADD10C,0.500000*%
%TD*%
%TA.AperFunction,ComponentPad*%
%ADD11C,1.500000*%
%TD*%
%TA.AperFunction,ComponentPad*%
%ADD12R,1.700000X1.700000*%
%TD*%
%TA.AperFunction,ComponentPad*%
%ADD13O,1.700000X1.700000*%
%TD*%
%TA.AperFunction,ComponentPad*%
%ADD14C,2.000000*%
%TD*%
%TA.AperFunction,ComponentPad*%
%ADD15R,1.600000X1.600000*%
%TD*%
%TA.AperFunction,ComponentPad*%
%ADD16C,1.600000*%
%TD*%
%TA.AperFunction,ComponentPad*%
%ADD17R,1.800000X1.800000*%
%TD*%
%TA.AperFunction,ComponentPad*%
%ADD18C,1.800000*%
%TD*%
%TA.AperFunction,ComponentPad*%
%ADD19RoundRect,0.250000X-0.750000X0.600000X-0.750000X-0.600000X0.750000X-0.600000X0.750000X0.600000X0*%
%TD*%
%TA.AperFunction,ComponentPad*%
%ADD20O,2.000000X1.700000*%
%TD*%
%TA.AperFunction,ComponentPad*%
%ADD21C,1.524000*%
%TD*%
%TA.AperFunction,ViaPad*%
%ADD22C,0.800000*%
%TD*%
%TA.AperFunction,Conductor*%
%ADD23C,0.200000*%
%TD*%
%TA.AperFunction,Conductor*%
%ADD24C,1.000000*%
%TD*%
%TA.AperFunction,Conductor*%
%ADD25C,0.500000*%
%TD*%
G04 APERTURE END LIST*
D10*
%TO.N,GNDPWR*%
%TO.C,U5*%
X118640487Y-103250000D03*
X118640487Y-104300000D03*
X118640487Y-105350000D03*
X119690487Y-103250000D03*
X119690487Y-104300000D03*
X119690487Y-105350000D03*
X120740487Y-103250000D03*
X120740487Y-104300000D03*
X120740487Y-105350000D03*
%TD*%
D11*
%TO.N,Net-(U3-XTAL2{slash}PB7)*%
%TO.C,X1*%
X58740487Y-93175000D03*
%TO.N,Net-(U3-XTAL1{slash}PB6)*%
X58740487Y-88295000D03*
%TD*%
D12*
%TO.N,GNDPWR*%
%TO.C,J1*%
X132975000Y-82600000D03*
D13*
%TO.N,Net-(J1-Pin_2)*%
X132975000Y-80060000D03*
%TD*%
D14*
%TO.N,unconnected-(U2-ANT-Pad1)*%
%TO.C,U2*%
X57370487Y-116750000D03*
%TO.N,GNDA*%
X59910487Y-116750000D03*
%TO.N,+5V*%
X78870487Y-116750000D03*
X81410487Y-116750000D03*
%TO.N,/FM_IN*%
X83950487Y-116750000D03*
%TO.N,GNDA*%
X86490487Y-116750000D03*
%TD*%
D15*
%TO.N,/VBAT*%
%TO.C,C6*%
X107200000Y-80700000D03*
D16*
%TO.N,GNDA*%
X107200000Y-83200000D03*
%TD*%
D15*
%TO.N,/VBAT*%
%TO.C,C5*%
X114200000Y-80617621D03*
D16*
%TO.N,GNDPWR*%
X114200000Y-83117621D03*
%TD*%
D14*
%TO.N,/FM_OUT*%
%TO.C,U1*%
X59910487Y-108000000D03*
%TO.N,+5V*%
X62450487Y-108000000D03*
%TO.N,GNDA*%
X64990487Y-108000000D03*
%TD*%
D17*
%TO.N,Net-(D1-A1)*%
%TO.C,D1*%
X94440487Y-99000000D03*
D18*
%TO.N,Net-(D1-K)*%
X96980487Y-99000000D03*
%TO.N,Net-(D1-A2)*%
X99520487Y-99000000D03*
%TD*%
D16*
%TO.N,/CHARGER_SUPPLY*%
%TO.C,RV1*%
X97150000Y-117700000D03*
%TO.N,GNDPWR*%
X99250000Y-112700000D03*
%TD*%
D19*
%TO.N,GNDPWR*%
%TO.C,J2*%
X130490487Y-114000000D03*
D20*
%TO.N,Net-(D9-A)*%
X130490487Y-116500000D03*
%TD*%
D14*
%TO.N,/CLOSE_BUTTON*%
%TO.C,SW2*%
X82740487Y-99000000D03*
%TO.N,/VBAT*%
X89240487Y-99000000D03*
%TD*%
D21*
%TO.N,GNDA*%
%TO.C,TP2*%
X114000000Y-90600000D03*
%TD*%
D14*
%TO.N,/VBAT*%
%TO.C,SW1*%
X61740487Y-99000000D03*
%TO.N,/OPEN_BUTTON*%
X68240487Y-99000000D03*
%TD*%
D12*
%TO.N,/MOSI*%
%TO.C,J3*%
X67280487Y-80000000D03*
D13*
%TO.N,+5V*%
X67280487Y-82540000D03*
%TO.N,unconnected-(J3-Pin_3-Pad3)*%
X64740487Y-80000000D03*
%TO.N,/RXD*%
X64740487Y-82540000D03*
%TO.N,/RESET#*%
X62200487Y-80000000D03*
%TO.N,/TXD*%
X62200487Y-82540000D03*
%TO.N,/SCK*%
X59660487Y-80000000D03*
%TO.N,GNDA*%
X59660487Y-82540000D03*
%TO.N,/MISO*%
X57120487Y-80000000D03*
%TO.N,GNDA*%
X57120487Y-82540000D03*
%TD*%
D22*
%TO.N,GNDA*%
X81490487Y-83000000D03*
X80190487Y-97100000D03*
X72990487Y-82500000D03*
X97200000Y-94400000D03*
X128190218Y-100190219D03*
X95740487Y-80500000D03*
X70790487Y-101000000D03*
X85490487Y-86250000D03*
X72740487Y-89750000D03*
X85600000Y-108000000D03*
%TO.N,+5V*%
X100345487Y-91500000D03*
X71290487Y-103000000D03*
X95432987Y-91500000D03*
X112890487Y-108500000D03*
X99000000Y-88400000D03*
X81590487Y-80000000D03*
X106400000Y-94200000D03*
X75990487Y-100100000D03*
%TO.N,GNDPWR*%
X125790487Y-99200000D03*
X130490487Y-90700000D03*
%TO.N,/CHARGER_SUPPLY*%
X104400000Y-117800000D03*
X101002987Y-106562500D03*
X107387500Y-116600000D03*
%TO.N,Net-(Q7-G)*%
X104602987Y-107600000D03*
%TO.N,/VSYS*%
X112802987Y-102300000D03*
X130490487Y-93600000D03*
X124590487Y-97100000D03*
%TO.N,/CHARGER_BATSRC*%
X110590487Y-96700000D03*
X126590487Y-105100000D03*
X117090487Y-93800000D03*
%TO.N,/VBAT*%
X109090487Y-96700000D03*
X100000000Y-110600000D03*
%TO.N,/MOSI*%
X71740487Y-92000000D03*
%TO.N,/SCK*%
X73240487Y-92250000D03*
%TO.N,/MISO*%
X76740487Y-94500000D03*
%TO.N,/LED_GREEN#*%
X98520487Y-91500000D03*
%TO.N,/LED_RED#*%
X93607987Y-91500000D03*
%TO.N,Net-(Q8-G)*%
X105402987Y-103600000D03*
%TO.N,Net-(Q9-G)*%
X127490487Y-95000000D03*
X118925206Y-100874794D03*
%TO.N,/CHARGER_BATDRV*%
X126490487Y-103100000D03*
%TO.N,Net-(Q8-D)*%
X112802987Y-103900000D03*
%TO.N,Net-(U5-ILIM)*%
X121000000Y-99600000D03*
X122400000Y-101600000D03*
%TO.N,Net-(U5-VCC)*%
X112890487Y-110700000D03*
X116290487Y-102400000D03*
%TO.N,Net-(Q10-D)*%
X117925000Y-99700000D03*
X122990487Y-93800000D03*
%TO.N,/SDA*%
X119000000Y-108700000D03*
X75790487Y-82500000D03*
X102537818Y-87082182D03*
%TO.N,/SCL*%
X120100000Y-109300000D03*
X74390487Y-82800000D03*
X106400000Y-87125000D03*
%TO.N,/CHARGER_SRP*%
X110600000Y-98600000D03*
%TO.N,/CHARGER_SRN*%
X109200000Y-98600000D03*
%TO.N,Net-(U5-BTST)*%
X119500000Y-99700000D03*
%TO.N,Net-(D6-K)*%
X106802987Y-110600000D03*
%TO.N,/PROCHOT#*%
X88800000Y-107000000D03*
X91400000Y-96500000D03*
X93700000Y-87400000D03*
X114600000Y-111600000D03*
%TO.N,Net-(U5-ACDET)*%
X112600000Y-112500000D03*
%TO.N,Net-(U5-ACDRV)*%
X111402987Y-108200000D03*
%TO.N,/CHR_VSYS_NMOS*%
X109402987Y-105300000D03*
%TO.N,Net-(U5-CMSRC)*%
X111202987Y-105400000D03*
%TO.N,Net-(U5-SRP)*%
X123290487Y-102300000D03*
%TO.N,Net-(U5-SRN)*%
X123333234Y-103355509D03*
%TD*%
D23*
%TO.N,/SCL*%
X106400000Y-87125000D02*
X106305000Y-87125000D01*
X106305000Y-87125000D02*
X100380000Y-81200000D01*
X100380000Y-81200000D02*
X75990487Y-81200000D01*
X75990487Y-81200000D02*
X74390487Y-82800000D01*
D24*
%TO.N,/VBAT*%
X100000000Y-110600000D02*
X97990487Y-110600000D01*
X69740487Y-104250000D02*
X64490487Y-99000000D01*
X97990487Y-110600000D02*
X89490487Y-102100000D01*
X89490487Y-102100000D02*
X89490487Y-99000000D01*
X89490487Y-99000000D02*
X87490487Y-99000000D01*
X87490487Y-99000000D02*
X82240487Y-104250000D01*
X82240487Y-104250000D02*
X69740487Y-104250000D01*
X64490487Y-99000000D02*
X61515487Y-99000000D01*
D25*
%TO.N,+5V*%
X99000000Y-88400000D02*
X102400000Y-88400000D01*
X102400000Y-88400000D02*
X106400000Y-92400000D01*
X106400000Y-92400000D02*
X106400000Y-94200000D01*
D23*
%TO.N,/SDA*%
X99800000Y-81800000D02*
X76490487Y-81800000D01*
X102537818Y-87082182D02*
X102537818Y-84537818D01*
X102537818Y-84537818D02*
X99800000Y-81800000D01*
X76490487Y-81800000D02*
X75790487Y-82500000D01*
D24*
%TO.N,GNDA*%
X115200000Y-89400000D02*
X114000000Y-90600000D01*
X128590487Y-93590487D02*
X124400000Y-89400000D01*
X124400000Y-89400000D02*
X115200000Y-89400000D01*
X128590487Y-99789950D02*
X128590487Y-93590487D01*
X128190218Y-100190219D02*
X128590487Y-99789950D01*
D23*
%TO.N,Net-(U5-ILIM)*%
X122400000Y-101000000D02*
X121000000Y-99600000D01*
X122400000Y-101600000D02*
X122400000Y-101000000D01*
%TO.N,/SDA*%
X75790487Y-82790487D02*
X75790487Y-82500000D01*
X118500000Y-109200000D02*
X102200000Y-109200000D01*
X119000000Y-108700000D02*
X118500000Y-109200000D01*
X102200000Y-109200000D02*
X75790487Y-82790487D01*
%TO.N,/SCL*%
X101928965Y-109600000D02*
X75528965Y-83200000D01*
X75528965Y-83200000D02*
X75500537Y-83200000D01*
X74400537Y-82789950D02*
X74390487Y-82800000D01*
X119800000Y-109600000D02*
X101928965Y-109600000D01*
X75500537Y-83200000D02*
X75090487Y-82789950D01*
X75090487Y-82789950D02*
X74400537Y-82789950D01*
X120100000Y-109300000D02*
X119800000Y-109600000D01*
%TO.N,/PROCHOT#*%
X114600000Y-111600000D02*
X92549390Y-111600000D01*
X92549390Y-111600000D02*
X88800000Y-107850610D01*
D25*
X93700000Y-87400000D02*
X91400000Y-89700000D01*
D23*
X88800000Y-107850610D02*
X88800000Y-107000000D01*
D25*
X91400000Y-89700000D02*
X91400000Y-96500000D01*
%TD*%
%TA.AperFunction,Conductor*%
%TO.N,/SCL*%
G36*
X105873696Y-86547609D02*
G01*
X106540786Y-86751689D01*
X106547694Y-86757386D01*
X106548551Y-86766300D01*
X106548183Y-86767329D01*
X106402563Y-87121195D01*
X106396245Y-87127542D01*
X106396195Y-87127563D01*
X106040376Y-87273987D01*
X106031422Y-87273966D01*
X106025526Y-87268531D01*
X105949528Y-87121195D01*
X105729468Y-86694566D01*
X105728722Y-86685643D01*
X105731592Y-86680932D01*
X105862001Y-86550523D01*
X105870273Y-86547097D01*
X105873696Y-86547609D01*
G37*
%TD.AperFunction*%
%TD*%
%TA.AperFunction,Conductor*%
%TO.N,/SCL*%
G36*
X74887204Y-82166592D02*
G01*
X74890977Y-82169119D01*
X75021367Y-82299509D01*
X75024794Y-82307782D01*
X75023913Y-82312237D01*
X74764492Y-82942256D01*
X74758173Y-82948601D01*
X74749221Y-82948621D01*
X74394291Y-82802563D01*
X74387944Y-82796245D01*
X74387923Y-82796195D01*
X74241865Y-82441265D01*
X74241886Y-82432311D01*
X74248229Y-82425994D01*
X74878251Y-82166573D01*
X74887204Y-82166592D01*
G37*
%TD.AperFunction*%
%TD*%
%TA.AperFunction,Conductor*%
%TO.N,/VBAT*%
G36*
X90227206Y-98999986D02*
G01*
X90235474Y-99003421D01*
X90238893Y-99011698D01*
X90238798Y-99013174D01*
X89991796Y-100940060D01*
X89987345Y-100947830D01*
X89980191Y-100950272D01*
X88998193Y-100950272D01*
X88989920Y-100946845D01*
X88987444Y-100943193D01*
X88321285Y-99393565D01*
X88321166Y-99384611D01*
X88327412Y-99378195D01*
X89238328Y-98999896D01*
X89242823Y-98999002D01*
X90227206Y-98999986D01*
G37*
%TD.AperFunction*%
%TD*%
%TA.AperFunction,Conductor*%
%TO.N,/VBAT*%
G36*
X88856071Y-98080485D02*
G01*
X88862209Y-98086727D01*
X89239331Y-98994808D01*
X89239340Y-99003762D01*
X89239334Y-99003777D01*
X88861966Y-99913842D01*
X88855631Y-99920171D01*
X88847486Y-99920469D01*
X87669899Y-99531201D01*
X87665298Y-99528365D01*
X86972778Y-98835845D01*
X86969351Y-98827572D01*
X86972778Y-98819299D01*
X86976763Y-98816686D01*
X88847118Y-98080327D01*
X88856071Y-98080485D01*
G37*
%TD.AperFunction*%
%TD*%
%TA.AperFunction,Conductor*%
%TO.N,/VBAT*%
G36*
X63731754Y-98497711D02*
G01*
X63738887Y-98503123D01*
X63740487Y-98509028D01*
X63740487Y-99490971D01*
X63737060Y-99499244D01*
X63731753Y-99502289D01*
X62133030Y-99921295D01*
X62124159Y-99920077D01*
X62119260Y-99914465D01*
X61741349Y-99004485D01*
X61741341Y-98995535D01*
X62119260Y-98085533D01*
X62125597Y-98079208D01*
X62133029Y-98078704D01*
X63731754Y-98497711D01*
G37*
%TD.AperFunction*%
%TD*%
%TA.AperFunction,Conductor*%
%TO.N,+5V*%
G36*
X99013817Y-88002590D02*
G01*
X99790457Y-88148210D01*
X99797956Y-88153103D01*
X99800000Y-88159710D01*
X99800000Y-88640289D01*
X99796573Y-88648562D01*
X99790456Y-88651789D01*
X99013820Y-88797408D01*
X99005057Y-88795564D01*
X99000164Y-88788064D01*
X98999964Y-88785946D01*
X98999000Y-88400000D01*
X98999964Y-88014059D01*
X99003412Y-88005797D01*
X99011693Y-88002391D01*
X99013817Y-88002590D01*
G37*
%TD.AperFunction*%
%TD*%
%TA.AperFunction,Conductor*%
%TO.N,+5V*%
G36*
X106648563Y-93403427D02*
G01*
X106651790Y-93409544D01*
X106797408Y-94186179D01*
X106795564Y-94194942D01*
X106788064Y-94199835D01*
X106785937Y-94200035D01*
X106400029Y-94200999D01*
X106399971Y-94200999D01*
X106014062Y-94200035D01*
X106005797Y-94196587D01*
X106002391Y-94188306D01*
X106002591Y-94186179D01*
X106148210Y-93409544D01*
X106153103Y-93402044D01*
X106159710Y-93400000D01*
X106640290Y-93400000D01*
X106648563Y-93403427D01*
G37*
%TD.AperFunction*%
%TD*%
%TA.AperFunction,Conductor*%
%TO.N,/SDA*%
G36*
X102638291Y-86285609D02*
G01*
X102640818Y-86289382D01*
X102902871Y-86918311D01*
X102902890Y-86927266D01*
X102896573Y-86933610D01*
X102542320Y-87081305D01*
X102533366Y-87081326D01*
X102533316Y-87081305D01*
X102179062Y-86933610D01*
X102172744Y-86927263D01*
X102172763Y-86918313D01*
X102434818Y-86289381D01*
X102441163Y-86283063D01*
X102445618Y-86282182D01*
X102630018Y-86282182D01*
X102638291Y-86285609D01*
G37*
%TD.AperFunction*%
%TD*%
%TA.AperFunction,Conductor*%
%TO.N,/SDA*%
G36*
X76287204Y-81866592D02*
G01*
X76290977Y-81869119D01*
X76421367Y-81999509D01*
X76424794Y-82007782D01*
X76423913Y-82012237D01*
X76164492Y-82642256D01*
X76158173Y-82648601D01*
X76149221Y-82648621D01*
X75794291Y-82502563D01*
X75787944Y-82496245D01*
X75787923Y-82496195D01*
X75641865Y-82141265D01*
X75641886Y-82132311D01*
X75648229Y-82125994D01*
X76278251Y-81866573D01*
X76287204Y-81866592D01*
G37*
%TD.AperFunction*%
%TD*%
%TA.AperFunction,Conductor*%
%TO.N,GNDA*%
G36*
X114731048Y-89175789D02*
G01*
X115424210Y-89868951D01*
X115427637Y-89877224D01*
X115425492Y-89883976D01*
X114546815Y-91127492D01*
X114539242Y-91132271D01*
X114530508Y-91130295D01*
X114528998Y-91129024D01*
X113999293Y-90600707D01*
X113999271Y-90600685D01*
X113470975Y-90071001D01*
X113467559Y-90062724D01*
X113470997Y-90054455D01*
X113472501Y-90053188D01*
X114716023Y-89174506D01*
X114724757Y-89172531D01*
X114731048Y-89175789D01*
G37*
%TD.AperFunction*%
%TD*%
%TA.AperFunction,Conductor*%
%TO.N,Net-(U5-ILIM)*%
G36*
X121367688Y-99451399D02*
G01*
X121374005Y-99457743D01*
X121633426Y-100087762D01*
X121633407Y-100096717D01*
X121630880Y-100100490D01*
X121500490Y-100230880D01*
X121492217Y-100234307D01*
X121487762Y-100233426D01*
X120857743Y-99974005D01*
X120851398Y-99967686D01*
X120851378Y-99958735D01*
X120997437Y-99603802D01*
X121003753Y-99597457D01*
X121358735Y-99451378D01*
X121367688Y-99451399D01*
G37*
%TD.AperFunction*%
%TD*%
%TA.AperFunction,Conductor*%
%TO.N,Net-(U5-ILIM)*%
G36*
X122335753Y-100797950D02*
G01*
X122337209Y-100799724D01*
X122761652Y-101435101D01*
X122763398Y-101443884D01*
X122758422Y-101451329D01*
X122756425Y-101452399D01*
X122405200Y-101598833D01*
X122396246Y-101598854D01*
X122396210Y-101598839D01*
X122040238Y-101450993D01*
X122033912Y-101444655D01*
X122033532Y-101436785D01*
X122187017Y-100932086D01*
X122189935Y-100927222D01*
X122319208Y-100797949D01*
X122327480Y-100794523D01*
X122335753Y-100797950D01*
G37*
%TD.AperFunction*%
%TD*%
%TA.AperFunction,Conductor*%
%TO.N,/SDA*%
G36*
X118641295Y-108551407D02*
G01*
X118996500Y-108698141D01*
X119002838Y-108704467D01*
X119002853Y-108704503D01*
X119148197Y-109057703D01*
X119148176Y-109066657D01*
X119141829Y-109072975D01*
X119140830Y-109073334D01*
X119047154Y-109102273D01*
X118458446Y-109284140D01*
X118422259Y-109295319D01*
X118413343Y-109294486D01*
X118407627Y-109287593D01*
X118407106Y-109284140D01*
X118407106Y-109102273D01*
X118407957Y-109097892D01*
X118418019Y-109072975D01*
X118626033Y-108557859D01*
X118632307Y-108551474D01*
X118641261Y-108551394D01*
X118641295Y-108551407D01*
G37*
%TD.AperFunction*%
%TD*%
%TA.AperFunction,Conductor*%
%TO.N,/SDA*%
G36*
X76179659Y-82499980D02*
G01*
X76187924Y-82503421D01*
X76191303Y-82510798D01*
X76234979Y-83088606D01*
X76232185Y-83097114D01*
X76231585Y-83097761D01*
X76101239Y-83228107D01*
X76092966Y-83231534D01*
X76085817Y-83229096D01*
X75745261Y-82966244D01*
X75518146Y-82790949D01*
X75513692Y-82783182D01*
X75516034Y-82774539D01*
X75516986Y-82773453D01*
X75786342Y-82502748D01*
X75794603Y-82499301D01*
X76179659Y-82499980D01*
G37*
%TD.AperFunction*%
%TD*%
%TA.AperFunction,Conductor*%
%TO.N,/SCL*%
G36*
X74553956Y-82435915D02*
G01*
X74554851Y-82436333D01*
X75188676Y-82766738D01*
X75216352Y-82781165D01*
X75222104Y-82788028D01*
X75221319Y-82796948D01*
X75219217Y-82799813D01*
X75090628Y-82928402D01*
X75087060Y-82930841D01*
X74554490Y-83164751D01*
X74545537Y-83164941D01*
X74539073Y-83158744D01*
X74539011Y-83158600D01*
X74391646Y-82803788D01*
X74391638Y-82794836D01*
X74538655Y-82442211D01*
X74545002Y-82435894D01*
X74553956Y-82435915D01*
G37*
%TD.AperFunction*%
%TD*%
%TA.AperFunction,Conductor*%
%TO.N,/SCL*%
G36*
X119825449Y-109025504D02*
G01*
X119826323Y-109026291D01*
X120097546Y-109296558D01*
X120100987Y-109304825D01*
X120100987Y-109304875D01*
X120100029Y-109688329D01*
X120096581Y-109696594D01*
X120088329Y-109700000D01*
X119435963Y-109700000D01*
X119427690Y-109696573D01*
X119424263Y-109688300D01*
X119424263Y-109504159D01*
X119426888Y-109496774D01*
X119583038Y-109304875D01*
X119808990Y-109027193D01*
X119816869Y-109022940D01*
X119825449Y-109025504D01*
G37*
%TD.AperFunction*%
%TD*%
%TA.AperFunction,Conductor*%
%TO.N,/PROCHOT#*%
G36*
X93425479Y-87125713D02*
G01*
X93427124Y-87127075D01*
X93700707Y-87399293D01*
X93700749Y-87399335D01*
X93972924Y-87672875D01*
X93976330Y-87681156D01*
X93972882Y-87689421D01*
X93971237Y-87690783D01*
X93319104Y-88136978D01*
X93310341Y-88138822D01*
X93304224Y-88135595D01*
X92964404Y-87795775D01*
X92960977Y-87787502D01*
X92963021Y-87780895D01*
X93409217Y-87128761D01*
X93416716Y-87123869D01*
X93425479Y-87125713D01*
G37*
%TD.AperFunction*%
%TD*%
%TA.AperFunction,Conductor*%
%TO.N,/PROCHOT#*%
G36*
X91648563Y-95703427D02*
G01*
X91651790Y-95709544D01*
X91797408Y-96486179D01*
X91795564Y-96494942D01*
X91788064Y-96499835D01*
X91785937Y-96500035D01*
X91400029Y-96500999D01*
X91399971Y-96500999D01*
X91014062Y-96500035D01*
X91005797Y-96496587D01*
X91002391Y-96488306D01*
X91002591Y-96486179D01*
X91148210Y-95709544D01*
X91153103Y-95702044D01*
X91159710Y-95700000D01*
X91640290Y-95700000D01*
X91648563Y-95703427D01*
G37*
%TD.AperFunction*%
%TD*%
M02*
