M48
; DRILL file {KiCad 7.0.8-7.0.8~ubuntu22.04.1} date Вт 31 окт 2023 14:19:32
; FORMAT={-:-/ absolute / inch / decimal}
; #@! TF.CreationDate,2023-10-31T14:19:32+03:00
; #@! TF.GenerationSoftware,Kicad,Pcbnew,7.0.8-7.0.8~ubuntu22.04.1
; #@! TF.FileFunction,Plated,1,4,PTH
FMAT,2
INCH
; #@! TA.AperFunction,Plated,PTH,ComponentDrill
T1C0.0079
; #@! TA.AperFunction,Plated,PTH,ViaDrill
T2C0.0157
; #@! TA.AperFunction,Plated,PTH,ComponentDrill
T3C0.0236
; #@! TA.AperFunction,Plated,PTH,ComponentDrill
T4C0.0300
; #@! TA.AperFunction,Plated,PTH,ComponentDrill
T5C0.0315
; #@! TA.AperFunction,Plated,PTH,ComponentDrill
T6C0.0354
; #@! TA.AperFunction,Plated,PTH,ComponentDrill
T7C0.0374
; #@! TA.AperFunction,Plated,PTH,ComponentDrill
T8C0.0394
; #@! TA.AperFunction,Plated,PTH,ComponentDrill
T9C0.0472
; #@! TA.AperFunction,Plated,PTH,ComponentDrill
T10C0.0787
%
G90
G05
T1
X6.4035Y-2.8445
X6.4035Y-2.8858
X6.4035Y-2.9272
X6.4449Y-2.8445
X6.4449Y-2.8858
X6.4449Y-2.9272
X6.4862Y-2.8445
X6.4862Y-2.8858
X6.4862Y-2.9272
T2
X4.5197Y-2.7559
X4.5394Y-2.8346
X4.5571Y-2.4016
X4.5965Y-2.313
X4.6063Y-2.0276
X4.6161Y-2.4114
X4.6614Y-2.0394
X4.7165Y-2.0276
X4.7244Y-2.7205
X4.7539Y-2.5
X4.8898Y-2.6024
X4.9409Y-2.0472
X4.9449Y-1.9291
X4.9843Y-3.0866
X5.0984Y-2.1752
X5.1181Y-2.8839
X5.1929Y-2.9843
X5.418Y-2.3819
X5.4899Y-2.3819
X5.502Y-1.9488
X5.6114Y-2.3819
X5.6833Y-2.3819
X5.7092Y-2.9724
X5.8386Y-1.9882
X5.8509Y-3.0157
X5.8824Y-2.8583
X5.9375Y-3.1339
X5.9724Y-3.3701
X6.0276Y-2.5866
X6.0399Y-2.9252
X6.0866Y-2.5866
X6.1107Y-2.9291
X6.1186Y-3.0394
X6.1737Y-2.8071
X6.1737Y-2.8701
X6.1772Y-3.0512
X6.1772Y-3.1378
X6.2992Y-3.1348
X6.311Y-2.811
X6.3425Y-2.4724
X6.378Y-2.7402
X6.378Y-3.0236
X6.3918Y-3.0605
X6.4173Y-2.7283
X6.4252Y-2.2874
X6.4449Y-2.6732
X6.4685Y-3.0354
X6.5748Y-2.4724
X6.5866Y-2.8071
X6.5883Y-2.8486
X6.6378Y-2.6024
X6.685Y-2.685
X6.7126Y-2.8386
X6.7165Y-2.9173
X6.752Y-2.5197
X6.8701Y-2.3504
X6.8701Y-2.4646
X6.874Y-2.6378
T3
X5.5207Y-3.315
X5.7175Y-3.3976
T4
X4.0913Y-3.0315
X4.1913Y-3.0315
X4.2913Y-3.0315
T5
X4.0453Y-2.2557
X4.0453Y-2.4478
X6.4075Y-2.0581
X6.4075Y-2.1565
X6.6929Y-2.0571
X6.6929Y-2.1555
T6
X5.4508Y-2.6772
X5.5508Y-2.6772
X5.6508Y-2.6772
T7
X6.8701Y-3.1594
X6.8701Y-3.2579
X6.8701Y-3.3563
T8
X3.9815Y-1.9291
X3.9815Y-2.0291
X3.9913Y-3.376
X4.0815Y-1.9291
X4.0815Y-2.0291
X4.0913Y-3.376
X4.1815Y-1.9291
X4.1815Y-2.0291
X4.2815Y-1.9291
X4.2815Y-2.0291
X4.3815Y-1.9291
X4.3815Y-2.0291
X4.8378Y-3.376
X4.9378Y-3.376
X5.0378Y-3.376
X5.1378Y-3.376
X6.9685Y-1.9291
X6.9685Y-2.0291
T9
X4.1634Y-2.6772
X4.4193Y-2.6772
X4.9902Y-2.6772
X5.2461Y-2.6772
T10
X6.811Y-1.9291
T0
M30
