%TF.GenerationSoftware,KiCad,Pcbnew,8.0.1-8.0.1-1~ubuntu22.04.1*%
%TF.CreationDate,2024-04-06T20:30:09+03:00*%
%TF.ProjectId,handle-module,68616e64-6c65-42d6-9d6f-64756c652e6b,rev?*%
%TF.SameCoordinates,Original*%
%TF.FileFunction,Copper,L4,Bot*%
%TF.FilePolarity,Positive*%
%FSLAX46Y46*%
G04 Gerber Fmt 4.6, Leading zero omitted, Abs format (unit mm)*
G04 Created by KiCad (PCBNEW 8.0.1-8.0.1-1~ubuntu22.04.1) date 2024-04-06 20:30:09*
%MOMM*%
%LPD*%
G01*
G04 APERTURE LIST*
G04 Aperture macros list*
%AMRoundRect*
0 Rectangle with rounded corners*
0 $1 Rounding radius*
0 $2 $3 $4 $5 $6 $7 $8 $9 X,Y pos of 4 corners*
0 Add a 4 corners polygon primitive as box body*
4,1,4,$2,$3,$4,$5,$6,$7,$8,$9,$2,$3,0*
0 Add four circle primitives for the rounded corners*
1,1,$1+$1,$2,$3*
1,1,$1+$1,$4,$5*
1,1,$1+$1,$6,$7*
1,1,$1+$1,$8,$9*
0 Add four rect primitives between the rounded corners*
20,1,$1+$1,$2,$3,$4,$5,0*
20,1,$1+$1,$4,$5,$6,$7,0*
20,1,$1+$1,$6,$7,$8,$9,0*
20,1,$1+$1,$8,$9,$2,$3,0*%
G04 Aperture macros list end*
%TA.AperFunction,HeatsinkPad*%
%ADD10C,0.500000*%
%TD*%
%TA.AperFunction,HeatsinkPad*%
%ADD11R,2.600000X2.600000*%
%TD*%
%TA.AperFunction,ComponentPad*%
%ADD12C,1.500000*%
%TD*%
%TA.AperFunction,ComponentPad*%
%ADD13R,1.700000X1.700000*%
%TD*%
%TA.AperFunction,ComponentPad*%
%ADD14O,1.700000X1.700000*%
%TD*%
%TA.AperFunction,ComponentPad*%
%ADD15C,2.000000*%
%TD*%
%TA.AperFunction,ComponentPad*%
%ADD16R,1.600000X1.600000*%
%TD*%
%TA.AperFunction,ComponentPad*%
%ADD17C,1.600000*%
%TD*%
%TA.AperFunction,ComponentPad*%
%ADD18R,1.800000X1.800000*%
%TD*%
%TA.AperFunction,ComponentPad*%
%ADD19C,1.800000*%
%TD*%
%TA.AperFunction,ComponentPad*%
%ADD20RoundRect,0.250000X-0.750000X0.600000X-0.750000X-0.600000X0.750000X-0.600000X0.750000X0.600000X0*%
%TD*%
%TA.AperFunction,ComponentPad*%
%ADD21O,2.000000X1.700000*%
%TD*%
%TA.AperFunction,ComponentPad*%
%ADD22C,1.524000*%
%TD*%
%TA.AperFunction,SMDPad,CuDef*%
%ADD23RoundRect,0.250000X-0.262500X-0.450000X0.262500X-0.450000X0.262500X0.450000X-0.262500X0.450000X0*%
%TD*%
%TA.AperFunction,SMDPad,CuDef*%
%ADD24RoundRect,0.150000X-0.150000X0.587500X-0.150000X-0.587500X0.150000X-0.587500X0.150000X0.587500X0*%
%TD*%
%TA.AperFunction,SMDPad,CuDef*%
%ADD25RoundRect,0.225000X0.250000X-0.225000X0.250000X0.225000X-0.250000X0.225000X-0.250000X-0.225000X0*%
%TD*%
%TA.AperFunction,SMDPad,CuDef*%
%ADD26RoundRect,0.250000X1.100000X-0.325000X1.100000X0.325000X-1.100000X0.325000X-1.100000X-0.325000X0*%
%TD*%
%TA.AperFunction,SMDPad,CuDef*%
%ADD27RoundRect,0.250000X0.262500X0.450000X-0.262500X0.450000X-0.262500X-0.450000X0.262500X-0.450000X0*%
%TD*%
%TA.AperFunction,SMDPad,CuDef*%
%ADD28RoundRect,0.225000X0.225000X0.250000X-0.225000X0.250000X-0.225000X-0.250000X0.225000X-0.250000X0*%
%TD*%
%TA.AperFunction,SMDPad,CuDef*%
%ADD29RoundRect,0.225000X-0.225000X-0.250000X0.225000X-0.250000X0.225000X0.250000X-0.225000X0.250000X0*%
%TD*%
%TA.AperFunction,SMDPad,CuDef*%
%ADD30RoundRect,0.225000X-0.250000X0.225000X-0.250000X-0.225000X0.250000X-0.225000X0.250000X0.225000X0*%
%TD*%
%TA.AperFunction,SMDPad,CuDef*%
%ADD31RoundRect,0.250000X-0.325000X-1.100000X0.325000X-1.100000X0.325000X1.100000X-0.325000X1.100000X0*%
%TD*%
%TA.AperFunction,SMDPad,CuDef*%
%ADD32RoundRect,0.150000X-0.587500X-0.150000X0.587500X-0.150000X0.587500X0.150000X-0.587500X0.150000X0*%
%TD*%
%TA.AperFunction,SMDPad,CuDef*%
%ADD33RoundRect,0.250000X0.450000X-0.262500X0.450000X0.262500X-0.450000X0.262500X-0.450000X-0.262500X0*%
%TD*%
%TA.AperFunction,SMDPad,CuDef*%
%ADD34RoundRect,0.250000X1.000000X0.650000X-1.000000X0.650000X-1.000000X-0.650000X1.000000X-0.650000X0*%
%TD*%
%TA.AperFunction,SMDPad,CuDef*%
%ADD35RoundRect,0.250000X0.650000X-1.000000X0.650000X1.000000X-0.650000X1.000000X-0.650000X-1.000000X0*%
%TD*%
%TA.AperFunction,ViaPad*%
%ADD36C,0.800000*%
%TD*%
%TA.AperFunction,Conductor*%
%ADD37C,0.500000*%
%TD*%
%TA.AperFunction,Conductor*%
%ADD38C,1.000000*%
%TD*%
%TA.AperFunction,Conductor*%
%ADD39C,2.000000*%
%TD*%
%TA.AperFunction,Conductor*%
%ADD40C,0.200000*%
%TD*%
G04 APERTURE END LIST*
D10*
%TO.P,U5,29,PGND*%
%TO.N,GNDPWR*%
X118640487Y-103250000D03*
X118640487Y-104300000D03*
X118640487Y-105350000D03*
X119690487Y-103250000D03*
X119690487Y-104300000D03*
D11*
X119690487Y-104300000D03*
D10*
X119690487Y-105350000D03*
X120740487Y-103250000D03*
X120740487Y-104300000D03*
X120740487Y-105350000D03*
%TD*%
D12*
%TO.P,X1,1,1*%
%TO.N,Net-(U3-XTAL2{slash}PB7)*%
X58740487Y-93175000D03*
%TO.P,X1,2,2*%
%TO.N,Net-(U3-XTAL1{slash}PB6)*%
X58740487Y-88295000D03*
%TD*%
D13*
%TO.P,J1,1,Pin_1*%
%TO.N,GNDPWR*%
X132990487Y-80000000D03*
D14*
%TO.P,J1,2,Pin_2*%
%TO.N,/VBAT_BEFORE_FUSE*%
X132990487Y-82540000D03*
%TD*%
D15*
%TO.P,U2,1,ANT*%
%TO.N,unconnected-(U2-ANT-Pad1)*%
X57370487Y-116750000D03*
%TO.P,U2,2,GND*%
%TO.N,GNDA*%
X59910487Y-116750000D03*
%TO.P,U2,3,VCC*%
%TO.N,+5V*%
X78870487Y-116750000D03*
%TO.P,U2,4,CS*%
X81410487Y-116750000D03*
%TO.P,U2,5,DATA*%
%TO.N,/FM_IN*%
X83950487Y-116750000D03*
%TO.P,U2,6,GND*%
%TO.N,GNDA*%
X86490487Y-116750000D03*
%TD*%
D16*
%TO.P,C6,1*%
%TO.N,/VBAT_BEFORE_FUSE*%
X118740487Y-85775001D03*
D17*
%TO.P,C6,2*%
%TO.N,GNDA*%
X118740487Y-83275001D03*
%TD*%
D16*
%TO.P,C5,1*%
%TO.N,/VBAT_BEFORE_FUSE*%
X125990487Y-85750000D03*
D17*
%TO.P,C5,2*%
%TO.N,GNDPWR*%
X125990487Y-83250000D03*
%TD*%
D15*
%TO.P,U1,2,DATA*%
%TO.N,/FM_OUT*%
X59910487Y-108000000D03*
%TO.P,U1,3,VCC*%
%TO.N,+5V*%
X62450487Y-108000000D03*
%TO.P,U1,4,GND*%
%TO.N,GNDA*%
X64990487Y-108000000D03*
%TD*%
D18*
%TO.P,D1,1,A1*%
%TO.N,Net-(D1-A1)*%
X94440487Y-99000000D03*
D19*
%TO.P,D1,2,K*%
%TO.N,Net-(D1-K)*%
X96980487Y-99000000D03*
%TO.P,D1,3,A2*%
%TO.N,Net-(D1-A2)*%
X99520487Y-99000000D03*
%TD*%
D17*
%TO.P,RV1,1*%
%TO.N,/CHARGER_SUPPLY*%
X101215487Y-117300000D03*
%TO.P,RV1,2*%
%TO.N,GNDPWR*%
X96215487Y-115200000D03*
%TD*%
D20*
%TO.P,J2,1,Pin_1*%
%TO.N,GNDPWR*%
X130490487Y-114000000D03*
D21*
%TO.P,J2,2,Pin_2*%
%TO.N,Net-(D7-A1)*%
X130490487Y-116500000D03*
%TD*%
D15*
%TO.P,SW2,1,1*%
%TO.N,/CLOSE_BUTTON*%
X82740487Y-99000000D03*
%TO.P,SW2,2,2*%
%TO.N,/VBAT*%
X89240487Y-99000000D03*
%TD*%
D22*
%TO.P,TP2,1,1*%
%TO.N,GNDPWR*%
X128990487Y-80000000D03*
%TD*%
D15*
%TO.P,SW1,1,1*%
%TO.N,/VBAT*%
X61740487Y-99000000D03*
%TO.P,SW1,2,2*%
%TO.N,/OPEN_BUTTON*%
X68240487Y-99000000D03*
%TD*%
D13*
%TO.P,J3,1,Pin_1*%
%TO.N,/MOSI*%
X67280487Y-80000000D03*
D14*
%TO.P,J3,2,Pin_2*%
%TO.N,+5V*%
X67280487Y-82540000D03*
%TO.P,J3,3,Pin_3*%
%TO.N,unconnected-(J3-Pin_3-Pad3)*%
X64740487Y-80000000D03*
%TO.P,J3,4,Pin_4*%
%TO.N,/RXD*%
X64740487Y-82540000D03*
%TO.P,J3,5,Pin_5*%
%TO.N,/RESET#*%
X62200487Y-80000000D03*
%TO.P,J3,6,Pin_6*%
%TO.N,/TXD*%
X62200487Y-82540000D03*
%TO.P,J3,7,Pin_7*%
%TO.N,/SCK*%
X59660487Y-80000000D03*
%TO.P,J3,8,Pin_8*%
%TO.N,GNDA*%
X59660487Y-82540000D03*
%TO.P,J3,9,Pin_9*%
%TO.N,/MISO*%
X57120487Y-80000000D03*
%TO.P,J3,10,Pin_10*%
%TO.N,GNDA*%
X57120487Y-82540000D03*
%TD*%
D23*
%TO.P,R27,1*%
%TO.N,/VBAT*%
X112790487Y-100900000D03*
%TO.P,R27,2*%
%TO.N,/CHARGER_SRN*%
X114615487Y-100900000D03*
%TD*%
D24*
%TO.P,Q2,1,G*%
%TO.N,/LED_RED#*%
X93620487Y-94025000D03*
%TO.P,Q2,2,S*%
%TO.N,+5V*%
X95520487Y-94025000D03*
%TO.P,Q2,3,D*%
%TO.N,Net-(D1-A1)*%
X94570487Y-95900000D03*
%TD*%
D25*
%TO.P,C19,1*%
%TO.N,Net-(U3-XTAL2{slash}PB7)*%
X60490487Y-93250000D03*
%TO.P,C19,2*%
%TO.N,GNDA*%
X60490487Y-91700000D03*
%TD*%
D23*
%TO.P,R14,1*%
%TO.N,Net-(Q8-G)*%
X109490487Y-108200000D03*
%TO.P,R14,2*%
%TO.N,Net-(U5-ACDRV)*%
X111315487Y-108200000D03*
%TD*%
D26*
%TO.P,C7,1*%
%TO.N,/VBAT_BEFORE_FUSE*%
X115190487Y-85775000D03*
%TO.P,C7,2*%
%TO.N,GNDA*%
X115190487Y-82825000D03*
%TD*%
D27*
%TO.P,R12,1*%
%TO.N,Net-(U5-ACDET)*%
X109300000Y-118700000D03*
%TO.P,R12,2*%
%TO.N,GNDA*%
X107475000Y-118700000D03*
%TD*%
D25*
%TO.P,C20,1*%
%TO.N,Net-(Q8-D)*%
X108302987Y-102775000D03*
%TO.P,C20,2*%
%TO.N,GNDA*%
X108302987Y-101225000D03*
%TD*%
D24*
%TO.P,Q1,1,G*%
%TO.N,/LED_GREEN#*%
X98540487Y-94025000D03*
%TO.P,Q1,2,S*%
%TO.N,+5V*%
X100440487Y-94025000D03*
%TO.P,Q1,3,D*%
%TO.N,Net-(D1-A2)*%
X99490487Y-95900000D03*
%TD*%
D28*
%TO.P,C24,1*%
%TO.N,Net-(U5-VCC)*%
X112965487Y-110700000D03*
%TO.P,C24,2*%
%TO.N,GNDA*%
X111415487Y-110700000D03*
%TD*%
D25*
%TO.P,C12,1*%
%TO.N,/CHARGER_SUPPLY*%
X102990487Y-116025000D03*
%TO.P,C12,2*%
%TO.N,Net-(C12-Pad2)*%
X102990487Y-114475000D03*
%TD*%
D29*
%TO.P,C2,1*%
%TO.N,+5V*%
X81465487Y-114750000D03*
%TO.P,C2,2*%
%TO.N,GNDA*%
X83015487Y-114750000D03*
%TD*%
D27*
%TO.P,R8,1*%
%TO.N,Net-(C12-Pad2)*%
X100902987Y-114250000D03*
%TO.P,R8,2*%
%TO.N,GNDPWR*%
X99077987Y-114250000D03*
%TD*%
D23*
%TO.P,R13,1*%
%TO.N,Net-(Q7-G)*%
X104590487Y-107600000D03*
%TO.P,R13,2*%
%TO.N,Net-(Q8-G)*%
X106415487Y-107600000D03*
%TD*%
D25*
%TO.P,C8,1*%
%TO.N,/VBAT_BEFORE_FUSE*%
X112090487Y-85675000D03*
%TO.P,C8,2*%
%TO.N,GNDA*%
X112090487Y-84125000D03*
%TD*%
D30*
%TO.P,C9,1*%
%TO.N,GNDA*%
X110330487Y-84125000D03*
%TO.P,C9,2*%
%TO.N,/VBAT_BEFORE_FUSE*%
X110330487Y-85675000D03*
%TD*%
D23*
%TO.P,R11,1*%
%TO.N,/CHARGER_SUPPLY*%
X107475000Y-116600000D03*
%TO.P,R11,2*%
%TO.N,Net-(U5-ACDET)*%
X109300000Y-116600000D03*
%TD*%
D29*
%TO.P,C4,1*%
%TO.N,GNDA*%
X79915487Y-100800000D03*
%TO.P,C4,2*%
%TO.N,/CLOSE_BUTTON*%
X81465487Y-100800000D03*
%TD*%
D25*
%TO.P,C23,1*%
%TO.N,/VSYS*%
X110002987Y-102775000D03*
%TO.P,C23,2*%
%TO.N,GNDA*%
X110002987Y-101225000D03*
%TD*%
D28*
%TO.P,C25,1*%
%TO.N,Net-(U5-BTST)*%
X119475000Y-99700000D03*
%TO.P,C25,2*%
%TO.N,Net-(Q10-D)*%
X117925000Y-99700000D03*
%TD*%
D27*
%TO.P,R5,1*%
%TO.N,Net-(D1-K)*%
X96932987Y-101500000D03*
%TO.P,R5,2*%
%TO.N,GNDA*%
X95107987Y-101500000D03*
%TD*%
D29*
%TO.P,C1,1*%
%TO.N,+5V*%
X61715487Y-110600000D03*
%TO.P,C1,2*%
%TO.N,GNDA*%
X63265487Y-110600000D03*
%TD*%
D23*
%TO.P,R15,1*%
%TO.N,/CHR_VSYS_NMOS*%
X109390487Y-105300000D03*
%TO.P,R15,2*%
%TO.N,Net-(U5-CMSRC)*%
X111215487Y-105300000D03*
%TD*%
%TO.P,R1,1*%
%TO.N,/LED_GREEN#*%
X98520487Y-91500000D03*
%TO.P,R1,2*%
%TO.N,+5V*%
X100345487Y-91500000D03*
%TD*%
D29*
%TO.P,C29,1*%
%TO.N,/CHARGER_BATSRC*%
X111915487Y-96700000D03*
%TO.P,C29,2*%
%TO.N,GNDA*%
X113465487Y-96700000D03*
%TD*%
D30*
%TO.P,C18,1*%
%TO.N,Net-(U3-XTAL1{slash}PB6)*%
X60490487Y-88175000D03*
%TO.P,C18,2*%
%TO.N,GNDA*%
X60490487Y-89725000D03*
%TD*%
D28*
%TO.P,C3,1*%
%TO.N,GNDA*%
X70540487Y-101000000D03*
%TO.P,C3,2*%
%TO.N,/OPEN_BUTTON*%
X68990487Y-101000000D03*
%TD*%
D31*
%TO.P,C32,1*%
%TO.N,/VBAT*%
X121915487Y-80000000D03*
%TO.P,C32,2*%
%TO.N,GNDPWR*%
X124865487Y-80000000D03*
%TD*%
D32*
%TO.P,Q11,1,G*%
%TO.N,/CHARGER_BATDRV*%
X119352987Y-97250000D03*
%TO.P,Q11,2,S*%
%TO.N,/CHARGER_BATSRC*%
X119352987Y-95350000D03*
%TO.P,Q11,3,D*%
%TO.N,/VSYS*%
X121227987Y-96300000D03*
%TD*%
D28*
%TO.P,C16,1*%
%TO.N,/CHR_VSYS_NMOS*%
X106977987Y-105500000D03*
%TO.P,C16,2*%
%TO.N,Net-(Q8-G)*%
X105427987Y-105500000D03*
%TD*%
D23*
%TO.P,R2,1*%
%TO.N,/LED_RED#*%
X93607987Y-91500000D03*
%TO.P,R2,2*%
%TO.N,+5V*%
X95432987Y-91500000D03*
%TD*%
D25*
%TO.P,C26,1*%
%TO.N,/CHARGER_SUPPLY*%
X107437500Y-114775000D03*
%TO.P,C26,2*%
%TO.N,GNDPWR*%
X107437500Y-113225000D03*
%TD*%
D33*
%TO.P,R23,1*%
%TO.N,Net-(D7-A1)*%
X132990487Y-116412500D03*
%TO.P,R23,2*%
%TO.N,GNDPWR*%
X132990487Y-114587500D03*
%TD*%
D28*
%TO.P,C31,1*%
%TO.N,/VBAT*%
X107565487Y-96600000D03*
%TO.P,C31,2*%
%TO.N,GNDA*%
X106015487Y-96600000D03*
%TD*%
D34*
%TO.P,D8,1,K*%
%TO.N,Net-(D6-K)*%
X106602987Y-110600000D03*
%TO.P,D8,2,A*%
%TO.N,/VBAT*%
X102602987Y-110600000D03*
%TD*%
D29*
%TO.P,C14,1*%
%TO.N,/CHARGER_SUPPLY*%
X101827987Y-105100000D03*
%TO.P,C14,2*%
%TO.N,Net-(Q8-G)*%
X103377987Y-105100000D03*
%TD*%
D27*
%TO.P,R25,1*%
%TO.N,/CHARGER_SRP*%
X114615487Y-98900000D03*
%TO.P,R25,2*%
%TO.N,/CHARGER_BATSRC*%
X112790487Y-98900000D03*
%TD*%
D23*
%TO.P,R4,1*%
%TO.N,/OPEN_BUTTON*%
X68765487Y-97000000D03*
%TO.P,R4,2*%
%TO.N,GNDA*%
X70590487Y-97000000D03*
%TD*%
D35*
%TO.P,D7,1,A1*%
%TO.N,Net-(D7-A1)*%
X125500000Y-117700000D03*
%TO.P,D7,2,A2*%
%TO.N,GNDPWR*%
X125500000Y-113700000D03*
%TD*%
D27*
%TO.P,R3,1*%
%TO.N,/CLOSE_BUTTON*%
X81602987Y-102900000D03*
%TO.P,R3,2*%
%TO.N,GNDA*%
X79777987Y-102900000D03*
%TD*%
D26*
%TO.P,C27,1*%
%TO.N,/VSYS*%
X130590487Y-93675000D03*
%TO.P,C27,2*%
%TO.N,GNDPWR*%
X130590487Y-90725000D03*
%TD*%
D36*
%TO.N,GNDA*%
X81490487Y-83000000D03*
X80190487Y-97100000D03*
X72990487Y-82500000D03*
X128190218Y-100190219D03*
X95740487Y-80500000D03*
X70790487Y-101000000D03*
X85490487Y-86250000D03*
X72740487Y-89750000D03*
X85600000Y-108000000D03*
%TO.N,+5V*%
X100345487Y-91500000D03*
X71290487Y-103000000D03*
X95432987Y-91500000D03*
X112890487Y-108500000D03*
X81590487Y-80000000D03*
X75990487Y-100100000D03*
%TO.N,GNDPWR*%
X125790487Y-99200000D03*
X125500000Y-114100000D03*
X130490487Y-90700000D03*
%TO.N,/CHARGER_SUPPLY*%
X101002987Y-106500000D03*
X107387500Y-116600000D03*
%TO.N,Net-(Q7-G)*%
X104602987Y-107600000D03*
%TO.N,/VSYS*%
X112802987Y-102300000D03*
X130490487Y-93600000D03*
X124590487Y-97100000D03*
%TO.N,/CHARGER_BATSRC*%
X110590487Y-96700000D03*
X126590487Y-105100000D03*
X117090487Y-93800000D03*
%TO.N,/VBAT*%
X104290487Y-81500000D03*
X109090487Y-96700000D03*
%TO.N,/MOSI*%
X71740487Y-92000000D03*
%TO.N,/SCK*%
X73240487Y-92250000D03*
%TO.N,/MISO*%
X76740487Y-94500000D03*
%TO.N,/LED_GREEN#*%
X98520487Y-91500000D03*
%TO.N,/LED_RED#*%
X93607987Y-91500000D03*
%TO.N,Net-(Q8-G)*%
X105402987Y-103600000D03*
%TO.N,Net-(Q9-G)*%
X127490487Y-95000000D03*
X118925206Y-100874794D03*
%TO.N,/CHARGER_BATDRV*%
X126490487Y-103100000D03*
%TO.N,Net-(Q8-D)*%
X112802987Y-103900000D03*
%TO.N,Net-(U5-VCC)*%
X112890487Y-110700000D03*
X116290487Y-102400000D03*
%TO.N,Net-(Q10-D)*%
X117925000Y-99700000D03*
X122990487Y-93800000D03*
%TO.N,/SDA*%
X117990487Y-107800000D03*
X75790487Y-82500000D03*
%TO.N,/SCL*%
X118341436Y-108735863D03*
X74390487Y-82800000D03*
%TO.N,/CHARGER_SRP*%
X123290487Y-102300000D03*
%TO.N,/CHARGER_SRN*%
X123333234Y-103355509D03*
%TO.N,Net-(U5-BTST)*%
X119500000Y-99700000D03*
%TO.N,Net-(D6-K)*%
X106802987Y-110600000D03*
%TO.N,Net-(D7-A1)*%
X125500000Y-117600000D03*
%TO.N,Net-(Q5-D)*%
X91400000Y-96500000D03*
X93700000Y-87400000D03*
%TO.N,Net-(U5-ACDET)*%
X115300000Y-111700000D03*
%TO.N,Net-(U5-ACDRV)*%
X111402987Y-108200000D03*
%TO.N,/CHR_VSYS_NMOS*%
X109402987Y-105300000D03*
%TO.N,Net-(U5-CMSRC)*%
X111202987Y-105400000D03*
%TD*%
D37*
%TO.N,GNDA*%
X107475000Y-118700000D02*
X106425000Y-119750000D01*
X107442936Y-108800000D02*
X100890487Y-108800000D01*
X106425000Y-119750000D02*
X89490487Y-119750000D01*
X109342936Y-110700000D02*
X107442936Y-108800000D01*
X111415487Y-110700000D02*
X109342936Y-110700000D01*
X89490487Y-119750000D02*
X86490487Y-116750000D01*
%TO.N,+5V*%
X95520487Y-91587500D02*
X95520487Y-94000000D01*
X61710487Y-110600000D02*
X61710487Y-108740000D01*
X100440487Y-91595000D02*
X100440487Y-94025000D01*
X61710487Y-108740000D02*
X62450487Y-108000000D01*
X81465487Y-114750000D02*
X81465487Y-116695000D01*
%TO.N,/OPEN_BUTTON*%
X68990487Y-99975000D02*
X68015487Y-99000000D01*
X68015487Y-99000000D02*
X68015487Y-97750000D01*
X68015487Y-97750000D02*
X68765487Y-97000000D01*
X68990487Y-101000000D02*
X68990487Y-99975000D01*
%TO.N,/CLOSE_BUTTON*%
X81465487Y-100525000D02*
X82990487Y-99000000D01*
X81490487Y-102787500D02*
X81490487Y-101050000D01*
X81490487Y-101050000D02*
X81602987Y-100937500D01*
X81465487Y-100800000D02*
X81465487Y-100525000D01*
D38*
%TO.N,/VBAT_BEFORE_FUSE*%
X110430487Y-85775000D02*
X110330487Y-85675000D01*
X118740487Y-85775001D02*
X115740487Y-85775000D01*
D39*
X132990487Y-82540000D02*
X129780487Y-85750000D01*
X129780487Y-85750000D02*
X125990487Y-85750000D01*
D38*
X115190487Y-85775000D02*
X110430487Y-85775000D01*
D39*
X125990487Y-85750000D02*
X118765488Y-85750000D01*
D37*
%TO.N,GNDPWR*%
X100227987Y-113100000D02*
X107312500Y-113100000D01*
D40*
X132290487Y-92425000D02*
X130590487Y-90725000D01*
D37*
X97165487Y-114250000D02*
X96215487Y-115200000D01*
D40*
X125790487Y-99200000D02*
X128065487Y-99200000D01*
D37*
X132990487Y-114587500D02*
X131077987Y-114587500D01*
X99077987Y-114250000D02*
X100227987Y-113100000D01*
X99077987Y-114250000D02*
X97165487Y-114250000D01*
D38*
X124865487Y-80000000D02*
X128990487Y-80000000D01*
D40*
X132290487Y-94975000D02*
X132290487Y-92425000D01*
X128065487Y-99200000D02*
X132290487Y-94975000D01*
D37*
%TO.N,/CHARGER_SUPPLY*%
X101002987Y-105600000D02*
X101002987Y-106500000D01*
X101827987Y-105100000D02*
X101502987Y-105100000D01*
X101502987Y-105100000D02*
X101002987Y-105600000D01*
X101715487Y-117300000D02*
X102990487Y-116025000D01*
X107387500Y-116600000D02*
X107387500Y-114825000D01*
D38*
%TO.N,/VSYS*%
X122090487Y-96300000D02*
X121227987Y-96300000D01*
X124590487Y-97100000D02*
X127115487Y-97100000D01*
D40*
X110477987Y-102300000D02*
X110002987Y-102775000D01*
X112802987Y-102300000D02*
X110477987Y-102300000D01*
D38*
X122890487Y-97100000D02*
X122090487Y-96300000D01*
X124590487Y-97100000D02*
X122890487Y-97100000D01*
X127115487Y-97100000D02*
X130515487Y-93700000D01*
D40*
%TO.N,/CHARGER_BATSRC*%
X111915487Y-96700000D02*
X110590487Y-96700000D01*
D38*
X119352987Y-95350000D02*
X118640487Y-95350000D01*
D40*
X118579091Y-97850000D02*
X121640487Y-97850000D01*
D38*
X118040487Y-94750000D02*
X117090487Y-93800000D01*
D40*
X126190487Y-105100000D02*
X126590487Y-105100000D01*
D38*
X118640487Y-95350000D02*
X118040487Y-94750000D01*
D40*
X125590487Y-104500000D02*
X126190487Y-105100000D01*
X112790487Y-98900000D02*
X110590487Y-96700000D01*
X125590487Y-101800000D02*
X125590487Y-104500000D01*
X118040487Y-94750000D02*
X118040487Y-97311396D01*
X121640487Y-97850000D02*
X125590487Y-101800000D01*
X118040487Y-97311396D02*
X118579091Y-97850000D01*
D38*
%TO.N,/VBAT*%
X106990487Y-79000000D02*
X104290487Y-81700000D01*
D40*
X107565487Y-96600000D02*
X108990487Y-96600000D01*
D38*
X89490487Y-102100000D02*
X89490487Y-99000000D01*
D40*
X108990487Y-96600000D02*
X109090487Y-96700000D01*
D38*
X102602987Y-110600000D02*
X97990487Y-110600000D01*
D40*
X109090487Y-96700000D02*
X112790487Y-100400000D01*
D38*
X97990487Y-110600000D02*
X89490487Y-102100000D01*
X120915487Y-79000000D02*
X106990487Y-79000000D01*
X121915487Y-80000000D02*
X120915487Y-79000000D01*
D37*
%TO.N,Net-(D1-A1)*%
X94570487Y-95875000D02*
X94570487Y-98870000D01*
%TO.N,Net-(D1-K)*%
X96932987Y-101500000D02*
X96932987Y-99047500D01*
%TO.N,Net-(D1-A2)*%
X99520487Y-95937500D02*
X99520487Y-99000000D01*
%TO.N,/LED_GREEN#*%
X98520487Y-91500000D02*
X98520487Y-94012500D01*
%TO.N,/LED_RED#*%
X93607987Y-91500000D02*
X93607987Y-93987500D01*
%TO.N,Net-(C12-Pad2)*%
X102765487Y-114250000D02*
X100902987Y-114250000D01*
X102990487Y-114475000D02*
X102765487Y-114250000D01*
%TO.N,Net-(Q8-G)*%
X106415487Y-106487500D02*
X105427987Y-105500000D01*
X103377987Y-105100000D02*
X105027987Y-105100000D01*
X109490487Y-108200000D02*
X108890487Y-107600000D01*
X108890487Y-107600000D02*
X106415487Y-107600000D01*
X105402987Y-103600000D02*
X105402987Y-105475000D01*
X105027987Y-105100000D02*
X105427987Y-105500000D01*
X106415487Y-107600000D02*
X106415487Y-106487500D01*
D40*
%TO.N,/CHARGER_BATDRV*%
X119352987Y-97250000D02*
X121740487Y-97250000D01*
X126690487Y-103100000D02*
X126590487Y-103000000D01*
X126490487Y-102000000D02*
X126490487Y-103100000D01*
X121740487Y-97250000D02*
X126490487Y-102000000D01*
X126490487Y-103100000D02*
X126690487Y-103100000D01*
D37*
%TO.N,Net-(U3-XTAL1{slash}PB6)*%
X60490487Y-88175000D02*
X58860487Y-88175000D01*
%TO.N,Net-(U3-XTAL2{slash}PB7)*%
X60490487Y-93250000D02*
X58815487Y-93250000D01*
D40*
%TO.N,Net-(Q8-D)*%
X109002987Y-103900000D02*
X108302987Y-103200000D01*
X108302987Y-103200000D02*
X108302987Y-102775000D01*
X112802987Y-103900000D02*
X109002987Y-103900000D01*
%TO.N,/CHARGER_SRP*%
X123290487Y-100800000D02*
X121390487Y-98900000D01*
X123290487Y-102300000D02*
X123290487Y-100800000D01*
X121390487Y-98900000D02*
X114615487Y-98900000D01*
%TO.N,/CHARGER_SRN*%
X115780437Y-100900000D02*
X114615487Y-100900000D01*
X122100537Y-102400000D02*
X117280437Y-102400000D01*
X123333234Y-103355509D02*
X123056046Y-103355509D01*
X117280437Y-102400000D02*
X115780437Y-100900000D01*
X123056046Y-103355509D02*
X122100537Y-102400000D01*
D37*
%TO.N,Net-(D7-A1)*%
X132990487Y-116412500D02*
X130577987Y-116412500D01*
%TO.N,Net-(U5-ACDET)*%
X109200000Y-118700000D02*
X109200000Y-117700000D01*
X109200000Y-117700000D02*
X109200000Y-116700000D01*
X115300000Y-114600000D02*
X112200000Y-117700000D01*
X115300000Y-111700000D02*
X115300000Y-114600000D01*
X112200000Y-117700000D02*
X109200000Y-117700000D01*
%TO.N,/CHR_VSYS_NMOS*%
X106977987Y-105500000D02*
X109190487Y-105500000D01*
%TD*%
%TA.AperFunction,Conductor*%
%TO.N,GNDA*%
G36*
X59194562Y-82347007D02*
G01*
X59160487Y-82474174D01*
X59160487Y-82605826D01*
X59194562Y-82732993D01*
X59227475Y-82790000D01*
X57553499Y-82790000D01*
X57586412Y-82732993D01*
X57620487Y-82605826D01*
X57620487Y-82474174D01*
X57586412Y-82347007D01*
X57553499Y-82290000D01*
X59227475Y-82290000D01*
X59194562Y-82347007D01*
G37*
%TD.AperFunction*%
%TA.AperFunction,Conductor*%
G36*
X106344744Y-78019685D02*
G01*
X106390499Y-78072489D01*
X106400443Y-78141647D01*
X106371418Y-78205203D01*
X106356366Y-78219856D01*
X106352703Y-78222861D01*
X103893592Y-80681973D01*
X103856350Y-80707570D01*
X103837755Y-80715849D01*
X103684616Y-80827111D01*
X103557953Y-80967785D01*
X103463308Y-81131715D01*
X103460664Y-81137654D01*
X103459714Y-81137231D01*
X103450370Y-81156470D01*
X103403856Y-81226085D01*
X103328436Y-81408163D01*
X103328434Y-81408171D01*
X103289987Y-81601455D01*
X103289987Y-81798544D01*
X103328434Y-81991828D01*
X103328436Y-81991836D01*
X103403854Y-82173910D01*
X103403859Y-82173920D01*
X103513347Y-82337780D01*
X103513350Y-82337784D01*
X103652702Y-82477136D01*
X103652706Y-82477139D01*
X103816566Y-82586627D01*
X103816570Y-82586629D01*
X103816573Y-82586631D01*
X103998651Y-82662051D01*
X104191942Y-82700499D01*
X104191945Y-82700500D01*
X104191947Y-82700500D01*
X104389029Y-82700500D01*
X104389030Y-82700499D01*
X104582323Y-82662051D01*
X104764401Y-82586631D01*
X104781808Y-82575000D01*
X113340487Y-82575000D01*
X114940487Y-82575000D01*
X114940487Y-81750000D01*
X115440487Y-81750000D01*
X115440487Y-82575000D01*
X117040486Y-82575000D01*
X117040486Y-82450028D01*
X117040485Y-82450013D01*
X117029992Y-82347302D01*
X116974845Y-82180880D01*
X116974843Y-82180875D01*
X116882802Y-82031654D01*
X116758832Y-81907684D01*
X116609611Y-81815643D01*
X116609606Y-81815641D01*
X116443184Y-81760494D01*
X116443177Y-81760493D01*
X116340473Y-81750000D01*
X115440487Y-81750000D01*
X114940487Y-81750000D01*
X114040515Y-81750000D01*
X114040499Y-81750001D01*
X113937789Y-81760494D01*
X113771367Y-81815641D01*
X113771362Y-81815643D01*
X113622141Y-81907684D01*
X113498171Y-82031654D01*
X113406130Y-82180875D01*
X113406128Y-82180880D01*
X113350981Y-82347302D01*
X113350980Y-82347309D01*
X113340487Y-82450013D01*
X113340487Y-82575000D01*
X104781808Y-82575000D01*
X104928268Y-82477139D01*
X106135407Y-81270000D01*
X107368589Y-80036819D01*
X107429912Y-80003334D01*
X107456270Y-80000500D01*
X120403216Y-80000500D01*
X120470255Y-80020185D01*
X120496418Y-80042711D01*
X120809189Y-80399124D01*
X120838612Y-80462496D01*
X120839987Y-80480913D01*
X120839987Y-81150001D01*
X120839988Y-81150019D01*
X120850487Y-81252796D01*
X120850488Y-81252799D01*
X120884408Y-81355160D01*
X120905673Y-81419334D01*
X120972026Y-81526910D01*
X120990487Y-81592006D01*
X120990487Y-84125500D01*
X120970802Y-84192539D01*
X120917998Y-84238294D01*
X120866487Y-84249500D01*
X119883344Y-84249500D01*
X119816305Y-84229815D01*
X119770550Y-84177011D01*
X119760606Y-84107853D01*
X119781769Y-84054376D01*
X119870621Y-83927483D01*
X119966752Y-83721327D01*
X119966756Y-83721318D01*
X120025626Y-83501611D01*
X120025628Y-83501600D01*
X120045453Y-83275003D01*
X120045453Y-83274998D01*
X120025628Y-83048401D01*
X120025626Y-83048390D01*
X119966756Y-82828683D01*
X119966751Y-82828669D01*
X119870623Y-82622522D01*
X119870619Y-82622514D01*
X119819512Y-82549527D01*
X119140487Y-83228553D01*
X119140487Y-83222340D01*
X119113228Y-83120607D01*
X119060567Y-83029395D01*
X118986093Y-82954921D01*
X118894881Y-82902260D01*
X118793148Y-82875001D01*
X118786935Y-82875001D01*
X119465959Y-82195975D01*
X119392965Y-82144864D01*
X119186818Y-82048736D01*
X119186804Y-82048731D01*
X118967097Y-81989861D01*
X118967086Y-81989859D01*
X118740489Y-81970035D01*
X118740485Y-81970035D01*
X118513887Y-81989859D01*
X118513876Y-81989861D01*
X118294169Y-82048731D01*
X118294160Y-82048735D01*
X118088003Y-82144867D01*
X118087999Y-82144869D01*
X118015013Y-82195974D01*
X118015013Y-82195975D01*
X118694040Y-82875001D01*
X118687826Y-82875001D01*
X118586093Y-82902260D01*
X118494881Y-82954921D01*
X118420407Y-83029395D01*
X118367746Y-83120607D01*
X118340487Y-83222340D01*
X118340487Y-83228553D01*
X117661461Y-82549527D01*
X117661460Y-82549527D01*
X117610355Y-82622513D01*
X117610353Y-82622517D01*
X117514221Y-82828674D01*
X117514217Y-82828683D01*
X117455347Y-83048390D01*
X117455345Y-83048401D01*
X117435521Y-83274998D01*
X117435521Y-83275003D01*
X117455345Y-83501600D01*
X117455347Y-83501611D01*
X117514217Y-83721318D01*
X117514222Y-83721332D01*
X117610350Y-83927479D01*
X117661461Y-84000473D01*
X118340487Y-83321447D01*
X118340487Y-83327662D01*
X118367746Y-83429395D01*
X118420407Y-83520607D01*
X118494881Y-83595081D01*
X118586093Y-83647742D01*
X118687826Y-83675001D01*
X118694040Y-83675001D01*
X118009513Y-84359526D01*
X117999914Y-84407290D01*
X117951298Y-84457472D01*
X117902309Y-84470917D01*
X117902530Y-84472781D01*
X117894810Y-84473694D01*
X117884504Y-84475372D01*
X117833013Y-84480908D01*
X117833004Y-84480910D01*
X117798792Y-84493669D01*
X117782041Y-84498603D01*
X117755948Y-84504328D01*
X117092843Y-84752991D01*
X117038078Y-84760377D01*
X116339678Y-84696887D01*
X116339678Y-84696880D01*
X116339537Y-84696874D01*
X116339523Y-84696872D01*
X116339497Y-84696870D01*
X116294143Y-84699253D01*
X116292712Y-84699329D01*
X116286208Y-84699500D01*
X114094620Y-84699500D01*
X114088161Y-84699332D01*
X114086701Y-84699255D01*
X114041296Y-84696887D01*
X114041294Y-84696887D01*
X114041291Y-84696887D01*
X113230348Y-84770609D01*
X113206008Y-84773584D01*
X113190965Y-84774500D01*
X113135310Y-84774500D01*
X113068271Y-84754815D01*
X113022516Y-84702011D01*
X113012572Y-84632853D01*
X113017604Y-84611496D01*
X113055342Y-84497607D01*
X113065486Y-84398322D01*
X113065487Y-84398309D01*
X113065487Y-84375000D01*
X109355488Y-84375000D01*
X109355488Y-84398322D01*
X109365631Y-84497607D01*
X109418939Y-84658481D01*
X109418944Y-84658492D01*
X109507911Y-84802728D01*
X109507914Y-84802732D01*
X109517147Y-84811965D01*
X109550632Y-84873288D01*
X109545648Y-84942980D01*
X109517150Y-84987324D01*
X109507520Y-84996953D01*
X109507516Y-84996959D01*
X109418488Y-85141294D01*
X109418483Y-85141305D01*
X109365138Y-85302290D01*
X109354987Y-85401647D01*
X109354987Y-85438564D01*
X109352604Y-85462755D01*
X109329987Y-85576456D01*
X109329987Y-85773538D01*
X109352605Y-85887253D01*
X109354987Y-85911440D01*
X109354987Y-85948336D01*
X109354988Y-85948356D01*
X109365137Y-86047707D01*
X109365138Y-86047710D01*
X109418483Y-86208694D01*
X109418488Y-86208705D01*
X109507516Y-86353040D01*
X109507519Y-86353044D01*
X109627442Y-86472967D01*
X109627446Y-86472970D01*
X109771781Y-86561998D01*
X109771784Y-86561999D01*
X109771790Y-86562003D01*
X109826639Y-86580178D01*
X109856519Y-86594779D01*
X109956573Y-86661632D01*
X110047995Y-86699500D01*
X110138651Y-86737051D01*
X110331941Y-86775499D01*
X110331944Y-86775500D01*
X110331946Y-86775500D01*
X113199458Y-86775500D01*
X113228144Y-86778863D01*
X113230362Y-86779391D01*
X113635828Y-86816251D01*
X114041382Y-86853120D01*
X114041381Y-86853120D01*
X114041472Y-86853128D01*
X114041474Y-86853128D01*
X114041485Y-86853129D01*
X114088251Y-86850670D01*
X114094762Y-86850499D01*
X116286363Y-86850499D01*
X116292823Y-86850667D01*
X116295370Y-86850799D01*
X116339678Y-86853112D01*
X117038076Y-86789621D01*
X117092841Y-86797007D01*
X117352868Y-86894517D01*
X117755945Y-87045671D01*
X117782035Y-87052870D01*
X117805527Y-87059353D01*
X117815868Y-87062700D01*
X117833004Y-87069092D01*
X117892614Y-87075501D01*
X117982515Y-87075500D01*
X117987029Y-87075582D01*
X117991283Y-87075737D01*
X117991284Y-87075736D01*
X117993912Y-87075832D01*
X118000126Y-87075500D01*
X118032024Y-87075500D01*
X118088317Y-87089014D01*
X118189496Y-87140568D01*
X118369881Y-87199179D01*
X118414119Y-87213553D01*
X118647391Y-87250500D01*
X120866487Y-87250500D01*
X120933526Y-87270185D01*
X120979281Y-87322989D01*
X120990487Y-87374500D01*
X120990487Y-87876000D01*
X120970802Y-87943039D01*
X120917998Y-87988794D01*
X120866487Y-88000000D01*
X114990487Y-88000000D01*
X114990487Y-97575500D01*
X114970802Y-97642539D01*
X114917998Y-97688294D01*
X114866487Y-97699500D01*
X114302985Y-97699500D01*
X114302959Y-97699502D01*
X114274723Y-97702386D01*
X114206030Y-97689615D01*
X114155148Y-97641732D01*
X114138229Y-97573942D01*
X114160647Y-97507766D01*
X114174444Y-97491346D01*
X114263063Y-97402727D01*
X114352029Y-97258492D01*
X114352034Y-97258481D01*
X114405342Y-97097606D01*
X114415486Y-96998322D01*
X114415487Y-96998309D01*
X114415487Y-96950000D01*
X113339487Y-96950000D01*
X113272448Y-96930315D01*
X113226693Y-96877511D01*
X113215487Y-96826000D01*
X113215487Y-95725000D01*
X113715487Y-95725000D01*
X113715487Y-96450000D01*
X114415486Y-96450000D01*
X114415486Y-96401692D01*
X114415485Y-96401677D01*
X114405342Y-96302392D01*
X114352034Y-96141518D01*
X114352029Y-96141507D01*
X114263062Y-95997271D01*
X114263059Y-95997267D01*
X114143219Y-95877427D01*
X114143215Y-95877424D01*
X113998979Y-95788457D01*
X113998968Y-95788452D01*
X113838093Y-95735144D01*
X113738809Y-95725000D01*
X113715487Y-95725000D01*
X113215487Y-95725000D01*
X113215487Y-95724999D01*
X113192180Y-95725000D01*
X113192161Y-95725001D01*
X113092879Y-95735144D01*
X112932005Y-95788452D01*
X112931994Y-95788457D01*
X112787758Y-95877424D01*
X112787752Y-95877428D01*
X112778518Y-95886663D01*
X112717194Y-95920146D01*
X112647502Y-95915159D01*
X112603159Y-95886660D01*
X112593531Y-95877032D01*
X112593527Y-95877029D01*
X112449192Y-95788001D01*
X112449186Y-95787998D01*
X112449184Y-95787997D01*
X112416094Y-95777032D01*
X112288196Y-95734651D01*
X112188833Y-95724500D01*
X111642149Y-95724500D01*
X111642131Y-95724501D01*
X111542779Y-95734650D01*
X111542776Y-95734651D01*
X111381790Y-95787997D01*
X111381789Y-95787997D01*
X111339484Y-95814090D01*
X111322981Y-95822632D01*
X111321236Y-95823374D01*
X111321223Y-95823381D01*
X111179466Y-95909351D01*
X111111936Y-95927283D01*
X111067474Y-95917787D01*
X111062823Y-95915849D01*
X110948778Y-95868330D01*
X110948770Y-95868327D01*
X110892570Y-95848367D01*
X110883632Y-95844796D01*
X110870294Y-95838857D01*
X110870289Y-95838855D01*
X110724488Y-95807865D01*
X110685133Y-95799500D01*
X110495841Y-95799500D01*
X110463384Y-95806398D01*
X110310684Y-95838855D01*
X110310679Y-95838857D01*
X110137757Y-95915848D01*
X110137752Y-95915851D01*
X109984619Y-96027109D01*
X109984616Y-96027111D01*
X109984616Y-96027112D01*
X109932635Y-96084841D01*
X109873150Y-96121489D01*
X109803293Y-96120158D01*
X109748338Y-96084841D01*
X109696358Y-96027112D01*
X109670280Y-96008165D01*
X109543221Y-95915851D01*
X109543216Y-95915848D01*
X109370294Y-95838857D01*
X109370289Y-95838855D01*
X109224488Y-95807865D01*
X109185133Y-95799500D01*
X108995841Y-95799500D01*
X108963384Y-95806398D01*
X108810684Y-95838855D01*
X108810676Y-95838858D01*
X108806845Y-95840564D01*
X108788785Y-95846982D01*
X108545945Y-95912646D01*
X108476092Y-95911143D01*
X108449277Y-95898970D01*
X108159759Y-95723387D01*
X108126628Y-95704799D01*
X108122208Y-95702197D01*
X108099193Y-95688002D01*
X108099188Y-95687999D01*
X108099184Y-95687997D01*
X108099181Y-95687996D01*
X107938196Y-95634651D01*
X107838833Y-95624500D01*
X107292149Y-95624500D01*
X107292131Y-95624501D01*
X107192779Y-95634650D01*
X107192776Y-95634651D01*
X107031792Y-95687996D01*
X107031781Y-95688001D01*
X106887446Y-95777029D01*
X106887440Y-95777033D01*
X106877811Y-95786663D01*
X106816487Y-95820146D01*
X106746795Y-95815159D01*
X106702452Y-95786660D01*
X106693219Y-95777427D01*
X106693215Y-95777424D01*
X106548979Y-95688457D01*
X106548968Y-95688452D01*
X106388093Y-95635144D01*
X106288809Y-95625000D01*
X106265487Y-95625000D01*
X106265487Y-97574999D01*
X106288795Y-97574999D01*
X106288809Y-97574998D01*
X106388094Y-97564855D01*
X106548968Y-97511547D01*
X106548979Y-97511542D01*
X106693218Y-97422573D01*
X106702446Y-97413345D01*
X106763766Y-97379856D01*
X106833458Y-97384835D01*
X106877814Y-97413339D01*
X106887442Y-97422967D01*
X106887446Y-97422970D01*
X107031781Y-97511998D01*
X107031784Y-97511999D01*
X107031790Y-97512003D01*
X107192779Y-97565349D01*
X107292142Y-97575500D01*
X107838831Y-97575499D01*
X107838839Y-97575498D01*
X107838842Y-97575498D01*
X107893247Y-97569940D01*
X107938195Y-97565349D01*
X108099184Y-97512003D01*
X108141491Y-97485906D01*
X108158037Y-97477346D01*
X108158302Y-97477233D01*
X108159750Y-97476617D01*
X108329362Y-97373751D01*
X108396888Y-97355820D01*
X108456619Y-97372950D01*
X108600248Y-97457600D01*
X108610143Y-97464088D01*
X108637757Y-97484151D01*
X108663847Y-97495767D01*
X108672634Y-97500104D01*
X108699892Y-97514924D01*
X108701335Y-97515645D01*
X108701343Y-97515648D01*
X108724612Y-97524825D01*
X108742172Y-97533405D01*
X108755762Y-97541430D01*
X108855649Y-97582560D01*
X109288596Y-97760832D01*
X109329063Y-97787811D01*
X111642136Y-100100884D01*
X111675621Y-100162207D01*
X111677740Y-100175270D01*
X111773966Y-101067611D01*
X111776256Y-101083742D01*
X111777487Y-101101171D01*
X111777487Y-101400000D01*
X111777488Y-101400019D01*
X111787987Y-101502796D01*
X111787989Y-101502804D01*
X111799154Y-101536495D01*
X111801557Y-101606323D01*
X111765826Y-101666365D01*
X111703306Y-101697558D01*
X111681449Y-101699500D01*
X111094747Y-101699500D01*
X111027708Y-101679815D01*
X110981953Y-101627011D01*
X110971389Y-101562897D01*
X110977986Y-101498322D01*
X110977987Y-101498309D01*
X110977987Y-101475000D01*
X107327988Y-101475000D01*
X107327988Y-101498322D01*
X107338131Y-101597607D01*
X107391439Y-101758481D01*
X107391444Y-101758492D01*
X107480411Y-101902728D01*
X107480414Y-101902732D01*
X107489647Y-101911965D01*
X107523132Y-101973288D01*
X107518148Y-102042980D01*
X107489650Y-102087324D01*
X107480020Y-102096953D01*
X107480016Y-102096959D01*
X107390988Y-102241294D01*
X107390983Y-102241305D01*
X107337638Y-102402290D01*
X107327487Y-102501647D01*
X107327487Y-103048337D01*
X107327488Y-103048355D01*
X107337637Y-103147707D01*
X107337638Y-103147710D01*
X107390983Y-103308694D01*
X107390988Y-103308704D01*
X107394408Y-103314249D01*
X107412846Y-103381642D01*
X107391921Y-103448305D01*
X107372278Y-103471095D01*
X106403027Y-104352233D01*
X106340181Y-104382763D01*
X106270805Y-104374469D01*
X106216927Y-104329985D01*
X106195651Y-104263433D01*
X106197739Y-104237633D01*
X106271431Y-103844606D01*
X106275375Y-103829144D01*
X106278283Y-103820194D01*
X106288661Y-103788256D01*
X106296876Y-103710080D01*
X106297402Y-103705802D01*
X106302524Y-103669334D01*
X106303675Y-103661143D01*
X106303677Y-103661116D01*
X106303680Y-103661097D01*
X106303874Y-103659034D01*
X106303874Y-103659026D01*
X106303875Y-103659016D01*
X106303831Y-103651097D01*
X106304508Y-103637468D01*
X106308447Y-103600000D01*
X106288661Y-103411744D01*
X106230166Y-103231716D01*
X106135520Y-103067784D01*
X106008858Y-102927112D01*
X105972230Y-102900500D01*
X105855721Y-102815851D01*
X105855716Y-102815848D01*
X105682794Y-102738857D01*
X105682789Y-102738855D01*
X105536988Y-102707865D01*
X105497633Y-102699500D01*
X105308341Y-102699500D01*
X105275884Y-102706398D01*
X105123184Y-102738855D01*
X105123179Y-102738857D01*
X104950257Y-102815848D01*
X104950252Y-102815851D01*
X104797116Y-102927111D01*
X104670453Y-103067785D01*
X104575808Y-103231715D01*
X104575805Y-103231722D01*
X104517314Y-103411740D01*
X104517313Y-103411744D01*
X104504651Y-103532216D01*
X104497527Y-103600000D01*
X104508315Y-103702650D01*
X104508450Y-103704477D01*
X104509095Y-103710125D01*
X104509214Y-103711217D01*
X104517312Y-103788249D01*
X104517314Y-103788260D01*
X104530595Y-103829134D01*
X104534540Y-103844600D01*
X104601674Y-104202648D01*
X104594681Y-104272167D01*
X104551214Y-104326869D01*
X104485072Y-104349388D01*
X104479798Y-104349500D01*
X104398402Y-104349500D01*
X104357800Y-104342664D01*
X104054711Y-104237628D01*
X103918253Y-104190338D01*
X103916022Y-104189434D01*
X103908185Y-104186836D01*
X103906608Y-104186302D01*
X103874638Y-104175223D01*
X103870953Y-104174197D01*
X103870983Y-104174089D01*
X103863949Y-104172178D01*
X103750698Y-104134651D01*
X103651333Y-104124500D01*
X103104649Y-104124500D01*
X103104631Y-104124501D01*
X103005279Y-104134650D01*
X103005276Y-104134651D01*
X102844292Y-104187996D01*
X102844281Y-104188001D01*
X102699946Y-104277029D01*
X102699942Y-104277032D01*
X102690668Y-104286307D01*
X102629345Y-104319792D01*
X102559653Y-104314808D01*
X102515306Y-104286307D01*
X102506031Y-104277032D01*
X102506027Y-104277029D01*
X102361692Y-104188001D01*
X102361686Y-104187998D01*
X102361684Y-104187997D01*
X102356569Y-104186302D01*
X102200696Y-104134651D01*
X102101333Y-104124500D01*
X101554649Y-104124500D01*
X101554631Y-104124501D01*
X101455279Y-104134650D01*
X101455276Y-104134651D01*
X101294292Y-104187996D01*
X101294281Y-104188001D01*
X101149946Y-104277029D01*
X101149942Y-104277032D01*
X101030018Y-104396956D01*
X100940986Y-104541297D01*
X100940980Y-104541311D01*
X100936134Y-104555935D01*
X100908689Y-104601953D01*
X100522843Y-105011544D01*
X100522827Y-105011561D01*
X100488666Y-105051352D01*
X100488623Y-105051315D01*
X100479637Y-105061980D01*
X100420034Y-105121584D01*
X100381170Y-105179751D01*
X100381169Y-105179753D01*
X100337906Y-105244499D01*
X100337899Y-105244511D01*
X100281330Y-105381082D01*
X100281327Y-105381092D01*
X100252487Y-105526079D01*
X100252487Y-105614823D01*
X100250363Y-105637675D01*
X100134539Y-106255400D01*
X100130595Y-106270863D01*
X100117312Y-106311745D01*
X100109093Y-106389935D01*
X100108568Y-106394218D01*
X100102297Y-106438862D01*
X100102296Y-106438868D01*
X100102098Y-106440977D01*
X100102097Y-106441001D01*
X100102140Y-106448915D01*
X100101463Y-106462538D01*
X100097527Y-106499997D01*
X100097527Y-106500000D01*
X100117313Y-106688256D01*
X100117314Y-106688259D01*
X100175805Y-106868277D01*
X100175808Y-106868284D01*
X100270454Y-107032216D01*
X100348268Y-107118637D01*
X100397116Y-107172888D01*
X100550252Y-107284148D01*
X100550257Y-107284151D01*
X100723179Y-107361142D01*
X100723184Y-107361144D01*
X100908341Y-107400500D01*
X100908342Y-107400500D01*
X101097631Y-107400500D01*
X101097633Y-107400500D01*
X101282790Y-107361144D01*
X101455717Y-107284151D01*
X101608858Y-107172888D01*
X101735520Y-107032216D01*
X101830166Y-106868284D01*
X101888661Y-106688256D01*
X101908447Y-106500000D01*
X101897672Y-106397487D01*
X101897538Y-106395655D01*
X101896877Y-106389875D01*
X101896768Y-106388892D01*
X101888661Y-106311744D01*
X101875375Y-106270855D01*
X101871432Y-106255400D01*
X101865554Y-106224049D01*
X101872549Y-106154533D01*
X101916017Y-106099832D01*
X101961142Y-106080022D01*
X101969013Y-106078315D01*
X101995288Y-106075499D01*
X102101325Y-106075499D01*
X102101331Y-106075499D01*
X102101339Y-106075498D01*
X102101342Y-106075498D01*
X102155747Y-106069940D01*
X102200695Y-106065349D01*
X102361684Y-106012003D01*
X102506031Y-105922968D01*
X102515306Y-105913693D01*
X102576629Y-105880208D01*
X102646321Y-105885192D01*
X102690668Y-105913693D01*
X102699942Y-105922967D01*
X102699946Y-105922970D01*
X102844281Y-106011998D01*
X102844284Y-106011999D01*
X102844290Y-106012003D01*
X103005279Y-106065349D01*
X103104642Y-106075500D01*
X103651331Y-106075499D01*
X103651339Y-106075498D01*
X103651342Y-106075498D01*
X103674421Y-106073140D01*
X103750695Y-106065349D01*
X103863420Y-106027994D01*
X103870426Y-106026229D01*
X103870345Y-106025927D01*
X103874627Y-106024777D01*
X103874633Y-106024777D01*
X103906557Y-106013713D01*
X103908099Y-106013191D01*
X103916035Y-106010561D01*
X103918283Y-106009649D01*
X104286003Y-105882215D01*
X104355790Y-105878864D01*
X104416313Y-105913774D01*
X104418216Y-105915815D01*
X104454583Y-105955684D01*
X104485219Y-106018479D01*
X104477042Y-106087868D01*
X104446382Y-106131002D01*
X104138457Y-106410934D01*
X104094051Y-106436886D01*
X104008657Y-106465183D01*
X104008656Y-106465184D01*
X103859329Y-106557289D01*
X103735276Y-106681342D01*
X103643171Y-106830668D01*
X103638925Y-106843484D01*
X103604631Y-106896231D01*
X100834190Y-109414813D01*
X100792919Y-109439680D01*
X100371047Y-109592120D01*
X100328907Y-109599500D01*
X98456270Y-109599500D01*
X98389231Y-109579815D01*
X98368589Y-109563181D01*
X90555408Y-101750000D01*
X94095488Y-101750000D01*
X94095488Y-101999986D01*
X94105981Y-102102697D01*
X94161128Y-102269119D01*
X94161130Y-102269124D01*
X94253171Y-102418345D01*
X94377141Y-102542315D01*
X94526362Y-102634356D01*
X94526367Y-102634358D01*
X94692789Y-102689505D01*
X94692796Y-102689506D01*
X94795506Y-102699999D01*
X94857986Y-102699998D01*
X94857987Y-102699998D01*
X94857987Y-101750000D01*
X94095488Y-101750000D01*
X90555408Y-101750000D01*
X90527306Y-101721898D01*
X90493821Y-101660575D01*
X90490987Y-101634217D01*
X90490987Y-101027649D01*
X90492871Y-101008758D01*
X90492629Y-101008727D01*
X90493191Y-101004338D01*
X90493193Y-101004333D01*
X90709982Y-99313129D01*
X90712769Y-99298465D01*
X90725595Y-99247821D01*
X90738602Y-99090834D01*
X90739181Y-99085352D01*
X90740195Y-99077447D01*
X90743254Y-99045642D01*
X90743349Y-99044166D01*
X90743306Y-99042136D01*
X90743701Y-99029301D01*
X90746130Y-99000000D01*
X90746129Y-98999993D01*
X90725596Y-98752187D01*
X90725594Y-98752175D01*
X90664550Y-98511118D01*
X90564660Y-98283393D01*
X90428653Y-98075217D01*
X90367737Y-98009045D01*
X90260231Y-97892262D01*
X90063996Y-97739526D01*
X90063994Y-97739525D01*
X90063993Y-97739524D01*
X89845298Y-97621172D01*
X89845289Y-97621169D01*
X89610103Y-97540429D01*
X89364822Y-97499500D01*
X89116152Y-97499500D01*
X88870870Y-97540429D01*
X88635684Y-97621169D01*
X88635675Y-97621172D01*
X88416980Y-97739524D01*
X88220744Y-97892261D01*
X88052320Y-98075217D01*
X87916313Y-98283393D01*
X87816423Y-98511118D01*
X87755379Y-98752175D01*
X87755377Y-98752187D01*
X87734844Y-98999994D01*
X87734844Y-99000005D01*
X87755377Y-99247812D01*
X87755379Y-99247824D01*
X87800782Y-99427112D01*
X87816424Y-99488881D01*
X87827334Y-99513753D01*
X87844679Y-99553298D01*
X87850850Y-99570840D01*
X87856876Y-99593204D01*
X88279948Y-100577357D01*
X88466920Y-101012294D01*
X88479907Y-101042503D01*
X88489987Y-101091475D01*
X88489987Y-102198544D01*
X88528434Y-102391828D01*
X88528436Y-102391836D01*
X88539798Y-102419266D01*
X88539798Y-102419267D01*
X88603851Y-102573907D01*
X88603858Y-102573920D01*
X88713346Y-102737780D01*
X88713347Y-102737781D01*
X88713348Y-102737782D01*
X88852705Y-102877139D01*
X88852706Y-102877139D01*
X88859773Y-102884206D01*
X88859772Y-102884206D01*
X88859775Y-102884208D01*
X97213347Y-111237781D01*
X97213348Y-111237782D01*
X97291805Y-111316239D01*
X97352706Y-111377140D01*
X97421293Y-111422968D01*
X97516573Y-111486632D01*
X97604297Y-111522968D01*
X97698651Y-111562051D01*
X97766259Y-111575499D01*
X97797680Y-111581749D01*
X97891943Y-111600500D01*
X97891946Y-111600500D01*
X97891947Y-111600500D01*
X98089027Y-111600500D01*
X98109198Y-111600500D01*
X98176237Y-111620185D01*
X98221992Y-111672989D01*
X98231936Y-111742147D01*
X98202911Y-111805703D01*
X98192611Y-111816250D01*
X98042808Y-111952435D01*
X97992875Y-111997829D01*
X97987985Y-112002047D01*
X95634743Y-113927427D01*
X90401013Y-118209570D01*
X88246967Y-119971971D01*
X88182617Y-119999188D01*
X88168446Y-120000000D01*
X55124000Y-120000000D01*
X55056961Y-119980315D01*
X55011206Y-119927511D01*
X55000000Y-119876000D01*
X55000000Y-116750005D01*
X55864844Y-116750005D01*
X55885377Y-116997812D01*
X55885379Y-116997824D01*
X55946423Y-117238881D01*
X56046313Y-117466606D01*
X56182320Y-117674782D01*
X56182323Y-117674785D01*
X56350743Y-117857738D01*
X56546978Y-118010474D01*
X56546980Y-118010475D01*
X56764819Y-118128364D01*
X56765677Y-118128828D01*
X56984628Y-118203994D01*
X56999451Y-118209083D01*
X57000873Y-118209571D01*
X57246152Y-118250500D01*
X57494822Y-118250500D01*
X57740101Y-118209571D01*
X57975297Y-118128828D01*
X58193996Y-118010474D01*
X58390231Y-117857738D01*
X58558651Y-117674785D01*
X58559020Y-117674219D01*
X58559232Y-117674038D01*
X58561809Y-117670729D01*
X58562489Y-117671258D01*
X58612163Y-117628860D01*
X58675625Y-117618697D01*
X58687051Y-117619882D01*
X59427524Y-116879409D01*
X59444562Y-116942993D01*
X59510388Y-117057007D01*
X59603480Y-117150099D01*
X59717494Y-117215925D01*
X59781077Y-117232962D01*
X59040429Y-117973609D01*
X59087255Y-118010055D01*
X59087257Y-118010056D01*
X59305872Y-118128364D01*
X59305883Y-118128369D01*
X59540993Y-118209083D01*
X59786194Y-118250000D01*
X60034780Y-118250000D01*
X60279980Y-118209083D01*
X60515090Y-118128369D01*
X60515101Y-118128364D01*
X60733715Y-118010057D01*
X60733718Y-118010055D01*
X60780543Y-117973609D01*
X60039896Y-117232962D01*
X60103480Y-117215925D01*
X60217494Y-117150099D01*
X60310586Y-117057007D01*
X60376412Y-116942993D01*
X60393449Y-116879410D01*
X61133921Y-117619882D01*
X61234218Y-117466369D01*
X61334074Y-117238717D01*
X61395099Y-116997738D01*
X61395101Y-116997729D01*
X61415628Y-116750005D01*
X77364844Y-116750005D01*
X77385377Y-116997812D01*
X77385379Y-116997824D01*
X77446423Y-117238881D01*
X77546313Y-117466606D01*
X77682320Y-117674782D01*
X77682323Y-117674785D01*
X77850743Y-117857738D01*
X78046978Y-118010474D01*
X78046980Y-118010475D01*
X78264819Y-118128364D01*
X78265677Y-118128828D01*
X78484628Y-118203994D01*
X78499451Y-118209083D01*
X78500873Y-118209571D01*
X78746152Y-118250500D01*
X78994822Y-118250500D01*
X79240101Y-118209571D01*
X79475297Y-118128828D01*
X79693996Y-118010474D01*
X79890231Y-117857738D01*
X80049258Y-117684988D01*
X80109144Y-117648999D01*
X80178982Y-117651099D01*
X80231715Y-117684988D01*
X80390743Y-117857738D01*
X80586978Y-118010474D01*
X80586980Y-118010475D01*
X80804819Y-118128364D01*
X80805677Y-118128828D01*
X81024628Y-118203994D01*
X81039451Y-118209083D01*
X81040873Y-118209571D01*
X81286152Y-118250500D01*
X81534822Y-118250500D01*
X81780101Y-118209571D01*
X82015297Y-118128828D01*
X82233996Y-118010474D01*
X82430231Y-117857738D01*
X82589258Y-117684988D01*
X82649144Y-117648999D01*
X82718982Y-117651099D01*
X82771715Y-117684988D01*
X82930743Y-117857738D01*
X83126978Y-118010474D01*
X83126980Y-118010475D01*
X83344819Y-118128364D01*
X83345677Y-118128828D01*
X83564628Y-118203994D01*
X83579451Y-118209083D01*
X83580873Y-118209571D01*
X83826152Y-118250500D01*
X84074822Y-118250500D01*
X84320101Y-118209571D01*
X84555297Y-118128828D01*
X84773996Y-118010474D01*
X84970231Y-117857738D01*
X85138651Y-117674785D01*
X85139020Y-117674219D01*
X85139232Y-117674038D01*
X85141809Y-117670729D01*
X85142489Y-117671258D01*
X85192163Y-117628860D01*
X85255625Y-117618697D01*
X85267051Y-117619882D01*
X86007524Y-116879409D01*
X86024562Y-116942993D01*
X86090388Y-117057007D01*
X86183480Y-117150099D01*
X86297494Y-117215925D01*
X86361077Y-117232962D01*
X85620429Y-117973609D01*
X85667255Y-118010055D01*
X85667257Y-118010056D01*
X85885872Y-118128364D01*
X85885883Y-118128369D01*
X86120993Y-118209083D01*
X86366194Y-118250000D01*
X86614780Y-118250000D01*
X86859980Y-118209083D01*
X87095090Y-118128369D01*
X87095101Y-118128364D01*
X87313715Y-118010057D01*
X87313718Y-118010055D01*
X87360543Y-117973609D01*
X86619896Y-117232962D01*
X86683480Y-117215925D01*
X86797494Y-117150099D01*
X86890586Y-117057007D01*
X86956412Y-116942993D01*
X86973449Y-116879410D01*
X87713921Y-117619882D01*
X87814218Y-117466369D01*
X87914074Y-117238717D01*
X87975099Y-116997738D01*
X87975101Y-116997729D01*
X87995628Y-116750005D01*
X87995628Y-116749994D01*
X87975101Y-116502270D01*
X87975099Y-116502261D01*
X87914074Y-116261282D01*
X87814218Y-116033630D01*
X87713921Y-115880116D01*
X86973449Y-116620589D01*
X86956412Y-116557007D01*
X86890586Y-116442993D01*
X86797494Y-116349901D01*
X86683480Y-116284075D01*
X86619897Y-116267037D01*
X87360544Y-115526390D01*
X87360543Y-115526389D01*
X87313716Y-115489943D01*
X87095101Y-115371635D01*
X87095090Y-115371630D01*
X86859980Y-115290916D01*
X86614780Y-115250000D01*
X86366194Y-115250000D01*
X86120993Y-115290916D01*
X85885883Y-115371630D01*
X85885877Y-115371632D01*
X85667248Y-115489949D01*
X85620429Y-115526388D01*
X85620429Y-115526390D01*
X86361077Y-116267037D01*
X86297494Y-116284075D01*
X86183480Y-116349901D01*
X86090388Y-116442993D01*
X86024562Y-116557007D01*
X86007524Y-116620589D01*
X85267051Y-115880116D01*
X85255622Y-115881302D01*
X85186910Y-115868637D01*
X85142397Y-115828802D01*
X85141804Y-115829265D01*
X85139255Y-115825991D01*
X85139022Y-115825782D01*
X85138653Y-115825218D01*
X85138652Y-115825217D01*
X85138651Y-115825215D01*
X84970231Y-115642262D01*
X84773996Y-115489526D01*
X84773994Y-115489525D01*
X84773993Y-115489524D01*
X84555298Y-115371172D01*
X84555289Y-115371169D01*
X84320103Y-115290429D01*
X84074820Y-115249499D01*
X84071978Y-115249264D01*
X84070889Y-115248843D01*
X84069764Y-115248656D01*
X84069802Y-115248424D01*
X84006795Y-115224106D01*
X83965561Y-115167701D01*
X83958869Y-115113084D01*
X83965486Y-115048319D01*
X83965487Y-115048309D01*
X83965487Y-115000000D01*
X82889487Y-115000000D01*
X82822448Y-114980315D01*
X82776693Y-114927511D01*
X82765487Y-114876000D01*
X82765487Y-113775000D01*
X83265487Y-113775000D01*
X83265487Y-114500000D01*
X83965486Y-114500000D01*
X83965486Y-114451692D01*
X83965485Y-114451677D01*
X83955342Y-114352392D01*
X83902034Y-114191518D01*
X83902029Y-114191507D01*
X83813062Y-114047271D01*
X83813059Y-114047267D01*
X83693219Y-113927427D01*
X83693215Y-113927424D01*
X83548979Y-113838457D01*
X83548968Y-113838452D01*
X83388093Y-113785144D01*
X83288809Y-113775000D01*
X83265487Y-113775000D01*
X82765487Y-113775000D01*
X82765487Y-113774999D01*
X82742180Y-113775000D01*
X82742161Y-113775001D01*
X82642879Y-113785144D01*
X82482005Y-113838452D01*
X82481994Y-113838457D01*
X82337758Y-113927424D01*
X82337752Y-113927428D01*
X82328518Y-113936663D01*
X82267194Y-113970146D01*
X82197502Y-113965159D01*
X82153159Y-113936660D01*
X82143531Y-113927032D01*
X82143527Y-113927029D01*
X81999192Y-113838001D01*
X81999186Y-113837998D01*
X81999184Y-113837997D01*
X81999181Y-113837996D01*
X81838196Y-113784651D01*
X81738833Y-113774500D01*
X81192149Y-113774500D01*
X81192131Y-113774501D01*
X81092779Y-113784650D01*
X81092776Y-113784651D01*
X80931792Y-113837996D01*
X80931781Y-113838001D01*
X80787446Y-113927029D01*
X80787442Y-113927032D01*
X80667519Y-114046955D01*
X80667516Y-114046959D01*
X80578488Y-114191294D01*
X80578483Y-114191305D01*
X80525138Y-114352290D01*
X80514987Y-114451647D01*
X80514987Y-114451660D01*
X80514988Y-115051500D01*
X80514294Y-115051500D01*
X80504048Y-115105487D01*
X80215601Y-115741195D01*
X80169975Y-115794111D01*
X80102983Y-115813959D01*
X80035896Y-115794438D01*
X80011451Y-115773942D01*
X79974725Y-115734047D01*
X79890231Y-115642262D01*
X79693996Y-115489526D01*
X79693994Y-115489525D01*
X79693993Y-115489524D01*
X79475298Y-115371172D01*
X79475289Y-115371169D01*
X79240103Y-115290429D01*
X78994822Y-115249500D01*
X78746152Y-115249500D01*
X78500870Y-115290429D01*
X78265684Y-115371169D01*
X78265675Y-115371172D01*
X78046980Y-115489524D01*
X77850744Y-115642261D01*
X77682320Y-115825217D01*
X77546313Y-116033393D01*
X77446423Y-116261118D01*
X77385379Y-116502175D01*
X77385377Y-116502187D01*
X77364844Y-116749994D01*
X77364844Y-116750005D01*
X61415628Y-116750005D01*
X61415628Y-116749994D01*
X61395101Y-116502270D01*
X61395099Y-116502261D01*
X61334074Y-116261282D01*
X61234218Y-116033630D01*
X61133921Y-115880116D01*
X60393449Y-116620589D01*
X60376412Y-116557007D01*
X60310586Y-116442993D01*
X60217494Y-116349901D01*
X60103480Y-116284075D01*
X60039897Y-116267037D01*
X60780544Y-115526390D01*
X60780543Y-115526389D01*
X60733716Y-115489943D01*
X60515101Y-115371635D01*
X60515090Y-115371630D01*
X60279980Y-115290916D01*
X60034780Y-115250000D01*
X59786194Y-115250000D01*
X59540993Y-115290916D01*
X59305883Y-115371630D01*
X59305877Y-115371632D01*
X59087248Y-115489949D01*
X59040429Y-115526388D01*
X59040429Y-115526390D01*
X59781077Y-116267037D01*
X59717494Y-116284075D01*
X59603480Y-116349901D01*
X59510388Y-116442993D01*
X59444562Y-116557007D01*
X59427524Y-116620589D01*
X58687051Y-115880116D01*
X58675622Y-115881302D01*
X58606910Y-115868637D01*
X58562397Y-115828802D01*
X58561804Y-115829265D01*
X58559255Y-115825991D01*
X58559022Y-115825782D01*
X58558653Y-115825218D01*
X58558652Y-115825217D01*
X58558651Y-115825215D01*
X58390231Y-115642262D01*
X58193996Y-115489526D01*
X58193994Y-115489525D01*
X58193993Y-115489524D01*
X57975298Y-115371172D01*
X57975289Y-115371169D01*
X57740103Y-115290429D01*
X57494822Y-115249500D01*
X57246152Y-115249500D01*
X57000870Y-115290429D01*
X56765684Y-115371169D01*
X56765675Y-115371172D01*
X56546980Y-115489524D01*
X56350744Y-115642261D01*
X56182320Y-115825217D01*
X56046313Y-116033393D01*
X55946423Y-116261118D01*
X55885379Y-116502175D01*
X55885377Y-116502187D01*
X55864844Y-116749994D01*
X55864844Y-116750005D01*
X55000000Y-116750005D01*
X55000000Y-108000005D01*
X58404844Y-108000005D01*
X58425377Y-108247812D01*
X58425379Y-108247824D01*
X58486423Y-108488881D01*
X58586313Y-108716606D01*
X58722320Y-108924782D01*
X58722322Y-108924784D01*
X58722323Y-108924785D01*
X58890743Y-109107738D01*
X59086978Y-109260474D01*
X59086980Y-109260475D01*
X59304819Y-109378364D01*
X59305677Y-109378828D01*
X59392840Y-109408751D01*
X59539451Y-109459083D01*
X59540873Y-109459571D01*
X59786152Y-109500500D01*
X60034822Y-109500500D01*
X60280101Y-109459571D01*
X60515297Y-109378828D01*
X60733996Y-109260474D01*
X60752748Y-109245878D01*
X60817735Y-109220235D01*
X60886276Y-109233799D01*
X60936603Y-109282265D01*
X60952907Y-109342999D01*
X60954327Y-109583447D01*
X60949033Y-109620032D01*
X60803312Y-110102483D01*
X60801021Y-110110067D01*
X60796159Y-110135479D01*
X60792075Y-110151178D01*
X60775138Y-110202290D01*
X60764987Y-110301647D01*
X60764987Y-110898337D01*
X60764988Y-110898355D01*
X60775137Y-110997707D01*
X60775138Y-110997710D01*
X60828483Y-111158694D01*
X60828488Y-111158705D01*
X60917516Y-111303040D01*
X60917519Y-111303044D01*
X61037442Y-111422967D01*
X61037446Y-111422970D01*
X61181781Y-111511998D01*
X61181784Y-111511999D01*
X61181790Y-111512003D01*
X61342779Y-111565349D01*
X61442142Y-111575500D01*
X61988831Y-111575499D01*
X61988839Y-111575498D01*
X61988842Y-111575498D01*
X62043247Y-111569940D01*
X62088195Y-111565349D01*
X62249184Y-111512003D01*
X62393531Y-111422968D01*
X62403155Y-111413343D01*
X62464474Y-111379856D01*
X62534166Y-111384835D01*
X62578521Y-111413339D01*
X62587754Y-111422572D01*
X62587758Y-111422575D01*
X62731994Y-111511542D01*
X62732005Y-111511547D01*
X62892880Y-111564855D01*
X62992170Y-111574999D01*
X63015487Y-111574998D01*
X63015487Y-110850000D01*
X63515487Y-110850000D01*
X63515487Y-111574999D01*
X63538795Y-111574999D01*
X63538809Y-111574998D01*
X63638094Y-111564855D01*
X63798968Y-111511547D01*
X63798979Y-111511542D01*
X63943215Y-111422575D01*
X63943219Y-111422572D01*
X64063059Y-111302732D01*
X64063062Y-111302728D01*
X64152029Y-111158492D01*
X64152034Y-111158481D01*
X64169329Y-111106286D01*
X73149500Y-111106286D01*
X73180182Y-111300009D01*
X73182754Y-111316243D01*
X73246276Y-111511744D01*
X73248444Y-111518414D01*
X73344951Y-111707820D01*
X73469890Y-111879786D01*
X73620213Y-112030109D01*
X73792179Y-112155048D01*
X73792181Y-112155049D01*
X73792184Y-112155051D01*
X73981588Y-112251557D01*
X74183757Y-112317246D01*
X74393713Y-112350500D01*
X74393714Y-112350500D01*
X74606286Y-112350500D01*
X74606287Y-112350500D01*
X74816243Y-112317246D01*
X75018412Y-112251557D01*
X75207816Y-112155051D01*
X75229789Y-112139086D01*
X75379786Y-112030109D01*
X75379788Y-112030106D01*
X75379792Y-112030104D01*
X75530104Y-111879792D01*
X75530106Y-111879788D01*
X75530109Y-111879786D01*
X75655048Y-111707820D01*
X75655047Y-111707820D01*
X75655051Y-111707816D01*
X75751557Y-111518412D01*
X75817246Y-111316243D01*
X75850500Y-111106287D01*
X75850500Y-110893713D01*
X75817246Y-110683757D01*
X75751557Y-110481588D01*
X75655051Y-110292184D01*
X75655049Y-110292181D01*
X75655048Y-110292179D01*
X75530109Y-110120213D01*
X75516183Y-110106287D01*
X91649500Y-110106287D01*
X91650099Y-110110067D01*
X91680443Y-110301656D01*
X91682754Y-110316243D01*
X91746276Y-110511744D01*
X91748444Y-110518414D01*
X91844951Y-110707820D01*
X91969890Y-110879786D01*
X92120213Y-111030109D01*
X92292179Y-111155048D01*
X92292181Y-111155049D01*
X92292184Y-111155051D01*
X92481588Y-111251557D01*
X92683757Y-111317246D01*
X92893713Y-111350500D01*
X92893714Y-111350500D01*
X93106286Y-111350500D01*
X93106287Y-111350500D01*
X93316243Y-111317246D01*
X93518412Y-111251557D01*
X93707816Y-111155051D01*
X93729789Y-111139086D01*
X93879786Y-111030109D01*
X93879788Y-111030106D01*
X93879792Y-111030104D01*
X94030104Y-110879792D01*
X94030106Y-110879788D01*
X94030109Y-110879786D01*
X94155048Y-110707820D01*
X94155047Y-110707820D01*
X94155051Y-110707816D01*
X94251557Y-110518412D01*
X94317246Y-110316243D01*
X94350500Y-110106287D01*
X94350500Y-109893713D01*
X94317246Y-109683757D01*
X94251557Y-109481588D01*
X94155051Y-109292184D01*
X94155049Y-109292181D01*
X94155048Y-109292179D01*
X94030109Y-109120213D01*
X93879786Y-108969890D01*
X93707820Y-108844951D01*
X93518414Y-108748444D01*
X93518413Y-108748443D01*
X93518412Y-108748443D01*
X93316243Y-108682754D01*
X93316241Y-108682753D01*
X93316240Y-108682753D01*
X93152510Y-108656821D01*
X93106287Y-108649500D01*
X92893713Y-108649500D01*
X92847490Y-108656821D01*
X92683760Y-108682753D01*
X92481585Y-108748444D01*
X92292179Y-108844951D01*
X92120213Y-108969890D01*
X91969890Y-109120213D01*
X91844951Y-109292179D01*
X91748444Y-109481585D01*
X91682753Y-109683760D01*
X91657223Y-109844951D01*
X91649500Y-109893713D01*
X91649500Y-110106287D01*
X75516183Y-110106287D01*
X75379786Y-109969890D01*
X75207820Y-109844951D01*
X75018414Y-109748444D01*
X75018413Y-109748443D01*
X75018412Y-109748443D01*
X74816243Y-109682754D01*
X74816241Y-109682753D01*
X74816240Y-109682753D01*
X74654957Y-109657208D01*
X74606287Y-109649500D01*
X74393713Y-109649500D01*
X74345042Y-109657208D01*
X74183760Y-109682753D01*
X73981585Y-109748444D01*
X73792179Y-109844951D01*
X73620213Y-109969890D01*
X73469890Y-110120213D01*
X73344951Y-110292179D01*
X73248444Y-110481585D01*
X73182753Y-110683760D01*
X73149500Y-110893713D01*
X73149500Y-111106286D01*
X64169329Y-111106286D01*
X64205342Y-110997606D01*
X64215486Y-110898322D01*
X64215487Y-110898309D01*
X64215487Y-110850000D01*
X63515487Y-110850000D01*
X63015487Y-110850000D01*
X63015487Y-109625000D01*
X63515487Y-109625000D01*
X63515487Y-110350000D01*
X64215486Y-110350000D01*
X64215486Y-110301692D01*
X64215485Y-110301677D01*
X64205342Y-110202392D01*
X64152034Y-110041518D01*
X64152029Y-110041507D01*
X64063062Y-109897271D01*
X64063059Y-109897267D01*
X63943219Y-109777427D01*
X63943215Y-109777424D01*
X63798979Y-109688457D01*
X63798968Y-109688452D01*
X63638093Y-109635144D01*
X63538809Y-109625000D01*
X63515487Y-109625000D01*
X63015487Y-109625000D01*
X63015487Y-109611191D01*
X62998611Y-109580288D01*
X63003594Y-109510596D01*
X63040923Y-109458230D01*
X63313302Y-109233799D01*
X63397890Y-109164102D01*
X63400555Y-109161967D01*
X63470231Y-109107738D01*
X63480767Y-109096291D01*
X63486627Y-109090474D01*
X63486603Y-109090449D01*
X63488321Y-109088763D01*
X63500590Y-109075757D01*
X63541857Y-109032014D01*
X63541860Y-109032007D01*
X63545970Y-109026561D01*
X63546445Y-109026919D01*
X63554105Y-109016624D01*
X63638651Y-108924785D01*
X63639020Y-108924219D01*
X63639232Y-108924038D01*
X63641804Y-108920735D01*
X63642483Y-108921263D01*
X63692163Y-108878860D01*
X63755625Y-108868697D01*
X63767051Y-108869882D01*
X64507524Y-108129409D01*
X64524562Y-108192993D01*
X64590388Y-108307007D01*
X64683480Y-108400099D01*
X64797494Y-108465925D01*
X64861077Y-108482962D01*
X64120429Y-109223609D01*
X64167255Y-109260055D01*
X64167257Y-109260056D01*
X64385872Y-109378364D01*
X64385883Y-109378369D01*
X64620993Y-109459083D01*
X64866194Y-109500000D01*
X65114780Y-109500000D01*
X65359980Y-109459083D01*
X65595090Y-109378369D01*
X65595101Y-109378364D01*
X65813715Y-109260057D01*
X65813718Y-109260055D01*
X65860543Y-109223609D01*
X65119896Y-108482962D01*
X65183480Y-108465925D01*
X65297494Y-108400099D01*
X65390586Y-108307007D01*
X65456412Y-108192993D01*
X65473449Y-108129410D01*
X66213921Y-108869882D01*
X66314218Y-108716369D01*
X66414074Y-108488717D01*
X66475099Y-108247738D01*
X66475101Y-108247729D01*
X66495628Y-108000005D01*
X66495628Y-107999994D01*
X66475101Y-107752270D01*
X66475099Y-107752261D01*
X66414074Y-107511282D01*
X66314218Y-107283630D01*
X66213921Y-107130116D01*
X65473449Y-107870589D01*
X65456412Y-107807007D01*
X65390586Y-107692993D01*
X65297494Y-107599901D01*
X65183480Y-107534075D01*
X65119897Y-107517037D01*
X65860544Y-106776390D01*
X65860543Y-106776389D01*
X65813716Y-106739943D01*
X65595101Y-106621635D01*
X65595090Y-106621630D01*
X65359980Y-106540916D01*
X65114780Y-106500000D01*
X64866194Y-106500000D01*
X64620993Y-106540916D01*
X64385883Y-106621630D01*
X64385877Y-106621632D01*
X64167248Y-106739949D01*
X64120429Y-106776388D01*
X64120429Y-106776390D01*
X64861077Y-107517037D01*
X64797494Y-107534075D01*
X64683480Y-107599901D01*
X64590388Y-107692993D01*
X64524562Y-107807007D01*
X64507524Y-107870589D01*
X63767051Y-107130116D01*
X63755622Y-107131302D01*
X63686910Y-107118637D01*
X63642397Y-107078802D01*
X63641804Y-107079265D01*
X63639255Y-107075991D01*
X63639022Y-107075782D01*
X63638653Y-107075218D01*
X63638652Y-107075217D01*
X63638651Y-107075215D01*
X63470231Y-106892262D01*
X63273996Y-106739526D01*
X63273994Y-106739525D01*
X63273993Y-106739524D01*
X63055298Y-106621172D01*
X63055289Y-106621169D01*
X62820103Y-106540429D01*
X62574822Y-106499500D01*
X62326152Y-106499500D01*
X62080870Y-106540429D01*
X61845684Y-106621169D01*
X61845675Y-106621172D01*
X61626980Y-106739524D01*
X61430744Y-106892261D01*
X61271717Y-107065010D01*
X61211829Y-107101001D01*
X61141991Y-107098900D01*
X61089257Y-107065010D01*
X61014353Y-106983643D01*
X60930231Y-106892262D01*
X60733996Y-106739526D01*
X60733994Y-106739525D01*
X60733993Y-106739524D01*
X60515298Y-106621172D01*
X60515289Y-106621169D01*
X60280103Y-106540429D01*
X60034822Y-106499500D01*
X59786152Y-106499500D01*
X59540870Y-106540429D01*
X59305684Y-106621169D01*
X59305675Y-106621172D01*
X59086980Y-106739524D01*
X58890744Y-106892261D01*
X58722320Y-107075217D01*
X58586313Y-107283393D01*
X58486423Y-107511118D01*
X58425379Y-107752175D01*
X58425377Y-107752187D01*
X58404844Y-107999994D01*
X58404844Y-108000005D01*
X55000000Y-108000005D01*
X55000000Y-103000000D01*
X70385027Y-103000000D01*
X70404813Y-103188256D01*
X70404814Y-103188259D01*
X70463305Y-103368277D01*
X70463308Y-103368284D01*
X70557954Y-103532216D01*
X70672142Y-103659034D01*
X70684616Y-103672888D01*
X70837752Y-103784148D01*
X70837757Y-103784151D01*
X71010679Y-103861142D01*
X71010684Y-103861144D01*
X71195841Y-103900500D01*
X71195842Y-103900500D01*
X71385131Y-103900500D01*
X71385133Y-103900500D01*
X71570290Y-103861144D01*
X71743217Y-103784151D01*
X71896358Y-103672888D01*
X72023020Y-103532216D01*
X72117666Y-103368284D01*
X72176161Y-103188256D01*
X72180182Y-103150000D01*
X78765488Y-103150000D01*
X78765488Y-103399986D01*
X78775981Y-103502697D01*
X78831128Y-103669119D01*
X78831130Y-103669124D01*
X78923171Y-103818345D01*
X79047141Y-103942315D01*
X79196362Y-104034356D01*
X79196367Y-104034358D01*
X79362789Y-104089505D01*
X79362796Y-104089506D01*
X79465506Y-104099999D01*
X80027987Y-104099999D01*
X80090459Y-104099999D01*
X80090473Y-104099998D01*
X80193184Y-104089505D01*
X80359606Y-104034358D01*
X80359611Y-104034356D01*
X80508829Y-103942317D01*
X80602451Y-103848695D01*
X80663774Y-103815210D01*
X80733466Y-103820194D01*
X80777814Y-103848695D01*
X80871831Y-103942712D01*
X81021153Y-104034814D01*
X81187690Y-104089999D01*
X81290478Y-104100500D01*
X81915495Y-104100499D01*
X81915503Y-104100498D01*
X81915506Y-104100498D01*
X81971789Y-104094748D01*
X82018284Y-104089999D01*
X82184821Y-104034814D01*
X82334143Y-103942712D01*
X82458199Y-103818656D01*
X82550301Y-103669334D01*
X82605486Y-103502797D01*
X82615987Y-103400009D01*
X82615986Y-102399992D01*
X82605486Y-102297203D01*
X82550301Y-102130666D01*
X82550297Y-102130660D01*
X82550296Y-102130657D01*
X82501435Y-102051442D01*
X82497078Y-102043782D01*
X82456084Y-101965348D01*
X82308818Y-101683582D01*
X82295211Y-101615052D01*
X82298941Y-101594048D01*
X82384609Y-101274491D01*
X82387316Y-101258286D01*
X82391912Y-101239725D01*
X82405836Y-101197708D01*
X82415987Y-101098345D01*
X82415986Y-101049148D01*
X82422114Y-101010650D01*
X82465768Y-100876990D01*
X82505293Y-100819375D01*
X82526268Y-100805558D01*
X83333506Y-100384305D01*
X83341063Y-100380683D01*
X83345280Y-100378833D01*
X83345297Y-100378828D01*
X83563996Y-100260474D01*
X83760231Y-100107738D01*
X83928651Y-99924785D01*
X84064660Y-99716607D01*
X84164550Y-99488881D01*
X84225595Y-99247821D01*
X84226338Y-99238855D01*
X84246130Y-99000005D01*
X84246130Y-98999994D01*
X84225596Y-98752187D01*
X84225594Y-98752175D01*
X84164550Y-98511118D01*
X84064660Y-98283393D01*
X83928653Y-98075217D01*
X83867737Y-98009045D01*
X83760231Y-97892262D01*
X83563996Y-97739526D01*
X83563994Y-97739525D01*
X83563993Y-97739524D01*
X83345298Y-97621172D01*
X83345289Y-97621169D01*
X83110103Y-97540429D01*
X82864822Y-97499500D01*
X82616152Y-97499500D01*
X82370870Y-97540429D01*
X82135684Y-97621169D01*
X82135675Y-97621172D01*
X81916980Y-97739524D01*
X81720744Y-97892261D01*
X81552320Y-98075217D01*
X81416313Y-98283393D01*
X81316425Y-98511114D01*
X81316424Y-98511117D01*
X81294371Y-98598201D01*
X81292914Y-98603464D01*
X80914527Y-99861902D01*
X80876373Y-99920434D01*
X80860878Y-99931734D01*
X80787448Y-99977027D01*
X80787442Y-99977032D01*
X80777811Y-99986663D01*
X80716487Y-100020146D01*
X80646795Y-100015159D01*
X80602452Y-99986660D01*
X80593219Y-99977427D01*
X80593215Y-99977424D01*
X80448979Y-99888457D01*
X80448968Y-99888452D01*
X80288093Y-99835144D01*
X80188809Y-99825000D01*
X80165487Y-99825000D01*
X80165487Y-101694000D01*
X80145802Y-101761039D01*
X80092998Y-101806794D01*
X80041487Y-101818000D01*
X80027987Y-101818000D01*
X80027987Y-104099999D01*
X79465506Y-104099999D01*
X79527986Y-104099998D01*
X79527987Y-104099998D01*
X79527987Y-103150000D01*
X78765488Y-103150000D01*
X72180182Y-103150000D01*
X72195947Y-103000000D01*
X72176161Y-102811744D01*
X72123607Y-102650000D01*
X78765487Y-102650000D01*
X79527987Y-102650000D01*
X79527987Y-101781000D01*
X79547672Y-101713961D01*
X79600476Y-101668206D01*
X79651987Y-101657000D01*
X79665487Y-101657000D01*
X79665487Y-101050000D01*
X78965488Y-101050000D01*
X78965488Y-101098322D01*
X78975631Y-101197607D01*
X79028939Y-101358481D01*
X79028944Y-101358492D01*
X79117911Y-101502728D01*
X79117914Y-101502732D01*
X79199562Y-101584380D01*
X79233047Y-101645703D01*
X79228063Y-101715395D01*
X79186191Y-101771328D01*
X79176978Y-101777599D01*
X79047146Y-101857680D01*
X79047142Y-101857683D01*
X78923171Y-101981654D01*
X78831130Y-102130875D01*
X78831128Y-102130880D01*
X78775981Y-102297302D01*
X78775980Y-102297309D01*
X78765487Y-102400013D01*
X78765487Y-102650000D01*
X72123607Y-102650000D01*
X72117666Y-102631716D01*
X72023020Y-102467784D01*
X71896358Y-102327112D01*
X71882779Y-102317246D01*
X71743221Y-102215851D01*
X71743216Y-102215848D01*
X71570294Y-102138857D01*
X71570289Y-102138855D01*
X71400644Y-102102797D01*
X71385133Y-102099500D01*
X71206488Y-102099500D01*
X71139449Y-102079815D01*
X71093694Y-102027011D01*
X71083750Y-101957853D01*
X71112775Y-101894297D01*
X71141391Y-101869962D01*
X71218215Y-101822575D01*
X71218219Y-101822572D01*
X71338059Y-101702732D01*
X71338062Y-101702728D01*
X71427029Y-101558492D01*
X71427034Y-101558481D01*
X71480342Y-101397606D01*
X71490486Y-101298322D01*
X71490487Y-101298309D01*
X71490487Y-101250000D01*
X70790487Y-101250000D01*
X70790487Y-101974999D01*
X70795342Y-101974999D01*
X70862381Y-101994684D01*
X70908136Y-102047488D01*
X70918080Y-102116646D01*
X70889055Y-102180202D01*
X70845779Y-102212277D01*
X70839560Y-102215046D01*
X70837752Y-102215851D01*
X70684616Y-102327111D01*
X70557953Y-102467785D01*
X70463308Y-102631715D01*
X70463305Y-102631722D01*
X70404814Y-102811740D01*
X70404813Y-102811744D01*
X70385027Y-103000000D01*
X55000000Y-103000000D01*
X55000000Y-101106286D01*
X56149500Y-101106286D01*
X56179920Y-101298355D01*
X56182754Y-101316243D01*
X56243369Y-101502797D01*
X56248444Y-101518414D01*
X56344951Y-101707820D01*
X56469890Y-101879786D01*
X56620213Y-102030109D01*
X56792179Y-102155048D01*
X56792181Y-102155049D01*
X56792184Y-102155051D01*
X56981588Y-102251557D01*
X57183757Y-102317246D01*
X57393713Y-102350500D01*
X57393714Y-102350500D01*
X57606286Y-102350500D01*
X57606287Y-102350500D01*
X57816243Y-102317246D01*
X58018412Y-102251557D01*
X58207816Y-102155051D01*
X58241392Y-102130657D01*
X58379786Y-102030109D01*
X58379788Y-102030106D01*
X58379792Y-102030104D01*
X58530104Y-101879792D01*
X58530106Y-101879788D01*
X58530109Y-101879786D01*
X58655048Y-101707820D01*
X58655047Y-101707820D01*
X58655051Y-101707816D01*
X58751557Y-101518412D01*
X58817246Y-101316243D01*
X58850500Y-101106287D01*
X58850500Y-100893713D01*
X58817246Y-100683757D01*
X58751557Y-100481588D01*
X58655051Y-100292184D01*
X58655049Y-100292181D01*
X58655048Y-100292179D01*
X58530109Y-100120213D01*
X58379786Y-99969890D01*
X58207820Y-99844951D01*
X58018414Y-99748444D01*
X58018413Y-99748443D01*
X58018412Y-99748443D01*
X57816243Y-99682754D01*
X57816241Y-99682753D01*
X57816240Y-99682753D01*
X57654957Y-99657208D01*
X57606287Y-99649500D01*
X57393713Y-99649500D01*
X57345042Y-99657208D01*
X57183760Y-99682753D01*
X56981585Y-99748444D01*
X56792179Y-99844951D01*
X56620213Y-99969890D01*
X56469890Y-100120213D01*
X56344951Y-100292179D01*
X56248444Y-100481585D01*
X56248443Y-100481587D01*
X56248443Y-100481588D01*
X56227101Y-100547271D01*
X56182753Y-100683760D01*
X56149500Y-100893713D01*
X56149500Y-101106286D01*
X55000000Y-101106286D01*
X55000000Y-99000005D01*
X60234844Y-99000005D01*
X60255377Y-99247812D01*
X60255379Y-99247824D01*
X60316423Y-99488881D01*
X60416313Y-99716606D01*
X60552320Y-99924782D01*
X60552323Y-99924785D01*
X60720743Y-100107738D01*
X60916978Y-100260474D01*
X60984973Y-100297271D01*
X61070943Y-100343796D01*
X61135677Y-100378828D01*
X61370873Y-100459571D01*
X61616152Y-100500500D01*
X61864822Y-100500500D01*
X62110101Y-100459571D01*
X62345297Y-100378828D01*
X62563996Y-100260474D01*
X62760231Y-100107738D01*
X62928651Y-99924785D01*
X63064660Y-99716607D01*
X63164550Y-99488881D01*
X63225595Y-99247821D01*
X63226338Y-99238855D01*
X63246130Y-99000005D01*
X66734844Y-99000005D01*
X66755377Y-99247812D01*
X66755379Y-99247824D01*
X66816423Y-99488881D01*
X66916313Y-99716606D01*
X67052320Y-99924782D01*
X67052323Y-99924785D01*
X67220743Y-100107738D01*
X67239906Y-100122653D01*
X67266598Y-100143428D01*
X67270308Y-100146432D01*
X67437161Y-100286936D01*
X67995859Y-100757408D01*
X68034459Y-100815646D01*
X68039987Y-100852257D01*
X68039987Y-101298337D01*
X68039988Y-101298355D01*
X68050137Y-101397707D01*
X68050138Y-101397710D01*
X68103483Y-101558694D01*
X68103488Y-101558705D01*
X68192516Y-101703040D01*
X68192519Y-101703044D01*
X68312442Y-101822967D01*
X68312446Y-101822970D01*
X68456781Y-101911998D01*
X68456784Y-101911999D01*
X68456790Y-101912003D01*
X68617779Y-101965349D01*
X68717142Y-101975500D01*
X69263831Y-101975499D01*
X69263839Y-101975498D01*
X69263842Y-101975498D01*
X69318247Y-101969940D01*
X69363195Y-101965349D01*
X69524184Y-101912003D01*
X69668531Y-101822968D01*
X69678155Y-101813343D01*
X69739474Y-101779856D01*
X69809166Y-101784835D01*
X69853521Y-101813339D01*
X69862754Y-101822572D01*
X69862758Y-101822575D01*
X70006994Y-101911542D01*
X70007005Y-101911547D01*
X70167880Y-101964855D01*
X70267170Y-101974999D01*
X70290487Y-101974998D01*
X70290487Y-100025000D01*
X70790487Y-100025000D01*
X70790487Y-100750000D01*
X71490486Y-100750000D01*
X71490486Y-100701692D01*
X71490485Y-100701677D01*
X71480342Y-100602392D01*
X71427034Y-100441518D01*
X71427029Y-100441507D01*
X71338062Y-100297271D01*
X71338059Y-100297267D01*
X71218219Y-100177427D01*
X71218215Y-100177424D01*
X71092693Y-100100000D01*
X75085027Y-100100000D01*
X75104813Y-100288256D01*
X75104814Y-100288259D01*
X75163305Y-100468277D01*
X75163308Y-100468284D01*
X75257954Y-100632216D01*
X75370677Y-100757407D01*
X75384616Y-100772888D01*
X75537752Y-100884148D01*
X75537757Y-100884151D01*
X75710679Y-100961142D01*
X75710684Y-100961144D01*
X75895841Y-101000500D01*
X75895842Y-101000500D01*
X76085131Y-101000500D01*
X76085133Y-101000500D01*
X76270290Y-100961144D01*
X76443217Y-100884151D01*
X76596358Y-100772888D01*
X76723020Y-100632216D01*
X76770487Y-100550000D01*
X78965487Y-100550000D01*
X79665487Y-100550000D01*
X79665487Y-99824999D01*
X79642180Y-99825000D01*
X79642161Y-99825001D01*
X79542879Y-99835144D01*
X79382005Y-99888452D01*
X79381994Y-99888457D01*
X79237758Y-99977424D01*
X79237754Y-99977427D01*
X79117914Y-100097267D01*
X79117911Y-100097271D01*
X79028944Y-100241507D01*
X79028939Y-100241518D01*
X78975631Y-100402393D01*
X78965487Y-100501677D01*
X78965487Y-100550000D01*
X76770487Y-100550000D01*
X76817666Y-100468284D01*
X76876161Y-100288256D01*
X76895947Y-100100000D01*
X76876161Y-99911744D01*
X76817666Y-99731716D01*
X76723020Y-99567784D01*
X76596358Y-99427112D01*
X76596357Y-99427111D01*
X76443221Y-99315851D01*
X76443216Y-99315848D01*
X76270294Y-99238857D01*
X76270289Y-99238855D01*
X76124488Y-99207865D01*
X76085133Y-99199500D01*
X75895841Y-99199500D01*
X75863384Y-99206398D01*
X75710684Y-99238855D01*
X75710679Y-99238857D01*
X75537757Y-99315848D01*
X75537752Y-99315851D01*
X75384616Y-99427111D01*
X75257953Y-99567785D01*
X75163308Y-99731715D01*
X75163305Y-99731722D01*
X75104814Y-99911740D01*
X75104813Y-99911744D01*
X75085027Y-100100000D01*
X71092693Y-100100000D01*
X71073979Y-100088457D01*
X71073968Y-100088452D01*
X70913093Y-100035144D01*
X70813809Y-100025000D01*
X70790487Y-100025000D01*
X70290487Y-100025000D01*
X70290487Y-100024999D01*
X70267180Y-100025000D01*
X70267161Y-100025001D01*
X70167879Y-100035144D01*
X70007005Y-100088452D01*
X70007000Y-100088454D01*
X69947533Y-100125135D01*
X69880141Y-100143575D01*
X69813477Y-100122653D01*
X69768707Y-100069011D01*
X69764014Y-100056369D01*
X69751565Y-100016279D01*
X69745987Y-99979506D01*
X69745987Y-99011683D01*
X69745967Y-99010933D01*
X69745987Y-99010222D01*
X69745987Y-99010032D01*
X69745992Y-99010032D01*
X69746130Y-99005139D01*
X69746130Y-99000000D01*
X69744127Y-98975837D01*
X69743879Y-98972198D01*
X69743116Y-98957885D01*
X69743113Y-98957875D01*
X69742718Y-98955281D01*
X69741721Y-98946807D01*
X69725595Y-98752179D01*
X69664550Y-98511119D01*
X69664550Y-98511118D01*
X69664549Y-98511115D01*
X69640655Y-98456644D01*
X69633649Y-98435835D01*
X69629753Y-98419634D01*
X69517177Y-98136847D01*
X69514714Y-98130659D01*
X69508208Y-98061093D01*
X69540344Y-97999052D01*
X69542239Y-97997116D01*
X69564194Y-97975161D01*
X69590660Y-97948694D01*
X69651981Y-97915210D01*
X69721672Y-97920194D01*
X69766021Y-97948695D01*
X69859641Y-98042315D01*
X70008862Y-98134356D01*
X70008867Y-98134358D01*
X70175289Y-98189505D01*
X70175296Y-98189506D01*
X70278006Y-98199999D01*
X70340486Y-98199998D01*
X70340487Y-98199998D01*
X70340487Y-97250000D01*
X70840487Y-97250000D01*
X70840487Y-98199999D01*
X70902959Y-98199999D01*
X70902973Y-98199998D01*
X71005684Y-98189505D01*
X71172106Y-98134358D01*
X71172111Y-98134356D01*
X71321332Y-98042315D01*
X71445302Y-97918345D01*
X71537343Y-97769124D01*
X71537345Y-97769119D01*
X71592492Y-97602697D01*
X71592493Y-97602690D01*
X71602986Y-97499986D01*
X71602987Y-97499973D01*
X71602987Y-97250000D01*
X70840487Y-97250000D01*
X70340487Y-97250000D01*
X70340487Y-95800000D01*
X70840487Y-95800000D01*
X70840487Y-96750000D01*
X71602986Y-96750000D01*
X71602986Y-96500028D01*
X71602985Y-96500013D01*
X71602984Y-96500000D01*
X90494540Y-96500000D01*
X90514326Y-96688256D01*
X90514327Y-96688259D01*
X90572818Y-96868277D01*
X90572821Y-96868284D01*
X90667467Y-97032216D01*
X90778499Y-97155529D01*
X90794129Y-97172888D01*
X90947265Y-97284148D01*
X90947270Y-97284151D01*
X91120192Y-97361142D01*
X91120197Y-97361144D01*
X91305354Y-97400500D01*
X91305355Y-97400500D01*
X91494644Y-97400500D01*
X91494646Y-97400500D01*
X91679803Y-97361144D01*
X91852730Y-97284151D01*
X92005871Y-97172888D01*
X92132533Y-97032216D01*
X92227179Y-96868284D01*
X92285674Y-96688256D01*
X92305460Y-96500000D01*
X92285674Y-96311744D01*
X92227179Y-96131716D01*
X92132533Y-95967784D01*
X92005871Y-95827112D01*
X91999705Y-95822632D01*
X91852734Y-95715851D01*
X91852729Y-95715848D01*
X91679807Y-95638857D01*
X91679802Y-95638855D01*
X91534001Y-95607865D01*
X91494646Y-95599500D01*
X91305354Y-95599500D01*
X91272897Y-95606398D01*
X91120197Y-95638855D01*
X91120192Y-95638857D01*
X90947270Y-95715848D01*
X90947265Y-95715851D01*
X90794129Y-95827111D01*
X90667466Y-95967785D01*
X90572821Y-96131715D01*
X90572818Y-96131722D01*
X90514327Y-96311740D01*
X90514326Y-96311744D01*
X90494540Y-96500000D01*
X71602984Y-96500000D01*
X71592492Y-96397302D01*
X71537345Y-96230880D01*
X71537343Y-96230875D01*
X71445302Y-96081654D01*
X71321332Y-95957684D01*
X71172111Y-95865643D01*
X71172106Y-95865641D01*
X71005684Y-95810494D01*
X71005677Y-95810493D01*
X70902973Y-95800000D01*
X70840487Y-95800000D01*
X70340487Y-95800000D01*
X70340486Y-95799999D01*
X70278015Y-95800000D01*
X70277998Y-95800001D01*
X70175289Y-95810494D01*
X70008867Y-95865641D01*
X70008862Y-95865643D01*
X69859644Y-95957682D01*
X69766021Y-96051305D01*
X69704697Y-96084789D01*
X69635006Y-96079805D01*
X69590659Y-96051304D01*
X69496644Y-95957289D01*
X69496643Y-95957288D01*
X69366522Y-95877029D01*
X69347323Y-95865187D01*
X69347318Y-95865185D01*
X69345849Y-95864698D01*
X69180784Y-95810001D01*
X69180782Y-95810000D01*
X69077997Y-95799500D01*
X68452985Y-95799500D01*
X68452967Y-95799501D01*
X68350190Y-95810000D01*
X68350187Y-95810001D01*
X68183655Y-95865185D01*
X68183650Y-95865187D01*
X68034329Y-95957289D01*
X67910276Y-96081342D01*
X67818174Y-96230663D01*
X67818172Y-96230668D01*
X67794642Y-96301677D01*
X67762988Y-96397203D01*
X67762988Y-96397204D01*
X67762987Y-96397204D01*
X67752487Y-96499983D01*
X67752487Y-96670601D01*
X67741793Y-96720978D01*
X67557939Y-97134498D01*
X67532316Y-97171801D01*
X67432534Y-97271585D01*
X67395060Y-97327668D01*
X67395061Y-97327669D01*
X67350401Y-97394508D01*
X67293830Y-97531082D01*
X67293827Y-97531092D01*
X67264987Y-97676079D01*
X67264987Y-97741935D01*
X67245302Y-97808974D01*
X67244399Y-97810359D01*
X67117644Y-98001929D01*
X67105464Y-98017486D01*
X67052321Y-98075217D01*
X66916313Y-98283394D01*
X66885105Y-98354539D01*
X66878864Y-98366677D01*
X66878920Y-98366709D01*
X66878191Y-98368002D01*
X66877155Y-98369947D01*
X66861566Y-98408102D01*
X66860335Y-98411008D01*
X66816423Y-98511121D01*
X66755379Y-98752175D01*
X66755377Y-98752187D01*
X66734844Y-98999994D01*
X66734844Y-99000005D01*
X63246130Y-99000005D01*
X63246130Y-98999994D01*
X63225596Y-98752187D01*
X63225594Y-98752175D01*
X63164550Y-98511118D01*
X63064660Y-98283393D01*
X62928653Y-98075217D01*
X62867737Y-98009045D01*
X62760231Y-97892262D01*
X62563996Y-97739526D01*
X62563994Y-97739525D01*
X62563993Y-97739524D01*
X62345298Y-97621172D01*
X62345289Y-97621169D01*
X62110103Y-97540429D01*
X61864822Y-97499500D01*
X61616152Y-97499500D01*
X61370870Y-97540429D01*
X61135684Y-97621169D01*
X61135675Y-97621172D01*
X60916980Y-97739524D01*
X60720744Y-97892261D01*
X60552320Y-98075217D01*
X60416313Y-98283393D01*
X60316423Y-98511118D01*
X60255379Y-98752175D01*
X60255377Y-98752187D01*
X60234844Y-98999994D01*
X60234844Y-99000005D01*
X55000000Y-99000005D01*
X55000000Y-94500000D01*
X75835027Y-94500000D01*
X75854813Y-94688256D01*
X75854814Y-94688259D01*
X75913305Y-94868277D01*
X75913308Y-94868284D01*
X76007954Y-95032216D01*
X76099877Y-95134306D01*
X76134616Y-95172888D01*
X76287752Y-95284148D01*
X76287757Y-95284151D01*
X76460679Y-95361142D01*
X76460684Y-95361144D01*
X76645841Y-95400500D01*
X76645842Y-95400500D01*
X76835131Y-95400500D01*
X76835133Y-95400500D01*
X77020290Y-95361144D01*
X77193217Y-95284151D01*
X77346358Y-95172888D01*
X77473020Y-95032216D01*
X77567666Y-94868284D01*
X77626161Y-94688256D01*
X77645947Y-94500000D01*
X77626161Y-94311744D01*
X77567666Y-94131716D01*
X77473020Y-93967784D01*
X77346358Y-93827112D01*
X77312674Y-93802639D01*
X77193221Y-93715851D01*
X77193216Y-93715848D01*
X77020294Y-93638857D01*
X77020289Y-93638855D01*
X76857861Y-93604331D01*
X76835133Y-93599500D01*
X76645841Y-93599500D01*
X76623113Y-93604331D01*
X76460684Y-93638855D01*
X76460679Y-93638857D01*
X76287757Y-93715848D01*
X76287752Y-93715851D01*
X76134616Y-93827111D01*
X76007953Y-93967785D01*
X75913308Y-94131715D01*
X75913305Y-94131722D01*
X75854814Y-94311740D01*
X75854813Y-94311744D01*
X75835027Y-94500000D01*
X55000000Y-94500000D01*
X55000000Y-93175000D01*
X57485210Y-93175000D01*
X57502986Y-93378191D01*
X57504280Y-93392975D01*
X57504280Y-93392979D01*
X57560909Y-93604322D01*
X57560911Y-93604326D01*
X57560912Y-93604330D01*
X57606204Y-93701460D01*
X57653384Y-93802638D01*
X57670521Y-93827112D01*
X57778889Y-93981877D01*
X57933610Y-94136598D01*
X58112848Y-94262102D01*
X58311157Y-94354575D01*
X58522510Y-94411207D01*
X58705413Y-94427208D01*
X58740485Y-94430277D01*
X58740487Y-94430277D01*
X58740489Y-94430277D01*
X58768741Y-94427805D01*
X58958464Y-94411207D01*
X59169817Y-94354575D01*
X59171872Y-94353616D01*
X59187879Y-94347457D01*
X59856251Y-94142209D01*
X59926112Y-94141348D01*
X59929356Y-94142305D01*
X59996740Y-94163231D01*
X60024251Y-94168661D01*
X60039234Y-94172606D01*
X60092779Y-94190349D01*
X60192142Y-94200500D01*
X60788831Y-94200499D01*
X60788839Y-94200498D01*
X60788842Y-94200498D01*
X60843247Y-94194940D01*
X60888195Y-94190349D01*
X61049184Y-94137003D01*
X61193531Y-94047968D01*
X61313455Y-93928044D01*
X61402490Y-93783697D01*
X61455836Y-93622708D01*
X61465987Y-93523345D01*
X61465986Y-92976656D01*
X61463980Y-92957023D01*
X61455836Y-92877292D01*
X61455835Y-92877289D01*
X61450484Y-92861142D01*
X61402490Y-92716303D01*
X61402486Y-92716297D01*
X61402485Y-92716294D01*
X61313457Y-92571959D01*
X61313454Y-92571955D01*
X61303826Y-92562327D01*
X61270341Y-92501004D01*
X61275325Y-92431312D01*
X61303832Y-92386959D01*
X61313060Y-92377731D01*
X61402029Y-92233492D01*
X61402034Y-92233481D01*
X61455342Y-92072606D01*
X61462760Y-92000000D01*
X70835027Y-92000000D01*
X70854813Y-92188256D01*
X70854814Y-92188259D01*
X70913305Y-92368277D01*
X70913308Y-92368284D01*
X71007954Y-92532216D01*
X71087662Y-92620740D01*
X71134616Y-92672888D01*
X71287752Y-92784148D01*
X71287757Y-92784151D01*
X71460679Y-92861142D01*
X71460684Y-92861144D01*
X71645841Y-92900500D01*
X71645842Y-92900500D01*
X71835131Y-92900500D01*
X71835133Y-92900500D01*
X72020290Y-92861144D01*
X72193217Y-92784151D01*
X72304320Y-92703429D01*
X72370123Y-92679951D01*
X72438177Y-92695776D01*
X72484590Y-92741749D01*
X72507952Y-92782214D01*
X72634616Y-92922888D01*
X72787752Y-93034148D01*
X72787757Y-93034151D01*
X72960679Y-93111142D01*
X72960684Y-93111144D01*
X73145841Y-93150500D01*
X73145842Y-93150500D01*
X73335131Y-93150500D01*
X73335133Y-93150500D01*
X73520290Y-93111144D01*
X73693217Y-93034151D01*
X73846358Y-92922888D01*
X73973020Y-92782216D01*
X74067666Y-92618284D01*
X74126161Y-92438256D01*
X74145947Y-92250000D01*
X74126161Y-92061744D01*
X74106099Y-92000001D01*
X92594987Y-92000001D01*
X92594988Y-92000019D01*
X92605487Y-92102796D01*
X92605488Y-92102799D01*
X92632761Y-92185102D01*
X92636398Y-92198577D01*
X92639516Y-92213402D01*
X92642096Y-92225669D01*
X92849966Y-92794992D01*
X92857487Y-92837520D01*
X92857487Y-92924132D01*
X92854336Y-92951907D01*
X92853340Y-92956238D01*
X92853339Y-92956243D01*
X92817008Y-93392206D01*
X92819796Y-93442337D01*
X92819987Y-93449220D01*
X92819987Y-94678201D01*
X92822888Y-94715067D01*
X92822889Y-94715073D01*
X92868741Y-94872893D01*
X92868742Y-94872896D01*
X92952404Y-95014362D01*
X92952410Y-95014370D01*
X93068616Y-95130576D01*
X93068620Y-95130579D01*
X93068622Y-95130581D01*
X93210089Y-95214244D01*
X93251711Y-95226336D01*
X93367913Y-95260097D01*
X93367916Y-95260097D01*
X93367918Y-95260098D01*
X93404793Y-95263000D01*
X93645987Y-95263000D01*
X93713026Y-95282685D01*
X93758781Y-95335489D01*
X93769987Y-95387000D01*
X93769987Y-96497510D01*
X93769923Y-96501494D01*
X93768466Y-96546809D01*
X93768466Y-96546816D01*
X93771737Y-96576259D01*
X93772112Y-96580210D01*
X93772888Y-96590069D01*
X93773092Y-96591184D01*
X93774346Y-96599739D01*
X93814956Y-96965221D01*
X93802795Y-97034024D01*
X93788683Y-97056200D01*
X93335559Y-97624732D01*
X93304937Y-97650465D01*
X93305255Y-97650890D01*
X93298156Y-97656203D01*
X93298156Y-97656204D01*
X93182941Y-97742454D01*
X93182940Y-97742455D01*
X93182939Y-97742456D01*
X93096693Y-97857664D01*
X93096689Y-97857671D01*
X93046395Y-97992517D01*
X93039988Y-98052116D01*
X93039987Y-98052135D01*
X93039987Y-99947870D01*
X93039988Y-99947876D01*
X93046395Y-100007483D01*
X93096689Y-100142328D01*
X93096693Y-100142335D01*
X93182939Y-100257544D01*
X93182942Y-100257547D01*
X93298151Y-100343793D01*
X93298158Y-100343797D01*
X93433004Y-100394091D01*
X93433003Y-100394091D01*
X93439931Y-100394835D01*
X93492614Y-100400500D01*
X94142735Y-100400499D01*
X94209772Y-100420183D01*
X94255527Y-100472987D01*
X94265471Y-100542146D01*
X94248272Y-100589595D01*
X94161132Y-100730871D01*
X94161128Y-100730880D01*
X94105981Y-100897302D01*
X94105980Y-100897309D01*
X94095487Y-101000013D01*
X94095487Y-101250000D01*
X95233987Y-101250000D01*
X95301026Y-101269685D01*
X95346781Y-101322489D01*
X95357987Y-101374000D01*
X95357987Y-102699999D01*
X95420459Y-102699999D01*
X95420473Y-102699998D01*
X95523184Y-102689505D01*
X95689606Y-102634358D01*
X95689611Y-102634356D01*
X95838829Y-102542317D01*
X95932451Y-102448695D01*
X95993774Y-102415210D01*
X96063466Y-102420194D01*
X96107814Y-102448695D01*
X96201831Y-102542712D01*
X96351153Y-102634814D01*
X96517690Y-102689999D01*
X96620478Y-102700500D01*
X97245495Y-102700499D01*
X97245503Y-102700498D01*
X97245506Y-102700498D01*
X97301789Y-102694748D01*
X97348284Y-102689999D01*
X97514821Y-102634814D01*
X97664143Y-102542712D01*
X97788199Y-102418656D01*
X97880301Y-102269334D01*
X97935486Y-102102797D01*
X97945987Y-102000009D01*
X97945986Y-100999992D01*
X97943433Y-100975000D01*
X107327987Y-100975000D01*
X108052987Y-100975000D01*
X108552987Y-100975000D01*
X109752987Y-100975000D01*
X109752987Y-100275000D01*
X110252987Y-100275000D01*
X110252987Y-100975000D01*
X110977986Y-100975000D01*
X110977986Y-100951692D01*
X110977985Y-100951677D01*
X110967842Y-100852392D01*
X110914534Y-100691518D01*
X110914529Y-100691507D01*
X110825562Y-100547271D01*
X110825559Y-100547267D01*
X110705719Y-100427427D01*
X110705715Y-100427424D01*
X110561479Y-100338457D01*
X110561468Y-100338452D01*
X110400593Y-100285144D01*
X110301309Y-100275000D01*
X110252987Y-100275000D01*
X109752987Y-100275000D01*
X109752986Y-100274999D01*
X109704680Y-100275000D01*
X109704662Y-100275001D01*
X109605379Y-100285144D01*
X109444505Y-100338452D01*
X109444494Y-100338457D01*
X109300258Y-100427424D01*
X109240668Y-100487014D01*
X109179344Y-100520498D01*
X109109653Y-100515513D01*
X109065306Y-100487014D01*
X109005715Y-100427424D01*
X108861479Y-100338457D01*
X108861468Y-100338452D01*
X108700593Y-100285144D01*
X108601309Y-100275000D01*
X108552987Y-100275000D01*
X108552987Y-100975000D01*
X108052987Y-100975000D01*
X108052987Y-100275000D01*
X108052986Y-100274999D01*
X108004680Y-100275000D01*
X108004662Y-100275001D01*
X107905379Y-100285144D01*
X107744505Y-100338452D01*
X107744494Y-100338457D01*
X107600258Y-100427424D01*
X107600254Y-100427427D01*
X107480414Y-100547267D01*
X107480411Y-100547271D01*
X107391444Y-100691507D01*
X107391439Y-100691518D01*
X107338131Y-100852393D01*
X107327987Y-100951677D01*
X107327987Y-100975000D01*
X97943433Y-100975000D01*
X97942017Y-100961142D01*
X97935486Y-100897202D01*
X97908213Y-100814899D01*
X97904574Y-100801415D01*
X97901600Y-100787275D01*
X97898879Y-100774336D01*
X97843952Y-100623900D01*
X97839451Y-100554179D01*
X97846719Y-100531925D01*
X98155341Y-99822358D01*
X98200130Y-99768735D01*
X98266801Y-99747838D01*
X98334187Y-99766304D01*
X98372859Y-99803996D01*
X98410690Y-99861902D01*
X98411508Y-99863153D01*
X98568703Y-100033913D01*
X98568706Y-100033915D01*
X98568709Y-100033918D01*
X98751852Y-100176464D01*
X98751858Y-100176468D01*
X98751861Y-100176470D01*
X98955984Y-100286936D01*
X99069974Y-100326068D01*
X99175502Y-100362297D01*
X99175504Y-100362297D01*
X99175506Y-100362298D01*
X99404438Y-100400500D01*
X99404439Y-100400500D01*
X99636535Y-100400500D01*
X99636536Y-100400500D01*
X99865468Y-100362298D01*
X100084990Y-100286936D01*
X100289113Y-100176470D01*
X100472271Y-100033913D01*
X100629466Y-99863153D01*
X100756411Y-99668849D01*
X100849644Y-99456300D01*
X100906621Y-99231305D01*
X100906622Y-99231297D01*
X100925787Y-99000006D01*
X100925787Y-98999993D01*
X100906622Y-98768702D01*
X100906618Y-98768682D01*
X100864117Y-98600852D01*
X100849644Y-98543700D01*
X100828111Y-98494611D01*
X100821140Y-98473944D01*
X100817125Y-98457340D01*
X100817120Y-98457323D01*
X100279836Y-97112400D01*
X100270987Y-97066398D01*
X100270987Y-96986790D01*
X100273154Y-96963710D01*
X100275985Y-96948765D01*
X100275986Y-96948762D01*
X100280375Y-96850000D01*
X105065488Y-96850000D01*
X105065488Y-96898322D01*
X105075631Y-96997607D01*
X105128939Y-97158481D01*
X105128944Y-97158492D01*
X105217911Y-97302728D01*
X105217914Y-97302732D01*
X105337754Y-97422572D01*
X105337758Y-97422575D01*
X105481994Y-97511542D01*
X105482005Y-97511547D01*
X105642880Y-97564855D01*
X105742170Y-97574999D01*
X105765487Y-97574998D01*
X105765487Y-96850000D01*
X105065488Y-96850000D01*
X100280375Y-96850000D01*
X100295351Y-96513027D01*
X100291429Y-96466719D01*
X100290987Y-96456255D01*
X100290987Y-96350000D01*
X105065487Y-96350000D01*
X105765487Y-96350000D01*
X105765487Y-95624999D01*
X105742180Y-95625000D01*
X105742161Y-95625001D01*
X105642879Y-95635144D01*
X105482005Y-95688452D01*
X105481994Y-95688457D01*
X105337758Y-95777424D01*
X105337754Y-95777427D01*
X105217914Y-95897267D01*
X105217911Y-95897271D01*
X105128944Y-96041507D01*
X105128939Y-96041518D01*
X105075631Y-96202393D01*
X105065487Y-96301677D01*
X105065487Y-96350000D01*
X100290987Y-96350000D01*
X100290987Y-95387000D01*
X100310672Y-95319961D01*
X100363476Y-95274206D01*
X100414987Y-95263000D01*
X100656173Y-95263000D01*
X100656181Y-95263000D01*
X100693056Y-95260098D01*
X100693058Y-95260097D01*
X100693060Y-95260097D01*
X100734678Y-95248005D01*
X100850885Y-95214244D01*
X100992352Y-95130581D01*
X101108568Y-95014365D01*
X101192231Y-94872898D01*
X101238085Y-94715069D01*
X101240987Y-94678194D01*
X101240987Y-93427457D01*
X101241051Y-93423473D01*
X101241066Y-93422988D01*
X101242507Y-93378192D01*
X101241797Y-93371806D01*
X101239238Y-93348771D01*
X101238861Y-93344797D01*
X101238085Y-93334931D01*
X101238081Y-93334917D01*
X101237887Y-93333853D01*
X101236624Y-93325255D01*
X101194051Y-92942085D01*
X101192140Y-92928171D01*
X101190987Y-92911298D01*
X101190987Y-92804188D01*
X101193951Y-92777239D01*
X101228796Y-92620740D01*
X101315016Y-92233492D01*
X101331062Y-92161424D01*
X101332442Y-92153717D01*
X101336793Y-92136570D01*
X101347986Y-92102797D01*
X101358487Y-92000009D01*
X101358486Y-90999992D01*
X101347986Y-90897203D01*
X101292801Y-90730666D01*
X101200699Y-90581344D01*
X101076643Y-90457288D01*
X100927321Y-90365186D01*
X100760784Y-90310001D01*
X100760782Y-90310000D01*
X100657997Y-90299500D01*
X100032985Y-90299500D01*
X100032967Y-90299501D01*
X99930190Y-90310000D01*
X99930187Y-90310001D01*
X99763655Y-90365185D01*
X99763650Y-90365187D01*
X99614329Y-90457289D01*
X99520668Y-90550951D01*
X99459345Y-90584436D01*
X99389653Y-90579452D01*
X99345306Y-90550951D01*
X99251644Y-90457289D01*
X99251643Y-90457288D01*
X99102321Y-90365186D01*
X98935784Y-90310001D01*
X98935782Y-90310000D01*
X98832997Y-90299500D01*
X98207985Y-90299500D01*
X98207967Y-90299501D01*
X98105190Y-90310000D01*
X98105187Y-90310001D01*
X97938655Y-90365185D01*
X97938650Y-90365187D01*
X97789329Y-90457289D01*
X97665276Y-90581342D01*
X97573174Y-90730663D01*
X97573172Y-90730668D01*
X97552864Y-90791955D01*
X97517988Y-90897203D01*
X97517988Y-90897204D01*
X97517987Y-90897204D01*
X97507487Y-90999983D01*
X97507487Y-92000001D01*
X97507488Y-92000019D01*
X97517987Y-92102796D01*
X97517988Y-92102799D01*
X97545261Y-92185102D01*
X97548898Y-92198577D01*
X97552016Y-92213402D01*
X97554596Y-92225669D01*
X97762466Y-92794992D01*
X97769987Y-92837520D01*
X97769987Y-92930080D01*
X97767279Y-92955853D01*
X97765378Y-92964794D01*
X97765378Y-92964800D01*
X97736320Y-93400648D01*
X97736321Y-93400658D01*
X97739701Y-93450366D01*
X97739987Y-93458778D01*
X97739987Y-94678201D01*
X97742888Y-94715067D01*
X97742889Y-94715073D01*
X97788741Y-94872893D01*
X97788742Y-94872896D01*
X97872404Y-95014362D01*
X97872410Y-95014370D01*
X97988616Y-95130576D01*
X97988620Y-95130579D01*
X97988622Y-95130581D01*
X98130089Y-95214244D01*
X98171711Y-95226336D01*
X98287913Y-95260097D01*
X98287916Y-95260097D01*
X98287918Y-95260098D01*
X98324793Y-95263000D01*
X98565987Y-95263000D01*
X98633026Y-95282685D01*
X98678781Y-95335489D01*
X98689987Y-95387000D01*
X98689987Y-96553201D01*
X98692888Y-96590067D01*
X98712949Y-96659116D01*
X98716309Y-96674084D01*
X98747437Y-96868277D01*
X98768280Y-96998309D01*
X98768424Y-96999203D01*
X98769987Y-97018829D01*
X98769987Y-97066396D01*
X98761138Y-97112398D01*
X98340800Y-98164580D01*
X98297650Y-98219533D01*
X98231640Y-98242433D01*
X98163728Y-98226010D01*
X98121840Y-98186399D01*
X98089470Y-98136852D01*
X98089467Y-98136849D01*
X98089466Y-98136847D01*
X97932271Y-97966087D01*
X97932266Y-97966083D01*
X97932264Y-97966081D01*
X97749121Y-97823535D01*
X97749115Y-97823531D01*
X97544991Y-97713064D01*
X97544982Y-97713061D01*
X97325471Y-97637702D01*
X97153769Y-97609050D01*
X97096536Y-97599500D01*
X96864438Y-97599500D01*
X96818651Y-97607140D01*
X96635502Y-97637702D01*
X96415991Y-97713061D01*
X96415982Y-97713064D01*
X96211858Y-97823531D01*
X96211852Y-97823535D01*
X96028709Y-97966081D01*
X96028701Y-97966088D01*
X96020349Y-97975161D01*
X95960460Y-98011149D01*
X95890622Y-98009045D01*
X95833008Y-97969518D01*
X95812942Y-97934510D01*
X95784283Y-97857669D01*
X95784281Y-97857666D01*
X95780649Y-97851014D01*
X95774318Y-97840630D01*
X95773696Y-97839352D01*
X95773691Y-97839338D01*
X95773682Y-97839322D01*
X95337620Y-97084598D01*
X95320987Y-97022564D01*
X95320987Y-97010545D01*
X95323936Y-96987399D01*
X95323249Y-96987273D01*
X95324050Y-96982917D01*
X95324051Y-96982915D01*
X95366625Y-96599739D01*
X95367887Y-96591151D01*
X95368083Y-96590074D01*
X95368085Y-96590069D01*
X95368863Y-96580176D01*
X95369240Y-96576202D01*
X95371796Y-96553201D01*
X95372507Y-96546807D01*
X95372798Y-96544125D01*
X95371074Y-96498144D01*
X95370987Y-96493498D01*
X95370987Y-95387000D01*
X95390672Y-95319961D01*
X95443476Y-95274206D01*
X95494987Y-95263000D01*
X95736173Y-95263000D01*
X95736181Y-95263000D01*
X95773056Y-95260098D01*
X95773058Y-95260097D01*
X95773060Y-95260097D01*
X95814678Y-95248005D01*
X95930885Y-95214244D01*
X96072352Y-95130581D01*
X96188568Y-95014365D01*
X96272231Y-94872898D01*
X96318085Y-94715069D01*
X96320987Y-94678194D01*
X96320987Y-93427457D01*
X96321051Y-93423473D01*
X96321066Y-93422988D01*
X96322507Y-93378192D01*
X96321797Y-93371806D01*
X96319238Y-93348771D01*
X96318861Y-93344797D01*
X96318085Y-93334931D01*
X96318081Y-93334917D01*
X96317887Y-93333853D01*
X96316624Y-93325255D01*
X96274051Y-92942085D01*
X96272140Y-92928171D01*
X96270987Y-92911298D01*
X96270987Y-92806512D01*
X96274246Y-92778271D01*
X96417277Y-92166759D01*
X96419610Y-92154289D01*
X96423787Y-92138096D01*
X96435486Y-92102797D01*
X96445987Y-92000009D01*
X96445986Y-90999992D01*
X96435486Y-90897203D01*
X96380301Y-90730666D01*
X96288199Y-90581344D01*
X96164143Y-90457288D01*
X96014821Y-90365186D01*
X95848284Y-90310001D01*
X95848282Y-90310000D01*
X95745497Y-90299500D01*
X95120485Y-90299500D01*
X95120467Y-90299501D01*
X95017690Y-90310000D01*
X95017687Y-90310001D01*
X94851155Y-90365185D01*
X94851150Y-90365187D01*
X94701829Y-90457289D01*
X94608168Y-90550951D01*
X94546845Y-90584436D01*
X94477153Y-90579452D01*
X94432806Y-90550951D01*
X94339144Y-90457289D01*
X94339143Y-90457288D01*
X94189821Y-90365186D01*
X94023284Y-90310001D01*
X94023282Y-90310000D01*
X93920497Y-90299500D01*
X93295485Y-90299500D01*
X93295467Y-90299501D01*
X93192690Y-90310000D01*
X93192687Y-90310001D01*
X93026155Y-90365185D01*
X93026150Y-90365187D01*
X92876829Y-90457289D01*
X92752776Y-90581342D01*
X92660674Y-90730663D01*
X92660672Y-90730668D01*
X92640364Y-90791955D01*
X92605488Y-90897203D01*
X92605488Y-90897204D01*
X92605487Y-90897204D01*
X92594987Y-90999983D01*
X92594987Y-92000001D01*
X74106099Y-92000001D01*
X74067666Y-91881716D01*
X73973020Y-91717784D01*
X73846358Y-91577112D01*
X73846357Y-91577111D01*
X73693221Y-91465851D01*
X73693216Y-91465848D01*
X73520294Y-91388857D01*
X73520289Y-91388855D01*
X73374488Y-91357865D01*
X73335133Y-91349500D01*
X73145841Y-91349500D01*
X73113384Y-91356398D01*
X72960684Y-91388855D01*
X72960679Y-91388857D01*
X72787757Y-91465848D01*
X72787752Y-91465851D01*
X72676655Y-91546568D01*
X72610848Y-91570048D01*
X72542795Y-91554222D01*
X72496382Y-91508249D01*
X72473020Y-91467785D01*
X72473020Y-91467784D01*
X72346358Y-91327112D01*
X72346357Y-91327111D01*
X72193221Y-91215851D01*
X72193216Y-91215848D01*
X72020294Y-91138857D01*
X72020289Y-91138855D01*
X71874488Y-91107865D01*
X71835133Y-91099500D01*
X71645841Y-91099500D01*
X71613384Y-91106398D01*
X71460684Y-91138855D01*
X71460679Y-91138857D01*
X71287757Y-91215848D01*
X71287752Y-91215851D01*
X71134616Y-91327111D01*
X71007953Y-91467785D01*
X70913308Y-91631715D01*
X70913305Y-91631722D01*
X70885342Y-91717785D01*
X70854813Y-91811744D01*
X70835027Y-92000000D01*
X61462760Y-92000000D01*
X61465486Y-91973322D01*
X61465487Y-91973309D01*
X61465487Y-91950000D01*
X59515488Y-91950000D01*
X59515488Y-91953637D01*
X59495803Y-92020676D01*
X59442999Y-92066431D01*
X59373841Y-92076375D01*
X59342285Y-92067457D01*
X59238844Y-92022740D01*
X59233144Y-92020676D01*
X59197255Y-92007679D01*
X59187081Y-92003475D01*
X59169817Y-91995425D01*
X59169811Y-91995423D01*
X58958464Y-91938793D01*
X58740489Y-91919723D01*
X58740485Y-91919723D01*
X58595169Y-91932436D01*
X58522510Y-91938793D01*
X58522507Y-91938793D01*
X58311164Y-91995422D01*
X58311155Y-91995426D01*
X58112848Y-92087898D01*
X58112844Y-92087900D01*
X57933608Y-92213402D01*
X57778889Y-92368121D01*
X57653387Y-92547357D01*
X57653385Y-92547361D01*
X57560913Y-92745668D01*
X57560909Y-92745677D01*
X57504280Y-92957020D01*
X57504280Y-92957024D01*
X57490797Y-93111144D01*
X57485210Y-93175000D01*
X55000000Y-93175000D01*
X55000000Y-91450000D01*
X59515487Y-91450000D01*
X60240487Y-91450000D01*
X60240487Y-89975000D01*
X60740487Y-89975000D01*
X60740487Y-91450000D01*
X61465486Y-91450000D01*
X61465486Y-91426692D01*
X61465485Y-91426677D01*
X61455342Y-91327392D01*
X61402034Y-91166518D01*
X61402029Y-91166507D01*
X61313062Y-91022271D01*
X61313059Y-91022267D01*
X61193219Y-90902427D01*
X61193215Y-90902424D01*
X61056405Y-90818038D01*
X61009680Y-90766090D01*
X60998459Y-90697128D01*
X61026302Y-90633046D01*
X61056405Y-90606962D01*
X61193215Y-90522575D01*
X61193219Y-90522572D01*
X61313059Y-90402732D01*
X61313062Y-90402728D01*
X61402029Y-90258492D01*
X61402034Y-90258481D01*
X61455342Y-90097606D01*
X61465486Y-89998322D01*
X61465487Y-89998309D01*
X61465487Y-89975000D01*
X60740487Y-89975000D01*
X60240487Y-89975000D01*
X59515488Y-89975000D01*
X59515488Y-89998322D01*
X59525631Y-90097607D01*
X59578939Y-90258481D01*
X59578944Y-90258492D01*
X59667911Y-90402728D01*
X59667914Y-90402732D01*
X59787755Y-90522573D01*
X59924569Y-90606962D01*
X59971293Y-90658910D01*
X59982514Y-90727873D01*
X59954671Y-90791955D01*
X59924569Y-90818038D01*
X59787755Y-90902426D01*
X59667914Y-91022267D01*
X59667911Y-91022271D01*
X59578944Y-91166507D01*
X59578939Y-91166518D01*
X59525631Y-91327393D01*
X59515487Y-91426677D01*
X59515487Y-91450000D01*
X55000000Y-91450000D01*
X55000000Y-89606287D01*
X109149500Y-89606287D01*
X109182754Y-89816243D01*
X109241915Y-89998322D01*
X109248444Y-90018414D01*
X109344951Y-90207820D01*
X109469890Y-90379786D01*
X109620213Y-90530109D01*
X109792179Y-90655048D01*
X109792181Y-90655049D01*
X109792184Y-90655051D01*
X109981588Y-90751557D01*
X110183757Y-90817246D01*
X110393713Y-90850500D01*
X110393714Y-90850500D01*
X110606286Y-90850500D01*
X110606287Y-90850500D01*
X110816243Y-90817246D01*
X111018412Y-90751557D01*
X111207816Y-90655051D01*
X111229789Y-90639086D01*
X111379786Y-90530109D01*
X111379788Y-90530106D01*
X111379792Y-90530104D01*
X111530104Y-90379792D01*
X111530106Y-90379788D01*
X111530109Y-90379786D01*
X111655048Y-90207820D01*
X111655047Y-90207820D01*
X111655051Y-90207816D01*
X111751557Y-90018412D01*
X111817246Y-89816243D01*
X111850500Y-89606287D01*
X111850500Y-89393713D01*
X111817246Y-89183757D01*
X111751557Y-88981588D01*
X111655051Y-88792184D01*
X111655049Y-88792181D01*
X111655048Y-88792179D01*
X111530109Y-88620213D01*
X111379786Y-88469890D01*
X111207820Y-88344951D01*
X111018414Y-88248444D01*
X111018413Y-88248443D01*
X111018412Y-88248443D01*
X110816243Y-88182754D01*
X110816241Y-88182753D01*
X110816240Y-88182753D01*
X110654957Y-88157208D01*
X110606287Y-88149500D01*
X110393713Y-88149500D01*
X110345042Y-88157208D01*
X110183760Y-88182753D01*
X109981585Y-88248444D01*
X109792179Y-88344951D01*
X109620213Y-88469890D01*
X109469890Y-88620213D01*
X109344951Y-88792179D01*
X109248444Y-88981585D01*
X109248443Y-88981587D01*
X109248443Y-88981588D01*
X109227101Y-89047271D01*
X109182753Y-89183760D01*
X109171217Y-89256598D01*
X109149500Y-89393713D01*
X109149500Y-89606287D01*
X55000000Y-89606287D01*
X55000000Y-88295000D01*
X57485210Y-88295000D01*
X57500510Y-88469890D01*
X57504280Y-88512975D01*
X57504280Y-88512979D01*
X57560909Y-88724322D01*
X57560911Y-88724326D01*
X57560912Y-88724330D01*
X57592551Y-88792179D01*
X57653384Y-88922638D01*
X57653385Y-88922639D01*
X57778889Y-89101877D01*
X57933610Y-89256598D01*
X58112848Y-89382102D01*
X58311157Y-89474575D01*
X58522510Y-89531207D01*
X58705413Y-89547208D01*
X58740485Y-89550277D01*
X58740487Y-89550277D01*
X58740489Y-89550277D01*
X58768741Y-89547805D01*
X58958464Y-89531207D01*
X59169817Y-89474575D01*
X59217761Y-89452216D01*
X59233578Y-89446121D01*
X59254883Y-89439548D01*
X59338433Y-89399996D01*
X59407446Y-89389104D01*
X59471394Y-89417253D01*
X59498166Y-89457679D01*
X59515487Y-89475000D01*
X61465486Y-89475000D01*
X61465486Y-89451692D01*
X61465485Y-89451677D01*
X61455342Y-89352392D01*
X61402034Y-89191518D01*
X61402029Y-89191507D01*
X61313062Y-89047271D01*
X61313059Y-89047267D01*
X61303826Y-89038034D01*
X61270341Y-88976711D01*
X61275325Y-88907019D01*
X61303830Y-88862668D01*
X61313455Y-88853044D01*
X61402490Y-88708697D01*
X61455836Y-88547708D01*
X61465987Y-88448345D01*
X61465986Y-87901656D01*
X61455836Y-87802292D01*
X61402490Y-87641303D01*
X61402486Y-87641297D01*
X61402485Y-87641294D01*
X61313457Y-87496959D01*
X61313454Y-87496955D01*
X61216499Y-87400000D01*
X92794540Y-87400000D01*
X92814326Y-87588256D01*
X92814327Y-87588259D01*
X92872818Y-87768277D01*
X92872821Y-87768284D01*
X92967467Y-87932216D01*
X93094129Y-88072888D01*
X93247265Y-88184148D01*
X93247270Y-88184151D01*
X93420192Y-88261142D01*
X93420197Y-88261144D01*
X93605354Y-88300500D01*
X93605355Y-88300500D01*
X93794644Y-88300500D01*
X93794646Y-88300500D01*
X93979803Y-88261144D01*
X94152730Y-88184151D01*
X94305871Y-88072888D01*
X94432533Y-87932216D01*
X94527179Y-87768284D01*
X94585674Y-87588256D01*
X94605460Y-87400000D01*
X94585674Y-87211744D01*
X94527179Y-87031716D01*
X94432533Y-86867784D01*
X94305871Y-86727112D01*
X94305870Y-86727111D01*
X94152734Y-86615851D01*
X94152729Y-86615848D01*
X93979807Y-86538857D01*
X93979802Y-86538855D01*
X93834001Y-86507865D01*
X93794646Y-86499500D01*
X93605354Y-86499500D01*
X93572897Y-86506398D01*
X93420197Y-86538855D01*
X93420192Y-86538857D01*
X93247270Y-86615848D01*
X93247265Y-86615851D01*
X93094129Y-86727111D01*
X92967466Y-86867785D01*
X92872821Y-87031715D01*
X92872818Y-87031722D01*
X92815575Y-87207900D01*
X92814326Y-87211744D01*
X92794540Y-87400000D01*
X61216499Y-87400000D01*
X61193531Y-87377032D01*
X61193527Y-87377029D01*
X61049192Y-87288001D01*
X61049186Y-87287998D01*
X61049184Y-87287997D01*
X61049181Y-87287996D01*
X60888196Y-87234651D01*
X60788833Y-87224500D01*
X60192149Y-87224500D01*
X60192131Y-87224501D01*
X60092780Y-87234650D01*
X60033679Y-87254234D01*
X60014229Y-87258976D01*
X59996740Y-87261768D01*
X59996734Y-87261769D01*
X59894243Y-87293596D01*
X59824974Y-87294840D01*
X59187807Y-87121814D01*
X59174956Y-87117114D01*
X59174898Y-87117275D01*
X59169814Y-87115424D01*
X59113182Y-87100249D01*
X58958464Y-87058793D01*
X58849475Y-87049258D01*
X58740489Y-87039723D01*
X58740485Y-87039723D01*
X58595169Y-87052436D01*
X58522510Y-87058793D01*
X58522507Y-87058793D01*
X58311164Y-87115422D01*
X58311155Y-87115426D01*
X58112848Y-87207898D01*
X58112844Y-87207900D01*
X57933608Y-87333402D01*
X57778889Y-87488121D01*
X57653387Y-87667357D01*
X57653385Y-87667361D01*
X57560913Y-87865668D01*
X57560909Y-87865677D01*
X57504280Y-88077020D01*
X57504280Y-88077023D01*
X57485210Y-88295000D01*
X55000000Y-88295000D01*
X55000000Y-80000000D01*
X55764828Y-80000000D01*
X55785423Y-80235403D01*
X55785425Y-80235413D01*
X55846581Y-80463655D01*
X55846583Y-80463659D01*
X55846584Y-80463663D01*
X55850487Y-80472032D01*
X55946452Y-80677830D01*
X55946454Y-80677834D01*
X56020899Y-80784151D01*
X56081992Y-80871401D01*
X56249086Y-81038495D01*
X56408344Y-81150009D01*
X56435081Y-81168730D01*
X56478706Y-81223307D01*
X56485900Y-81292805D01*
X56454377Y-81355160D01*
X56435082Y-81371880D01*
X56249409Y-81501890D01*
X56249407Y-81501891D01*
X56082378Y-81668920D01*
X56082373Y-81668926D01*
X55946887Y-81862420D01*
X55946886Y-81862422D01*
X55847057Y-82076507D01*
X55847054Y-82076513D01*
X55789851Y-82289999D01*
X55789851Y-82290000D01*
X56687475Y-82290000D01*
X56654562Y-82347007D01*
X56620487Y-82474174D01*
X56620487Y-82605826D01*
X56654562Y-82732993D01*
X56687475Y-82790000D01*
X55789851Y-82790000D01*
X55847054Y-83003486D01*
X55847057Y-83003492D01*
X55946886Y-83217578D01*
X56082381Y-83411082D01*
X56249404Y-83578105D01*
X56442908Y-83713600D01*
X56656994Y-83813429D01*
X56657003Y-83813433D01*
X56870487Y-83870634D01*
X56870487Y-82973012D01*
X56927494Y-83005925D01*
X57054661Y-83040000D01*
X57186313Y-83040000D01*
X57313480Y-83005925D01*
X57370487Y-82973012D01*
X57370487Y-83870633D01*
X57583970Y-83813433D01*
X57583979Y-83813429D01*
X57798065Y-83713600D01*
X57991569Y-83578105D01*
X58158592Y-83411082D01*
X58288912Y-83224968D01*
X58343489Y-83181344D01*
X58412988Y-83174151D01*
X58475342Y-83205673D01*
X58492062Y-83224968D01*
X58622381Y-83411082D01*
X58789404Y-83578105D01*
X58982908Y-83713600D01*
X59196994Y-83813429D01*
X59197003Y-83813433D01*
X59410487Y-83870634D01*
X59410487Y-82973012D01*
X59467494Y-83005925D01*
X59594661Y-83040000D01*
X59726313Y-83040000D01*
X59853480Y-83005925D01*
X59910487Y-82973012D01*
X59910487Y-83870633D01*
X60123970Y-83813433D01*
X60123979Y-83813429D01*
X60338065Y-83713600D01*
X60531569Y-83578105D01*
X60698592Y-83411082D01*
X60828606Y-83225405D01*
X60883183Y-83181781D01*
X60952682Y-83174588D01*
X61015036Y-83206110D01*
X61031756Y-83225405D01*
X61161992Y-83411401D01*
X61329086Y-83578495D01*
X61385998Y-83618345D01*
X61522652Y-83714032D01*
X61522654Y-83714033D01*
X61522657Y-83714035D01*
X61736824Y-83813903D01*
X61965079Y-83875063D01*
X62153405Y-83891539D01*
X62200486Y-83895659D01*
X62200487Y-83895659D01*
X62200488Y-83895659D01*
X62239721Y-83892226D01*
X62435895Y-83875063D01*
X62664150Y-83813903D01*
X62878317Y-83714035D01*
X63071888Y-83578495D01*
X63238982Y-83411401D01*
X63368912Y-83225842D01*
X63423489Y-83182217D01*
X63492987Y-83175023D01*
X63555342Y-83206546D01*
X63572062Y-83225842D01*
X63701987Y-83411395D01*
X63701992Y-83411401D01*
X63869086Y-83578495D01*
X63925998Y-83618345D01*
X64062652Y-83714032D01*
X64062654Y-83714033D01*
X64062657Y-83714035D01*
X64276824Y-83813903D01*
X64505079Y-83875063D01*
X64693405Y-83891539D01*
X64740486Y-83895659D01*
X64740487Y-83895659D01*
X64740488Y-83895659D01*
X64779721Y-83892226D01*
X64975895Y-83875063D01*
X65204150Y-83813903D01*
X65418317Y-83714035D01*
X65611888Y-83578495D01*
X65778982Y-83411401D01*
X65908912Y-83225842D01*
X65963489Y-83182217D01*
X66032987Y-83175023D01*
X66095342Y-83206546D01*
X66112062Y-83225842D01*
X66241987Y-83411395D01*
X66241992Y-83411401D01*
X66409086Y-83578495D01*
X66465998Y-83618345D01*
X66602652Y-83714032D01*
X66602654Y-83714033D01*
X66602657Y-83714035D01*
X66816824Y-83813903D01*
X67045079Y-83875063D01*
X67233405Y-83891539D01*
X67280486Y-83895659D01*
X67280487Y-83895659D01*
X67280488Y-83895659D01*
X67319721Y-83892226D01*
X67515895Y-83875063D01*
X67516130Y-83875000D01*
X109355487Y-83875000D01*
X110080487Y-83875000D01*
X110580487Y-83875000D01*
X111840487Y-83875000D01*
X111840487Y-83175000D01*
X112340487Y-83175000D01*
X112340487Y-83875000D01*
X113065486Y-83875000D01*
X113065486Y-83851692D01*
X113065485Y-83851677D01*
X113055342Y-83752392D01*
X113002034Y-83591518D01*
X113002029Y-83591507D01*
X112913062Y-83447271D01*
X112913059Y-83447267D01*
X112793219Y-83327427D01*
X112793215Y-83327424D01*
X112648979Y-83238457D01*
X112648968Y-83238452D01*
X112488093Y-83185144D01*
X112388809Y-83175000D01*
X112340487Y-83175000D01*
X111840487Y-83175000D01*
X111840486Y-83174999D01*
X111792180Y-83175000D01*
X111792162Y-83175001D01*
X111692879Y-83185144D01*
X111532005Y-83238452D01*
X111531994Y-83238457D01*
X111387758Y-83327424D01*
X111298168Y-83417014D01*
X111236844Y-83450498D01*
X111167153Y-83445514D01*
X111122806Y-83417014D01*
X111033215Y-83327424D01*
X110888979Y-83238457D01*
X110888968Y-83238452D01*
X110728093Y-83185144D01*
X110628809Y-83175000D01*
X110580487Y-83175000D01*
X110580487Y-83875000D01*
X110080487Y-83875000D01*
X110080487Y-83175000D01*
X110080486Y-83174999D01*
X110032180Y-83175000D01*
X110032162Y-83175001D01*
X109932879Y-83185144D01*
X109772005Y-83238452D01*
X109771994Y-83238457D01*
X109627758Y-83327424D01*
X109627754Y-83327427D01*
X109507914Y-83447267D01*
X109507911Y-83447271D01*
X109418944Y-83591507D01*
X109418939Y-83591518D01*
X109365631Y-83752393D01*
X109355487Y-83851677D01*
X109355487Y-83875000D01*
X67516130Y-83875000D01*
X67744150Y-83813903D01*
X67958317Y-83714035D01*
X68151888Y-83578495D01*
X68318982Y-83411401D01*
X68454522Y-83217830D01*
X68554390Y-83003663D01*
X68608961Y-82800000D01*
X73485027Y-82800000D01*
X73504813Y-82988256D01*
X73504814Y-82988259D01*
X73563305Y-83168277D01*
X73563308Y-83168284D01*
X73657954Y-83332216D01*
X73729252Y-83411400D01*
X73784616Y-83472888D01*
X73937752Y-83584148D01*
X73937757Y-83584151D01*
X74110679Y-83661142D01*
X74110684Y-83661144D01*
X74295841Y-83700500D01*
X74295842Y-83700500D01*
X74485131Y-83700500D01*
X74485133Y-83700500D01*
X74670290Y-83661144D01*
X74843217Y-83584151D01*
X74996358Y-83472888D01*
X75123020Y-83332216D01*
X75137168Y-83307709D01*
X75187731Y-83259494D01*
X75256337Y-83246269D01*
X75317441Y-83269391D01*
X75337751Y-83284147D01*
X75337757Y-83284151D01*
X75510679Y-83361142D01*
X75510684Y-83361144D01*
X75695841Y-83400500D01*
X75695842Y-83400500D01*
X75885131Y-83400500D01*
X75885133Y-83400500D01*
X76070290Y-83361144D01*
X76243217Y-83284151D01*
X76396358Y-83172888D01*
X76484497Y-83075000D01*
X113340488Y-83075000D01*
X113340488Y-83199986D01*
X113350981Y-83302697D01*
X113406128Y-83469119D01*
X113406130Y-83469124D01*
X113498171Y-83618345D01*
X113622141Y-83742315D01*
X113771362Y-83834356D01*
X113771367Y-83834358D01*
X113937789Y-83889505D01*
X113937796Y-83889506D01*
X114040506Y-83899999D01*
X114940486Y-83899999D01*
X114940487Y-83899998D01*
X114940487Y-83075000D01*
X115440487Y-83075000D01*
X115440487Y-83899999D01*
X116340459Y-83899999D01*
X116340473Y-83899998D01*
X116443184Y-83889505D01*
X116609606Y-83834358D01*
X116609611Y-83834356D01*
X116758832Y-83742315D01*
X116882802Y-83618345D01*
X116974843Y-83469124D01*
X116974845Y-83469119D01*
X117029992Y-83302697D01*
X117029993Y-83302690D01*
X117040486Y-83199986D01*
X117040487Y-83199973D01*
X117040487Y-83075000D01*
X115440487Y-83075000D01*
X114940487Y-83075000D01*
X113340488Y-83075000D01*
X76484497Y-83075000D01*
X76523020Y-83032216D01*
X76617666Y-82868284D01*
X76676161Y-82688256D01*
X76695947Y-82500000D01*
X76676161Y-82311744D01*
X76621599Y-82143823D01*
X76617668Y-82131722D01*
X76617667Y-82131721D01*
X76617666Y-82131716D01*
X76523020Y-81967784D01*
X76396358Y-81827112D01*
X76396357Y-81827111D01*
X76243221Y-81715851D01*
X76243216Y-81715848D01*
X76070294Y-81638857D01*
X76070289Y-81638855D01*
X75924488Y-81607865D01*
X75885133Y-81599500D01*
X75695841Y-81599500D01*
X75663384Y-81606398D01*
X75510684Y-81638855D01*
X75510679Y-81638857D01*
X75337757Y-81715848D01*
X75337752Y-81715851D01*
X75184616Y-81827111D01*
X75057952Y-81967785D01*
X75057950Y-81967788D01*
X75043802Y-81992293D01*
X74993234Y-82040507D01*
X74924627Y-82053728D01*
X74863532Y-82030608D01*
X74843221Y-82015851D01*
X74843216Y-82015848D01*
X74670294Y-81938857D01*
X74670289Y-81938855D01*
X74510900Y-81904977D01*
X74485133Y-81899500D01*
X74295841Y-81899500D01*
X74270074Y-81904977D01*
X74110684Y-81938855D01*
X74110679Y-81938857D01*
X73937757Y-82015848D01*
X73937752Y-82015851D01*
X73784616Y-82127111D01*
X73657953Y-82267785D01*
X73563308Y-82431715D01*
X73563305Y-82431722D01*
X73512972Y-82586632D01*
X73504813Y-82611744D01*
X73485027Y-82800000D01*
X68608961Y-82800000D01*
X68615550Y-82775408D01*
X68636146Y-82540000D01*
X68615550Y-82304592D01*
X68554390Y-82076337D01*
X68454522Y-81862171D01*
X68449217Y-81854595D01*
X68318983Y-81668600D01*
X68289238Y-81638855D01*
X68197054Y-81546671D01*
X68163571Y-81485351D01*
X68168555Y-81415659D01*
X68210426Y-81359725D01*
X68241402Y-81342810D01*
X68372818Y-81293796D01*
X68488033Y-81207546D01*
X68574283Y-81092331D01*
X68624578Y-80957483D01*
X68630987Y-80897873D01*
X68630986Y-80000000D01*
X80685027Y-80000000D01*
X80704813Y-80188256D01*
X80704814Y-80188259D01*
X80763305Y-80368277D01*
X80763308Y-80368284D01*
X80857954Y-80532216D01*
X80950522Y-80635023D01*
X80984616Y-80672888D01*
X81137752Y-80784148D01*
X81137757Y-80784151D01*
X81310679Y-80861142D01*
X81310684Y-80861144D01*
X81495841Y-80900500D01*
X81495842Y-80900500D01*
X81685131Y-80900500D01*
X81685133Y-80900500D01*
X81870290Y-80861144D01*
X82043217Y-80784151D01*
X82196358Y-80672888D01*
X82323020Y-80532216D01*
X82417666Y-80368284D01*
X82476161Y-80188256D01*
X82495947Y-80000000D01*
X82476161Y-79811744D01*
X82417666Y-79631716D01*
X82323020Y-79467784D01*
X82196358Y-79327112D01*
X82196357Y-79327111D01*
X82043221Y-79215851D01*
X82043216Y-79215848D01*
X81870294Y-79138857D01*
X81870289Y-79138855D01*
X81709037Y-79104581D01*
X81685133Y-79099500D01*
X81495841Y-79099500D01*
X81471937Y-79104581D01*
X81310684Y-79138855D01*
X81310679Y-79138857D01*
X81137757Y-79215848D01*
X81137752Y-79215851D01*
X80984616Y-79327111D01*
X80857953Y-79467785D01*
X80763308Y-79631715D01*
X80763305Y-79631722D01*
X80720132Y-79764596D01*
X80704813Y-79811744D01*
X80685027Y-80000000D01*
X68630986Y-80000000D01*
X68630986Y-79102128D01*
X68624578Y-79042517D01*
X68623297Y-79039083D01*
X68574284Y-78907671D01*
X68574280Y-78907664D01*
X68488034Y-78792455D01*
X68488031Y-78792452D01*
X68372822Y-78706206D01*
X68372815Y-78706202D01*
X68237969Y-78655908D01*
X68237970Y-78655908D01*
X68178370Y-78649501D01*
X68178368Y-78649500D01*
X68178360Y-78649500D01*
X68178351Y-78649500D01*
X66382616Y-78649500D01*
X66382610Y-78649501D01*
X66323003Y-78655908D01*
X66188158Y-78706202D01*
X66188151Y-78706206D01*
X66072942Y-78792452D01*
X66072939Y-78792455D01*
X65986693Y-78907664D01*
X65986690Y-78907669D01*
X65937676Y-79039083D01*
X65895804Y-79095016D01*
X65830340Y-79119433D01*
X65762067Y-79104581D01*
X65733813Y-79083430D01*
X65611889Y-78961506D01*
X65611882Y-78961501D01*
X65418321Y-78825967D01*
X65418317Y-78825965D01*
X65418315Y-78825964D01*
X65204150Y-78726097D01*
X65204146Y-78726096D01*
X65204142Y-78726094D01*
X64975900Y-78664938D01*
X64975890Y-78664936D01*
X64740488Y-78644341D01*
X64740486Y-78644341D01*
X64505083Y-78664936D01*
X64505073Y-78664938D01*
X64276831Y-78726094D01*
X64276822Y-78726098D01*
X64062658Y-78825964D01*
X64062656Y-78825965D01*
X63869084Y-78961505D01*
X63701992Y-79128597D01*
X63572062Y-79314158D01*
X63517485Y-79357783D01*
X63447987Y-79364977D01*
X63385632Y-79333454D01*
X63368912Y-79314158D01*
X63238981Y-79128597D01*
X63071889Y-78961506D01*
X63071882Y-78961501D01*
X62878321Y-78825967D01*
X62878317Y-78825965D01*
X62878315Y-78825964D01*
X62664150Y-78726097D01*
X62664146Y-78726096D01*
X62664142Y-78726094D01*
X62435900Y-78664938D01*
X62435890Y-78664936D01*
X62200488Y-78644341D01*
X62200486Y-78644341D01*
X61965083Y-78664936D01*
X61965073Y-78664938D01*
X61736831Y-78726094D01*
X61736822Y-78726098D01*
X61522658Y-78825964D01*
X61522656Y-78825965D01*
X61329084Y-78961505D01*
X61161992Y-79128597D01*
X61032062Y-79314158D01*
X60977485Y-79357783D01*
X60907987Y-79364977D01*
X60845632Y-79333454D01*
X60828912Y-79314158D01*
X60698981Y-79128597D01*
X60531889Y-78961506D01*
X60531882Y-78961501D01*
X60338321Y-78825967D01*
X60338317Y-78825965D01*
X60338315Y-78825964D01*
X60124150Y-78726097D01*
X60124146Y-78726096D01*
X60124142Y-78726094D01*
X59895900Y-78664938D01*
X59895890Y-78664936D01*
X59660488Y-78644341D01*
X59660486Y-78644341D01*
X59425083Y-78664936D01*
X59425073Y-78664938D01*
X59196831Y-78726094D01*
X59196822Y-78726098D01*
X58982658Y-78825964D01*
X58982656Y-78825965D01*
X58789084Y-78961505D01*
X58621992Y-79128597D01*
X58492062Y-79314158D01*
X58437485Y-79357783D01*
X58367987Y-79364977D01*
X58305632Y-79333454D01*
X58288912Y-79314158D01*
X58158981Y-79128597D01*
X57991889Y-78961506D01*
X57991882Y-78961501D01*
X57798321Y-78825967D01*
X57798317Y-78825965D01*
X57798315Y-78825964D01*
X57584150Y-78726097D01*
X57584146Y-78726096D01*
X57584142Y-78726094D01*
X57355900Y-78664938D01*
X57355890Y-78664936D01*
X57120488Y-78644341D01*
X57120486Y-78644341D01*
X56885083Y-78664936D01*
X56885073Y-78664938D01*
X56656831Y-78726094D01*
X56656822Y-78726098D01*
X56442658Y-78825964D01*
X56442656Y-78825965D01*
X56249084Y-78961505D01*
X56081992Y-79128597D01*
X55946452Y-79322169D01*
X55946451Y-79322171D01*
X55846585Y-79536335D01*
X55846581Y-79536344D01*
X55785425Y-79764586D01*
X55785423Y-79764596D01*
X55764828Y-79999999D01*
X55764828Y-80000000D01*
X55000000Y-80000000D01*
X55000000Y-78124000D01*
X55019685Y-78056961D01*
X55072489Y-78011206D01*
X55124000Y-78000000D01*
X106277705Y-78000000D01*
X106344744Y-78019685D01*
G37*
%TD.AperFunction*%
%TD*%
%TA.AperFunction,Conductor*%
%TO.N,GNDA*%
G36*
X106971896Y-118491588D02*
G01*
X107468732Y-118696417D01*
X107475075Y-118702739D01*
X107475966Y-118706832D01*
X107499521Y-119392351D01*
X107496380Y-119400737D01*
X107492882Y-119403305D01*
X106794723Y-119737720D01*
X106785782Y-119738203D01*
X106781396Y-119735441D01*
X106440099Y-119394144D01*
X106436672Y-119385871D01*
X106438283Y-119379946D01*
X106957351Y-118496477D01*
X106964496Y-118491082D01*
X106971896Y-118491588D01*
G37*
%TD.AperFunction*%
%TD*%
%TA.AperFunction,Conductor*%
%TO.N,GNDA*%
G36*
X111093303Y-110253383D02*
G01*
X111097691Y-110257074D01*
X111411567Y-110693165D01*
X111413619Y-110701882D01*
X111411567Y-110706835D01*
X111097691Y-111142925D01*
X111090077Y-111147638D01*
X111084364Y-111147145D01*
X110523356Y-110952727D01*
X110516661Y-110946780D01*
X110515487Y-110941672D01*
X110515487Y-110458327D01*
X110518914Y-110450054D01*
X110523352Y-110447274D01*
X111084364Y-110252854D01*
X111093303Y-110253383D01*
G37*
%TD.AperFunction*%
%TD*%
%TA.AperFunction,Conductor*%
%TO.N,+5V*%
G36*
X95440830Y-91507892D02*
G01*
X95442119Y-91509117D01*
X95922354Y-92041126D01*
X95925354Y-92049564D01*
X95925062Y-92051631D01*
X95772600Y-92703465D01*
X95767379Y-92710740D01*
X95761207Y-92712500D01*
X95277798Y-92712500D01*
X95269525Y-92709073D01*
X95267282Y-92705928D01*
X94964159Y-92084367D01*
X94963613Y-92075429D01*
X94965610Y-92071843D01*
X94982101Y-92051631D01*
X95424371Y-91509559D01*
X95432254Y-91505317D01*
X95440830Y-91507892D01*
G37*
%TD.AperFunction*%
%TD*%
%TA.AperFunction,Conductor*%
%TO.N,+5V*%
G36*
X95768288Y-92990927D02*
G01*
X95771643Y-92997908D01*
X95820099Y-93434015D01*
X95818895Y-93440621D01*
X95530911Y-94005551D01*
X95524100Y-94011365D01*
X95515173Y-94010661D01*
X95510063Y-94005551D01*
X95222078Y-93440621D01*
X95220874Y-93434015D01*
X95269331Y-92997908D01*
X95273650Y-92990064D01*
X95280959Y-92987500D01*
X95760015Y-92987500D01*
X95768288Y-92990927D01*
G37*
%TD.AperFunction*%
%TD*%
%TA.AperFunction,Conductor*%
%TO.N,+5V*%
G36*
X95820346Y-91499968D02*
G01*
X95828611Y-91503416D01*
X95832017Y-91511697D01*
X95831980Y-91512599D01*
X95771347Y-92271826D01*
X95767272Y-92279801D01*
X95759684Y-92282595D01*
X95278955Y-92282595D01*
X95270682Y-92279168D01*
X95267841Y-92274551D01*
X95066818Y-91663360D01*
X95067488Y-91654430D01*
X95073428Y-91648906D01*
X95430816Y-91499904D01*
X95435337Y-91499005D01*
X95820346Y-91499968D01*
G37*
%TD.AperFunction*%
%TD*%
%TA.AperFunction,Conductor*%
%TO.N,+5V*%
G36*
X61960211Y-109678427D02*
G01*
X61963085Y-109683144D01*
X62145880Y-110256122D01*
X62145129Y-110265045D01*
X62141922Y-110268909D01*
X61722676Y-110595401D01*
X61714043Y-110597781D01*
X61708298Y-110595401D01*
X61288945Y-110268826D01*
X61284523Y-110261039D01*
X61284933Y-110256216D01*
X61457975Y-109683317D01*
X61463647Y-109676388D01*
X61469175Y-109675000D01*
X61951938Y-109675000D01*
X61960211Y-109678427D01*
G37*
%TD.AperFunction*%
%TD*%
%TA.AperFunction,Conductor*%
%TO.N,+5V*%
G36*
X100353332Y-91507918D02*
G01*
X100354700Y-91509207D01*
X100834908Y-92041186D01*
X100837908Y-92049624D01*
X100837643Y-92051569D01*
X100692526Y-92703343D01*
X100687383Y-92710673D01*
X100681106Y-92712500D01*
X100197731Y-92712500D01*
X100189458Y-92709073D01*
X100187258Y-92706015D01*
X99880495Y-92089997D01*
X99879874Y-92081064D01*
X99881839Y-92077465D01*
X99904154Y-92049624D01*
X100336887Y-91509729D01*
X100344734Y-91505417D01*
X100353332Y-91507918D01*
G37*
%TD.AperFunction*%
%TD*%
%TA.AperFunction,Conductor*%
%TO.N,+5V*%
G36*
X100688288Y-92990927D02*
G01*
X100691643Y-92997908D01*
X100740099Y-93434015D01*
X100738895Y-93440621D01*
X100450911Y-94005551D01*
X100444100Y-94011365D01*
X100435173Y-94010661D01*
X100430063Y-94005551D01*
X100142078Y-93440621D01*
X100140874Y-93434015D01*
X100189331Y-92997908D01*
X100193650Y-92990064D01*
X100200959Y-92987500D01*
X100680015Y-92987500D01*
X100688288Y-92990927D01*
G37*
%TD.AperFunction*%
%TD*%
%TA.AperFunction,Conductor*%
%TO.N,+5V*%
G36*
X100732966Y-91499968D02*
G01*
X100741230Y-91503416D01*
X100744636Y-91511697D01*
X100744607Y-91512490D01*
X100691253Y-92270225D01*
X100687254Y-92278237D01*
X100679582Y-92281103D01*
X100198854Y-92281103D01*
X100190581Y-92277676D01*
X100187782Y-92273185D01*
X99979476Y-91663438D01*
X99980045Y-91654502D01*
X99986044Y-91648857D01*
X100343316Y-91499904D01*
X100347837Y-91499005D01*
X100732966Y-91499968D01*
G37*
%TD.AperFunction*%
%TD*%
%TA.AperFunction,Conductor*%
%TO.N,+5V*%
G36*
X62453904Y-108002422D02*
G01*
X62798884Y-108347890D01*
X63148496Y-108697997D01*
X63151917Y-108706272D01*
X63148484Y-108714543D01*
X63147657Y-108715294D01*
X61963727Y-109690813D01*
X61956287Y-109693483D01*
X61472118Y-109693483D01*
X61463845Y-109690056D01*
X61460418Y-109681852D01*
X61450556Y-108011755D01*
X61453934Y-108003464D01*
X61462186Y-107999988D01*
X62445631Y-107999004D01*
X62453904Y-108002422D01*
G37*
%TD.AperFunction*%
%TD*%
%TA.AperFunction,Conductor*%
%TO.N,+5V*%
G36*
X81472674Y-114754597D02*
G01*
X81791344Y-115002764D01*
X81891974Y-115081131D01*
X81896396Y-115088918D01*
X81895959Y-115093832D01*
X81718043Y-115666770D01*
X81712316Y-115673654D01*
X81706869Y-115675000D01*
X81224105Y-115675000D01*
X81215832Y-115671573D01*
X81212931Y-115666770D01*
X81035014Y-115093832D01*
X81035834Y-115084915D01*
X81038997Y-115081132D01*
X81458298Y-114754597D01*
X81466931Y-114752218D01*
X81472674Y-114754597D01*
G37*
%TD.AperFunction*%
%TD*%
%TA.AperFunction,Conductor*%
%TO.N,+5V*%
G36*
X81715729Y-114764367D02*
G01*
X81718374Y-114768434D01*
X82330268Y-116356678D01*
X82330044Y-116365630D01*
X82323837Y-116371689D01*
X81414974Y-116749136D01*
X81406020Y-116749145D01*
X81406000Y-116749136D01*
X80814124Y-116503333D01*
X80497766Y-116371951D01*
X80491440Y-116365614D01*
X80491449Y-116356660D01*
X80491579Y-116356358D01*
X81212372Y-114767806D01*
X81218912Y-114761688D01*
X81223027Y-114760940D01*
X81707456Y-114760940D01*
X81715729Y-114764367D01*
G37*
%TD.AperFunction*%
%TD*%
%TA.AperFunction,Conductor*%
%TO.N,/OPEN_BUTTON*%
G36*
X69228799Y-98999988D02*
G01*
X69237068Y-99003423D01*
X69240487Y-99011688D01*
X69240487Y-100711894D01*
X69237060Y-100720167D01*
X69228787Y-100723594D01*
X68744757Y-100723594D01*
X68737221Y-100720844D01*
X67543122Y-99715311D01*
X67539001Y-99707360D01*
X67541708Y-99698825D01*
X67542364Y-99698109D01*
X68237056Y-99002435D01*
X68245321Y-98999004D01*
X69228799Y-98999988D01*
G37*
%TD.AperFunction*%
%TD*%
%TA.AperFunction,Conductor*%
%TO.N,/OPEN_BUTTON*%
G36*
X68345703Y-97083183D02*
G01*
X68347520Y-97084667D01*
X68689242Y-97426389D01*
X68691839Y-97430335D01*
X69160100Y-98606599D01*
X69159976Y-98615553D01*
X69153712Y-98621734D01*
X68244264Y-98998847D01*
X68235309Y-98998850D01*
X68235295Y-98998844D01*
X67329700Y-98622754D01*
X67323373Y-98616416D01*
X67323382Y-98607462D01*
X67324430Y-98605493D01*
X68329490Y-97086484D01*
X68336913Y-97081475D01*
X68345703Y-97083183D01*
G37*
%TD.AperFunction*%
%TD*%
%TA.AperFunction,Conductor*%
%TO.N,/OPEN_BUTTON*%
G36*
X68758712Y-96996574D02*
G01*
X68765345Y-97002588D01*
X68766377Y-97006141D01*
X68851717Y-97690721D01*
X68849340Y-97699354D01*
X68844078Y-97703173D01*
X68267413Y-97911266D01*
X68263442Y-97911961D01*
X67783493Y-97911961D01*
X67775220Y-97908534D01*
X67771793Y-97900261D01*
X67772802Y-97895508D01*
X68168219Y-97006141D01*
X68248576Y-96825402D01*
X68255067Y-96819236D01*
X68263208Y-96819142D01*
X68758712Y-96996574D01*
G37*
%TD.AperFunction*%
%TD*%
%TA.AperFunction,Conductor*%
%TO.N,/OPEN_BUTTON*%
G36*
X69240142Y-100078427D02*
G01*
X69243043Y-100083230D01*
X69420959Y-100656167D01*
X69420139Y-100665084D01*
X69416974Y-100668868D01*
X68997676Y-100995401D01*
X68989043Y-100997781D01*
X68983298Y-100995401D01*
X68563999Y-100668868D01*
X68559577Y-100661081D01*
X68560014Y-100656167D01*
X68737931Y-100083230D01*
X68743658Y-100076346D01*
X68749105Y-100075000D01*
X69231869Y-100075000D01*
X69240142Y-100078427D01*
G37*
%TD.AperFunction*%
%TD*%
%TA.AperFunction,Conductor*%
%TO.N,/CLOSE_BUTTON*%
G36*
X81828553Y-98622252D02*
G01*
X82736702Y-98997437D01*
X82743040Y-99003764D01*
X82743049Y-99003784D01*
X83119084Y-99913990D01*
X83119075Y-99922944D01*
X83113683Y-99928830D01*
X81660527Y-100687153D01*
X81651607Y-100687942D01*
X81646841Y-100685053D01*
X81304305Y-100342517D01*
X81300878Y-100334244D01*
X81301373Y-100330881D01*
X81812884Y-98629697D01*
X81818547Y-98622762D01*
X81827457Y-98621863D01*
X81828553Y-98622252D01*
G37*
%TD.AperFunction*%
%TD*%
%TA.AperFunction,Conductor*%
%TO.N,/CLOSE_BUTTON*%
G36*
X81814628Y-99837746D02*
G01*
X82155382Y-100178500D01*
X82158809Y-100186773D01*
X82158231Y-100190405D01*
X81919016Y-100922838D01*
X81913190Y-100929639D01*
X81904584Y-100930428D01*
X81469779Y-100802181D01*
X81462813Y-100796554D01*
X81462540Y-100796019D01*
X81241591Y-100333569D01*
X81241117Y-100324627D01*
X81244463Y-100319703D01*
X81798674Y-99837194D01*
X81807162Y-99834347D01*
X81814628Y-99837746D01*
G37*
%TD.AperFunction*%
%TD*%
%TA.AperFunction,Conductor*%
%TO.N,/CLOSE_BUTTON*%
G36*
X81741674Y-101690927D02*
G01*
X81743770Y-101693781D01*
X82058798Y-102296527D01*
X82059593Y-102305446D01*
X82057707Y-102309074D01*
X81610605Y-102891082D01*
X81602848Y-102895555D01*
X81594199Y-102893232D01*
X81593598Y-102892737D01*
X81358401Y-102685764D01*
X81095534Y-102454441D01*
X81091588Y-102446405D01*
X81091783Y-102443409D01*
X81238630Y-101696942D01*
X81243589Y-101689486D01*
X81250110Y-101687500D01*
X81733401Y-101687500D01*
X81741674Y-101690927D01*
G37*
%TD.AperFunction*%
%TD*%
%TA.AperFunction,Conductor*%
%TO.N,/CLOSE_BUTTON*%
G36*
X81472674Y-100804597D02*
G01*
X81669991Y-100958259D01*
X81892238Y-101131337D01*
X81896660Y-101139124D01*
X81896350Y-101143598D01*
X81742811Y-101716330D01*
X81737359Y-101723433D01*
X81731510Y-101725000D01*
X81248765Y-101725000D01*
X81240492Y-101721573D01*
X81237732Y-101717194D01*
X81035419Y-101144050D01*
X81035897Y-101135108D01*
X81039260Y-101130927D01*
X81458298Y-100804597D01*
X81466931Y-100802218D01*
X81472674Y-100804597D01*
G37*
%TD.AperFunction*%
%TD*%
%TA.AperFunction,Conductor*%
%TO.N,/VBAT_BEFORE_FUSE*%
G36*
X117942388Y-84977948D02*
G01*
X117945814Y-84980321D01*
X118733197Y-85766723D01*
X118736629Y-85774994D01*
X118733207Y-85783269D01*
X118733197Y-85783279D01*
X117945814Y-86569680D01*
X117937539Y-86573102D01*
X117933438Y-86572357D01*
X117148079Y-86277847D01*
X117141536Y-86271733D01*
X117140487Y-86266892D01*
X117140487Y-85775001D01*
X117140487Y-85283105D01*
X117143914Y-85274835D01*
X117148073Y-85272156D01*
X117933438Y-84977644D01*
X117942388Y-84977948D01*
G37*
%TD.AperFunction*%
%TD*%
%TA.AperFunction,Conductor*%
%TO.N,/VBAT_BEFORE_FUSE*%
G36*
X117104846Y-85274033D02*
G01*
X117112774Y-85278195D01*
X117115486Y-85285685D01*
X117115486Y-86264315D01*
X117112059Y-86272588D01*
X117104845Y-86275967D01*
X116293912Y-86349688D01*
X116287437Y-86348407D01*
X115209346Y-85785371D01*
X115203599Y-85778503D01*
X115204391Y-85769584D01*
X115209346Y-85764629D01*
X116287441Y-85201591D01*
X116293912Y-85200311D01*
X117104846Y-85274033D01*
G37*
%TD.AperFunction*%
%TD*%
%TA.AperFunction,Conductor*%
%TO.N,/VBAT_BEFORE_FUSE*%
G36*
X114093534Y-85201591D02*
G01*
X114586856Y-85459230D01*
X115171628Y-85764629D01*
X115177375Y-85771497D01*
X115176583Y-85780416D01*
X115171628Y-85785371D01*
X114093536Y-86348407D01*
X114087061Y-86349688D01*
X113276128Y-86275967D01*
X113268199Y-86271805D01*
X113265487Y-86264315D01*
X113265487Y-85285684D01*
X113268914Y-85277411D01*
X113276126Y-85274032D01*
X114087062Y-85200311D01*
X114093534Y-85201591D01*
G37*
%TD.AperFunction*%
%TD*%
%TA.AperFunction,Conductor*%
%TO.N,GNDPWR*%
G36*
X107188376Y-112778350D02*
G01*
X107191285Y-112781787D01*
X107434305Y-113217479D01*
X107435342Y-113226373D01*
X107432566Y-113231240D01*
X107061846Y-113621093D01*
X107053661Y-113624727D01*
X107048046Y-113623451D01*
X106518879Y-113353257D01*
X106513070Y-113346443D01*
X106512500Y-113342837D01*
X106512500Y-112860471D01*
X106515927Y-112852198D01*
X106522906Y-112848843D01*
X107179775Y-112775858D01*
X107188376Y-112778350D01*
G37*
%TD.AperFunction*%
%TD*%
%TA.AperFunction,Conductor*%
%TO.N,GNDPWR*%
G36*
X131869782Y-91199156D02*
G01*
X131876346Y-91205246D01*
X131876681Y-91214195D01*
X131875942Y-91215803D01*
X131643579Y-91634441D01*
X131641622Y-91637036D01*
X131506895Y-91771763D01*
X131498622Y-91775190D01*
X131494135Y-91774295D01*
X130363093Y-91304477D01*
X130356767Y-91298139D01*
X130356765Y-91289211D01*
X130387707Y-91214195D01*
X130585477Y-90734724D01*
X130591799Y-90728384D01*
X130600360Y-90728218D01*
X131869782Y-91199156D01*
G37*
%TD.AperFunction*%
%TD*%
%TA.AperFunction,Conductor*%
%TO.N,GNDPWR*%
G36*
X130858876Y-90551111D02*
G01*
X130864871Y-90556743D01*
X131119242Y-91073470D01*
X131153224Y-91142499D01*
X131153803Y-91151435D01*
X131151000Y-91155939D01*
X131020584Y-91286355D01*
X131012311Y-91289782D01*
X131008673Y-91289202D01*
X130853026Y-91238271D01*
X130349390Y-91073470D01*
X130342593Y-91067640D01*
X130341909Y-91058711D01*
X130342202Y-91057915D01*
X130487924Y-90703802D01*
X130494240Y-90697457D01*
X130849922Y-90551090D01*
X130858876Y-90551111D01*
G37*
%TD.AperFunction*%
%TD*%
%TA.AperFunction,Conductor*%
%TO.N,GNDPWR*%
G36*
X97415787Y-114005470D02*
G01*
X97421476Y-114012385D01*
X97421984Y-114015795D01*
X97421984Y-114497415D01*
X97420895Y-114502344D01*
X96959314Y-115495978D01*
X96952721Y-115502038D01*
X96944231Y-115501861D01*
X96218976Y-115201856D01*
X96212641Y-115195527D01*
X96212633Y-115195509D01*
X95926452Y-114502344D01*
X95914254Y-114472798D01*
X95914265Y-114463844D01*
X95920604Y-114457519D01*
X95921650Y-114457145D01*
X97406876Y-114004603D01*
X97415787Y-114005470D01*
G37*
%TD.AperFunction*%
%TD*%
%TA.AperFunction,Conductor*%
%TO.N,GNDPWR*%
G36*
X125954355Y-98834945D02*
G01*
X126583287Y-99097000D01*
X126589606Y-99103345D01*
X126590487Y-99107800D01*
X126590487Y-99292199D01*
X126587060Y-99300472D01*
X126583287Y-99302999D01*
X125954357Y-99565053D01*
X125945402Y-99565072D01*
X125939058Y-99558755D01*
X125791362Y-99204499D01*
X125791342Y-99195550D01*
X125939059Y-98841242D01*
X125945405Y-98834926D01*
X125954355Y-98834945D01*
G37*
%TD.AperFunction*%
%TD*%
%TA.AperFunction,Conductor*%
%TO.N,GNDPWR*%
G36*
X131496814Y-113432710D02*
G01*
X132027916Y-114002286D01*
X132337344Y-114334129D01*
X132340487Y-114342108D01*
X132340487Y-114825932D01*
X132337060Y-114834205D01*
X132328920Y-114837631D01*
X131245842Y-114849939D01*
X131237530Y-114846607D01*
X131236941Y-114845987D01*
X131229558Y-114837631D01*
X130954980Y-114526856D01*
X130498990Y-114010755D01*
X130496080Y-114002286D01*
X130500011Y-113994240D01*
X130501930Y-113992863D01*
X131482438Y-113430540D01*
X131491319Y-113429397D01*
X131496814Y-113432710D01*
G37*
%TD.AperFunction*%
%TD*%
%TA.AperFunction,Conductor*%
%TO.N,GNDPWR*%
G36*
X132447141Y-114096828D02*
G01*
X132450047Y-114098752D01*
X132981865Y-114578815D01*
X132985710Y-114586902D01*
X132982710Y-114595340D01*
X132981865Y-114596185D01*
X132450047Y-115076247D01*
X132441609Y-115079247D01*
X132438194Y-115078552D01*
X131785674Y-114840306D01*
X131779078Y-114834250D01*
X131777987Y-114829316D01*
X131777987Y-114345683D01*
X131781414Y-114337410D01*
X131785672Y-114334693D01*
X132438195Y-114096447D01*
X132447141Y-114096828D01*
G37*
%TD.AperFunction*%
%TD*%
%TA.AperFunction,Conductor*%
%TO.N,GNDPWR*%
G36*
X99771590Y-113214558D02*
G01*
X100112887Y-113555855D01*
X100116314Y-113564128D01*
X100114702Y-113570055D01*
X99595636Y-114453519D01*
X99588490Y-114458916D01*
X99581089Y-114458409D01*
X99084254Y-114253582D01*
X99077911Y-114247260D01*
X99077021Y-114243172D01*
X99053465Y-113557646D01*
X99056606Y-113549262D01*
X99060102Y-113546695D01*
X99758263Y-113212278D01*
X99767204Y-113211796D01*
X99771590Y-113214558D01*
G37*
%TD.AperFunction*%
%TD*%
%TA.AperFunction,Conductor*%
%TO.N,GNDPWR*%
G36*
X98583885Y-113743602D02*
G01*
X99070990Y-114241821D01*
X99074323Y-114250132D01*
X99070990Y-114258179D01*
X98583885Y-114756397D01*
X98575651Y-114759917D01*
X98570286Y-114758683D01*
X98059454Y-114503233D01*
X98053587Y-114496467D01*
X98052987Y-114492768D01*
X98052987Y-114007231D01*
X98056414Y-113998958D01*
X98059454Y-113996766D01*
X98570288Y-113741315D01*
X98579218Y-113740681D01*
X98583885Y-113743602D01*
G37*
%TD.AperFunction*%
%TD*%
%TA.AperFunction,Conductor*%
%TO.N,GNDPWR*%
G36*
X128985557Y-79242325D02*
G01*
X128990336Y-79249898D01*
X128990505Y-79251865D01*
X128991487Y-80000000D01*
X128991487Y-80000030D01*
X128990505Y-80748134D01*
X128987067Y-80756403D01*
X128978790Y-80759819D01*
X128976823Y-80759650D01*
X127476205Y-80501670D01*
X127468632Y-80496891D01*
X127466487Y-80490139D01*
X127466487Y-79509860D01*
X127469914Y-79501587D01*
X127476204Y-79498329D01*
X128976823Y-79240349D01*
X128985557Y-79242325D01*
G37*
%TD.AperFunction*%
%TD*%
%TA.AperFunction,Conductor*%
%TO.N,GNDPWR*%
G36*
X125446190Y-79425743D02*
G01*
X126005300Y-79498671D01*
X126013061Y-79503139D01*
X126015487Y-79510273D01*
X126015487Y-80489726D01*
X126012060Y-80497999D01*
X126005300Y-80501328D01*
X125446192Y-80574255D01*
X125437545Y-80571927D01*
X125436413Y-80570933D01*
X124872781Y-80008280D01*
X124869347Y-80000010D01*
X124872767Y-79991734D01*
X124872781Y-79991720D01*
X125436414Y-79429065D01*
X125444689Y-79425646D01*
X125446190Y-79425743D01*
G37*
%TD.AperFunction*%
%TD*%
%TA.AperFunction,Conductor*%
%TO.N,/CHARGER_SUPPLY*%
G36*
X101251550Y-105703427D02*
G01*
X101254777Y-105709544D01*
X101400395Y-106486179D01*
X101398551Y-106494942D01*
X101391051Y-106499835D01*
X101388924Y-106500035D01*
X101003016Y-106500999D01*
X101002958Y-106500999D01*
X100617049Y-106500035D01*
X100608784Y-106496587D01*
X100605378Y-106488306D01*
X100605578Y-106486179D01*
X100751197Y-105709544D01*
X100756090Y-105702044D01*
X100762697Y-105700000D01*
X101243277Y-105700000D01*
X101251550Y-105703427D01*
G37*
%TD.AperFunction*%
%TD*%
%TA.AperFunction,Conductor*%
%TO.N,/CHARGER_SUPPLY*%
G36*
X101388285Y-104843241D02*
G01*
X101823897Y-105096504D01*
X101829326Y-105103625D01*
X101829569Y-105104772D01*
X101902990Y-105564066D01*
X101900912Y-105572776D01*
X101893918Y-105577347D01*
X101242805Y-105718620D01*
X101233993Y-105717025D01*
X101232051Y-105715459D01*
X100891042Y-105374450D01*
X100887615Y-105366177D01*
X100890797Y-105358157D01*
X101373893Y-104845332D01*
X101382057Y-104841662D01*
X101388285Y-104843241D01*
G37*
%TD.AperFunction*%
%TD*%
%TA.AperFunction,Conductor*%
%TO.N,/CHARGER_SUPPLY*%
G36*
X102357396Y-116310317D02*
G01*
X102358892Y-116311581D01*
X102700910Y-116653599D01*
X102704337Y-116661872D01*
X102701910Y-116669007D01*
X101789286Y-117855138D01*
X101781525Y-117859605D01*
X101772878Y-117857276D01*
X101771750Y-117856286D01*
X101218221Y-117304139D01*
X101214784Y-117295871D01*
X101214784Y-117295846D01*
X101215338Y-116669007D01*
X101215478Y-116509877D01*
X101218912Y-116501608D01*
X101225225Y-116498352D01*
X102348668Y-116308318D01*
X102357396Y-116310317D01*
G37*
%TD.AperFunction*%
%TD*%
%TA.AperFunction,Conductor*%
%TO.N,/CHARGER_SUPPLY*%
G36*
X102524450Y-115866631D02*
G01*
X102986148Y-116022588D01*
X102992890Y-116028483D01*
X102993222Y-116029216D01*
X103173070Y-116465747D01*
X103173053Y-116474702D01*
X103168332Y-116480200D01*
X102462806Y-116909310D01*
X102453957Y-116910682D01*
X102448453Y-116907587D01*
X102107830Y-116566964D01*
X102104403Y-116558691D01*
X102106044Y-116552717D01*
X102510653Y-115871739D01*
X102517822Y-115866379D01*
X102524450Y-115866631D01*
G37*
%TD.AperFunction*%
%TD*%
%TA.AperFunction,Conductor*%
%TO.N,/CHARGER_SUPPLY*%
G36*
X107638462Y-115390927D02*
G01*
X107640705Y-115394072D01*
X107943827Y-116015631D01*
X107944373Y-116024569D01*
X107942376Y-116028155D01*
X107483617Y-116590438D01*
X107475732Y-116594682D01*
X107467156Y-116592107D01*
X107465867Y-116590882D01*
X106985632Y-116058873D01*
X106982632Y-116050435D01*
X106982924Y-116048368D01*
X107135387Y-115396535D01*
X107140609Y-115389260D01*
X107146780Y-115387500D01*
X107630189Y-115387500D01*
X107638462Y-115390927D01*
G37*
%TD.AperFunction*%
%TD*%
%TA.AperFunction,Conductor*%
%TO.N,/CHARGER_SUPPLY*%
G36*
X107444266Y-114779526D02*
G01*
X107819687Y-115086104D01*
X107861873Y-115120554D01*
X107866114Y-115128441D01*
X107865256Y-115134157D01*
X107640515Y-115667841D01*
X107634146Y-115674136D01*
X107629732Y-115675000D01*
X107146477Y-115675000D01*
X107138204Y-115671573D01*
X107135176Y-115666330D01*
X106981777Y-115094125D01*
X106982945Y-115085246D01*
X106986488Y-115081427D01*
X107430281Y-114778920D01*
X107439045Y-114777093D01*
X107444266Y-114779526D01*
G37*
%TD.AperFunction*%
%TD*%
%TA.AperFunction,Conductor*%
%TO.N,/CHARGER_SUPPLY*%
G36*
X107636063Y-115803427D02*
G01*
X107639290Y-115809544D01*
X107784908Y-116586179D01*
X107783064Y-116594942D01*
X107775564Y-116599835D01*
X107773437Y-116600035D01*
X107387529Y-116600999D01*
X107387471Y-116600999D01*
X107001562Y-116600035D01*
X106993297Y-116596587D01*
X106989891Y-116588306D01*
X106990091Y-116586179D01*
X107135710Y-115809544D01*
X107140603Y-115802044D01*
X107147210Y-115800000D01*
X107627790Y-115800000D01*
X107636063Y-115803427D01*
G37*
%TD.AperFunction*%
%TD*%
%TA.AperFunction,Conductor*%
%TO.N,/VSYS*%
G36*
X110808998Y-102204073D02*
G01*
X110813493Y-102211818D01*
X110813596Y-102213371D01*
X110813596Y-102397005D01*
X110812158Y-102402625D01*
X110479472Y-103010129D01*
X110472493Y-103015739D01*
X110463817Y-103014892D01*
X110006542Y-102777366D01*
X110000780Y-102770511D01*
X110000650Y-102770071D01*
X109883477Y-102337884D01*
X109884619Y-102329005D01*
X109891707Y-102323533D01*
X109893210Y-102323229D01*
X110800344Y-102201774D01*
X110808998Y-102204073D01*
G37*
%TD.AperFunction*%
%TD*%
%TA.AperFunction,Conductor*%
%TO.N,/VSYS*%
G36*
X112654415Y-101941244D02*
G01*
X112802110Y-102295498D01*
X112802131Y-102304452D01*
X112802110Y-102304502D01*
X112654415Y-102658755D01*
X112648068Y-102665073D01*
X112639116Y-102665053D01*
X112010187Y-102402999D01*
X112003868Y-102396654D01*
X112002987Y-102392199D01*
X112002987Y-102207800D01*
X112006414Y-102199527D01*
X112010187Y-102197000D01*
X112639118Y-101934945D01*
X112648071Y-101934927D01*
X112654415Y-101941244D01*
G37*
%TD.AperFunction*%
%TD*%
%TA.AperFunction,Conductor*%
%TO.N,/VSYS*%
G36*
X130589570Y-93678480D02*
G01*
X130595326Y-93684677D01*
X130817178Y-94242136D01*
X130817053Y-94251090D01*
X130813818Y-94255433D01*
X129920664Y-95003263D01*
X129912121Y-95005946D01*
X129904880Y-95002565D01*
X129210955Y-94308640D01*
X129207528Y-94300367D01*
X129208479Y-94295747D01*
X129278747Y-94132250D01*
X129285161Y-94126004D01*
X129285637Y-94125827D01*
X130580631Y-93677946D01*
X130589570Y-93678480D01*
G37*
%TD.AperFunction*%
%TD*%
%TA.AperFunction,Conductor*%
%TO.N,/CHARGER_BATSRC*%
G36*
X111598916Y-96258776D02*
G01*
X111911567Y-96693165D01*
X111913619Y-96701882D01*
X111911567Y-96706835D01*
X111598916Y-97141223D01*
X111591302Y-97145936D01*
X111583353Y-97144392D01*
X111021120Y-96803416D01*
X111015823Y-96796196D01*
X111015487Y-96793412D01*
X111015487Y-96606587D01*
X111018914Y-96598314D01*
X111021115Y-96596586D01*
X111583355Y-96255606D01*
X111592204Y-96254247D01*
X111598916Y-96258776D01*
G37*
%TD.AperFunction*%
%TD*%
%TA.AperFunction,Conductor*%
%TO.N,/CHARGER_BATSRC*%
G36*
X110754355Y-96334945D02*
G01*
X111383287Y-96597000D01*
X111389606Y-96603345D01*
X111390487Y-96607800D01*
X111390487Y-96792199D01*
X111387060Y-96800472D01*
X111383287Y-96802999D01*
X110754357Y-97065053D01*
X110745402Y-97065072D01*
X110739058Y-97058755D01*
X110591362Y-96704499D01*
X110591342Y-96695550D01*
X110739059Y-96341242D01*
X110745405Y-96334926D01*
X110754355Y-96334945D01*
G37*
%TD.AperFunction*%
%TD*%
%TA.AperFunction,Conductor*%
%TO.N,/CHARGER_BATSRC*%
G36*
X126586433Y-104703744D02*
G01*
X126590475Y-104711734D01*
X126590509Y-104712598D01*
X126591185Y-105095831D01*
X126587773Y-105104111D01*
X126587737Y-105104146D01*
X126316127Y-105374402D01*
X126307846Y-105377808D01*
X126299581Y-105374360D01*
X126299397Y-105374171D01*
X126034702Y-105095831D01*
X125844795Y-104896134D01*
X125841578Y-104887779D01*
X125845000Y-104879801D01*
X125975291Y-104749510D01*
X125982675Y-104746119D01*
X126577924Y-104700953D01*
X126586433Y-104703744D01*
G37*
%TD.AperFunction*%
%TD*%
%TA.AperFunction,Conductor*%
%TO.N,/CHARGER_BATSRC*%
G36*
X112003299Y-97966670D02*
G01*
X112806496Y-98197478D01*
X112813501Y-98203057D01*
X112814958Y-98209125D01*
X112791453Y-98893167D01*
X112787744Y-98901317D01*
X112784219Y-98903582D01*
X112288731Y-99107854D01*
X112279777Y-99107839D01*
X112273485Y-99101569D01*
X111898505Y-98209125D01*
X111858297Y-98113432D01*
X111858253Y-98104480D01*
X111860810Y-98100631D01*
X111991799Y-97969642D01*
X112000071Y-97966216D01*
X112003299Y-97966670D01*
G37*
%TD.AperFunction*%
%TD*%
%TA.AperFunction,Conductor*%
%TO.N,/CHARGER_BATSRC*%
G36*
X110958175Y-96551399D02*
G01*
X110964492Y-96557743D01*
X111223913Y-97187762D01*
X111223894Y-97196717D01*
X111221367Y-97200490D01*
X111090977Y-97330880D01*
X111082704Y-97334307D01*
X111078249Y-97333426D01*
X110448230Y-97074005D01*
X110441885Y-97067686D01*
X110441865Y-97058735D01*
X110587924Y-96703802D01*
X110594240Y-96697457D01*
X110949222Y-96551378D01*
X110958175Y-96551399D01*
G37*
%TD.AperFunction*%
%TD*%
%TA.AperFunction,Conductor*%
%TO.N,/VBAT*%
G36*
X107897619Y-96155606D02*
G01*
X108459855Y-96496584D01*
X108465151Y-96503803D01*
X108465487Y-96506587D01*
X108465487Y-96693412D01*
X108462060Y-96701685D01*
X108459854Y-96703416D01*
X107897620Y-97044392D01*
X107888769Y-97045752D01*
X107882057Y-97041223D01*
X107779528Y-96898773D01*
X107569405Y-96606834D01*
X107567354Y-96598118D01*
X107569406Y-96593165D01*
X107882057Y-96158775D01*
X107889671Y-96154063D01*
X107897619Y-96155606D01*
G37*
%TD.AperFunction*%
%TD*%
%TA.AperFunction,Conductor*%
%TO.N,/VBAT*%
G36*
X108936390Y-96334274D02*
G01*
X108941362Y-96339918D01*
X109089610Y-96695498D01*
X109089631Y-96704452D01*
X109089610Y-96704502D01*
X108942582Y-97057154D01*
X108936235Y-97063472D01*
X108927281Y-97063451D01*
X108925842Y-97062732D01*
X108316137Y-96703394D01*
X108310750Y-96696241D01*
X108310378Y-96693314D01*
X108310378Y-96508956D01*
X108313805Y-96500683D01*
X108319024Y-96497662D01*
X108927509Y-96333126D01*
X108936390Y-96334274D01*
G37*
%TD.AperFunction*%
%TD*%
%TA.AperFunction,Conductor*%
%TO.N,/VBAT*%
G36*
X90227206Y-98999986D02*
G01*
X90235474Y-99003421D01*
X90238893Y-99011698D01*
X90238798Y-99013174D01*
X89991796Y-100940060D01*
X89987345Y-100947830D01*
X89980191Y-100950272D01*
X88998193Y-100950272D01*
X88989920Y-100946845D01*
X88987444Y-100943193D01*
X88321285Y-99393565D01*
X88321166Y-99384611D01*
X88327412Y-99378195D01*
X89238328Y-98999896D01*
X89242823Y-98999002D01*
X90227206Y-98999986D01*
G37*
%TD.AperFunction*%
%TD*%
%TA.AperFunction,Conductor*%
%TO.N,/VBAT*%
G36*
X101510081Y-109721674D02*
G01*
X101512439Y-109723145D01*
X102592632Y-110590879D01*
X102596936Y-110598731D01*
X102594426Y-110607327D01*
X102592632Y-110609121D01*
X101512439Y-111476854D01*
X101503843Y-111479364D01*
X101501136Y-111478737D01*
X100460711Y-111102790D01*
X100454095Y-111096755D01*
X100452987Y-111091786D01*
X100452987Y-110108213D01*
X100456414Y-110099940D01*
X100460711Y-110097209D01*
X101501138Y-109721262D01*
X101510081Y-109721674D01*
G37*
%TD.AperFunction*%
%TD*%
%TA.AperFunction,Conductor*%
%TO.N,/VBAT*%
G36*
X112306680Y-99771761D02*
G01*
X112521354Y-99904358D01*
X112992376Y-100195291D01*
X112997614Y-100202554D01*
X112997441Y-100208586D01*
X112793107Y-100894284D01*
X112787460Y-100901234D01*
X112784684Y-100902305D01*
X112290976Y-101023530D01*
X112282124Y-101022175D01*
X112276824Y-101014958D01*
X112276553Y-101013422D01*
X112189764Y-100208586D01*
X112157985Y-99913884D01*
X112160506Y-99905293D01*
X112161336Y-99904367D01*
X112292261Y-99773442D01*
X112300533Y-99770016D01*
X112306680Y-99771761D01*
G37*
%TD.AperFunction*%
%TD*%
%TA.AperFunction,Conductor*%
%TO.N,/VBAT*%
G36*
X109458175Y-96551399D02*
G01*
X109464492Y-96557743D01*
X109723913Y-97187762D01*
X109723894Y-97196717D01*
X109721367Y-97200490D01*
X109590977Y-97330880D01*
X109582704Y-97334307D01*
X109578249Y-97333426D01*
X108948230Y-97074005D01*
X108941885Y-97067686D01*
X108941865Y-97058735D01*
X109087924Y-96703802D01*
X109094240Y-96697457D01*
X109449222Y-96551378D01*
X109458175Y-96551399D01*
G37*
%TD.AperFunction*%
%TD*%
%TA.AperFunction,Conductor*%
%TO.N,/VBAT*%
G36*
X121294088Y-78666777D02*
G01*
X121430921Y-78706295D01*
X121437919Y-78711883D01*
X121438644Y-78713466D01*
X121912268Y-79990124D01*
X121911933Y-79999073D01*
X121905760Y-80005010D01*
X121348222Y-80234981D01*
X121339268Y-80234968D01*
X121334967Y-80231882D01*
X120587578Y-79380205D01*
X120584697Y-79371727D01*
X120588098Y-79364216D01*
X121282570Y-78669744D01*
X121290842Y-78666318D01*
X121294088Y-78666777D01*
G37*
%TD.AperFunction*%
%TD*%
%TA.AperFunction,Conductor*%
%TO.N,Net-(D1-A1)*%
G36*
X94822007Y-97203427D02*
G01*
X94823865Y-97205847D01*
X95335996Y-98092228D01*
X95337167Y-98101106D01*
X95334143Y-98106350D01*
X94449069Y-98992408D01*
X94440798Y-98995839D01*
X94432522Y-98992417D01*
X94432220Y-98992104D01*
X93610039Y-98107379D01*
X93606918Y-98098986D01*
X93609459Y-98092123D01*
X94316974Y-97204408D01*
X94324811Y-97200074D01*
X94326124Y-97200000D01*
X94813734Y-97200000D01*
X94822007Y-97203427D01*
G37*
%TD.AperFunction*%
%TD*%
%TA.AperFunction,Conductor*%
%TO.N,Net-(D1-A1)*%
G36*
X94575801Y-95914338D02*
G01*
X94580911Y-95919448D01*
X94868895Y-96484378D01*
X94870099Y-96490984D01*
X94821643Y-96927092D01*
X94817324Y-96934936D01*
X94810015Y-96937500D01*
X94330959Y-96937500D01*
X94322686Y-96934073D01*
X94319331Y-96927092D01*
X94270874Y-96490984D01*
X94272077Y-96484379D01*
X94560063Y-95919447D01*
X94566874Y-95913634D01*
X94575801Y-95914338D01*
G37*
%TD.AperFunction*%
%TD*%
%TA.AperFunction,Conductor*%
%TO.N,Net-(D1-K)*%
G36*
X97183077Y-100290927D02*
G01*
X97185794Y-100295187D01*
X97424039Y-100947707D01*
X97423658Y-100956654D01*
X97421734Y-100959560D01*
X96941672Y-101491378D01*
X96933585Y-101495223D01*
X96925147Y-101492223D01*
X96924302Y-101491378D01*
X96444239Y-100959560D01*
X96441239Y-100951122D01*
X96441932Y-100947711D01*
X96680180Y-100295186D01*
X96686236Y-100288591D01*
X96691170Y-100287500D01*
X97174804Y-100287500D01*
X97183077Y-100290927D01*
G37*
%TD.AperFunction*%
%TD*%
%TA.AperFunction,Conductor*%
%TO.N,Net-(D1-K)*%
G36*
X97800993Y-99339851D02*
G01*
X97807319Y-99346190D01*
X97807310Y-99355144D01*
X97807234Y-99355323D01*
X97186046Y-100783519D01*
X97179604Y-100789738D01*
X97175317Y-100790552D01*
X96691139Y-100790552D01*
X96682866Y-100787125D01*
X96680163Y-100782905D01*
X96152888Y-99354958D01*
X96153237Y-99346012D01*
X96159374Y-99340102D01*
X96975999Y-99000863D01*
X96984952Y-99000855D01*
X97800993Y-99339851D01*
G37*
%TD.AperFunction*%
%TD*%
%TA.AperFunction,Conductor*%
%TO.N,Net-(D1-A2)*%
G36*
X99496015Y-95915821D02*
G01*
X99501836Y-95921264D01*
X99789085Y-96484751D01*
X99790349Y-96490584D01*
X99770984Y-96926319D01*
X99767194Y-96934432D01*
X99759296Y-96937500D01*
X99280461Y-96937500D01*
X99272188Y-96934073D01*
X99268908Y-96927652D01*
X99209876Y-96559372D01*
X99210671Y-96552923D01*
X99480656Y-95921973D01*
X99487061Y-95915717D01*
X99496015Y-95915821D01*
G37*
%TD.AperFunction*%
%TD*%
%TA.AperFunction,Conductor*%
%TO.N,Net-(D1-A2)*%
G36*
X99770835Y-97203427D02*
G01*
X99773427Y-97207360D01*
X100347697Y-98644867D01*
X100347584Y-98653821D01*
X100341320Y-98660012D01*
X99524975Y-98999135D01*
X99516021Y-98999144D01*
X99515999Y-98999135D01*
X98699653Y-98660012D01*
X98693327Y-98653673D01*
X98693276Y-98644868D01*
X99267547Y-97207358D01*
X99273798Y-97200948D01*
X99278412Y-97200000D01*
X99762562Y-97200000D01*
X99770835Y-97203427D01*
G37*
%TD.AperFunction*%
%TD*%
%TA.AperFunction,Conductor*%
%TO.N,/LED_GREEN#*%
G36*
X98528327Y-91507776D02*
G01*
X98529172Y-91508621D01*
X99009234Y-92040439D01*
X99012234Y-92048877D01*
X99011539Y-92052292D01*
X98773294Y-92704813D01*
X98767238Y-92711409D01*
X98762304Y-92712500D01*
X98278670Y-92712500D01*
X98270397Y-92709073D01*
X98267680Y-92704813D01*
X98029434Y-92052292D01*
X98029815Y-92043345D01*
X98031736Y-92040442D01*
X98511802Y-91508620D01*
X98519889Y-91504776D01*
X98528327Y-91507776D01*
G37*
%TD.AperFunction*%
%TD*%
%TA.AperFunction,Conductor*%
%TO.N,/LED_GREEN#*%
G36*
X98768657Y-92990927D02*
G01*
X98771959Y-92997496D01*
X98827580Y-93375253D01*
X98826697Y-93381707D01*
X98550453Y-94003564D01*
X98543963Y-94009733D01*
X98535011Y-94009506D01*
X98529337Y-94004128D01*
X98241950Y-93440371D01*
X98240701Y-93434283D01*
X98269759Y-92998422D01*
X98273729Y-92990395D01*
X98281433Y-92987500D01*
X98760384Y-92987500D01*
X98768657Y-92990927D01*
G37*
%TD.AperFunction*%
%TD*%
%TA.AperFunction,Conductor*%
%TO.N,/LED_GREEN#*%
G36*
X98906426Y-91499964D02*
G01*
X98914689Y-91503412D01*
X98918095Y-91511693D01*
X98917895Y-91513820D01*
X98772277Y-92290456D01*
X98767384Y-92297956D01*
X98760777Y-92300000D01*
X98280197Y-92300000D01*
X98271924Y-92296573D01*
X98268697Y-92290456D01*
X98123078Y-91513820D01*
X98124922Y-91505057D01*
X98132422Y-91500164D01*
X98134539Y-91499964D01*
X98520487Y-91499000D01*
X98906426Y-91499964D01*
G37*
%TD.AperFunction*%
%TD*%
%TA.AperFunction,Conductor*%
%TO.N,/LED_RED#*%
G36*
X93615827Y-91507776D02*
G01*
X93616672Y-91508621D01*
X94096734Y-92040439D01*
X94099734Y-92048877D01*
X94099039Y-92052292D01*
X93860794Y-92704813D01*
X93854738Y-92711409D01*
X93849804Y-92712500D01*
X93366170Y-92712500D01*
X93357897Y-92709073D01*
X93355180Y-92704813D01*
X93116934Y-92052292D01*
X93117315Y-92043345D01*
X93119236Y-92040442D01*
X93599302Y-91508620D01*
X93607389Y-91504776D01*
X93615827Y-91507776D01*
G37*
%TD.AperFunction*%
%TD*%
%TA.AperFunction,Conductor*%
%TO.N,/LED_RED#*%
G36*
X93856017Y-92990927D02*
G01*
X93859341Y-92997653D01*
X93912517Y-93396313D01*
X93911521Y-93402811D01*
X93630627Y-94004285D01*
X93624021Y-94010331D01*
X93615075Y-94009935D01*
X93609602Y-94004648D01*
X93321999Y-93440467D01*
X93320763Y-93434183D01*
X93357093Y-92998228D01*
X93361195Y-92990268D01*
X93368753Y-92987500D01*
X93847744Y-92987500D01*
X93856017Y-92990927D01*
G37*
%TD.AperFunction*%
%TD*%
%TA.AperFunction,Conductor*%
%TO.N,/LED_RED#*%
G36*
X93993926Y-91499964D02*
G01*
X94002189Y-91503412D01*
X94005595Y-91511693D01*
X94005395Y-91513820D01*
X93859777Y-92290456D01*
X93854884Y-92297956D01*
X93848277Y-92300000D01*
X93367697Y-92300000D01*
X93359424Y-92296573D01*
X93356197Y-92290456D01*
X93210578Y-91513820D01*
X93212422Y-91505057D01*
X93219922Y-91500164D01*
X93222039Y-91499964D01*
X93607987Y-91499000D01*
X93993926Y-91499964D01*
G37*
%TD.AperFunction*%
%TD*%
%TA.AperFunction,Conductor*%
%TO.N,Net-(C12-Pad2)*%
G36*
X102077476Y-114000305D02*
G01*
X103032527Y-114024672D01*
X103040710Y-114028309D01*
X103043925Y-114036666D01*
X103043846Y-114037759D01*
X102992035Y-114470417D01*
X102987957Y-114477973D01*
X102571647Y-114828770D01*
X102563112Y-114831481D01*
X102557598Y-114829545D01*
X102070677Y-114503475D01*
X102065709Y-114496024D01*
X102065487Y-114493753D01*
X102065487Y-114012002D01*
X102068914Y-114003729D01*
X102077187Y-114000302D01*
X102077476Y-114000305D01*
G37*
%TD.AperFunction*%
%TD*%
%TA.AperFunction,Conductor*%
%TO.N,Net-(C12-Pad2)*%
G36*
X101410685Y-113741315D02*
G01*
X101921520Y-113996766D01*
X101927387Y-114003532D01*
X101927987Y-114007231D01*
X101927987Y-114492768D01*
X101924560Y-114501041D01*
X101921520Y-114503233D01*
X101410687Y-114758683D01*
X101401755Y-114759318D01*
X101397088Y-114756397D01*
X101146410Y-114500000D01*
X100909982Y-114258178D01*
X100906650Y-114249868D01*
X100909982Y-114241821D01*
X101397089Y-113743601D01*
X101405322Y-113740082D01*
X101410685Y-113741315D01*
G37*
%TD.AperFunction*%
%TD*%
%TA.AperFunction,Conductor*%
%TO.N,Net-(Q8-G)*%
G36*
X105877689Y-105317432D02*
G01*
X105883187Y-105322153D01*
X106312297Y-106027680D01*
X106313669Y-106036529D01*
X106310574Y-106042033D01*
X105969951Y-106382656D01*
X105961678Y-106386083D01*
X105955704Y-106384442D01*
X105274725Y-105979833D01*
X105269365Y-105972664D01*
X105269617Y-105966036D01*
X105425576Y-105504336D01*
X105431470Y-105497596D01*
X105432184Y-105497272D01*
X105868734Y-105317415D01*
X105877689Y-105317432D01*
G37*
%TD.AperFunction*%
%TD*%
%TA.AperFunction,Conductor*%
%TO.N,Net-(Q8-G)*%
G36*
X103709109Y-104652854D02*
G01*
X104270119Y-104847273D01*
X104276813Y-104853219D01*
X104277987Y-104858327D01*
X104277987Y-105341672D01*
X104274560Y-105349945D01*
X104270118Y-105352727D01*
X103709109Y-105547145D01*
X103700170Y-105546616D01*
X103695782Y-105542925D01*
X103381906Y-105106835D01*
X103379854Y-105098118D01*
X103381906Y-105093165D01*
X103695782Y-104657073D01*
X103703396Y-104652361D01*
X103709109Y-104652854D01*
G37*
%TD.AperFunction*%
%TD*%
%TA.AperFunction,Conductor*%
%TO.N,Net-(Q8-G)*%
G36*
X108530203Y-107352540D02*
G01*
X109324241Y-107498606D01*
X109331757Y-107503473D01*
X109333531Y-107507511D01*
X109489535Y-108191442D01*
X109488034Y-108200270D01*
X109483818Y-108204267D01*
X108987051Y-108480736D01*
X108978155Y-108481765D01*
X108971893Y-108477387D01*
X108518626Y-107853074D01*
X108516394Y-107846200D01*
X108516394Y-107364048D01*
X108519821Y-107355775D01*
X108528094Y-107352348D01*
X108530203Y-107352540D01*
G37*
%TD.AperFunction*%
%TD*%
%TA.AperFunction,Conductor*%
%TO.N,Net-(Q8-G)*%
G36*
X106923185Y-107091315D02*
G01*
X107434020Y-107346766D01*
X107439887Y-107353532D01*
X107440487Y-107357231D01*
X107440487Y-107842768D01*
X107437060Y-107851041D01*
X107434020Y-107853233D01*
X106923187Y-108108683D01*
X106914255Y-108109318D01*
X106909588Y-108106397D01*
X106658910Y-107850000D01*
X106422482Y-107608178D01*
X106419150Y-107599868D01*
X106422482Y-107591821D01*
X106909589Y-107093601D01*
X106917822Y-107090082D01*
X106923185Y-107091315D01*
G37*
%TD.AperFunction*%
%TD*%
%TA.AperFunction,Conductor*%
%TO.N,Net-(Q8-G)*%
G36*
X105652982Y-104578427D02*
G01*
X105655742Y-104582806D01*
X105858054Y-105155949D01*
X105857576Y-105164891D01*
X105854210Y-105169074D01*
X105435176Y-105495401D01*
X105426543Y-105497781D01*
X105420798Y-105495401D01*
X105001235Y-105168662D01*
X104996813Y-105160875D01*
X104997123Y-105156401D01*
X105150663Y-104583670D01*
X105156115Y-104576567D01*
X105161964Y-104575000D01*
X105644709Y-104575000D01*
X105652982Y-104578427D01*
G37*
%TD.AperFunction*%
%TD*%
%TA.AperFunction,Conductor*%
%TO.N,Net-(Q8-G)*%
G36*
X105788926Y-103599964D02*
G01*
X105797189Y-103603412D01*
X105800595Y-103611693D01*
X105800395Y-103613820D01*
X105654777Y-104390456D01*
X105649884Y-104397956D01*
X105643277Y-104400000D01*
X105162697Y-104400000D01*
X105154424Y-104396573D01*
X105151197Y-104390456D01*
X105005578Y-103613820D01*
X105007422Y-103605057D01*
X105014922Y-103600164D01*
X105017039Y-103599964D01*
X105402987Y-103599000D01*
X105788926Y-103599964D01*
G37*
%TD.AperFunction*%
%TD*%
%TA.AperFunction,Conductor*%
%TO.N,Net-(Q8-G)*%
G36*
X104600261Y-104852738D02*
G01*
X105467228Y-105022943D01*
X105474685Y-105027900D01*
X105476612Y-105035618D01*
X105429558Y-105494426D01*
X105425305Y-105502306D01*
X105424284Y-105503049D01*
X104993787Y-105782194D01*
X104984982Y-105783820D01*
X104978778Y-105780262D01*
X104589368Y-105353350D01*
X104586312Y-105345465D01*
X104586312Y-104864220D01*
X104589739Y-104855947D01*
X104598012Y-104852520D01*
X104600261Y-104852738D01*
G37*
%TD.AperFunction*%
%TD*%
%TA.AperFunction,Conductor*%
%TO.N,Net-(Q8-G)*%
G36*
X106526330Y-106251781D02*
G01*
X106528642Y-106255070D01*
X106892243Y-107027307D01*
X106892667Y-107036252D01*
X106890591Y-107039847D01*
X106424831Y-107590494D01*
X106416872Y-107594597D01*
X106408342Y-107591871D01*
X106407221Y-107590786D01*
X105927535Y-107060430D01*
X105924527Y-107051996D01*
X105925891Y-107047072D01*
X105929748Y-107039847D01*
X106167183Y-106595096D01*
X106169226Y-106592339D01*
X106509785Y-106251780D01*
X106518057Y-106248354D01*
X106526330Y-106251781D01*
G37*
%TD.AperFunction*%
%TD*%
%TA.AperFunction,Conductor*%
%TO.N,/CHARGER_BATDRV*%
G36*
X120002759Y-96963756D02*
G01*
X120383853Y-97146813D01*
X120389827Y-97153484D01*
X120390487Y-97157359D01*
X120390487Y-97342640D01*
X120387060Y-97350913D01*
X120383853Y-97353186D01*
X120002778Y-97536234D01*
X119993837Y-97536728D01*
X119992939Y-97536370D01*
X119577850Y-97350913D01*
X119375894Y-97260681D01*
X119369740Y-97254179D01*
X119369986Y-97245227D01*
X119375895Y-97239318D01*
X119992941Y-96963628D01*
X120001891Y-96963383D01*
X120002759Y-96963756D01*
G37*
%TD.AperFunction*%
%TD*%
%TA.AperFunction,Conductor*%
%TO.N,/CHARGER_BATDRV*%
G36*
X126590960Y-102303427D02*
G01*
X126593487Y-102307200D01*
X126855540Y-102936129D01*
X126855559Y-102945084D01*
X126849242Y-102951428D01*
X126494989Y-103099123D01*
X126486035Y-103099144D01*
X126485985Y-103099123D01*
X126131731Y-102951428D01*
X126125413Y-102945081D01*
X126125432Y-102936131D01*
X126387487Y-102307199D01*
X126393832Y-102300881D01*
X126398287Y-102300000D01*
X126582687Y-102300000D01*
X126590960Y-102303427D01*
G37*
%TD.AperFunction*%
%TD*%
%TA.AperFunction,Conductor*%
%TO.N,Net-(U3-XTAL1{slash}PB6)*%
G36*
X60155571Y-87745347D02*
G01*
X60159355Y-87748512D01*
X60485888Y-88167811D01*
X60488268Y-88176444D01*
X60485888Y-88182189D01*
X60159355Y-88601487D01*
X60151568Y-88605909D01*
X60146654Y-88605472D01*
X59573717Y-88427555D01*
X59566833Y-88421828D01*
X59565487Y-88416381D01*
X59565487Y-87933618D01*
X59568914Y-87925345D01*
X59573715Y-87922444D01*
X60146654Y-87744527D01*
X60155571Y-87745347D01*
G37*
%TD.AperFunction*%
%TD*%
%TA.AperFunction,Conductor*%
%TO.N,Net-(U3-XTAL1{slash}PB6)*%
G36*
X60207984Y-87922655D02*
G01*
X60215070Y-87928130D01*
X60216618Y-87933946D01*
X60216618Y-88417593D01*
X60213191Y-88425866D01*
X60209924Y-88428168D01*
X59038597Y-88982656D01*
X59029653Y-88983098D01*
X59023016Y-88977087D01*
X59022787Y-88976572D01*
X58793522Y-88425000D01*
X58741352Y-88299489D01*
X58741342Y-88290536D01*
X59023554Y-87611582D01*
X59029893Y-87605260D01*
X59037421Y-87604784D01*
X60207984Y-87922655D01*
G37*
%TD.AperFunction*%
%TD*%
%TA.AperFunction,Conductor*%
%TO.N,Net-(U3-XTAL2{slash}PB7)*%
G36*
X60155571Y-92820347D02*
G01*
X60159355Y-92823512D01*
X60485888Y-93242811D01*
X60488268Y-93251444D01*
X60485888Y-93257189D01*
X60159355Y-93676487D01*
X60151568Y-93680909D01*
X60146654Y-93680472D01*
X59573717Y-93502555D01*
X59566833Y-93496828D01*
X59565487Y-93491381D01*
X59565487Y-93008618D01*
X59568914Y-93000345D01*
X59573715Y-92997444D01*
X60146654Y-92819527D01*
X60155571Y-92820347D01*
G37*
%TD.AperFunction*%
%TD*%
%TA.AperFunction,Conductor*%
%TO.N,Net-(U3-XTAL2{slash}PB7)*%
G36*
X59038240Y-92486733D02*
G01*
X59038290Y-92486754D01*
X60218512Y-92996949D01*
X60224746Y-93003377D01*
X60225569Y-93007688D01*
X60225569Y-93491353D01*
X60222142Y-93499626D01*
X60217304Y-93502538D01*
X59037659Y-93864790D01*
X59028744Y-93863942D01*
X59023421Y-93858097D01*
X58741352Y-93179489D01*
X58741342Y-93170536D01*
X59022946Y-92493044D01*
X59029285Y-92486722D01*
X59038240Y-92486733D01*
G37*
%TD.AperFunction*%
%TD*%
%TA.AperFunction,Conductor*%
%TO.N,Net-(Q8-D)*%
G36*
X108311399Y-102778619D02*
G01*
X108770309Y-102996357D01*
X108776315Y-103003000D01*
X108776897Y-103008428D01*
X108717406Y-103468532D01*
X108714076Y-103475305D01*
X108582415Y-103606966D01*
X108574142Y-103610393D01*
X108567432Y-103608278D01*
X108016181Y-103222382D01*
X108011369Y-103214830D01*
X108013167Y-103206291D01*
X108296665Y-102782682D01*
X108304112Y-102777714D01*
X108311399Y-102778619D01*
G37*
%TD.AperFunction*%
%TD*%
%TA.AperFunction,Conductor*%
%TO.N,Net-(Q8-D)*%
G36*
X112654415Y-103541244D02*
G01*
X112802110Y-103895498D01*
X112802131Y-103904452D01*
X112802110Y-103904502D01*
X112654415Y-104258755D01*
X112648068Y-104265073D01*
X112639116Y-104265053D01*
X112010187Y-104002999D01*
X112003868Y-103996654D01*
X112002987Y-103992199D01*
X112002987Y-103807800D01*
X112006414Y-103799527D01*
X112010187Y-103797000D01*
X112639118Y-103534945D01*
X112648071Y-103534927D01*
X112654415Y-103541244D01*
G37*
%TD.AperFunction*%
%TD*%
%TA.AperFunction,Conductor*%
%TO.N,/CHARGER_SRP*%
G36*
X123390960Y-101503427D02*
G01*
X123393487Y-101507200D01*
X123655540Y-102136129D01*
X123655559Y-102145084D01*
X123649242Y-102151428D01*
X123294989Y-102299123D01*
X123286035Y-102299144D01*
X123285985Y-102299123D01*
X122931731Y-102151428D01*
X122925413Y-102145081D01*
X122925432Y-102136131D01*
X123187487Y-101507199D01*
X123193832Y-101500881D01*
X123198287Y-101500000D01*
X123382687Y-101500000D01*
X123390960Y-101503427D01*
G37*
%TD.AperFunction*%
%TD*%
%TA.AperFunction,Conductor*%
%TO.N,/CHARGER_SRP*%
G36*
X115123810Y-98393987D02*
G01*
X115636016Y-98796487D01*
X115640404Y-98804292D01*
X115640487Y-98805685D01*
X115640487Y-98994314D01*
X115637060Y-99002587D01*
X115636016Y-99003513D01*
X115123810Y-99406012D01*
X115115188Y-99408430D01*
X115108215Y-99404992D01*
X114715691Y-99003513D01*
X114622482Y-98908178D01*
X114619150Y-98899868D01*
X114622482Y-98891821D01*
X115108215Y-98395006D01*
X115116449Y-98391487D01*
X115123810Y-98393987D01*
G37*
%TD.AperFunction*%
%TD*%
%TA.AperFunction,Conductor*%
%TO.N,/CHARGER_SRN*%
G36*
X115123810Y-100393987D02*
G01*
X115636016Y-100796487D01*
X115640404Y-100804292D01*
X115640487Y-100805685D01*
X115640487Y-100994314D01*
X115637060Y-101002587D01*
X115636016Y-101003513D01*
X115123810Y-101406012D01*
X115115188Y-101408430D01*
X115108215Y-101404992D01*
X114715691Y-101003513D01*
X114622482Y-100908178D01*
X114619150Y-100899868D01*
X114622482Y-100891821D01*
X115108215Y-100395006D01*
X115116449Y-100391487D01*
X115123810Y-100393987D01*
G37*
%TD.AperFunction*%
%TD*%
%TA.AperFunction,Conductor*%
%TO.N,/CHARGER_SRN*%
G36*
X122746946Y-102900037D02*
G01*
X123297422Y-102952120D01*
X123322654Y-102954508D01*
X123330568Y-102958699D01*
X123333252Y-102966135D01*
X123333932Y-103351340D01*
X123330520Y-103359620D01*
X123330484Y-103359655D01*
X123059906Y-103628884D01*
X123051625Y-103632290D01*
X123043360Y-103628842D01*
X123042311Y-103627633D01*
X122606180Y-103049063D01*
X122603937Y-103040394D01*
X122607249Y-103033748D01*
X122737585Y-102903412D01*
X122745857Y-102899986D01*
X122746946Y-102900037D01*
G37*
%TD.AperFunction*%
%TD*%
%TA.AperFunction,Conductor*%
%TO.N,Net-(D7-A1)*%
G36*
X132447141Y-115921828D02*
G01*
X132450047Y-115923752D01*
X132981865Y-116403815D01*
X132985710Y-116411902D01*
X132982710Y-116420340D01*
X132981865Y-116421185D01*
X132450047Y-116901247D01*
X132441609Y-116904247D01*
X132438194Y-116903552D01*
X131785674Y-116665306D01*
X131779078Y-116659250D01*
X131777987Y-116654316D01*
X131777987Y-116170683D01*
X131781414Y-116162410D01*
X131785672Y-116159693D01*
X132438195Y-115921447D01*
X132447141Y-115921828D01*
G37*
%TD.AperFunction*%
%TD*%
%TA.AperFunction,Conductor*%
%TO.N,Net-(D7-A1)*%
G36*
X132316090Y-116159864D02*
G01*
X132322888Y-116165691D01*
X132324154Y-116170984D01*
X132324154Y-116654930D01*
X132320727Y-116663203D01*
X132317249Y-116665602D01*
X131120588Y-117203214D01*
X131111637Y-117203479D01*
X131107018Y-117200280D01*
X130494156Y-116505295D01*
X130491254Y-116496824D01*
X130491992Y-116493406D01*
X130802349Y-115676764D01*
X130808492Y-115670248D01*
X130816920Y-115669800D01*
X132316090Y-116159864D01*
G37*
%TD.AperFunction*%
%TD*%
%TA.AperFunction,Conductor*%
%TO.N,Net-(U5-ACDET)*%
G36*
X109408556Y-117472105D02*
G01*
X109412478Y-117480155D01*
X109412500Y-117480865D01*
X109412500Y-117950000D01*
X109678677Y-118092761D01*
X109780278Y-118147254D01*
X109785949Y-118154185D01*
X109785059Y-118163095D01*
X109783418Y-118165421D01*
X109308851Y-118689128D01*
X109300756Y-118692958D01*
X109292325Y-118689942D01*
X109290593Y-118687977D01*
X108917336Y-118154185D01*
X108866006Y-118080779D01*
X108864074Y-118072036D01*
X108866834Y-118066320D01*
X109392040Y-117473108D01*
X109400090Y-117469187D01*
X109408556Y-117472105D01*
G37*
%TD.AperFunction*%
%TD*%
%TA.AperFunction,Conductor*%
%TO.N,Net-(U5-ACDET)*%
G36*
X109306856Y-116608757D02*
G01*
X109307687Y-116609587D01*
X109784130Y-117135364D01*
X109787146Y-117143795D01*
X109783316Y-117151890D01*
X109781716Y-117153107D01*
X109312500Y-117449999D01*
X109312500Y-117909428D01*
X109309073Y-117917701D01*
X109300800Y-117921128D01*
X109292527Y-117917701D01*
X109290897Y-117915658D01*
X108811245Y-117153166D01*
X108809740Y-117144338D01*
X108812460Y-117139099D01*
X109290333Y-116609602D01*
X109298418Y-116605758D01*
X109306856Y-116608757D01*
G37*
%TD.AperFunction*%
%TD*%
%TA.AperFunction,Conductor*%
%TO.N,Net-(U5-ACDET)*%
G36*
X115685939Y-111699964D02*
G01*
X115694202Y-111703412D01*
X115697608Y-111711693D01*
X115697408Y-111713820D01*
X115551790Y-112490456D01*
X115546897Y-112497956D01*
X115540290Y-112500000D01*
X115059710Y-112500000D01*
X115051437Y-112496573D01*
X115048210Y-112490456D01*
X114902591Y-111713820D01*
X114904435Y-111705057D01*
X114911935Y-111700164D01*
X114914052Y-111699964D01*
X115300000Y-111699000D01*
X115685939Y-111699964D01*
G37*
%TD.AperFunction*%
%TD*%
%TA.AperFunction,Conductor*%
%TO.N,/CHR_VSYS_NMOS*%
G36*
X108884971Y-104883691D02*
G01*
X109382897Y-105292940D01*
X109387112Y-105300841D01*
X109384874Y-105308938D01*
X108944880Y-105903663D01*
X108937204Y-105908275D01*
X108932333Y-105907974D01*
X108374046Y-105752384D01*
X108366997Y-105746862D01*
X108365487Y-105741114D01*
X108365487Y-105255963D01*
X108368914Y-105247690D01*
X108370307Y-105246500D01*
X108870672Y-104883261D01*
X108879377Y-104881175D01*
X108884971Y-104883691D01*
G37*
%TD.AperFunction*%
%TD*%
%TA.AperFunction,Conductor*%
%TO.N,/CHR_VSYS_NMOS*%
G36*
X107309109Y-105052854D02*
G01*
X107870119Y-105247273D01*
X107876813Y-105253219D01*
X107877987Y-105258327D01*
X107877987Y-105741672D01*
X107874560Y-105749945D01*
X107870118Y-105752727D01*
X107309109Y-105947145D01*
X107300170Y-105946616D01*
X107295782Y-105942925D01*
X106981906Y-105506835D01*
X106979854Y-105498118D01*
X106981906Y-105493165D01*
X107295782Y-105057073D01*
X107303396Y-105052361D01*
X107309109Y-105052854D01*
G37*
%TD.AperFunction*%
%TD*%
%TA.AperFunction,Conductor*%
%TO.N,/CHR_VSYS_NMOS*%
G36*
X109254383Y-104941337D02*
G01*
X109254914Y-104942443D01*
X109375462Y-105231582D01*
X109386034Y-105256940D01*
X109403080Y-105297824D01*
X109403981Y-105302355D01*
X109403014Y-105689093D01*
X109399566Y-105697358D01*
X109392105Y-105700737D01*
X108677281Y-105749153D01*
X108668795Y-105746293D01*
X108664817Y-105738271D01*
X108664790Y-105737480D01*
X108664790Y-105256940D01*
X108668217Y-105248667D01*
X108670877Y-105246675D01*
X109238508Y-104936676D01*
X109247411Y-104935719D01*
X109254383Y-104941337D01*
G37*
%TD.AperFunction*%
%TD*%
M02*
