%TF.GenerationSoftware,KiCad,Pcbnew,8.0.1-8.0.1-1~ubuntu22.04.1*%
%TF.CreationDate,2024-04-06T20:30:09+03:00*%
%TF.ProjectId,handle-module,68616e64-6c65-42d6-9d6f-64756c652e6b,rev?*%
%TF.SameCoordinates,Original*%
%TF.FileFunction,Copper,L3,Inr*%
%TF.FilePolarity,Positive*%
%FSLAX46Y46*%
G04 Gerber Fmt 4.6, Leading zero omitted, Abs format (unit mm)*
G04 Created by KiCad (PCBNEW 8.0.1-8.0.1-1~ubuntu22.04.1) date 2024-04-06 20:30:09*
%MOMM*%
%LPD*%
G01*
G04 APERTURE LIST*
G04 Aperture macros list*
%AMRoundRect*
0 Rectangle with rounded corners*
0 $1 Rounding radius*
0 $2 $3 $4 $5 $6 $7 $8 $9 X,Y pos of 4 corners*
0 Add a 4 corners polygon primitive as box body*
4,1,4,$2,$3,$4,$5,$6,$7,$8,$9,$2,$3,0*
0 Add four circle primitives for the rounded corners*
1,1,$1+$1,$2,$3*
1,1,$1+$1,$4,$5*
1,1,$1+$1,$6,$7*
1,1,$1+$1,$8,$9*
0 Add four rect primitives between the rounded corners*
20,1,$1+$1,$2,$3,$4,$5,0*
20,1,$1+$1,$4,$5,$6,$7,0*
20,1,$1+$1,$6,$7,$8,$9,0*
20,1,$1+$1,$8,$9,$2,$3,0*%
G04 Aperture macros list end*
%TA.AperFunction,HeatsinkPad*%
%ADD10C,0.500000*%
%TD*%
%TA.AperFunction,ComponentPad*%
%ADD11C,1.500000*%
%TD*%
%TA.AperFunction,ComponentPad*%
%ADD12R,1.700000X1.700000*%
%TD*%
%TA.AperFunction,ComponentPad*%
%ADD13O,1.700000X1.700000*%
%TD*%
%TA.AperFunction,ComponentPad*%
%ADD14C,2.000000*%
%TD*%
%TA.AperFunction,ComponentPad*%
%ADD15R,1.600000X1.600000*%
%TD*%
%TA.AperFunction,ComponentPad*%
%ADD16C,1.600000*%
%TD*%
%TA.AperFunction,ComponentPad*%
%ADD17R,1.800000X1.800000*%
%TD*%
%TA.AperFunction,ComponentPad*%
%ADD18C,1.800000*%
%TD*%
%TA.AperFunction,ComponentPad*%
%ADD19RoundRect,0.250000X-0.750000X0.600000X-0.750000X-0.600000X0.750000X-0.600000X0.750000X0.600000X0*%
%TD*%
%TA.AperFunction,ComponentPad*%
%ADD20O,2.000000X1.700000*%
%TD*%
%TA.AperFunction,ComponentPad*%
%ADD21C,1.524000*%
%TD*%
%TA.AperFunction,ViaPad*%
%ADD22C,0.800000*%
%TD*%
%TA.AperFunction,Conductor*%
%ADD23C,1.000000*%
%TD*%
%TA.AperFunction,Conductor*%
%ADD24C,0.500000*%
%TD*%
%TA.AperFunction,Conductor*%
%ADD25C,0.200000*%
%TD*%
G04 APERTURE END LIST*
D10*
%TO.N,GNDPWR*%
%TO.C,U5*%
X118640487Y-103250000D03*
X118640487Y-104300000D03*
X118640487Y-105350000D03*
X119690487Y-103250000D03*
X119690487Y-104300000D03*
X119690487Y-105350000D03*
X120740487Y-103250000D03*
X120740487Y-104300000D03*
X120740487Y-105350000D03*
%TD*%
D11*
%TO.N,Net-(U3-XTAL2{slash}PB7)*%
%TO.C,X1*%
X58740487Y-93175000D03*
%TO.N,Net-(U3-XTAL1{slash}PB6)*%
X58740487Y-88295000D03*
%TD*%
D12*
%TO.N,GNDPWR*%
%TO.C,J1*%
X132990487Y-80000000D03*
D13*
%TO.N,/VBAT_BEFORE_FUSE*%
X132990487Y-82540000D03*
%TD*%
D14*
%TO.N,unconnected-(U2-ANT-Pad1)*%
%TO.C,U2*%
X57370487Y-116750000D03*
%TO.N,GNDA*%
X59910487Y-116750000D03*
%TO.N,+5V*%
X78870487Y-116750000D03*
X81410487Y-116750000D03*
%TO.N,/FM_IN*%
X83950487Y-116750000D03*
%TO.N,GNDA*%
X86490487Y-116750000D03*
%TD*%
D15*
%TO.N,/VBAT_BEFORE_FUSE*%
%TO.C,C6*%
X118740487Y-85775001D03*
D16*
%TO.N,GNDA*%
X118740487Y-83275001D03*
%TD*%
D15*
%TO.N,/VBAT_BEFORE_FUSE*%
%TO.C,C5*%
X125990487Y-85750000D03*
D16*
%TO.N,GNDPWR*%
X125990487Y-83250000D03*
%TD*%
D14*
%TO.N,/FM_OUT*%
%TO.C,U1*%
X59910487Y-108000000D03*
%TO.N,+5V*%
X62450487Y-108000000D03*
%TO.N,GNDA*%
X64990487Y-108000000D03*
%TD*%
D17*
%TO.N,Net-(D1-A1)*%
%TO.C,D1*%
X94440487Y-99000000D03*
D18*
%TO.N,Net-(D1-K)*%
X96980487Y-99000000D03*
%TO.N,Net-(D1-A2)*%
X99520487Y-99000000D03*
%TD*%
D16*
%TO.N,/CHARGER_SUPPLY*%
%TO.C,RV1*%
X101215487Y-117300000D03*
%TO.N,GNDPWR*%
X96215487Y-115200000D03*
%TD*%
D19*
%TO.N,GNDPWR*%
%TO.C,J2*%
X130490487Y-114000000D03*
D20*
%TO.N,Net-(D7-A1)*%
X130490487Y-116500000D03*
%TD*%
D14*
%TO.N,/CLOSE_BUTTON*%
%TO.C,SW2*%
X82740487Y-99000000D03*
%TO.N,/VBAT*%
X89240487Y-99000000D03*
%TD*%
D21*
%TO.N,GNDPWR*%
%TO.C,TP2*%
X128990487Y-80000000D03*
%TD*%
D14*
%TO.N,/VBAT*%
%TO.C,SW1*%
X61740487Y-99000000D03*
%TO.N,/OPEN_BUTTON*%
X68240487Y-99000000D03*
%TD*%
D12*
%TO.N,/MOSI*%
%TO.C,J3*%
X67280487Y-80000000D03*
D13*
%TO.N,+5V*%
X67280487Y-82540000D03*
%TO.N,unconnected-(J3-Pin_3-Pad3)*%
X64740487Y-80000000D03*
%TO.N,/RXD*%
X64740487Y-82540000D03*
%TO.N,/RESET#*%
X62200487Y-80000000D03*
%TO.N,/TXD*%
X62200487Y-82540000D03*
%TO.N,/SCK*%
X59660487Y-80000000D03*
%TO.N,GNDA*%
X59660487Y-82540000D03*
%TO.N,/MISO*%
X57120487Y-80000000D03*
%TO.N,GNDA*%
X57120487Y-82540000D03*
%TD*%
D22*
%TO.N,GNDA*%
X81490487Y-83000000D03*
X80190487Y-97100000D03*
X72990487Y-82500000D03*
X128190218Y-100190219D03*
X95740487Y-80500000D03*
X70790487Y-101000000D03*
X85490487Y-86250000D03*
X72740487Y-89750000D03*
X85600000Y-108000000D03*
%TO.N,+5V*%
X100345487Y-91500000D03*
X71290487Y-103000000D03*
X95432987Y-91500000D03*
X112890487Y-108500000D03*
X81590487Y-80000000D03*
X75990487Y-100100000D03*
%TO.N,GNDPWR*%
X125790487Y-99200000D03*
X125500000Y-114100000D03*
X130490487Y-90700000D03*
%TO.N,/CHARGER_SUPPLY*%
X101002987Y-106500000D03*
X107387500Y-116600000D03*
%TO.N,Net-(Q7-G)*%
X104602987Y-107600000D03*
%TO.N,/VSYS*%
X112802987Y-102300000D03*
X130490487Y-93600000D03*
X124590487Y-97100000D03*
%TO.N,/CHARGER_BATSRC*%
X110590487Y-96700000D03*
X126590487Y-105100000D03*
X117090487Y-93800000D03*
%TO.N,/VBAT*%
X104290487Y-81500000D03*
X109090487Y-96700000D03*
%TO.N,/MOSI*%
X71740487Y-92000000D03*
%TO.N,/SCK*%
X73240487Y-92250000D03*
%TO.N,/MISO*%
X76740487Y-94500000D03*
%TO.N,/LED_GREEN#*%
X98520487Y-91500000D03*
%TO.N,/LED_RED#*%
X93607987Y-91500000D03*
%TO.N,Net-(Q8-G)*%
X105402987Y-103600000D03*
%TO.N,Net-(Q9-G)*%
X127490487Y-95000000D03*
X118925206Y-100874794D03*
%TO.N,/CHARGER_BATDRV*%
X126490487Y-103100000D03*
%TO.N,Net-(Q8-D)*%
X112802987Y-103900000D03*
%TO.N,Net-(U5-VCC)*%
X112890487Y-110700000D03*
X116290487Y-102400000D03*
%TO.N,Net-(Q10-D)*%
X117925000Y-99700000D03*
X122990487Y-93800000D03*
%TO.N,/SDA*%
X117990487Y-107800000D03*
X75790487Y-82500000D03*
%TO.N,/SCL*%
X118341436Y-108735863D03*
X74390487Y-82800000D03*
%TO.N,/CHARGER_SRP*%
X123290487Y-102300000D03*
%TO.N,/CHARGER_SRN*%
X123333234Y-103355509D03*
%TO.N,Net-(U5-BTST)*%
X119500000Y-99700000D03*
%TO.N,Net-(D6-K)*%
X106802987Y-110600000D03*
%TO.N,Net-(D7-A1)*%
X125500000Y-117600000D03*
%TO.N,Net-(Q5-D)*%
X91400000Y-96500000D03*
X93700000Y-87400000D03*
%TO.N,Net-(U5-ACDET)*%
X115300000Y-111700000D03*
%TO.N,Net-(U5-ACDRV)*%
X111402987Y-108200000D03*
%TO.N,/CHR_VSYS_NMOS*%
X109402987Y-105300000D03*
%TO.N,Net-(U5-CMSRC)*%
X111202987Y-105400000D03*
%TD*%
D23*
%TO.N,/VBAT*%
X64490487Y-99000000D02*
X69740487Y-104250000D01*
X61515487Y-99000000D02*
X64490487Y-99000000D01*
X82240487Y-104250000D02*
X87490487Y-99000000D01*
X69740487Y-104250000D02*
X82240487Y-104250000D01*
X87490487Y-99000000D02*
X89490487Y-99000000D01*
D24*
%TO.N,Net-(Q10-D)*%
X120290487Y-93800000D02*
X122990487Y-93800000D01*
X117900000Y-99675000D02*
X117900000Y-96190487D01*
X117925000Y-99700000D02*
X117900000Y-99675000D01*
X117900000Y-96190487D02*
X120290487Y-93800000D01*
D25*
%TO.N,/SDA*%
X75790487Y-82895836D02*
X75790487Y-82500000D01*
X117990487Y-107800000D02*
X117900537Y-107800000D01*
X116500537Y-109200000D02*
X102094651Y-109200000D01*
X117900537Y-107800000D02*
X116500537Y-109200000D01*
X102094651Y-109200000D02*
X75790487Y-82895836D01*
%TO.N,/SCL*%
X101928965Y-109600000D02*
X75528965Y-83200000D01*
X118341436Y-108735863D02*
X117477299Y-109600000D01*
X75500537Y-83200000D02*
X75090487Y-82789950D01*
X75090487Y-82789950D02*
X74400537Y-82789950D01*
X117477299Y-109600000D02*
X101928965Y-109600000D01*
X75528965Y-83200000D02*
X75500537Y-83200000D01*
X74400537Y-82789950D02*
X74390487Y-82800000D01*
D24*
%TO.N,Net-(Q5-D)*%
X93700000Y-87400000D02*
X91400000Y-89700000D01*
X91400000Y-89700000D02*
X91400000Y-96500000D01*
%TD*%
%TA.AperFunction,Conductor*%
%TO.N,/VBAT*%
G36*
X63731754Y-98497711D02*
G01*
X63738887Y-98503123D01*
X63740487Y-98509028D01*
X63740487Y-99490971D01*
X63737060Y-99499244D01*
X63731753Y-99502289D01*
X62133030Y-99921295D01*
X62124159Y-99920077D01*
X62119260Y-99914465D01*
X61741349Y-99004485D01*
X61741341Y-98995535D01*
X62119260Y-98085533D01*
X62125597Y-98079208D01*
X62133029Y-98078704D01*
X63731754Y-98497711D01*
G37*
%TD.AperFunction*%
%TD*%
%TA.AperFunction,Conductor*%
%TO.N,/VBAT*%
G36*
X88856071Y-98080485D02*
G01*
X88862209Y-98086727D01*
X89239331Y-98994808D01*
X89239340Y-99003762D01*
X89239334Y-99003777D01*
X88861966Y-99913842D01*
X88855631Y-99920171D01*
X88847486Y-99920469D01*
X87669899Y-99531201D01*
X87665298Y-99528365D01*
X86972778Y-98835845D01*
X86969351Y-98827572D01*
X86972778Y-98819299D01*
X86976763Y-98816686D01*
X88847118Y-98080327D01*
X88856071Y-98080485D01*
G37*
%TD.AperFunction*%
%TD*%
%TA.AperFunction,Conductor*%
%TO.N,Net-(Q10-D)*%
G36*
X122985429Y-93404435D02*
G01*
X122990322Y-93411935D01*
X122990522Y-93414062D01*
X122991487Y-93800000D01*
X122991487Y-93800058D01*
X122990522Y-94185937D01*
X122987074Y-94194202D01*
X122978793Y-94197608D01*
X122976666Y-94197408D01*
X122200031Y-94051789D01*
X122192531Y-94046896D01*
X122190487Y-94040289D01*
X122190487Y-93559710D01*
X122193914Y-93551437D01*
X122200029Y-93548210D01*
X122976667Y-93402591D01*
X122985429Y-93404435D01*
G37*
%TD.AperFunction*%
%TD*%
%TA.AperFunction,Conductor*%
%TO.N,Net-(Q10-D)*%
G36*
X118148915Y-98908400D02*
G01*
X118152055Y-98914102D01*
X118274677Y-99458663D01*
X118292393Y-99537339D01*
X118290867Y-99546163D01*
X118285481Y-99550708D01*
X117927175Y-99700093D01*
X117922644Y-99700994D01*
X117538648Y-99700034D01*
X117530383Y-99696586D01*
X117526977Y-99688305D01*
X117527118Y-99686528D01*
X117648446Y-98914855D01*
X117653116Y-98907215D01*
X117660004Y-98904973D01*
X118140642Y-98904973D01*
X118148915Y-98908400D01*
G37*
%TD.AperFunction*%
%TD*%
%TA.AperFunction,Conductor*%
%TO.N,/SDA*%
G36*
X117630910Y-107651031D02*
G01*
X117986682Y-107797436D01*
X117993029Y-107803754D01*
X117993050Y-107803804D01*
X118138519Y-108157302D01*
X118138498Y-108166256D01*
X118132176Y-108172564D01*
X118127511Y-108174496D01*
X118126511Y-108174857D01*
X117466233Y-108380373D01*
X117457315Y-108379560D01*
X117454483Y-108377475D01*
X117324074Y-108247066D01*
X117320647Y-108238793D01*
X117321922Y-108233481D01*
X117616035Y-107656537D01*
X117622846Y-107650724D01*
X117630910Y-107651031D01*
G37*
%TD.AperFunction*%
%TD*%
%TA.AperFunction,Conductor*%
%TO.N,/SDA*%
G36*
X76177960Y-82499977D02*
G01*
X76186225Y-82503418D01*
X76189637Y-82511698D01*
X76189608Y-82512497D01*
X76147819Y-83107079D01*
X76144421Y-83114532D01*
X76014718Y-83244236D01*
X76006445Y-83247663D01*
X75998172Y-83244236D01*
X75713477Y-82959541D01*
X75713476Y-82959540D01*
X75667076Y-82932751D01*
X75664903Y-82931133D01*
X75520161Y-82794646D01*
X75519915Y-82794407D01*
X75516248Y-82790740D01*
X75512821Y-82782467D01*
X75516225Y-82774218D01*
X75786342Y-82502748D01*
X75794603Y-82499301D01*
X76177960Y-82499977D01*
G37*
%TD.AperFunction*%
%TD*%
%TA.AperFunction,Conductor*%
%TO.N,/SCL*%
G36*
X118337631Y-108733299D02*
G01*
X118343978Y-108739617D01*
X118343999Y-108739667D01*
X118490057Y-109094597D01*
X118490036Y-109103551D01*
X118483692Y-109109868D01*
X117853673Y-109369289D01*
X117844718Y-109369270D01*
X117840945Y-109366743D01*
X117710555Y-109236353D01*
X117707128Y-109228080D01*
X117708008Y-109223629D01*
X117967430Y-108593605D01*
X117973749Y-108587261D01*
X117982700Y-108587241D01*
X118337631Y-108733299D01*
G37*
%TD.AperFunction*%
%TD*%
%TA.AperFunction,Conductor*%
%TO.N,/SCL*%
G36*
X74553956Y-82435915D02*
G01*
X74554851Y-82436333D01*
X75188676Y-82766738D01*
X75216352Y-82781165D01*
X75222104Y-82788028D01*
X75221319Y-82796948D01*
X75219217Y-82799813D01*
X75090628Y-82928402D01*
X75087060Y-82930841D01*
X74554490Y-83164751D01*
X74545537Y-83164941D01*
X74539073Y-83158744D01*
X74539011Y-83158600D01*
X74391646Y-82803788D01*
X74391638Y-82794836D01*
X74538655Y-82442211D01*
X74545002Y-82435894D01*
X74553956Y-82435915D01*
G37*
%TD.AperFunction*%
%TD*%
%TA.AperFunction,Conductor*%
%TO.N,Net-(Q5-D)*%
G36*
X93425479Y-87125713D02*
G01*
X93427124Y-87127075D01*
X93700707Y-87399293D01*
X93700749Y-87399335D01*
X93972924Y-87672875D01*
X93976330Y-87681156D01*
X93972882Y-87689421D01*
X93971237Y-87690783D01*
X93319104Y-88136978D01*
X93310341Y-88138822D01*
X93304224Y-88135595D01*
X92964404Y-87795775D01*
X92960977Y-87787502D01*
X92963021Y-87780895D01*
X93409217Y-87128761D01*
X93416716Y-87123869D01*
X93425479Y-87125713D01*
G37*
%TD.AperFunction*%
%TD*%
%TA.AperFunction,Conductor*%
%TO.N,Net-(Q5-D)*%
G36*
X91648563Y-95703427D02*
G01*
X91651790Y-95709544D01*
X91797408Y-96486179D01*
X91795564Y-96494942D01*
X91788064Y-96499835D01*
X91785937Y-96500035D01*
X91400029Y-96500999D01*
X91399971Y-96500999D01*
X91014062Y-96500035D01*
X91005797Y-96496587D01*
X91002391Y-96488306D01*
X91002591Y-96486179D01*
X91148210Y-95709544D01*
X91153103Y-95702044D01*
X91159710Y-95700000D01*
X91640290Y-95700000D01*
X91648563Y-95703427D01*
G37*
%TD.AperFunction*%
%TD*%
M02*
