M48
; DRILL file {KiCad 8.0.1-8.0.1-1~ubuntu22.04.1} date 2024-04-06T20:30:12+0300
; FORMAT={-:-/ absolute / inch / decimal}
; #@! TF.CreationDate,2024-04-06T20:30:12+03:00
; #@! TF.GenerationSoftware,Kicad,Pcbnew,8.0.1-8.0.1-1~ubuntu22.04.1
; #@! TF.FileFunction,Plated,1,4,PTH
FMAT,2
INCH
; #@! TA.AperFunction,Plated,PTH,ComponentDrill
T1C0.0079
; #@! TA.AperFunction,Plated,PTH,ViaDrill
T2C0.0157
; #@! TA.AperFunction,Plated,PTH,ComponentDrill
T3C0.0236
; #@! TA.AperFunction,Plated,PTH,ComponentDrill
T4C0.0300
; #@! TA.AperFunction,Plated,PTH,ComponentDrill
T5C0.0315
; #@! TA.AperFunction,Plated,PTH,ComponentDrill
T6C0.0354
; #@! TA.AperFunction,Plated,PTH,ComponentDrill
T7C0.0394
; #@! TA.AperFunction,Plated,PTH,ComponentDrill
T8C0.0472
%
G90
G05
T1
X4.6709Y-4.065
X4.6709Y-4.1063
X4.6709Y-4.1476
X4.7122Y-4.065
X4.7122Y-4.1063
X4.7122Y-4.1476
X4.7536Y-4.065
X4.7536Y-4.1063
X4.7536Y-4.1476
T2
X2.787Y-3.9764
X2.8067Y-4.0551
X2.8244Y-3.622
X2.8638Y-3.5335
X2.8736Y-3.248
X2.8835Y-3.6319
X2.9288Y-3.2598
X2.9839Y-3.248
X2.9918Y-3.9409
X3.0213Y-3.7205
X3.1571Y-3.8228
X3.2083Y-3.2677
X3.2122Y-3.1496
X3.3658Y-3.3957
X3.3701Y-4.252
X3.5984Y-3.7992
X3.6854Y-3.6024
X3.689Y-3.4409
X3.7572Y-3.6024
X3.7693Y-3.1693
X3.8788Y-3.6024
X3.9506Y-3.6024
X3.9765Y-4.1929
X4.1059Y-3.2087
X4.1182Y-4.2362
X4.1497Y-4.0787
X4.2048Y-4.3543
X4.2279Y-4.5906
X4.2949Y-3.8071
X4.3072Y-4.1457
X4.354Y-3.8071
X4.3781Y-4.1496
X4.3859Y-4.2598
X4.4411Y-4.0276
X4.4411Y-4.0906
X4.4445Y-4.2717
X4.4445Y-4.3583
X4.5394Y-4.3976
X4.5784Y-4.0315
X4.6099Y-3.6929
X4.6427Y-3.9252
X4.6453Y-4.2441
X4.6591Y-4.2809
X4.6821Y-3.9714
X4.7047Y-3.9252
X4.8421Y-3.6929
X4.854Y-4.0276
X4.8556Y-4.0691
X4.9051Y-3.8228
X4.9409Y-4.4921
X4.9409Y-4.6299
X4.9524Y-3.9055
X4.9799Y-4.0591
X4.9839Y-4.1378
X5.0193Y-3.7402
X5.0469Y-3.9445
X5.1374Y-3.5709
X5.1374Y-3.685
T3
X3.788Y-4.5354
X3.9849Y-4.6181
T4
X5.0784Y-3.1496
T5
X2.3126Y-3.4762
X2.3126Y-3.6683
X4.6748Y-3.2785
X4.6748Y-3.377
X4.9603Y-3.2776
X4.9603Y-3.376
T6
X3.7181Y-3.8976
X3.8181Y-3.8976
X3.9181Y-3.8976
T7
X2.2488Y-3.1496
X2.2488Y-3.2496
X2.2587Y-4.5965
X2.3488Y-3.1496
X2.3488Y-3.2496
X2.3587Y-4.252
X2.3587Y-4.5965
X2.4488Y-3.1496
X2.4488Y-3.2496
X2.4587Y-4.252
X2.5488Y-3.1496
X2.5488Y-3.2496
X2.5587Y-4.252
X2.6488Y-3.1496
X2.6488Y-3.2496
X3.1051Y-4.5965
X3.2051Y-4.5965
X3.3051Y-4.5965
X3.4051Y-4.5965
X5.1374Y-4.4882
X5.1374Y-4.5866
X5.2358Y-3.1496
X5.2358Y-3.2496
T8
X2.4307Y-3.8976
X2.6866Y-3.8976
X3.2575Y-3.8976
X3.5134Y-3.8976
M30
