%TF.GenerationSoftware,KiCad,Pcbnew,7.0.8-7.0.8~ubuntu22.04.1*%
%TF.CreationDate,2023-10-31T14:19:29+03:00*%
%TF.ProjectId,handle-module,68616e64-6c65-42d6-9d6f-64756c652e6b,rev?*%
%TF.SameCoordinates,Original*%
%TF.FileFunction,Soldermask,Top*%
%TF.FilePolarity,Negative*%
%FSLAX46Y46*%
G04 Gerber Fmt 4.6, Leading zero omitted, Abs format (unit mm)*
G04 Created by KiCad (PCBNEW 7.0.8-7.0.8~ubuntu22.04.1) date 2023-10-31 14:19:29*
%MOMM*%
%LPD*%
G01*
G04 APERTURE LIST*
G04 Aperture macros list*
%AMRoundRect*
0 Rectangle with rounded corners*
0 $1 Rounding radius*
0 $2 $3 $4 $5 $6 $7 $8 $9 X,Y pos of 4 corners*
0 Add a 4 corners polygon primitive as box body*
4,1,4,$2,$3,$4,$5,$6,$7,$8,$9,$2,$3,0*
0 Add four circle primitives for the rounded corners*
1,1,$1+$1,$2,$3*
1,1,$1+$1,$4,$5*
1,1,$1+$1,$6,$7*
1,1,$1+$1,$8,$9*
0 Add four rect primitives between the rounded corners*
20,1,$1+$1,$2,$3,$4,$5,0*
20,1,$1+$1,$4,$5,$6,$7,0*
20,1,$1+$1,$6,$7,$8,$9,0*
20,1,$1+$1,$8,$9,$2,$3,0*%
%AMFreePoly0*
4,1,6,1.000000,0.000000,0.500000,-0.750000,-0.500000,-0.750000,-0.500000,0.750000,0.500000,0.750000,1.000000,0.000000,1.000000,0.000000,$1*%
%AMFreePoly1*
4,1,6,0.500000,-0.750000,-0.650000,-0.750000,-0.150000,0.000000,-0.650000,0.750000,0.500000,0.750000,0.500000,-0.750000,0.500000,-0.750000,$1*%
G04 Aperture macros list end*
%ADD10C,1.000000*%
%ADD11RoundRect,0.250000X-0.450000X0.262500X-0.450000X-0.262500X0.450000X-0.262500X0.450000X0.262500X0*%
%ADD12RoundRect,0.952500X1.167500X0.952500X-1.167500X0.952500X-1.167500X-0.952500X1.167500X-0.952500X0*%
%ADD13R,1.600000X0.550000*%
%ADD14R,0.550000X1.600000*%
%ADD15RoundRect,0.225000X0.225000X0.250000X-0.225000X0.250000X-0.225000X-0.250000X0.225000X-0.250000X0*%
%ADD16RoundRect,0.250000X-1.000000X-0.900000X1.000000X-0.900000X1.000000X0.900000X-1.000000X0.900000X0*%
%ADD17RoundRect,0.125000X-0.125000X-0.125000X0.125000X-0.125000X0.125000X0.125000X-0.125000X0.125000X0*%
%ADD18RoundRect,0.150000X0.587500X0.150000X-0.587500X0.150000X-0.587500X-0.150000X0.587500X-0.150000X0*%
%ADD19RoundRect,0.225000X-0.225000X-0.250000X0.225000X-0.250000X0.225000X0.250000X-0.225000X0.250000X0*%
%ADD20RoundRect,0.050000X-0.387500X-0.050000X0.387500X-0.050000X0.387500X0.050000X-0.387500X0.050000X0*%
%ADD21RoundRect,0.050000X-0.050000X-0.387500X0.050000X-0.387500X0.050000X0.387500X-0.050000X0.387500X0*%
%ADD22R,2.600000X2.600000*%
%ADD23C,1.500000*%
%ADD24RoundRect,0.250000X0.625000X-0.312500X0.625000X0.312500X-0.625000X0.312500X-0.625000X-0.312500X0*%
%ADD25RoundRect,0.250000X1.100000X-0.325000X1.100000X0.325000X-1.100000X0.325000X-1.100000X-0.325000X0*%
%ADD26RoundRect,0.250000X0.262500X0.450000X-0.262500X0.450000X-0.262500X-0.450000X0.262500X-0.450000X0*%
%ADD27R,1.700000X1.700000*%
%ADD28O,1.700000X1.700000*%
%ADD29RoundRect,0.125000X0.125000X0.125000X-0.125000X0.125000X-0.125000X-0.125000X0.125000X-0.125000X0*%
%ADD30RoundRect,0.225000X-0.250000X0.225000X-0.250000X-0.225000X0.250000X-0.225000X0.250000X0.225000X0*%
%ADD31RoundRect,0.150000X-0.587500X-0.150000X0.587500X-0.150000X0.587500X0.150000X-0.587500X0.150000X0*%
%ADD32C,2.000000*%
%ADD33RoundRect,0.250000X0.325000X1.100000X-0.325000X1.100000X-0.325000X-1.100000X0.325000X-1.100000X0*%
%ADD34RoundRect,0.150000X-0.150000X0.587500X-0.150000X-0.587500X0.150000X-0.587500X0.150000X0.587500X0*%
%ADD35R,1.600000X1.600000*%
%ADD36C,1.600000*%
%ADD37C,2.200000*%
%ADD38RoundRect,0.250000X-1.100000X0.325000X-1.100000X-0.325000X1.100000X-0.325000X1.100000X0.325000X0*%
%ADD39RoundRect,0.225000X0.250000X-0.225000X0.250000X0.225000X-0.250000X0.225000X-0.250000X-0.225000X0*%
%ADD40C,1.524000*%
%ADD41FreePoly0,90.000000*%
%ADD42FreePoly1,90.000000*%
%ADD43RoundRect,0.125000X0.125000X-0.125000X0.125000X0.125000X-0.125000X0.125000X-0.125000X-0.125000X0*%
%ADD44R,1.800000X1.800000*%
%ADD45C,1.800000*%
%ADD46RoundRect,0.235000X0.940000X1.465000X-0.940000X1.465000X-0.940000X-1.465000X0.940000X-1.465000X0*%
%ADD47RoundRect,0.250000X1.000000X0.650000X-1.000000X0.650000X-1.000000X-0.650000X1.000000X-0.650000X0*%
%ADD48R,1.500000X2.000000*%
%ADD49R,3.800000X2.000000*%
%ADD50RoundRect,0.250000X-0.325000X-1.100000X0.325000X-1.100000X0.325000X1.100000X-0.325000X1.100000X0*%
%ADD51RoundRect,0.150000X0.150000X-0.587500X0.150000X0.587500X-0.150000X0.587500X-0.150000X-0.587500X0*%
%ADD52RoundRect,0.250000X0.312500X0.625000X-0.312500X0.625000X-0.312500X-0.625000X0.312500X-0.625000X0*%
%ADD53C,3.000000*%
%ADD54RoundRect,0.250000X0.725000X-0.600000X0.725000X0.600000X-0.725000X0.600000X-0.725000X-0.600000X0*%
%ADD55O,1.950000X1.700000*%
%ADD56RoundRect,0.250000X-1.000000X-0.650000X1.000000X-0.650000X1.000000X0.650000X-1.000000X0.650000X0*%
%ADD57RoundRect,0.250000X-0.262500X-0.450000X0.262500X-0.450000X0.262500X0.450000X-0.262500X0.450000X0*%
%ADD58RoundRect,0.250000X0.450000X-0.262500X0.450000X0.262500X-0.450000X0.262500X-0.450000X-0.262500X0*%
G04 APERTURE END LIST*
D10*
%TO.C,TP1*%
X144000000Y-50500000D03*
%TD*%
%TO.C,TP3*%
X131750000Y-58250000D03*
%TD*%
D11*
%TO.C,R12*%
X132000000Y-73087500D03*
X132000000Y-74912500D03*
%TD*%
D12*
%TO.C,F2*%
X157975000Y-85500000D03*
X151565000Y-85500000D03*
%TD*%
D13*
%TO.C,U5*%
X112250000Y-56450000D03*
X112250000Y-57250000D03*
X112250000Y-58050000D03*
X112250000Y-58850000D03*
X112250000Y-59650000D03*
X112250000Y-60450000D03*
X112250000Y-61250000D03*
X112250000Y-62050000D03*
D14*
X113700000Y-63500000D03*
X114500000Y-63500000D03*
X115300000Y-63500000D03*
X116100000Y-63500000D03*
X116900000Y-63500000D03*
X117700000Y-63500000D03*
X118500000Y-63500000D03*
X119300000Y-63500000D03*
D13*
X120750000Y-62050000D03*
X120750000Y-61250000D03*
X120750000Y-60450000D03*
X120750000Y-59650000D03*
X120750000Y-58850000D03*
X120750000Y-58050000D03*
X120750000Y-57250000D03*
X120750000Y-56450000D03*
D14*
X119300000Y-55000000D03*
X118500000Y-55000000D03*
X117700000Y-55000000D03*
X116900000Y-55000000D03*
X116100000Y-55000000D03*
X115300000Y-55000000D03*
X114500000Y-55000000D03*
X113700000Y-55000000D03*
%TD*%
D15*
%TO.C,C34*%
X154620000Y-65655000D03*
X153070000Y-65655000D03*
%TD*%
D16*
%TO.C,D10*%
X162950000Y-86200000D03*
X167250000Y-86200000D03*
%TD*%
D17*
%TO.C,D6*%
X125400000Y-81000000D03*
X127600000Y-81000000D03*
%TD*%
D18*
%TO.C,Q3*%
X124187500Y-67950000D03*
X124187500Y-66050000D03*
X122312500Y-67000000D03*
%TD*%
D16*
%TO.C,D9*%
X162950000Y-81700000D03*
X167250000Y-81700000D03*
%TD*%
D19*
%TO.C,C22*%
X168225000Y-68200000D03*
X169775000Y-68200000D03*
%TD*%
D20*
%TO.C,U6*%
X161762500Y-72100000D03*
X161762500Y-72500000D03*
X161762500Y-72900000D03*
X161762500Y-73300000D03*
X161762500Y-73700000D03*
X161762500Y-74100000D03*
X161762500Y-74500000D03*
D21*
X162500000Y-75237500D03*
X162900000Y-75237500D03*
X163300000Y-75237500D03*
X163700000Y-75237500D03*
X164100000Y-75237500D03*
X164500000Y-75237500D03*
X164900000Y-75237500D03*
D20*
X165637500Y-74500000D03*
X165637500Y-74100000D03*
X165637500Y-73700000D03*
X165637500Y-73300000D03*
X165637500Y-72900000D03*
X165637500Y-72500000D03*
X165637500Y-72100000D03*
D21*
X164900000Y-71362500D03*
X164500000Y-71362500D03*
X164100000Y-71362500D03*
X163700000Y-71362500D03*
X163300000Y-71362500D03*
X162900000Y-71362500D03*
X162500000Y-71362500D03*
D22*
X163700000Y-73300000D03*
%TD*%
D11*
%TO.C,R16*%
X125500000Y-76537500D03*
X125500000Y-78362500D03*
%TD*%
D23*
%TO.C,X1*%
X102750000Y-62175000D03*
X102750000Y-57295000D03*
%TD*%
D24*
%TO.C,R17*%
X154912500Y-72662500D03*
X154912500Y-69737500D03*
%TD*%
D19*
%TO.C,C24*%
X115475000Y-51500000D03*
X117025000Y-51500000D03*
%TD*%
D25*
%TO.C,C31*%
X174600000Y-62675000D03*
X174600000Y-59725000D03*
%TD*%
D26*
%TO.C,R25*%
X121662500Y-51500000D03*
X119837500Y-51500000D03*
%TD*%
D27*
%TO.C,J1*%
X177000000Y-49000000D03*
D28*
X177000000Y-51540000D03*
%TD*%
D29*
%TO.C,D5*%
X120350000Y-76500000D03*
X118150000Y-76500000D03*
%TD*%
D11*
%TO.C,R11*%
X132000000Y-76587500D03*
X132000000Y-78412500D03*
%TD*%
D30*
%TO.C,C15*%
X130000000Y-73225000D03*
X130000000Y-74775000D03*
%TD*%
D31*
%TO.C,Q4*%
X114837500Y-68050000D03*
X114837500Y-69950000D03*
X116712500Y-69000000D03*
%TD*%
D32*
%TO.C,U2*%
X101380000Y-85750000D03*
X103920000Y-85750000D03*
X122880000Y-85750000D03*
X125420000Y-85750000D03*
X127960000Y-85750000D03*
X130500000Y-85750000D03*
%TD*%
D26*
%TO.C,R20*%
X170512500Y-74000000D03*
X168687500Y-74000000D03*
%TD*%
D11*
%TO.C,R21*%
X156900000Y-75687500D03*
X156900000Y-77512500D03*
%TD*%
D33*
%TO.C,C13*%
X177500000Y-66837500D03*
X174550000Y-66837500D03*
%TD*%
D34*
%TO.C,Q9*%
X171425000Y-59375000D03*
X169525000Y-59375000D03*
X170475000Y-61250000D03*
%TD*%
D35*
%TO.C,C6*%
X162750000Y-54775001D03*
D36*
X162750000Y-52275001D03*
%TD*%
D35*
%TO.C,C5*%
X170000000Y-54750000D03*
D36*
X170000000Y-52250000D03*
%TD*%
D37*
%TO.C,H4*%
X101500000Y-70000000D03*
%TD*%
D34*
%TO.C,Q8*%
X171475000Y-64000000D03*
X169575000Y-64000000D03*
X170525000Y-65875000D03*
%TD*%
D38*
%TO.C,C19*%
X125500000Y-49025000D03*
X125500000Y-51975000D03*
%TD*%
D39*
%TO.C,C16*%
X123050000Y-59575000D03*
X123050000Y-58025000D03*
%TD*%
D37*
%TO.C,H3*%
X118000000Y-80000000D03*
%TD*%
D11*
%TO.C,R6*%
X120000000Y-67287500D03*
X120000000Y-69112500D03*
%TD*%
D40*
%TO.C,U1*%
X103920000Y-77000000D03*
X106460000Y-77000000D03*
X109000000Y-77000000D03*
%TD*%
D41*
%TO.C,JP1*%
X160000000Y-79625000D03*
D42*
X160000000Y-78175000D03*
%TD*%
D39*
%TO.C,C21*%
X156812500Y-72875000D03*
X156812500Y-71325000D03*
%TD*%
D19*
%TO.C,C18*%
X175500000Y-74087500D03*
X177050000Y-74087500D03*
%TD*%
D43*
%TO.C,D3*%
X125350000Y-74850000D03*
X125350000Y-72650000D03*
%TD*%
D10*
%TO.C,TP6*%
X172300000Y-70100000D03*
%TD*%
D44*
%TO.C,D1*%
X138450000Y-68000000D03*
D45*
X140990000Y-68000000D03*
X143530000Y-68000000D03*
%TD*%
D46*
%TO.C,L3*%
X167000000Y-62750000D03*
X160950000Y-62750000D03*
%TD*%
D31*
%TO.C,Q6*%
X127812500Y-76550000D03*
X127812500Y-78450000D03*
X129687500Y-77500000D03*
%TD*%
D47*
%TO.C,D7*%
X150712500Y-79600000D03*
X146712500Y-79600000D03*
%TD*%
D36*
%TO.C,RV1*%
X145225000Y-86300000D03*
X140225000Y-84200000D03*
%TD*%
D48*
%TO.C,U3*%
X129525000Y-55250000D03*
X131825000Y-55250000D03*
D49*
X131825000Y-48950000D03*
D48*
X134125000Y-55250000D03*
%TD*%
D10*
%TO.C,TP5*%
X137725000Y-86750000D03*
%TD*%
D26*
%TO.C,R26*%
X121662500Y-49412500D03*
X119837500Y-49412500D03*
%TD*%
D50*
%TO.C,C14*%
X136775000Y-49500000D03*
X139725000Y-49500000D03*
%TD*%
D26*
%TO.C,R23*%
X155375000Y-79600000D03*
X153550000Y-79600000D03*
%TD*%
D51*
%TO.C,U4*%
X175325000Y-71712500D03*
X177225000Y-71712500D03*
X176275000Y-69837500D03*
%TD*%
D29*
%TO.C,D4*%
X120350000Y-74000000D03*
X118150000Y-74000000D03*
%TD*%
D12*
%TO.C,F1*%
X154725000Y-50500000D03*
X148315000Y-50500000D03*
%TD*%
D52*
%TO.C,R28*%
X155332500Y-63155000D03*
X152407500Y-63155000D03*
%TD*%
D26*
%TO.C,R22*%
X167312500Y-78200000D03*
X165487500Y-78200000D03*
%TD*%
D32*
%TO.C,SW2*%
X126750000Y-68000000D03*
X133250000Y-68000000D03*
%TD*%
D18*
%TO.C,Q5*%
X146950000Y-76450000D03*
X146950000Y-74550000D03*
X145075000Y-75500000D03*
%TD*%
D26*
%TO.C,R30*%
X177112500Y-76200000D03*
X175287500Y-76200000D03*
%TD*%
D53*
%TO.C,TP2*%
X173000000Y-49000000D03*
%TD*%
D54*
%TO.C,J3*%
X174500000Y-85250000D03*
D55*
X174500000Y-82750000D03*
X174500000Y-80250000D03*
%TD*%
D56*
%TO.C,D2*%
X137750000Y-54250000D03*
X141750000Y-54250000D03*
%TD*%
D31*
%TO.C,Q7*%
X149375000Y-72550000D03*
X149375000Y-74450000D03*
X151250000Y-73500000D03*
%TD*%
D37*
%TO.C,H2*%
X137000000Y-79000000D03*
%TD*%
D10*
%TO.C,TP4*%
X147300000Y-61900000D03*
%TD*%
D39*
%TO.C,C11*%
X110050000Y-58825000D03*
X110050000Y-57275000D03*
%TD*%
D26*
%TO.C,R7*%
X117012500Y-71900000D03*
X115187500Y-71900000D03*
%TD*%
D37*
%TO.C,H1*%
X154000000Y-59000000D03*
%TD*%
D57*
%TO.C,R18*%
X115587500Y-49500000D03*
X117412500Y-49500000D03*
%TD*%
D32*
%TO.C,SW1*%
X105750000Y-68000000D03*
X112250000Y-68000000D03*
%TD*%
D27*
%TO.C,J4*%
X111290000Y-49000000D03*
D28*
X111290000Y-51540000D03*
X108750000Y-49000000D03*
X108750000Y-51540000D03*
X106210000Y-49000000D03*
X106210000Y-51540000D03*
X103670000Y-49000000D03*
X103670000Y-51540000D03*
X101130000Y-49000000D03*
X101130000Y-51540000D03*
%TD*%
D26*
%TO.C,R19*%
X170512500Y-72000000D03*
X168687500Y-72000000D03*
%TD*%
D58*
%TO.C,R31*%
X173400000Y-76112500D03*
X173400000Y-74287500D03*
%TD*%
M02*
