%TF.GenerationSoftware,KiCad,Pcbnew,8.0.1-8.0.1-1~ubuntu22.04.1*%
%TF.CreationDate,2024-04-06T20:30:11+03:00*%
%TF.ProjectId,handle-module,68616e64-6c65-42d6-9d6f-64756c652e6b,rev?*%
%TF.SameCoordinates,Original*%
%TF.FileFunction,Drillmap*%
%TF.FilePolarity,Positive*%
%FSLAX45Y45*%
G04 Gerber Fmt 4.5, Leading zero omitted, Abs format (unit mm)*
G04 Created by KiCad (PCBNEW 8.0.1-8.0.1-1~ubuntu22.04.1) date 2024-04-06 20:30:11*
%MOMM*%
%LPD*%
G01*
G04 APERTURE LIST*
%ADD10C,0.100000*%
%ADD11C,0.200000*%
%ADD12C,0.220000*%
G04 APERTURE END LIST*
D10*
X5500000Y-7800000D02*
X13500000Y-7800000D01*
X13500000Y-12000000D01*
X5500000Y-12000000D01*
X5500000Y-7800000D01*
D11*
D12*
X5640000Y-9990000D02*
X5860000Y-10210000D01*
X5860000Y-9990000D02*
X5640000Y-10210000D01*
X7340000Y-10990000D02*
X7560000Y-11210000D01*
X7560000Y-10990000D02*
X7340000Y-11210000D01*
X9190000Y-10890000D02*
X9410000Y-11110000D01*
X9410000Y-10890000D02*
X9190000Y-11110000D01*
X10940000Y-8840000D02*
X11160000Y-9060000D01*
X11160000Y-8840000D02*
X10940000Y-9060000D01*
X12840000Y-10690000D02*
X13060000Y-10910000D01*
X13060000Y-10690000D02*
X12840000Y-10910000D01*
D11*
X5755777Y-12316484D02*
X5755777Y-12116484D01*
X5755777Y-12116484D02*
X5803396Y-12116484D01*
X5803396Y-12116484D02*
X5831967Y-12126008D01*
X5831967Y-12126008D02*
X5851015Y-12145055D01*
X5851015Y-12145055D02*
X5860539Y-12164103D01*
X5860539Y-12164103D02*
X5870062Y-12202198D01*
X5870062Y-12202198D02*
X5870062Y-12230769D01*
X5870062Y-12230769D02*
X5860539Y-12268865D01*
X5860539Y-12268865D02*
X5851015Y-12287912D01*
X5851015Y-12287912D02*
X5831967Y-12306960D01*
X5831967Y-12306960D02*
X5803396Y-12316484D01*
X5803396Y-12316484D02*
X5755777Y-12316484D01*
X5955777Y-12316484D02*
X5955777Y-12183150D01*
X5955777Y-12221246D02*
X5965301Y-12202198D01*
X5965301Y-12202198D02*
X5974824Y-12192674D01*
X5974824Y-12192674D02*
X5993872Y-12183150D01*
X5993872Y-12183150D02*
X6012920Y-12183150D01*
X6079586Y-12316484D02*
X6079586Y-12183150D01*
X6079586Y-12116484D02*
X6070062Y-12126008D01*
X6070062Y-12126008D02*
X6079586Y-12135531D01*
X6079586Y-12135531D02*
X6089110Y-12126008D01*
X6089110Y-12126008D02*
X6079586Y-12116484D01*
X6079586Y-12116484D02*
X6079586Y-12135531D01*
X6203396Y-12316484D02*
X6184348Y-12306960D01*
X6184348Y-12306960D02*
X6174824Y-12287912D01*
X6174824Y-12287912D02*
X6174824Y-12116484D01*
X6308158Y-12316484D02*
X6289110Y-12306960D01*
X6289110Y-12306960D02*
X6279586Y-12287912D01*
X6279586Y-12287912D02*
X6279586Y-12116484D01*
X6536729Y-12316484D02*
X6536729Y-12116484D01*
X6536729Y-12116484D02*
X6603396Y-12259341D01*
X6603396Y-12259341D02*
X6670062Y-12116484D01*
X6670062Y-12116484D02*
X6670062Y-12316484D01*
X6851015Y-12316484D02*
X6851015Y-12211722D01*
X6851015Y-12211722D02*
X6841491Y-12192674D01*
X6841491Y-12192674D02*
X6822443Y-12183150D01*
X6822443Y-12183150D02*
X6784348Y-12183150D01*
X6784348Y-12183150D02*
X6765301Y-12192674D01*
X6851015Y-12306960D02*
X6831967Y-12316484D01*
X6831967Y-12316484D02*
X6784348Y-12316484D01*
X6784348Y-12316484D02*
X6765301Y-12306960D01*
X6765301Y-12306960D02*
X6755777Y-12287912D01*
X6755777Y-12287912D02*
X6755777Y-12268865D01*
X6755777Y-12268865D02*
X6765301Y-12249817D01*
X6765301Y-12249817D02*
X6784348Y-12240293D01*
X6784348Y-12240293D02*
X6831967Y-12240293D01*
X6831967Y-12240293D02*
X6851015Y-12230769D01*
X6946253Y-12183150D02*
X6946253Y-12383150D01*
X6946253Y-12192674D02*
X6965301Y-12183150D01*
X6965301Y-12183150D02*
X7003396Y-12183150D01*
X7003396Y-12183150D02*
X7022443Y-12192674D01*
X7022443Y-12192674D02*
X7031967Y-12202198D01*
X7031967Y-12202198D02*
X7041491Y-12221246D01*
X7041491Y-12221246D02*
X7041491Y-12278388D01*
X7041491Y-12278388D02*
X7031967Y-12297436D01*
X7031967Y-12297436D02*
X7022443Y-12306960D01*
X7022443Y-12306960D02*
X7003396Y-12316484D01*
X7003396Y-12316484D02*
X6965301Y-12316484D01*
X6965301Y-12316484D02*
X6946253Y-12306960D01*
X7127205Y-12297436D02*
X7136729Y-12306960D01*
X7136729Y-12306960D02*
X7127205Y-12316484D01*
X7127205Y-12316484D02*
X7117682Y-12306960D01*
X7117682Y-12306960D02*
X7127205Y-12297436D01*
X7127205Y-12297436D02*
X7127205Y-12316484D01*
X7127205Y-12192674D02*
X7136729Y-12202198D01*
X7136729Y-12202198D02*
X7127205Y-12211722D01*
X7127205Y-12211722D02*
X7117682Y-12202198D01*
X7117682Y-12202198D02*
X7127205Y-12192674D01*
X7127205Y-12192674D02*
X7127205Y-12211722D01*
X5295000Y-12545000D02*
X5495000Y-12745000D01*
X5495000Y-12545000D02*
X5295000Y-12745000D01*
X5746253Y-12555531D02*
X5755777Y-12546008D01*
X5755777Y-12546008D02*
X5774824Y-12536484D01*
X5774824Y-12536484D02*
X5822443Y-12536484D01*
X5822443Y-12536484D02*
X5841491Y-12546008D01*
X5841491Y-12546008D02*
X5851015Y-12555531D01*
X5851015Y-12555531D02*
X5860539Y-12574579D01*
X5860539Y-12574579D02*
X5860539Y-12593627D01*
X5860539Y-12593627D02*
X5851015Y-12622198D01*
X5851015Y-12622198D02*
X5736729Y-12736484D01*
X5736729Y-12736484D02*
X5860539Y-12736484D01*
X5946253Y-12717436D02*
X5955777Y-12726960D01*
X5955777Y-12726960D02*
X5946253Y-12736484D01*
X5946253Y-12736484D02*
X5936729Y-12726960D01*
X5936729Y-12726960D02*
X5946253Y-12717436D01*
X5946253Y-12717436D02*
X5946253Y-12736484D01*
X6031967Y-12555531D02*
X6041491Y-12546008D01*
X6041491Y-12546008D02*
X6060539Y-12536484D01*
X6060539Y-12536484D02*
X6108158Y-12536484D01*
X6108158Y-12536484D02*
X6127205Y-12546008D01*
X6127205Y-12546008D02*
X6136729Y-12555531D01*
X6136729Y-12555531D02*
X6146253Y-12574579D01*
X6146253Y-12574579D02*
X6146253Y-12593627D01*
X6146253Y-12593627D02*
X6136729Y-12622198D01*
X6136729Y-12622198D02*
X6022443Y-12736484D01*
X6022443Y-12736484D02*
X6146253Y-12736484D01*
X6270062Y-12536484D02*
X6289110Y-12536484D01*
X6289110Y-12536484D02*
X6308158Y-12546008D01*
X6308158Y-12546008D02*
X6317682Y-12555531D01*
X6317682Y-12555531D02*
X6327205Y-12574579D01*
X6327205Y-12574579D02*
X6336729Y-12612674D01*
X6336729Y-12612674D02*
X6336729Y-12660293D01*
X6336729Y-12660293D02*
X6327205Y-12698388D01*
X6327205Y-12698388D02*
X6317682Y-12717436D01*
X6317682Y-12717436D02*
X6308158Y-12726960D01*
X6308158Y-12726960D02*
X6289110Y-12736484D01*
X6289110Y-12736484D02*
X6270062Y-12736484D01*
X6270062Y-12736484D02*
X6251015Y-12726960D01*
X6251015Y-12726960D02*
X6241491Y-12717436D01*
X6241491Y-12717436D02*
X6231967Y-12698388D01*
X6231967Y-12698388D02*
X6222443Y-12660293D01*
X6222443Y-12660293D02*
X6222443Y-12612674D01*
X6222443Y-12612674D02*
X6231967Y-12574579D01*
X6231967Y-12574579D02*
X6241491Y-12555531D01*
X6241491Y-12555531D02*
X6251015Y-12546008D01*
X6251015Y-12546008D02*
X6270062Y-12536484D01*
X6460539Y-12536484D02*
X6479586Y-12536484D01*
X6479586Y-12536484D02*
X6498634Y-12546008D01*
X6498634Y-12546008D02*
X6508158Y-12555531D01*
X6508158Y-12555531D02*
X6517682Y-12574579D01*
X6517682Y-12574579D02*
X6527205Y-12612674D01*
X6527205Y-12612674D02*
X6527205Y-12660293D01*
X6527205Y-12660293D02*
X6517682Y-12698388D01*
X6517682Y-12698388D02*
X6508158Y-12717436D01*
X6508158Y-12717436D02*
X6498634Y-12726960D01*
X6498634Y-12726960D02*
X6479586Y-12736484D01*
X6479586Y-12736484D02*
X6460539Y-12736484D01*
X6460539Y-12736484D02*
X6441491Y-12726960D01*
X6441491Y-12726960D02*
X6431967Y-12717436D01*
X6431967Y-12717436D02*
X6422443Y-12698388D01*
X6422443Y-12698388D02*
X6412920Y-12660293D01*
X6412920Y-12660293D02*
X6412920Y-12612674D01*
X6412920Y-12612674D02*
X6422443Y-12574579D01*
X6422443Y-12574579D02*
X6431967Y-12555531D01*
X6431967Y-12555531D02*
X6441491Y-12546008D01*
X6441491Y-12546008D02*
X6460539Y-12536484D01*
X6612920Y-12736484D02*
X6612920Y-12603150D01*
X6612920Y-12622198D02*
X6622443Y-12612674D01*
X6622443Y-12612674D02*
X6641491Y-12603150D01*
X6641491Y-12603150D02*
X6670063Y-12603150D01*
X6670063Y-12603150D02*
X6689110Y-12612674D01*
X6689110Y-12612674D02*
X6698634Y-12631722D01*
X6698634Y-12631722D02*
X6698634Y-12736484D01*
X6698634Y-12631722D02*
X6708158Y-12612674D01*
X6708158Y-12612674D02*
X6727205Y-12603150D01*
X6727205Y-12603150D02*
X6755777Y-12603150D01*
X6755777Y-12603150D02*
X6774824Y-12612674D01*
X6774824Y-12612674D02*
X6784348Y-12631722D01*
X6784348Y-12631722D02*
X6784348Y-12736484D01*
X6879586Y-12736484D02*
X6879586Y-12603150D01*
X6879586Y-12622198D02*
X6889110Y-12612674D01*
X6889110Y-12612674D02*
X6908158Y-12603150D01*
X6908158Y-12603150D02*
X6936729Y-12603150D01*
X6936729Y-12603150D02*
X6955777Y-12612674D01*
X6955777Y-12612674D02*
X6965301Y-12631722D01*
X6965301Y-12631722D02*
X6965301Y-12736484D01*
X6965301Y-12631722D02*
X6974824Y-12612674D01*
X6974824Y-12612674D02*
X6993872Y-12603150D01*
X6993872Y-12603150D02*
X7022443Y-12603150D01*
X7022443Y-12603150D02*
X7041491Y-12612674D01*
X7041491Y-12612674D02*
X7051015Y-12631722D01*
X7051015Y-12631722D02*
X7051015Y-12736484D01*
X7441491Y-12526960D02*
X7270063Y-12784103D01*
X7698634Y-12536484D02*
X7717682Y-12536484D01*
X7717682Y-12536484D02*
X7736729Y-12546008D01*
X7736729Y-12546008D02*
X7746253Y-12555531D01*
X7746253Y-12555531D02*
X7755777Y-12574579D01*
X7755777Y-12574579D02*
X7765301Y-12612674D01*
X7765301Y-12612674D02*
X7765301Y-12660293D01*
X7765301Y-12660293D02*
X7755777Y-12698388D01*
X7755777Y-12698388D02*
X7746253Y-12717436D01*
X7746253Y-12717436D02*
X7736729Y-12726960D01*
X7736729Y-12726960D02*
X7717682Y-12736484D01*
X7717682Y-12736484D02*
X7698634Y-12736484D01*
X7698634Y-12736484D02*
X7679586Y-12726960D01*
X7679586Y-12726960D02*
X7670063Y-12717436D01*
X7670063Y-12717436D02*
X7660539Y-12698388D01*
X7660539Y-12698388D02*
X7651015Y-12660293D01*
X7651015Y-12660293D02*
X7651015Y-12612674D01*
X7651015Y-12612674D02*
X7660539Y-12574579D01*
X7660539Y-12574579D02*
X7670063Y-12555531D01*
X7670063Y-12555531D02*
X7679586Y-12546008D01*
X7679586Y-12546008D02*
X7698634Y-12536484D01*
X7851015Y-12717436D02*
X7860539Y-12726960D01*
X7860539Y-12726960D02*
X7851015Y-12736484D01*
X7851015Y-12736484D02*
X7841491Y-12726960D01*
X7841491Y-12726960D02*
X7851015Y-12717436D01*
X7851015Y-12717436D02*
X7851015Y-12736484D01*
X7984348Y-12536484D02*
X8003396Y-12536484D01*
X8003396Y-12536484D02*
X8022444Y-12546008D01*
X8022444Y-12546008D02*
X8031967Y-12555531D01*
X8031967Y-12555531D02*
X8041491Y-12574579D01*
X8041491Y-12574579D02*
X8051015Y-12612674D01*
X8051015Y-12612674D02*
X8051015Y-12660293D01*
X8051015Y-12660293D02*
X8041491Y-12698388D01*
X8041491Y-12698388D02*
X8031967Y-12717436D01*
X8031967Y-12717436D02*
X8022444Y-12726960D01*
X8022444Y-12726960D02*
X8003396Y-12736484D01*
X8003396Y-12736484D02*
X7984348Y-12736484D01*
X7984348Y-12736484D02*
X7965301Y-12726960D01*
X7965301Y-12726960D02*
X7955777Y-12717436D01*
X7955777Y-12717436D02*
X7946253Y-12698388D01*
X7946253Y-12698388D02*
X7936729Y-12660293D01*
X7936729Y-12660293D02*
X7936729Y-12612674D01*
X7936729Y-12612674D02*
X7946253Y-12574579D01*
X7946253Y-12574579D02*
X7955777Y-12555531D01*
X7955777Y-12555531D02*
X7965301Y-12546008D01*
X7965301Y-12546008D02*
X7984348Y-12536484D01*
X8165301Y-12622198D02*
X8146253Y-12612674D01*
X8146253Y-12612674D02*
X8136729Y-12603150D01*
X8136729Y-12603150D02*
X8127206Y-12584103D01*
X8127206Y-12584103D02*
X8127206Y-12574579D01*
X8127206Y-12574579D02*
X8136729Y-12555531D01*
X8136729Y-12555531D02*
X8146253Y-12546008D01*
X8146253Y-12546008D02*
X8165301Y-12536484D01*
X8165301Y-12536484D02*
X8203396Y-12536484D01*
X8203396Y-12536484D02*
X8222444Y-12546008D01*
X8222444Y-12546008D02*
X8231967Y-12555531D01*
X8231967Y-12555531D02*
X8241491Y-12574579D01*
X8241491Y-12574579D02*
X8241491Y-12584103D01*
X8241491Y-12584103D02*
X8231967Y-12603150D01*
X8231967Y-12603150D02*
X8222444Y-12612674D01*
X8222444Y-12612674D02*
X8203396Y-12622198D01*
X8203396Y-12622198D02*
X8165301Y-12622198D01*
X8165301Y-12622198D02*
X8146253Y-12631722D01*
X8146253Y-12631722D02*
X8136729Y-12641246D01*
X8136729Y-12641246D02*
X8127206Y-12660293D01*
X8127206Y-12660293D02*
X8127206Y-12698388D01*
X8127206Y-12698388D02*
X8136729Y-12717436D01*
X8136729Y-12717436D02*
X8146253Y-12726960D01*
X8146253Y-12726960D02*
X8165301Y-12736484D01*
X8165301Y-12736484D02*
X8203396Y-12736484D01*
X8203396Y-12736484D02*
X8222444Y-12726960D01*
X8222444Y-12726960D02*
X8231967Y-12717436D01*
X8231967Y-12717436D02*
X8241491Y-12698388D01*
X8241491Y-12698388D02*
X8241491Y-12660293D01*
X8241491Y-12660293D02*
X8231967Y-12641246D01*
X8231967Y-12641246D02*
X8222444Y-12631722D01*
X8222444Y-12631722D02*
X8203396Y-12622198D01*
X8412920Y-12536484D02*
X8374825Y-12536484D01*
X8374825Y-12536484D02*
X8355777Y-12546008D01*
X8355777Y-12546008D02*
X8346253Y-12555531D01*
X8346253Y-12555531D02*
X8327206Y-12584103D01*
X8327206Y-12584103D02*
X8317682Y-12622198D01*
X8317682Y-12622198D02*
X8317682Y-12698388D01*
X8317682Y-12698388D02*
X8327206Y-12717436D01*
X8327206Y-12717436D02*
X8336729Y-12726960D01*
X8336729Y-12726960D02*
X8355777Y-12736484D01*
X8355777Y-12736484D02*
X8393872Y-12736484D01*
X8393872Y-12736484D02*
X8412920Y-12726960D01*
X8412920Y-12726960D02*
X8422444Y-12717436D01*
X8422444Y-12717436D02*
X8431968Y-12698388D01*
X8431968Y-12698388D02*
X8431968Y-12650769D01*
X8431968Y-12650769D02*
X8422444Y-12631722D01*
X8422444Y-12631722D02*
X8412920Y-12622198D01*
X8412920Y-12622198D02*
X8393872Y-12612674D01*
X8393872Y-12612674D02*
X8355777Y-12612674D01*
X8355777Y-12612674D02*
X8336729Y-12622198D01*
X8336729Y-12622198D02*
X8327206Y-12631722D01*
X8327206Y-12631722D02*
X8317682Y-12650769D01*
X8603396Y-12536484D02*
X8565301Y-12536484D01*
X8565301Y-12536484D02*
X8546253Y-12546008D01*
X8546253Y-12546008D02*
X8536729Y-12555531D01*
X8536729Y-12555531D02*
X8517682Y-12584103D01*
X8517682Y-12584103D02*
X8508158Y-12622198D01*
X8508158Y-12622198D02*
X8508158Y-12698388D01*
X8508158Y-12698388D02*
X8517682Y-12717436D01*
X8517682Y-12717436D02*
X8527206Y-12726960D01*
X8527206Y-12726960D02*
X8546253Y-12736484D01*
X8546253Y-12736484D02*
X8584349Y-12736484D01*
X8584349Y-12736484D02*
X8603396Y-12726960D01*
X8603396Y-12726960D02*
X8612920Y-12717436D01*
X8612920Y-12717436D02*
X8622444Y-12698388D01*
X8622444Y-12698388D02*
X8622444Y-12650769D01*
X8622444Y-12650769D02*
X8612920Y-12631722D01*
X8612920Y-12631722D02*
X8603396Y-12622198D01*
X8603396Y-12622198D02*
X8584349Y-12612674D01*
X8584349Y-12612674D02*
X8546253Y-12612674D01*
X8546253Y-12612674D02*
X8527206Y-12622198D01*
X8527206Y-12622198D02*
X8517682Y-12631722D01*
X8517682Y-12631722D02*
X8508158Y-12650769D01*
X8698634Y-12536484D02*
X8698634Y-12574579D01*
X8774825Y-12536484D02*
X8774825Y-12574579D01*
X9070063Y-12812674D02*
X9060539Y-12803150D01*
X9060539Y-12803150D02*
X9041491Y-12774579D01*
X9041491Y-12774579D02*
X9031968Y-12755531D01*
X9031968Y-12755531D02*
X9022444Y-12726960D01*
X9022444Y-12726960D02*
X9012920Y-12679341D01*
X9012920Y-12679341D02*
X9012920Y-12641246D01*
X9012920Y-12641246D02*
X9022444Y-12593627D01*
X9022444Y-12593627D02*
X9031968Y-12565055D01*
X9031968Y-12565055D02*
X9041491Y-12546008D01*
X9041491Y-12546008D02*
X9060539Y-12517436D01*
X9060539Y-12517436D02*
X9070063Y-12507912D01*
X9241491Y-12536484D02*
X9146253Y-12536484D01*
X9146253Y-12536484D02*
X9136730Y-12631722D01*
X9136730Y-12631722D02*
X9146253Y-12622198D01*
X9146253Y-12622198D02*
X9165301Y-12612674D01*
X9165301Y-12612674D02*
X9212920Y-12612674D01*
X9212920Y-12612674D02*
X9231968Y-12622198D01*
X9231968Y-12622198D02*
X9241491Y-12631722D01*
X9241491Y-12631722D02*
X9251015Y-12650769D01*
X9251015Y-12650769D02*
X9251015Y-12698388D01*
X9251015Y-12698388D02*
X9241491Y-12717436D01*
X9241491Y-12717436D02*
X9231968Y-12726960D01*
X9231968Y-12726960D02*
X9212920Y-12736484D01*
X9212920Y-12736484D02*
X9165301Y-12736484D01*
X9165301Y-12736484D02*
X9146253Y-12726960D01*
X9146253Y-12726960D02*
X9136730Y-12717436D01*
X9489111Y-12736484D02*
X9489111Y-12536484D01*
X9574825Y-12736484D02*
X9574825Y-12631722D01*
X9574825Y-12631722D02*
X9565301Y-12612674D01*
X9565301Y-12612674D02*
X9546253Y-12603150D01*
X9546253Y-12603150D02*
X9517682Y-12603150D01*
X9517682Y-12603150D02*
X9498634Y-12612674D01*
X9498634Y-12612674D02*
X9489111Y-12622198D01*
X9698634Y-12736484D02*
X9679587Y-12726960D01*
X9679587Y-12726960D02*
X9670063Y-12717436D01*
X9670063Y-12717436D02*
X9660539Y-12698388D01*
X9660539Y-12698388D02*
X9660539Y-12641246D01*
X9660539Y-12641246D02*
X9670063Y-12622198D01*
X9670063Y-12622198D02*
X9679587Y-12612674D01*
X9679587Y-12612674D02*
X9698634Y-12603150D01*
X9698634Y-12603150D02*
X9727206Y-12603150D01*
X9727206Y-12603150D02*
X9746253Y-12612674D01*
X9746253Y-12612674D02*
X9755777Y-12622198D01*
X9755777Y-12622198D02*
X9765301Y-12641246D01*
X9765301Y-12641246D02*
X9765301Y-12698388D01*
X9765301Y-12698388D02*
X9755777Y-12717436D01*
X9755777Y-12717436D02*
X9746253Y-12726960D01*
X9746253Y-12726960D02*
X9727206Y-12736484D01*
X9727206Y-12736484D02*
X9698634Y-12736484D01*
X9879587Y-12736484D02*
X9860539Y-12726960D01*
X9860539Y-12726960D02*
X9851015Y-12707912D01*
X9851015Y-12707912D02*
X9851015Y-12536484D01*
X10031968Y-12726960D02*
X10012920Y-12736484D01*
X10012920Y-12736484D02*
X9974825Y-12736484D01*
X9974825Y-12736484D02*
X9955777Y-12726960D01*
X9955777Y-12726960D02*
X9946253Y-12707912D01*
X9946253Y-12707912D02*
X9946253Y-12631722D01*
X9946253Y-12631722D02*
X9955777Y-12612674D01*
X9955777Y-12612674D02*
X9974825Y-12603150D01*
X9974825Y-12603150D02*
X10012920Y-12603150D01*
X10012920Y-12603150D02*
X10031968Y-12612674D01*
X10031968Y-12612674D02*
X10041492Y-12631722D01*
X10041492Y-12631722D02*
X10041492Y-12650769D01*
X10041492Y-12650769D02*
X9946253Y-12669817D01*
X10117682Y-12726960D02*
X10136730Y-12736484D01*
X10136730Y-12736484D02*
X10174825Y-12736484D01*
X10174825Y-12736484D02*
X10193873Y-12726960D01*
X10193873Y-12726960D02*
X10203396Y-12707912D01*
X10203396Y-12707912D02*
X10203396Y-12698388D01*
X10203396Y-12698388D02*
X10193873Y-12679341D01*
X10193873Y-12679341D02*
X10174825Y-12669817D01*
X10174825Y-12669817D02*
X10146253Y-12669817D01*
X10146253Y-12669817D02*
X10127206Y-12660293D01*
X10127206Y-12660293D02*
X10117682Y-12641246D01*
X10117682Y-12641246D02*
X10117682Y-12631722D01*
X10117682Y-12631722D02*
X10127206Y-12612674D01*
X10127206Y-12612674D02*
X10146253Y-12603150D01*
X10146253Y-12603150D02*
X10174825Y-12603150D01*
X10174825Y-12603150D02*
X10193873Y-12612674D01*
X10270063Y-12812674D02*
X10279587Y-12803150D01*
X10279587Y-12803150D02*
X10298634Y-12774579D01*
X10298634Y-12774579D02*
X10308158Y-12755531D01*
X10308158Y-12755531D02*
X10317682Y-12726960D01*
X10317682Y-12726960D02*
X10327206Y-12679341D01*
X10327206Y-12679341D02*
X10327206Y-12641246D01*
X10327206Y-12641246D02*
X10317682Y-12593627D01*
X10317682Y-12593627D02*
X10308158Y-12565055D01*
X10308158Y-12565055D02*
X10298634Y-12546008D01*
X10298634Y-12546008D02*
X10279587Y-12517436D01*
X10279587Y-12517436D02*
X10270063Y-12507912D01*
X10631968Y-12812674D02*
X10622444Y-12803150D01*
X10622444Y-12803150D02*
X10603396Y-12774579D01*
X10603396Y-12774579D02*
X10593873Y-12755531D01*
X10593873Y-12755531D02*
X10584349Y-12726960D01*
X10584349Y-12726960D02*
X10574825Y-12679341D01*
X10574825Y-12679341D02*
X10574825Y-12641246D01*
X10574825Y-12641246D02*
X10584349Y-12593627D01*
X10584349Y-12593627D02*
X10593873Y-12565055D01*
X10593873Y-12565055D02*
X10603396Y-12546008D01*
X10603396Y-12546008D02*
X10622444Y-12517436D01*
X10622444Y-12517436D02*
X10631968Y-12507912D01*
X10708158Y-12603150D02*
X10708158Y-12736484D01*
X10708158Y-12622198D02*
X10717682Y-12612674D01*
X10717682Y-12612674D02*
X10736730Y-12603150D01*
X10736730Y-12603150D02*
X10765301Y-12603150D01*
X10765301Y-12603150D02*
X10784349Y-12612674D01*
X10784349Y-12612674D02*
X10793873Y-12631722D01*
X10793873Y-12631722D02*
X10793873Y-12736484D01*
X10917682Y-12736484D02*
X10898634Y-12726960D01*
X10898634Y-12726960D02*
X10889111Y-12717436D01*
X10889111Y-12717436D02*
X10879587Y-12698388D01*
X10879587Y-12698388D02*
X10879587Y-12641246D01*
X10879587Y-12641246D02*
X10889111Y-12622198D01*
X10889111Y-12622198D02*
X10898634Y-12612674D01*
X10898634Y-12612674D02*
X10917682Y-12603150D01*
X10917682Y-12603150D02*
X10946254Y-12603150D01*
X10946254Y-12603150D02*
X10965301Y-12612674D01*
X10965301Y-12612674D02*
X10974825Y-12622198D01*
X10974825Y-12622198D02*
X10984349Y-12641246D01*
X10984349Y-12641246D02*
X10984349Y-12698388D01*
X10984349Y-12698388D02*
X10974825Y-12717436D01*
X10974825Y-12717436D02*
X10965301Y-12726960D01*
X10965301Y-12726960D02*
X10946254Y-12736484D01*
X10946254Y-12736484D02*
X10917682Y-12736484D01*
X11041492Y-12603150D02*
X11117682Y-12603150D01*
X11070063Y-12536484D02*
X11070063Y-12707912D01*
X11070063Y-12707912D02*
X11079587Y-12726960D01*
X11079587Y-12726960D02*
X11098634Y-12736484D01*
X11098634Y-12736484D02*
X11117682Y-12736484D01*
X11336730Y-12603150D02*
X11336730Y-12803150D01*
X11336730Y-12612674D02*
X11355777Y-12603150D01*
X11355777Y-12603150D02*
X11393873Y-12603150D01*
X11393873Y-12603150D02*
X11412920Y-12612674D01*
X11412920Y-12612674D02*
X11422444Y-12622198D01*
X11422444Y-12622198D02*
X11431968Y-12641246D01*
X11431968Y-12641246D02*
X11431968Y-12698388D01*
X11431968Y-12698388D02*
X11422444Y-12717436D01*
X11422444Y-12717436D02*
X11412920Y-12726960D01*
X11412920Y-12726960D02*
X11393873Y-12736484D01*
X11393873Y-12736484D02*
X11355777Y-12736484D01*
X11355777Y-12736484D02*
X11336730Y-12726960D01*
X11546253Y-12736484D02*
X11527206Y-12726960D01*
X11527206Y-12726960D02*
X11517682Y-12707912D01*
X11517682Y-12707912D02*
X11517682Y-12536484D01*
X11708158Y-12736484D02*
X11708158Y-12631722D01*
X11708158Y-12631722D02*
X11698634Y-12612674D01*
X11698634Y-12612674D02*
X11679587Y-12603150D01*
X11679587Y-12603150D02*
X11641492Y-12603150D01*
X11641492Y-12603150D02*
X11622444Y-12612674D01*
X11708158Y-12726960D02*
X11689111Y-12736484D01*
X11689111Y-12736484D02*
X11641492Y-12736484D01*
X11641492Y-12736484D02*
X11622444Y-12726960D01*
X11622444Y-12726960D02*
X11612920Y-12707912D01*
X11612920Y-12707912D02*
X11612920Y-12688865D01*
X11612920Y-12688865D02*
X11622444Y-12669817D01*
X11622444Y-12669817D02*
X11641492Y-12660293D01*
X11641492Y-12660293D02*
X11689111Y-12660293D01*
X11689111Y-12660293D02*
X11708158Y-12650769D01*
X11774825Y-12603150D02*
X11851015Y-12603150D01*
X11803396Y-12536484D02*
X11803396Y-12707912D01*
X11803396Y-12707912D02*
X11812920Y-12726960D01*
X11812920Y-12726960D02*
X11831968Y-12736484D01*
X11831968Y-12736484D02*
X11851015Y-12736484D01*
X11993873Y-12726960D02*
X11974825Y-12736484D01*
X11974825Y-12736484D02*
X11936730Y-12736484D01*
X11936730Y-12736484D02*
X11917682Y-12726960D01*
X11917682Y-12726960D02*
X11908158Y-12707912D01*
X11908158Y-12707912D02*
X11908158Y-12631722D01*
X11908158Y-12631722D02*
X11917682Y-12612674D01*
X11917682Y-12612674D02*
X11936730Y-12603150D01*
X11936730Y-12603150D02*
X11974825Y-12603150D01*
X11974825Y-12603150D02*
X11993873Y-12612674D01*
X11993873Y-12612674D02*
X12003396Y-12631722D01*
X12003396Y-12631722D02*
X12003396Y-12650769D01*
X12003396Y-12650769D02*
X11908158Y-12669817D01*
X12174825Y-12736484D02*
X12174825Y-12536484D01*
X12174825Y-12726960D02*
X12155777Y-12736484D01*
X12155777Y-12736484D02*
X12117682Y-12736484D01*
X12117682Y-12736484D02*
X12098634Y-12726960D01*
X12098634Y-12726960D02*
X12089111Y-12717436D01*
X12089111Y-12717436D02*
X12079587Y-12698388D01*
X12079587Y-12698388D02*
X12079587Y-12641246D01*
X12079587Y-12641246D02*
X12089111Y-12622198D01*
X12089111Y-12622198D02*
X12098634Y-12612674D01*
X12098634Y-12612674D02*
X12117682Y-12603150D01*
X12117682Y-12603150D02*
X12155777Y-12603150D01*
X12155777Y-12603150D02*
X12174825Y-12612674D01*
X12251015Y-12812674D02*
X12260539Y-12803150D01*
X12260539Y-12803150D02*
X12279587Y-12774579D01*
X12279587Y-12774579D02*
X12289111Y-12755531D01*
X12289111Y-12755531D02*
X12298634Y-12726960D01*
X12298634Y-12726960D02*
X12308158Y-12679341D01*
X12308158Y-12679341D02*
X12308158Y-12641246D01*
X12308158Y-12641246D02*
X12298634Y-12593627D01*
X12298634Y-12593627D02*
X12289111Y-12565055D01*
X12289111Y-12565055D02*
X12279587Y-12546008D01*
X12279587Y-12546008D02*
X12260539Y-12517436D01*
X12260539Y-12517436D02*
X12251015Y-12507912D01*
M02*
