%TF.GenerationSoftware,KiCad,Pcbnew,8.0.2-8.0.2-0~ubuntu22.04.1*%
%TF.CreationDate,2024-05-14T11:32:01+03:00*%
%TF.ProjectId,handle-module,68616e64-6c65-42d6-9d6f-64756c652e6b,rev?*%
%TF.SameCoordinates,Original*%
%TF.FileFunction,Legend,Bot*%
%TF.FilePolarity,Positive*%
%FSLAX46Y46*%
G04 Gerber Fmt 4.6, Leading zero omitted, Abs format (unit mm)*
G04 Created by KiCad (PCBNEW 8.0.2-8.0.2-0~ubuntu22.04.1) date 2024-05-14 11:32:01*
%MOMM*%
%LPD*%
G01*
G04 APERTURE LIST*
%ADD10C,0.150000*%
%ADD11C,0.120000*%
G04 APERTURE END LIST*
D10*
X75610839Y-118784104D02*
X75134649Y-118784104D01*
X75706077Y-119069819D02*
X75372744Y-118069819D01*
X75372744Y-118069819D02*
X75039411Y-119069819D01*
X74134649Y-118974580D02*
X74182268Y-119022200D01*
X74182268Y-119022200D02*
X74325125Y-119069819D01*
X74325125Y-119069819D02*
X74420363Y-119069819D01*
X74420363Y-119069819D02*
X74563220Y-119022200D01*
X74563220Y-119022200D02*
X74658458Y-118926961D01*
X74658458Y-118926961D02*
X74706077Y-118831723D01*
X74706077Y-118831723D02*
X74753696Y-118641247D01*
X74753696Y-118641247D02*
X74753696Y-118498390D01*
X74753696Y-118498390D02*
X74706077Y-118307914D01*
X74706077Y-118307914D02*
X74658458Y-118212676D01*
X74658458Y-118212676D02*
X74563220Y-118117438D01*
X74563220Y-118117438D02*
X74420363Y-118069819D01*
X74420363Y-118069819D02*
X74325125Y-118069819D01*
X74325125Y-118069819D02*
X74182268Y-118117438D01*
X74182268Y-118117438D02*
X74134649Y-118165057D01*
X73801315Y-118069819D02*
X73563220Y-119069819D01*
X73563220Y-119069819D02*
X73372744Y-118355533D01*
X73372744Y-118355533D02*
X73182268Y-119069819D01*
X73182268Y-119069819D02*
X72944173Y-118069819D01*
X72563220Y-118688866D02*
X71801316Y-118688866D01*
X71325125Y-119069819D02*
X71325125Y-118069819D01*
X70896554Y-119069819D02*
X70896554Y-118546009D01*
X70896554Y-118546009D02*
X70944173Y-118450771D01*
X70944173Y-118450771D02*
X71039411Y-118403152D01*
X71039411Y-118403152D02*
X71182268Y-118403152D01*
X71182268Y-118403152D02*
X71277506Y-118450771D01*
X71277506Y-118450771D02*
X71325125Y-118498390D01*
X69991792Y-119069819D02*
X69991792Y-118546009D01*
X69991792Y-118546009D02*
X70039411Y-118450771D01*
X70039411Y-118450771D02*
X70134649Y-118403152D01*
X70134649Y-118403152D02*
X70325125Y-118403152D01*
X70325125Y-118403152D02*
X70420363Y-118450771D01*
X69991792Y-119022200D02*
X70087030Y-119069819D01*
X70087030Y-119069819D02*
X70325125Y-119069819D01*
X70325125Y-119069819D02*
X70420363Y-119022200D01*
X70420363Y-119022200D02*
X70467982Y-118926961D01*
X70467982Y-118926961D02*
X70467982Y-118831723D01*
X70467982Y-118831723D02*
X70420363Y-118736485D01*
X70420363Y-118736485D02*
X70325125Y-118688866D01*
X70325125Y-118688866D02*
X70087030Y-118688866D01*
X70087030Y-118688866D02*
X69991792Y-118641247D01*
X69515601Y-118403152D02*
X69515601Y-119069819D01*
X69515601Y-118498390D02*
X69467982Y-118450771D01*
X69467982Y-118450771D02*
X69372744Y-118403152D01*
X69372744Y-118403152D02*
X69229887Y-118403152D01*
X69229887Y-118403152D02*
X69134649Y-118450771D01*
X69134649Y-118450771D02*
X69087030Y-118546009D01*
X69087030Y-118546009D02*
X69087030Y-119069819D01*
X68182268Y-119069819D02*
X68182268Y-118069819D01*
X68182268Y-119022200D02*
X68277506Y-119069819D01*
X68277506Y-119069819D02*
X68467982Y-119069819D01*
X68467982Y-119069819D02*
X68563220Y-119022200D01*
X68563220Y-119022200D02*
X68610839Y-118974580D01*
X68610839Y-118974580D02*
X68658458Y-118879342D01*
X68658458Y-118879342D02*
X68658458Y-118593628D01*
X68658458Y-118593628D02*
X68610839Y-118498390D01*
X68610839Y-118498390D02*
X68563220Y-118450771D01*
X68563220Y-118450771D02*
X68467982Y-118403152D01*
X68467982Y-118403152D02*
X68277506Y-118403152D01*
X68277506Y-118403152D02*
X68182268Y-118450771D01*
X67563220Y-119069819D02*
X67658458Y-119022200D01*
X67658458Y-119022200D02*
X67706077Y-118926961D01*
X67706077Y-118926961D02*
X67706077Y-118069819D01*
X66801315Y-119022200D02*
X66896553Y-119069819D01*
X66896553Y-119069819D02*
X67087029Y-119069819D01*
X67087029Y-119069819D02*
X67182267Y-119022200D01*
X67182267Y-119022200D02*
X67229886Y-118926961D01*
X67229886Y-118926961D02*
X67229886Y-118546009D01*
X67229886Y-118546009D02*
X67182267Y-118450771D01*
X67182267Y-118450771D02*
X67087029Y-118403152D01*
X67087029Y-118403152D02*
X66896553Y-118403152D01*
X66896553Y-118403152D02*
X66801315Y-118450771D01*
X66801315Y-118450771D02*
X66753696Y-118546009D01*
X66753696Y-118546009D02*
X66753696Y-118641247D01*
X66753696Y-118641247D02*
X67229886Y-118736485D01*
X66325124Y-118688866D02*
X65563220Y-118688866D01*
X65182267Y-118403152D02*
X64944172Y-119069819D01*
X64944172Y-119069819D02*
X64706077Y-118403152D01*
X63801315Y-119069819D02*
X64372743Y-119069819D01*
X64087029Y-119069819D02*
X64087029Y-118069819D01*
X64087029Y-118069819D02*
X64182267Y-118212676D01*
X64182267Y-118212676D02*
X64277505Y-118307914D01*
X64277505Y-118307914D02*
X64372743Y-118355533D01*
X63372743Y-118974580D02*
X63325124Y-119022200D01*
X63325124Y-119022200D02*
X63372743Y-119069819D01*
X63372743Y-119069819D02*
X63420362Y-119022200D01*
X63420362Y-119022200D02*
X63372743Y-118974580D01*
X63372743Y-118974580D02*
X63372743Y-119069819D01*
X62944172Y-118165057D02*
X62896553Y-118117438D01*
X62896553Y-118117438D02*
X62801315Y-118069819D01*
X62801315Y-118069819D02*
X62563220Y-118069819D01*
X62563220Y-118069819D02*
X62467982Y-118117438D01*
X62467982Y-118117438D02*
X62420363Y-118165057D01*
X62420363Y-118165057D02*
X62372744Y-118260295D01*
X62372744Y-118260295D02*
X62372744Y-118355533D01*
X62372744Y-118355533D02*
X62420363Y-118498390D01*
X62420363Y-118498390D02*
X62991791Y-119069819D01*
X62991791Y-119069819D02*
X62372744Y-119069819D01*
X61944172Y-118974580D02*
X61896553Y-119022200D01*
X61896553Y-119022200D02*
X61944172Y-119069819D01*
X61944172Y-119069819D02*
X61991791Y-119022200D01*
X61991791Y-119022200D02*
X61944172Y-118974580D01*
X61944172Y-118974580D02*
X61944172Y-119069819D01*
X60944173Y-119069819D02*
X61515601Y-119069819D01*
X61229887Y-119069819D02*
X61229887Y-118069819D01*
X61229887Y-118069819D02*
X61325125Y-118212676D01*
X61325125Y-118212676D02*
X61420363Y-118307914D01*
X61420363Y-118307914D02*
X61515601Y-118355533D01*
X117642857Y-101654819D02*
X117976190Y-101178628D01*
X118214285Y-101654819D02*
X118214285Y-100654819D01*
X118214285Y-100654819D02*
X117833333Y-100654819D01*
X117833333Y-100654819D02*
X117738095Y-100702438D01*
X117738095Y-100702438D02*
X117690476Y-100750057D01*
X117690476Y-100750057D02*
X117642857Y-100845295D01*
X117642857Y-100845295D02*
X117642857Y-100988152D01*
X117642857Y-100988152D02*
X117690476Y-101083390D01*
X117690476Y-101083390D02*
X117738095Y-101131009D01*
X117738095Y-101131009D02*
X117833333Y-101178628D01*
X117833333Y-101178628D02*
X118214285Y-101178628D01*
X117261904Y-100750057D02*
X117214285Y-100702438D01*
X117214285Y-100702438D02*
X117119047Y-100654819D01*
X117119047Y-100654819D02*
X116880952Y-100654819D01*
X116880952Y-100654819D02*
X116785714Y-100702438D01*
X116785714Y-100702438D02*
X116738095Y-100750057D01*
X116738095Y-100750057D02*
X116690476Y-100845295D01*
X116690476Y-100845295D02*
X116690476Y-100940533D01*
X116690476Y-100940533D02*
X116738095Y-101083390D01*
X116738095Y-101083390D02*
X117309523Y-101654819D01*
X117309523Y-101654819D02*
X116690476Y-101654819D01*
X116357142Y-100654819D02*
X115690476Y-100654819D01*
X115690476Y-100654819D02*
X116119047Y-101654819D01*
X91785725Y-95475057D02*
X91880963Y-95427438D01*
X91880963Y-95427438D02*
X91976201Y-95332200D01*
X91976201Y-95332200D02*
X92119058Y-95189342D01*
X92119058Y-95189342D02*
X92214296Y-95141723D01*
X92214296Y-95141723D02*
X92309534Y-95141723D01*
X92261915Y-95379819D02*
X92357153Y-95332200D01*
X92357153Y-95332200D02*
X92452391Y-95236961D01*
X92452391Y-95236961D02*
X92500010Y-95046485D01*
X92500010Y-95046485D02*
X92500010Y-94713152D01*
X92500010Y-94713152D02*
X92452391Y-94522676D01*
X92452391Y-94522676D02*
X92357153Y-94427438D01*
X92357153Y-94427438D02*
X92261915Y-94379819D01*
X92261915Y-94379819D02*
X92071439Y-94379819D01*
X92071439Y-94379819D02*
X91976201Y-94427438D01*
X91976201Y-94427438D02*
X91880963Y-94522676D01*
X91880963Y-94522676D02*
X91833344Y-94713152D01*
X91833344Y-94713152D02*
X91833344Y-95046485D01*
X91833344Y-95046485D02*
X91880963Y-95236961D01*
X91880963Y-95236961D02*
X91976201Y-95332200D01*
X91976201Y-95332200D02*
X92071439Y-95379819D01*
X92071439Y-95379819D02*
X92261915Y-95379819D01*
X91452391Y-94475057D02*
X91404772Y-94427438D01*
X91404772Y-94427438D02*
X91309534Y-94379819D01*
X91309534Y-94379819D02*
X91071439Y-94379819D01*
X91071439Y-94379819D02*
X90976201Y-94427438D01*
X90976201Y-94427438D02*
X90928582Y-94475057D01*
X90928582Y-94475057D02*
X90880963Y-94570295D01*
X90880963Y-94570295D02*
X90880963Y-94665533D01*
X90880963Y-94665533D02*
X90928582Y-94808390D01*
X90928582Y-94808390D02*
X91500010Y-95379819D01*
X91500010Y-95379819D02*
X90880963Y-95379819D01*
X100961904Y-87254819D02*
X100961904Y-88064342D01*
X100961904Y-88064342D02*
X100914285Y-88159580D01*
X100914285Y-88159580D02*
X100866666Y-88207200D01*
X100866666Y-88207200D02*
X100771428Y-88254819D01*
X100771428Y-88254819D02*
X100580952Y-88254819D01*
X100580952Y-88254819D02*
X100485714Y-88207200D01*
X100485714Y-88207200D02*
X100438095Y-88159580D01*
X100438095Y-88159580D02*
X100390476Y-88064342D01*
X100390476Y-88064342D02*
X100390476Y-87254819D01*
X100009523Y-87254819D02*
X99342857Y-87254819D01*
X99342857Y-87254819D02*
X99771428Y-88254819D01*
X63633344Y-92759580D02*
X63680963Y-92807200D01*
X63680963Y-92807200D02*
X63823820Y-92854819D01*
X63823820Y-92854819D02*
X63919058Y-92854819D01*
X63919058Y-92854819D02*
X64061915Y-92807200D01*
X64061915Y-92807200D02*
X64157153Y-92711961D01*
X64157153Y-92711961D02*
X64204772Y-92616723D01*
X64204772Y-92616723D02*
X64252391Y-92426247D01*
X64252391Y-92426247D02*
X64252391Y-92283390D01*
X64252391Y-92283390D02*
X64204772Y-92092914D01*
X64204772Y-92092914D02*
X64157153Y-91997676D01*
X64157153Y-91997676D02*
X64061915Y-91902438D01*
X64061915Y-91902438D02*
X63919058Y-91854819D01*
X63919058Y-91854819D02*
X63823820Y-91854819D01*
X63823820Y-91854819D02*
X63680963Y-91902438D01*
X63680963Y-91902438D02*
X63633344Y-91950057D01*
X62680963Y-92854819D02*
X63252391Y-92854819D01*
X62966677Y-92854819D02*
X62966677Y-91854819D01*
X62966677Y-91854819D02*
X63061915Y-91997676D01*
X63061915Y-91997676D02*
X63157153Y-92092914D01*
X63157153Y-92092914D02*
X63252391Y-92140533D01*
X62204772Y-92854819D02*
X62014296Y-92854819D01*
X62014296Y-92854819D02*
X61919058Y-92807200D01*
X61919058Y-92807200D02*
X61871439Y-92759580D01*
X61871439Y-92759580D02*
X61776201Y-92616723D01*
X61776201Y-92616723D02*
X61728582Y-92426247D01*
X61728582Y-92426247D02*
X61728582Y-92045295D01*
X61728582Y-92045295D02*
X61776201Y-91950057D01*
X61776201Y-91950057D02*
X61823820Y-91902438D01*
X61823820Y-91902438D02*
X61919058Y-91854819D01*
X61919058Y-91854819D02*
X62109534Y-91854819D01*
X62109534Y-91854819D02*
X62204772Y-91902438D01*
X62204772Y-91902438D02*
X62252391Y-91950057D01*
X62252391Y-91950057D02*
X62300010Y-92045295D01*
X62300010Y-92045295D02*
X62300010Y-92283390D01*
X62300010Y-92283390D02*
X62252391Y-92378628D01*
X62252391Y-92378628D02*
X62204772Y-92426247D01*
X62204772Y-92426247D02*
X62109534Y-92473866D01*
X62109534Y-92473866D02*
X61919058Y-92473866D01*
X61919058Y-92473866D02*
X61823820Y-92426247D01*
X61823820Y-92426247D02*
X61776201Y-92378628D01*
X61776201Y-92378628D02*
X61728582Y-92283390D01*
X114233344Y-107954819D02*
X114566677Y-107478628D01*
X114804772Y-107954819D02*
X114804772Y-106954819D01*
X114804772Y-106954819D02*
X114423820Y-106954819D01*
X114423820Y-106954819D02*
X114328582Y-107002438D01*
X114328582Y-107002438D02*
X114280963Y-107050057D01*
X114280963Y-107050057D02*
X114233344Y-107145295D01*
X114233344Y-107145295D02*
X114233344Y-107288152D01*
X114233344Y-107288152D02*
X114280963Y-107383390D01*
X114280963Y-107383390D02*
X114328582Y-107431009D01*
X114328582Y-107431009D02*
X114423820Y-107478628D01*
X114423820Y-107478628D02*
X114804772Y-107478628D01*
X113280963Y-107954819D02*
X113852391Y-107954819D01*
X113566677Y-107954819D02*
X113566677Y-106954819D01*
X113566677Y-106954819D02*
X113661915Y-107097676D01*
X113661915Y-107097676D02*
X113757153Y-107192914D01*
X113757153Y-107192914D02*
X113852391Y-107240533D01*
X112423820Y-107288152D02*
X112423820Y-107954819D01*
X112661915Y-106907200D02*
X112900010Y-107621485D01*
X112900010Y-107621485D02*
X112280963Y-107621485D01*
X99366666Y-84359580D02*
X99414285Y-84407200D01*
X99414285Y-84407200D02*
X99557142Y-84454819D01*
X99557142Y-84454819D02*
X99652380Y-84454819D01*
X99652380Y-84454819D02*
X99795237Y-84407200D01*
X99795237Y-84407200D02*
X99890475Y-84311961D01*
X99890475Y-84311961D02*
X99938094Y-84216723D01*
X99938094Y-84216723D02*
X99985713Y-84026247D01*
X99985713Y-84026247D02*
X99985713Y-83883390D01*
X99985713Y-83883390D02*
X99938094Y-83692914D01*
X99938094Y-83692914D02*
X99890475Y-83597676D01*
X99890475Y-83597676D02*
X99795237Y-83502438D01*
X99795237Y-83502438D02*
X99652380Y-83454819D01*
X99652380Y-83454819D02*
X99557142Y-83454819D01*
X99557142Y-83454819D02*
X99414285Y-83502438D01*
X99414285Y-83502438D02*
X99366666Y-83550057D01*
X99033332Y-83454819D02*
X98366666Y-83454819D01*
X98366666Y-83454819D02*
X98795237Y-84454819D01*
X112330357Y-119154819D02*
X112663690Y-118678628D01*
X112901785Y-119154819D02*
X112901785Y-118154819D01*
X112901785Y-118154819D02*
X112520833Y-118154819D01*
X112520833Y-118154819D02*
X112425595Y-118202438D01*
X112425595Y-118202438D02*
X112377976Y-118250057D01*
X112377976Y-118250057D02*
X112330357Y-118345295D01*
X112330357Y-118345295D02*
X112330357Y-118488152D01*
X112330357Y-118488152D02*
X112377976Y-118583390D01*
X112377976Y-118583390D02*
X112425595Y-118631009D01*
X112425595Y-118631009D02*
X112520833Y-118678628D01*
X112520833Y-118678628D02*
X112901785Y-118678628D01*
X111377976Y-119154819D02*
X111949404Y-119154819D01*
X111663690Y-119154819D02*
X111663690Y-118154819D01*
X111663690Y-118154819D02*
X111758928Y-118297676D01*
X111758928Y-118297676D02*
X111854166Y-118392914D01*
X111854166Y-118392914D02*
X111949404Y-118440533D01*
X110997023Y-118250057D02*
X110949404Y-118202438D01*
X110949404Y-118202438D02*
X110854166Y-118154819D01*
X110854166Y-118154819D02*
X110616071Y-118154819D01*
X110616071Y-118154819D02*
X110520833Y-118202438D01*
X110520833Y-118202438D02*
X110473214Y-118250057D01*
X110473214Y-118250057D02*
X110425595Y-118345295D01*
X110425595Y-118345295D02*
X110425595Y-118440533D01*
X110425595Y-118440533D02*
X110473214Y-118583390D01*
X110473214Y-118583390D02*
X111044642Y-119154819D01*
X111044642Y-119154819D02*
X110425595Y-119154819D01*
X115042857Y-103559580D02*
X115090476Y-103607200D01*
X115090476Y-103607200D02*
X115233333Y-103654819D01*
X115233333Y-103654819D02*
X115328571Y-103654819D01*
X115328571Y-103654819D02*
X115471428Y-103607200D01*
X115471428Y-103607200D02*
X115566666Y-103511961D01*
X115566666Y-103511961D02*
X115614285Y-103416723D01*
X115614285Y-103416723D02*
X115661904Y-103226247D01*
X115661904Y-103226247D02*
X115661904Y-103083390D01*
X115661904Y-103083390D02*
X115614285Y-102892914D01*
X115614285Y-102892914D02*
X115566666Y-102797676D01*
X115566666Y-102797676D02*
X115471428Y-102702438D01*
X115471428Y-102702438D02*
X115328571Y-102654819D01*
X115328571Y-102654819D02*
X115233333Y-102654819D01*
X115233333Y-102654819D02*
X115090476Y-102702438D01*
X115090476Y-102702438D02*
X115042857Y-102750057D01*
X114661904Y-102750057D02*
X114614285Y-102702438D01*
X114614285Y-102702438D02*
X114519047Y-102654819D01*
X114519047Y-102654819D02*
X114280952Y-102654819D01*
X114280952Y-102654819D02*
X114185714Y-102702438D01*
X114185714Y-102702438D02*
X114138095Y-102750057D01*
X114138095Y-102750057D02*
X114090476Y-102845295D01*
X114090476Y-102845295D02*
X114090476Y-102940533D01*
X114090476Y-102940533D02*
X114138095Y-103083390D01*
X114138095Y-103083390D02*
X114709523Y-103654819D01*
X114709523Y-103654819D02*
X114090476Y-103654819D01*
X113471428Y-102654819D02*
X113376190Y-102654819D01*
X113376190Y-102654819D02*
X113280952Y-102702438D01*
X113280952Y-102702438D02*
X113233333Y-102750057D01*
X113233333Y-102750057D02*
X113185714Y-102845295D01*
X113185714Y-102845295D02*
X113138095Y-103035771D01*
X113138095Y-103035771D02*
X113138095Y-103273866D01*
X113138095Y-103273866D02*
X113185714Y-103464342D01*
X113185714Y-103464342D02*
X113233333Y-103559580D01*
X113233333Y-103559580D02*
X113280952Y-103607200D01*
X113280952Y-103607200D02*
X113376190Y-103654819D01*
X113376190Y-103654819D02*
X113471428Y-103654819D01*
X113471428Y-103654819D02*
X113566666Y-103607200D01*
X113566666Y-103607200D02*
X113614285Y-103559580D01*
X113614285Y-103559580D02*
X113661904Y-103464342D01*
X113661904Y-103464342D02*
X113709523Y-103273866D01*
X113709523Y-103273866D02*
X113709523Y-103035771D01*
X113709523Y-103035771D02*
X113661904Y-102845295D01*
X113661904Y-102845295D02*
X113614285Y-102750057D01*
X113614285Y-102750057D02*
X113566666Y-102702438D01*
X113566666Y-102702438D02*
X113471428Y-102654819D01*
X102355725Y-95550057D02*
X102450963Y-95502438D01*
X102450963Y-95502438D02*
X102546201Y-95407200D01*
X102546201Y-95407200D02*
X102689058Y-95264342D01*
X102689058Y-95264342D02*
X102784296Y-95216723D01*
X102784296Y-95216723D02*
X102879534Y-95216723D01*
X102831915Y-95454819D02*
X102927153Y-95407200D01*
X102927153Y-95407200D02*
X103022391Y-95311961D01*
X103022391Y-95311961D02*
X103070010Y-95121485D01*
X103070010Y-95121485D02*
X103070010Y-94788152D01*
X103070010Y-94788152D02*
X103022391Y-94597676D01*
X103022391Y-94597676D02*
X102927153Y-94502438D01*
X102927153Y-94502438D02*
X102831915Y-94454819D01*
X102831915Y-94454819D02*
X102641439Y-94454819D01*
X102641439Y-94454819D02*
X102546201Y-94502438D01*
X102546201Y-94502438D02*
X102450963Y-94597676D01*
X102450963Y-94597676D02*
X102403344Y-94788152D01*
X102403344Y-94788152D02*
X102403344Y-95121485D01*
X102403344Y-95121485D02*
X102450963Y-95311961D01*
X102450963Y-95311961D02*
X102546201Y-95407200D01*
X102546201Y-95407200D02*
X102641439Y-95454819D01*
X102641439Y-95454819D02*
X102831915Y-95454819D01*
X101450963Y-95454819D02*
X102022391Y-95454819D01*
X101736677Y-95454819D02*
X101736677Y-94454819D01*
X101736677Y-94454819D02*
X101831915Y-94597676D01*
X101831915Y-94597676D02*
X101927153Y-94692914D01*
X101927153Y-94692914D02*
X102022391Y-94740533D01*
X112733344Y-112559580D02*
X112780963Y-112607200D01*
X112780963Y-112607200D02*
X112923820Y-112654819D01*
X112923820Y-112654819D02*
X113019058Y-112654819D01*
X113019058Y-112654819D02*
X113161915Y-112607200D01*
X113161915Y-112607200D02*
X113257153Y-112511961D01*
X113257153Y-112511961D02*
X113304772Y-112416723D01*
X113304772Y-112416723D02*
X113352391Y-112226247D01*
X113352391Y-112226247D02*
X113352391Y-112083390D01*
X113352391Y-112083390D02*
X113304772Y-111892914D01*
X113304772Y-111892914D02*
X113257153Y-111797676D01*
X113257153Y-111797676D02*
X113161915Y-111702438D01*
X113161915Y-111702438D02*
X113019058Y-111654819D01*
X113019058Y-111654819D02*
X112923820Y-111654819D01*
X112923820Y-111654819D02*
X112780963Y-111702438D01*
X112780963Y-111702438D02*
X112733344Y-111750057D01*
X112352391Y-111750057D02*
X112304772Y-111702438D01*
X112304772Y-111702438D02*
X112209534Y-111654819D01*
X112209534Y-111654819D02*
X111971439Y-111654819D01*
X111971439Y-111654819D02*
X111876201Y-111702438D01*
X111876201Y-111702438D02*
X111828582Y-111750057D01*
X111828582Y-111750057D02*
X111780963Y-111845295D01*
X111780963Y-111845295D02*
X111780963Y-111940533D01*
X111780963Y-111940533D02*
X111828582Y-112083390D01*
X111828582Y-112083390D02*
X112400010Y-112654819D01*
X112400010Y-112654819D02*
X111780963Y-112654819D01*
X110923820Y-111988152D02*
X110923820Y-112654819D01*
X111161915Y-111607200D02*
X111400010Y-112321485D01*
X111400010Y-112321485D02*
X110780963Y-112321485D01*
X97442857Y-114359580D02*
X97490476Y-114407200D01*
X97490476Y-114407200D02*
X97633333Y-114454819D01*
X97633333Y-114454819D02*
X97728571Y-114454819D01*
X97728571Y-114454819D02*
X97871428Y-114407200D01*
X97871428Y-114407200D02*
X97966666Y-114311961D01*
X97966666Y-114311961D02*
X98014285Y-114216723D01*
X98014285Y-114216723D02*
X98061904Y-114026247D01*
X98061904Y-114026247D02*
X98061904Y-113883390D01*
X98061904Y-113883390D02*
X98014285Y-113692914D01*
X98014285Y-113692914D02*
X97966666Y-113597676D01*
X97966666Y-113597676D02*
X97871428Y-113502438D01*
X97871428Y-113502438D02*
X97728571Y-113454819D01*
X97728571Y-113454819D02*
X97633333Y-113454819D01*
X97633333Y-113454819D02*
X97490476Y-113502438D01*
X97490476Y-113502438D02*
X97442857Y-113550057D01*
X96490476Y-114454819D02*
X97061904Y-114454819D01*
X96776190Y-114454819D02*
X96776190Y-113454819D01*
X96776190Y-113454819D02*
X96871428Y-113597676D01*
X96871428Y-113597676D02*
X96966666Y-113692914D01*
X96966666Y-113692914D02*
X97061904Y-113740533D01*
X96109523Y-113550057D02*
X96061904Y-113502438D01*
X96061904Y-113502438D02*
X95966666Y-113454819D01*
X95966666Y-113454819D02*
X95728571Y-113454819D01*
X95728571Y-113454819D02*
X95633333Y-113502438D01*
X95633333Y-113502438D02*
X95585714Y-113550057D01*
X95585714Y-113550057D02*
X95538095Y-113645295D01*
X95538095Y-113645295D02*
X95538095Y-113740533D01*
X95538095Y-113740533D02*
X95585714Y-113883390D01*
X95585714Y-113883390D02*
X96157142Y-114454819D01*
X96157142Y-114454819D02*
X95538095Y-114454819D01*
X84907153Y-115159580D02*
X84954772Y-115207200D01*
X84954772Y-115207200D02*
X85097629Y-115254819D01*
X85097629Y-115254819D02*
X85192867Y-115254819D01*
X85192867Y-115254819D02*
X85335724Y-115207200D01*
X85335724Y-115207200D02*
X85430962Y-115111961D01*
X85430962Y-115111961D02*
X85478581Y-115016723D01*
X85478581Y-115016723D02*
X85526200Y-114826247D01*
X85526200Y-114826247D02*
X85526200Y-114683390D01*
X85526200Y-114683390D02*
X85478581Y-114492914D01*
X85478581Y-114492914D02*
X85430962Y-114397676D01*
X85430962Y-114397676D02*
X85335724Y-114302438D01*
X85335724Y-114302438D02*
X85192867Y-114254819D01*
X85192867Y-114254819D02*
X85097629Y-114254819D01*
X85097629Y-114254819D02*
X84954772Y-114302438D01*
X84954772Y-114302438D02*
X84907153Y-114350057D01*
X84526200Y-114350057D02*
X84478581Y-114302438D01*
X84478581Y-114302438D02*
X84383343Y-114254819D01*
X84383343Y-114254819D02*
X84145248Y-114254819D01*
X84145248Y-114254819D02*
X84050010Y-114302438D01*
X84050010Y-114302438D02*
X84002391Y-114350057D01*
X84002391Y-114350057D02*
X83954772Y-114445295D01*
X83954772Y-114445295D02*
X83954772Y-114540533D01*
X83954772Y-114540533D02*
X84002391Y-114683390D01*
X84002391Y-114683390D02*
X84573819Y-115254819D01*
X84573819Y-115254819D02*
X83954772Y-115254819D01*
X100966666Y-118254819D02*
X101299999Y-117778628D01*
X101538094Y-118254819D02*
X101538094Y-117254819D01*
X101538094Y-117254819D02*
X101157142Y-117254819D01*
X101157142Y-117254819D02*
X101061904Y-117302438D01*
X101061904Y-117302438D02*
X101014285Y-117350057D01*
X101014285Y-117350057D02*
X100966666Y-117445295D01*
X100966666Y-117445295D02*
X100966666Y-117588152D01*
X100966666Y-117588152D02*
X101014285Y-117683390D01*
X101014285Y-117683390D02*
X101061904Y-117731009D01*
X101061904Y-117731009D02*
X101157142Y-117778628D01*
X101157142Y-117778628D02*
X101538094Y-117778628D01*
X100395237Y-117683390D02*
X100490475Y-117635771D01*
X100490475Y-117635771D02*
X100538094Y-117588152D01*
X100538094Y-117588152D02*
X100585713Y-117492914D01*
X100585713Y-117492914D02*
X100585713Y-117445295D01*
X100585713Y-117445295D02*
X100538094Y-117350057D01*
X100538094Y-117350057D02*
X100490475Y-117302438D01*
X100490475Y-117302438D02*
X100395237Y-117254819D01*
X100395237Y-117254819D02*
X100204761Y-117254819D01*
X100204761Y-117254819D02*
X100109523Y-117302438D01*
X100109523Y-117302438D02*
X100061904Y-117350057D01*
X100061904Y-117350057D02*
X100014285Y-117445295D01*
X100014285Y-117445295D02*
X100014285Y-117492914D01*
X100014285Y-117492914D02*
X100061904Y-117588152D01*
X100061904Y-117588152D02*
X100109523Y-117635771D01*
X100109523Y-117635771D02*
X100204761Y-117683390D01*
X100204761Y-117683390D02*
X100395237Y-117683390D01*
X100395237Y-117683390D02*
X100490475Y-117731009D01*
X100490475Y-117731009D02*
X100538094Y-117778628D01*
X100538094Y-117778628D02*
X100585713Y-117873866D01*
X100585713Y-117873866D02*
X100585713Y-118064342D01*
X100585713Y-118064342D02*
X100538094Y-118159580D01*
X100538094Y-118159580D02*
X100490475Y-118207200D01*
X100490475Y-118207200D02*
X100395237Y-118254819D01*
X100395237Y-118254819D02*
X100204761Y-118254819D01*
X100204761Y-118254819D02*
X100109523Y-118207200D01*
X100109523Y-118207200D02*
X100061904Y-118159580D01*
X100061904Y-118159580D02*
X100014285Y-118064342D01*
X100014285Y-118064342D02*
X100014285Y-117873866D01*
X100014285Y-117873866D02*
X100061904Y-117778628D01*
X100061904Y-117778628D02*
X100109523Y-117731009D01*
X100109523Y-117731009D02*
X100204761Y-117683390D01*
X103442857Y-106454819D02*
X103776190Y-105978628D01*
X104014285Y-106454819D02*
X104014285Y-105454819D01*
X104014285Y-105454819D02*
X103633333Y-105454819D01*
X103633333Y-105454819D02*
X103538095Y-105502438D01*
X103538095Y-105502438D02*
X103490476Y-105550057D01*
X103490476Y-105550057D02*
X103442857Y-105645295D01*
X103442857Y-105645295D02*
X103442857Y-105788152D01*
X103442857Y-105788152D02*
X103490476Y-105883390D01*
X103490476Y-105883390D02*
X103538095Y-105931009D01*
X103538095Y-105931009D02*
X103633333Y-105978628D01*
X103633333Y-105978628D02*
X104014285Y-105978628D01*
X102490476Y-106454819D02*
X103061904Y-106454819D01*
X102776190Y-106454819D02*
X102776190Y-105454819D01*
X102776190Y-105454819D02*
X102871428Y-105597676D01*
X102871428Y-105597676D02*
X102966666Y-105692914D01*
X102966666Y-105692914D02*
X103061904Y-105740533D01*
X102157142Y-105454819D02*
X101538095Y-105454819D01*
X101538095Y-105454819D02*
X101871428Y-105835771D01*
X101871428Y-105835771D02*
X101728571Y-105835771D01*
X101728571Y-105835771D02*
X101633333Y-105883390D01*
X101633333Y-105883390D02*
X101585714Y-105931009D01*
X101585714Y-105931009D02*
X101538095Y-106026247D01*
X101538095Y-106026247D02*
X101538095Y-106264342D01*
X101538095Y-106264342D02*
X101585714Y-106359580D01*
X101585714Y-106359580D02*
X101633333Y-106407200D01*
X101633333Y-106407200D02*
X101728571Y-106454819D01*
X101728571Y-106454819D02*
X102014285Y-106454819D01*
X102014285Y-106454819D02*
X102109523Y-106407200D01*
X102109523Y-106407200D02*
X102157142Y-106359580D01*
X102766666Y-82959580D02*
X102814285Y-83007200D01*
X102814285Y-83007200D02*
X102957142Y-83054819D01*
X102957142Y-83054819D02*
X103052380Y-83054819D01*
X103052380Y-83054819D02*
X103195237Y-83007200D01*
X103195237Y-83007200D02*
X103290475Y-82911961D01*
X103290475Y-82911961D02*
X103338094Y-82816723D01*
X103338094Y-82816723D02*
X103385713Y-82626247D01*
X103385713Y-82626247D02*
X103385713Y-82483390D01*
X103385713Y-82483390D02*
X103338094Y-82292914D01*
X103338094Y-82292914D02*
X103290475Y-82197676D01*
X103290475Y-82197676D02*
X103195237Y-82102438D01*
X103195237Y-82102438D02*
X103052380Y-82054819D01*
X103052380Y-82054819D02*
X102957142Y-82054819D01*
X102957142Y-82054819D02*
X102814285Y-82102438D01*
X102814285Y-82102438D02*
X102766666Y-82150057D01*
X102195237Y-82483390D02*
X102290475Y-82435771D01*
X102290475Y-82435771D02*
X102338094Y-82388152D01*
X102338094Y-82388152D02*
X102385713Y-82292914D01*
X102385713Y-82292914D02*
X102385713Y-82245295D01*
X102385713Y-82245295D02*
X102338094Y-82150057D01*
X102338094Y-82150057D02*
X102290475Y-82102438D01*
X102290475Y-82102438D02*
X102195237Y-82054819D01*
X102195237Y-82054819D02*
X102004761Y-82054819D01*
X102004761Y-82054819D02*
X101909523Y-82102438D01*
X101909523Y-82102438D02*
X101861904Y-82150057D01*
X101861904Y-82150057D02*
X101814285Y-82245295D01*
X101814285Y-82245295D02*
X101814285Y-82292914D01*
X101814285Y-82292914D02*
X101861904Y-82388152D01*
X101861904Y-82388152D02*
X101909523Y-82435771D01*
X101909523Y-82435771D02*
X102004761Y-82483390D01*
X102004761Y-82483390D02*
X102195237Y-82483390D01*
X102195237Y-82483390D02*
X102290475Y-82531009D01*
X102290475Y-82531009D02*
X102338094Y-82578628D01*
X102338094Y-82578628D02*
X102385713Y-82673866D01*
X102385713Y-82673866D02*
X102385713Y-82864342D01*
X102385713Y-82864342D02*
X102338094Y-82959580D01*
X102338094Y-82959580D02*
X102290475Y-83007200D01*
X102290475Y-83007200D02*
X102195237Y-83054819D01*
X102195237Y-83054819D02*
X102004761Y-83054819D01*
X102004761Y-83054819D02*
X101909523Y-83007200D01*
X101909523Y-83007200D02*
X101861904Y-82959580D01*
X101861904Y-82959580D02*
X101814285Y-82864342D01*
X101814285Y-82864342D02*
X101814285Y-82673866D01*
X101814285Y-82673866D02*
X101861904Y-82578628D01*
X101861904Y-82578628D02*
X101909523Y-82531009D01*
X101909523Y-82531009D02*
X102004761Y-82483390D01*
X104966666Y-82959580D02*
X105014285Y-83007200D01*
X105014285Y-83007200D02*
X105157142Y-83054819D01*
X105157142Y-83054819D02*
X105252380Y-83054819D01*
X105252380Y-83054819D02*
X105395237Y-83007200D01*
X105395237Y-83007200D02*
X105490475Y-82911961D01*
X105490475Y-82911961D02*
X105538094Y-82816723D01*
X105538094Y-82816723D02*
X105585713Y-82626247D01*
X105585713Y-82626247D02*
X105585713Y-82483390D01*
X105585713Y-82483390D02*
X105538094Y-82292914D01*
X105538094Y-82292914D02*
X105490475Y-82197676D01*
X105490475Y-82197676D02*
X105395237Y-82102438D01*
X105395237Y-82102438D02*
X105252380Y-82054819D01*
X105252380Y-82054819D02*
X105157142Y-82054819D01*
X105157142Y-82054819D02*
X105014285Y-82102438D01*
X105014285Y-82102438D02*
X104966666Y-82150057D01*
X104490475Y-83054819D02*
X104299999Y-83054819D01*
X104299999Y-83054819D02*
X104204761Y-83007200D01*
X104204761Y-83007200D02*
X104157142Y-82959580D01*
X104157142Y-82959580D02*
X104061904Y-82816723D01*
X104061904Y-82816723D02*
X104014285Y-82626247D01*
X104014285Y-82626247D02*
X104014285Y-82245295D01*
X104014285Y-82245295D02*
X104061904Y-82150057D01*
X104061904Y-82150057D02*
X104109523Y-82102438D01*
X104109523Y-82102438D02*
X104204761Y-82054819D01*
X104204761Y-82054819D02*
X104395237Y-82054819D01*
X104395237Y-82054819D02*
X104490475Y-82102438D01*
X104490475Y-82102438D02*
X104538094Y-82150057D01*
X104538094Y-82150057D02*
X104585713Y-82245295D01*
X104585713Y-82245295D02*
X104585713Y-82483390D01*
X104585713Y-82483390D02*
X104538094Y-82578628D01*
X104538094Y-82578628D02*
X104490475Y-82626247D01*
X104490475Y-82626247D02*
X104395237Y-82673866D01*
X104395237Y-82673866D02*
X104204761Y-82673866D01*
X104204761Y-82673866D02*
X104109523Y-82626247D01*
X104109523Y-82626247D02*
X104061904Y-82578628D01*
X104061904Y-82578628D02*
X104014285Y-82483390D01*
X111930357Y-117054819D02*
X112263690Y-116578628D01*
X112501785Y-117054819D02*
X112501785Y-116054819D01*
X112501785Y-116054819D02*
X112120833Y-116054819D01*
X112120833Y-116054819D02*
X112025595Y-116102438D01*
X112025595Y-116102438D02*
X111977976Y-116150057D01*
X111977976Y-116150057D02*
X111930357Y-116245295D01*
X111930357Y-116245295D02*
X111930357Y-116388152D01*
X111930357Y-116388152D02*
X111977976Y-116483390D01*
X111977976Y-116483390D02*
X112025595Y-116531009D01*
X112025595Y-116531009D02*
X112120833Y-116578628D01*
X112120833Y-116578628D02*
X112501785Y-116578628D01*
X110977976Y-117054819D02*
X111549404Y-117054819D01*
X111263690Y-117054819D02*
X111263690Y-116054819D01*
X111263690Y-116054819D02*
X111358928Y-116197676D01*
X111358928Y-116197676D02*
X111454166Y-116292914D01*
X111454166Y-116292914D02*
X111549404Y-116340533D01*
X110025595Y-117054819D02*
X110597023Y-117054819D01*
X110311309Y-117054819D02*
X110311309Y-116054819D01*
X110311309Y-116054819D02*
X110406547Y-116197676D01*
X110406547Y-116197676D02*
X110501785Y-116292914D01*
X110501785Y-116292914D02*
X110597023Y-116340533D01*
X77957153Y-101159580D02*
X78004772Y-101207200D01*
X78004772Y-101207200D02*
X78147629Y-101254819D01*
X78147629Y-101254819D02*
X78242867Y-101254819D01*
X78242867Y-101254819D02*
X78385724Y-101207200D01*
X78385724Y-101207200D02*
X78480962Y-101111961D01*
X78480962Y-101111961D02*
X78528581Y-101016723D01*
X78528581Y-101016723D02*
X78576200Y-100826247D01*
X78576200Y-100826247D02*
X78576200Y-100683390D01*
X78576200Y-100683390D02*
X78528581Y-100492914D01*
X78528581Y-100492914D02*
X78480962Y-100397676D01*
X78480962Y-100397676D02*
X78385724Y-100302438D01*
X78385724Y-100302438D02*
X78242867Y-100254819D01*
X78242867Y-100254819D02*
X78147629Y-100254819D01*
X78147629Y-100254819D02*
X78004772Y-100302438D01*
X78004772Y-100302438D02*
X77957153Y-100350057D01*
X77100010Y-100588152D02*
X77100010Y-101254819D01*
X77338105Y-100207200D02*
X77576200Y-100921485D01*
X77576200Y-100921485D02*
X76957153Y-100921485D01*
X107642857Y-102559580D02*
X107690476Y-102607200D01*
X107690476Y-102607200D02*
X107833333Y-102654819D01*
X107833333Y-102654819D02*
X107928571Y-102654819D01*
X107928571Y-102654819D02*
X108071428Y-102607200D01*
X108071428Y-102607200D02*
X108166666Y-102511961D01*
X108166666Y-102511961D02*
X108214285Y-102416723D01*
X108214285Y-102416723D02*
X108261904Y-102226247D01*
X108261904Y-102226247D02*
X108261904Y-102083390D01*
X108261904Y-102083390D02*
X108214285Y-101892914D01*
X108214285Y-101892914D02*
X108166666Y-101797676D01*
X108166666Y-101797676D02*
X108071428Y-101702438D01*
X108071428Y-101702438D02*
X107928571Y-101654819D01*
X107928571Y-101654819D02*
X107833333Y-101654819D01*
X107833333Y-101654819D02*
X107690476Y-101702438D01*
X107690476Y-101702438D02*
X107642857Y-101750057D01*
X107261904Y-101750057D02*
X107214285Y-101702438D01*
X107214285Y-101702438D02*
X107119047Y-101654819D01*
X107119047Y-101654819D02*
X106880952Y-101654819D01*
X106880952Y-101654819D02*
X106785714Y-101702438D01*
X106785714Y-101702438D02*
X106738095Y-101750057D01*
X106738095Y-101750057D02*
X106690476Y-101845295D01*
X106690476Y-101845295D02*
X106690476Y-101940533D01*
X106690476Y-101940533D02*
X106738095Y-102083390D01*
X106738095Y-102083390D02*
X107309523Y-102654819D01*
X107309523Y-102654819D02*
X106690476Y-102654819D01*
X106357142Y-101654819D02*
X105738095Y-101654819D01*
X105738095Y-101654819D02*
X106071428Y-102035771D01*
X106071428Y-102035771D02*
X105928571Y-102035771D01*
X105928571Y-102035771D02*
X105833333Y-102083390D01*
X105833333Y-102083390D02*
X105785714Y-102131009D01*
X105785714Y-102131009D02*
X105738095Y-102226247D01*
X105738095Y-102226247D02*
X105738095Y-102464342D01*
X105738095Y-102464342D02*
X105785714Y-102559580D01*
X105785714Y-102559580D02*
X105833333Y-102607200D01*
X105833333Y-102607200D02*
X105928571Y-102654819D01*
X105928571Y-102654819D02*
X106214285Y-102654819D01*
X106214285Y-102654819D02*
X106309523Y-102607200D01*
X106309523Y-102607200D02*
X106357142Y-102559580D01*
X123242857Y-100159580D02*
X123290476Y-100207200D01*
X123290476Y-100207200D02*
X123433333Y-100254819D01*
X123433333Y-100254819D02*
X123528571Y-100254819D01*
X123528571Y-100254819D02*
X123671428Y-100207200D01*
X123671428Y-100207200D02*
X123766666Y-100111961D01*
X123766666Y-100111961D02*
X123814285Y-100016723D01*
X123814285Y-100016723D02*
X123861904Y-99826247D01*
X123861904Y-99826247D02*
X123861904Y-99683390D01*
X123861904Y-99683390D02*
X123814285Y-99492914D01*
X123814285Y-99492914D02*
X123766666Y-99397676D01*
X123766666Y-99397676D02*
X123671428Y-99302438D01*
X123671428Y-99302438D02*
X123528571Y-99254819D01*
X123528571Y-99254819D02*
X123433333Y-99254819D01*
X123433333Y-99254819D02*
X123290476Y-99302438D01*
X123290476Y-99302438D02*
X123242857Y-99350057D01*
X122861904Y-99350057D02*
X122814285Y-99302438D01*
X122814285Y-99302438D02*
X122719047Y-99254819D01*
X122719047Y-99254819D02*
X122480952Y-99254819D01*
X122480952Y-99254819D02*
X122385714Y-99302438D01*
X122385714Y-99302438D02*
X122338095Y-99350057D01*
X122338095Y-99350057D02*
X122290476Y-99445295D01*
X122290476Y-99445295D02*
X122290476Y-99540533D01*
X122290476Y-99540533D02*
X122338095Y-99683390D01*
X122338095Y-99683390D02*
X122909523Y-100254819D01*
X122909523Y-100254819D02*
X122290476Y-100254819D01*
X121385714Y-99254819D02*
X121861904Y-99254819D01*
X121861904Y-99254819D02*
X121909523Y-99731009D01*
X121909523Y-99731009D02*
X121861904Y-99683390D01*
X121861904Y-99683390D02*
X121766666Y-99635771D01*
X121766666Y-99635771D02*
X121528571Y-99635771D01*
X121528571Y-99635771D02*
X121433333Y-99683390D01*
X121433333Y-99683390D02*
X121385714Y-99731009D01*
X121385714Y-99731009D02*
X121338095Y-99826247D01*
X121338095Y-99826247D02*
X121338095Y-100064342D01*
X121338095Y-100064342D02*
X121385714Y-100159580D01*
X121385714Y-100159580D02*
X121433333Y-100207200D01*
X121433333Y-100207200D02*
X121528571Y-100254819D01*
X121528571Y-100254819D02*
X121766666Y-100254819D01*
X121766666Y-100254819D02*
X121861904Y-100207200D01*
X121861904Y-100207200D02*
X121909523Y-100159580D01*
X62557153Y-112659580D02*
X62604772Y-112707200D01*
X62604772Y-112707200D02*
X62747629Y-112754819D01*
X62747629Y-112754819D02*
X62842867Y-112754819D01*
X62842867Y-112754819D02*
X62985724Y-112707200D01*
X62985724Y-112707200D02*
X63080962Y-112611961D01*
X63080962Y-112611961D02*
X63128581Y-112516723D01*
X63128581Y-112516723D02*
X63176200Y-112326247D01*
X63176200Y-112326247D02*
X63176200Y-112183390D01*
X63176200Y-112183390D02*
X63128581Y-111992914D01*
X63128581Y-111992914D02*
X63080962Y-111897676D01*
X63080962Y-111897676D02*
X62985724Y-111802438D01*
X62985724Y-111802438D02*
X62842867Y-111754819D01*
X62842867Y-111754819D02*
X62747629Y-111754819D01*
X62747629Y-111754819D02*
X62604772Y-111802438D01*
X62604772Y-111802438D02*
X62557153Y-111850057D01*
X61604772Y-112754819D02*
X62176200Y-112754819D01*
X61890486Y-112754819D02*
X61890486Y-111754819D01*
X61890486Y-111754819D02*
X61985724Y-111897676D01*
X61985724Y-111897676D02*
X62080962Y-111992914D01*
X62080962Y-111992914D02*
X62176200Y-112040533D01*
X114433344Y-105654819D02*
X114766677Y-105178628D01*
X115004772Y-105654819D02*
X115004772Y-104654819D01*
X115004772Y-104654819D02*
X114623820Y-104654819D01*
X114623820Y-104654819D02*
X114528582Y-104702438D01*
X114528582Y-104702438D02*
X114480963Y-104750057D01*
X114480963Y-104750057D02*
X114433344Y-104845295D01*
X114433344Y-104845295D02*
X114433344Y-104988152D01*
X114433344Y-104988152D02*
X114480963Y-105083390D01*
X114480963Y-105083390D02*
X114528582Y-105131009D01*
X114528582Y-105131009D02*
X114623820Y-105178628D01*
X114623820Y-105178628D02*
X115004772Y-105178628D01*
X113480963Y-105654819D02*
X114052391Y-105654819D01*
X113766677Y-105654819D02*
X113766677Y-104654819D01*
X113766677Y-104654819D02*
X113861915Y-104797676D01*
X113861915Y-104797676D02*
X113957153Y-104892914D01*
X113957153Y-104892914D02*
X114052391Y-104940533D01*
X112576201Y-104654819D02*
X113052391Y-104654819D01*
X113052391Y-104654819D02*
X113100010Y-105131009D01*
X113100010Y-105131009D02*
X113052391Y-105083390D01*
X113052391Y-105083390D02*
X112957153Y-105035771D01*
X112957153Y-105035771D02*
X112719058Y-105035771D01*
X112719058Y-105035771D02*
X112623820Y-105083390D01*
X112623820Y-105083390D02*
X112576201Y-105131009D01*
X112576201Y-105131009D02*
X112528582Y-105226247D01*
X112528582Y-105226247D02*
X112528582Y-105464342D01*
X112528582Y-105464342D02*
X112576201Y-105559580D01*
X112576201Y-105559580D02*
X112623820Y-105607200D01*
X112623820Y-105607200D02*
X112719058Y-105654819D01*
X112719058Y-105654819D02*
X112957153Y-105654819D01*
X112957153Y-105654819D02*
X113052391Y-105607200D01*
X113052391Y-105607200D02*
X113100010Y-105559580D01*
X99457153Y-90154819D02*
X99790486Y-89678628D01*
X100028581Y-90154819D02*
X100028581Y-89154819D01*
X100028581Y-89154819D02*
X99647629Y-89154819D01*
X99647629Y-89154819D02*
X99552391Y-89202438D01*
X99552391Y-89202438D02*
X99504772Y-89250057D01*
X99504772Y-89250057D02*
X99457153Y-89345295D01*
X99457153Y-89345295D02*
X99457153Y-89488152D01*
X99457153Y-89488152D02*
X99504772Y-89583390D01*
X99504772Y-89583390D02*
X99552391Y-89631009D01*
X99552391Y-89631009D02*
X99647629Y-89678628D01*
X99647629Y-89678628D02*
X100028581Y-89678628D01*
X98504772Y-90154819D02*
X99076200Y-90154819D01*
X98790486Y-90154819D02*
X98790486Y-89154819D01*
X98790486Y-89154819D02*
X98885724Y-89297676D01*
X98885724Y-89297676D02*
X98980962Y-89392914D01*
X98980962Y-89392914D02*
X99076200Y-89440533D01*
X113433344Y-95759580D02*
X113480963Y-95807200D01*
X113480963Y-95807200D02*
X113623820Y-95854819D01*
X113623820Y-95854819D02*
X113719058Y-95854819D01*
X113719058Y-95854819D02*
X113861915Y-95807200D01*
X113861915Y-95807200D02*
X113957153Y-95711961D01*
X113957153Y-95711961D02*
X114004772Y-95616723D01*
X114004772Y-95616723D02*
X114052391Y-95426247D01*
X114052391Y-95426247D02*
X114052391Y-95283390D01*
X114052391Y-95283390D02*
X114004772Y-95092914D01*
X114004772Y-95092914D02*
X113957153Y-94997676D01*
X113957153Y-94997676D02*
X113861915Y-94902438D01*
X113861915Y-94902438D02*
X113719058Y-94854819D01*
X113719058Y-94854819D02*
X113623820Y-94854819D01*
X113623820Y-94854819D02*
X113480963Y-94902438D01*
X113480963Y-94902438D02*
X113433344Y-94950057D01*
X113052391Y-94950057D02*
X113004772Y-94902438D01*
X113004772Y-94902438D02*
X112909534Y-94854819D01*
X112909534Y-94854819D02*
X112671439Y-94854819D01*
X112671439Y-94854819D02*
X112576201Y-94902438D01*
X112576201Y-94902438D02*
X112528582Y-94950057D01*
X112528582Y-94950057D02*
X112480963Y-95045295D01*
X112480963Y-95045295D02*
X112480963Y-95140533D01*
X112480963Y-95140533D02*
X112528582Y-95283390D01*
X112528582Y-95283390D02*
X113100010Y-95854819D01*
X113100010Y-95854819D02*
X112480963Y-95854819D01*
X112004772Y-95854819D02*
X111814296Y-95854819D01*
X111814296Y-95854819D02*
X111719058Y-95807200D01*
X111719058Y-95807200D02*
X111671439Y-95759580D01*
X111671439Y-95759580D02*
X111576201Y-95616723D01*
X111576201Y-95616723D02*
X111528582Y-95426247D01*
X111528582Y-95426247D02*
X111528582Y-95045295D01*
X111528582Y-95045295D02*
X111576201Y-94950057D01*
X111576201Y-94950057D02*
X111623820Y-94902438D01*
X111623820Y-94902438D02*
X111719058Y-94854819D01*
X111719058Y-94854819D02*
X111909534Y-94854819D01*
X111909534Y-94854819D02*
X112004772Y-94902438D01*
X112004772Y-94902438D02*
X112052391Y-94950057D01*
X112052391Y-94950057D02*
X112100010Y-95045295D01*
X112100010Y-95045295D02*
X112100010Y-95283390D01*
X112100010Y-95283390D02*
X112052391Y-95378628D01*
X112052391Y-95378628D02*
X112004772Y-95426247D01*
X112004772Y-95426247D02*
X111909534Y-95473866D01*
X111909534Y-95473866D02*
X111719058Y-95473866D01*
X111719058Y-95473866D02*
X111623820Y-95426247D01*
X111623820Y-95426247D02*
X111576201Y-95378628D01*
X111576201Y-95378628D02*
X111528582Y-95283390D01*
X63633344Y-89359580D02*
X63680963Y-89407200D01*
X63680963Y-89407200D02*
X63823820Y-89454819D01*
X63823820Y-89454819D02*
X63919058Y-89454819D01*
X63919058Y-89454819D02*
X64061915Y-89407200D01*
X64061915Y-89407200D02*
X64157153Y-89311961D01*
X64157153Y-89311961D02*
X64204772Y-89216723D01*
X64204772Y-89216723D02*
X64252391Y-89026247D01*
X64252391Y-89026247D02*
X64252391Y-88883390D01*
X64252391Y-88883390D02*
X64204772Y-88692914D01*
X64204772Y-88692914D02*
X64157153Y-88597676D01*
X64157153Y-88597676D02*
X64061915Y-88502438D01*
X64061915Y-88502438D02*
X63919058Y-88454819D01*
X63919058Y-88454819D02*
X63823820Y-88454819D01*
X63823820Y-88454819D02*
X63680963Y-88502438D01*
X63680963Y-88502438D02*
X63633344Y-88550057D01*
X62680963Y-89454819D02*
X63252391Y-89454819D01*
X62966677Y-89454819D02*
X62966677Y-88454819D01*
X62966677Y-88454819D02*
X63061915Y-88597676D01*
X63061915Y-88597676D02*
X63157153Y-88692914D01*
X63157153Y-88692914D02*
X63252391Y-88740533D01*
X62109534Y-88883390D02*
X62204772Y-88835771D01*
X62204772Y-88835771D02*
X62252391Y-88788152D01*
X62252391Y-88788152D02*
X62300010Y-88692914D01*
X62300010Y-88692914D02*
X62300010Y-88645295D01*
X62300010Y-88645295D02*
X62252391Y-88550057D01*
X62252391Y-88550057D02*
X62204772Y-88502438D01*
X62204772Y-88502438D02*
X62109534Y-88454819D01*
X62109534Y-88454819D02*
X61919058Y-88454819D01*
X61919058Y-88454819D02*
X61823820Y-88502438D01*
X61823820Y-88502438D02*
X61776201Y-88550057D01*
X61776201Y-88550057D02*
X61728582Y-88645295D01*
X61728582Y-88645295D02*
X61728582Y-88692914D01*
X61728582Y-88692914D02*
X61776201Y-88788152D01*
X61776201Y-88788152D02*
X61823820Y-88835771D01*
X61823820Y-88835771D02*
X61919058Y-88883390D01*
X61919058Y-88883390D02*
X62109534Y-88883390D01*
X62109534Y-88883390D02*
X62204772Y-88931009D01*
X62204772Y-88931009D02*
X62252391Y-88978628D01*
X62252391Y-88978628D02*
X62300010Y-89073866D01*
X62300010Y-89073866D02*
X62300010Y-89264342D01*
X62300010Y-89264342D02*
X62252391Y-89359580D01*
X62252391Y-89359580D02*
X62204772Y-89407200D01*
X62204772Y-89407200D02*
X62109534Y-89454819D01*
X62109534Y-89454819D02*
X61919058Y-89454819D01*
X61919058Y-89454819D02*
X61823820Y-89407200D01*
X61823820Y-89407200D02*
X61776201Y-89359580D01*
X61776201Y-89359580D02*
X61728582Y-89264342D01*
X61728582Y-89264342D02*
X61728582Y-89073866D01*
X61728582Y-89073866D02*
X61776201Y-88978628D01*
X61776201Y-88978628D02*
X61823820Y-88931009D01*
X61823820Y-88931009D02*
X61919058Y-88883390D01*
X69857153Y-102759580D02*
X69904772Y-102807200D01*
X69904772Y-102807200D02*
X70047629Y-102854819D01*
X70047629Y-102854819D02*
X70142867Y-102854819D01*
X70142867Y-102854819D02*
X70285724Y-102807200D01*
X70285724Y-102807200D02*
X70380962Y-102711961D01*
X70380962Y-102711961D02*
X70428581Y-102616723D01*
X70428581Y-102616723D02*
X70476200Y-102426247D01*
X70476200Y-102426247D02*
X70476200Y-102283390D01*
X70476200Y-102283390D02*
X70428581Y-102092914D01*
X70428581Y-102092914D02*
X70380962Y-101997676D01*
X70380962Y-101997676D02*
X70285724Y-101902438D01*
X70285724Y-101902438D02*
X70142867Y-101854819D01*
X70142867Y-101854819D02*
X70047629Y-101854819D01*
X70047629Y-101854819D02*
X69904772Y-101902438D01*
X69904772Y-101902438D02*
X69857153Y-101950057D01*
X69523819Y-101854819D02*
X68904772Y-101854819D01*
X68904772Y-101854819D02*
X69238105Y-102235771D01*
X69238105Y-102235771D02*
X69095248Y-102235771D01*
X69095248Y-102235771D02*
X69000010Y-102283390D01*
X69000010Y-102283390D02*
X68952391Y-102331009D01*
X68952391Y-102331009D02*
X68904772Y-102426247D01*
X68904772Y-102426247D02*
X68904772Y-102664342D01*
X68904772Y-102664342D02*
X68952391Y-102759580D01*
X68952391Y-102759580D02*
X69000010Y-102807200D01*
X69000010Y-102807200D02*
X69095248Y-102854819D01*
X69095248Y-102854819D02*
X69380962Y-102854819D01*
X69380962Y-102854819D02*
X69476200Y-102807200D01*
X69476200Y-102807200D02*
X69523819Y-102759580D01*
X110842857Y-94559580D02*
X110890476Y-94607200D01*
X110890476Y-94607200D02*
X111033333Y-94654819D01*
X111033333Y-94654819D02*
X111128571Y-94654819D01*
X111128571Y-94654819D02*
X111271428Y-94607200D01*
X111271428Y-94607200D02*
X111366666Y-94511961D01*
X111366666Y-94511961D02*
X111414285Y-94416723D01*
X111414285Y-94416723D02*
X111461904Y-94226247D01*
X111461904Y-94226247D02*
X111461904Y-94083390D01*
X111461904Y-94083390D02*
X111414285Y-93892914D01*
X111414285Y-93892914D02*
X111366666Y-93797676D01*
X111366666Y-93797676D02*
X111271428Y-93702438D01*
X111271428Y-93702438D02*
X111128571Y-93654819D01*
X111128571Y-93654819D02*
X111033333Y-93654819D01*
X111033333Y-93654819D02*
X110890476Y-93702438D01*
X110890476Y-93702438D02*
X110842857Y-93750057D01*
X110509523Y-93654819D02*
X109890476Y-93654819D01*
X109890476Y-93654819D02*
X110223809Y-94035771D01*
X110223809Y-94035771D02*
X110080952Y-94035771D01*
X110080952Y-94035771D02*
X109985714Y-94083390D01*
X109985714Y-94083390D02*
X109938095Y-94131009D01*
X109938095Y-94131009D02*
X109890476Y-94226247D01*
X109890476Y-94226247D02*
X109890476Y-94464342D01*
X109890476Y-94464342D02*
X109938095Y-94559580D01*
X109938095Y-94559580D02*
X109985714Y-94607200D01*
X109985714Y-94607200D02*
X110080952Y-94654819D01*
X110080952Y-94654819D02*
X110366666Y-94654819D01*
X110366666Y-94654819D02*
X110461904Y-94607200D01*
X110461904Y-94607200D02*
X110509523Y-94559580D01*
X109557142Y-93654819D02*
X108938095Y-93654819D01*
X108938095Y-93654819D02*
X109271428Y-94035771D01*
X109271428Y-94035771D02*
X109128571Y-94035771D01*
X109128571Y-94035771D02*
X109033333Y-94083390D01*
X109033333Y-94083390D02*
X108985714Y-94131009D01*
X108985714Y-94131009D02*
X108938095Y-94226247D01*
X108938095Y-94226247D02*
X108938095Y-94464342D01*
X108938095Y-94464342D02*
X108985714Y-94559580D01*
X108985714Y-94559580D02*
X109033333Y-94607200D01*
X109033333Y-94607200D02*
X109128571Y-94654819D01*
X109128571Y-94654819D02*
X109414285Y-94654819D01*
X109414285Y-94654819D02*
X109509523Y-94607200D01*
X109509523Y-94607200D02*
X109557142Y-94559580D01*
X124642857Y-81759580D02*
X124690476Y-81807200D01*
X124690476Y-81807200D02*
X124833333Y-81854819D01*
X124833333Y-81854819D02*
X124928571Y-81854819D01*
X124928571Y-81854819D02*
X125071428Y-81807200D01*
X125071428Y-81807200D02*
X125166666Y-81711961D01*
X125166666Y-81711961D02*
X125214285Y-81616723D01*
X125214285Y-81616723D02*
X125261904Y-81426247D01*
X125261904Y-81426247D02*
X125261904Y-81283390D01*
X125261904Y-81283390D02*
X125214285Y-81092914D01*
X125214285Y-81092914D02*
X125166666Y-80997676D01*
X125166666Y-80997676D02*
X125071428Y-80902438D01*
X125071428Y-80902438D02*
X124928571Y-80854819D01*
X124928571Y-80854819D02*
X124833333Y-80854819D01*
X124833333Y-80854819D02*
X124690476Y-80902438D01*
X124690476Y-80902438D02*
X124642857Y-80950057D01*
X124309523Y-80854819D02*
X123690476Y-80854819D01*
X123690476Y-80854819D02*
X124023809Y-81235771D01*
X124023809Y-81235771D02*
X123880952Y-81235771D01*
X123880952Y-81235771D02*
X123785714Y-81283390D01*
X123785714Y-81283390D02*
X123738095Y-81331009D01*
X123738095Y-81331009D02*
X123690476Y-81426247D01*
X123690476Y-81426247D02*
X123690476Y-81664342D01*
X123690476Y-81664342D02*
X123738095Y-81759580D01*
X123738095Y-81759580D02*
X123785714Y-81807200D01*
X123785714Y-81807200D02*
X123880952Y-81854819D01*
X123880952Y-81854819D02*
X124166666Y-81854819D01*
X124166666Y-81854819D02*
X124261904Y-81807200D01*
X124261904Y-81807200D02*
X124309523Y-81759580D01*
X123309523Y-80950057D02*
X123261904Y-80902438D01*
X123261904Y-80902438D02*
X123166666Y-80854819D01*
X123166666Y-80854819D02*
X122928571Y-80854819D01*
X122928571Y-80854819D02*
X122833333Y-80902438D01*
X122833333Y-80902438D02*
X122785714Y-80950057D01*
X122785714Y-80950057D02*
X122738095Y-81045295D01*
X122738095Y-81045295D02*
X122738095Y-81140533D01*
X122738095Y-81140533D02*
X122785714Y-81283390D01*
X122785714Y-81283390D02*
X123357142Y-81854819D01*
X123357142Y-81854819D02*
X122738095Y-81854819D01*
X120961915Y-94350057D02*
X121057153Y-94302438D01*
X121057153Y-94302438D02*
X121152391Y-94207200D01*
X121152391Y-94207200D02*
X121295248Y-94064342D01*
X121295248Y-94064342D02*
X121390486Y-94016723D01*
X121390486Y-94016723D02*
X121485724Y-94016723D01*
X121438105Y-94254819D02*
X121533343Y-94207200D01*
X121533343Y-94207200D02*
X121628581Y-94111961D01*
X121628581Y-94111961D02*
X121676200Y-93921485D01*
X121676200Y-93921485D02*
X121676200Y-93588152D01*
X121676200Y-93588152D02*
X121628581Y-93397676D01*
X121628581Y-93397676D02*
X121533343Y-93302438D01*
X121533343Y-93302438D02*
X121438105Y-93254819D01*
X121438105Y-93254819D02*
X121247629Y-93254819D01*
X121247629Y-93254819D02*
X121152391Y-93302438D01*
X121152391Y-93302438D02*
X121057153Y-93397676D01*
X121057153Y-93397676D02*
X121009534Y-93588152D01*
X121009534Y-93588152D02*
X121009534Y-93921485D01*
X121009534Y-93921485D02*
X121057153Y-94111961D01*
X121057153Y-94111961D02*
X121152391Y-94207200D01*
X121152391Y-94207200D02*
X121247629Y-94254819D01*
X121247629Y-94254819D02*
X121438105Y-94254819D01*
X120057153Y-94254819D02*
X120628581Y-94254819D01*
X120342867Y-94254819D02*
X120342867Y-93254819D01*
X120342867Y-93254819D02*
X120438105Y-93397676D01*
X120438105Y-93397676D02*
X120533343Y-93492914D01*
X120533343Y-93492914D02*
X120628581Y-93540533D01*
X119104772Y-94254819D02*
X119676200Y-94254819D01*
X119390486Y-94254819D02*
X119390486Y-93254819D01*
X119390486Y-93254819D02*
X119485724Y-93397676D01*
X119485724Y-93397676D02*
X119580962Y-93492914D01*
X119580962Y-93492914D02*
X119676200Y-93540533D01*
X106845844Y-104429580D02*
X106893463Y-104477200D01*
X106893463Y-104477200D02*
X107036320Y-104524819D01*
X107036320Y-104524819D02*
X107131558Y-104524819D01*
X107131558Y-104524819D02*
X107274415Y-104477200D01*
X107274415Y-104477200D02*
X107369653Y-104381961D01*
X107369653Y-104381961D02*
X107417272Y-104286723D01*
X107417272Y-104286723D02*
X107464891Y-104096247D01*
X107464891Y-104096247D02*
X107464891Y-103953390D01*
X107464891Y-103953390D02*
X107417272Y-103762914D01*
X107417272Y-103762914D02*
X107369653Y-103667676D01*
X107369653Y-103667676D02*
X107274415Y-103572438D01*
X107274415Y-103572438D02*
X107131558Y-103524819D01*
X107131558Y-103524819D02*
X107036320Y-103524819D01*
X107036320Y-103524819D02*
X106893463Y-103572438D01*
X106893463Y-103572438D02*
X106845844Y-103620057D01*
X105893463Y-104524819D02*
X106464891Y-104524819D01*
X106179177Y-104524819D02*
X106179177Y-103524819D01*
X106179177Y-103524819D02*
X106274415Y-103667676D01*
X106274415Y-103667676D02*
X106369653Y-103762914D01*
X106369653Y-103762914D02*
X106464891Y-103810533D01*
X105036320Y-103524819D02*
X105226796Y-103524819D01*
X105226796Y-103524819D02*
X105322034Y-103572438D01*
X105322034Y-103572438D02*
X105369653Y-103620057D01*
X105369653Y-103620057D02*
X105464891Y-103762914D01*
X105464891Y-103762914D02*
X105512510Y-103953390D01*
X105512510Y-103953390D02*
X105512510Y-104334342D01*
X105512510Y-104334342D02*
X105464891Y-104429580D01*
X105464891Y-104429580D02*
X105417272Y-104477200D01*
X105417272Y-104477200D02*
X105322034Y-104524819D01*
X105322034Y-104524819D02*
X105131558Y-104524819D01*
X105131558Y-104524819D02*
X105036320Y-104477200D01*
X105036320Y-104477200D02*
X104988701Y-104429580D01*
X104988701Y-104429580D02*
X104941082Y-104334342D01*
X104941082Y-104334342D02*
X104941082Y-104096247D01*
X104941082Y-104096247D02*
X104988701Y-104001009D01*
X104988701Y-104001009D02*
X105036320Y-103953390D01*
X105036320Y-103953390D02*
X105131558Y-103905771D01*
X105131558Y-103905771D02*
X105322034Y-103905771D01*
X105322034Y-103905771D02*
X105417272Y-103953390D01*
X105417272Y-103953390D02*
X105464891Y-104001009D01*
X105464891Y-104001009D02*
X105512510Y-104096247D01*
X94557153Y-90154819D02*
X94890486Y-89678628D01*
X95128581Y-90154819D02*
X95128581Y-89154819D01*
X95128581Y-89154819D02*
X94747629Y-89154819D01*
X94747629Y-89154819D02*
X94652391Y-89202438D01*
X94652391Y-89202438D02*
X94604772Y-89250057D01*
X94604772Y-89250057D02*
X94557153Y-89345295D01*
X94557153Y-89345295D02*
X94557153Y-89488152D01*
X94557153Y-89488152D02*
X94604772Y-89583390D01*
X94604772Y-89583390D02*
X94652391Y-89631009D01*
X94652391Y-89631009D02*
X94747629Y-89678628D01*
X94747629Y-89678628D02*
X95128581Y-89678628D01*
X94176200Y-89250057D02*
X94128581Y-89202438D01*
X94128581Y-89202438D02*
X94033343Y-89154819D01*
X94033343Y-89154819D02*
X93795248Y-89154819D01*
X93795248Y-89154819D02*
X93700010Y-89202438D01*
X93700010Y-89202438D02*
X93652391Y-89250057D01*
X93652391Y-89250057D02*
X93604772Y-89345295D01*
X93604772Y-89345295D02*
X93604772Y-89440533D01*
X93604772Y-89440533D02*
X93652391Y-89583390D01*
X93652391Y-89583390D02*
X94223819Y-90154819D01*
X94223819Y-90154819D02*
X93604772Y-90154819D01*
X110430357Y-114559580D02*
X110477976Y-114607200D01*
X110477976Y-114607200D02*
X110620833Y-114654819D01*
X110620833Y-114654819D02*
X110716071Y-114654819D01*
X110716071Y-114654819D02*
X110858928Y-114607200D01*
X110858928Y-114607200D02*
X110954166Y-114511961D01*
X110954166Y-114511961D02*
X111001785Y-114416723D01*
X111001785Y-114416723D02*
X111049404Y-114226247D01*
X111049404Y-114226247D02*
X111049404Y-114083390D01*
X111049404Y-114083390D02*
X111001785Y-113892914D01*
X111001785Y-113892914D02*
X110954166Y-113797676D01*
X110954166Y-113797676D02*
X110858928Y-113702438D01*
X110858928Y-113702438D02*
X110716071Y-113654819D01*
X110716071Y-113654819D02*
X110620833Y-113654819D01*
X110620833Y-113654819D02*
X110477976Y-113702438D01*
X110477976Y-113702438D02*
X110430357Y-113750057D01*
X110049404Y-113750057D02*
X110001785Y-113702438D01*
X110001785Y-113702438D02*
X109906547Y-113654819D01*
X109906547Y-113654819D02*
X109668452Y-113654819D01*
X109668452Y-113654819D02*
X109573214Y-113702438D01*
X109573214Y-113702438D02*
X109525595Y-113750057D01*
X109525595Y-113750057D02*
X109477976Y-113845295D01*
X109477976Y-113845295D02*
X109477976Y-113940533D01*
X109477976Y-113940533D02*
X109525595Y-114083390D01*
X109525595Y-114083390D02*
X110097023Y-114654819D01*
X110097023Y-114654819D02*
X109477976Y-114654819D01*
X108620833Y-113654819D02*
X108811309Y-113654819D01*
X108811309Y-113654819D02*
X108906547Y-113702438D01*
X108906547Y-113702438D02*
X108954166Y-113750057D01*
X108954166Y-113750057D02*
X109049404Y-113892914D01*
X109049404Y-113892914D02*
X109097023Y-114083390D01*
X109097023Y-114083390D02*
X109097023Y-114464342D01*
X109097023Y-114464342D02*
X109049404Y-114559580D01*
X109049404Y-114559580D02*
X109001785Y-114607200D01*
X109001785Y-114607200D02*
X108906547Y-114654819D01*
X108906547Y-114654819D02*
X108716071Y-114654819D01*
X108716071Y-114654819D02*
X108620833Y-114607200D01*
X108620833Y-114607200D02*
X108573214Y-114559580D01*
X108573214Y-114559580D02*
X108525595Y-114464342D01*
X108525595Y-114464342D02*
X108525595Y-114226247D01*
X108525595Y-114226247D02*
X108573214Y-114131009D01*
X108573214Y-114131009D02*
X108620833Y-114083390D01*
X108620833Y-114083390D02*
X108716071Y-114035771D01*
X108716071Y-114035771D02*
X108906547Y-114035771D01*
X108906547Y-114035771D02*
X109001785Y-114083390D01*
X109001785Y-114083390D02*
X109049404Y-114131009D01*
X109049404Y-114131009D02*
X109097023Y-114226247D01*
X134133344Y-112954819D02*
X134466677Y-112478628D01*
X134704772Y-112954819D02*
X134704772Y-111954819D01*
X134704772Y-111954819D02*
X134323820Y-111954819D01*
X134323820Y-111954819D02*
X134228582Y-112002438D01*
X134228582Y-112002438D02*
X134180963Y-112050057D01*
X134180963Y-112050057D02*
X134133344Y-112145295D01*
X134133344Y-112145295D02*
X134133344Y-112288152D01*
X134133344Y-112288152D02*
X134180963Y-112383390D01*
X134180963Y-112383390D02*
X134228582Y-112431009D01*
X134228582Y-112431009D02*
X134323820Y-112478628D01*
X134323820Y-112478628D02*
X134704772Y-112478628D01*
X133752391Y-112050057D02*
X133704772Y-112002438D01*
X133704772Y-112002438D02*
X133609534Y-111954819D01*
X133609534Y-111954819D02*
X133371439Y-111954819D01*
X133371439Y-111954819D02*
X133276201Y-112002438D01*
X133276201Y-112002438D02*
X133228582Y-112050057D01*
X133228582Y-112050057D02*
X133180963Y-112145295D01*
X133180963Y-112145295D02*
X133180963Y-112240533D01*
X133180963Y-112240533D02*
X133228582Y-112383390D01*
X133228582Y-112383390D02*
X133800010Y-112954819D01*
X133800010Y-112954819D02*
X133180963Y-112954819D01*
X132847629Y-111954819D02*
X132228582Y-111954819D01*
X132228582Y-111954819D02*
X132561915Y-112335771D01*
X132561915Y-112335771D02*
X132419058Y-112335771D01*
X132419058Y-112335771D02*
X132323820Y-112383390D01*
X132323820Y-112383390D02*
X132276201Y-112431009D01*
X132276201Y-112431009D02*
X132228582Y-112526247D01*
X132228582Y-112526247D02*
X132228582Y-112764342D01*
X132228582Y-112764342D02*
X132276201Y-112859580D01*
X132276201Y-112859580D02*
X132323820Y-112907200D01*
X132323820Y-112907200D02*
X132419058Y-112954819D01*
X132419058Y-112954819D02*
X132704772Y-112954819D01*
X132704772Y-112954819D02*
X132800010Y-112907200D01*
X132800010Y-112907200D02*
X132847629Y-112859580D01*
X104042857Y-96959580D02*
X104090476Y-97007200D01*
X104090476Y-97007200D02*
X104233333Y-97054819D01*
X104233333Y-97054819D02*
X104328571Y-97054819D01*
X104328571Y-97054819D02*
X104471428Y-97007200D01*
X104471428Y-97007200D02*
X104566666Y-96911961D01*
X104566666Y-96911961D02*
X104614285Y-96816723D01*
X104614285Y-96816723D02*
X104661904Y-96626247D01*
X104661904Y-96626247D02*
X104661904Y-96483390D01*
X104661904Y-96483390D02*
X104614285Y-96292914D01*
X104614285Y-96292914D02*
X104566666Y-96197676D01*
X104566666Y-96197676D02*
X104471428Y-96102438D01*
X104471428Y-96102438D02*
X104328571Y-96054819D01*
X104328571Y-96054819D02*
X104233333Y-96054819D01*
X104233333Y-96054819D02*
X104090476Y-96102438D01*
X104090476Y-96102438D02*
X104042857Y-96150057D01*
X103709523Y-96054819D02*
X103090476Y-96054819D01*
X103090476Y-96054819D02*
X103423809Y-96435771D01*
X103423809Y-96435771D02*
X103280952Y-96435771D01*
X103280952Y-96435771D02*
X103185714Y-96483390D01*
X103185714Y-96483390D02*
X103138095Y-96531009D01*
X103138095Y-96531009D02*
X103090476Y-96626247D01*
X103090476Y-96626247D02*
X103090476Y-96864342D01*
X103090476Y-96864342D02*
X103138095Y-96959580D01*
X103138095Y-96959580D02*
X103185714Y-97007200D01*
X103185714Y-97007200D02*
X103280952Y-97054819D01*
X103280952Y-97054819D02*
X103566666Y-97054819D01*
X103566666Y-97054819D02*
X103661904Y-97007200D01*
X103661904Y-97007200D02*
X103709523Y-96959580D01*
X102138095Y-97054819D02*
X102709523Y-97054819D01*
X102423809Y-97054819D02*
X102423809Y-96054819D01*
X102423809Y-96054819D02*
X102519047Y-96197676D01*
X102519047Y-96197676D02*
X102614285Y-96292914D01*
X102614285Y-96292914D02*
X102709523Y-96340533D01*
X99238094Y-111054819D02*
X99238094Y-110054819D01*
X99238094Y-110054819D02*
X98999999Y-110054819D01*
X98999999Y-110054819D02*
X98857142Y-110102438D01*
X98857142Y-110102438D02*
X98761904Y-110197676D01*
X98761904Y-110197676D02*
X98714285Y-110292914D01*
X98714285Y-110292914D02*
X98666666Y-110483390D01*
X98666666Y-110483390D02*
X98666666Y-110626247D01*
X98666666Y-110626247D02*
X98714285Y-110816723D01*
X98714285Y-110816723D02*
X98761904Y-110911961D01*
X98761904Y-110911961D02*
X98857142Y-111007200D01*
X98857142Y-111007200D02*
X98999999Y-111054819D01*
X98999999Y-111054819D02*
X99238094Y-111054819D01*
X98095237Y-110483390D02*
X98190475Y-110435771D01*
X98190475Y-110435771D02*
X98238094Y-110388152D01*
X98238094Y-110388152D02*
X98285713Y-110292914D01*
X98285713Y-110292914D02*
X98285713Y-110245295D01*
X98285713Y-110245295D02*
X98238094Y-110150057D01*
X98238094Y-110150057D02*
X98190475Y-110102438D01*
X98190475Y-110102438D02*
X98095237Y-110054819D01*
X98095237Y-110054819D02*
X97904761Y-110054819D01*
X97904761Y-110054819D02*
X97809523Y-110102438D01*
X97809523Y-110102438D02*
X97761904Y-110150057D01*
X97761904Y-110150057D02*
X97714285Y-110245295D01*
X97714285Y-110245295D02*
X97714285Y-110292914D01*
X97714285Y-110292914D02*
X97761904Y-110388152D01*
X97761904Y-110388152D02*
X97809523Y-110435771D01*
X97809523Y-110435771D02*
X97904761Y-110483390D01*
X97904761Y-110483390D02*
X98095237Y-110483390D01*
X98095237Y-110483390D02*
X98190475Y-110531009D01*
X98190475Y-110531009D02*
X98238094Y-110578628D01*
X98238094Y-110578628D02*
X98285713Y-110673866D01*
X98285713Y-110673866D02*
X98285713Y-110864342D01*
X98285713Y-110864342D02*
X98238094Y-110959580D01*
X98238094Y-110959580D02*
X98190475Y-111007200D01*
X98190475Y-111007200D02*
X98095237Y-111054819D01*
X98095237Y-111054819D02*
X97904761Y-111054819D01*
X97904761Y-111054819D02*
X97809523Y-111007200D01*
X97809523Y-111007200D02*
X97761904Y-110959580D01*
X97761904Y-110959580D02*
X97714285Y-110864342D01*
X97714285Y-110864342D02*
X97714285Y-110673866D01*
X97714285Y-110673866D02*
X97761904Y-110578628D01*
X97761904Y-110578628D02*
X97809523Y-110531009D01*
X97809523Y-110531009D02*
X97904761Y-110483390D01*
X99839870Y-108059580D02*
X99887489Y-108107200D01*
X99887489Y-108107200D02*
X100030346Y-108154819D01*
X100030346Y-108154819D02*
X100125584Y-108154819D01*
X100125584Y-108154819D02*
X100268441Y-108107200D01*
X100268441Y-108107200D02*
X100363679Y-108011961D01*
X100363679Y-108011961D02*
X100411298Y-107916723D01*
X100411298Y-107916723D02*
X100458917Y-107726247D01*
X100458917Y-107726247D02*
X100458917Y-107583390D01*
X100458917Y-107583390D02*
X100411298Y-107392914D01*
X100411298Y-107392914D02*
X100363679Y-107297676D01*
X100363679Y-107297676D02*
X100268441Y-107202438D01*
X100268441Y-107202438D02*
X100125584Y-107154819D01*
X100125584Y-107154819D02*
X100030346Y-107154819D01*
X100030346Y-107154819D02*
X99887489Y-107202438D01*
X99887489Y-107202438D02*
X99839870Y-107250057D01*
X98887489Y-108154819D02*
X99458917Y-108154819D01*
X99173203Y-108154819D02*
X99173203Y-107154819D01*
X99173203Y-107154819D02*
X99268441Y-107297676D01*
X99268441Y-107297676D02*
X99363679Y-107392914D01*
X99363679Y-107392914D02*
X99458917Y-107440533D01*
X98030346Y-107488152D02*
X98030346Y-108154819D01*
X98268441Y-107107200D02*
X98506536Y-107821485D01*
X98506536Y-107821485D02*
X97887489Y-107821485D01*
X116942857Y-97454819D02*
X117276190Y-96978628D01*
X117514285Y-97454819D02*
X117514285Y-96454819D01*
X117514285Y-96454819D02*
X117133333Y-96454819D01*
X117133333Y-96454819D02*
X117038095Y-96502438D01*
X117038095Y-96502438D02*
X116990476Y-96550057D01*
X116990476Y-96550057D02*
X116942857Y-96645295D01*
X116942857Y-96645295D02*
X116942857Y-96788152D01*
X116942857Y-96788152D02*
X116990476Y-96883390D01*
X116990476Y-96883390D02*
X117038095Y-96931009D01*
X117038095Y-96931009D02*
X117133333Y-96978628D01*
X117133333Y-96978628D02*
X117514285Y-96978628D01*
X116561904Y-96550057D02*
X116514285Y-96502438D01*
X116514285Y-96502438D02*
X116419047Y-96454819D01*
X116419047Y-96454819D02*
X116180952Y-96454819D01*
X116180952Y-96454819D02*
X116085714Y-96502438D01*
X116085714Y-96502438D02*
X116038095Y-96550057D01*
X116038095Y-96550057D02*
X115990476Y-96645295D01*
X115990476Y-96645295D02*
X115990476Y-96740533D01*
X115990476Y-96740533D02*
X116038095Y-96883390D01*
X116038095Y-96883390D02*
X116609523Y-97454819D01*
X116609523Y-97454819D02*
X115990476Y-97454819D01*
X115085714Y-96454819D02*
X115561904Y-96454819D01*
X115561904Y-96454819D02*
X115609523Y-96931009D01*
X115609523Y-96931009D02*
X115561904Y-96883390D01*
X115561904Y-96883390D02*
X115466666Y-96835771D01*
X115466666Y-96835771D02*
X115228571Y-96835771D01*
X115228571Y-96835771D02*
X115133333Y-96883390D01*
X115133333Y-96883390D02*
X115085714Y-96931009D01*
X115085714Y-96931009D02*
X115038095Y-97026247D01*
X115038095Y-97026247D02*
X115038095Y-97264342D01*
X115038095Y-97264342D02*
X115085714Y-97359580D01*
X115085714Y-97359580D02*
X115133333Y-97407200D01*
X115133333Y-97407200D02*
X115228571Y-97454819D01*
X115228571Y-97454819D02*
X115466666Y-97454819D01*
X115466666Y-97454819D02*
X115561904Y-97407200D01*
X115561904Y-97407200D02*
X115609523Y-97359580D01*
X69857153Y-95854819D02*
X70190486Y-95378628D01*
X70428581Y-95854819D02*
X70428581Y-94854819D01*
X70428581Y-94854819D02*
X70047629Y-94854819D01*
X70047629Y-94854819D02*
X69952391Y-94902438D01*
X69952391Y-94902438D02*
X69904772Y-94950057D01*
X69904772Y-94950057D02*
X69857153Y-95045295D01*
X69857153Y-95045295D02*
X69857153Y-95188152D01*
X69857153Y-95188152D02*
X69904772Y-95283390D01*
X69904772Y-95283390D02*
X69952391Y-95331009D01*
X69952391Y-95331009D02*
X70047629Y-95378628D01*
X70047629Y-95378628D02*
X70428581Y-95378628D01*
X69000010Y-95188152D02*
X69000010Y-95854819D01*
X69238105Y-94807200D02*
X69476200Y-95521485D01*
X69476200Y-95521485D02*
X68857153Y-95521485D01*
X101538094Y-119654819D02*
X101538094Y-118654819D01*
X101538094Y-118654819D02*
X101299999Y-118654819D01*
X101299999Y-118654819D02*
X101157142Y-118702438D01*
X101157142Y-118702438D02*
X101061904Y-118797676D01*
X101061904Y-118797676D02*
X101014285Y-118892914D01*
X101014285Y-118892914D02*
X100966666Y-119083390D01*
X100966666Y-119083390D02*
X100966666Y-119226247D01*
X100966666Y-119226247D02*
X101014285Y-119416723D01*
X101014285Y-119416723D02*
X101061904Y-119511961D01*
X101061904Y-119511961D02*
X101157142Y-119607200D01*
X101157142Y-119607200D02*
X101299999Y-119654819D01*
X101299999Y-119654819D02*
X101538094Y-119654819D01*
X100633332Y-118654819D02*
X99966666Y-118654819D01*
X99966666Y-118654819D02*
X100395237Y-119654819D01*
X77857153Y-103354819D02*
X78190486Y-102878628D01*
X78428581Y-103354819D02*
X78428581Y-102354819D01*
X78428581Y-102354819D02*
X78047629Y-102354819D01*
X78047629Y-102354819D02*
X77952391Y-102402438D01*
X77952391Y-102402438D02*
X77904772Y-102450057D01*
X77904772Y-102450057D02*
X77857153Y-102545295D01*
X77857153Y-102545295D02*
X77857153Y-102688152D01*
X77857153Y-102688152D02*
X77904772Y-102783390D01*
X77904772Y-102783390D02*
X77952391Y-102831009D01*
X77952391Y-102831009D02*
X78047629Y-102878628D01*
X78047629Y-102878628D02*
X78428581Y-102878628D01*
X77523819Y-102354819D02*
X76904772Y-102354819D01*
X76904772Y-102354819D02*
X77238105Y-102735771D01*
X77238105Y-102735771D02*
X77095248Y-102735771D01*
X77095248Y-102735771D02*
X77000010Y-102783390D01*
X77000010Y-102783390D02*
X76952391Y-102831009D01*
X76952391Y-102831009D02*
X76904772Y-102926247D01*
X76904772Y-102926247D02*
X76904772Y-103164342D01*
X76904772Y-103164342D02*
X76952391Y-103259580D01*
X76952391Y-103259580D02*
X77000010Y-103307200D01*
X77000010Y-103307200D02*
X77095248Y-103354819D01*
X77095248Y-103354819D02*
X77380962Y-103354819D01*
X77380962Y-103354819D02*
X77476200Y-103307200D01*
X77476200Y-103307200D02*
X77523819Y-103259580D01*
X131033344Y-89059580D02*
X131080963Y-89107200D01*
X131080963Y-89107200D02*
X131223820Y-89154819D01*
X131223820Y-89154819D02*
X131319058Y-89154819D01*
X131319058Y-89154819D02*
X131461915Y-89107200D01*
X131461915Y-89107200D02*
X131557153Y-89011961D01*
X131557153Y-89011961D02*
X131604772Y-88916723D01*
X131604772Y-88916723D02*
X131652391Y-88726247D01*
X131652391Y-88726247D02*
X131652391Y-88583390D01*
X131652391Y-88583390D02*
X131604772Y-88392914D01*
X131604772Y-88392914D02*
X131557153Y-88297676D01*
X131557153Y-88297676D02*
X131461915Y-88202438D01*
X131461915Y-88202438D02*
X131319058Y-88154819D01*
X131319058Y-88154819D02*
X131223820Y-88154819D01*
X131223820Y-88154819D02*
X131080963Y-88202438D01*
X131080963Y-88202438D02*
X131033344Y-88250057D01*
X130652391Y-88250057D02*
X130604772Y-88202438D01*
X130604772Y-88202438D02*
X130509534Y-88154819D01*
X130509534Y-88154819D02*
X130271439Y-88154819D01*
X130271439Y-88154819D02*
X130176201Y-88202438D01*
X130176201Y-88202438D02*
X130128582Y-88250057D01*
X130128582Y-88250057D02*
X130080963Y-88345295D01*
X130080963Y-88345295D02*
X130080963Y-88440533D01*
X130080963Y-88440533D02*
X130128582Y-88583390D01*
X130128582Y-88583390D02*
X130700010Y-89154819D01*
X130700010Y-89154819D02*
X130080963Y-89154819D01*
X129747629Y-88154819D02*
X129080963Y-88154819D01*
X129080963Y-88154819D02*
X129509534Y-89154819D01*
X110642857Y-100254819D02*
X110976190Y-99778628D01*
X111214285Y-100254819D02*
X111214285Y-99254819D01*
X111214285Y-99254819D02*
X110833333Y-99254819D01*
X110833333Y-99254819D02*
X110738095Y-99302438D01*
X110738095Y-99302438D02*
X110690476Y-99350057D01*
X110690476Y-99350057D02*
X110642857Y-99445295D01*
X110642857Y-99445295D02*
X110642857Y-99588152D01*
X110642857Y-99588152D02*
X110690476Y-99683390D01*
X110690476Y-99683390D02*
X110738095Y-99731009D01*
X110738095Y-99731009D02*
X110833333Y-99778628D01*
X110833333Y-99778628D02*
X111214285Y-99778628D01*
X110261904Y-99350057D02*
X110214285Y-99302438D01*
X110214285Y-99302438D02*
X110119047Y-99254819D01*
X110119047Y-99254819D02*
X109880952Y-99254819D01*
X109880952Y-99254819D02*
X109785714Y-99302438D01*
X109785714Y-99302438D02*
X109738095Y-99350057D01*
X109738095Y-99350057D02*
X109690476Y-99445295D01*
X109690476Y-99445295D02*
X109690476Y-99540533D01*
X109690476Y-99540533D02*
X109738095Y-99683390D01*
X109738095Y-99683390D02*
X110309523Y-100254819D01*
X110309523Y-100254819D02*
X109690476Y-100254819D01*
X109119047Y-99683390D02*
X109214285Y-99635771D01*
X109214285Y-99635771D02*
X109261904Y-99588152D01*
X109261904Y-99588152D02*
X109309523Y-99492914D01*
X109309523Y-99492914D02*
X109309523Y-99445295D01*
X109309523Y-99445295D02*
X109261904Y-99350057D01*
X109261904Y-99350057D02*
X109214285Y-99302438D01*
X109214285Y-99302438D02*
X109119047Y-99254819D01*
X109119047Y-99254819D02*
X108928571Y-99254819D01*
X108928571Y-99254819D02*
X108833333Y-99302438D01*
X108833333Y-99302438D02*
X108785714Y-99350057D01*
X108785714Y-99350057D02*
X108738095Y-99445295D01*
X108738095Y-99445295D02*
X108738095Y-99492914D01*
X108738095Y-99492914D02*
X108785714Y-99588152D01*
X108785714Y-99588152D02*
X108833333Y-99635771D01*
X108833333Y-99635771D02*
X108928571Y-99683390D01*
X108928571Y-99683390D02*
X109119047Y-99683390D01*
X109119047Y-99683390D02*
X109214285Y-99731009D01*
X109214285Y-99731009D02*
X109261904Y-99778628D01*
X109261904Y-99778628D02*
X109309523Y-99873866D01*
X109309523Y-99873866D02*
X109309523Y-100064342D01*
X109309523Y-100064342D02*
X109261904Y-100159580D01*
X109261904Y-100159580D02*
X109214285Y-100207200D01*
X109214285Y-100207200D02*
X109119047Y-100254819D01*
X109119047Y-100254819D02*
X108928571Y-100254819D01*
X108928571Y-100254819D02*
X108833333Y-100207200D01*
X108833333Y-100207200D02*
X108785714Y-100159580D01*
X108785714Y-100159580D02*
X108738095Y-100064342D01*
X108738095Y-100064342D02*
X108738095Y-99873866D01*
X108738095Y-99873866D02*
X108785714Y-99778628D01*
X108785714Y-99778628D02*
X108833333Y-99731009D01*
X108833333Y-99731009D02*
X108928571Y-99683390D01*
X110442857Y-98054819D02*
X110776190Y-97578628D01*
X111014285Y-98054819D02*
X111014285Y-97054819D01*
X111014285Y-97054819D02*
X110633333Y-97054819D01*
X110633333Y-97054819D02*
X110538095Y-97102438D01*
X110538095Y-97102438D02*
X110490476Y-97150057D01*
X110490476Y-97150057D02*
X110442857Y-97245295D01*
X110442857Y-97245295D02*
X110442857Y-97388152D01*
X110442857Y-97388152D02*
X110490476Y-97483390D01*
X110490476Y-97483390D02*
X110538095Y-97531009D01*
X110538095Y-97531009D02*
X110633333Y-97578628D01*
X110633333Y-97578628D02*
X111014285Y-97578628D01*
X110061904Y-97150057D02*
X110014285Y-97102438D01*
X110014285Y-97102438D02*
X109919047Y-97054819D01*
X109919047Y-97054819D02*
X109680952Y-97054819D01*
X109680952Y-97054819D02*
X109585714Y-97102438D01*
X109585714Y-97102438D02*
X109538095Y-97150057D01*
X109538095Y-97150057D02*
X109490476Y-97245295D01*
X109490476Y-97245295D02*
X109490476Y-97340533D01*
X109490476Y-97340533D02*
X109538095Y-97483390D01*
X109538095Y-97483390D02*
X110109523Y-98054819D01*
X110109523Y-98054819D02*
X109490476Y-98054819D01*
X109014285Y-98054819D02*
X108823809Y-98054819D01*
X108823809Y-98054819D02*
X108728571Y-98007200D01*
X108728571Y-98007200D02*
X108680952Y-97959580D01*
X108680952Y-97959580D02*
X108585714Y-97816723D01*
X108585714Y-97816723D02*
X108538095Y-97626247D01*
X108538095Y-97626247D02*
X108538095Y-97245295D01*
X108538095Y-97245295D02*
X108585714Y-97150057D01*
X108585714Y-97150057D02*
X108633333Y-97102438D01*
X108633333Y-97102438D02*
X108728571Y-97054819D01*
X108728571Y-97054819D02*
X108919047Y-97054819D01*
X108919047Y-97054819D02*
X109014285Y-97102438D01*
X109014285Y-97102438D02*
X109061904Y-97150057D01*
X109061904Y-97150057D02*
X109109523Y-97245295D01*
X109109523Y-97245295D02*
X109109523Y-97483390D01*
X109109523Y-97483390D02*
X109061904Y-97578628D01*
X109061904Y-97578628D02*
X109014285Y-97626247D01*
X109014285Y-97626247D02*
X108919047Y-97673866D01*
X108919047Y-97673866D02*
X108728571Y-97673866D01*
X108728571Y-97673866D02*
X108633333Y-97626247D01*
X108633333Y-97626247D02*
X108585714Y-97578628D01*
X108585714Y-97578628D02*
X108538095Y-97483390D01*
D11*
%TO.C,R27*%
X113930051Y-100165000D02*
X113475923Y-100165000D01*
X113930051Y-101635000D02*
X113475923Y-101635000D01*
%TO.C,Q2*%
X93010487Y-94312500D02*
X93010487Y-94962500D01*
X93010487Y-95612500D02*
X93010487Y-94962500D01*
X96130487Y-94312500D02*
X96130487Y-94962500D01*
X96130487Y-95612500D02*
X96130487Y-94962500D01*
X93060487Y-93800000D02*
X92730487Y-94040000D01*
X92730487Y-93560000D01*
X93060487Y-93800000D01*
G36*
X93060487Y-93800000D02*
G01*
X92730487Y-94040000D01*
X92730487Y-93560000D01*
X93060487Y-93800000D01*
G37*
%TO.C,U7*%
X101840000Y-87650000D02*
X101840000Y-89600000D01*
X101840000Y-91550000D02*
X101840000Y-89600000D01*
X106960000Y-87650000D02*
X106960000Y-89600000D01*
X106960000Y-91550000D02*
X106960000Y-89600000D01*
X101935000Y-86900000D02*
X101605000Y-87140000D01*
X101605000Y-86660000D01*
X101935000Y-86900000D01*
G36*
X101935000Y-86900000D02*
G01*
X101605000Y-87140000D01*
X101605000Y-86660000D01*
X101935000Y-86900000D01*
G37*
%TO.C,C19*%
X59980487Y-92334420D02*
X59980487Y-92615580D01*
X61000487Y-92334420D02*
X61000487Y-92615580D01*
%TO.C,R14*%
X110630051Y-107465000D02*
X110175923Y-107465000D01*
X110630051Y-108935000D02*
X110175923Y-108935000D01*
%TO.C,C7*%
X98240000Y-81511252D02*
X98240000Y-80088748D01*
X100960000Y-81511252D02*
X100960000Y-80088748D01*
%TO.C,R12*%
X108160436Y-117965000D02*
X108614564Y-117965000D01*
X108160436Y-119435000D02*
X108614564Y-119435000D01*
%TO.C,C20*%
X109859420Y-102690000D02*
X110140580Y-102690000D01*
X109859420Y-103710000D02*
X110140580Y-103710000D01*
%TO.C,Q1*%
X97930487Y-94312500D02*
X97930487Y-94962500D01*
X97930487Y-95612500D02*
X97930487Y-94962500D01*
X101050487Y-94312500D02*
X101050487Y-94962500D01*
X101050487Y-95612500D02*
X101050487Y-94962500D01*
X97980487Y-93800000D02*
X97650487Y-94040000D01*
X97650487Y-93560000D01*
X97980487Y-93800000D01*
G36*
X97980487Y-93800000D02*
G01*
X97650487Y-94040000D01*
X97650487Y-93560000D01*
X97980487Y-93800000D01*
G37*
%TO.C,C24*%
X112049907Y-110190000D02*
X112331067Y-110190000D01*
X112049907Y-111210000D02*
X112331067Y-111210000D01*
%TO.C,C12*%
X98140580Y-115090000D02*
X97859420Y-115090000D01*
X98140580Y-116110000D02*
X97859420Y-116110000D01*
%TO.C,C2*%
X82381067Y-114240000D02*
X82099907Y-114240000D01*
X82381067Y-115260000D02*
X82099907Y-115260000D01*
%TO.C,R8*%
X100065000Y-115172936D02*
X100065000Y-115627064D01*
X101535000Y-115172936D02*
X101535000Y-115627064D01*
%TO.C,R13*%
X105730051Y-106865000D02*
X105275923Y-106865000D01*
X105730051Y-108335000D02*
X105275923Y-108335000D01*
%TO.C,C8*%
X102190000Y-80340580D02*
X102190000Y-80059420D01*
X103210000Y-80340580D02*
X103210000Y-80059420D01*
%TO.C,C9*%
X103950000Y-80059420D02*
X103950000Y-80340580D01*
X104970000Y-80059420D02*
X104970000Y-80340580D01*
%TO.C,R11*%
X108614564Y-115865000D02*
X108160436Y-115865000D01*
X108614564Y-117335000D02*
X108160436Y-117335000D01*
%TO.C,C4*%
X80831067Y-100290000D02*
X80549907Y-100290000D01*
X80831067Y-101310000D02*
X80549907Y-101310000D01*
%TO.C,C23*%
X109859420Y-100890000D02*
X110140580Y-100890000D01*
X109859420Y-101910000D02*
X110140580Y-101910000D01*
%TO.C,C25*%
X118559420Y-99190000D02*
X118840580Y-99190000D01*
X118559420Y-100210000D02*
X118840580Y-100210000D01*
%TO.C,C1*%
X62631067Y-110090000D02*
X62349907Y-110090000D01*
X62631067Y-111110000D02*
X62349907Y-111110000D01*
%TO.C,R15*%
X110530051Y-104565000D02*
X110075923Y-104565000D01*
X110530051Y-106035000D02*
X110075923Y-106035000D01*
%TO.C,R1*%
X99660051Y-90765000D02*
X99205923Y-90765000D01*
X99660051Y-92235000D02*
X99205923Y-92235000D01*
%TO.C,C29*%
X112831067Y-96190000D02*
X112549907Y-96190000D01*
X112831067Y-97210000D02*
X112549907Y-97210000D01*
%TO.C,C18*%
X59980487Y-89090580D02*
X59980487Y-88809420D01*
X61000487Y-89090580D02*
X61000487Y-88809420D01*
%TO.C,C3*%
X69624907Y-100490000D02*
X69906067Y-100490000D01*
X69624907Y-101510000D02*
X69906067Y-101510000D01*
%TO.C,C33*%
X107340580Y-93690000D02*
X107059420Y-93690000D01*
X107340580Y-94710000D02*
X107059420Y-94710000D01*
%TO.C,C32*%
X119240000Y-82311252D02*
X119240000Y-80888748D01*
X121960000Y-82311252D02*
X121960000Y-80888748D01*
%TO.C,Q11*%
X119640487Y-94740000D02*
X120290487Y-94740000D01*
X119640487Y-97860000D02*
X120290487Y-97860000D01*
X120940487Y-94740000D02*
X120290487Y-94740000D01*
X120940487Y-97860000D02*
X120290487Y-97860000D01*
X119367987Y-98140000D02*
X118887987Y-98140000D01*
X119127987Y-97810000D01*
X119367987Y-98140000D01*
G36*
X119367987Y-98140000D02*
G01*
X118887987Y-98140000D01*
X119127987Y-97810000D01*
X119367987Y-98140000D01*
G37*
%TO.C,C16*%
X106062407Y-104990000D02*
X106343567Y-104990000D01*
X106062407Y-106010000D02*
X106343567Y-106010000D01*
%TO.C,R2*%
X94747551Y-90765000D02*
X94293423Y-90765000D01*
X94747551Y-92235000D02*
X94293423Y-92235000D01*
%TO.C,C26*%
X106927500Y-113859420D02*
X106927500Y-114140580D01*
X107947500Y-113859420D02*
X107947500Y-114140580D01*
%TO.C,R23*%
X132255487Y-115272936D02*
X132255487Y-115727064D01*
X133725487Y-115272936D02*
X133725487Y-115727064D01*
%TO.C,C31*%
X106649907Y-96090000D02*
X106931067Y-96090000D01*
X106649907Y-97110000D02*
X106931067Y-97110000D01*
%TO.C,D8*%
X102602987Y-108950000D02*
X108112987Y-108950000D01*
X102602987Y-112250000D02*
X108112987Y-112250000D01*
X108112987Y-112250000D02*
X108112987Y-108950000D01*
%TO.C,C14*%
X102340580Y-107090000D02*
X102059420Y-107090000D01*
X102340580Y-108110000D02*
X102059420Y-108110000D01*
%TO.C,R25*%
X113475923Y-98165000D02*
X113930051Y-98165000D01*
X113475923Y-99635000D02*
X113930051Y-99635000D01*
%TO.C,R4*%
X69905051Y-96265000D02*
X69450923Y-96265000D01*
X69905051Y-97735000D02*
X69450923Y-97735000D01*
%TO.C,D7*%
X102750000Y-114000000D02*
X102750000Y-119510000D01*
X102750000Y-119510000D02*
X106050000Y-119510000D01*
X106050000Y-114000000D02*
X106050000Y-119510000D01*
%TO.C,R3*%
X80463423Y-102165000D02*
X80917551Y-102165000D01*
X80463423Y-103635000D02*
X80917551Y-103635000D01*
%TO.C,C27*%
X129230487Y-91488748D02*
X129230487Y-92911252D01*
X131950487Y-91488748D02*
X131950487Y-92911252D01*
%TO.C,R28*%
X106372936Y-99665000D02*
X106827064Y-99665000D01*
X106372936Y-101135000D02*
X106827064Y-101135000D01*
%TO.C,R29*%
X106827064Y-97665000D02*
X106372936Y-97665000D01*
X106827064Y-99135000D02*
X106372936Y-99135000D01*
%TD*%
M02*
