%TF.GenerationSoftware,KiCad,Pcbnew,8.0.1-8.0.1-1~ubuntu22.04.1*%
%TF.CreationDate,2024-04-06T20:30:09+03:00*%
%TF.ProjectId,handle-module,68616e64-6c65-42d6-9d6f-64756c652e6b,rev?*%
%TF.SameCoordinates,Original*%
%TF.FileFunction,Paste,Top*%
%TF.FilePolarity,Positive*%
%FSLAX46Y46*%
G04 Gerber Fmt 4.6, Leading zero omitted, Abs format (unit mm)*
G04 Created by KiCad (PCBNEW 8.0.1-8.0.1-1~ubuntu22.04.1) date 2024-04-06 20:30:09*
%MOMM*%
%LPD*%
G01*
G04 APERTURE LIST*
G04 Aperture macros list*
%AMRoundRect*
0 Rectangle with rounded corners*
0 $1 Rounding radius*
0 $2 $3 $4 $5 $6 $7 $8 $9 X,Y pos of 4 corners*
0 Add a 4 corners polygon primitive as box body*
4,1,4,$2,$3,$4,$5,$6,$7,$8,$9,$2,$3,0*
0 Add four circle primitives for the rounded corners*
1,1,$1+$1,$2,$3*
1,1,$1+$1,$4,$5*
1,1,$1+$1,$6,$7*
1,1,$1+$1,$8,$9*
0 Add four rect primitives between the rounded corners*
20,1,$1+$1,$2,$3,$4,$5,0*
20,1,$1+$1,$4,$5,$6,$7,0*
20,1,$1+$1,$6,$7,$8,$9,0*
20,1,$1+$1,$8,$9,$2,$3,0*%
G04 Aperture macros list end*
%ADD10RoundRect,0.952500X1.167500X0.952500X-1.167500X0.952500X-1.167500X-0.952500X1.167500X-0.952500X0*%
%ADD11R,1.600000X0.550000*%
%ADD12R,0.550000X1.600000*%
%ADD13RoundRect,0.225000X0.225000X0.250000X-0.225000X0.250000X-0.225000X-0.250000X0.225000X-0.250000X0*%
%ADD14RoundRect,0.150000X0.587500X0.150000X-0.587500X0.150000X-0.587500X-0.150000X0.587500X-0.150000X0*%
%ADD15RoundRect,0.250000X-1.000000X-0.900000X1.000000X-0.900000X1.000000X0.900000X-1.000000X0.900000X0*%
%ADD16RoundRect,0.250000X-0.450000X0.262500X-0.450000X-0.262500X0.450000X-0.262500X0.450000X0.262500X0*%
%ADD17RoundRect,0.225000X-0.225000X-0.250000X0.225000X-0.250000X0.225000X0.250000X-0.225000X0.250000X0*%
%ADD18RoundRect,0.250000X-0.315000X-0.315000X0.315000X-0.315000X0.315000X0.315000X-0.315000X0.315000X0*%
%ADD19RoundRect,0.050000X-0.387500X-0.050000X0.387500X-0.050000X0.387500X0.050000X-0.387500X0.050000X0*%
%ADD20RoundRect,0.050000X-0.050000X-0.387500X0.050000X-0.387500X0.050000X0.387500X-0.050000X0.387500X0*%
%ADD21RoundRect,0.250000X0.625000X-0.312500X0.625000X0.312500X-0.625000X0.312500X-0.625000X-0.312500X0*%
%ADD22RoundRect,0.125000X-0.125000X-0.125000X0.125000X-0.125000X0.125000X0.125000X-0.125000X0.125000X0*%
%ADD23RoundRect,0.250000X1.100000X-0.325000X1.100000X0.325000X-1.100000X0.325000X-1.100000X-0.325000X0*%
%ADD24RoundRect,0.250000X0.262500X0.450000X-0.262500X0.450000X-0.262500X-0.450000X0.262500X-0.450000X0*%
%ADD25RoundRect,0.150000X-0.587500X-0.150000X0.587500X-0.150000X0.587500X0.150000X-0.587500X0.150000X0*%
%ADD26RoundRect,0.150000X-0.150000X0.587500X-0.150000X-0.587500X0.150000X-0.587500X0.150000X0.587500X0*%
%ADD27RoundRect,0.250000X-1.100000X0.325000X-1.100000X-0.325000X1.100000X-0.325000X1.100000X0.325000X0*%
%ADD28RoundRect,0.225000X0.250000X-0.225000X0.250000X0.225000X-0.250000X0.225000X-0.250000X-0.225000X0*%
%ADD29RoundRect,0.235000X0.940000X1.465000X-0.940000X1.465000X-0.940000X-1.465000X0.940000X-1.465000X0*%
%ADD30RoundRect,0.250000X1.000000X0.650000X-1.000000X0.650000X-1.000000X-0.650000X1.000000X-0.650000X0*%
%ADD31RoundRect,0.375000X0.375000X-0.625000X0.375000X0.625000X-0.375000X0.625000X-0.375000X-0.625000X0*%
%ADD32RoundRect,0.500000X1.400000X-0.500000X1.400000X0.500000X-1.400000X0.500000X-1.400000X-0.500000X0*%
%ADD33RoundRect,0.250000X-0.325000X-1.100000X0.325000X-1.100000X0.325000X1.100000X-0.325000X1.100000X0*%
%ADD34RoundRect,0.125000X0.125000X0.125000X-0.125000X0.125000X-0.125000X-0.125000X0.125000X-0.125000X0*%
%ADD35RoundRect,0.250000X0.312500X0.625000X-0.312500X0.625000X-0.312500X-0.625000X0.312500X-0.625000X0*%
%ADD36RoundRect,0.250000X-0.262500X-0.450000X0.262500X-0.450000X0.262500X0.450000X-0.262500X0.450000X0*%
G04 APERTURE END LIST*
D10*
%TO.C,F2*%
X113965487Y-116500000D03*
X107555487Y-116500000D03*
%TD*%
D11*
%TO.C,U3*%
X68240487Y-87450000D03*
X68240487Y-88250000D03*
X68240487Y-89050000D03*
X68240487Y-89850000D03*
X68240487Y-90650000D03*
X68240487Y-91450000D03*
X68240487Y-92250000D03*
X68240487Y-93050000D03*
D12*
X69690487Y-94500000D03*
X70490487Y-94500000D03*
X71290487Y-94500000D03*
X72090487Y-94500000D03*
X72890487Y-94500000D03*
X73690487Y-94500000D03*
X74490487Y-94500000D03*
X75290487Y-94500000D03*
D11*
X76740487Y-93050000D03*
X76740487Y-92250000D03*
X76740487Y-91450000D03*
X76740487Y-90650000D03*
X76740487Y-89850000D03*
X76740487Y-89050000D03*
X76740487Y-88250000D03*
X76740487Y-87450000D03*
D12*
X75290487Y-86000000D03*
X74490487Y-86000000D03*
X73690487Y-86000000D03*
X72890487Y-86000000D03*
X72090487Y-86000000D03*
X71290487Y-86000000D03*
X70490487Y-86000000D03*
X69690487Y-86000000D03*
%TD*%
D13*
%TO.C,C30*%
X110610487Y-96655000D03*
X109060487Y-96655000D03*
%TD*%
D14*
%TO.C,Q3*%
X80177987Y-98950000D03*
X80177987Y-97050000D03*
X78302987Y-98000000D03*
%TD*%
D15*
%TO.C,D9*%
X118840487Y-117500000D03*
X123140487Y-117500000D03*
%TD*%
D16*
%TO.C,R9*%
X98400000Y-84187500D03*
X98400000Y-86012500D03*
%TD*%
D17*
%TO.C,C22*%
X124215487Y-99200000D03*
X125765487Y-99200000D03*
%TD*%
D18*
%TO.C,U5*%
X119040487Y-103650000D03*
X119040487Y-104950000D03*
X120340487Y-103650000D03*
X120340487Y-104950000D03*
D19*
X117752987Y-103100000D03*
X117752987Y-103500000D03*
X117752987Y-103900000D03*
X117752987Y-104300000D03*
X117752987Y-104700000D03*
X117752987Y-105100000D03*
X117752987Y-105500000D03*
D20*
X118490487Y-106237500D03*
X118890487Y-106237500D03*
X119290487Y-106237500D03*
X119690487Y-106237500D03*
X120090487Y-106237500D03*
X120490487Y-106237500D03*
X120890487Y-106237500D03*
D19*
X121627987Y-105500000D03*
X121627987Y-105100000D03*
X121627987Y-104700000D03*
X121627987Y-104300000D03*
X121627987Y-103900000D03*
X121627987Y-103500000D03*
X121627987Y-103100000D03*
D20*
X120890487Y-102362500D03*
X120490487Y-102362500D03*
X120090487Y-102362500D03*
X119690487Y-102362500D03*
X119290487Y-102362500D03*
X118890487Y-102362500D03*
X118490487Y-102362500D03*
%TD*%
D21*
%TO.C,R17*%
X110902987Y-103662500D03*
X110902987Y-100737500D03*
%TD*%
D17*
%TO.C,C17*%
X71465487Y-82500000D03*
X73015487Y-82500000D03*
%TD*%
D22*
%TO.C,D5*%
X87600000Y-112100000D03*
X89800000Y-112100000D03*
%TD*%
D23*
%TO.C,C28*%
X130590487Y-93675000D03*
X130590487Y-90725000D03*
%TD*%
D24*
%TO.C,R18*%
X77652987Y-82500000D03*
X75827987Y-82500000D03*
%TD*%
D25*
%TO.C,Q4*%
X70827987Y-99050000D03*
X70827987Y-100950000D03*
X72702987Y-100000000D03*
%TD*%
D24*
%TO.C,R21*%
X126502987Y-105000000D03*
X124677987Y-105000000D03*
%TD*%
D16*
%TO.C,R24*%
X112890487Y-106687500D03*
X112890487Y-108512500D03*
%TD*%
D26*
%TO.C,Q10*%
X127415487Y-90375000D03*
X125515487Y-90375000D03*
X126465487Y-92250000D03*
%TD*%
%TO.C,Q9*%
X127465487Y-95000000D03*
X125565487Y-95000000D03*
X126515487Y-96875000D03*
%TD*%
D27*
%TO.C,C15*%
X81490487Y-80025000D03*
X81490487Y-82975000D03*
%TD*%
D28*
%TO.C,C11*%
X79040487Y-90575000D03*
X79040487Y-89025000D03*
%TD*%
D16*
%TO.C,R6*%
X75990487Y-98287500D03*
X75990487Y-100112500D03*
%TD*%
D28*
%TO.C,C21*%
X112802987Y-103875000D03*
X112802987Y-102325000D03*
%TD*%
D29*
%TO.C,L1*%
X122990487Y-93750000D03*
X116940487Y-93750000D03*
%TD*%
D30*
%TO.C,D6*%
X106702987Y-110600000D03*
X102702987Y-110600000D03*
%TD*%
D31*
%TO.C,U4*%
X85515487Y-86250000D03*
X87815487Y-86250000D03*
D32*
X87815487Y-79950000D03*
D31*
X90115487Y-86250000D03*
%TD*%
D24*
%TO.C,R19*%
X77652987Y-80412500D03*
X75827987Y-80412500D03*
%TD*%
D33*
%TO.C,C13*%
X92765487Y-80500000D03*
X95715487Y-80500000D03*
%TD*%
D24*
%TO.C,R22*%
X111365487Y-110600000D03*
X109540487Y-110600000D03*
%TD*%
D16*
%TO.C,R10*%
X84237500Y-106087500D03*
X84237500Y-107912500D03*
%TD*%
D34*
%TO.C,D3*%
X76300000Y-105000000D03*
X74100000Y-105000000D03*
%TD*%
D10*
%TO.C,F1*%
X110715487Y-81500000D03*
X104305487Y-81500000D03*
%TD*%
D35*
%TO.C,R26*%
X111322987Y-94155000D03*
X108397987Y-94155000D03*
%TD*%
D34*
%TO.C,D4*%
X76300000Y-107500000D03*
X74100000Y-107500000D03*
%TD*%
D14*
%TO.C,Q7*%
X102940487Y-107450000D03*
X102940487Y-105550000D03*
X101065487Y-106500000D03*
%TD*%
D22*
%TO.C,D2*%
X78200000Y-105000000D03*
X80400000Y-105000000D03*
%TD*%
D25*
%TO.C,Q8*%
X105365487Y-103550000D03*
X105365487Y-105450000D03*
X107240487Y-104500000D03*
%TD*%
D14*
%TO.C,Q6*%
X95637500Y-86150000D03*
X95637500Y-84250000D03*
X93762500Y-85200000D03*
%TD*%
D28*
%TO.C,C10*%
X66040487Y-89825000D03*
X66040487Y-88275000D03*
%TD*%
D24*
%TO.C,R7*%
X73002987Y-102900000D03*
X71177987Y-102900000D03*
%TD*%
D36*
%TO.C,R16*%
X71577987Y-80500000D03*
X73402987Y-80500000D03*
%TD*%
D24*
%TO.C,R20*%
X126502987Y-103000000D03*
X124677987Y-103000000D03*
%TD*%
D25*
%TO.C,Q5*%
X86962500Y-106050000D03*
X86962500Y-107950000D03*
X88837500Y-107000000D03*
%TD*%
M02*
