%TF.GenerationSoftware,KiCad,Pcbnew,8.0.1-8.0.1-1~ubuntu22.04.1*%
%TF.CreationDate,2024-04-07T11:52:22+03:00*%
%TF.ProjectId,main-module,6d61696e-2d6d-46f6-9475-6c652e6b6963,rev?*%
%TF.SameCoordinates,Original*%
%TF.FileFunction,Copper,L3,Inr*%
%TF.FilePolarity,Positive*%
%FSLAX46Y46*%
G04 Gerber Fmt 4.6, Leading zero omitted, Abs format (unit mm)*
G04 Created by KiCad (PCBNEW 8.0.1-8.0.1-1~ubuntu22.04.1) date 2024-04-07 11:52:22*
%MOMM*%
%LPD*%
G01*
G04 APERTURE LIST*
G04 Aperture macros list*
%AMRoundRect*
0 Rectangle with rounded corners*
0 $1 Rounding radius*
0 $2 $3 $4 $5 $6 $7 $8 $9 X,Y pos of 4 corners*
0 Add a 4 corners polygon primitive as box body*
4,1,4,$2,$3,$4,$5,$6,$7,$8,$9,$2,$3,0*
0 Add four circle primitives for the rounded corners*
1,1,$1+$1,$2,$3*
1,1,$1+$1,$4,$5*
1,1,$1+$1,$6,$7*
1,1,$1+$1,$8,$9*
0 Add four rect primitives between the rounded corners*
20,1,$1+$1,$2,$3,$4,$5,0*
20,1,$1+$1,$4,$5,$6,$7,0*
20,1,$1+$1,$6,$7,$8,$9,0*
20,1,$1+$1,$8,$9,$2,$3,0*%
G04 Aperture macros list end*
%TA.AperFunction,ComponentPad*%
%ADD10R,1.560000X1.560000*%
%TD*%
%TA.AperFunction,ComponentPad*%
%ADD11C,1.560000*%
%TD*%
%TA.AperFunction,ComponentPad*%
%ADD12RoundRect,0.250000X0.600000X0.750000X-0.600000X0.750000X-0.600000X-0.750000X0.600000X-0.750000X0*%
%TD*%
%TA.AperFunction,ComponentPad*%
%ADD13O,1.700000X2.000000*%
%TD*%
%TA.AperFunction,ComponentPad*%
%ADD14C,2.000000*%
%TD*%
%TA.AperFunction,ComponentPad*%
%ADD15RoundRect,0.250000X-0.750000X0.600000X-0.750000X-0.600000X0.750000X-0.600000X0.750000X0.600000X0*%
%TD*%
%TA.AperFunction,ComponentPad*%
%ADD16O,2.000000X1.700000*%
%TD*%
%TA.AperFunction,ComponentPad*%
%ADD17O,2.000000X1.200000*%
%TD*%
%TA.AperFunction,ComponentPad*%
%ADD18O,2.400000X1.000000*%
%TD*%
%TA.AperFunction,ComponentPad*%
%ADD19RoundRect,0.250000X-0.600000X-0.725000X0.600000X-0.725000X0.600000X0.725000X-0.600000X0.725000X0*%
%TD*%
%TA.AperFunction,ComponentPad*%
%ADD20O,1.700000X1.950000*%
%TD*%
%TA.AperFunction,ComponentPad*%
%ADD21R,1.600000X1.600000*%
%TD*%
%TA.AperFunction,ComponentPad*%
%ADD22C,1.600000*%
%TD*%
%TA.AperFunction,ComponentPad*%
%ADD23C,1.524000*%
%TD*%
%TA.AperFunction,HeatsinkPad*%
%ADD24C,0.600000*%
%TD*%
%TA.AperFunction,ComponentPad*%
%ADD25R,3.200000X3.200000*%
%TD*%
%TA.AperFunction,ComponentPad*%
%ADD26O,3.200000X3.200000*%
%TD*%
%TA.AperFunction,ViaPad*%
%ADD27C,0.800000*%
%TD*%
%TA.AperFunction,Conductor*%
%ADD28C,0.500000*%
%TD*%
%TA.AperFunction,Conductor*%
%ADD29C,1.000000*%
%TD*%
%TA.AperFunction,Conductor*%
%ADD30C,0.200000*%
%TD*%
G04 APERTURE END LIST*
D10*
%TO.N,GNDA*%
%TO.C,RV1*%
X121300000Y-81240000D03*
D11*
%TO.N,Net-(U4-Vin-)*%
X118800000Y-76240000D03*
%TO.N,Net-(D3-A)*%
X116300000Y-81240000D03*
%TD*%
D12*
%TO.N,GNDA*%
%TO.C,J4*%
X105750000Y-72525000D03*
D13*
%TO.N,Net-(J4-Pin_2)*%
X103250000Y-72525000D03*
%TD*%
D14*
%TO.N,/M_ENABLE#*%
%TO.C,U5*%
X77060000Y-96675000D03*
%TO.N,GNDA*%
X79600000Y-96675000D03*
X82140000Y-96675000D03*
%TO.N,unconnected-(U5-PDN{slash}UART1-Pad4)*%
X84680000Y-96675000D03*
%TO.N,unconnected-(U5-PDN{slash}UART2-Pad5)*%
X87220000Y-96675000D03*
%TO.N,unconnected-(U5-EXTERNAL_CLK-Pad6)*%
X89760000Y-96675000D03*
%TO.N,/M_STEP*%
X92300000Y-96675000D03*
%TO.N,/M_DIR*%
X94840000Y-96675000D03*
%TO.N,VD*%
X77060000Y-83975000D03*
%TO.N,GNDPWR*%
X79600000Y-83975000D03*
%TO.N,Net-(J5-Pin_1)*%
X82140000Y-83975000D03*
%TO.N,Net-(J5-Pin_2)*%
X84680000Y-83975000D03*
%TO.N,Net-(J5-Pin_3)*%
X87220000Y-83975000D03*
%TO.N,Net-(J5-Pin_4)*%
X89760000Y-83975000D03*
%TO.N,+3V3*%
X92300000Y-83975000D03*
%TO.N,GNDPWR*%
X94840000Y-83975000D03*
%TD*%
D15*
%TO.N,Net-(D6-A1)*%
%TO.C,J9*%
X60570000Y-91800000D03*
D16*
%TO.N,GNDPWR*%
X60570000Y-94300000D03*
%TD*%
D15*
%TO.N,GNDPWR*%
%TO.C,J1*%
X79060000Y-50250000D03*
D16*
%TO.N,/7.5V_BEFORE_FUSE*%
X79060000Y-52750000D03*
%TD*%
D14*
%TO.N,/FM_OUT_433*%
%TO.C,U7*%
X143495000Y-75100000D03*
%TO.N,+5V*%
X146035000Y-75100000D03*
%TO.N,GNDA*%
X148575000Y-75100000D03*
%TD*%
D17*
%TO.N,GNDA*%
%TO.C,J2*%
X147475000Y-60250000D03*
D18*
X151400000Y-60250000D03*
D17*
X147475000Y-49050000D03*
D18*
X151400000Y-49050000D03*
%TD*%
D19*
%TO.N,Net-(J5-Pin_1)*%
%TO.C,J5*%
X85500000Y-77800000D03*
D20*
%TO.N,Net-(J5-Pin_2)*%
X88000000Y-77800000D03*
%TO.N,Net-(J5-Pin_3)*%
X90500000Y-77800000D03*
%TO.N,Net-(J5-Pin_4)*%
X93000000Y-77800000D03*
%TD*%
D14*
%TO.N,GNDA*%
%TO.C,SW1*%
X102635000Y-56275000D03*
%TO.N,/ESP32_ENABLE*%
X102635000Y-49775000D03*
%TD*%
D21*
%TO.N,+3V3*%
%TO.C,C28*%
X96735000Y-49700000D03*
D22*
%TO.N,GNDA*%
X96735000Y-52200000D03*
%TD*%
D21*
%TO.N,/7.5V_BEFORE_FUSE*%
%TO.C,C4*%
X87735000Y-53400000D03*
D22*
%TO.N,GNDA*%
X87735000Y-49900000D03*
%TD*%
D14*
%TO.N,unconnected-(U6-ANT-Pad1)*%
%TO.C,U6*%
X150300000Y-88500000D03*
%TO.N,GNDA*%
X147760000Y-88500000D03*
%TO.N,+5V*%
X128800000Y-88500000D03*
X126260000Y-88500000D03*
%TO.N,/FM_IN_5V_433*%
X123720000Y-88500000D03*
%TO.N,GNDA*%
X121180000Y-88500000D03*
%TD*%
%TO.N,/CHARGER_START_BUTTON*%
%TO.C,SW5*%
X102635000Y-59750000D03*
%TO.N,GNDA*%
X102635000Y-66250000D03*
%TD*%
D23*
%TO.N,GNDA*%
%TO.C,TP1*%
X151500000Y-82000000D03*
%TD*%
D14*
%TO.N,unconnected-(U11-ANT-Pad1)*%
%TO.C,U11*%
X150235000Y-95900000D03*
%TO.N,GNDA*%
X147695000Y-95900000D03*
%TO.N,+5V*%
X128735000Y-95900000D03*
X126195000Y-95900000D03*
%TO.N,/FM_IN_5V_315*%
X123655000Y-95900000D03*
%TO.N,GNDA*%
X121115000Y-95900000D03*
%TD*%
D21*
%TO.N,Net-(D4-K)*%
%TO.C,C32*%
X69095000Y-84500000D03*
D22*
%TO.N,GNDPWR*%
X69095000Y-81000000D03*
%TD*%
D12*
%TO.N,GNDA*%
%TO.C,J7*%
X128550000Y-74800000D03*
D13*
%TO.N,/LIMIT_SWITCH*%
X126050000Y-74800000D03*
%TD*%
D24*
%TO.N,GNDA*%
%TO.C,U9*%
X115537500Y-54512500D03*
X115537500Y-56037500D03*
X116300000Y-53750000D03*
X116300000Y-55275000D03*
X116300000Y-56800000D03*
X117062500Y-54512500D03*
X117062500Y-56037500D03*
X117825000Y-53750000D03*
X117825000Y-55275000D03*
X117825000Y-56800000D03*
X118587500Y-54512500D03*
X118587500Y-56037500D03*
%TD*%
D25*
%TO.N,Net-(D4-K)*%
%TO.C,D4*%
X60895000Y-84505000D03*
D26*
%TO.N,Net-(D4-A)*%
X60895000Y-80695000D03*
%TD*%
D27*
%TO.N,/M_DIR*%
X108000000Y-83400000D03*
%TO.N,/M_ENABLE#*%
X112200000Y-83000000D03*
%TO.N,/M_STEP*%
X104800000Y-83200000D03*
%TO.N,/NOISE*%
X112000000Y-73200000D03*
%TO.N,GNDA*%
X110000000Y-72200000D03*
%TO.N,/NOISE*%
X109000000Y-55600000D03*
%TO.N,GNDA*%
X108800000Y-81400000D03*
%TO.N,Net-(U4-Vin+)*%
X105000000Y-76200000D03*
%TO.N,+5V*%
X101725000Y-77000000D03*
%TO.N,+3V3*%
X111500000Y-97000000D03*
%TO.N,+5V*%
X108500000Y-89000000D03*
%TO.N,GNDA*%
X111500000Y-89000000D03*
X104500000Y-89000000D03*
%TO.N,+3V3*%
X114500000Y-97000000D03*
%TO.N,+5V*%
X105000000Y-93500000D03*
%TO.N,GNDA*%
X141000000Y-60500000D03*
X71857500Y-93925000D03*
X135535000Y-54600000D03*
X112032500Y-65695000D03*
X73000000Y-48550000D03*
%TO.N,+3V3*%
X114100000Y-51000000D03*
X106700000Y-58400000D03*
%TO.N,GNDPWR*%
X61295000Y-61800000D03*
X61295000Y-63300000D03*
X61295000Y-60300000D03*
%TO.N,+5V*%
X66045000Y-95550000D03*
X147500000Y-67750000D03*
X71395000Y-50600000D03*
%TO.N,/+7.5V_CHARGER_AFTER_FUSE*%
X66495000Y-61200000D03*
X66495000Y-63000000D03*
X66495000Y-62100000D03*
%TO.N,/ESP32_ENABLE*%
X134400000Y-69400000D03*
%TO.N,Net-(D4-K)*%
X62895000Y-70800000D03*
%TO.N,/CHARGER_CURRENT_SENCE*%
X69795000Y-59335000D03*
X71045000Y-95550000D03*
%TO.N,/IC_CHARGER_ENABLE*%
X65100000Y-47535000D03*
X89400000Y-48500000D03*
%TO.N,/CHARGER_FEEDBACK*%
X65995000Y-70800000D03*
X57395000Y-66100000D03*
%TO.N,VBUS*%
X144935000Y-52200000D03*
X144835000Y-57100000D03*
X139935000Y-50000000D03*
%TO.N,/D+*%
X144035000Y-53300000D03*
X142235000Y-54800000D03*
%TO.N,/D-*%
X144035000Y-56000000D03*
X143135000Y-54200000D03*
%TO.N,/LIMIT_SWITCH*%
X109000000Y-58100000D03*
%TO.N,/VM_ENABLE*%
X97165000Y-64970000D03*
X91400000Y-70900000D03*
%TO.N,Net-(Q1-D)*%
X86857500Y-66612500D03*
%TO.N,Net-(Q3-B)*%
X138950000Y-63750000D03*
%TO.N,Net-(Q4-E)*%
X133450000Y-63750000D03*
%TO.N,/CHARGER_ENABLE*%
X62395000Y-58500000D03*
X57395000Y-58500000D03*
%TO.N,/FM_IN_433*%
X126500000Y-85000000D03*
X126492500Y-59365000D03*
%TO.N,/FM_IN_315*%
X126492500Y-54285000D03*
X126235000Y-92600000D03*
%TO.N,/TXD_3V3*%
X134479378Y-59169163D03*
X130700000Y-58000000D03*
%TO.N,/RXD_3V3*%
X135035000Y-60000000D03*
X129400000Y-57400000D03*
%TO.N,/FM_OUT_433*%
X126492500Y-50475000D03*
%TO.N,/M_DIR*%
X126492500Y-61905000D03*
%TO.N,/M_STEP*%
X126492500Y-60635000D03*
%TO.N,/M_ENABLE#*%
X123462500Y-65695000D03*
%TO.N,Net-(D6-A1)*%
X63900000Y-90200000D03*
%TD*%
D28*
%TO.N,+3V3*%
X92300000Y-83975000D02*
X92300000Y-87300000D01*
X92300000Y-87300000D02*
X100400000Y-95400000D01*
X100400000Y-95400000D02*
X112900000Y-95400000D01*
X112900000Y-95400000D02*
X114500000Y-97000000D01*
%TO.N,+5V*%
X101725000Y-77000000D02*
X101725000Y-78725000D01*
X101725000Y-78725000D02*
X108500000Y-85500000D01*
X108500000Y-85500000D02*
X108500000Y-89000000D01*
%TO.N,/NOISE*%
X109000000Y-55600000D02*
X107550000Y-57050000D01*
X107550000Y-57050000D02*
X107550000Y-66150000D01*
X112000000Y-70600000D02*
X112000000Y-73200000D01*
X107550000Y-66150000D02*
X112000000Y-70600000D01*
%TO.N,+3V3*%
X114100000Y-51000000D02*
X111400000Y-51000000D01*
X111400000Y-51000000D02*
X106700000Y-55700000D01*
X106700000Y-55700000D02*
X106700000Y-58400000D01*
D29*
%TO.N,+5V*%
X128750000Y-77750000D02*
X127450000Y-77750000D01*
X127450000Y-77750000D02*
X126600000Y-78600000D01*
X126600000Y-78600000D02*
X126600000Y-81150000D01*
X126600000Y-81150000D02*
X123150000Y-84600000D01*
X123150000Y-84600000D02*
X112900000Y-84600000D01*
X112900000Y-84600000D02*
X108500000Y-89000000D01*
X77347500Y-70152500D02*
X81695000Y-74500000D01*
X81695000Y-74500000D02*
X96000000Y-74500000D01*
X96000000Y-74500000D02*
X99000000Y-77500000D01*
X99000000Y-77500000D02*
X99000000Y-79500000D01*
X99000000Y-79500000D02*
X108500000Y-89000000D01*
X128750000Y-77750000D02*
X137000000Y-77750000D01*
D28*
X66045000Y-95550000D02*
X66045000Y-96845000D01*
X66700000Y-97500000D02*
X73700000Y-97500000D01*
X74600000Y-96600000D02*
X74600000Y-71900000D01*
D29*
X147000000Y-67750000D02*
X147500000Y-67750000D01*
D28*
X128800000Y-77800000D02*
X128750000Y-77750000D01*
D29*
X137000000Y-77750000D02*
X147000000Y-67750000D01*
D28*
X128800000Y-88500000D02*
X128800000Y-77800000D01*
X71395000Y-64200000D02*
X77347500Y-70152500D01*
X76347500Y-70152500D02*
X77347500Y-70152500D01*
X66045000Y-96845000D02*
X66700000Y-97500000D01*
X71395000Y-50600000D02*
X71395000Y-64200000D01*
X74600000Y-71900000D02*
X76347500Y-70152500D01*
X73700000Y-97500000D02*
X74600000Y-96600000D01*
X128735000Y-95900000D02*
X128735000Y-88565000D01*
D30*
%TO.N,Net-(D4-K)*%
X63295000Y-78700000D02*
X69095000Y-84500000D01*
X63295000Y-71200000D02*
X63295000Y-78700000D01*
X62895000Y-70800000D02*
X63295000Y-71200000D01*
%TO.N,/CHARGER_CURRENT_SENCE*%
X70500000Y-60040000D02*
X70500000Y-95005000D01*
X70500000Y-95005000D02*
X71045000Y-95550000D01*
X69795000Y-59335000D02*
X70500000Y-60040000D01*
D28*
%TO.N,/IC_CHARGER_ENABLE*%
X65100000Y-47535000D02*
X65235000Y-47400000D01*
X88300000Y-47400000D02*
X89400000Y-48500000D01*
X65235000Y-47400000D02*
X88300000Y-47400000D01*
%TO.N,/LIMIT_SWITCH*%
X125700000Y-74800000D02*
X109000000Y-58100000D01*
D30*
%TO.N,/TXD_3V3*%
X134479378Y-59169163D02*
X131869163Y-59169163D01*
X131869163Y-59169163D02*
X130700000Y-58000000D01*
%TO.N,/RXD_3V3*%
X131710050Y-60000000D02*
X135035000Y-60000000D01*
X129400000Y-57689950D02*
X131710050Y-60000000D01*
X129400000Y-57400000D02*
X129400000Y-57689950D01*
%TD*%
%TA.AperFunction,Conductor*%
%TO.N,+3V3*%
G36*
X93071120Y-84294242D02*
G01*
X93213061Y-84353190D01*
X93219388Y-84359528D01*
X93219379Y-84368482D01*
X93219374Y-84368495D01*
X92553000Y-85967800D01*
X92546655Y-85974119D01*
X92542200Y-85975000D01*
X92057800Y-85975000D01*
X92049527Y-85971573D01*
X92047000Y-85967800D01*
X91380625Y-84368495D01*
X91380606Y-84359540D01*
X91386923Y-84353196D01*
X92295514Y-83975862D01*
X92304464Y-83975854D01*
X93071120Y-84294242D01*
G37*
%TD.AperFunction*%
%TD*%
%TA.AperFunction,Conductor*%
%TO.N,+3V3*%
G36*
X114094942Y-50604435D02*
G01*
X114099835Y-50611935D01*
X114100035Y-50614062D01*
X114101000Y-51000000D01*
X114101000Y-51000058D01*
X114100035Y-51385937D01*
X114096587Y-51394202D01*
X114088306Y-51397608D01*
X114086179Y-51397408D01*
X113309544Y-51251789D01*
X113302044Y-51246896D01*
X113300000Y-51240289D01*
X113300000Y-50759710D01*
X113303427Y-50751437D01*
X113309542Y-50748210D01*
X114086180Y-50602591D01*
X114094942Y-50604435D01*
G37*
%TD.AperFunction*%
%TD*%
%TA.AperFunction,Conductor*%
%TO.N,+3V3*%
G36*
X106948563Y-57603427D02*
G01*
X106951790Y-57609544D01*
X107097408Y-58386178D01*
X107095564Y-58394941D01*
X107088064Y-58399834D01*
X107085937Y-58400034D01*
X106700028Y-58400999D01*
X106699970Y-58400999D01*
X106314062Y-58400035D01*
X106305797Y-58396587D01*
X106302391Y-58388306D01*
X106302591Y-58386179D01*
X106448210Y-57609542D01*
X106453103Y-57602044D01*
X106459710Y-57600000D01*
X106940290Y-57600000D01*
X106948563Y-57603427D01*
G37*
%TD.AperFunction*%
%TD*%
%TA.AperFunction,Conductor*%
%TO.N,+5V*%
G36*
X66430939Y-95549964D02*
G01*
X66439202Y-95553412D01*
X66442608Y-95561693D01*
X66442408Y-95563820D01*
X66296790Y-96340456D01*
X66291897Y-96347956D01*
X66285290Y-96350000D01*
X65804710Y-96350000D01*
X65796437Y-96346573D01*
X65793210Y-96340456D01*
X65647591Y-95563820D01*
X65649435Y-95555057D01*
X65656935Y-95550164D01*
X65659052Y-95549964D01*
X66045000Y-95549000D01*
X66430939Y-95549964D01*
G37*
%TD.AperFunction*%
%TD*%
%TA.AperFunction,Conductor*%
%TO.N,+5V*%
G36*
X129050473Y-86503427D02*
G01*
X129053000Y-86507200D01*
X129719374Y-88106504D01*
X129719393Y-88115459D01*
X129713074Y-88121804D01*
X129713061Y-88121809D01*
X128804487Y-88499136D01*
X128795533Y-88499145D01*
X128795513Y-88499136D01*
X127886938Y-88121809D01*
X127880611Y-88115471D01*
X127880620Y-88106517D01*
X127880625Y-88106504D01*
X128547000Y-86507200D01*
X128553345Y-86500881D01*
X128557800Y-86500000D01*
X129042200Y-86500000D01*
X129050473Y-86503427D01*
G37*
%TD.AperFunction*%
%TD*%
%TA.AperFunction,Conductor*%
%TO.N,+5V*%
G36*
X71780939Y-50599964D02*
G01*
X71789202Y-50603412D01*
X71792608Y-50611693D01*
X71792408Y-50613820D01*
X71646790Y-51390456D01*
X71641897Y-51397956D01*
X71635290Y-51400000D01*
X71154710Y-51400000D01*
X71146437Y-51396573D01*
X71143210Y-51390456D01*
X70997591Y-50613820D01*
X70999435Y-50605057D01*
X71006935Y-50600164D01*
X71009052Y-50599964D01*
X71395000Y-50599000D01*
X71780939Y-50599964D01*
G37*
%TD.AperFunction*%
%TD*%
%TA.AperFunction,Conductor*%
%TO.N,+5V*%
G36*
X128985473Y-93903427D02*
G01*
X128988000Y-93907200D01*
X129654374Y-95506504D01*
X129654393Y-95515459D01*
X129648074Y-95521804D01*
X129648061Y-95521809D01*
X128739487Y-95899136D01*
X128730533Y-95899145D01*
X128730513Y-95899136D01*
X127821938Y-95521809D01*
X127815611Y-95515471D01*
X127815620Y-95506517D01*
X127815625Y-95506504D01*
X128482000Y-93907200D01*
X128488345Y-93900881D01*
X128492800Y-93900000D01*
X128977200Y-93900000D01*
X128985473Y-93903427D01*
G37*
%TD.AperFunction*%
%TD*%
%TA.AperFunction,Conductor*%
%TO.N,+5V*%
G36*
X129712657Y-88878022D02*
G01*
X129718983Y-88884359D01*
X129718974Y-88893313D01*
X129718796Y-88893720D01*
X128988134Y-90480265D01*
X128981561Y-90486346D01*
X128977507Y-90487071D01*
X128493074Y-90487071D01*
X128484801Y-90483644D01*
X128482135Y-90479522D01*
X127880144Y-88893286D01*
X127880413Y-88884338D01*
X127886595Y-88878332D01*
X128795514Y-88500862D01*
X128804464Y-88500854D01*
X129712657Y-88878022D01*
G37*
%TD.AperFunction*%
%TD*%
%TA.AperFunction,Conductor*%
%TO.N,Net-(D4-K)*%
G36*
X67807150Y-83066392D02*
G01*
X69415268Y-83695656D01*
X69421724Y-83701862D01*
X69421901Y-83710815D01*
X69421819Y-83711018D01*
X69097562Y-84496214D01*
X69091237Y-84502553D01*
X69091214Y-84502562D01*
X68306018Y-84826819D01*
X68297063Y-84826810D01*
X68290738Y-84820471D01*
X68290656Y-84820268D01*
X67661392Y-83212150D01*
X67661569Y-83203197D01*
X67664012Y-83199617D01*
X67794615Y-83069014D01*
X67802887Y-83065588D01*
X67807150Y-83066392D01*
G37*
%TD.AperFunction*%
%TD*%
%TA.AperFunction,Conductor*%
%TO.N,Net-(D4-K)*%
G36*
X63285025Y-70799975D02*
G01*
X63293290Y-70803423D01*
X63296553Y-70809853D01*
X63392868Y-71420793D01*
X63390772Y-71429499D01*
X63383133Y-71434172D01*
X63381311Y-71434315D01*
X63198168Y-71434315D01*
X63192265Y-71432717D01*
X63186758Y-71429499D01*
X63085885Y-71370551D01*
X62750731Y-71174696D01*
X62745317Y-71167563D01*
X62745820Y-71160127D01*
X62892005Y-70806249D01*
X62898329Y-70799914D01*
X62902842Y-70799019D01*
X63285025Y-70799975D01*
G37*
%TD.AperFunction*%
%TD*%
%TA.AperFunction,Conductor*%
%TO.N,/CHARGER_CURRENT_SENCE*%
G36*
X70601840Y-94976374D02*
G01*
X71186296Y-95176417D01*
X71193012Y-95182338D01*
X71193576Y-95191275D01*
X71193320Y-95191953D01*
X71046858Y-95546500D01*
X71040532Y-95552838D01*
X71040496Y-95552853D01*
X70686579Y-95698492D01*
X70677625Y-95698471D01*
X70671307Y-95692124D01*
X70671185Y-95691816D01*
X70580856Y-95453302D01*
X70406000Y-94991588D01*
X70406275Y-94982638D01*
X70412798Y-94976503D01*
X70416942Y-94975745D01*
X70598052Y-94975745D01*
X70601840Y-94976374D01*
G37*
%TD.AperFunction*%
%TD*%
%TA.AperFunction,Conductor*%
%TO.N,/CHARGER_CURRENT_SENCE*%
G36*
X70162688Y-59186399D02*
G01*
X70169005Y-59192743D01*
X70428426Y-59822762D01*
X70428407Y-59831717D01*
X70425880Y-59835490D01*
X70295490Y-59965880D01*
X70287217Y-59969307D01*
X70282762Y-59968426D01*
X69652743Y-59709005D01*
X69646398Y-59702686D01*
X69646378Y-59693735D01*
X69792437Y-59338802D01*
X69798753Y-59332457D01*
X70153735Y-59186378D01*
X70162688Y-59186399D01*
G37*
%TD.AperFunction*%
%TD*%
%TA.AperFunction,Conductor*%
%TO.N,/IC_CHARGER_ENABLE*%
G36*
X89019104Y-47763021D02*
G01*
X89671237Y-48209216D01*
X89676130Y-48216716D01*
X89674286Y-48225479D01*
X89672924Y-48227124D01*
X89400749Y-48500665D01*
X89400707Y-48500707D01*
X89127124Y-48772924D01*
X89118843Y-48776330D01*
X89110578Y-48772882D01*
X89109216Y-48771237D01*
X88663021Y-48119104D01*
X88661177Y-48110341D01*
X88664402Y-48104226D01*
X89004225Y-47764403D01*
X89012497Y-47760977D01*
X89019104Y-47763021D01*
G37*
%TD.AperFunction*%
%TD*%
%TA.AperFunction,Conductor*%
%TO.N,/IC_CHARGER_ENABLE*%
G36*
X65111809Y-47135229D02*
G01*
X65861674Y-47149777D01*
X65869879Y-47153364D01*
X65873147Y-47161475D01*
X65873147Y-47642156D01*
X65869720Y-47650429D01*
X65865890Y-47652979D01*
X65263837Y-47900133D01*
X65254882Y-47900105D01*
X65248595Y-47893812D01*
X65099905Y-47537171D01*
X65099005Y-47532648D01*
X65099970Y-47146898D01*
X65103418Y-47138634D01*
X65111699Y-47135228D01*
X65111809Y-47135229D01*
G37*
%TD.AperFunction*%
%TD*%
%TA.AperFunction,Conductor*%
%TO.N,/LIMIT_SWITCH*%
G36*
X124847203Y-73588716D02*
G01*
X126142765Y-73814457D01*
X126150327Y-73819253D01*
X126152394Y-73827199D01*
X126051288Y-74795140D01*
X126047020Y-74803012D01*
X126046008Y-74803747D01*
X125299986Y-75286521D01*
X125291178Y-75288138D01*
X125283806Y-75283055D01*
X125283567Y-75282668D01*
X124492312Y-73949044D01*
X124491037Y-73940180D01*
X124494099Y-73934803D01*
X124836933Y-73591969D01*
X124845205Y-73588543D01*
X124847203Y-73588716D01*
G37*
%TD.AperFunction*%
%TD*%
%TA.AperFunction,Conductor*%
%TO.N,/LIMIT_SWITCH*%
G36*
X109289421Y-57827117D02*
G01*
X109290783Y-57828762D01*
X109736978Y-58480895D01*
X109738822Y-58489658D01*
X109735595Y-58495775D01*
X109395775Y-58835595D01*
X109387502Y-58839022D01*
X109380895Y-58836978D01*
X108728762Y-58390783D01*
X108723869Y-58383283D01*
X108725713Y-58374520D01*
X108727075Y-58372875D01*
X108999251Y-58099335D01*
X108999293Y-58099293D01*
X109272875Y-57827075D01*
X109281156Y-57823669D01*
X109289421Y-57827117D01*
G37*
%TD.AperFunction*%
%TD*%
%TA.AperFunction,Conductor*%
%TO.N,/TXD_3V3*%
G36*
X134330806Y-58810407D02*
G01*
X134478501Y-59164661D01*
X134478522Y-59173615D01*
X134478501Y-59173665D01*
X134330806Y-59527918D01*
X134324459Y-59534236D01*
X134315507Y-59534216D01*
X133686578Y-59272162D01*
X133680259Y-59265817D01*
X133679378Y-59261362D01*
X133679378Y-59076963D01*
X133682805Y-59068690D01*
X133686578Y-59066163D01*
X134315509Y-58804108D01*
X134324462Y-58804090D01*
X134330806Y-58810407D01*
G37*
%TD.AperFunction*%
%TD*%
%TA.AperFunction,Conductor*%
%TO.N,/TXD_3V3*%
G36*
X131067688Y-57851399D02*
G01*
X131074005Y-57857743D01*
X131333426Y-58487762D01*
X131333407Y-58496717D01*
X131330880Y-58500490D01*
X131200490Y-58630880D01*
X131192217Y-58634307D01*
X131187762Y-58633426D01*
X130557743Y-58374005D01*
X130551398Y-58367686D01*
X130551378Y-58358735D01*
X130697437Y-58003802D01*
X130703753Y-57997457D01*
X131058735Y-57851378D01*
X131067688Y-57851399D01*
G37*
%TD.AperFunction*%
%TD*%
%TA.AperFunction,Conductor*%
%TO.N,/RXD_3V3*%
G36*
X134886428Y-59641244D02*
G01*
X135034123Y-59995498D01*
X135034144Y-60004452D01*
X135034123Y-60004502D01*
X134886428Y-60358755D01*
X134880081Y-60365073D01*
X134871129Y-60365053D01*
X134242200Y-60102999D01*
X134235881Y-60096654D01*
X134235000Y-60092199D01*
X134235000Y-59907799D01*
X134238427Y-59899526D01*
X134242196Y-59897001D01*
X134559815Y-59764660D01*
X134562765Y-59763866D01*
X134636140Y-59754207D01*
X134731700Y-59714624D01*
X134782210Y-59693703D01*
X134782211Y-59693702D01*
X134782219Y-59693699D01*
X134842918Y-59647122D01*
X134845518Y-59645618D01*
X134871131Y-59634945D01*
X134880084Y-59634927D01*
X134886428Y-59641244D01*
G37*
%TD.AperFunction*%
%TD*%
%TA.AperFunction,Conductor*%
%TO.N,/RXD_3V3*%
G36*
X129789180Y-57399980D02*
G01*
X129797445Y-57403421D01*
X129800823Y-57410789D01*
X129844935Y-57988512D01*
X129842148Y-57997022D01*
X129841542Y-57997676D01*
X129711196Y-58128022D01*
X129702923Y-58131449D01*
X129695779Y-58129014D01*
X129127670Y-57690949D01*
X129123211Y-57683184D01*
X129125549Y-57674540D01*
X129126512Y-57673441D01*
X129395855Y-57402748D01*
X129404116Y-57399301D01*
X129789180Y-57399980D01*
G37*
%TD.AperFunction*%
%TD*%
M02*
