%TF.GenerationSoftware,KiCad,Pcbnew,8.0.1-8.0.1-1~ubuntu22.04.1*%
%TF.CreationDate,2024-04-07T11:52:22+03:00*%
%TF.ProjectId,main-module,6d61696e-2d6d-46f6-9475-6c652e6b6963,rev?*%
%TF.SameCoordinates,Original*%
%TF.FileFunction,Legend,Top*%
%TF.FilePolarity,Positive*%
%FSLAX46Y46*%
G04 Gerber Fmt 4.6, Leading zero omitted, Abs format (unit mm)*
G04 Created by KiCad (PCBNEW 8.0.1-8.0.1-1~ubuntu22.04.1) date 2024-04-07 11:52:22*
%MOMM*%
%LPD*%
G01*
G04 APERTURE LIST*
%ADD10C,0.150000*%
%ADD11C,0.120000*%
G04 APERTURE END LIST*
D10*
X122200000Y-85400000D02*
X123400000Y-84800000D01*
X121000000Y-85400000D02*
X122200000Y-85400000D01*
X119800000Y-85000000D02*
X121000000Y-85400000D01*
X122200000Y-83400000D02*
X123200000Y-82600000D01*
X107238095Y-75854819D02*
X107238095Y-76664342D01*
X107238095Y-76664342D02*
X107285714Y-76759580D01*
X107285714Y-76759580D02*
X107333333Y-76807200D01*
X107333333Y-76807200D02*
X107428571Y-76854819D01*
X107428571Y-76854819D02*
X107619047Y-76854819D01*
X107619047Y-76854819D02*
X107714285Y-76807200D01*
X107714285Y-76807200D02*
X107761904Y-76759580D01*
X107761904Y-76759580D02*
X107809523Y-76664342D01*
X107809523Y-76664342D02*
X107809523Y-75854819D01*
X108714285Y-76188152D02*
X108714285Y-76854819D01*
X108476190Y-75807200D02*
X108238095Y-76521485D01*
X108238095Y-76521485D02*
X108857142Y-76521485D01*
X115738095Y-70454819D02*
X116309523Y-70454819D01*
X116023809Y-71454819D02*
X116023809Y-70454819D01*
X116642857Y-71454819D02*
X116642857Y-70454819D01*
X116642857Y-70454819D02*
X117023809Y-70454819D01*
X117023809Y-70454819D02*
X117119047Y-70502438D01*
X117119047Y-70502438D02*
X117166666Y-70550057D01*
X117166666Y-70550057D02*
X117214285Y-70645295D01*
X117214285Y-70645295D02*
X117214285Y-70788152D01*
X117214285Y-70788152D02*
X117166666Y-70883390D01*
X117166666Y-70883390D02*
X117119047Y-70931009D01*
X117119047Y-70931009D02*
X117023809Y-70978628D01*
X117023809Y-70978628D02*
X116642857Y-70978628D01*
X118071428Y-70788152D02*
X118071428Y-71454819D01*
X117833333Y-70407200D02*
X117595238Y-71121485D01*
X117595238Y-71121485D02*
X118214285Y-71121485D01*
X116023810Y-72854819D02*
X116023810Y-71854819D01*
X116023810Y-71854819D02*
X116595238Y-72854819D01*
X116595238Y-72854819D02*
X116595238Y-71854819D01*
X117261905Y-71854819D02*
X117452381Y-71854819D01*
X117452381Y-71854819D02*
X117547619Y-71902438D01*
X117547619Y-71902438D02*
X117642857Y-71997676D01*
X117642857Y-71997676D02*
X117690476Y-72188152D01*
X117690476Y-72188152D02*
X117690476Y-72521485D01*
X117690476Y-72521485D02*
X117642857Y-72711961D01*
X117642857Y-72711961D02*
X117547619Y-72807200D01*
X117547619Y-72807200D02*
X117452381Y-72854819D01*
X117452381Y-72854819D02*
X117261905Y-72854819D01*
X117261905Y-72854819D02*
X117166667Y-72807200D01*
X117166667Y-72807200D02*
X117071429Y-72711961D01*
X117071429Y-72711961D02*
X117023810Y-72521485D01*
X117023810Y-72521485D02*
X117023810Y-72188152D01*
X117023810Y-72188152D02*
X117071429Y-71997676D01*
X117071429Y-71997676D02*
X117166667Y-71902438D01*
X117166667Y-71902438D02*
X117261905Y-71854819D01*
X118119048Y-72854819D02*
X118119048Y-71854819D01*
X118547619Y-72807200D02*
X118690476Y-72854819D01*
X118690476Y-72854819D02*
X118928571Y-72854819D01*
X118928571Y-72854819D02*
X119023809Y-72807200D01*
X119023809Y-72807200D02*
X119071428Y-72759580D01*
X119071428Y-72759580D02*
X119119047Y-72664342D01*
X119119047Y-72664342D02*
X119119047Y-72569104D01*
X119119047Y-72569104D02*
X119071428Y-72473866D01*
X119071428Y-72473866D02*
X119023809Y-72426247D01*
X119023809Y-72426247D02*
X118928571Y-72378628D01*
X118928571Y-72378628D02*
X118738095Y-72331009D01*
X118738095Y-72331009D02*
X118642857Y-72283390D01*
X118642857Y-72283390D02*
X118595238Y-72235771D01*
X118595238Y-72235771D02*
X118547619Y-72140533D01*
X118547619Y-72140533D02*
X118547619Y-72045295D01*
X118547619Y-72045295D02*
X118595238Y-71950057D01*
X118595238Y-71950057D02*
X118642857Y-71902438D01*
X118642857Y-71902438D02*
X118738095Y-71854819D01*
X118738095Y-71854819D02*
X118976190Y-71854819D01*
X118976190Y-71854819D02*
X119119047Y-71902438D01*
X119547619Y-72331009D02*
X119880952Y-72331009D01*
X120023809Y-72854819D02*
X119547619Y-72854819D01*
X119547619Y-72854819D02*
X119547619Y-71854819D01*
X119547619Y-71854819D02*
X120023809Y-71854819D01*
X110738095Y-79454819D02*
X111309523Y-79454819D01*
X111023809Y-80454819D02*
X111023809Y-79454819D01*
X111642857Y-80454819D02*
X111642857Y-79454819D01*
X111642857Y-79454819D02*
X112023809Y-79454819D01*
X112023809Y-79454819D02*
X112119047Y-79502438D01*
X112119047Y-79502438D02*
X112166666Y-79550057D01*
X112166666Y-79550057D02*
X112214285Y-79645295D01*
X112214285Y-79645295D02*
X112214285Y-79788152D01*
X112214285Y-79788152D02*
X112166666Y-79883390D01*
X112166666Y-79883390D02*
X112119047Y-79931009D01*
X112119047Y-79931009D02*
X112023809Y-79978628D01*
X112023809Y-79978628D02*
X111642857Y-79978628D01*
X112547619Y-79454819D02*
X113166666Y-79454819D01*
X113166666Y-79454819D02*
X112833333Y-79835771D01*
X112833333Y-79835771D02*
X112976190Y-79835771D01*
X112976190Y-79835771D02*
X113071428Y-79883390D01*
X113071428Y-79883390D02*
X113119047Y-79931009D01*
X113119047Y-79931009D02*
X113166666Y-80026247D01*
X113166666Y-80026247D02*
X113166666Y-80264342D01*
X113166666Y-80264342D02*
X113119047Y-80359580D01*
X113119047Y-80359580D02*
X113071428Y-80407200D01*
X113071428Y-80407200D02*
X112976190Y-80454819D01*
X112976190Y-80454819D02*
X112690476Y-80454819D01*
X112690476Y-80454819D02*
X112595238Y-80407200D01*
X112595238Y-80407200D02*
X112547619Y-80359580D01*
X110347619Y-81854819D02*
X110347619Y-80854819D01*
X110347619Y-80854819D02*
X110919047Y-81854819D01*
X110919047Y-81854819D02*
X110919047Y-80854819D01*
X111585714Y-80854819D02*
X111776190Y-80854819D01*
X111776190Y-80854819D02*
X111871428Y-80902438D01*
X111871428Y-80902438D02*
X111966666Y-80997676D01*
X111966666Y-80997676D02*
X112014285Y-81188152D01*
X112014285Y-81188152D02*
X112014285Y-81521485D01*
X112014285Y-81521485D02*
X111966666Y-81711961D01*
X111966666Y-81711961D02*
X111871428Y-81807200D01*
X111871428Y-81807200D02*
X111776190Y-81854819D01*
X111776190Y-81854819D02*
X111585714Y-81854819D01*
X111585714Y-81854819D02*
X111490476Y-81807200D01*
X111490476Y-81807200D02*
X111395238Y-81711961D01*
X111395238Y-81711961D02*
X111347619Y-81521485D01*
X111347619Y-81521485D02*
X111347619Y-81188152D01*
X111347619Y-81188152D02*
X111395238Y-80997676D01*
X111395238Y-80997676D02*
X111490476Y-80902438D01*
X111490476Y-80902438D02*
X111585714Y-80854819D01*
X112442857Y-81854819D02*
X112442857Y-80854819D01*
X112871428Y-81807200D02*
X113014285Y-81854819D01*
X113014285Y-81854819D02*
X113252380Y-81854819D01*
X113252380Y-81854819D02*
X113347618Y-81807200D01*
X113347618Y-81807200D02*
X113395237Y-81759580D01*
X113395237Y-81759580D02*
X113442856Y-81664342D01*
X113442856Y-81664342D02*
X113442856Y-81569104D01*
X113442856Y-81569104D02*
X113395237Y-81473866D01*
X113395237Y-81473866D02*
X113347618Y-81426247D01*
X113347618Y-81426247D02*
X113252380Y-81378628D01*
X113252380Y-81378628D02*
X113061904Y-81331009D01*
X113061904Y-81331009D02*
X112966666Y-81283390D01*
X112966666Y-81283390D02*
X112919047Y-81235771D01*
X112919047Y-81235771D02*
X112871428Y-81140533D01*
X112871428Y-81140533D02*
X112871428Y-81045295D01*
X112871428Y-81045295D02*
X112919047Y-80950057D01*
X112919047Y-80950057D02*
X112966666Y-80902438D01*
X112966666Y-80902438D02*
X113061904Y-80854819D01*
X113061904Y-80854819D02*
X113299999Y-80854819D01*
X113299999Y-80854819D02*
X113442856Y-80902438D01*
X113871428Y-81331009D02*
X114204761Y-81331009D01*
X114347618Y-81854819D02*
X113871428Y-81854819D01*
X113871428Y-81854819D02*
X113871428Y-80854819D01*
X113871428Y-80854819D02*
X114347618Y-80854819D01*
X115299999Y-81854819D02*
X114728571Y-81854819D01*
X115014285Y-81854819D02*
X115014285Y-80854819D01*
X115014285Y-80854819D02*
X114919047Y-80997676D01*
X114919047Y-80997676D02*
X114823809Y-81092914D01*
X114823809Y-81092914D02*
X114728571Y-81140533D01*
X97138095Y-78854819D02*
X97709523Y-78854819D01*
X97423809Y-79854819D02*
X97423809Y-78854819D01*
X98042857Y-79854819D02*
X98042857Y-78854819D01*
X98042857Y-78854819D02*
X98423809Y-78854819D01*
X98423809Y-78854819D02*
X98519047Y-78902438D01*
X98519047Y-78902438D02*
X98566666Y-78950057D01*
X98566666Y-78950057D02*
X98614285Y-79045295D01*
X98614285Y-79045295D02*
X98614285Y-79188152D01*
X98614285Y-79188152D02*
X98566666Y-79283390D01*
X98566666Y-79283390D02*
X98519047Y-79331009D01*
X98519047Y-79331009D02*
X98423809Y-79378628D01*
X98423809Y-79378628D02*
X98042857Y-79378628D01*
X98995238Y-78950057D02*
X99042857Y-78902438D01*
X99042857Y-78902438D02*
X99138095Y-78854819D01*
X99138095Y-78854819D02*
X99376190Y-78854819D01*
X99376190Y-78854819D02*
X99471428Y-78902438D01*
X99471428Y-78902438D02*
X99519047Y-78950057D01*
X99519047Y-78950057D02*
X99566666Y-79045295D01*
X99566666Y-79045295D02*
X99566666Y-79140533D01*
X99566666Y-79140533D02*
X99519047Y-79283390D01*
X99519047Y-79283390D02*
X98947619Y-79854819D01*
X98947619Y-79854819D02*
X99566666Y-79854819D01*
X97157143Y-81254819D02*
X97157143Y-80254819D01*
X97157143Y-80254819D02*
X97490476Y-80969104D01*
X97490476Y-80969104D02*
X97823809Y-80254819D01*
X97823809Y-80254819D02*
X97823809Y-81254819D01*
X98300000Y-81254819D02*
X98300000Y-80254819D01*
X98871428Y-81254819D02*
X98442857Y-80683390D01*
X98871428Y-80254819D02*
X98300000Y-80826247D01*
X99061905Y-81350057D02*
X99823809Y-81350057D01*
X100252381Y-80254819D02*
X100442857Y-80254819D01*
X100442857Y-80254819D02*
X100538095Y-80302438D01*
X100538095Y-80302438D02*
X100633333Y-80397676D01*
X100633333Y-80397676D02*
X100680952Y-80588152D01*
X100680952Y-80588152D02*
X100680952Y-80921485D01*
X100680952Y-80921485D02*
X100633333Y-81111961D01*
X100633333Y-81111961D02*
X100538095Y-81207200D01*
X100538095Y-81207200D02*
X100442857Y-81254819D01*
X100442857Y-81254819D02*
X100252381Y-81254819D01*
X100252381Y-81254819D02*
X100157143Y-81207200D01*
X100157143Y-81207200D02*
X100061905Y-81111961D01*
X100061905Y-81111961D02*
X100014286Y-80921485D01*
X100014286Y-80921485D02*
X100014286Y-80588152D01*
X100014286Y-80588152D02*
X100061905Y-80397676D01*
X100061905Y-80397676D02*
X100157143Y-80302438D01*
X100157143Y-80302438D02*
X100252381Y-80254819D01*
X101109524Y-80254819D02*
X101109524Y-81064342D01*
X101109524Y-81064342D02*
X101157143Y-81159580D01*
X101157143Y-81159580D02*
X101204762Y-81207200D01*
X101204762Y-81207200D02*
X101300000Y-81254819D01*
X101300000Y-81254819D02*
X101490476Y-81254819D01*
X101490476Y-81254819D02*
X101585714Y-81207200D01*
X101585714Y-81207200D02*
X101633333Y-81159580D01*
X101633333Y-81159580D02*
X101680952Y-81064342D01*
X101680952Y-81064342D02*
X101680952Y-80254819D01*
X102014286Y-80254819D02*
X102585714Y-80254819D01*
X102300000Y-81254819D02*
X102300000Y-80254819D01*
X120204761Y-74654819D02*
X119871428Y-74178628D01*
X119633333Y-74654819D02*
X119633333Y-73654819D01*
X119633333Y-73654819D02*
X120014285Y-73654819D01*
X120014285Y-73654819D02*
X120109523Y-73702438D01*
X120109523Y-73702438D02*
X120157142Y-73750057D01*
X120157142Y-73750057D02*
X120204761Y-73845295D01*
X120204761Y-73845295D02*
X120204761Y-73988152D01*
X120204761Y-73988152D02*
X120157142Y-74083390D01*
X120157142Y-74083390D02*
X120109523Y-74131009D01*
X120109523Y-74131009D02*
X120014285Y-74178628D01*
X120014285Y-74178628D02*
X119633333Y-74178628D01*
X120490476Y-73654819D02*
X120823809Y-74654819D01*
X120823809Y-74654819D02*
X121157142Y-73654819D01*
X122014285Y-74654819D02*
X121442857Y-74654819D01*
X121728571Y-74654819D02*
X121728571Y-73654819D01*
X121728571Y-73654819D02*
X121633333Y-73797676D01*
X121633333Y-73797676D02*
X121538095Y-73892914D01*
X121538095Y-73892914D02*
X121442857Y-73940533D01*
X110357142Y-71004819D02*
X110023809Y-70528628D01*
X109785714Y-71004819D02*
X109785714Y-70004819D01*
X109785714Y-70004819D02*
X110166666Y-70004819D01*
X110166666Y-70004819D02*
X110261904Y-70052438D01*
X110261904Y-70052438D02*
X110309523Y-70100057D01*
X110309523Y-70100057D02*
X110357142Y-70195295D01*
X110357142Y-70195295D02*
X110357142Y-70338152D01*
X110357142Y-70338152D02*
X110309523Y-70433390D01*
X110309523Y-70433390D02*
X110261904Y-70481009D01*
X110261904Y-70481009D02*
X110166666Y-70528628D01*
X110166666Y-70528628D02*
X109785714Y-70528628D01*
X111309523Y-71004819D02*
X110738095Y-71004819D01*
X111023809Y-71004819D02*
X111023809Y-70004819D01*
X111023809Y-70004819D02*
X110928571Y-70147676D01*
X110928571Y-70147676D02*
X110833333Y-70242914D01*
X110833333Y-70242914D02*
X110738095Y-70290533D01*
X112261904Y-71004819D02*
X111690476Y-71004819D01*
X111976190Y-71004819D02*
X111976190Y-70004819D01*
X111976190Y-70004819D02*
X111880952Y-70147676D01*
X111880952Y-70147676D02*
X111785714Y-70242914D01*
X111785714Y-70242914D02*
X111690476Y-70290533D01*
X101033333Y-78654819D02*
X100700000Y-78178628D01*
X100461905Y-78654819D02*
X100461905Y-77654819D01*
X100461905Y-77654819D02*
X100842857Y-77654819D01*
X100842857Y-77654819D02*
X100938095Y-77702438D01*
X100938095Y-77702438D02*
X100985714Y-77750057D01*
X100985714Y-77750057D02*
X101033333Y-77845295D01*
X101033333Y-77845295D02*
X101033333Y-77988152D01*
X101033333Y-77988152D02*
X100985714Y-78083390D01*
X100985714Y-78083390D02*
X100938095Y-78131009D01*
X100938095Y-78131009D02*
X100842857Y-78178628D01*
X100842857Y-78178628D02*
X100461905Y-78178628D01*
X101366667Y-77654819D02*
X102033333Y-77654819D01*
X102033333Y-77654819D02*
X101604762Y-78654819D01*
X98466666Y-66454819D02*
X98466666Y-67169104D01*
X98466666Y-67169104D02*
X98419047Y-67311961D01*
X98419047Y-67311961D02*
X98323809Y-67407200D01*
X98323809Y-67407200D02*
X98180952Y-67454819D01*
X98180952Y-67454819D02*
X98085714Y-67454819D01*
X99371428Y-66788152D02*
X99371428Y-67454819D01*
X99133333Y-66407200D02*
X98895238Y-67121485D01*
X98895238Y-67121485D02*
X99514285Y-67121485D01*
X95000000Y-68454819D02*
X95000000Y-67454819D01*
X95000000Y-67454819D02*
X95333333Y-68169104D01*
X95333333Y-68169104D02*
X95666666Y-67454819D01*
X95666666Y-67454819D02*
X95666666Y-68454819D01*
X96142857Y-68454819D02*
X96142857Y-67788152D01*
X96142857Y-67454819D02*
X96095238Y-67502438D01*
X96095238Y-67502438D02*
X96142857Y-67550057D01*
X96142857Y-67550057D02*
X96190476Y-67502438D01*
X96190476Y-67502438D02*
X96142857Y-67454819D01*
X96142857Y-67454819D02*
X96142857Y-67550057D01*
X97047618Y-68407200D02*
X96952380Y-68454819D01*
X96952380Y-68454819D02*
X96761904Y-68454819D01*
X96761904Y-68454819D02*
X96666666Y-68407200D01*
X96666666Y-68407200D02*
X96619047Y-68359580D01*
X96619047Y-68359580D02*
X96571428Y-68264342D01*
X96571428Y-68264342D02*
X96571428Y-67978628D01*
X96571428Y-67978628D02*
X96619047Y-67883390D01*
X96619047Y-67883390D02*
X96666666Y-67835771D01*
X96666666Y-67835771D02*
X96761904Y-67788152D01*
X96761904Y-67788152D02*
X96952380Y-67788152D01*
X96952380Y-67788152D02*
X97047618Y-67835771D01*
X97476190Y-68454819D02*
X97476190Y-67788152D01*
X97476190Y-67978628D02*
X97523809Y-67883390D01*
X97523809Y-67883390D02*
X97571428Y-67835771D01*
X97571428Y-67835771D02*
X97666666Y-67788152D01*
X97666666Y-67788152D02*
X97761904Y-67788152D01*
X98238095Y-68454819D02*
X98142857Y-68407200D01*
X98142857Y-68407200D02*
X98095238Y-68359580D01*
X98095238Y-68359580D02*
X98047619Y-68264342D01*
X98047619Y-68264342D02*
X98047619Y-67978628D01*
X98047619Y-67978628D02*
X98095238Y-67883390D01*
X98095238Y-67883390D02*
X98142857Y-67835771D01*
X98142857Y-67835771D02*
X98238095Y-67788152D01*
X98238095Y-67788152D02*
X98380952Y-67788152D01*
X98380952Y-67788152D02*
X98476190Y-67835771D01*
X98476190Y-67835771D02*
X98523809Y-67883390D01*
X98523809Y-67883390D02*
X98571428Y-67978628D01*
X98571428Y-67978628D02*
X98571428Y-68264342D01*
X98571428Y-68264342D02*
X98523809Y-68359580D01*
X98523809Y-68359580D02*
X98476190Y-68407200D01*
X98476190Y-68407200D02*
X98380952Y-68454819D01*
X98380952Y-68454819D02*
X98238095Y-68454819D01*
X99000000Y-67788152D02*
X99000000Y-68788152D01*
X99000000Y-67835771D02*
X99095238Y-67788152D01*
X99095238Y-67788152D02*
X99285714Y-67788152D01*
X99285714Y-67788152D02*
X99380952Y-67835771D01*
X99380952Y-67835771D02*
X99428571Y-67883390D01*
X99428571Y-67883390D02*
X99476190Y-67978628D01*
X99476190Y-67978628D02*
X99476190Y-68264342D01*
X99476190Y-68264342D02*
X99428571Y-68359580D01*
X99428571Y-68359580D02*
X99380952Y-68407200D01*
X99380952Y-68407200D02*
X99285714Y-68454819D01*
X99285714Y-68454819D02*
X99095238Y-68454819D01*
X99095238Y-68454819D02*
X99000000Y-68407200D01*
X99904762Y-68454819D02*
X99904762Y-67454819D01*
X100333333Y-68454819D02*
X100333333Y-67931009D01*
X100333333Y-67931009D02*
X100285714Y-67835771D01*
X100285714Y-67835771D02*
X100190476Y-67788152D01*
X100190476Y-67788152D02*
X100047619Y-67788152D01*
X100047619Y-67788152D02*
X99952381Y-67835771D01*
X99952381Y-67835771D02*
X99904762Y-67883390D01*
X100952381Y-68454819D02*
X100857143Y-68407200D01*
X100857143Y-68407200D02*
X100809524Y-68359580D01*
X100809524Y-68359580D02*
X100761905Y-68264342D01*
X100761905Y-68264342D02*
X100761905Y-67978628D01*
X100761905Y-67978628D02*
X100809524Y-67883390D01*
X100809524Y-67883390D02*
X100857143Y-67835771D01*
X100857143Y-67835771D02*
X100952381Y-67788152D01*
X100952381Y-67788152D02*
X101095238Y-67788152D01*
X101095238Y-67788152D02*
X101190476Y-67835771D01*
X101190476Y-67835771D02*
X101238095Y-67883390D01*
X101238095Y-67883390D02*
X101285714Y-67978628D01*
X101285714Y-67978628D02*
X101285714Y-68264342D01*
X101285714Y-68264342D02*
X101238095Y-68359580D01*
X101238095Y-68359580D02*
X101190476Y-68407200D01*
X101190476Y-68407200D02*
X101095238Y-68454819D01*
X101095238Y-68454819D02*
X100952381Y-68454819D01*
X101714286Y-67788152D02*
X101714286Y-68454819D01*
X101714286Y-67883390D02*
X101761905Y-67835771D01*
X101761905Y-67835771D02*
X101857143Y-67788152D01*
X101857143Y-67788152D02*
X102000000Y-67788152D01*
X102000000Y-67788152D02*
X102095238Y-67835771D01*
X102095238Y-67835771D02*
X102142857Y-67931009D01*
X102142857Y-67931009D02*
X102142857Y-68454819D01*
X103000000Y-68407200D02*
X102904762Y-68454819D01*
X102904762Y-68454819D02*
X102714286Y-68454819D01*
X102714286Y-68454819D02*
X102619048Y-68407200D01*
X102619048Y-68407200D02*
X102571429Y-68311961D01*
X102571429Y-68311961D02*
X102571429Y-67931009D01*
X102571429Y-67931009D02*
X102619048Y-67835771D01*
X102619048Y-67835771D02*
X102714286Y-67788152D01*
X102714286Y-67788152D02*
X102904762Y-67788152D01*
X102904762Y-67788152D02*
X103000000Y-67835771D01*
X103000000Y-67835771D02*
X103047619Y-67931009D01*
X103047619Y-67931009D02*
X103047619Y-68026247D01*
X103047619Y-68026247D02*
X102571429Y-68121485D01*
X99419048Y-72598866D02*
X100180953Y-72598866D01*
X99800000Y-72979819D02*
X99800000Y-72217914D01*
X113261905Y-79054819D02*
X113261905Y-78054819D01*
X113261905Y-78054819D02*
X113500000Y-78054819D01*
X113500000Y-78054819D02*
X113642857Y-78102438D01*
X113642857Y-78102438D02*
X113738095Y-78197676D01*
X113738095Y-78197676D02*
X113785714Y-78292914D01*
X113785714Y-78292914D02*
X113833333Y-78483390D01*
X113833333Y-78483390D02*
X113833333Y-78626247D01*
X113833333Y-78626247D02*
X113785714Y-78816723D01*
X113785714Y-78816723D02*
X113738095Y-78911961D01*
X113738095Y-78911961D02*
X113642857Y-79007200D01*
X113642857Y-79007200D02*
X113500000Y-79054819D01*
X113500000Y-79054819D02*
X113261905Y-79054819D01*
X114166667Y-78054819D02*
X114785714Y-78054819D01*
X114785714Y-78054819D02*
X114452381Y-78435771D01*
X114452381Y-78435771D02*
X114595238Y-78435771D01*
X114595238Y-78435771D02*
X114690476Y-78483390D01*
X114690476Y-78483390D02*
X114738095Y-78531009D01*
X114738095Y-78531009D02*
X114785714Y-78626247D01*
X114785714Y-78626247D02*
X114785714Y-78864342D01*
X114785714Y-78864342D02*
X114738095Y-78959580D01*
X114738095Y-78959580D02*
X114690476Y-79007200D01*
X114690476Y-79007200D02*
X114595238Y-79054819D01*
X114595238Y-79054819D02*
X114309524Y-79054819D01*
X114309524Y-79054819D02*
X114214286Y-79007200D01*
X114214286Y-79007200D02*
X114166667Y-78959580D01*
X110557142Y-75989580D02*
X110509523Y-76037200D01*
X110509523Y-76037200D02*
X110366666Y-76084819D01*
X110366666Y-76084819D02*
X110271428Y-76084819D01*
X110271428Y-76084819D02*
X110128571Y-76037200D01*
X110128571Y-76037200D02*
X110033333Y-75941961D01*
X110033333Y-75941961D02*
X109985714Y-75846723D01*
X109985714Y-75846723D02*
X109938095Y-75656247D01*
X109938095Y-75656247D02*
X109938095Y-75513390D01*
X109938095Y-75513390D02*
X109985714Y-75322914D01*
X109985714Y-75322914D02*
X110033333Y-75227676D01*
X110033333Y-75227676D02*
X110128571Y-75132438D01*
X110128571Y-75132438D02*
X110271428Y-75084819D01*
X110271428Y-75084819D02*
X110366666Y-75084819D01*
X110366666Y-75084819D02*
X110509523Y-75132438D01*
X110509523Y-75132438D02*
X110557142Y-75180057D01*
X111509523Y-76084819D02*
X110938095Y-76084819D01*
X111223809Y-76084819D02*
X111223809Y-75084819D01*
X111223809Y-75084819D02*
X111128571Y-75227676D01*
X111128571Y-75227676D02*
X111033333Y-75322914D01*
X111033333Y-75322914D02*
X110938095Y-75370533D01*
X112080952Y-75513390D02*
X111985714Y-75465771D01*
X111985714Y-75465771D02*
X111938095Y-75418152D01*
X111938095Y-75418152D02*
X111890476Y-75322914D01*
X111890476Y-75322914D02*
X111890476Y-75275295D01*
X111890476Y-75275295D02*
X111938095Y-75180057D01*
X111938095Y-75180057D02*
X111985714Y-75132438D01*
X111985714Y-75132438D02*
X112080952Y-75084819D01*
X112080952Y-75084819D02*
X112271428Y-75084819D01*
X112271428Y-75084819D02*
X112366666Y-75132438D01*
X112366666Y-75132438D02*
X112414285Y-75180057D01*
X112414285Y-75180057D02*
X112461904Y-75275295D01*
X112461904Y-75275295D02*
X112461904Y-75322914D01*
X112461904Y-75322914D02*
X112414285Y-75418152D01*
X112414285Y-75418152D02*
X112366666Y-75465771D01*
X112366666Y-75465771D02*
X112271428Y-75513390D01*
X112271428Y-75513390D02*
X112080952Y-75513390D01*
X112080952Y-75513390D02*
X111985714Y-75561009D01*
X111985714Y-75561009D02*
X111938095Y-75608628D01*
X111938095Y-75608628D02*
X111890476Y-75703866D01*
X111890476Y-75703866D02*
X111890476Y-75894342D01*
X111890476Y-75894342D02*
X111938095Y-75989580D01*
X111938095Y-75989580D02*
X111985714Y-76037200D01*
X111985714Y-76037200D02*
X112080952Y-76084819D01*
X112080952Y-76084819D02*
X112271428Y-76084819D01*
X112271428Y-76084819D02*
X112366666Y-76037200D01*
X112366666Y-76037200D02*
X112414285Y-75989580D01*
X112414285Y-75989580D02*
X112461904Y-75894342D01*
X112461904Y-75894342D02*
X112461904Y-75703866D01*
X112461904Y-75703866D02*
X112414285Y-75608628D01*
X112414285Y-75608628D02*
X112366666Y-75561009D01*
X112366666Y-75561009D02*
X112271428Y-75513390D01*
X101233333Y-76559580D02*
X101185714Y-76607200D01*
X101185714Y-76607200D02*
X101042857Y-76654819D01*
X101042857Y-76654819D02*
X100947619Y-76654819D01*
X100947619Y-76654819D02*
X100804762Y-76607200D01*
X100804762Y-76607200D02*
X100709524Y-76511961D01*
X100709524Y-76511961D02*
X100661905Y-76416723D01*
X100661905Y-76416723D02*
X100614286Y-76226247D01*
X100614286Y-76226247D02*
X100614286Y-76083390D01*
X100614286Y-76083390D02*
X100661905Y-75892914D01*
X100661905Y-75892914D02*
X100709524Y-75797676D01*
X100709524Y-75797676D02*
X100804762Y-75702438D01*
X100804762Y-75702438D02*
X100947619Y-75654819D01*
X100947619Y-75654819D02*
X101042857Y-75654819D01*
X101042857Y-75654819D02*
X101185714Y-75702438D01*
X101185714Y-75702438D02*
X101233333Y-75750057D01*
X101804762Y-76083390D02*
X101709524Y-76035771D01*
X101709524Y-76035771D02*
X101661905Y-75988152D01*
X101661905Y-75988152D02*
X101614286Y-75892914D01*
X101614286Y-75892914D02*
X101614286Y-75845295D01*
X101614286Y-75845295D02*
X101661905Y-75750057D01*
X101661905Y-75750057D02*
X101709524Y-75702438D01*
X101709524Y-75702438D02*
X101804762Y-75654819D01*
X101804762Y-75654819D02*
X101995238Y-75654819D01*
X101995238Y-75654819D02*
X102090476Y-75702438D01*
X102090476Y-75702438D02*
X102138095Y-75750057D01*
X102138095Y-75750057D02*
X102185714Y-75845295D01*
X102185714Y-75845295D02*
X102185714Y-75892914D01*
X102185714Y-75892914D02*
X102138095Y-75988152D01*
X102138095Y-75988152D02*
X102090476Y-76035771D01*
X102090476Y-76035771D02*
X101995238Y-76083390D01*
X101995238Y-76083390D02*
X101804762Y-76083390D01*
X101804762Y-76083390D02*
X101709524Y-76131009D01*
X101709524Y-76131009D02*
X101661905Y-76178628D01*
X101661905Y-76178628D02*
X101614286Y-76273866D01*
X101614286Y-76273866D02*
X101614286Y-76464342D01*
X101614286Y-76464342D02*
X101661905Y-76559580D01*
X101661905Y-76559580D02*
X101709524Y-76607200D01*
X101709524Y-76607200D02*
X101804762Y-76654819D01*
X101804762Y-76654819D02*
X101995238Y-76654819D01*
X101995238Y-76654819D02*
X102090476Y-76607200D01*
X102090476Y-76607200D02*
X102138095Y-76559580D01*
X102138095Y-76559580D02*
X102185714Y-76464342D01*
X102185714Y-76464342D02*
X102185714Y-76273866D01*
X102185714Y-76273866D02*
X102138095Y-76178628D01*
X102138095Y-76178628D02*
X102090476Y-76131009D01*
X102090476Y-76131009D02*
X101995238Y-76083390D01*
X104357142Y-82159580D02*
X104309523Y-82207200D01*
X104309523Y-82207200D02*
X104166666Y-82254819D01*
X104166666Y-82254819D02*
X104071428Y-82254819D01*
X104071428Y-82254819D02*
X103928571Y-82207200D01*
X103928571Y-82207200D02*
X103833333Y-82111961D01*
X103833333Y-82111961D02*
X103785714Y-82016723D01*
X103785714Y-82016723D02*
X103738095Y-81826247D01*
X103738095Y-81826247D02*
X103738095Y-81683390D01*
X103738095Y-81683390D02*
X103785714Y-81492914D01*
X103785714Y-81492914D02*
X103833333Y-81397676D01*
X103833333Y-81397676D02*
X103928571Y-81302438D01*
X103928571Y-81302438D02*
X104071428Y-81254819D01*
X104071428Y-81254819D02*
X104166666Y-81254819D01*
X104166666Y-81254819D02*
X104309523Y-81302438D01*
X104309523Y-81302438D02*
X104357142Y-81350057D01*
X105309523Y-82254819D02*
X104738095Y-82254819D01*
X105023809Y-82254819D02*
X105023809Y-81254819D01*
X105023809Y-81254819D02*
X104928571Y-81397676D01*
X104928571Y-81397676D02*
X104833333Y-81492914D01*
X104833333Y-81492914D02*
X104738095Y-81540533D01*
X105642857Y-81254819D02*
X106261904Y-81254819D01*
X106261904Y-81254819D02*
X105928571Y-81635771D01*
X105928571Y-81635771D02*
X106071428Y-81635771D01*
X106071428Y-81635771D02*
X106166666Y-81683390D01*
X106166666Y-81683390D02*
X106214285Y-81731009D01*
X106214285Y-81731009D02*
X106261904Y-81826247D01*
X106261904Y-81826247D02*
X106261904Y-82064342D01*
X106261904Y-82064342D02*
X106214285Y-82159580D01*
X106214285Y-82159580D02*
X106166666Y-82207200D01*
X106166666Y-82207200D02*
X106071428Y-82254819D01*
X106071428Y-82254819D02*
X105785714Y-82254819D01*
X105785714Y-82254819D02*
X105690476Y-82207200D01*
X105690476Y-82207200D02*
X105642857Y-82159580D01*
X128968333Y-48754819D02*
X128635000Y-48278628D01*
X128396905Y-48754819D02*
X128396905Y-47754819D01*
X128396905Y-47754819D02*
X128777857Y-47754819D01*
X128777857Y-47754819D02*
X128873095Y-47802438D01*
X128873095Y-47802438D02*
X128920714Y-47850057D01*
X128920714Y-47850057D02*
X128968333Y-47945295D01*
X128968333Y-47945295D02*
X128968333Y-48088152D01*
X128968333Y-48088152D02*
X128920714Y-48183390D01*
X128920714Y-48183390D02*
X128873095Y-48231009D01*
X128873095Y-48231009D02*
X128777857Y-48278628D01*
X128777857Y-48278628D02*
X128396905Y-48278628D01*
X129873095Y-47754819D02*
X129396905Y-47754819D01*
X129396905Y-47754819D02*
X129349286Y-48231009D01*
X129349286Y-48231009D02*
X129396905Y-48183390D01*
X129396905Y-48183390D02*
X129492143Y-48135771D01*
X129492143Y-48135771D02*
X129730238Y-48135771D01*
X129730238Y-48135771D02*
X129825476Y-48183390D01*
X129825476Y-48183390D02*
X129873095Y-48231009D01*
X129873095Y-48231009D02*
X129920714Y-48326247D01*
X129920714Y-48326247D02*
X129920714Y-48564342D01*
X129920714Y-48564342D02*
X129873095Y-48659580D01*
X129873095Y-48659580D02*
X129825476Y-48707200D01*
X129825476Y-48707200D02*
X129730238Y-48754819D01*
X129730238Y-48754819D02*
X129492143Y-48754819D01*
X129492143Y-48754819D02*
X129396905Y-48707200D01*
X129396905Y-48707200D02*
X129349286Y-48659580D01*
X83733095Y-89779819D02*
X83733095Y-90589342D01*
X83733095Y-90589342D02*
X83780714Y-90684580D01*
X83780714Y-90684580D02*
X83828333Y-90732200D01*
X83828333Y-90732200D02*
X83923571Y-90779819D01*
X83923571Y-90779819D02*
X84114047Y-90779819D01*
X84114047Y-90779819D02*
X84209285Y-90732200D01*
X84209285Y-90732200D02*
X84256904Y-90684580D01*
X84256904Y-90684580D02*
X84304523Y-90589342D01*
X84304523Y-90589342D02*
X84304523Y-89779819D01*
X85256904Y-89779819D02*
X84780714Y-89779819D01*
X84780714Y-89779819D02*
X84733095Y-90256009D01*
X84733095Y-90256009D02*
X84780714Y-90208390D01*
X84780714Y-90208390D02*
X84875952Y-90160771D01*
X84875952Y-90160771D02*
X85114047Y-90160771D01*
X85114047Y-90160771D02*
X85209285Y-90208390D01*
X85209285Y-90208390D02*
X85256904Y-90256009D01*
X85256904Y-90256009D02*
X85304523Y-90351247D01*
X85304523Y-90351247D02*
X85304523Y-90589342D01*
X85304523Y-90589342D02*
X85256904Y-90684580D01*
X85256904Y-90684580D02*
X85209285Y-90732200D01*
X85209285Y-90732200D02*
X85114047Y-90779819D01*
X85114047Y-90779819D02*
X84875952Y-90779819D01*
X84875952Y-90779819D02*
X84780714Y-90732200D01*
X84780714Y-90732200D02*
X84733095Y-90684580D01*
X71952142Y-98654819D02*
X71618809Y-98178628D01*
X71380714Y-98654819D02*
X71380714Y-97654819D01*
X71380714Y-97654819D02*
X71761666Y-97654819D01*
X71761666Y-97654819D02*
X71856904Y-97702438D01*
X71856904Y-97702438D02*
X71904523Y-97750057D01*
X71904523Y-97750057D02*
X71952142Y-97845295D01*
X71952142Y-97845295D02*
X71952142Y-97988152D01*
X71952142Y-97988152D02*
X71904523Y-98083390D01*
X71904523Y-98083390D02*
X71856904Y-98131009D01*
X71856904Y-98131009D02*
X71761666Y-98178628D01*
X71761666Y-98178628D02*
X71380714Y-98178628D01*
X72333095Y-97750057D02*
X72380714Y-97702438D01*
X72380714Y-97702438D02*
X72475952Y-97654819D01*
X72475952Y-97654819D02*
X72714047Y-97654819D01*
X72714047Y-97654819D02*
X72809285Y-97702438D01*
X72809285Y-97702438D02*
X72856904Y-97750057D01*
X72856904Y-97750057D02*
X72904523Y-97845295D01*
X72904523Y-97845295D02*
X72904523Y-97940533D01*
X72904523Y-97940533D02*
X72856904Y-98083390D01*
X72856904Y-98083390D02*
X72285476Y-98654819D01*
X72285476Y-98654819D02*
X72904523Y-98654819D01*
X73761666Y-97654819D02*
X73571190Y-97654819D01*
X73571190Y-97654819D02*
X73475952Y-97702438D01*
X73475952Y-97702438D02*
X73428333Y-97750057D01*
X73428333Y-97750057D02*
X73333095Y-97892914D01*
X73333095Y-97892914D02*
X73285476Y-98083390D01*
X73285476Y-98083390D02*
X73285476Y-98464342D01*
X73285476Y-98464342D02*
X73333095Y-98559580D01*
X73333095Y-98559580D02*
X73380714Y-98607200D01*
X73380714Y-98607200D02*
X73475952Y-98654819D01*
X73475952Y-98654819D02*
X73666428Y-98654819D01*
X73666428Y-98654819D02*
X73761666Y-98607200D01*
X73761666Y-98607200D02*
X73809285Y-98559580D01*
X73809285Y-98559580D02*
X73856904Y-98464342D01*
X73856904Y-98464342D02*
X73856904Y-98226247D01*
X73856904Y-98226247D02*
X73809285Y-98131009D01*
X73809285Y-98131009D02*
X73761666Y-98083390D01*
X73761666Y-98083390D02*
X73666428Y-98035771D01*
X73666428Y-98035771D02*
X73475952Y-98035771D01*
X73475952Y-98035771D02*
X73380714Y-98083390D01*
X73380714Y-98083390D02*
X73333095Y-98131009D01*
X73333095Y-98131009D02*
X73285476Y-98226247D01*
X89461905Y-66854819D02*
X90033333Y-66854819D01*
X89747619Y-67854819D02*
X89747619Y-66854819D01*
X90366667Y-67854819D02*
X90366667Y-66854819D01*
X90366667Y-66854819D02*
X90747619Y-66854819D01*
X90747619Y-66854819D02*
X90842857Y-66902438D01*
X90842857Y-66902438D02*
X90890476Y-66950057D01*
X90890476Y-66950057D02*
X90938095Y-67045295D01*
X90938095Y-67045295D02*
X90938095Y-67188152D01*
X90938095Y-67188152D02*
X90890476Y-67283390D01*
X90890476Y-67283390D02*
X90842857Y-67331009D01*
X90842857Y-67331009D02*
X90747619Y-67378628D01*
X90747619Y-67378628D02*
X90366667Y-67378628D01*
X91890476Y-67854819D02*
X91319048Y-67854819D01*
X91604762Y-67854819D02*
X91604762Y-66854819D01*
X91604762Y-66854819D02*
X91509524Y-66997676D01*
X91509524Y-66997676D02*
X91414286Y-67092914D01*
X91414286Y-67092914D02*
X91319048Y-67140533D01*
X92223810Y-66854819D02*
X92842857Y-66854819D01*
X92842857Y-66854819D02*
X92509524Y-67235771D01*
X92509524Y-67235771D02*
X92652381Y-67235771D01*
X92652381Y-67235771D02*
X92747619Y-67283390D01*
X92747619Y-67283390D02*
X92795238Y-67331009D01*
X92795238Y-67331009D02*
X92842857Y-67426247D01*
X92842857Y-67426247D02*
X92842857Y-67664342D01*
X92842857Y-67664342D02*
X92795238Y-67759580D01*
X92795238Y-67759580D02*
X92747619Y-67807200D01*
X92747619Y-67807200D02*
X92652381Y-67854819D01*
X92652381Y-67854819D02*
X92366667Y-67854819D01*
X92366667Y-67854819D02*
X92271429Y-67807200D01*
X92271429Y-67807200D02*
X92223810Y-67759580D01*
X89138095Y-68452819D02*
X89471428Y-69452819D01*
X89471428Y-69452819D02*
X89804761Y-68452819D01*
X90138095Y-69452819D02*
X90138095Y-68452819D01*
X90138095Y-68452819D02*
X90471428Y-69167104D01*
X90471428Y-69167104D02*
X90804761Y-68452819D01*
X90804761Y-68452819D02*
X90804761Y-69452819D01*
X91042857Y-69548057D02*
X91804761Y-69548057D01*
X92042857Y-68929009D02*
X92376190Y-68929009D01*
X92519047Y-69452819D02*
X92042857Y-69452819D01*
X92042857Y-69452819D02*
X92042857Y-68452819D01*
X92042857Y-68452819D02*
X92519047Y-68452819D01*
X92947619Y-69452819D02*
X92947619Y-68452819D01*
X92947619Y-68452819D02*
X93519047Y-69452819D01*
X93519047Y-69452819D02*
X93519047Y-68452819D01*
X138161905Y-59354819D02*
X138161905Y-58354819D01*
X138161905Y-58354819D02*
X138400000Y-58354819D01*
X138400000Y-58354819D02*
X138542857Y-58402438D01*
X138542857Y-58402438D02*
X138638095Y-58497676D01*
X138638095Y-58497676D02*
X138685714Y-58592914D01*
X138685714Y-58592914D02*
X138733333Y-58783390D01*
X138733333Y-58783390D02*
X138733333Y-58926247D01*
X138733333Y-58926247D02*
X138685714Y-59116723D01*
X138685714Y-59116723D02*
X138638095Y-59211961D01*
X138638095Y-59211961D02*
X138542857Y-59307200D01*
X138542857Y-59307200D02*
X138400000Y-59354819D01*
X138400000Y-59354819D02*
X138161905Y-59354819D01*
X139685714Y-59354819D02*
X139114286Y-59354819D01*
X139400000Y-59354819D02*
X139400000Y-58354819D01*
X139400000Y-58354819D02*
X139304762Y-58497676D01*
X139304762Y-58497676D02*
X139209524Y-58592914D01*
X139209524Y-58592914D02*
X139114286Y-58640533D01*
X73528333Y-72054819D02*
X73052143Y-72054819D01*
X73052143Y-72054819D02*
X73052143Y-71054819D01*
X74385476Y-72054819D02*
X73814048Y-72054819D01*
X74099762Y-72054819D02*
X74099762Y-71054819D01*
X74099762Y-71054819D02*
X74004524Y-71197676D01*
X74004524Y-71197676D02*
X73909286Y-71292914D01*
X73909286Y-71292914D02*
X73814048Y-71340533D01*
X56549819Y-62938094D02*
X56549819Y-62366666D01*
X57549819Y-62652380D02*
X56549819Y-62652380D01*
X57549819Y-62033332D02*
X56549819Y-62033332D01*
X56549819Y-62033332D02*
X56549819Y-61652380D01*
X56549819Y-61652380D02*
X56597438Y-61557142D01*
X56597438Y-61557142D02*
X56645057Y-61509523D01*
X56645057Y-61509523D02*
X56740295Y-61461904D01*
X56740295Y-61461904D02*
X56883152Y-61461904D01*
X56883152Y-61461904D02*
X56978390Y-61509523D01*
X56978390Y-61509523D02*
X57026009Y-61557142D01*
X57026009Y-61557142D02*
X57073628Y-61652380D01*
X57073628Y-61652380D02*
X57073628Y-62033332D01*
X57549819Y-60509523D02*
X57549819Y-61080951D01*
X57549819Y-60795237D02*
X56549819Y-60795237D01*
X56549819Y-60795237D02*
X56692676Y-60890475D01*
X56692676Y-60890475D02*
X56787914Y-60985713D01*
X56787914Y-60985713D02*
X56835533Y-61080951D01*
X56883152Y-59652380D02*
X57549819Y-59652380D01*
X56502200Y-59890475D02*
X57216485Y-60128570D01*
X57216485Y-60128570D02*
X57216485Y-59509523D01*
X58754580Y-63623809D02*
X58802200Y-63671428D01*
X58802200Y-63671428D02*
X58849819Y-63814285D01*
X58849819Y-63814285D02*
X58849819Y-63909523D01*
X58849819Y-63909523D02*
X58802200Y-64052380D01*
X58802200Y-64052380D02*
X58706961Y-64147618D01*
X58706961Y-64147618D02*
X58611723Y-64195237D01*
X58611723Y-64195237D02*
X58421247Y-64242856D01*
X58421247Y-64242856D02*
X58278390Y-64242856D01*
X58278390Y-64242856D02*
X58087914Y-64195237D01*
X58087914Y-64195237D02*
X57992676Y-64147618D01*
X57992676Y-64147618D02*
X57897438Y-64052380D01*
X57897438Y-64052380D02*
X57849819Y-63909523D01*
X57849819Y-63909523D02*
X57849819Y-63814285D01*
X57849819Y-63814285D02*
X57897438Y-63671428D01*
X57897438Y-63671428D02*
X57945057Y-63623809D01*
X58849819Y-63195237D02*
X57849819Y-63195237D01*
X58326009Y-63195237D02*
X58326009Y-62623809D01*
X58849819Y-62623809D02*
X57849819Y-62623809D01*
X58945057Y-62385714D02*
X58945057Y-61623809D01*
X58326009Y-61052380D02*
X58326009Y-61385713D01*
X58849819Y-61385713D02*
X57849819Y-61385713D01*
X57849819Y-61385713D02*
X57849819Y-60909523D01*
X58326009Y-60195237D02*
X58373628Y-60052380D01*
X58373628Y-60052380D02*
X58421247Y-60004761D01*
X58421247Y-60004761D02*
X58516485Y-59957142D01*
X58516485Y-59957142D02*
X58659342Y-59957142D01*
X58659342Y-59957142D02*
X58754580Y-60004761D01*
X58754580Y-60004761D02*
X58802200Y-60052380D01*
X58802200Y-60052380D02*
X58849819Y-60147618D01*
X58849819Y-60147618D02*
X58849819Y-60528570D01*
X58849819Y-60528570D02*
X57849819Y-60528570D01*
X57849819Y-60528570D02*
X57849819Y-60195237D01*
X57849819Y-60195237D02*
X57897438Y-60099999D01*
X57897438Y-60099999D02*
X57945057Y-60052380D01*
X57945057Y-60052380D02*
X58040295Y-60004761D01*
X58040295Y-60004761D02*
X58135533Y-60004761D01*
X58135533Y-60004761D02*
X58230771Y-60052380D01*
X58230771Y-60052380D02*
X58278390Y-60099999D01*
X58278390Y-60099999D02*
X58326009Y-60195237D01*
X58326009Y-60195237D02*
X58326009Y-60528570D01*
X96638095Y-93554819D02*
X96638095Y-94364342D01*
X96638095Y-94364342D02*
X96685714Y-94459580D01*
X96685714Y-94459580D02*
X96733333Y-94507200D01*
X96733333Y-94507200D02*
X96828571Y-94554819D01*
X96828571Y-94554819D02*
X97019047Y-94554819D01*
X97019047Y-94554819D02*
X97114285Y-94507200D01*
X97114285Y-94507200D02*
X97161904Y-94459580D01*
X97161904Y-94459580D02*
X97209523Y-94364342D01*
X97209523Y-94364342D02*
X97209523Y-93554819D01*
X97638095Y-93650057D02*
X97685714Y-93602438D01*
X97685714Y-93602438D02*
X97780952Y-93554819D01*
X97780952Y-93554819D02*
X98019047Y-93554819D01*
X98019047Y-93554819D02*
X98114285Y-93602438D01*
X98114285Y-93602438D02*
X98161904Y-93650057D01*
X98161904Y-93650057D02*
X98209523Y-93745295D01*
X98209523Y-93745295D02*
X98209523Y-93840533D01*
X98209523Y-93840533D02*
X98161904Y-93983390D01*
X98161904Y-93983390D02*
X97590476Y-94554819D01*
X97590476Y-94554819D02*
X98209523Y-94554819D01*
X83715833Y-65179819D02*
X83382500Y-64703628D01*
X83144405Y-65179819D02*
X83144405Y-64179819D01*
X83144405Y-64179819D02*
X83525357Y-64179819D01*
X83525357Y-64179819D02*
X83620595Y-64227438D01*
X83620595Y-64227438D02*
X83668214Y-64275057D01*
X83668214Y-64275057D02*
X83715833Y-64370295D01*
X83715833Y-64370295D02*
X83715833Y-64513152D01*
X83715833Y-64513152D02*
X83668214Y-64608390D01*
X83668214Y-64608390D02*
X83620595Y-64656009D01*
X83620595Y-64656009D02*
X83525357Y-64703628D01*
X83525357Y-64703628D02*
X83144405Y-64703628D01*
X84572976Y-64513152D02*
X84572976Y-65179819D01*
X84334881Y-64132200D02*
X84096786Y-64846485D01*
X84096786Y-64846485D02*
X84715833Y-64846485D01*
X63961666Y-92054819D02*
X63961666Y-92769104D01*
X63961666Y-92769104D02*
X63914047Y-92911961D01*
X63914047Y-92911961D02*
X63818809Y-93007200D01*
X63818809Y-93007200D02*
X63675952Y-93054819D01*
X63675952Y-93054819D02*
X63580714Y-93054819D01*
X64485476Y-93054819D02*
X64675952Y-93054819D01*
X64675952Y-93054819D02*
X64771190Y-93007200D01*
X64771190Y-93007200D02*
X64818809Y-92959580D01*
X64818809Y-92959580D02*
X64914047Y-92816723D01*
X64914047Y-92816723D02*
X64961666Y-92626247D01*
X64961666Y-92626247D02*
X64961666Y-92245295D01*
X64961666Y-92245295D02*
X64914047Y-92150057D01*
X64914047Y-92150057D02*
X64866428Y-92102438D01*
X64866428Y-92102438D02*
X64771190Y-92054819D01*
X64771190Y-92054819D02*
X64580714Y-92054819D01*
X64580714Y-92054819D02*
X64485476Y-92102438D01*
X64485476Y-92102438D02*
X64437857Y-92150057D01*
X64437857Y-92150057D02*
X64390238Y-92245295D01*
X64390238Y-92245295D02*
X64390238Y-92483390D01*
X64390238Y-92483390D02*
X64437857Y-92578628D01*
X64437857Y-92578628D02*
X64485476Y-92626247D01*
X64485476Y-92626247D02*
X64580714Y-92673866D01*
X64580714Y-92673866D02*
X64771190Y-92673866D01*
X64771190Y-92673866D02*
X64866428Y-92626247D01*
X64866428Y-92626247D02*
X64914047Y-92578628D01*
X64914047Y-92578628D02*
X64961666Y-92483390D01*
X63714048Y-89873866D02*
X64475953Y-89873866D01*
X64095000Y-90254819D02*
X64095000Y-89492914D01*
X82561666Y-54754819D02*
X82561666Y-55469104D01*
X82561666Y-55469104D02*
X82514047Y-55611961D01*
X82514047Y-55611961D02*
X82418809Y-55707200D01*
X82418809Y-55707200D02*
X82275952Y-55754819D01*
X82275952Y-55754819D02*
X82180714Y-55754819D01*
X83561666Y-55754819D02*
X82990238Y-55754819D01*
X83275952Y-55754819D02*
X83275952Y-54754819D01*
X83275952Y-54754819D02*
X83180714Y-54897676D01*
X83180714Y-54897676D02*
X83085476Y-54992914D01*
X83085476Y-54992914D02*
X82990238Y-55040533D01*
X74114048Y-52973866D02*
X74875953Y-52973866D01*
X74495000Y-53354819D02*
X74495000Y-52592914D01*
X140368333Y-52154819D02*
X140035000Y-51678628D01*
X139796905Y-52154819D02*
X139796905Y-51154819D01*
X139796905Y-51154819D02*
X140177857Y-51154819D01*
X140177857Y-51154819D02*
X140273095Y-51202438D01*
X140273095Y-51202438D02*
X140320714Y-51250057D01*
X140320714Y-51250057D02*
X140368333Y-51345295D01*
X140368333Y-51345295D02*
X140368333Y-51488152D01*
X140368333Y-51488152D02*
X140320714Y-51583390D01*
X140320714Y-51583390D02*
X140273095Y-51631009D01*
X140273095Y-51631009D02*
X140177857Y-51678628D01*
X140177857Y-51678628D02*
X139796905Y-51678628D01*
X141320714Y-52154819D02*
X140749286Y-52154819D01*
X141035000Y-52154819D02*
X141035000Y-51154819D01*
X141035000Y-51154819D02*
X140939762Y-51297676D01*
X140939762Y-51297676D02*
X140844524Y-51392914D01*
X140844524Y-51392914D02*
X140749286Y-51440533D01*
X123657142Y-70354819D02*
X123323809Y-69878628D01*
X123085714Y-70354819D02*
X123085714Y-69354819D01*
X123085714Y-69354819D02*
X123466666Y-69354819D01*
X123466666Y-69354819D02*
X123561904Y-69402438D01*
X123561904Y-69402438D02*
X123609523Y-69450057D01*
X123609523Y-69450057D02*
X123657142Y-69545295D01*
X123657142Y-69545295D02*
X123657142Y-69688152D01*
X123657142Y-69688152D02*
X123609523Y-69783390D01*
X123609523Y-69783390D02*
X123561904Y-69831009D01*
X123561904Y-69831009D02*
X123466666Y-69878628D01*
X123466666Y-69878628D02*
X123085714Y-69878628D01*
X124038095Y-69450057D02*
X124085714Y-69402438D01*
X124085714Y-69402438D02*
X124180952Y-69354819D01*
X124180952Y-69354819D02*
X124419047Y-69354819D01*
X124419047Y-69354819D02*
X124514285Y-69402438D01*
X124514285Y-69402438D02*
X124561904Y-69450057D01*
X124561904Y-69450057D02*
X124609523Y-69545295D01*
X124609523Y-69545295D02*
X124609523Y-69640533D01*
X124609523Y-69640533D02*
X124561904Y-69783390D01*
X124561904Y-69783390D02*
X123990476Y-70354819D01*
X123990476Y-70354819D02*
X124609523Y-70354819D01*
X125466666Y-69688152D02*
X125466666Y-70354819D01*
X125228571Y-69307200D02*
X124990476Y-70021485D01*
X124990476Y-70021485D02*
X125609523Y-70021485D01*
X99333333Y-87209580D02*
X99285714Y-87257200D01*
X99285714Y-87257200D02*
X99142857Y-87304819D01*
X99142857Y-87304819D02*
X99047619Y-87304819D01*
X99047619Y-87304819D02*
X98904762Y-87257200D01*
X98904762Y-87257200D02*
X98809524Y-87161961D01*
X98809524Y-87161961D02*
X98761905Y-87066723D01*
X98761905Y-87066723D02*
X98714286Y-86876247D01*
X98714286Y-86876247D02*
X98714286Y-86733390D01*
X98714286Y-86733390D02*
X98761905Y-86542914D01*
X98761905Y-86542914D02*
X98809524Y-86447676D01*
X98809524Y-86447676D02*
X98904762Y-86352438D01*
X98904762Y-86352438D02*
X99047619Y-86304819D01*
X99047619Y-86304819D02*
X99142857Y-86304819D01*
X99142857Y-86304819D02*
X99285714Y-86352438D01*
X99285714Y-86352438D02*
X99333333Y-86400057D01*
X99809524Y-87304819D02*
X100000000Y-87304819D01*
X100000000Y-87304819D02*
X100095238Y-87257200D01*
X100095238Y-87257200D02*
X100142857Y-87209580D01*
X100142857Y-87209580D02*
X100238095Y-87066723D01*
X100238095Y-87066723D02*
X100285714Y-86876247D01*
X100285714Y-86876247D02*
X100285714Y-86495295D01*
X100285714Y-86495295D02*
X100238095Y-86400057D01*
X100238095Y-86400057D02*
X100190476Y-86352438D01*
X100190476Y-86352438D02*
X100095238Y-86304819D01*
X100095238Y-86304819D02*
X99904762Y-86304819D01*
X99904762Y-86304819D02*
X99809524Y-86352438D01*
X99809524Y-86352438D02*
X99761905Y-86400057D01*
X99761905Y-86400057D02*
X99714286Y-86495295D01*
X99714286Y-86495295D02*
X99714286Y-86733390D01*
X99714286Y-86733390D02*
X99761905Y-86828628D01*
X99761905Y-86828628D02*
X99809524Y-86876247D01*
X99809524Y-86876247D02*
X99904762Y-86923866D01*
X99904762Y-86923866D02*
X100095238Y-86923866D01*
X100095238Y-86923866D02*
X100190476Y-86876247D01*
X100190476Y-86876247D02*
X100238095Y-86828628D01*
X100238095Y-86828628D02*
X100285714Y-86733390D01*
X97261905Y-82054819D02*
X97833333Y-82054819D01*
X97547619Y-83054819D02*
X97547619Y-82054819D01*
X98166667Y-83054819D02*
X98166667Y-82054819D01*
X98166667Y-82054819D02*
X98547619Y-82054819D01*
X98547619Y-82054819D02*
X98642857Y-82102438D01*
X98642857Y-82102438D02*
X98690476Y-82150057D01*
X98690476Y-82150057D02*
X98738095Y-82245295D01*
X98738095Y-82245295D02*
X98738095Y-82388152D01*
X98738095Y-82388152D02*
X98690476Y-82483390D01*
X98690476Y-82483390D02*
X98642857Y-82531009D01*
X98642857Y-82531009D02*
X98547619Y-82578628D01*
X98547619Y-82578628D02*
X98166667Y-82578628D01*
X99690476Y-83054819D02*
X99119048Y-83054819D01*
X99404762Y-83054819D02*
X99404762Y-82054819D01*
X99404762Y-82054819D02*
X99309524Y-82197676D01*
X99309524Y-82197676D02*
X99214286Y-82292914D01*
X99214286Y-82292914D02*
X99119048Y-82340533D01*
X100642857Y-83054819D02*
X100071429Y-83054819D01*
X100357143Y-83054819D02*
X100357143Y-82054819D01*
X100357143Y-82054819D02*
X100261905Y-82197676D01*
X100261905Y-82197676D02*
X100166667Y-82292914D01*
X100166667Y-82292914D02*
X100071429Y-82340533D01*
X97528571Y-84454819D02*
X97528571Y-83454819D01*
X97528571Y-83454819D02*
X97861904Y-84169104D01*
X97861904Y-84169104D02*
X98195237Y-83454819D01*
X98195237Y-83454819D02*
X98195237Y-84454819D01*
X98433333Y-84550057D02*
X99195237Y-84550057D01*
X99385714Y-84407200D02*
X99528571Y-84454819D01*
X99528571Y-84454819D02*
X99766666Y-84454819D01*
X99766666Y-84454819D02*
X99861904Y-84407200D01*
X99861904Y-84407200D02*
X99909523Y-84359580D01*
X99909523Y-84359580D02*
X99957142Y-84264342D01*
X99957142Y-84264342D02*
X99957142Y-84169104D01*
X99957142Y-84169104D02*
X99909523Y-84073866D01*
X99909523Y-84073866D02*
X99861904Y-84026247D01*
X99861904Y-84026247D02*
X99766666Y-83978628D01*
X99766666Y-83978628D02*
X99576190Y-83931009D01*
X99576190Y-83931009D02*
X99480952Y-83883390D01*
X99480952Y-83883390D02*
X99433333Y-83835771D01*
X99433333Y-83835771D02*
X99385714Y-83740533D01*
X99385714Y-83740533D02*
X99385714Y-83645295D01*
X99385714Y-83645295D02*
X99433333Y-83550057D01*
X99433333Y-83550057D02*
X99480952Y-83502438D01*
X99480952Y-83502438D02*
X99576190Y-83454819D01*
X99576190Y-83454819D02*
X99814285Y-83454819D01*
X99814285Y-83454819D02*
X99957142Y-83502438D01*
X100242857Y-83454819D02*
X100814285Y-83454819D01*
X100528571Y-84454819D02*
X100528571Y-83454819D01*
X101147619Y-84454819D02*
X101147619Y-83454819D01*
X101147619Y-83454819D02*
X101528571Y-83454819D01*
X101528571Y-83454819D02*
X101623809Y-83502438D01*
X101623809Y-83502438D02*
X101671428Y-83550057D01*
X101671428Y-83550057D02*
X101719047Y-83645295D01*
X101719047Y-83645295D02*
X101719047Y-83788152D01*
X101719047Y-83788152D02*
X101671428Y-83883390D01*
X101671428Y-83883390D02*
X101623809Y-83931009D01*
X101623809Y-83931009D02*
X101528571Y-83978628D01*
X101528571Y-83978628D02*
X101147619Y-83978628D01*
X148866666Y-61654819D02*
X148866666Y-62369104D01*
X148866666Y-62369104D02*
X148819047Y-62511961D01*
X148819047Y-62511961D02*
X148723809Y-62607200D01*
X148723809Y-62607200D02*
X148580952Y-62654819D01*
X148580952Y-62654819D02*
X148485714Y-62654819D01*
X149342857Y-62654819D02*
X149342857Y-61654819D01*
X149342857Y-61654819D02*
X149723809Y-61654819D01*
X149723809Y-61654819D02*
X149819047Y-61702438D01*
X149819047Y-61702438D02*
X149866666Y-61750057D01*
X149866666Y-61750057D02*
X149914285Y-61845295D01*
X149914285Y-61845295D02*
X149914285Y-61988152D01*
X149914285Y-61988152D02*
X149866666Y-62083390D01*
X149866666Y-62083390D02*
X149819047Y-62131009D01*
X149819047Y-62131009D02*
X149723809Y-62178628D01*
X149723809Y-62178628D02*
X149342857Y-62178628D01*
X150866666Y-62654819D02*
X150295238Y-62654819D01*
X150580952Y-62654819D02*
X150580952Y-61654819D01*
X150580952Y-61654819D02*
X150485714Y-61797676D01*
X150485714Y-61797676D02*
X150390476Y-61892914D01*
X150390476Y-61892914D02*
X150295238Y-61940533D01*
X123338095Y-83454819D02*
X123909523Y-83454819D01*
X123623809Y-84454819D02*
X123623809Y-83454819D01*
X124242857Y-84454819D02*
X124242857Y-83454819D01*
X124242857Y-83454819D02*
X124623809Y-83454819D01*
X124623809Y-83454819D02*
X124719047Y-83502438D01*
X124719047Y-83502438D02*
X124766666Y-83550057D01*
X124766666Y-83550057D02*
X124814285Y-83645295D01*
X124814285Y-83645295D02*
X124814285Y-83788152D01*
X124814285Y-83788152D02*
X124766666Y-83883390D01*
X124766666Y-83883390D02*
X124719047Y-83931009D01*
X124719047Y-83931009D02*
X124623809Y-83978628D01*
X124623809Y-83978628D02*
X124242857Y-83978628D01*
X125147619Y-83454819D02*
X125814285Y-83454819D01*
X125814285Y-83454819D02*
X125385714Y-84454819D01*
X128080952Y-84454819D02*
X127747619Y-83978628D01*
X127509524Y-84454819D02*
X127509524Y-83454819D01*
X127509524Y-83454819D02*
X127890476Y-83454819D01*
X127890476Y-83454819D02*
X127985714Y-83502438D01*
X127985714Y-83502438D02*
X128033333Y-83550057D01*
X128033333Y-83550057D02*
X128080952Y-83645295D01*
X128080952Y-83645295D02*
X128080952Y-83788152D01*
X128080952Y-83788152D02*
X128033333Y-83883390D01*
X128033333Y-83883390D02*
X127985714Y-83931009D01*
X127985714Y-83931009D02*
X127890476Y-83978628D01*
X127890476Y-83978628D02*
X127509524Y-83978628D01*
X128414286Y-83454819D02*
X129033333Y-83454819D01*
X129033333Y-83454819D02*
X128700000Y-83835771D01*
X128700000Y-83835771D02*
X128842857Y-83835771D01*
X128842857Y-83835771D02*
X128938095Y-83883390D01*
X128938095Y-83883390D02*
X128985714Y-83931009D01*
X128985714Y-83931009D02*
X129033333Y-84026247D01*
X129033333Y-84026247D02*
X129033333Y-84264342D01*
X129033333Y-84264342D02*
X128985714Y-84359580D01*
X128985714Y-84359580D02*
X128938095Y-84407200D01*
X128938095Y-84407200D02*
X128842857Y-84454819D01*
X128842857Y-84454819D02*
X128557143Y-84454819D01*
X128557143Y-84454819D02*
X128461905Y-84407200D01*
X128461905Y-84407200D02*
X128414286Y-84359580D01*
X129985714Y-84454819D02*
X129414286Y-84454819D01*
X129700000Y-84454819D02*
X129700000Y-83454819D01*
X129700000Y-83454819D02*
X129604762Y-83597676D01*
X129604762Y-83597676D02*
X129509524Y-83692914D01*
X129509524Y-83692914D02*
X129414286Y-83740533D01*
X130890476Y-83454819D02*
X130414286Y-83454819D01*
X130414286Y-83454819D02*
X130366667Y-83931009D01*
X130366667Y-83931009D02*
X130414286Y-83883390D01*
X130414286Y-83883390D02*
X130509524Y-83835771D01*
X130509524Y-83835771D02*
X130747619Y-83835771D01*
X130747619Y-83835771D02*
X130842857Y-83883390D01*
X130842857Y-83883390D02*
X130890476Y-83931009D01*
X130890476Y-83931009D02*
X130938095Y-84026247D01*
X130938095Y-84026247D02*
X130938095Y-84264342D01*
X130938095Y-84264342D02*
X130890476Y-84359580D01*
X130890476Y-84359580D02*
X130842857Y-84407200D01*
X130842857Y-84407200D02*
X130747619Y-84454819D01*
X130747619Y-84454819D02*
X130509524Y-84454819D01*
X130509524Y-84454819D02*
X130414286Y-84407200D01*
X130414286Y-84407200D02*
X130366667Y-84359580D01*
X70856905Y-96354819D02*
X70856905Y-97164342D01*
X70856905Y-97164342D02*
X70904524Y-97259580D01*
X70904524Y-97259580D02*
X70952143Y-97307200D01*
X70952143Y-97307200D02*
X71047381Y-97354819D01*
X71047381Y-97354819D02*
X71237857Y-97354819D01*
X71237857Y-97354819D02*
X71333095Y-97307200D01*
X71333095Y-97307200D02*
X71380714Y-97259580D01*
X71380714Y-97259580D02*
X71428333Y-97164342D01*
X71428333Y-97164342D02*
X71428333Y-96354819D01*
X72428333Y-97354819D02*
X71856905Y-97354819D01*
X72142619Y-97354819D02*
X72142619Y-96354819D01*
X72142619Y-96354819D02*
X72047381Y-96497676D01*
X72047381Y-96497676D02*
X71952143Y-96592914D01*
X71952143Y-96592914D02*
X71856905Y-96640533D01*
X72809286Y-96450057D02*
X72856905Y-96402438D01*
X72856905Y-96402438D02*
X72952143Y-96354819D01*
X72952143Y-96354819D02*
X73190238Y-96354819D01*
X73190238Y-96354819D02*
X73285476Y-96402438D01*
X73285476Y-96402438D02*
X73333095Y-96450057D01*
X73333095Y-96450057D02*
X73380714Y-96545295D01*
X73380714Y-96545295D02*
X73380714Y-96640533D01*
X73380714Y-96640533D02*
X73333095Y-96783390D01*
X73333095Y-96783390D02*
X72761667Y-97354819D01*
X72761667Y-97354819D02*
X73380714Y-97354819D01*
X145238095Y-79204819D02*
X145238095Y-80014342D01*
X145238095Y-80014342D02*
X145285714Y-80109580D01*
X145285714Y-80109580D02*
X145333333Y-80157200D01*
X145333333Y-80157200D02*
X145428571Y-80204819D01*
X145428571Y-80204819D02*
X145619047Y-80204819D01*
X145619047Y-80204819D02*
X145714285Y-80157200D01*
X145714285Y-80157200D02*
X145761904Y-80109580D01*
X145761904Y-80109580D02*
X145809523Y-80014342D01*
X145809523Y-80014342D02*
X145809523Y-79204819D01*
X146190476Y-79204819D02*
X146857142Y-79204819D01*
X146857142Y-79204819D02*
X146428571Y-80204819D01*
X143961905Y-68254819D02*
X143961905Y-67254819D01*
X143961905Y-67254819D02*
X144200000Y-67254819D01*
X144200000Y-67254819D02*
X144342857Y-67302438D01*
X144342857Y-67302438D02*
X144438095Y-67397676D01*
X144438095Y-67397676D02*
X144485714Y-67492914D01*
X144485714Y-67492914D02*
X144533333Y-67683390D01*
X144533333Y-67683390D02*
X144533333Y-67826247D01*
X144533333Y-67826247D02*
X144485714Y-68016723D01*
X144485714Y-68016723D02*
X144438095Y-68111961D01*
X144438095Y-68111961D02*
X144342857Y-68207200D01*
X144342857Y-68207200D02*
X144200000Y-68254819D01*
X144200000Y-68254819D02*
X143961905Y-68254819D01*
X144914286Y-67350057D02*
X144961905Y-67302438D01*
X144961905Y-67302438D02*
X145057143Y-67254819D01*
X145057143Y-67254819D02*
X145295238Y-67254819D01*
X145295238Y-67254819D02*
X145390476Y-67302438D01*
X145390476Y-67302438D02*
X145438095Y-67350057D01*
X145438095Y-67350057D02*
X145485714Y-67445295D01*
X145485714Y-67445295D02*
X145485714Y-67540533D01*
X145485714Y-67540533D02*
X145438095Y-67683390D01*
X145438095Y-67683390D02*
X144866667Y-68254819D01*
X144866667Y-68254819D02*
X145485714Y-68254819D01*
X71133095Y-47854819D02*
X71133095Y-48664342D01*
X71133095Y-48664342D02*
X71180714Y-48759580D01*
X71180714Y-48759580D02*
X71228333Y-48807200D01*
X71228333Y-48807200D02*
X71323571Y-48854819D01*
X71323571Y-48854819D02*
X71514047Y-48854819D01*
X71514047Y-48854819D02*
X71609285Y-48807200D01*
X71609285Y-48807200D02*
X71656904Y-48759580D01*
X71656904Y-48759580D02*
X71704523Y-48664342D01*
X71704523Y-48664342D02*
X71704523Y-47854819D01*
X72323571Y-48283390D02*
X72228333Y-48235771D01*
X72228333Y-48235771D02*
X72180714Y-48188152D01*
X72180714Y-48188152D02*
X72133095Y-48092914D01*
X72133095Y-48092914D02*
X72133095Y-48045295D01*
X72133095Y-48045295D02*
X72180714Y-47950057D01*
X72180714Y-47950057D02*
X72228333Y-47902438D01*
X72228333Y-47902438D02*
X72323571Y-47854819D01*
X72323571Y-47854819D02*
X72514047Y-47854819D01*
X72514047Y-47854819D02*
X72609285Y-47902438D01*
X72609285Y-47902438D02*
X72656904Y-47950057D01*
X72656904Y-47950057D02*
X72704523Y-48045295D01*
X72704523Y-48045295D02*
X72704523Y-48092914D01*
X72704523Y-48092914D02*
X72656904Y-48188152D01*
X72656904Y-48188152D02*
X72609285Y-48235771D01*
X72609285Y-48235771D02*
X72514047Y-48283390D01*
X72514047Y-48283390D02*
X72323571Y-48283390D01*
X72323571Y-48283390D02*
X72228333Y-48331009D01*
X72228333Y-48331009D02*
X72180714Y-48378628D01*
X72180714Y-48378628D02*
X72133095Y-48473866D01*
X72133095Y-48473866D02*
X72133095Y-48664342D01*
X72133095Y-48664342D02*
X72180714Y-48759580D01*
X72180714Y-48759580D02*
X72228333Y-48807200D01*
X72228333Y-48807200D02*
X72323571Y-48854819D01*
X72323571Y-48854819D02*
X72514047Y-48854819D01*
X72514047Y-48854819D02*
X72609285Y-48807200D01*
X72609285Y-48807200D02*
X72656904Y-48759580D01*
X72656904Y-48759580D02*
X72704523Y-48664342D01*
X72704523Y-48664342D02*
X72704523Y-48473866D01*
X72704523Y-48473866D02*
X72656904Y-48378628D01*
X72656904Y-48378628D02*
X72609285Y-48331009D01*
X72609285Y-48331009D02*
X72514047Y-48283390D01*
X148966666Y-47254819D02*
X148966666Y-47969104D01*
X148966666Y-47969104D02*
X148919047Y-48111961D01*
X148919047Y-48111961D02*
X148823809Y-48207200D01*
X148823809Y-48207200D02*
X148680952Y-48254819D01*
X148680952Y-48254819D02*
X148585714Y-48254819D01*
X149395238Y-47350057D02*
X149442857Y-47302438D01*
X149442857Y-47302438D02*
X149538095Y-47254819D01*
X149538095Y-47254819D02*
X149776190Y-47254819D01*
X149776190Y-47254819D02*
X149871428Y-47302438D01*
X149871428Y-47302438D02*
X149919047Y-47350057D01*
X149919047Y-47350057D02*
X149966666Y-47445295D01*
X149966666Y-47445295D02*
X149966666Y-47540533D01*
X149966666Y-47540533D02*
X149919047Y-47683390D01*
X149919047Y-47683390D02*
X149347619Y-48254819D01*
X149347619Y-48254819D02*
X149966666Y-48254819D01*
X71652142Y-87854819D02*
X71318809Y-87378628D01*
X71080714Y-87854819D02*
X71080714Y-86854819D01*
X71080714Y-86854819D02*
X71461666Y-86854819D01*
X71461666Y-86854819D02*
X71556904Y-86902438D01*
X71556904Y-86902438D02*
X71604523Y-86950057D01*
X71604523Y-86950057D02*
X71652142Y-87045295D01*
X71652142Y-87045295D02*
X71652142Y-87188152D01*
X71652142Y-87188152D02*
X71604523Y-87283390D01*
X71604523Y-87283390D02*
X71556904Y-87331009D01*
X71556904Y-87331009D02*
X71461666Y-87378628D01*
X71461666Y-87378628D02*
X71080714Y-87378628D01*
X72033095Y-86950057D02*
X72080714Y-86902438D01*
X72080714Y-86902438D02*
X72175952Y-86854819D01*
X72175952Y-86854819D02*
X72414047Y-86854819D01*
X72414047Y-86854819D02*
X72509285Y-86902438D01*
X72509285Y-86902438D02*
X72556904Y-86950057D01*
X72556904Y-86950057D02*
X72604523Y-87045295D01*
X72604523Y-87045295D02*
X72604523Y-87140533D01*
X72604523Y-87140533D02*
X72556904Y-87283390D01*
X72556904Y-87283390D02*
X71985476Y-87854819D01*
X71985476Y-87854819D02*
X72604523Y-87854819D01*
X73509285Y-86854819D02*
X73033095Y-86854819D01*
X73033095Y-86854819D02*
X72985476Y-87331009D01*
X72985476Y-87331009D02*
X73033095Y-87283390D01*
X73033095Y-87283390D02*
X73128333Y-87235771D01*
X73128333Y-87235771D02*
X73366428Y-87235771D01*
X73366428Y-87235771D02*
X73461666Y-87283390D01*
X73461666Y-87283390D02*
X73509285Y-87331009D01*
X73509285Y-87331009D02*
X73556904Y-87426247D01*
X73556904Y-87426247D02*
X73556904Y-87664342D01*
X73556904Y-87664342D02*
X73509285Y-87759580D01*
X73509285Y-87759580D02*
X73461666Y-87807200D01*
X73461666Y-87807200D02*
X73366428Y-87854819D01*
X73366428Y-87854819D02*
X73128333Y-87854819D01*
X73128333Y-87854819D02*
X73033095Y-87807200D01*
X73033095Y-87807200D02*
X72985476Y-87759580D01*
X88166666Y-72204819D02*
X88166666Y-72919104D01*
X88166666Y-72919104D02*
X88119047Y-73061961D01*
X88119047Y-73061961D02*
X88023809Y-73157200D01*
X88023809Y-73157200D02*
X87880952Y-73204819D01*
X87880952Y-73204819D02*
X87785714Y-73204819D01*
X89119047Y-72204819D02*
X88642857Y-72204819D01*
X88642857Y-72204819D02*
X88595238Y-72681009D01*
X88595238Y-72681009D02*
X88642857Y-72633390D01*
X88642857Y-72633390D02*
X88738095Y-72585771D01*
X88738095Y-72585771D02*
X88976190Y-72585771D01*
X88976190Y-72585771D02*
X89071428Y-72633390D01*
X89071428Y-72633390D02*
X89119047Y-72681009D01*
X89119047Y-72681009D02*
X89166666Y-72776247D01*
X89166666Y-72776247D02*
X89166666Y-73014342D01*
X89166666Y-73014342D02*
X89119047Y-73109580D01*
X89119047Y-73109580D02*
X89071428Y-73157200D01*
X89071428Y-73157200D02*
X88976190Y-73204819D01*
X88976190Y-73204819D02*
X88738095Y-73204819D01*
X88738095Y-73204819D02*
X88642857Y-73157200D01*
X88642857Y-73157200D02*
X88595238Y-73109580D01*
X87916666Y-74454819D02*
X87916666Y-73454819D01*
X87916666Y-73454819D02*
X88249999Y-74169104D01*
X88249999Y-74169104D02*
X88583332Y-73454819D01*
X88583332Y-73454819D02*
X88583332Y-74454819D01*
X89202380Y-74454819D02*
X89107142Y-74407200D01*
X89107142Y-74407200D02*
X89059523Y-74359580D01*
X89059523Y-74359580D02*
X89011904Y-74264342D01*
X89011904Y-74264342D02*
X89011904Y-73978628D01*
X89011904Y-73978628D02*
X89059523Y-73883390D01*
X89059523Y-73883390D02*
X89107142Y-73835771D01*
X89107142Y-73835771D02*
X89202380Y-73788152D01*
X89202380Y-73788152D02*
X89345237Y-73788152D01*
X89345237Y-73788152D02*
X89440475Y-73835771D01*
X89440475Y-73835771D02*
X89488094Y-73883390D01*
X89488094Y-73883390D02*
X89535713Y-73978628D01*
X89535713Y-73978628D02*
X89535713Y-74264342D01*
X89535713Y-74264342D02*
X89488094Y-74359580D01*
X89488094Y-74359580D02*
X89440475Y-74407200D01*
X89440475Y-74407200D02*
X89345237Y-74454819D01*
X89345237Y-74454819D02*
X89202380Y-74454819D01*
X89821428Y-73788152D02*
X90202380Y-73788152D01*
X89964285Y-73454819D02*
X89964285Y-74311961D01*
X89964285Y-74311961D02*
X90011904Y-74407200D01*
X90011904Y-74407200D02*
X90107142Y-74454819D01*
X90107142Y-74454819D02*
X90202380Y-74454819D01*
X90678571Y-74454819D02*
X90583333Y-74407200D01*
X90583333Y-74407200D02*
X90535714Y-74359580D01*
X90535714Y-74359580D02*
X90488095Y-74264342D01*
X90488095Y-74264342D02*
X90488095Y-73978628D01*
X90488095Y-73978628D02*
X90535714Y-73883390D01*
X90535714Y-73883390D02*
X90583333Y-73835771D01*
X90583333Y-73835771D02*
X90678571Y-73788152D01*
X90678571Y-73788152D02*
X90821428Y-73788152D01*
X90821428Y-73788152D02*
X90916666Y-73835771D01*
X90916666Y-73835771D02*
X90964285Y-73883390D01*
X90964285Y-73883390D02*
X91011904Y-73978628D01*
X91011904Y-73978628D02*
X91011904Y-74264342D01*
X91011904Y-74264342D02*
X90964285Y-74359580D01*
X90964285Y-74359580D02*
X90916666Y-74407200D01*
X90916666Y-74407200D02*
X90821428Y-74454819D01*
X90821428Y-74454819D02*
X90678571Y-74454819D01*
X91440476Y-74454819D02*
X91440476Y-73788152D01*
X91440476Y-73978628D02*
X91488095Y-73883390D01*
X91488095Y-73883390D02*
X91535714Y-73835771D01*
X91535714Y-73835771D02*
X91630952Y-73788152D01*
X91630952Y-73788152D02*
X91726190Y-73788152D01*
X132038095Y-76954819D02*
X132609523Y-76954819D01*
X132323809Y-77954819D02*
X132323809Y-76954819D01*
X132942857Y-77954819D02*
X132942857Y-76954819D01*
X132942857Y-76954819D02*
X133323809Y-76954819D01*
X133323809Y-76954819D02*
X133419047Y-77002438D01*
X133419047Y-77002438D02*
X133466666Y-77050057D01*
X133466666Y-77050057D02*
X133514285Y-77145295D01*
X133514285Y-77145295D02*
X133514285Y-77288152D01*
X133514285Y-77288152D02*
X133466666Y-77383390D01*
X133466666Y-77383390D02*
X133419047Y-77431009D01*
X133419047Y-77431009D02*
X133323809Y-77478628D01*
X133323809Y-77478628D02*
X132942857Y-77478628D01*
X134419047Y-76954819D02*
X133942857Y-76954819D01*
X133942857Y-76954819D02*
X133895238Y-77431009D01*
X133895238Y-77431009D02*
X133942857Y-77383390D01*
X133942857Y-77383390D02*
X134038095Y-77335771D01*
X134038095Y-77335771D02*
X134276190Y-77335771D01*
X134276190Y-77335771D02*
X134371428Y-77383390D01*
X134371428Y-77383390D02*
X134419047Y-77431009D01*
X134419047Y-77431009D02*
X134466666Y-77526247D01*
X134466666Y-77526247D02*
X134466666Y-77764342D01*
X134466666Y-77764342D02*
X134419047Y-77859580D01*
X134419047Y-77859580D02*
X134371428Y-77907200D01*
X134371428Y-77907200D02*
X134276190Y-77954819D01*
X134276190Y-77954819D02*
X134038095Y-77954819D01*
X134038095Y-77954819D02*
X133942857Y-77907200D01*
X133942857Y-77907200D02*
X133895238Y-77859580D01*
X135285714Y-76954819D02*
X135857142Y-76954819D01*
X135571428Y-77954819D02*
X135571428Y-76954819D01*
X136619047Y-77288152D02*
X136619047Y-77954819D01*
X136380952Y-76907200D02*
X136142857Y-77621485D01*
X136142857Y-77621485D02*
X136761904Y-77621485D01*
X137047619Y-76954819D02*
X137666666Y-76954819D01*
X137666666Y-76954819D02*
X137333333Y-77335771D01*
X137333333Y-77335771D02*
X137476190Y-77335771D01*
X137476190Y-77335771D02*
X137571428Y-77383390D01*
X137571428Y-77383390D02*
X137619047Y-77431009D01*
X137619047Y-77431009D02*
X137666666Y-77526247D01*
X137666666Y-77526247D02*
X137666666Y-77764342D01*
X137666666Y-77764342D02*
X137619047Y-77859580D01*
X137619047Y-77859580D02*
X137571428Y-77907200D01*
X137571428Y-77907200D02*
X137476190Y-77954819D01*
X137476190Y-77954819D02*
X137190476Y-77954819D01*
X137190476Y-77954819D02*
X137095238Y-77907200D01*
X137095238Y-77907200D02*
X137047619Y-77859580D01*
X138000000Y-76954819D02*
X138619047Y-76954819D01*
X138619047Y-76954819D02*
X138285714Y-77335771D01*
X138285714Y-77335771D02*
X138428571Y-77335771D01*
X138428571Y-77335771D02*
X138523809Y-77383390D01*
X138523809Y-77383390D02*
X138571428Y-77431009D01*
X138571428Y-77431009D02*
X138619047Y-77526247D01*
X138619047Y-77526247D02*
X138619047Y-77764342D01*
X138619047Y-77764342D02*
X138571428Y-77859580D01*
X138571428Y-77859580D02*
X138523809Y-77907200D01*
X138523809Y-77907200D02*
X138428571Y-77954819D01*
X138428571Y-77954819D02*
X138142857Y-77954819D01*
X138142857Y-77954819D02*
X138047619Y-77907200D01*
X138047619Y-77907200D02*
X138000000Y-77859580D01*
X97801667Y-55107200D02*
X97944524Y-55154819D01*
X97944524Y-55154819D02*
X98182619Y-55154819D01*
X98182619Y-55154819D02*
X98277857Y-55107200D01*
X98277857Y-55107200D02*
X98325476Y-55059580D01*
X98325476Y-55059580D02*
X98373095Y-54964342D01*
X98373095Y-54964342D02*
X98373095Y-54869104D01*
X98373095Y-54869104D02*
X98325476Y-54773866D01*
X98325476Y-54773866D02*
X98277857Y-54726247D01*
X98277857Y-54726247D02*
X98182619Y-54678628D01*
X98182619Y-54678628D02*
X97992143Y-54631009D01*
X97992143Y-54631009D02*
X97896905Y-54583390D01*
X97896905Y-54583390D02*
X97849286Y-54535771D01*
X97849286Y-54535771D02*
X97801667Y-54440533D01*
X97801667Y-54440533D02*
X97801667Y-54345295D01*
X97801667Y-54345295D02*
X97849286Y-54250057D01*
X97849286Y-54250057D02*
X97896905Y-54202438D01*
X97896905Y-54202438D02*
X97992143Y-54154819D01*
X97992143Y-54154819D02*
X98230238Y-54154819D01*
X98230238Y-54154819D02*
X98373095Y-54202438D01*
X98706429Y-54154819D02*
X98944524Y-55154819D01*
X98944524Y-55154819D02*
X99135000Y-54440533D01*
X99135000Y-54440533D02*
X99325476Y-55154819D01*
X99325476Y-55154819D02*
X99563572Y-54154819D01*
X100468333Y-55154819D02*
X99896905Y-55154819D01*
X100182619Y-55154819D02*
X100182619Y-54154819D01*
X100182619Y-54154819D02*
X100087381Y-54297676D01*
X100087381Y-54297676D02*
X99992143Y-54392914D01*
X99992143Y-54392914D02*
X99896905Y-54440533D01*
X98954047Y-56554819D02*
X98620714Y-56078628D01*
X98382619Y-56554819D02*
X98382619Y-55554819D01*
X98382619Y-55554819D02*
X98763571Y-55554819D01*
X98763571Y-55554819D02*
X98858809Y-55602438D01*
X98858809Y-55602438D02*
X98906428Y-55650057D01*
X98906428Y-55650057D02*
X98954047Y-55745295D01*
X98954047Y-55745295D02*
X98954047Y-55888152D01*
X98954047Y-55888152D02*
X98906428Y-55983390D01*
X98906428Y-55983390D02*
X98858809Y-56031009D01*
X98858809Y-56031009D02*
X98763571Y-56078628D01*
X98763571Y-56078628D02*
X98382619Y-56078628D01*
X99335000Y-56507200D02*
X99430238Y-56554819D01*
X99430238Y-56554819D02*
X99620714Y-56554819D01*
X99620714Y-56554819D02*
X99715952Y-56507200D01*
X99715952Y-56507200D02*
X99763571Y-56411961D01*
X99763571Y-56411961D02*
X99763571Y-56364342D01*
X99763571Y-56364342D02*
X99715952Y-56269104D01*
X99715952Y-56269104D02*
X99620714Y-56221485D01*
X99620714Y-56221485D02*
X99477857Y-56221485D01*
X99477857Y-56221485D02*
X99382619Y-56173866D01*
X99382619Y-56173866D02*
X99335000Y-56078628D01*
X99335000Y-56078628D02*
X99335000Y-56031009D01*
X99335000Y-56031009D02*
X99382619Y-55935771D01*
X99382619Y-55935771D02*
X99477857Y-55888152D01*
X99477857Y-55888152D02*
X99620714Y-55888152D01*
X99620714Y-55888152D02*
X99715952Y-55935771D01*
X100049286Y-55888152D02*
X100430238Y-55888152D01*
X100192143Y-55554819D02*
X100192143Y-56411961D01*
X100192143Y-56411961D02*
X100239762Y-56507200D01*
X100239762Y-56507200D02*
X100335000Y-56554819D01*
X100335000Y-56554819D02*
X100430238Y-56554819D01*
X113407142Y-87259580D02*
X113359523Y-87307200D01*
X113359523Y-87307200D02*
X113216666Y-87354819D01*
X113216666Y-87354819D02*
X113121428Y-87354819D01*
X113121428Y-87354819D02*
X112978571Y-87307200D01*
X112978571Y-87307200D02*
X112883333Y-87211961D01*
X112883333Y-87211961D02*
X112835714Y-87116723D01*
X112835714Y-87116723D02*
X112788095Y-86926247D01*
X112788095Y-86926247D02*
X112788095Y-86783390D01*
X112788095Y-86783390D02*
X112835714Y-86592914D01*
X112835714Y-86592914D02*
X112883333Y-86497676D01*
X112883333Y-86497676D02*
X112978571Y-86402438D01*
X112978571Y-86402438D02*
X113121428Y-86354819D01*
X113121428Y-86354819D02*
X113216666Y-86354819D01*
X113216666Y-86354819D02*
X113359523Y-86402438D01*
X113359523Y-86402438D02*
X113407142Y-86450057D01*
X114359523Y-87354819D02*
X113788095Y-87354819D01*
X114073809Y-87354819D02*
X114073809Y-86354819D01*
X114073809Y-86354819D02*
X113978571Y-86497676D01*
X113978571Y-86497676D02*
X113883333Y-86592914D01*
X113883333Y-86592914D02*
X113788095Y-86640533D01*
X114978571Y-86354819D02*
X115073809Y-86354819D01*
X115073809Y-86354819D02*
X115169047Y-86402438D01*
X115169047Y-86402438D02*
X115216666Y-86450057D01*
X115216666Y-86450057D02*
X115264285Y-86545295D01*
X115264285Y-86545295D02*
X115311904Y-86735771D01*
X115311904Y-86735771D02*
X115311904Y-86973866D01*
X115311904Y-86973866D02*
X115264285Y-87164342D01*
X115264285Y-87164342D02*
X115216666Y-87259580D01*
X115216666Y-87259580D02*
X115169047Y-87307200D01*
X115169047Y-87307200D02*
X115073809Y-87354819D01*
X115073809Y-87354819D02*
X114978571Y-87354819D01*
X114978571Y-87354819D02*
X114883333Y-87307200D01*
X114883333Y-87307200D02*
X114835714Y-87259580D01*
X114835714Y-87259580D02*
X114788095Y-87164342D01*
X114788095Y-87164342D02*
X114740476Y-86973866D01*
X114740476Y-86973866D02*
X114740476Y-86735771D01*
X114740476Y-86735771D02*
X114788095Y-86545295D01*
X114788095Y-86545295D02*
X114835714Y-86450057D01*
X114835714Y-86450057D02*
X114883333Y-86402438D01*
X114883333Y-86402438D02*
X114978571Y-86354819D01*
X73352142Y-95059580D02*
X73304523Y-95107200D01*
X73304523Y-95107200D02*
X73161666Y-95154819D01*
X73161666Y-95154819D02*
X73066428Y-95154819D01*
X73066428Y-95154819D02*
X72923571Y-95107200D01*
X72923571Y-95107200D02*
X72828333Y-95011961D01*
X72828333Y-95011961D02*
X72780714Y-94916723D01*
X72780714Y-94916723D02*
X72733095Y-94726247D01*
X72733095Y-94726247D02*
X72733095Y-94583390D01*
X72733095Y-94583390D02*
X72780714Y-94392914D01*
X72780714Y-94392914D02*
X72828333Y-94297676D01*
X72828333Y-94297676D02*
X72923571Y-94202438D01*
X72923571Y-94202438D02*
X73066428Y-94154819D01*
X73066428Y-94154819D02*
X73161666Y-94154819D01*
X73161666Y-94154819D02*
X73304523Y-94202438D01*
X73304523Y-94202438D02*
X73352142Y-94250057D01*
X73685476Y-94154819D02*
X74304523Y-94154819D01*
X74304523Y-94154819D02*
X73971190Y-94535771D01*
X73971190Y-94535771D02*
X74114047Y-94535771D01*
X74114047Y-94535771D02*
X74209285Y-94583390D01*
X74209285Y-94583390D02*
X74256904Y-94631009D01*
X74256904Y-94631009D02*
X74304523Y-94726247D01*
X74304523Y-94726247D02*
X74304523Y-94964342D01*
X74304523Y-94964342D02*
X74256904Y-95059580D01*
X74256904Y-95059580D02*
X74209285Y-95107200D01*
X74209285Y-95107200D02*
X74114047Y-95154819D01*
X74114047Y-95154819D02*
X73828333Y-95154819D01*
X73828333Y-95154819D02*
X73733095Y-95107200D01*
X73733095Y-95107200D02*
X73685476Y-95059580D01*
X75161666Y-94154819D02*
X74971190Y-94154819D01*
X74971190Y-94154819D02*
X74875952Y-94202438D01*
X74875952Y-94202438D02*
X74828333Y-94250057D01*
X74828333Y-94250057D02*
X74733095Y-94392914D01*
X74733095Y-94392914D02*
X74685476Y-94583390D01*
X74685476Y-94583390D02*
X74685476Y-94964342D01*
X74685476Y-94964342D02*
X74733095Y-95059580D01*
X74733095Y-95059580D02*
X74780714Y-95107200D01*
X74780714Y-95107200D02*
X74875952Y-95154819D01*
X74875952Y-95154819D02*
X75066428Y-95154819D01*
X75066428Y-95154819D02*
X75161666Y-95107200D01*
X75161666Y-95107200D02*
X75209285Y-95059580D01*
X75209285Y-95059580D02*
X75256904Y-94964342D01*
X75256904Y-94964342D02*
X75256904Y-94726247D01*
X75256904Y-94726247D02*
X75209285Y-94631009D01*
X75209285Y-94631009D02*
X75161666Y-94583390D01*
X75161666Y-94583390D02*
X75066428Y-94535771D01*
X75066428Y-94535771D02*
X74875952Y-94535771D01*
X74875952Y-94535771D02*
X74780714Y-94583390D01*
X74780714Y-94583390D02*
X74733095Y-94631009D01*
X74733095Y-94631009D02*
X74685476Y-94726247D01*
X132357142Y-61954819D02*
X132023809Y-61478628D01*
X131785714Y-61954819D02*
X131785714Y-60954819D01*
X131785714Y-60954819D02*
X132166666Y-60954819D01*
X132166666Y-60954819D02*
X132261904Y-61002438D01*
X132261904Y-61002438D02*
X132309523Y-61050057D01*
X132309523Y-61050057D02*
X132357142Y-61145295D01*
X132357142Y-61145295D02*
X132357142Y-61288152D01*
X132357142Y-61288152D02*
X132309523Y-61383390D01*
X132309523Y-61383390D02*
X132261904Y-61431009D01*
X132261904Y-61431009D02*
X132166666Y-61478628D01*
X132166666Y-61478628D02*
X131785714Y-61478628D01*
X133309523Y-61954819D02*
X132738095Y-61954819D01*
X133023809Y-61954819D02*
X133023809Y-60954819D01*
X133023809Y-60954819D02*
X132928571Y-61097676D01*
X132928571Y-61097676D02*
X132833333Y-61192914D01*
X132833333Y-61192914D02*
X132738095Y-61240533D01*
X133928571Y-60954819D02*
X134023809Y-60954819D01*
X134023809Y-60954819D02*
X134119047Y-61002438D01*
X134119047Y-61002438D02*
X134166666Y-61050057D01*
X134166666Y-61050057D02*
X134214285Y-61145295D01*
X134214285Y-61145295D02*
X134261904Y-61335771D01*
X134261904Y-61335771D02*
X134261904Y-61573866D01*
X134261904Y-61573866D02*
X134214285Y-61764342D01*
X134214285Y-61764342D02*
X134166666Y-61859580D01*
X134166666Y-61859580D02*
X134119047Y-61907200D01*
X134119047Y-61907200D02*
X134023809Y-61954819D01*
X134023809Y-61954819D02*
X133928571Y-61954819D01*
X133928571Y-61954819D02*
X133833333Y-61907200D01*
X133833333Y-61907200D02*
X133785714Y-61859580D01*
X133785714Y-61859580D02*
X133738095Y-61764342D01*
X133738095Y-61764342D02*
X133690476Y-61573866D01*
X133690476Y-61573866D02*
X133690476Y-61335771D01*
X133690476Y-61335771D02*
X133738095Y-61145295D01*
X133738095Y-61145295D02*
X133785714Y-61050057D01*
X133785714Y-61050057D02*
X133833333Y-61002438D01*
X133833333Y-61002438D02*
X133928571Y-60954819D01*
X130416666Y-67204819D02*
X130416666Y-67919104D01*
X130416666Y-67919104D02*
X130369047Y-68061961D01*
X130369047Y-68061961D02*
X130273809Y-68157200D01*
X130273809Y-68157200D02*
X130130952Y-68204819D01*
X130130952Y-68204819D02*
X130035714Y-68204819D01*
X130892857Y-68204819D02*
X130892857Y-67204819D01*
X130892857Y-67204819D02*
X131273809Y-67204819D01*
X131273809Y-67204819D02*
X131369047Y-67252438D01*
X131369047Y-67252438D02*
X131416666Y-67300057D01*
X131416666Y-67300057D02*
X131464285Y-67395295D01*
X131464285Y-67395295D02*
X131464285Y-67538152D01*
X131464285Y-67538152D02*
X131416666Y-67633390D01*
X131416666Y-67633390D02*
X131369047Y-67681009D01*
X131369047Y-67681009D02*
X131273809Y-67728628D01*
X131273809Y-67728628D02*
X130892857Y-67728628D01*
X131797619Y-67204819D02*
X132416666Y-67204819D01*
X132416666Y-67204819D02*
X132083333Y-67585771D01*
X132083333Y-67585771D02*
X132226190Y-67585771D01*
X132226190Y-67585771D02*
X132321428Y-67633390D01*
X132321428Y-67633390D02*
X132369047Y-67681009D01*
X132369047Y-67681009D02*
X132416666Y-67776247D01*
X132416666Y-67776247D02*
X132416666Y-68014342D01*
X132416666Y-68014342D02*
X132369047Y-68109580D01*
X132369047Y-68109580D02*
X132321428Y-68157200D01*
X132321428Y-68157200D02*
X132226190Y-68204819D01*
X132226190Y-68204819D02*
X131940476Y-68204819D01*
X131940476Y-68204819D02*
X131845238Y-68157200D01*
X131845238Y-68157200D02*
X131797619Y-68109580D01*
X128847618Y-69654819D02*
X128514285Y-69178628D01*
X128276190Y-69654819D02*
X128276190Y-68654819D01*
X128276190Y-68654819D02*
X128657142Y-68654819D01*
X128657142Y-68654819D02*
X128752380Y-68702438D01*
X128752380Y-68702438D02*
X128799999Y-68750057D01*
X128799999Y-68750057D02*
X128847618Y-68845295D01*
X128847618Y-68845295D02*
X128847618Y-68988152D01*
X128847618Y-68988152D02*
X128799999Y-69083390D01*
X128799999Y-69083390D02*
X128752380Y-69131009D01*
X128752380Y-69131009D02*
X128657142Y-69178628D01*
X128657142Y-69178628D02*
X128276190Y-69178628D01*
X129276190Y-69131009D02*
X129609523Y-69131009D01*
X129752380Y-69654819D02*
X129276190Y-69654819D01*
X129276190Y-69654819D02*
X129276190Y-68654819D01*
X129276190Y-68654819D02*
X129752380Y-68654819D01*
X130133333Y-69607200D02*
X130276190Y-69654819D01*
X130276190Y-69654819D02*
X130514285Y-69654819D01*
X130514285Y-69654819D02*
X130609523Y-69607200D01*
X130609523Y-69607200D02*
X130657142Y-69559580D01*
X130657142Y-69559580D02*
X130704761Y-69464342D01*
X130704761Y-69464342D02*
X130704761Y-69369104D01*
X130704761Y-69369104D02*
X130657142Y-69273866D01*
X130657142Y-69273866D02*
X130609523Y-69226247D01*
X130609523Y-69226247D02*
X130514285Y-69178628D01*
X130514285Y-69178628D02*
X130323809Y-69131009D01*
X130323809Y-69131009D02*
X130228571Y-69083390D01*
X130228571Y-69083390D02*
X130180952Y-69035771D01*
X130180952Y-69035771D02*
X130133333Y-68940533D01*
X130133333Y-68940533D02*
X130133333Y-68845295D01*
X130133333Y-68845295D02*
X130180952Y-68750057D01*
X130180952Y-68750057D02*
X130228571Y-68702438D01*
X130228571Y-68702438D02*
X130323809Y-68654819D01*
X130323809Y-68654819D02*
X130561904Y-68654819D01*
X130561904Y-68654819D02*
X130704761Y-68702438D01*
X131133333Y-69131009D02*
X131466666Y-69131009D01*
X131609523Y-69654819D02*
X131133333Y-69654819D01*
X131133333Y-69654819D02*
X131133333Y-68654819D01*
X131133333Y-68654819D02*
X131609523Y-68654819D01*
X131895238Y-68654819D02*
X132466666Y-68654819D01*
X132180952Y-69654819D02*
X132180952Y-68654819D01*
X92092142Y-48659580D02*
X92044523Y-48707200D01*
X92044523Y-48707200D02*
X91901666Y-48754819D01*
X91901666Y-48754819D02*
X91806428Y-48754819D01*
X91806428Y-48754819D02*
X91663571Y-48707200D01*
X91663571Y-48707200D02*
X91568333Y-48611961D01*
X91568333Y-48611961D02*
X91520714Y-48516723D01*
X91520714Y-48516723D02*
X91473095Y-48326247D01*
X91473095Y-48326247D02*
X91473095Y-48183390D01*
X91473095Y-48183390D02*
X91520714Y-47992914D01*
X91520714Y-47992914D02*
X91568333Y-47897676D01*
X91568333Y-47897676D02*
X91663571Y-47802438D01*
X91663571Y-47802438D02*
X91806428Y-47754819D01*
X91806428Y-47754819D02*
X91901666Y-47754819D01*
X91901666Y-47754819D02*
X92044523Y-47802438D01*
X92044523Y-47802438D02*
X92092142Y-47850057D01*
X92473095Y-47850057D02*
X92520714Y-47802438D01*
X92520714Y-47802438D02*
X92615952Y-47754819D01*
X92615952Y-47754819D02*
X92854047Y-47754819D01*
X92854047Y-47754819D02*
X92949285Y-47802438D01*
X92949285Y-47802438D02*
X92996904Y-47850057D01*
X92996904Y-47850057D02*
X93044523Y-47945295D01*
X93044523Y-47945295D02*
X93044523Y-48040533D01*
X93044523Y-48040533D02*
X92996904Y-48183390D01*
X92996904Y-48183390D02*
X92425476Y-48754819D01*
X92425476Y-48754819D02*
X93044523Y-48754819D01*
X93615952Y-48183390D02*
X93520714Y-48135771D01*
X93520714Y-48135771D02*
X93473095Y-48088152D01*
X93473095Y-48088152D02*
X93425476Y-47992914D01*
X93425476Y-47992914D02*
X93425476Y-47945295D01*
X93425476Y-47945295D02*
X93473095Y-47850057D01*
X93473095Y-47850057D02*
X93520714Y-47802438D01*
X93520714Y-47802438D02*
X93615952Y-47754819D01*
X93615952Y-47754819D02*
X93806428Y-47754819D01*
X93806428Y-47754819D02*
X93901666Y-47802438D01*
X93901666Y-47802438D02*
X93949285Y-47850057D01*
X93949285Y-47850057D02*
X93996904Y-47945295D01*
X93996904Y-47945295D02*
X93996904Y-47992914D01*
X93996904Y-47992914D02*
X93949285Y-48088152D01*
X93949285Y-48088152D02*
X93901666Y-48135771D01*
X93901666Y-48135771D02*
X93806428Y-48183390D01*
X93806428Y-48183390D02*
X93615952Y-48183390D01*
X93615952Y-48183390D02*
X93520714Y-48231009D01*
X93520714Y-48231009D02*
X93473095Y-48278628D01*
X93473095Y-48278628D02*
X93425476Y-48373866D01*
X93425476Y-48373866D02*
X93425476Y-48564342D01*
X93425476Y-48564342D02*
X93473095Y-48659580D01*
X93473095Y-48659580D02*
X93520714Y-48707200D01*
X93520714Y-48707200D02*
X93615952Y-48754819D01*
X93615952Y-48754819D02*
X93806428Y-48754819D01*
X93806428Y-48754819D02*
X93901666Y-48707200D01*
X93901666Y-48707200D02*
X93949285Y-48659580D01*
X93949285Y-48659580D02*
X93996904Y-48564342D01*
X93996904Y-48564342D02*
X93996904Y-48373866D01*
X93996904Y-48373866D02*
X93949285Y-48278628D01*
X93949285Y-48278628D02*
X93901666Y-48231009D01*
X93901666Y-48231009D02*
X93806428Y-48183390D01*
X134916666Y-71104819D02*
X134916666Y-71819104D01*
X134916666Y-71819104D02*
X134869047Y-71961961D01*
X134869047Y-71961961D02*
X134773809Y-72057200D01*
X134773809Y-72057200D02*
X134630952Y-72104819D01*
X134630952Y-72104819D02*
X134535714Y-72104819D01*
X135392857Y-72104819D02*
X135392857Y-71104819D01*
X135392857Y-71104819D02*
X135773809Y-71104819D01*
X135773809Y-71104819D02*
X135869047Y-71152438D01*
X135869047Y-71152438D02*
X135916666Y-71200057D01*
X135916666Y-71200057D02*
X135964285Y-71295295D01*
X135964285Y-71295295D02*
X135964285Y-71438152D01*
X135964285Y-71438152D02*
X135916666Y-71533390D01*
X135916666Y-71533390D02*
X135869047Y-71581009D01*
X135869047Y-71581009D02*
X135773809Y-71628628D01*
X135773809Y-71628628D02*
X135392857Y-71628628D01*
X136345238Y-71200057D02*
X136392857Y-71152438D01*
X136392857Y-71152438D02*
X136488095Y-71104819D01*
X136488095Y-71104819D02*
X136726190Y-71104819D01*
X136726190Y-71104819D02*
X136821428Y-71152438D01*
X136821428Y-71152438D02*
X136869047Y-71200057D01*
X136869047Y-71200057D02*
X136916666Y-71295295D01*
X136916666Y-71295295D02*
X136916666Y-71390533D01*
X136916666Y-71390533D02*
X136869047Y-71533390D01*
X136869047Y-71533390D02*
X136297619Y-72104819D01*
X136297619Y-72104819D02*
X136916666Y-72104819D01*
X134514285Y-73031009D02*
X134180952Y-73031009D01*
X134180952Y-73554819D02*
X134180952Y-72554819D01*
X134180952Y-72554819D02*
X134657142Y-72554819D01*
X135514285Y-73554819D02*
X135038095Y-73554819D01*
X135038095Y-73554819D02*
X135038095Y-72554819D01*
X135847619Y-72554819D02*
X135847619Y-73364342D01*
X135847619Y-73364342D02*
X135895238Y-73459580D01*
X135895238Y-73459580D02*
X135942857Y-73507200D01*
X135942857Y-73507200D02*
X136038095Y-73554819D01*
X136038095Y-73554819D02*
X136228571Y-73554819D01*
X136228571Y-73554819D02*
X136323809Y-73507200D01*
X136323809Y-73507200D02*
X136371428Y-73459580D01*
X136371428Y-73459580D02*
X136419047Y-73364342D01*
X136419047Y-73364342D02*
X136419047Y-72554819D01*
X136847619Y-73507200D02*
X136990476Y-73554819D01*
X136990476Y-73554819D02*
X137228571Y-73554819D01*
X137228571Y-73554819D02*
X137323809Y-73507200D01*
X137323809Y-73507200D02*
X137371428Y-73459580D01*
X137371428Y-73459580D02*
X137419047Y-73364342D01*
X137419047Y-73364342D02*
X137419047Y-73269104D01*
X137419047Y-73269104D02*
X137371428Y-73173866D01*
X137371428Y-73173866D02*
X137323809Y-73126247D01*
X137323809Y-73126247D02*
X137228571Y-73078628D01*
X137228571Y-73078628D02*
X137038095Y-73031009D01*
X137038095Y-73031009D02*
X136942857Y-72983390D01*
X136942857Y-72983390D02*
X136895238Y-72935771D01*
X136895238Y-72935771D02*
X136847619Y-72840533D01*
X136847619Y-72840533D02*
X136847619Y-72745295D01*
X136847619Y-72745295D02*
X136895238Y-72650057D01*
X136895238Y-72650057D02*
X136942857Y-72602438D01*
X136942857Y-72602438D02*
X137038095Y-72554819D01*
X137038095Y-72554819D02*
X137276190Y-72554819D01*
X137276190Y-72554819D02*
X137419047Y-72602438D01*
X137847619Y-73554819D02*
X137847619Y-72554819D01*
X137847619Y-73031009D02*
X138419047Y-73031009D01*
X138419047Y-73554819D02*
X138419047Y-72554819D01*
X56654819Y-51761904D02*
X56654819Y-51190476D01*
X57654819Y-51476190D02*
X56654819Y-51476190D01*
X57654819Y-50857142D02*
X56654819Y-50857142D01*
X56654819Y-50857142D02*
X56654819Y-50476190D01*
X56654819Y-50476190D02*
X56702438Y-50380952D01*
X56702438Y-50380952D02*
X56750057Y-50333333D01*
X56750057Y-50333333D02*
X56845295Y-50285714D01*
X56845295Y-50285714D02*
X56988152Y-50285714D01*
X56988152Y-50285714D02*
X57083390Y-50333333D01*
X57083390Y-50333333D02*
X57131009Y-50380952D01*
X57131009Y-50380952D02*
X57178628Y-50476190D01*
X57178628Y-50476190D02*
X57178628Y-50857142D01*
X57083390Y-49714285D02*
X57035771Y-49809523D01*
X57035771Y-49809523D02*
X56988152Y-49857142D01*
X56988152Y-49857142D02*
X56892914Y-49904761D01*
X56892914Y-49904761D02*
X56845295Y-49904761D01*
X56845295Y-49904761D02*
X56750057Y-49857142D01*
X56750057Y-49857142D02*
X56702438Y-49809523D01*
X56702438Y-49809523D02*
X56654819Y-49714285D01*
X56654819Y-49714285D02*
X56654819Y-49523809D01*
X56654819Y-49523809D02*
X56702438Y-49428571D01*
X56702438Y-49428571D02*
X56750057Y-49380952D01*
X56750057Y-49380952D02*
X56845295Y-49333333D01*
X56845295Y-49333333D02*
X56892914Y-49333333D01*
X56892914Y-49333333D02*
X56988152Y-49380952D01*
X56988152Y-49380952D02*
X57035771Y-49428571D01*
X57035771Y-49428571D02*
X57083390Y-49523809D01*
X57083390Y-49523809D02*
X57083390Y-49714285D01*
X57083390Y-49714285D02*
X57131009Y-49809523D01*
X57131009Y-49809523D02*
X57178628Y-49857142D01*
X57178628Y-49857142D02*
X57273866Y-49904761D01*
X57273866Y-49904761D02*
X57464342Y-49904761D01*
X57464342Y-49904761D02*
X57559580Y-49857142D01*
X57559580Y-49857142D02*
X57607200Y-49809523D01*
X57607200Y-49809523D02*
X57654819Y-49714285D01*
X57654819Y-49714285D02*
X57654819Y-49523809D01*
X57654819Y-49523809D02*
X57607200Y-49428571D01*
X57607200Y-49428571D02*
X57559580Y-49380952D01*
X57559580Y-49380952D02*
X57464342Y-49333333D01*
X57464342Y-49333333D02*
X57273866Y-49333333D01*
X57273866Y-49333333D02*
X57178628Y-49380952D01*
X57178628Y-49380952D02*
X57131009Y-49428571D01*
X57131009Y-49428571D02*
X57083390Y-49523809D01*
X58854819Y-52933332D02*
X57854819Y-52933332D01*
X58759580Y-51885714D02*
X58807200Y-51933333D01*
X58807200Y-51933333D02*
X58854819Y-52076190D01*
X58854819Y-52076190D02*
X58854819Y-52171428D01*
X58854819Y-52171428D02*
X58807200Y-52314285D01*
X58807200Y-52314285D02*
X58711961Y-52409523D01*
X58711961Y-52409523D02*
X58616723Y-52457142D01*
X58616723Y-52457142D02*
X58426247Y-52504761D01*
X58426247Y-52504761D02*
X58283390Y-52504761D01*
X58283390Y-52504761D02*
X58092914Y-52457142D01*
X58092914Y-52457142D02*
X57997676Y-52409523D01*
X57997676Y-52409523D02*
X57902438Y-52314285D01*
X57902438Y-52314285D02*
X57854819Y-52171428D01*
X57854819Y-52171428D02*
X57854819Y-52076190D01*
X57854819Y-52076190D02*
X57902438Y-51933333D01*
X57902438Y-51933333D02*
X57950057Y-51885714D01*
X58950057Y-51695238D02*
X58950057Y-50933333D01*
X58759580Y-50123809D02*
X58807200Y-50171428D01*
X58807200Y-50171428D02*
X58854819Y-50314285D01*
X58854819Y-50314285D02*
X58854819Y-50409523D01*
X58854819Y-50409523D02*
X58807200Y-50552380D01*
X58807200Y-50552380D02*
X58711961Y-50647618D01*
X58711961Y-50647618D02*
X58616723Y-50695237D01*
X58616723Y-50695237D02*
X58426247Y-50742856D01*
X58426247Y-50742856D02*
X58283390Y-50742856D01*
X58283390Y-50742856D02*
X58092914Y-50695237D01*
X58092914Y-50695237D02*
X57997676Y-50647618D01*
X57997676Y-50647618D02*
X57902438Y-50552380D01*
X57902438Y-50552380D02*
X57854819Y-50409523D01*
X57854819Y-50409523D02*
X57854819Y-50314285D01*
X57854819Y-50314285D02*
X57902438Y-50171428D01*
X57902438Y-50171428D02*
X57950057Y-50123809D01*
X58331009Y-49695237D02*
X58331009Y-49361904D01*
X58854819Y-49219047D02*
X58854819Y-49695237D01*
X58854819Y-49695237D02*
X57854819Y-49695237D01*
X57854819Y-49695237D02*
X57854819Y-49219047D01*
X137768333Y-48259580D02*
X137720714Y-48307200D01*
X137720714Y-48307200D02*
X137577857Y-48354819D01*
X137577857Y-48354819D02*
X137482619Y-48354819D01*
X137482619Y-48354819D02*
X137339762Y-48307200D01*
X137339762Y-48307200D02*
X137244524Y-48211961D01*
X137244524Y-48211961D02*
X137196905Y-48116723D01*
X137196905Y-48116723D02*
X137149286Y-47926247D01*
X137149286Y-47926247D02*
X137149286Y-47783390D01*
X137149286Y-47783390D02*
X137196905Y-47592914D01*
X137196905Y-47592914D02*
X137244524Y-47497676D01*
X137244524Y-47497676D02*
X137339762Y-47402438D01*
X137339762Y-47402438D02*
X137482619Y-47354819D01*
X137482619Y-47354819D02*
X137577857Y-47354819D01*
X137577857Y-47354819D02*
X137720714Y-47402438D01*
X137720714Y-47402438D02*
X137768333Y-47450057D01*
X138101667Y-47354819D02*
X138720714Y-47354819D01*
X138720714Y-47354819D02*
X138387381Y-47735771D01*
X138387381Y-47735771D02*
X138530238Y-47735771D01*
X138530238Y-47735771D02*
X138625476Y-47783390D01*
X138625476Y-47783390D02*
X138673095Y-47831009D01*
X138673095Y-47831009D02*
X138720714Y-47926247D01*
X138720714Y-47926247D02*
X138720714Y-48164342D01*
X138720714Y-48164342D02*
X138673095Y-48259580D01*
X138673095Y-48259580D02*
X138625476Y-48307200D01*
X138625476Y-48307200D02*
X138530238Y-48354819D01*
X138530238Y-48354819D02*
X138244524Y-48354819D01*
X138244524Y-48354819D02*
X138149286Y-48307200D01*
X138149286Y-48307200D02*
X138101667Y-48259580D01*
X83968333Y-48259580D02*
X83920714Y-48307200D01*
X83920714Y-48307200D02*
X83777857Y-48354819D01*
X83777857Y-48354819D02*
X83682619Y-48354819D01*
X83682619Y-48354819D02*
X83539762Y-48307200D01*
X83539762Y-48307200D02*
X83444524Y-48211961D01*
X83444524Y-48211961D02*
X83396905Y-48116723D01*
X83396905Y-48116723D02*
X83349286Y-47926247D01*
X83349286Y-47926247D02*
X83349286Y-47783390D01*
X83349286Y-47783390D02*
X83396905Y-47592914D01*
X83396905Y-47592914D02*
X83444524Y-47497676D01*
X83444524Y-47497676D02*
X83539762Y-47402438D01*
X83539762Y-47402438D02*
X83682619Y-47354819D01*
X83682619Y-47354819D02*
X83777857Y-47354819D01*
X83777857Y-47354819D02*
X83920714Y-47402438D01*
X83920714Y-47402438D02*
X83968333Y-47450057D01*
X84825476Y-47688152D02*
X84825476Y-48354819D01*
X84587381Y-47307200D02*
X84349286Y-48021485D01*
X84349286Y-48021485D02*
X84968333Y-48021485D01*
X131304761Y-63550057D02*
X131209523Y-63502438D01*
X131209523Y-63502438D02*
X131114285Y-63407200D01*
X131114285Y-63407200D02*
X130971428Y-63264342D01*
X130971428Y-63264342D02*
X130876190Y-63216723D01*
X130876190Y-63216723D02*
X130780952Y-63216723D01*
X130828571Y-63454819D02*
X130733333Y-63407200D01*
X130733333Y-63407200D02*
X130638095Y-63311961D01*
X130638095Y-63311961D02*
X130590476Y-63121485D01*
X130590476Y-63121485D02*
X130590476Y-62788152D01*
X130590476Y-62788152D02*
X130638095Y-62597676D01*
X130638095Y-62597676D02*
X130733333Y-62502438D01*
X130733333Y-62502438D02*
X130828571Y-62454819D01*
X130828571Y-62454819D02*
X131019047Y-62454819D01*
X131019047Y-62454819D02*
X131114285Y-62502438D01*
X131114285Y-62502438D02*
X131209523Y-62597676D01*
X131209523Y-62597676D02*
X131257142Y-62788152D01*
X131257142Y-62788152D02*
X131257142Y-63121485D01*
X131257142Y-63121485D02*
X131209523Y-63311961D01*
X131209523Y-63311961D02*
X131114285Y-63407200D01*
X131114285Y-63407200D02*
X131019047Y-63454819D01*
X131019047Y-63454819D02*
X130828571Y-63454819D01*
X132114285Y-62788152D02*
X132114285Y-63454819D01*
X131876190Y-62407200D02*
X131638095Y-63121485D01*
X131638095Y-63121485D02*
X132257142Y-63121485D01*
X130373095Y-54154819D02*
X130373095Y-54964342D01*
X130373095Y-54964342D02*
X130420714Y-55059580D01*
X130420714Y-55059580D02*
X130468333Y-55107200D01*
X130468333Y-55107200D02*
X130563571Y-55154819D01*
X130563571Y-55154819D02*
X130754047Y-55154819D01*
X130754047Y-55154819D02*
X130849285Y-55107200D01*
X130849285Y-55107200D02*
X130896904Y-55059580D01*
X130896904Y-55059580D02*
X130944523Y-54964342D01*
X130944523Y-54964342D02*
X130944523Y-54154819D01*
X131944523Y-55154819D02*
X131373095Y-55154819D01*
X131658809Y-55154819D02*
X131658809Y-54154819D01*
X131658809Y-54154819D02*
X131563571Y-54297676D01*
X131563571Y-54297676D02*
X131468333Y-54392914D01*
X131468333Y-54392914D02*
X131373095Y-54440533D01*
X77961666Y-63531009D02*
X77628333Y-63531009D01*
X77628333Y-64054819D02*
X77628333Y-63054819D01*
X77628333Y-63054819D02*
X78104523Y-63054819D01*
X78437857Y-63150057D02*
X78485476Y-63102438D01*
X78485476Y-63102438D02*
X78580714Y-63054819D01*
X78580714Y-63054819D02*
X78818809Y-63054819D01*
X78818809Y-63054819D02*
X78914047Y-63102438D01*
X78914047Y-63102438D02*
X78961666Y-63150057D01*
X78961666Y-63150057D02*
X79009285Y-63245295D01*
X79009285Y-63245295D02*
X79009285Y-63340533D01*
X79009285Y-63340533D02*
X78961666Y-63483390D01*
X78961666Y-63483390D02*
X78390238Y-64054819D01*
X78390238Y-64054819D02*
X79009285Y-64054819D01*
X135938095Y-84454819D02*
X135938095Y-85264342D01*
X135938095Y-85264342D02*
X135985714Y-85359580D01*
X135985714Y-85359580D02*
X136033333Y-85407200D01*
X136033333Y-85407200D02*
X136128571Y-85454819D01*
X136128571Y-85454819D02*
X136319047Y-85454819D01*
X136319047Y-85454819D02*
X136414285Y-85407200D01*
X136414285Y-85407200D02*
X136461904Y-85359580D01*
X136461904Y-85359580D02*
X136509523Y-85264342D01*
X136509523Y-85264342D02*
X136509523Y-84454819D01*
X137414285Y-84454819D02*
X137223809Y-84454819D01*
X137223809Y-84454819D02*
X137128571Y-84502438D01*
X137128571Y-84502438D02*
X137080952Y-84550057D01*
X137080952Y-84550057D02*
X136985714Y-84692914D01*
X136985714Y-84692914D02*
X136938095Y-84883390D01*
X136938095Y-84883390D02*
X136938095Y-85264342D01*
X136938095Y-85264342D02*
X136985714Y-85359580D01*
X136985714Y-85359580D02*
X137033333Y-85407200D01*
X137033333Y-85407200D02*
X137128571Y-85454819D01*
X137128571Y-85454819D02*
X137319047Y-85454819D01*
X137319047Y-85454819D02*
X137414285Y-85407200D01*
X137414285Y-85407200D02*
X137461904Y-85359580D01*
X137461904Y-85359580D02*
X137509523Y-85264342D01*
X137509523Y-85264342D02*
X137509523Y-85026247D01*
X137509523Y-85026247D02*
X137461904Y-84931009D01*
X137461904Y-84931009D02*
X137414285Y-84883390D01*
X137414285Y-84883390D02*
X137319047Y-84835771D01*
X137319047Y-84835771D02*
X137128571Y-84835771D01*
X137128571Y-84835771D02*
X137033333Y-84883390D01*
X137033333Y-84883390D02*
X136985714Y-84931009D01*
X136985714Y-84931009D02*
X136938095Y-85026247D01*
X139909523Y-84788152D02*
X139909523Y-85454819D01*
X139671428Y-84407200D02*
X139433333Y-85121485D01*
X139433333Y-85121485D02*
X140052380Y-85121485D01*
X140338095Y-84454819D02*
X140957142Y-84454819D01*
X140957142Y-84454819D02*
X140623809Y-84835771D01*
X140623809Y-84835771D02*
X140766666Y-84835771D01*
X140766666Y-84835771D02*
X140861904Y-84883390D01*
X140861904Y-84883390D02*
X140909523Y-84931009D01*
X140909523Y-84931009D02*
X140957142Y-85026247D01*
X140957142Y-85026247D02*
X140957142Y-85264342D01*
X140957142Y-85264342D02*
X140909523Y-85359580D01*
X140909523Y-85359580D02*
X140861904Y-85407200D01*
X140861904Y-85407200D02*
X140766666Y-85454819D01*
X140766666Y-85454819D02*
X140480952Y-85454819D01*
X140480952Y-85454819D02*
X140385714Y-85407200D01*
X140385714Y-85407200D02*
X140338095Y-85359580D01*
X141290476Y-84454819D02*
X141909523Y-84454819D01*
X141909523Y-84454819D02*
X141576190Y-84835771D01*
X141576190Y-84835771D02*
X141719047Y-84835771D01*
X141719047Y-84835771D02*
X141814285Y-84883390D01*
X141814285Y-84883390D02*
X141861904Y-84931009D01*
X141861904Y-84931009D02*
X141909523Y-85026247D01*
X141909523Y-85026247D02*
X141909523Y-85264342D01*
X141909523Y-85264342D02*
X141861904Y-85359580D01*
X141861904Y-85359580D02*
X141814285Y-85407200D01*
X141814285Y-85407200D02*
X141719047Y-85454819D01*
X141719047Y-85454819D02*
X141433333Y-85454819D01*
X141433333Y-85454819D02*
X141338095Y-85407200D01*
X141338095Y-85407200D02*
X141290476Y-85359580D01*
X142338095Y-85454819D02*
X142338095Y-84454819D01*
X142338095Y-84454819D02*
X142671428Y-85169104D01*
X142671428Y-85169104D02*
X143004761Y-84454819D01*
X143004761Y-84454819D02*
X143004761Y-85454819D01*
X143480952Y-85454819D02*
X143480952Y-84454819D01*
X143909523Y-85454819D02*
X143909523Y-84931009D01*
X143909523Y-84931009D02*
X143861904Y-84835771D01*
X143861904Y-84835771D02*
X143766666Y-84788152D01*
X143766666Y-84788152D02*
X143623809Y-84788152D01*
X143623809Y-84788152D02*
X143528571Y-84835771D01*
X143528571Y-84835771D02*
X143480952Y-84883390D01*
X144290476Y-84788152D02*
X144814285Y-84788152D01*
X144814285Y-84788152D02*
X144290476Y-85454819D01*
X144290476Y-85454819D02*
X144814285Y-85454819D01*
X90861666Y-63531009D02*
X90528333Y-63531009D01*
X90528333Y-64054819D02*
X90528333Y-63054819D01*
X90528333Y-63054819D02*
X91004523Y-63054819D01*
X91909285Y-64054819D02*
X91337857Y-64054819D01*
X91623571Y-64054819D02*
X91623571Y-63054819D01*
X91623571Y-63054819D02*
X91528333Y-63197676D01*
X91528333Y-63197676D02*
X91433095Y-63292914D01*
X91433095Y-63292914D02*
X91337857Y-63340533D01*
X97601667Y-61707200D02*
X97744524Y-61754819D01*
X97744524Y-61754819D02*
X97982619Y-61754819D01*
X97982619Y-61754819D02*
X98077857Y-61707200D01*
X98077857Y-61707200D02*
X98125476Y-61659580D01*
X98125476Y-61659580D02*
X98173095Y-61564342D01*
X98173095Y-61564342D02*
X98173095Y-61469104D01*
X98173095Y-61469104D02*
X98125476Y-61373866D01*
X98125476Y-61373866D02*
X98077857Y-61326247D01*
X98077857Y-61326247D02*
X97982619Y-61278628D01*
X97982619Y-61278628D02*
X97792143Y-61231009D01*
X97792143Y-61231009D02*
X97696905Y-61183390D01*
X97696905Y-61183390D02*
X97649286Y-61135771D01*
X97649286Y-61135771D02*
X97601667Y-61040533D01*
X97601667Y-61040533D02*
X97601667Y-60945295D01*
X97601667Y-60945295D02*
X97649286Y-60850057D01*
X97649286Y-60850057D02*
X97696905Y-60802438D01*
X97696905Y-60802438D02*
X97792143Y-60754819D01*
X97792143Y-60754819D02*
X98030238Y-60754819D01*
X98030238Y-60754819D02*
X98173095Y-60802438D01*
X98506429Y-60754819D02*
X98744524Y-61754819D01*
X98744524Y-61754819D02*
X98935000Y-61040533D01*
X98935000Y-61040533D02*
X99125476Y-61754819D01*
X99125476Y-61754819D02*
X99363572Y-60754819D01*
X100220714Y-60754819D02*
X99744524Y-60754819D01*
X99744524Y-60754819D02*
X99696905Y-61231009D01*
X99696905Y-61231009D02*
X99744524Y-61183390D01*
X99744524Y-61183390D02*
X99839762Y-61135771D01*
X99839762Y-61135771D02*
X100077857Y-61135771D01*
X100077857Y-61135771D02*
X100173095Y-61183390D01*
X100173095Y-61183390D02*
X100220714Y-61231009D01*
X100220714Y-61231009D02*
X100268333Y-61326247D01*
X100268333Y-61326247D02*
X100268333Y-61564342D01*
X100268333Y-61564342D02*
X100220714Y-61659580D01*
X100220714Y-61659580D02*
X100173095Y-61707200D01*
X100173095Y-61707200D02*
X100077857Y-61754819D01*
X100077857Y-61754819D02*
X99839762Y-61754819D01*
X99839762Y-61754819D02*
X99744524Y-61707200D01*
X99744524Y-61707200D02*
X99696905Y-61659580D01*
X97830237Y-63259580D02*
X97782618Y-63307200D01*
X97782618Y-63307200D02*
X97639761Y-63354819D01*
X97639761Y-63354819D02*
X97544523Y-63354819D01*
X97544523Y-63354819D02*
X97401666Y-63307200D01*
X97401666Y-63307200D02*
X97306428Y-63211961D01*
X97306428Y-63211961D02*
X97258809Y-63116723D01*
X97258809Y-63116723D02*
X97211190Y-62926247D01*
X97211190Y-62926247D02*
X97211190Y-62783390D01*
X97211190Y-62783390D02*
X97258809Y-62592914D01*
X97258809Y-62592914D02*
X97306428Y-62497676D01*
X97306428Y-62497676D02*
X97401666Y-62402438D01*
X97401666Y-62402438D02*
X97544523Y-62354819D01*
X97544523Y-62354819D02*
X97639761Y-62354819D01*
X97639761Y-62354819D02*
X97782618Y-62402438D01*
X97782618Y-62402438D02*
X97830237Y-62450057D01*
X98258809Y-63354819D02*
X98258809Y-62354819D01*
X98687380Y-63354819D02*
X98687380Y-62831009D01*
X98687380Y-62831009D02*
X98639761Y-62735771D01*
X98639761Y-62735771D02*
X98544523Y-62688152D01*
X98544523Y-62688152D02*
X98401666Y-62688152D01*
X98401666Y-62688152D02*
X98306428Y-62735771D01*
X98306428Y-62735771D02*
X98258809Y-62783390D01*
X99163571Y-63354819D02*
X99163571Y-62688152D01*
X99163571Y-62878628D02*
X99211190Y-62783390D01*
X99211190Y-62783390D02*
X99258809Y-62735771D01*
X99258809Y-62735771D02*
X99354047Y-62688152D01*
X99354047Y-62688152D02*
X99449285Y-62688152D01*
X100211190Y-62688152D02*
X100211190Y-63497676D01*
X100211190Y-63497676D02*
X100163571Y-63592914D01*
X100163571Y-63592914D02*
X100115952Y-63640533D01*
X100115952Y-63640533D02*
X100020714Y-63688152D01*
X100020714Y-63688152D02*
X99877857Y-63688152D01*
X99877857Y-63688152D02*
X99782619Y-63640533D01*
X100211190Y-63307200D02*
X100115952Y-63354819D01*
X100115952Y-63354819D02*
X99925476Y-63354819D01*
X99925476Y-63354819D02*
X99830238Y-63307200D01*
X99830238Y-63307200D02*
X99782619Y-63259580D01*
X99782619Y-63259580D02*
X99735000Y-63164342D01*
X99735000Y-63164342D02*
X99735000Y-62878628D01*
X99735000Y-62878628D02*
X99782619Y-62783390D01*
X99782619Y-62783390D02*
X99830238Y-62735771D01*
X99830238Y-62735771D02*
X99925476Y-62688152D01*
X99925476Y-62688152D02*
X100115952Y-62688152D01*
X100115952Y-62688152D02*
X100211190Y-62735771D01*
X147238095Y-80954819D02*
X147809523Y-80954819D01*
X147523809Y-81954819D02*
X147523809Y-80954819D01*
X148142857Y-81954819D02*
X148142857Y-80954819D01*
X148142857Y-80954819D02*
X148523809Y-80954819D01*
X148523809Y-80954819D02*
X148619047Y-81002438D01*
X148619047Y-81002438D02*
X148666666Y-81050057D01*
X148666666Y-81050057D02*
X148714285Y-81145295D01*
X148714285Y-81145295D02*
X148714285Y-81288152D01*
X148714285Y-81288152D02*
X148666666Y-81383390D01*
X148666666Y-81383390D02*
X148619047Y-81431009D01*
X148619047Y-81431009D02*
X148523809Y-81478628D01*
X148523809Y-81478628D02*
X148142857Y-81478628D01*
X149666666Y-81954819D02*
X149095238Y-81954819D01*
X149380952Y-81954819D02*
X149380952Y-80954819D01*
X149380952Y-80954819D02*
X149285714Y-81097676D01*
X149285714Y-81097676D02*
X149190476Y-81192914D01*
X149190476Y-81192914D02*
X149095238Y-81240533D01*
X147738095Y-82502438D02*
X147642857Y-82454819D01*
X147642857Y-82454819D02*
X147500000Y-82454819D01*
X147500000Y-82454819D02*
X147357143Y-82502438D01*
X147357143Y-82502438D02*
X147261905Y-82597676D01*
X147261905Y-82597676D02*
X147214286Y-82692914D01*
X147214286Y-82692914D02*
X147166667Y-82883390D01*
X147166667Y-82883390D02*
X147166667Y-83026247D01*
X147166667Y-83026247D02*
X147214286Y-83216723D01*
X147214286Y-83216723D02*
X147261905Y-83311961D01*
X147261905Y-83311961D02*
X147357143Y-83407200D01*
X147357143Y-83407200D02*
X147500000Y-83454819D01*
X147500000Y-83454819D02*
X147595238Y-83454819D01*
X147595238Y-83454819D02*
X147738095Y-83407200D01*
X147738095Y-83407200D02*
X147785714Y-83359580D01*
X147785714Y-83359580D02*
X147785714Y-83026247D01*
X147785714Y-83026247D02*
X147595238Y-83026247D01*
X148214286Y-83454819D02*
X148214286Y-82454819D01*
X148214286Y-82454819D02*
X148785714Y-83454819D01*
X148785714Y-83454819D02*
X148785714Y-82454819D01*
X149261905Y-83454819D02*
X149261905Y-82454819D01*
X149261905Y-82454819D02*
X149500000Y-82454819D01*
X149500000Y-82454819D02*
X149642857Y-82502438D01*
X149642857Y-82502438D02*
X149738095Y-82597676D01*
X149738095Y-82597676D02*
X149785714Y-82692914D01*
X149785714Y-82692914D02*
X149833333Y-82883390D01*
X149833333Y-82883390D02*
X149833333Y-83026247D01*
X149833333Y-83026247D02*
X149785714Y-83216723D01*
X149785714Y-83216723D02*
X149738095Y-83311961D01*
X149738095Y-83311961D02*
X149642857Y-83407200D01*
X149642857Y-83407200D02*
X149500000Y-83454819D01*
X149500000Y-83454819D02*
X149261905Y-83454819D01*
X135496905Y-91554819D02*
X135496905Y-92364342D01*
X135496905Y-92364342D02*
X135544524Y-92459580D01*
X135544524Y-92459580D02*
X135592143Y-92507200D01*
X135592143Y-92507200D02*
X135687381Y-92554819D01*
X135687381Y-92554819D02*
X135877857Y-92554819D01*
X135877857Y-92554819D02*
X135973095Y-92507200D01*
X135973095Y-92507200D02*
X136020714Y-92459580D01*
X136020714Y-92459580D02*
X136068333Y-92364342D01*
X136068333Y-92364342D02*
X136068333Y-91554819D01*
X137068333Y-92554819D02*
X136496905Y-92554819D01*
X136782619Y-92554819D02*
X136782619Y-91554819D01*
X136782619Y-91554819D02*
X136687381Y-91697676D01*
X136687381Y-91697676D02*
X136592143Y-91792914D01*
X136592143Y-91792914D02*
X136496905Y-91840533D01*
X138020714Y-92554819D02*
X137449286Y-92554819D01*
X137735000Y-92554819D02*
X137735000Y-91554819D01*
X137735000Y-91554819D02*
X137639762Y-91697676D01*
X137639762Y-91697676D02*
X137544524Y-91792914D01*
X137544524Y-91792914D02*
X137449286Y-91840533D01*
X139785714Y-91454819D02*
X140404761Y-91454819D01*
X140404761Y-91454819D02*
X140071428Y-91835771D01*
X140071428Y-91835771D02*
X140214285Y-91835771D01*
X140214285Y-91835771D02*
X140309523Y-91883390D01*
X140309523Y-91883390D02*
X140357142Y-91931009D01*
X140357142Y-91931009D02*
X140404761Y-92026247D01*
X140404761Y-92026247D02*
X140404761Y-92264342D01*
X140404761Y-92264342D02*
X140357142Y-92359580D01*
X140357142Y-92359580D02*
X140309523Y-92407200D01*
X140309523Y-92407200D02*
X140214285Y-92454819D01*
X140214285Y-92454819D02*
X139928571Y-92454819D01*
X139928571Y-92454819D02*
X139833333Y-92407200D01*
X139833333Y-92407200D02*
X139785714Y-92359580D01*
X141357142Y-92454819D02*
X140785714Y-92454819D01*
X141071428Y-92454819D02*
X141071428Y-91454819D01*
X141071428Y-91454819D02*
X140976190Y-91597676D01*
X140976190Y-91597676D02*
X140880952Y-91692914D01*
X140880952Y-91692914D02*
X140785714Y-91740533D01*
X142261904Y-91454819D02*
X141785714Y-91454819D01*
X141785714Y-91454819D02*
X141738095Y-91931009D01*
X141738095Y-91931009D02*
X141785714Y-91883390D01*
X141785714Y-91883390D02*
X141880952Y-91835771D01*
X141880952Y-91835771D02*
X142119047Y-91835771D01*
X142119047Y-91835771D02*
X142214285Y-91883390D01*
X142214285Y-91883390D02*
X142261904Y-91931009D01*
X142261904Y-91931009D02*
X142309523Y-92026247D01*
X142309523Y-92026247D02*
X142309523Y-92264342D01*
X142309523Y-92264342D02*
X142261904Y-92359580D01*
X142261904Y-92359580D02*
X142214285Y-92407200D01*
X142214285Y-92407200D02*
X142119047Y-92454819D01*
X142119047Y-92454819D02*
X141880952Y-92454819D01*
X141880952Y-92454819D02*
X141785714Y-92407200D01*
X141785714Y-92407200D02*
X141738095Y-92359580D01*
X142738095Y-92454819D02*
X142738095Y-91454819D01*
X142738095Y-91454819D02*
X143071428Y-92169104D01*
X143071428Y-92169104D02*
X143404761Y-91454819D01*
X143404761Y-91454819D02*
X143404761Y-92454819D01*
X143880952Y-92454819D02*
X143880952Y-91454819D01*
X144309523Y-92454819D02*
X144309523Y-91931009D01*
X144309523Y-91931009D02*
X144261904Y-91835771D01*
X144261904Y-91835771D02*
X144166666Y-91788152D01*
X144166666Y-91788152D02*
X144023809Y-91788152D01*
X144023809Y-91788152D02*
X143928571Y-91835771D01*
X143928571Y-91835771D02*
X143880952Y-91883390D01*
X144690476Y-91788152D02*
X145214285Y-91788152D01*
X145214285Y-91788152D02*
X144690476Y-92454819D01*
X144690476Y-92454819D02*
X145214285Y-92454819D01*
X123338095Y-81454819D02*
X123909523Y-81454819D01*
X123623809Y-82454819D02*
X123623809Y-81454819D01*
X124242857Y-82454819D02*
X124242857Y-81454819D01*
X124242857Y-81454819D02*
X124623809Y-81454819D01*
X124623809Y-81454819D02*
X124719047Y-81502438D01*
X124719047Y-81502438D02*
X124766666Y-81550057D01*
X124766666Y-81550057D02*
X124814285Y-81645295D01*
X124814285Y-81645295D02*
X124814285Y-81788152D01*
X124814285Y-81788152D02*
X124766666Y-81883390D01*
X124766666Y-81883390D02*
X124719047Y-81931009D01*
X124719047Y-81931009D02*
X124623809Y-81978628D01*
X124623809Y-81978628D02*
X124242857Y-81978628D01*
X125671428Y-81454819D02*
X125480952Y-81454819D01*
X125480952Y-81454819D02*
X125385714Y-81502438D01*
X125385714Y-81502438D02*
X125338095Y-81550057D01*
X125338095Y-81550057D02*
X125242857Y-81692914D01*
X125242857Y-81692914D02*
X125195238Y-81883390D01*
X125195238Y-81883390D02*
X125195238Y-82264342D01*
X125195238Y-82264342D02*
X125242857Y-82359580D01*
X125242857Y-82359580D02*
X125290476Y-82407200D01*
X125290476Y-82407200D02*
X125385714Y-82454819D01*
X125385714Y-82454819D02*
X125576190Y-82454819D01*
X125576190Y-82454819D02*
X125671428Y-82407200D01*
X125671428Y-82407200D02*
X125719047Y-82359580D01*
X125719047Y-82359580D02*
X125766666Y-82264342D01*
X125766666Y-82264342D02*
X125766666Y-82026247D01*
X125766666Y-82026247D02*
X125719047Y-81931009D01*
X125719047Y-81931009D02*
X125671428Y-81883390D01*
X125671428Y-81883390D02*
X125576190Y-81835771D01*
X125576190Y-81835771D02*
X125385714Y-81835771D01*
X125385714Y-81835771D02*
X125290476Y-81883390D01*
X125290476Y-81883390D02*
X125242857Y-81931009D01*
X125242857Y-81931009D02*
X125195238Y-82026247D01*
X128280952Y-82454819D02*
X127947619Y-81978628D01*
X127709524Y-82454819D02*
X127709524Y-81454819D01*
X127709524Y-81454819D02*
X128090476Y-81454819D01*
X128090476Y-81454819D02*
X128185714Y-81502438D01*
X128185714Y-81502438D02*
X128233333Y-81550057D01*
X128233333Y-81550057D02*
X128280952Y-81645295D01*
X128280952Y-81645295D02*
X128280952Y-81788152D01*
X128280952Y-81788152D02*
X128233333Y-81883390D01*
X128233333Y-81883390D02*
X128185714Y-81931009D01*
X128185714Y-81931009D02*
X128090476Y-81978628D01*
X128090476Y-81978628D02*
X127709524Y-81978628D01*
X129138095Y-81788152D02*
X129138095Y-82454819D01*
X128900000Y-81407200D02*
X128661905Y-82121485D01*
X128661905Y-82121485D02*
X129280952Y-82121485D01*
X129566667Y-81454819D02*
X130185714Y-81454819D01*
X130185714Y-81454819D02*
X129852381Y-81835771D01*
X129852381Y-81835771D02*
X129995238Y-81835771D01*
X129995238Y-81835771D02*
X130090476Y-81883390D01*
X130090476Y-81883390D02*
X130138095Y-81931009D01*
X130138095Y-81931009D02*
X130185714Y-82026247D01*
X130185714Y-82026247D02*
X130185714Y-82264342D01*
X130185714Y-82264342D02*
X130138095Y-82359580D01*
X130138095Y-82359580D02*
X130090476Y-82407200D01*
X130090476Y-82407200D02*
X129995238Y-82454819D01*
X129995238Y-82454819D02*
X129709524Y-82454819D01*
X129709524Y-82454819D02*
X129614286Y-82407200D01*
X129614286Y-82407200D02*
X129566667Y-82359580D01*
X130519048Y-81454819D02*
X131138095Y-81454819D01*
X131138095Y-81454819D02*
X130804762Y-81835771D01*
X130804762Y-81835771D02*
X130947619Y-81835771D01*
X130947619Y-81835771D02*
X131042857Y-81883390D01*
X131042857Y-81883390D02*
X131090476Y-81931009D01*
X131090476Y-81931009D02*
X131138095Y-82026247D01*
X131138095Y-82026247D02*
X131138095Y-82264342D01*
X131138095Y-82264342D02*
X131090476Y-82359580D01*
X131090476Y-82359580D02*
X131042857Y-82407200D01*
X131042857Y-82407200D02*
X130947619Y-82454819D01*
X130947619Y-82454819D02*
X130661905Y-82454819D01*
X130661905Y-82454819D02*
X130566667Y-82407200D01*
X130566667Y-82407200D02*
X130519048Y-82359580D01*
X140168333Y-48259580D02*
X140120714Y-48307200D01*
X140120714Y-48307200D02*
X139977857Y-48354819D01*
X139977857Y-48354819D02*
X139882619Y-48354819D01*
X139882619Y-48354819D02*
X139739762Y-48307200D01*
X139739762Y-48307200D02*
X139644524Y-48211961D01*
X139644524Y-48211961D02*
X139596905Y-48116723D01*
X139596905Y-48116723D02*
X139549286Y-47926247D01*
X139549286Y-47926247D02*
X139549286Y-47783390D01*
X139549286Y-47783390D02*
X139596905Y-47592914D01*
X139596905Y-47592914D02*
X139644524Y-47497676D01*
X139644524Y-47497676D02*
X139739762Y-47402438D01*
X139739762Y-47402438D02*
X139882619Y-47354819D01*
X139882619Y-47354819D02*
X139977857Y-47354819D01*
X139977857Y-47354819D02*
X140120714Y-47402438D01*
X140120714Y-47402438D02*
X140168333Y-47450057D01*
X141073095Y-47354819D02*
X140596905Y-47354819D01*
X140596905Y-47354819D02*
X140549286Y-47831009D01*
X140549286Y-47831009D02*
X140596905Y-47783390D01*
X140596905Y-47783390D02*
X140692143Y-47735771D01*
X140692143Y-47735771D02*
X140930238Y-47735771D01*
X140930238Y-47735771D02*
X141025476Y-47783390D01*
X141025476Y-47783390D02*
X141073095Y-47831009D01*
X141073095Y-47831009D02*
X141120714Y-47926247D01*
X141120714Y-47926247D02*
X141120714Y-48164342D01*
X141120714Y-48164342D02*
X141073095Y-48259580D01*
X141073095Y-48259580D02*
X141025476Y-48307200D01*
X141025476Y-48307200D02*
X140930238Y-48354819D01*
X140930238Y-48354819D02*
X140692143Y-48354819D01*
X140692143Y-48354819D02*
X140596905Y-48307200D01*
X140596905Y-48307200D02*
X140549286Y-48259580D01*
X64157142Y-79159580D02*
X64109523Y-79207200D01*
X64109523Y-79207200D02*
X63966666Y-79254819D01*
X63966666Y-79254819D02*
X63871428Y-79254819D01*
X63871428Y-79254819D02*
X63728571Y-79207200D01*
X63728571Y-79207200D02*
X63633333Y-79111961D01*
X63633333Y-79111961D02*
X63585714Y-79016723D01*
X63585714Y-79016723D02*
X63538095Y-78826247D01*
X63538095Y-78826247D02*
X63538095Y-78683390D01*
X63538095Y-78683390D02*
X63585714Y-78492914D01*
X63585714Y-78492914D02*
X63633333Y-78397676D01*
X63633333Y-78397676D02*
X63728571Y-78302438D01*
X63728571Y-78302438D02*
X63871428Y-78254819D01*
X63871428Y-78254819D02*
X63966666Y-78254819D01*
X63966666Y-78254819D02*
X64109523Y-78302438D01*
X64109523Y-78302438D02*
X64157142Y-78350057D01*
X64490476Y-78254819D02*
X65109523Y-78254819D01*
X65109523Y-78254819D02*
X64776190Y-78635771D01*
X64776190Y-78635771D02*
X64919047Y-78635771D01*
X64919047Y-78635771D02*
X65014285Y-78683390D01*
X65014285Y-78683390D02*
X65061904Y-78731009D01*
X65061904Y-78731009D02*
X65109523Y-78826247D01*
X65109523Y-78826247D02*
X65109523Y-79064342D01*
X65109523Y-79064342D02*
X65061904Y-79159580D01*
X65061904Y-79159580D02*
X65014285Y-79207200D01*
X65014285Y-79207200D02*
X64919047Y-79254819D01*
X64919047Y-79254819D02*
X64633333Y-79254819D01*
X64633333Y-79254819D02*
X64538095Y-79207200D01*
X64538095Y-79207200D02*
X64490476Y-79159580D01*
X65490476Y-78350057D02*
X65538095Y-78302438D01*
X65538095Y-78302438D02*
X65633333Y-78254819D01*
X65633333Y-78254819D02*
X65871428Y-78254819D01*
X65871428Y-78254819D02*
X65966666Y-78302438D01*
X65966666Y-78302438D02*
X66014285Y-78350057D01*
X66014285Y-78350057D02*
X66061904Y-78445295D01*
X66061904Y-78445295D02*
X66061904Y-78540533D01*
X66061904Y-78540533D02*
X66014285Y-78683390D01*
X66014285Y-78683390D02*
X65442857Y-79254819D01*
X65442857Y-79254819D02*
X66061904Y-79254819D01*
X85099761Y-70450057D02*
X85004523Y-70402438D01*
X85004523Y-70402438D02*
X84909285Y-70307200D01*
X84909285Y-70307200D02*
X84766428Y-70164342D01*
X84766428Y-70164342D02*
X84671190Y-70116723D01*
X84671190Y-70116723D02*
X84575952Y-70116723D01*
X84623571Y-70354819D02*
X84528333Y-70307200D01*
X84528333Y-70307200D02*
X84433095Y-70211961D01*
X84433095Y-70211961D02*
X84385476Y-70021485D01*
X84385476Y-70021485D02*
X84385476Y-69688152D01*
X84385476Y-69688152D02*
X84433095Y-69497676D01*
X84433095Y-69497676D02*
X84528333Y-69402438D01*
X84528333Y-69402438D02*
X84623571Y-69354819D01*
X84623571Y-69354819D02*
X84814047Y-69354819D01*
X84814047Y-69354819D02*
X84909285Y-69402438D01*
X84909285Y-69402438D02*
X85004523Y-69497676D01*
X85004523Y-69497676D02*
X85052142Y-69688152D01*
X85052142Y-69688152D02*
X85052142Y-70021485D01*
X85052142Y-70021485D02*
X85004523Y-70211961D01*
X85004523Y-70211961D02*
X84909285Y-70307200D01*
X84909285Y-70307200D02*
X84814047Y-70354819D01*
X84814047Y-70354819D02*
X84623571Y-70354819D01*
X85433095Y-69450057D02*
X85480714Y-69402438D01*
X85480714Y-69402438D02*
X85575952Y-69354819D01*
X85575952Y-69354819D02*
X85814047Y-69354819D01*
X85814047Y-69354819D02*
X85909285Y-69402438D01*
X85909285Y-69402438D02*
X85956904Y-69450057D01*
X85956904Y-69450057D02*
X86004523Y-69545295D01*
X86004523Y-69545295D02*
X86004523Y-69640533D01*
X86004523Y-69640533D02*
X85956904Y-69783390D01*
X85956904Y-69783390D02*
X85385476Y-70354819D01*
X85385476Y-70354819D02*
X86004523Y-70354819D01*
X145368333Y-48059580D02*
X145320714Y-48107200D01*
X145320714Y-48107200D02*
X145177857Y-48154819D01*
X145177857Y-48154819D02*
X145082619Y-48154819D01*
X145082619Y-48154819D02*
X144939762Y-48107200D01*
X144939762Y-48107200D02*
X144844524Y-48011961D01*
X144844524Y-48011961D02*
X144796905Y-47916723D01*
X144796905Y-47916723D02*
X144749286Y-47726247D01*
X144749286Y-47726247D02*
X144749286Y-47583390D01*
X144749286Y-47583390D02*
X144796905Y-47392914D01*
X144796905Y-47392914D02*
X144844524Y-47297676D01*
X144844524Y-47297676D02*
X144939762Y-47202438D01*
X144939762Y-47202438D02*
X145082619Y-47154819D01*
X145082619Y-47154819D02*
X145177857Y-47154819D01*
X145177857Y-47154819D02*
X145320714Y-47202438D01*
X145320714Y-47202438D02*
X145368333Y-47250057D01*
X146225476Y-47154819D02*
X146035000Y-47154819D01*
X146035000Y-47154819D02*
X145939762Y-47202438D01*
X145939762Y-47202438D02*
X145892143Y-47250057D01*
X145892143Y-47250057D02*
X145796905Y-47392914D01*
X145796905Y-47392914D02*
X145749286Y-47583390D01*
X145749286Y-47583390D02*
X145749286Y-47964342D01*
X145749286Y-47964342D02*
X145796905Y-48059580D01*
X145796905Y-48059580D02*
X145844524Y-48107200D01*
X145844524Y-48107200D02*
X145939762Y-48154819D01*
X145939762Y-48154819D02*
X146130238Y-48154819D01*
X146130238Y-48154819D02*
X146225476Y-48107200D01*
X146225476Y-48107200D02*
X146273095Y-48059580D01*
X146273095Y-48059580D02*
X146320714Y-47964342D01*
X146320714Y-47964342D02*
X146320714Y-47726247D01*
X146320714Y-47726247D02*
X146273095Y-47631009D01*
X146273095Y-47631009D02*
X146225476Y-47583390D01*
X146225476Y-47583390D02*
X146130238Y-47535771D01*
X146130238Y-47535771D02*
X145939762Y-47535771D01*
X145939762Y-47535771D02*
X145844524Y-47583390D01*
X145844524Y-47583390D02*
X145796905Y-47631009D01*
X145796905Y-47631009D02*
X145749286Y-47726247D01*
X56649819Y-56361904D02*
X56649819Y-55790476D01*
X57649819Y-56076190D02*
X56649819Y-56076190D01*
X57649819Y-55457142D02*
X56649819Y-55457142D01*
X56649819Y-55457142D02*
X56649819Y-55076190D01*
X56649819Y-55076190D02*
X56697438Y-54980952D01*
X56697438Y-54980952D02*
X56745057Y-54933333D01*
X56745057Y-54933333D02*
X56840295Y-54885714D01*
X56840295Y-54885714D02*
X56983152Y-54885714D01*
X56983152Y-54885714D02*
X57078390Y-54933333D01*
X57078390Y-54933333D02*
X57126009Y-54980952D01*
X57126009Y-54980952D02*
X57173628Y-55076190D01*
X57173628Y-55076190D02*
X57173628Y-55457142D01*
X57649819Y-54409523D02*
X57649819Y-54219047D01*
X57649819Y-54219047D02*
X57602200Y-54123809D01*
X57602200Y-54123809D02*
X57554580Y-54076190D01*
X57554580Y-54076190D02*
X57411723Y-53980952D01*
X57411723Y-53980952D02*
X57221247Y-53933333D01*
X57221247Y-53933333D02*
X56840295Y-53933333D01*
X56840295Y-53933333D02*
X56745057Y-53980952D01*
X56745057Y-53980952D02*
X56697438Y-54028571D01*
X56697438Y-54028571D02*
X56649819Y-54123809D01*
X56649819Y-54123809D02*
X56649819Y-54314285D01*
X56649819Y-54314285D02*
X56697438Y-54409523D01*
X56697438Y-54409523D02*
X56745057Y-54457142D01*
X56745057Y-54457142D02*
X56840295Y-54504761D01*
X56840295Y-54504761D02*
X57078390Y-54504761D01*
X57078390Y-54504761D02*
X57173628Y-54457142D01*
X57173628Y-54457142D02*
X57221247Y-54409523D01*
X57221247Y-54409523D02*
X57268866Y-54314285D01*
X57268866Y-54314285D02*
X57268866Y-54123809D01*
X57268866Y-54123809D02*
X57221247Y-54028571D01*
X57221247Y-54028571D02*
X57173628Y-53980952D01*
X57173628Y-53980952D02*
X57078390Y-53933333D01*
X58754580Y-57247619D02*
X58802200Y-57295238D01*
X58802200Y-57295238D02*
X58849819Y-57438095D01*
X58849819Y-57438095D02*
X58849819Y-57533333D01*
X58849819Y-57533333D02*
X58802200Y-57676190D01*
X58802200Y-57676190D02*
X58706961Y-57771428D01*
X58706961Y-57771428D02*
X58611723Y-57819047D01*
X58611723Y-57819047D02*
X58421247Y-57866666D01*
X58421247Y-57866666D02*
X58278390Y-57866666D01*
X58278390Y-57866666D02*
X58087914Y-57819047D01*
X58087914Y-57819047D02*
X57992676Y-57771428D01*
X57992676Y-57771428D02*
X57897438Y-57676190D01*
X57897438Y-57676190D02*
X57849819Y-57533333D01*
X57849819Y-57533333D02*
X57849819Y-57438095D01*
X57849819Y-57438095D02*
X57897438Y-57295238D01*
X57897438Y-57295238D02*
X57945057Y-57247619D01*
X58849819Y-56819047D02*
X57849819Y-56819047D01*
X58326009Y-56819047D02*
X58326009Y-56247619D01*
X58849819Y-56247619D02*
X57849819Y-56247619D01*
X58945057Y-56009524D02*
X58945057Y-55247619D01*
X58754580Y-54438095D02*
X58802200Y-54485714D01*
X58802200Y-54485714D02*
X58849819Y-54628571D01*
X58849819Y-54628571D02*
X58849819Y-54723809D01*
X58849819Y-54723809D02*
X58802200Y-54866666D01*
X58802200Y-54866666D02*
X58706961Y-54961904D01*
X58706961Y-54961904D02*
X58611723Y-55009523D01*
X58611723Y-55009523D02*
X58421247Y-55057142D01*
X58421247Y-55057142D02*
X58278390Y-55057142D01*
X58278390Y-55057142D02*
X58087914Y-55009523D01*
X58087914Y-55009523D02*
X57992676Y-54961904D01*
X57992676Y-54961904D02*
X57897438Y-54866666D01*
X57897438Y-54866666D02*
X57849819Y-54723809D01*
X57849819Y-54723809D02*
X57849819Y-54628571D01*
X57849819Y-54628571D02*
X57897438Y-54485714D01*
X57897438Y-54485714D02*
X57945057Y-54438095D01*
X58326009Y-54009523D02*
X58326009Y-53676190D01*
X58849819Y-53533333D02*
X58849819Y-54009523D01*
X58849819Y-54009523D02*
X57849819Y-54009523D01*
X57849819Y-54009523D02*
X57849819Y-53533333D01*
X114438095Y-93454819D02*
X114438095Y-94264342D01*
X114438095Y-94264342D02*
X114485714Y-94359580D01*
X114485714Y-94359580D02*
X114533333Y-94407200D01*
X114533333Y-94407200D02*
X114628571Y-94454819D01*
X114628571Y-94454819D02*
X114819047Y-94454819D01*
X114819047Y-94454819D02*
X114914285Y-94407200D01*
X114914285Y-94407200D02*
X114961904Y-94359580D01*
X114961904Y-94359580D02*
X115009523Y-94264342D01*
X115009523Y-94264342D02*
X115009523Y-93454819D01*
X115390476Y-93454819D02*
X116009523Y-93454819D01*
X116009523Y-93454819D02*
X115676190Y-93835771D01*
X115676190Y-93835771D02*
X115819047Y-93835771D01*
X115819047Y-93835771D02*
X115914285Y-93883390D01*
X115914285Y-93883390D02*
X115961904Y-93931009D01*
X115961904Y-93931009D02*
X116009523Y-94026247D01*
X116009523Y-94026247D02*
X116009523Y-94264342D01*
X116009523Y-94264342D02*
X115961904Y-94359580D01*
X115961904Y-94359580D02*
X115914285Y-94407200D01*
X115914285Y-94407200D02*
X115819047Y-94454819D01*
X115819047Y-94454819D02*
X115533333Y-94454819D01*
X115533333Y-94454819D02*
X115438095Y-94407200D01*
X115438095Y-94407200D02*
X115390476Y-94359580D01*
X113361905Y-83206819D02*
X113933333Y-83206819D01*
X113647619Y-84206819D02*
X113647619Y-83206819D01*
X114266667Y-84206819D02*
X114266667Y-83206819D01*
X114266667Y-83206819D02*
X114647619Y-83206819D01*
X114647619Y-83206819D02*
X114742857Y-83254438D01*
X114742857Y-83254438D02*
X114790476Y-83302057D01*
X114790476Y-83302057D02*
X114838095Y-83397295D01*
X114838095Y-83397295D02*
X114838095Y-83540152D01*
X114838095Y-83540152D02*
X114790476Y-83635390D01*
X114790476Y-83635390D02*
X114742857Y-83683009D01*
X114742857Y-83683009D02*
X114647619Y-83730628D01*
X114647619Y-83730628D02*
X114266667Y-83730628D01*
X115790476Y-84206819D02*
X115219048Y-84206819D01*
X115504762Y-84206819D02*
X115504762Y-83206819D01*
X115504762Y-83206819D02*
X115409524Y-83349676D01*
X115409524Y-83349676D02*
X115314286Y-83444914D01*
X115314286Y-83444914D02*
X115219048Y-83492533D01*
X116409524Y-83206819D02*
X116504762Y-83206819D01*
X116504762Y-83206819D02*
X116600000Y-83254438D01*
X116600000Y-83254438D02*
X116647619Y-83302057D01*
X116647619Y-83302057D02*
X116695238Y-83397295D01*
X116695238Y-83397295D02*
X116742857Y-83587771D01*
X116742857Y-83587771D02*
X116742857Y-83825866D01*
X116742857Y-83825866D02*
X116695238Y-84016342D01*
X116695238Y-84016342D02*
X116647619Y-84111580D01*
X116647619Y-84111580D02*
X116600000Y-84159200D01*
X116600000Y-84159200D02*
X116504762Y-84206819D01*
X116504762Y-84206819D02*
X116409524Y-84206819D01*
X116409524Y-84206819D02*
X116314286Y-84159200D01*
X116314286Y-84159200D02*
X116266667Y-84111580D01*
X116266667Y-84111580D02*
X116219048Y-84016342D01*
X116219048Y-84016342D02*
X116171429Y-83825866D01*
X116171429Y-83825866D02*
X116171429Y-83587771D01*
X116171429Y-83587771D02*
X116219048Y-83397295D01*
X116219048Y-83397295D02*
X116266667Y-83302057D01*
X116266667Y-83302057D02*
X116314286Y-83254438D01*
X116314286Y-83254438D02*
X116409524Y-83206819D01*
X113609524Y-85654819D02*
X113609524Y-84654819D01*
X113609524Y-84654819D02*
X113942857Y-85369104D01*
X113942857Y-85369104D02*
X114276190Y-84654819D01*
X114276190Y-84654819D02*
X114276190Y-85654819D01*
X114514286Y-85750057D02*
X115276190Y-85750057D01*
X115514286Y-85131009D02*
X115847619Y-85131009D01*
X115990476Y-85654819D02*
X115514286Y-85654819D01*
X115514286Y-85654819D02*
X115514286Y-84654819D01*
X115514286Y-84654819D02*
X115990476Y-84654819D01*
X116419048Y-85654819D02*
X116419048Y-84654819D01*
X116419048Y-84654819D02*
X116990476Y-85654819D01*
X116990476Y-85654819D02*
X116990476Y-84654819D01*
X117419048Y-84988152D02*
X118133333Y-84988152D01*
X117704762Y-84559580D02*
X117419048Y-85845295D01*
X118038095Y-85416723D02*
X117323810Y-85416723D01*
X117752381Y-85845295D02*
X118038095Y-84559580D01*
X73761905Y-64356819D02*
X74333333Y-64356819D01*
X74047619Y-65356819D02*
X74047619Y-64356819D01*
X74666667Y-65356819D02*
X74666667Y-64356819D01*
X74666667Y-64356819D02*
X75047619Y-64356819D01*
X75047619Y-64356819D02*
X75142857Y-64404438D01*
X75142857Y-64404438D02*
X75190476Y-64452057D01*
X75190476Y-64452057D02*
X75238095Y-64547295D01*
X75238095Y-64547295D02*
X75238095Y-64690152D01*
X75238095Y-64690152D02*
X75190476Y-64785390D01*
X75190476Y-64785390D02*
X75142857Y-64833009D01*
X75142857Y-64833009D02*
X75047619Y-64880628D01*
X75047619Y-64880628D02*
X74666667Y-64880628D01*
X76190476Y-65356819D02*
X75619048Y-65356819D01*
X75904762Y-65356819D02*
X75904762Y-64356819D01*
X75904762Y-64356819D02*
X75809524Y-64499676D01*
X75809524Y-64499676D02*
X75714286Y-64594914D01*
X75714286Y-64594914D02*
X75619048Y-64642533D01*
X77095238Y-64356819D02*
X76619048Y-64356819D01*
X76619048Y-64356819D02*
X76571429Y-64833009D01*
X76571429Y-64833009D02*
X76619048Y-64785390D01*
X76619048Y-64785390D02*
X76714286Y-64737771D01*
X76714286Y-64737771D02*
X76952381Y-64737771D01*
X76952381Y-64737771D02*
X77047619Y-64785390D01*
X77047619Y-64785390D02*
X77095238Y-64833009D01*
X77095238Y-64833009D02*
X77142857Y-64928247D01*
X77142857Y-64928247D02*
X77142857Y-65166342D01*
X77142857Y-65166342D02*
X77095238Y-65261580D01*
X77095238Y-65261580D02*
X77047619Y-65309200D01*
X77047619Y-65309200D02*
X76952381Y-65356819D01*
X76952381Y-65356819D02*
X76714286Y-65356819D01*
X76714286Y-65356819D02*
X76619048Y-65309200D01*
X76619048Y-65309200D02*
X76571429Y-65261580D01*
X73528571Y-66559580D02*
X73480952Y-66607200D01*
X73480952Y-66607200D02*
X73338095Y-66654819D01*
X73338095Y-66654819D02*
X73242857Y-66654819D01*
X73242857Y-66654819D02*
X73100000Y-66607200D01*
X73100000Y-66607200D02*
X73004762Y-66511961D01*
X73004762Y-66511961D02*
X72957143Y-66416723D01*
X72957143Y-66416723D02*
X72909524Y-66226247D01*
X72909524Y-66226247D02*
X72909524Y-66083390D01*
X72909524Y-66083390D02*
X72957143Y-65892914D01*
X72957143Y-65892914D02*
X73004762Y-65797676D01*
X73004762Y-65797676D02*
X73100000Y-65702438D01*
X73100000Y-65702438D02*
X73242857Y-65654819D01*
X73242857Y-65654819D02*
X73338095Y-65654819D01*
X73338095Y-65654819D02*
X73480952Y-65702438D01*
X73480952Y-65702438D02*
X73528571Y-65750057D01*
X73957143Y-66654819D02*
X73957143Y-65654819D01*
X73957143Y-66131009D02*
X74528571Y-66131009D01*
X74528571Y-66654819D02*
X74528571Y-65654819D01*
X74766667Y-66750057D02*
X75528571Y-66750057D01*
X76338095Y-66559580D02*
X76290476Y-66607200D01*
X76290476Y-66607200D02*
X76147619Y-66654819D01*
X76147619Y-66654819D02*
X76052381Y-66654819D01*
X76052381Y-66654819D02*
X75909524Y-66607200D01*
X75909524Y-66607200D02*
X75814286Y-66511961D01*
X75814286Y-66511961D02*
X75766667Y-66416723D01*
X75766667Y-66416723D02*
X75719048Y-66226247D01*
X75719048Y-66226247D02*
X75719048Y-66083390D01*
X75719048Y-66083390D02*
X75766667Y-65892914D01*
X75766667Y-65892914D02*
X75814286Y-65797676D01*
X75814286Y-65797676D02*
X75909524Y-65702438D01*
X75909524Y-65702438D02*
X76052381Y-65654819D01*
X76052381Y-65654819D02*
X76147619Y-65654819D01*
X76147619Y-65654819D02*
X76290476Y-65702438D01*
X76290476Y-65702438D02*
X76338095Y-65750057D01*
X76719048Y-66607200D02*
X76861905Y-66654819D01*
X76861905Y-66654819D02*
X77100000Y-66654819D01*
X77100000Y-66654819D02*
X77195238Y-66607200D01*
X77195238Y-66607200D02*
X77242857Y-66559580D01*
X77242857Y-66559580D02*
X77290476Y-66464342D01*
X77290476Y-66464342D02*
X77290476Y-66369104D01*
X77290476Y-66369104D02*
X77242857Y-66273866D01*
X77242857Y-66273866D02*
X77195238Y-66226247D01*
X77195238Y-66226247D02*
X77100000Y-66178628D01*
X77100000Y-66178628D02*
X76909524Y-66131009D01*
X76909524Y-66131009D02*
X76814286Y-66083390D01*
X76814286Y-66083390D02*
X76766667Y-66035771D01*
X76766667Y-66035771D02*
X76719048Y-65940533D01*
X76719048Y-65940533D02*
X76719048Y-65845295D01*
X76719048Y-65845295D02*
X76766667Y-65750057D01*
X76766667Y-65750057D02*
X76814286Y-65702438D01*
X76814286Y-65702438D02*
X76909524Y-65654819D01*
X76909524Y-65654819D02*
X77147619Y-65654819D01*
X77147619Y-65654819D02*
X77290476Y-65702438D01*
X124466666Y-78154819D02*
X124466666Y-78869104D01*
X124466666Y-78869104D02*
X124419047Y-79011961D01*
X124419047Y-79011961D02*
X124323809Y-79107200D01*
X124323809Y-79107200D02*
X124180952Y-79154819D01*
X124180952Y-79154819D02*
X124085714Y-79154819D01*
X124847619Y-78154819D02*
X125514285Y-78154819D01*
X125514285Y-78154819D02*
X125085714Y-79154819D01*
X124195238Y-80554819D02*
X123719048Y-80554819D01*
X123719048Y-80554819D02*
X123719048Y-79554819D01*
X124528572Y-80554819D02*
X124528572Y-79888152D01*
X124528572Y-79554819D02*
X124480953Y-79602438D01*
X124480953Y-79602438D02*
X124528572Y-79650057D01*
X124528572Y-79650057D02*
X124576191Y-79602438D01*
X124576191Y-79602438D02*
X124528572Y-79554819D01*
X124528572Y-79554819D02*
X124528572Y-79650057D01*
X125004762Y-80554819D02*
X125004762Y-79888152D01*
X125004762Y-79983390D02*
X125052381Y-79935771D01*
X125052381Y-79935771D02*
X125147619Y-79888152D01*
X125147619Y-79888152D02*
X125290476Y-79888152D01*
X125290476Y-79888152D02*
X125385714Y-79935771D01*
X125385714Y-79935771D02*
X125433333Y-80031009D01*
X125433333Y-80031009D02*
X125433333Y-80554819D01*
X125433333Y-80031009D02*
X125480952Y-79935771D01*
X125480952Y-79935771D02*
X125576190Y-79888152D01*
X125576190Y-79888152D02*
X125719047Y-79888152D01*
X125719047Y-79888152D02*
X125814286Y-79935771D01*
X125814286Y-79935771D02*
X125861905Y-80031009D01*
X125861905Y-80031009D02*
X125861905Y-80554819D01*
X126338095Y-80554819D02*
X126338095Y-79888152D01*
X126338095Y-79554819D02*
X126290476Y-79602438D01*
X126290476Y-79602438D02*
X126338095Y-79650057D01*
X126338095Y-79650057D02*
X126385714Y-79602438D01*
X126385714Y-79602438D02*
X126338095Y-79554819D01*
X126338095Y-79554819D02*
X126338095Y-79650057D01*
X126671428Y-79888152D02*
X127052380Y-79888152D01*
X126814285Y-79554819D02*
X126814285Y-80411961D01*
X126814285Y-80411961D02*
X126861904Y-80507200D01*
X126861904Y-80507200D02*
X126957142Y-80554819D01*
X126957142Y-80554819D02*
X127052380Y-80554819D01*
X128100000Y-80507200D02*
X128242857Y-80554819D01*
X128242857Y-80554819D02*
X128480952Y-80554819D01*
X128480952Y-80554819D02*
X128576190Y-80507200D01*
X128576190Y-80507200D02*
X128623809Y-80459580D01*
X128623809Y-80459580D02*
X128671428Y-80364342D01*
X128671428Y-80364342D02*
X128671428Y-80269104D01*
X128671428Y-80269104D02*
X128623809Y-80173866D01*
X128623809Y-80173866D02*
X128576190Y-80126247D01*
X128576190Y-80126247D02*
X128480952Y-80078628D01*
X128480952Y-80078628D02*
X128290476Y-80031009D01*
X128290476Y-80031009D02*
X128195238Y-79983390D01*
X128195238Y-79983390D02*
X128147619Y-79935771D01*
X128147619Y-79935771D02*
X128100000Y-79840533D01*
X128100000Y-79840533D02*
X128100000Y-79745295D01*
X128100000Y-79745295D02*
X128147619Y-79650057D01*
X128147619Y-79650057D02*
X128195238Y-79602438D01*
X128195238Y-79602438D02*
X128290476Y-79554819D01*
X128290476Y-79554819D02*
X128528571Y-79554819D01*
X128528571Y-79554819D02*
X128671428Y-79602438D01*
X129004762Y-79888152D02*
X129195238Y-80554819D01*
X129195238Y-80554819D02*
X129385714Y-80078628D01*
X129385714Y-80078628D02*
X129576190Y-80554819D01*
X129576190Y-80554819D02*
X129766666Y-79888152D01*
X130147619Y-80554819D02*
X130147619Y-79888152D01*
X130147619Y-79554819D02*
X130100000Y-79602438D01*
X130100000Y-79602438D02*
X130147619Y-79650057D01*
X130147619Y-79650057D02*
X130195238Y-79602438D01*
X130195238Y-79602438D02*
X130147619Y-79554819D01*
X130147619Y-79554819D02*
X130147619Y-79650057D01*
X130480952Y-79888152D02*
X130861904Y-79888152D01*
X130623809Y-79554819D02*
X130623809Y-80411961D01*
X130623809Y-80411961D02*
X130671428Y-80507200D01*
X130671428Y-80507200D02*
X130766666Y-80554819D01*
X130766666Y-80554819D02*
X130861904Y-80554819D01*
X131623809Y-80507200D02*
X131528571Y-80554819D01*
X131528571Y-80554819D02*
X131338095Y-80554819D01*
X131338095Y-80554819D02*
X131242857Y-80507200D01*
X131242857Y-80507200D02*
X131195238Y-80459580D01*
X131195238Y-80459580D02*
X131147619Y-80364342D01*
X131147619Y-80364342D02*
X131147619Y-80078628D01*
X131147619Y-80078628D02*
X131195238Y-79983390D01*
X131195238Y-79983390D02*
X131242857Y-79935771D01*
X131242857Y-79935771D02*
X131338095Y-79888152D01*
X131338095Y-79888152D02*
X131528571Y-79888152D01*
X131528571Y-79888152D02*
X131623809Y-79935771D01*
X132052381Y-80554819D02*
X132052381Y-79554819D01*
X132480952Y-80554819D02*
X132480952Y-80031009D01*
X132480952Y-80031009D02*
X132433333Y-79935771D01*
X132433333Y-79935771D02*
X132338095Y-79888152D01*
X132338095Y-79888152D02*
X132195238Y-79888152D01*
X132195238Y-79888152D02*
X132100000Y-79935771D01*
X132100000Y-79935771D02*
X132052381Y-79983390D01*
X104261905Y-84254819D02*
X104833333Y-84254819D01*
X104547619Y-85254819D02*
X104547619Y-84254819D01*
X105166667Y-85254819D02*
X105166667Y-84254819D01*
X105166667Y-84254819D02*
X105547619Y-84254819D01*
X105547619Y-84254819D02*
X105642857Y-84302438D01*
X105642857Y-84302438D02*
X105690476Y-84350057D01*
X105690476Y-84350057D02*
X105738095Y-84445295D01*
X105738095Y-84445295D02*
X105738095Y-84588152D01*
X105738095Y-84588152D02*
X105690476Y-84683390D01*
X105690476Y-84683390D02*
X105642857Y-84731009D01*
X105642857Y-84731009D02*
X105547619Y-84778628D01*
X105547619Y-84778628D02*
X105166667Y-84778628D01*
X106690476Y-85254819D02*
X106119048Y-85254819D01*
X106404762Y-85254819D02*
X106404762Y-84254819D01*
X106404762Y-84254819D02*
X106309524Y-84397676D01*
X106309524Y-84397676D02*
X106214286Y-84492914D01*
X106214286Y-84492914D02*
X106119048Y-84540533D01*
X107071429Y-84350057D02*
X107119048Y-84302438D01*
X107119048Y-84302438D02*
X107214286Y-84254819D01*
X107214286Y-84254819D02*
X107452381Y-84254819D01*
X107452381Y-84254819D02*
X107547619Y-84302438D01*
X107547619Y-84302438D02*
X107595238Y-84350057D01*
X107595238Y-84350057D02*
X107642857Y-84445295D01*
X107642857Y-84445295D02*
X107642857Y-84540533D01*
X107642857Y-84540533D02*
X107595238Y-84683390D01*
X107595238Y-84683390D02*
X107023810Y-85254819D01*
X107023810Y-85254819D02*
X107642857Y-85254819D01*
X108447619Y-85254819D02*
X108447619Y-84254819D01*
X108447619Y-84254819D02*
X108780952Y-84969104D01*
X108780952Y-84969104D02*
X109114285Y-84254819D01*
X109114285Y-84254819D02*
X109114285Y-85254819D01*
X109352381Y-85350057D02*
X110114285Y-85350057D01*
X110352381Y-85254819D02*
X110352381Y-84254819D01*
X110352381Y-84254819D02*
X110590476Y-84254819D01*
X110590476Y-84254819D02*
X110733333Y-84302438D01*
X110733333Y-84302438D02*
X110828571Y-84397676D01*
X110828571Y-84397676D02*
X110876190Y-84492914D01*
X110876190Y-84492914D02*
X110923809Y-84683390D01*
X110923809Y-84683390D02*
X110923809Y-84826247D01*
X110923809Y-84826247D02*
X110876190Y-85016723D01*
X110876190Y-85016723D02*
X110828571Y-85111961D01*
X110828571Y-85111961D02*
X110733333Y-85207200D01*
X110733333Y-85207200D02*
X110590476Y-85254819D01*
X110590476Y-85254819D02*
X110352381Y-85254819D01*
X111352381Y-85254819D02*
X111352381Y-84254819D01*
X112399999Y-85254819D02*
X112066666Y-84778628D01*
X111828571Y-85254819D02*
X111828571Y-84254819D01*
X111828571Y-84254819D02*
X112209523Y-84254819D01*
X112209523Y-84254819D02*
X112304761Y-84302438D01*
X112304761Y-84302438D02*
X112352380Y-84350057D01*
X112352380Y-84350057D02*
X112399999Y-84445295D01*
X112399999Y-84445295D02*
X112399999Y-84588152D01*
X112399999Y-84588152D02*
X112352380Y-84683390D01*
X112352380Y-84683390D02*
X112304761Y-84731009D01*
X112304761Y-84731009D02*
X112209523Y-84778628D01*
X112209523Y-84778628D02*
X111828571Y-84778628D01*
X117138095Y-67054819D02*
X117138095Y-67864342D01*
X117138095Y-67864342D02*
X117185714Y-67959580D01*
X117185714Y-67959580D02*
X117233333Y-68007200D01*
X117233333Y-68007200D02*
X117328571Y-68054819D01*
X117328571Y-68054819D02*
X117519047Y-68054819D01*
X117519047Y-68054819D02*
X117614285Y-68007200D01*
X117614285Y-68007200D02*
X117661904Y-67959580D01*
X117661904Y-67959580D02*
X117709523Y-67864342D01*
X117709523Y-67864342D02*
X117709523Y-67054819D01*
X118233333Y-68054819D02*
X118423809Y-68054819D01*
X118423809Y-68054819D02*
X118519047Y-68007200D01*
X118519047Y-68007200D02*
X118566666Y-67959580D01*
X118566666Y-67959580D02*
X118661904Y-67816723D01*
X118661904Y-67816723D02*
X118709523Y-67626247D01*
X118709523Y-67626247D02*
X118709523Y-67245295D01*
X118709523Y-67245295D02*
X118661904Y-67150057D01*
X118661904Y-67150057D02*
X118614285Y-67102438D01*
X118614285Y-67102438D02*
X118519047Y-67054819D01*
X118519047Y-67054819D02*
X118328571Y-67054819D01*
X118328571Y-67054819D02*
X118233333Y-67102438D01*
X118233333Y-67102438D02*
X118185714Y-67150057D01*
X118185714Y-67150057D02*
X118138095Y-67245295D01*
X118138095Y-67245295D02*
X118138095Y-67483390D01*
X118138095Y-67483390D02*
X118185714Y-67578628D01*
X118185714Y-67578628D02*
X118233333Y-67626247D01*
X118233333Y-67626247D02*
X118328571Y-67673866D01*
X118328571Y-67673866D02*
X118519047Y-67673866D01*
X118519047Y-67673866D02*
X118614285Y-67626247D01*
X118614285Y-67626247D02*
X118661904Y-67578628D01*
X118661904Y-67578628D02*
X118709523Y-67483390D01*
X131304761Y-65250057D02*
X131209523Y-65202438D01*
X131209523Y-65202438D02*
X131114285Y-65107200D01*
X131114285Y-65107200D02*
X130971428Y-64964342D01*
X130971428Y-64964342D02*
X130876190Y-64916723D01*
X130876190Y-64916723D02*
X130780952Y-64916723D01*
X130828571Y-65154819D02*
X130733333Y-65107200D01*
X130733333Y-65107200D02*
X130638095Y-65011961D01*
X130638095Y-65011961D02*
X130590476Y-64821485D01*
X130590476Y-64821485D02*
X130590476Y-64488152D01*
X130590476Y-64488152D02*
X130638095Y-64297676D01*
X130638095Y-64297676D02*
X130733333Y-64202438D01*
X130733333Y-64202438D02*
X130828571Y-64154819D01*
X130828571Y-64154819D02*
X131019047Y-64154819D01*
X131019047Y-64154819D02*
X131114285Y-64202438D01*
X131114285Y-64202438D02*
X131209523Y-64297676D01*
X131209523Y-64297676D02*
X131257142Y-64488152D01*
X131257142Y-64488152D02*
X131257142Y-64821485D01*
X131257142Y-64821485D02*
X131209523Y-65011961D01*
X131209523Y-65011961D02*
X131114285Y-65107200D01*
X131114285Y-65107200D02*
X131019047Y-65154819D01*
X131019047Y-65154819D02*
X130828571Y-65154819D01*
X131590476Y-64154819D02*
X132209523Y-64154819D01*
X132209523Y-64154819D02*
X131876190Y-64535771D01*
X131876190Y-64535771D02*
X132019047Y-64535771D01*
X132019047Y-64535771D02*
X132114285Y-64583390D01*
X132114285Y-64583390D02*
X132161904Y-64631009D01*
X132161904Y-64631009D02*
X132209523Y-64726247D01*
X132209523Y-64726247D02*
X132209523Y-64964342D01*
X132209523Y-64964342D02*
X132161904Y-65059580D01*
X132161904Y-65059580D02*
X132114285Y-65107200D01*
X132114285Y-65107200D02*
X132019047Y-65154819D01*
X132019047Y-65154819D02*
X131733333Y-65154819D01*
X131733333Y-65154819D02*
X131638095Y-65107200D01*
X131638095Y-65107200D02*
X131590476Y-65059580D01*
X56656905Y-80954819D02*
X56656905Y-79954819D01*
X56656905Y-79954819D02*
X56895000Y-79954819D01*
X56895000Y-79954819D02*
X57037857Y-80002438D01*
X57037857Y-80002438D02*
X57133095Y-80097676D01*
X57133095Y-80097676D02*
X57180714Y-80192914D01*
X57180714Y-80192914D02*
X57228333Y-80383390D01*
X57228333Y-80383390D02*
X57228333Y-80526247D01*
X57228333Y-80526247D02*
X57180714Y-80716723D01*
X57180714Y-80716723D02*
X57133095Y-80811961D01*
X57133095Y-80811961D02*
X57037857Y-80907200D01*
X57037857Y-80907200D02*
X56895000Y-80954819D01*
X56895000Y-80954819D02*
X56656905Y-80954819D01*
X58085476Y-80288152D02*
X58085476Y-80954819D01*
X57847381Y-79907200D02*
X57609286Y-80621485D01*
X57609286Y-80621485D02*
X58228333Y-80621485D01*
X63664104Y-80933094D02*
X63664104Y-80456904D01*
X63949819Y-81028332D02*
X62949819Y-80694999D01*
X62949819Y-80694999D02*
X63949819Y-80361666D01*
X64852142Y-97559580D02*
X64804523Y-97607200D01*
X64804523Y-97607200D02*
X64661666Y-97654819D01*
X64661666Y-97654819D02*
X64566428Y-97654819D01*
X64566428Y-97654819D02*
X64423571Y-97607200D01*
X64423571Y-97607200D02*
X64328333Y-97511961D01*
X64328333Y-97511961D02*
X64280714Y-97416723D01*
X64280714Y-97416723D02*
X64233095Y-97226247D01*
X64233095Y-97226247D02*
X64233095Y-97083390D01*
X64233095Y-97083390D02*
X64280714Y-96892914D01*
X64280714Y-96892914D02*
X64328333Y-96797676D01*
X64328333Y-96797676D02*
X64423571Y-96702438D01*
X64423571Y-96702438D02*
X64566428Y-96654819D01*
X64566428Y-96654819D02*
X64661666Y-96654819D01*
X64661666Y-96654819D02*
X64804523Y-96702438D01*
X64804523Y-96702438D02*
X64852142Y-96750057D01*
X65185476Y-96654819D02*
X65804523Y-96654819D01*
X65804523Y-96654819D02*
X65471190Y-97035771D01*
X65471190Y-97035771D02*
X65614047Y-97035771D01*
X65614047Y-97035771D02*
X65709285Y-97083390D01*
X65709285Y-97083390D02*
X65756904Y-97131009D01*
X65756904Y-97131009D02*
X65804523Y-97226247D01*
X65804523Y-97226247D02*
X65804523Y-97464342D01*
X65804523Y-97464342D02*
X65756904Y-97559580D01*
X65756904Y-97559580D02*
X65709285Y-97607200D01*
X65709285Y-97607200D02*
X65614047Y-97654819D01*
X65614047Y-97654819D02*
X65328333Y-97654819D01*
X65328333Y-97654819D02*
X65233095Y-97607200D01*
X65233095Y-97607200D02*
X65185476Y-97559580D01*
X66709285Y-96654819D02*
X66233095Y-96654819D01*
X66233095Y-96654819D02*
X66185476Y-97131009D01*
X66185476Y-97131009D02*
X66233095Y-97083390D01*
X66233095Y-97083390D02*
X66328333Y-97035771D01*
X66328333Y-97035771D02*
X66566428Y-97035771D01*
X66566428Y-97035771D02*
X66661666Y-97083390D01*
X66661666Y-97083390D02*
X66709285Y-97131009D01*
X66709285Y-97131009D02*
X66756904Y-97226247D01*
X66756904Y-97226247D02*
X66756904Y-97464342D01*
X66756904Y-97464342D02*
X66709285Y-97559580D01*
X66709285Y-97559580D02*
X66661666Y-97607200D01*
X66661666Y-97607200D02*
X66566428Y-97654819D01*
X66566428Y-97654819D02*
X66328333Y-97654819D01*
X66328333Y-97654819D02*
X66233095Y-97607200D01*
X66233095Y-97607200D02*
X66185476Y-97559580D01*
X131168333Y-52354819D02*
X130835000Y-51878628D01*
X130596905Y-52354819D02*
X130596905Y-51354819D01*
X130596905Y-51354819D02*
X130977857Y-51354819D01*
X130977857Y-51354819D02*
X131073095Y-51402438D01*
X131073095Y-51402438D02*
X131120714Y-51450057D01*
X131120714Y-51450057D02*
X131168333Y-51545295D01*
X131168333Y-51545295D02*
X131168333Y-51688152D01*
X131168333Y-51688152D02*
X131120714Y-51783390D01*
X131120714Y-51783390D02*
X131073095Y-51831009D01*
X131073095Y-51831009D02*
X130977857Y-51878628D01*
X130977857Y-51878628D02*
X130596905Y-51878628D01*
X131549286Y-51450057D02*
X131596905Y-51402438D01*
X131596905Y-51402438D02*
X131692143Y-51354819D01*
X131692143Y-51354819D02*
X131930238Y-51354819D01*
X131930238Y-51354819D02*
X132025476Y-51402438D01*
X132025476Y-51402438D02*
X132073095Y-51450057D01*
X132073095Y-51450057D02*
X132120714Y-51545295D01*
X132120714Y-51545295D02*
X132120714Y-51640533D01*
X132120714Y-51640533D02*
X132073095Y-51783390D01*
X132073095Y-51783390D02*
X131501667Y-52354819D01*
X131501667Y-52354819D02*
X132120714Y-52354819D01*
D11*
%TO.C,U4*%
X108200000Y-80360000D02*
X109000000Y-80360000D01*
X108200000Y-80360000D02*
X107400000Y-80360000D01*
X108200000Y-77240000D02*
X109000000Y-77240000D01*
X108200000Y-77240000D02*
X107400000Y-77240000D01*
X109740000Y-80640000D02*
X109260000Y-80640000D01*
X109500000Y-80310000D01*
X109740000Y-80640000D01*
G36*
X109740000Y-80640000D02*
G01*
X109260000Y-80640000D01*
X109500000Y-80310000D01*
X109740000Y-80640000D01*
G37*
%TO.C,TP4*%
X115100000Y-72800000D02*
G75*
G02*
X113700000Y-72800000I-700000J0D01*
G01*
X113700000Y-72800000D02*
G75*
G02*
X115100000Y-72800000I700000J0D01*
G01*
%TO.C,TP3*%
X112500000Y-78000000D02*
G75*
G02*
X111100000Y-78000000I-700000J0D01*
G01*
X111100000Y-78000000D02*
G75*
G02*
X112500000Y-78000000I700000J0D01*
G01*
%TO.C,TP2*%
X105500000Y-80200000D02*
G75*
G02*
X104100000Y-80200000I-700000J0D01*
G01*
X104100000Y-80200000D02*
G75*
G02*
X105500000Y-80200000I700000J0D01*
G01*
%TO.C,RV1*%
X122110000Y-82450000D02*
X122110000Y-82200000D01*
X122110000Y-76740000D02*
X122110000Y-80280000D01*
X122010000Y-82650000D02*
X122010000Y-82450000D01*
X122010000Y-82650000D02*
X120590000Y-82650000D01*
X122010000Y-82450000D02*
X122110000Y-82450000D01*
X120590000Y-82450000D02*
X120590000Y-82650000D01*
X120590000Y-82450000D02*
X117010000Y-82450000D01*
X119310000Y-75430000D02*
X120800000Y-75430000D01*
X117010000Y-82650000D02*
X115590000Y-82650000D01*
X117010000Y-82450000D02*
X117010000Y-82650000D01*
X116800000Y-75430000D02*
X118290000Y-75430000D01*
X115590000Y-82650000D02*
X115590000Y-82450000D01*
X115590000Y-82450000D02*
X115490000Y-82450000D01*
X115490000Y-82450000D02*
X115490000Y-81760000D01*
X115490000Y-80720000D02*
X115490000Y-76740000D01*
X120800000Y-75430000D02*
G75*
G02*
X122110000Y-76740000I0J-1310000D01*
G01*
X115490000Y-76740000D02*
G75*
G02*
X116800000Y-75430000I1310000J0D01*
G01*
%TO.C,R11*%
X110772936Y-71465000D02*
X111227064Y-71465000D01*
X110772936Y-72935000D02*
X111227064Y-72935000D01*
%TO.C,R7*%
X104427064Y-78735000D02*
X103972936Y-78735000D01*
X104427064Y-77265000D02*
X103972936Y-77265000D01*
%TO.C,J4*%
X108600000Y-75275000D02*
X108600000Y-74025000D01*
X108310000Y-74985000D02*
X108310000Y-69015000D01*
X108310000Y-69015000D02*
X100690000Y-69015000D01*
X108300000Y-74975000D02*
X108300000Y-74225000D01*
X108300000Y-74225000D02*
X106500000Y-74225000D01*
X108300000Y-72725000D02*
X107550000Y-72725000D01*
X107550000Y-72725000D02*
X107550000Y-69775000D01*
X107550000Y-69775000D02*
X104500000Y-69775000D01*
X107350000Y-75275000D02*
X108600000Y-75275000D01*
X106500000Y-74975000D02*
X108300000Y-74975000D01*
X106500000Y-74225000D02*
X106500000Y-74975000D01*
X105000000Y-74975000D02*
X105000000Y-74225000D01*
X105000000Y-74225000D02*
X104000000Y-74225000D01*
X104000000Y-74975000D02*
X105000000Y-74975000D01*
X104000000Y-74225000D02*
X104000000Y-74975000D01*
X102500000Y-74975000D02*
X102500000Y-74225000D01*
X102500000Y-74225000D02*
X100700000Y-74225000D01*
X101450000Y-72725000D02*
X101450000Y-69775000D01*
X101450000Y-69775000D02*
X104500000Y-69775000D01*
X100700000Y-74975000D02*
X102500000Y-74975000D01*
X100700000Y-74225000D02*
X100700000Y-74975000D01*
X100700000Y-72725000D02*
X101450000Y-72725000D01*
X100690000Y-74985000D02*
X108310000Y-74985000D01*
X100690000Y-69015000D02*
X100690000Y-74985000D01*
%TO.C,D3*%
X114650000Y-74590000D02*
X112950000Y-74590000D01*
X114650000Y-74590000D02*
X114650000Y-77250000D01*
X112950000Y-74590000D02*
X112950000Y-77250000D01*
%TO.C,C18*%
X111340580Y-74710000D02*
X111059420Y-74710000D01*
X111340580Y-73690000D02*
X111059420Y-73690000D01*
%TO.C,C8*%
X104059420Y-75690000D02*
X104340580Y-75690000D01*
X104059420Y-76710000D02*
X104340580Y-76710000D01*
%TO.C,C13*%
X107859420Y-80890000D02*
X108140580Y-80890000D01*
X107859420Y-81910000D02*
X108140580Y-81910000D01*
%TO.C,R5*%
X130700000Y-49127064D02*
X130700000Y-48672936D01*
X132170000Y-49127064D02*
X132170000Y-48672936D01*
%TO.C,U5*%
X75790000Y-97945000D02*
X96110000Y-97945000D01*
X96110000Y-82705000D01*
X75790000Y-82705000D01*
X75790000Y-97945000D01*
%TO.C,R26*%
X69030436Y-96865000D02*
X69484564Y-96865000D01*
X69030436Y-98335000D02*
X69484564Y-98335000D01*
%TO.C,TP13*%
X92100000Y-70900000D02*
G75*
G02*
X90700000Y-70900000I-700000J0D01*
G01*
X90700000Y-70900000D02*
G75*
G02*
X92100000Y-70900000I700000J0D01*
G01*
%TO.C,D1*%
X140240000Y-57550000D02*
X140240000Y-58820000D01*
X143360000Y-58850000D02*
X143360000Y-57550000D01*
X140290000Y-59200000D02*
X139960000Y-59440000D01*
X139960000Y-58960000D01*
X140290000Y-59200000D01*
G36*
X140290000Y-59200000D02*
G01*
X139960000Y-59440000D01*
X139960000Y-58960000D01*
X140290000Y-59200000D01*
G37*
%TO.C,L1*%
X58695000Y-65950000D02*
X58695000Y-68700000D01*
X58695000Y-74700000D02*
X58695000Y-77450000D01*
X59345000Y-65300000D02*
X70845000Y-65300000D01*
X70845000Y-78100000D02*
X59345000Y-78100000D01*
X71495000Y-65950000D02*
X71495000Y-68700000D01*
X71495000Y-74700000D02*
X71495000Y-77450000D01*
X58695000Y-65950000D02*
G75*
G02*
X59345000Y-65300000I650001J-1D01*
G01*
X59345000Y-78100000D02*
G75*
G02*
X58695000Y-77450000I1J650001D01*
G01*
X70845000Y-65300000D02*
G75*
G02*
X71495000Y-65950000I0J-650000D01*
G01*
X71495000Y-77450000D02*
G75*
G02*
X70845000Y-78100000I-650000J0D01*
G01*
%TO.C,TP14*%
X58095000Y-66100000D02*
G75*
G02*
X56695000Y-66100000I-700000J0D01*
G01*
X56695000Y-66100000D02*
G75*
G02*
X58095000Y-66100000I700000J0D01*
G01*
%TO.C,U2*%
X99090000Y-92150000D02*
X99090000Y-95910000D01*
X99090000Y-95910000D02*
X100350000Y-95910000D01*
X105910000Y-92150000D02*
X105910000Y-95910000D01*
X105910000Y-95910000D02*
X104650000Y-95910000D01*
X106140000Y-91110000D02*
X105810000Y-90870000D01*
X106140000Y-90630000D01*
X106140000Y-91110000D01*
G36*
X106140000Y-91110000D02*
G01*
X105810000Y-90870000D01*
X106140000Y-90630000D01*
X106140000Y-91110000D01*
G37*
%TO.C,R4*%
X81414564Y-64065000D02*
X80960436Y-64065000D01*
X81414564Y-65535000D02*
X80960436Y-65535000D01*
%TO.C,J9*%
X57060000Y-89240000D02*
X57060000Y-96860000D01*
X57060000Y-96860000D02*
X63030000Y-96860000D01*
X57820000Y-90000000D02*
X57820000Y-93050000D01*
X57820000Y-96100000D02*
X57820000Y-93050000D01*
X60770000Y-89250000D02*
X60770000Y-90000000D01*
X60770000Y-90000000D02*
X57820000Y-90000000D01*
X60770000Y-96100000D02*
X57820000Y-96100000D01*
X60770000Y-96850000D02*
X60770000Y-96100000D01*
X62270000Y-89250000D02*
X62270000Y-91050000D01*
X62270000Y-91050000D02*
X63020000Y-91050000D01*
X62270000Y-92550000D02*
X62270000Y-93550000D01*
X62270000Y-93550000D02*
X63020000Y-93550000D01*
X62270000Y-95050000D02*
X62270000Y-96850000D01*
X62270000Y-96850000D02*
X63020000Y-96850000D01*
X63020000Y-89250000D02*
X62270000Y-89250000D01*
X63020000Y-91050000D02*
X63020000Y-89250000D01*
X63020000Y-92550000D02*
X62270000Y-92550000D01*
X63020000Y-93550000D02*
X63020000Y-92550000D01*
X63020000Y-95050000D02*
X62270000Y-95050000D01*
X63020000Y-96850000D02*
X63020000Y-95050000D01*
X63030000Y-89240000D02*
X57060000Y-89240000D01*
X63030000Y-96860000D02*
X63030000Y-89240000D01*
X63320000Y-88950000D02*
X62070000Y-88950000D01*
X63320000Y-90200000D02*
X63320000Y-88950000D01*
%TO.C,J1*%
X75550000Y-47690000D02*
X75550000Y-55310000D01*
X75550000Y-55310000D02*
X81520000Y-55310000D01*
X76310000Y-48450000D02*
X76310000Y-51500000D01*
X76310000Y-54550000D02*
X76310000Y-51500000D01*
X79260000Y-47700000D02*
X79260000Y-48450000D01*
X79260000Y-48450000D02*
X76310000Y-48450000D01*
X79260000Y-54550000D02*
X76310000Y-54550000D01*
X79260000Y-55300000D02*
X79260000Y-54550000D01*
X80760000Y-47700000D02*
X80760000Y-49500000D01*
X80760000Y-49500000D02*
X81510000Y-49500000D01*
X80760000Y-51000000D02*
X80760000Y-52000000D01*
X80760000Y-52000000D02*
X81510000Y-52000000D01*
X80760000Y-53500000D02*
X80760000Y-55300000D01*
X80760000Y-55300000D02*
X81510000Y-55300000D01*
X81510000Y-47700000D02*
X80760000Y-47700000D01*
X81510000Y-49500000D02*
X81510000Y-47700000D01*
X81510000Y-51000000D02*
X80760000Y-51000000D01*
X81510000Y-52000000D02*
X81510000Y-51000000D01*
X81510000Y-53500000D02*
X80760000Y-53500000D01*
X81510000Y-55300000D02*
X81510000Y-53500000D01*
X81520000Y-47690000D02*
X75550000Y-47690000D01*
X81520000Y-55310000D02*
X81520000Y-47690000D01*
X81810000Y-47400000D02*
X80560000Y-47400000D01*
X81810000Y-48650000D02*
X81810000Y-47400000D01*
%TO.C,R1*%
X139262064Y-49265000D02*
X138807936Y-49265000D01*
X139262064Y-50735000D02*
X138807936Y-50735000D01*
%TO.C,R24*%
X120765000Y-71627064D02*
X120765000Y-71172936D01*
X122235000Y-71627064D02*
X122235000Y-71172936D01*
%TO.C,C9*%
X103711252Y-85640000D02*
X102288748Y-85640000D01*
X103711252Y-88360000D02*
X102288748Y-88360000D01*
%TO.C,TP11*%
X105500000Y-83200000D02*
G75*
G02*
X104100000Y-83200000I-700000J0D01*
G01*
X104100000Y-83200000D02*
G75*
G02*
X105500000Y-83200000I700000J0D01*
G01*
%TO.C,JP1*%
X148300000Y-63000000D02*
X151100000Y-63000000D01*
X148300000Y-65000000D02*
X148300000Y-63000000D01*
X151100000Y-63000000D02*
X151100000Y-65000000D01*
X151100000Y-65000000D02*
X148300000Y-65000000D01*
%TO.C,TP7*%
X119700000Y-84200000D02*
G75*
G02*
X118300000Y-84200000I-700000J0D01*
G01*
X118300000Y-84200000D02*
G75*
G02*
X119700000Y-84200000I700000J0D01*
G01*
%TO.C,U12*%
X68857500Y-93040000D02*
X68057500Y-93040000D01*
X68857500Y-93040000D02*
X69657500Y-93040000D01*
X68857500Y-96160000D02*
X68057500Y-96160000D01*
X68857500Y-96160000D02*
X69657500Y-96160000D01*
X70397500Y-96440000D02*
X69917500Y-96440000D01*
X70157500Y-96110000D01*
X70397500Y-96440000D01*
G36*
X70397500Y-96440000D02*
G01*
X69917500Y-96440000D01*
X70157500Y-96110000D01*
X70397500Y-96440000D01*
G37*
%TO.C,U7*%
X139975000Y-71600000D02*
X151975000Y-71600000D01*
X151975000Y-78600000D01*
X139975000Y-78600000D01*
X139975000Y-71600000D01*
X143535000Y-78600000D02*
X148535000Y-78600000D01*
X148535000Y-77100000D01*
X143535000Y-77100000D01*
X143535000Y-78600000D01*
X141035000Y-78600000D02*
X139975000Y-78600000D01*
X140035000Y-77600000D01*
X141035000Y-78600000D01*
G36*
X141035000Y-78600000D02*
G01*
X139975000Y-78600000D01*
X140035000Y-77600000D01*
X141035000Y-78600000D01*
G37*
%TO.C,D2*%
X145990000Y-66100000D02*
X145990000Y-69400000D01*
X145990000Y-66100000D02*
X151500000Y-66100000D01*
X145990000Y-69400000D02*
X151500000Y-69400000D01*
%TO.C,U8*%
X59545000Y-57660000D02*
X59545000Y-59160000D01*
X59545000Y-59160000D02*
X60495000Y-59160000D01*
X69945000Y-57660000D02*
X69945000Y-59160000D01*
X69945000Y-59160000D02*
X68995000Y-59160000D01*
X60495000Y-61722500D02*
X60165000Y-61962500D01*
X60165000Y-61482500D01*
X60495000Y-61722500D01*
G36*
X60495000Y-61722500D02*
G01*
X60165000Y-61962500D01*
X60165000Y-61482500D01*
X60495000Y-61722500D01*
G37*
%TO.C,R25*%
X71534564Y-88490000D02*
X67180436Y-88490000D01*
X71534564Y-91910000D02*
X67180436Y-91910000D01*
%TO.C,J5*%
X82650000Y-75050000D02*
X82650000Y-76300000D01*
X82940000Y-75340000D02*
X82940000Y-81310000D01*
X82940000Y-81310000D02*
X95560000Y-81310000D01*
X82950000Y-75350000D02*
X82950000Y-76100000D01*
X82950000Y-76100000D02*
X84750000Y-76100000D01*
X82950000Y-77600000D02*
X83700000Y-77600000D01*
X83700000Y-77600000D02*
X83700000Y-80550000D01*
X83700000Y-80550000D02*
X89250000Y-80550000D01*
X83900000Y-75050000D02*
X82650000Y-75050000D01*
X84750000Y-75350000D02*
X82950000Y-75350000D01*
X84750000Y-76100000D02*
X84750000Y-75350000D01*
X86250000Y-75350000D02*
X86250000Y-76100000D01*
X86250000Y-76100000D02*
X92250000Y-76100000D01*
X92250000Y-75350000D02*
X86250000Y-75350000D01*
X92250000Y-76100000D02*
X92250000Y-75350000D01*
X93750000Y-75350000D02*
X93750000Y-76100000D01*
X93750000Y-76100000D02*
X95550000Y-76100000D01*
X94800000Y-77600000D02*
X94800000Y-80550000D01*
X94800000Y-80550000D02*
X89250000Y-80550000D01*
X95550000Y-75350000D02*
X93750000Y-75350000D01*
X95550000Y-76100000D02*
X95550000Y-75350000D01*
X95550000Y-77600000D02*
X94800000Y-77600000D01*
X95560000Y-75340000D02*
X82940000Y-75340000D01*
X95560000Y-81310000D02*
X95560000Y-75340000D01*
%TO.C,TP5*%
X136400000Y-75800000D02*
G75*
G02*
X135000000Y-75800000I-700000J0D01*
G01*
X135000000Y-75800000D02*
G75*
G02*
X136400000Y-75800000I700000J0D01*
G01*
%TO.C,SW1*%
X100885000Y-49775000D02*
X101385000Y-49775000D01*
X100885000Y-56275000D02*
X100885000Y-49775000D01*
X100885000Y-56275000D02*
X101385000Y-56275000D01*
X101385000Y-53025000D02*
X101885000Y-53025000D01*
X101885000Y-53775000D02*
X101885000Y-52275000D01*
X102385000Y-53775000D02*
X102635000Y-53775000D01*
X102635000Y-51025000D02*
X102635000Y-52275000D01*
X102635000Y-52275000D02*
X102385000Y-52275000D01*
X102635000Y-55025000D02*
X102635000Y-53775000D01*
X104385000Y-49775000D02*
X103885000Y-49775000D01*
X104385000Y-56275000D02*
X103885000Y-56275000D01*
X104385000Y-56275000D02*
X104385000Y-49775000D01*
%TO.C,C10*%
X110711252Y-85640000D02*
X109288748Y-85640000D01*
X110711252Y-88360000D02*
X109288748Y-88360000D01*
%TO.C,C36*%
X71347500Y-94559420D02*
X71347500Y-94840580D01*
X72367500Y-94559420D02*
X72367500Y-94840580D01*
%TO.C,R10*%
X136277064Y-60765000D02*
X135822936Y-60765000D01*
X136277064Y-62235000D02*
X135822936Y-62235000D01*
%TO.C,JP3*%
X133400000Y-67100000D02*
X135400000Y-67100000D01*
X133400000Y-69900000D02*
X133400000Y-67100000D01*
X135400000Y-67100000D02*
X135400000Y-69900000D01*
X135400000Y-69900000D02*
X133400000Y-69900000D01*
%TO.C,C28*%
X95695000Y-51190000D02*
X93513000Y-51190000D01*
X95695000Y-51230000D02*
X93517000Y-51230000D01*
X95695000Y-51270000D02*
X93520000Y-51270000D01*
X95695000Y-51310000D02*
X93524000Y-51310000D01*
X95695000Y-51350000D02*
X93529000Y-51350000D01*
X95695000Y-51390000D02*
X93534000Y-51390000D01*
X95695000Y-51430000D02*
X93540000Y-51430000D01*
X95695000Y-51470000D02*
X93546000Y-51470000D01*
X95695000Y-51510000D02*
X93553000Y-51510000D01*
X95695000Y-51550000D02*
X93560000Y-51550000D01*
X95695000Y-51590000D02*
X93568000Y-51590000D01*
X95695000Y-51630000D02*
X93576000Y-51630000D01*
X95695000Y-51671000D02*
X93585000Y-51671000D01*
X95695000Y-51711000D02*
X93594000Y-51711000D01*
X95695000Y-51751000D02*
X93604000Y-51751000D01*
X95695000Y-51791000D02*
X93614000Y-51791000D01*
X95695000Y-51831000D02*
X93625000Y-51831000D01*
X95695000Y-51871000D02*
X93637000Y-51871000D01*
X95695000Y-51911000D02*
X93649000Y-51911000D01*
X95695000Y-51951000D02*
X93661000Y-51951000D01*
X95695000Y-51991000D02*
X93674000Y-51991000D01*
X95695000Y-52031000D02*
X93688000Y-52031000D01*
X95695000Y-52071000D02*
X93702000Y-52071000D01*
X95695000Y-52111000D02*
X93717000Y-52111000D01*
X95695000Y-52151000D02*
X93733000Y-52151000D01*
X95695000Y-52191000D02*
X93749000Y-52191000D01*
X95695000Y-52231000D02*
X93765000Y-52231000D01*
X95695000Y-52271000D02*
X93783000Y-52271000D01*
X95695000Y-52311000D02*
X93801000Y-52311000D01*
X95695000Y-52351000D02*
X93819000Y-52351000D01*
X95695000Y-52391000D02*
X93839000Y-52391000D01*
X95695000Y-52431000D02*
X93859000Y-52431000D01*
X95695000Y-52471000D02*
X93879000Y-52471000D01*
X95695000Y-52511000D02*
X93901000Y-52511000D01*
X95695000Y-52551000D02*
X93923000Y-52551000D01*
X95695000Y-52591000D02*
X93945000Y-52591000D01*
X95695000Y-52631000D02*
X93969000Y-52631000D01*
X95695000Y-52671000D02*
X93993000Y-52671000D01*
X95695000Y-52711000D02*
X94019000Y-52711000D01*
X95695000Y-52751000D02*
X94045000Y-52751000D01*
X95695000Y-52791000D02*
X94071000Y-52791000D01*
X95695000Y-52831000D02*
X94099000Y-52831000D01*
X95695000Y-52871000D02*
X94128000Y-52871000D01*
X95695000Y-52911000D02*
X94157000Y-52911000D01*
X95695000Y-52951000D02*
X94187000Y-52951000D01*
X95695000Y-52991000D02*
X94219000Y-52991000D01*
X95695000Y-53031000D02*
X94251000Y-53031000D01*
X95695000Y-53071000D02*
X94285000Y-53071000D01*
X95695000Y-53111000D02*
X94319000Y-53111000D01*
X95695000Y-53151000D02*
X94355000Y-53151000D01*
X95695000Y-53191000D02*
X94392000Y-53191000D01*
X95695000Y-53231000D02*
X94430000Y-53231000D01*
X97137000Y-54191000D02*
X96333000Y-54191000D01*
X97368000Y-54151000D02*
X96102000Y-54151000D01*
X97537000Y-54111000D02*
X95933000Y-54111000D01*
X97675000Y-54071000D02*
X95795000Y-54071000D01*
X97794000Y-54031000D02*
X95676000Y-54031000D01*
X97900000Y-53991000D02*
X95570000Y-53991000D01*
X97997000Y-53951000D02*
X95473000Y-53951000D01*
X98085000Y-53911000D02*
X95385000Y-53911000D01*
X98167000Y-53871000D02*
X95303000Y-53871000D01*
X98244000Y-53831000D02*
X95226000Y-53831000D01*
X98316000Y-53791000D02*
X95154000Y-53791000D01*
X98385000Y-53751000D02*
X95085000Y-53751000D01*
X98449000Y-53711000D02*
X95021000Y-53711000D01*
X98511000Y-53671000D02*
X94959000Y-53671000D01*
X98569000Y-53631000D02*
X94901000Y-53631000D01*
X98574000Y-47449759D02*
X98574000Y-48079759D01*
X98625000Y-53591000D02*
X94845000Y-53591000D01*
X98679000Y-53551000D02*
X94791000Y-53551000D01*
X98730000Y-53511000D02*
X94740000Y-53511000D01*
X98779000Y-53471000D02*
X94691000Y-53471000D01*
X98827000Y-53431000D02*
X94643000Y-53431000D01*
X98872000Y-53391000D02*
X94598000Y-53391000D01*
X98889000Y-47764759D02*
X98259000Y-47764759D01*
X98917000Y-53351000D02*
X94553000Y-53351000D01*
X98959000Y-53311000D02*
X94511000Y-53311000D01*
X99000000Y-53271000D02*
X94470000Y-53271000D01*
X99040000Y-53231000D02*
X97775000Y-53231000D01*
X99078000Y-53191000D02*
X97775000Y-53191000D01*
X99115000Y-53151000D02*
X97775000Y-53151000D01*
X99151000Y-53111000D02*
X97775000Y-53111000D01*
X99185000Y-53071000D02*
X97775000Y-53071000D01*
X99219000Y-53031000D02*
X97775000Y-53031000D01*
X99251000Y-52991000D02*
X97775000Y-52991000D01*
X99283000Y-52951000D02*
X97775000Y-52951000D01*
X99313000Y-52911000D02*
X97775000Y-52911000D01*
X99342000Y-52871000D02*
X97775000Y-52871000D01*
X99371000Y-52831000D02*
X97775000Y-52831000D01*
X99399000Y-52791000D02*
X97775000Y-52791000D01*
X99425000Y-52751000D02*
X97775000Y-52751000D01*
X99451000Y-52711000D02*
X97775000Y-52711000D01*
X99477000Y-52671000D02*
X97775000Y-52671000D01*
X99501000Y-52631000D02*
X97775000Y-52631000D01*
X99525000Y-52591000D02*
X97775000Y-52591000D01*
X99547000Y-52551000D02*
X97775000Y-52551000D01*
X99569000Y-52511000D02*
X97775000Y-52511000D01*
X99591000Y-52471000D02*
X97775000Y-52471000D01*
X99611000Y-52431000D02*
X97775000Y-52431000D01*
X99631000Y-52391000D02*
X97775000Y-52391000D01*
X99651000Y-52351000D02*
X97775000Y-52351000D01*
X99669000Y-52311000D02*
X97775000Y-52311000D01*
X99687000Y-52271000D02*
X97775000Y-52271000D01*
X99705000Y-52231000D02*
X97775000Y-52231000D01*
X99721000Y-52191000D02*
X97775000Y-52191000D01*
X99737000Y-52151000D02*
X97775000Y-52151000D01*
X99753000Y-52111000D02*
X97775000Y-52111000D01*
X99768000Y-52071000D02*
X97775000Y-52071000D01*
X99782000Y-52031000D02*
X97775000Y-52031000D01*
X99796000Y-51991000D02*
X97775000Y-51991000D01*
X99809000Y-51951000D02*
X97775000Y-51951000D01*
X99821000Y-51911000D02*
X97775000Y-51911000D01*
X99833000Y-51871000D02*
X97775000Y-51871000D01*
X99845000Y-51831000D02*
X97775000Y-51831000D01*
X99856000Y-51791000D02*
X97775000Y-51791000D01*
X99866000Y-51751000D02*
X97775000Y-51751000D01*
X99876000Y-51711000D02*
X97775000Y-51711000D01*
X99885000Y-51671000D02*
X97775000Y-51671000D01*
X99894000Y-51630000D02*
X97775000Y-51630000D01*
X99902000Y-51590000D02*
X97775000Y-51590000D01*
X99910000Y-51550000D02*
X97775000Y-51550000D01*
X99917000Y-51510000D02*
X97775000Y-51510000D01*
X99924000Y-51470000D02*
X97775000Y-51470000D01*
X99930000Y-51430000D02*
X97775000Y-51430000D01*
X99936000Y-51390000D02*
X97775000Y-51390000D01*
X99941000Y-51350000D02*
X97775000Y-51350000D01*
X99946000Y-51310000D02*
X97775000Y-51310000D01*
X99950000Y-51270000D02*
X97775000Y-51270000D01*
X99953000Y-51230000D02*
X97775000Y-51230000D01*
X99957000Y-51190000D02*
X97775000Y-51190000D01*
X99959000Y-51150000D02*
X93511000Y-51150000D01*
X99962000Y-51110000D02*
X93508000Y-51110000D01*
X99963000Y-51070000D02*
X93507000Y-51070000D01*
X99965000Y-50950000D02*
X93505000Y-50950000D01*
X99965000Y-50990000D02*
X93505000Y-50990000D01*
X99965000Y-51030000D02*
X93505000Y-51030000D01*
X100005000Y-50950000D02*
G75*
G02*
X93465000Y-50950000I-3270000J0D01*
G01*
X93465000Y-50950000D02*
G75*
G02*
X100005000Y-50950000I3270000J0D01*
G01*
%TO.C,JP2*%
X137000000Y-67200000D02*
X139000000Y-67200000D01*
X137000000Y-70000000D02*
X137000000Y-67200000D01*
X139000000Y-67200000D02*
X139000000Y-70000000D01*
X139000000Y-70000000D02*
X137000000Y-70000000D01*
%TO.C,TP8*%
X57900000Y-48400000D02*
G75*
G02*
X56500000Y-48400000I-700000J0D01*
G01*
X56500000Y-48400000D02*
G75*
G02*
X57900000Y-48400000I700000J0D01*
G01*
%TO.C,C3*%
X135825000Y-48940580D02*
X135825000Y-48659420D01*
X136845000Y-48940580D02*
X136845000Y-48659420D01*
%TO.C,C4*%
X83655000Y-51570000D02*
X91815000Y-51570000D01*
X83655000Y-51610000D02*
X91815000Y-51610000D01*
X83655000Y-51650000D02*
X91815000Y-51650000D01*
X83656000Y-51530000D02*
X91814000Y-51530000D01*
X83658000Y-51490000D02*
X91812000Y-51490000D01*
X83659000Y-51450000D02*
X91811000Y-51450000D01*
X83661000Y-51410000D02*
X91809000Y-51410000D01*
X83664000Y-51370000D02*
X91806000Y-51370000D01*
X83667000Y-51330000D02*
X91803000Y-51330000D01*
X83670000Y-51290000D02*
X91800000Y-51290000D01*
X83674000Y-51250000D02*
X91796000Y-51250000D01*
X83678000Y-51210000D02*
X91792000Y-51210000D01*
X83683000Y-51170000D02*
X91787000Y-51170000D01*
X83687000Y-51130000D02*
X91783000Y-51130000D01*
X83693000Y-51090000D02*
X91777000Y-51090000D01*
X83698000Y-51050000D02*
X91772000Y-51050000D01*
X83705000Y-51010000D02*
X91765000Y-51010000D01*
X83711000Y-50970000D02*
X91759000Y-50970000D01*
X83718000Y-50929000D02*
X86695000Y-50929000D01*
X83725000Y-50889000D02*
X86695000Y-50889000D01*
X83733000Y-50849000D02*
X86695000Y-50849000D01*
X83741000Y-50809000D02*
X86695000Y-50809000D01*
X83750000Y-50769000D02*
X86695000Y-50769000D01*
X83759000Y-50729000D02*
X86695000Y-50729000D01*
X83768000Y-50689000D02*
X86695000Y-50689000D01*
X83778000Y-50649000D02*
X86695000Y-50649000D01*
X83788000Y-50609000D02*
X86695000Y-50609000D01*
X83799000Y-50569000D02*
X86695000Y-50569000D01*
X83810000Y-50529000D02*
X86695000Y-50529000D01*
X83821000Y-50489000D02*
X86695000Y-50489000D01*
X83833000Y-50449000D02*
X86695000Y-50449000D01*
X83846000Y-50409000D02*
X86695000Y-50409000D01*
X83858000Y-50369000D02*
X86695000Y-50369000D01*
X83872000Y-50329000D02*
X86695000Y-50329000D01*
X83885000Y-50289000D02*
X86695000Y-50289000D01*
X83900000Y-50249000D02*
X86695000Y-50249000D01*
X83914000Y-50209000D02*
X86695000Y-50209000D01*
X83930000Y-50169000D02*
X86695000Y-50169000D01*
X83945000Y-50129000D02*
X86695000Y-50129000D01*
X83961000Y-50089000D02*
X86695000Y-50089000D01*
X83978000Y-50049000D02*
X86695000Y-50049000D01*
X83995000Y-50009000D02*
X86695000Y-50009000D01*
X84013000Y-49969000D02*
X86695000Y-49969000D01*
X84031000Y-49929000D02*
X86695000Y-49929000D01*
X84049000Y-49889000D02*
X86695000Y-49889000D01*
X84069000Y-49849000D02*
X86695000Y-49849000D01*
X84088000Y-49809000D02*
X86695000Y-49809000D01*
X84108000Y-49769000D02*
X86695000Y-49769000D01*
X84129000Y-49729000D02*
X86695000Y-49729000D01*
X84151000Y-49689000D02*
X86695000Y-49689000D01*
X84173000Y-49649000D02*
X86695000Y-49649000D01*
X84195000Y-49609000D02*
X86695000Y-49609000D01*
X84218000Y-49569000D02*
X86695000Y-49569000D01*
X84242000Y-49529000D02*
X86695000Y-49529000D01*
X84266000Y-49489000D02*
X86695000Y-49489000D01*
X84291000Y-49449000D02*
X86695000Y-49449000D01*
X84317000Y-49409000D02*
X86695000Y-49409000D01*
X84343000Y-49369000D02*
X86695000Y-49369000D01*
X84370000Y-49329000D02*
X86695000Y-49329000D01*
X84397000Y-49289000D02*
X86695000Y-49289000D01*
X84426000Y-49249000D02*
X86695000Y-49249000D01*
X84455000Y-49209000D02*
X86695000Y-49209000D01*
X84485000Y-49169000D02*
X86695000Y-49169000D01*
X84515000Y-49129000D02*
X86695000Y-49129000D01*
X84546000Y-49089000D02*
X86695000Y-49089000D01*
X84579000Y-49049000D02*
X86695000Y-49049000D01*
X84611000Y-49009000D02*
X86695000Y-49009000D01*
X84645000Y-48969000D02*
X86695000Y-48969000D01*
X84680000Y-48929000D02*
X86695000Y-48929000D01*
X84716000Y-48889000D02*
X86695000Y-48889000D01*
X84752000Y-48849000D02*
X90718000Y-48849000D01*
X84790000Y-48809000D02*
X90680000Y-48809000D01*
X84828000Y-48769000D02*
X90642000Y-48769000D01*
X84868000Y-48729000D02*
X90602000Y-48729000D01*
X84909000Y-48689000D02*
X90561000Y-48689000D01*
X84951000Y-48649000D02*
X90519000Y-48649000D01*
X84994000Y-48609000D02*
X90476000Y-48609000D01*
X85020000Y-55659698D02*
X85820000Y-55659698D01*
X85038000Y-48569000D02*
X90432000Y-48569000D01*
X85084000Y-48529000D02*
X90386000Y-48529000D01*
X85131000Y-48489000D02*
X90339000Y-48489000D01*
X85179000Y-48449000D02*
X90291000Y-48449000D01*
X85230000Y-48409000D02*
X90240000Y-48409000D01*
X85281000Y-48369000D02*
X90189000Y-48369000D01*
X85335000Y-48329000D02*
X90135000Y-48329000D01*
X85390000Y-48289000D02*
X90080000Y-48289000D01*
X85420000Y-56059698D02*
X85420000Y-55259698D01*
X85448000Y-48249000D02*
X90022000Y-48249000D01*
X85507000Y-48209000D02*
X89963000Y-48209000D01*
X85569000Y-48169000D02*
X89901000Y-48169000D01*
X85633000Y-48129000D02*
X89837000Y-48129000D01*
X85701000Y-48089000D02*
X89769000Y-48089000D01*
X85771000Y-48049000D02*
X89699000Y-48049000D01*
X85845000Y-48009000D02*
X89625000Y-48009000D01*
X85922000Y-47969000D02*
X89548000Y-47969000D01*
X86004000Y-47929000D02*
X89466000Y-47929000D01*
X86090000Y-47889000D02*
X89380000Y-47889000D01*
X86183000Y-47849000D02*
X89287000Y-47849000D01*
X86282000Y-47809000D02*
X89188000Y-47809000D01*
X86389000Y-47769000D02*
X89081000Y-47769000D01*
X86506000Y-47729000D02*
X88964000Y-47729000D01*
X86637000Y-47689000D02*
X88833000Y-47689000D01*
X86787000Y-47649000D02*
X88683000Y-47649000D01*
X86967000Y-47609000D02*
X88503000Y-47609000D01*
X87202000Y-47569000D02*
X88268000Y-47569000D01*
X88775000Y-48889000D02*
X90754000Y-48889000D01*
X88775000Y-48929000D02*
X90790000Y-48929000D01*
X88775000Y-48969000D02*
X90825000Y-48969000D01*
X88775000Y-49009000D02*
X90859000Y-49009000D01*
X88775000Y-49049000D02*
X90891000Y-49049000D01*
X88775000Y-49089000D02*
X90924000Y-49089000D01*
X88775000Y-49129000D02*
X90955000Y-49129000D01*
X88775000Y-49169000D02*
X90985000Y-49169000D01*
X88775000Y-49209000D02*
X91015000Y-49209000D01*
X88775000Y-49249000D02*
X91044000Y-49249000D01*
X88775000Y-49289000D02*
X91073000Y-49289000D01*
X88775000Y-49329000D02*
X91100000Y-49329000D01*
X88775000Y-49369000D02*
X91127000Y-49369000D01*
X88775000Y-49409000D02*
X91153000Y-49409000D01*
X88775000Y-49449000D02*
X91179000Y-49449000D01*
X88775000Y-49489000D02*
X91204000Y-49489000D01*
X88775000Y-49529000D02*
X91228000Y-49529000D01*
X88775000Y-49569000D02*
X91252000Y-49569000D01*
X88775000Y-49609000D02*
X91275000Y-49609000D01*
X88775000Y-49649000D02*
X91297000Y-49649000D01*
X88775000Y-49689000D02*
X91319000Y-49689000D01*
X88775000Y-49729000D02*
X91341000Y-49729000D01*
X88775000Y-49769000D02*
X91362000Y-49769000D01*
X88775000Y-49809000D02*
X91382000Y-49809000D01*
X88775000Y-49849000D02*
X91401000Y-49849000D01*
X88775000Y-49889000D02*
X91421000Y-49889000D01*
X88775000Y-49929000D02*
X91439000Y-49929000D01*
X88775000Y-49969000D02*
X91457000Y-49969000D01*
X88775000Y-50009000D02*
X91475000Y-50009000D01*
X88775000Y-50049000D02*
X91492000Y-50049000D01*
X88775000Y-50089000D02*
X91509000Y-50089000D01*
X88775000Y-50129000D02*
X91525000Y-50129000D01*
X88775000Y-50169000D02*
X91540000Y-50169000D01*
X88775000Y-50209000D02*
X91556000Y-50209000D01*
X88775000Y-50249000D02*
X91570000Y-50249000D01*
X88775000Y-50289000D02*
X91585000Y-50289000D01*
X88775000Y-50329000D02*
X91598000Y-50329000D01*
X88775000Y-50369000D02*
X91612000Y-50369000D01*
X88775000Y-50409000D02*
X91624000Y-50409000D01*
X88775000Y-50449000D02*
X91637000Y-50449000D01*
X88775000Y-50489000D02*
X91649000Y-50489000D01*
X88775000Y-50529000D02*
X91660000Y-50529000D01*
X88775000Y-50569000D02*
X91671000Y-50569000D01*
X88775000Y-50609000D02*
X91682000Y-50609000D01*
X88775000Y-50649000D02*
X91692000Y-50649000D01*
X88775000Y-50689000D02*
X91702000Y-50689000D01*
X88775000Y-50729000D02*
X91711000Y-50729000D01*
X88775000Y-50769000D02*
X91720000Y-50769000D01*
X88775000Y-50809000D02*
X91729000Y-50809000D01*
X88775000Y-50849000D02*
X91737000Y-50849000D01*
X88775000Y-50889000D02*
X91745000Y-50889000D01*
X88775000Y-50929000D02*
X91752000Y-50929000D01*
X91855000Y-51650000D02*
G75*
G02*
X83615000Y-51650000I-4120000J0D01*
G01*
X83615000Y-51650000D02*
G75*
G02*
X91855000Y-51650000I4120000J0D01*
G01*
%TO.C,Q4*%
X132840000Y-64637500D02*
X132840000Y-63987500D01*
X132840000Y-64637500D02*
X132840000Y-65287500D01*
X135960000Y-64637500D02*
X135960000Y-63987500D01*
X135960000Y-64637500D02*
X135960000Y-65287500D01*
X136240000Y-63715000D02*
X135910000Y-63475000D01*
X136240000Y-63235000D01*
X136240000Y-63715000D01*
G36*
X136240000Y-63715000D02*
G01*
X135910000Y-63475000D01*
X136240000Y-63235000D01*
X136240000Y-63715000D01*
G37*
%TO.C,U1*%
X132825000Y-51990000D02*
X132825000Y-52715000D01*
X132825000Y-57210000D02*
X132825000Y-56485000D01*
X133550000Y-51990000D02*
X132825000Y-51990000D01*
X133550000Y-57210000D02*
X132825000Y-57210000D01*
X137320000Y-51990000D02*
X138045000Y-51990000D01*
X137320000Y-57210000D02*
X137745000Y-57210000D01*
X138045000Y-51990000D02*
X138045000Y-52715000D01*
X138045000Y-56485000D02*
X138045000Y-56970000D01*
X138285000Y-57540000D02*
X137805000Y-57540000D01*
X138045000Y-57210000D01*
X138285000Y-57540000D01*
G36*
X138285000Y-57540000D02*
G01*
X137805000Y-57540000D01*
X138045000Y-57210000D01*
X138285000Y-57540000D01*
G37*
%TO.C,F2*%
X72095000Y-56500000D02*
X72095000Y-62500000D01*
X72095000Y-62500000D02*
X84095000Y-62500000D01*
X84095000Y-56500000D02*
X72095000Y-56500000D01*
X84095000Y-61500000D02*
X84095000Y-56500000D01*
X84095000Y-62500000D02*
X84095000Y-61500000D01*
%TO.C,U6*%
X151800000Y-91000000D02*
X116800000Y-91000000D01*
X116800000Y-86000000D01*
X151800000Y-86000000D01*
X151800000Y-91000000D01*
X151800000Y-87000000D02*
X150800000Y-86000000D01*
X151800000Y-86000000D01*
X151800000Y-87000000D01*
G36*
X151800000Y-87000000D02*
G01*
X150800000Y-86000000D01*
X151800000Y-86000000D01*
X151800000Y-87000000D01*
G37*
%TO.C,F1*%
X85195000Y-56300000D02*
X85195000Y-62300000D01*
X85195000Y-62300000D02*
X97195000Y-62300000D01*
X97195000Y-56300000D02*
X85195000Y-56300000D01*
X97195000Y-61300000D02*
X97195000Y-56300000D01*
X97195000Y-62300000D02*
X97195000Y-61300000D01*
%TO.C,SW5*%
X100885000Y-59750000D02*
X100885000Y-66250000D01*
X100885000Y-59750000D02*
X101385000Y-59750000D01*
X100885000Y-66250000D02*
X101385000Y-66250000D01*
X102635000Y-61000000D02*
X102635000Y-62250000D01*
X102635000Y-63750000D02*
X102885000Y-63750000D01*
X102635000Y-65000000D02*
X102635000Y-63750000D01*
X102885000Y-62250000D02*
X102635000Y-62250000D01*
X103385000Y-62250000D02*
X103385000Y-63750000D01*
X103885000Y-63000000D02*
X103385000Y-63000000D01*
X104385000Y-59750000D02*
X103885000Y-59750000D01*
X104385000Y-59750000D02*
X104385000Y-66250000D01*
X104385000Y-66250000D02*
X103885000Y-66250000D01*
%TO.C,U11*%
X151735000Y-98400000D02*
X116735000Y-98400000D01*
X116735000Y-93400000D01*
X151735000Y-93400000D01*
X151735000Y-98400000D01*
X151735000Y-94400000D02*
X150735000Y-93400000D01*
X151735000Y-93400000D01*
X151735000Y-94400000D01*
G36*
X151735000Y-94400000D02*
G01*
X150735000Y-93400000D01*
X151735000Y-93400000D01*
X151735000Y-94400000D01*
G37*
%TO.C,TP6*%
X122100000Y-84200000D02*
G75*
G02*
X120700000Y-84200000I-700000J0D01*
G01*
X120700000Y-84200000D02*
G75*
G02*
X122100000Y-84200000I700000J0D01*
G01*
%TO.C,C5*%
X141590000Y-49290580D02*
X141590000Y-49009420D01*
X142610000Y-49290580D02*
X142610000Y-49009420D01*
%TO.C,C32*%
X65015000Y-82670000D02*
X73175000Y-82670000D01*
X65015000Y-82710000D02*
X73175000Y-82710000D01*
X65015000Y-82750000D02*
X73175000Y-82750000D01*
X65016000Y-82630000D02*
X73174000Y-82630000D01*
X65018000Y-82590000D02*
X73172000Y-82590000D01*
X65019000Y-82550000D02*
X73171000Y-82550000D01*
X65021000Y-82510000D02*
X73169000Y-82510000D01*
X65024000Y-82470000D02*
X73166000Y-82470000D01*
X65027000Y-82430000D02*
X73163000Y-82430000D01*
X65030000Y-82390000D02*
X73160000Y-82390000D01*
X65034000Y-82350000D02*
X73156000Y-82350000D01*
X65038000Y-82310000D02*
X73152000Y-82310000D01*
X65043000Y-82270000D02*
X73147000Y-82270000D01*
X65047000Y-82230000D02*
X73143000Y-82230000D01*
X65053000Y-82190000D02*
X73137000Y-82190000D01*
X65058000Y-82150000D02*
X73132000Y-82150000D01*
X65065000Y-82110000D02*
X73125000Y-82110000D01*
X65071000Y-82070000D02*
X73119000Y-82070000D01*
X65078000Y-82029000D02*
X68055000Y-82029000D01*
X65085000Y-81989000D02*
X68055000Y-81989000D01*
X65093000Y-81949000D02*
X68055000Y-81949000D01*
X65101000Y-81909000D02*
X68055000Y-81909000D01*
X65110000Y-81869000D02*
X68055000Y-81869000D01*
X65119000Y-81829000D02*
X68055000Y-81829000D01*
X65128000Y-81789000D02*
X68055000Y-81789000D01*
X65138000Y-81749000D02*
X68055000Y-81749000D01*
X65148000Y-81709000D02*
X68055000Y-81709000D01*
X65159000Y-81669000D02*
X68055000Y-81669000D01*
X65170000Y-81629000D02*
X68055000Y-81629000D01*
X65181000Y-81589000D02*
X68055000Y-81589000D01*
X65193000Y-81549000D02*
X68055000Y-81549000D01*
X65206000Y-81509000D02*
X68055000Y-81509000D01*
X65218000Y-81469000D02*
X68055000Y-81469000D01*
X65232000Y-81429000D02*
X68055000Y-81429000D01*
X65245000Y-81389000D02*
X68055000Y-81389000D01*
X65260000Y-81349000D02*
X68055000Y-81349000D01*
X65274000Y-81309000D02*
X68055000Y-81309000D01*
X65290000Y-81269000D02*
X68055000Y-81269000D01*
X65305000Y-81229000D02*
X68055000Y-81229000D01*
X65321000Y-81189000D02*
X68055000Y-81189000D01*
X65338000Y-81149000D02*
X68055000Y-81149000D01*
X65355000Y-81109000D02*
X68055000Y-81109000D01*
X65373000Y-81069000D02*
X68055000Y-81069000D01*
X65391000Y-81029000D02*
X68055000Y-81029000D01*
X65409000Y-80989000D02*
X68055000Y-80989000D01*
X65429000Y-80949000D02*
X68055000Y-80949000D01*
X65448000Y-80909000D02*
X68055000Y-80909000D01*
X65468000Y-80869000D02*
X68055000Y-80869000D01*
X65489000Y-80829000D02*
X68055000Y-80829000D01*
X65511000Y-80789000D02*
X68055000Y-80789000D01*
X65533000Y-80749000D02*
X68055000Y-80749000D01*
X65555000Y-80709000D02*
X68055000Y-80709000D01*
X65578000Y-80669000D02*
X68055000Y-80669000D01*
X65602000Y-80629000D02*
X68055000Y-80629000D01*
X65626000Y-80589000D02*
X68055000Y-80589000D01*
X65651000Y-80549000D02*
X68055000Y-80549000D01*
X65677000Y-80509000D02*
X68055000Y-80509000D01*
X65703000Y-80469000D02*
X68055000Y-80469000D01*
X65730000Y-80429000D02*
X68055000Y-80429000D01*
X65757000Y-80389000D02*
X68055000Y-80389000D01*
X65786000Y-80349000D02*
X68055000Y-80349000D01*
X65815000Y-80309000D02*
X68055000Y-80309000D01*
X65845000Y-80269000D02*
X68055000Y-80269000D01*
X65875000Y-80229000D02*
X68055000Y-80229000D01*
X65906000Y-80189000D02*
X68055000Y-80189000D01*
X65939000Y-80149000D02*
X68055000Y-80149000D01*
X65971000Y-80109000D02*
X68055000Y-80109000D01*
X66005000Y-80069000D02*
X68055000Y-80069000D01*
X66040000Y-80029000D02*
X68055000Y-80029000D01*
X66076000Y-79989000D02*
X68055000Y-79989000D01*
X66112000Y-79949000D02*
X72078000Y-79949000D01*
X66150000Y-79909000D02*
X72040000Y-79909000D01*
X66188000Y-79869000D02*
X72002000Y-79869000D01*
X66228000Y-79829000D02*
X71962000Y-79829000D01*
X66269000Y-79789000D02*
X71921000Y-79789000D01*
X66311000Y-79749000D02*
X71879000Y-79749000D01*
X66354000Y-79709000D02*
X71836000Y-79709000D01*
X66380000Y-86759698D02*
X67180000Y-86759698D01*
X66398000Y-79669000D02*
X71792000Y-79669000D01*
X66444000Y-79629000D02*
X71746000Y-79629000D01*
X66491000Y-79589000D02*
X71699000Y-79589000D01*
X66539000Y-79549000D02*
X71651000Y-79549000D01*
X66590000Y-79509000D02*
X71600000Y-79509000D01*
X66641000Y-79469000D02*
X71549000Y-79469000D01*
X66695000Y-79429000D02*
X71495000Y-79429000D01*
X66750000Y-79389000D02*
X71440000Y-79389000D01*
X66780000Y-87159698D02*
X66780000Y-86359698D01*
X66808000Y-79349000D02*
X71382000Y-79349000D01*
X66867000Y-79309000D02*
X71323000Y-79309000D01*
X66929000Y-79269000D02*
X71261000Y-79269000D01*
X66993000Y-79229000D02*
X71197000Y-79229000D01*
X67061000Y-79189000D02*
X71129000Y-79189000D01*
X67131000Y-79149000D02*
X71059000Y-79149000D01*
X67205000Y-79109000D02*
X70985000Y-79109000D01*
X67282000Y-79069000D02*
X70908000Y-79069000D01*
X67364000Y-79029000D02*
X70826000Y-79029000D01*
X67450000Y-78989000D02*
X70740000Y-78989000D01*
X67543000Y-78949000D02*
X70647000Y-78949000D01*
X67642000Y-78909000D02*
X70548000Y-78909000D01*
X67749000Y-78869000D02*
X70441000Y-78869000D01*
X67866000Y-78829000D02*
X70324000Y-78829000D01*
X67997000Y-78789000D02*
X70193000Y-78789000D01*
X68147000Y-78749000D02*
X70043000Y-78749000D01*
X68327000Y-78709000D02*
X69863000Y-78709000D01*
X68562000Y-78669000D02*
X69628000Y-78669000D01*
X70135000Y-79989000D02*
X72114000Y-79989000D01*
X70135000Y-80029000D02*
X72150000Y-80029000D01*
X70135000Y-80069000D02*
X72185000Y-80069000D01*
X70135000Y-80109000D02*
X72219000Y-80109000D01*
X70135000Y-80149000D02*
X72251000Y-80149000D01*
X70135000Y-80189000D02*
X72284000Y-80189000D01*
X70135000Y-80229000D02*
X72315000Y-80229000D01*
X70135000Y-80269000D02*
X72345000Y-80269000D01*
X70135000Y-80309000D02*
X72375000Y-80309000D01*
X70135000Y-80349000D02*
X72404000Y-80349000D01*
X70135000Y-80389000D02*
X72433000Y-80389000D01*
X70135000Y-80429000D02*
X72460000Y-80429000D01*
X70135000Y-80469000D02*
X72487000Y-80469000D01*
X70135000Y-80509000D02*
X72513000Y-80509000D01*
X70135000Y-80549000D02*
X72539000Y-80549000D01*
X70135000Y-80589000D02*
X72564000Y-80589000D01*
X70135000Y-80629000D02*
X72588000Y-80629000D01*
X70135000Y-80669000D02*
X72612000Y-80669000D01*
X70135000Y-80709000D02*
X72635000Y-80709000D01*
X70135000Y-80749000D02*
X72657000Y-80749000D01*
X70135000Y-80789000D02*
X72679000Y-80789000D01*
X70135000Y-80829000D02*
X72701000Y-80829000D01*
X70135000Y-80869000D02*
X72722000Y-80869000D01*
X70135000Y-80909000D02*
X72742000Y-80909000D01*
X70135000Y-80949000D02*
X72761000Y-80949000D01*
X70135000Y-80989000D02*
X72781000Y-80989000D01*
X70135000Y-81029000D02*
X72799000Y-81029000D01*
X70135000Y-81069000D02*
X72817000Y-81069000D01*
X70135000Y-81109000D02*
X72835000Y-81109000D01*
X70135000Y-81149000D02*
X72852000Y-81149000D01*
X70135000Y-81189000D02*
X72869000Y-81189000D01*
X70135000Y-81229000D02*
X72885000Y-81229000D01*
X70135000Y-81269000D02*
X72900000Y-81269000D01*
X70135000Y-81309000D02*
X72916000Y-81309000D01*
X70135000Y-81349000D02*
X72930000Y-81349000D01*
X70135000Y-81389000D02*
X72945000Y-81389000D01*
X70135000Y-81429000D02*
X72958000Y-81429000D01*
X70135000Y-81469000D02*
X72972000Y-81469000D01*
X70135000Y-81509000D02*
X72984000Y-81509000D01*
X70135000Y-81549000D02*
X72997000Y-81549000D01*
X70135000Y-81589000D02*
X73009000Y-81589000D01*
X70135000Y-81629000D02*
X73020000Y-81629000D01*
X70135000Y-81669000D02*
X73031000Y-81669000D01*
X70135000Y-81709000D02*
X73042000Y-81709000D01*
X70135000Y-81749000D02*
X73052000Y-81749000D01*
X70135000Y-81789000D02*
X73062000Y-81789000D01*
X70135000Y-81829000D02*
X73071000Y-81829000D01*
X70135000Y-81869000D02*
X73080000Y-81869000D01*
X70135000Y-81909000D02*
X73089000Y-81909000D01*
X70135000Y-81949000D02*
X73097000Y-81949000D01*
X70135000Y-81989000D02*
X73105000Y-81989000D01*
X70135000Y-82029000D02*
X73112000Y-82029000D01*
X73215000Y-82750000D02*
G75*
G02*
X64975000Y-82750000I-4120000J0D01*
G01*
X64975000Y-82750000D02*
G75*
G02*
X73215000Y-82750000I4120000J0D01*
G01*
%TO.C,Q2*%
X78930000Y-69825000D02*
X78930000Y-67875000D01*
X78930000Y-69825000D02*
X78930000Y-71775000D01*
X84050000Y-69825000D02*
X84050000Y-67875000D01*
X84050000Y-69825000D02*
X84050000Y-71775000D01*
X84285000Y-67365000D02*
X83955000Y-67125000D01*
X84285000Y-66885000D01*
X84285000Y-67365000D01*
G36*
X84285000Y-67365000D02*
G01*
X83955000Y-67125000D01*
X84285000Y-66885000D01*
X84285000Y-67365000D01*
G37*
%TO.C,C6*%
X143290000Y-49290580D02*
X143290000Y-49009420D01*
X144310000Y-49290580D02*
X144310000Y-49009420D01*
%TO.C,TP9*%
X58095000Y-58500000D02*
G75*
G02*
X56695000Y-58500000I-700000J0D01*
G01*
X56695000Y-58500000D02*
G75*
G02*
X58095000Y-58500000I700000J0D01*
G01*
%TO.C,U3*%
X106590000Y-92150000D02*
X106590000Y-95910000D01*
X106590000Y-95910000D02*
X107850000Y-95910000D01*
X113410000Y-92150000D02*
X113410000Y-95910000D01*
X113410000Y-95910000D02*
X112150000Y-95910000D01*
X113640000Y-91110000D02*
X113310000Y-90870000D01*
X113640000Y-90630000D01*
X113640000Y-91110000D01*
G36*
X113640000Y-91110000D02*
G01*
X113310000Y-90870000D01*
X113640000Y-90630000D01*
X113640000Y-91110000D01*
G37*
%TO.C,TP10*%
X112900000Y-83000000D02*
G75*
G02*
X111500000Y-83000000I-700000J0D01*
G01*
X111500000Y-83000000D02*
G75*
G02*
X112900000Y-83000000I700000J0D01*
G01*
%TO.C,TP15*%
X72995000Y-63900000D02*
G75*
G02*
X71595000Y-63900000I-700000J0D01*
G01*
X71595000Y-63900000D02*
G75*
G02*
X72995000Y-63900000I700000J0D01*
G01*
%TO.C,J7*%
X123490000Y-71290000D02*
X123490000Y-77260000D01*
X123490000Y-77260000D02*
X131110000Y-77260000D01*
X123500000Y-75000000D02*
X124250000Y-75000000D01*
X123500000Y-76500000D02*
X123500000Y-77250000D01*
X123500000Y-77250000D02*
X125300000Y-77250000D01*
X124250000Y-72050000D02*
X127300000Y-72050000D01*
X124250000Y-75000000D02*
X124250000Y-72050000D01*
X125300000Y-76500000D02*
X123500000Y-76500000D01*
X125300000Y-77250000D02*
X125300000Y-76500000D01*
X126800000Y-76500000D02*
X126800000Y-77250000D01*
X126800000Y-77250000D02*
X127800000Y-77250000D01*
X127800000Y-76500000D02*
X126800000Y-76500000D01*
X127800000Y-77250000D02*
X127800000Y-76500000D01*
X129300000Y-76500000D02*
X129300000Y-77250000D01*
X129300000Y-77250000D02*
X131100000Y-77250000D01*
X130150000Y-77550000D02*
X131400000Y-77550000D01*
X130350000Y-72050000D02*
X127300000Y-72050000D01*
X130350000Y-75000000D02*
X130350000Y-72050000D01*
X131100000Y-75000000D02*
X130350000Y-75000000D01*
X131100000Y-76500000D02*
X129300000Y-76500000D01*
X131100000Y-77250000D02*
X131100000Y-76500000D01*
X131110000Y-71290000D02*
X123490000Y-71290000D01*
X131110000Y-77260000D02*
X131110000Y-71290000D01*
X131400000Y-77550000D02*
X131400000Y-76300000D01*
%TO.C,TP12*%
X108700000Y-83400000D02*
G75*
G02*
X107300000Y-83400000I-700000J0D01*
G01*
X107300000Y-83400000D02*
G75*
G02*
X108700000Y-83400000I700000J0D01*
G01*
%TO.C,U9*%
X108622500Y-40325000D02*
X108622500Y-46485000D01*
X108622500Y-40325000D02*
X126862500Y-40325000D01*
X108622500Y-65285000D02*
X108622500Y-66065000D01*
X108622500Y-66065000D02*
X109622500Y-66065000D01*
X126862500Y-40325000D02*
X126862500Y-46740000D01*
X126862500Y-65285000D02*
X126862500Y-66065000D01*
X126862500Y-66065000D02*
X125862500Y-66065000D01*
X108617500Y-47210000D02*
X108117500Y-47210000D01*
X108617500Y-46710000D01*
X108617500Y-47210000D01*
G36*
X108617500Y-47210000D02*
G01*
X108117500Y-47210000D01*
X108617500Y-46710000D01*
X108617500Y-47210000D01*
G37*
%TO.C,Q3*%
X136390000Y-64637500D02*
X136390000Y-63987500D01*
X136390000Y-64637500D02*
X136390000Y-65287500D01*
X139510000Y-64637500D02*
X139510000Y-63987500D01*
X139510000Y-64637500D02*
X139510000Y-65287500D01*
X139790000Y-63715000D02*
X139460000Y-63475000D01*
X139790000Y-63235000D01*
X139790000Y-63715000D01*
G36*
X139790000Y-63715000D02*
G01*
X139460000Y-63475000D01*
X139790000Y-63235000D01*
X139790000Y-63715000D01*
G37*
%TO.C,D4*%
X62570386Y-82408364D02*
G75*
G02*
X59295000Y-82350284I-1675386J-2096636D01*
G01*
%TO.C,C35*%
X65447500Y-94865580D02*
X65447500Y-94584420D01*
X66467500Y-94865580D02*
X66467500Y-94584420D01*
%TO.C,R2*%
X133700000Y-49127064D02*
X133700000Y-48672936D01*
X135170000Y-49127064D02*
X135170000Y-48672936D01*
%TD*%
M02*
