%TF.GenerationSoftware,KiCad,Pcbnew,8.0.1-8.0.1-1~ubuntu22.04.1*%
%TF.CreationDate,2024-04-07T11:52:22+03:00*%
%TF.ProjectId,main-module,6d61696e-2d6d-46f6-9475-6c652e6b6963,rev?*%
%TF.SameCoordinates,Original*%
%TF.FileFunction,Paste,Top*%
%TF.FilePolarity,Positive*%
%FSLAX46Y46*%
G04 Gerber Fmt 4.6, Leading zero omitted, Abs format (unit mm)*
G04 Created by KiCad (PCBNEW 8.0.1-8.0.1-1~ubuntu22.04.1) date 2024-04-07 11:52:22*
%MOMM*%
%LPD*%
G01*
G04 APERTURE LIST*
G04 Aperture macros list*
%AMRoundRect*
0 Rectangle with rounded corners*
0 $1 Rounding radius*
0 $2 $3 $4 $5 $6 $7 $8 $9 X,Y pos of 4 corners*
0 Add a 4 corners polygon primitive as box body*
4,1,4,$2,$3,$4,$5,$6,$7,$8,$9,$2,$3,0*
0 Add four circle primitives for the rounded corners*
1,1,$1+$1,$2,$3*
1,1,$1+$1,$4,$5*
1,1,$1+$1,$6,$7*
1,1,$1+$1,$8,$9*
0 Add four rect primitives between the rounded corners*
20,1,$1+$1,$2,$3,$4,$5,0*
20,1,$1+$1,$4,$5,$6,$7,0*
20,1,$1+$1,$6,$7,$8,$9,0*
20,1,$1+$1,$8,$9,$2,$3,0*%
G04 Aperture macros list end*
%ADD10RoundRect,0.150000X0.512500X0.150000X-0.512500X0.150000X-0.512500X-0.150000X0.512500X-0.150000X0*%
%ADD11RoundRect,0.250000X-0.262500X-0.450000X0.262500X-0.450000X0.262500X0.450000X-0.262500X0.450000X0*%
%ADD12RoundRect,0.250000X0.262500X0.450000X-0.262500X0.450000X-0.262500X-0.450000X0.262500X-0.450000X0*%
%ADD13RoundRect,0.125000X-0.125000X0.125000X-0.125000X-0.125000X0.125000X-0.125000X0.125000X0.125000X0*%
%ADD14RoundRect,0.225000X0.225000X0.250000X-0.225000X0.250000X-0.225000X-0.250000X0.225000X-0.250000X0*%
%ADD15RoundRect,0.225000X-0.225000X-0.250000X0.225000X-0.250000X0.225000X0.250000X-0.225000X0.250000X0*%
%ADD16RoundRect,0.250000X0.450000X-0.262500X0.450000X0.262500X-0.450000X0.262500X-0.450000X-0.262500X0*%
%ADD17RoundRect,0.175000X0.325000X-0.175000X0.325000X0.175000X-0.325000X0.175000X-0.325000X-0.175000X0*%
%ADD18RoundRect,0.150000X0.150000X-0.200000X0.150000X0.200000X-0.150000X0.200000X-0.150000X-0.200000X0*%
%ADD19R,3.100000X5.000000*%
%ADD20RoundRect,0.375000X-0.375000X0.625000X-0.375000X-0.625000X0.375000X-0.625000X0.375000X0.625000X0*%
%ADD21RoundRect,0.500000X-1.400000X0.500000X-1.400000X-0.500000X1.400000X-0.500000X1.400000X0.500000X0*%
%ADD22RoundRect,0.250000X0.325000X1.100000X-0.325000X1.100000X-0.325000X-1.100000X0.325000X-1.100000X0*%
%ADD23RoundRect,0.250000X-1.000000X-0.650000X1.000000X-0.650000X1.000000X0.650000X-1.000000X0.650000X0*%
%ADD24RoundRect,0.250000X0.300000X-2.050000X0.300000X2.050000X-0.300000X2.050000X-0.300000X-2.050000X0*%
%ADD25RoundRect,0.250000X2.375000X-2.025000X2.375000X2.025000X-2.375000X2.025000X-2.375000X-2.025000X0*%
%ADD26R,1.160000X0.600000*%
%ADD27R,1.160000X0.300000*%
%ADD28RoundRect,0.250000X0.362500X1.425000X-0.362500X1.425000X-0.362500X-1.425000X0.362500X-1.425000X0*%
%ADD29RoundRect,0.225000X-0.250000X0.225000X-0.250000X-0.225000X0.250000X-0.225000X0.250000X0.225000X0*%
%ADD30RoundRect,0.225000X0.250000X-0.225000X0.250000X0.225000X-0.250000X0.225000X-0.250000X-0.225000X0*%
%ADD31RoundRect,0.150000X-0.150000X0.587500X-0.150000X-0.587500X0.150000X-0.587500X0.150000X0.587500X0*%
%ADD32RoundRect,0.225000X0.225000X0.225000X-0.225000X0.225000X-0.225000X-0.225000X0.225000X-0.225000X0*%
%ADD33RoundRect,0.062500X0.337500X0.062500X-0.337500X0.062500X-0.337500X-0.062500X0.337500X-0.062500X0*%
%ADD34RoundRect,0.062500X0.062500X0.337500X-0.062500X0.337500X-0.062500X-0.337500X0.062500X-0.337500X0*%
%ADD35RoundRect,0.952500X1.167500X0.952500X-1.167500X0.952500X-1.167500X-0.952500X1.167500X-0.952500X0*%
%ADD36RoundRect,0.150000X-0.150000X0.825000X-0.150000X-0.825000X0.150000X-0.825000X0.150000X0.825000X0*%
%ADD37R,1.500000X0.900000*%
%ADD38R,0.900000X1.500000*%
%ADD39R,1.050000X1.050000*%
G04 APERTURE END LIST*
D10*
%TO.C,U4*%
X109337500Y-79750000D03*
X109337500Y-78800000D03*
X109337500Y-77850000D03*
X107062500Y-77850000D03*
X107062500Y-79750000D03*
%TD*%
D11*
%TO.C,R11*%
X110087500Y-72200000D03*
X111912500Y-72200000D03*
%TD*%
D12*
%TO.C,R7*%
X105112500Y-78000000D03*
X103287500Y-78000000D03*
%TD*%
D13*
%TO.C,D3*%
X113800000Y-75100000D03*
X113800000Y-77300000D03*
%TD*%
D14*
%TO.C,C18*%
X111975000Y-74200000D03*
X110425000Y-74200000D03*
%TD*%
D15*
%TO.C,C8*%
X103425000Y-76200000D03*
X104975000Y-76200000D03*
%TD*%
%TO.C,C13*%
X107225000Y-81400000D03*
X108775000Y-81400000D03*
%TD*%
D16*
%TO.C,R5*%
X131435000Y-49812500D03*
X131435000Y-47987500D03*
%TD*%
D11*
%TO.C,R26*%
X68345000Y-97600000D03*
X70170000Y-97600000D03*
%TD*%
D17*
%TO.C,D1*%
X141050000Y-59200000D03*
D18*
X142750000Y-59200000D03*
X142750000Y-57200000D03*
X140850000Y-57200000D03*
%TD*%
D19*
%TO.C,L1*%
X59545000Y-71700000D03*
X70645000Y-71700000D03*
%TD*%
D20*
%TO.C,U2*%
X104800000Y-90850000D03*
X102500000Y-90850000D03*
D21*
X102500000Y-97150000D03*
D20*
X100200000Y-90850000D03*
%TD*%
D12*
%TO.C,R4*%
X82100000Y-64800000D03*
X80275000Y-64800000D03*
%TD*%
%TO.C,R1*%
X139947500Y-50000000D03*
X138122500Y-50000000D03*
%TD*%
D16*
%TO.C,R24*%
X121500000Y-72312500D03*
X121500000Y-70487500D03*
%TD*%
D22*
%TO.C,C9*%
X104475000Y-87000000D03*
X101525000Y-87000000D03*
%TD*%
D10*
%TO.C,U12*%
X69995000Y-95550000D03*
X69995000Y-94600000D03*
X69995000Y-93650000D03*
X67720000Y-93650000D03*
X67720000Y-95550000D03*
%TD*%
D23*
%TO.C,D2*%
X147500000Y-67750000D03*
X151500000Y-67750000D03*
%TD*%
D24*
%TO.C,U8*%
X61345000Y-61985000D03*
X63045000Y-61985000D03*
X64745000Y-61985000D03*
D25*
X61970000Y-55260000D03*
X67520000Y-55260000D03*
X61970000Y-50410000D03*
X67520000Y-50410000D03*
D24*
X66445000Y-61985000D03*
X68145000Y-61985000D03*
%TD*%
D26*
%TO.C,J2*%
X146590000Y-57850000D03*
X146590000Y-57050000D03*
D27*
X146590000Y-55900000D03*
X146590000Y-54900000D03*
X146590000Y-54400000D03*
X146590000Y-53400000D03*
D26*
X146590000Y-52250000D03*
X146590000Y-51450000D03*
X146590000Y-51450000D03*
X146590000Y-52250000D03*
D27*
X146590000Y-52900000D03*
X146590000Y-53900000D03*
X146590000Y-55400000D03*
X146590000Y-56400000D03*
D26*
X146590000Y-57050000D03*
X146590000Y-57850000D03*
%TD*%
D28*
%TO.C,R25*%
X72320000Y-90200000D03*
X66395000Y-90200000D03*
%TD*%
D22*
%TO.C,C10*%
X111475000Y-87000000D03*
X108525000Y-87000000D03*
%TD*%
D29*
%TO.C,C36*%
X71857500Y-93925000D03*
X71857500Y-95475000D03*
%TD*%
D12*
%TO.C,R10*%
X136962500Y-61500000D03*
X135137500Y-61500000D03*
%TD*%
D30*
%TO.C,C3*%
X136335000Y-49575000D03*
X136335000Y-48025000D03*
%TD*%
D31*
%TO.C,Q4*%
X135350000Y-63700000D03*
X133450000Y-63700000D03*
X134400000Y-65575000D03*
%TD*%
D32*
%TO.C,U1*%
X136555000Y-55720000D03*
X136555000Y-54600000D03*
X136555000Y-53480000D03*
X135435000Y-55720000D03*
X135435000Y-54600000D03*
X135435000Y-53480000D03*
X134315000Y-55720000D03*
X134315000Y-54600000D03*
X134315000Y-53480000D03*
D33*
X137885000Y-56100000D03*
X137885000Y-55600000D03*
X137885000Y-55100000D03*
X137885000Y-54600000D03*
X137885000Y-54100000D03*
X137885000Y-53600000D03*
X137885000Y-53100000D03*
D34*
X136935000Y-52150000D03*
X136435000Y-52150000D03*
X135935000Y-52150000D03*
X135435000Y-52150000D03*
X134935000Y-52150000D03*
X134435000Y-52150000D03*
X133935000Y-52150000D03*
D33*
X132985000Y-53100000D03*
X132985000Y-53600000D03*
X132985000Y-54100000D03*
X132985000Y-54600000D03*
X132985000Y-55100000D03*
X132985000Y-55600000D03*
X132985000Y-56100000D03*
D34*
X133935000Y-57050000D03*
X134435000Y-57050000D03*
X134935000Y-57050000D03*
X135435000Y-57050000D03*
X135935000Y-57050000D03*
X136435000Y-57050000D03*
X136935000Y-57050000D03*
%TD*%
D35*
%TO.C,F2*%
X81320000Y-59500000D03*
X74910000Y-59500000D03*
%TD*%
%TO.C,F1*%
X94420000Y-59300000D03*
X88010000Y-59300000D03*
%TD*%
D30*
%TO.C,C5*%
X142100000Y-49925000D03*
X142100000Y-48375000D03*
%TD*%
D36*
%TO.C,Q2*%
X83395000Y-67350000D03*
X82125000Y-67350000D03*
X80855000Y-67350000D03*
X79585000Y-67350000D03*
X79585000Y-72300000D03*
X80855000Y-72300000D03*
X82125000Y-72300000D03*
X83395000Y-72300000D03*
%TD*%
D30*
%TO.C,C6*%
X143800000Y-49925000D03*
X143800000Y-48375000D03*
%TD*%
D20*
%TO.C,U3*%
X112300000Y-90850000D03*
X110000000Y-90850000D03*
D21*
X110000000Y-97150000D03*
D20*
X107700000Y-90850000D03*
%TD*%
D37*
%TO.C,U9*%
X108992500Y-47935000D03*
X108992500Y-49205000D03*
X108992500Y-50475000D03*
X108992500Y-51745000D03*
X108992500Y-53015000D03*
X108992500Y-54285000D03*
X108992500Y-55555000D03*
X108992500Y-56825000D03*
X108992500Y-58095000D03*
X108992500Y-59365000D03*
X108992500Y-60635000D03*
X108992500Y-61905000D03*
X108992500Y-63175000D03*
X108992500Y-64445000D03*
D38*
X112032500Y-65695000D03*
X113302500Y-65695000D03*
X114572500Y-65695000D03*
X115842500Y-65695000D03*
X117112500Y-65695000D03*
X118382500Y-65695000D03*
X119652500Y-65695000D03*
X120922500Y-65695000D03*
X122192500Y-65695000D03*
X123462500Y-65695000D03*
D37*
X126492500Y-64445000D03*
X126492500Y-63175000D03*
X126492500Y-61905000D03*
X126492500Y-60635000D03*
X126492500Y-59365000D03*
X126492500Y-58095000D03*
X126492500Y-56825000D03*
X126492500Y-55555000D03*
X126492500Y-54285000D03*
X126492500Y-53015000D03*
X126492500Y-51745000D03*
X126492500Y-50475000D03*
X126492500Y-49205000D03*
X126492500Y-47935000D03*
D39*
X115537500Y-53750000D03*
X115537500Y-55275000D03*
X115537500Y-56800000D03*
X117062500Y-53750000D03*
X117062500Y-55275000D03*
X117062500Y-56800000D03*
X118587500Y-53750000D03*
X118587500Y-55275000D03*
X118587500Y-56800000D03*
%TD*%
D31*
%TO.C,Q3*%
X138900000Y-63700000D03*
X137000000Y-63700000D03*
X137950000Y-65575000D03*
%TD*%
D30*
%TO.C,C35*%
X65957500Y-95500000D03*
X65957500Y-93950000D03*
%TD*%
D16*
%TO.C,R2*%
X134435000Y-49812500D03*
X134435000Y-47987500D03*
%TD*%
M02*
