%TF.GenerationSoftware,KiCad,Pcbnew,8.0.1-8.0.1-1~ubuntu22.04.1*%
%TF.CreationDate,2024-04-07T11:52:22+03:00*%
%TF.ProjectId,main-module,6d61696e-2d6d-46f6-9475-6c652e6b6963,rev?*%
%TF.SameCoordinates,Original*%
%TF.FileFunction,Copper,L2,Inr*%
%TF.FilePolarity,Positive*%
%FSLAX46Y46*%
G04 Gerber Fmt 4.6, Leading zero omitted, Abs format (unit mm)*
G04 Created by KiCad (PCBNEW 8.0.1-8.0.1-1~ubuntu22.04.1) date 2024-04-07 11:52:22*
%MOMM*%
%LPD*%
G01*
G04 APERTURE LIST*
G04 Aperture macros list*
%AMRoundRect*
0 Rectangle with rounded corners*
0 $1 Rounding radius*
0 $2 $3 $4 $5 $6 $7 $8 $9 X,Y pos of 4 corners*
0 Add a 4 corners polygon primitive as box body*
4,1,4,$2,$3,$4,$5,$6,$7,$8,$9,$2,$3,0*
0 Add four circle primitives for the rounded corners*
1,1,$1+$1,$2,$3*
1,1,$1+$1,$4,$5*
1,1,$1+$1,$6,$7*
1,1,$1+$1,$8,$9*
0 Add four rect primitives between the rounded corners*
20,1,$1+$1,$2,$3,$4,$5,0*
20,1,$1+$1,$4,$5,$6,$7,0*
20,1,$1+$1,$6,$7,$8,$9,0*
20,1,$1+$1,$8,$9,$2,$3,0*%
G04 Aperture macros list end*
%TA.AperFunction,ComponentPad*%
%ADD10R,1.560000X1.560000*%
%TD*%
%TA.AperFunction,ComponentPad*%
%ADD11C,1.560000*%
%TD*%
%TA.AperFunction,ComponentPad*%
%ADD12RoundRect,0.250000X0.600000X0.750000X-0.600000X0.750000X-0.600000X-0.750000X0.600000X-0.750000X0*%
%TD*%
%TA.AperFunction,ComponentPad*%
%ADD13O,1.700000X2.000000*%
%TD*%
%TA.AperFunction,ComponentPad*%
%ADD14C,2.000000*%
%TD*%
%TA.AperFunction,ComponentPad*%
%ADD15RoundRect,0.250000X-0.750000X0.600000X-0.750000X-0.600000X0.750000X-0.600000X0.750000X0.600000X0*%
%TD*%
%TA.AperFunction,ComponentPad*%
%ADD16O,2.000000X1.700000*%
%TD*%
%TA.AperFunction,ComponentPad*%
%ADD17O,2.000000X1.200000*%
%TD*%
%TA.AperFunction,ComponentPad*%
%ADD18O,2.400000X1.000000*%
%TD*%
%TA.AperFunction,ComponentPad*%
%ADD19RoundRect,0.250000X-0.600000X-0.725000X0.600000X-0.725000X0.600000X0.725000X-0.600000X0.725000X0*%
%TD*%
%TA.AperFunction,ComponentPad*%
%ADD20O,1.700000X1.950000*%
%TD*%
%TA.AperFunction,ComponentPad*%
%ADD21R,1.600000X1.600000*%
%TD*%
%TA.AperFunction,ComponentPad*%
%ADD22C,1.600000*%
%TD*%
%TA.AperFunction,ComponentPad*%
%ADD23C,1.524000*%
%TD*%
%TA.AperFunction,HeatsinkPad*%
%ADD24C,0.600000*%
%TD*%
%TA.AperFunction,ComponentPad*%
%ADD25R,3.200000X3.200000*%
%TD*%
%TA.AperFunction,ComponentPad*%
%ADD26O,3.200000X3.200000*%
%TD*%
%TA.AperFunction,ViaPad*%
%ADD27C,0.800000*%
%TD*%
%TA.AperFunction,Conductor*%
%ADD28C,0.500000*%
%TD*%
%TA.AperFunction,Conductor*%
%ADD29C,0.200000*%
%TD*%
G04 APERTURE END LIST*
D10*
%TO.N,GNDA*%
%TO.C,RV1*%
X121300000Y-81240000D03*
D11*
%TO.N,Net-(U4-Vin-)*%
X118800000Y-76240000D03*
%TO.N,Net-(D3-A)*%
X116300000Y-81240000D03*
%TD*%
D12*
%TO.N,GNDA*%
%TO.C,J4*%
X105750000Y-72525000D03*
D13*
%TO.N,Net-(J4-Pin_2)*%
X103250000Y-72525000D03*
%TD*%
D14*
%TO.N,/M_ENABLE#*%
%TO.C,U5*%
X77060000Y-96675000D03*
%TO.N,GNDA*%
X79600000Y-96675000D03*
X82140000Y-96675000D03*
%TO.N,unconnected-(U5-PDN{slash}UART1-Pad4)*%
X84680000Y-96675000D03*
%TO.N,unconnected-(U5-PDN{slash}UART2-Pad5)*%
X87220000Y-96675000D03*
%TO.N,unconnected-(U5-EXTERNAL_CLK-Pad6)*%
X89760000Y-96675000D03*
%TO.N,/M_STEP*%
X92300000Y-96675000D03*
%TO.N,/M_DIR*%
X94840000Y-96675000D03*
%TO.N,VD*%
X77060000Y-83975000D03*
%TO.N,GNDPWR*%
X79600000Y-83975000D03*
%TO.N,Net-(J5-Pin_1)*%
X82140000Y-83975000D03*
%TO.N,Net-(J5-Pin_2)*%
X84680000Y-83975000D03*
%TO.N,Net-(J5-Pin_3)*%
X87220000Y-83975000D03*
%TO.N,Net-(J5-Pin_4)*%
X89760000Y-83975000D03*
%TO.N,+3V3*%
X92300000Y-83975000D03*
%TO.N,GNDPWR*%
X94840000Y-83975000D03*
%TD*%
D15*
%TO.N,Net-(D6-A1)*%
%TO.C,J9*%
X60570000Y-91800000D03*
D16*
%TO.N,GNDPWR*%
X60570000Y-94300000D03*
%TD*%
D15*
%TO.N,GNDPWR*%
%TO.C,J1*%
X79060000Y-50250000D03*
D16*
%TO.N,/7.5V_BEFORE_FUSE*%
X79060000Y-52750000D03*
%TD*%
D14*
%TO.N,/FM_OUT_433*%
%TO.C,U7*%
X143495000Y-75100000D03*
%TO.N,+5V*%
X146035000Y-75100000D03*
%TO.N,GNDA*%
X148575000Y-75100000D03*
%TD*%
D17*
%TO.N,GNDA*%
%TO.C,J2*%
X147475000Y-60250000D03*
D18*
X151400000Y-60250000D03*
D17*
X147475000Y-49050000D03*
D18*
X151400000Y-49050000D03*
%TD*%
D19*
%TO.N,Net-(J5-Pin_1)*%
%TO.C,J5*%
X85500000Y-77800000D03*
D20*
%TO.N,Net-(J5-Pin_2)*%
X88000000Y-77800000D03*
%TO.N,Net-(J5-Pin_3)*%
X90500000Y-77800000D03*
%TO.N,Net-(J5-Pin_4)*%
X93000000Y-77800000D03*
%TD*%
D14*
%TO.N,GNDA*%
%TO.C,SW1*%
X102635000Y-56275000D03*
%TO.N,/ESP32_ENABLE*%
X102635000Y-49775000D03*
%TD*%
D21*
%TO.N,+3V3*%
%TO.C,C28*%
X96735000Y-49700000D03*
D22*
%TO.N,GNDA*%
X96735000Y-52200000D03*
%TD*%
D21*
%TO.N,/7.5V_BEFORE_FUSE*%
%TO.C,C4*%
X87735000Y-53400000D03*
D22*
%TO.N,GNDA*%
X87735000Y-49900000D03*
%TD*%
D14*
%TO.N,unconnected-(U6-ANT-Pad1)*%
%TO.C,U6*%
X150300000Y-88500000D03*
%TO.N,GNDA*%
X147760000Y-88500000D03*
%TO.N,+5V*%
X128800000Y-88500000D03*
X126260000Y-88500000D03*
%TO.N,/FM_IN_5V_433*%
X123720000Y-88500000D03*
%TO.N,GNDA*%
X121180000Y-88500000D03*
%TD*%
%TO.N,/CHARGER_START_BUTTON*%
%TO.C,SW5*%
X102635000Y-59750000D03*
%TO.N,GNDA*%
X102635000Y-66250000D03*
%TD*%
D23*
%TO.N,GNDA*%
%TO.C,TP1*%
X151500000Y-82000000D03*
%TD*%
D14*
%TO.N,unconnected-(U11-ANT-Pad1)*%
%TO.C,U11*%
X150235000Y-95900000D03*
%TO.N,GNDA*%
X147695000Y-95900000D03*
%TO.N,+5V*%
X128735000Y-95900000D03*
X126195000Y-95900000D03*
%TO.N,/FM_IN_5V_315*%
X123655000Y-95900000D03*
%TO.N,GNDA*%
X121115000Y-95900000D03*
%TD*%
D21*
%TO.N,Net-(D4-K)*%
%TO.C,C32*%
X69095000Y-84500000D03*
D22*
%TO.N,GNDPWR*%
X69095000Y-81000000D03*
%TD*%
D12*
%TO.N,GNDA*%
%TO.C,J7*%
X128550000Y-74800000D03*
D13*
%TO.N,/LIMIT_SWITCH*%
X126050000Y-74800000D03*
%TD*%
D24*
%TO.N,GNDA*%
%TO.C,U9*%
X115537500Y-54512500D03*
X115537500Y-56037500D03*
X116300000Y-53750000D03*
X116300000Y-55275000D03*
X116300000Y-56800000D03*
X117062500Y-54512500D03*
X117062500Y-56037500D03*
X117825000Y-53750000D03*
X117825000Y-55275000D03*
X117825000Y-56800000D03*
X118587500Y-54512500D03*
X118587500Y-56037500D03*
%TD*%
D25*
%TO.N,Net-(D4-K)*%
%TO.C,D4*%
X60895000Y-84505000D03*
D26*
%TO.N,Net-(D4-A)*%
X60895000Y-80695000D03*
%TD*%
D27*
%TO.N,/M_DIR*%
X108000000Y-83400000D03*
%TO.N,/M_ENABLE#*%
X112200000Y-83000000D03*
%TO.N,/M_STEP*%
X104800000Y-83200000D03*
%TO.N,/NOISE*%
X112000000Y-73200000D03*
%TO.N,GNDA*%
X110000000Y-72200000D03*
%TO.N,/NOISE*%
X109000000Y-55600000D03*
%TO.N,GNDA*%
X108800000Y-81400000D03*
%TO.N,Net-(U4-Vin+)*%
X105000000Y-76200000D03*
%TO.N,+5V*%
X101725000Y-77000000D03*
%TO.N,+3V3*%
X111500000Y-97000000D03*
%TO.N,+5V*%
X108500000Y-89000000D03*
%TO.N,GNDA*%
X111500000Y-89000000D03*
X104500000Y-89000000D03*
%TO.N,+3V3*%
X114500000Y-97000000D03*
%TO.N,+5V*%
X105000000Y-93500000D03*
%TO.N,GNDA*%
X141000000Y-60500000D03*
X71857500Y-93925000D03*
X135535000Y-54600000D03*
X112032500Y-65695000D03*
X73000000Y-48550000D03*
%TO.N,+3V3*%
X114100000Y-51000000D03*
X106700000Y-58400000D03*
%TO.N,GNDPWR*%
X61295000Y-61800000D03*
X61295000Y-63300000D03*
X61295000Y-60300000D03*
%TO.N,+5V*%
X66045000Y-95550000D03*
X147500000Y-67750000D03*
X71395000Y-50600000D03*
%TO.N,/+7.5V_CHARGER_AFTER_FUSE*%
X66495000Y-61200000D03*
X66495000Y-63000000D03*
X66495000Y-62100000D03*
%TO.N,/ESP32_ENABLE*%
X134400000Y-69400000D03*
%TO.N,Net-(D4-K)*%
X62895000Y-70800000D03*
%TO.N,/CHARGER_CURRENT_SENCE*%
X69795000Y-59335000D03*
X71045000Y-95550000D03*
%TO.N,/IC_CHARGER_ENABLE*%
X65100000Y-47535000D03*
X89400000Y-48500000D03*
%TO.N,/CHARGER_FEEDBACK*%
X65995000Y-70800000D03*
X57395000Y-66100000D03*
%TO.N,VBUS*%
X144935000Y-52200000D03*
X144835000Y-57100000D03*
X139935000Y-50000000D03*
%TO.N,/D+*%
X144035000Y-53300000D03*
X142235000Y-54800000D03*
%TO.N,/D-*%
X144035000Y-56000000D03*
X143135000Y-54200000D03*
%TO.N,/LIMIT_SWITCH*%
X109000000Y-58100000D03*
%TO.N,/VM_ENABLE*%
X97165000Y-64970000D03*
X91400000Y-70900000D03*
%TO.N,Net-(Q1-D)*%
X86857500Y-66612500D03*
%TO.N,Net-(Q3-B)*%
X138950000Y-63750000D03*
%TO.N,Net-(Q4-E)*%
X133450000Y-63750000D03*
%TO.N,/CHARGER_ENABLE*%
X62395000Y-58500000D03*
X57395000Y-58500000D03*
%TO.N,/FM_IN_433*%
X126500000Y-85000000D03*
X126492500Y-59365000D03*
%TO.N,/FM_IN_315*%
X126492500Y-54285000D03*
X126235000Y-92600000D03*
%TO.N,/TXD_3V3*%
X134479378Y-59169163D03*
X130700000Y-58000000D03*
%TO.N,/RXD_3V3*%
X135035000Y-60000000D03*
X129400000Y-57400000D03*
%TO.N,/FM_OUT_433*%
X126492500Y-50475000D03*
%TO.N,/M_DIR*%
X126492500Y-61905000D03*
%TO.N,/M_STEP*%
X126492500Y-60635000D03*
%TO.N,/M_ENABLE#*%
X123462500Y-65695000D03*
%TO.N,Net-(D6-A1)*%
X63900000Y-90200000D03*
%TD*%
D28*
%TO.N,/M_DIR*%
X108000000Y-83515000D02*
X102515000Y-89000000D01*
X108000000Y-83400000D02*
X108000000Y-83515000D01*
X108115000Y-83400000D02*
X108000000Y-83400000D01*
%TO.N,/M_ENABLE#*%
X112200000Y-83050000D02*
X110250000Y-85000000D01*
X112200000Y-83000000D02*
X112200000Y-83050000D01*
X112250000Y-83000000D02*
X112200000Y-83000000D01*
%TO.N,/M_STEP*%
X104800000Y-83200000D02*
X92300000Y-95700000D01*
%TO.N,/M_DIR*%
X126492500Y-61905000D02*
X126387500Y-61800000D01*
X126387500Y-61800000D02*
X120200000Y-61800000D01*
X113000000Y-78515000D02*
X108115000Y-83400000D01*
X120200000Y-61800000D02*
X113000000Y-69000000D01*
X113000000Y-69000000D02*
X113000000Y-78515000D01*
X102515000Y-89000000D02*
X102500000Y-89000000D01*
X102500000Y-89000000D02*
X102500000Y-89015000D01*
X102500000Y-89015000D02*
X94840000Y-96675000D01*
%TO.N,/M_STEP*%
X126492500Y-60635000D02*
X126457500Y-60600000D01*
X126457500Y-60600000D02*
X119650000Y-60600000D01*
X111000000Y-69250000D02*
X111000000Y-77000000D01*
X119650000Y-60600000D02*
X111000000Y-69250000D01*
X111000000Y-77000000D02*
X104800000Y-83200000D01*
X92300000Y-95700000D02*
X92300000Y-96675000D01*
%TO.N,GNDA*%
X71857500Y-93925000D02*
X74600000Y-91182500D01*
X74600000Y-91182500D02*
X74600000Y-50150000D01*
X74600000Y-50150000D02*
X73000000Y-48550000D01*
%TO.N,/ESP32_ENABLE*%
X126600000Y-52300000D02*
X131750000Y-57450000D01*
X132700000Y-69400000D02*
X134400000Y-69400000D01*
X131750000Y-57450000D02*
X131750000Y-68450000D01*
X105100000Y-52300000D02*
X126600000Y-52300000D01*
X131750000Y-68450000D02*
X132700000Y-69400000D01*
X102635000Y-49835000D02*
X105100000Y-52300000D01*
D29*
%TO.N,/CHARGER_FEEDBACK*%
X65995000Y-70800000D02*
X64495000Y-69300000D01*
X64495000Y-69300000D02*
X58295000Y-69300000D01*
X58295000Y-69300000D02*
X57395000Y-68400000D01*
X57395000Y-68400000D02*
X57395000Y-66100000D01*
D28*
%TO.N,VBUS*%
X141935000Y-52200000D02*
X139935000Y-50200000D01*
X144935000Y-52200000D02*
X141935000Y-52200000D01*
X144935000Y-52200000D02*
X144935000Y-57000000D01*
D29*
%TO.N,/D+*%
X142235000Y-54110050D02*
X142235000Y-54800000D01*
X143045050Y-53300000D02*
X142235000Y-54110050D01*
X144035000Y-53300000D02*
X143045050Y-53300000D01*
%TO.N,/D-*%
X143935000Y-56000000D02*
X143135000Y-55200000D01*
X143135000Y-55200000D02*
X143135000Y-54200000D01*
%TO.N,/VM_ENABLE*%
X97165000Y-65135000D02*
X97165000Y-64970000D01*
X91400000Y-70900000D02*
X97165000Y-65135000D01*
D28*
%TO.N,/FM_IN_433*%
X126665000Y-59365000D02*
X128300000Y-61000000D01*
X123500000Y-71700000D02*
X123500000Y-83200000D01*
X126492500Y-59365000D02*
X126665000Y-59365000D01*
X125300000Y-85000000D02*
X126500000Y-85000000D01*
X128300000Y-61000000D02*
X128300000Y-66900000D01*
X128300000Y-66900000D02*
X123500000Y-71700000D01*
X123500000Y-83200000D02*
X125300000Y-85000000D01*
%TO.N,/FM_IN_315*%
X126492500Y-54285000D02*
X126492500Y-56257500D01*
X130500000Y-90750000D02*
X128250000Y-93000000D01*
X130500000Y-60265000D02*
X130500000Y-90750000D01*
X126492500Y-56257500D02*
X130500000Y-60265000D01*
X128250000Y-93000000D02*
X126235000Y-93000000D01*
%TO.N,/FM_OUT_433*%
X140100000Y-62600000D02*
X140100000Y-72600000D01*
X140100000Y-72600000D02*
X142600000Y-75100000D01*
X142600000Y-75100000D02*
X143495000Y-75100000D01*
X128000000Y-50500000D02*
X140100000Y-62600000D01*
X126492500Y-50475000D02*
X126517500Y-50500000D01*
X126517500Y-50500000D02*
X128000000Y-50500000D01*
%TO.N,/M_ENABLE#*%
X114435000Y-74765000D02*
X114435000Y-80815000D01*
X96950000Y-98300000D02*
X78685000Y-98300000D01*
X123462500Y-65737500D02*
X114435000Y-74765000D01*
X123462500Y-65695000D02*
X123462500Y-65737500D01*
X110200000Y-85050000D02*
X96950000Y-98300000D01*
X110200000Y-85000000D02*
X110200000Y-85050000D01*
X114435000Y-80815000D02*
X112250000Y-83000000D01*
X110250000Y-85000000D02*
X110200000Y-85000000D01*
X78685000Y-98300000D02*
X77060000Y-96675000D01*
%TD*%
%TA.AperFunction,Conductor*%
%TO.N,/M_STEP*%
G36*
X92859168Y-94803251D02*
G01*
X93201606Y-95145689D01*
X93205010Y-95153233D01*
X93299224Y-96662579D01*
X93296319Y-96671050D01*
X93288276Y-96674985D01*
X93287555Y-96675008D01*
X92304150Y-96675703D01*
X92295875Y-96672282D01*
X92295861Y-96672268D01*
X92206509Y-96582737D01*
X91601444Y-95976461D01*
X91598026Y-95968186D01*
X91601461Y-95959917D01*
X91601722Y-95959664D01*
X92842920Y-94802964D01*
X92851307Y-94799831D01*
X92859168Y-94803251D01*
G37*
%TD.AperFunction*%
%TD*%
%TA.AperFunction,Conductor*%
%TO.N,/M_DIR*%
G36*
X126488612Y-61508657D02*
G01*
X126492511Y-61516718D01*
X126492530Y-61517364D01*
X126493494Y-61902644D01*
X126492593Y-61907175D01*
X126343707Y-62264285D01*
X126337360Y-62270603D01*
X126328958Y-62270796D01*
X125721136Y-62052779D01*
X125714505Y-62046760D01*
X125713386Y-62041766D01*
X125713386Y-61561044D01*
X125716813Y-61552771D01*
X125724410Y-61549363D01*
X126480157Y-61505712D01*
X126488612Y-61508657D01*
G37*
%TD.AperFunction*%
%TD*%
%TA.AperFunction,Conductor*%
%TO.N,/M_DIR*%
G36*
X96079179Y-95086998D02*
G01*
X96082952Y-95089525D01*
X96425474Y-95432047D01*
X96428901Y-95440320D01*
X96428020Y-95444775D01*
X95768340Y-97046851D01*
X95762021Y-97053196D01*
X95753066Y-97053215D01*
X95753054Y-97053210D01*
X94843784Y-96677562D01*
X94837446Y-96671235D01*
X94837437Y-96671215D01*
X94461789Y-95761945D01*
X94461798Y-95752991D01*
X94468134Y-95746665D01*
X96070226Y-95086979D01*
X96079179Y-95086998D01*
G37*
%TD.AperFunction*%
%TD*%
%TA.AperFunction,Conductor*%
%TO.N,/M_STEP*%
G36*
X126487833Y-60239139D02*
G01*
X126492412Y-60246835D01*
X126492533Y-60248485D01*
X126493494Y-60632644D01*
X126492593Y-60637175D01*
X126343268Y-60995337D01*
X126336921Y-61001655D01*
X126329722Y-61002208D01*
X125708415Y-60852162D01*
X125701178Y-60846889D01*
X125699462Y-60840789D01*
X125699462Y-60360125D01*
X125702889Y-60351852D01*
X125709480Y-60348547D01*
X126479154Y-60236935D01*
X126487833Y-60239139D01*
G37*
%TD.AperFunction*%
%TD*%
%TA.AperFunction,Conductor*%
%TO.N,GNDA*%
G36*
X72253275Y-93189404D02*
G01*
X72593095Y-93529224D01*
X72596522Y-93537497D01*
X72594478Y-93544104D01*
X72148283Y-94196237D01*
X72140783Y-94201130D01*
X72132020Y-94199286D01*
X72130375Y-94197924D01*
X71856793Y-93925707D01*
X71856751Y-93925665D01*
X71584575Y-93652124D01*
X71581169Y-93643843D01*
X71584617Y-93635578D01*
X71586256Y-93634220D01*
X72238395Y-93188020D01*
X72247158Y-93186177D01*
X72253275Y-93189404D01*
G37*
%TD.AperFunction*%
%TD*%
%TA.AperFunction,Conductor*%
%TO.N,GNDA*%
G36*
X73289421Y-48277117D02*
G01*
X73290783Y-48278762D01*
X73736978Y-48930895D01*
X73738822Y-48939658D01*
X73735595Y-48945775D01*
X73395775Y-49285595D01*
X73387502Y-49289022D01*
X73380895Y-49286978D01*
X72728762Y-48840783D01*
X72723869Y-48833283D01*
X72725713Y-48824520D01*
X72727075Y-48822875D01*
X72999251Y-48549335D01*
X72999293Y-48549293D01*
X73272875Y-48277075D01*
X73281156Y-48273669D01*
X73289421Y-48277117D01*
G37*
%TD.AperFunction*%
%TD*%
%TA.AperFunction,Conductor*%
%TO.N,/ESP32_ENABLE*%
G36*
X134394942Y-69004435D02*
G01*
X134399835Y-69011935D01*
X134400035Y-69014062D01*
X134401000Y-69400000D01*
X134401000Y-69400058D01*
X134400035Y-69785937D01*
X134396587Y-69794202D01*
X134388306Y-69797608D01*
X134386179Y-69797408D01*
X133609544Y-69651789D01*
X133602044Y-69646896D01*
X133600000Y-69640289D01*
X133600000Y-69159710D01*
X133603427Y-69151437D01*
X133609542Y-69148210D01*
X134386180Y-69002591D01*
X134394942Y-69004435D01*
G37*
%TD.AperFunction*%
%TD*%
%TA.AperFunction,Conductor*%
%TO.N,/ESP32_ENABLE*%
G36*
X103556744Y-49396907D02*
G01*
X103563071Y-49403245D01*
X103563180Y-49403519D01*
X104187300Y-51029376D01*
X104187066Y-51038328D01*
X104184650Y-51041842D01*
X103842110Y-51384382D01*
X103833837Y-51387809D01*
X103829158Y-51386833D01*
X102262832Y-50703467D01*
X102256620Y-50697018D01*
X102256696Y-50688278D01*
X102632438Y-49778782D01*
X102638764Y-49772446D01*
X102638767Y-49772444D01*
X103547791Y-49396898D01*
X103556744Y-49396907D01*
G37*
%TD.AperFunction*%
%TD*%
%TA.AperFunction,Conductor*%
%TO.N,/CHARGER_FEEDBACK*%
G36*
X65507233Y-70166572D02*
G01*
X66075944Y-70400747D01*
X66137256Y-70425994D01*
X66143601Y-70432313D01*
X66143621Y-70441265D01*
X65997563Y-70796195D01*
X65991245Y-70802542D01*
X65991195Y-70802563D01*
X65636265Y-70948621D01*
X65627311Y-70948600D01*
X65620994Y-70942256D01*
X65560851Y-70796195D01*
X65361573Y-70312235D01*
X65361592Y-70303282D01*
X65364116Y-70299512D01*
X65494510Y-70169118D01*
X65502782Y-70165692D01*
X65507233Y-70166572D01*
G37*
%TD.AperFunction*%
%TD*%
%TA.AperFunction,Conductor*%
%TO.N,/CHARGER_FEEDBACK*%
G36*
X57753755Y-66248571D02*
G01*
X57760073Y-66254918D01*
X57760053Y-66263870D01*
X57498000Y-66892800D01*
X57491655Y-66899119D01*
X57487200Y-66900000D01*
X57302800Y-66900000D01*
X57294527Y-66896573D01*
X57292000Y-66892800D01*
X57029945Y-66263868D01*
X57029927Y-66254915D01*
X57036242Y-66248572D01*
X57390500Y-66100875D01*
X57399449Y-66100855D01*
X57753755Y-66248571D01*
G37*
%TD.AperFunction*%
%TD*%
%TA.AperFunction,Conductor*%
%TO.N,VBUS*%
G36*
X140302642Y-49851418D02*
G01*
X140308960Y-49857765D01*
X140308978Y-49857809D01*
X140554645Y-50461825D01*
X140554587Y-50470780D01*
X140552080Y-50474506D01*
X140212199Y-50814387D01*
X140203926Y-50817814D01*
X140195745Y-50814479D01*
X139660593Y-50291094D01*
X139657075Y-50282859D01*
X139660407Y-50274550D01*
X139932630Y-50000963D01*
X139936470Y-49998396D01*
X140293689Y-49851397D01*
X140302642Y-49851418D01*
G37*
%TD.AperFunction*%
%TD*%
%TA.AperFunction,Conductor*%
%TO.N,VBUS*%
G36*
X144929942Y-51804435D02*
G01*
X144934835Y-51811935D01*
X144935035Y-51814062D01*
X144936000Y-52200000D01*
X144936000Y-52200058D01*
X144935035Y-52585937D01*
X144931587Y-52594202D01*
X144923306Y-52597608D01*
X144921179Y-52597408D01*
X144144544Y-52451789D01*
X144137044Y-52446896D01*
X144135000Y-52440289D01*
X144135000Y-51959710D01*
X144138427Y-51951437D01*
X144144542Y-51948210D01*
X144921180Y-51802591D01*
X144929942Y-51804435D01*
G37*
%TD.AperFunction*%
%TD*%
%TA.AperFunction,Conductor*%
%TO.N,VBUS*%
G36*
X145182299Y-56323318D02*
G01*
X145185702Y-56330843D01*
X145234204Y-57087583D01*
X145231313Y-57096058D01*
X145223276Y-57100007D01*
X145222557Y-57100031D01*
X144837355Y-57100994D01*
X144832824Y-57100093D01*
X144734468Y-57059086D01*
X144475636Y-56951174D01*
X144469318Y-56944827D01*
X144469095Y-56936511D01*
X144682257Y-56327723D01*
X144688226Y-56321049D01*
X144693300Y-56319891D01*
X145174026Y-56319891D01*
X145182299Y-56323318D01*
G37*
%TD.AperFunction*%
%TD*%
%TA.AperFunction,Conductor*%
%TO.N,VBUS*%
G36*
X145320939Y-52199964D02*
G01*
X145329202Y-52203412D01*
X145332608Y-52211693D01*
X145332408Y-52213820D01*
X145186790Y-52990456D01*
X145181897Y-52997956D01*
X145175290Y-53000000D01*
X144694710Y-53000000D01*
X144686437Y-52996573D01*
X144683210Y-52990456D01*
X144537591Y-52213820D01*
X144539435Y-52205057D01*
X144546935Y-52200164D01*
X144549052Y-52199964D01*
X144935000Y-52199000D01*
X145320939Y-52199964D01*
G37*
%TD.AperFunction*%
%TD*%
%TA.AperFunction,Conductor*%
%TO.N,/D+*%
G36*
X142250488Y-53970562D02*
G01*
X142253126Y-53972543D01*
X142381852Y-54101269D01*
X142384418Y-54105138D01*
X142600181Y-54636170D01*
X142600121Y-54645124D01*
X142593830Y-54651379D01*
X142238789Y-54798839D01*
X142229834Y-54798848D01*
X142229799Y-54798833D01*
X141877475Y-54651941D01*
X141871157Y-54645594D01*
X141871178Y-54636640D01*
X141871717Y-54635518D01*
X142234601Y-53975179D01*
X142241587Y-53969581D01*
X142250488Y-53970562D01*
G37*
%TD.AperFunction*%
%TD*%
%TA.AperFunction,Conductor*%
%TO.N,/D+*%
G36*
X143886428Y-52941244D02*
G01*
X144034123Y-53295498D01*
X144034144Y-53304452D01*
X144034123Y-53304502D01*
X143886428Y-53658755D01*
X143880081Y-53665073D01*
X143871129Y-53665053D01*
X143242200Y-53402999D01*
X143235881Y-53396654D01*
X143235000Y-53392199D01*
X143235000Y-53207800D01*
X143238427Y-53199527D01*
X143242200Y-53197000D01*
X143871131Y-52934945D01*
X143880084Y-52934927D01*
X143886428Y-52941244D01*
G37*
%TD.AperFunction*%
%TD*%
%TA.AperFunction,Conductor*%
%TO.N,/D-*%
G36*
X143506663Y-55425562D02*
G01*
X144175709Y-55626730D01*
X144182645Y-55632393D01*
X144183544Y-55641303D01*
X144183160Y-55642386D01*
X144037563Y-55996195D01*
X144031245Y-56002542D01*
X144031195Y-56002563D01*
X143675329Y-56149006D01*
X143666375Y-56148985D01*
X143660504Y-56143599D01*
X143586894Y-56002542D01*
X143362521Y-55572582D01*
X143361733Y-55563664D01*
X143364620Y-55558900D01*
X143495027Y-55428493D01*
X143503299Y-55425067D01*
X143506663Y-55425562D01*
G37*
%TD.AperFunction*%
%TD*%
%TA.AperFunction,Conductor*%
%TO.N,/D-*%
G36*
X143493755Y-54348571D02*
G01*
X143500073Y-54354918D01*
X143500053Y-54363870D01*
X143238000Y-54992800D01*
X143231655Y-54999119D01*
X143227200Y-55000000D01*
X143042800Y-55000000D01*
X143034527Y-54996573D01*
X143032000Y-54992800D01*
X142769945Y-54363868D01*
X142769927Y-54354915D01*
X142776242Y-54348572D01*
X143130500Y-54200875D01*
X143139449Y-54200855D01*
X143493755Y-54348571D01*
G37*
%TD.AperFunction*%
%TD*%
%TA.AperFunction,Conductor*%
%TO.N,/VM_ENABLE*%
G36*
X91896717Y-70266592D02*
G01*
X91900490Y-70269119D01*
X92030880Y-70399509D01*
X92034307Y-70407782D01*
X92033426Y-70412237D01*
X91774005Y-71042256D01*
X91767686Y-71048601D01*
X91758734Y-71048621D01*
X91403804Y-70902563D01*
X91397457Y-70896245D01*
X91397436Y-70896195D01*
X91251378Y-70541265D01*
X91251399Y-70532311D01*
X91257742Y-70525994D01*
X91887764Y-70266573D01*
X91896717Y-70266592D01*
G37*
%TD.AperFunction*%
%TD*%
%TA.AperFunction,Conductor*%
%TO.N,/VM_ENABLE*%
G36*
X96808145Y-64822152D02*
G01*
X96827931Y-64830294D01*
X97161195Y-64967436D01*
X97167542Y-64973754D01*
X97167563Y-64973804D01*
X97314260Y-65330288D01*
X97314239Y-65339242D01*
X97309506Y-65344745D01*
X96776784Y-65667726D01*
X96767933Y-65669085D01*
X96762445Y-65665994D01*
X96632122Y-65535671D01*
X96628695Y-65527398D01*
X96629005Y-65524726D01*
X96792305Y-64830292D01*
X96797533Y-64823025D01*
X96806371Y-64821583D01*
X96808145Y-64822152D01*
G37*
%TD.AperFunction*%
%TD*%
%TA.AperFunction,Conductor*%
%TO.N,/FM_IN_433*%
G36*
X126783312Y-59090733D02*
G01*
X126783584Y-59091016D01*
X127296369Y-59642240D01*
X127299495Y-59650631D01*
X127296076Y-59658482D01*
X126956167Y-59998391D01*
X126947894Y-60001818D01*
X126943173Y-60000823D01*
X126349868Y-59739156D01*
X126343681Y-59732682D01*
X126343768Y-59724000D01*
X126490896Y-59366470D01*
X126493464Y-59362630D01*
X126766440Y-59091016D01*
X126766766Y-59090690D01*
X126775047Y-59087285D01*
X126783312Y-59090733D01*
G37*
%TD.AperFunction*%
%TD*%
%TA.AperFunction,Conductor*%
%TO.N,/FM_IN_433*%
G36*
X126494942Y-84604435D02*
G01*
X126499835Y-84611935D01*
X126500035Y-84614062D01*
X126501000Y-85000000D01*
X126501000Y-85000058D01*
X126500035Y-85385937D01*
X126496587Y-85394202D01*
X126488306Y-85397608D01*
X126486179Y-85397408D01*
X125709544Y-85251789D01*
X125702044Y-85246896D01*
X125700000Y-85240289D01*
X125700000Y-84759710D01*
X125703427Y-84751437D01*
X125709542Y-84748210D01*
X126486180Y-84602591D01*
X126494942Y-84604435D01*
G37*
%TD.AperFunction*%
%TD*%
%TA.AperFunction,Conductor*%
%TO.N,/FM_IN_315*%
G36*
X126878439Y-54284964D02*
G01*
X126886702Y-54288412D01*
X126890108Y-54296693D01*
X126889908Y-54298820D01*
X126744290Y-55075456D01*
X126739397Y-55082956D01*
X126732790Y-55085000D01*
X126252210Y-55085000D01*
X126243937Y-55081573D01*
X126240710Y-55075456D01*
X126095091Y-54298820D01*
X126096935Y-54290057D01*
X126104435Y-54285164D01*
X126106552Y-54284964D01*
X126492500Y-54284000D01*
X126878439Y-54284964D01*
G37*
%TD.AperFunction*%
%TD*%
%TA.AperFunction,Conductor*%
%TO.N,/FM_IN_315*%
G36*
X126631573Y-92603427D02*
G01*
X126635000Y-92611700D01*
X126635000Y-93230949D01*
X126631573Y-93239222D01*
X126623300Y-93242649D01*
X126618009Y-93241384D01*
X126091569Y-92974441D01*
X126085740Y-92967643D01*
X126086039Y-92959557D01*
X126231017Y-92607247D01*
X126237335Y-92600901D01*
X126241837Y-92600000D01*
X126623300Y-92600000D01*
X126631573Y-92603427D01*
G37*
%TD.AperFunction*%
%TD*%
%TA.AperFunction,Conductor*%
%TO.N,/FM_OUT_433*%
G36*
X143491424Y-74103494D02*
G01*
X143495006Y-74111701D01*
X143495008Y-74111914D01*
X143495703Y-75095849D01*
X143492282Y-75104124D01*
X143492268Y-75104138D01*
X142796736Y-75798281D01*
X142788459Y-75801700D01*
X142780190Y-75798265D01*
X142779666Y-75797704D01*
X141635745Y-74490328D01*
X141632876Y-74481846D01*
X141636276Y-74474352D01*
X141978755Y-74131873D01*
X141986805Y-74128449D01*
X143483088Y-74100224D01*
X143491424Y-74103494D01*
G37*
%TD.AperFunction*%
%TD*%
%TA.AperFunction,Conductor*%
%TO.N,/FM_OUT_433*%
G36*
X127278397Y-50247944D02*
G01*
X127285715Y-50253104D01*
X127287527Y-50259358D01*
X127287527Y-50739995D01*
X127284100Y-50748268D01*
X127277644Y-50751553D01*
X126505982Y-50872880D01*
X126497277Y-50870780D01*
X126492607Y-50863139D01*
X126492465Y-50861362D01*
X126491505Y-50477350D01*
X126492404Y-50472829D01*
X126641791Y-50114517D01*
X126648138Y-50108200D01*
X126655157Y-50107606D01*
X127278397Y-50247944D01*
G37*
%TD.AperFunction*%
%TD*%
%TA.AperFunction,Conductor*%
%TO.N,/M_ENABLE#*%
G36*
X123102107Y-65545696D02*
G01*
X123461027Y-65693396D01*
X123464869Y-65695964D01*
X123735774Y-65968226D01*
X123739180Y-65976507D01*
X123735732Y-65984772D01*
X123734425Y-65985894D01*
X123107168Y-66448510D01*
X123098475Y-66450663D01*
X123091950Y-66447367D01*
X122752079Y-66107496D01*
X122748652Y-66099223D01*
X122750414Y-66093049D01*
X123087720Y-65550338D01*
X123094996Y-65545122D01*
X123102107Y-65545696D01*
G37*
%TD.AperFunction*%
%TD*%
%TA.AperFunction,Conductor*%
%TO.N,/M_ENABLE#*%
G36*
X77982008Y-96296798D02*
G01*
X77988334Y-96303135D01*
X78648020Y-97905224D01*
X78648001Y-97914179D01*
X78645474Y-97917952D01*
X78302952Y-98260474D01*
X78294679Y-98263901D01*
X78290224Y-98263020D01*
X77443041Y-97914179D01*
X76688147Y-97603339D01*
X76681803Y-97597021D01*
X76681784Y-97588067D01*
X77057438Y-96678782D01*
X77063764Y-96672446D01*
X77063767Y-96672444D01*
X77973055Y-96296789D01*
X77982008Y-96296798D01*
G37*
%TD.AperFunction*%
%TD*%
M02*
