M48
; DRILL file {KiCad 8.0.1-8.0.1-1~ubuntu22.04.1} date 2024-04-07T11:52:26+0300
; FORMAT={-:-/ absolute / inch / decimal}
; #@! TF.CreationDate,2024-04-07T11:52:26+03:00
; #@! TF.GenerationSoftware,Kicad,Pcbnew,8.0.1-8.0.1-1~ubuntu22.04.1
; #@! TF.FileFunction,Plated,1,4,PTH
FMAT,2
INCH
; #@! TA.AperFunction,Plated,PTH,ComponentDrill
T1C0.0079
; #@! TA.AperFunction,Plated,PTH,ViaDrill
T2C0.0157
; #@! TA.AperFunction,Plated,PTH,ComponentDrill
T3C0.0300
; #@! TA.AperFunction,Plated,PTH,ComponentDrill
T4C0.0315
; #@! TA.AperFunction,Plated,PTH,ComponentDrill
T5C0.0374
; #@! TA.AperFunction,Plated,PTH,ComponentDrill
T6C0.0394
; #@! TA.AperFunction,Plated,PTH,ComponentDrill
T7C0.0472
; #@! TA.AperFunction,Plated,PTH,ComponentDrill
T8C0.0630
%
G90
G05
T1
X4.5487Y-2.1462
X4.5487Y-2.2062
X4.5787Y-2.1161
X4.5787Y-2.1762
X4.5787Y-2.2362
X4.6088Y-2.1462
X4.6088Y-2.2062
X4.6388Y-2.1161
X4.6388Y-2.1762
X4.6388Y-2.2362
X4.6688Y-2.1462
X4.6688Y-2.2062
T2
X2.2596Y-2.3031
X2.2596Y-2.6024
X2.4132Y-2.374
X2.4132Y-2.4331
X2.4132Y-2.4921
X2.4565Y-2.3031
X2.4762Y-2.7874
X2.5157Y-3.5512
X2.563Y-1.8715
X2.5982Y-2.7874
X2.6002Y-3.7618
X2.6179Y-2.4094
X2.6179Y-2.4449
X2.6179Y-2.4803
X2.7478Y-2.336
X2.797Y-3.7618
X2.8108Y-1.9921
X2.829Y-3.6978
X2.874Y-1.9114
X3.4196Y-2.6225
X3.5197Y-1.9094
X3.5984Y-2.7913
X3.8254Y-2.5579
X4.0049Y-3.0315
X4.1142Y-3.5039
X4.126Y-3.2756
X4.1339Y-3.0
X4.1339Y-3.6811
X4.2008Y-2.2992
X4.252Y-3.2835
X4.2717Y-3.5039
X4.2835Y-3.2047
X4.2913Y-2.189
X4.2913Y-2.2874
X4.3307Y-2.8425
X4.3898Y-3.5039
X4.3898Y-3.8189
X4.4094Y-2.8819
X4.4107Y-2.5864
X4.4173Y-3.2677
X4.4921Y-2.0079
X4.5079Y-3.8189
X4.8607Y-2.5864
X4.9699Y-3.6457
X4.98Y-1.9872
X4.98Y-2.1372
X4.98Y-2.3372
X4.98Y-2.3872
X4.98Y-2.4372
X4.9803Y-3.3465
X5.0945Y-2.2598
X5.1457Y-2.2835
X5.2539Y-2.5098
X5.2913Y-2.7323
X5.2945Y-2.3295
X5.3163Y-2.3622
X5.336Y-2.1496
X5.4705Y-2.5098
X5.5093Y-1.9685
X5.5512Y-2.3819
X5.5998Y-2.1575
X5.6352Y-2.1339
X5.6707Y-2.0984
X5.6707Y-2.2047
X5.7022Y-2.248
X5.7061Y-2.0551
X5.8071Y-2.6673
T3
X5.9646Y-3.2283
T4
X2.7203Y-3.189
X2.7203Y-3.3268
X3.4541Y-1.9646
X3.4541Y-2.1024
X3.8085Y-1.9567
X3.8085Y-2.0551
T5
X3.3661Y-3.063
X3.4646Y-3.063
X3.563Y-3.063
X3.6614Y-3.063
T6
X2.3846Y-3.6142
X2.3846Y-3.7126
X3.0339Y-3.3061
X3.0339Y-3.8061
X3.1126Y-1.9783
X3.1126Y-2.0768
X3.1339Y-3.3061
X3.1339Y-3.8061
X3.2339Y-3.3061
X3.2339Y-3.8061
X3.3339Y-3.3061
X3.3339Y-3.8061
X3.4339Y-3.3061
X3.4339Y-3.8061
X3.5339Y-3.3061
X3.5339Y-3.8061
X3.6339Y-3.3061
X3.6339Y-3.8061
X3.7339Y-3.3061
X3.7339Y-3.8061
X4.065Y-2.8553
X4.1634Y-2.8553
X4.5787Y-3.1984
X4.6772Y-3.0016
X4.7683Y-3.7756
X4.7709Y-3.4843
X4.7756Y-3.1984
X4.8683Y-3.7756
X4.8709Y-3.4843
X4.9626Y-2.9449
X4.9683Y-3.7756
X4.9709Y-3.4843
X5.061Y-2.9449
X5.0683Y-3.7756
X5.0709Y-3.4843
X5.6494Y-2.9567
X5.7494Y-2.9567
X5.8148Y-3.7756
X5.8173Y-3.4843
X5.8494Y-2.9567
X5.9148Y-3.7756
X5.9173Y-3.4843
T7
X4.0407Y-1.9596
X4.0407Y-2.2156
X4.0407Y-2.3524
X4.0407Y-2.6083
T8
X2.3974Y-3.177
X2.3974Y-3.327
T4
G00X5.8219Y-1.9311
M15
G01X5.7904Y-1.9311
M16
G05
G00X5.8219Y-2.372
M15
G01X5.7904Y-2.372
M16
G05
G00X5.9843Y-1.9311
M15
G01X5.937Y-1.9311
M16
G05
G00X5.9843Y-2.372
M15
G01X5.937Y-2.372
M16
G05
M30
