%TF.GenerationSoftware,KiCad,Pcbnew,8.0.1-8.0.1-1~ubuntu22.04.1*%
%TF.CreationDate,2024-04-07T11:52:22+03:00*%
%TF.ProjectId,main-module,6d61696e-2d6d-46f6-9475-6c652e6b6963,rev?*%
%TF.SameCoordinates,Original*%
%TF.FileFunction,Soldermask,Bot*%
%TF.FilePolarity,Negative*%
%FSLAX46Y46*%
G04 Gerber Fmt 4.6, Leading zero omitted, Abs format (unit mm)*
G04 Created by KiCad (PCBNEW 8.0.1-8.0.1-1~ubuntu22.04.1) date 2024-04-07 11:52:22*
%MOMM*%
%LPD*%
G01*
G04 APERTURE LIST*
G04 Aperture macros list*
%AMRoundRect*
0 Rectangle with rounded corners*
0 $1 Rounding radius*
0 $2 $3 $4 $5 $6 $7 $8 $9 X,Y pos of 4 corners*
0 Add a 4 corners polygon primitive as box body*
4,1,4,$2,$3,$4,$5,$6,$7,$8,$9,$2,$3,0*
0 Add four circle primitives for the rounded corners*
1,1,$1+$1,$2,$3*
1,1,$1+$1,$4,$5*
1,1,$1+$1,$6,$7*
1,1,$1+$1,$8,$9*
0 Add four rect primitives between the rounded corners*
20,1,$1+$1,$2,$3,$4,$5,0*
20,1,$1+$1,$4,$5,$6,$7,0*
20,1,$1+$1,$6,$7,$8,$9,0*
20,1,$1+$1,$8,$9,$2,$3,0*%
G04 Aperture macros list end*
%ADD10R,1.560000X1.560000*%
%ADD11C,1.560000*%
%ADD12RoundRect,0.250000X0.262500X0.450000X-0.262500X0.450000X-0.262500X-0.450000X0.262500X-0.450000X0*%
%ADD13RoundRect,0.250000X0.600000X0.750000X-0.600000X0.750000X-0.600000X-0.750000X0.600000X-0.750000X0*%
%ADD14O,1.700000X2.000000*%
%ADD15RoundRect,0.225000X-0.225000X-0.250000X0.225000X-0.250000X0.225000X0.250000X-0.225000X0.250000X0*%
%ADD16RoundRect,0.250000X0.325000X1.100000X-0.325000X1.100000X-0.325000X-1.100000X0.325000X-1.100000X0*%
%ADD17C,2.000000*%
%ADD18RoundRect,0.250000X-0.750000X0.600000X-0.750000X-0.600000X0.750000X-0.600000X0.750000X0.600000X0*%
%ADD19O,2.000000X1.700000*%
%ADD20O,2.000000X1.200000*%
%ADD21O,2.400000X1.000000*%
%ADD22RoundRect,0.250000X-0.600000X-0.725000X0.600000X-0.725000X0.600000X0.725000X-0.600000X0.725000X0*%
%ADD23O,1.700000X1.950000*%
%ADD24R,1.600000X1.600000*%
%ADD25C,1.600000*%
%ADD26C,2.200000*%
%ADD27RoundRect,0.250000X-1.100000X0.325000X-1.100000X-0.325000X1.100000X-0.325000X1.100000X0.325000X0*%
%ADD28C,1.524000*%
%ADD29R,3.200000X3.200000*%
%ADD30O,3.200000X3.200000*%
%ADD31RoundRect,0.250000X0.450000X-0.262500X0.450000X0.262500X-0.450000X0.262500X-0.450000X-0.262500X0*%
%ADD32RoundRect,0.250000X-0.450000X0.262500X-0.450000X-0.262500X0.450000X-0.262500X0.450000X0.262500X0*%
%ADD33RoundRect,0.225000X0.250000X-0.225000X0.250000X0.225000X-0.250000X0.225000X-0.250000X-0.225000X0*%
%ADD34RoundRect,0.125000X0.125000X-0.125000X0.125000X0.125000X-0.125000X0.125000X-0.125000X-0.125000X0*%
%ADD35RoundRect,0.250000X0.425000X-0.537500X0.425000X0.537500X-0.425000X0.537500X-0.425000X-0.537500X0*%
%ADD36RoundRect,0.250000X1.100000X-0.325000X1.100000X0.325000X-1.100000X0.325000X-1.100000X-0.325000X0*%
%ADD37RoundRect,0.250000X-0.537500X-0.425000X0.537500X-0.425000X0.537500X0.425000X-0.537500X0.425000X0*%
%ADD38RoundRect,0.250000X-0.325000X-1.100000X0.325000X-1.100000X0.325000X1.100000X-0.325000X1.100000X0*%
%ADD39RoundRect,0.225000X0.225000X0.250000X-0.225000X0.250000X-0.225000X-0.250000X0.225000X-0.250000X0*%
%ADD40RoundRect,0.150000X0.150000X-0.512500X0.150000X0.512500X-0.150000X0.512500X-0.150000X-0.512500X0*%
%ADD41RoundRect,0.150000X0.587500X0.150000X-0.587500X0.150000X-0.587500X-0.150000X0.587500X-0.150000X0*%
%ADD42RoundRect,0.250000X-0.650000X1.000000X-0.650000X-1.000000X0.650000X-1.000000X0.650000X1.000000X0*%
%ADD43RoundRect,0.250000X-0.262500X-0.450000X0.262500X-0.450000X0.262500X0.450000X-0.262500X0.450000X0*%
%ADD44RoundRect,0.225000X-0.250000X0.225000X-0.250000X-0.225000X0.250000X-0.225000X0.250000X0.225000X0*%
G04 APERTURE END LIST*
D10*
%TO.C,RV1*%
X121300000Y-81240000D03*
D11*
X118800000Y-76240000D03*
X116300000Y-81240000D03*
%TD*%
D12*
%TO.C,R8*%
X106912500Y-76200000D03*
X105087500Y-76200000D03*
%TD*%
%TO.C,R6*%
X103412500Y-75000000D03*
X101587500Y-75000000D03*
%TD*%
D13*
%TO.C,J4*%
X105750000Y-72525000D03*
D14*
X103250000Y-72525000D03*
%TD*%
D15*
%TO.C,C7*%
X101725000Y-78000000D03*
X103275000Y-78000000D03*
%TD*%
D16*
%TO.C,C14*%
X107975000Y-93500000D03*
X105025000Y-93500000D03*
%TD*%
D17*
%TO.C,U5*%
X77060000Y-96675000D03*
X79600000Y-96675000D03*
X82140000Y-96675000D03*
X84680000Y-96675000D03*
X87220000Y-96675000D03*
X89760000Y-96675000D03*
X92300000Y-96675000D03*
X94840000Y-96675000D03*
X77060000Y-83975000D03*
X79600000Y-83975000D03*
X82140000Y-83975000D03*
X84680000Y-83975000D03*
X87220000Y-83975000D03*
X89760000Y-83975000D03*
X92300000Y-83975000D03*
X94840000Y-83975000D03*
%TD*%
D18*
%TO.C,J9*%
X60570000Y-91800000D03*
D19*
X60570000Y-94300000D03*
%TD*%
D18*
%TO.C,J1*%
X79060000Y-50250000D03*
D19*
X79060000Y-52750000D03*
%TD*%
D17*
%TO.C,U7*%
X143495000Y-75100000D03*
X146035000Y-75100000D03*
X148575000Y-75100000D03*
%TD*%
D20*
%TO.C,J2*%
X147475000Y-60250000D03*
D21*
X151400000Y-60250000D03*
D20*
X147475000Y-49050000D03*
D21*
X151400000Y-49050000D03*
%TD*%
D22*
%TO.C,J5*%
X85500000Y-77800000D03*
D23*
X88000000Y-77800000D03*
X90500000Y-77800000D03*
X93000000Y-77800000D03*
%TD*%
D17*
%TO.C,SW1*%
X102635000Y-56275000D03*
X102635000Y-49775000D03*
%TD*%
D24*
%TO.C,C28*%
X96735000Y-49700000D03*
D25*
X96735000Y-52200000D03*
%TD*%
D26*
%TO.C,H2*%
X96500000Y-72000000D03*
%TD*%
%TO.C,H1*%
X78500000Y-77000000D03*
%TD*%
D24*
%TO.C,C4*%
X87735000Y-53400000D03*
D25*
X87735000Y-49900000D03*
%TD*%
D26*
%TO.C,H4*%
X143000000Y-64500000D03*
%TD*%
D17*
%TO.C,U6*%
X150300000Y-88500000D03*
X147760000Y-88500000D03*
X128800000Y-88500000D03*
X126260000Y-88500000D03*
X123720000Y-88500000D03*
X121180000Y-88500000D03*
%TD*%
D27*
%TO.C,C15*%
X114500000Y-94025000D03*
X114500000Y-96975000D03*
%TD*%
D17*
%TO.C,SW5*%
X102635000Y-59750000D03*
X102635000Y-66250000D03*
%TD*%
D28*
%TO.C,TP1*%
X151500000Y-82000000D03*
%TD*%
D17*
%TO.C,U11*%
X150235000Y-95900000D03*
X147695000Y-95900000D03*
X128735000Y-95900000D03*
X126195000Y-95900000D03*
X123655000Y-95900000D03*
X121115000Y-95900000D03*
%TD*%
D24*
%TO.C,C32*%
X69095000Y-84500000D03*
D25*
X69095000Y-81000000D03*
%TD*%
D13*
%TO.C,J7*%
X128550000Y-74800000D03*
D14*
X126050000Y-74800000D03*
%TD*%
D29*
%TO.C,D4*%
X60895000Y-84505000D03*
D30*
X60895000Y-80695000D03*
%TD*%
D26*
%TO.C,H3*%
X136500000Y-81000000D03*
%TD*%
D12*
%TO.C,R23*%
X128847500Y-92600000D03*
X127022500Y-92600000D03*
%TD*%
D15*
%TO.C,C34*%
X126025000Y-72000000D03*
X127575000Y-72000000D03*
%TD*%
D31*
%TO.C,R21*%
X67700000Y-72612500D03*
X67700000Y-70787500D03*
%TD*%
D32*
%TO.C,R3*%
X91095000Y-65800000D03*
X91095000Y-67625000D03*
%TD*%
D12*
%TO.C,R29*%
X106647500Y-58400000D03*
X104822500Y-58400000D03*
%TD*%
D32*
%TO.C,R20*%
X64895000Y-70800000D03*
X64895000Y-72625000D03*
%TD*%
D12*
%TO.C,R13*%
X125557500Y-85000000D03*
X123732500Y-85000000D03*
%TD*%
D15*
%TO.C,C37*%
X104785000Y-60300000D03*
X106335000Y-60300000D03*
%TD*%
D33*
%TO.C,C31*%
X116900000Y-50975000D03*
X116900000Y-49425000D03*
%TD*%
D27*
%TO.C,C30*%
X114000000Y-48025000D03*
X114000000Y-50975000D03*
%TD*%
D12*
%TO.C,R22*%
X125347500Y-92600000D03*
X123522500Y-92600000D03*
%TD*%
D34*
%TO.C,D5*%
X62395000Y-56700000D03*
X62395000Y-54500000D03*
%TD*%
D35*
%TO.C,C17*%
X111500000Y-96937500D03*
X111500000Y-94062500D03*
%TD*%
D36*
%TO.C,C11*%
X92125000Y-93500000D03*
X92125000Y-90550000D03*
%TD*%
D37*
%TO.C,C16*%
X105062500Y-96500000D03*
X107937500Y-96500000D03*
%TD*%
D38*
%TO.C,C24*%
X63520000Y-62100000D03*
X66470000Y-62100000D03*
%TD*%
D39*
%TO.C,C33*%
X65970000Y-56300000D03*
X64420000Y-56300000D03*
%TD*%
%TO.C,C19*%
X79700000Y-87425000D03*
X78150000Y-87425000D03*
%TD*%
D15*
%TO.C,C20*%
X146360000Y-77200000D03*
X147910000Y-77200000D03*
%TD*%
D39*
%TO.C,C25*%
X66275000Y-58300000D03*
X64725000Y-58300000D03*
%TD*%
%TO.C,C29*%
X66170000Y-50100000D03*
X64620000Y-50100000D03*
%TD*%
D40*
%TO.C,U10*%
X66145000Y-54237500D03*
X65195000Y-54237500D03*
X64245000Y-54237500D03*
X64245000Y-51962500D03*
X66145000Y-51962500D03*
%TD*%
D31*
%TO.C,R19*%
X62895000Y-72625000D03*
X62895000Y-70800000D03*
%TD*%
%TO.C,R15*%
X68195000Y-53912500D03*
X68195000Y-52087500D03*
%TD*%
D33*
%TO.C,C26*%
X70095000Y-57450000D03*
X70095000Y-55900000D03*
%TD*%
D41*
%TO.C,Q1*%
X88732500Y-65662500D03*
X88732500Y-67562500D03*
X86857500Y-66612500D03*
%TD*%
D12*
%TO.C,R14*%
X129307500Y-85000000D03*
X127482500Y-85000000D03*
%TD*%
D15*
%TO.C,C21*%
X131370000Y-88500000D03*
X132920000Y-88500000D03*
%TD*%
D33*
%TO.C,C1*%
X90035000Y-52422349D03*
X90035000Y-50872349D03*
%TD*%
D36*
%TO.C,C2*%
X84535000Y-53222349D03*
X84535000Y-50272349D03*
%TD*%
D42*
%TO.C,D6*%
X63900000Y-90300000D03*
X63900000Y-94300000D03*
%TD*%
D31*
%TO.C,R18*%
X60195000Y-56512500D03*
X60195000Y-54687500D03*
%TD*%
D43*
%TO.C,R9*%
X135337500Y-63800000D03*
X137162500Y-63800000D03*
%TD*%
D31*
%TO.C,R16*%
X68195000Y-57612500D03*
X68195000Y-55787500D03*
%TD*%
D15*
%TO.C,C27*%
X131225000Y-96000000D03*
X132775000Y-96000000D03*
%TD*%
D12*
%TO.C,R12*%
X107047500Y-49800000D03*
X105222500Y-49800000D03*
%TD*%
D16*
%TO.C,C22*%
X80200000Y-90125000D03*
X77250000Y-90125000D03*
%TD*%
D31*
%TO.C,R17*%
X62395000Y-52712500D03*
X62395000Y-50887500D03*
%TD*%
D44*
%TO.C,C12*%
X89325000Y-91350000D03*
X89325000Y-92900000D03*
%TD*%
D15*
%TO.C,C23*%
X105325000Y-52300000D03*
X106875000Y-52300000D03*
%TD*%
M02*
