%TF.GenerationSoftware,KiCad,Pcbnew,8.0.1-8.0.1-1~ubuntu22.04.1*%
%TF.CreationDate,2024-04-07T11:52:26+03:00*%
%TF.ProjectId,main-module,6d61696e-2d6d-46f6-9475-6c652e6b6963,rev?*%
%TF.SameCoordinates,Original*%
%TF.FileFunction,Drillmap*%
%TF.FilePolarity,Positive*%
%FSLAX45Y45*%
G04 Gerber Fmt 4.5, Leading zero omitted, Abs format (unit mm)*
G04 Created by KiCad (PCBNEW 8.0.1-8.0.1-1~ubuntu22.04.1) date 2024-04-07 11:52:26*
%MOMM*%
%LPD*%
G01*
G04 APERTURE LIST*
%ADD10C,0.100000*%
%ADD11C,0.120000*%
%ADD12C,0.200000*%
%ADD13C,0.220000*%
G04 APERTURE END LIST*
D10*
X5600000Y-9900000D02*
X15350000Y-9900000D01*
X5600000Y-4700000D02*
X5600000Y-9900000D01*
X15350000Y-4700000D02*
X5600000Y-4700000D01*
X15350000Y-6085000D02*
X15350000Y-9900000D01*
X15350000Y-4700000D02*
X15350000Y-4825000D01*
D11*
X14740000Y-5005000D02*
X14740000Y-5925000D01*
X14740000Y-5925000D02*
X15350000Y-5925000D01*
X15350000Y-4825000D02*
X15350000Y-5005000D01*
X15350000Y-5005000D02*
X14740000Y-5005000D01*
X15350000Y-5925000D02*
X15350000Y-6085000D01*
D12*
D13*
X7740000Y-7590000D02*
X7960000Y-7810000D01*
X7960000Y-7590000D02*
X7740000Y-7810000D01*
X9540000Y-7090000D02*
X9760000Y-7310000D01*
X9760000Y-7090000D02*
X9540000Y-7310000D01*
X13540000Y-7990000D02*
X13760000Y-8210000D01*
X13760000Y-7990000D02*
X13540000Y-8210000D01*
X14190000Y-6340000D02*
X14410000Y-6560000D01*
X14410000Y-6340000D02*
X14190000Y-6560000D01*
D12*
X5855777Y-10216484D02*
X5855777Y-10016484D01*
X5855777Y-10016484D02*
X5903396Y-10016484D01*
X5903396Y-10016484D02*
X5931967Y-10026008D01*
X5931967Y-10026008D02*
X5951015Y-10045055D01*
X5951015Y-10045055D02*
X5960539Y-10064103D01*
X5960539Y-10064103D02*
X5970062Y-10102198D01*
X5970062Y-10102198D02*
X5970062Y-10130770D01*
X5970062Y-10130770D02*
X5960539Y-10168865D01*
X5960539Y-10168865D02*
X5951015Y-10187912D01*
X5951015Y-10187912D02*
X5931967Y-10206960D01*
X5931967Y-10206960D02*
X5903396Y-10216484D01*
X5903396Y-10216484D02*
X5855777Y-10216484D01*
X6055777Y-10216484D02*
X6055777Y-10083150D01*
X6055777Y-10121246D02*
X6065301Y-10102198D01*
X6065301Y-10102198D02*
X6074824Y-10092674D01*
X6074824Y-10092674D02*
X6093872Y-10083150D01*
X6093872Y-10083150D02*
X6112920Y-10083150D01*
X6179586Y-10216484D02*
X6179586Y-10083150D01*
X6179586Y-10016484D02*
X6170062Y-10026008D01*
X6170062Y-10026008D02*
X6179586Y-10035531D01*
X6179586Y-10035531D02*
X6189110Y-10026008D01*
X6189110Y-10026008D02*
X6179586Y-10016484D01*
X6179586Y-10016484D02*
X6179586Y-10035531D01*
X6303396Y-10216484D02*
X6284348Y-10206960D01*
X6284348Y-10206960D02*
X6274824Y-10187912D01*
X6274824Y-10187912D02*
X6274824Y-10016484D01*
X6408158Y-10216484D02*
X6389110Y-10206960D01*
X6389110Y-10206960D02*
X6379586Y-10187912D01*
X6379586Y-10187912D02*
X6379586Y-10016484D01*
X6636729Y-10216484D02*
X6636729Y-10016484D01*
X6636729Y-10016484D02*
X6703396Y-10159341D01*
X6703396Y-10159341D02*
X6770062Y-10016484D01*
X6770062Y-10016484D02*
X6770062Y-10216484D01*
X6951015Y-10216484D02*
X6951015Y-10111722D01*
X6951015Y-10111722D02*
X6941491Y-10092674D01*
X6941491Y-10092674D02*
X6922443Y-10083150D01*
X6922443Y-10083150D02*
X6884348Y-10083150D01*
X6884348Y-10083150D02*
X6865301Y-10092674D01*
X6951015Y-10206960D02*
X6931967Y-10216484D01*
X6931967Y-10216484D02*
X6884348Y-10216484D01*
X6884348Y-10216484D02*
X6865301Y-10206960D01*
X6865301Y-10206960D02*
X6855777Y-10187912D01*
X6855777Y-10187912D02*
X6855777Y-10168865D01*
X6855777Y-10168865D02*
X6865301Y-10149817D01*
X6865301Y-10149817D02*
X6884348Y-10140293D01*
X6884348Y-10140293D02*
X6931967Y-10140293D01*
X6931967Y-10140293D02*
X6951015Y-10130770D01*
X7046253Y-10083150D02*
X7046253Y-10283150D01*
X7046253Y-10092674D02*
X7065301Y-10083150D01*
X7065301Y-10083150D02*
X7103396Y-10083150D01*
X7103396Y-10083150D02*
X7122443Y-10092674D01*
X7122443Y-10092674D02*
X7131967Y-10102198D01*
X7131967Y-10102198D02*
X7141491Y-10121246D01*
X7141491Y-10121246D02*
X7141491Y-10178389D01*
X7141491Y-10178389D02*
X7131967Y-10197436D01*
X7131967Y-10197436D02*
X7122443Y-10206960D01*
X7122443Y-10206960D02*
X7103396Y-10216484D01*
X7103396Y-10216484D02*
X7065301Y-10216484D01*
X7065301Y-10216484D02*
X7046253Y-10206960D01*
X7227205Y-10197436D02*
X7236729Y-10206960D01*
X7236729Y-10206960D02*
X7227205Y-10216484D01*
X7227205Y-10216484D02*
X7217682Y-10206960D01*
X7217682Y-10206960D02*
X7227205Y-10197436D01*
X7227205Y-10197436D02*
X7227205Y-10216484D01*
X7227205Y-10092674D02*
X7236729Y-10102198D01*
X7236729Y-10102198D02*
X7227205Y-10111722D01*
X7227205Y-10111722D02*
X7217682Y-10102198D01*
X7217682Y-10102198D02*
X7227205Y-10092674D01*
X7227205Y-10092674D02*
X7227205Y-10111722D01*
X5395000Y-10445000D02*
X5595000Y-10645000D01*
X5595000Y-10445000D02*
X5395000Y-10645000D01*
X5846253Y-10455531D02*
X5855777Y-10446008D01*
X5855777Y-10446008D02*
X5874824Y-10436484D01*
X5874824Y-10436484D02*
X5922443Y-10436484D01*
X5922443Y-10436484D02*
X5941491Y-10446008D01*
X5941491Y-10446008D02*
X5951015Y-10455531D01*
X5951015Y-10455531D02*
X5960539Y-10474579D01*
X5960539Y-10474579D02*
X5960539Y-10493627D01*
X5960539Y-10493627D02*
X5951015Y-10522198D01*
X5951015Y-10522198D02*
X5836729Y-10636484D01*
X5836729Y-10636484D02*
X5960539Y-10636484D01*
X6046253Y-10617436D02*
X6055777Y-10626960D01*
X6055777Y-10626960D02*
X6046253Y-10636484D01*
X6046253Y-10636484D02*
X6036729Y-10626960D01*
X6036729Y-10626960D02*
X6046253Y-10617436D01*
X6046253Y-10617436D02*
X6046253Y-10636484D01*
X6131967Y-10455531D02*
X6141491Y-10446008D01*
X6141491Y-10446008D02*
X6160539Y-10436484D01*
X6160539Y-10436484D02*
X6208158Y-10436484D01*
X6208158Y-10436484D02*
X6227205Y-10446008D01*
X6227205Y-10446008D02*
X6236729Y-10455531D01*
X6236729Y-10455531D02*
X6246253Y-10474579D01*
X6246253Y-10474579D02*
X6246253Y-10493627D01*
X6246253Y-10493627D02*
X6236729Y-10522198D01*
X6236729Y-10522198D02*
X6122443Y-10636484D01*
X6122443Y-10636484D02*
X6246253Y-10636484D01*
X6370062Y-10436484D02*
X6389110Y-10436484D01*
X6389110Y-10436484D02*
X6408158Y-10446008D01*
X6408158Y-10446008D02*
X6417682Y-10455531D01*
X6417682Y-10455531D02*
X6427205Y-10474579D01*
X6427205Y-10474579D02*
X6436729Y-10512674D01*
X6436729Y-10512674D02*
X6436729Y-10560293D01*
X6436729Y-10560293D02*
X6427205Y-10598389D01*
X6427205Y-10598389D02*
X6417682Y-10617436D01*
X6417682Y-10617436D02*
X6408158Y-10626960D01*
X6408158Y-10626960D02*
X6389110Y-10636484D01*
X6389110Y-10636484D02*
X6370062Y-10636484D01*
X6370062Y-10636484D02*
X6351015Y-10626960D01*
X6351015Y-10626960D02*
X6341491Y-10617436D01*
X6341491Y-10617436D02*
X6331967Y-10598389D01*
X6331967Y-10598389D02*
X6322443Y-10560293D01*
X6322443Y-10560293D02*
X6322443Y-10512674D01*
X6322443Y-10512674D02*
X6331967Y-10474579D01*
X6331967Y-10474579D02*
X6341491Y-10455531D01*
X6341491Y-10455531D02*
X6351015Y-10446008D01*
X6351015Y-10446008D02*
X6370062Y-10436484D01*
X6560539Y-10436484D02*
X6579586Y-10436484D01*
X6579586Y-10436484D02*
X6598634Y-10446008D01*
X6598634Y-10446008D02*
X6608158Y-10455531D01*
X6608158Y-10455531D02*
X6617682Y-10474579D01*
X6617682Y-10474579D02*
X6627205Y-10512674D01*
X6627205Y-10512674D02*
X6627205Y-10560293D01*
X6627205Y-10560293D02*
X6617682Y-10598389D01*
X6617682Y-10598389D02*
X6608158Y-10617436D01*
X6608158Y-10617436D02*
X6598634Y-10626960D01*
X6598634Y-10626960D02*
X6579586Y-10636484D01*
X6579586Y-10636484D02*
X6560539Y-10636484D01*
X6560539Y-10636484D02*
X6541491Y-10626960D01*
X6541491Y-10626960D02*
X6531967Y-10617436D01*
X6531967Y-10617436D02*
X6522443Y-10598389D01*
X6522443Y-10598389D02*
X6512920Y-10560293D01*
X6512920Y-10560293D02*
X6512920Y-10512674D01*
X6512920Y-10512674D02*
X6522443Y-10474579D01*
X6522443Y-10474579D02*
X6531967Y-10455531D01*
X6531967Y-10455531D02*
X6541491Y-10446008D01*
X6541491Y-10446008D02*
X6560539Y-10436484D01*
X6712920Y-10636484D02*
X6712920Y-10503150D01*
X6712920Y-10522198D02*
X6722443Y-10512674D01*
X6722443Y-10512674D02*
X6741491Y-10503150D01*
X6741491Y-10503150D02*
X6770063Y-10503150D01*
X6770063Y-10503150D02*
X6789110Y-10512674D01*
X6789110Y-10512674D02*
X6798634Y-10531722D01*
X6798634Y-10531722D02*
X6798634Y-10636484D01*
X6798634Y-10531722D02*
X6808158Y-10512674D01*
X6808158Y-10512674D02*
X6827205Y-10503150D01*
X6827205Y-10503150D02*
X6855777Y-10503150D01*
X6855777Y-10503150D02*
X6874824Y-10512674D01*
X6874824Y-10512674D02*
X6884348Y-10531722D01*
X6884348Y-10531722D02*
X6884348Y-10636484D01*
X6979586Y-10636484D02*
X6979586Y-10503150D01*
X6979586Y-10522198D02*
X6989110Y-10512674D01*
X6989110Y-10512674D02*
X7008158Y-10503150D01*
X7008158Y-10503150D02*
X7036729Y-10503150D01*
X7036729Y-10503150D02*
X7055777Y-10512674D01*
X7055777Y-10512674D02*
X7065301Y-10531722D01*
X7065301Y-10531722D02*
X7065301Y-10636484D01*
X7065301Y-10531722D02*
X7074824Y-10512674D01*
X7074824Y-10512674D02*
X7093872Y-10503150D01*
X7093872Y-10503150D02*
X7122443Y-10503150D01*
X7122443Y-10503150D02*
X7141491Y-10512674D01*
X7141491Y-10512674D02*
X7151015Y-10531722D01*
X7151015Y-10531722D02*
X7151015Y-10636484D01*
X7541491Y-10426960D02*
X7370063Y-10684103D01*
X7798634Y-10436484D02*
X7817682Y-10436484D01*
X7817682Y-10436484D02*
X7836729Y-10446008D01*
X7836729Y-10446008D02*
X7846253Y-10455531D01*
X7846253Y-10455531D02*
X7855777Y-10474579D01*
X7855777Y-10474579D02*
X7865301Y-10512674D01*
X7865301Y-10512674D02*
X7865301Y-10560293D01*
X7865301Y-10560293D02*
X7855777Y-10598389D01*
X7855777Y-10598389D02*
X7846253Y-10617436D01*
X7846253Y-10617436D02*
X7836729Y-10626960D01*
X7836729Y-10626960D02*
X7817682Y-10636484D01*
X7817682Y-10636484D02*
X7798634Y-10636484D01*
X7798634Y-10636484D02*
X7779586Y-10626960D01*
X7779586Y-10626960D02*
X7770063Y-10617436D01*
X7770063Y-10617436D02*
X7760539Y-10598389D01*
X7760539Y-10598389D02*
X7751015Y-10560293D01*
X7751015Y-10560293D02*
X7751015Y-10512674D01*
X7751015Y-10512674D02*
X7760539Y-10474579D01*
X7760539Y-10474579D02*
X7770063Y-10455531D01*
X7770063Y-10455531D02*
X7779586Y-10446008D01*
X7779586Y-10446008D02*
X7798634Y-10436484D01*
X7951015Y-10617436D02*
X7960539Y-10626960D01*
X7960539Y-10626960D02*
X7951015Y-10636484D01*
X7951015Y-10636484D02*
X7941491Y-10626960D01*
X7941491Y-10626960D02*
X7951015Y-10617436D01*
X7951015Y-10617436D02*
X7951015Y-10636484D01*
X8084348Y-10436484D02*
X8103396Y-10436484D01*
X8103396Y-10436484D02*
X8122444Y-10446008D01*
X8122444Y-10446008D02*
X8131967Y-10455531D01*
X8131967Y-10455531D02*
X8141491Y-10474579D01*
X8141491Y-10474579D02*
X8151015Y-10512674D01*
X8151015Y-10512674D02*
X8151015Y-10560293D01*
X8151015Y-10560293D02*
X8141491Y-10598389D01*
X8141491Y-10598389D02*
X8131967Y-10617436D01*
X8131967Y-10617436D02*
X8122444Y-10626960D01*
X8122444Y-10626960D02*
X8103396Y-10636484D01*
X8103396Y-10636484D02*
X8084348Y-10636484D01*
X8084348Y-10636484D02*
X8065301Y-10626960D01*
X8065301Y-10626960D02*
X8055777Y-10617436D01*
X8055777Y-10617436D02*
X8046253Y-10598389D01*
X8046253Y-10598389D02*
X8036729Y-10560293D01*
X8036729Y-10560293D02*
X8036729Y-10512674D01*
X8036729Y-10512674D02*
X8046253Y-10474579D01*
X8046253Y-10474579D02*
X8055777Y-10455531D01*
X8055777Y-10455531D02*
X8065301Y-10446008D01*
X8065301Y-10446008D02*
X8084348Y-10436484D01*
X8265301Y-10522198D02*
X8246253Y-10512674D01*
X8246253Y-10512674D02*
X8236729Y-10503150D01*
X8236729Y-10503150D02*
X8227206Y-10484103D01*
X8227206Y-10484103D02*
X8227206Y-10474579D01*
X8227206Y-10474579D02*
X8236729Y-10455531D01*
X8236729Y-10455531D02*
X8246253Y-10446008D01*
X8246253Y-10446008D02*
X8265301Y-10436484D01*
X8265301Y-10436484D02*
X8303396Y-10436484D01*
X8303396Y-10436484D02*
X8322444Y-10446008D01*
X8322444Y-10446008D02*
X8331967Y-10455531D01*
X8331967Y-10455531D02*
X8341491Y-10474579D01*
X8341491Y-10474579D02*
X8341491Y-10484103D01*
X8341491Y-10484103D02*
X8331967Y-10503150D01*
X8331967Y-10503150D02*
X8322444Y-10512674D01*
X8322444Y-10512674D02*
X8303396Y-10522198D01*
X8303396Y-10522198D02*
X8265301Y-10522198D01*
X8265301Y-10522198D02*
X8246253Y-10531722D01*
X8246253Y-10531722D02*
X8236729Y-10541246D01*
X8236729Y-10541246D02*
X8227206Y-10560293D01*
X8227206Y-10560293D02*
X8227206Y-10598389D01*
X8227206Y-10598389D02*
X8236729Y-10617436D01*
X8236729Y-10617436D02*
X8246253Y-10626960D01*
X8246253Y-10626960D02*
X8265301Y-10636484D01*
X8265301Y-10636484D02*
X8303396Y-10636484D01*
X8303396Y-10636484D02*
X8322444Y-10626960D01*
X8322444Y-10626960D02*
X8331967Y-10617436D01*
X8331967Y-10617436D02*
X8341491Y-10598389D01*
X8341491Y-10598389D02*
X8341491Y-10560293D01*
X8341491Y-10560293D02*
X8331967Y-10541246D01*
X8331967Y-10541246D02*
X8322444Y-10531722D01*
X8322444Y-10531722D02*
X8303396Y-10522198D01*
X8512920Y-10436484D02*
X8474825Y-10436484D01*
X8474825Y-10436484D02*
X8455777Y-10446008D01*
X8455777Y-10446008D02*
X8446253Y-10455531D01*
X8446253Y-10455531D02*
X8427206Y-10484103D01*
X8427206Y-10484103D02*
X8417682Y-10522198D01*
X8417682Y-10522198D02*
X8417682Y-10598389D01*
X8417682Y-10598389D02*
X8427206Y-10617436D01*
X8427206Y-10617436D02*
X8436729Y-10626960D01*
X8436729Y-10626960D02*
X8455777Y-10636484D01*
X8455777Y-10636484D02*
X8493872Y-10636484D01*
X8493872Y-10636484D02*
X8512920Y-10626960D01*
X8512920Y-10626960D02*
X8522444Y-10617436D01*
X8522444Y-10617436D02*
X8531968Y-10598389D01*
X8531968Y-10598389D02*
X8531968Y-10550770D01*
X8531968Y-10550770D02*
X8522444Y-10531722D01*
X8522444Y-10531722D02*
X8512920Y-10522198D01*
X8512920Y-10522198D02*
X8493872Y-10512674D01*
X8493872Y-10512674D02*
X8455777Y-10512674D01*
X8455777Y-10512674D02*
X8436729Y-10522198D01*
X8436729Y-10522198D02*
X8427206Y-10531722D01*
X8427206Y-10531722D02*
X8417682Y-10550770D01*
X8703396Y-10436484D02*
X8665301Y-10436484D01*
X8665301Y-10436484D02*
X8646253Y-10446008D01*
X8646253Y-10446008D02*
X8636729Y-10455531D01*
X8636729Y-10455531D02*
X8617682Y-10484103D01*
X8617682Y-10484103D02*
X8608158Y-10522198D01*
X8608158Y-10522198D02*
X8608158Y-10598389D01*
X8608158Y-10598389D02*
X8617682Y-10617436D01*
X8617682Y-10617436D02*
X8627206Y-10626960D01*
X8627206Y-10626960D02*
X8646253Y-10636484D01*
X8646253Y-10636484D02*
X8684349Y-10636484D01*
X8684349Y-10636484D02*
X8703396Y-10626960D01*
X8703396Y-10626960D02*
X8712920Y-10617436D01*
X8712920Y-10617436D02*
X8722444Y-10598389D01*
X8722444Y-10598389D02*
X8722444Y-10550770D01*
X8722444Y-10550770D02*
X8712920Y-10531722D01*
X8712920Y-10531722D02*
X8703396Y-10522198D01*
X8703396Y-10522198D02*
X8684349Y-10512674D01*
X8684349Y-10512674D02*
X8646253Y-10512674D01*
X8646253Y-10512674D02*
X8627206Y-10522198D01*
X8627206Y-10522198D02*
X8617682Y-10531722D01*
X8617682Y-10531722D02*
X8608158Y-10550770D01*
X8798634Y-10436484D02*
X8798634Y-10474579D01*
X8874825Y-10436484D02*
X8874825Y-10474579D01*
X9170063Y-10712674D02*
X9160539Y-10703150D01*
X9160539Y-10703150D02*
X9141491Y-10674579D01*
X9141491Y-10674579D02*
X9131968Y-10655531D01*
X9131968Y-10655531D02*
X9122444Y-10626960D01*
X9122444Y-10626960D02*
X9112920Y-10579341D01*
X9112920Y-10579341D02*
X9112920Y-10541246D01*
X9112920Y-10541246D02*
X9122444Y-10493627D01*
X9122444Y-10493627D02*
X9131968Y-10465055D01*
X9131968Y-10465055D02*
X9141491Y-10446008D01*
X9141491Y-10446008D02*
X9160539Y-10417436D01*
X9160539Y-10417436D02*
X9170063Y-10407912D01*
X9331968Y-10503150D02*
X9331968Y-10636484D01*
X9284349Y-10426960D02*
X9236730Y-10569817D01*
X9236730Y-10569817D02*
X9360539Y-10569817D01*
X9589111Y-10636484D02*
X9589111Y-10436484D01*
X9674825Y-10636484D02*
X9674825Y-10531722D01*
X9674825Y-10531722D02*
X9665301Y-10512674D01*
X9665301Y-10512674D02*
X9646253Y-10503150D01*
X9646253Y-10503150D02*
X9617682Y-10503150D01*
X9617682Y-10503150D02*
X9598634Y-10512674D01*
X9598634Y-10512674D02*
X9589111Y-10522198D01*
X9798634Y-10636484D02*
X9779587Y-10626960D01*
X9779587Y-10626960D02*
X9770063Y-10617436D01*
X9770063Y-10617436D02*
X9760539Y-10598389D01*
X9760539Y-10598389D02*
X9760539Y-10541246D01*
X9760539Y-10541246D02*
X9770063Y-10522198D01*
X9770063Y-10522198D02*
X9779587Y-10512674D01*
X9779587Y-10512674D02*
X9798634Y-10503150D01*
X9798634Y-10503150D02*
X9827206Y-10503150D01*
X9827206Y-10503150D02*
X9846253Y-10512674D01*
X9846253Y-10512674D02*
X9855777Y-10522198D01*
X9855777Y-10522198D02*
X9865301Y-10541246D01*
X9865301Y-10541246D02*
X9865301Y-10598389D01*
X9865301Y-10598389D02*
X9855777Y-10617436D01*
X9855777Y-10617436D02*
X9846253Y-10626960D01*
X9846253Y-10626960D02*
X9827206Y-10636484D01*
X9827206Y-10636484D02*
X9798634Y-10636484D01*
X9979587Y-10636484D02*
X9960539Y-10626960D01*
X9960539Y-10626960D02*
X9951015Y-10607912D01*
X9951015Y-10607912D02*
X9951015Y-10436484D01*
X10131968Y-10626960D02*
X10112920Y-10636484D01*
X10112920Y-10636484D02*
X10074825Y-10636484D01*
X10074825Y-10636484D02*
X10055777Y-10626960D01*
X10055777Y-10626960D02*
X10046253Y-10607912D01*
X10046253Y-10607912D02*
X10046253Y-10531722D01*
X10046253Y-10531722D02*
X10055777Y-10512674D01*
X10055777Y-10512674D02*
X10074825Y-10503150D01*
X10074825Y-10503150D02*
X10112920Y-10503150D01*
X10112920Y-10503150D02*
X10131968Y-10512674D01*
X10131968Y-10512674D02*
X10141492Y-10531722D01*
X10141492Y-10531722D02*
X10141492Y-10550770D01*
X10141492Y-10550770D02*
X10046253Y-10569817D01*
X10217682Y-10626960D02*
X10236730Y-10636484D01*
X10236730Y-10636484D02*
X10274825Y-10636484D01*
X10274825Y-10636484D02*
X10293873Y-10626960D01*
X10293873Y-10626960D02*
X10303396Y-10607912D01*
X10303396Y-10607912D02*
X10303396Y-10598389D01*
X10303396Y-10598389D02*
X10293873Y-10579341D01*
X10293873Y-10579341D02*
X10274825Y-10569817D01*
X10274825Y-10569817D02*
X10246253Y-10569817D01*
X10246253Y-10569817D02*
X10227206Y-10560293D01*
X10227206Y-10560293D02*
X10217682Y-10541246D01*
X10217682Y-10541246D02*
X10217682Y-10531722D01*
X10217682Y-10531722D02*
X10227206Y-10512674D01*
X10227206Y-10512674D02*
X10246253Y-10503150D01*
X10246253Y-10503150D02*
X10274825Y-10503150D01*
X10274825Y-10503150D02*
X10293873Y-10512674D01*
X10370063Y-10712674D02*
X10379587Y-10703150D01*
X10379587Y-10703150D02*
X10398634Y-10674579D01*
X10398634Y-10674579D02*
X10408158Y-10655531D01*
X10408158Y-10655531D02*
X10417682Y-10626960D01*
X10417682Y-10626960D02*
X10427206Y-10579341D01*
X10427206Y-10579341D02*
X10427206Y-10541246D01*
X10427206Y-10541246D02*
X10417682Y-10493627D01*
X10417682Y-10493627D02*
X10408158Y-10465055D01*
X10408158Y-10465055D02*
X10398634Y-10446008D01*
X10398634Y-10446008D02*
X10379587Y-10417436D01*
X10379587Y-10417436D02*
X10370063Y-10407912D01*
X10731968Y-10712674D02*
X10722444Y-10703150D01*
X10722444Y-10703150D02*
X10703396Y-10674579D01*
X10703396Y-10674579D02*
X10693873Y-10655531D01*
X10693873Y-10655531D02*
X10684349Y-10626960D01*
X10684349Y-10626960D02*
X10674825Y-10579341D01*
X10674825Y-10579341D02*
X10674825Y-10541246D01*
X10674825Y-10541246D02*
X10684349Y-10493627D01*
X10684349Y-10493627D02*
X10693873Y-10465055D01*
X10693873Y-10465055D02*
X10703396Y-10446008D01*
X10703396Y-10446008D02*
X10722444Y-10417436D01*
X10722444Y-10417436D02*
X10731968Y-10407912D01*
X10808158Y-10503150D02*
X10808158Y-10636484D01*
X10808158Y-10522198D02*
X10817682Y-10512674D01*
X10817682Y-10512674D02*
X10836730Y-10503150D01*
X10836730Y-10503150D02*
X10865301Y-10503150D01*
X10865301Y-10503150D02*
X10884349Y-10512674D01*
X10884349Y-10512674D02*
X10893873Y-10531722D01*
X10893873Y-10531722D02*
X10893873Y-10636484D01*
X11017682Y-10636484D02*
X10998634Y-10626960D01*
X10998634Y-10626960D02*
X10989111Y-10617436D01*
X10989111Y-10617436D02*
X10979587Y-10598389D01*
X10979587Y-10598389D02*
X10979587Y-10541246D01*
X10979587Y-10541246D02*
X10989111Y-10522198D01*
X10989111Y-10522198D02*
X10998634Y-10512674D01*
X10998634Y-10512674D02*
X11017682Y-10503150D01*
X11017682Y-10503150D02*
X11046254Y-10503150D01*
X11046254Y-10503150D02*
X11065301Y-10512674D01*
X11065301Y-10512674D02*
X11074825Y-10522198D01*
X11074825Y-10522198D02*
X11084349Y-10541246D01*
X11084349Y-10541246D02*
X11084349Y-10598389D01*
X11084349Y-10598389D02*
X11074825Y-10617436D01*
X11074825Y-10617436D02*
X11065301Y-10626960D01*
X11065301Y-10626960D02*
X11046254Y-10636484D01*
X11046254Y-10636484D02*
X11017682Y-10636484D01*
X11141492Y-10503150D02*
X11217682Y-10503150D01*
X11170063Y-10436484D02*
X11170063Y-10607912D01*
X11170063Y-10607912D02*
X11179587Y-10626960D01*
X11179587Y-10626960D02*
X11198634Y-10636484D01*
X11198634Y-10636484D02*
X11217682Y-10636484D01*
X11436730Y-10503150D02*
X11436730Y-10703150D01*
X11436730Y-10512674D02*
X11455777Y-10503150D01*
X11455777Y-10503150D02*
X11493873Y-10503150D01*
X11493873Y-10503150D02*
X11512920Y-10512674D01*
X11512920Y-10512674D02*
X11522444Y-10522198D01*
X11522444Y-10522198D02*
X11531968Y-10541246D01*
X11531968Y-10541246D02*
X11531968Y-10598389D01*
X11531968Y-10598389D02*
X11522444Y-10617436D01*
X11522444Y-10617436D02*
X11512920Y-10626960D01*
X11512920Y-10626960D02*
X11493873Y-10636484D01*
X11493873Y-10636484D02*
X11455777Y-10636484D01*
X11455777Y-10636484D02*
X11436730Y-10626960D01*
X11646253Y-10636484D02*
X11627206Y-10626960D01*
X11627206Y-10626960D02*
X11617682Y-10607912D01*
X11617682Y-10607912D02*
X11617682Y-10436484D01*
X11808158Y-10636484D02*
X11808158Y-10531722D01*
X11808158Y-10531722D02*
X11798634Y-10512674D01*
X11798634Y-10512674D02*
X11779587Y-10503150D01*
X11779587Y-10503150D02*
X11741492Y-10503150D01*
X11741492Y-10503150D02*
X11722444Y-10512674D01*
X11808158Y-10626960D02*
X11789111Y-10636484D01*
X11789111Y-10636484D02*
X11741492Y-10636484D01*
X11741492Y-10636484D02*
X11722444Y-10626960D01*
X11722444Y-10626960D02*
X11712920Y-10607912D01*
X11712920Y-10607912D02*
X11712920Y-10588865D01*
X11712920Y-10588865D02*
X11722444Y-10569817D01*
X11722444Y-10569817D02*
X11741492Y-10560293D01*
X11741492Y-10560293D02*
X11789111Y-10560293D01*
X11789111Y-10560293D02*
X11808158Y-10550770D01*
X11874825Y-10503150D02*
X11951015Y-10503150D01*
X11903396Y-10436484D02*
X11903396Y-10607912D01*
X11903396Y-10607912D02*
X11912920Y-10626960D01*
X11912920Y-10626960D02*
X11931968Y-10636484D01*
X11931968Y-10636484D02*
X11951015Y-10636484D01*
X12093873Y-10626960D02*
X12074825Y-10636484D01*
X12074825Y-10636484D02*
X12036730Y-10636484D01*
X12036730Y-10636484D02*
X12017682Y-10626960D01*
X12017682Y-10626960D02*
X12008158Y-10607912D01*
X12008158Y-10607912D02*
X12008158Y-10531722D01*
X12008158Y-10531722D02*
X12017682Y-10512674D01*
X12017682Y-10512674D02*
X12036730Y-10503150D01*
X12036730Y-10503150D02*
X12074825Y-10503150D01*
X12074825Y-10503150D02*
X12093873Y-10512674D01*
X12093873Y-10512674D02*
X12103396Y-10531722D01*
X12103396Y-10531722D02*
X12103396Y-10550770D01*
X12103396Y-10550770D02*
X12008158Y-10569817D01*
X12274825Y-10636484D02*
X12274825Y-10436484D01*
X12274825Y-10626960D02*
X12255777Y-10636484D01*
X12255777Y-10636484D02*
X12217682Y-10636484D01*
X12217682Y-10636484D02*
X12198634Y-10626960D01*
X12198634Y-10626960D02*
X12189111Y-10617436D01*
X12189111Y-10617436D02*
X12179587Y-10598389D01*
X12179587Y-10598389D02*
X12179587Y-10541246D01*
X12179587Y-10541246D02*
X12189111Y-10522198D01*
X12189111Y-10522198D02*
X12198634Y-10512674D01*
X12198634Y-10512674D02*
X12217682Y-10503150D01*
X12217682Y-10503150D02*
X12255777Y-10503150D01*
X12255777Y-10503150D02*
X12274825Y-10512674D01*
X12351015Y-10712674D02*
X12360539Y-10703150D01*
X12360539Y-10703150D02*
X12379587Y-10674579D01*
X12379587Y-10674579D02*
X12389111Y-10655531D01*
X12389111Y-10655531D02*
X12398634Y-10626960D01*
X12398634Y-10626960D02*
X12408158Y-10579341D01*
X12408158Y-10579341D02*
X12408158Y-10541246D01*
X12408158Y-10541246D02*
X12398634Y-10493627D01*
X12398634Y-10493627D02*
X12389111Y-10465055D01*
X12389111Y-10465055D02*
X12379587Y-10446008D01*
X12379587Y-10446008D02*
X12360539Y-10417436D01*
X12360539Y-10417436D02*
X12351015Y-10407912D01*
M02*
