%TF.GenerationSoftware,KiCad,Pcbnew,7.0.8-7.0.8~ubuntu22.04.1*%
%TF.CreationDate,2023-10-31T14:14:17+03:00*%
%TF.ProjectId,main-module,6d61696e-2d6d-46f6-9475-6c652e6b6963,rev?*%
%TF.SameCoordinates,Original*%
%TF.FileFunction,Legend,Bot*%
%TF.FilePolarity,Positive*%
%FSLAX46Y46*%
G04 Gerber Fmt 4.6, Leading zero omitted, Abs format (unit mm)*
G04 Created by KiCad (PCBNEW 7.0.8-7.0.8~ubuntu22.04.1) date 2023-10-31 14:14:17*
%MOMM*%
%LPD*%
G01*
G04 APERTURE LIST*
%ADD10C,0.150000*%
%ADD11C,0.120000*%
G04 APERTURE END LIST*
D10*
X112810839Y-92784104D02*
X112334649Y-92784104D01*
X112906077Y-93069819D02*
X112572744Y-92069819D01*
X112572744Y-92069819D02*
X112239411Y-93069819D01*
X111334649Y-92974580D02*
X111382268Y-93022200D01*
X111382268Y-93022200D02*
X111525125Y-93069819D01*
X111525125Y-93069819D02*
X111620363Y-93069819D01*
X111620363Y-93069819D02*
X111763220Y-93022200D01*
X111763220Y-93022200D02*
X111858458Y-92926961D01*
X111858458Y-92926961D02*
X111906077Y-92831723D01*
X111906077Y-92831723D02*
X111953696Y-92641247D01*
X111953696Y-92641247D02*
X111953696Y-92498390D01*
X111953696Y-92498390D02*
X111906077Y-92307914D01*
X111906077Y-92307914D02*
X111858458Y-92212676D01*
X111858458Y-92212676D02*
X111763220Y-92117438D01*
X111763220Y-92117438D02*
X111620363Y-92069819D01*
X111620363Y-92069819D02*
X111525125Y-92069819D01*
X111525125Y-92069819D02*
X111382268Y-92117438D01*
X111382268Y-92117438D02*
X111334649Y-92165057D01*
X111001315Y-92069819D02*
X110763220Y-93069819D01*
X110763220Y-93069819D02*
X110572744Y-92355533D01*
X110572744Y-92355533D02*
X110382268Y-93069819D01*
X110382268Y-93069819D02*
X110144173Y-92069819D01*
X109763220Y-92688866D02*
X109001316Y-92688866D01*
X108525125Y-93069819D02*
X108525125Y-92403152D01*
X108525125Y-92498390D02*
X108477506Y-92450771D01*
X108477506Y-92450771D02*
X108382268Y-92403152D01*
X108382268Y-92403152D02*
X108239411Y-92403152D01*
X108239411Y-92403152D02*
X108144173Y-92450771D01*
X108144173Y-92450771D02*
X108096554Y-92546009D01*
X108096554Y-92546009D02*
X108096554Y-93069819D01*
X108096554Y-92546009D02*
X108048935Y-92450771D01*
X108048935Y-92450771D02*
X107953697Y-92403152D01*
X107953697Y-92403152D02*
X107810840Y-92403152D01*
X107810840Y-92403152D02*
X107715601Y-92450771D01*
X107715601Y-92450771D02*
X107667982Y-92546009D01*
X107667982Y-92546009D02*
X107667982Y-93069819D01*
X106763221Y-93069819D02*
X106763221Y-92546009D01*
X106763221Y-92546009D02*
X106810840Y-92450771D01*
X106810840Y-92450771D02*
X106906078Y-92403152D01*
X106906078Y-92403152D02*
X107096554Y-92403152D01*
X107096554Y-92403152D02*
X107191792Y-92450771D01*
X106763221Y-93022200D02*
X106858459Y-93069819D01*
X106858459Y-93069819D02*
X107096554Y-93069819D01*
X107096554Y-93069819D02*
X107191792Y-93022200D01*
X107191792Y-93022200D02*
X107239411Y-92926961D01*
X107239411Y-92926961D02*
X107239411Y-92831723D01*
X107239411Y-92831723D02*
X107191792Y-92736485D01*
X107191792Y-92736485D02*
X107096554Y-92688866D01*
X107096554Y-92688866D02*
X106858459Y-92688866D01*
X106858459Y-92688866D02*
X106763221Y-92641247D01*
X106287030Y-93069819D02*
X106287030Y-92403152D01*
X106287030Y-92069819D02*
X106334649Y-92117438D01*
X106334649Y-92117438D02*
X106287030Y-92165057D01*
X106287030Y-92165057D02*
X106239411Y-92117438D01*
X106239411Y-92117438D02*
X106287030Y-92069819D01*
X106287030Y-92069819D02*
X106287030Y-92165057D01*
X105810840Y-92403152D02*
X105810840Y-93069819D01*
X105810840Y-92498390D02*
X105763221Y-92450771D01*
X105763221Y-92450771D02*
X105667983Y-92403152D01*
X105667983Y-92403152D02*
X105525126Y-92403152D01*
X105525126Y-92403152D02*
X105429888Y-92450771D01*
X105429888Y-92450771D02*
X105382269Y-92546009D01*
X105382269Y-92546009D02*
X105382269Y-93069819D01*
X104906078Y-92688866D02*
X104144174Y-92688866D01*
X103763221Y-92403152D02*
X103525126Y-93069819D01*
X103525126Y-93069819D02*
X103287031Y-92403152D01*
X102382269Y-93069819D02*
X102953697Y-93069819D01*
X102667983Y-93069819D02*
X102667983Y-92069819D01*
X102667983Y-92069819D02*
X102763221Y-92212676D01*
X102763221Y-92212676D02*
X102858459Y-92307914D01*
X102858459Y-92307914D02*
X102953697Y-92355533D01*
X101953697Y-92974580D02*
X101906078Y-93022200D01*
X101906078Y-93022200D02*
X101953697Y-93069819D01*
X101953697Y-93069819D02*
X102001316Y-93022200D01*
X102001316Y-93022200D02*
X101953697Y-92974580D01*
X101953697Y-92974580D02*
X101953697Y-93069819D01*
X101287031Y-92069819D02*
X101191793Y-92069819D01*
X101191793Y-92069819D02*
X101096555Y-92117438D01*
X101096555Y-92117438D02*
X101048936Y-92165057D01*
X101048936Y-92165057D02*
X101001317Y-92260295D01*
X101001317Y-92260295D02*
X100953698Y-92450771D01*
X100953698Y-92450771D02*
X100953698Y-92688866D01*
X100953698Y-92688866D02*
X101001317Y-92879342D01*
X101001317Y-92879342D02*
X101048936Y-92974580D01*
X101048936Y-92974580D02*
X101096555Y-93022200D01*
X101096555Y-93022200D02*
X101191793Y-93069819D01*
X101191793Y-93069819D02*
X101287031Y-93069819D01*
X101287031Y-93069819D02*
X101382269Y-93022200D01*
X101382269Y-93022200D02*
X101429888Y-92974580D01*
X101429888Y-92974580D02*
X101477507Y-92879342D01*
X101477507Y-92879342D02*
X101525126Y-92688866D01*
X101525126Y-92688866D02*
X101525126Y-92450771D01*
X101525126Y-92450771D02*
X101477507Y-92260295D01*
X101477507Y-92260295D02*
X101429888Y-92165057D01*
X101429888Y-92165057D02*
X101382269Y-92117438D01*
X101382269Y-92117438D02*
X101287031Y-92069819D01*
X159910839Y-61184104D02*
X159434649Y-61184104D01*
X160006077Y-61469819D02*
X159672744Y-60469819D01*
X159672744Y-60469819D02*
X159339411Y-61469819D01*
X158434649Y-61374580D02*
X158482268Y-61422200D01*
X158482268Y-61422200D02*
X158625125Y-61469819D01*
X158625125Y-61469819D02*
X158720363Y-61469819D01*
X158720363Y-61469819D02*
X158863220Y-61422200D01*
X158863220Y-61422200D02*
X158958458Y-61326961D01*
X158958458Y-61326961D02*
X159006077Y-61231723D01*
X159006077Y-61231723D02*
X159053696Y-61041247D01*
X159053696Y-61041247D02*
X159053696Y-60898390D01*
X159053696Y-60898390D02*
X159006077Y-60707914D01*
X159006077Y-60707914D02*
X158958458Y-60612676D01*
X158958458Y-60612676D02*
X158863220Y-60517438D01*
X158863220Y-60517438D02*
X158720363Y-60469819D01*
X158720363Y-60469819D02*
X158625125Y-60469819D01*
X158625125Y-60469819D02*
X158482268Y-60517438D01*
X158482268Y-60517438D02*
X158434649Y-60565057D01*
X158101315Y-60469819D02*
X157863220Y-61469819D01*
X157863220Y-61469819D02*
X157672744Y-60755533D01*
X157672744Y-60755533D02*
X157482268Y-61469819D01*
X157482268Y-61469819D02*
X157244173Y-60469819D01*
X156863220Y-61088866D02*
X156101316Y-61088866D01*
X155196554Y-61422200D02*
X155291792Y-61469819D01*
X155291792Y-61469819D02*
X155482268Y-61469819D01*
X155482268Y-61469819D02*
X155577506Y-61422200D01*
X155577506Y-61422200D02*
X155625125Y-61374580D01*
X155625125Y-61374580D02*
X155672744Y-61279342D01*
X155672744Y-61279342D02*
X155672744Y-60993628D01*
X155672744Y-60993628D02*
X155625125Y-60898390D01*
X155625125Y-60898390D02*
X155577506Y-60850771D01*
X155577506Y-60850771D02*
X155482268Y-60803152D01*
X155482268Y-60803152D02*
X155291792Y-60803152D01*
X155291792Y-60803152D02*
X155196554Y-60850771D01*
X154767982Y-61469819D02*
X154767982Y-60469819D01*
X154339411Y-61469819D02*
X154339411Y-60946009D01*
X154339411Y-60946009D02*
X154387030Y-60850771D01*
X154387030Y-60850771D02*
X154482268Y-60803152D01*
X154482268Y-60803152D02*
X154625125Y-60803152D01*
X154625125Y-60803152D02*
X154720363Y-60850771D01*
X154720363Y-60850771D02*
X154767982Y-60898390D01*
X153434649Y-61469819D02*
X153434649Y-60946009D01*
X153434649Y-60946009D02*
X153482268Y-60850771D01*
X153482268Y-60850771D02*
X153577506Y-60803152D01*
X153577506Y-60803152D02*
X153767982Y-60803152D01*
X153767982Y-60803152D02*
X153863220Y-60850771D01*
X153434649Y-61422200D02*
X153529887Y-61469819D01*
X153529887Y-61469819D02*
X153767982Y-61469819D01*
X153767982Y-61469819D02*
X153863220Y-61422200D01*
X153863220Y-61422200D02*
X153910839Y-61326961D01*
X153910839Y-61326961D02*
X153910839Y-61231723D01*
X153910839Y-61231723D02*
X153863220Y-61136485D01*
X153863220Y-61136485D02*
X153767982Y-61088866D01*
X153767982Y-61088866D02*
X153529887Y-61088866D01*
X153529887Y-61088866D02*
X153434649Y-61041247D01*
X152958458Y-61469819D02*
X152958458Y-60803152D01*
X152958458Y-60993628D02*
X152910839Y-60898390D01*
X152910839Y-60898390D02*
X152863220Y-60850771D01*
X152863220Y-60850771D02*
X152767982Y-60803152D01*
X152767982Y-60803152D02*
X152672744Y-60803152D01*
X151910839Y-60803152D02*
X151910839Y-61612676D01*
X151910839Y-61612676D02*
X151958458Y-61707914D01*
X151958458Y-61707914D02*
X152006077Y-61755533D01*
X152006077Y-61755533D02*
X152101315Y-61803152D01*
X152101315Y-61803152D02*
X152244172Y-61803152D01*
X152244172Y-61803152D02*
X152339410Y-61755533D01*
X151910839Y-61422200D02*
X152006077Y-61469819D01*
X152006077Y-61469819D02*
X152196553Y-61469819D01*
X152196553Y-61469819D02*
X152291791Y-61422200D01*
X152291791Y-61422200D02*
X152339410Y-61374580D01*
X152339410Y-61374580D02*
X152387029Y-61279342D01*
X152387029Y-61279342D02*
X152387029Y-60993628D01*
X152387029Y-60993628D02*
X152339410Y-60898390D01*
X152339410Y-60898390D02*
X152291791Y-60850771D01*
X152291791Y-60850771D02*
X152196553Y-60803152D01*
X152196553Y-60803152D02*
X152006077Y-60803152D01*
X152006077Y-60803152D02*
X151910839Y-60850771D01*
X151053696Y-61422200D02*
X151148934Y-61469819D01*
X151148934Y-61469819D02*
X151339410Y-61469819D01*
X151339410Y-61469819D02*
X151434648Y-61422200D01*
X151434648Y-61422200D02*
X151482267Y-61326961D01*
X151482267Y-61326961D02*
X151482267Y-60946009D01*
X151482267Y-60946009D02*
X151434648Y-60850771D01*
X151434648Y-60850771D02*
X151339410Y-60803152D01*
X151339410Y-60803152D02*
X151148934Y-60803152D01*
X151148934Y-60803152D02*
X151053696Y-60850771D01*
X151053696Y-60850771D02*
X151006077Y-60946009D01*
X151006077Y-60946009D02*
X151006077Y-61041247D01*
X151006077Y-61041247D02*
X151482267Y-61136485D01*
X150577505Y-61469819D02*
X150577505Y-60803152D01*
X150577505Y-60993628D02*
X150529886Y-60898390D01*
X150529886Y-60898390D02*
X150482267Y-60850771D01*
X150482267Y-60850771D02*
X150387029Y-60803152D01*
X150387029Y-60803152D02*
X150291791Y-60803152D01*
X149958457Y-61088866D02*
X149196553Y-61088866D01*
X148815600Y-60803152D02*
X148577505Y-61469819D01*
X148577505Y-61469819D02*
X148339410Y-60803152D01*
X147434648Y-61469819D02*
X148006076Y-61469819D01*
X147720362Y-61469819D02*
X147720362Y-60469819D01*
X147720362Y-60469819D02*
X147815600Y-60612676D01*
X147815600Y-60612676D02*
X147910838Y-60707914D01*
X147910838Y-60707914D02*
X148006076Y-60755533D01*
X147006076Y-61374580D02*
X146958457Y-61422200D01*
X146958457Y-61422200D02*
X147006076Y-61469819D01*
X147006076Y-61469819D02*
X147053695Y-61422200D01*
X147053695Y-61422200D02*
X147006076Y-61374580D01*
X147006076Y-61374580D02*
X147006076Y-61469819D01*
X146339410Y-60469819D02*
X146244172Y-60469819D01*
X146244172Y-60469819D02*
X146148934Y-60517438D01*
X146148934Y-60517438D02*
X146101315Y-60565057D01*
X146101315Y-60565057D02*
X146053696Y-60660295D01*
X146053696Y-60660295D02*
X146006077Y-60850771D01*
X146006077Y-60850771D02*
X146006077Y-61088866D01*
X146006077Y-61088866D02*
X146053696Y-61279342D01*
X146053696Y-61279342D02*
X146101315Y-61374580D01*
X146101315Y-61374580D02*
X146148934Y-61422200D01*
X146148934Y-61422200D02*
X146244172Y-61469819D01*
X146244172Y-61469819D02*
X146339410Y-61469819D01*
X146339410Y-61469819D02*
X146434648Y-61422200D01*
X146434648Y-61422200D02*
X146482267Y-61374580D01*
X146482267Y-61374580D02*
X146529886Y-61279342D01*
X146529886Y-61279342D02*
X146577505Y-61088866D01*
X146577505Y-61088866D02*
X146577505Y-60850771D01*
X146577505Y-60850771D02*
X146529886Y-60660295D01*
X146529886Y-60660295D02*
X146482267Y-60565057D01*
X146482267Y-60565057D02*
X146434648Y-60517438D01*
X146434648Y-60517438D02*
X146339410Y-60469819D01*
X96077857Y-86804819D02*
X96411190Y-86328628D01*
X96649285Y-86804819D02*
X96649285Y-85804819D01*
X96649285Y-85804819D02*
X96268333Y-85804819D01*
X96268333Y-85804819D02*
X96173095Y-85852438D01*
X96173095Y-85852438D02*
X96125476Y-85900057D01*
X96125476Y-85900057D02*
X96077857Y-85995295D01*
X96077857Y-85995295D02*
X96077857Y-86138152D01*
X96077857Y-86138152D02*
X96125476Y-86233390D01*
X96125476Y-86233390D02*
X96173095Y-86281009D01*
X96173095Y-86281009D02*
X96268333Y-86328628D01*
X96268333Y-86328628D02*
X96649285Y-86328628D01*
X95696904Y-85900057D02*
X95649285Y-85852438D01*
X95649285Y-85852438D02*
X95554047Y-85804819D01*
X95554047Y-85804819D02*
X95315952Y-85804819D01*
X95315952Y-85804819D02*
X95220714Y-85852438D01*
X95220714Y-85852438D02*
X95173095Y-85900057D01*
X95173095Y-85900057D02*
X95125476Y-85995295D01*
X95125476Y-85995295D02*
X95125476Y-86090533D01*
X95125476Y-86090533D02*
X95173095Y-86233390D01*
X95173095Y-86233390D02*
X95744523Y-86804819D01*
X95744523Y-86804819D02*
X95125476Y-86804819D01*
X94506428Y-85804819D02*
X94411190Y-85804819D01*
X94411190Y-85804819D02*
X94315952Y-85852438D01*
X94315952Y-85852438D02*
X94268333Y-85900057D01*
X94268333Y-85900057D02*
X94220714Y-85995295D01*
X94220714Y-85995295D02*
X94173095Y-86185771D01*
X94173095Y-86185771D02*
X94173095Y-86423866D01*
X94173095Y-86423866D02*
X94220714Y-86614342D01*
X94220714Y-86614342D02*
X94268333Y-86709580D01*
X94268333Y-86709580D02*
X94315952Y-86757200D01*
X94315952Y-86757200D02*
X94411190Y-86804819D01*
X94411190Y-86804819D02*
X94506428Y-86804819D01*
X94506428Y-86804819D02*
X94601666Y-86757200D01*
X94601666Y-86757200D02*
X94649285Y-86709580D01*
X94649285Y-86709580D02*
X94696904Y-86614342D01*
X94696904Y-86614342D02*
X94744523Y-86423866D01*
X94744523Y-86423866D02*
X94744523Y-86185771D01*
X94744523Y-86185771D02*
X94696904Y-85995295D01*
X94696904Y-85995295D02*
X94649285Y-85900057D01*
X94649285Y-85900057D02*
X94601666Y-85852438D01*
X94601666Y-85852438D02*
X94506428Y-85804819D01*
X97942857Y-67359580D02*
X97990476Y-67407200D01*
X97990476Y-67407200D02*
X98133333Y-67454819D01*
X98133333Y-67454819D02*
X98228571Y-67454819D01*
X98228571Y-67454819D02*
X98371428Y-67407200D01*
X98371428Y-67407200D02*
X98466666Y-67311961D01*
X98466666Y-67311961D02*
X98514285Y-67216723D01*
X98514285Y-67216723D02*
X98561904Y-67026247D01*
X98561904Y-67026247D02*
X98561904Y-66883390D01*
X98561904Y-66883390D02*
X98514285Y-66692914D01*
X98514285Y-66692914D02*
X98466666Y-66597676D01*
X98466666Y-66597676D02*
X98371428Y-66502438D01*
X98371428Y-66502438D02*
X98228571Y-66454819D01*
X98228571Y-66454819D02*
X98133333Y-66454819D01*
X98133333Y-66454819D02*
X97990476Y-66502438D01*
X97990476Y-66502438D02*
X97942857Y-66550057D01*
X97561904Y-66550057D02*
X97514285Y-66502438D01*
X97514285Y-66502438D02*
X97419047Y-66454819D01*
X97419047Y-66454819D02*
X97180952Y-66454819D01*
X97180952Y-66454819D02*
X97085714Y-66502438D01*
X97085714Y-66502438D02*
X97038095Y-66550057D01*
X97038095Y-66550057D02*
X96990476Y-66645295D01*
X96990476Y-66645295D02*
X96990476Y-66740533D01*
X96990476Y-66740533D02*
X97038095Y-66883390D01*
X97038095Y-66883390D02*
X97609523Y-67454819D01*
X97609523Y-67454819D02*
X96990476Y-67454819D01*
X96133333Y-66454819D02*
X96323809Y-66454819D01*
X96323809Y-66454819D02*
X96419047Y-66502438D01*
X96419047Y-66502438D02*
X96466666Y-66550057D01*
X96466666Y-66550057D02*
X96561904Y-66692914D01*
X96561904Y-66692914D02*
X96609523Y-66883390D01*
X96609523Y-66883390D02*
X96609523Y-67264342D01*
X96609523Y-67264342D02*
X96561904Y-67359580D01*
X96561904Y-67359580D02*
X96514285Y-67407200D01*
X96514285Y-67407200D02*
X96419047Y-67454819D01*
X96419047Y-67454819D02*
X96228571Y-67454819D01*
X96228571Y-67454819D02*
X96133333Y-67407200D01*
X96133333Y-67407200D02*
X96085714Y-67359580D01*
X96085714Y-67359580D02*
X96038095Y-67264342D01*
X96038095Y-67264342D02*
X96038095Y-67026247D01*
X96038095Y-67026247D02*
X96085714Y-66931009D01*
X96085714Y-66931009D02*
X96133333Y-66883390D01*
X96133333Y-66883390D02*
X96228571Y-66835771D01*
X96228571Y-66835771D02*
X96419047Y-66835771D01*
X96419047Y-66835771D02*
X96514285Y-66883390D01*
X96514285Y-66883390D02*
X96561904Y-66931009D01*
X96561904Y-66931009D02*
X96609523Y-67026247D01*
X174792857Y-69447080D02*
X174840476Y-69494700D01*
X174840476Y-69494700D02*
X174983333Y-69542319D01*
X174983333Y-69542319D02*
X175078571Y-69542319D01*
X175078571Y-69542319D02*
X175221428Y-69494700D01*
X175221428Y-69494700D02*
X175316666Y-69399461D01*
X175316666Y-69399461D02*
X175364285Y-69304223D01*
X175364285Y-69304223D02*
X175411904Y-69113747D01*
X175411904Y-69113747D02*
X175411904Y-68970890D01*
X175411904Y-68970890D02*
X175364285Y-68780414D01*
X175364285Y-68780414D02*
X175316666Y-68685176D01*
X175316666Y-68685176D02*
X175221428Y-68589938D01*
X175221428Y-68589938D02*
X175078571Y-68542319D01*
X175078571Y-68542319D02*
X174983333Y-68542319D01*
X174983333Y-68542319D02*
X174840476Y-68589938D01*
X174840476Y-68589938D02*
X174792857Y-68637557D01*
X174459523Y-68542319D02*
X173840476Y-68542319D01*
X173840476Y-68542319D02*
X174173809Y-68923271D01*
X174173809Y-68923271D02*
X174030952Y-68923271D01*
X174030952Y-68923271D02*
X173935714Y-68970890D01*
X173935714Y-68970890D02*
X173888095Y-69018509D01*
X173888095Y-69018509D02*
X173840476Y-69113747D01*
X173840476Y-69113747D02*
X173840476Y-69351842D01*
X173840476Y-69351842D02*
X173888095Y-69447080D01*
X173888095Y-69447080D02*
X173935714Y-69494700D01*
X173935714Y-69494700D02*
X174030952Y-69542319D01*
X174030952Y-69542319D02*
X174316666Y-69542319D01*
X174316666Y-69542319D02*
X174411904Y-69494700D01*
X174411904Y-69494700D02*
X174459523Y-69447080D01*
X172935714Y-68542319D02*
X173411904Y-68542319D01*
X173411904Y-68542319D02*
X173459523Y-69018509D01*
X173459523Y-69018509D02*
X173411904Y-68970890D01*
X173411904Y-68970890D02*
X173316666Y-68923271D01*
X173316666Y-68923271D02*
X173078571Y-68923271D01*
X173078571Y-68923271D02*
X172983333Y-68970890D01*
X172983333Y-68970890D02*
X172935714Y-69018509D01*
X172935714Y-69018509D02*
X172888095Y-69113747D01*
X172888095Y-69113747D02*
X172888095Y-69351842D01*
X172888095Y-69351842D02*
X172935714Y-69447080D01*
X172935714Y-69447080D02*
X172983333Y-69494700D01*
X172983333Y-69494700D02*
X173078571Y-69542319D01*
X173078571Y-69542319D02*
X173316666Y-69542319D01*
X173316666Y-69542319D02*
X173411904Y-69494700D01*
X173411904Y-69494700D02*
X173459523Y-69447080D01*
X56601666Y-64154819D02*
X56934999Y-63678628D01*
X57173094Y-64154819D02*
X57173094Y-63154819D01*
X57173094Y-63154819D02*
X56792142Y-63154819D01*
X56792142Y-63154819D02*
X56696904Y-63202438D01*
X56696904Y-63202438D02*
X56649285Y-63250057D01*
X56649285Y-63250057D02*
X56601666Y-63345295D01*
X56601666Y-63345295D02*
X56601666Y-63488152D01*
X56601666Y-63488152D02*
X56649285Y-63583390D01*
X56649285Y-63583390D02*
X56696904Y-63631009D01*
X56696904Y-63631009D02*
X56792142Y-63678628D01*
X56792142Y-63678628D02*
X57173094Y-63678628D01*
X56268332Y-63154819D02*
X55649285Y-63154819D01*
X55649285Y-63154819D02*
X55982618Y-63535771D01*
X55982618Y-63535771D02*
X55839761Y-63535771D01*
X55839761Y-63535771D02*
X55744523Y-63583390D01*
X55744523Y-63583390D02*
X55696904Y-63631009D01*
X55696904Y-63631009D02*
X55649285Y-63726247D01*
X55649285Y-63726247D02*
X55649285Y-63964342D01*
X55649285Y-63964342D02*
X55696904Y-64059580D01*
X55696904Y-64059580D02*
X55744523Y-64107200D01*
X55744523Y-64107200D02*
X55839761Y-64154819D01*
X55839761Y-64154819D02*
X56125475Y-64154819D01*
X56125475Y-64154819D02*
X56220713Y-64107200D01*
X56220713Y-64107200D02*
X56268332Y-64059580D01*
X73877857Y-52204819D02*
X74211190Y-51728628D01*
X74449285Y-52204819D02*
X74449285Y-51204819D01*
X74449285Y-51204819D02*
X74068333Y-51204819D01*
X74068333Y-51204819D02*
X73973095Y-51252438D01*
X73973095Y-51252438D02*
X73925476Y-51300057D01*
X73925476Y-51300057D02*
X73877857Y-51395295D01*
X73877857Y-51395295D02*
X73877857Y-51538152D01*
X73877857Y-51538152D02*
X73925476Y-51633390D01*
X73925476Y-51633390D02*
X73973095Y-51681009D01*
X73973095Y-51681009D02*
X74068333Y-51728628D01*
X74068333Y-51728628D02*
X74449285Y-51728628D01*
X73496904Y-51300057D02*
X73449285Y-51252438D01*
X73449285Y-51252438D02*
X73354047Y-51204819D01*
X73354047Y-51204819D02*
X73115952Y-51204819D01*
X73115952Y-51204819D02*
X73020714Y-51252438D01*
X73020714Y-51252438D02*
X72973095Y-51300057D01*
X72973095Y-51300057D02*
X72925476Y-51395295D01*
X72925476Y-51395295D02*
X72925476Y-51490533D01*
X72925476Y-51490533D02*
X72973095Y-51633390D01*
X72973095Y-51633390D02*
X73544523Y-52204819D01*
X73544523Y-52204819D02*
X72925476Y-52204819D01*
X72544523Y-51300057D02*
X72496904Y-51252438D01*
X72496904Y-51252438D02*
X72401666Y-51204819D01*
X72401666Y-51204819D02*
X72163571Y-51204819D01*
X72163571Y-51204819D02*
X72068333Y-51252438D01*
X72068333Y-51252438D02*
X72020714Y-51300057D01*
X72020714Y-51300057D02*
X71973095Y-51395295D01*
X71973095Y-51395295D02*
X71973095Y-51490533D01*
X71973095Y-51490533D02*
X72020714Y-51633390D01*
X72020714Y-51633390D02*
X72592142Y-52204819D01*
X72592142Y-52204819D02*
X71973095Y-52204819D01*
X92587857Y-78704819D02*
X92921190Y-78228628D01*
X93159285Y-78704819D02*
X93159285Y-77704819D01*
X93159285Y-77704819D02*
X92778333Y-77704819D01*
X92778333Y-77704819D02*
X92683095Y-77752438D01*
X92683095Y-77752438D02*
X92635476Y-77800057D01*
X92635476Y-77800057D02*
X92587857Y-77895295D01*
X92587857Y-77895295D02*
X92587857Y-78038152D01*
X92587857Y-78038152D02*
X92635476Y-78133390D01*
X92635476Y-78133390D02*
X92683095Y-78181009D01*
X92683095Y-78181009D02*
X92778333Y-78228628D01*
X92778333Y-78228628D02*
X93159285Y-78228628D01*
X91635476Y-78704819D02*
X92206904Y-78704819D01*
X91921190Y-78704819D02*
X91921190Y-77704819D01*
X91921190Y-77704819D02*
X92016428Y-77847676D01*
X92016428Y-77847676D02*
X92111666Y-77942914D01*
X92111666Y-77942914D02*
X92206904Y-77990533D01*
X90683095Y-78704819D02*
X91254523Y-78704819D01*
X90968809Y-78704819D02*
X90968809Y-77704819D01*
X90968809Y-77704819D02*
X91064047Y-77847676D01*
X91064047Y-77847676D02*
X91159285Y-77942914D01*
X91159285Y-77942914D02*
X91254523Y-77990533D01*
X152975630Y-87604819D02*
X152975630Y-88414342D01*
X152975630Y-88414342D02*
X152928011Y-88509580D01*
X152928011Y-88509580D02*
X152880392Y-88557200D01*
X152880392Y-88557200D02*
X152785154Y-88604819D01*
X152785154Y-88604819D02*
X152594678Y-88604819D01*
X152594678Y-88604819D02*
X152499440Y-88557200D01*
X152499440Y-88557200D02*
X152451821Y-88509580D01*
X152451821Y-88509580D02*
X152404202Y-88414342D01*
X152404202Y-88414342D02*
X152404202Y-87604819D01*
X151404202Y-88604819D02*
X151975630Y-88604819D01*
X151689916Y-88604819D02*
X151689916Y-87604819D01*
X151689916Y-87604819D02*
X151785154Y-87747676D01*
X151785154Y-87747676D02*
X151880392Y-87842914D01*
X151880392Y-87842914D02*
X151975630Y-87890533D01*
X150451821Y-88604819D02*
X151023249Y-88604819D01*
X150737535Y-88604819D02*
X150737535Y-87604819D01*
X150737535Y-87604819D02*
X150832773Y-87747676D01*
X150832773Y-87747676D02*
X150928011Y-87842914D01*
X150928011Y-87842914D02*
X151023249Y-87890533D01*
X151992857Y-81342319D02*
X152326190Y-80866128D01*
X152564285Y-81342319D02*
X152564285Y-80342319D01*
X152564285Y-80342319D02*
X152183333Y-80342319D01*
X152183333Y-80342319D02*
X152088095Y-80389938D01*
X152088095Y-80389938D02*
X152040476Y-80437557D01*
X152040476Y-80437557D02*
X151992857Y-80532795D01*
X151992857Y-80532795D02*
X151992857Y-80675652D01*
X151992857Y-80675652D02*
X152040476Y-80770890D01*
X152040476Y-80770890D02*
X152088095Y-80818509D01*
X152088095Y-80818509D02*
X152183333Y-80866128D01*
X152183333Y-80866128D02*
X152564285Y-80866128D01*
X151040476Y-81342319D02*
X151611904Y-81342319D01*
X151326190Y-81342319D02*
X151326190Y-80342319D01*
X151326190Y-80342319D02*
X151421428Y-80485176D01*
X151421428Y-80485176D02*
X151516666Y-80580414D01*
X151516666Y-80580414D02*
X151611904Y-80628033D01*
X150183333Y-80342319D02*
X150373809Y-80342319D01*
X150373809Y-80342319D02*
X150469047Y-80389938D01*
X150469047Y-80389938D02*
X150516666Y-80437557D01*
X150516666Y-80437557D02*
X150611904Y-80580414D01*
X150611904Y-80580414D02*
X150659523Y-80770890D01*
X150659523Y-80770890D02*
X150659523Y-81151842D01*
X150659523Y-81151842D02*
X150611904Y-81247080D01*
X150611904Y-81247080D02*
X150564285Y-81294700D01*
X150564285Y-81294700D02*
X150469047Y-81342319D01*
X150469047Y-81342319D02*
X150278571Y-81342319D01*
X150278571Y-81342319D02*
X150183333Y-81294700D01*
X150183333Y-81294700D02*
X150135714Y-81247080D01*
X150135714Y-81247080D02*
X150088095Y-81151842D01*
X150088095Y-81151842D02*
X150088095Y-80913747D01*
X150088095Y-80913747D02*
X150135714Y-80818509D01*
X150135714Y-80818509D02*
X150183333Y-80770890D01*
X150183333Y-80770890D02*
X150278571Y-80723271D01*
X150278571Y-80723271D02*
X150469047Y-80723271D01*
X150469047Y-80723271D02*
X150564285Y-80770890D01*
X150564285Y-80770890D02*
X150611904Y-80818509D01*
X150611904Y-80818509D02*
X150659523Y-80913747D01*
X159345238Y-80950057D02*
X159440476Y-80902438D01*
X159440476Y-80902438D02*
X159535714Y-80807200D01*
X159535714Y-80807200D02*
X159678571Y-80664342D01*
X159678571Y-80664342D02*
X159773809Y-80616723D01*
X159773809Y-80616723D02*
X159869047Y-80616723D01*
X159821428Y-80854819D02*
X159916666Y-80807200D01*
X159916666Y-80807200D02*
X160011904Y-80711961D01*
X160011904Y-80711961D02*
X160059523Y-80521485D01*
X160059523Y-80521485D02*
X160059523Y-80188152D01*
X160059523Y-80188152D02*
X160011904Y-79997676D01*
X160011904Y-79997676D02*
X159916666Y-79902438D01*
X159916666Y-79902438D02*
X159821428Y-79854819D01*
X159821428Y-79854819D02*
X159630952Y-79854819D01*
X159630952Y-79854819D02*
X159535714Y-79902438D01*
X159535714Y-79902438D02*
X159440476Y-79997676D01*
X159440476Y-79997676D02*
X159392857Y-80188152D01*
X159392857Y-80188152D02*
X159392857Y-80521485D01*
X159392857Y-80521485D02*
X159440476Y-80711961D01*
X159440476Y-80711961D02*
X159535714Y-80807200D01*
X159535714Y-80807200D02*
X159630952Y-80854819D01*
X159630952Y-80854819D02*
X159821428Y-80854819D01*
X158821428Y-80283390D02*
X158916666Y-80235771D01*
X158916666Y-80235771D02*
X158964285Y-80188152D01*
X158964285Y-80188152D02*
X159011904Y-80092914D01*
X159011904Y-80092914D02*
X159011904Y-80045295D01*
X159011904Y-80045295D02*
X158964285Y-79950057D01*
X158964285Y-79950057D02*
X158916666Y-79902438D01*
X158916666Y-79902438D02*
X158821428Y-79854819D01*
X158821428Y-79854819D02*
X158630952Y-79854819D01*
X158630952Y-79854819D02*
X158535714Y-79902438D01*
X158535714Y-79902438D02*
X158488095Y-79950057D01*
X158488095Y-79950057D02*
X158440476Y-80045295D01*
X158440476Y-80045295D02*
X158440476Y-80092914D01*
X158440476Y-80092914D02*
X158488095Y-80188152D01*
X158488095Y-80188152D02*
X158535714Y-80235771D01*
X158535714Y-80235771D02*
X158630952Y-80283390D01*
X158630952Y-80283390D02*
X158821428Y-80283390D01*
X158821428Y-80283390D02*
X158916666Y-80331009D01*
X158916666Y-80331009D02*
X158964285Y-80378628D01*
X158964285Y-80378628D02*
X159011904Y-80473866D01*
X159011904Y-80473866D02*
X159011904Y-80664342D01*
X159011904Y-80664342D02*
X158964285Y-80759580D01*
X158964285Y-80759580D02*
X158916666Y-80807200D01*
X158916666Y-80807200D02*
X158821428Y-80854819D01*
X158821428Y-80854819D02*
X158630952Y-80854819D01*
X158630952Y-80854819D02*
X158535714Y-80807200D01*
X158535714Y-80807200D02*
X158488095Y-80759580D01*
X158488095Y-80759580D02*
X158440476Y-80664342D01*
X158440476Y-80664342D02*
X158440476Y-80473866D01*
X158440476Y-80473866D02*
X158488095Y-80378628D01*
X158488095Y-80378628D02*
X158535714Y-80331009D01*
X158535714Y-80331009D02*
X158630952Y-80283390D01*
X73702857Y-57259580D02*
X73750476Y-57307200D01*
X73750476Y-57307200D02*
X73893333Y-57354819D01*
X73893333Y-57354819D02*
X73988571Y-57354819D01*
X73988571Y-57354819D02*
X74131428Y-57307200D01*
X74131428Y-57307200D02*
X74226666Y-57211961D01*
X74226666Y-57211961D02*
X74274285Y-57116723D01*
X74274285Y-57116723D02*
X74321904Y-56926247D01*
X74321904Y-56926247D02*
X74321904Y-56783390D01*
X74321904Y-56783390D02*
X74274285Y-56592914D01*
X74274285Y-56592914D02*
X74226666Y-56497676D01*
X74226666Y-56497676D02*
X74131428Y-56402438D01*
X74131428Y-56402438D02*
X73988571Y-56354819D01*
X73988571Y-56354819D02*
X73893333Y-56354819D01*
X73893333Y-56354819D02*
X73750476Y-56402438D01*
X73750476Y-56402438D02*
X73702857Y-56450057D01*
X73369523Y-56354819D02*
X72750476Y-56354819D01*
X72750476Y-56354819D02*
X73083809Y-56735771D01*
X73083809Y-56735771D02*
X72940952Y-56735771D01*
X72940952Y-56735771D02*
X72845714Y-56783390D01*
X72845714Y-56783390D02*
X72798095Y-56831009D01*
X72798095Y-56831009D02*
X72750476Y-56926247D01*
X72750476Y-56926247D02*
X72750476Y-57164342D01*
X72750476Y-57164342D02*
X72798095Y-57259580D01*
X72798095Y-57259580D02*
X72845714Y-57307200D01*
X72845714Y-57307200D02*
X72940952Y-57354819D01*
X72940952Y-57354819D02*
X73226666Y-57354819D01*
X73226666Y-57354819D02*
X73321904Y-57307200D01*
X73321904Y-57307200D02*
X73369523Y-57259580D01*
X71893333Y-56688152D02*
X71893333Y-57354819D01*
X72131428Y-56307200D02*
X72369523Y-57021485D01*
X72369523Y-57021485D02*
X71750476Y-57021485D01*
X87342857Y-45559580D02*
X87390476Y-45607200D01*
X87390476Y-45607200D02*
X87533333Y-45654819D01*
X87533333Y-45654819D02*
X87628571Y-45654819D01*
X87628571Y-45654819D02*
X87771428Y-45607200D01*
X87771428Y-45607200D02*
X87866666Y-45511961D01*
X87866666Y-45511961D02*
X87914285Y-45416723D01*
X87914285Y-45416723D02*
X87961904Y-45226247D01*
X87961904Y-45226247D02*
X87961904Y-45083390D01*
X87961904Y-45083390D02*
X87914285Y-44892914D01*
X87914285Y-44892914D02*
X87866666Y-44797676D01*
X87866666Y-44797676D02*
X87771428Y-44702438D01*
X87771428Y-44702438D02*
X87628571Y-44654819D01*
X87628571Y-44654819D02*
X87533333Y-44654819D01*
X87533333Y-44654819D02*
X87390476Y-44702438D01*
X87390476Y-44702438D02*
X87342857Y-44750057D01*
X86961904Y-44750057D02*
X86914285Y-44702438D01*
X86914285Y-44702438D02*
X86819047Y-44654819D01*
X86819047Y-44654819D02*
X86580952Y-44654819D01*
X86580952Y-44654819D02*
X86485714Y-44702438D01*
X86485714Y-44702438D02*
X86438095Y-44750057D01*
X86438095Y-44750057D02*
X86390476Y-44845295D01*
X86390476Y-44845295D02*
X86390476Y-44940533D01*
X86390476Y-44940533D02*
X86438095Y-45083390D01*
X86438095Y-45083390D02*
X87009523Y-45654819D01*
X87009523Y-45654819D02*
X86390476Y-45654819D01*
X85771428Y-44654819D02*
X85676190Y-44654819D01*
X85676190Y-44654819D02*
X85580952Y-44702438D01*
X85580952Y-44702438D02*
X85533333Y-44750057D01*
X85533333Y-44750057D02*
X85485714Y-44845295D01*
X85485714Y-44845295D02*
X85438095Y-45035771D01*
X85438095Y-45035771D02*
X85438095Y-45273866D01*
X85438095Y-45273866D02*
X85485714Y-45464342D01*
X85485714Y-45464342D02*
X85533333Y-45559580D01*
X85533333Y-45559580D02*
X85580952Y-45607200D01*
X85580952Y-45607200D02*
X85676190Y-45654819D01*
X85676190Y-45654819D02*
X85771428Y-45654819D01*
X85771428Y-45654819D02*
X85866666Y-45607200D01*
X85866666Y-45607200D02*
X85914285Y-45559580D01*
X85914285Y-45559580D02*
X85961904Y-45464342D01*
X85961904Y-45464342D02*
X86009523Y-45273866D01*
X86009523Y-45273866D02*
X86009523Y-45035771D01*
X86009523Y-45035771D02*
X85961904Y-44845295D01*
X85961904Y-44845295D02*
X85914285Y-44750057D01*
X85914285Y-44750057D02*
X85866666Y-44702438D01*
X85866666Y-44702438D02*
X85771428Y-44654819D01*
X159345238Y-88450057D02*
X159440476Y-88402438D01*
X159440476Y-88402438D02*
X159535714Y-88307200D01*
X159535714Y-88307200D02*
X159678571Y-88164342D01*
X159678571Y-88164342D02*
X159773809Y-88116723D01*
X159773809Y-88116723D02*
X159869047Y-88116723D01*
X159821428Y-88354819D02*
X159916666Y-88307200D01*
X159916666Y-88307200D02*
X160011904Y-88211961D01*
X160011904Y-88211961D02*
X160059523Y-88021485D01*
X160059523Y-88021485D02*
X160059523Y-87688152D01*
X160059523Y-87688152D02*
X160011904Y-87497676D01*
X160011904Y-87497676D02*
X159916666Y-87402438D01*
X159916666Y-87402438D02*
X159821428Y-87354819D01*
X159821428Y-87354819D02*
X159630952Y-87354819D01*
X159630952Y-87354819D02*
X159535714Y-87402438D01*
X159535714Y-87402438D02*
X159440476Y-87497676D01*
X159440476Y-87497676D02*
X159392857Y-87688152D01*
X159392857Y-87688152D02*
X159392857Y-88021485D01*
X159392857Y-88021485D02*
X159440476Y-88211961D01*
X159440476Y-88211961D02*
X159535714Y-88307200D01*
X159535714Y-88307200D02*
X159630952Y-88354819D01*
X159630952Y-88354819D02*
X159821428Y-88354819D01*
X159059523Y-87354819D02*
X158392857Y-87354819D01*
X158392857Y-87354819D02*
X158821428Y-88354819D01*
X82142857Y-47959580D02*
X82190476Y-48007200D01*
X82190476Y-48007200D02*
X82333333Y-48054819D01*
X82333333Y-48054819D02*
X82428571Y-48054819D01*
X82428571Y-48054819D02*
X82571428Y-48007200D01*
X82571428Y-48007200D02*
X82666666Y-47911961D01*
X82666666Y-47911961D02*
X82714285Y-47816723D01*
X82714285Y-47816723D02*
X82761904Y-47626247D01*
X82761904Y-47626247D02*
X82761904Y-47483390D01*
X82761904Y-47483390D02*
X82714285Y-47292914D01*
X82714285Y-47292914D02*
X82666666Y-47197676D01*
X82666666Y-47197676D02*
X82571428Y-47102438D01*
X82571428Y-47102438D02*
X82428571Y-47054819D01*
X82428571Y-47054819D02*
X82333333Y-47054819D01*
X82333333Y-47054819D02*
X82190476Y-47102438D01*
X82190476Y-47102438D02*
X82142857Y-47150057D01*
X81190476Y-48054819D02*
X81761904Y-48054819D01*
X81476190Y-48054819D02*
X81476190Y-47054819D01*
X81476190Y-47054819D02*
X81571428Y-47197676D01*
X81571428Y-47197676D02*
X81666666Y-47292914D01*
X81666666Y-47292914D02*
X81761904Y-47340533D01*
X80714285Y-48054819D02*
X80523809Y-48054819D01*
X80523809Y-48054819D02*
X80428571Y-48007200D01*
X80428571Y-48007200D02*
X80380952Y-47959580D01*
X80380952Y-47959580D02*
X80285714Y-47816723D01*
X80285714Y-47816723D02*
X80238095Y-47626247D01*
X80238095Y-47626247D02*
X80238095Y-47245295D01*
X80238095Y-47245295D02*
X80285714Y-47150057D01*
X80285714Y-47150057D02*
X80333333Y-47102438D01*
X80333333Y-47102438D02*
X80428571Y-47054819D01*
X80428571Y-47054819D02*
X80619047Y-47054819D01*
X80619047Y-47054819D02*
X80714285Y-47102438D01*
X80714285Y-47102438D02*
X80761904Y-47150057D01*
X80761904Y-47150057D02*
X80809523Y-47245295D01*
X80809523Y-47245295D02*
X80809523Y-47483390D01*
X80809523Y-47483390D02*
X80761904Y-47578628D01*
X80761904Y-47578628D02*
X80714285Y-47626247D01*
X80714285Y-47626247D02*
X80619047Y-47673866D01*
X80619047Y-47673866D02*
X80428571Y-47673866D01*
X80428571Y-47673866D02*
X80333333Y-47626247D01*
X80333333Y-47626247D02*
X80285714Y-47578628D01*
X80285714Y-47578628D02*
X80238095Y-47483390D01*
X92577857Y-86804819D02*
X92911190Y-86328628D01*
X93149285Y-86804819D02*
X93149285Y-85804819D01*
X93149285Y-85804819D02*
X92768333Y-85804819D01*
X92768333Y-85804819D02*
X92673095Y-85852438D01*
X92673095Y-85852438D02*
X92625476Y-85900057D01*
X92625476Y-85900057D02*
X92577857Y-85995295D01*
X92577857Y-85995295D02*
X92577857Y-86138152D01*
X92577857Y-86138152D02*
X92625476Y-86233390D01*
X92625476Y-86233390D02*
X92673095Y-86281009D01*
X92673095Y-86281009D02*
X92768333Y-86328628D01*
X92768333Y-86328628D02*
X93149285Y-86328628D01*
X91625476Y-86804819D02*
X92196904Y-86804819D01*
X91911190Y-86804819D02*
X91911190Y-85804819D01*
X91911190Y-85804819D02*
X92006428Y-85947676D01*
X92006428Y-85947676D02*
X92101666Y-86042914D01*
X92101666Y-86042914D02*
X92196904Y-86090533D01*
X91149285Y-86804819D02*
X90958809Y-86804819D01*
X90958809Y-86804819D02*
X90863571Y-86757200D01*
X90863571Y-86757200D02*
X90815952Y-86709580D01*
X90815952Y-86709580D02*
X90720714Y-86566723D01*
X90720714Y-86566723D02*
X90673095Y-86376247D01*
X90673095Y-86376247D02*
X90673095Y-85995295D01*
X90673095Y-85995295D02*
X90720714Y-85900057D01*
X90720714Y-85900057D02*
X90768333Y-85852438D01*
X90768333Y-85852438D02*
X90863571Y-85804819D01*
X90863571Y-85804819D02*
X91054047Y-85804819D01*
X91054047Y-85804819D02*
X91149285Y-85852438D01*
X91149285Y-85852438D02*
X91196904Y-85900057D01*
X91196904Y-85900057D02*
X91244523Y-85995295D01*
X91244523Y-85995295D02*
X91244523Y-86233390D01*
X91244523Y-86233390D02*
X91196904Y-86328628D01*
X91196904Y-86328628D02*
X91149285Y-86376247D01*
X91149285Y-86376247D02*
X91054047Y-86423866D01*
X91054047Y-86423866D02*
X90863571Y-86423866D01*
X90863571Y-86423866D02*
X90768333Y-86376247D01*
X90768333Y-86376247D02*
X90720714Y-86328628D01*
X90720714Y-86328628D02*
X90673095Y-86233390D01*
X63642857Y-87359580D02*
X63690476Y-87407200D01*
X63690476Y-87407200D02*
X63833333Y-87454819D01*
X63833333Y-87454819D02*
X63928571Y-87454819D01*
X63928571Y-87454819D02*
X64071428Y-87407200D01*
X64071428Y-87407200D02*
X64166666Y-87311961D01*
X64166666Y-87311961D02*
X64214285Y-87216723D01*
X64214285Y-87216723D02*
X64261904Y-87026247D01*
X64261904Y-87026247D02*
X64261904Y-86883390D01*
X64261904Y-86883390D02*
X64214285Y-86692914D01*
X64214285Y-86692914D02*
X64166666Y-86597676D01*
X64166666Y-86597676D02*
X64071428Y-86502438D01*
X64071428Y-86502438D02*
X63928571Y-86454819D01*
X63928571Y-86454819D02*
X63833333Y-86454819D01*
X63833333Y-86454819D02*
X63690476Y-86502438D01*
X63690476Y-86502438D02*
X63642857Y-86550057D01*
X63261904Y-86550057D02*
X63214285Y-86502438D01*
X63214285Y-86502438D02*
X63119047Y-86454819D01*
X63119047Y-86454819D02*
X62880952Y-86454819D01*
X62880952Y-86454819D02*
X62785714Y-86502438D01*
X62785714Y-86502438D02*
X62738095Y-86550057D01*
X62738095Y-86550057D02*
X62690476Y-86645295D01*
X62690476Y-86645295D02*
X62690476Y-86740533D01*
X62690476Y-86740533D02*
X62738095Y-86883390D01*
X62738095Y-86883390D02*
X63309523Y-87454819D01*
X63309523Y-87454819D02*
X62690476Y-87454819D01*
X62357142Y-86454819D02*
X61690476Y-86454819D01*
X61690476Y-86454819D02*
X62119047Y-87454819D01*
X50392857Y-82609580D02*
X50440476Y-82657200D01*
X50440476Y-82657200D02*
X50583333Y-82704819D01*
X50583333Y-82704819D02*
X50678571Y-82704819D01*
X50678571Y-82704819D02*
X50821428Y-82657200D01*
X50821428Y-82657200D02*
X50916666Y-82561961D01*
X50916666Y-82561961D02*
X50964285Y-82466723D01*
X50964285Y-82466723D02*
X51011904Y-82276247D01*
X51011904Y-82276247D02*
X51011904Y-82133390D01*
X51011904Y-82133390D02*
X50964285Y-81942914D01*
X50964285Y-81942914D02*
X50916666Y-81847676D01*
X50916666Y-81847676D02*
X50821428Y-81752438D01*
X50821428Y-81752438D02*
X50678571Y-81704819D01*
X50678571Y-81704819D02*
X50583333Y-81704819D01*
X50583333Y-81704819D02*
X50440476Y-81752438D01*
X50440476Y-81752438D02*
X50392857Y-81800057D01*
X50059523Y-81704819D02*
X49440476Y-81704819D01*
X49440476Y-81704819D02*
X49773809Y-82085771D01*
X49773809Y-82085771D02*
X49630952Y-82085771D01*
X49630952Y-82085771D02*
X49535714Y-82133390D01*
X49535714Y-82133390D02*
X49488095Y-82181009D01*
X49488095Y-82181009D02*
X49440476Y-82276247D01*
X49440476Y-82276247D02*
X49440476Y-82514342D01*
X49440476Y-82514342D02*
X49488095Y-82609580D01*
X49488095Y-82609580D02*
X49535714Y-82657200D01*
X49535714Y-82657200D02*
X49630952Y-82704819D01*
X49630952Y-82704819D02*
X49916666Y-82704819D01*
X49916666Y-82704819D02*
X50011904Y-82657200D01*
X50011904Y-82657200D02*
X50059523Y-82609580D01*
X48488095Y-82704819D02*
X49059523Y-82704819D01*
X48773809Y-82704819D02*
X48773809Y-81704819D01*
X48773809Y-81704819D02*
X48869047Y-81847676D01*
X48869047Y-81847676D02*
X48964285Y-81942914D01*
X48964285Y-81942914D02*
X49059523Y-81990533D01*
X115277857Y-73789580D02*
X115325476Y-73837200D01*
X115325476Y-73837200D02*
X115468333Y-73884819D01*
X115468333Y-73884819D02*
X115563571Y-73884819D01*
X115563571Y-73884819D02*
X115706428Y-73837200D01*
X115706428Y-73837200D02*
X115801666Y-73741961D01*
X115801666Y-73741961D02*
X115849285Y-73646723D01*
X115849285Y-73646723D02*
X115896904Y-73456247D01*
X115896904Y-73456247D02*
X115896904Y-73313390D01*
X115896904Y-73313390D02*
X115849285Y-73122914D01*
X115849285Y-73122914D02*
X115801666Y-73027676D01*
X115801666Y-73027676D02*
X115706428Y-72932438D01*
X115706428Y-72932438D02*
X115563571Y-72884819D01*
X115563571Y-72884819D02*
X115468333Y-72884819D01*
X115468333Y-72884819D02*
X115325476Y-72932438D01*
X115325476Y-72932438D02*
X115277857Y-72980057D01*
X114325476Y-73884819D02*
X114896904Y-73884819D01*
X114611190Y-73884819D02*
X114611190Y-72884819D01*
X114611190Y-72884819D02*
X114706428Y-73027676D01*
X114706428Y-73027676D02*
X114801666Y-73122914D01*
X114801666Y-73122914D02*
X114896904Y-73170533D01*
X113468333Y-73218152D02*
X113468333Y-73884819D01*
X113706428Y-72837200D02*
X113944523Y-73551485D01*
X113944523Y-73551485D02*
X113325476Y-73551485D01*
X147705321Y-83247080D02*
X147752940Y-83294700D01*
X147752940Y-83294700D02*
X147895797Y-83342319D01*
X147895797Y-83342319D02*
X147991035Y-83342319D01*
X147991035Y-83342319D02*
X148133892Y-83294700D01*
X148133892Y-83294700D02*
X148229130Y-83199461D01*
X148229130Y-83199461D02*
X148276749Y-83104223D01*
X148276749Y-83104223D02*
X148324368Y-82913747D01*
X148324368Y-82913747D02*
X148324368Y-82770890D01*
X148324368Y-82770890D02*
X148276749Y-82580414D01*
X148276749Y-82580414D02*
X148229130Y-82485176D01*
X148229130Y-82485176D02*
X148133892Y-82389938D01*
X148133892Y-82389938D02*
X147991035Y-82342319D01*
X147991035Y-82342319D02*
X147895797Y-82342319D01*
X147895797Y-82342319D02*
X147752940Y-82389938D01*
X147752940Y-82389938D02*
X147705321Y-82437557D01*
X147371987Y-82342319D02*
X146752940Y-82342319D01*
X146752940Y-82342319D02*
X147086273Y-82723271D01*
X147086273Y-82723271D02*
X146943416Y-82723271D01*
X146943416Y-82723271D02*
X146848178Y-82770890D01*
X146848178Y-82770890D02*
X146800559Y-82818509D01*
X146800559Y-82818509D02*
X146752940Y-82913747D01*
X146752940Y-82913747D02*
X146752940Y-83151842D01*
X146752940Y-83151842D02*
X146800559Y-83247080D01*
X146800559Y-83247080D02*
X146848178Y-83294700D01*
X146848178Y-83294700D02*
X146943416Y-83342319D01*
X146943416Y-83342319D02*
X147229130Y-83342319D01*
X147229130Y-83342319D02*
X147324368Y-83294700D01*
X147324368Y-83294700D02*
X147371987Y-83247080D01*
X146133892Y-82342319D02*
X146038654Y-82342319D01*
X146038654Y-82342319D02*
X145943416Y-82389938D01*
X145943416Y-82389938D02*
X145895797Y-82437557D01*
X145895797Y-82437557D02*
X145848178Y-82532795D01*
X145848178Y-82532795D02*
X145800559Y-82723271D01*
X145800559Y-82723271D02*
X145800559Y-82961366D01*
X145800559Y-82961366D02*
X145848178Y-83151842D01*
X145848178Y-83151842D02*
X145895797Y-83247080D01*
X145895797Y-83247080D02*
X145943416Y-83294700D01*
X145943416Y-83294700D02*
X146038654Y-83342319D01*
X146038654Y-83342319D02*
X146133892Y-83342319D01*
X146133892Y-83342319D02*
X146229130Y-83294700D01*
X146229130Y-83294700D02*
X146276749Y-83247080D01*
X146276749Y-83247080D02*
X146324368Y-83151842D01*
X146324368Y-83151842D02*
X146371987Y-82961366D01*
X146371987Y-82961366D02*
X146371987Y-82723271D01*
X146371987Y-82723271D02*
X146324368Y-82532795D01*
X146324368Y-82532795D02*
X146276749Y-82437557D01*
X146276749Y-82437557D02*
X146229130Y-82389938D01*
X146229130Y-82389938D02*
X146133892Y-82342319D01*
X53080798Y-64250057D02*
X53176036Y-64202438D01*
X53176036Y-64202438D02*
X53271274Y-64107200D01*
X53271274Y-64107200D02*
X53414131Y-63964342D01*
X53414131Y-63964342D02*
X53509369Y-63916723D01*
X53509369Y-63916723D02*
X53604607Y-63916723D01*
X53556988Y-64154819D02*
X53652226Y-64107200D01*
X53652226Y-64107200D02*
X53747464Y-64011961D01*
X53747464Y-64011961D02*
X53795083Y-63821485D01*
X53795083Y-63821485D02*
X53795083Y-63488152D01*
X53795083Y-63488152D02*
X53747464Y-63297676D01*
X53747464Y-63297676D02*
X53652226Y-63202438D01*
X53652226Y-63202438D02*
X53556988Y-63154819D01*
X53556988Y-63154819D02*
X53366512Y-63154819D01*
X53366512Y-63154819D02*
X53271274Y-63202438D01*
X53271274Y-63202438D02*
X53176036Y-63297676D01*
X53176036Y-63297676D02*
X53128417Y-63488152D01*
X53128417Y-63488152D02*
X53128417Y-63821485D01*
X53128417Y-63821485D02*
X53176036Y-64011961D01*
X53176036Y-64011961D02*
X53271274Y-64107200D01*
X53271274Y-64107200D02*
X53366512Y-64154819D01*
X53366512Y-64154819D02*
X53556988Y-64154819D01*
X52176036Y-64154819D02*
X52747464Y-64154819D01*
X52461750Y-64154819D02*
X52461750Y-63154819D01*
X52461750Y-63154819D02*
X52556988Y-63297676D01*
X52556988Y-63297676D02*
X52652226Y-63392914D01*
X52652226Y-63392914D02*
X52747464Y-63440533D01*
X96550357Y-78704819D02*
X96883690Y-78228628D01*
X97121785Y-78704819D02*
X97121785Y-77704819D01*
X97121785Y-77704819D02*
X96740833Y-77704819D01*
X96740833Y-77704819D02*
X96645595Y-77752438D01*
X96645595Y-77752438D02*
X96597976Y-77800057D01*
X96597976Y-77800057D02*
X96550357Y-77895295D01*
X96550357Y-77895295D02*
X96550357Y-78038152D01*
X96550357Y-78038152D02*
X96597976Y-78133390D01*
X96597976Y-78133390D02*
X96645595Y-78181009D01*
X96645595Y-78181009D02*
X96740833Y-78228628D01*
X96740833Y-78228628D02*
X97121785Y-78228628D01*
X95597976Y-78704819D02*
X96169404Y-78704819D01*
X95883690Y-78704819D02*
X95883690Y-77704819D01*
X95883690Y-77704819D02*
X95978928Y-77847676D01*
X95978928Y-77847676D02*
X96074166Y-77942914D01*
X96074166Y-77942914D02*
X96169404Y-77990533D01*
X95217023Y-77800057D02*
X95169404Y-77752438D01*
X95169404Y-77752438D02*
X95074166Y-77704819D01*
X95074166Y-77704819D02*
X94836071Y-77704819D01*
X94836071Y-77704819D02*
X94740833Y-77752438D01*
X94740833Y-77752438D02*
X94693214Y-77800057D01*
X94693214Y-77800057D02*
X94645595Y-77895295D01*
X94645595Y-77895295D02*
X94645595Y-77990533D01*
X94645595Y-77990533D02*
X94693214Y-78133390D01*
X94693214Y-78133390D02*
X95264642Y-78704819D01*
X95264642Y-78704819D02*
X94645595Y-78704819D01*
X147792857Y-79847080D02*
X147840476Y-79894700D01*
X147840476Y-79894700D02*
X147983333Y-79942319D01*
X147983333Y-79942319D02*
X148078571Y-79942319D01*
X148078571Y-79942319D02*
X148221428Y-79894700D01*
X148221428Y-79894700D02*
X148316666Y-79799461D01*
X148316666Y-79799461D02*
X148364285Y-79704223D01*
X148364285Y-79704223D02*
X148411904Y-79513747D01*
X148411904Y-79513747D02*
X148411904Y-79370890D01*
X148411904Y-79370890D02*
X148364285Y-79180414D01*
X148364285Y-79180414D02*
X148316666Y-79085176D01*
X148316666Y-79085176D02*
X148221428Y-78989938D01*
X148221428Y-78989938D02*
X148078571Y-78942319D01*
X148078571Y-78942319D02*
X147983333Y-78942319D01*
X147983333Y-78942319D02*
X147840476Y-78989938D01*
X147840476Y-78989938D02*
X147792857Y-79037557D01*
X147411904Y-79037557D02*
X147364285Y-78989938D01*
X147364285Y-78989938D02*
X147269047Y-78942319D01*
X147269047Y-78942319D02*
X147030952Y-78942319D01*
X147030952Y-78942319D02*
X146935714Y-78989938D01*
X146935714Y-78989938D02*
X146888095Y-79037557D01*
X146888095Y-79037557D02*
X146840476Y-79132795D01*
X146840476Y-79132795D02*
X146840476Y-79228033D01*
X146840476Y-79228033D02*
X146888095Y-79370890D01*
X146888095Y-79370890D02*
X147459523Y-79942319D01*
X147459523Y-79942319D02*
X146840476Y-79942319D01*
X146269047Y-79370890D02*
X146364285Y-79323271D01*
X146364285Y-79323271D02*
X146411904Y-79275652D01*
X146411904Y-79275652D02*
X146459523Y-79180414D01*
X146459523Y-79180414D02*
X146459523Y-79132795D01*
X146459523Y-79132795D02*
X146411904Y-79037557D01*
X146411904Y-79037557D02*
X146364285Y-78989938D01*
X146364285Y-78989938D02*
X146269047Y-78942319D01*
X146269047Y-78942319D02*
X146078571Y-78942319D01*
X146078571Y-78942319D02*
X145983333Y-78989938D01*
X145983333Y-78989938D02*
X145935714Y-79037557D01*
X145935714Y-79037557D02*
X145888095Y-79132795D01*
X145888095Y-79132795D02*
X145888095Y-79180414D01*
X145888095Y-79180414D02*
X145935714Y-79275652D01*
X145935714Y-79275652D02*
X145983333Y-79323271D01*
X145983333Y-79323271D02*
X146078571Y-79370890D01*
X146078571Y-79370890D02*
X146269047Y-79370890D01*
X146269047Y-79370890D02*
X146364285Y-79418509D01*
X146364285Y-79418509D02*
X146411904Y-79466128D01*
X146411904Y-79466128D02*
X146459523Y-79561366D01*
X146459523Y-79561366D02*
X146459523Y-79751842D01*
X146459523Y-79751842D02*
X146411904Y-79847080D01*
X146411904Y-79847080D02*
X146364285Y-79894700D01*
X146364285Y-79894700D02*
X146269047Y-79942319D01*
X146269047Y-79942319D02*
X146078571Y-79942319D01*
X146078571Y-79942319D02*
X145983333Y-79894700D01*
X145983333Y-79894700D02*
X145935714Y-79847080D01*
X145935714Y-79847080D02*
X145888095Y-79751842D01*
X145888095Y-79751842D02*
X145888095Y-79561366D01*
X145888095Y-79561366D02*
X145935714Y-79466128D01*
X145935714Y-79466128D02*
X145983333Y-79418509D01*
X145983333Y-79418509D02*
X146078571Y-79370890D01*
X100287857Y-82359580D02*
X100335476Y-82407200D01*
X100335476Y-82407200D02*
X100478333Y-82454819D01*
X100478333Y-82454819D02*
X100573571Y-82454819D01*
X100573571Y-82454819D02*
X100716428Y-82407200D01*
X100716428Y-82407200D02*
X100811666Y-82311961D01*
X100811666Y-82311961D02*
X100859285Y-82216723D01*
X100859285Y-82216723D02*
X100906904Y-82026247D01*
X100906904Y-82026247D02*
X100906904Y-81883390D01*
X100906904Y-81883390D02*
X100859285Y-81692914D01*
X100859285Y-81692914D02*
X100811666Y-81597676D01*
X100811666Y-81597676D02*
X100716428Y-81502438D01*
X100716428Y-81502438D02*
X100573571Y-81454819D01*
X100573571Y-81454819D02*
X100478333Y-81454819D01*
X100478333Y-81454819D02*
X100335476Y-81502438D01*
X100335476Y-81502438D02*
X100287857Y-81550057D01*
X99335476Y-82454819D02*
X99906904Y-82454819D01*
X99621190Y-82454819D02*
X99621190Y-81454819D01*
X99621190Y-81454819D02*
X99716428Y-81597676D01*
X99716428Y-81597676D02*
X99811666Y-81692914D01*
X99811666Y-81692914D02*
X99906904Y-81740533D01*
X98430714Y-81454819D02*
X98906904Y-81454819D01*
X98906904Y-81454819D02*
X98954523Y-81931009D01*
X98954523Y-81931009D02*
X98906904Y-81883390D01*
X98906904Y-81883390D02*
X98811666Y-81835771D01*
X98811666Y-81835771D02*
X98573571Y-81835771D01*
X98573571Y-81835771D02*
X98478333Y-81883390D01*
X98478333Y-81883390D02*
X98430714Y-81931009D01*
X98430714Y-81931009D02*
X98383095Y-82026247D01*
X98383095Y-82026247D02*
X98383095Y-82264342D01*
X98383095Y-82264342D02*
X98430714Y-82359580D01*
X98430714Y-82359580D02*
X98478333Y-82407200D01*
X98478333Y-82407200D02*
X98573571Y-82454819D01*
X98573571Y-82454819D02*
X98811666Y-82454819D01*
X98811666Y-82454819D02*
X98906904Y-82407200D01*
X98906904Y-82407200D02*
X98954523Y-82359580D01*
X59801666Y-47006929D02*
X59849285Y-47054549D01*
X59849285Y-47054549D02*
X59992142Y-47102168D01*
X59992142Y-47102168D02*
X60087380Y-47102168D01*
X60087380Y-47102168D02*
X60230237Y-47054549D01*
X60230237Y-47054549D02*
X60325475Y-46959310D01*
X60325475Y-46959310D02*
X60373094Y-46864072D01*
X60373094Y-46864072D02*
X60420713Y-46673596D01*
X60420713Y-46673596D02*
X60420713Y-46530739D01*
X60420713Y-46530739D02*
X60373094Y-46340263D01*
X60373094Y-46340263D02*
X60325475Y-46245025D01*
X60325475Y-46245025D02*
X60230237Y-46149787D01*
X60230237Y-46149787D02*
X60087380Y-46102168D01*
X60087380Y-46102168D02*
X59992142Y-46102168D01*
X59992142Y-46102168D02*
X59849285Y-46149787D01*
X59849285Y-46149787D02*
X59801666Y-46197406D01*
X58849285Y-47102168D02*
X59420713Y-47102168D01*
X59134999Y-47102168D02*
X59134999Y-46102168D01*
X59134999Y-46102168D02*
X59230237Y-46245025D01*
X59230237Y-46245025D02*
X59325475Y-46340263D01*
X59325475Y-46340263D02*
X59420713Y-46387882D01*
X172317857Y-64237080D02*
X172365476Y-64284700D01*
X172365476Y-64284700D02*
X172508333Y-64332319D01*
X172508333Y-64332319D02*
X172603571Y-64332319D01*
X172603571Y-64332319D02*
X172746428Y-64284700D01*
X172746428Y-64284700D02*
X172841666Y-64189461D01*
X172841666Y-64189461D02*
X172889285Y-64094223D01*
X172889285Y-64094223D02*
X172936904Y-63903747D01*
X172936904Y-63903747D02*
X172936904Y-63760890D01*
X172936904Y-63760890D02*
X172889285Y-63570414D01*
X172889285Y-63570414D02*
X172841666Y-63475176D01*
X172841666Y-63475176D02*
X172746428Y-63379938D01*
X172746428Y-63379938D02*
X172603571Y-63332319D01*
X172603571Y-63332319D02*
X172508333Y-63332319D01*
X172508333Y-63332319D02*
X172365476Y-63379938D01*
X172365476Y-63379938D02*
X172317857Y-63427557D01*
X171984523Y-63332319D02*
X171365476Y-63332319D01*
X171365476Y-63332319D02*
X171698809Y-63713271D01*
X171698809Y-63713271D02*
X171555952Y-63713271D01*
X171555952Y-63713271D02*
X171460714Y-63760890D01*
X171460714Y-63760890D02*
X171413095Y-63808509D01*
X171413095Y-63808509D02*
X171365476Y-63903747D01*
X171365476Y-63903747D02*
X171365476Y-64141842D01*
X171365476Y-64141842D02*
X171413095Y-64237080D01*
X171413095Y-64237080D02*
X171460714Y-64284700D01*
X171460714Y-64284700D02*
X171555952Y-64332319D01*
X171555952Y-64332319D02*
X171841666Y-64332319D01*
X171841666Y-64332319D02*
X171936904Y-64284700D01*
X171936904Y-64284700D02*
X171984523Y-64237080D01*
X171032142Y-63332319D02*
X170413095Y-63332319D01*
X170413095Y-63332319D02*
X170746428Y-63713271D01*
X170746428Y-63713271D02*
X170603571Y-63713271D01*
X170603571Y-63713271D02*
X170508333Y-63760890D01*
X170508333Y-63760890D02*
X170460714Y-63808509D01*
X170460714Y-63808509D02*
X170413095Y-63903747D01*
X170413095Y-63903747D02*
X170413095Y-64141842D01*
X170413095Y-64141842D02*
X170460714Y-64237080D01*
X170460714Y-64237080D02*
X170508333Y-64284700D01*
X170508333Y-64284700D02*
X170603571Y-64332319D01*
X170603571Y-64332319D02*
X170889285Y-64332319D01*
X170889285Y-64332319D02*
X170984523Y-64284700D01*
X170984523Y-64284700D02*
X171032142Y-64237080D01*
X52201666Y-50659580D02*
X52249285Y-50707200D01*
X52249285Y-50707200D02*
X52392142Y-50754819D01*
X52392142Y-50754819D02*
X52487380Y-50754819D01*
X52487380Y-50754819D02*
X52630237Y-50707200D01*
X52630237Y-50707200D02*
X52725475Y-50611961D01*
X52725475Y-50611961D02*
X52773094Y-50516723D01*
X52773094Y-50516723D02*
X52820713Y-50326247D01*
X52820713Y-50326247D02*
X52820713Y-50183390D01*
X52820713Y-50183390D02*
X52773094Y-49992914D01*
X52773094Y-49992914D02*
X52725475Y-49897676D01*
X52725475Y-49897676D02*
X52630237Y-49802438D01*
X52630237Y-49802438D02*
X52487380Y-49754819D01*
X52487380Y-49754819D02*
X52392142Y-49754819D01*
X52392142Y-49754819D02*
X52249285Y-49802438D01*
X52249285Y-49802438D02*
X52201666Y-49850057D01*
X51820713Y-49850057D02*
X51773094Y-49802438D01*
X51773094Y-49802438D02*
X51677856Y-49754819D01*
X51677856Y-49754819D02*
X51439761Y-49754819D01*
X51439761Y-49754819D02*
X51344523Y-49802438D01*
X51344523Y-49802438D02*
X51296904Y-49850057D01*
X51296904Y-49850057D02*
X51249285Y-49945295D01*
X51249285Y-49945295D02*
X51249285Y-50040533D01*
X51249285Y-50040533D02*
X51296904Y-50183390D01*
X51296904Y-50183390D02*
X51868332Y-50754819D01*
X51868332Y-50754819D02*
X51249285Y-50754819D01*
X152250594Y-78542319D02*
X152250594Y-79351842D01*
X152250594Y-79351842D02*
X152202975Y-79447080D01*
X152202975Y-79447080D02*
X152155356Y-79494700D01*
X152155356Y-79494700D02*
X152060118Y-79542319D01*
X152060118Y-79542319D02*
X151869642Y-79542319D01*
X151869642Y-79542319D02*
X151774404Y-79494700D01*
X151774404Y-79494700D02*
X151726785Y-79447080D01*
X151726785Y-79447080D02*
X151679166Y-79351842D01*
X151679166Y-79351842D02*
X151679166Y-78542319D01*
X150679166Y-79542319D02*
X151250594Y-79542319D01*
X150964880Y-79542319D02*
X150964880Y-78542319D01*
X150964880Y-78542319D02*
X151060118Y-78685176D01*
X151060118Y-78685176D02*
X151155356Y-78780414D01*
X151155356Y-78780414D02*
X151250594Y-78828033D01*
X150298213Y-78637557D02*
X150250594Y-78589938D01*
X150250594Y-78589938D02*
X150155356Y-78542319D01*
X150155356Y-78542319D02*
X149917261Y-78542319D01*
X149917261Y-78542319D02*
X149822023Y-78589938D01*
X149822023Y-78589938D02*
X149774404Y-78637557D01*
X149774404Y-78637557D02*
X149726785Y-78732795D01*
X149726785Y-78732795D02*
X149726785Y-78828033D01*
X149726785Y-78828033D02*
X149774404Y-78970890D01*
X149774404Y-78970890D02*
X150345832Y-79542319D01*
X150345832Y-79542319D02*
X149726785Y-79542319D01*
X103916666Y-60904819D02*
X104249999Y-60428628D01*
X104488094Y-60904819D02*
X104488094Y-59904819D01*
X104488094Y-59904819D02*
X104107142Y-59904819D01*
X104107142Y-59904819D02*
X104011904Y-59952438D01*
X104011904Y-59952438D02*
X103964285Y-60000057D01*
X103964285Y-60000057D02*
X103916666Y-60095295D01*
X103916666Y-60095295D02*
X103916666Y-60238152D01*
X103916666Y-60238152D02*
X103964285Y-60333390D01*
X103964285Y-60333390D02*
X104011904Y-60381009D01*
X104011904Y-60381009D02*
X104107142Y-60428628D01*
X104107142Y-60428628D02*
X104488094Y-60428628D01*
X103059523Y-59904819D02*
X103249999Y-59904819D01*
X103249999Y-59904819D02*
X103345237Y-59952438D01*
X103345237Y-59952438D02*
X103392856Y-60000057D01*
X103392856Y-60000057D02*
X103488094Y-60142914D01*
X103488094Y-60142914D02*
X103535713Y-60333390D01*
X103535713Y-60333390D02*
X103535713Y-60714342D01*
X103535713Y-60714342D02*
X103488094Y-60809580D01*
X103488094Y-60809580D02*
X103440475Y-60857200D01*
X103440475Y-60857200D02*
X103345237Y-60904819D01*
X103345237Y-60904819D02*
X103154761Y-60904819D01*
X103154761Y-60904819D02*
X103059523Y-60857200D01*
X103059523Y-60857200D02*
X103011904Y-60809580D01*
X103011904Y-60809580D02*
X102964285Y-60714342D01*
X102964285Y-60714342D02*
X102964285Y-60476247D01*
X102964285Y-60476247D02*
X103011904Y-60381009D01*
X103011904Y-60381009D02*
X103059523Y-60333390D01*
X103059523Y-60333390D02*
X103154761Y-60285771D01*
X103154761Y-60285771D02*
X103345237Y-60285771D01*
X103345237Y-60285771D02*
X103440475Y-60333390D01*
X103440475Y-60333390D02*
X103488094Y-60381009D01*
X103488094Y-60381009D02*
X103535713Y-60476247D01*
X100142857Y-89859580D02*
X100190476Y-89907200D01*
X100190476Y-89907200D02*
X100333333Y-89954819D01*
X100333333Y-89954819D02*
X100428571Y-89954819D01*
X100428571Y-89954819D02*
X100571428Y-89907200D01*
X100571428Y-89907200D02*
X100666666Y-89811961D01*
X100666666Y-89811961D02*
X100714285Y-89716723D01*
X100714285Y-89716723D02*
X100761904Y-89526247D01*
X100761904Y-89526247D02*
X100761904Y-89383390D01*
X100761904Y-89383390D02*
X100714285Y-89192914D01*
X100714285Y-89192914D02*
X100666666Y-89097676D01*
X100666666Y-89097676D02*
X100571428Y-89002438D01*
X100571428Y-89002438D02*
X100428571Y-88954819D01*
X100428571Y-88954819D02*
X100333333Y-88954819D01*
X100333333Y-88954819D02*
X100190476Y-89002438D01*
X100190476Y-89002438D02*
X100142857Y-89050057D01*
X99761904Y-89050057D02*
X99714285Y-89002438D01*
X99714285Y-89002438D02*
X99619047Y-88954819D01*
X99619047Y-88954819D02*
X99380952Y-88954819D01*
X99380952Y-88954819D02*
X99285714Y-89002438D01*
X99285714Y-89002438D02*
X99238095Y-89050057D01*
X99238095Y-89050057D02*
X99190476Y-89145295D01*
X99190476Y-89145295D02*
X99190476Y-89240533D01*
X99190476Y-89240533D02*
X99238095Y-89383390D01*
X99238095Y-89383390D02*
X99809523Y-89954819D01*
X99809523Y-89954819D02*
X99190476Y-89954819D01*
X98333333Y-89288152D02*
X98333333Y-89954819D01*
X98571428Y-88907200D02*
X98809523Y-89621485D01*
X98809523Y-89621485D02*
X98190476Y-89621485D01*
X74277857Y-43604819D02*
X74611190Y-43128628D01*
X74849285Y-43604819D02*
X74849285Y-42604819D01*
X74849285Y-42604819D02*
X74468333Y-42604819D01*
X74468333Y-42604819D02*
X74373095Y-42652438D01*
X74373095Y-42652438D02*
X74325476Y-42700057D01*
X74325476Y-42700057D02*
X74277857Y-42795295D01*
X74277857Y-42795295D02*
X74277857Y-42938152D01*
X74277857Y-42938152D02*
X74325476Y-43033390D01*
X74325476Y-43033390D02*
X74373095Y-43081009D01*
X74373095Y-43081009D02*
X74468333Y-43128628D01*
X74468333Y-43128628D02*
X74849285Y-43128628D01*
X73325476Y-43604819D02*
X73896904Y-43604819D01*
X73611190Y-43604819D02*
X73611190Y-42604819D01*
X73611190Y-42604819D02*
X73706428Y-42747676D01*
X73706428Y-42747676D02*
X73801666Y-42842914D01*
X73801666Y-42842914D02*
X73896904Y-42890533D01*
X72706428Y-42604819D02*
X72611190Y-42604819D01*
X72611190Y-42604819D02*
X72515952Y-42652438D01*
X72515952Y-42652438D02*
X72468333Y-42700057D01*
X72468333Y-42700057D02*
X72420714Y-42795295D01*
X72420714Y-42795295D02*
X72373095Y-42985771D01*
X72373095Y-42985771D02*
X72373095Y-43223866D01*
X72373095Y-43223866D02*
X72420714Y-43414342D01*
X72420714Y-43414342D02*
X72468333Y-43509580D01*
X72468333Y-43509580D02*
X72515952Y-43557200D01*
X72515952Y-43557200D02*
X72611190Y-43604819D01*
X72611190Y-43604819D02*
X72706428Y-43604819D01*
X72706428Y-43604819D02*
X72801666Y-43557200D01*
X72801666Y-43557200D02*
X72849285Y-43509580D01*
X72849285Y-43509580D02*
X72896904Y-43414342D01*
X72896904Y-43414342D02*
X72944523Y-43223866D01*
X72944523Y-43223866D02*
X72944523Y-42985771D01*
X72944523Y-42985771D02*
X72896904Y-42795295D01*
X72896904Y-42795295D02*
X72849285Y-42700057D01*
X72849285Y-42700057D02*
X72801666Y-42652438D01*
X72801666Y-42652438D02*
X72706428Y-42604819D01*
X50892857Y-85359580D02*
X50940476Y-85407200D01*
X50940476Y-85407200D02*
X51083333Y-85454819D01*
X51083333Y-85454819D02*
X51178571Y-85454819D01*
X51178571Y-85454819D02*
X51321428Y-85407200D01*
X51321428Y-85407200D02*
X51416666Y-85311961D01*
X51416666Y-85311961D02*
X51464285Y-85216723D01*
X51464285Y-85216723D02*
X51511904Y-85026247D01*
X51511904Y-85026247D02*
X51511904Y-84883390D01*
X51511904Y-84883390D02*
X51464285Y-84692914D01*
X51464285Y-84692914D02*
X51416666Y-84597676D01*
X51416666Y-84597676D02*
X51321428Y-84502438D01*
X51321428Y-84502438D02*
X51178571Y-84454819D01*
X51178571Y-84454819D02*
X51083333Y-84454819D01*
X51083333Y-84454819D02*
X50940476Y-84502438D01*
X50940476Y-84502438D02*
X50892857Y-84550057D01*
X50559523Y-84454819D02*
X49940476Y-84454819D01*
X49940476Y-84454819D02*
X50273809Y-84835771D01*
X50273809Y-84835771D02*
X50130952Y-84835771D01*
X50130952Y-84835771D02*
X50035714Y-84883390D01*
X50035714Y-84883390D02*
X49988095Y-84931009D01*
X49988095Y-84931009D02*
X49940476Y-85026247D01*
X49940476Y-85026247D02*
X49940476Y-85264342D01*
X49940476Y-85264342D02*
X49988095Y-85359580D01*
X49988095Y-85359580D02*
X50035714Y-85407200D01*
X50035714Y-85407200D02*
X50130952Y-85454819D01*
X50130952Y-85454819D02*
X50416666Y-85454819D01*
X50416666Y-85454819D02*
X50511904Y-85407200D01*
X50511904Y-85407200D02*
X50559523Y-85359580D01*
X49559523Y-84550057D02*
X49511904Y-84502438D01*
X49511904Y-84502438D02*
X49416666Y-84454819D01*
X49416666Y-84454819D02*
X49178571Y-84454819D01*
X49178571Y-84454819D02*
X49083333Y-84502438D01*
X49083333Y-84502438D02*
X49035714Y-84550057D01*
X49035714Y-84550057D02*
X48988095Y-84645295D01*
X48988095Y-84645295D02*
X48988095Y-84740533D01*
X48988095Y-84740533D02*
X49035714Y-84883390D01*
X49035714Y-84883390D02*
X49607142Y-85454819D01*
X49607142Y-85454819D02*
X48988095Y-85454819D01*
X55142857Y-87484580D02*
X55190476Y-87532200D01*
X55190476Y-87532200D02*
X55333333Y-87579819D01*
X55333333Y-87579819D02*
X55428571Y-87579819D01*
X55428571Y-87579819D02*
X55571428Y-87532200D01*
X55571428Y-87532200D02*
X55666666Y-87436961D01*
X55666666Y-87436961D02*
X55714285Y-87341723D01*
X55714285Y-87341723D02*
X55761904Y-87151247D01*
X55761904Y-87151247D02*
X55761904Y-87008390D01*
X55761904Y-87008390D02*
X55714285Y-86817914D01*
X55714285Y-86817914D02*
X55666666Y-86722676D01*
X55666666Y-86722676D02*
X55571428Y-86627438D01*
X55571428Y-86627438D02*
X55428571Y-86579819D01*
X55428571Y-86579819D02*
X55333333Y-86579819D01*
X55333333Y-86579819D02*
X55190476Y-86627438D01*
X55190476Y-86627438D02*
X55142857Y-86675057D01*
X54761904Y-86675057D02*
X54714285Y-86627438D01*
X54714285Y-86627438D02*
X54619047Y-86579819D01*
X54619047Y-86579819D02*
X54380952Y-86579819D01*
X54380952Y-86579819D02*
X54285714Y-86627438D01*
X54285714Y-86627438D02*
X54238095Y-86675057D01*
X54238095Y-86675057D02*
X54190476Y-86770295D01*
X54190476Y-86770295D02*
X54190476Y-86865533D01*
X54190476Y-86865533D02*
X54238095Y-87008390D01*
X54238095Y-87008390D02*
X54809523Y-87579819D01*
X54809523Y-87579819D02*
X54190476Y-87579819D01*
X53714285Y-87579819D02*
X53523809Y-87579819D01*
X53523809Y-87579819D02*
X53428571Y-87532200D01*
X53428571Y-87532200D02*
X53380952Y-87484580D01*
X53380952Y-87484580D02*
X53285714Y-87341723D01*
X53285714Y-87341723D02*
X53238095Y-87151247D01*
X53238095Y-87151247D02*
X53238095Y-86770295D01*
X53238095Y-86770295D02*
X53285714Y-86675057D01*
X53285714Y-86675057D02*
X53333333Y-86627438D01*
X53333333Y-86627438D02*
X53428571Y-86579819D01*
X53428571Y-86579819D02*
X53619047Y-86579819D01*
X53619047Y-86579819D02*
X53714285Y-86627438D01*
X53714285Y-86627438D02*
X53761904Y-86675057D01*
X53761904Y-86675057D02*
X53809523Y-86770295D01*
X53809523Y-86770295D02*
X53809523Y-87008390D01*
X53809523Y-87008390D02*
X53761904Y-87103628D01*
X53761904Y-87103628D02*
X53714285Y-87151247D01*
X53714285Y-87151247D02*
X53619047Y-87198866D01*
X53619047Y-87198866D02*
X53428571Y-87198866D01*
X53428571Y-87198866D02*
X53333333Y-87151247D01*
X53333333Y-87151247D02*
X53285714Y-87103628D01*
X53285714Y-87103628D02*
X53238095Y-87008390D01*
X72677857Y-49459580D02*
X72725476Y-49507200D01*
X72725476Y-49507200D02*
X72868333Y-49554819D01*
X72868333Y-49554819D02*
X72963571Y-49554819D01*
X72963571Y-49554819D02*
X73106428Y-49507200D01*
X73106428Y-49507200D02*
X73201666Y-49411961D01*
X73201666Y-49411961D02*
X73249285Y-49316723D01*
X73249285Y-49316723D02*
X73296904Y-49126247D01*
X73296904Y-49126247D02*
X73296904Y-48983390D01*
X73296904Y-48983390D02*
X73249285Y-48792914D01*
X73249285Y-48792914D02*
X73201666Y-48697676D01*
X73201666Y-48697676D02*
X73106428Y-48602438D01*
X73106428Y-48602438D02*
X72963571Y-48554819D01*
X72963571Y-48554819D02*
X72868333Y-48554819D01*
X72868333Y-48554819D02*
X72725476Y-48602438D01*
X72725476Y-48602438D02*
X72677857Y-48650057D01*
X71725476Y-49554819D02*
X72296904Y-49554819D01*
X72011190Y-49554819D02*
X72011190Y-48554819D01*
X72011190Y-48554819D02*
X72106428Y-48697676D01*
X72106428Y-48697676D02*
X72201666Y-48792914D01*
X72201666Y-48792914D02*
X72296904Y-48840533D01*
X70868333Y-48554819D02*
X71058809Y-48554819D01*
X71058809Y-48554819D02*
X71154047Y-48602438D01*
X71154047Y-48602438D02*
X71201666Y-48650057D01*
X71201666Y-48650057D02*
X71296904Y-48792914D01*
X71296904Y-48792914D02*
X71344523Y-48983390D01*
X71344523Y-48983390D02*
X71344523Y-49364342D01*
X71344523Y-49364342D02*
X71296904Y-49459580D01*
X71296904Y-49459580D02*
X71249285Y-49507200D01*
X71249285Y-49507200D02*
X71154047Y-49554819D01*
X71154047Y-49554819D02*
X70963571Y-49554819D01*
X70963571Y-49554819D02*
X70868333Y-49507200D01*
X70868333Y-49507200D02*
X70820714Y-49459580D01*
X70820714Y-49459580D02*
X70773095Y-49364342D01*
X70773095Y-49364342D02*
X70773095Y-49126247D01*
X70773095Y-49126247D02*
X70820714Y-49031009D01*
X70820714Y-49031009D02*
X70868333Y-48983390D01*
X70868333Y-48983390D02*
X70963571Y-48935771D01*
X70963571Y-48935771D02*
X71154047Y-48935771D01*
X71154047Y-48935771D02*
X71249285Y-48983390D01*
X71249285Y-48983390D02*
X71296904Y-49031009D01*
X71296904Y-49031009D02*
X71344523Y-49126247D01*
X152192857Y-71942319D02*
X152526190Y-71466128D01*
X152764285Y-71942319D02*
X152764285Y-70942319D01*
X152764285Y-70942319D02*
X152383333Y-70942319D01*
X152383333Y-70942319D02*
X152288095Y-70989938D01*
X152288095Y-70989938D02*
X152240476Y-71037557D01*
X152240476Y-71037557D02*
X152192857Y-71132795D01*
X152192857Y-71132795D02*
X152192857Y-71275652D01*
X152192857Y-71275652D02*
X152240476Y-71370890D01*
X152240476Y-71370890D02*
X152288095Y-71418509D01*
X152288095Y-71418509D02*
X152383333Y-71466128D01*
X152383333Y-71466128D02*
X152764285Y-71466128D01*
X151240476Y-71942319D02*
X151811904Y-71942319D01*
X151526190Y-71942319D02*
X151526190Y-70942319D01*
X151526190Y-70942319D02*
X151621428Y-71085176D01*
X151621428Y-71085176D02*
X151716666Y-71180414D01*
X151716666Y-71180414D02*
X151811904Y-71228033D01*
X150907142Y-70942319D02*
X150240476Y-70942319D01*
X150240476Y-70942319D02*
X150669047Y-71942319D01*
D11*
%TO.C,R20*%
X95662064Y-88735000D02*
X95207936Y-88735000D01*
X95662064Y-87265000D02*
X95207936Y-87265000D01*
%TO.C,C26*%
X94159420Y-66490000D02*
X94440580Y-66490000D01*
X94159420Y-67510000D02*
X94440580Y-67510000D01*
%TO.C,C35*%
X173415000Y-66838080D02*
X173415000Y-66556920D01*
X174435000Y-66838080D02*
X174435000Y-66556920D01*
%TO.C,R3*%
X57020560Y-65972936D02*
X57020560Y-66427064D01*
X55550560Y-65972936D02*
X55550560Y-66427064D01*
%TO.C,R22*%
X73462064Y-54135000D02*
X73007936Y-54135000D01*
X73462064Y-52665000D02*
X73007936Y-52665000D01*
%TO.C,R11*%
X92372064Y-80735000D02*
X91917936Y-80735000D01*
X92372064Y-79265000D02*
X91917936Y-79265000D01*
%TO.C,U11*%
X151737536Y-84190000D02*
X150937536Y-84190000D01*
X151737536Y-84190000D02*
X152537536Y-84190000D01*
X151737536Y-87310000D02*
X149937536Y-87310000D01*
X151737536Y-87310000D02*
X152537536Y-87310000D01*
%TO.C,R16*%
X151122936Y-81752500D02*
X151577064Y-81752500D01*
X151122936Y-83222500D02*
X151577064Y-83222500D01*
%TO.C,Q8*%
X159250000Y-74440000D02*
X157300000Y-74440000D01*
X159250000Y-74440000D02*
X161200000Y-74440000D01*
X159250000Y-79560000D02*
X155800000Y-79560000D01*
X159250000Y-79560000D02*
X161200000Y-79560000D01*
%TO.C,C34*%
X72919420Y-54790000D02*
X73200580Y-54790000D01*
X72919420Y-55810000D02*
X73200580Y-55810000D01*
%TO.C,C20*%
X83890000Y-45340580D02*
X83890000Y-45059420D01*
X84910000Y-45340580D02*
X84910000Y-45059420D01*
%TO.C,Q7*%
X159250000Y-81940000D02*
X157300000Y-81940000D01*
X159250000Y-81940000D02*
X161200000Y-81940000D01*
X159250000Y-87060000D02*
X155800000Y-87060000D01*
X159250000Y-87060000D02*
X161200000Y-87060000D01*
%TO.C,C19*%
X82860000Y-43788748D02*
X82860000Y-45211252D01*
X80140000Y-43788748D02*
X80140000Y-45211252D01*
%TO.C,R19*%
X92162064Y-88735000D02*
X91707936Y-88735000D01*
X92162064Y-87265000D02*
X91707936Y-87265000D01*
%TO.C,C27*%
X58265000Y-87736252D02*
X58265000Y-86313748D01*
X60985000Y-87736252D02*
X60985000Y-86313748D01*
%TO.C,C31*%
X46565580Y-82935000D02*
X46284420Y-82935000D01*
X46565580Y-81915000D02*
X46284420Y-81915000D01*
%TO.C,C14*%
X114494420Y-71490000D02*
X114775580Y-71490000D01*
X114494420Y-72510000D02*
X114775580Y-72510000D01*
%TO.C,C30*%
X148560000Y-85288748D02*
X148560000Y-86711252D01*
X145840000Y-85288748D02*
X145840000Y-86711252D01*
%TO.C,Q1*%
X52985560Y-67660000D02*
X53635560Y-67660000D01*
X52985560Y-67660000D02*
X52335560Y-67660000D01*
X52985560Y-64540000D02*
X54660560Y-64540000D01*
X52985560Y-64540000D02*
X52335560Y-64540000D01*
%TO.C,R12*%
X96122064Y-80735000D02*
X95667936Y-80735000D01*
X96122064Y-79265000D02*
X95667936Y-79265000D01*
%TO.C,C28*%
X148510000Y-75301248D02*
X148510000Y-76723752D01*
X145790000Y-75301248D02*
X145790000Y-76723752D01*
%TO.C,C15*%
X99504420Y-82990000D02*
X99785580Y-82990000D01*
X99504420Y-84010000D02*
X99785580Y-84010000D01*
%TO.C,C1*%
X57025000Y-46787929D02*
X57025000Y-46506769D01*
X58045000Y-46787929D02*
X58045000Y-46506769D01*
%TO.C,C33*%
X171534420Y-61937500D02*
X171815580Y-61937500D01*
X171534420Y-62957500D02*
X171815580Y-62957500D01*
%TO.C,C2*%
X50675000Y-47458601D02*
X50675000Y-46036097D01*
X53395000Y-47458601D02*
X53395000Y-46036097D01*
%TO.C,U12*%
X151012500Y-74877500D02*
X150212500Y-74877500D01*
X151012500Y-74877500D02*
X151812500Y-74877500D01*
X151012500Y-77997500D02*
X149212500Y-77997500D01*
X151012500Y-77997500D02*
X151812500Y-77997500D01*
%TO.C,R6*%
X103522936Y-58065000D02*
X103977064Y-58065000D01*
X103522936Y-59535000D02*
X103977064Y-59535000D01*
%TO.C,C24*%
X99359420Y-90490000D02*
X99640580Y-90490000D01*
X99359420Y-91510000D02*
X99640580Y-91510000D01*
%TO.C,R10*%
X73862064Y-45535000D02*
X73407936Y-45535000D01*
X73862064Y-44065000D02*
X73407936Y-44065000D01*
%TO.C,C32*%
X46936252Y-86485000D02*
X45513748Y-86485000D01*
X46936252Y-83765000D02*
X45513748Y-83765000D01*
%TO.C,C29*%
X57335000Y-86984420D02*
X57335000Y-87265580D01*
X56315000Y-86984420D02*
X56315000Y-87265580D01*
%TO.C,C16*%
X72175580Y-48010000D02*
X71894420Y-48010000D01*
X72175580Y-46990000D02*
X71894420Y-46990000D01*
%TO.C,R17*%
X150922936Y-72752500D02*
X151377064Y-72752500D01*
X150922936Y-74222500D02*
X151377064Y-74222500D01*
%TD*%
M02*
