%TF.GenerationSoftware,KiCad,Pcbnew,7.0.8-7.0.8~ubuntu22.04.1*%
%TF.CreationDate,2023-10-31T14:14:18+03:00*%
%TF.ProjectId,main-module,6d61696e-2d6d-46f6-9475-6c652e6b6963,rev?*%
%TF.SameCoordinates,Original*%
%TF.FileFunction,Drillmap*%
%TF.FilePolarity,Positive*%
%FSLAX45Y45*%
G04 Gerber Fmt 4.5, Leading zero omitted, Abs format (unit mm)*
G04 Created by KiCad (PCBNEW 7.0.8-7.0.8~ubuntu22.04.1) date 2023-10-31 14:14:18*
%MOMM*%
%LPD*%
G01*
G04 APERTURE LIST*
%ADD10C,0.100000*%
%ADD11C,0.200000*%
%ADD12C,0.020000*%
%ADD13C,0.040000*%
%ADD14C,0.076200*%
%ADD15C,0.080000*%
%ADD16C,0.090000*%
%ADD17C,0.095000*%
%ADD18C,0.120000*%
%ADD19C,0.160000*%
G04 APERTURE END LIST*
D10*
X4200000Y-9400000D02*
X12100000Y-9400000D01*
X4200000Y-4200000D02*
X4200000Y-9400000D01*
X12100000Y-4200000D02*
X4200000Y-4200000D01*
X12100000Y-5585000D02*
X12100000Y-9400000D01*
X14500000Y-6000000D02*
X17600000Y-6000000D01*
X17600000Y-8900000D01*
X14500000Y-8900000D01*
X14500000Y-6000000D01*
X12100000Y-4200000D02*
X12100000Y-4325000D01*
D11*
D12*
X8293750Y-4941250D02*
X8313750Y-4961250D01*
X8313750Y-4941250D02*
X8293750Y-4961250D01*
X8293750Y-5093750D02*
X8313750Y-5113750D01*
X8313750Y-5093750D02*
X8293750Y-5113750D01*
X8370000Y-4865000D02*
X8390000Y-4885000D01*
X8390000Y-4865000D02*
X8370000Y-4885000D01*
X8370000Y-5017500D02*
X8390000Y-5037500D01*
X8390000Y-5017500D02*
X8370000Y-5037500D01*
X8370000Y-5170000D02*
X8390000Y-5190000D01*
X8390000Y-5170000D02*
X8370000Y-5190000D01*
X8446250Y-4941250D02*
X8466250Y-4961250D01*
X8466250Y-4941250D02*
X8446250Y-4961250D01*
X8446250Y-5093750D02*
X8466250Y-5113750D01*
X8466250Y-5093750D02*
X8446250Y-5113750D01*
X8522500Y-4865000D02*
X8542500Y-4885000D01*
X8542500Y-4865000D02*
X8522500Y-4885000D01*
X8522500Y-5017500D02*
X8542500Y-5037500D01*
X8542500Y-5017500D02*
X8522500Y-5037500D01*
X8522500Y-5170000D02*
X8542500Y-5190000D01*
X8542500Y-5170000D02*
X8522500Y-5190000D01*
X8598750Y-4941250D02*
X8618750Y-4961250D01*
X8618750Y-4941250D02*
X8598750Y-4961250D01*
X8598750Y-5093750D02*
X8618750Y-5113750D01*
X8618750Y-5093750D02*
X8598750Y-5113750D01*
D13*
X5013500Y-6610000D02*
G75*
G03*
X5013500Y-6610000I-20000J0D01*
G01*
X6007500Y-8557500D02*
G75*
G03*
X6007500Y-8557500I-20000J0D01*
G01*
X6193500Y-6280000D02*
G75*
G03*
X6193500Y-6280000I-20000J0D01*
G01*
X7270000Y-6975000D02*
G75*
G03*
X7270000Y-6975000I-20000J0D01*
G01*
X7345000Y-7925000D02*
G75*
G03*
X7345000Y-7925000I-20000J0D01*
G01*
X7345000Y-8225000D02*
G75*
G03*
X7345000Y-8225000I-20000J0D01*
G01*
X7973250Y-6069500D02*
G75*
G03*
X7973250Y-6069500I-20000J0D01*
G01*
X8120000Y-6975000D02*
G75*
G03*
X8120000Y-6975000I-20000J0D01*
G01*
X8180000Y-4600000D02*
G75*
G03*
X8180000Y-4600000I-20000J0D01*
G01*
X9116250Y-6069500D02*
G75*
G03*
X9116250Y-6069500I-20000J0D01*
G01*
X9393500Y-8800000D02*
G75*
G03*
X9393500Y-8800000I-20000J0D01*
G01*
X9419250Y-4547500D02*
G75*
G03*
X9419250Y-4547500I-20000J0D01*
G01*
X9419250Y-4928500D02*
G75*
G03*
X9419250Y-4928500I-20000J0D01*
G01*
X9419250Y-5436500D02*
G75*
G03*
X9419250Y-5436500I-20000J0D01*
G01*
X9419250Y-5563500D02*
G75*
G03*
X9419250Y-5563500I-20000J0D01*
G01*
X9419250Y-5690500D02*
G75*
G03*
X9419250Y-5690500I-20000J0D01*
G01*
X9420000Y-8000000D02*
G75*
G03*
X9420000Y-8000000I-20000J0D01*
G01*
X9720000Y-5220000D02*
G75*
G03*
X9720000Y-5220000I-20000J0D01*
G01*
X10045000Y-5500000D02*
G75*
G03*
X10045000Y-5500000I-20000J0D01*
G01*
X10115000Y-5875000D02*
G75*
G03*
X10115000Y-5875000I-20000J0D01*
G01*
X10210000Y-6440000D02*
G75*
G03*
X10210000Y-6440000I-20000J0D01*
G01*
X10217938Y-5416916D02*
G75*
G03*
X10217938Y-5416916I-20000J0D01*
G01*
X10273500Y-5500000D02*
G75*
G03*
X10273500Y-5500000I-20000J0D01*
G01*
X10323500Y-4960000D02*
G75*
G03*
X10323500Y-4960000I-20000J0D01*
G01*
X10665000Y-5875000D02*
G75*
G03*
X10665000Y-5875000I-20000J0D01*
G01*
X10763500Y-4500000D02*
G75*
G03*
X10763500Y-4500000I-20000J0D01*
G01*
X10993500Y-4980000D02*
G75*
G03*
X10993500Y-4980000I-20000J0D01*
G01*
X11040000Y-5860000D02*
G75*
G03*
X11040000Y-5860000I-20000J0D01*
G01*
X11083500Y-4920000D02*
G75*
G03*
X11083500Y-4920000I-20000J0D01*
G01*
X11173500Y-4830000D02*
G75*
G03*
X11173500Y-4830000I-20000J0D01*
G01*
X11173500Y-5100000D02*
G75*
G03*
X11173500Y-5100000I-20000J0D01*
G01*
X11253500Y-5210000D02*
G75*
G03*
X11253500Y-5210000I-20000J0D01*
G01*
X11263500Y-4720000D02*
G75*
G03*
X11263500Y-4720000I-20000J0D01*
G01*
X11520000Y-6275000D02*
G75*
G03*
X11520000Y-6275000I-20000J0D01*
G01*
X15235000Y-7348750D02*
G75*
G03*
X15235000Y-7348750I-20000J0D01*
G01*
X15275000Y-7848750D02*
G75*
G03*
X15275000Y-7848750I-20000J0D01*
G01*
X15315000Y-8488750D02*
G75*
G03*
X15315000Y-8488750I-20000J0D01*
G01*
X15415000Y-8168750D02*
G75*
G03*
X15415000Y-8168750I-20000J0D01*
G01*
X15515000Y-8068750D02*
G75*
G03*
X15515000Y-8068750I-20000J0D01*
G01*
D14*
X11099500Y-6971900D02*
X11099500Y-7048100D01*
X11061400Y-7010000D02*
X11137600Y-7010000D01*
X11353500Y-6971900D02*
X11353500Y-7048100D01*
X11315400Y-7010000D02*
X11391600Y-7010000D01*
X11607500Y-6971900D02*
X11607500Y-7048100D01*
X11569400Y-7010000D02*
X11645600Y-7010000D01*
D15*
X5551785Y-4518285D02*
X5551785Y-4461716D01*
X5495216Y-4461716D01*
X5495216Y-4518285D01*
X5551785Y-4518285D01*
X5551785Y-4868285D02*
X5551785Y-4811716D01*
X5495216Y-4811716D01*
X5495216Y-4868285D01*
X5551785Y-4868285D01*
X6451784Y-4498285D02*
X6451784Y-4441716D01*
X6395215Y-4441716D01*
X6395215Y-4498285D01*
X6451784Y-4498285D01*
X6451784Y-4748285D02*
X6451784Y-4691716D01*
X6395215Y-4691716D01*
X6395215Y-4748285D01*
X6451784Y-4748285D01*
X11525784Y-4433285D02*
X11525784Y-4376716D01*
X11469215Y-4376716D01*
X11469215Y-4433285D01*
X11525784Y-4433285D01*
D11*
X11537500Y-4365000D02*
X11457500Y-4365000D01*
X11457500Y-4365000D02*
G75*
G03*
X11457500Y-4445000I0J-40000D01*
G01*
X11457500Y-4445000D02*
X11537500Y-4445000D01*
X11537500Y-4445000D02*
G75*
G03*
X11537500Y-4365000I0J40000D01*
G01*
D15*
X11525784Y-5553285D02*
X11525784Y-5496716D01*
X11469215Y-5496716D01*
X11469215Y-5553285D01*
X11525784Y-5553285D01*
D11*
X11537500Y-5485000D02*
X11457500Y-5485000D01*
X11457500Y-5485000D02*
G75*
G03*
X11457500Y-5565000I0J-40000D01*
G01*
X11457500Y-5565000D02*
X11537500Y-5565000D01*
X11537500Y-5565000D02*
G75*
G03*
X11537500Y-5485000I0J40000D01*
G01*
D15*
X11918284Y-4433285D02*
X11918284Y-4376716D01*
X11861715Y-4376716D01*
X11861715Y-4433285D01*
X11918284Y-4433285D01*
D11*
X11950000Y-4365000D02*
X11830000Y-4365000D01*
X11830000Y-4365000D02*
G75*
G03*
X11830000Y-4445000I0J-40000D01*
G01*
X11830000Y-4445000D02*
X11950000Y-4445000D01*
X11950000Y-4445000D02*
G75*
G03*
X11950000Y-4365000I0J40000D01*
G01*
D15*
X11918284Y-5553285D02*
X11918284Y-5496716D01*
X11861715Y-5496716D01*
X11861715Y-5553285D01*
X11918284Y-5553285D01*
D11*
X11950000Y-5485000D02*
X11830000Y-5485000D01*
X11830000Y-5485000D02*
G75*
G03*
X11830000Y-5565000I0J-40000D01*
G01*
X11830000Y-5565000D02*
X11950000Y-5565000D01*
X11950000Y-5565000D02*
G75*
G03*
X11950000Y-5485000I0J40000D01*
G01*
D15*
X15683284Y-6348797D02*
X15683284Y-6292228D01*
X15626715Y-6292228D01*
X15626715Y-6348797D01*
X15683284Y-6348797D01*
X15683284Y-6598797D02*
X15683284Y-6542228D01*
X15626715Y-6542228D01*
X15626715Y-6598797D01*
X15683284Y-6598797D01*
D16*
X15607500Y-7033750D02*
X15652500Y-6988750D01*
X15607500Y-6943750D01*
X15562500Y-6988750D01*
X15607500Y-7033750D01*
X15861500Y-7033750D02*
X15906500Y-6988750D01*
X15861500Y-6943750D01*
X15816500Y-6988750D01*
X15861500Y-7033750D01*
D17*
X5252500Y-7232500D02*
X5347500Y-7327500D01*
X5347500Y-7232500D02*
X5252500Y-7327500D01*
X5347500Y-7280000D02*
G75*
G03*
X5347500Y-7280000I-47500J0D01*
G01*
X5502500Y-7232500D02*
X5597500Y-7327500D01*
X5597500Y-7232500D02*
X5502500Y-7327500D01*
X5597500Y-7280000D02*
G75*
G03*
X5597500Y-7280000I-47500J0D01*
G01*
X5752500Y-7232500D02*
X5847500Y-7327500D01*
X5847500Y-7232500D02*
X5752500Y-7327500D01*
X5847500Y-7280000D02*
G75*
G03*
X5847500Y-7280000I-47500J0D01*
G01*
X6002500Y-7232500D02*
X6097500Y-7327500D01*
X6097500Y-7232500D02*
X6002500Y-7327500D01*
X6097500Y-7280000D02*
G75*
G03*
X6097500Y-7280000I-47500J0D01*
G01*
X17207500Y-7521250D02*
X17302500Y-7616250D01*
X17302500Y-7521250D02*
X17207500Y-7616250D01*
X17302500Y-7568750D02*
G75*
G03*
X17302500Y-7568750I-47500J0D01*
G01*
X17207500Y-7771250D02*
X17302500Y-7866250D01*
X17302500Y-7771250D02*
X17207500Y-7866250D01*
X17302500Y-7818750D02*
G75*
G03*
X17302500Y-7818750I-47500J0D01*
G01*
X17207500Y-8021250D02*
X17302500Y-8116250D01*
X17302500Y-8021250D02*
X17207500Y-8116250D01*
X17302500Y-8068750D02*
G75*
G03*
X17302500Y-8068750I-47500J0D01*
G01*
X17207500Y-8271250D02*
X17302500Y-8366250D01*
X17302500Y-8271250D02*
X17207500Y-8366250D01*
X17302500Y-8318750D02*
G75*
G03*
X17302500Y-8318750I-47500J0D01*
G01*
X17207500Y-8521250D02*
X17302500Y-8616250D01*
X17302500Y-8521250D02*
X17207500Y-8616250D01*
X17302500Y-8568750D02*
G75*
G03*
X17302500Y-8568750I-47500J0D01*
G01*
D10*
X4406000Y-7847500D02*
X4506000Y-7947500D01*
X4506000Y-7847500D02*
X4406000Y-7947500D01*
X4456000Y-7847500D02*
X4456000Y-7947500D01*
X4406000Y-7897500D02*
X4506000Y-7897500D01*
X4406000Y-9117500D02*
X4506000Y-9217500D01*
X4506000Y-9117500D02*
X4406000Y-9217500D01*
X4456000Y-9117500D02*
X4456000Y-9217500D01*
X4406000Y-9167500D02*
X4506000Y-9167500D01*
X4606000Y-4475000D02*
X4706000Y-4575000D01*
X4706000Y-4475000D02*
X4606000Y-4575000D01*
X4656000Y-4475000D02*
X4656000Y-4575000D01*
X4606000Y-4525000D02*
X4706000Y-4525000D01*
X4606000Y-4725000D02*
X4706000Y-4825000D01*
X4706000Y-4725000D02*
X4606000Y-4825000D01*
X4656000Y-4725000D02*
X4656000Y-4825000D01*
X4606000Y-4775000D02*
X4706000Y-4775000D01*
X4660000Y-7847500D02*
X4760000Y-7947500D01*
X4760000Y-7847500D02*
X4660000Y-7947500D01*
X4710000Y-7847500D02*
X4710000Y-7947500D01*
X4660000Y-7897500D02*
X4760000Y-7897500D01*
X4660000Y-9117500D02*
X4760000Y-9217500D01*
X4760000Y-9117500D02*
X4660000Y-9217500D01*
X4710000Y-9117500D02*
X4710000Y-9217500D01*
X4660000Y-9167500D02*
X4760000Y-9167500D01*
X4914000Y-7847500D02*
X5014000Y-7947500D01*
X5014000Y-7847500D02*
X4914000Y-7947500D01*
X4964000Y-7847500D02*
X4964000Y-7947500D01*
X4914000Y-7897500D02*
X5014000Y-7897500D01*
X4914000Y-9117500D02*
X5014000Y-9217500D01*
X5014000Y-9117500D02*
X4914000Y-9217500D01*
X4964000Y-9117500D02*
X4964000Y-9217500D01*
X4914000Y-9167500D02*
X5014000Y-9167500D01*
X5168000Y-7847500D02*
X5268000Y-7947500D01*
X5268000Y-7847500D02*
X5168000Y-7947500D01*
X5218000Y-7847500D02*
X5218000Y-7947500D01*
X5168000Y-7897500D02*
X5268000Y-7897500D01*
X5168000Y-9117500D02*
X5268000Y-9217500D01*
X5268000Y-9117500D02*
X5168000Y-9217500D01*
X5218000Y-9117500D02*
X5218000Y-9217500D01*
X5168000Y-9167500D02*
X5268000Y-9167500D01*
X5422000Y-7847500D02*
X5522000Y-7947500D01*
X5522000Y-7847500D02*
X5422000Y-7947500D01*
X5472000Y-7847500D02*
X5472000Y-7947500D01*
X5422000Y-7897500D02*
X5522000Y-7897500D01*
X5422000Y-9117500D02*
X5522000Y-9217500D01*
X5522000Y-9117500D02*
X5422000Y-9217500D01*
X5472000Y-9117500D02*
X5472000Y-9217500D01*
X5422000Y-9167500D02*
X5522000Y-9167500D01*
X5676000Y-7847500D02*
X5776000Y-7947500D01*
X5776000Y-7847500D02*
X5676000Y-7947500D01*
X5726000Y-7847500D02*
X5726000Y-7947500D01*
X5676000Y-7897500D02*
X5776000Y-7897500D01*
X5676000Y-9117500D02*
X5776000Y-9217500D01*
X5776000Y-9117500D02*
X5676000Y-9217500D01*
X5726000Y-9117500D02*
X5726000Y-9217500D01*
X5676000Y-9167500D02*
X5776000Y-9167500D01*
X5930000Y-7847500D02*
X6030000Y-7947500D01*
X6030000Y-7847500D02*
X5930000Y-7947500D01*
X5980000Y-7847500D02*
X5980000Y-7947500D01*
X5930000Y-7897500D02*
X6030000Y-7897500D01*
X5930000Y-9117500D02*
X6030000Y-9217500D01*
X6030000Y-9117500D02*
X5930000Y-9217500D01*
X5980000Y-9117500D02*
X5980000Y-9217500D01*
X5930000Y-9167500D02*
X6030000Y-9167500D01*
X5961000Y-5735000D02*
X6061000Y-5835000D01*
X6061000Y-5735000D02*
X5961000Y-5835000D01*
X6011000Y-5735000D02*
X6011000Y-5835000D01*
X5961000Y-5785000D02*
X6061000Y-5785000D01*
X5961000Y-5985000D02*
X6061000Y-6085000D01*
X6061000Y-5985000D02*
X5961000Y-6085000D01*
X6011000Y-5985000D02*
X6011000Y-6085000D01*
X5961000Y-6035000D02*
X6061000Y-6035000D01*
X6184000Y-7847500D02*
X6284000Y-7947500D01*
X6284000Y-7847500D02*
X6184000Y-7947500D01*
X6234000Y-7847500D02*
X6234000Y-7947500D01*
X6184000Y-7897500D02*
X6284000Y-7897500D01*
X6184000Y-9117500D02*
X6284000Y-9217500D01*
X6284000Y-9117500D02*
X6184000Y-9217500D01*
X6234000Y-9117500D02*
X6234000Y-9217500D01*
X6184000Y-9167500D02*
X6284000Y-9167500D01*
X8811500Y-9040000D02*
X8911500Y-9140000D01*
X8911500Y-9040000D02*
X8811500Y-9140000D01*
X8861500Y-9040000D02*
X8861500Y-9140000D01*
X8811500Y-9090000D02*
X8911500Y-9090000D01*
X8818000Y-8300000D02*
X8918000Y-8400000D01*
X8918000Y-8300000D02*
X8818000Y-8400000D01*
X8868000Y-8300000D02*
X8868000Y-8400000D01*
X8818000Y-8350000D02*
X8918000Y-8350000D01*
X9065500Y-9040000D02*
X9165500Y-9140000D01*
X9165500Y-9040000D02*
X9065500Y-9140000D01*
X9115500Y-9040000D02*
X9115500Y-9140000D01*
X9065500Y-9090000D02*
X9165500Y-9090000D01*
X9072000Y-8300000D02*
X9172000Y-8400000D01*
X9172000Y-8300000D02*
X9072000Y-8400000D01*
X9122000Y-8300000D02*
X9122000Y-8400000D01*
X9072000Y-8350000D02*
X9172000Y-8350000D01*
X9305000Y-6930000D02*
X9405000Y-7030000D01*
X9405000Y-6930000D02*
X9305000Y-7030000D01*
X9355000Y-6930000D02*
X9355000Y-7030000D01*
X9305000Y-6980000D02*
X9405000Y-6980000D01*
X9319500Y-9040000D02*
X9419500Y-9140000D01*
X9419500Y-9040000D02*
X9319500Y-9140000D01*
X9369500Y-9040000D02*
X9369500Y-9140000D01*
X9319500Y-9090000D02*
X9419500Y-9090000D01*
X9326000Y-8300000D02*
X9426000Y-8400000D01*
X9426000Y-8300000D02*
X9326000Y-8400000D01*
X9376000Y-8300000D02*
X9376000Y-8400000D01*
X9326000Y-8350000D02*
X9426000Y-8350000D01*
X9555000Y-6930000D02*
X9655000Y-7030000D01*
X9655000Y-6930000D02*
X9555000Y-7030000D01*
X9605000Y-6930000D02*
X9605000Y-7030000D01*
X9555000Y-6980000D02*
X9655000Y-6980000D01*
X9573500Y-9040000D02*
X9673500Y-9140000D01*
X9673500Y-9040000D02*
X9573500Y-9140000D01*
X9623500Y-9040000D02*
X9623500Y-9140000D01*
X9573500Y-9090000D02*
X9673500Y-9090000D01*
X9580000Y-8300000D02*
X9680000Y-8400000D01*
X9680000Y-8300000D02*
X9580000Y-8400000D01*
X9630000Y-8300000D02*
X9630000Y-8400000D01*
X9580000Y-8350000D02*
X9680000Y-8350000D01*
X11469500Y-9040000D02*
X11569500Y-9140000D01*
X11569500Y-9040000D02*
X11469500Y-9140000D01*
X11519500Y-9040000D02*
X11519500Y-9140000D01*
X11469500Y-9090000D02*
X11569500Y-9090000D01*
X11476000Y-8300000D02*
X11576000Y-8400000D01*
X11576000Y-8300000D02*
X11476000Y-8400000D01*
X11526000Y-8300000D02*
X11526000Y-8400000D01*
X11476000Y-8350000D02*
X11576000Y-8350000D01*
X11723500Y-9040000D02*
X11823500Y-9140000D01*
X11823500Y-9040000D02*
X11723500Y-9140000D01*
X11773500Y-9040000D02*
X11773500Y-9140000D01*
X11723500Y-9090000D02*
X11823500Y-9090000D01*
X11730000Y-8300000D02*
X11830000Y-8400000D01*
X11830000Y-8300000D02*
X11730000Y-8400000D01*
X11780000Y-8300000D02*
X11780000Y-8400000D01*
X11730000Y-8350000D02*
X11830000Y-8350000D01*
X14865000Y-6268750D02*
X14965000Y-6368750D01*
X14965000Y-6268750D02*
X14865000Y-6368750D01*
X14915000Y-6268750D02*
X14915000Y-6368750D01*
X14865000Y-6318750D02*
X14965000Y-6318750D01*
X14865000Y-6518750D02*
X14965000Y-6618750D01*
X14965000Y-6518750D02*
X14865000Y-6618750D01*
X14915000Y-6518750D02*
X14915000Y-6618750D01*
X14865000Y-6568750D02*
X14965000Y-6568750D01*
X16855000Y-6204750D02*
X16955000Y-6304750D01*
X16955000Y-6204750D02*
X16855000Y-6304750D01*
X16905000Y-6204750D02*
X16905000Y-6304750D01*
X16855000Y-6254750D02*
X16955000Y-6254750D01*
X17105000Y-6704750D02*
X17205000Y-6804750D01*
X17205000Y-6704750D02*
X17105000Y-6804750D01*
X17155000Y-6704750D02*
X17155000Y-6804750D01*
X17105000Y-6754750D02*
X17205000Y-6754750D01*
X17355000Y-6204750D02*
X17455000Y-6304750D01*
X17455000Y-6204750D02*
X17355000Y-6304750D01*
X17405000Y-6204750D02*
X17405000Y-6304750D01*
X17355000Y-6254750D02*
X17455000Y-6254750D01*
D18*
X6953500Y-4417500D02*
X7073500Y-4537500D01*
X7073500Y-4417500D02*
X6953500Y-4537500D01*
X7055927Y-4519927D02*
X7055927Y-4435073D01*
X6971073Y-4435073D01*
X6971073Y-4519927D01*
X7055927Y-4519927D01*
X6953500Y-5067500D02*
X7073500Y-5187500D01*
X7073500Y-5067500D02*
X6953500Y-5187500D01*
X7055927Y-5169927D02*
X7055927Y-5085073D01*
X6971073Y-5085073D01*
X6971073Y-5169927D01*
X7055927Y-5169927D01*
X6953500Y-5415000D02*
X7073500Y-5535000D01*
X7073500Y-5415000D02*
X6953500Y-5535000D01*
X7055927Y-5517427D02*
X7055927Y-5432573D01*
X6971073Y-5432573D01*
X6971073Y-5517427D01*
X7055927Y-5517427D01*
X6953500Y-6065000D02*
X7073500Y-6185000D01*
X7073500Y-6065000D02*
X6953500Y-6185000D01*
X7055927Y-6167427D02*
X7055927Y-6082573D01*
X6971073Y-6082573D01*
X6971073Y-6167427D01*
X7055927Y-6167427D01*
D19*
X16415000Y-6251500D02*
X16575000Y-6411500D01*
X16575000Y-6251500D02*
X16415000Y-6411500D01*
X16495000Y-6411500D02*
X16575000Y-6331500D01*
X16495000Y-6251500D01*
X16415000Y-6331500D01*
X16495000Y-6411500D01*
X16415000Y-6632500D02*
X16575000Y-6792500D01*
X16575000Y-6632500D02*
X16415000Y-6792500D01*
X16495000Y-6792500D02*
X16575000Y-6712500D01*
X16495000Y-6632500D01*
X16415000Y-6712500D01*
X16495000Y-6792500D01*
D11*
X11900000Y-7600000D02*
X11900000Y-7800000D01*
X11800000Y-7700000D02*
X12000000Y-7700000D01*
X12000000Y-7700000D02*
G75*
G03*
X12000000Y-7700000I-100000J0D01*
G01*
X14755000Y-7008750D02*
X14755000Y-7208750D01*
X14655000Y-7108750D02*
X14855000Y-7108750D01*
X14855000Y-7108750D02*
G75*
G03*
X14855000Y-7108750I-100000J0D01*
G01*
X4455777Y-9716484D02*
X4455777Y-9516484D01*
X4455777Y-9516484D02*
X4503396Y-9516484D01*
X4503396Y-9516484D02*
X4531967Y-9526008D01*
X4531967Y-9526008D02*
X4551015Y-9545055D01*
X4551015Y-9545055D02*
X4560539Y-9564103D01*
X4560539Y-9564103D02*
X4570063Y-9602198D01*
X4570063Y-9602198D02*
X4570063Y-9630770D01*
X4570063Y-9630770D02*
X4560539Y-9668865D01*
X4560539Y-9668865D02*
X4551015Y-9687912D01*
X4551015Y-9687912D02*
X4531967Y-9706960D01*
X4531967Y-9706960D02*
X4503396Y-9716484D01*
X4503396Y-9716484D02*
X4455777Y-9716484D01*
X4655777Y-9716484D02*
X4655777Y-9583150D01*
X4655777Y-9621246D02*
X4665301Y-9602198D01*
X4665301Y-9602198D02*
X4674824Y-9592674D01*
X4674824Y-9592674D02*
X4693872Y-9583150D01*
X4693872Y-9583150D02*
X4712920Y-9583150D01*
X4779586Y-9716484D02*
X4779586Y-9583150D01*
X4779586Y-9516484D02*
X4770063Y-9526008D01*
X4770063Y-9526008D02*
X4779586Y-9535531D01*
X4779586Y-9535531D02*
X4789110Y-9526008D01*
X4789110Y-9526008D02*
X4779586Y-9516484D01*
X4779586Y-9516484D02*
X4779586Y-9535531D01*
X4903396Y-9716484D02*
X4884348Y-9706960D01*
X4884348Y-9706960D02*
X4874824Y-9687912D01*
X4874824Y-9687912D02*
X4874824Y-9516484D01*
X5008158Y-9716484D02*
X4989110Y-9706960D01*
X4989110Y-9706960D02*
X4979586Y-9687912D01*
X4979586Y-9687912D02*
X4979586Y-9516484D01*
X5236729Y-9716484D02*
X5236729Y-9516484D01*
X5236729Y-9516484D02*
X5303396Y-9659341D01*
X5303396Y-9659341D02*
X5370063Y-9516484D01*
X5370063Y-9516484D02*
X5370063Y-9716484D01*
X5551015Y-9716484D02*
X5551015Y-9611722D01*
X5551015Y-9611722D02*
X5541491Y-9592674D01*
X5541491Y-9592674D02*
X5522444Y-9583150D01*
X5522444Y-9583150D02*
X5484348Y-9583150D01*
X5484348Y-9583150D02*
X5465301Y-9592674D01*
X5551015Y-9706960D02*
X5531967Y-9716484D01*
X5531967Y-9716484D02*
X5484348Y-9716484D01*
X5484348Y-9716484D02*
X5465301Y-9706960D01*
X5465301Y-9706960D02*
X5455777Y-9687912D01*
X5455777Y-9687912D02*
X5455777Y-9668865D01*
X5455777Y-9668865D02*
X5465301Y-9649817D01*
X5465301Y-9649817D02*
X5484348Y-9640293D01*
X5484348Y-9640293D02*
X5531967Y-9640293D01*
X5531967Y-9640293D02*
X5551015Y-9630770D01*
X5646253Y-9583150D02*
X5646253Y-9783150D01*
X5646253Y-9592674D02*
X5665301Y-9583150D01*
X5665301Y-9583150D02*
X5703396Y-9583150D01*
X5703396Y-9583150D02*
X5722443Y-9592674D01*
X5722443Y-9592674D02*
X5731967Y-9602198D01*
X5731967Y-9602198D02*
X5741491Y-9621246D01*
X5741491Y-9621246D02*
X5741491Y-9678389D01*
X5741491Y-9678389D02*
X5731967Y-9697436D01*
X5731967Y-9697436D02*
X5722443Y-9706960D01*
X5722443Y-9706960D02*
X5703396Y-9716484D01*
X5703396Y-9716484D02*
X5665301Y-9716484D01*
X5665301Y-9716484D02*
X5646253Y-9706960D01*
X5827205Y-9697436D02*
X5836729Y-9706960D01*
X5836729Y-9706960D02*
X5827205Y-9716484D01*
X5827205Y-9716484D02*
X5817682Y-9706960D01*
X5817682Y-9706960D02*
X5827205Y-9697436D01*
X5827205Y-9697436D02*
X5827205Y-9716484D01*
X5827205Y-9592674D02*
X5836729Y-9602198D01*
X5836729Y-9602198D02*
X5827205Y-9611722D01*
X5827205Y-9611722D02*
X5817682Y-9602198D01*
X5817682Y-9602198D02*
X5827205Y-9592674D01*
X5827205Y-9592674D02*
X5827205Y-9611722D01*
D12*
X4175000Y-10035000D02*
X4195000Y-10055000D01*
X4195000Y-10035000D02*
X4175000Y-10055000D01*
D11*
X4493872Y-9936484D02*
X4512920Y-9936484D01*
X4512920Y-9936484D02*
X4531967Y-9946008D01*
X4531967Y-9946008D02*
X4541491Y-9955531D01*
X4541491Y-9955531D02*
X4551015Y-9974579D01*
X4551015Y-9974579D02*
X4560539Y-10012674D01*
X4560539Y-10012674D02*
X4560539Y-10060293D01*
X4560539Y-10060293D02*
X4551015Y-10098389D01*
X4551015Y-10098389D02*
X4541491Y-10117436D01*
X4541491Y-10117436D02*
X4531967Y-10126960D01*
X4531967Y-10126960D02*
X4512920Y-10136484D01*
X4512920Y-10136484D02*
X4493872Y-10136484D01*
X4493872Y-10136484D02*
X4474824Y-10126960D01*
X4474824Y-10126960D02*
X4465301Y-10117436D01*
X4465301Y-10117436D02*
X4455777Y-10098389D01*
X4455777Y-10098389D02*
X4446253Y-10060293D01*
X4446253Y-10060293D02*
X4446253Y-10012674D01*
X4446253Y-10012674D02*
X4455777Y-9974579D01*
X4455777Y-9974579D02*
X4465301Y-9955531D01*
X4465301Y-9955531D02*
X4474824Y-9946008D01*
X4474824Y-9946008D02*
X4493872Y-9936484D01*
X4646253Y-10117436D02*
X4655777Y-10126960D01*
X4655777Y-10126960D02*
X4646253Y-10136484D01*
X4646253Y-10136484D02*
X4636729Y-10126960D01*
X4636729Y-10126960D02*
X4646253Y-10117436D01*
X4646253Y-10117436D02*
X4646253Y-10136484D01*
X4731967Y-9955531D02*
X4741491Y-9946008D01*
X4741491Y-9946008D02*
X4760539Y-9936484D01*
X4760539Y-9936484D02*
X4808158Y-9936484D01*
X4808158Y-9936484D02*
X4827205Y-9946008D01*
X4827205Y-9946008D02*
X4836729Y-9955531D01*
X4836729Y-9955531D02*
X4846253Y-9974579D01*
X4846253Y-9974579D02*
X4846253Y-9993627D01*
X4846253Y-9993627D02*
X4836729Y-10022198D01*
X4836729Y-10022198D02*
X4722444Y-10136484D01*
X4722444Y-10136484D02*
X4846253Y-10136484D01*
X4970063Y-9936484D02*
X4989110Y-9936484D01*
X4989110Y-9936484D02*
X5008158Y-9946008D01*
X5008158Y-9946008D02*
X5017682Y-9955531D01*
X5017682Y-9955531D02*
X5027205Y-9974579D01*
X5027205Y-9974579D02*
X5036729Y-10012674D01*
X5036729Y-10012674D02*
X5036729Y-10060293D01*
X5036729Y-10060293D02*
X5027205Y-10098389D01*
X5027205Y-10098389D02*
X5017682Y-10117436D01*
X5017682Y-10117436D02*
X5008158Y-10126960D01*
X5008158Y-10126960D02*
X4989110Y-10136484D01*
X4989110Y-10136484D02*
X4970063Y-10136484D01*
X4970063Y-10136484D02*
X4951015Y-10126960D01*
X4951015Y-10126960D02*
X4941491Y-10117436D01*
X4941491Y-10117436D02*
X4931967Y-10098389D01*
X4931967Y-10098389D02*
X4922444Y-10060293D01*
X4922444Y-10060293D02*
X4922444Y-10012674D01*
X4922444Y-10012674D02*
X4931967Y-9974579D01*
X4931967Y-9974579D02*
X4941491Y-9955531D01*
X4941491Y-9955531D02*
X4951015Y-9946008D01*
X4951015Y-9946008D02*
X4970063Y-9936484D01*
X5160539Y-9936484D02*
X5179586Y-9936484D01*
X5179586Y-9936484D02*
X5198634Y-9946008D01*
X5198634Y-9946008D02*
X5208158Y-9955531D01*
X5208158Y-9955531D02*
X5217682Y-9974579D01*
X5217682Y-9974579D02*
X5227205Y-10012674D01*
X5227205Y-10012674D02*
X5227205Y-10060293D01*
X5227205Y-10060293D02*
X5217682Y-10098389D01*
X5217682Y-10098389D02*
X5208158Y-10117436D01*
X5208158Y-10117436D02*
X5198634Y-10126960D01*
X5198634Y-10126960D02*
X5179586Y-10136484D01*
X5179586Y-10136484D02*
X5160539Y-10136484D01*
X5160539Y-10136484D02*
X5141491Y-10126960D01*
X5141491Y-10126960D02*
X5131967Y-10117436D01*
X5131967Y-10117436D02*
X5122444Y-10098389D01*
X5122444Y-10098389D02*
X5112920Y-10060293D01*
X5112920Y-10060293D02*
X5112920Y-10012674D01*
X5112920Y-10012674D02*
X5122444Y-9974579D01*
X5122444Y-9974579D02*
X5131967Y-9955531D01*
X5131967Y-9955531D02*
X5141491Y-9946008D01*
X5141491Y-9946008D02*
X5160539Y-9936484D01*
X5312920Y-10136484D02*
X5312920Y-10003150D01*
X5312920Y-10022198D02*
X5322444Y-10012674D01*
X5322444Y-10012674D02*
X5341491Y-10003150D01*
X5341491Y-10003150D02*
X5370063Y-10003150D01*
X5370063Y-10003150D02*
X5389110Y-10012674D01*
X5389110Y-10012674D02*
X5398634Y-10031722D01*
X5398634Y-10031722D02*
X5398634Y-10136484D01*
X5398634Y-10031722D02*
X5408158Y-10012674D01*
X5408158Y-10012674D02*
X5427205Y-10003150D01*
X5427205Y-10003150D02*
X5455777Y-10003150D01*
X5455777Y-10003150D02*
X5474825Y-10012674D01*
X5474825Y-10012674D02*
X5484348Y-10031722D01*
X5484348Y-10031722D02*
X5484348Y-10136484D01*
X5579586Y-10136484D02*
X5579586Y-10003150D01*
X5579586Y-10022198D02*
X5589110Y-10012674D01*
X5589110Y-10012674D02*
X5608158Y-10003150D01*
X5608158Y-10003150D02*
X5636729Y-10003150D01*
X5636729Y-10003150D02*
X5655777Y-10012674D01*
X5655777Y-10012674D02*
X5665301Y-10031722D01*
X5665301Y-10031722D02*
X5665301Y-10136484D01*
X5665301Y-10031722D02*
X5674824Y-10012674D01*
X5674824Y-10012674D02*
X5693872Y-10003150D01*
X5693872Y-10003150D02*
X5722443Y-10003150D01*
X5722443Y-10003150D02*
X5741491Y-10012674D01*
X5741491Y-10012674D02*
X5751015Y-10031722D01*
X5751015Y-10031722D02*
X5751015Y-10136484D01*
X6141491Y-9926960D02*
X5970063Y-10184103D01*
X6398634Y-9936484D02*
X6417682Y-9936484D01*
X6417682Y-9936484D02*
X6436729Y-9946008D01*
X6436729Y-9946008D02*
X6446253Y-9955531D01*
X6446253Y-9955531D02*
X6455777Y-9974579D01*
X6455777Y-9974579D02*
X6465301Y-10012674D01*
X6465301Y-10012674D02*
X6465301Y-10060293D01*
X6465301Y-10060293D02*
X6455777Y-10098389D01*
X6455777Y-10098389D02*
X6446253Y-10117436D01*
X6446253Y-10117436D02*
X6436729Y-10126960D01*
X6436729Y-10126960D02*
X6417682Y-10136484D01*
X6417682Y-10136484D02*
X6398634Y-10136484D01*
X6398634Y-10136484D02*
X6379586Y-10126960D01*
X6379586Y-10126960D02*
X6370063Y-10117436D01*
X6370063Y-10117436D02*
X6360539Y-10098389D01*
X6360539Y-10098389D02*
X6351015Y-10060293D01*
X6351015Y-10060293D02*
X6351015Y-10012674D01*
X6351015Y-10012674D02*
X6360539Y-9974579D01*
X6360539Y-9974579D02*
X6370063Y-9955531D01*
X6370063Y-9955531D02*
X6379586Y-9946008D01*
X6379586Y-9946008D02*
X6398634Y-9936484D01*
X6551015Y-10117436D02*
X6560539Y-10126960D01*
X6560539Y-10126960D02*
X6551015Y-10136484D01*
X6551015Y-10136484D02*
X6541491Y-10126960D01*
X6541491Y-10126960D02*
X6551015Y-10117436D01*
X6551015Y-10117436D02*
X6551015Y-10136484D01*
X6684348Y-9936484D02*
X6703396Y-9936484D01*
X6703396Y-9936484D02*
X6722444Y-9946008D01*
X6722444Y-9946008D02*
X6731967Y-9955531D01*
X6731967Y-9955531D02*
X6741491Y-9974579D01*
X6741491Y-9974579D02*
X6751015Y-10012674D01*
X6751015Y-10012674D02*
X6751015Y-10060293D01*
X6751015Y-10060293D02*
X6741491Y-10098389D01*
X6741491Y-10098389D02*
X6731967Y-10117436D01*
X6731967Y-10117436D02*
X6722444Y-10126960D01*
X6722444Y-10126960D02*
X6703396Y-10136484D01*
X6703396Y-10136484D02*
X6684348Y-10136484D01*
X6684348Y-10136484D02*
X6665301Y-10126960D01*
X6665301Y-10126960D02*
X6655777Y-10117436D01*
X6655777Y-10117436D02*
X6646253Y-10098389D01*
X6646253Y-10098389D02*
X6636729Y-10060293D01*
X6636729Y-10060293D02*
X6636729Y-10012674D01*
X6636729Y-10012674D02*
X6646253Y-9974579D01*
X6646253Y-9974579D02*
X6655777Y-9955531D01*
X6655777Y-9955531D02*
X6665301Y-9946008D01*
X6665301Y-9946008D02*
X6684348Y-9936484D01*
X6874825Y-9936484D02*
X6893872Y-9936484D01*
X6893872Y-9936484D02*
X6912920Y-9946008D01*
X6912920Y-9946008D02*
X6922444Y-9955531D01*
X6922444Y-9955531D02*
X6931967Y-9974579D01*
X6931967Y-9974579D02*
X6941491Y-10012674D01*
X6941491Y-10012674D02*
X6941491Y-10060293D01*
X6941491Y-10060293D02*
X6931967Y-10098389D01*
X6931967Y-10098389D02*
X6922444Y-10117436D01*
X6922444Y-10117436D02*
X6912920Y-10126960D01*
X6912920Y-10126960D02*
X6893872Y-10136484D01*
X6893872Y-10136484D02*
X6874825Y-10136484D01*
X6874825Y-10136484D02*
X6855777Y-10126960D01*
X6855777Y-10126960D02*
X6846253Y-10117436D01*
X6846253Y-10117436D02*
X6836729Y-10098389D01*
X6836729Y-10098389D02*
X6827206Y-10060293D01*
X6827206Y-10060293D02*
X6827206Y-10012674D01*
X6827206Y-10012674D02*
X6836729Y-9974579D01*
X6836729Y-9974579D02*
X6846253Y-9955531D01*
X6846253Y-9955531D02*
X6855777Y-9946008D01*
X6855777Y-9946008D02*
X6874825Y-9936484D01*
X7008158Y-9936484D02*
X7141491Y-9936484D01*
X7141491Y-9936484D02*
X7055777Y-10136484D01*
X7227206Y-10136484D02*
X7265301Y-10136484D01*
X7265301Y-10136484D02*
X7284348Y-10126960D01*
X7284348Y-10126960D02*
X7293872Y-10117436D01*
X7293872Y-10117436D02*
X7312920Y-10088865D01*
X7312920Y-10088865D02*
X7322444Y-10050770D01*
X7322444Y-10050770D02*
X7322444Y-9974579D01*
X7322444Y-9974579D02*
X7312920Y-9955531D01*
X7312920Y-9955531D02*
X7303396Y-9946008D01*
X7303396Y-9946008D02*
X7284348Y-9936484D01*
X7284348Y-9936484D02*
X7246253Y-9936484D01*
X7246253Y-9936484D02*
X7227206Y-9946008D01*
X7227206Y-9946008D02*
X7217682Y-9955531D01*
X7217682Y-9955531D02*
X7208158Y-9974579D01*
X7208158Y-9974579D02*
X7208158Y-10022198D01*
X7208158Y-10022198D02*
X7217682Y-10041246D01*
X7217682Y-10041246D02*
X7227206Y-10050770D01*
X7227206Y-10050770D02*
X7246253Y-10060293D01*
X7246253Y-10060293D02*
X7284348Y-10060293D01*
X7284348Y-10060293D02*
X7303396Y-10050770D01*
X7303396Y-10050770D02*
X7312920Y-10041246D01*
X7312920Y-10041246D02*
X7322444Y-10022198D01*
X7398634Y-9936484D02*
X7398634Y-9974579D01*
X7474825Y-9936484D02*
X7474825Y-9974579D01*
X7770063Y-10212674D02*
X7760539Y-10203150D01*
X7760539Y-10203150D02*
X7741491Y-10174579D01*
X7741491Y-10174579D02*
X7731968Y-10155531D01*
X7731968Y-10155531D02*
X7722444Y-10126960D01*
X7722444Y-10126960D02*
X7712920Y-10079341D01*
X7712920Y-10079341D02*
X7712920Y-10041246D01*
X7712920Y-10041246D02*
X7722444Y-9993627D01*
X7722444Y-9993627D02*
X7731968Y-9965055D01*
X7731968Y-9965055D02*
X7741491Y-9946008D01*
X7741491Y-9946008D02*
X7760539Y-9917436D01*
X7760539Y-9917436D02*
X7770063Y-9907912D01*
X7951015Y-10136484D02*
X7836729Y-10136484D01*
X7893872Y-10136484D02*
X7893872Y-9936484D01*
X7893872Y-9936484D02*
X7874825Y-9965055D01*
X7874825Y-9965055D02*
X7855777Y-9984103D01*
X7855777Y-9984103D02*
X7836729Y-9993627D01*
X8027206Y-9955531D02*
X8036729Y-9946008D01*
X8036729Y-9946008D02*
X8055777Y-9936484D01*
X8055777Y-9936484D02*
X8103396Y-9936484D01*
X8103396Y-9936484D02*
X8122444Y-9946008D01*
X8122444Y-9946008D02*
X8131968Y-9955531D01*
X8131968Y-9955531D02*
X8141491Y-9974579D01*
X8141491Y-9974579D02*
X8141491Y-9993627D01*
X8141491Y-9993627D02*
X8131968Y-10022198D01*
X8131968Y-10022198D02*
X8017682Y-10136484D01*
X8017682Y-10136484D02*
X8141491Y-10136484D01*
X8379587Y-10136484D02*
X8379587Y-9936484D01*
X8465301Y-10136484D02*
X8465301Y-10031722D01*
X8465301Y-10031722D02*
X8455777Y-10012674D01*
X8455777Y-10012674D02*
X8436730Y-10003150D01*
X8436730Y-10003150D02*
X8408158Y-10003150D01*
X8408158Y-10003150D02*
X8389111Y-10012674D01*
X8389111Y-10012674D02*
X8379587Y-10022198D01*
X8589111Y-10136484D02*
X8570063Y-10126960D01*
X8570063Y-10126960D02*
X8560539Y-10117436D01*
X8560539Y-10117436D02*
X8551015Y-10098389D01*
X8551015Y-10098389D02*
X8551015Y-10041246D01*
X8551015Y-10041246D02*
X8560539Y-10022198D01*
X8560539Y-10022198D02*
X8570063Y-10012674D01*
X8570063Y-10012674D02*
X8589111Y-10003150D01*
X8589111Y-10003150D02*
X8617682Y-10003150D01*
X8617682Y-10003150D02*
X8636730Y-10012674D01*
X8636730Y-10012674D02*
X8646253Y-10022198D01*
X8646253Y-10022198D02*
X8655777Y-10041246D01*
X8655777Y-10041246D02*
X8655777Y-10098389D01*
X8655777Y-10098389D02*
X8646253Y-10117436D01*
X8646253Y-10117436D02*
X8636730Y-10126960D01*
X8636730Y-10126960D02*
X8617682Y-10136484D01*
X8617682Y-10136484D02*
X8589111Y-10136484D01*
X8770063Y-10136484D02*
X8751015Y-10126960D01*
X8751015Y-10126960D02*
X8741492Y-10107912D01*
X8741492Y-10107912D02*
X8741492Y-9936484D01*
X8922444Y-10126960D02*
X8903396Y-10136484D01*
X8903396Y-10136484D02*
X8865301Y-10136484D01*
X8865301Y-10136484D02*
X8846253Y-10126960D01*
X8846253Y-10126960D02*
X8836730Y-10107912D01*
X8836730Y-10107912D02*
X8836730Y-10031722D01*
X8836730Y-10031722D02*
X8846253Y-10012674D01*
X8846253Y-10012674D02*
X8865301Y-10003150D01*
X8865301Y-10003150D02*
X8903396Y-10003150D01*
X8903396Y-10003150D02*
X8922444Y-10012674D01*
X8922444Y-10012674D02*
X8931968Y-10031722D01*
X8931968Y-10031722D02*
X8931968Y-10050770D01*
X8931968Y-10050770D02*
X8836730Y-10069817D01*
X9008158Y-10126960D02*
X9027206Y-10136484D01*
X9027206Y-10136484D02*
X9065301Y-10136484D01*
X9065301Y-10136484D02*
X9084349Y-10126960D01*
X9084349Y-10126960D02*
X9093873Y-10107912D01*
X9093873Y-10107912D02*
X9093873Y-10098389D01*
X9093873Y-10098389D02*
X9084349Y-10079341D01*
X9084349Y-10079341D02*
X9065301Y-10069817D01*
X9065301Y-10069817D02*
X9036730Y-10069817D01*
X9036730Y-10069817D02*
X9017682Y-10060293D01*
X9017682Y-10060293D02*
X9008158Y-10041246D01*
X9008158Y-10041246D02*
X9008158Y-10031722D01*
X9008158Y-10031722D02*
X9017682Y-10012674D01*
X9017682Y-10012674D02*
X9036730Y-10003150D01*
X9036730Y-10003150D02*
X9065301Y-10003150D01*
X9065301Y-10003150D02*
X9084349Y-10012674D01*
X9160539Y-10212674D02*
X9170063Y-10203150D01*
X9170063Y-10203150D02*
X9189111Y-10174579D01*
X9189111Y-10174579D02*
X9198634Y-10155531D01*
X9198634Y-10155531D02*
X9208158Y-10126960D01*
X9208158Y-10126960D02*
X9217682Y-10079341D01*
X9217682Y-10079341D02*
X9217682Y-10041246D01*
X9217682Y-10041246D02*
X9208158Y-9993627D01*
X9208158Y-9993627D02*
X9198634Y-9965055D01*
X9198634Y-9965055D02*
X9189111Y-9946008D01*
X9189111Y-9946008D02*
X9170063Y-9917436D01*
X9170063Y-9917436D02*
X9160539Y-9907912D01*
D13*
X4195000Y-10309000D02*
G75*
G03*
X4195000Y-10309000I-20000J0D01*
G01*
D11*
X4493872Y-10200484D02*
X4512920Y-10200484D01*
X4512920Y-10200484D02*
X4531967Y-10210008D01*
X4531967Y-10210008D02*
X4541491Y-10219531D01*
X4541491Y-10219531D02*
X4551015Y-10238579D01*
X4551015Y-10238579D02*
X4560539Y-10276674D01*
X4560539Y-10276674D02*
X4560539Y-10324293D01*
X4560539Y-10324293D02*
X4551015Y-10362389D01*
X4551015Y-10362389D02*
X4541491Y-10381436D01*
X4541491Y-10381436D02*
X4531967Y-10390960D01*
X4531967Y-10390960D02*
X4512920Y-10400484D01*
X4512920Y-10400484D02*
X4493872Y-10400484D01*
X4493872Y-10400484D02*
X4474824Y-10390960D01*
X4474824Y-10390960D02*
X4465301Y-10381436D01*
X4465301Y-10381436D02*
X4455777Y-10362389D01*
X4455777Y-10362389D02*
X4446253Y-10324293D01*
X4446253Y-10324293D02*
X4446253Y-10276674D01*
X4446253Y-10276674D02*
X4455777Y-10238579D01*
X4455777Y-10238579D02*
X4465301Y-10219531D01*
X4465301Y-10219531D02*
X4474824Y-10210008D01*
X4474824Y-10210008D02*
X4493872Y-10200484D01*
X4646253Y-10381436D02*
X4655777Y-10390960D01*
X4655777Y-10390960D02*
X4646253Y-10400484D01*
X4646253Y-10400484D02*
X4636729Y-10390960D01*
X4636729Y-10390960D02*
X4646253Y-10381436D01*
X4646253Y-10381436D02*
X4646253Y-10400484D01*
X4827205Y-10267150D02*
X4827205Y-10400484D01*
X4779586Y-10190960D02*
X4731967Y-10333817D01*
X4731967Y-10333817D02*
X4855777Y-10333817D01*
X4970063Y-10200484D02*
X4989110Y-10200484D01*
X4989110Y-10200484D02*
X5008158Y-10210008D01*
X5008158Y-10210008D02*
X5017682Y-10219531D01*
X5017682Y-10219531D02*
X5027205Y-10238579D01*
X5027205Y-10238579D02*
X5036729Y-10276674D01*
X5036729Y-10276674D02*
X5036729Y-10324293D01*
X5036729Y-10324293D02*
X5027205Y-10362389D01*
X5027205Y-10362389D02*
X5017682Y-10381436D01*
X5017682Y-10381436D02*
X5008158Y-10390960D01*
X5008158Y-10390960D02*
X4989110Y-10400484D01*
X4989110Y-10400484D02*
X4970063Y-10400484D01*
X4970063Y-10400484D02*
X4951015Y-10390960D01*
X4951015Y-10390960D02*
X4941491Y-10381436D01*
X4941491Y-10381436D02*
X4931967Y-10362389D01*
X4931967Y-10362389D02*
X4922444Y-10324293D01*
X4922444Y-10324293D02*
X4922444Y-10276674D01*
X4922444Y-10276674D02*
X4931967Y-10238579D01*
X4931967Y-10238579D02*
X4941491Y-10219531D01*
X4941491Y-10219531D02*
X4951015Y-10210008D01*
X4951015Y-10210008D02*
X4970063Y-10200484D01*
X5160539Y-10200484D02*
X5179586Y-10200484D01*
X5179586Y-10200484D02*
X5198634Y-10210008D01*
X5198634Y-10210008D02*
X5208158Y-10219531D01*
X5208158Y-10219531D02*
X5217682Y-10238579D01*
X5217682Y-10238579D02*
X5227205Y-10276674D01*
X5227205Y-10276674D02*
X5227205Y-10324293D01*
X5227205Y-10324293D02*
X5217682Y-10362389D01*
X5217682Y-10362389D02*
X5208158Y-10381436D01*
X5208158Y-10381436D02*
X5198634Y-10390960D01*
X5198634Y-10390960D02*
X5179586Y-10400484D01*
X5179586Y-10400484D02*
X5160539Y-10400484D01*
X5160539Y-10400484D02*
X5141491Y-10390960D01*
X5141491Y-10390960D02*
X5131967Y-10381436D01*
X5131967Y-10381436D02*
X5122444Y-10362389D01*
X5122444Y-10362389D02*
X5112920Y-10324293D01*
X5112920Y-10324293D02*
X5112920Y-10276674D01*
X5112920Y-10276674D02*
X5122444Y-10238579D01*
X5122444Y-10238579D02*
X5131967Y-10219531D01*
X5131967Y-10219531D02*
X5141491Y-10210008D01*
X5141491Y-10210008D02*
X5160539Y-10200484D01*
X5312920Y-10400484D02*
X5312920Y-10267150D01*
X5312920Y-10286198D02*
X5322444Y-10276674D01*
X5322444Y-10276674D02*
X5341491Y-10267150D01*
X5341491Y-10267150D02*
X5370063Y-10267150D01*
X5370063Y-10267150D02*
X5389110Y-10276674D01*
X5389110Y-10276674D02*
X5398634Y-10295722D01*
X5398634Y-10295722D02*
X5398634Y-10400484D01*
X5398634Y-10295722D02*
X5408158Y-10276674D01*
X5408158Y-10276674D02*
X5427205Y-10267150D01*
X5427205Y-10267150D02*
X5455777Y-10267150D01*
X5455777Y-10267150D02*
X5474825Y-10276674D01*
X5474825Y-10276674D02*
X5484348Y-10295722D01*
X5484348Y-10295722D02*
X5484348Y-10400484D01*
X5579586Y-10400484D02*
X5579586Y-10267150D01*
X5579586Y-10286198D02*
X5589110Y-10276674D01*
X5589110Y-10276674D02*
X5608158Y-10267150D01*
X5608158Y-10267150D02*
X5636729Y-10267150D01*
X5636729Y-10267150D02*
X5655777Y-10276674D01*
X5655777Y-10276674D02*
X5665301Y-10295722D01*
X5665301Y-10295722D02*
X5665301Y-10400484D01*
X5665301Y-10295722D02*
X5674824Y-10276674D01*
X5674824Y-10276674D02*
X5693872Y-10267150D01*
X5693872Y-10267150D02*
X5722443Y-10267150D01*
X5722443Y-10267150D02*
X5741491Y-10276674D01*
X5741491Y-10276674D02*
X5751015Y-10295722D01*
X5751015Y-10295722D02*
X5751015Y-10400484D01*
X6141491Y-10190960D02*
X5970063Y-10448103D01*
X6398634Y-10200484D02*
X6417682Y-10200484D01*
X6417682Y-10200484D02*
X6436729Y-10210008D01*
X6436729Y-10210008D02*
X6446253Y-10219531D01*
X6446253Y-10219531D02*
X6455777Y-10238579D01*
X6455777Y-10238579D02*
X6465301Y-10276674D01*
X6465301Y-10276674D02*
X6465301Y-10324293D01*
X6465301Y-10324293D02*
X6455777Y-10362389D01*
X6455777Y-10362389D02*
X6446253Y-10381436D01*
X6446253Y-10381436D02*
X6436729Y-10390960D01*
X6436729Y-10390960D02*
X6417682Y-10400484D01*
X6417682Y-10400484D02*
X6398634Y-10400484D01*
X6398634Y-10400484D02*
X6379586Y-10390960D01*
X6379586Y-10390960D02*
X6370063Y-10381436D01*
X6370063Y-10381436D02*
X6360539Y-10362389D01*
X6360539Y-10362389D02*
X6351015Y-10324293D01*
X6351015Y-10324293D02*
X6351015Y-10276674D01*
X6351015Y-10276674D02*
X6360539Y-10238579D01*
X6360539Y-10238579D02*
X6370063Y-10219531D01*
X6370063Y-10219531D02*
X6379586Y-10210008D01*
X6379586Y-10210008D02*
X6398634Y-10200484D01*
X6551015Y-10381436D02*
X6560539Y-10390960D01*
X6560539Y-10390960D02*
X6551015Y-10400484D01*
X6551015Y-10400484D02*
X6541491Y-10390960D01*
X6541491Y-10390960D02*
X6551015Y-10381436D01*
X6551015Y-10381436D02*
X6551015Y-10400484D01*
X6684348Y-10200484D02*
X6703396Y-10200484D01*
X6703396Y-10200484D02*
X6722444Y-10210008D01*
X6722444Y-10210008D02*
X6731967Y-10219531D01*
X6731967Y-10219531D02*
X6741491Y-10238579D01*
X6741491Y-10238579D02*
X6751015Y-10276674D01*
X6751015Y-10276674D02*
X6751015Y-10324293D01*
X6751015Y-10324293D02*
X6741491Y-10362389D01*
X6741491Y-10362389D02*
X6731967Y-10381436D01*
X6731967Y-10381436D02*
X6722444Y-10390960D01*
X6722444Y-10390960D02*
X6703396Y-10400484D01*
X6703396Y-10400484D02*
X6684348Y-10400484D01*
X6684348Y-10400484D02*
X6665301Y-10390960D01*
X6665301Y-10390960D02*
X6655777Y-10381436D01*
X6655777Y-10381436D02*
X6646253Y-10362389D01*
X6646253Y-10362389D02*
X6636729Y-10324293D01*
X6636729Y-10324293D02*
X6636729Y-10276674D01*
X6636729Y-10276674D02*
X6646253Y-10238579D01*
X6646253Y-10238579D02*
X6655777Y-10219531D01*
X6655777Y-10219531D02*
X6665301Y-10210008D01*
X6665301Y-10210008D02*
X6684348Y-10200484D01*
X6941491Y-10400484D02*
X6827206Y-10400484D01*
X6884348Y-10400484D02*
X6884348Y-10200484D01*
X6884348Y-10200484D02*
X6865301Y-10229055D01*
X6865301Y-10229055D02*
X6846253Y-10248103D01*
X6846253Y-10248103D02*
X6827206Y-10257627D01*
X7122444Y-10200484D02*
X7027206Y-10200484D01*
X7027206Y-10200484D02*
X7017682Y-10295722D01*
X7017682Y-10295722D02*
X7027206Y-10286198D01*
X7027206Y-10286198D02*
X7046253Y-10276674D01*
X7046253Y-10276674D02*
X7093872Y-10276674D01*
X7093872Y-10276674D02*
X7112920Y-10286198D01*
X7112920Y-10286198D02*
X7122444Y-10295722D01*
X7122444Y-10295722D02*
X7131967Y-10314770D01*
X7131967Y-10314770D02*
X7131967Y-10362389D01*
X7131967Y-10362389D02*
X7122444Y-10381436D01*
X7122444Y-10381436D02*
X7112920Y-10390960D01*
X7112920Y-10390960D02*
X7093872Y-10400484D01*
X7093872Y-10400484D02*
X7046253Y-10400484D01*
X7046253Y-10400484D02*
X7027206Y-10390960D01*
X7027206Y-10390960D02*
X7017682Y-10381436D01*
X7198634Y-10200484D02*
X7331967Y-10200484D01*
X7331967Y-10200484D02*
X7246253Y-10400484D01*
X7398634Y-10200484D02*
X7398634Y-10238579D01*
X7474825Y-10200484D02*
X7474825Y-10238579D01*
X7770063Y-10476674D02*
X7760539Y-10467150D01*
X7760539Y-10467150D02*
X7741491Y-10438579D01*
X7741491Y-10438579D02*
X7731968Y-10419531D01*
X7731968Y-10419531D02*
X7722444Y-10390960D01*
X7722444Y-10390960D02*
X7712920Y-10343341D01*
X7712920Y-10343341D02*
X7712920Y-10305246D01*
X7712920Y-10305246D02*
X7722444Y-10257627D01*
X7722444Y-10257627D02*
X7731968Y-10229055D01*
X7731968Y-10229055D02*
X7741491Y-10210008D01*
X7741491Y-10210008D02*
X7760539Y-10181436D01*
X7760539Y-10181436D02*
X7770063Y-10171912D01*
X7827206Y-10200484D02*
X7951015Y-10200484D01*
X7951015Y-10200484D02*
X7884348Y-10276674D01*
X7884348Y-10276674D02*
X7912920Y-10276674D01*
X7912920Y-10276674D02*
X7931968Y-10286198D01*
X7931968Y-10286198D02*
X7941491Y-10295722D01*
X7941491Y-10295722D02*
X7951015Y-10314770D01*
X7951015Y-10314770D02*
X7951015Y-10362389D01*
X7951015Y-10362389D02*
X7941491Y-10381436D01*
X7941491Y-10381436D02*
X7931968Y-10390960D01*
X7931968Y-10390960D02*
X7912920Y-10400484D01*
X7912920Y-10400484D02*
X7855777Y-10400484D01*
X7855777Y-10400484D02*
X7836729Y-10390960D01*
X7836729Y-10390960D02*
X7827206Y-10381436D01*
X8046253Y-10400484D02*
X8084348Y-10400484D01*
X8084348Y-10400484D02*
X8103396Y-10390960D01*
X8103396Y-10390960D02*
X8112920Y-10381436D01*
X8112920Y-10381436D02*
X8131968Y-10352865D01*
X8131968Y-10352865D02*
X8141491Y-10314770D01*
X8141491Y-10314770D02*
X8141491Y-10238579D01*
X8141491Y-10238579D02*
X8131968Y-10219531D01*
X8131968Y-10219531D02*
X8122444Y-10210008D01*
X8122444Y-10210008D02*
X8103396Y-10200484D01*
X8103396Y-10200484D02*
X8065301Y-10200484D01*
X8065301Y-10200484D02*
X8046253Y-10210008D01*
X8046253Y-10210008D02*
X8036729Y-10219531D01*
X8036729Y-10219531D02*
X8027206Y-10238579D01*
X8027206Y-10238579D02*
X8027206Y-10286198D01*
X8027206Y-10286198D02*
X8036729Y-10305246D01*
X8036729Y-10305246D02*
X8046253Y-10314770D01*
X8046253Y-10314770D02*
X8065301Y-10324293D01*
X8065301Y-10324293D02*
X8103396Y-10324293D01*
X8103396Y-10324293D02*
X8122444Y-10314770D01*
X8122444Y-10314770D02*
X8131968Y-10305246D01*
X8131968Y-10305246D02*
X8141491Y-10286198D01*
X8379587Y-10400484D02*
X8379587Y-10200484D01*
X8465301Y-10400484D02*
X8465301Y-10295722D01*
X8465301Y-10295722D02*
X8455777Y-10276674D01*
X8455777Y-10276674D02*
X8436730Y-10267150D01*
X8436730Y-10267150D02*
X8408158Y-10267150D01*
X8408158Y-10267150D02*
X8389111Y-10276674D01*
X8389111Y-10276674D02*
X8379587Y-10286198D01*
X8589111Y-10400484D02*
X8570063Y-10390960D01*
X8570063Y-10390960D02*
X8560539Y-10381436D01*
X8560539Y-10381436D02*
X8551015Y-10362389D01*
X8551015Y-10362389D02*
X8551015Y-10305246D01*
X8551015Y-10305246D02*
X8560539Y-10286198D01*
X8560539Y-10286198D02*
X8570063Y-10276674D01*
X8570063Y-10276674D02*
X8589111Y-10267150D01*
X8589111Y-10267150D02*
X8617682Y-10267150D01*
X8617682Y-10267150D02*
X8636730Y-10276674D01*
X8636730Y-10276674D02*
X8646253Y-10286198D01*
X8646253Y-10286198D02*
X8655777Y-10305246D01*
X8655777Y-10305246D02*
X8655777Y-10362389D01*
X8655777Y-10362389D02*
X8646253Y-10381436D01*
X8646253Y-10381436D02*
X8636730Y-10390960D01*
X8636730Y-10390960D02*
X8617682Y-10400484D01*
X8617682Y-10400484D02*
X8589111Y-10400484D01*
X8770063Y-10400484D02*
X8751015Y-10390960D01*
X8751015Y-10390960D02*
X8741492Y-10371912D01*
X8741492Y-10371912D02*
X8741492Y-10200484D01*
X8922444Y-10390960D02*
X8903396Y-10400484D01*
X8903396Y-10400484D02*
X8865301Y-10400484D01*
X8865301Y-10400484D02*
X8846253Y-10390960D01*
X8846253Y-10390960D02*
X8836730Y-10371912D01*
X8836730Y-10371912D02*
X8836730Y-10295722D01*
X8836730Y-10295722D02*
X8846253Y-10276674D01*
X8846253Y-10276674D02*
X8865301Y-10267150D01*
X8865301Y-10267150D02*
X8903396Y-10267150D01*
X8903396Y-10267150D02*
X8922444Y-10276674D01*
X8922444Y-10276674D02*
X8931968Y-10295722D01*
X8931968Y-10295722D02*
X8931968Y-10314770D01*
X8931968Y-10314770D02*
X8836730Y-10333817D01*
X9008158Y-10390960D02*
X9027206Y-10400484D01*
X9027206Y-10400484D02*
X9065301Y-10400484D01*
X9065301Y-10400484D02*
X9084349Y-10390960D01*
X9084349Y-10390960D02*
X9093873Y-10371912D01*
X9093873Y-10371912D02*
X9093873Y-10362389D01*
X9093873Y-10362389D02*
X9084349Y-10343341D01*
X9084349Y-10343341D02*
X9065301Y-10333817D01*
X9065301Y-10333817D02*
X9036730Y-10333817D01*
X9036730Y-10333817D02*
X9017682Y-10324293D01*
X9017682Y-10324293D02*
X9008158Y-10305246D01*
X9008158Y-10305246D02*
X9008158Y-10295722D01*
X9008158Y-10295722D02*
X9017682Y-10276674D01*
X9017682Y-10276674D02*
X9036730Y-10267150D01*
X9036730Y-10267150D02*
X9065301Y-10267150D01*
X9065301Y-10267150D02*
X9084349Y-10276674D01*
X9160539Y-10476674D02*
X9170063Y-10467150D01*
X9170063Y-10467150D02*
X9189111Y-10438579D01*
X9189111Y-10438579D02*
X9198634Y-10419531D01*
X9198634Y-10419531D02*
X9208158Y-10390960D01*
X9208158Y-10390960D02*
X9217682Y-10343341D01*
X9217682Y-10343341D02*
X9217682Y-10305246D01*
X9217682Y-10305246D02*
X9208158Y-10257627D01*
X9208158Y-10257627D02*
X9198634Y-10229055D01*
X9198634Y-10229055D02*
X9189111Y-10210008D01*
X9189111Y-10210008D02*
X9170063Y-10181436D01*
X9170063Y-10181436D02*
X9160539Y-10171912D01*
D14*
X4156900Y-10534900D02*
X4156900Y-10611100D01*
X4118800Y-10573000D02*
X4195000Y-10573000D01*
D11*
X4493872Y-10464484D02*
X4512920Y-10464484D01*
X4512920Y-10464484D02*
X4531967Y-10474008D01*
X4531967Y-10474008D02*
X4541491Y-10483531D01*
X4541491Y-10483531D02*
X4551015Y-10502579D01*
X4551015Y-10502579D02*
X4560539Y-10540674D01*
X4560539Y-10540674D02*
X4560539Y-10588293D01*
X4560539Y-10588293D02*
X4551015Y-10626389D01*
X4551015Y-10626389D02*
X4541491Y-10645436D01*
X4541491Y-10645436D02*
X4531967Y-10654960D01*
X4531967Y-10654960D02*
X4512920Y-10664484D01*
X4512920Y-10664484D02*
X4493872Y-10664484D01*
X4493872Y-10664484D02*
X4474824Y-10654960D01*
X4474824Y-10654960D02*
X4465301Y-10645436D01*
X4465301Y-10645436D02*
X4455777Y-10626389D01*
X4455777Y-10626389D02*
X4446253Y-10588293D01*
X4446253Y-10588293D02*
X4446253Y-10540674D01*
X4446253Y-10540674D02*
X4455777Y-10502579D01*
X4455777Y-10502579D02*
X4465301Y-10483531D01*
X4465301Y-10483531D02*
X4474824Y-10474008D01*
X4474824Y-10474008D02*
X4493872Y-10464484D01*
X4646253Y-10645436D02*
X4655777Y-10654960D01*
X4655777Y-10654960D02*
X4646253Y-10664484D01*
X4646253Y-10664484D02*
X4636729Y-10654960D01*
X4636729Y-10654960D02*
X4646253Y-10645436D01*
X4646253Y-10645436D02*
X4646253Y-10664484D01*
X4722444Y-10464484D02*
X4855777Y-10464484D01*
X4855777Y-10464484D02*
X4770063Y-10664484D01*
X5017682Y-10464484D02*
X4979586Y-10464484D01*
X4979586Y-10464484D02*
X4960539Y-10474008D01*
X4960539Y-10474008D02*
X4951015Y-10483531D01*
X4951015Y-10483531D02*
X4931967Y-10512103D01*
X4931967Y-10512103D02*
X4922444Y-10550198D01*
X4922444Y-10550198D02*
X4922444Y-10626389D01*
X4922444Y-10626389D02*
X4931967Y-10645436D01*
X4931967Y-10645436D02*
X4941491Y-10654960D01*
X4941491Y-10654960D02*
X4960539Y-10664484D01*
X4960539Y-10664484D02*
X4998634Y-10664484D01*
X4998634Y-10664484D02*
X5017682Y-10654960D01*
X5017682Y-10654960D02*
X5027205Y-10645436D01*
X5027205Y-10645436D02*
X5036729Y-10626389D01*
X5036729Y-10626389D02*
X5036729Y-10578770D01*
X5036729Y-10578770D02*
X5027205Y-10559722D01*
X5027205Y-10559722D02*
X5017682Y-10550198D01*
X5017682Y-10550198D02*
X4998634Y-10540674D01*
X4998634Y-10540674D02*
X4960539Y-10540674D01*
X4960539Y-10540674D02*
X4941491Y-10550198D01*
X4941491Y-10550198D02*
X4931967Y-10559722D01*
X4931967Y-10559722D02*
X4922444Y-10578770D01*
X5112920Y-10483531D02*
X5122444Y-10474008D01*
X5122444Y-10474008D02*
X5141491Y-10464484D01*
X5141491Y-10464484D02*
X5189110Y-10464484D01*
X5189110Y-10464484D02*
X5208158Y-10474008D01*
X5208158Y-10474008D02*
X5217682Y-10483531D01*
X5217682Y-10483531D02*
X5227205Y-10502579D01*
X5227205Y-10502579D02*
X5227205Y-10521627D01*
X5227205Y-10521627D02*
X5217682Y-10550198D01*
X5217682Y-10550198D02*
X5103396Y-10664484D01*
X5103396Y-10664484D02*
X5227205Y-10664484D01*
X5312920Y-10664484D02*
X5312920Y-10531150D01*
X5312920Y-10550198D02*
X5322444Y-10540674D01*
X5322444Y-10540674D02*
X5341491Y-10531150D01*
X5341491Y-10531150D02*
X5370063Y-10531150D01*
X5370063Y-10531150D02*
X5389110Y-10540674D01*
X5389110Y-10540674D02*
X5398634Y-10559722D01*
X5398634Y-10559722D02*
X5398634Y-10664484D01*
X5398634Y-10559722D02*
X5408158Y-10540674D01*
X5408158Y-10540674D02*
X5427205Y-10531150D01*
X5427205Y-10531150D02*
X5455777Y-10531150D01*
X5455777Y-10531150D02*
X5474825Y-10540674D01*
X5474825Y-10540674D02*
X5484348Y-10559722D01*
X5484348Y-10559722D02*
X5484348Y-10664484D01*
X5579586Y-10664484D02*
X5579586Y-10531150D01*
X5579586Y-10550198D02*
X5589110Y-10540674D01*
X5589110Y-10540674D02*
X5608158Y-10531150D01*
X5608158Y-10531150D02*
X5636729Y-10531150D01*
X5636729Y-10531150D02*
X5655777Y-10540674D01*
X5655777Y-10540674D02*
X5665301Y-10559722D01*
X5665301Y-10559722D02*
X5665301Y-10664484D01*
X5665301Y-10559722D02*
X5674824Y-10540674D01*
X5674824Y-10540674D02*
X5693872Y-10531150D01*
X5693872Y-10531150D02*
X5722443Y-10531150D01*
X5722443Y-10531150D02*
X5741491Y-10540674D01*
X5741491Y-10540674D02*
X5751015Y-10559722D01*
X5751015Y-10559722D02*
X5751015Y-10664484D01*
X6141491Y-10454960D02*
X5970063Y-10712103D01*
X6398634Y-10464484D02*
X6417682Y-10464484D01*
X6417682Y-10464484D02*
X6436729Y-10474008D01*
X6436729Y-10474008D02*
X6446253Y-10483531D01*
X6446253Y-10483531D02*
X6455777Y-10502579D01*
X6455777Y-10502579D02*
X6465301Y-10540674D01*
X6465301Y-10540674D02*
X6465301Y-10588293D01*
X6465301Y-10588293D02*
X6455777Y-10626389D01*
X6455777Y-10626389D02*
X6446253Y-10645436D01*
X6446253Y-10645436D02*
X6436729Y-10654960D01*
X6436729Y-10654960D02*
X6417682Y-10664484D01*
X6417682Y-10664484D02*
X6398634Y-10664484D01*
X6398634Y-10664484D02*
X6379586Y-10654960D01*
X6379586Y-10654960D02*
X6370063Y-10645436D01*
X6370063Y-10645436D02*
X6360539Y-10626389D01*
X6360539Y-10626389D02*
X6351015Y-10588293D01*
X6351015Y-10588293D02*
X6351015Y-10540674D01*
X6351015Y-10540674D02*
X6360539Y-10502579D01*
X6360539Y-10502579D02*
X6370063Y-10483531D01*
X6370063Y-10483531D02*
X6379586Y-10474008D01*
X6379586Y-10474008D02*
X6398634Y-10464484D01*
X6551015Y-10645436D02*
X6560539Y-10654960D01*
X6560539Y-10654960D02*
X6551015Y-10664484D01*
X6551015Y-10664484D02*
X6541491Y-10654960D01*
X6541491Y-10654960D02*
X6551015Y-10645436D01*
X6551015Y-10645436D02*
X6551015Y-10664484D01*
X6684348Y-10464484D02*
X6703396Y-10464484D01*
X6703396Y-10464484D02*
X6722444Y-10474008D01*
X6722444Y-10474008D02*
X6731967Y-10483531D01*
X6731967Y-10483531D02*
X6741491Y-10502579D01*
X6741491Y-10502579D02*
X6751015Y-10540674D01*
X6751015Y-10540674D02*
X6751015Y-10588293D01*
X6751015Y-10588293D02*
X6741491Y-10626389D01*
X6741491Y-10626389D02*
X6731967Y-10645436D01*
X6731967Y-10645436D02*
X6722444Y-10654960D01*
X6722444Y-10654960D02*
X6703396Y-10664484D01*
X6703396Y-10664484D02*
X6684348Y-10664484D01*
X6684348Y-10664484D02*
X6665301Y-10654960D01*
X6665301Y-10654960D02*
X6655777Y-10645436D01*
X6655777Y-10645436D02*
X6646253Y-10626389D01*
X6646253Y-10626389D02*
X6636729Y-10588293D01*
X6636729Y-10588293D02*
X6636729Y-10540674D01*
X6636729Y-10540674D02*
X6646253Y-10502579D01*
X6646253Y-10502579D02*
X6655777Y-10483531D01*
X6655777Y-10483531D02*
X6665301Y-10474008D01*
X6665301Y-10474008D02*
X6684348Y-10464484D01*
X6817682Y-10464484D02*
X6941491Y-10464484D01*
X6941491Y-10464484D02*
X6874825Y-10540674D01*
X6874825Y-10540674D02*
X6903396Y-10540674D01*
X6903396Y-10540674D02*
X6922444Y-10550198D01*
X6922444Y-10550198D02*
X6931967Y-10559722D01*
X6931967Y-10559722D02*
X6941491Y-10578770D01*
X6941491Y-10578770D02*
X6941491Y-10626389D01*
X6941491Y-10626389D02*
X6931967Y-10645436D01*
X6931967Y-10645436D02*
X6922444Y-10654960D01*
X6922444Y-10654960D02*
X6903396Y-10664484D01*
X6903396Y-10664484D02*
X6846253Y-10664484D01*
X6846253Y-10664484D02*
X6827206Y-10654960D01*
X6827206Y-10654960D02*
X6817682Y-10645436D01*
X7065301Y-10464484D02*
X7084348Y-10464484D01*
X7084348Y-10464484D02*
X7103396Y-10474008D01*
X7103396Y-10474008D02*
X7112920Y-10483531D01*
X7112920Y-10483531D02*
X7122444Y-10502579D01*
X7122444Y-10502579D02*
X7131967Y-10540674D01*
X7131967Y-10540674D02*
X7131967Y-10588293D01*
X7131967Y-10588293D02*
X7122444Y-10626389D01*
X7122444Y-10626389D02*
X7112920Y-10645436D01*
X7112920Y-10645436D02*
X7103396Y-10654960D01*
X7103396Y-10654960D02*
X7084348Y-10664484D01*
X7084348Y-10664484D02*
X7065301Y-10664484D01*
X7065301Y-10664484D02*
X7046253Y-10654960D01*
X7046253Y-10654960D02*
X7036729Y-10645436D01*
X7036729Y-10645436D02*
X7027206Y-10626389D01*
X7027206Y-10626389D02*
X7017682Y-10588293D01*
X7017682Y-10588293D02*
X7017682Y-10540674D01*
X7017682Y-10540674D02*
X7027206Y-10502579D01*
X7027206Y-10502579D02*
X7036729Y-10483531D01*
X7036729Y-10483531D02*
X7046253Y-10474008D01*
X7046253Y-10474008D02*
X7065301Y-10464484D01*
X7255777Y-10464484D02*
X7274825Y-10464484D01*
X7274825Y-10464484D02*
X7293872Y-10474008D01*
X7293872Y-10474008D02*
X7303396Y-10483531D01*
X7303396Y-10483531D02*
X7312920Y-10502579D01*
X7312920Y-10502579D02*
X7322444Y-10540674D01*
X7322444Y-10540674D02*
X7322444Y-10588293D01*
X7322444Y-10588293D02*
X7312920Y-10626389D01*
X7312920Y-10626389D02*
X7303396Y-10645436D01*
X7303396Y-10645436D02*
X7293872Y-10654960D01*
X7293872Y-10654960D02*
X7274825Y-10664484D01*
X7274825Y-10664484D02*
X7255777Y-10664484D01*
X7255777Y-10664484D02*
X7236729Y-10654960D01*
X7236729Y-10654960D02*
X7227206Y-10645436D01*
X7227206Y-10645436D02*
X7217682Y-10626389D01*
X7217682Y-10626389D02*
X7208158Y-10588293D01*
X7208158Y-10588293D02*
X7208158Y-10540674D01*
X7208158Y-10540674D02*
X7217682Y-10502579D01*
X7217682Y-10502579D02*
X7227206Y-10483531D01*
X7227206Y-10483531D02*
X7236729Y-10474008D01*
X7236729Y-10474008D02*
X7255777Y-10464484D01*
X7398634Y-10464484D02*
X7398634Y-10502579D01*
X7474825Y-10464484D02*
X7474825Y-10502579D01*
X7770063Y-10740674D02*
X7760539Y-10731150D01*
X7760539Y-10731150D02*
X7741491Y-10702579D01*
X7741491Y-10702579D02*
X7731968Y-10683531D01*
X7731968Y-10683531D02*
X7722444Y-10654960D01*
X7722444Y-10654960D02*
X7712920Y-10607341D01*
X7712920Y-10607341D02*
X7712920Y-10569246D01*
X7712920Y-10569246D02*
X7722444Y-10521627D01*
X7722444Y-10521627D02*
X7731968Y-10493055D01*
X7731968Y-10493055D02*
X7741491Y-10474008D01*
X7741491Y-10474008D02*
X7760539Y-10445436D01*
X7760539Y-10445436D02*
X7770063Y-10435912D01*
X7827206Y-10464484D02*
X7951015Y-10464484D01*
X7951015Y-10464484D02*
X7884348Y-10540674D01*
X7884348Y-10540674D02*
X7912920Y-10540674D01*
X7912920Y-10540674D02*
X7931968Y-10550198D01*
X7931968Y-10550198D02*
X7941491Y-10559722D01*
X7941491Y-10559722D02*
X7951015Y-10578770D01*
X7951015Y-10578770D02*
X7951015Y-10626389D01*
X7951015Y-10626389D02*
X7941491Y-10645436D01*
X7941491Y-10645436D02*
X7931968Y-10654960D01*
X7931968Y-10654960D02*
X7912920Y-10664484D01*
X7912920Y-10664484D02*
X7855777Y-10664484D01*
X7855777Y-10664484D02*
X7836729Y-10654960D01*
X7836729Y-10654960D02*
X7827206Y-10645436D01*
X8189110Y-10664484D02*
X8189110Y-10464484D01*
X8274825Y-10664484D02*
X8274825Y-10559722D01*
X8274825Y-10559722D02*
X8265301Y-10540674D01*
X8265301Y-10540674D02*
X8246253Y-10531150D01*
X8246253Y-10531150D02*
X8217682Y-10531150D01*
X8217682Y-10531150D02*
X8198634Y-10540674D01*
X8198634Y-10540674D02*
X8189110Y-10550198D01*
X8398634Y-10664484D02*
X8379587Y-10654960D01*
X8379587Y-10654960D02*
X8370063Y-10645436D01*
X8370063Y-10645436D02*
X8360539Y-10626389D01*
X8360539Y-10626389D02*
X8360539Y-10569246D01*
X8360539Y-10569246D02*
X8370063Y-10550198D01*
X8370063Y-10550198D02*
X8379587Y-10540674D01*
X8379587Y-10540674D02*
X8398634Y-10531150D01*
X8398634Y-10531150D02*
X8427206Y-10531150D01*
X8427206Y-10531150D02*
X8446253Y-10540674D01*
X8446253Y-10540674D02*
X8455777Y-10550198D01*
X8455777Y-10550198D02*
X8465301Y-10569246D01*
X8465301Y-10569246D02*
X8465301Y-10626389D01*
X8465301Y-10626389D02*
X8455777Y-10645436D01*
X8455777Y-10645436D02*
X8446253Y-10654960D01*
X8446253Y-10654960D02*
X8427206Y-10664484D01*
X8427206Y-10664484D02*
X8398634Y-10664484D01*
X8579587Y-10664484D02*
X8560539Y-10654960D01*
X8560539Y-10654960D02*
X8551015Y-10635912D01*
X8551015Y-10635912D02*
X8551015Y-10464484D01*
X8731968Y-10654960D02*
X8712920Y-10664484D01*
X8712920Y-10664484D02*
X8674825Y-10664484D01*
X8674825Y-10664484D02*
X8655777Y-10654960D01*
X8655777Y-10654960D02*
X8646253Y-10635912D01*
X8646253Y-10635912D02*
X8646253Y-10559722D01*
X8646253Y-10559722D02*
X8655777Y-10540674D01*
X8655777Y-10540674D02*
X8674825Y-10531150D01*
X8674825Y-10531150D02*
X8712920Y-10531150D01*
X8712920Y-10531150D02*
X8731968Y-10540674D01*
X8731968Y-10540674D02*
X8741492Y-10559722D01*
X8741492Y-10559722D02*
X8741492Y-10578770D01*
X8741492Y-10578770D02*
X8646253Y-10597817D01*
X8817682Y-10654960D02*
X8836730Y-10664484D01*
X8836730Y-10664484D02*
X8874825Y-10664484D01*
X8874825Y-10664484D02*
X8893873Y-10654960D01*
X8893873Y-10654960D02*
X8903396Y-10635912D01*
X8903396Y-10635912D02*
X8903396Y-10626389D01*
X8903396Y-10626389D02*
X8893873Y-10607341D01*
X8893873Y-10607341D02*
X8874825Y-10597817D01*
X8874825Y-10597817D02*
X8846253Y-10597817D01*
X8846253Y-10597817D02*
X8827206Y-10588293D01*
X8827206Y-10588293D02*
X8817682Y-10569246D01*
X8817682Y-10569246D02*
X8817682Y-10559722D01*
X8817682Y-10559722D02*
X8827206Y-10540674D01*
X8827206Y-10540674D02*
X8846253Y-10531150D01*
X8846253Y-10531150D02*
X8874825Y-10531150D01*
X8874825Y-10531150D02*
X8893873Y-10540674D01*
X8970063Y-10740674D02*
X8979587Y-10731150D01*
X8979587Y-10731150D02*
X8998634Y-10702579D01*
X8998634Y-10702579D02*
X9008158Y-10683531D01*
X9008158Y-10683531D02*
X9017682Y-10654960D01*
X9017682Y-10654960D02*
X9027206Y-10607341D01*
X9027206Y-10607341D02*
X9027206Y-10569246D01*
X9027206Y-10569246D02*
X9017682Y-10521627D01*
X9017682Y-10521627D02*
X9008158Y-10493055D01*
X9008158Y-10493055D02*
X8998634Y-10474008D01*
X8998634Y-10474008D02*
X8979587Y-10445436D01*
X8979587Y-10445436D02*
X8970063Y-10435912D01*
D15*
X4183284Y-10865285D02*
X4183284Y-10808716D01*
X4126715Y-10808716D01*
X4126715Y-10865285D01*
X4183284Y-10865285D01*
D11*
X4493872Y-10728484D02*
X4512920Y-10728484D01*
X4512920Y-10728484D02*
X4531967Y-10738008D01*
X4531967Y-10738008D02*
X4541491Y-10747531D01*
X4541491Y-10747531D02*
X4551015Y-10766579D01*
X4551015Y-10766579D02*
X4560539Y-10804674D01*
X4560539Y-10804674D02*
X4560539Y-10852293D01*
X4560539Y-10852293D02*
X4551015Y-10890389D01*
X4551015Y-10890389D02*
X4541491Y-10909436D01*
X4541491Y-10909436D02*
X4531967Y-10918960D01*
X4531967Y-10918960D02*
X4512920Y-10928484D01*
X4512920Y-10928484D02*
X4493872Y-10928484D01*
X4493872Y-10928484D02*
X4474824Y-10918960D01*
X4474824Y-10918960D02*
X4465301Y-10909436D01*
X4465301Y-10909436D02*
X4455777Y-10890389D01*
X4455777Y-10890389D02*
X4446253Y-10852293D01*
X4446253Y-10852293D02*
X4446253Y-10804674D01*
X4446253Y-10804674D02*
X4455777Y-10766579D01*
X4455777Y-10766579D02*
X4465301Y-10747531D01*
X4465301Y-10747531D02*
X4474824Y-10738008D01*
X4474824Y-10738008D02*
X4493872Y-10728484D01*
X4646253Y-10909436D02*
X4655777Y-10918960D01*
X4655777Y-10918960D02*
X4646253Y-10928484D01*
X4646253Y-10928484D02*
X4636729Y-10918960D01*
X4636729Y-10918960D02*
X4646253Y-10909436D01*
X4646253Y-10909436D02*
X4646253Y-10928484D01*
X4770063Y-10814198D02*
X4751015Y-10804674D01*
X4751015Y-10804674D02*
X4741491Y-10795150D01*
X4741491Y-10795150D02*
X4731967Y-10776103D01*
X4731967Y-10776103D02*
X4731967Y-10766579D01*
X4731967Y-10766579D02*
X4741491Y-10747531D01*
X4741491Y-10747531D02*
X4751015Y-10738008D01*
X4751015Y-10738008D02*
X4770063Y-10728484D01*
X4770063Y-10728484D02*
X4808158Y-10728484D01*
X4808158Y-10728484D02*
X4827205Y-10738008D01*
X4827205Y-10738008D02*
X4836729Y-10747531D01*
X4836729Y-10747531D02*
X4846253Y-10766579D01*
X4846253Y-10766579D02*
X4846253Y-10776103D01*
X4846253Y-10776103D02*
X4836729Y-10795150D01*
X4836729Y-10795150D02*
X4827205Y-10804674D01*
X4827205Y-10804674D02*
X4808158Y-10814198D01*
X4808158Y-10814198D02*
X4770063Y-10814198D01*
X4770063Y-10814198D02*
X4751015Y-10823722D01*
X4751015Y-10823722D02*
X4741491Y-10833246D01*
X4741491Y-10833246D02*
X4731967Y-10852293D01*
X4731967Y-10852293D02*
X4731967Y-10890389D01*
X4731967Y-10890389D02*
X4741491Y-10909436D01*
X4741491Y-10909436D02*
X4751015Y-10918960D01*
X4751015Y-10918960D02*
X4770063Y-10928484D01*
X4770063Y-10928484D02*
X4808158Y-10928484D01*
X4808158Y-10928484D02*
X4827205Y-10918960D01*
X4827205Y-10918960D02*
X4836729Y-10909436D01*
X4836729Y-10909436D02*
X4846253Y-10890389D01*
X4846253Y-10890389D02*
X4846253Y-10852293D01*
X4846253Y-10852293D02*
X4836729Y-10833246D01*
X4836729Y-10833246D02*
X4827205Y-10823722D01*
X4827205Y-10823722D02*
X4808158Y-10814198D01*
X4970063Y-10728484D02*
X4989110Y-10728484D01*
X4989110Y-10728484D02*
X5008158Y-10738008D01*
X5008158Y-10738008D02*
X5017682Y-10747531D01*
X5017682Y-10747531D02*
X5027205Y-10766579D01*
X5027205Y-10766579D02*
X5036729Y-10804674D01*
X5036729Y-10804674D02*
X5036729Y-10852293D01*
X5036729Y-10852293D02*
X5027205Y-10890389D01*
X5027205Y-10890389D02*
X5017682Y-10909436D01*
X5017682Y-10909436D02*
X5008158Y-10918960D01*
X5008158Y-10918960D02*
X4989110Y-10928484D01*
X4989110Y-10928484D02*
X4970063Y-10928484D01*
X4970063Y-10928484D02*
X4951015Y-10918960D01*
X4951015Y-10918960D02*
X4941491Y-10909436D01*
X4941491Y-10909436D02*
X4931967Y-10890389D01*
X4931967Y-10890389D02*
X4922444Y-10852293D01*
X4922444Y-10852293D02*
X4922444Y-10804674D01*
X4922444Y-10804674D02*
X4931967Y-10766579D01*
X4931967Y-10766579D02*
X4941491Y-10747531D01*
X4941491Y-10747531D02*
X4951015Y-10738008D01*
X4951015Y-10738008D02*
X4970063Y-10728484D01*
X5160539Y-10728484D02*
X5179586Y-10728484D01*
X5179586Y-10728484D02*
X5198634Y-10738008D01*
X5198634Y-10738008D02*
X5208158Y-10747531D01*
X5208158Y-10747531D02*
X5217682Y-10766579D01*
X5217682Y-10766579D02*
X5227205Y-10804674D01*
X5227205Y-10804674D02*
X5227205Y-10852293D01*
X5227205Y-10852293D02*
X5217682Y-10890389D01*
X5217682Y-10890389D02*
X5208158Y-10909436D01*
X5208158Y-10909436D02*
X5198634Y-10918960D01*
X5198634Y-10918960D02*
X5179586Y-10928484D01*
X5179586Y-10928484D02*
X5160539Y-10928484D01*
X5160539Y-10928484D02*
X5141491Y-10918960D01*
X5141491Y-10918960D02*
X5131967Y-10909436D01*
X5131967Y-10909436D02*
X5122444Y-10890389D01*
X5122444Y-10890389D02*
X5112920Y-10852293D01*
X5112920Y-10852293D02*
X5112920Y-10804674D01*
X5112920Y-10804674D02*
X5122444Y-10766579D01*
X5122444Y-10766579D02*
X5131967Y-10747531D01*
X5131967Y-10747531D02*
X5141491Y-10738008D01*
X5141491Y-10738008D02*
X5160539Y-10728484D01*
X5312920Y-10928484D02*
X5312920Y-10795150D01*
X5312920Y-10814198D02*
X5322444Y-10804674D01*
X5322444Y-10804674D02*
X5341491Y-10795150D01*
X5341491Y-10795150D02*
X5370063Y-10795150D01*
X5370063Y-10795150D02*
X5389110Y-10804674D01*
X5389110Y-10804674D02*
X5398634Y-10823722D01*
X5398634Y-10823722D02*
X5398634Y-10928484D01*
X5398634Y-10823722D02*
X5408158Y-10804674D01*
X5408158Y-10804674D02*
X5427205Y-10795150D01*
X5427205Y-10795150D02*
X5455777Y-10795150D01*
X5455777Y-10795150D02*
X5474825Y-10804674D01*
X5474825Y-10804674D02*
X5484348Y-10823722D01*
X5484348Y-10823722D02*
X5484348Y-10928484D01*
X5579586Y-10928484D02*
X5579586Y-10795150D01*
X5579586Y-10814198D02*
X5589110Y-10804674D01*
X5589110Y-10804674D02*
X5608158Y-10795150D01*
X5608158Y-10795150D02*
X5636729Y-10795150D01*
X5636729Y-10795150D02*
X5655777Y-10804674D01*
X5655777Y-10804674D02*
X5665301Y-10823722D01*
X5665301Y-10823722D02*
X5665301Y-10928484D01*
X5665301Y-10823722D02*
X5674824Y-10804674D01*
X5674824Y-10804674D02*
X5693872Y-10795150D01*
X5693872Y-10795150D02*
X5722443Y-10795150D01*
X5722443Y-10795150D02*
X5741491Y-10804674D01*
X5741491Y-10804674D02*
X5751015Y-10823722D01*
X5751015Y-10823722D02*
X5751015Y-10928484D01*
X6141491Y-10718960D02*
X5970063Y-10976103D01*
X6398634Y-10728484D02*
X6417682Y-10728484D01*
X6417682Y-10728484D02*
X6436729Y-10738008D01*
X6436729Y-10738008D02*
X6446253Y-10747531D01*
X6446253Y-10747531D02*
X6455777Y-10766579D01*
X6455777Y-10766579D02*
X6465301Y-10804674D01*
X6465301Y-10804674D02*
X6465301Y-10852293D01*
X6465301Y-10852293D02*
X6455777Y-10890389D01*
X6455777Y-10890389D02*
X6446253Y-10909436D01*
X6446253Y-10909436D02*
X6436729Y-10918960D01*
X6436729Y-10918960D02*
X6417682Y-10928484D01*
X6417682Y-10928484D02*
X6398634Y-10928484D01*
X6398634Y-10928484D02*
X6379586Y-10918960D01*
X6379586Y-10918960D02*
X6370063Y-10909436D01*
X6370063Y-10909436D02*
X6360539Y-10890389D01*
X6360539Y-10890389D02*
X6351015Y-10852293D01*
X6351015Y-10852293D02*
X6351015Y-10804674D01*
X6351015Y-10804674D02*
X6360539Y-10766579D01*
X6360539Y-10766579D02*
X6370063Y-10747531D01*
X6370063Y-10747531D02*
X6379586Y-10738008D01*
X6379586Y-10738008D02*
X6398634Y-10728484D01*
X6551015Y-10909436D02*
X6560539Y-10918960D01*
X6560539Y-10918960D02*
X6551015Y-10928484D01*
X6551015Y-10928484D02*
X6541491Y-10918960D01*
X6541491Y-10918960D02*
X6551015Y-10909436D01*
X6551015Y-10909436D02*
X6551015Y-10928484D01*
X6684348Y-10728484D02*
X6703396Y-10728484D01*
X6703396Y-10728484D02*
X6722444Y-10738008D01*
X6722444Y-10738008D02*
X6731967Y-10747531D01*
X6731967Y-10747531D02*
X6741491Y-10766579D01*
X6741491Y-10766579D02*
X6751015Y-10804674D01*
X6751015Y-10804674D02*
X6751015Y-10852293D01*
X6751015Y-10852293D02*
X6741491Y-10890389D01*
X6741491Y-10890389D02*
X6731967Y-10909436D01*
X6731967Y-10909436D02*
X6722444Y-10918960D01*
X6722444Y-10918960D02*
X6703396Y-10928484D01*
X6703396Y-10928484D02*
X6684348Y-10928484D01*
X6684348Y-10928484D02*
X6665301Y-10918960D01*
X6665301Y-10918960D02*
X6655777Y-10909436D01*
X6655777Y-10909436D02*
X6646253Y-10890389D01*
X6646253Y-10890389D02*
X6636729Y-10852293D01*
X6636729Y-10852293D02*
X6636729Y-10804674D01*
X6636729Y-10804674D02*
X6646253Y-10766579D01*
X6646253Y-10766579D02*
X6655777Y-10747531D01*
X6655777Y-10747531D02*
X6665301Y-10738008D01*
X6665301Y-10738008D02*
X6684348Y-10728484D01*
X6817682Y-10728484D02*
X6941491Y-10728484D01*
X6941491Y-10728484D02*
X6874825Y-10804674D01*
X6874825Y-10804674D02*
X6903396Y-10804674D01*
X6903396Y-10804674D02*
X6922444Y-10814198D01*
X6922444Y-10814198D02*
X6931967Y-10823722D01*
X6931967Y-10823722D02*
X6941491Y-10842770D01*
X6941491Y-10842770D02*
X6941491Y-10890389D01*
X6941491Y-10890389D02*
X6931967Y-10909436D01*
X6931967Y-10909436D02*
X6922444Y-10918960D01*
X6922444Y-10918960D02*
X6903396Y-10928484D01*
X6903396Y-10928484D02*
X6846253Y-10928484D01*
X6846253Y-10928484D02*
X6827206Y-10918960D01*
X6827206Y-10918960D02*
X6817682Y-10909436D01*
X7131967Y-10928484D02*
X7017682Y-10928484D01*
X7074825Y-10928484D02*
X7074825Y-10728484D01*
X7074825Y-10728484D02*
X7055777Y-10757055D01*
X7055777Y-10757055D02*
X7036729Y-10776103D01*
X7036729Y-10776103D02*
X7017682Y-10785627D01*
X7312920Y-10728484D02*
X7217682Y-10728484D01*
X7217682Y-10728484D02*
X7208158Y-10823722D01*
X7208158Y-10823722D02*
X7217682Y-10814198D01*
X7217682Y-10814198D02*
X7236729Y-10804674D01*
X7236729Y-10804674D02*
X7284348Y-10804674D01*
X7284348Y-10804674D02*
X7303396Y-10814198D01*
X7303396Y-10814198D02*
X7312920Y-10823722D01*
X7312920Y-10823722D02*
X7322444Y-10842770D01*
X7322444Y-10842770D02*
X7322444Y-10890389D01*
X7322444Y-10890389D02*
X7312920Y-10909436D01*
X7312920Y-10909436D02*
X7303396Y-10918960D01*
X7303396Y-10918960D02*
X7284348Y-10928484D01*
X7284348Y-10928484D02*
X7236729Y-10928484D01*
X7236729Y-10928484D02*
X7217682Y-10918960D01*
X7217682Y-10918960D02*
X7208158Y-10909436D01*
X7398634Y-10728484D02*
X7398634Y-10766579D01*
X7474825Y-10728484D02*
X7474825Y-10766579D01*
X7770063Y-11004674D02*
X7760539Y-10995150D01*
X7760539Y-10995150D02*
X7741491Y-10966579D01*
X7741491Y-10966579D02*
X7731968Y-10947531D01*
X7731968Y-10947531D02*
X7722444Y-10918960D01*
X7722444Y-10918960D02*
X7712920Y-10871341D01*
X7712920Y-10871341D02*
X7712920Y-10833246D01*
X7712920Y-10833246D02*
X7722444Y-10785627D01*
X7722444Y-10785627D02*
X7731968Y-10757055D01*
X7731968Y-10757055D02*
X7741491Y-10738008D01*
X7741491Y-10738008D02*
X7760539Y-10709436D01*
X7760539Y-10709436D02*
X7770063Y-10699912D01*
X7931968Y-10728484D02*
X7893872Y-10728484D01*
X7893872Y-10728484D02*
X7874825Y-10738008D01*
X7874825Y-10738008D02*
X7865301Y-10747531D01*
X7865301Y-10747531D02*
X7846253Y-10776103D01*
X7846253Y-10776103D02*
X7836729Y-10814198D01*
X7836729Y-10814198D02*
X7836729Y-10890389D01*
X7836729Y-10890389D02*
X7846253Y-10909436D01*
X7846253Y-10909436D02*
X7855777Y-10918960D01*
X7855777Y-10918960D02*
X7874825Y-10928484D01*
X7874825Y-10928484D02*
X7912920Y-10928484D01*
X7912920Y-10928484D02*
X7931968Y-10918960D01*
X7931968Y-10918960D02*
X7941491Y-10909436D01*
X7941491Y-10909436D02*
X7951015Y-10890389D01*
X7951015Y-10890389D02*
X7951015Y-10842770D01*
X7951015Y-10842770D02*
X7941491Y-10823722D01*
X7941491Y-10823722D02*
X7931968Y-10814198D01*
X7931968Y-10814198D02*
X7912920Y-10804674D01*
X7912920Y-10804674D02*
X7874825Y-10804674D01*
X7874825Y-10804674D02*
X7855777Y-10814198D01*
X7855777Y-10814198D02*
X7846253Y-10823722D01*
X7846253Y-10823722D02*
X7836729Y-10842770D01*
X8189110Y-10928484D02*
X8189110Y-10728484D01*
X8274825Y-10928484D02*
X8274825Y-10823722D01*
X8274825Y-10823722D02*
X8265301Y-10804674D01*
X8265301Y-10804674D02*
X8246253Y-10795150D01*
X8246253Y-10795150D02*
X8217682Y-10795150D01*
X8217682Y-10795150D02*
X8198634Y-10804674D01*
X8198634Y-10804674D02*
X8189110Y-10814198D01*
X8398634Y-10928484D02*
X8379587Y-10918960D01*
X8379587Y-10918960D02*
X8370063Y-10909436D01*
X8370063Y-10909436D02*
X8360539Y-10890389D01*
X8360539Y-10890389D02*
X8360539Y-10833246D01*
X8360539Y-10833246D02*
X8370063Y-10814198D01*
X8370063Y-10814198D02*
X8379587Y-10804674D01*
X8379587Y-10804674D02*
X8398634Y-10795150D01*
X8398634Y-10795150D02*
X8427206Y-10795150D01*
X8427206Y-10795150D02*
X8446253Y-10804674D01*
X8446253Y-10804674D02*
X8455777Y-10814198D01*
X8455777Y-10814198D02*
X8465301Y-10833246D01*
X8465301Y-10833246D02*
X8465301Y-10890389D01*
X8465301Y-10890389D02*
X8455777Y-10909436D01*
X8455777Y-10909436D02*
X8446253Y-10918960D01*
X8446253Y-10918960D02*
X8427206Y-10928484D01*
X8427206Y-10928484D02*
X8398634Y-10928484D01*
X8579587Y-10928484D02*
X8560539Y-10918960D01*
X8560539Y-10918960D02*
X8551015Y-10899912D01*
X8551015Y-10899912D02*
X8551015Y-10728484D01*
X8731968Y-10918960D02*
X8712920Y-10928484D01*
X8712920Y-10928484D02*
X8674825Y-10928484D01*
X8674825Y-10928484D02*
X8655777Y-10918960D01*
X8655777Y-10918960D02*
X8646253Y-10899912D01*
X8646253Y-10899912D02*
X8646253Y-10823722D01*
X8646253Y-10823722D02*
X8655777Y-10804674D01*
X8655777Y-10804674D02*
X8674825Y-10795150D01*
X8674825Y-10795150D02*
X8712920Y-10795150D01*
X8712920Y-10795150D02*
X8731968Y-10804674D01*
X8731968Y-10804674D02*
X8741492Y-10823722D01*
X8741492Y-10823722D02*
X8741492Y-10842770D01*
X8741492Y-10842770D02*
X8646253Y-10861817D01*
X8817682Y-10918960D02*
X8836730Y-10928484D01*
X8836730Y-10928484D02*
X8874825Y-10928484D01*
X8874825Y-10928484D02*
X8893873Y-10918960D01*
X8893873Y-10918960D02*
X8903396Y-10899912D01*
X8903396Y-10899912D02*
X8903396Y-10890389D01*
X8903396Y-10890389D02*
X8893873Y-10871341D01*
X8893873Y-10871341D02*
X8874825Y-10861817D01*
X8874825Y-10861817D02*
X8846253Y-10861817D01*
X8846253Y-10861817D02*
X8827206Y-10852293D01*
X8827206Y-10852293D02*
X8817682Y-10833246D01*
X8817682Y-10833246D02*
X8817682Y-10823722D01*
X8817682Y-10823722D02*
X8827206Y-10804674D01*
X8827206Y-10804674D02*
X8846253Y-10795150D01*
X8846253Y-10795150D02*
X8874825Y-10795150D01*
X8874825Y-10795150D02*
X8893873Y-10804674D01*
X9141492Y-10852293D02*
X9293873Y-10852293D01*
X9217682Y-10928484D02*
X9217682Y-10776103D01*
X9627206Y-10795150D02*
X9627206Y-10928484D01*
X9579587Y-10718960D02*
X9531968Y-10861817D01*
X9531968Y-10861817D02*
X9655777Y-10861817D01*
X9874825Y-10918960D02*
X9893873Y-10928484D01*
X9893873Y-10928484D02*
X9931968Y-10928484D01*
X9931968Y-10928484D02*
X9951016Y-10918960D01*
X9951016Y-10918960D02*
X9960539Y-10899912D01*
X9960539Y-10899912D02*
X9960539Y-10890389D01*
X9960539Y-10890389D02*
X9951016Y-10871341D01*
X9951016Y-10871341D02*
X9931968Y-10861817D01*
X9931968Y-10861817D02*
X9903396Y-10861817D01*
X9903396Y-10861817D02*
X9884349Y-10852293D01*
X9884349Y-10852293D02*
X9874825Y-10833246D01*
X9874825Y-10833246D02*
X9874825Y-10823722D01*
X9874825Y-10823722D02*
X9884349Y-10804674D01*
X9884349Y-10804674D02*
X9903396Y-10795150D01*
X9903396Y-10795150D02*
X9931968Y-10795150D01*
X9931968Y-10795150D02*
X9951016Y-10804674D01*
X10074825Y-10928484D02*
X10055777Y-10918960D01*
X10055777Y-10918960D02*
X10046254Y-10899912D01*
X10046254Y-10899912D02*
X10046254Y-10728484D01*
X10179587Y-10928484D02*
X10160539Y-10918960D01*
X10160539Y-10918960D02*
X10151016Y-10909436D01*
X10151016Y-10909436D02*
X10141492Y-10890389D01*
X10141492Y-10890389D02*
X10141492Y-10833246D01*
X10141492Y-10833246D02*
X10151016Y-10814198D01*
X10151016Y-10814198D02*
X10160539Y-10804674D01*
X10160539Y-10804674D02*
X10179587Y-10795150D01*
X10179587Y-10795150D02*
X10208158Y-10795150D01*
X10208158Y-10795150D02*
X10227206Y-10804674D01*
X10227206Y-10804674D02*
X10236730Y-10814198D01*
X10236730Y-10814198D02*
X10246254Y-10833246D01*
X10246254Y-10833246D02*
X10246254Y-10890389D01*
X10246254Y-10890389D02*
X10236730Y-10909436D01*
X10236730Y-10909436D02*
X10227206Y-10918960D01*
X10227206Y-10918960D02*
X10208158Y-10928484D01*
X10208158Y-10928484D02*
X10179587Y-10928484D01*
X10303397Y-10795150D02*
X10379587Y-10795150D01*
X10331968Y-10728484D02*
X10331968Y-10899912D01*
X10331968Y-10899912D02*
X10341492Y-10918960D01*
X10341492Y-10918960D02*
X10360539Y-10928484D01*
X10360539Y-10928484D02*
X10379587Y-10928484D01*
X10436730Y-10918960D02*
X10455777Y-10928484D01*
X10455777Y-10928484D02*
X10493873Y-10928484D01*
X10493873Y-10928484D02*
X10512920Y-10918960D01*
X10512920Y-10918960D02*
X10522444Y-10899912D01*
X10522444Y-10899912D02*
X10522444Y-10890389D01*
X10522444Y-10890389D02*
X10512920Y-10871341D01*
X10512920Y-10871341D02*
X10493873Y-10861817D01*
X10493873Y-10861817D02*
X10465301Y-10861817D01*
X10465301Y-10861817D02*
X10446254Y-10852293D01*
X10446254Y-10852293D02*
X10436730Y-10833246D01*
X10436730Y-10833246D02*
X10436730Y-10823722D01*
X10436730Y-10823722D02*
X10446254Y-10804674D01*
X10446254Y-10804674D02*
X10465301Y-10795150D01*
X10465301Y-10795150D02*
X10493873Y-10795150D01*
X10493873Y-10795150D02*
X10512920Y-10804674D01*
X10589111Y-11004674D02*
X10598635Y-10995150D01*
X10598635Y-10995150D02*
X10617682Y-10966579D01*
X10617682Y-10966579D02*
X10627206Y-10947531D01*
X10627206Y-10947531D02*
X10636730Y-10918960D01*
X10636730Y-10918960D02*
X10646254Y-10871341D01*
X10646254Y-10871341D02*
X10646254Y-10833246D01*
X10646254Y-10833246D02*
X10636730Y-10785627D01*
X10636730Y-10785627D02*
X10627206Y-10757055D01*
X10627206Y-10757055D02*
X10617682Y-10738008D01*
X10617682Y-10738008D02*
X10598635Y-10709436D01*
X10598635Y-10709436D02*
X10589111Y-10699912D01*
D16*
X4150000Y-11146000D02*
X4195000Y-11101000D01*
X4150000Y-11056000D01*
X4105000Y-11101000D01*
X4150000Y-11146000D01*
D11*
X4493872Y-10992484D02*
X4512920Y-10992484D01*
X4512920Y-10992484D02*
X4531967Y-11002008D01*
X4531967Y-11002008D02*
X4541491Y-11011531D01*
X4541491Y-11011531D02*
X4551015Y-11030579D01*
X4551015Y-11030579D02*
X4560539Y-11068674D01*
X4560539Y-11068674D02*
X4560539Y-11116293D01*
X4560539Y-11116293D02*
X4551015Y-11154389D01*
X4551015Y-11154389D02*
X4541491Y-11173436D01*
X4541491Y-11173436D02*
X4531967Y-11182960D01*
X4531967Y-11182960D02*
X4512920Y-11192484D01*
X4512920Y-11192484D02*
X4493872Y-11192484D01*
X4493872Y-11192484D02*
X4474824Y-11182960D01*
X4474824Y-11182960D02*
X4465301Y-11173436D01*
X4465301Y-11173436D02*
X4455777Y-11154389D01*
X4455777Y-11154389D02*
X4446253Y-11116293D01*
X4446253Y-11116293D02*
X4446253Y-11068674D01*
X4446253Y-11068674D02*
X4455777Y-11030579D01*
X4455777Y-11030579D02*
X4465301Y-11011531D01*
X4465301Y-11011531D02*
X4474824Y-11002008D01*
X4474824Y-11002008D02*
X4493872Y-10992484D01*
X4646253Y-11173436D02*
X4655777Y-11182960D01*
X4655777Y-11182960D02*
X4646253Y-11192484D01*
X4646253Y-11192484D02*
X4636729Y-11182960D01*
X4636729Y-11182960D02*
X4646253Y-11173436D01*
X4646253Y-11173436D02*
X4646253Y-11192484D01*
X4751015Y-11192484D02*
X4789110Y-11192484D01*
X4789110Y-11192484D02*
X4808158Y-11182960D01*
X4808158Y-11182960D02*
X4817682Y-11173436D01*
X4817682Y-11173436D02*
X4836729Y-11144865D01*
X4836729Y-11144865D02*
X4846253Y-11106770D01*
X4846253Y-11106770D02*
X4846253Y-11030579D01*
X4846253Y-11030579D02*
X4836729Y-11011531D01*
X4836729Y-11011531D02*
X4827205Y-11002008D01*
X4827205Y-11002008D02*
X4808158Y-10992484D01*
X4808158Y-10992484D02*
X4770063Y-10992484D01*
X4770063Y-10992484D02*
X4751015Y-11002008D01*
X4751015Y-11002008D02*
X4741491Y-11011531D01*
X4741491Y-11011531D02*
X4731967Y-11030579D01*
X4731967Y-11030579D02*
X4731967Y-11078198D01*
X4731967Y-11078198D02*
X4741491Y-11097246D01*
X4741491Y-11097246D02*
X4751015Y-11106770D01*
X4751015Y-11106770D02*
X4770063Y-11116293D01*
X4770063Y-11116293D02*
X4808158Y-11116293D01*
X4808158Y-11116293D02*
X4827205Y-11106770D01*
X4827205Y-11106770D02*
X4836729Y-11097246D01*
X4836729Y-11097246D02*
X4846253Y-11078198D01*
X4970063Y-10992484D02*
X4989110Y-10992484D01*
X4989110Y-10992484D02*
X5008158Y-11002008D01*
X5008158Y-11002008D02*
X5017682Y-11011531D01*
X5017682Y-11011531D02*
X5027205Y-11030579D01*
X5027205Y-11030579D02*
X5036729Y-11068674D01*
X5036729Y-11068674D02*
X5036729Y-11116293D01*
X5036729Y-11116293D02*
X5027205Y-11154389D01*
X5027205Y-11154389D02*
X5017682Y-11173436D01*
X5017682Y-11173436D02*
X5008158Y-11182960D01*
X5008158Y-11182960D02*
X4989110Y-11192484D01*
X4989110Y-11192484D02*
X4970063Y-11192484D01*
X4970063Y-11192484D02*
X4951015Y-11182960D01*
X4951015Y-11182960D02*
X4941491Y-11173436D01*
X4941491Y-11173436D02*
X4931967Y-11154389D01*
X4931967Y-11154389D02*
X4922444Y-11116293D01*
X4922444Y-11116293D02*
X4922444Y-11068674D01*
X4922444Y-11068674D02*
X4931967Y-11030579D01*
X4931967Y-11030579D02*
X4941491Y-11011531D01*
X4941491Y-11011531D02*
X4951015Y-11002008D01*
X4951015Y-11002008D02*
X4970063Y-10992484D01*
X5160539Y-10992484D02*
X5179586Y-10992484D01*
X5179586Y-10992484D02*
X5198634Y-11002008D01*
X5198634Y-11002008D02*
X5208158Y-11011531D01*
X5208158Y-11011531D02*
X5217682Y-11030579D01*
X5217682Y-11030579D02*
X5227205Y-11068674D01*
X5227205Y-11068674D02*
X5227205Y-11116293D01*
X5227205Y-11116293D02*
X5217682Y-11154389D01*
X5217682Y-11154389D02*
X5208158Y-11173436D01*
X5208158Y-11173436D02*
X5198634Y-11182960D01*
X5198634Y-11182960D02*
X5179586Y-11192484D01*
X5179586Y-11192484D02*
X5160539Y-11192484D01*
X5160539Y-11192484D02*
X5141491Y-11182960D01*
X5141491Y-11182960D02*
X5131967Y-11173436D01*
X5131967Y-11173436D02*
X5122444Y-11154389D01*
X5122444Y-11154389D02*
X5112920Y-11116293D01*
X5112920Y-11116293D02*
X5112920Y-11068674D01*
X5112920Y-11068674D02*
X5122444Y-11030579D01*
X5122444Y-11030579D02*
X5131967Y-11011531D01*
X5131967Y-11011531D02*
X5141491Y-11002008D01*
X5141491Y-11002008D02*
X5160539Y-10992484D01*
X5312920Y-11192484D02*
X5312920Y-11059150D01*
X5312920Y-11078198D02*
X5322444Y-11068674D01*
X5322444Y-11068674D02*
X5341491Y-11059150D01*
X5341491Y-11059150D02*
X5370063Y-11059150D01*
X5370063Y-11059150D02*
X5389110Y-11068674D01*
X5389110Y-11068674D02*
X5398634Y-11087722D01*
X5398634Y-11087722D02*
X5398634Y-11192484D01*
X5398634Y-11087722D02*
X5408158Y-11068674D01*
X5408158Y-11068674D02*
X5427205Y-11059150D01*
X5427205Y-11059150D02*
X5455777Y-11059150D01*
X5455777Y-11059150D02*
X5474825Y-11068674D01*
X5474825Y-11068674D02*
X5484348Y-11087722D01*
X5484348Y-11087722D02*
X5484348Y-11192484D01*
X5579586Y-11192484D02*
X5579586Y-11059150D01*
X5579586Y-11078198D02*
X5589110Y-11068674D01*
X5589110Y-11068674D02*
X5608158Y-11059150D01*
X5608158Y-11059150D02*
X5636729Y-11059150D01*
X5636729Y-11059150D02*
X5655777Y-11068674D01*
X5655777Y-11068674D02*
X5665301Y-11087722D01*
X5665301Y-11087722D02*
X5665301Y-11192484D01*
X5665301Y-11087722D02*
X5674824Y-11068674D01*
X5674824Y-11068674D02*
X5693872Y-11059150D01*
X5693872Y-11059150D02*
X5722443Y-11059150D01*
X5722443Y-11059150D02*
X5741491Y-11068674D01*
X5741491Y-11068674D02*
X5751015Y-11087722D01*
X5751015Y-11087722D02*
X5751015Y-11192484D01*
X6141491Y-10982960D02*
X5970063Y-11240103D01*
X6398634Y-10992484D02*
X6417682Y-10992484D01*
X6417682Y-10992484D02*
X6436729Y-11002008D01*
X6436729Y-11002008D02*
X6446253Y-11011531D01*
X6446253Y-11011531D02*
X6455777Y-11030579D01*
X6455777Y-11030579D02*
X6465301Y-11068674D01*
X6465301Y-11068674D02*
X6465301Y-11116293D01*
X6465301Y-11116293D02*
X6455777Y-11154389D01*
X6455777Y-11154389D02*
X6446253Y-11173436D01*
X6446253Y-11173436D02*
X6436729Y-11182960D01*
X6436729Y-11182960D02*
X6417682Y-11192484D01*
X6417682Y-11192484D02*
X6398634Y-11192484D01*
X6398634Y-11192484D02*
X6379586Y-11182960D01*
X6379586Y-11182960D02*
X6370063Y-11173436D01*
X6370063Y-11173436D02*
X6360539Y-11154389D01*
X6360539Y-11154389D02*
X6351015Y-11116293D01*
X6351015Y-11116293D02*
X6351015Y-11068674D01*
X6351015Y-11068674D02*
X6360539Y-11030579D01*
X6360539Y-11030579D02*
X6370063Y-11011531D01*
X6370063Y-11011531D02*
X6379586Y-11002008D01*
X6379586Y-11002008D02*
X6398634Y-10992484D01*
X6551015Y-11173436D02*
X6560539Y-11182960D01*
X6560539Y-11182960D02*
X6551015Y-11192484D01*
X6551015Y-11192484D02*
X6541491Y-11182960D01*
X6541491Y-11182960D02*
X6551015Y-11173436D01*
X6551015Y-11173436D02*
X6551015Y-11192484D01*
X6684348Y-10992484D02*
X6703396Y-10992484D01*
X6703396Y-10992484D02*
X6722444Y-11002008D01*
X6722444Y-11002008D02*
X6731967Y-11011531D01*
X6731967Y-11011531D02*
X6741491Y-11030579D01*
X6741491Y-11030579D02*
X6751015Y-11068674D01*
X6751015Y-11068674D02*
X6751015Y-11116293D01*
X6751015Y-11116293D02*
X6741491Y-11154389D01*
X6741491Y-11154389D02*
X6731967Y-11173436D01*
X6731967Y-11173436D02*
X6722444Y-11182960D01*
X6722444Y-11182960D02*
X6703396Y-11192484D01*
X6703396Y-11192484D02*
X6684348Y-11192484D01*
X6684348Y-11192484D02*
X6665301Y-11182960D01*
X6665301Y-11182960D02*
X6655777Y-11173436D01*
X6655777Y-11173436D02*
X6646253Y-11154389D01*
X6646253Y-11154389D02*
X6636729Y-11116293D01*
X6636729Y-11116293D02*
X6636729Y-11068674D01*
X6636729Y-11068674D02*
X6646253Y-11030579D01*
X6646253Y-11030579D02*
X6655777Y-11011531D01*
X6655777Y-11011531D02*
X6665301Y-11002008D01*
X6665301Y-11002008D02*
X6684348Y-10992484D01*
X6817682Y-10992484D02*
X6941491Y-10992484D01*
X6941491Y-10992484D02*
X6874825Y-11068674D01*
X6874825Y-11068674D02*
X6903396Y-11068674D01*
X6903396Y-11068674D02*
X6922444Y-11078198D01*
X6922444Y-11078198D02*
X6931967Y-11087722D01*
X6931967Y-11087722D02*
X6941491Y-11106770D01*
X6941491Y-11106770D02*
X6941491Y-11154389D01*
X6941491Y-11154389D02*
X6931967Y-11173436D01*
X6931967Y-11173436D02*
X6922444Y-11182960D01*
X6922444Y-11182960D02*
X6903396Y-11192484D01*
X6903396Y-11192484D02*
X6846253Y-11192484D01*
X6846253Y-11192484D02*
X6827206Y-11182960D01*
X6827206Y-11182960D02*
X6817682Y-11173436D01*
X7122444Y-10992484D02*
X7027206Y-10992484D01*
X7027206Y-10992484D02*
X7017682Y-11087722D01*
X7017682Y-11087722D02*
X7027206Y-11078198D01*
X7027206Y-11078198D02*
X7046253Y-11068674D01*
X7046253Y-11068674D02*
X7093872Y-11068674D01*
X7093872Y-11068674D02*
X7112920Y-11078198D01*
X7112920Y-11078198D02*
X7122444Y-11087722D01*
X7122444Y-11087722D02*
X7131967Y-11106770D01*
X7131967Y-11106770D02*
X7131967Y-11154389D01*
X7131967Y-11154389D02*
X7122444Y-11173436D01*
X7122444Y-11173436D02*
X7112920Y-11182960D01*
X7112920Y-11182960D02*
X7093872Y-11192484D01*
X7093872Y-11192484D02*
X7046253Y-11192484D01*
X7046253Y-11192484D02*
X7027206Y-11182960D01*
X7027206Y-11182960D02*
X7017682Y-11173436D01*
X7303396Y-11059150D02*
X7303396Y-11192484D01*
X7255777Y-10982960D02*
X7208158Y-11125817D01*
X7208158Y-11125817D02*
X7331967Y-11125817D01*
X7398634Y-10992484D02*
X7398634Y-11030579D01*
X7474825Y-10992484D02*
X7474825Y-11030579D01*
X7770063Y-11268674D02*
X7760539Y-11259150D01*
X7760539Y-11259150D02*
X7741491Y-11230579D01*
X7741491Y-11230579D02*
X7731968Y-11211531D01*
X7731968Y-11211531D02*
X7722444Y-11182960D01*
X7722444Y-11182960D02*
X7712920Y-11135341D01*
X7712920Y-11135341D02*
X7712920Y-11097246D01*
X7712920Y-11097246D02*
X7722444Y-11049627D01*
X7722444Y-11049627D02*
X7731968Y-11021055D01*
X7731968Y-11021055D02*
X7741491Y-11002008D01*
X7741491Y-11002008D02*
X7760539Y-10973436D01*
X7760539Y-10973436D02*
X7770063Y-10963912D01*
X7836729Y-11011531D02*
X7846253Y-11002008D01*
X7846253Y-11002008D02*
X7865301Y-10992484D01*
X7865301Y-10992484D02*
X7912920Y-10992484D01*
X7912920Y-10992484D02*
X7931968Y-11002008D01*
X7931968Y-11002008D02*
X7941491Y-11011531D01*
X7941491Y-11011531D02*
X7951015Y-11030579D01*
X7951015Y-11030579D02*
X7951015Y-11049627D01*
X7951015Y-11049627D02*
X7941491Y-11078198D01*
X7941491Y-11078198D02*
X7827206Y-11192484D01*
X7827206Y-11192484D02*
X7951015Y-11192484D01*
X8189110Y-11192484D02*
X8189110Y-10992484D01*
X8274825Y-11192484D02*
X8274825Y-11087722D01*
X8274825Y-11087722D02*
X8265301Y-11068674D01*
X8265301Y-11068674D02*
X8246253Y-11059150D01*
X8246253Y-11059150D02*
X8217682Y-11059150D01*
X8217682Y-11059150D02*
X8198634Y-11068674D01*
X8198634Y-11068674D02*
X8189110Y-11078198D01*
X8398634Y-11192484D02*
X8379587Y-11182960D01*
X8379587Y-11182960D02*
X8370063Y-11173436D01*
X8370063Y-11173436D02*
X8360539Y-11154389D01*
X8360539Y-11154389D02*
X8360539Y-11097246D01*
X8360539Y-11097246D02*
X8370063Y-11078198D01*
X8370063Y-11078198D02*
X8379587Y-11068674D01*
X8379587Y-11068674D02*
X8398634Y-11059150D01*
X8398634Y-11059150D02*
X8427206Y-11059150D01*
X8427206Y-11059150D02*
X8446253Y-11068674D01*
X8446253Y-11068674D02*
X8455777Y-11078198D01*
X8455777Y-11078198D02*
X8465301Y-11097246D01*
X8465301Y-11097246D02*
X8465301Y-11154389D01*
X8465301Y-11154389D02*
X8455777Y-11173436D01*
X8455777Y-11173436D02*
X8446253Y-11182960D01*
X8446253Y-11182960D02*
X8427206Y-11192484D01*
X8427206Y-11192484D02*
X8398634Y-11192484D01*
X8579587Y-11192484D02*
X8560539Y-11182960D01*
X8560539Y-11182960D02*
X8551015Y-11163912D01*
X8551015Y-11163912D02*
X8551015Y-10992484D01*
X8731968Y-11182960D02*
X8712920Y-11192484D01*
X8712920Y-11192484D02*
X8674825Y-11192484D01*
X8674825Y-11192484D02*
X8655777Y-11182960D01*
X8655777Y-11182960D02*
X8646253Y-11163912D01*
X8646253Y-11163912D02*
X8646253Y-11087722D01*
X8646253Y-11087722D02*
X8655777Y-11068674D01*
X8655777Y-11068674D02*
X8674825Y-11059150D01*
X8674825Y-11059150D02*
X8712920Y-11059150D01*
X8712920Y-11059150D02*
X8731968Y-11068674D01*
X8731968Y-11068674D02*
X8741492Y-11087722D01*
X8741492Y-11087722D02*
X8741492Y-11106770D01*
X8741492Y-11106770D02*
X8646253Y-11125817D01*
X8817682Y-11182960D02*
X8836730Y-11192484D01*
X8836730Y-11192484D02*
X8874825Y-11192484D01*
X8874825Y-11192484D02*
X8893873Y-11182960D01*
X8893873Y-11182960D02*
X8903396Y-11163912D01*
X8903396Y-11163912D02*
X8903396Y-11154389D01*
X8903396Y-11154389D02*
X8893873Y-11135341D01*
X8893873Y-11135341D02*
X8874825Y-11125817D01*
X8874825Y-11125817D02*
X8846253Y-11125817D01*
X8846253Y-11125817D02*
X8827206Y-11116293D01*
X8827206Y-11116293D02*
X8817682Y-11097246D01*
X8817682Y-11097246D02*
X8817682Y-11087722D01*
X8817682Y-11087722D02*
X8827206Y-11068674D01*
X8827206Y-11068674D02*
X8846253Y-11059150D01*
X8846253Y-11059150D02*
X8874825Y-11059150D01*
X8874825Y-11059150D02*
X8893873Y-11068674D01*
X8970063Y-11268674D02*
X8979587Y-11259150D01*
X8979587Y-11259150D02*
X8998634Y-11230579D01*
X8998634Y-11230579D02*
X9008158Y-11211531D01*
X9008158Y-11211531D02*
X9017682Y-11182960D01*
X9017682Y-11182960D02*
X9027206Y-11135341D01*
X9027206Y-11135341D02*
X9027206Y-11097246D01*
X9027206Y-11097246D02*
X9017682Y-11049627D01*
X9017682Y-11049627D02*
X9008158Y-11021055D01*
X9008158Y-11021055D02*
X8998634Y-11002008D01*
X8998634Y-11002008D02*
X8979587Y-10973436D01*
X8979587Y-10973436D02*
X8970063Y-10963912D01*
D17*
X4100000Y-11317500D02*
X4195000Y-11412500D01*
X4195000Y-11317500D02*
X4100000Y-11412500D01*
X4195000Y-11365000D02*
G75*
G03*
X4195000Y-11365000I-47500J0D01*
G01*
D11*
X4493872Y-11256484D02*
X4512920Y-11256484D01*
X4512920Y-11256484D02*
X4531967Y-11266008D01*
X4531967Y-11266008D02*
X4541491Y-11275531D01*
X4541491Y-11275531D02*
X4551015Y-11294579D01*
X4551015Y-11294579D02*
X4560539Y-11332674D01*
X4560539Y-11332674D02*
X4560539Y-11380293D01*
X4560539Y-11380293D02*
X4551015Y-11418388D01*
X4551015Y-11418388D02*
X4541491Y-11437436D01*
X4541491Y-11437436D02*
X4531967Y-11446960D01*
X4531967Y-11446960D02*
X4512920Y-11456484D01*
X4512920Y-11456484D02*
X4493872Y-11456484D01*
X4493872Y-11456484D02*
X4474824Y-11446960D01*
X4474824Y-11446960D02*
X4465301Y-11437436D01*
X4465301Y-11437436D02*
X4455777Y-11418388D01*
X4455777Y-11418388D02*
X4446253Y-11380293D01*
X4446253Y-11380293D02*
X4446253Y-11332674D01*
X4446253Y-11332674D02*
X4455777Y-11294579D01*
X4455777Y-11294579D02*
X4465301Y-11275531D01*
X4465301Y-11275531D02*
X4474824Y-11266008D01*
X4474824Y-11266008D02*
X4493872Y-11256484D01*
X4646253Y-11437436D02*
X4655777Y-11446960D01*
X4655777Y-11446960D02*
X4646253Y-11456484D01*
X4646253Y-11456484D02*
X4636729Y-11446960D01*
X4636729Y-11446960D02*
X4646253Y-11437436D01*
X4646253Y-11437436D02*
X4646253Y-11456484D01*
X4751015Y-11456484D02*
X4789110Y-11456484D01*
X4789110Y-11456484D02*
X4808158Y-11446960D01*
X4808158Y-11446960D02*
X4817682Y-11437436D01*
X4817682Y-11437436D02*
X4836729Y-11408865D01*
X4836729Y-11408865D02*
X4846253Y-11370769D01*
X4846253Y-11370769D02*
X4846253Y-11294579D01*
X4846253Y-11294579D02*
X4836729Y-11275531D01*
X4836729Y-11275531D02*
X4827205Y-11266008D01*
X4827205Y-11266008D02*
X4808158Y-11256484D01*
X4808158Y-11256484D02*
X4770063Y-11256484D01*
X4770063Y-11256484D02*
X4751015Y-11266008D01*
X4751015Y-11266008D02*
X4741491Y-11275531D01*
X4741491Y-11275531D02*
X4731967Y-11294579D01*
X4731967Y-11294579D02*
X4731967Y-11342198D01*
X4731967Y-11342198D02*
X4741491Y-11361246D01*
X4741491Y-11361246D02*
X4751015Y-11370769D01*
X4751015Y-11370769D02*
X4770063Y-11380293D01*
X4770063Y-11380293D02*
X4808158Y-11380293D01*
X4808158Y-11380293D02*
X4827205Y-11370769D01*
X4827205Y-11370769D02*
X4836729Y-11361246D01*
X4836729Y-11361246D02*
X4846253Y-11342198D01*
X5027205Y-11256484D02*
X4931967Y-11256484D01*
X4931967Y-11256484D02*
X4922444Y-11351722D01*
X4922444Y-11351722D02*
X4931967Y-11342198D01*
X4931967Y-11342198D02*
X4951015Y-11332674D01*
X4951015Y-11332674D02*
X4998634Y-11332674D01*
X4998634Y-11332674D02*
X5017682Y-11342198D01*
X5017682Y-11342198D02*
X5027205Y-11351722D01*
X5027205Y-11351722D02*
X5036729Y-11370769D01*
X5036729Y-11370769D02*
X5036729Y-11418388D01*
X5036729Y-11418388D02*
X5027205Y-11437436D01*
X5027205Y-11437436D02*
X5017682Y-11446960D01*
X5017682Y-11446960D02*
X4998634Y-11456484D01*
X4998634Y-11456484D02*
X4951015Y-11456484D01*
X4951015Y-11456484D02*
X4931967Y-11446960D01*
X4931967Y-11446960D02*
X4922444Y-11437436D01*
X5160539Y-11256484D02*
X5179586Y-11256484D01*
X5179586Y-11256484D02*
X5198634Y-11266008D01*
X5198634Y-11266008D02*
X5208158Y-11275531D01*
X5208158Y-11275531D02*
X5217682Y-11294579D01*
X5217682Y-11294579D02*
X5227205Y-11332674D01*
X5227205Y-11332674D02*
X5227205Y-11380293D01*
X5227205Y-11380293D02*
X5217682Y-11418388D01*
X5217682Y-11418388D02*
X5208158Y-11437436D01*
X5208158Y-11437436D02*
X5198634Y-11446960D01*
X5198634Y-11446960D02*
X5179586Y-11456484D01*
X5179586Y-11456484D02*
X5160539Y-11456484D01*
X5160539Y-11456484D02*
X5141491Y-11446960D01*
X5141491Y-11446960D02*
X5131967Y-11437436D01*
X5131967Y-11437436D02*
X5122444Y-11418388D01*
X5122444Y-11418388D02*
X5112920Y-11380293D01*
X5112920Y-11380293D02*
X5112920Y-11332674D01*
X5112920Y-11332674D02*
X5122444Y-11294579D01*
X5122444Y-11294579D02*
X5131967Y-11275531D01*
X5131967Y-11275531D02*
X5141491Y-11266008D01*
X5141491Y-11266008D02*
X5160539Y-11256484D01*
X5312920Y-11456484D02*
X5312920Y-11323150D01*
X5312920Y-11342198D02*
X5322444Y-11332674D01*
X5322444Y-11332674D02*
X5341491Y-11323150D01*
X5341491Y-11323150D02*
X5370063Y-11323150D01*
X5370063Y-11323150D02*
X5389110Y-11332674D01*
X5389110Y-11332674D02*
X5398634Y-11351722D01*
X5398634Y-11351722D02*
X5398634Y-11456484D01*
X5398634Y-11351722D02*
X5408158Y-11332674D01*
X5408158Y-11332674D02*
X5427205Y-11323150D01*
X5427205Y-11323150D02*
X5455777Y-11323150D01*
X5455777Y-11323150D02*
X5474825Y-11332674D01*
X5474825Y-11332674D02*
X5484348Y-11351722D01*
X5484348Y-11351722D02*
X5484348Y-11456484D01*
X5579586Y-11456484D02*
X5579586Y-11323150D01*
X5579586Y-11342198D02*
X5589110Y-11332674D01*
X5589110Y-11332674D02*
X5608158Y-11323150D01*
X5608158Y-11323150D02*
X5636729Y-11323150D01*
X5636729Y-11323150D02*
X5655777Y-11332674D01*
X5655777Y-11332674D02*
X5665301Y-11351722D01*
X5665301Y-11351722D02*
X5665301Y-11456484D01*
X5665301Y-11351722D02*
X5674824Y-11332674D01*
X5674824Y-11332674D02*
X5693872Y-11323150D01*
X5693872Y-11323150D02*
X5722443Y-11323150D01*
X5722443Y-11323150D02*
X5741491Y-11332674D01*
X5741491Y-11332674D02*
X5751015Y-11351722D01*
X5751015Y-11351722D02*
X5751015Y-11456484D01*
X6141491Y-11246960D02*
X5970063Y-11504103D01*
X6398634Y-11256484D02*
X6417682Y-11256484D01*
X6417682Y-11256484D02*
X6436729Y-11266008D01*
X6436729Y-11266008D02*
X6446253Y-11275531D01*
X6446253Y-11275531D02*
X6455777Y-11294579D01*
X6455777Y-11294579D02*
X6465301Y-11332674D01*
X6465301Y-11332674D02*
X6465301Y-11380293D01*
X6465301Y-11380293D02*
X6455777Y-11418388D01*
X6455777Y-11418388D02*
X6446253Y-11437436D01*
X6446253Y-11437436D02*
X6436729Y-11446960D01*
X6436729Y-11446960D02*
X6417682Y-11456484D01*
X6417682Y-11456484D02*
X6398634Y-11456484D01*
X6398634Y-11456484D02*
X6379586Y-11446960D01*
X6379586Y-11446960D02*
X6370063Y-11437436D01*
X6370063Y-11437436D02*
X6360539Y-11418388D01*
X6360539Y-11418388D02*
X6351015Y-11380293D01*
X6351015Y-11380293D02*
X6351015Y-11332674D01*
X6351015Y-11332674D02*
X6360539Y-11294579D01*
X6360539Y-11294579D02*
X6370063Y-11275531D01*
X6370063Y-11275531D02*
X6379586Y-11266008D01*
X6379586Y-11266008D02*
X6398634Y-11256484D01*
X6551015Y-11437436D02*
X6560539Y-11446960D01*
X6560539Y-11446960D02*
X6551015Y-11456484D01*
X6551015Y-11456484D02*
X6541491Y-11446960D01*
X6541491Y-11446960D02*
X6551015Y-11437436D01*
X6551015Y-11437436D02*
X6551015Y-11456484D01*
X6684348Y-11256484D02*
X6703396Y-11256484D01*
X6703396Y-11256484D02*
X6722444Y-11266008D01*
X6722444Y-11266008D02*
X6731967Y-11275531D01*
X6731967Y-11275531D02*
X6741491Y-11294579D01*
X6741491Y-11294579D02*
X6751015Y-11332674D01*
X6751015Y-11332674D02*
X6751015Y-11380293D01*
X6751015Y-11380293D02*
X6741491Y-11418388D01*
X6741491Y-11418388D02*
X6731967Y-11437436D01*
X6731967Y-11437436D02*
X6722444Y-11446960D01*
X6722444Y-11446960D02*
X6703396Y-11456484D01*
X6703396Y-11456484D02*
X6684348Y-11456484D01*
X6684348Y-11456484D02*
X6665301Y-11446960D01*
X6665301Y-11446960D02*
X6655777Y-11437436D01*
X6655777Y-11437436D02*
X6646253Y-11418388D01*
X6646253Y-11418388D02*
X6636729Y-11380293D01*
X6636729Y-11380293D02*
X6636729Y-11332674D01*
X6636729Y-11332674D02*
X6646253Y-11294579D01*
X6646253Y-11294579D02*
X6655777Y-11275531D01*
X6655777Y-11275531D02*
X6665301Y-11266008D01*
X6665301Y-11266008D02*
X6684348Y-11256484D01*
X6817682Y-11256484D02*
X6941491Y-11256484D01*
X6941491Y-11256484D02*
X6874825Y-11332674D01*
X6874825Y-11332674D02*
X6903396Y-11332674D01*
X6903396Y-11332674D02*
X6922444Y-11342198D01*
X6922444Y-11342198D02*
X6931967Y-11351722D01*
X6931967Y-11351722D02*
X6941491Y-11370769D01*
X6941491Y-11370769D02*
X6941491Y-11418388D01*
X6941491Y-11418388D02*
X6931967Y-11437436D01*
X6931967Y-11437436D02*
X6922444Y-11446960D01*
X6922444Y-11446960D02*
X6903396Y-11456484D01*
X6903396Y-11456484D02*
X6846253Y-11456484D01*
X6846253Y-11456484D02*
X6827206Y-11446960D01*
X6827206Y-11446960D02*
X6817682Y-11437436D01*
X7008158Y-11256484D02*
X7141491Y-11256484D01*
X7141491Y-11256484D02*
X7055777Y-11456484D01*
X7303396Y-11323150D02*
X7303396Y-11456484D01*
X7255777Y-11246960D02*
X7208158Y-11389817D01*
X7208158Y-11389817D02*
X7331967Y-11389817D01*
X7398634Y-11256484D02*
X7398634Y-11294579D01*
X7474825Y-11256484D02*
X7474825Y-11294579D01*
X7770063Y-11532674D02*
X7760539Y-11523150D01*
X7760539Y-11523150D02*
X7741491Y-11494579D01*
X7741491Y-11494579D02*
X7731968Y-11475531D01*
X7731968Y-11475531D02*
X7722444Y-11446960D01*
X7722444Y-11446960D02*
X7712920Y-11399341D01*
X7712920Y-11399341D02*
X7712920Y-11361246D01*
X7712920Y-11361246D02*
X7722444Y-11313627D01*
X7722444Y-11313627D02*
X7731968Y-11285055D01*
X7731968Y-11285055D02*
X7741491Y-11266008D01*
X7741491Y-11266008D02*
X7760539Y-11237436D01*
X7760539Y-11237436D02*
X7770063Y-11227912D01*
X7855777Y-11456484D02*
X7893872Y-11456484D01*
X7893872Y-11456484D02*
X7912920Y-11446960D01*
X7912920Y-11446960D02*
X7922444Y-11437436D01*
X7922444Y-11437436D02*
X7941491Y-11408865D01*
X7941491Y-11408865D02*
X7951015Y-11370769D01*
X7951015Y-11370769D02*
X7951015Y-11294579D01*
X7951015Y-11294579D02*
X7941491Y-11275531D01*
X7941491Y-11275531D02*
X7931968Y-11266008D01*
X7931968Y-11266008D02*
X7912920Y-11256484D01*
X7912920Y-11256484D02*
X7874825Y-11256484D01*
X7874825Y-11256484D02*
X7855777Y-11266008D01*
X7855777Y-11266008D02*
X7846253Y-11275531D01*
X7846253Y-11275531D02*
X7836729Y-11294579D01*
X7836729Y-11294579D02*
X7836729Y-11342198D01*
X7836729Y-11342198D02*
X7846253Y-11361246D01*
X7846253Y-11361246D02*
X7855777Y-11370769D01*
X7855777Y-11370769D02*
X7874825Y-11380293D01*
X7874825Y-11380293D02*
X7912920Y-11380293D01*
X7912920Y-11380293D02*
X7931968Y-11370769D01*
X7931968Y-11370769D02*
X7941491Y-11361246D01*
X7941491Y-11361246D02*
X7951015Y-11342198D01*
X8189110Y-11456484D02*
X8189110Y-11256484D01*
X8274825Y-11456484D02*
X8274825Y-11351722D01*
X8274825Y-11351722D02*
X8265301Y-11332674D01*
X8265301Y-11332674D02*
X8246253Y-11323150D01*
X8246253Y-11323150D02*
X8217682Y-11323150D01*
X8217682Y-11323150D02*
X8198634Y-11332674D01*
X8198634Y-11332674D02*
X8189110Y-11342198D01*
X8398634Y-11456484D02*
X8379587Y-11446960D01*
X8379587Y-11446960D02*
X8370063Y-11437436D01*
X8370063Y-11437436D02*
X8360539Y-11418388D01*
X8360539Y-11418388D02*
X8360539Y-11361246D01*
X8360539Y-11361246D02*
X8370063Y-11342198D01*
X8370063Y-11342198D02*
X8379587Y-11332674D01*
X8379587Y-11332674D02*
X8398634Y-11323150D01*
X8398634Y-11323150D02*
X8427206Y-11323150D01*
X8427206Y-11323150D02*
X8446253Y-11332674D01*
X8446253Y-11332674D02*
X8455777Y-11342198D01*
X8455777Y-11342198D02*
X8465301Y-11361246D01*
X8465301Y-11361246D02*
X8465301Y-11418388D01*
X8465301Y-11418388D02*
X8455777Y-11437436D01*
X8455777Y-11437436D02*
X8446253Y-11446960D01*
X8446253Y-11446960D02*
X8427206Y-11456484D01*
X8427206Y-11456484D02*
X8398634Y-11456484D01*
X8579587Y-11456484D02*
X8560539Y-11446960D01*
X8560539Y-11446960D02*
X8551015Y-11427912D01*
X8551015Y-11427912D02*
X8551015Y-11256484D01*
X8731968Y-11446960D02*
X8712920Y-11456484D01*
X8712920Y-11456484D02*
X8674825Y-11456484D01*
X8674825Y-11456484D02*
X8655777Y-11446960D01*
X8655777Y-11446960D02*
X8646253Y-11427912D01*
X8646253Y-11427912D02*
X8646253Y-11351722D01*
X8646253Y-11351722D02*
X8655777Y-11332674D01*
X8655777Y-11332674D02*
X8674825Y-11323150D01*
X8674825Y-11323150D02*
X8712920Y-11323150D01*
X8712920Y-11323150D02*
X8731968Y-11332674D01*
X8731968Y-11332674D02*
X8741492Y-11351722D01*
X8741492Y-11351722D02*
X8741492Y-11370769D01*
X8741492Y-11370769D02*
X8646253Y-11389817D01*
X8817682Y-11446960D02*
X8836730Y-11456484D01*
X8836730Y-11456484D02*
X8874825Y-11456484D01*
X8874825Y-11456484D02*
X8893873Y-11446960D01*
X8893873Y-11446960D02*
X8903396Y-11427912D01*
X8903396Y-11427912D02*
X8903396Y-11418388D01*
X8903396Y-11418388D02*
X8893873Y-11399341D01*
X8893873Y-11399341D02*
X8874825Y-11389817D01*
X8874825Y-11389817D02*
X8846253Y-11389817D01*
X8846253Y-11389817D02*
X8827206Y-11380293D01*
X8827206Y-11380293D02*
X8817682Y-11361246D01*
X8817682Y-11361246D02*
X8817682Y-11351722D01*
X8817682Y-11351722D02*
X8827206Y-11332674D01*
X8827206Y-11332674D02*
X8846253Y-11323150D01*
X8846253Y-11323150D02*
X8874825Y-11323150D01*
X8874825Y-11323150D02*
X8893873Y-11332674D01*
X8970063Y-11532674D02*
X8979587Y-11523150D01*
X8979587Y-11523150D02*
X8998634Y-11494579D01*
X8998634Y-11494579D02*
X9008158Y-11475531D01*
X9008158Y-11475531D02*
X9017682Y-11446960D01*
X9017682Y-11446960D02*
X9027206Y-11399341D01*
X9027206Y-11399341D02*
X9027206Y-11361246D01*
X9027206Y-11361246D02*
X9017682Y-11313627D01*
X9017682Y-11313627D02*
X9008158Y-11285055D01*
X9008158Y-11285055D02*
X8998634Y-11266008D01*
X8998634Y-11266008D02*
X8979587Y-11237436D01*
X8979587Y-11237436D02*
X8970063Y-11227912D01*
D10*
X4095000Y-11579000D02*
X4195000Y-11679000D01*
X4195000Y-11579000D02*
X4095000Y-11679000D01*
X4145000Y-11579000D02*
X4145000Y-11679000D01*
X4095000Y-11629000D02*
X4195000Y-11629000D01*
D11*
X4560539Y-11720484D02*
X4446253Y-11720484D01*
X4503396Y-11720484D02*
X4503396Y-11520484D01*
X4503396Y-11520484D02*
X4484348Y-11549055D01*
X4484348Y-11549055D02*
X4465301Y-11568103D01*
X4465301Y-11568103D02*
X4446253Y-11577627D01*
X4646253Y-11701436D02*
X4655777Y-11710960D01*
X4655777Y-11710960D02*
X4646253Y-11720484D01*
X4646253Y-11720484D02*
X4636729Y-11710960D01*
X4636729Y-11710960D02*
X4646253Y-11701436D01*
X4646253Y-11701436D02*
X4646253Y-11720484D01*
X4779586Y-11520484D02*
X4798634Y-11520484D01*
X4798634Y-11520484D02*
X4817682Y-11530008D01*
X4817682Y-11530008D02*
X4827205Y-11539531D01*
X4827205Y-11539531D02*
X4836729Y-11558579D01*
X4836729Y-11558579D02*
X4846253Y-11596674D01*
X4846253Y-11596674D02*
X4846253Y-11644293D01*
X4846253Y-11644293D02*
X4836729Y-11682388D01*
X4836729Y-11682388D02*
X4827205Y-11701436D01*
X4827205Y-11701436D02*
X4817682Y-11710960D01*
X4817682Y-11710960D02*
X4798634Y-11720484D01*
X4798634Y-11720484D02*
X4779586Y-11720484D01*
X4779586Y-11720484D02*
X4760539Y-11710960D01*
X4760539Y-11710960D02*
X4751015Y-11701436D01*
X4751015Y-11701436D02*
X4741491Y-11682388D01*
X4741491Y-11682388D02*
X4731967Y-11644293D01*
X4731967Y-11644293D02*
X4731967Y-11596674D01*
X4731967Y-11596674D02*
X4741491Y-11558579D01*
X4741491Y-11558579D02*
X4751015Y-11539531D01*
X4751015Y-11539531D02*
X4760539Y-11530008D01*
X4760539Y-11530008D02*
X4779586Y-11520484D01*
X4970063Y-11520484D02*
X4989110Y-11520484D01*
X4989110Y-11520484D02*
X5008158Y-11530008D01*
X5008158Y-11530008D02*
X5017682Y-11539531D01*
X5017682Y-11539531D02*
X5027205Y-11558579D01*
X5027205Y-11558579D02*
X5036729Y-11596674D01*
X5036729Y-11596674D02*
X5036729Y-11644293D01*
X5036729Y-11644293D02*
X5027205Y-11682388D01*
X5027205Y-11682388D02*
X5017682Y-11701436D01*
X5017682Y-11701436D02*
X5008158Y-11710960D01*
X5008158Y-11710960D02*
X4989110Y-11720484D01*
X4989110Y-11720484D02*
X4970063Y-11720484D01*
X4970063Y-11720484D02*
X4951015Y-11710960D01*
X4951015Y-11710960D02*
X4941491Y-11701436D01*
X4941491Y-11701436D02*
X4931967Y-11682388D01*
X4931967Y-11682388D02*
X4922444Y-11644293D01*
X4922444Y-11644293D02*
X4922444Y-11596674D01*
X4922444Y-11596674D02*
X4931967Y-11558579D01*
X4931967Y-11558579D02*
X4941491Y-11539531D01*
X4941491Y-11539531D02*
X4951015Y-11530008D01*
X4951015Y-11530008D02*
X4970063Y-11520484D01*
X5160539Y-11520484D02*
X5179586Y-11520484D01*
X5179586Y-11520484D02*
X5198634Y-11530008D01*
X5198634Y-11530008D02*
X5208158Y-11539531D01*
X5208158Y-11539531D02*
X5217682Y-11558579D01*
X5217682Y-11558579D02*
X5227205Y-11596674D01*
X5227205Y-11596674D02*
X5227205Y-11644293D01*
X5227205Y-11644293D02*
X5217682Y-11682388D01*
X5217682Y-11682388D02*
X5208158Y-11701436D01*
X5208158Y-11701436D02*
X5198634Y-11710960D01*
X5198634Y-11710960D02*
X5179586Y-11720484D01*
X5179586Y-11720484D02*
X5160539Y-11720484D01*
X5160539Y-11720484D02*
X5141491Y-11710960D01*
X5141491Y-11710960D02*
X5131967Y-11701436D01*
X5131967Y-11701436D02*
X5122444Y-11682388D01*
X5122444Y-11682388D02*
X5112920Y-11644293D01*
X5112920Y-11644293D02*
X5112920Y-11596674D01*
X5112920Y-11596674D02*
X5122444Y-11558579D01*
X5122444Y-11558579D02*
X5131967Y-11539531D01*
X5131967Y-11539531D02*
X5141491Y-11530008D01*
X5141491Y-11530008D02*
X5160539Y-11520484D01*
X5312920Y-11720484D02*
X5312920Y-11587150D01*
X5312920Y-11606198D02*
X5322444Y-11596674D01*
X5322444Y-11596674D02*
X5341491Y-11587150D01*
X5341491Y-11587150D02*
X5370063Y-11587150D01*
X5370063Y-11587150D02*
X5389110Y-11596674D01*
X5389110Y-11596674D02*
X5398634Y-11615722D01*
X5398634Y-11615722D02*
X5398634Y-11720484D01*
X5398634Y-11615722D02*
X5408158Y-11596674D01*
X5408158Y-11596674D02*
X5427205Y-11587150D01*
X5427205Y-11587150D02*
X5455777Y-11587150D01*
X5455777Y-11587150D02*
X5474825Y-11596674D01*
X5474825Y-11596674D02*
X5484348Y-11615722D01*
X5484348Y-11615722D02*
X5484348Y-11720484D01*
X5579586Y-11720484D02*
X5579586Y-11587150D01*
X5579586Y-11606198D02*
X5589110Y-11596674D01*
X5589110Y-11596674D02*
X5608158Y-11587150D01*
X5608158Y-11587150D02*
X5636729Y-11587150D01*
X5636729Y-11587150D02*
X5655777Y-11596674D01*
X5655777Y-11596674D02*
X5665301Y-11615722D01*
X5665301Y-11615722D02*
X5665301Y-11720484D01*
X5665301Y-11615722D02*
X5674824Y-11596674D01*
X5674824Y-11596674D02*
X5693872Y-11587150D01*
X5693872Y-11587150D02*
X5722443Y-11587150D01*
X5722443Y-11587150D02*
X5741491Y-11596674D01*
X5741491Y-11596674D02*
X5751015Y-11615722D01*
X5751015Y-11615722D02*
X5751015Y-11720484D01*
X6141491Y-11510960D02*
X5970063Y-11768103D01*
X6398634Y-11520484D02*
X6417682Y-11520484D01*
X6417682Y-11520484D02*
X6436729Y-11530008D01*
X6436729Y-11530008D02*
X6446253Y-11539531D01*
X6446253Y-11539531D02*
X6455777Y-11558579D01*
X6455777Y-11558579D02*
X6465301Y-11596674D01*
X6465301Y-11596674D02*
X6465301Y-11644293D01*
X6465301Y-11644293D02*
X6455777Y-11682388D01*
X6455777Y-11682388D02*
X6446253Y-11701436D01*
X6446253Y-11701436D02*
X6436729Y-11710960D01*
X6436729Y-11710960D02*
X6417682Y-11720484D01*
X6417682Y-11720484D02*
X6398634Y-11720484D01*
X6398634Y-11720484D02*
X6379586Y-11710960D01*
X6379586Y-11710960D02*
X6370063Y-11701436D01*
X6370063Y-11701436D02*
X6360539Y-11682388D01*
X6360539Y-11682388D02*
X6351015Y-11644293D01*
X6351015Y-11644293D02*
X6351015Y-11596674D01*
X6351015Y-11596674D02*
X6360539Y-11558579D01*
X6360539Y-11558579D02*
X6370063Y-11539531D01*
X6370063Y-11539531D02*
X6379586Y-11530008D01*
X6379586Y-11530008D02*
X6398634Y-11520484D01*
X6551015Y-11701436D02*
X6560539Y-11710960D01*
X6560539Y-11710960D02*
X6551015Y-11720484D01*
X6551015Y-11720484D02*
X6541491Y-11710960D01*
X6541491Y-11710960D02*
X6551015Y-11701436D01*
X6551015Y-11701436D02*
X6551015Y-11720484D01*
X6684348Y-11520484D02*
X6703396Y-11520484D01*
X6703396Y-11520484D02*
X6722444Y-11530008D01*
X6722444Y-11530008D02*
X6731967Y-11539531D01*
X6731967Y-11539531D02*
X6741491Y-11558579D01*
X6741491Y-11558579D02*
X6751015Y-11596674D01*
X6751015Y-11596674D02*
X6751015Y-11644293D01*
X6751015Y-11644293D02*
X6741491Y-11682388D01*
X6741491Y-11682388D02*
X6731967Y-11701436D01*
X6731967Y-11701436D02*
X6722444Y-11710960D01*
X6722444Y-11710960D02*
X6703396Y-11720484D01*
X6703396Y-11720484D02*
X6684348Y-11720484D01*
X6684348Y-11720484D02*
X6665301Y-11710960D01*
X6665301Y-11710960D02*
X6655777Y-11701436D01*
X6655777Y-11701436D02*
X6646253Y-11682388D01*
X6646253Y-11682388D02*
X6636729Y-11644293D01*
X6636729Y-11644293D02*
X6636729Y-11596674D01*
X6636729Y-11596674D02*
X6646253Y-11558579D01*
X6646253Y-11558579D02*
X6655777Y-11539531D01*
X6655777Y-11539531D02*
X6665301Y-11530008D01*
X6665301Y-11530008D02*
X6684348Y-11520484D01*
X6817682Y-11520484D02*
X6941491Y-11520484D01*
X6941491Y-11520484D02*
X6874825Y-11596674D01*
X6874825Y-11596674D02*
X6903396Y-11596674D01*
X6903396Y-11596674D02*
X6922444Y-11606198D01*
X6922444Y-11606198D02*
X6931967Y-11615722D01*
X6931967Y-11615722D02*
X6941491Y-11634769D01*
X6941491Y-11634769D02*
X6941491Y-11682388D01*
X6941491Y-11682388D02*
X6931967Y-11701436D01*
X6931967Y-11701436D02*
X6922444Y-11710960D01*
X6922444Y-11710960D02*
X6903396Y-11720484D01*
X6903396Y-11720484D02*
X6846253Y-11720484D01*
X6846253Y-11720484D02*
X6827206Y-11710960D01*
X6827206Y-11710960D02*
X6817682Y-11701436D01*
X7036729Y-11720484D02*
X7074825Y-11720484D01*
X7074825Y-11720484D02*
X7093872Y-11710960D01*
X7093872Y-11710960D02*
X7103396Y-11701436D01*
X7103396Y-11701436D02*
X7122444Y-11672865D01*
X7122444Y-11672865D02*
X7131967Y-11634769D01*
X7131967Y-11634769D02*
X7131967Y-11558579D01*
X7131967Y-11558579D02*
X7122444Y-11539531D01*
X7122444Y-11539531D02*
X7112920Y-11530008D01*
X7112920Y-11530008D02*
X7093872Y-11520484D01*
X7093872Y-11520484D02*
X7055777Y-11520484D01*
X7055777Y-11520484D02*
X7036729Y-11530008D01*
X7036729Y-11530008D02*
X7027206Y-11539531D01*
X7027206Y-11539531D02*
X7017682Y-11558579D01*
X7017682Y-11558579D02*
X7017682Y-11606198D01*
X7017682Y-11606198D02*
X7027206Y-11625246D01*
X7027206Y-11625246D02*
X7036729Y-11634769D01*
X7036729Y-11634769D02*
X7055777Y-11644293D01*
X7055777Y-11644293D02*
X7093872Y-11644293D01*
X7093872Y-11644293D02*
X7112920Y-11634769D01*
X7112920Y-11634769D02*
X7122444Y-11625246D01*
X7122444Y-11625246D02*
X7131967Y-11606198D01*
X7303396Y-11587150D02*
X7303396Y-11720484D01*
X7255777Y-11510960D02*
X7208158Y-11653817D01*
X7208158Y-11653817D02*
X7331967Y-11653817D01*
X7398634Y-11520484D02*
X7398634Y-11558579D01*
X7474825Y-11520484D02*
X7474825Y-11558579D01*
X7770063Y-11796674D02*
X7760539Y-11787150D01*
X7760539Y-11787150D02*
X7741491Y-11758579D01*
X7741491Y-11758579D02*
X7731968Y-11739531D01*
X7731968Y-11739531D02*
X7722444Y-11710960D01*
X7722444Y-11710960D02*
X7712920Y-11663341D01*
X7712920Y-11663341D02*
X7712920Y-11625246D01*
X7712920Y-11625246D02*
X7722444Y-11577627D01*
X7722444Y-11577627D02*
X7731968Y-11549055D01*
X7731968Y-11549055D02*
X7741491Y-11530008D01*
X7741491Y-11530008D02*
X7760539Y-11501436D01*
X7760539Y-11501436D02*
X7770063Y-11491912D01*
X7827206Y-11520484D02*
X7951015Y-11520484D01*
X7951015Y-11520484D02*
X7884348Y-11596674D01*
X7884348Y-11596674D02*
X7912920Y-11596674D01*
X7912920Y-11596674D02*
X7931968Y-11606198D01*
X7931968Y-11606198D02*
X7941491Y-11615722D01*
X7941491Y-11615722D02*
X7951015Y-11634769D01*
X7951015Y-11634769D02*
X7951015Y-11682388D01*
X7951015Y-11682388D02*
X7941491Y-11701436D01*
X7941491Y-11701436D02*
X7931968Y-11710960D01*
X7931968Y-11710960D02*
X7912920Y-11720484D01*
X7912920Y-11720484D02*
X7855777Y-11720484D01*
X7855777Y-11720484D02*
X7836729Y-11710960D01*
X7836729Y-11710960D02*
X7827206Y-11701436D01*
X8046253Y-11720484D02*
X8084348Y-11720484D01*
X8084348Y-11720484D02*
X8103396Y-11710960D01*
X8103396Y-11710960D02*
X8112920Y-11701436D01*
X8112920Y-11701436D02*
X8131968Y-11672865D01*
X8131968Y-11672865D02*
X8141491Y-11634769D01*
X8141491Y-11634769D02*
X8141491Y-11558579D01*
X8141491Y-11558579D02*
X8131968Y-11539531D01*
X8131968Y-11539531D02*
X8122444Y-11530008D01*
X8122444Y-11530008D02*
X8103396Y-11520484D01*
X8103396Y-11520484D02*
X8065301Y-11520484D01*
X8065301Y-11520484D02*
X8046253Y-11530008D01*
X8046253Y-11530008D02*
X8036729Y-11539531D01*
X8036729Y-11539531D02*
X8027206Y-11558579D01*
X8027206Y-11558579D02*
X8027206Y-11606198D01*
X8027206Y-11606198D02*
X8036729Y-11625246D01*
X8036729Y-11625246D02*
X8046253Y-11634769D01*
X8046253Y-11634769D02*
X8065301Y-11644293D01*
X8065301Y-11644293D02*
X8103396Y-11644293D01*
X8103396Y-11644293D02*
X8122444Y-11634769D01*
X8122444Y-11634769D02*
X8131968Y-11625246D01*
X8131968Y-11625246D02*
X8141491Y-11606198D01*
X8379587Y-11720484D02*
X8379587Y-11520484D01*
X8465301Y-11720484D02*
X8465301Y-11615722D01*
X8465301Y-11615722D02*
X8455777Y-11596674D01*
X8455777Y-11596674D02*
X8436730Y-11587150D01*
X8436730Y-11587150D02*
X8408158Y-11587150D01*
X8408158Y-11587150D02*
X8389111Y-11596674D01*
X8389111Y-11596674D02*
X8379587Y-11606198D01*
X8589111Y-11720484D02*
X8570063Y-11710960D01*
X8570063Y-11710960D02*
X8560539Y-11701436D01*
X8560539Y-11701436D02*
X8551015Y-11682388D01*
X8551015Y-11682388D02*
X8551015Y-11625246D01*
X8551015Y-11625246D02*
X8560539Y-11606198D01*
X8560539Y-11606198D02*
X8570063Y-11596674D01*
X8570063Y-11596674D02*
X8589111Y-11587150D01*
X8589111Y-11587150D02*
X8617682Y-11587150D01*
X8617682Y-11587150D02*
X8636730Y-11596674D01*
X8636730Y-11596674D02*
X8646253Y-11606198D01*
X8646253Y-11606198D02*
X8655777Y-11625246D01*
X8655777Y-11625246D02*
X8655777Y-11682388D01*
X8655777Y-11682388D02*
X8646253Y-11701436D01*
X8646253Y-11701436D02*
X8636730Y-11710960D01*
X8636730Y-11710960D02*
X8617682Y-11720484D01*
X8617682Y-11720484D02*
X8589111Y-11720484D01*
X8770063Y-11720484D02*
X8751015Y-11710960D01*
X8751015Y-11710960D02*
X8741492Y-11691912D01*
X8741492Y-11691912D02*
X8741492Y-11520484D01*
X8922444Y-11710960D02*
X8903396Y-11720484D01*
X8903396Y-11720484D02*
X8865301Y-11720484D01*
X8865301Y-11720484D02*
X8846253Y-11710960D01*
X8846253Y-11710960D02*
X8836730Y-11691912D01*
X8836730Y-11691912D02*
X8836730Y-11615722D01*
X8836730Y-11615722D02*
X8846253Y-11596674D01*
X8846253Y-11596674D02*
X8865301Y-11587150D01*
X8865301Y-11587150D02*
X8903396Y-11587150D01*
X8903396Y-11587150D02*
X8922444Y-11596674D01*
X8922444Y-11596674D02*
X8931968Y-11615722D01*
X8931968Y-11615722D02*
X8931968Y-11634769D01*
X8931968Y-11634769D02*
X8836730Y-11653817D01*
X9008158Y-11710960D02*
X9027206Y-11720484D01*
X9027206Y-11720484D02*
X9065301Y-11720484D01*
X9065301Y-11720484D02*
X9084349Y-11710960D01*
X9084349Y-11710960D02*
X9093873Y-11691912D01*
X9093873Y-11691912D02*
X9093873Y-11682388D01*
X9093873Y-11682388D02*
X9084349Y-11663341D01*
X9084349Y-11663341D02*
X9065301Y-11653817D01*
X9065301Y-11653817D02*
X9036730Y-11653817D01*
X9036730Y-11653817D02*
X9017682Y-11644293D01*
X9017682Y-11644293D02*
X9008158Y-11625246D01*
X9008158Y-11625246D02*
X9008158Y-11615722D01*
X9008158Y-11615722D02*
X9017682Y-11596674D01*
X9017682Y-11596674D02*
X9036730Y-11587150D01*
X9036730Y-11587150D02*
X9065301Y-11587150D01*
X9065301Y-11587150D02*
X9084349Y-11596674D01*
X9160539Y-11796674D02*
X9170063Y-11787150D01*
X9170063Y-11787150D02*
X9189111Y-11758579D01*
X9189111Y-11758579D02*
X9198634Y-11739531D01*
X9198634Y-11739531D02*
X9208158Y-11710960D01*
X9208158Y-11710960D02*
X9217682Y-11663341D01*
X9217682Y-11663341D02*
X9217682Y-11625246D01*
X9217682Y-11625246D02*
X9208158Y-11577627D01*
X9208158Y-11577627D02*
X9198634Y-11549055D01*
X9198634Y-11549055D02*
X9189111Y-11530008D01*
X9189111Y-11530008D02*
X9170063Y-11501436D01*
X9170063Y-11501436D02*
X9160539Y-11491912D01*
D18*
X4075000Y-11833000D02*
X4195000Y-11953000D01*
X4195000Y-11833000D02*
X4075000Y-11953000D01*
X4177427Y-11935427D02*
X4177427Y-11850573D01*
X4092573Y-11850573D01*
X4092573Y-11935427D01*
X4177427Y-11935427D01*
D11*
X4560539Y-11984484D02*
X4446253Y-11984484D01*
X4503396Y-11984484D02*
X4503396Y-11784484D01*
X4503396Y-11784484D02*
X4484348Y-11813055D01*
X4484348Y-11813055D02*
X4465301Y-11832103D01*
X4465301Y-11832103D02*
X4446253Y-11841627D01*
X4646253Y-11965436D02*
X4655777Y-11974960D01*
X4655777Y-11974960D02*
X4646253Y-11984484D01*
X4646253Y-11984484D02*
X4636729Y-11974960D01*
X4636729Y-11974960D02*
X4646253Y-11965436D01*
X4646253Y-11965436D02*
X4646253Y-11984484D01*
X4731967Y-11803531D02*
X4741491Y-11794008D01*
X4741491Y-11794008D02*
X4760539Y-11784484D01*
X4760539Y-11784484D02*
X4808158Y-11784484D01*
X4808158Y-11784484D02*
X4827205Y-11794008D01*
X4827205Y-11794008D02*
X4836729Y-11803531D01*
X4836729Y-11803531D02*
X4846253Y-11822579D01*
X4846253Y-11822579D02*
X4846253Y-11841627D01*
X4846253Y-11841627D02*
X4836729Y-11870198D01*
X4836729Y-11870198D02*
X4722444Y-11984484D01*
X4722444Y-11984484D02*
X4846253Y-11984484D01*
X4970063Y-11784484D02*
X4989110Y-11784484D01*
X4989110Y-11784484D02*
X5008158Y-11794008D01*
X5008158Y-11794008D02*
X5017682Y-11803531D01*
X5017682Y-11803531D02*
X5027205Y-11822579D01*
X5027205Y-11822579D02*
X5036729Y-11860674D01*
X5036729Y-11860674D02*
X5036729Y-11908293D01*
X5036729Y-11908293D02*
X5027205Y-11946388D01*
X5027205Y-11946388D02*
X5017682Y-11965436D01*
X5017682Y-11965436D02*
X5008158Y-11974960D01*
X5008158Y-11974960D02*
X4989110Y-11984484D01*
X4989110Y-11984484D02*
X4970063Y-11984484D01*
X4970063Y-11984484D02*
X4951015Y-11974960D01*
X4951015Y-11974960D02*
X4941491Y-11965436D01*
X4941491Y-11965436D02*
X4931967Y-11946388D01*
X4931967Y-11946388D02*
X4922444Y-11908293D01*
X4922444Y-11908293D02*
X4922444Y-11860674D01*
X4922444Y-11860674D02*
X4931967Y-11822579D01*
X4931967Y-11822579D02*
X4941491Y-11803531D01*
X4941491Y-11803531D02*
X4951015Y-11794008D01*
X4951015Y-11794008D02*
X4970063Y-11784484D01*
X5160539Y-11784484D02*
X5179586Y-11784484D01*
X5179586Y-11784484D02*
X5198634Y-11794008D01*
X5198634Y-11794008D02*
X5208158Y-11803531D01*
X5208158Y-11803531D02*
X5217682Y-11822579D01*
X5217682Y-11822579D02*
X5227205Y-11860674D01*
X5227205Y-11860674D02*
X5227205Y-11908293D01*
X5227205Y-11908293D02*
X5217682Y-11946388D01*
X5217682Y-11946388D02*
X5208158Y-11965436D01*
X5208158Y-11965436D02*
X5198634Y-11974960D01*
X5198634Y-11974960D02*
X5179586Y-11984484D01*
X5179586Y-11984484D02*
X5160539Y-11984484D01*
X5160539Y-11984484D02*
X5141491Y-11974960D01*
X5141491Y-11974960D02*
X5131967Y-11965436D01*
X5131967Y-11965436D02*
X5122444Y-11946388D01*
X5122444Y-11946388D02*
X5112920Y-11908293D01*
X5112920Y-11908293D02*
X5112920Y-11860674D01*
X5112920Y-11860674D02*
X5122444Y-11822579D01*
X5122444Y-11822579D02*
X5131967Y-11803531D01*
X5131967Y-11803531D02*
X5141491Y-11794008D01*
X5141491Y-11794008D02*
X5160539Y-11784484D01*
X5312920Y-11984484D02*
X5312920Y-11851150D01*
X5312920Y-11870198D02*
X5322444Y-11860674D01*
X5322444Y-11860674D02*
X5341491Y-11851150D01*
X5341491Y-11851150D02*
X5370063Y-11851150D01*
X5370063Y-11851150D02*
X5389110Y-11860674D01*
X5389110Y-11860674D02*
X5398634Y-11879722D01*
X5398634Y-11879722D02*
X5398634Y-11984484D01*
X5398634Y-11879722D02*
X5408158Y-11860674D01*
X5408158Y-11860674D02*
X5427205Y-11851150D01*
X5427205Y-11851150D02*
X5455777Y-11851150D01*
X5455777Y-11851150D02*
X5474825Y-11860674D01*
X5474825Y-11860674D02*
X5484348Y-11879722D01*
X5484348Y-11879722D02*
X5484348Y-11984484D01*
X5579586Y-11984484D02*
X5579586Y-11851150D01*
X5579586Y-11870198D02*
X5589110Y-11860674D01*
X5589110Y-11860674D02*
X5608158Y-11851150D01*
X5608158Y-11851150D02*
X5636729Y-11851150D01*
X5636729Y-11851150D02*
X5655777Y-11860674D01*
X5655777Y-11860674D02*
X5665301Y-11879722D01*
X5665301Y-11879722D02*
X5665301Y-11984484D01*
X5665301Y-11879722D02*
X5674824Y-11860674D01*
X5674824Y-11860674D02*
X5693872Y-11851150D01*
X5693872Y-11851150D02*
X5722443Y-11851150D01*
X5722443Y-11851150D02*
X5741491Y-11860674D01*
X5741491Y-11860674D02*
X5751015Y-11879722D01*
X5751015Y-11879722D02*
X5751015Y-11984484D01*
X6141491Y-11774960D02*
X5970063Y-12032103D01*
X6398634Y-11784484D02*
X6417682Y-11784484D01*
X6417682Y-11784484D02*
X6436729Y-11794008D01*
X6436729Y-11794008D02*
X6446253Y-11803531D01*
X6446253Y-11803531D02*
X6455777Y-11822579D01*
X6455777Y-11822579D02*
X6465301Y-11860674D01*
X6465301Y-11860674D02*
X6465301Y-11908293D01*
X6465301Y-11908293D02*
X6455777Y-11946388D01*
X6455777Y-11946388D02*
X6446253Y-11965436D01*
X6446253Y-11965436D02*
X6436729Y-11974960D01*
X6436729Y-11974960D02*
X6417682Y-11984484D01*
X6417682Y-11984484D02*
X6398634Y-11984484D01*
X6398634Y-11984484D02*
X6379586Y-11974960D01*
X6379586Y-11974960D02*
X6370063Y-11965436D01*
X6370063Y-11965436D02*
X6360539Y-11946388D01*
X6360539Y-11946388D02*
X6351015Y-11908293D01*
X6351015Y-11908293D02*
X6351015Y-11860674D01*
X6351015Y-11860674D02*
X6360539Y-11822579D01*
X6360539Y-11822579D02*
X6370063Y-11803531D01*
X6370063Y-11803531D02*
X6379586Y-11794008D01*
X6379586Y-11794008D02*
X6398634Y-11784484D01*
X6551015Y-11965436D02*
X6560539Y-11974960D01*
X6560539Y-11974960D02*
X6551015Y-11984484D01*
X6551015Y-11984484D02*
X6541491Y-11974960D01*
X6541491Y-11974960D02*
X6551015Y-11965436D01*
X6551015Y-11965436D02*
X6551015Y-11984484D01*
X6684348Y-11784484D02*
X6703396Y-11784484D01*
X6703396Y-11784484D02*
X6722444Y-11794008D01*
X6722444Y-11794008D02*
X6731967Y-11803531D01*
X6731967Y-11803531D02*
X6741491Y-11822579D01*
X6741491Y-11822579D02*
X6751015Y-11860674D01*
X6751015Y-11860674D02*
X6751015Y-11908293D01*
X6751015Y-11908293D02*
X6741491Y-11946388D01*
X6741491Y-11946388D02*
X6731967Y-11965436D01*
X6731967Y-11965436D02*
X6722444Y-11974960D01*
X6722444Y-11974960D02*
X6703396Y-11984484D01*
X6703396Y-11984484D02*
X6684348Y-11984484D01*
X6684348Y-11984484D02*
X6665301Y-11974960D01*
X6665301Y-11974960D02*
X6655777Y-11965436D01*
X6655777Y-11965436D02*
X6646253Y-11946388D01*
X6646253Y-11946388D02*
X6636729Y-11908293D01*
X6636729Y-11908293D02*
X6636729Y-11860674D01*
X6636729Y-11860674D02*
X6646253Y-11822579D01*
X6646253Y-11822579D02*
X6655777Y-11803531D01*
X6655777Y-11803531D02*
X6665301Y-11794008D01*
X6665301Y-11794008D02*
X6684348Y-11784484D01*
X6922444Y-11851150D02*
X6922444Y-11984484D01*
X6874825Y-11774960D02*
X6827206Y-11917817D01*
X6827206Y-11917817D02*
X6951015Y-11917817D01*
X7008158Y-11784484D02*
X7141491Y-11784484D01*
X7141491Y-11784484D02*
X7055777Y-11984484D01*
X7208158Y-11803531D02*
X7217682Y-11794008D01*
X7217682Y-11794008D02*
X7236729Y-11784484D01*
X7236729Y-11784484D02*
X7284348Y-11784484D01*
X7284348Y-11784484D02*
X7303396Y-11794008D01*
X7303396Y-11794008D02*
X7312920Y-11803531D01*
X7312920Y-11803531D02*
X7322444Y-11822579D01*
X7322444Y-11822579D02*
X7322444Y-11841627D01*
X7322444Y-11841627D02*
X7312920Y-11870198D01*
X7312920Y-11870198D02*
X7198634Y-11984484D01*
X7198634Y-11984484D02*
X7322444Y-11984484D01*
X7398634Y-11784484D02*
X7398634Y-11822579D01*
X7474825Y-11784484D02*
X7474825Y-11822579D01*
X7770063Y-12060674D02*
X7760539Y-12051150D01*
X7760539Y-12051150D02*
X7741491Y-12022579D01*
X7741491Y-12022579D02*
X7731968Y-12003531D01*
X7731968Y-12003531D02*
X7722444Y-11974960D01*
X7722444Y-11974960D02*
X7712920Y-11927341D01*
X7712920Y-11927341D02*
X7712920Y-11889246D01*
X7712920Y-11889246D02*
X7722444Y-11841627D01*
X7722444Y-11841627D02*
X7731968Y-11813055D01*
X7731968Y-11813055D02*
X7741491Y-11794008D01*
X7741491Y-11794008D02*
X7760539Y-11765436D01*
X7760539Y-11765436D02*
X7770063Y-11755912D01*
X7931968Y-11851150D02*
X7931968Y-11984484D01*
X7884348Y-11774960D02*
X7836729Y-11917817D01*
X7836729Y-11917817D02*
X7960539Y-11917817D01*
X8189110Y-11984484D02*
X8189110Y-11784484D01*
X8274825Y-11984484D02*
X8274825Y-11879722D01*
X8274825Y-11879722D02*
X8265301Y-11860674D01*
X8265301Y-11860674D02*
X8246253Y-11851150D01*
X8246253Y-11851150D02*
X8217682Y-11851150D01*
X8217682Y-11851150D02*
X8198634Y-11860674D01*
X8198634Y-11860674D02*
X8189110Y-11870198D01*
X8398634Y-11984484D02*
X8379587Y-11974960D01*
X8379587Y-11974960D02*
X8370063Y-11965436D01*
X8370063Y-11965436D02*
X8360539Y-11946388D01*
X8360539Y-11946388D02*
X8360539Y-11889246D01*
X8360539Y-11889246D02*
X8370063Y-11870198D01*
X8370063Y-11870198D02*
X8379587Y-11860674D01*
X8379587Y-11860674D02*
X8398634Y-11851150D01*
X8398634Y-11851150D02*
X8427206Y-11851150D01*
X8427206Y-11851150D02*
X8446253Y-11860674D01*
X8446253Y-11860674D02*
X8455777Y-11870198D01*
X8455777Y-11870198D02*
X8465301Y-11889246D01*
X8465301Y-11889246D02*
X8465301Y-11946388D01*
X8465301Y-11946388D02*
X8455777Y-11965436D01*
X8455777Y-11965436D02*
X8446253Y-11974960D01*
X8446253Y-11974960D02*
X8427206Y-11984484D01*
X8427206Y-11984484D02*
X8398634Y-11984484D01*
X8579587Y-11984484D02*
X8560539Y-11974960D01*
X8560539Y-11974960D02*
X8551015Y-11955912D01*
X8551015Y-11955912D02*
X8551015Y-11784484D01*
X8731968Y-11974960D02*
X8712920Y-11984484D01*
X8712920Y-11984484D02*
X8674825Y-11984484D01*
X8674825Y-11984484D02*
X8655777Y-11974960D01*
X8655777Y-11974960D02*
X8646253Y-11955912D01*
X8646253Y-11955912D02*
X8646253Y-11879722D01*
X8646253Y-11879722D02*
X8655777Y-11860674D01*
X8655777Y-11860674D02*
X8674825Y-11851150D01*
X8674825Y-11851150D02*
X8712920Y-11851150D01*
X8712920Y-11851150D02*
X8731968Y-11860674D01*
X8731968Y-11860674D02*
X8741492Y-11879722D01*
X8741492Y-11879722D02*
X8741492Y-11898769D01*
X8741492Y-11898769D02*
X8646253Y-11917817D01*
X8817682Y-11974960D02*
X8836730Y-11984484D01*
X8836730Y-11984484D02*
X8874825Y-11984484D01*
X8874825Y-11984484D02*
X8893873Y-11974960D01*
X8893873Y-11974960D02*
X8903396Y-11955912D01*
X8903396Y-11955912D02*
X8903396Y-11946388D01*
X8903396Y-11946388D02*
X8893873Y-11927341D01*
X8893873Y-11927341D02*
X8874825Y-11917817D01*
X8874825Y-11917817D02*
X8846253Y-11917817D01*
X8846253Y-11917817D02*
X8827206Y-11908293D01*
X8827206Y-11908293D02*
X8817682Y-11889246D01*
X8817682Y-11889246D02*
X8817682Y-11879722D01*
X8817682Y-11879722D02*
X8827206Y-11860674D01*
X8827206Y-11860674D02*
X8846253Y-11851150D01*
X8846253Y-11851150D02*
X8874825Y-11851150D01*
X8874825Y-11851150D02*
X8893873Y-11860674D01*
X8970063Y-12060674D02*
X8979587Y-12051150D01*
X8979587Y-12051150D02*
X8998634Y-12022579D01*
X8998634Y-12022579D02*
X9008158Y-12003531D01*
X9008158Y-12003531D02*
X9017682Y-11974960D01*
X9017682Y-11974960D02*
X9027206Y-11927341D01*
X9027206Y-11927341D02*
X9027206Y-11889246D01*
X9027206Y-11889246D02*
X9017682Y-11841627D01*
X9017682Y-11841627D02*
X9008158Y-11813055D01*
X9008158Y-11813055D02*
X8998634Y-11794008D01*
X8998634Y-11794008D02*
X8979587Y-11765436D01*
X8979587Y-11765436D02*
X8970063Y-11755912D01*
D19*
X4035000Y-12077000D02*
X4195000Y-12237000D01*
X4195000Y-12077000D02*
X4035000Y-12237000D01*
X4115000Y-12237000D02*
X4195000Y-12157000D01*
X4115000Y-12077000D01*
X4035000Y-12157000D01*
X4115000Y-12237000D01*
D11*
X4560539Y-12248484D02*
X4446253Y-12248484D01*
X4503396Y-12248484D02*
X4503396Y-12048484D01*
X4503396Y-12048484D02*
X4484348Y-12077055D01*
X4484348Y-12077055D02*
X4465301Y-12096103D01*
X4465301Y-12096103D02*
X4446253Y-12105627D01*
X4646253Y-12229436D02*
X4655777Y-12238960D01*
X4655777Y-12238960D02*
X4646253Y-12248484D01*
X4646253Y-12248484D02*
X4636729Y-12238960D01*
X4636729Y-12238960D02*
X4646253Y-12229436D01*
X4646253Y-12229436D02*
X4646253Y-12248484D01*
X4827205Y-12048484D02*
X4789110Y-12048484D01*
X4789110Y-12048484D02*
X4770063Y-12058008D01*
X4770063Y-12058008D02*
X4760539Y-12067531D01*
X4760539Y-12067531D02*
X4741491Y-12096103D01*
X4741491Y-12096103D02*
X4731967Y-12134198D01*
X4731967Y-12134198D02*
X4731967Y-12210388D01*
X4731967Y-12210388D02*
X4741491Y-12229436D01*
X4741491Y-12229436D02*
X4751015Y-12238960D01*
X4751015Y-12238960D02*
X4770063Y-12248484D01*
X4770063Y-12248484D02*
X4808158Y-12248484D01*
X4808158Y-12248484D02*
X4827205Y-12238960D01*
X4827205Y-12238960D02*
X4836729Y-12229436D01*
X4836729Y-12229436D02*
X4846253Y-12210388D01*
X4846253Y-12210388D02*
X4846253Y-12162769D01*
X4846253Y-12162769D02*
X4836729Y-12143722D01*
X4836729Y-12143722D02*
X4827205Y-12134198D01*
X4827205Y-12134198D02*
X4808158Y-12124674D01*
X4808158Y-12124674D02*
X4770063Y-12124674D01*
X4770063Y-12124674D02*
X4751015Y-12134198D01*
X4751015Y-12134198D02*
X4741491Y-12143722D01*
X4741491Y-12143722D02*
X4731967Y-12162769D01*
X4970063Y-12048484D02*
X4989110Y-12048484D01*
X4989110Y-12048484D02*
X5008158Y-12058008D01*
X5008158Y-12058008D02*
X5017682Y-12067531D01*
X5017682Y-12067531D02*
X5027205Y-12086579D01*
X5027205Y-12086579D02*
X5036729Y-12124674D01*
X5036729Y-12124674D02*
X5036729Y-12172293D01*
X5036729Y-12172293D02*
X5027205Y-12210388D01*
X5027205Y-12210388D02*
X5017682Y-12229436D01*
X5017682Y-12229436D02*
X5008158Y-12238960D01*
X5008158Y-12238960D02*
X4989110Y-12248484D01*
X4989110Y-12248484D02*
X4970063Y-12248484D01*
X4970063Y-12248484D02*
X4951015Y-12238960D01*
X4951015Y-12238960D02*
X4941491Y-12229436D01*
X4941491Y-12229436D02*
X4931967Y-12210388D01*
X4931967Y-12210388D02*
X4922444Y-12172293D01*
X4922444Y-12172293D02*
X4922444Y-12124674D01*
X4922444Y-12124674D02*
X4931967Y-12086579D01*
X4931967Y-12086579D02*
X4941491Y-12067531D01*
X4941491Y-12067531D02*
X4951015Y-12058008D01*
X4951015Y-12058008D02*
X4970063Y-12048484D01*
X5160539Y-12048484D02*
X5179586Y-12048484D01*
X5179586Y-12048484D02*
X5198634Y-12058008D01*
X5198634Y-12058008D02*
X5208158Y-12067531D01*
X5208158Y-12067531D02*
X5217682Y-12086579D01*
X5217682Y-12086579D02*
X5227205Y-12124674D01*
X5227205Y-12124674D02*
X5227205Y-12172293D01*
X5227205Y-12172293D02*
X5217682Y-12210388D01*
X5217682Y-12210388D02*
X5208158Y-12229436D01*
X5208158Y-12229436D02*
X5198634Y-12238960D01*
X5198634Y-12238960D02*
X5179586Y-12248484D01*
X5179586Y-12248484D02*
X5160539Y-12248484D01*
X5160539Y-12248484D02*
X5141491Y-12238960D01*
X5141491Y-12238960D02*
X5131967Y-12229436D01*
X5131967Y-12229436D02*
X5122444Y-12210388D01*
X5122444Y-12210388D02*
X5112920Y-12172293D01*
X5112920Y-12172293D02*
X5112920Y-12124674D01*
X5112920Y-12124674D02*
X5122444Y-12086579D01*
X5122444Y-12086579D02*
X5131967Y-12067531D01*
X5131967Y-12067531D02*
X5141491Y-12058008D01*
X5141491Y-12058008D02*
X5160539Y-12048484D01*
X5312920Y-12248484D02*
X5312920Y-12115150D01*
X5312920Y-12134198D02*
X5322444Y-12124674D01*
X5322444Y-12124674D02*
X5341491Y-12115150D01*
X5341491Y-12115150D02*
X5370063Y-12115150D01*
X5370063Y-12115150D02*
X5389110Y-12124674D01*
X5389110Y-12124674D02*
X5398634Y-12143722D01*
X5398634Y-12143722D02*
X5398634Y-12248484D01*
X5398634Y-12143722D02*
X5408158Y-12124674D01*
X5408158Y-12124674D02*
X5427205Y-12115150D01*
X5427205Y-12115150D02*
X5455777Y-12115150D01*
X5455777Y-12115150D02*
X5474825Y-12124674D01*
X5474825Y-12124674D02*
X5484348Y-12143722D01*
X5484348Y-12143722D02*
X5484348Y-12248484D01*
X5579586Y-12248484D02*
X5579586Y-12115150D01*
X5579586Y-12134198D02*
X5589110Y-12124674D01*
X5589110Y-12124674D02*
X5608158Y-12115150D01*
X5608158Y-12115150D02*
X5636729Y-12115150D01*
X5636729Y-12115150D02*
X5655777Y-12124674D01*
X5655777Y-12124674D02*
X5665301Y-12143722D01*
X5665301Y-12143722D02*
X5665301Y-12248484D01*
X5665301Y-12143722D02*
X5674824Y-12124674D01*
X5674824Y-12124674D02*
X5693872Y-12115150D01*
X5693872Y-12115150D02*
X5722443Y-12115150D01*
X5722443Y-12115150D02*
X5741491Y-12124674D01*
X5741491Y-12124674D02*
X5751015Y-12143722D01*
X5751015Y-12143722D02*
X5751015Y-12248484D01*
X6141491Y-12038960D02*
X5970063Y-12296103D01*
X6398634Y-12048484D02*
X6417682Y-12048484D01*
X6417682Y-12048484D02*
X6436729Y-12058008D01*
X6436729Y-12058008D02*
X6446253Y-12067531D01*
X6446253Y-12067531D02*
X6455777Y-12086579D01*
X6455777Y-12086579D02*
X6465301Y-12124674D01*
X6465301Y-12124674D02*
X6465301Y-12172293D01*
X6465301Y-12172293D02*
X6455777Y-12210388D01*
X6455777Y-12210388D02*
X6446253Y-12229436D01*
X6446253Y-12229436D02*
X6436729Y-12238960D01*
X6436729Y-12238960D02*
X6417682Y-12248484D01*
X6417682Y-12248484D02*
X6398634Y-12248484D01*
X6398634Y-12248484D02*
X6379586Y-12238960D01*
X6379586Y-12238960D02*
X6370063Y-12229436D01*
X6370063Y-12229436D02*
X6360539Y-12210388D01*
X6360539Y-12210388D02*
X6351015Y-12172293D01*
X6351015Y-12172293D02*
X6351015Y-12124674D01*
X6351015Y-12124674D02*
X6360539Y-12086579D01*
X6360539Y-12086579D02*
X6370063Y-12067531D01*
X6370063Y-12067531D02*
X6379586Y-12058008D01*
X6379586Y-12058008D02*
X6398634Y-12048484D01*
X6551015Y-12229436D02*
X6560539Y-12238960D01*
X6560539Y-12238960D02*
X6551015Y-12248484D01*
X6551015Y-12248484D02*
X6541491Y-12238960D01*
X6541491Y-12238960D02*
X6551015Y-12229436D01*
X6551015Y-12229436D02*
X6551015Y-12248484D01*
X6684348Y-12048484D02*
X6703396Y-12048484D01*
X6703396Y-12048484D02*
X6722444Y-12058008D01*
X6722444Y-12058008D02*
X6731967Y-12067531D01*
X6731967Y-12067531D02*
X6741491Y-12086579D01*
X6741491Y-12086579D02*
X6751015Y-12124674D01*
X6751015Y-12124674D02*
X6751015Y-12172293D01*
X6751015Y-12172293D02*
X6741491Y-12210388D01*
X6741491Y-12210388D02*
X6731967Y-12229436D01*
X6731967Y-12229436D02*
X6722444Y-12238960D01*
X6722444Y-12238960D02*
X6703396Y-12248484D01*
X6703396Y-12248484D02*
X6684348Y-12248484D01*
X6684348Y-12248484D02*
X6665301Y-12238960D01*
X6665301Y-12238960D02*
X6655777Y-12229436D01*
X6655777Y-12229436D02*
X6646253Y-12210388D01*
X6646253Y-12210388D02*
X6636729Y-12172293D01*
X6636729Y-12172293D02*
X6636729Y-12124674D01*
X6636729Y-12124674D02*
X6646253Y-12086579D01*
X6646253Y-12086579D02*
X6655777Y-12067531D01*
X6655777Y-12067531D02*
X6665301Y-12058008D01*
X6665301Y-12058008D02*
X6684348Y-12048484D01*
X6922444Y-12048484D02*
X6884348Y-12048484D01*
X6884348Y-12048484D02*
X6865301Y-12058008D01*
X6865301Y-12058008D02*
X6855777Y-12067531D01*
X6855777Y-12067531D02*
X6836729Y-12096103D01*
X6836729Y-12096103D02*
X6827206Y-12134198D01*
X6827206Y-12134198D02*
X6827206Y-12210388D01*
X6827206Y-12210388D02*
X6836729Y-12229436D01*
X6836729Y-12229436D02*
X6846253Y-12238960D01*
X6846253Y-12238960D02*
X6865301Y-12248484D01*
X6865301Y-12248484D02*
X6903396Y-12248484D01*
X6903396Y-12248484D02*
X6922444Y-12238960D01*
X6922444Y-12238960D02*
X6931967Y-12229436D01*
X6931967Y-12229436D02*
X6941491Y-12210388D01*
X6941491Y-12210388D02*
X6941491Y-12162769D01*
X6941491Y-12162769D02*
X6931967Y-12143722D01*
X6931967Y-12143722D02*
X6922444Y-12134198D01*
X6922444Y-12134198D02*
X6903396Y-12124674D01*
X6903396Y-12124674D02*
X6865301Y-12124674D01*
X6865301Y-12124674D02*
X6846253Y-12134198D01*
X6846253Y-12134198D02*
X6836729Y-12143722D01*
X6836729Y-12143722D02*
X6827206Y-12162769D01*
X7008158Y-12048484D02*
X7131967Y-12048484D01*
X7131967Y-12048484D02*
X7065301Y-12124674D01*
X7065301Y-12124674D02*
X7093872Y-12124674D01*
X7093872Y-12124674D02*
X7112920Y-12134198D01*
X7112920Y-12134198D02*
X7122444Y-12143722D01*
X7122444Y-12143722D02*
X7131967Y-12162769D01*
X7131967Y-12162769D02*
X7131967Y-12210388D01*
X7131967Y-12210388D02*
X7122444Y-12229436D01*
X7122444Y-12229436D02*
X7112920Y-12238960D01*
X7112920Y-12238960D02*
X7093872Y-12248484D01*
X7093872Y-12248484D02*
X7036729Y-12248484D01*
X7036729Y-12248484D02*
X7017682Y-12238960D01*
X7017682Y-12238960D02*
X7008158Y-12229436D01*
X7255777Y-12048484D02*
X7274825Y-12048484D01*
X7274825Y-12048484D02*
X7293872Y-12058008D01*
X7293872Y-12058008D02*
X7303396Y-12067531D01*
X7303396Y-12067531D02*
X7312920Y-12086579D01*
X7312920Y-12086579D02*
X7322444Y-12124674D01*
X7322444Y-12124674D02*
X7322444Y-12172293D01*
X7322444Y-12172293D02*
X7312920Y-12210388D01*
X7312920Y-12210388D02*
X7303396Y-12229436D01*
X7303396Y-12229436D02*
X7293872Y-12238960D01*
X7293872Y-12238960D02*
X7274825Y-12248484D01*
X7274825Y-12248484D02*
X7255777Y-12248484D01*
X7255777Y-12248484D02*
X7236729Y-12238960D01*
X7236729Y-12238960D02*
X7227206Y-12229436D01*
X7227206Y-12229436D02*
X7217682Y-12210388D01*
X7217682Y-12210388D02*
X7208158Y-12172293D01*
X7208158Y-12172293D02*
X7208158Y-12124674D01*
X7208158Y-12124674D02*
X7217682Y-12086579D01*
X7217682Y-12086579D02*
X7227206Y-12067531D01*
X7227206Y-12067531D02*
X7236729Y-12058008D01*
X7236729Y-12058008D02*
X7255777Y-12048484D01*
X7398634Y-12048484D02*
X7398634Y-12086579D01*
X7474825Y-12048484D02*
X7474825Y-12086579D01*
X7770063Y-12324674D02*
X7760539Y-12315150D01*
X7760539Y-12315150D02*
X7741491Y-12286579D01*
X7741491Y-12286579D02*
X7731968Y-12267531D01*
X7731968Y-12267531D02*
X7722444Y-12238960D01*
X7722444Y-12238960D02*
X7712920Y-12191341D01*
X7712920Y-12191341D02*
X7712920Y-12153246D01*
X7712920Y-12153246D02*
X7722444Y-12105627D01*
X7722444Y-12105627D02*
X7731968Y-12077055D01*
X7731968Y-12077055D02*
X7741491Y-12058008D01*
X7741491Y-12058008D02*
X7760539Y-12029436D01*
X7760539Y-12029436D02*
X7770063Y-12019912D01*
X7836729Y-12067531D02*
X7846253Y-12058008D01*
X7846253Y-12058008D02*
X7865301Y-12048484D01*
X7865301Y-12048484D02*
X7912920Y-12048484D01*
X7912920Y-12048484D02*
X7931968Y-12058008D01*
X7931968Y-12058008D02*
X7941491Y-12067531D01*
X7941491Y-12067531D02*
X7951015Y-12086579D01*
X7951015Y-12086579D02*
X7951015Y-12105627D01*
X7951015Y-12105627D02*
X7941491Y-12134198D01*
X7941491Y-12134198D02*
X7827206Y-12248484D01*
X7827206Y-12248484D02*
X7951015Y-12248484D01*
X8189110Y-12248484D02*
X8189110Y-12048484D01*
X8274825Y-12248484D02*
X8274825Y-12143722D01*
X8274825Y-12143722D02*
X8265301Y-12124674D01*
X8265301Y-12124674D02*
X8246253Y-12115150D01*
X8246253Y-12115150D02*
X8217682Y-12115150D01*
X8217682Y-12115150D02*
X8198634Y-12124674D01*
X8198634Y-12124674D02*
X8189110Y-12134198D01*
X8398634Y-12248484D02*
X8379587Y-12238960D01*
X8379587Y-12238960D02*
X8370063Y-12229436D01*
X8370063Y-12229436D02*
X8360539Y-12210388D01*
X8360539Y-12210388D02*
X8360539Y-12153246D01*
X8360539Y-12153246D02*
X8370063Y-12134198D01*
X8370063Y-12134198D02*
X8379587Y-12124674D01*
X8379587Y-12124674D02*
X8398634Y-12115150D01*
X8398634Y-12115150D02*
X8427206Y-12115150D01*
X8427206Y-12115150D02*
X8446253Y-12124674D01*
X8446253Y-12124674D02*
X8455777Y-12134198D01*
X8455777Y-12134198D02*
X8465301Y-12153246D01*
X8465301Y-12153246D02*
X8465301Y-12210388D01*
X8465301Y-12210388D02*
X8455777Y-12229436D01*
X8455777Y-12229436D02*
X8446253Y-12238960D01*
X8446253Y-12238960D02*
X8427206Y-12248484D01*
X8427206Y-12248484D02*
X8398634Y-12248484D01*
X8579587Y-12248484D02*
X8560539Y-12238960D01*
X8560539Y-12238960D02*
X8551015Y-12219912D01*
X8551015Y-12219912D02*
X8551015Y-12048484D01*
X8731968Y-12238960D02*
X8712920Y-12248484D01*
X8712920Y-12248484D02*
X8674825Y-12248484D01*
X8674825Y-12248484D02*
X8655777Y-12238960D01*
X8655777Y-12238960D02*
X8646253Y-12219912D01*
X8646253Y-12219912D02*
X8646253Y-12143722D01*
X8646253Y-12143722D02*
X8655777Y-12124674D01*
X8655777Y-12124674D02*
X8674825Y-12115150D01*
X8674825Y-12115150D02*
X8712920Y-12115150D01*
X8712920Y-12115150D02*
X8731968Y-12124674D01*
X8731968Y-12124674D02*
X8741492Y-12143722D01*
X8741492Y-12143722D02*
X8741492Y-12162769D01*
X8741492Y-12162769D02*
X8646253Y-12181817D01*
X8817682Y-12238960D02*
X8836730Y-12248484D01*
X8836730Y-12248484D02*
X8874825Y-12248484D01*
X8874825Y-12248484D02*
X8893873Y-12238960D01*
X8893873Y-12238960D02*
X8903396Y-12219912D01*
X8903396Y-12219912D02*
X8903396Y-12210388D01*
X8903396Y-12210388D02*
X8893873Y-12191341D01*
X8893873Y-12191341D02*
X8874825Y-12181817D01*
X8874825Y-12181817D02*
X8846253Y-12181817D01*
X8846253Y-12181817D02*
X8827206Y-12172293D01*
X8827206Y-12172293D02*
X8817682Y-12153246D01*
X8817682Y-12153246D02*
X8817682Y-12143722D01*
X8817682Y-12143722D02*
X8827206Y-12124674D01*
X8827206Y-12124674D02*
X8846253Y-12115150D01*
X8846253Y-12115150D02*
X8874825Y-12115150D01*
X8874825Y-12115150D02*
X8893873Y-12124674D01*
X8970063Y-12324674D02*
X8979587Y-12315150D01*
X8979587Y-12315150D02*
X8998634Y-12286579D01*
X8998634Y-12286579D02*
X9008158Y-12267531D01*
X9008158Y-12267531D02*
X9017682Y-12238960D01*
X9017682Y-12238960D02*
X9027206Y-12191341D01*
X9027206Y-12191341D02*
X9027206Y-12153246D01*
X9027206Y-12153246D02*
X9017682Y-12105627D01*
X9017682Y-12105627D02*
X9008158Y-12077055D01*
X9008158Y-12077055D02*
X8998634Y-12058008D01*
X8998634Y-12058008D02*
X8979587Y-12029436D01*
X8979587Y-12029436D02*
X8970063Y-12019912D01*
X4095000Y-12337000D02*
X4095000Y-12537000D01*
X3995000Y-12437000D02*
X4195000Y-12437000D01*
X4195000Y-12437000D02*
G75*
G03*
X4195000Y-12437000I-100000J0D01*
G01*
X4446253Y-12347531D02*
X4455777Y-12338008D01*
X4455777Y-12338008D02*
X4474824Y-12328484D01*
X4474824Y-12328484D02*
X4522444Y-12328484D01*
X4522444Y-12328484D02*
X4541491Y-12338008D01*
X4541491Y-12338008D02*
X4551015Y-12347531D01*
X4551015Y-12347531D02*
X4560539Y-12366579D01*
X4560539Y-12366579D02*
X4560539Y-12385627D01*
X4560539Y-12385627D02*
X4551015Y-12414198D01*
X4551015Y-12414198D02*
X4436729Y-12528484D01*
X4436729Y-12528484D02*
X4560539Y-12528484D01*
X4646253Y-12509436D02*
X4655777Y-12518960D01*
X4655777Y-12518960D02*
X4646253Y-12528484D01*
X4646253Y-12528484D02*
X4636729Y-12518960D01*
X4636729Y-12518960D02*
X4646253Y-12509436D01*
X4646253Y-12509436D02*
X4646253Y-12528484D01*
X4779586Y-12328484D02*
X4798634Y-12328484D01*
X4798634Y-12328484D02*
X4817682Y-12338008D01*
X4817682Y-12338008D02*
X4827205Y-12347531D01*
X4827205Y-12347531D02*
X4836729Y-12366579D01*
X4836729Y-12366579D02*
X4846253Y-12404674D01*
X4846253Y-12404674D02*
X4846253Y-12452293D01*
X4846253Y-12452293D02*
X4836729Y-12490388D01*
X4836729Y-12490388D02*
X4827205Y-12509436D01*
X4827205Y-12509436D02*
X4817682Y-12518960D01*
X4817682Y-12518960D02*
X4798634Y-12528484D01*
X4798634Y-12528484D02*
X4779586Y-12528484D01*
X4779586Y-12528484D02*
X4760539Y-12518960D01*
X4760539Y-12518960D02*
X4751015Y-12509436D01*
X4751015Y-12509436D02*
X4741491Y-12490388D01*
X4741491Y-12490388D02*
X4731967Y-12452293D01*
X4731967Y-12452293D02*
X4731967Y-12404674D01*
X4731967Y-12404674D02*
X4741491Y-12366579D01*
X4741491Y-12366579D02*
X4751015Y-12347531D01*
X4751015Y-12347531D02*
X4760539Y-12338008D01*
X4760539Y-12338008D02*
X4779586Y-12328484D01*
X4970063Y-12328484D02*
X4989110Y-12328484D01*
X4989110Y-12328484D02*
X5008158Y-12338008D01*
X5008158Y-12338008D02*
X5017682Y-12347531D01*
X5017682Y-12347531D02*
X5027205Y-12366579D01*
X5027205Y-12366579D02*
X5036729Y-12404674D01*
X5036729Y-12404674D02*
X5036729Y-12452293D01*
X5036729Y-12452293D02*
X5027205Y-12490388D01*
X5027205Y-12490388D02*
X5017682Y-12509436D01*
X5017682Y-12509436D02*
X5008158Y-12518960D01*
X5008158Y-12518960D02*
X4989110Y-12528484D01*
X4989110Y-12528484D02*
X4970063Y-12528484D01*
X4970063Y-12528484D02*
X4951015Y-12518960D01*
X4951015Y-12518960D02*
X4941491Y-12509436D01*
X4941491Y-12509436D02*
X4931967Y-12490388D01*
X4931967Y-12490388D02*
X4922444Y-12452293D01*
X4922444Y-12452293D02*
X4922444Y-12404674D01*
X4922444Y-12404674D02*
X4931967Y-12366579D01*
X4931967Y-12366579D02*
X4941491Y-12347531D01*
X4941491Y-12347531D02*
X4951015Y-12338008D01*
X4951015Y-12338008D02*
X4970063Y-12328484D01*
X5160539Y-12328484D02*
X5179586Y-12328484D01*
X5179586Y-12328484D02*
X5198634Y-12338008D01*
X5198634Y-12338008D02*
X5208158Y-12347531D01*
X5208158Y-12347531D02*
X5217682Y-12366579D01*
X5217682Y-12366579D02*
X5227205Y-12404674D01*
X5227205Y-12404674D02*
X5227205Y-12452293D01*
X5227205Y-12452293D02*
X5217682Y-12490388D01*
X5217682Y-12490388D02*
X5208158Y-12509436D01*
X5208158Y-12509436D02*
X5198634Y-12518960D01*
X5198634Y-12518960D02*
X5179586Y-12528484D01*
X5179586Y-12528484D02*
X5160539Y-12528484D01*
X5160539Y-12528484D02*
X5141491Y-12518960D01*
X5141491Y-12518960D02*
X5131967Y-12509436D01*
X5131967Y-12509436D02*
X5122444Y-12490388D01*
X5122444Y-12490388D02*
X5112920Y-12452293D01*
X5112920Y-12452293D02*
X5112920Y-12404674D01*
X5112920Y-12404674D02*
X5122444Y-12366579D01*
X5122444Y-12366579D02*
X5131967Y-12347531D01*
X5131967Y-12347531D02*
X5141491Y-12338008D01*
X5141491Y-12338008D02*
X5160539Y-12328484D01*
X5312920Y-12528484D02*
X5312920Y-12395150D01*
X5312920Y-12414198D02*
X5322444Y-12404674D01*
X5322444Y-12404674D02*
X5341491Y-12395150D01*
X5341491Y-12395150D02*
X5370063Y-12395150D01*
X5370063Y-12395150D02*
X5389110Y-12404674D01*
X5389110Y-12404674D02*
X5398634Y-12423722D01*
X5398634Y-12423722D02*
X5398634Y-12528484D01*
X5398634Y-12423722D02*
X5408158Y-12404674D01*
X5408158Y-12404674D02*
X5427205Y-12395150D01*
X5427205Y-12395150D02*
X5455777Y-12395150D01*
X5455777Y-12395150D02*
X5474825Y-12404674D01*
X5474825Y-12404674D02*
X5484348Y-12423722D01*
X5484348Y-12423722D02*
X5484348Y-12528484D01*
X5579586Y-12528484D02*
X5579586Y-12395150D01*
X5579586Y-12414198D02*
X5589110Y-12404674D01*
X5589110Y-12404674D02*
X5608158Y-12395150D01*
X5608158Y-12395150D02*
X5636729Y-12395150D01*
X5636729Y-12395150D02*
X5655777Y-12404674D01*
X5655777Y-12404674D02*
X5665301Y-12423722D01*
X5665301Y-12423722D02*
X5665301Y-12528484D01*
X5665301Y-12423722D02*
X5674824Y-12404674D01*
X5674824Y-12404674D02*
X5693872Y-12395150D01*
X5693872Y-12395150D02*
X5722443Y-12395150D01*
X5722443Y-12395150D02*
X5741491Y-12404674D01*
X5741491Y-12404674D02*
X5751015Y-12423722D01*
X5751015Y-12423722D02*
X5751015Y-12528484D01*
X6141491Y-12318960D02*
X5970063Y-12576103D01*
X6398634Y-12328484D02*
X6417682Y-12328484D01*
X6417682Y-12328484D02*
X6436729Y-12338008D01*
X6436729Y-12338008D02*
X6446253Y-12347531D01*
X6446253Y-12347531D02*
X6455777Y-12366579D01*
X6455777Y-12366579D02*
X6465301Y-12404674D01*
X6465301Y-12404674D02*
X6465301Y-12452293D01*
X6465301Y-12452293D02*
X6455777Y-12490388D01*
X6455777Y-12490388D02*
X6446253Y-12509436D01*
X6446253Y-12509436D02*
X6436729Y-12518960D01*
X6436729Y-12518960D02*
X6417682Y-12528484D01*
X6417682Y-12528484D02*
X6398634Y-12528484D01*
X6398634Y-12528484D02*
X6379586Y-12518960D01*
X6379586Y-12518960D02*
X6370063Y-12509436D01*
X6370063Y-12509436D02*
X6360539Y-12490388D01*
X6360539Y-12490388D02*
X6351015Y-12452293D01*
X6351015Y-12452293D02*
X6351015Y-12404674D01*
X6351015Y-12404674D02*
X6360539Y-12366579D01*
X6360539Y-12366579D02*
X6370063Y-12347531D01*
X6370063Y-12347531D02*
X6379586Y-12338008D01*
X6379586Y-12338008D02*
X6398634Y-12328484D01*
X6551015Y-12509436D02*
X6560539Y-12518960D01*
X6560539Y-12518960D02*
X6551015Y-12528484D01*
X6551015Y-12528484D02*
X6541491Y-12518960D01*
X6541491Y-12518960D02*
X6551015Y-12509436D01*
X6551015Y-12509436D02*
X6551015Y-12528484D01*
X6684348Y-12328484D02*
X6703396Y-12328484D01*
X6703396Y-12328484D02*
X6722444Y-12338008D01*
X6722444Y-12338008D02*
X6731967Y-12347531D01*
X6731967Y-12347531D02*
X6741491Y-12366579D01*
X6741491Y-12366579D02*
X6751015Y-12404674D01*
X6751015Y-12404674D02*
X6751015Y-12452293D01*
X6751015Y-12452293D02*
X6741491Y-12490388D01*
X6741491Y-12490388D02*
X6731967Y-12509436D01*
X6731967Y-12509436D02*
X6722444Y-12518960D01*
X6722444Y-12518960D02*
X6703396Y-12528484D01*
X6703396Y-12528484D02*
X6684348Y-12528484D01*
X6684348Y-12528484D02*
X6665301Y-12518960D01*
X6665301Y-12518960D02*
X6655777Y-12509436D01*
X6655777Y-12509436D02*
X6646253Y-12490388D01*
X6646253Y-12490388D02*
X6636729Y-12452293D01*
X6636729Y-12452293D02*
X6636729Y-12404674D01*
X6636729Y-12404674D02*
X6646253Y-12366579D01*
X6646253Y-12366579D02*
X6655777Y-12347531D01*
X6655777Y-12347531D02*
X6665301Y-12338008D01*
X6665301Y-12338008D02*
X6684348Y-12328484D01*
X6817682Y-12328484D02*
X6951015Y-12328484D01*
X6951015Y-12328484D02*
X6865301Y-12528484D01*
X7055777Y-12414198D02*
X7036729Y-12404674D01*
X7036729Y-12404674D02*
X7027206Y-12395150D01*
X7027206Y-12395150D02*
X7017682Y-12376103D01*
X7017682Y-12376103D02*
X7017682Y-12366579D01*
X7017682Y-12366579D02*
X7027206Y-12347531D01*
X7027206Y-12347531D02*
X7036729Y-12338008D01*
X7036729Y-12338008D02*
X7055777Y-12328484D01*
X7055777Y-12328484D02*
X7093872Y-12328484D01*
X7093872Y-12328484D02*
X7112920Y-12338008D01*
X7112920Y-12338008D02*
X7122444Y-12347531D01*
X7122444Y-12347531D02*
X7131967Y-12366579D01*
X7131967Y-12366579D02*
X7131967Y-12376103D01*
X7131967Y-12376103D02*
X7122444Y-12395150D01*
X7122444Y-12395150D02*
X7112920Y-12404674D01*
X7112920Y-12404674D02*
X7093872Y-12414198D01*
X7093872Y-12414198D02*
X7055777Y-12414198D01*
X7055777Y-12414198D02*
X7036729Y-12423722D01*
X7036729Y-12423722D02*
X7027206Y-12433246D01*
X7027206Y-12433246D02*
X7017682Y-12452293D01*
X7017682Y-12452293D02*
X7017682Y-12490388D01*
X7017682Y-12490388D02*
X7027206Y-12509436D01*
X7027206Y-12509436D02*
X7036729Y-12518960D01*
X7036729Y-12518960D02*
X7055777Y-12528484D01*
X7055777Y-12528484D02*
X7093872Y-12528484D01*
X7093872Y-12528484D02*
X7112920Y-12518960D01*
X7112920Y-12518960D02*
X7122444Y-12509436D01*
X7122444Y-12509436D02*
X7131967Y-12490388D01*
X7131967Y-12490388D02*
X7131967Y-12452293D01*
X7131967Y-12452293D02*
X7122444Y-12433246D01*
X7122444Y-12433246D02*
X7112920Y-12423722D01*
X7112920Y-12423722D02*
X7093872Y-12414198D01*
X7198634Y-12328484D02*
X7331967Y-12328484D01*
X7331967Y-12328484D02*
X7246253Y-12528484D01*
X7398634Y-12328484D02*
X7398634Y-12366579D01*
X7474825Y-12328484D02*
X7474825Y-12366579D01*
X7770063Y-12604674D02*
X7760539Y-12595150D01*
X7760539Y-12595150D02*
X7741491Y-12566579D01*
X7741491Y-12566579D02*
X7731968Y-12547531D01*
X7731968Y-12547531D02*
X7722444Y-12518960D01*
X7722444Y-12518960D02*
X7712920Y-12471341D01*
X7712920Y-12471341D02*
X7712920Y-12433246D01*
X7712920Y-12433246D02*
X7722444Y-12385627D01*
X7722444Y-12385627D02*
X7731968Y-12357055D01*
X7731968Y-12357055D02*
X7741491Y-12338008D01*
X7741491Y-12338008D02*
X7760539Y-12309436D01*
X7760539Y-12309436D02*
X7770063Y-12299912D01*
X7836729Y-12347531D02*
X7846253Y-12338008D01*
X7846253Y-12338008D02*
X7865301Y-12328484D01*
X7865301Y-12328484D02*
X7912920Y-12328484D01*
X7912920Y-12328484D02*
X7931968Y-12338008D01*
X7931968Y-12338008D02*
X7941491Y-12347531D01*
X7941491Y-12347531D02*
X7951015Y-12366579D01*
X7951015Y-12366579D02*
X7951015Y-12385627D01*
X7951015Y-12385627D02*
X7941491Y-12414198D01*
X7941491Y-12414198D02*
X7827206Y-12528484D01*
X7827206Y-12528484D02*
X7951015Y-12528484D01*
X8189110Y-12528484D02*
X8189110Y-12328484D01*
X8274825Y-12528484D02*
X8274825Y-12423722D01*
X8274825Y-12423722D02*
X8265301Y-12404674D01*
X8265301Y-12404674D02*
X8246253Y-12395150D01*
X8246253Y-12395150D02*
X8217682Y-12395150D01*
X8217682Y-12395150D02*
X8198634Y-12404674D01*
X8198634Y-12404674D02*
X8189110Y-12414198D01*
X8398634Y-12528484D02*
X8379587Y-12518960D01*
X8379587Y-12518960D02*
X8370063Y-12509436D01*
X8370063Y-12509436D02*
X8360539Y-12490388D01*
X8360539Y-12490388D02*
X8360539Y-12433246D01*
X8360539Y-12433246D02*
X8370063Y-12414198D01*
X8370063Y-12414198D02*
X8379587Y-12404674D01*
X8379587Y-12404674D02*
X8398634Y-12395150D01*
X8398634Y-12395150D02*
X8427206Y-12395150D01*
X8427206Y-12395150D02*
X8446253Y-12404674D01*
X8446253Y-12404674D02*
X8455777Y-12414198D01*
X8455777Y-12414198D02*
X8465301Y-12433246D01*
X8465301Y-12433246D02*
X8465301Y-12490388D01*
X8465301Y-12490388D02*
X8455777Y-12509436D01*
X8455777Y-12509436D02*
X8446253Y-12518960D01*
X8446253Y-12518960D02*
X8427206Y-12528484D01*
X8427206Y-12528484D02*
X8398634Y-12528484D01*
X8579587Y-12528484D02*
X8560539Y-12518960D01*
X8560539Y-12518960D02*
X8551015Y-12499912D01*
X8551015Y-12499912D02*
X8551015Y-12328484D01*
X8731968Y-12518960D02*
X8712920Y-12528484D01*
X8712920Y-12528484D02*
X8674825Y-12528484D01*
X8674825Y-12528484D02*
X8655777Y-12518960D01*
X8655777Y-12518960D02*
X8646253Y-12499912D01*
X8646253Y-12499912D02*
X8646253Y-12423722D01*
X8646253Y-12423722D02*
X8655777Y-12404674D01*
X8655777Y-12404674D02*
X8674825Y-12395150D01*
X8674825Y-12395150D02*
X8712920Y-12395150D01*
X8712920Y-12395150D02*
X8731968Y-12404674D01*
X8731968Y-12404674D02*
X8741492Y-12423722D01*
X8741492Y-12423722D02*
X8741492Y-12442769D01*
X8741492Y-12442769D02*
X8646253Y-12461817D01*
X8817682Y-12518960D02*
X8836730Y-12528484D01*
X8836730Y-12528484D02*
X8874825Y-12528484D01*
X8874825Y-12528484D02*
X8893873Y-12518960D01*
X8893873Y-12518960D02*
X8903396Y-12499912D01*
X8903396Y-12499912D02*
X8903396Y-12490388D01*
X8903396Y-12490388D02*
X8893873Y-12471341D01*
X8893873Y-12471341D02*
X8874825Y-12461817D01*
X8874825Y-12461817D02*
X8846253Y-12461817D01*
X8846253Y-12461817D02*
X8827206Y-12452293D01*
X8827206Y-12452293D02*
X8817682Y-12433246D01*
X8817682Y-12433246D02*
X8817682Y-12423722D01*
X8817682Y-12423722D02*
X8827206Y-12404674D01*
X8827206Y-12404674D02*
X8846253Y-12395150D01*
X8846253Y-12395150D02*
X8874825Y-12395150D01*
X8874825Y-12395150D02*
X8893873Y-12404674D01*
X8970063Y-12604674D02*
X8979587Y-12595150D01*
X8979587Y-12595150D02*
X8998634Y-12566579D01*
X8998634Y-12566579D02*
X9008158Y-12547531D01*
X9008158Y-12547531D02*
X9017682Y-12518960D01*
X9017682Y-12518960D02*
X9027206Y-12471341D01*
X9027206Y-12471341D02*
X9027206Y-12433246D01*
X9027206Y-12433246D02*
X9017682Y-12385627D01*
X9017682Y-12385627D02*
X9008158Y-12357055D01*
X9008158Y-12357055D02*
X8998634Y-12338008D01*
X8998634Y-12338008D02*
X8979587Y-12309436D01*
X8979587Y-12309436D02*
X8970063Y-12299912D01*
M02*
